mtllib ./egg-dino_4.mtl
g egg-dino
v 0.0874894 0.5109425 -0.07202208
v 0.1092258 0.5109828 0.02268483
v 9.627518E-08 0.5573164 -0.005261807
v 0.04865571 0.5110156 0.09879438
v -0.04865551 0.5110156 0.0987944
v 9.627518E-08 0.5573164 -0.005261807
v -0.1092256 0.5109828 0.02268484
v -0.08748917 0.5109425 -0.07202211
v 9.627518E-08 0.5573164 -0.005261807
v 7.761796E-08 0.5109247 -0.1140988
v 0.0874894 0.5109425 -0.07202208
v 9.627518E-08 0.5573164 -0.005261807
v 0.1092258 0.5109828 0.02268483
v 0.04865571 0.5110156 0.09879438
v 9.627518E-08 0.5573164 -0.005261807
v -0.04865551 0.5110156 0.0987944
v -0.1092256 0.5109828 0.02268484
v 9.627518E-08 0.5573164 -0.005261807
v -0.08748917 0.5109425 -0.07202211
v 7.761796E-08 0.5109247 -0.1140988
v 9.627518E-08 0.5573164 -0.005261807
v 0.09036634 0.01594961 -0.07414033
v 4.749195E-10 -0.006032682 -0.002075594
v 0.112685 0.01601742 0.02364401
v 0.05014954 0.01607083 0.102061
v 4.749195E-10 -0.006032682 -0.002075594
v -0.0501495 0.01607085 0.102061
v -0.112685 0.01601746 0.02364402
v 4.749195E-10 -0.006032682 -0.002075594
v -0.09036633 0.01594964 -0.07414035
v -4.310064E-09 0.01591906 -0.1176585
v 4.749195E-10 -0.006032682 -0.002075594
v 0.09036634 0.01594961 -0.07414033
v 0.112685 0.01601742 0.02364401
v 4.749195E-10 -0.006032682 -0.002075594
v 0.05014954 0.01607083 0.102061
v -0.0501495 0.01607085 0.102061
v 4.749195E-10 -0.006032682 -0.002075594
v -0.112685 0.01601746 0.02364402
v -0.09036633 0.01594964 -0.07414035
v 4.749195E-10 -0.006032682 -0.002075594
v -4.310064E-09 0.01591906 -0.1176585
v -0.1299921 0.06375162 -0.1032312
v 5.497238E-10 0.06371205 -0.1658283
v 1.736778E-08 0.1739469 -0.1884757
v -0.1486984 0.1737848 -0.1169627
v 0.1299921 0.06375157 -0.1032312
v 0.1621003 0.06385583 0.0374325
v 0.1856392 0.1734331 0.04400222
v 0.1486984 0.1737847 -0.1169627
v 0.07214145 0.06394396 0.1502374
v -0.07214142 0.06394396 0.1502374
v -0.08269109 0.1731635 0.1733497
v 0.08269123 0.1731635 0.1733497
v -0.1621003 0.06385589 0.03743251
v -0.1299921 0.06375162 -0.1032312
v -0.1486984 0.1737848 -0.1169627
v -0.1856391 0.1734332 0.04400225
v 5.497238E-10 0.06371205 -0.1658283
v 0.1299921 0.06375157 -0.1032312
v 0.1486984 0.1737847 -0.1169627
v 1.736778E-08 0.1739469 -0.1884757
v 0.1621003 0.06385583 0.0374325
v 0.07214145 0.06394396 0.1502374
v 0.08269123 0.1731635 0.1733497
v 0.1856392 0.1734331 0.04400222
v -0.07214142 0.06394396 0.1502374
v -0.1621003 0.06385589 0.03743251
v -0.1856391 0.1734332 0.04400225
v -0.08269109 0.1731635 0.1733497
v 0.1856392 0.1734331 0.04400222
v 0.08269123 0.1731635 0.1733497
v 0.07384899 0.3685 0.1539778
v 0.1656504 0.3687139 0.03842301
v -0.08269109 0.1731635 0.1733497
v -0.1856391 0.1734332 0.04400225
v -0.1656503 0.368714 0.03842303
v -0.07384882 0.3685 0.1539778
v -0.1486984 0.1737848 -0.1169627
v 1.736778E-08 0.1739469 -0.1884757
v 5.100588E-08 0.3691095 -0.1687817
v -0.1325497 0.3689863 -0.105109
v 0.1486984 0.1737847 -0.1169627
v 0.1856392 0.1734331 0.04400222
v 0.1656504 0.3687139 0.03842301
v 0.1325499 0.3689863 -0.105109
v 0.08269123 0.1731635 0.1733497
v -0.08269109 0.1731635 0.1733497
v -0.07384882 0.3685 0.1539778
v 0.07384899 0.3685 0.1539778
v -0.1856391 0.1734332 0.04400225
v -0.1486984 0.1737848 -0.1169627
v -0.1325497 0.3689863 -0.105109
v -0.1656503 0.368714 0.03842303
v 1.736778E-08 0.1739469 -0.1884757
v 0.1486984 0.1737847 -0.1169627
v 0.1325499 0.3689863 -0.105109
v 5.100588E-08 0.3691095 -0.1687817
v -0.1656503 0.368714 0.03842303
v -0.1325497 0.3689863 -0.105109
v -0.08748917 0.5109425 -0.07202211
v -0.1092256 0.5109828 0.02268484
v 5.100588E-08 0.3691095 -0.1687817
v 0.1325499 0.3689863 -0.105109
v 0.0874894 0.5109425 -0.07202208
v 7.761796E-08 0.5109247 -0.1140988
v 0.1656504 0.3687139 0.03842301
v 0.07384899 0.3685 0.1539778
v 0.04865571 0.5110156 0.09879438
v 0.1092258 0.5109828 0.02268483
v -0.07384882 0.3685 0.1539778
v -0.1656503 0.368714 0.03842303
v -0.1092256 0.5109828 0.02268484
v -0.04865551 0.5110156 0.0987944
v -0.1325497 0.3689863 -0.105109
v 5.100588E-08 0.3691095 -0.1687817
v 7.761796E-08 0.5109247 -0.1140988
v -0.08748917 0.5109425 -0.07202211
v 0.1325499 0.3689863 -0.105109
v 0.1656504 0.3687139 0.03842301
v 0.1092258 0.5109828 0.02268483
v 0.0874894 0.5109425 -0.07202208
v 0.07384899 0.3685 0.1539778
v -0.07384882 0.3685 0.1539778
v -0.04865551 0.5110156 0.0987944
v 0.04865571 0.5110156 0.09879438
v 5.497238E-10 0.06371205 -0.1658283
v -0.1299921 0.06375162 -0.1032312
v -0.09036633 0.01594964 -0.07414035
v -4.310064E-09 0.01591906 -0.1176585
v 0.1621003 0.06385583 0.0374325
v 0.1299921 0.06375157 -0.1032312
v 0.09036634 0.01594961 -0.07414033
v 0.112685 0.01601742 0.02364401
v -0.07214142 0.06394396 0.1502374
v 0.07214145 0.06394396 0.1502374
v 0.05014954 0.01607083 0.102061
v -0.0501495 0.01607085 0.102061
v -0.1299921 0.06375162 -0.1032312
v -0.1621003 0.06385589 0.03743251
v -0.112685 0.01601746 0.02364402
v -0.09036633 0.01594964 -0.07414035
v 0.1299921 0.06375157 -0.1032312
v 5.497238E-10 0.06371205 -0.1658283
v -4.310064E-09 0.01591906 -0.1176585
v 0.09036634 0.01594961 -0.07414033
v 0.07214145 0.06394396 0.1502374
v 0.1621003 0.06385583 0.0374325
v 0.112685 0.01601742 0.02364401
v 0.05014954 0.01607083 0.102061
v -0.1621003 0.06385589 0.03743251
v -0.07214142 0.06394396 0.1502374
v -0.0501495 0.01607085 0.102061
v -0.112685 0.01601746 0.02364402

vn 0.4091255 0.9075939 -0.09428547
vn 0.4091255 0.9075939 -0.09428547
vn 0.4091255 0.9075939 -0.09428547
vn 0 0.9136369 0.4065312
vn 0 0.9136369 0.4065312
vn 0 0.9136369 0.4065312
vn -0.4091253 0.9075939 -0.09428569
vn -0.4091253 0.9075939 -0.09428569
vn -0.4091253 0.9075939 -0.09428569
vn 0.1851393 0.9040135 -0.3853349
vn 0.1851393 0.9040135 -0.3853349
vn 0.1851393 0.9040135 -0.3853349
vn 0.3214461 0.9118289 0.2554219
vn 0.3214461 0.9118289 0.2554219
vn 0.3214461 0.9118289 0.2554219
vn -0.3214461 0.9118289 0.2554219
vn -0.3214461 0.9118289 0.2554219
vn -0.3214461 0.9118289 0.2554219
vn -0.1851387 0.9040137 -0.3853349
vn -0.1851387 0.9040137 -0.3853349
vn -0.1851387 0.9040137 -0.3853349
vn 0.2018056 -0.9783736 -0.04538225
vn 0.2018056 -0.9783736 -0.04538225
vn 0.2018056 -0.9783736 -0.04538225
vn 0 -0.9782075 0.2076295
vn 0 -0.9782075 0.2076295
vn 0 -0.9782075 0.2076295
vn -0.2018059 -0.9783735 -0.04538234
vn -0.2018059 -0.9783735 -0.04538234
vn -0.2018059 -0.9783735 -0.04538234
vn 0.08982298 -0.9784672 -0.1858325
vn 0.08982298 -0.9784672 -0.1858325
vn 0.08982298 -0.9784672 -0.1858325
vn 0.1618188 -0.9782583 0.1297125
vn 0.1618188 -0.9782583 0.1297125
vn 0.1618188 -0.9782583 0.1297125
vn -0.1618191 -0.9782583 0.1297125
vn -0.1618191 -0.9782583 0.1297125
vn -0.1618191 -0.9782583 0.1297125
vn -0.08982334 -0.9784672 -0.1858325
vn -0.08982334 -0.9784672 -0.1858325
vn -0.08982334 -0.9784672 -0.1858325
vn -0.4262712 -0.1825285 -0.8859888
vn -0.4262712 -0.1825285 -0.8859888
vn -0.4262712 -0.1825285 -0.8859888
vn -0.4262712 -0.1825285 -0.8859888
vn 0.9567674 -0.1911957 -0.2191806
vn 0.9567674 -0.1911957 -0.2191806
vn 0.9567674 -0.1911957 -0.2191806
vn 0.9567674 -0.1911957 -0.2191806
vn 3.367478E-07 -0.207029 0.9783348
vn 3.367478E-07 -0.207029 0.9783348
vn 3.367478E-07 -0.207029 0.9783348
vn 3.367478E-07 -0.207029 0.9783348
vn -0.9567676 -0.1911954 -0.2191805
vn -0.9567676 -0.1911954 -0.2191805
vn -0.9567676 -0.1911954 -0.2191805
vn -0.9567676 -0.1911954 -0.2191805
vn 0.4262711 -0.1825288 -0.8859888
vn 0.4262711 -0.1825288 -0.8859888
vn 0.4262711 -0.1825288 -0.8859888
vn 0.4262711 -0.1825288 -0.8859888
vn 0.766081 -0.2021268 0.6101349
vn 0.766081 -0.2021268 0.6101349
vn 0.766081 -0.2021268 0.6101349
vn 0.766081 -0.2021268 0.6101349
vn -0.7660811 -0.2021263 0.610135
vn -0.7660811 -0.2021263 0.610135
vn -0.7660811 -0.2021263 0.610135
vn -0.7660811 -0.2021263 0.610135
vn 0.778904 0.09706665 0.6195858
vn 0.778904 0.09706665 0.6195858
vn 0.778904 0.09706665 0.6195858
vn 0.778904 0.09706665 0.6195858
vn -0.7789037 0.0970669 0.6195861
vn -0.7789037 0.0970669 0.6195861
vn -0.7789037 0.0970669 0.6195861
vn -0.7789037 0.0970669 0.6195861
vn -0.4315183 0.09038877 -0.8975644
vn -0.4315183 0.09038877 -0.8975644
vn -0.4315183 0.09038877 -0.8975644
vn -0.4315183 0.09038877 -0.8975644
vn 0.9703335 0.09338333 -0.2230077
vn 0.9703335 0.09338333 -0.2230077
vn 0.9703335 0.09338333 -0.2230077
vn 0.9703335 0.09338333 -0.2230077
vn 1.97006E-07 0.09868778 0.9951185
vn 1.97006E-07 0.09868778 0.9951185
vn 1.97006E-07 0.09868778 0.9951185
vn 1.97006E-07 0.09868778 0.9951185
vn -0.9703335 0.09338379 -0.2230076
vn -0.9703335 0.09338379 -0.2230076
vn -0.9703335 0.09338379 -0.2230076
vn -0.9703335 0.09338379 -0.2230076
vn 0.4315183 0.09038861 -0.8975644
vn 0.4315183 0.09038861 -0.8975644
vn 0.4315183 0.09038861 -0.8975644
vn 0.4315183 0.09038861 -0.8975644
vn -0.916498 0.3401007 -0.2106248
vn -0.916498 0.3401007 -0.2106248
vn -0.916498 0.3401007 -0.2106248
vn -0.916498 0.3401007 -0.2106248
vn 0.4092859 0.3282954 -0.8512973
vn 0.4092859 0.3282954 -0.8512973
vn 0.4092859 0.3282954 -0.8512973
vn 0.4092859 0.3282954 -0.8512973
vn 0.7317294 0.3546627 0.5820535
vn 0.7317294 0.3546627 0.5820535
vn 0.7317294 0.3546627 0.5820535
vn 0.7317294 0.3546627 0.5820535
vn -0.7317293 0.354663 0.5820535
vn -0.7317293 0.354663 0.5820535
vn -0.7317293 0.354663 0.5820535
vn -0.7317293 0.354663 0.5820535
vn -0.409286 0.3282954 -0.8512973
vn -0.409286 0.3282954 -0.8512973
vn -0.409286 0.3282954 -0.8512973
vn -0.409286 0.3282954 -0.8512973
vn 0.9164983 0.3401002 -0.2106248
vn 0.9164983 0.3401002 -0.2106248
vn 0.9164983 0.3401002 -0.2106248
vn 0.9164983 0.3401002 -0.2106248
vn 1.989801E-07 0.3610858 0.9325325
vn 1.989801E-07 0.3610858 0.9325325
vn 1.989801E-07 0.3610858 0.9325325
vn 1.989801E-07 0.3610858 0.9325325
vn -0.3213821 -0.6722424 -0.666936
vn -0.3213821 -0.6722424 -0.666936
vn -0.3213821 -0.6722424 -0.666936
vn -0.3213821 -0.6722424 -0.666936
vn 0.7092984 -0.6861808 -0.1614054
vn 0.7092984 -0.6861808 -0.1614054
vn 0.7092984 -0.6861808 -0.1614054
vn 0.7092984 -0.6861808 -0.1614054
vn 3.22375E-07 -0.709336 0.7048706
vn 3.22375E-07 -0.709336 0.7048706
vn 3.22375E-07 -0.709336 0.7048706
vn 3.22375E-07 -0.709336 0.7048706
vn -0.7092986 -0.6861806 -0.1614054
vn -0.7092986 -0.6861806 -0.1614054
vn -0.7092986 -0.6861806 -0.1614054
vn -0.7092986 -0.6861806 -0.1614054
vn 0.3213819 -0.6722424 -0.6669361
vn 0.3213819 -0.6722424 -0.6669361
vn 0.3213819 -0.6722424 -0.6669361
vn 0.3213819 -0.6722424 -0.6669361
vn 0.556196 -0.7024575 0.4440715
vn 0.556196 -0.7024575 0.4440715
vn 0.556196 -0.7024575 0.4440715
vn 0.556196 -0.7024575 0.4440715
vn -0.5561962 -0.7024576 0.4440712
vn -0.5561962 -0.7024576 0.4440712
vn -0.5561962 -0.7024576 0.4440712
vn -0.5561962 -0.7024576 0.4440712

vt 0.5856343 0.801888
vt 0.5809209 0.8035718
vt 0.5834517 0.8078763
vt 0.5790448 0.8063766
vt 0.5791103 0.8093958
vt 0.5834517 0.8078763
vt 0.5809408 0.8121736
vt 0.5856338 0.8138711
vt 0.5834517 0.8078763
vt 0.5979845 0.8078902
vt 0.5856343 0.801888
vt 0.5834517 0.8078763
vt 0.5809209 0.8035718
vt 0.5790448 0.8063766
vt 0.5834517 0.8078763
vt 0.5791103 0.8093958
vt 0.5809408 0.8121736
vt 0.5834517 0.8078763
vt 0.5856338 0.8138711
vt 0.5979845 0.8078902
vt 0.5834517 0.8078763
vt 0.5567967 0.7928534
vt 0.5453002 0.8076074
vt 0.5603985 0.799683
vt 0.5615065 0.8051637
vt 0.5453002 0.8076074
vt 0.5613275 0.810289
vt 0.5602155 0.815827
vt 0.5453002 0.8076074
vt 0.5565243 0.8226581
vt 0.5451458 0.7840672
vt 0.5453002 0.8076074
vt 0.5567967 0.7928534
vt 0.5603985 0.799683
vt 0.5453002 0.8076074
vt 0.5615065 0.8051637
vt 0.5613275 0.810289
vt 0.5453002 0.8076074
vt 0.5602155 0.815827
vt 0.5565243 0.8226581
vt 0.5453002 0.8076074
vt 0.5446442 0.8313506
vt 0.561283 0.8255528
vt 0.5497061 0.8421504
vt 0.5690387 0.852838
vt 0.5693489 0.82683
vt 0.5615338 0.7900452
vt 0.5640637 0.7987641
vt 0.5689961 0.7986824
vt 0.5695288 0.7888641
vt 0.5647392 0.8049142
vt 0.5647346 0.8105013
vt 0.5687671 0.8105041
vt 0.5686984 0.8050165
vt 0.5639461 0.8167845
vt 0.561283 0.8255528
vt 0.5693489 0.82683
vt 0.5689376 0.8169219
vt 0.5502874 0.7734785
vt 0.5615338 0.7900452
vt 0.5695288 0.7888641
vt 0.5694783 0.7631398
vt 0.5640637 0.7987641
vt 0.5647392 0.8049142
vt 0.5686984 0.8050165
vt 0.5689961 0.7986824
vt 0.5647346 0.8105013
vt 0.5639461 0.8167845
vt 0.5689376 0.8169219
vt 0.5687671 0.8105041
vt 0.5689961 0.7986824
vt 0.5686984 0.8050165
vt 0.5747677 0.8054926
vt 0.5764929 0.8004106
vt 0.5687671 0.8105041
vt 0.5689376 0.8169219
vt 0.5764835 0.8152823
vt 0.574828 0.8101642
vt 0.5693489 0.82683
vt 0.5690387 0.852838
vt 0.5997125 0.8336526
vt 0.5815449 0.82208
vt 0.5695288 0.7888641
vt 0.5689961 0.7986824
vt 0.5764929 0.8004106
vt 0.5816 0.7936816
vt 0.5686984 0.8050165
vt 0.5687671 0.8105041
vt 0.574828 0.8101642
vt 0.5747677 0.8054926
vt 0.5689376 0.8169219
vt 0.5693489 0.82683
vt 0.5815449 0.82208
vt 0.5764835 0.8152823
vt 0.5694783 0.7631398
vt 0.5695288 0.7888641
vt 0.5816 0.7936816
vt 0.5997114 0.7822776
vt 0.5764835 0.8152823
vt 0.5815449 0.82208
vt 0.5856338 0.8138711
vt 0.5809408 0.8121736
vt 0.5997114 0.7822776
vt 0.5816 0.7936816
vt 0.5856343 0.801888
vt 0.5979845 0.8078902
vt 0.5764929 0.8004106
vt 0.5747677 0.8054926
vt 0.5790448 0.8063766
vt 0.5809209 0.8035718
vt 0.574828 0.8101642
vt 0.5764835 0.8152823
vt 0.5809408 0.8121736
vt 0.5791103 0.8093958
vt 0.5815449 0.82208
vt 0.5997125 0.8336526
vt 0.5979845 0.8078902
vt 0.5856338 0.8138711
vt 0.5816 0.7936816
vt 0.5764929 0.8004106
vt 0.5809209 0.8035718
vt 0.5856343 0.801888
vt 0.5747677 0.8054926
vt 0.574828 0.8101642
vt 0.5791103 0.8093958
vt 0.5790448 0.8063766
vt 0.5497061 0.8421504
vt 0.561283 0.8255528
vt 0.5565243 0.8226581
vt 0.5446442 0.8313506
vt 0.5640637 0.7987641
vt 0.5615338 0.7900452
vt 0.5567967 0.7928534
vt 0.5603985 0.799683
vt 0.5647346 0.8105013
vt 0.5647392 0.8049142
vt 0.5615065 0.8051637
vt 0.5613275 0.810289
vt 0.561283 0.8255528
vt 0.5639461 0.8167845
vt 0.5602155 0.815827
vt 0.5565243 0.8226581
vt 0.5615338 0.7900452
vt 0.5502874 0.7734785
vt 0.5451458 0.7840672
vt 0.5567967 0.7928534
vt 0.5647392 0.8049142
vt 0.5640637 0.7987641
vt 0.5603985 0.799683
vt 0.5615065 0.8051637
vt 0.5639461 0.8167845
vt 0.5647346 0.8105013
vt 0.5613275 0.810289
vt 0.5602155 0.815827

usemtl LOW-POLY-COLORS
usemap LOW-POLY-COLORS
f 2/2/2 1/1/1 3/3/3
f 5/5/5 4/4/4 6/6/6
f 8/8/8 7/7/7 9/9/9
f 11/11/11 10/10/10 12/12/12
f 14/14/14 13/13/13 15/15/15
f 17/17/17 16/16/16 18/18/18
f 20/20/20 19/19/19 21/21/21
f 23/23/23 22/22/22 24/24/24
f 26/26/26 25/25/25 27/27/27
f 29/29/29 28/28/28 30/30/30
f 32/32/32 31/31/31 33/33/33
f 35/35/35 34/34/34 36/36/36
f 38/38/38 37/37/37 39/39/39
f 41/41/41 40/40/40 42/42/42
f 44/44/44 43/43/43 45/45/45
f 45/45/45 43/43/43 46/46/46
f 48/48/48 47/47/47 49/49/49
f 49/49/49 47/47/47 50/50/50
f 52/52/52 51/51/51 53/53/53
f 53/53/53 51/51/51 54/54/54
f 56/56/56 55/55/55 57/57/57
f 57/57/57 55/55/55 58/58/58
f 60/60/60 59/59/59 61/61/61
f 61/61/61 59/59/59 62/62/62
f 64/64/64 63/63/63 65/65/65
f 65/65/65 63/63/63 66/66/66
f 68/68/68 67/67/67 69/69/69
f 69/69/69 67/67/67 70/70/70
f 72/72/72 71/71/71 73/73/73
f 73/73/73 71/71/71 74/74/74
f 76/76/76 75/75/75 77/77/77
f 77/77/77 75/75/75 78/78/78
f 80/80/80 79/79/79 81/81/81
f 81/81/81 79/79/79 82/82/82
f 84/84/84 83/83/83 85/85/85
f 85/85/85 83/83/83 86/86/86
f 88/88/88 87/87/87 89/89/89
f 89/89/89 87/87/87 90/90/90
f 92/92/92 91/91/91 93/93/93
f 93/93/93 91/91/91 94/94/94
f 96/96/96 95/95/95 97/97/97
f 97/97/97 95/95/95 98/98/98
f 100/100/100 99/99/99 101/101/101
f 101/101/101 99/99/99 102/102/102
f 104/104/104 103/103/103 105/105/105
f 105/105/105 103/103/103 106/106/106
f 108/108/108 107/107/107 109/109/109
f 109/109/109 107/107/107 110/110/110
f 112/112/112 111/111/111 113/113/113
f 113/113/113 111/111/111 114/114/114
f 116/116/116 115/115/115 117/117/117
f 117/117/117 115/115/115 118/118/118
f 120/120/120 119/119/119 121/121/121
f 121/121/121 119/119/119 122/122/122
f 124/124/124 123/123/123 125/125/125
f 125/125/125 123/123/123 126/126/126
f 128/128/128 127/127/127 129/129/129
f 129/129/129 127/127/127 130/130/130
f 132/132/132 131/131/131 133/133/133
f 133/133/133 131/131/131 134/134/134
f 136/136/136 135/135/135 137/137/137
f 137/137/137 135/135/135 138/138/138
f 140/140/140 139/139/139 141/141/141
f 141/141/141 139/139/139 142/142/142
f 144/144/144 143/143/143 145/145/145
f 145/145/145 143/143/143 146/146/146
f 148/148/148 147/147/147 149/149/149
f 149/149/149 147/147/147 150/150/150
f 152/152/152 151/151/151 153/153/153
f 153/153/153 151/151/151 154/154/154
