mtllib ./lava-brick_3.mtl
g lava-brick
v 0.1933863 0.33079 0.03178323
v 0.3508308 -0.08145855 0.1051138
v -0.02385376 -0.1851951 0.3263967
v -0.1936866 0.2047803 0.1898144
v -0.1936866 0.2047803 0.1898144
v -0.02385376 -0.1851951 0.3263967
v -0.2107723 -0.324497 -0.05540499
v -0.3336624 0.1135035 -0.05815439
v -0.3336624 0.1135035 -0.05815439
v -0.2107723 -0.324497 -0.05540499
v 0.1867892 -0.1974476 -0.1947462
v 0.04102215 0.21724 -0.2794373
v 0.04102215 0.21724 -0.2794373
v 0.1867892 -0.1974476 -0.1947462
v 0.3508308 -0.08145855 0.1051138
v 0.1933863 0.33079 0.03178323
v 0.3508308 -0.08145855 0.1051138
v 0.1867892 -0.1974476 -0.1947462
v -0.2107723 -0.324497 -0.05540499
v -0.02385376 -0.1851951 0.3263967
v 0.04102215 0.21724 -0.2794373
v 0.1933863 0.33079 0.03178323
v -0.1936866 0.2047803 0.1898144
v -0.3336624 0.1135035 -0.05815439

vn 0.3259314 0.3615393 0.873532
vn 0.3259314 0.3615393 0.873532
vn 0.3259314 0.3615393 0.873532
vn 0.3259314 0.3615393 0.873532
vn -0.834482 -0.2092403 0.5097632
vn -0.834482 -0.2092403 0.5097632
vn -0.834482 -0.2092403 0.5097632
vn -0.834482 -0.2092403 0.5097632
vn -0.3623674 -0.2073534 -0.9086774
vn -0.3623674 -0.2073534 -0.9086774
vn -0.3623674 -0.2073534 -0.9086774
vn -0.3623674 -0.2073534 -0.9086774
vn 0.8343582 0.2084178 -0.5103022
vn 0.8343582 0.2084178 -0.5103022
vn 0.8343582 0.2084178 -0.5103022
vn 0.8343582 0.2084178 -0.5103022
vn 0.3519553 -0.9215509 0.1639249
vn 0.3519553 -0.9215509 0.1639249
vn 0.3519553 -0.9215509 0.1639249
vn 0.3519553 -0.9215509 0.1639249
vn -0.3542932 0.9225807 -0.1527126
vn -0.3542932 0.9225807 -0.1527126
vn -0.3542932 0.9225807 -0.1527126
vn -0.3542932 0.9225807 -0.1527126

vt 0.5610462 0.07795569
vt 0.5791932 0.07785256
vt 0.5791932 0.05975238
vt 0.5610784 0.06029002
vt 0.5818746 0.05997652
vt 0.5791932 0.07790129
vt 0.5973881 0.07790129
vt 0.5940313 0.05975238
vt 0.5610462 0.05997417
vt 0.5610462 0.04160071
vt 0.5432405 0.04207177
vt 0.5429354 0.06014601
vt 0.5429354 0.06014601
vt 0.5430861 0.0783064
vt 0.5577665 0.07830057
vt 0.5577665 0.06015186
vt 0.5610462 0.04160071
vt 0.5616957 0.05623217
vt 0.5792452 0.05975238
vt 0.5792452 0.04160071
vt 0.5940273 0.07790226
vt 0.5791932 0.0779013
vt 0.58188 0.09541542
vt 0.5940273 0.09605344

usemtl 61 EMISSION-ORANGE
usemap 61 EMISSION-ORANGE
f 2/2/2 1/1/1 3/3/3
f 3/3/3 1/1/1 4/4/4
f 6/6/6 5/5/5 7/7/7
f 7/7/7 5/5/5 8/8/8
f 10/10/10 9/9/9 11/11/11
f 11/11/11 9/9/9 12/12/12
f 14/14/14 13/13/13 15/15/15
f 15/15/15 13/13/13 16/16/16
f 18/18/18 17/17/17 19/19/19
f 19/19/19 17/17/17 20/20/20
f 22/22/22 21/21/21 23/23/23
f 23/23/23 21/21/21 24/24/24
