mtllib ./water-wave-circle_2.mtl
g water-wave-circle
v 0 0 -0.1028855
v 0.07275103 0 -0.07275101
v 3.352761E-09 0.02084204 0
v 0.1028855 0 -1.226897E-09
v 0.07275103 0 0.07275101
v 3.352761E-09 0.02084204 0
v 8.994535E-09 0 0.1028855
v -0.07275102 0 0.07275102
v 3.352761E-09 0.02084204 0
v -0.1028855 0 4.497267E-09
v -0.07275102 0 -0.07275102
v 3.352761E-09 0.02084204 0
v 0.07275103 0 -0.07275101
v 0.1028855 0 -1.226897E-09
v 3.352761E-09 0.02084204 0
v 0.07275103 0 0.07275101
v 8.994535E-09 0 0.1028855
v 3.352761E-09 0.02084204 0
v -0.07275102 0 0.07275102
v -0.1028855 0 4.497267E-09
v 3.352761E-09 0.02084204 0
v -0.07275102 0 -0.07275102
v 0 0 -0.1028855
v 3.352761E-09 0.02084204 0
v 0.02756376 -0.03061526 0.2066
v 0.08188371 0.009347869 0.2023149
v 0.07492624 0 0.2689645
v 2.622683E-08 0 0.3
v -0.05681478 0.009347869 0.2124591
v 0.0002893899 -0.03061526 0.2178974
v 0.005497303 4.014099E-10 -0.2862568
v 0.2038861 -6.021147E-10 -0.2176293
v 0.1650981 0.009347869 -0.1617709
v -0.004267664 0.009347869 -0.2756072
v 0.3027487 2.007049E-10 0.002748647
v 0.2121321 0 0.212132
v 0.1650981 0.009347869 0.1678464
v 0.2683013 0.009347872 0.003037769
v 2.622683E-08 0 0.3
v -0.212132 0 0.212132
v -0.1964186 0.009347867 0.2103788
v -0.05681478 0.009347869 0.2124591
v -0.3 0 1.311342E-08
v -0.2286239 -1.204229E-09 -0.224501
v -0.1645193 0.009347869 -0.1617709
v -0.2737986 0.009347867 0.003037792
v 0.2038861 -6.021147E-10 -0.2176293
v 0.3027487 2.007049E-10 0.002748647
v 0.2683013 0.009347872 0.003037769
v 0.1650981 0.009347869 -0.1617709
v 0.2121321 0 0.212132
v 0.07492624 0 0.2689645
v 0.08188371 0.009347869 0.2023149
v 0.1650981 0.009347869 0.1678464
v -0.212132 0 0.212132
v -0.3 0 1.311342E-08
v -0.2737986 0.009347867 0.003037792
v -0.1964186 0.009347867 0.2103788
v -0.2286239 -1.204229E-09 -0.224501
v 0.005497303 4.014099E-10 -0.2862568
v -0.004267664 0.009347869 -0.2756072
v -0.1645193 0.009347869 -0.1617709
v 0.07275103 0 -0.07275101
v 0 0 -0.1028855
v -0.07275102 0 -0.07275102
v -0.1028855 0 4.497267E-09
v 0.1028855 0 -1.226897E-09
v 0.07275103 0 0.07275101
v -0.07275102 0 0.07275102
v 8.994535E-09 0 0.1028855
v -0.2737986 0.009347867 0.003037792
v -0.1645193 0.009347869 -0.1617709
v -0.1516393 -0.03061526 -0.1488909
v -0.2145702 -0.03061526 0.003037788
v 0.1650981 0.009347869 -0.1617709
v 0.2683013 0.009347872 0.003037769
v 0.215149 -0.03061526 0.003037773
v 0.1522181 -0.03061526 -0.1488909
v 0.1650981 0.009347869 0.1678464
v 0.08188371 0.009347869 0.2023149
v 0.02756376 -0.03061526 0.2066
v 0.1522181 -0.03061526 0.1549664
v -0.1964186 0.009347867 0.2103788
v -0.2737986 0.009347867 0.003037792
v -0.2145702 -0.03061526 0.003037788
v -0.1516393 -0.03061526 0.1549665
v -0.1645193 0.009347869 -0.1617709
v -0.004267664 0.009347869 -0.2756072
v 0.000289371 -0.03061526 -0.2118218
v -0.1516393 -0.03061526 -0.1488909
v -0.004267664 0.009347869 -0.2756072
v 0.1650981 0.009347869 -0.1617709
v 0.1522181 -0.03061526 -0.1488909
v 0.000289371 -0.03061526 -0.2118218
v 0.2683013 0.009347872 0.003037769
v 0.1650981 0.009347869 0.1678464
v 0.1522181 -0.03061526 0.1549664
v 0.215149 -0.03061526 0.003037773
v -0.05681478 0.009347869 0.2124591
v -0.1964186 0.009347867 0.2103788
v -0.1516393 -0.03061526 0.1549665
v 0.0002893899 -0.03061526 0.2178974
v 0.005497303 4.014099E-10 -0.2862568
v 0.000289371 -0.03061526 -0.2118218
v 0.1522181 -0.03061526 -0.1488909
v 0.2038861 -6.021147E-10 -0.2176293
v 0.2038861 -6.021147E-10 -0.2176293
v 0.1522181 -0.03061526 -0.1488909
v 0.215149 -0.03061526 0.003037773
v 0.3027487 2.007049E-10 0.002748647
v 0.3027487 2.007049E-10 0.002748647
v 0.215149 -0.03061526 0.003037773
v 0.1522181 -0.03061526 0.1549664
v 0.2121321 0 0.212132
v 0.2121321 0 0.212132
v 0.1522181 -0.03061526 0.1549664
v 0.02756376 -0.03061526 0.2066
v 0.07492624 0 0.2689645
v 2.622683E-08 0 0.3
v 0.0002893899 -0.03061526 0.2178974
v -0.1516393 -0.03061526 0.1549665
v -0.212132 0 0.212132
v -0.212132 0 0.212132
v -0.1516393 -0.03061526 0.1549665
v -0.2145702 -0.03061526 0.003037788
v -0.3 0 1.311342E-08
v -0.3 0 1.311342E-08
v -0.2145702 -0.03061526 0.003037788
v -0.1516393 -0.03061526 -0.1488909
v -0.2286239 -1.204229E-09 -0.224501
v -0.2286239 -1.204229E-09 -0.224501
v -0.1516393 -0.03061526 -0.1488909
v 0.000289371 -0.03061526 -0.2118218
v 0.005497303 4.014099E-10 -0.2862568

vn 0.08196227 0.9767948 -0.1978743
vn 0.08196227 0.9767948 -0.1978743
vn 0.08196227 0.9767948 -0.1978743
vn 0.1978744 0.9767948 0.08196225
vn 0.1978744 0.9767948 0.08196225
vn 0.1978744 0.9767948 0.08196225
vn -0.08196226 0.9767948 0.1978744
vn -0.08196226 0.9767948 0.1978744
vn -0.08196226 0.9767948 0.1978744
vn -0.1978744 0.9767948 -0.08196225
vn -0.1978744 0.9767948 -0.08196225
vn -0.1978744 0.9767948 -0.08196225
vn 0.1978744 0.9767948 -0.08196225
vn 0.1978744 0.9767948 -0.08196225
vn 0.1978744 0.9767948 -0.08196225
vn 0.08196229 0.9767948 0.1978743
vn 0.08196229 0.9767948 0.1978743
vn 0.08196229 0.9767948 0.1978743
vn -0.1978743 0.9767948 0.08196226
vn -0.1978743 0.9767948 0.08196226
vn -0.1978743 0.9767948 0.08196226
vn -0.08196225 0.9767948 -0.1978744
vn -0.08196225 0.9767948 -0.1978744
vn -0.08196225 0.9767948 -0.1978744
vn -0.5891691 0.8063609 0.05159277
vn -0.5891691 0.8063609 0.05159277
vn -0.5891691 0.8063609 0.05159277
vn 0.5675623 0.772095 -0.2859063
vn 0.5675623 0.772095 -0.2859063
vn 0.5675623 0.772095 -0.2859063
vn 0.09977341 0.9744778 -0.2010927
vn 0.09977341 0.9744778 -0.2010927
vn 0.09977341 0.9744778 -0.2010927
vn 0.09977341 0.9744778 -0.2010927
vn 0.1757536 0.980216 0.09103484
vn 0.1757536 0.980216 0.09103484
vn 0.1757536 0.980216 0.09103484
vn 0.1757536 0.980216 0.09103484
vn -0.0589429 0.9712875 0.2304916
vn -0.0589429 0.9712875 0.2304916
vn -0.0589429 0.9712875 0.2304916
vn -0.0589429 0.9712875 0.2304916
vn -0.1525307 0.9857609 -0.07078038
vn -0.1525307 0.9857609 -0.07078038
vn -0.1525307 0.9857609 -0.07078038
vn -0.1525307 0.9857609 -0.07078038
vn 0.1783302 0.9795135 -0.09355059
vn 0.1783302 0.9795135 -0.09355059
vn 0.1783302 0.9795135 -0.09355059
vn 0.1783302 0.9795135 -0.09355059
vn 0.05997037 0.9876446 0.1447813
vn 0.05997037 0.9876446 0.1447813
vn 0.05997037 0.9876446 0.1447813
vn 0.05997037 0.9876446 0.1447813
vn -0.4061918 0.8996683 0.160016
vn -0.4061918 0.8996683 0.160016
vn -0.4061918 0.8996683 0.160016
vn -0.4061918 0.8996683 0.160016
vn -0.08349444 0.9787048 -0.1875252
vn -0.08349444 0.9787048 -0.1875252
vn -0.08349444 0.9787048 -0.1875252
vn -0.08349444 0.9787048 -0.1875252
vn 0 -1 0
vn 0 -1 0
vn 0 -1 0
vn 0 -1 0
vn 0 -1 0
vn 0 -1 0
vn 0 -1 0
vn 0 -1 0
vn 0.6629471 0.6561866 0.3604445
vn 0.6629471 0.6561866 0.3604445
vn 0.6629471 0.6561866 0.3604445
vn 0.6629471 0.6561866 0.3604445
vn -0.6893314 0.6277676 0.3615661
vn -0.6893314 0.6277676 0.3615661
vn -0.6893314 0.6277676 0.3615661
vn -0.6893314 0.6277676 0.3615661
vn -0.3526885 0.3880948 -0.8514653
vn -0.3526885 0.3880948 -0.8514653
vn -0.3526885 0.3880948 -0.8514653
vn -0.3526885 0.3880948 -0.8514653
vn 0.5253062 0.8258114 -0.2051557
vn 0.5253062 0.8258114 -0.2051557
vn 0.5253062 0.8258114 -0.2051557
vn 0.5253062 0.8258114 -0.2051557
vn 0.3586253 0.6857507 0.6333514
vn 0.3586253 0.6857507 0.6333514
vn 0.3586253 0.6857507 0.6333514
vn 0.3586253 0.6857507 0.6333514
vn -0.359971 0.6650777 0.6542878
vn -0.359971 0.6650777 0.6542878
vn -0.359971 0.6650777 0.6542878
vn -0.359971 0.6650777 0.6542878
vn -0.6893315 0.6277675 -0.3615661
vn -0.6893315 0.6277675 -0.3615661
vn -0.6893315 0.6277675 -0.3615661
vn -0.6893315 0.6277675 -0.3615661
vn 0.1627708 0.66387 -0.7299194
vn 0.1627708 0.66387 -0.7299194
vn 0.1627708 0.66387 -0.7299194
vn 0.1627708 0.66387 -0.7299194
vn 0.1298714 -0.9292676 -0.3458254
vn 0.1298714 -0.9292676 -0.3458254
vn 0.1298714 -0.9292676 -0.3458254
vn 0.1298714 -0.9292676 -0.3458254
vn 0.3365133 -0.9302543 -0.1462387
vn 0.3365133 -0.9302543 -0.1462387
vn 0.3365133 -0.9302543 -0.1462387
vn 0.3365133 -0.9302543 -0.1462387
vn 0.3325492 -0.9324369 0.1413241
vn 0.3325492 -0.9324369 0.1413241
vn 0.3325492 -0.9324369 0.1413241
vn 0.3325492 -0.9324369 0.1413241
vn 0.1434097 -0.9271268 0.3462217
vn 0.1434097 -0.9271268 0.3462217
vn 0.1434097 -0.9271268 0.3462217
vn 0.1434097 -0.9271268 0.3462217
vn -0.1430502 -0.9275061 0.3453536
vn -0.1430502 -0.9275061 0.3453536
vn -0.1430502 -0.9275061 0.3453536
vn -0.1430502 -0.9275061 0.3453536
vn -0.338441 -0.9304867 0.1401868
vn -0.338441 -0.9304867 0.1401868
vn -0.338441 -0.9304867 0.1401868
vn -0.338441 -0.9304867 0.1401868
vn -0.3042294 -0.9463943 -0.1085466
vn -0.3042294 -0.9463943 -0.1085466
vn -0.3042294 -0.9463943 -0.1085466
vn -0.3042294 -0.9463943 -0.1085466
vn -0.1070192 -0.9374195 -0.3313483
vn -0.1070192 -0.9374195 -0.3313483
vn -0.1070192 -0.9374195 -0.3313483
vn -0.1070192 -0.9374195 -0.3313483

vt 0.6531969 0.3357615
vt 0.658248 0.3357615
vt 0.6557225 0.3296643
vt 0.6618197 0.3321899
vt 0.6618197 0.3271388
vt 0.6557225 0.3296643
vt 0.658248 0.3235671
vt 0.6531969 0.3235671
vt 0.6557225 0.3296643
vt 0.6496252 0.3271388
vt 0.6496252 0.3321899
vt 0.6557225 0.3296643
vt 0.658248 0.3357615
vt 0.6618197 0.3321899
vt 0.6557225 0.3296643
vt 0.6618197 0.3271388
vt 0.658248 0.3235671
vt 0.6557225 0.3296643
vt 0.6531969 0.3235671
vt 0.6496252 0.3271388
vt 0.6557225 0.3296643
vt 0.6496252 0.3321899
vt 0.6531969 0.3357615
vt 0.6557225 0.3296643
vt 0.7281711 0.2972616
vt 0.7264398 0.3003114
vt 0.7318642 0.3034263
vt 0.6517212 0.2970262
vt 0.6622046 0.2969964
vt 0.6605822 0.2930764
vt 0.6947601 0.3153629
vt 0.7052879 0.3149815
vt 0.7047978 0.3095991
vt 0.6943054 0.3134685
vt 0.716011 0.3115856
vt 0.72483 0.3078348
vt 0.7225096 0.3033824
vt 0.714947 0.3091454
vt 0.6517212 0.2970262
vt 0.6643862 0.3059328
vt 0.6652083 0.3040531
vt 0.6622046 0.2969964
vt 0.6737083 0.3110546
vt 0.6832318 0.3141656
vt 0.6848949 0.3082854
vt 0.674757 0.3083946
vt 0.7052879 0.3149815
vt 0.716011 0.3115856
vt 0.714947 0.3091454
vt 0.7047978 0.3095991
vt 0.72483 0.3078348
vt 0.7318642 0.3034263
vt 0.7264398 0.3003114
vt 0.7225096 0.3033824
vt 0.6643862 0.3059328
vt 0.6737083 0.3110546
vt 0.674757 0.3083946
vt 0.6652083 0.3040531
vt 0.6832318 0.3141656
vt 0.6947601 0.3153629
vt 0.6943054 0.3134685
vt 0.6848949 0.3082854
vt 0.6740224 0.3270971
vt 0.6704924 0.3235671
vt 0.6655002 0.3235671
vt 0.6619703 0.3270971
vt 0.6740224 0.3320892
vt 0.6704924 0.3356192
vt 0.6619703 0.3320892
vt 0.6655002 0.3356192
vt 0.674757 0.3083946
vt 0.6848949 0.3082854
vt 0.6851705 0.3070746
vt 0.6757225 0.3054733
vt 0.7047978 0.3095991
vt 0.714947 0.3091454
vt 0.7139902 0.3065399
vt 0.7045884 0.3083721
vt 0.7225096 0.3033824
vt 0.7264398 0.3003114
vt 0.7281711 0.2972616
vt 0.7218296 0.3023523
vt 0.6652083 0.3040531
vt 0.674757 0.3083946
vt 0.6757225 0.3054733
vt 0.6677601 0.3011169
vt 0.6848949 0.3082854
vt 0.6943054 0.3134685
vt 0.6948392 0.3097821
vt 0.6851705 0.3070746
vt 0.6943054 0.3134685
vt 0.7047978 0.3095991
vt 0.7045884 0.3083721
vt 0.6948392 0.3097821
vt 0.714947 0.3091454
vt 0.7225096 0.3033824
vt 0.7218296 0.3023523
vt 0.7139902 0.3065399
vt 0.6622046 0.2969964
vt 0.6652083 0.3040531
vt 0.6677601 0.3011169
vt 0.6605822 0.2930764
vt 0.6947601 0.3153629
vt 0.6943069 0.321587
vt 0.7070324 0.3234166
vt 0.7052879 0.3149815
vt 0.7052879 0.3149815
vt 0.7070324 0.3234166
vt 0.7185098 0.3181781
vt 0.716011 0.3115856
vt 0.716011 0.3115856
vt 0.7185098 0.3181781
vt 0.7274235 0.3127727
vt 0.72483 0.3078348
vt 0.72483 0.3078348
vt 0.7274235 0.3127727
vt 0.7354349 0.309456
vt 0.7318642 0.3034263
vt 0.6517212 0.2970262
vt 0.6496252 0.3068713
vt 0.6609815 0.3121848
vt 0.6643862 0.3059328
vt 0.6643862 0.3059328
vt 0.6609815 0.3121848
vt 0.6709917 0.3164353
vt 0.6737083 0.3110546
vt 0.6737083 0.3110546
vt 0.6709917 0.3164353
vt 0.681483 0.3234165
vt 0.6832318 0.3141656
vt 0.6832318 0.3141656
vt 0.681483 0.3234165
vt 0.6943069 0.321587
vt 0.6947601 0.3153629

usemtl LOW-POLY-COLORS
usemap LOW-POLY-COLORS
f 2/2/2 1/1/1 3/3/3
f 5/5/5 4/4/4 6/6/6
f 8/8/8 7/7/7 9/9/9
f 11/11/11 10/10/10 12/12/12
f 14/14/14 13/13/13 15/15/15
f 17/17/17 16/16/16 18/18/18
f 20/20/20 19/19/19 21/21/21
f 23/23/23 22/22/22 24/24/24
f 26/26/26 25/25/25 27/27/27
f 29/29/29 28/28/28 30/30/30
f 32/32/32 31/31/31 33/33/33
f 33/33/33 31/31/31 34/34/34
f 36/36/36 35/35/35 37/37/37
f 37/37/37 35/35/35 38/38/38
f 40/40/40 39/39/39 41/41/41
f 41/41/41 39/39/39 42/42/42
f 44/44/44 43/43/43 45/45/45
f 45/45/45 43/43/43 46/46/46
f 48/48/48 47/47/47 49/49/49
f 49/49/49 47/47/47 50/50/50
f 52/52/52 51/51/51 53/53/53
f 53/53/53 51/51/51 54/54/54
f 56/56/56 55/55/55 57/57/57
f 57/57/57 55/55/55 58/58/58
f 60/60/60 59/59/59 61/61/61
f 61/61/61 59/59/59 62/62/62
f 64/64/64 63/63/63 65/65/65
f 66/66/66 65/65/65 63/63/63
f 67/67/67 66/66/66 63/63/63
f 68/68/68 66/66/66 67/67/67
f 69/69/69 66/66/66 68/68/68
f 70/70/70 69/69/69 68/68/68
f 72/72/72 71/71/71 73/73/73
f 73/73/73 71/71/71 74/74/74
f 76/76/76 75/75/75 77/77/77
f 77/77/77 75/75/75 78/78/78
f 80/80/80 79/79/79 81/81/81
f 81/81/81 79/79/79 82/82/82
f 84/84/84 83/83/83 85/85/85
f 85/85/85 83/83/83 86/86/86
f 88/88/88 87/87/87 89/89/89
f 89/89/89 87/87/87 90/90/90
f 92/92/92 91/91/91 93/93/93
f 93/93/93 91/91/91 94/94/94
f 96/96/96 95/95/95 97/97/97
f 97/97/97 95/95/95 98/98/98
f 100/100/100 99/99/99 101/101/101
f 101/101/101 99/99/99 102/102/102
f 104/104/104 103/103/103 105/105/105
f 105/105/105 103/103/103 106/106/106
f 108/108/108 107/107/107 109/109/109
f 109/109/109 107/107/107 110/110/110
f 112/112/112 111/111/111 113/113/113
f 113/113/113 111/111/111 114/114/114
f 116/116/116 115/115/115 117/117/117
f 117/117/117 115/115/115 118/118/118
f 120/120/120 119/119/119 121/121/121
f 121/121/121 119/119/119 122/122/122
f 124/124/124 123/123/123 125/125/125
f 125/125/125 123/123/123 126/126/126
f 128/128/128 127/127/127 129/129/129
f 129/129/129 127/127/127 130/130/130
f 132/132/132 131/131/131 133/133/133
f 133/133/133 131/131/131 134/134/134
