mtllib ./flag-medieval_big_19.mtl
g flag-medieval_big
v -0.4315034 -0.3853439 0.05580794
v -0.4315034 -0.05991519 0.06564514
v -0.2920571 -0.05991519 0.06564514
v -0.2920571 -0.3853439 0.05580792
v 0.1408023 -0.5025067 0.1084058
v 0.1408022 -0.4321147 0.06564498
v 0.4269551 -0.4321147 0.06564493
v 0.4269551 -0.5025067 0.1084058
v -0.4315034 -0.5025067 0.1084059
v -0.4315034 -0.4321147 0.06564509
v -0.1453506 -0.4321147 0.06564503
v -0.1453505 -0.5025067 0.1084059
v 0.2875088 -0.3853439 0.05580782
v 0.2875088 -0.05991519 0.06564502
v 0.4269551 -0.05991519 0.06564499
v 0.4269551 -0.3853439 0.0558078
v -0.002274134 -0.5025067 0.1084058
v 0.1408022 -0.4321147 0.06564498
v 0.1408023 -0.5025067 0.1084058
v -0.002274142 -0.4321147 0.06564502
v -0.1453505 -0.5025067 0.1084059
v -0.1453506 -0.4321147 0.06564503
v -0.002274082 -3.208345 0.06477385
v -0.1453506 -3.267931 0.06564457
v -0.1453505 -1.135671 0.09780043
v -0.002274136 -1.135671 0.0978004
v 0.1408023 -1.135671 0.09780037
v 0.1408022 -3.267931 0.06564452
v -0.007822614 -0.8801611 0.0964324
v 0.1352538 -0.8801611 0.09643238
v 0.4214066 -0.8801611 0.09643232
v 0.4269551 -1.135671 0.09780032
v 0.1408023 -0.5025067 0.1084058
v -0.002274134 -0.5025067 0.1084058
v -0.150899 -0.8801611 0.09643243
v -0.1453505 -0.5025067 0.1084059
v -0.4315034 -1.135671 0.09780048
v -0.4370518 -0.8801611 0.09643248
v -0.4315034 -3.431176 0.06564459
v -0.4315034 -1.135671 0.09780048
v -0.1453505 -1.135671 0.09780043
v -0.1453506 -3.267931 0.06564457
v -0.5956343 -0.05991505 -0.04353097
v -0.5956343 -0.1198301 -5.188757E-07
v 0.5956342 -0.1198301 -7.271637E-07
v 0.5956342 -0.05991505 -0.04353118
v -0.5956343 -0.09694457 0.07043404
v -0.5956343 -0.02288557 0.07043406
v 0.5956342 -0.02288557 0.07043386
v 0.5956342 -0.09694457 0.07043385
v -0.5956343 9.832213E-14 -4.99353E-07
v -0.5956343 -0.05991505 -0.04353097
v 0.5956342 -0.05991505 -0.04353118
v 0.5956342 9.832215E-14 -7.076409E-07
v -0.5956343 -0.1198301 -5.188757E-07
v -0.5956343 -0.09694457 0.07043404
v 0.5956342 -0.09694457 0.07043385
v 0.5956342 -0.1198301 -7.271637E-07
v -0.5956343 -0.02288557 0.07043406
v -0.5956343 9.832213E-14 -4.99353E-07
v 0.5956342 9.832215E-14 -7.076409E-07
v 0.5956342 -0.02288557 0.07043386
v 0.5956342 -0.05991505 -0.04353118
v 0.5956342 -0.1198301 -7.271637E-07
v 0.5956342 -0.09694457 0.07043385
v 0.5956342 -0.02288557 0.07043386
v 0.5956342 9.832215E-14 -7.076409E-07
v -0.5956343 -0.09694457 0.07043404
v -0.5956343 -0.1198301 -5.188757E-07
v -0.5956343 -0.05991505 -0.04353097
v -0.5956343 -0.02288557 0.07043406
v -0.5956343 9.832213E-14 -4.99353E-07
v 0.1408022 -0.4321147 0.06564498
v 0.4269551 -0.3853439 0.0558078
v 0.4269551 -0.4321147 0.06564493
v 0.2875088 -0.3853439 0.05580782
v -0.002274142 -0.4321147 0.06564502
v -0.002274144 -0.3853439 0.05580787
v -0.1453506 -0.4321147 0.06564503
v -0.2920571 -0.3853439 0.05580792
v -0.4315034 -0.4321147 0.06564509
v -0.4315034 -0.3853439 0.05580794
v 0.1408022 -3.267931 0.06564452
v 0.1408023 -1.135671 0.09780037
v 0.4269551 -1.135671 0.09780032
v 0.4269551 -3.431176 0.06564446
v -0.4370518 -0.8801611 0.09643248
v -0.4315034 -0.5025067 0.1084059
v -0.1453505 -0.5025067 0.1084059
v -0.150899 -0.8801611 0.09643243
v 0.1352538 -0.8801611 0.09643238
v 0.1408023 -0.5025067 0.1084058
v 0.4269551 -0.5025067 0.1084058
v 0.4214066 -0.8801611 0.09643232
v -0.4315034 -0.3853439 0.05580794
v -0.2920571 -0.3853439 0.05580792
v -0.2920571 -0.05991519 0.06564514
v -0.4315034 -0.05991519 0.06564514
v 0.1408023 -0.5025067 0.1084058
v 0.4269551 -0.5025067 0.1084058
v 0.4269551 -0.4321147 0.06564493
v 0.1408022 -0.4321147 0.06564498
v -0.4315034 -0.5025067 0.1084059
v -0.1453505 -0.5025067 0.1084059
v -0.1453506 -0.4321147 0.06564503
v -0.4315034 -0.4321147 0.06564509
v 0.2875088 -0.3853439 0.05580782
v 0.4269551 -0.3853439 0.0558078
v 0.4269551 -0.05991519 0.06564499
v 0.2875088 -0.05991519 0.06564502
v -0.002274134 -0.5025067 0.1084058
v 0.1408023 -0.5025067 0.1084058
v 0.1408022 -0.4321147 0.06564498
v -0.002274142 -0.4321147 0.06564502
v -0.1453505 -0.5025067 0.1084059
v -0.1453506 -0.4321147 0.06564503
v -0.002274082 -3.208345 0.06477385
v -0.1453505 -1.135671 0.09780043
v -0.1453506 -3.267931 0.06564457
v -0.002274136 -1.135671 0.0978004
v 0.1408023 -1.135671 0.09780037
v 0.1408022 -3.267931 0.06564452
v -0.007822614 -0.8801611 0.0964324
v 0.1352538 -0.8801611 0.09643238
v 0.4214066 -0.8801611 0.09643232
v 0.4269551 -1.135671 0.09780032
v 0.1408023 -0.5025067 0.1084058
v -0.002274134 -0.5025067 0.1084058
v -0.150899 -0.8801611 0.09643243
v -0.1453505 -0.5025067 0.1084059
v -0.4315034 -1.135671 0.09780048
v -0.4370518 -0.8801611 0.09643248
v -0.4315034 -3.431176 0.06564459
v -0.1453506 -3.267931 0.06564457
v -0.1453505 -1.135671 0.09780043
v -0.4315034 -1.135671 0.09780048
v 0.1408022 -0.4321147 0.06564498
v 0.4269551 -0.4321147 0.06564493
v 0.4269551 -0.3853439 0.0558078
v 0.2875088 -0.3853439 0.05580782
v -0.002274142 -0.4321147 0.06564502
v -0.002274144 -0.3853439 0.05580787
v -0.1453506 -0.4321147 0.06564503
v -0.2920571 -0.3853439 0.05580792
v -0.4315034 -0.4321147 0.06564509
v -0.4315034 -0.3853439 0.05580794
v 0.1408022 -3.267931 0.06564452
v 0.4269551 -3.431176 0.06564446
v 0.4269551 -1.135671 0.09780032
v 0.1408023 -1.135671 0.09780037
v -0.4370518 -0.8801611 0.09643248
v -0.150899 -0.8801611 0.09643243
v -0.1453505 -0.5025067 0.1084059
v -0.4315034 -0.5025067 0.1084059
v 0.1352538 -0.8801611 0.09643238
v 0.4214066 -0.8801611 0.09643232
v 0.4269551 -0.5025067 0.1084058
v 0.1408023 -0.5025067 0.1084058

vn 0 -0.03021466 0.9995434
vn 0 -0.03021466 0.9995434
vn 0 -0.03021466 0.9995434
vn 0 -0.03021466 0.9995434
vn 1.28763E-07 0.5191805 0.8546646
vn 1.28763E-07 0.5191805 0.8546646
vn 1.28763E-07 0.5191805 0.8546646
vn 1.28763E-07 0.5191805 0.8546646
vn 1.716841E-07 0.5191806 0.8546646
vn 1.716841E-07 0.5191806 0.8546646
vn 1.716841E-07 0.5191806 0.8546646
vn 1.716841E-07 0.5191806 0.8546646
vn 2.01703E-07 -0.03021463 0.9995434
vn 2.01703E-07 -0.03021463 0.9995434
vn 2.01703E-07 -0.03021463 0.9995434
vn 2.01703E-07 -0.03021463 0.9995434
vn 2.146052E-07 0.5191807 0.8546645
vn 2.146052E-07 0.5191807 0.8546645
vn 2.146052E-07 0.5191807 0.8546645
vn 2.146052E-07 0.5191807 0.8546645
vn 0 0.5191805 0.8546646
vn 0 0.5191805 0.8546646
vn 0.006269937 -0.01549925 0.9998602
vn 0.006269937 -0.01549925 0.9998602
vn 0.006269937 -0.01549925 0.9998602
vn 0.006269937 -0.01549925 0.9998602
vn 1.964099E-07 0.005353895 0.9999857
vn -0.006269532 -0.01549924 0.9998602
vn 1.815397E-07 0.005353921 0.9999857
vn 1.964099E-07 0.005353895 0.9999857
vn 1.964099E-07 0.005353895 0.9999857
vn 1.964099E-07 0.005353895 0.9999857
vn 1.881194E-07 -0.03168885 0.9994978
vn 2.053467E-07 -0.03168883 0.9994978
vn 1.82606E-07 0.00535392 0.9999857
vn 2.053467E-07 -0.03168883 0.9994978
vn 1.82606E-07 0.00535392 0.9999857
vn 1.82606E-07 0.00535392 0.9999857
vn 0.004142688 -0.014523 0.9998859
vn 0.004142688 -0.014523 0.9998859
vn 0.004142688 -0.014523 0.9998859
vn 0.004142688 -0.014523 0.9998859
vn -1.403964E-07 -0.5877818 -0.8090196
vn -1.403964E-07 -0.5877818 -0.8090196
vn -1.403964E-07 -0.5877818 -0.8090196
vn -1.403964E-07 -0.5877818 -0.8090196
vn 1.657396E-07 -2.533517E-07 1
vn 1.657396E-07 -2.533517E-07 1
vn 1.657396E-07 -2.533517E-07 1
vn 1.657396E-07 -2.533517E-07 1
vn -1.416763E-07 0.587782 -0.8090193
vn -1.416763E-07 0.587782 -0.8090193
vn -1.416763E-07 0.587782 -0.8090193
vn -1.416763E-07 0.587782 -0.8090193
vn 0 -0.9510565 0.3090166
vn 0 -0.9510565 0.3090166
vn 0 -0.9510565 0.3090166
vn 0 -0.9510565 0.3090166
vn 0 0.9510565 0.3090169
vn 0 0.9510565 0.3090169
vn 0 0.9510565 0.3090169
vn 0 0.9510565 0.3090169
vn 1 0 0
vn 1 0 0
vn 1 0 0
vn 1 0 0
vn 1 0 0
vn -1 0 0
vn -1 0 0
vn -1 0 0
vn -1 0 0
vn -1 0 0
vn 1.766581E-07 0.2058232 0.9785891
vn 1.566193E-07 0.2058233 0.9785891
vn 1.566193E-07 0.2058233 0.9785891
vn 1.766581E-07 0.2058232 0.9785891
vn 1.766581E-07 0.2058232 0.9785891
vn 1.766581E-07 0.2058232 0.9785891
vn 1.641968E-07 0.2058234 0.9785891
vn 1.641968E-07 0.2058234 0.9785891
vn 1.641968E-07 0.2058234 0.9785891
vn 1.641968E-07 0.2058234 0.9785891
vn -0.004142369 -0.01452299 0.9998859
vn -0.004142369 -0.01452299 0.9998859
vn -0.004142369 -0.01452299 0.9998859
vn -0.004142369 -0.01452299 0.9998859
vn 1.796784E-07 -0.03168883 0.9994978
vn 1.796784E-07 -0.03168883 0.9994978
vn 1.796784E-07 -0.03168883 0.9994978
vn 1.796784E-07 -0.03168883 0.9994978
vn 1.882921E-07 -0.03168883 0.9994978
vn 1.882921E-07 -0.03168883 0.9994978
vn 1.882921E-07 -0.03168883 0.9994978
vn 1.882921E-07 -0.03168883 0.9994978
vn 0 0.03021466 -0.9995434
vn 0 0.03021466 -0.9995434
vn 0 0.03021466 -0.9995434
vn 0 0.03021466 -0.9995434
vn -1.580645E-07 -0.5191805 -0.8546646
vn -1.580645E-07 -0.5191805 -0.8546646
vn -1.580645E-07 -0.5191805 -0.8546646
vn -1.580645E-07 -0.5191805 -0.8546646
vn -1.580645E-07 -0.5191806 -0.8546646
vn -1.580645E-07 -0.5191806 -0.8546646
vn -1.580645E-07 -0.5191806 -0.8546646
vn -1.580645E-07 -0.5191806 -0.8546646
vn -2.000062E-07 0.03021463 -0.9995434
vn -2.000062E-07 0.03021463 -0.9995434
vn -2.000062E-07 0.03021463 -0.9995434
vn -2.000062E-07 0.03021463 -0.9995434
vn -1.580645E-07 -0.5191807 -0.8546645
vn -1.580645E-07 -0.5191807 -0.8546645
vn -1.580645E-07 -0.5191807 -0.8546645
vn -1.580645E-07 -0.5191807 -0.8546645
vn -1.580645E-07 -0.5191806 -0.8546646
vn -1.580645E-07 -0.5191806 -0.8546646
vn -0.006269948 0.01549925 -0.9998602
vn -0.006269948 0.01549925 -0.9998602
vn -0.006269948 0.01549925 -0.9998602
vn -0.006269948 0.01549925 -0.9998602
vn -1.958407E-07 -0.005353904 -0.9999857
vn 0.006269544 0.01549924 -0.9998602
vn -1.815109E-07 -0.005353929 -0.9999857
vn -1.958407E-07 -0.005353904 -0.9999857
vn -1.958407E-07 -0.005353904 -0.9999857
vn -1.958407E-07 -0.005353904 -0.9999857
vn -1.895013E-07 0.03168884 -0.9994978
vn -2.067286E-07 0.03168884 -0.9994978
vn -1.83103E-07 -0.00535392 -0.9999857
vn -2.067286E-07 0.03168884 -0.9994978
vn -1.83103E-07 -0.00535392 -0.9999857
vn -1.83103E-07 -0.00535392 -0.9999857
vn -0.004142687 0.014523 -0.9998859
vn -0.004142687 0.014523 -0.9998859
vn -0.004142687 0.014523 -0.9998859
vn -0.004142687 0.014523 -0.9998859
vn -1.80069E-07 -0.2058231 -0.9785892
vn -1.373555E-07 -0.2058233 -0.9785891
vn -1.373555E-07 -0.2058233 -0.9785891
vn -1.80069E-07 -0.2058231 -0.9785892
vn -1.80069E-07 -0.2058231 -0.9785892
vn -1.80069E-07 -0.2058231 -0.9785892
vn -1.831407E-07 -0.2058233 -0.9785891
vn -1.831407E-07 -0.2058233 -0.9785891
vn -1.831407E-07 -0.2058233 -0.9785891
vn -1.831407E-07 -0.2058233 -0.9785891
vn 0.00414237 0.01452299 -0.9998859
vn 0.00414237 0.01452299 -0.9998859
vn 0.00414237 0.01452299 -0.9998859
vn 0.00414237 0.01452299 -0.9998859
vn -1.808876E-07 0.03168883 -0.9994978
vn -1.808876E-07 0.03168883 -0.9994978
vn -1.808876E-07 0.03168883 -0.9994978
vn -1.808876E-07 0.03168883 -0.9994978
vn -1.895013E-07 0.03168882 -0.9994978
vn -1.895013E-07 0.03168882 -0.9994978
vn -1.895013E-07 0.03168882 -0.9994978
vn -1.895013E-07 0.03168882 -0.9994978

vt 0.2953339 0.8316138
vt 0.3165482 0.8316138
vt 0.3165482 0.8250374
vt 0.2953339 0.8250374
vt 0.8302318 0.7954729
vt 0.8302618 0.7930667
vt 0.8212534 0.7929549
vt 0.8212235 0.7953611
vt 0.8302318 0.7812853
vt 0.8302618 0.778879
vt 0.8212534 0.7787673
vt 0.8212235 0.7811735
vt 0.2953339 0.7977045
vt 0.3165483 0.7977045
vt 0.3165483 0.7911281
vt 0.2953339 0.7911281
vt 0.2074849 0.5204627
vt 0.2034674 0.518487
vt 0.2035124 0.5205493
vt 0.2074399 0.5184004
vt 0.2114573 0.520376
vt 0.2114124 0.5183137
vt 0.2091128 0.5951002
vt 0.2131212 0.5966621
vt 0.2118382 0.5378401
vt 0.2078658 0.5379267
vt 0.2038934 0.5380133
vt 0.2051763 0.5968354
vt 0.2078658 0.5308603
vt 0.2038934 0.530947
vt 0.1959485 0.5311202
vt 0.1959485 0.5381867
vt 0.2035124 0.5205493
vt 0.2074849 0.5204627
vt 0.2118382 0.5307737
vt 0.2114573 0.520376
vt 0.2197831 0.5376668
vt 0.2197831 0.5306004
vt 0.8122144 0.7787673
vt 0.8122144 0.8498997
vt 0.8212235 0.8498997
vt 0.8212235 0.7838376
vt 0.3214217 0.8473095
vt 0.3262951 0.8473095
vt 0.3262951 0.7911281
vt 0.3214217 0.7911281
vt 0.3408858 0.7911281
vt 0.3360419 0.7911281
vt 0.3360419 0.8473095
vt 0.3408858 0.8473095
vt 0.3360419 0.7911281
vt 0.3311685 0.7911281
vt 0.3311685 0.8473095
vt 0.3360419 0.8473095
vt 0.3165483 0.8473095
vt 0.3214217 0.8473095
vt 0.3214217 0.7911281
vt 0.3165483 0.7911281
vt 0.3311685 0.7911281
vt 0.3262951 0.7911281
vt 0.3262951 0.8473095
vt 0.3311685 0.8473095
vt 0.3437504 0.7911281
vt 0.3408858 0.7939537
vt 0.3437504 0.7967794
vt 0.3483852 0.7957001
vt 0.3483852 0.7922074
vt 0.3483852 0.7978587
vt 0.3437503 0.7967794
vt 0.3408858 0.7996051
vt 0.3483852 0.8013514
vt 0.3437503 0.8024307
vt 0.2922038 0.8046234
vt 0.2953339 0.7911281
vt 0.2922038 0.7911281
vt 0.2953339 0.7977045
vt 0.2922038 0.811371
vt 0.2953339 0.811371
vt 0.2922038 0.8181186
vt 0.2953339 0.8250374
vt 0.2922038 0.8316138
vt 0.2953339 0.8316138
vt 0.8032053 0.7838376
vt 0.8032053 0.8498997
vt 0.8122144 0.8498997
vt 0.8122144 0.7787673
vt 0.8302618 0.7929549
vt 0.8302318 0.7812853
vt 0.8212235 0.7811735
vt 0.8212534 0.792843
vt 0.8302618 0.8071424
vt 0.8302318 0.7954729
vt 0.8212235 0.7953611
vt 0.8212534 0.8070306
vt 0.257494 0.8329318
vt 0.257494 0.8263554
vt 0.2787083 0.8263554
vt 0.2787083 0.8329318
vt 0.792392 0.7967909
vt 0.7833837 0.7966791
vt 0.7834135 0.7942728
vt 0.7924219 0.7943847
vt 0.792392 0.7826033
vt 0.7833837 0.7824915
vt 0.7834135 0.7800853
vt 0.7924219 0.780197
vt 0.257494 0.7990225
vt 0.257494 0.7924461
vt 0.2787084 0.7924461
vt 0.2787084 0.7990225
vt 0.169645 0.5217807
vt 0.1656725 0.5218673
vt 0.1656275 0.519805
vt 0.1696 0.5197183
vt 0.1736174 0.521694
vt 0.1735725 0.5196317
vt 0.1712729 0.5964181
vt 0.1739983 0.539158
vt 0.1752813 0.5979801
vt 0.1700259 0.5392447
vt 0.1660535 0.5393313
vt 0.1673364 0.5981534
vt 0.1700259 0.5321783
vt 0.1660535 0.5322649
vt 0.1581087 0.5324382
vt 0.1581087 0.5395046
vt 0.1656725 0.5218673
vt 0.169645 0.5217807
vt 0.1739983 0.5320917
vt 0.1736174 0.521694
vt 0.1819432 0.5389848
vt 0.1819432 0.5319183
vt 0.7743745 0.7800853
vt 0.7833836 0.7851556
vt 0.7833837 0.8512177
vt 0.7743745 0.8512177
vt 0.2543639 0.8059413
vt 0.2543639 0.7924461
vt 0.257494 0.7924461
vt 0.257494 0.7990225
vt 0.2543639 0.8126889
vt 0.257494 0.8126889
vt 0.2543639 0.8194366
vt 0.257494 0.8263554
vt 0.2543639 0.8329318
vt 0.257494 0.8329318
vt 0.7653655 0.7851556
vt 0.7743745 0.7800853
vt 0.7743745 0.8512177
vt 0.7653655 0.8512177
vt 0.7924219 0.7942728
vt 0.7834135 0.794161
vt 0.7833837 0.7824915
vt 0.792392 0.7826033
vt 0.7924219 0.8084604
vt 0.7834135 0.8083486
vt 0.7833837 0.7966791
vt 0.792392 0.7967909

usemtl LOW-POLY-COLORS
usemap LOW-POLY-COLORS
f 2/2/2 1/1/1 3/3/3
f 3/3/3 1/1/1 4/4/4
f 6/6/6 5/5/5 7/7/7
f 7/7/7 5/5/5 8/8/8
f 10/10/10 9/9/9 11/11/11
f 11/11/11 9/9/9 12/12/12
f 14/14/14 13/13/13 15/15/15
f 15/15/15 13/13/13 16/16/16
f 18/18/18 17/17/17 19/19/19
f 20/20/20 17/17/17 18/18/18
f 20/20/20 21/21/21 17/17/17
f 22/22/22 21/21/21 20/20/20
f 24/24/24 23/23/23 25/25/25
f 25/25/25 23/23/23 26/26/26
f 26/26/26 23/23/23 27/27/27
f 27/27/27 23/23/23 28/28/28
f 29/29/29 25/25/25 26/26/26
f 30/30/30 26/26/26 27/27/27
f 29/29/29 26/26/26 30/30/30
f 30/30/30 27/27/27 31/31/31
f 31/31/31 27/27/27 32/32/32
f 33/33/33 29/29/29 30/30/30
f 34/34/34 29/29/29 33/33/33
f 35/35/35 25/25/25 29/29/29
f 34/34/34 35/35/35 29/29/29
f 36/36/36 35/35/35 34/34/34
f 35/35/35 37/37/37 25/25/25
f 38/38/38 37/37/37 35/35/35
f 40/40/40 39/39/39 41/41/41
f 41/41/41 39/39/39 42/42/42
f 44/44/44 43/43/43 45/45/45
f 45/45/45 43/43/43 46/46/46
f 48/48/48 47/47/47 49/49/49
f 49/49/49 47/47/47 50/50/50
f 52/52/52 51/51/51 53/53/53
f 53/53/53 51/51/51 54/54/54
f 56/56/56 55/55/55 57/57/57
f 57/57/57 55/55/55 58/58/58
f 60/60/60 59/59/59 61/61/61
f 61/61/61 59/59/59 62/62/62
f 64/64/64 63/63/63 65/65/65
f 66/66/66 65/65/65 63/63/63
f 67/67/67 66/66/66 63/63/63
f 69/69/69 68/68/68 70/70/70
f 71/71/71 70/70/70 68/68/68
f 72/72/72 70/70/70 71/71/71
f 74/74/74 73/73/73 75/75/75
f 76/76/76 73/73/73 74/74/74
f 76/76/76 77/77/77 73/73/73
f 78/78/78 77/77/77 76/76/76
f 78/78/78 79/79/79 77/77/77
f 80/80/80 79/79/79 78/78/78
f 80/80/80 81/81/81 79/79/79
f 82/82/82 81/81/81 80/80/80
f 84/84/84 83/83/83 85/85/85
f 85/85/85 83/83/83 86/86/86
f 88/88/88 87/87/87 89/89/89
f 89/89/89 87/87/87 90/90/90
f 92/92/92 91/91/91 93/93/93
f 93/93/93 91/91/91 94/94/94
f 96/96/96 95/95/95 97/97/97
f 97/97/97 95/95/95 98/98/98
f 100/100/100 99/99/99 101/101/101
f 101/101/101 99/99/99 102/102/102
f 104/104/104 103/103/103 105/105/105
f 105/105/105 103/103/103 106/106/106
f 108/108/108 107/107/107 109/109/109
f 109/109/109 107/107/107 110/110/110
f 112/112/112 111/111/111 113/113/113
f 113/113/113 111/111/111 114/114/114
f 111/111/111 115/115/115 114/114/114
f 114/114/114 115/115/115 116/116/116
f 118/118/118 117/117/117 119/119/119
f 120/120/120 117/117/117 118/118/118
f 121/121/121 117/117/117 120/120/120
f 122/122/122 117/117/117 121/121/121
f 120/120/120 118/118/118 123/123/123
f 121/121/121 120/120/120 124/124/124
f 124/124/124 120/120/120 123/123/123
f 125/125/125 121/121/121 124/124/124
f 126/126/126 121/121/121 125/125/125
f 124/124/124 123/123/123 127/127/127
f 127/127/127 123/123/123 128/128/128
f 123/123/123 118/118/118 129/129/129
f 123/123/123 129/129/129 128/128/128
f 128/128/128 129/129/129 130/130/130
f 118/118/118 131/131/131 129/129/129
f 129/129/129 131/131/131 132/132/132
f 134/134/134 133/133/133 135/135/135
f 135/135/135 133/133/133 136/136/136
f 138/138/138 137/137/137 139/139/139
f 139/139/139 137/137/137 140/140/140
f 137/137/137 141/141/141 140/140/140
f 140/140/140 141/141/141 142/142/142
f 141/141/141 143/143/143 142/142/142
f 142/142/142 143/143/143 144/144/144
f 143/143/143 145/145/145 144/144/144
f 144/144/144 145/145/145 146/146/146
f 148/148/148 147/147/147 149/149/149
f 149/149/149 147/147/147 150/150/150
f 152/152/152 151/151/151 153/153/153
f 153/153/153 151/151/151 154/154/154
f 156/156/156 155/155/155 157/157/157
f 157/157/157 155/155/155 158/158/158
