mtllib ./atm-mechine_2.mtl
g atm-mechine
v -0.2857555 0.8409441 0.3525869
v -0.2857555 0.8910712 0.435194
v -0.2857555 0.8910712 0.468973
v 0.2857555 0.8409441 0.3525869
v 0.2857555 0.8910712 0.468973
v 0.2857555 0.8910712 0.435194
v -0.4000182 0.002111003 0.3522779
v 0.4000182 0.002111003 0.3522779
v 0.4000182 0.002111003 -0.3479743
v -0.4000182 0.002111003 -0.3479743
v 0.4000182 0.002111003 0.3522779
v 0.3706182 0.032111 0.3265448
v 0.3706182 0.032111 -0.3222412
v 0.4000182 0.002111003 -0.3479743
v 0.4000182 0.002111003 -0.3479743
v 0.3706182 0.032111 -0.3222412
v -0.3706182 0.032111 -0.3222412
v -0.4000182 0.002111003 -0.3479743
v -0.4000182 0.002111003 0.3522779
v -0.3706182 0.032111 0.3265448
v 0.3706182 0.032111 0.3265448
v 0.4000182 0.002111003 0.3522779
v -0.2866592 0.032111 -0.2846208
v 0.2866592 0.032111 -0.2846208
v 0.2857555 0.08212724 -0.2837167
v -0.2857555 0.08212724 -0.2837167
v 0.2866592 0.032111 0.2889244
v 0.2857555 0.08212724 0.2880203
v 0.2857555 0.08212724 -0.2837167
v 0.2866592 0.032111 -0.2846208
v -0.2857555 0.8409441 0.3525869
v -0.2857555 0.8910712 0.468973
v 0.2857555 0.8910712 0.468973
v 0.2857555 0.8409441 0.3525869
v 0.2857555 0.8910712 0.435194
v 0.2857555 1.610022 0.2518443
v 0.2857555 1.610619 -0.2837167
v 0.2857555 0.7811651 -0.2837167
v 0.2857555 0.8409441 0.3525869
v 0.2857555 0.08212724 0.2880203
v 0.2857555 0.08212724 -0.2837167
v -0.2857555 1.610022 0.2518443
v -0.2857555 1.610619 -0.2837167
v 0.2857555 1.610619 -0.2837167
v 0.2857555 1.610022 0.2518443
v -0.2857555 0.8910712 0.435194
v -0.2857555 1.610022 0.2518443
v -0.2857555 1.610619 0.2753948
v -0.2857555 0.8910712 0.468973
v 0.2857555 0.7811651 -0.2837167
v 0.2857555 1.610619 -0.2837167
v -0.2857555 1.610619 -0.2837167
v -0.2857555 0.7811651 -0.2837167
v 0.2857555 0.08212724 -0.2837167
v -0.2857555 0.08212724 -0.2837167
v -0.2457106 1.438506 0.321698
v -0.2457105 1.37031 0.1573865
v -0.2412473 0.9890245 0.237399
v -0.2412515 0.9377422 0.4564171
v -0.2857555 0.7811651 -0.2837167
v -0.2857555 1.610619 -0.2837167
v -0.2857555 1.610022 0.2518443
v -0.2857555 0.8910712 0.435194
v -0.2857555 0.8409441 0.3525869
v -0.2857555 0.08212724 -0.2837167
v -0.2857555 0.08212724 0.2880203
v 0.2857555 1.610022 0.2518443
v 0.2857555 1.71627 0.2213122
v -0.2857555 1.71627 0.2213122
v -0.2857555 1.610022 0.2518443
v 0.2857555 0.8910712 0.468973
v 0.2857555 1.610619 0.2753948
v 0.2857555 1.610022 0.2518443
v 0.2857555 0.8910712 0.435194
v -0.2866592 0.032111 -0.2846208
v -0.2857555 0.08212724 -0.2837167
v -0.2857555 0.08212724 0.2880203
v -0.2866592 0.032111 0.2889244
v -0.4000182 0.002111003 -0.3479743
v -0.3706182 0.032111 -0.3222412
v -0.3706182 0.032111 0.3265448
v -0.4000182 0.002111003 0.3522779
v -0.2857555 1.721018 0.2436699
v -0.2857555 1.71627 0.2213122
v 0.2857555 1.71627 0.2213122
v 0.2857555 1.721018 0.2436699
v -0.2857555 1.610619 0.2753948
v -0.2457106 1.682602 0.2547092
v -0.2457106 1.610619 0.2753948
v -0.2857555 1.721018 0.2436699
v 0.2457487 1.682602 0.2547092
v 0.2857555 1.721018 0.2436699
v 0.2457481 1.610619 0.2753948
v 0.2857555 1.610619 0.2753948
v 0.2857555 1.610619 0.2753948
v 0.2857555 1.721018 0.2436699
v 0.2857555 1.71627 0.2213122
v 0.2857555 1.610022 0.2518443
v -0.2857555 1.610022 0.2518443
v -0.2857555 1.71627 0.2213122
v -0.2857555 1.721018 0.2436699
v -0.2857555 1.610619 0.2753948
v 0.2412892 0.9377422 0.4564171
v 0.2857555 0.8910712 0.468973
v -0.2857555 0.8910712 0.468973
v -0.2412515 0.9377422 0.4564171
v -0.2457106 1.438506 0.321698
v -0.2857555 1.610619 0.2753948
v -0.2457106 1.610619 0.2753948
v -0.2412515 0.9377422 0.4564171
v -0.2857555 0.8910712 0.468973
v 0.2457484 1.438506 0.321698
v 0.2857555 0.8910712 0.468973
v 0.2412892 0.9377422 0.4564171
v 0.2857555 1.610619 0.2753948
v 0.2457481 1.610619 0.2753948
v -0.2000047 1.026421 0.2295515
v -0.2000047 1.332914 0.165234
v 0.2000047 1.332914 0.165234
v 0.2000047 1.026421 0.2295515
v 0.2457484 1.438506 0.321698
v 0.2457487 1.37031 0.1573865
v -0.2457105 1.37031 0.1573865
v -0.2457106 1.438506 0.321698
v 0.2412892 0.9377422 0.4564171
v 0.2412855 0.9890245 0.237399
v 0.2457487 1.37031 0.1573865
v 0.2457484 1.438506 0.321698
v -0.1972171 0.9428486 0.4346089
v -0.1972171 0.9839182 0.2592072
v 0.0007396042 0.9839182 0.2592072
v 0.0007396042 0.9428486 0.4346089
v -0.2136007 0.7306573 0.3434606
v -0.2136007 0.7811652 0.3476402
v -0.02891105 0.7811651 0.3476402
v -0.02891105 0.7306573 0.3434606
v 0.05715697 0.7464525 0.3441177
v 0.05715697 0.7690954 0.3459914
v 0.2105246 0.7690954 0.3459914
v 0.2105246 0.7464525 0.3441177
v -0.2457106 1.610619 0.2753948
v 0.2457481 1.610619 0.2753948
v 0.2457484 1.438506 0.321698
v -0.2457106 1.438506 0.321698
v 0.2457487 1.682602 0.2547092
v 0.2457481 1.610619 0.2753948
v -0.2457106 1.610619 0.2753948
v -0.2457106 1.682602 0.2547092
v 0.2866592 0.032111 0.2889244
v -0.2866592 0.032111 0.2889244
v -0.2857555 0.08212724 0.2880203
v 0.2857555 0.08212724 0.2880203
v 0.2857555 0.08212724 0.2880203
v 0.2105246 0.7464525 0.3441177
v 0.2105246 0.7690954 0.3459914
v 0.05715697 0.7464525 0.3441177
v 0.2857555 0.8409441 0.3525869
v -0.2857555 0.08212724 0.2880203
v 0.05715697 0.7690954 0.3459914
v -0.02891105 0.7306573 0.3434606
v -0.2136007 0.7306573 0.3434606
v -0.2136007 0.7811652 0.3476402
v -0.2857555 0.8409441 0.3525869
v -0.02891105 0.7811651 0.3476402
v 0.2866592 0.032111 0.2889244
v 0.3706182 0.032111 0.3265448
v -0.3706182 0.032111 0.3265448
v -0.2866592 0.032111 0.2889244
v 0.2866592 0.032111 -0.2846208
v -0.3706182 0.032111 -0.3222412
v 0.3706182 0.032111 -0.3222412
v -0.2866592 0.032111 -0.2846208
v 0.2000047 1.026421 0.2295515
v 0.2412855 0.9890245 0.237399
v -0.2412473 0.9890245 0.237399
v -0.2000047 1.026421 0.2295515
v 0.2000047 1.332914 0.165234
v -0.2457105 1.37031 0.1573865
v 0.2457487 1.37031 0.1573865
v -0.2000047 1.332914 0.165234
v 0.0007396042 0.9428486 0.4346089
v 0.2412892 0.9377422 0.4564171
v -0.2412515 0.9377422 0.4564171
v -0.1972171 0.9428486 0.4346089
v 0.0007396042 0.9839182 0.2592072
v -0.2412473 0.9890245 0.237399
v 0.2412855 0.9890245 0.237399
v -0.1972171 0.9839182 0.2592072

vn -1 0 0
vn -1 0 0
vn -1 0 0
vn 1 0 0
vn 1 0 0
vn 1 0 0
vn 0 -1 0
vn 0 -1 0
vn 0 -1 0
vn 0 -1 0
vn 0.714213 0.6999285 0
vn 0.714213 0.6999285 0
vn 0.714213 0.6999285 0
vn 0.714213 0.6999285 0
vn 0 0.6510655 -0.7590215
vn 0 0.6510655 -0.7590215
vn 0 0.6510655 -0.7590215
vn 0 0.6510655 -0.7590215
vn 0 0.6510661 0.759021
vn 0 0.6510661 0.759021
vn 0 0.6510661 0.759021
vn 0 0.6510661 0.759021
vn 0 0.01807161 -0.9998367
vn 0 0.01807161 -0.9998367
vn 0 0.01807161 -0.9998367
vn 0 0.01807161 -0.9998367
vn 0.9998368 0.01806629 0
vn 0.9998368 0.01806629 0
vn 0.9998368 0.01806629 0
vn 0.9998368 0.01806629 0
vn 0 -0.9184366 0.395568
vn 0 -0.9184366 0.395568
vn 0 -0.9184366 0.395568
vn 0 -0.9184366 0.395568
vn 1 0 0
vn 1 0 0
vn 1 0 0
vn 1 0 0
vn 1 0 0
vn 1 0 0
vn 1 0 0
vn 0 0.9999994 0.001113383
vn 0 0.9999994 0.001113383
vn 0 0.9999994 0.001113383
vn 0 0.9999994 0.001113383
vn -1 0 0
vn -1 0 0
vn -1 0 0
vn -1 0 0
vn 0 0 -1
vn 0 0 -1
vn 0 0 -1
vn 0 0 -1
vn 0 0 -1
vn 0 0 -1
vn 0.9999498 0.01001012 -0.0004306874
vn 0.9999498 0.01001012 -0.0004306874
vn 0.9999498 0.01001012 -0.0004306874
vn 0.9999498 0.01001012 -0.0004306874
vn -1 0 0
vn -1 0 0
vn -1 0 0
vn -1 0 0
vn -1 0 0
vn -1 0 0
vn -1 0 0
vn 0 -0.2761884 -0.9611034
vn 0 -0.2761884 -0.9611034
vn 0 -0.2761884 -0.9611034
vn 0 -0.2761884 -0.9611034
vn 1 0 0
vn 1 0 0
vn 1 0 0
vn 1 0 0
vn -0.9998368 0.01806629 0
vn -0.9998368 0.01806629 0
vn -0.9998368 0.01806629 0
vn -0.9998368 0.01806629 0
vn -0.714213 0.6999285 0
vn -0.714213 0.6999285 0
vn -0.714213 0.6999285 0
vn -0.714213 0.6999285 0
vn 0 0.9781899 -0.2077126
vn 0 0.9781899 -0.2077126
vn 0 0.9781899 -0.2077126
vn 0 0.9781899 -0.2077126
vn 0 0.2761883 0.9611036
vn 0 0.2761883 0.9611036
vn 0 0.2761883 0.9611036
vn 0 0.2761883 0.9611036
vn 0 0.2761875 0.9611038
vn 0 0.2761875 0.9611038
vn 0 0.2761884 0.9611036
vn 0 0.2761884 0.9611036
vn 1 0 0
vn 1 0 0
vn 1 0 0
vn 1 0 0
vn -1 0 0
vn -1 0 0
vn -1 0 0
vn -1 0 0
vn 0 0.2597901 0.9656651
vn 0 0.2597901 0.9656651
vn 0 0.2597901 0.9656651
vn 0 0.2597901 0.9656651
vn 0 0.2597908 0.965665
vn 0 0.2597908 0.965665
vn 0 0.2597908 0.965665
vn 0 0.2597904 0.965665
vn 0 0.2597904 0.965665
vn 0 0.2597906 0.965665
vn 0 0.2597906 0.965665
vn 0 0.2597906 0.965665
vn 0 0.2597906 0.965665
vn 0 0.2597905 0.965665
vn 0 0.205376 0.9786831
vn 0 0.205376 0.9786831
vn 0 0.205376 0.9786831
vn 0 0.205376 0.9786831
vn 0 -0.9236107 0.3833317
vn 0 -0.9236107 0.3833317
vn 0 -0.9236107 0.3833317
vn 0 -0.9236107 0.3833317
vn -0.9999498 0.01000966 -0.0004325187
vn -0.9999498 0.01000966 -0.0004325187
vn -0.9999498 0.01000966 -0.0004325187
vn -0.9999498 0.01000966 -0.0004325187
vn 0 0.9736658 0.2279801
vn 0 0.9736658 0.2279801
vn 0 0.9736658 0.2279801
vn 0 0.9736658 0.2279801
vn 0 -0.08246837 0.9965937
vn 0 -0.08246837 0.9965937
vn 0 -0.08246837 0.9965937
vn 0 -0.08246837 0.9965937
vn 0 -0.08246796 0.9965937
vn 0 -0.08246796 0.9965937
vn 0 -0.08246796 0.9965937
vn 0 -0.08246796 0.9965937
vn 0 0.2597905 0.965665
vn 0 0.2597905 0.965665
vn 0 0.2597905 0.965665
vn 0 0.2597905 0.965665
vn 0 0.2761884 0.9611036
vn 0 0.2761884 0.9611036
vn 0 0.2761884 0.9611036
vn 0 0.2761884 0.9611036
vn 0 0.01807316 0.9998367
vn 0 0.01807316 0.9998367
vn 0 0.01807316 0.9998367
vn 0 0.01807316 0.9998367
vn 0.001038302 -0.08467527 0.996408
vn -0.005767283 -0.08471362 0.9963887
vn 0 -0.09141277 0.9958131
vn 0.001038302 -0.08467527 0.996408
vn 0 -0.09141277 0.9958131
vn 0 -0.08517538 0.9963659
vn 0 -0.09141277 0.9958131
vn 0 -0.08517538 0.9963659
vn 0 -0.08517538 0.9963659
vn 0 -0.08246688 0.9965938
vn 0 -0.08246688 0.9965938
vn 0 -0.08246688 0.9965938
vn 0 1 0
vn 0 1 0
vn 0 1 0
vn 0 1 0
vn 0 1 0
vn 0 1 0
vn 0 1 0
vn 0 1 0
vn 0 0.2053766 0.978683
vn 0 0.2053766 0.978683
vn 0 0.2053766 0.978683
vn 0 0.2053766 0.978683
vn 0 0.2053761 0.9786831
vn 0 0.2053761 0.9786831
vn 0 0.2053761 0.9786831
vn 0 0.2053761 0.9786831
vn 0 0.9736657 0.2279807
vn 0 0.9736657 0.2279807
vn 0 0.9736657 0.2279807
vn 0 0.9736657 0.2279807
vn 0 0.9736656 0.2279812
vn 0 0.9736656 0.2279812
vn 0 0.9736656 0.2279812
vn 0 0.9736656 0.2279812

vt 0.02978754 0.7000487
vt 0.03343466 0.6983338
vt 0.03389224 0.6973345
vt 0.02934214 0.6789503
vt 0.03444928 0.6818044
vt 0.03388813 0.680738
vt 0.4898233 0.6702617
vt 0.4902621 0.6302923
vt 0.4663885 0.635747
vt 0.4660752 0.6642842
vt 0.4902621 0.6302923
vt 0.489017 0.631896
vt 0.4675717 0.6366909
vt 0.4663885 0.635747
vt 0.4663885 0.635747
vt 0.4675717 0.6366909
vt 0.4672794 0.6633682
vt 0.4660752 0.6642842
vt 0.4898233 0.6702617
vt 0.4886152 0.6686292
vt 0.489017 0.631896
vt 0.4902621 0.6302923
vt 0.4678153 0.6627316
vt 0.4678572 0.6377275
vt 0.4653379 0.635639
vt 0.4653151 0.6648294
vt 0.4879928 0.6344326
vt 0.490492 0.6319877
vt 0.4653379 0.635639
vt 0.4678572 0.6377275
vt 0.02978754 0.7000487
vt 0.03389224 0.6973345
vt 0.03444928 0.6818044
vt 0.02934214 0.6789503
vt 0.8069345 0.7034845
vt 0.782488 0.71257
vt 0.7844613 0.7312915
vt 0.8134528 0.7282031
vt 0.8089942 0.7061852
vt 0.8357571 0.7056166
vt 0.837886 0.7256002
vt 0.7818137 0.6808478
vt 0.7829899 0.6620592
vt 0.7629402 0.6608041
vt 0.7617639 0.6795926
vt 0.03343466 0.6983338
vt 0.05896097 0.7019037
vt 0.05881855 0.7010311
vt 0.03389224 0.6973345
vt 0.8133641 0.643865
vt 0.7842674 0.642011
vt 0.7829899 0.6620592
vt 0.8120866 0.6639134
vt 0.837886 0.6454276
vt 0.8366085 0.6654759
vt 0.843526 0.6832674
vt 0.8446153 0.6894251
vt 0.8583096 0.689582
vt 0.8617366 0.6824564
vt 0.8120866 0.6639134
vt 0.7829899 0.6620592
vt 0.7818137 0.6808478
vt 0.8066242 0.6888867
vt 0.8085673 0.6861009
vt 0.8366085 0.6654759
vt 0.8353305 0.6855321
vt 0.06888241 0.6780151
vt 0.06439611 0.6780151
vt 0.06439611 0.7012082
vt 0.06888241 0.7012083
vt 0.03444928 0.6818044
vt 0.05882463 0.6781693
vt 0.05896971 0.677307
vt 0.03388813 0.680738
vt 0.4678153 0.6627316
vt 0.4653151 0.6648294
vt 0.490492 0.6681029
vt 0.4879714 0.6656657
vt 0.4660752 0.6642842
vt 0.4672794 0.6633682
vt 0.4886152 0.6686292
vt 0.4898233 0.6702617
vt 0.06346855 0.7012083
vt 0.06439611 0.7012082
vt 0.06439611 0.6780151
vt 0.06346861 0.6780151
vt 0.05881855 0.7010311
vt 0.06188068 0.6995399
vt 0.05894217 0.699419
vt 0.06346855 0.7012083
vt 0.0618785 0.6796704
vt 0.06346861 0.6780151
vt 0.05894783 0.6797923
vt 0.05882463 0.6781693
vt 0.05882463 0.6781693
vt 0.06346861 0.6780151
vt 0.06348762 0.67708
vt 0.05896971 0.677307
vt 0.05896097 0.7019037
vt 0.06348482 0.7021447
vt 0.06346855 0.7012083
vt 0.05881855 0.7010311
vt 0.03578213 0.6829385
vt 0.03444928 0.6818044
vt 0.03389224 0.6973345
vt 0.03553972 0.6960779
vt 0.05209211 0.6984189
vt 0.05881855 0.7010311
vt 0.05894217 0.699419
vt 0.03553972 0.6960779
vt 0.03389224 0.6973345
vt 0.05193871 0.6807882
vt 0.03444928 0.6818044
vt 0.03578213 0.6829385
vt 0.05882463 0.6781693
vt 0.05894783 0.6797923
vt 0.9377882 0.05500978
vt 0.9267802 0.05500978
vt 0.9267802 0.06907028
vt 0.9377882 0.06907028
vt 0.838362 0.7067001
vt 0.8446153 0.7067001
vt 0.8446153 0.6894251
vt 0.838362 0.6894251
vt 0.8617365 0.7136688
vt 0.8583096 0.7065433
vt 0.8446153 0.7067001
vt 0.843526 0.7128578
vt 0.9633619 0.05976379
vt 0.9633619 0.06609601
vt 0.9703202 0.06609601
vt 0.9703202 0.05976379
vt 0.1050853 0.6788614
vt 0.1050853 0.67708
vt 0.09859338 0.67708
vt 0.09859338 0.6788614
vt 0.09939203 0.6793374
vt 0.09859338 0.6793374
vt 0.09859338 0.6847284
vt 0.09939203 0.6847284
vt 0.3432346 0.3137988
vt 0.3259596 0.3137988
vt 0.3259596 0.3200638
vt 0.3432346 0.3200638
vt 0.8592809 0.7314197
vt 0.8619136 0.7314197
vt 0.8619136 0.7141448
vt 0.8592809 0.7141448
vt 0.4879928 0.6344326
vt 0.4879714 0.6656657
vt 0.490492 0.6681029
vt 0.490492 0.6319877
vt 0.8357571 0.7056166
vt 0.812272 0.7034706
vt 0.8114736 0.7034875
vt 0.8121575 0.698081
vt 0.8089942 0.7061852
vt 0.8353305 0.6855321
vt 0.8113591 0.6980979
vt 0.8126482 0.6950445
vt 0.8125103 0.6885539
vt 0.8107291 0.6885918
vt 0.8085673 0.6861009
vt 0.8108671 0.6950823
vt 0.4879928 0.6344326
vt 0.489017 0.631896
vt 0.4886152 0.6686292
vt 0.4879714 0.6656657
vt 0.4678572 0.6377275
vt 0.4672794 0.6633682
vt 0.4675717 0.6366909
vt 0.4678153 0.6627316
vt 0.8569664 0.7050922
vt 0.8583096 0.7065433
vt 0.8583096 0.689582
vt 0.8569665 0.6910317
vt 0.8459584 0.7050922
vt 0.8446153 0.6894251
vt 0.8446153 0.7067001
vt 0.8459584 0.6910317
vt 0.8654291 0.6980879
vt 0.8662164 0.7065434
vt 0.8662164 0.6895818
vt 0.8654291 0.6911297
vt 0.8590969 0.6980879
vt 0.8583096 0.689582
vt 0.8583096 0.7065433
vt 0.8590969 0.6911297

usemtl LOW-POLY-COLORS
usemap LOW-POLY-COLORS
f 2/2/2 1/1/1 3/3/3
f 5/5/5 4/4/4 6/6/6
f 8/8/8 7/7/7 9/9/9
f 9/9/9 7/7/7 10/10/10
f 12/12/12 11/11/11 13/13/13
f 13/13/13 11/11/11 14/14/14
f 16/16/16 15/15/15 17/17/17
f 17/17/17 15/15/15 18/18/18
f 20/20/20 19/19/19 21/21/21
f 21/21/21 19/19/19 22/22/22
f 24/24/24 23/23/23 25/25/25
f 25/25/25 23/23/23 26/26/26
f 28/28/28 27/27/27 29/29/29
f 29/29/29 27/27/27 30/30/30
f 32/32/32 31/31/31 33/33/33
f 33/33/33 31/31/31 34/34/34
f 36/36/36 35/35/35 37/37/37
f 37/37/37 35/35/35 38/38/38
f 35/35/35 39/39/39 38/38/38
f 39/39/39 40/40/40 38/38/38
f 38/38/38 40/40/40 41/41/41
f 43/43/43 42/42/42 44/44/44
f 44/44/44 42/42/42 45/45/45
f 47/47/47 46/46/46 48/48/48
f 48/48/48 46/46/46 49/49/49
f 51/51/51 50/50/50 52/52/52
f 52/52/52 50/50/50 53/53/53
f 50/50/50 54/54/54 53/53/53
f 53/53/53 54/54/54 55/55/55
f 57/57/57 56/56/56 58/58/58
f 58/58/58 56/56/56 59/59/59
f 61/61/61 60/60/60 62/62/62
f 62/62/62 60/60/60 63/63/63
f 63/63/63 60/60/60 64/64/64
f 60/60/60 65/65/65 64/64/64
f 64/64/64 65/65/65 66/66/66
f 68/68/68 67/67/67 69/69/69
f 69/69/69 67/67/67 70/70/70
f 72/72/72 71/71/71 73/73/73
f 73/73/73 71/71/71 74/74/74
f 76/76/76 75/75/75 77/77/77
f 77/77/77 75/75/75 78/78/78
f 80/80/80 79/79/79 81/81/81
f 81/81/81 79/79/79 82/82/82
f 84/84/84 83/83/83 85/85/85
f 85/85/85 83/83/83 86/86/86
f 88/88/88 87/87/87 89/89/89
f 90/90/90 87/87/87 88/88/88
f 91/91/91 90/90/90 88/88/88
f 92/92/92 90/90/90 91/91/91
f 93/93/93 92/92/92 91/91/91
f 94/94/94 92/92/92 93/93/93
f 96/96/96 95/95/95 97/97/97
f 97/97/97 95/95/95 98/98/98
f 100/100/100 99/99/99 101/101/101
f 101/101/101 99/99/99 102/102/102
f 104/104/104 103/103/103 105/105/105
f 105/105/105 103/103/103 106/106/106
f 108/108/108 107/107/107 109/109/109
f 108/108/108 110/110/110 107/107/107
f 111/111/111 110/110/110 108/108/108
f 113/113/113 112/112/112 114/114/114
f 115/115/115 112/112/112 113/113/113
f 115/115/115 116/116/116 112/112/112
f 118/118/118 117/117/117 119/119/119
f 119/119/119 117/117/117 120/120/120
f 122/122/122 121/121/121 123/123/123
f 123/123/123 121/121/121 124/124/124
f 126/126/126 125/125/125 127/127/127
f 127/127/127 125/125/125 128/128/128
f 130/130/130 129/129/129 131/131/131
f 131/131/131 129/129/129 132/132/132
f 134/134/134 133/133/133 135/135/135
f 135/135/135 133/133/133 136/136/136
f 138/138/138 137/137/137 139/139/139
f 139/139/139 137/137/137 140/140/140
f 142/142/142 141/141/141 143/143/143
f 143/143/143 141/141/141 144/144/144
f 146/146/146 145/145/145 147/147/147
f 147/147/147 145/145/145 148/148/148
f 150/150/150 149/149/149 151/151/151
f 151/151/151 149/149/149 152/152/152
f 154/154/154 153/153/153 155/155/155
f 156/156/156 153/153/153 154/154/154
f 155/155/155 153/153/153 157/157/157
f 156/156/156 158/158/158 153/153/153
f 159/159/159 155/155/155 157/157/157
f 159/159/159 160/160/160 156/156/156
f 160/160/160 158/158/158 156/156/156
f 160/160/160 161/161/161 158/158/158
f 162/162/162 158/158/158 161/161/161
f 163/163/163 158/158/158 162/162/162
f 164/164/164 160/160/160 159/159/159
f 159/159/159 157/157/157 164/164/164
f 164/164/164 163/163/163 162/162/162
f 164/164/164 157/157/157 163/163/163
f 166/166/166 165/165/165 167/167/167
f 167/167/167 165/165/165 168/168/168
f 166/166/166 169/169/169 165/165/165
f 167/167/167 168/168/168 170/170/170
f 171/171/171 169/169/169 166/166/166
f 170/170/170 168/168/168 172/172/172
f 171/171/171 172/172/172 169/169/169
f 170/170/170 172/172/172 171/171/171
f 174/174/174 173/173/173 175/175/175
f 175/175/175 173/173/173 176/176/176
f 174/174/174 177/177/177 173/173/173
f 175/175/175 176/176/176 178/178/178
f 179/179/179 177/177/177 174/174/174
f 178/178/178 176/176/176 180/180/180
f 179/179/179 180/180/180 177/177/177
f 178/178/178 180/180/180 179/179/179
f 182/182/182 181/181/181 183/183/183
f 183/183/183 181/181/181 184/184/184
f 182/182/182 185/185/185 181/181/181
f 183/183/183 184/184/184 186/186/186
f 187/187/187 185/185/185 182/182/182
f 186/186/186 184/184/184 188/188/188
f 187/187/187 188/188/188 185/185/185
f 186/186/186 188/188/188 187/187/187
