mtllib ./traffic-sign-rhomb_15.mtl
g traffic-sign-rhomb
v -0.3611481 2.2 0.03
v 0 1.838852 0.02999995
v 0.3611481 2.2 0.02999995
v 0 2.561148 0.03
v 2.622683E-09 2.2 0.03
v 2.622683E-09 0.2 0.03
v -0.0212132 0.2 0.0212132
v -0.0212132 2.2 0.0212132
v -0.03 2.2 1.772165E-10
v -0.03 0.2 1.772165E-10
v -0.0212132 0.2 -0.0212132
v -0.0212132 2.2 -0.0212132
v 0.0212132 2.2 -0.0212132
v 0.0212132 0.2 -0.0212132
v 0.03 0.2 -1.49187E-09
v 0.03 2.2 -1.49187E-09
v 0.0212132 2.2 0.0212132
v 0.0212132 0.2 0.0212132
v 2.622683E-09 0.2 0.03
v 2.622683E-09 2.2 0.03
v -0.0212132 2.2 0.0212132
v -0.0212132 0.2 0.0212132
v -0.03 0.2 1.772165E-10
v -0.03 2.2 1.772165E-10
v -0.0212132 2.2 -0.0212132
v -0.0212132 0.2 -0.0212132
v 0 0.2 -0.03
v 0 2.2 -0.03
v 0 2.2 -0.03
v 0 0.2 -0.03
v 0.0212132 0.2 -0.0212132
v 0.0212132 2.2 -0.0212132
v 0.03 2.2 -1.49187E-09
v 0.03 0.2 -1.49187E-09
v 0.0212132 0.2 0.0212132
v 0.0212132 2.2 0.0212132
v -0.3611481 2.2 0.05999999
v 1.856723E-09 2.561148 0.06
v 0.3611481 2.2 0.05999995
v 1.856723E-09 1.838852 0.05999995
v 0 1.838852 0.02999995
v 1.856723E-09 1.838852 0.05999995
v 0.3611481 2.2 0.05999995
v 0.3611481 2.2 0.02999995
v 0 2.561148 0.03
v 1.856723E-09 2.561148 0.06
v -0.3611481 2.2 0.05999999
v -0.3611481 2.2 0.03
v 0.3611481 2.2 0.02999995
v 0.3611481 2.2 0.05999995
v 1.856723E-09 2.561148 0.06
v 0 2.561148 0.03
v -0.3611481 2.2 0.03
v -0.3611481 2.2 0.05999999
v 1.856723E-09 1.838852 0.05999995
v 0 1.838852 0.02999995
v -0.0212132 2.2 -0.0212132
v 0 2.2 -0.03
v 0.0212132 2.2 -0.0212132
v -0.03 2.2 1.772165E-10
v 0.03 2.2 -1.49187E-09
v 0.0212132 2.2 0.0212132
v -0.0212132 2.2 0.0212132
v 2.622683E-09 2.2 0.03
v 0 0.1822538 -0.04841922
v 0 0 -0.07593031
v 0.05369084 0 -0.05369083
v 0.03423756 0.1822538 -0.03423755
v 0.05369084 0 -0.05369083
v 0 0 -0.07593031
v -0.05369083 0 -0.05369084
v -0.0759303 0 -7.101939E-09
v 0.0759303 0 -1.132641E-08
v 0.05369084 0 0.05369082
v -0.05369083 0 0.05369082
v 6.638038E-09 0 0.0759303
v 0.04841921 0.1822538 -3.820141E-09
v 0.0759303 0 -1.132641E-08
v 0.05369084 0 0.05369082
v 0.03423756 0.1822538 0.03423755
v 4.232942E-09 0.1822538 0.04841922
v 6.638038E-09 0 0.0759303
v -0.05369083 0 0.05369082
v -0.03423756 0.1822538 0.03423755
v -0.04841921 0.1822538 -1.126279E-09
v -0.0759303 0 -7.101939E-09
v -0.05369083 0 -0.05369084
v -0.03423756 0.1822538 -0.03423756
v 0.03423756 0.1822538 -0.03423755
v 0.05369084 0 -0.05369083
v 0.0759303 0 -1.132641E-08
v 0.04841921 0.1822538 -3.820141E-09
v 0.03423756 0.1822538 0.03423755
v 0.05369084 0 0.05369082
v 6.638038E-09 0 0.0759303
v 4.232942E-09 0.1822538 0.04841922
v -0.03423756 0.1822538 0.03423755
v -0.05369083 0 0.05369082
v -0.0759303 0 -7.101939E-09
v -0.04841921 0.1822538 -1.126279E-09
v -0.03423756 0.1822538 -0.03423756
v -0.05369083 0 -0.05369084
v 0 0 -0.07593031
v 0 0.1822538 -0.04841922
v -0.0212132 0.2 -0.0212132
v -0.03423756 0.1822538 -0.03423756
v 0 0.1822538 -0.04841922
v 0 0.2 -0.03
v -0.0212132 0.2 0.0212132
v -0.03423756 0.1822538 0.03423755
v -0.04841921 0.1822538 -1.126279E-09
v -0.03 0.2 1.772165E-10
v 0.0212132 0.2 0.0212132
v 0.03423756 0.1822538 0.03423755
v 4.232942E-09 0.1822538 0.04841922
v 2.622683E-09 0.2 0.03
v 0.0212132 0.2 -0.0212132
v 0.03423756 0.1822538 -0.03423755
v 0.04841921 0.1822538 -3.820141E-09
v 0.03 0.2 -1.49187E-09
v -0.03 0.2 1.772165E-10
v -0.04841921 0.1822538 -1.126279E-09
v -0.03423756 0.1822538 -0.03423756
v -0.0212132 0.2 -0.0212132
v 2.622683E-09 0.2 0.03
v 4.232942E-09 0.1822538 0.04841922
v -0.03423756 0.1822538 0.03423755
v -0.0212132 0.2 0.0212132
v 0.03 0.2 -1.49187E-09
v 0.04841921 0.1822538 -3.820141E-09
v 0.03423756 0.1822538 0.03423755
v 0.0212132 0.2 0.0212132
v 0 0.2 -0.03
v 0 0.1822538 -0.04841922
v 0.03423756 0.1822538 -0.03423755
v 0.0212132 0.2 -0.0212132

vn 0 0 -1
vn 0 0 -1
vn 0 0 -1
vn 0 0 -1
vn -0.3826835 0 0.9238795
vn -0.3826835 0 0.9238795
vn -0.3826835 0 0.9238795
vn -0.3826835 0 0.9238795
vn -0.9238795 0 -0.3826835
vn -0.9238795 0 -0.3826835
vn -0.9238795 0 -0.3826835
vn -0.9238795 0 -0.3826835
vn 0.9238795 0 -0.3826834
vn 0.9238795 0 -0.3826834
vn 0.9238795 0 -0.3826834
vn 0.9238795 0 -0.3826834
vn 0.3826835 0 0.9238794
vn 0.3826835 0 0.9238794
vn 0.3826835 0 0.9238794
vn 0.3826835 0 0.9238794
vn -0.9238795 0 0.3826835
vn -0.9238795 0 0.3826835
vn -0.9238795 0 0.3826835
vn -0.9238795 0 0.3826835
vn -0.3826835 0 -0.9238795
vn -0.3826835 0 -0.9238795
vn -0.3826835 0 -0.9238795
vn -0.3826835 0 -0.9238795
vn 0.3826835 0 -0.9238794
vn 0.3826835 0 -0.9238794
vn 0.3826835 0 -0.9238794
vn 0.3826835 0 -0.9238794
vn 0.9238795 0 0.3826833
vn 0.9238795 0 0.3826833
vn 0.9238795 0 0.3826833
vn 0.9238795 0 0.3826833
vn 0 0 1
vn 0 0 1
vn 0 0 1
vn 0 0 1
vn 0.7071069 -0.7071066 0
vn 0.7071069 -0.7071066 0
vn 0.7071069 -0.7071066 0
vn 0.7071069 -0.7071066 0
vn -0.7071069 0.7071066 0
vn -0.7071069 0.7071066 0
vn -0.7071069 0.7071066 0
vn -0.7071069 0.7071066 0
vn 0.7071068 0.7071068 0
vn 0.7071068 0.7071068 0
vn 0.7071068 0.7071068 0
vn 0.7071068 0.7071068 0
vn -0.7071068 -0.7071066 0
vn -0.7071068 -0.7071066 0
vn -0.7071068 -0.7071066 0
vn -0.7071068 -0.7071066 0
vn -1.463432E-06 1 0
vn -1.463432E-06 1 0
vn -1.463432E-06 1 0
vn -1.463432E-06 1 0
vn -1.463432E-06 1 0
vn -1.463432E-06 1 0
vn -1.463432E-06 1 0
vn -1.463432E-06 1 0
vn 0.3790156 0.1381224 -0.9150243
vn 0.3790156 0.1381224 -0.9150243
vn 0.3790156 0.1381224 -0.9150243
vn 0.3790156 0.1381224 -0.9150243
vn 0 -1 0
vn 0 -1 0
vn 0 -1 0
vn 0 -1 0
vn 0 -1 0
vn 0 -1 0
vn 0 -1 0
vn 0 -1 0
vn 0.9150243 0.1381223 0.3790153
vn 0.9150243 0.1381223 0.3790153
vn 0.9150243 0.1381223 0.3790153
vn 0.9150243 0.1381223 0.3790153
vn -0.3790155 0.1381223 0.9150243
vn -0.3790155 0.1381223 0.9150243
vn -0.3790155 0.1381223 0.9150243
vn -0.3790155 0.1381223 0.9150243
vn -0.9150243 0.1381223 -0.3790156
vn -0.9150243 0.1381223 -0.3790156
vn -0.9150243 0.1381223 -0.3790156
vn -0.9150243 0.1381223 -0.3790156
vn 0.9150243 0.1381223 -0.3790155
vn 0.9150243 0.1381223 -0.3790155
vn 0.9150243 0.1381223 -0.3790155
vn 0.9150243 0.1381223 -0.3790155
vn 0.3790156 0.1381223 0.9150243
vn 0.3790156 0.1381223 0.9150243
vn 0.3790156 0.1381223 0.9150243
vn 0.3790156 0.1381223 0.9150243
vn -0.9150243 0.1381223 0.3790156
vn -0.9150243 0.1381223 0.3790156
vn -0.9150243 0.1381223 0.3790156
vn -0.9150243 0.1381223 0.3790156
vn -0.3790155 0.1381223 -0.9150243
vn -0.3790155 0.1381223 -0.9150243
vn -0.3790155 0.1381223 -0.9150243
vn -0.3790155 0.1381223 -0.9150243
vn -0.2762126 0.6921246 -0.666836
vn -0.2762126 0.6921246 -0.666836
vn -0.2762126 0.6921246 -0.666836
vn -0.2762126 0.6921246 -0.666836
vn -0.6668365 0.6921241 0.2762126
vn -0.6668365 0.6921241 0.2762126
vn -0.6668365 0.6921241 0.2762126
vn -0.6668365 0.6921241 0.2762126
vn 0.2762128 0.6921242 0.6668363
vn 0.2762128 0.6921242 0.6668363
vn 0.2762128 0.6921242 0.6668363
vn 0.2762128 0.6921242 0.6668363
vn 0.6668354 0.6921248 -0.2762128
vn 0.6668354 0.6921248 -0.2762128
vn 0.6668354 0.6921248 -0.2762128
vn 0.6668354 0.6921248 -0.2762128
vn -0.6668358 0.6921247 -0.2762126
vn -0.6668358 0.6921247 -0.2762126
vn -0.6668358 0.6921247 -0.2762126
vn -0.6668358 0.6921247 -0.2762126
vn -0.2762125 0.6921242 0.6668363
vn -0.2762125 0.6921242 0.6668363
vn -0.2762125 0.6921242 0.6668363
vn -0.2762125 0.6921242 0.6668363
vn 0.6668362 0.6921244 0.2762128
vn 0.6668362 0.6921244 0.2762128
vn 0.6668362 0.6921244 0.2762128
vn 0.6668362 0.6921244 0.2762128
vn 0.2762123 0.6921246 -0.6668359
vn 0.2762123 0.6921246 -0.6668359
vn 0.2762123 0.6921246 -0.6668359
vn 0.2762123 0.6921246 -0.6668359

vt 0.6875657 0.07196289
vt 0.6651808 0.04132843
vt 0.642804 0.07194579
vt 0.6651702 0.07226419
vt 0.4588648 0.7337407
vt 0.4638109 0.6453016
vt 0.4621621 0.6452618
vt 0.4574621 0.7336606
vt 0.4560595 0.7335827
vt 0.4605212 0.6453595
vt 0.4589286 0.6456105
vt 0.4546575 0.7335071
vt 0.4630698 0.7339944
vt 0.4685045 0.6461361
vt 0.4670193 0.6457501
vt 0.4616688 0.7339075
vt 0.4602671 0.7338229
vt 0.46544 0.6454679
vt 0.4638109 0.6453016
vt 0.4588648 0.7337407
vt 0.4574621 0.7336606
vt 0.4621621 0.6452618
vt 0.4605212 0.6453595
vt 0.4560595 0.7335827
vt 0.4546575 0.7335071
vt 0.4589286 0.6456105
vt 0.457494 0.6460031
vt 0.4532563 0.7334338
vt 0.4645959 0.7340903
vt 0.4698248 0.646642
vt 0.4685045 0.6461361
vt 0.4630698 0.7339944
vt 0.4616688 0.7339075
vt 0.4670193 0.6457501
vt 0.46544 0.6454679
vt 0.4602671 0.7338229
vt 0.6875618 0.07379764
vt 0.6651956 0.07347918
vt 0.6428001 0.07378054
vt 0.6651849 0.1044149
vt 0.6633855 0.1057298
vt 0.6651849 0.1044149
vt 0.6428001 0.07378054
vt 0.6410007 0.07509536
vt 0.6651702 0.07226419
vt 0.6651956 0.07347918
vt 0.6875618 0.07379764
vt 0.6875657 0.07196289
vt 0.642804 0.07194579
vt 0.6428001 0.07378054
vt 0.6651956 0.07347918
vt 0.6651702 0.07226419
vt 0.6893601 0.07511199
vt 0.6875618 0.07379764
vt 0.6651849 0.1044149
vt 0.6669832 0.1057293
vt 0.4656072 0.7352371
vt 0.4645959 0.7340903
vt 0.4630698 0.7339944
vt 0.4655113 0.7367632
vt 0.461923 0.7350057
vt 0.4618271 0.7365317
vt 0.4643644 0.7377744
vt 0.4628384 0.7376786
vt 0.4706246 0.6458095
vt 0.4754385 0.6386246
vt 0.4729501 0.6371798
vt 0.4691292 0.64493
vt 0.4729501 0.6371798
vt 0.4754385 0.6386246
vt 0.4782198 0.6378866
vt 0.4796646 0.6353982
vt 0.4722121 0.6343986
vt 0.4736569 0.6319101
vt 0.4789266 0.6326169
vt 0.4764381 0.6311721
vt 0.4675131 0.6443346
vt 0.4703237 0.6360652
vt 0.4675937 0.635268
vt 0.4658018 0.6439406
vt 0.4640354 0.6437153
vt 0.46478 0.634779
vt 0.4618947 0.634604
vt 0.4622376 0.6436501
vt 0.4604197 0.6437534
vt 0.4589543 0.6347691
vt 0.4559989 0.6353216
vt 0.4585732 0.6440655
vt 0.4691292 0.64493
vt 0.4729501 0.6371798
vt 0.4703237 0.6360652
vt 0.4675131 0.6443346
vt 0.4658018 0.6439406
vt 0.4675937 0.635268
vt 0.46478 0.634779
vt 0.4640354 0.6437153
vt 0.4622376 0.6436501
vt 0.4618947 0.634604
vt 0.4589543 0.6347691
vt 0.4604197 0.6437534
vt 0.4585732 0.6440655
vt 0.4559989 0.6353216
vt 0.4532563 0.6362436
vt 0.4566726 0.6447609
vt 0.4589286 0.6456105
vt 0.4585732 0.6440655
vt 0.4566726 0.6447609
vt 0.457494 0.6460031
vt 0.4621621 0.6452618
vt 0.4622376 0.6436501
vt 0.4604197 0.6437534
vt 0.4605212 0.6453595
vt 0.46544 0.6454679
vt 0.4658018 0.6439406
vt 0.4640354 0.6437153
vt 0.4638109 0.6453016
vt 0.4685045 0.6461361
vt 0.4691292 0.64493
vt 0.4675131 0.6443346
vt 0.4670193 0.6457501
vt 0.4605212 0.6453595
vt 0.4604197 0.6437534
vt 0.4585732 0.6440655
vt 0.4589286 0.6456105
vt 0.4638109 0.6453016
vt 0.4640354 0.6437153
vt 0.4622376 0.6436501
vt 0.4621621 0.6452618
vt 0.4670193 0.6457501
vt 0.4675131 0.6443346
vt 0.4658018 0.6439406
vt 0.46544 0.6454679
vt 0.4698248 0.646642
vt 0.4706246 0.6458095
vt 0.4691292 0.64493
vt 0.4685045 0.6461361

usemtl LOW-POLY-COLORS
usemap LOW-POLY-COLORS
f 2/2/2 1/1/1 3/3/3
f 3/3/3 1/1/1 4/4/4
f 6/6/6 5/5/5 7/7/7
f 7/7/7 5/5/5 8/8/8
f 10/10/10 9/9/9 11/11/11
f 11/11/11 9/9/9 12/12/12
f 14/14/14 13/13/13 15/15/15
f 15/15/15 13/13/13 16/16/16
f 18/18/18 17/17/17 19/19/19
f 19/19/19 17/17/17 20/20/20
f 22/22/22 21/21/21 23/23/23
f 23/23/23 21/21/21 24/24/24
f 26/26/26 25/25/25 27/27/27
f 27/27/27 25/25/25 28/28/28
f 30/30/30 29/29/29 31/31/31
f 31/31/31 29/29/29 32/32/32
f 34/34/34 33/33/33 35/35/35
f 35/35/35 33/33/33 36/36/36
f 38/38/38 37/37/37 39/39/39
f 39/39/39 37/37/37 40/40/40
f 42/42/42 41/41/41 43/43/43
f 43/43/43 41/41/41 44/44/44
f 46/46/46 45/45/45 47/47/47
f 47/47/47 45/45/45 48/48/48
f 50/50/50 49/49/49 51/51/51
f 51/51/51 49/49/49 52/52/52
f 54/54/54 53/53/53 55/55/55
f 55/55/55 53/53/53 56/56/56
f 58/58/58 57/57/57 59/59/59
f 60/60/60 59/59/59 57/57/57
f 61/61/61 59/59/59 60/60/60
f 62/62/62 61/61/61 60/60/60
f 63/63/63 62/62/62 60/60/60
f 64/64/64 62/62/62 63/63/63
f 66/66/66 65/65/65 67/67/67
f 67/67/67 65/65/65 68/68/68
f 70/70/70 69/69/69 71/71/71
f 72/72/72 71/71/71 69/69/69
f 73/73/73 72/72/72 69/69/69
f 74/74/74 72/72/72 73/73/73
f 75/75/75 72/72/72 74/74/74
f 76/76/76 75/75/75 74/74/74
f 78/78/78 77/77/77 79/79/79
f 79/79/79 77/77/77 80/80/80
f 82/82/82 81/81/81 83/83/83
f 83/83/83 81/81/81 84/84/84
f 86/86/86 85/85/85 87/87/87
f 87/87/87 85/85/85 88/88/88
f 90/90/90 89/89/89 91/91/91
f 91/91/91 89/89/89 92/92/92
f 94/94/94 93/93/93 95/95/95
f 95/95/95 93/93/93 96/96/96
f 98/98/98 97/97/97 99/99/99
f 99/99/99 97/97/97 100/100/100
f 102/102/102 101/101/101 103/103/103
f 103/103/103 101/101/101 104/104/104
f 106/106/106 105/105/105 107/107/107
f 107/107/107 105/105/105 108/108/108
f 110/110/110 109/109/109 111/111/111
f 111/111/111 109/109/109 112/112/112
f 114/114/114 113/113/113 115/115/115
f 115/115/115 113/113/113 116/116/116
f 118/118/118 117/117/117 119/119/119
f 119/119/119 117/117/117 120/120/120
f 122/122/122 121/121/121 123/123/123
f 123/123/123 121/121/121 124/124/124
f 126/126/126 125/125/125 127/127/127
f 127/127/127 125/125/125 128/128/128
f 130/130/130 129/129/129 131/131/131
f 131/131/131 129/129/129 132/132/132
f 134/134/134 133/133/133 135/135/135
f 135/135/135 133/133/133 136/136/136
