mtllib ./building-policestation-garage_17.mtl
g building-policestation-garage
v -4 1.8 -3.95
v -4 1.8 -2.45
v -4 1.8 -0.9499996
v -4 1.8 1.05
v -4 1.8 2.55
v -4 1.8 4.05
v -0.1499999 0 5.05
v -0.2499993 0 4.95
v -0.2499993 0 5.05
v 0.1500009 0 5.05
v 0.2500013 0 5.05
v 0.2500013 0 4.95
v 3.6 3.8 -4.65
v 3.6 3.3 -4.65
v -3.7 3.3 -4.65
v -3.7 3.8 -4.65
v 3.699999 0 5.05
v 4 3.3 5.05
v 4 0 5.05
v 3.699999 2.5 5.05
v 4.768372E-07 3.3 5.05
v 0.1500009 2.5 5.05
v -0.1499999 2.5 5.05
v 0.1500009 0 5.05
v -0.1499999 0 5.05
v -4 3.3 5.05
v -3.7 2.5 5.05
v -4 0 5.05
v -3.7 0 5.05
v 0.2500013 2.4 4.95
v 3.599999 2.4 4.95
v 3.599999 0 4.95
v 0.2500013 0 4.95
v 0.2500013 2.4 5.05
v 0.2500013 0 5.05
v 0.1500009 0 5.05
v 0.1500009 2.5 5.05
v 3.599999 2.4 5.05
v 3.699999 2.5 5.05
v 3.599999 0 5.05
v 3.699999 0 5.05
v 0.2500013 2.4 5.05
v 3.599999 2.4 5.05
v 3.599999 2.4 4.95
v 0.2500013 2.4 4.95
v 3.599999 2.4 5.05
v 3.599999 0 5.05
v 3.599999 0 4.95
v 3.599999 2.4 4.95
v 0.2500013 0 5.05
v 0.2500013 2.4 5.05
v 0.2500013 2.4 4.95
v 0.2500013 0 4.95
v 3.999356 0 0.04999948
v 4 0 -4.95
v -4 0 -4.95
v -4 0 0.04999995
v -0.2499993 0 4.95
v 0.2500013 0 4.95
v -3.6 0 4.95
v 3.599999 0 4.95
v -3.7 0 5.05
v -3.6 0 5.05
v -4 0 5.05
v 3.699999 0 5.05
v 3.599999 0 5.05
v 4 0 5.05
v 4 0 0.04999948
v 4 0 -4.95
v -3.6 2.4 4.95
v -0.2499993 2.4 4.95
v -0.2499993 0 4.95
v -3.6 0 4.95
v -3.6 2.4 5.05
v -3.6 0 5.05
v -3.7 0 5.05
v -3.7 2.5 5.05
v -0.2499993 2.4 5.05
v -0.1499999 2.5 5.05
v -0.2499993 0 5.05
v -0.1499999 0 5.05
v -3.6 2.4 5.05
v -0.2499993 2.4 5.05
v -0.2499993 2.4 4.95
v -3.6 2.4 4.95
v -0.2499993 2.4 5.05
v -0.2499993 0 5.05
v -0.2499993 0 4.95
v -0.2499993 2.4 4.95
v -3.6 0 5.05
v -3.6 2.4 5.05
v -3.6 2.4 4.95
v -3.6 0 4.95
v -4 3.3 -4.95
v 4 3.3 -4.95
v 4 3.8 -4.95
v -4 3.8 -4.95
v -4 3.8 -4.95
v 4 3.8 -4.95
v 3.6 3.8 -4.65
v -3.7 3.8 -4.65
v -4 3.8 0.04999948
v -3.7 3.8 0.04999948
v -4 3.8 5.05
v -3.7 3.8 4.75
v 4.768372E-07 3.3 5.05
v -4 3.3 5.05
v -4 3.8 5.05
v 4 3.8 5.05
v 4 3.3 5.05
v 3.6 3.3 0.04999995
v 3.6 3.3 -4.65
v 3.6 3.8 -4.65
v 3.6 3.8 0.04999995
v 3.6 3.3 4.75
v 3.6 3.8 4.75
v 4 3.3 -4.95
v -4 3.3 -4.95
v -4 0 -4.95
v 4 0 -4.95
v 3.6 3.8 4.75
v -3.7 3.8 4.75
v -3.7 3.3 4.75
v 3.6 3.3 4.75
v 3.6 3.3 0.04999995
v 3.6 3.3 4.75
v -3.7 3.3 4.75
v -3.7 3.3 0.04999948
v 3.6 3.3 -4.65
v -3.7 3.3 -4.65
v -3.7 3.3 0.04999948
v -3.7 3.3 4.75
v -3.7 3.8 4.75
v -3.7 3.8 0.04999948
v -3.7 3.3 -4.65
v -3.7 3.8 -4.65
v -4 3.8 5.05
v -4 3.3 5.05
v -4 3.3 0.04999995
v -4 3.8 0.04999948
v -4 3.3 -4.95
v -4 3.8 -4.95
v -4 2.300001 2.65
v -3.9 2.300001 2.65
v -3.9 1.9 2.65
v -4 1.9 2.65
v -4 2.300001 -2.35
v -3.9 2.300001 -2.35
v -3.9 1.9 -2.35
v -4 1.9 -2.35
v -4 1.9 1.15
v -3.9 1.9 1.15
v -3.9 1.9 2.45
v -4 1.9 2.45
v -3.9 1.9 3.95
v -3.9 1.9 2.65
v -3.9 2.300001 2.65
v -3.9 2.300001 3.95
v -3.9 1.9 2.45
v -3.9 1.9 1.15
v -3.9 2.300001 1.15
v -3.9 2.300001 2.45
v -4 1.9 2.65
v -3.9 1.9 2.65
v -3.9 1.9 3.95
v -4 1.9 3.95
v -4 2.300001 2.45
v -3.9 2.300001 2.45
v -3.9 2.300001 1.15
v -4 2.300001 1.15
v -4 1.9 2.45
v -3.9 1.9 2.45
v -3.9 2.300001 2.45
v -4 2.300001 2.45
v -4 2.300001 3.95
v -3.9 2.300001 3.95
v -3.9 2.300001 2.65
v -4 2.300001 2.65
v -4 2.300001 1.15
v -3.9 2.300001 1.15
v -3.9 1.9 1.15
v -4 1.9 1.15
v -4 1.9 3.95
v -3.9 1.9 3.95
v -3.9 2.300001 3.95
v -4 2.300001 3.95
v -4 1.9 -3.85
v -3.9 1.9 -3.85
v -3.9 1.9 -2.549999
v -4 1.9 -2.549999
v -3.9 1.9 -1.049999
v -3.9 1.9 -2.35
v -3.9 2.300001 -2.35
v -3.9 2.300001 -1.049999
v -3.9 1.9 -2.549999
v -3.9 1.9 -3.85
v -3.9 2.300001 -3.85
v -3.9 2.300001 -2.549999
v -4 1.9 -2.35
v -3.9 1.9 -2.35
v -3.9 1.9 -1.049999
v -4 1.9 -1.049999
v -4 2.300001 -2.549999
v -3.9 2.300001 -2.549999
v -3.9 2.300001 -3.85
v -4 2.300001 -3.85
v -4 1.9 -2.549999
v -3.9 1.9 -2.549999
v -3.9 2.300001 -2.549999
v -4 2.300001 -2.549999
v -4 2.300001 -1.049999
v -3.9 2.300001 -1.049999
v -3.9 2.300001 -2.35
v -4 2.300001 -2.35
v -4 2.300001 -3.85
v -3.9 2.300001 -3.85
v -3.9 1.9 -3.85
v -4 1.9 -3.85
v -4 1.9 -1.049999
v -3.9 1.9 -1.049999
v -3.9 2.300001 -1.049999
v -4 2.300001 -1.049999
v -0.1499999 0 5.05
v 0.1500009 0 5.05
v 0.2500013 0 4.95
v -0.2499993 0 4.95
v -3.7 3.8 4.75
v 3.6 3.8 4.75
v 4 3.8 5.05
v -4 3.8 5.05
v 4 3.8 5.05
v 4 3.3 0.04999995
v 4 3.3 5.05
v 4 3.8 0.04999995
v 4 3.3 -4.95
v 4 3.8 -4.95
v 4 3.8 5.05
v 3.6 3.8 4.75
v 3.6 3.8 0.04999995
v 4 3.8 0.04999995
v 4 3.8 -4.95
v 3.6 3.8 -4.65
v 4 3.3 5.05
v 4 0 0.04999948
v 4 0 5.05
v 4 3.3 0.04999995
v 4 0 -4.95
v 4 3.3 -4.95
v -4 3.3 5.05
v -4 2.400001 4.05
v -4 2.400001 2.55
v -4 2.400001 1.05
v -4 0 5.05
v -4 1.8 4.05
v -4 3.3 0.04999995
v -4 0 0.04999995
v -4 1.8 1.05
v -4 2.400001 -0.9499996
v -4 1.8 -0.9499996
v -4 2.400001 -2.45
v -4 0 -4.95
v -4 2.400001 -3.95
v -4 1.8 -3.95
v -4 3.3 -4.95
v -4 1.8 4.05
v -4 1.9 3.95
v -4 2.300001 3.95
v -4 2.400001 4.05
v -4 2.300001 2.65
v -4 1.8 2.55
v -4 2.400001 2.55
v -4 1.9 2.65
v -4 2.300001 2.45
v -4 1.9 2.45
v -4 2.300001 1.15
v -4 1.8 1.05
v -4 2.400001 1.05
v -4 1.9 1.15
v -4 1.8 -0.9499996
v -4 1.9 -1.049999
v -4 2.300001 -1.049999
v -4 2.400001 -0.9499996
v -4 2.300001 -2.35
v -4 1.8 -2.45
v -4 2.400001 -2.45
v -4 1.9 -2.35
v -4 2.300001 -2.549999
v -4 1.9 -2.549999
v -4 2.300001 -3.85
v -4 1.8 -3.95
v -4 2.400001 -3.95
v -4 1.9 -3.85

vn -1 0 0
vn -1 0 0
vn -1 0 0
vn -1 0 0
vn -1 0 0
vn -1 0 0
vn 0 -1 0
vn 0 -1 0
vn 0 -1 0
vn 0 -1 0
vn 0 -1 0
vn 0 -1 0
vn 0 0 1
vn 0 0 1
vn 0 0 1
vn 0 0 1
vn 0 0 1
vn 0 0 1
vn 0 0 1
vn 0 0 1
vn 0 0 1
vn 0 0 1
vn 0 0 1
vn 0 0 1
vn 0 0 1
vn 0 0 1
vn 0 0 1
vn 0 0 1
vn 0 0 1
vn 0 0 1
vn 0 0 1
vn 0 0 1
vn 0 0 1
vn 0 0 1
vn 0 0 1
vn 0 0 1
vn 0 0 1
vn 0 0 1
vn 0 0 1
vn 0 0 1
vn 0 0 1
vn 0 -1 0
vn 0 -1 0
vn 0 -1 0
vn 0 -1 0
vn -1 0 0
vn -1 0 0
vn -1 0 0
vn -1 0 0
vn 1 0 0
vn 1 0 0
vn 1 0 0
vn 1 0 0
vn 0 -1 0
vn 0 -1 0
vn 0 -1 0
vn 0 -1 0
vn 0 -1 0
vn 0 -1 0
vn 0 -1 0
vn 0 -1 0
vn 0 -1 0
vn 0 -1 0
vn 0 -1 0
vn 0 -1 0
vn 0 -1 0
vn 0 -1 0
vn 0 -1 0
vn 0 -1 0
vn 0 0 1
vn 0 0 1
vn 0 0 1
vn 0 0 1
vn 0 0 1
vn 0 0 1
vn 0 0 1
vn 0 0 1
vn 0 0 1
vn 0 0 1
vn 0 0 1
vn 0 0 1
vn 0 -1 0
vn 0 -1 0
vn 0 -1 0
vn 0 -1 0
vn -1 0 0
vn -1 0 0
vn -1 0 0
vn -1 0 0
vn 1 0 0
vn 1 0 0
vn 1 0 0
vn 1 0 0
vn 0 0 -1
vn 0 0 -1
vn 0 0 -1
vn 0 0 -1
vn 0 1 0
vn 0 1 0
vn 0 1 0
vn 0 1 0
vn 0 1 0
vn 0 1 0
vn 0 1 0
vn 0 1 0
vn 0 0 1
vn 0 0 1
vn 0 0 1
vn 0 0 1
vn 0 0 1
vn -1 0 0
vn -1 0 0
vn -1 0 0
vn -1 0 0
vn -1 0 0
vn -1 0 0
vn 0 0 -1
vn 0 0 -1
vn 0 0 -1
vn 0 0 -1
vn 0 0 -1
vn 0 0 -1
vn 0 0 -1
vn 0 0 -1
vn 0 1 0
vn 0 1 0
vn 0 1 0
vn 0 1 0
vn 0 1 0
vn 0 1 0
vn 1 0 0
vn 1 0 0
vn 1 0 0
vn 1 0 0
vn 1 0 0
vn 1 0 0
vn -1 0 0
vn -1 0 0
vn -1 0 0
vn -1 0 0
vn -1 0 0
vn -1 0 0
vn 0 0 1
vn 0 0 1
vn 0 0 1
vn 0 0 1
vn 0 0 1
vn 0 0 1
vn 0 0 1
vn 0 0 1
vn 0 1 0
vn 0 1 0
vn 0 1 0
vn 0 1 0
vn -1 0 0
vn -1 0 0
vn -1 0 0
vn -1 0 0
vn -1 0 0
vn -1 0 0
vn -1 0 0
vn -1 0 0
vn 0 1 0
vn 0 1 0
vn 0 1 0
vn 0 1 0
vn 0 -1 0
vn 0 -1 0
vn 0 -1 0
vn 0 -1 0
vn 0 0 -1
vn 0 0 -1
vn 0 0 -1
vn 0 0 -1
vn 0 -1 0
vn 0 -1 0
vn 0 -1 0
vn 0 -1 0
vn 0 0 1
vn 0 0 1
vn 0 0 1
vn 0 0 1
vn 0 0 -1
vn 0 0 -1
vn 0 0 -1
vn 0 0 -1
vn 0 1 0
vn 0 1 0
vn 0 1 0
vn 0 1 0
vn -1 0 0
vn -1 0 0
vn -1 0 0
vn -1 0 0
vn -1 0 0
vn -1 0 0
vn -1 0 0
vn -1 0 0
vn 0 1 0
vn 0 1 0
vn 0 1 0
vn 0 1 0
vn 0 -1 0
vn 0 -1 0
vn 0 -1 0
vn 0 -1 0
vn 0 0 -1
vn 0 0 -1
vn 0 0 -1
vn 0 0 -1
vn 0 -1 0
vn 0 -1 0
vn 0 -1 0
vn 0 -1 0
vn 0 0 1
vn 0 0 1
vn 0 0 1
vn 0 0 1
vn 0 0 -1
vn 0 0 -1
vn 0 0 -1
vn 0 0 -1
vn 0 -1 0
vn 0 -1 0
vn 0 -1 0
vn 0 -1 0
vn 0 1 0
vn 0 1 0
vn 0 1 0
vn 0 1 0
vn 1 0 0
vn 1 0 0
vn 1 0 0
vn 1 0 0
vn 1 0 0
vn 1 0 0
vn 0 1 0
vn 0 1 0
vn 0 1 0
vn 0 1 0
vn 0 1 0
vn 0 1 0
vn 1 0 0
vn 1 0 0
vn 1 0 0
vn 1 0 0
vn 1 0 0
vn 1 0 0
vn -1 0 0
vn -1 0 0
vn -1 0 0
vn -1 0 0
vn -1 0 0
vn -1 0 0
vn -1 0 0
vn -1 0 0
vn -1 0 0
vn -1 0 0
vn -1 0 0
vn -1 0 0
vn -1 0 0
vn -1 0 0
vn -1 0 0
vn -1 0 0
vn -1 0 0
vn -1 0 0
vn -1 0 0
vn -1 0 0
vn -1 0 0
vn -1 0 0
vn -1 0 0
vn -1 0 0
vn -1 0 0
vn -1 0 0
vn -1 0 0
vn -1 0 0
vn -1 0 0
vn -1 0 0
vn -1 0 0
vn -1 0 0
vn -1 0 0
vn -1 0 0
vn -1 0 0
vn -1 0 0
vn -1 0 0
vn -1 0 0
vn -1 0 0
vn -1 0 0
vn -1 0 0
vn -1 0 0
vn -1 0 0
vn -1 0 0

vt 0.1671654 0.04069934
vt 0.1671654 0.03442208
vt 0.1671655 0.02814482
vt 0.1671655 0.01977513
vt 0.1671654 0.01349786
vt 0.1671655 0.007220577
vt 0.2032672 0.07898013
vt 0.2032672 0.0783883
vt 0.2029713 0.07868421
vt 0.2032672 0.07722717
vt 0.2029713 0.07752308
vt 0.2032672 0.07781899
vt 0.2587985 0.3134365
vt 0.2606997 0.3127573
vt 0.2623819 0.2844974
vt 0.2604609 0.2836445
vt 0.2055492 0.03857578
vt 0.2193592 0.03732034
vt 0.2055492 0.03732034
vt 0.2160113 0.03857578
vt 0.2193592 0.05405968
vt 0.2160113 0.05343197
vt 0.2160113 0.05468741
vt 0.2055492 0.05343195
vt 0.2055492 0.05468741
vt 0.2193592 0.07079905
vt 0.2160113 0.06954361
vt 0.2055492 0.07079905
vt 0.2055492 0.06954361
vt 0.5469296 0.6992974
vt 0.5469296 0.7133167
vt 0.5569732 0.7133167
vt 0.5569732 0.6992974
vt 0.4443561 0.689437
vt 0.4533736 0.684946
vt 0.4532282 0.6846496
vt 0.4439063 0.6891632
vt 0.4442666 0.7052204
vt 0.4438687 0.7054822
vt 0.4533398 0.7096906
vt 0.4531943 0.7099882
vt 0.4443561 0.689437
vt 0.4442666 0.7052204
vt 0.4447129 0.7049604
vt 0.4447466 0.689694
vt 0.4442666 0.7052204
vt 0.4533398 0.7096906
vt 0.4535216 0.7093235
vt 0.4447129 0.7049604
vt 0.4533736 0.684946
vt 0.4443561 0.689437
vt 0.4447466 0.689694
vt 0.4535216 0.6852411
vt 0.0513685 0.6664853
vt 0.03053008 0.6663827
vt 0.03045736 0.6998054
vt 0.0513456 0.6998369
vt 0.07182242 0.684166
vt 0.0718191 0.6820813
vt 0.07182233 0.6981654
vt 0.07179293 0.6680924
vt 0.07224013 0.6985832
vt 0.07224013 0.6981654
vt 0.07224013 0.6998369
vt 0.07220852 0.6676745
vt 0.07220969 0.6680912
vt 0.07220504 0.666424
vt 0.05136888 0.6661216
vt 0.03053008 0.6663827
vt 0.5363167 0.6992974
vt 0.5363167 0.7133167
vt 0.5463603 0.7133167
vt 0.5463603 0.6992974
vt 0.4341341 0.6894366
vt 0.4431514 0.684946
vt 0.443006 0.6846496
vt 0.4336843 0.6891629
vt 0.4340442 0.70522
vt 0.4336463 0.7054819
vt 0.4431176 0.7096906
vt 0.442972 0.7099882
vt 0.4341341 0.6894366
vt 0.4340442 0.70522
vt 0.4344905 0.7049601
vt 0.4345246 0.6896937
vt 0.4340442 0.70522
vt 0.4431176 0.7096906
vt 0.4432994 0.7093236
vt 0.4344905 0.7049601
vt 0.4431514 0.684946
vt 0.4341341 0.6894366
vt 0.4345246 0.6896937
vt 0.4432994 0.685241
vt 0.2576178 0.2823198
vt 0.2546111 0.3149304
vt 0.2571415 0.3143748
vt 0.2594448 0.2831401
vt 0.2594448 0.2831401
vt 0.2571415 0.3143748
vt 0.2587985 0.3134365
vt 0.2604609 0.2836445
vt 0.272553 0.2705588
vt 0.273264 0.2712742
vt 0.285712 0.2573134
vt 0.2856973 0.2589311
vt 0.3497998 0.3556463
vt 0.3665392 0.3556463
vt 0.3665392 0.3535538
vt 0.3330604 0.3535538
vt 0.3330604 0.3556463
vt 0.2734243 0.3292906
vt 0.2606997 0.3127573
vt 0.2587985 0.3134365
vt 0.2716073 0.3306796
vt 0.2869931 0.3468966
vt 0.2851201 0.3483401
vt 0.1734427 0.07836293
vt 0.1734427 0.04488418
vt 0.1596327 0.04488418
vt 0.1596327 0.07836293
vt 0.3347343 0.3522984
vt 0.3652837 0.3522984
vt 0.3652837 0.350206
vt 0.3347343 0.350206
vt 0.566866 0.6790594
vt 0.566866 0.6593906
vt 0.5363167 0.6593906
vt 0.5363167 0.6790593
vt 0.566866 0.6987281
vt 0.5363167 0.6987281
vt 0.2744453 0.2724635
vt 0.2869931 0.2602654
vt 0.2856973 0.2589311
vt 0.273264 0.2712742
vt 0.2623819 0.2844974
vt 0.2604609 0.2836445
vt 0.285712 0.2573134
vt 0.2844102 0.2559654
vt 0.2710244 0.2690341
vt 0.272553 0.2705588
vt 0.2576178 0.2823198
vt 0.2594448 0.2831401
vt 0.4304995 0.6966082
vt 0.4300213 0.6961819
vt 0.4284303 0.6960737
vt 0.4280664 0.696656
vt 0.4241715 0.6975911
vt 0.4246498 0.6980174
vt 0.4262408 0.6981256
vt 0.4266047 0.6975433
vt 0.4280664 0.7032418
vt 0.4284303 0.7026595
vt 0.4285165 0.6980175
vt 0.4280382 0.6975911
vt 0.958073 0.06447195
vt 0.9526327 0.06447195
vt 0.9526327 0.06614587
vt 0.958073 0.06614587
vt 0.9460537 0.06447195
vt 0.9406135 0.06447195
vt 0.9406135 0.06614587
vt 0.9460537 0.06614587
vt 0.4280664 0.696656
vt 0.4284303 0.6960737
vt 0.4285165 0.6914316
vt 0.4280382 0.6910052
vt 0.4304714 0.6975433
vt 0.4301075 0.6981256
vt 0.4300213 0.7027677
vt 0.4304995 0.703194
vt 0.4280382 0.6975911
vt 0.4285165 0.6980175
vt 0.4301075 0.6981256
vt 0.4304714 0.6975433
vt 0.4304714 0.6909575
vt 0.4301075 0.6915398
vt 0.4300213 0.6961819
vt 0.4304995 0.6966082
vt 0.4304995 0.703194
vt 0.4300213 0.7027677
vt 0.4284303 0.7026595
vt 0.4280664 0.7032418
vt 0.4280382 0.6910052
vt 0.4285165 0.6914316
vt 0.4301075 0.6915398
vt 0.4304714 0.6909575
vt 0.4266047 0.6909575
vt 0.4262408 0.6915398
vt 0.4261546 0.6961819
vt 0.4266328 0.6966082
vt 0.9520633 0.06447195
vt 0.9466231 0.06447195
vt 0.9466231 0.06614587
vt 0.9520633 0.06614587
vt 0.9690034 0.06363533
vt 0.9635631 0.06363533
vt 0.9635631 0.06530926
vt 0.9690034 0.06530926
vt 0.4266047 0.6975433
vt 0.4262408 0.6981256
vt 0.4261546 0.7027677
vt 0.4266328 0.703194
vt 0.4241997 0.696656
vt 0.4245636 0.6960737
vt 0.4246498 0.6914316
vt 0.4241715 0.6910052
vt 0.4266328 0.6966082
vt 0.4261546 0.6961819
vt 0.4245636 0.6960737
vt 0.4241997 0.696656
vt 0.4241997 0.7032418
vt 0.4245636 0.7026595
vt 0.4246498 0.6980174
vt 0.4241715 0.6975911
vt 0.4241715 0.6910052
vt 0.4246498 0.6914316
vt 0.4262408 0.6915398
vt 0.4266047 0.6909575
vt 0.4266328 0.703194
vt 0.4261546 0.7027677
vt 0.4245636 0.7026595
vt 0.4241997 0.7032418
vt 0.2055492 0.05468741
vt 0.2055492 0.05343195
vt 0.2051307 0.05301346
vt 0.2051307 0.05510589
vt 0.3652837 0.3522984
vt 0.3347343 0.3522984
vt 0.3330604 0.3535538
vt 0.3665392 0.3535538
vt 0.2844726 0.3506593
vt 0.2681477 0.3332742
vt 0.2825922 0.3521129
vt 0.2702873 0.3316815
vt 0.2546111 0.3149304
vt 0.2571415 0.3143748
vt 0.2844726 0.3506593
vt 0.2851201 0.3483401
vt 0.2716073 0.3306796
vt 0.2702873 0.3316815
vt 0.2571415 0.3143748
vt 0.2587985 0.3134365
vt 0.1734427 0.1202113
vt 0.1596327 0.09928715
vt 0.1596327 0.1202114
vt 0.1734427 0.09928714
vt 0.1596327 0.07836293
vt 0.1734427 0.07836293
vt 0.1734427 0.003035743
vt 0.1696764 0.0072206
vt 0.1696764 0.01349786
vt 0.1696764 0.01977513
vt 0.1596327 0.003035743
vt 0.1671655 0.007220577
vt 0.1734427 0.02395996
vt 0.1596327 0.02395996
vt 0.1671655 0.01977513
vt 0.1696763 0.02814482
vt 0.1671655 0.02814482
vt 0.1696763 0.03442208
vt 0.1596327 0.04488418
vt 0.1696763 0.04069934
vt 0.1671654 0.04069934
vt 0.1734427 0.04488418
vt 0.4276202 0.6905193
vt 0.4280382 0.6910052
vt 0.4304714 0.6909575
vt 0.4309176 0.6905084
vt 0.4304995 0.6966082
vt 0.4276202 0.6971052
vt 0.4309176 0.6970942
vt 0.4280664 0.696656
vt 0.4304714 0.6975433
vt 0.4280382 0.6975911
vt 0.4304995 0.703194
vt 0.4276202 0.7036909
vt 0.4309176 0.70368
vt 0.4280664 0.7032418
vt 0.4270509 0.70368
vt 0.4266328 0.703194
vt 0.4241997 0.7032418
vt 0.4237535 0.7036909
vt 0.4241715 0.6975911
vt 0.4270509 0.6970942
vt 0.4237535 0.6971052
vt 0.4266047 0.6975433
vt 0.4241997 0.696656
vt 0.4266328 0.6966082
vt 0.4241715 0.6910052
vt 0.4270509 0.6905084
vt 0.4237535 0.6905193
vt 0.4266047 0.6909575

usemtl LOW-POLY-COLORS
usemap LOW-POLY-COLORS
f 2/2/2 1/1/1 3/3/3
f 5/5/5 4/4/4 6/6/6
f 8/8/8 7/7/7 9/9/9
f 11/11/11 10/10/10 12/12/12
f 14/14/14 13/13/13 15/15/15
f 15/15/15 13/13/13 16/16/16
f 18/18/18 17/17/17 19/19/19
f 20/20/20 17/17/17 18/18/18
f 21/21/21 20/20/20 18/18/18
f 22/22/22 20/20/20 21/21/21
f 23/23/23 22/22/22 21/21/21
f 23/23/23 24/24/24 22/22/22
f 25/25/25 24/24/24 23/23/23
f 26/26/26 23/23/23 21/21/21
f 27/27/27 23/23/23 26/26/26
f 28/28/28 27/27/27 26/26/26
f 29/29/29 27/27/27 28/28/28
f 31/31/31 30/30/30 32/32/32
f 32/32/32 30/30/30 33/33/33
f 35/35/35 34/34/34 36/36/36
f 36/36/36 34/34/34 37/37/37
f 34/34/34 38/38/38 37/37/37
f 37/37/37 38/38/38 39/39/39
f 38/38/38 40/40/40 39/39/39
f 39/39/39 40/40/40 41/41/41
f 43/43/43 42/42/42 44/44/44
f 44/44/44 42/42/42 45/45/45
f 47/47/47 46/46/46 48/48/48
f 48/48/48 46/46/46 49/49/49
f 51/51/51 50/50/50 52/52/52
f 52/52/52 50/50/50 53/53/53
f 55/55/55 54/54/54 56/56/56
f 56/56/56 54/54/54 57/57/57
f 54/54/54 58/58/58 57/57/57
f 59/59/59 58/58/58 54/54/54
f 57/57/57 58/58/58 60/60/60
f 54/54/54 61/61/61 59/59/59
f 60/60/60 62/62/62 57/57/57
f 63/63/63 62/62/62 60/60/60
f 62/62/62 64/64/64 57/57/57
f 54/54/54 65/65/65 61/61/61
f 61/61/61 65/65/65 66/66/66
f 54/54/54 67/67/67 65/65/65
f 68/68/68 67/67/67 54/54/54
f 69/69/69 68/68/68 54/54/54
f 71/71/71 70/70/70 72/72/72
f 72/72/72 70/70/70 73/73/73
f 75/75/75 74/74/74 76/76/76
f 76/76/76 74/74/74 77/77/77
f 74/74/74 78/78/78 77/77/77
f 77/77/77 78/78/78 79/79/79
f 78/78/78 80/80/80 79/79/79
f 79/79/79 80/80/80 81/81/81
f 83/83/83 82/82/82 84/84/84
f 84/84/84 82/82/82 85/85/85
f 87/87/87 86/86/86 88/88/88
f 88/88/88 86/86/86 89/89/89
f 91/91/91 90/90/90 92/92/92
f 92/92/92 90/90/90 93/93/93
f 95/95/95 94/94/94 96/96/96
f 96/96/96 94/94/94 97/97/97
f 99/99/99 98/98/98 100/100/100
f 100/100/100 98/98/98 101/101/101
f 102/102/102 101/101/101 98/98/98
f 103/103/103 101/101/101 102/102/102
f 104/104/104 103/103/103 102/102/102
f 105/105/105 103/103/103 104/104/104
f 107/107/107 106/106/106 108/108/108
f 106/106/106 109/109/109 108/108/108
f 106/106/106 110/110/110 109/109/109
f 112/112/112 111/111/111 113/113/113
f 113/113/113 111/111/111 114/114/114
f 111/111/111 115/115/115 114/114/114
f 114/114/114 115/115/115 116/116/116
f 118/118/118 117/117/117 119/119/119
f 119/119/119 117/117/117 120/120/120
f 122/122/122 121/121/121 123/123/123
f 123/123/123 121/121/121 124/124/124
f 126/126/126 125/125/125 127/127/127
f 127/127/127 125/125/125 128/128/128
f 125/125/125 129/129/129 128/128/128
f 128/128/128 129/129/129 130/130/130
f 132/132/132 131/131/131 133/133/133
f 133/133/133 131/131/131 134/134/134
f 131/131/131 135/135/135 134/134/134
f 134/134/134 135/135/135 136/136/136
f 138/138/138 137/137/137 139/139/139
f 139/139/139 137/137/137 140/140/140
f 140/140/140 141/141/141 139/139/139
f 142/142/142 141/141/141 140/140/140
f 144/144/144 143/143/143 145/145/145
f 145/145/145 143/143/143 146/146/146
f 148/148/148 147/147/147 149/149/149
f 149/149/149 147/147/147 150/150/150
f 152/152/152 151/151/151 153/153/153
f 153/153/153 151/151/151 154/154/154
f 156/156/156 155/155/155 157/157/157
f 157/157/157 155/155/155 158/158/158
f 160/160/160 159/159/159 161/161/161
f 161/161/161 159/159/159 162/162/162
f 164/164/164 163/163/163 165/165/165
f 165/165/165 163/163/163 166/166/166
f 168/168/168 167/167/167 169/169/169
f 169/169/169 167/167/167 170/170/170
f 172/172/172 171/171/171 173/173/173
f 173/173/173 171/171/171 174/174/174
f 176/176/176 175/175/175 177/177/177
f 177/177/177 175/175/175 178/178/178
f 180/180/180 179/179/179 181/181/181
f 181/181/181 179/179/179 182/182/182
f 184/184/184 183/183/183 185/185/185
f 185/185/185 183/183/183 186/186/186
f 188/188/188 187/187/187 189/189/189
f 189/189/189 187/187/187 190/190/190
f 192/192/192 191/191/191 193/193/193
f 193/193/193 191/191/191 194/194/194
f 196/196/196 195/195/195 197/197/197
f 197/197/197 195/195/195 198/198/198
f 200/200/200 199/199/199 201/201/201
f 201/201/201 199/199/199 202/202/202
f 204/204/204 203/203/203 205/205/205
f 205/205/205 203/203/203 206/206/206
f 208/208/208 207/207/207 209/209/209
f 209/209/209 207/207/207 210/210/210
f 212/212/212 211/211/211 213/213/213
f 213/213/213 211/211/211 214/214/214
f 216/216/216 215/215/215 217/217/217
f 217/217/217 215/215/215 218/218/218
f 220/220/220 219/219/219 221/221/221
f 221/221/221 219/219/219 222/222/222
f 224/224/224 223/223/223 225/225/225
f 225/225/225 223/223/223 226/226/226
f 228/228/228 227/227/227 229/229/229
f 229/229/229 227/227/227 230/230/230
f 232/232/232 231/231/231 233/233/233
f 234/234/234 231/231/231 232/232/232
f 235/235/235 234/234/234 232/232/232
f 236/236/236 234/234/234 235/235/235
f 238/238/238 237/237/237 239/239/239
f 239/239/239 237/237/237 240/240/240
f 241/241/241 239/239/239 240/240/240
f 242/242/242 239/239/239 241/241/241
f 244/244/244 243/243/243 245/245/245
f 246/246/246 243/243/243 244/244/244
f 247/247/247 246/246/246 244/244/244
f 248/248/248 246/246/246 247/247/247
f 250/250/250 249/249/249 251/251/251
f 252/252/252 251/251/251 249/249/249
f 250/250/250 253/253/253 249/249/249
f 254/254/254 253/253/253 250/250/250
f 255/255/255 252/252/252 249/249/249
f 253/253/253 254/254/254 256/256/256
f 252/252/252 255/255/255 257/257/257
f 257/257/257 256/256/256 254/254/254
f 257/257/257 255/255/255 256/256/256
f 258/258/258 256/256/256 255/255/255
f 259/259/259 256/256/256 258/258/258
f 258/258/258 255/255/255 260/260/260
f 256/256/256 259/259/259 261/261/261
f 262/262/262 260/260/260 255/255/255
f 263/263/263 261/261/261 259/259/259
f 264/264/264 262/262/262 255/255/255
f 263/263/263 264/264/264 261/261/261
f 262/262/262 264/264/264 263/263/263
f 266/266/266 265/265/265 267/267/267
f 267/267/267 265/265/265 268/268/268
f 267/267/267 268/268/268 269/269/269
f 266/266/266 270/270/270 265/265/265
f 269/269/269 268/268/268 271/271/271
f 272/272/272 270/270/270 266/266/266
f 269/269/269 271/271/271 272/272/272
f 272/272/272 271/271/271 270/270/270
f 273/273/273 270/270/270 271/271/271
f 274/274/274 270/270/270 273/273/273
f 273/273/273 271/271/271 275/275/275
f 274/274/274 276/276/276 270/270/270
f 275/275/275 271/271/271 277/277/277
f 278/278/278 276/276/276 274/274/274
f 275/275/275 277/277/277 278/278/278
f 278/278/278 277/277/277 276/276/276
f 280/280/280 279/279/279 281/281/281
f 281/281/281 279/279/279 282/282/282
f 281/281/281 282/282/282 283/283/283
f 280/280/280 284/284/284 279/279/279
f 283/283/283 282/282/282 285/285/285
f 286/286/286 284/284/284 280/280/280
f 283/283/283 285/285/285 286/286/286
f 286/286/286 285/285/285 284/284/284
f 287/287/287 284/284/284 285/285/285
f 288/288/288 284/284/284 287/287/287
f 287/287/287 285/285/285 289/289/289
f 288/288/288 290/290/290 284/284/284
f 289/289/289 285/285/285 291/291/291
f 292/292/292 290/290/290 288/288/288
f 289/289/289 291/291/291 292/292/292
f 292/292/292 291/291/291 290/290/290
