mtllib ./stone-flat_brown_14.mtl
g stone-flat_brown
v -0.5705671 0.0841663 0.6703051
v -0.2222216 -0.09490621 0.1197652
v -1.162265 0.08416642 -0.1588832
v 0.2658545 0.5938421 0.1917875
v 0.926712 0.5899956 -0.1731124
v 0.6605211 0.5919307 0.2864842
v 0.926712 0.5899956 -0.1731124
v 0.2658545 0.5938421 0.1917875
v 0.4427023 0.7873986 -0.862089
v -1.162265 0.08416642 -0.1588832
v -0.2222216 -0.09490621 0.1197652
v -0.8120628 -0.06573122 -1.130382
v -0.6811241 0.690142 -0.9537743
v -0.4320672 0.6807456 -0.4294614
v -0.9723547 0.5844468 -0.1529505
v -0.2222216 -0.09490621 0.1197652
v 0.5544471 -0.06573121 -1.116655
v -0.8120628 -0.06573122 -1.130382
v -0.5705671 0.0841663 0.6703051
v 0.005241618 0.08416636 0.6018655
v -0.2222216 -0.09490621 0.1197652
v -0.4320672 0.6807456 -0.4294614
v -0.6811241 0.690142 -0.9537743
v 0.4427023 0.7873986 -0.862089
v -0.6811241 0.690142 -0.9537743
v -0.9723547 0.5844468 -0.1529505
v -0.8120628 -0.06573122 -1.130382
v -0.8120628 -0.06573122 -1.130382
v -0.9723547 0.5844468 -0.1529505
v -1.162265 0.08416642 -0.1588832
v 0.357527 0.02706463 0.2617699
v 0.7915894 0.08408315 0.9999034
v 0.8462418 0.08408326 0.4735613
v 0.216886 0.09490602 1.130382
v 0.357527 0.02706463 0.2617699
v 0.01120185 0.08408326 0.66062
v 0.8462418 0.08408326 0.4735613
v 0.7700256 0.4279418 0.4492842
v 0.357527 0.02706463 0.2617699
v 0.01120185 0.08408326 0.66062
v 0.03894424 0.3567649 0.695955
v 0.216886 0.09490602 1.130382
v 0.357527 0.02706463 0.2617699
v 0.3134038 0.4231787 0.3105781
v 0.01120185 0.08408326 0.66062
v 0.216886 0.09490602 1.130382
v 0.3239032 0.3189434 1.081601
v 0.7915894 0.08408315 0.9999034
v 0.7700256 0.4279418 0.4492842
v 0.03894424 0.3567649 0.695955
v 0.3134038 0.4231787 0.3105781
v 0.7915894 0.08408315 0.9999034
v 0.7810944 0.3641745 0.9287286
v 0.8462418 0.08408326 0.4735613
v 0.7915894 0.08408315 0.9999034
v 0.357527 0.02706463 0.2617699
v 0.216886 0.09490602 1.130382
v 0.357527 0.02706463 0.2617699
v 0.7700256 0.4279418 0.4492842
v 0.3134038 0.4231787 0.3105781
v 0.216886 0.09490602 1.130382
v 0.03894424 0.3567649 0.695955
v 0.3239032 0.3189434 1.081601
v 0.8462418 0.08408326 0.4735613
v 0.7810944 0.3641745 0.9287286
v 0.7700256 0.4279418 0.4492842
v 0.01120185 0.08408326 0.66062
v 0.3134038 0.4231787 0.3105781
v 0.03894424 0.3567649 0.695955
v 0.7915894 0.08408315 0.9999034
v 0.3239032 0.3189434 1.081601
v 0.7810944 0.3641745 0.9287286
v 0.005241618 0.08416636 0.6018655
v 0.003135583 0.6132241 0.4606218
v 0.2658545 0.5938421 0.1917875
v 0.3447031 0.07947071 0.2342252
v 0.005241618 0.08416636 0.6018655
v -0.5705671 0.0841663 0.6703051
v -0.4757647 0.5882344 0.5167511
v 0.003135583 0.6132241 0.4606218
v 0.5544471 -0.06573121 -1.116655
v 0.4427023 0.7873986 -0.862089
v -0.6811241 0.690142 -0.9537743
v -0.8120628 -0.06573122 -1.130382
v 0.8402817 0.08416633 0.4148069
v 0.6605211 0.5919307 0.2864842
v 0.926712 0.5899956 -0.1731124
v 1.162265 0.08416642 -0.1880378
v 0.005241618 0.08416636 0.6018655
v 0.3447031 0.07947071 0.2342252
v 0.5544471 -0.06573121 -1.116655
v -0.2222216 -0.09490621 0.1197652
v -1.162265 0.08416642 -0.1588832
v -0.9723547 0.5844468 -0.1529505
v -0.4757647 0.5882344 0.5167511
v -0.5705671 0.0841663 0.6703051
v 0.4427023 0.7873986 -0.862089
v 0.2658545 0.5938421 0.1917875
v 0.003135583 0.6132241 0.4606218
v -0.4320672 0.6807456 -0.4294614
v 1.162265 0.08416642 -0.1880378
v 0.926712 0.5899956 -0.1731124
v 0.4427023 0.7873986 -0.862089
v 0.5544471 -0.06573121 -1.116655
v 0.3447031 0.07947071 0.2342252
v 0.2658545 0.5938421 0.1917875
v 0.6605211 0.5919307 0.2864842
v 0.8402817 0.08416633 0.4148069
v 0.5544471 -0.06573121 -1.116655
v 0.3447031 0.07947071 0.2342252
v 0.8402817 0.08416633 0.4148069
v 1.162265 0.08416642 -0.1880378
v -0.4757647 0.5882344 0.5167511
v -0.9723547 0.5844468 -0.1529505
v -0.4320672 0.6807456 -0.4294614
v 0.003135583 0.6132241 0.4606218
v 0.03894424 0.3567649 0.695955
v 0.7810944 0.3641745 0.9287286
v 0.3239032 0.3189434 1.081601
v 0.7700256 0.4279418 0.4492842

vn -0.231611 -0.9586661 0.1652744
vn -0.231611 -0.9586661 0.1652744
vn -0.231611 -0.9586661 0.1652744
vn 0.005139155 0.9999861 -0.001234141
vn 0.005139155 0.9999861 -0.001234141
vn 0.005139155 0.9999861 -0.001234141
vn 0.1150395 0.9734111 0.1980826
vn 0.1150395 0.9734111 0.1980826
vn 0.1150395 0.9734111 0.1980826
vn -0.2081297 -0.9751875 0.07544103
vn -0.2081297 -0.9751875 0.07544103
vn -0.2081297 -0.9751875 0.07544103
vn -0.134313 0.9875818 0.08149946
vn -0.134313 0.9875818 0.08149946
vn -0.134313 0.9875818 0.08149946
vn 0.0002354871 -0.9997252 -0.02344195
vn 0.0002354871 -0.9997252 -0.02344195
vn 0.0002354871 -0.9997252 -0.02344195
vn 0.03940594 -0.9426191 0.3315364
vn 0.03940594 -0.9426191 0.3315364
vn 0.03940594 -0.9426191 0.3315364
vn -0.0909992 0.9939785 0.06103963
vn -0.0909992 0.9939785 0.06103963
vn -0.0909992 0.9939785 0.06103963
vn -0.9236966 0.2313613 -0.3053793
vn -0.9236966 0.2313613 -0.3053793
vn -0.9236966 0.2313613 -0.3053793
vn -0.8690225 0.3342139 -0.3648297
vn -0.8690225 0.3342139 -0.3648297
vn -0.8690225 0.3342139 -0.3648297
vn 0.1109499 -0.9937593 0.01152023
vn 0.1109499 -0.9937593 0.01152023
vn 0.1109499 -0.9937593 0.01152023
vn -0.09124509 -0.9938432 0.06284846
vn -0.09124509 -0.9938432 0.06284846
vn -0.09124509 -0.9938432 0.06284846
vn 0.3952889 0.02278366 -0.9182743
vn 0.3952889 0.02278366 -0.9182743
vn 0.3952889 0.02278366 -0.9182743
vn -0.9156072 0.04132643 0.3999445
vn -0.9156072 0.04132643 0.3999445
vn -0.9156072 0.04132643 0.3999445
vn -0.75531 -0.003382434 -0.655359
vn -0.75531 -0.003382434 -0.655359
vn -0.75531 -0.003382434 -0.655359
vn 0.2220577 0.1049933 0.9693642
vn 0.2220577 0.1049933 0.9693642
vn 0.2220577 0.1049933 0.9693642
vn -0.05107981 0.9896408 0.1341714
vn -0.05107981 0.9896408 0.1341714
vn -0.05107981 0.9896408 0.1341714
vn 0.9926522 0.0633866 0.1030714
vn 0.9926522 0.0633866 0.1030714
vn 0.9926522 0.0633866 0.1030714
vn -0.001138393 -0.9969776 0.07768284
vn -0.001138393 -0.9969776 0.07768284
vn -0.001138393 -0.9969776 0.07768284
vn 0.2860108 0.1485026 -0.9466492
vn 0.2860108 0.1485026 -0.9466492
vn 0.2860108 0.1485026 -0.9466492
vn -0.694979 0.4534719 0.558003
vn -0.694979 0.4534719 0.558003
vn -0.694979 0.4534719 0.558003
vn 0.9761918 0.2168178 0.006300054
vn 0.9761918 0.2168178 0.006300054
vn 0.9761918 0.2168178 0.006300054
vn -0.8171207 0.1550802 -0.5552154
vn -0.8171207 0.1550802 -0.5552154
vn -0.8171207 0.1550802 -0.5552154
vn 0.2853797 0.2460746 0.926286
vn 0.2853797 0.2460746 0.926286
vn 0.2853797 0.2460746 0.926286
vn 0.7185731 0.1742694 0.6732629
vn 0.7185731 0.1742694 0.6732629
vn 0.7185731 0.1742694 0.6732629
vn 0.7185731 0.1742694 0.6732629
vn 0.1069632 0.2639328 0.9585919
vn 0.1069632 0.2639328 0.9585919
vn 0.1069632 0.2639328 0.9585919
vn 0.1069632 0.2639328 0.9585919
vn 0.03077996 0.258377 -0.9655537
vn 0.03077996 0.258377 -0.9655537
vn 0.03077996 0.258377 -0.9655537
vn 0.03077996 0.258377 -0.9655537
vn 0.8090022 0.3815116 0.4471739
vn 0.8090022 0.3815116 0.4471739
vn 0.8090022 0.3815116 0.4471739
vn 0.8090022 0.3815116 0.4471739
vn 0.2591829 -0.9514866 0.165823
vn 0.2591829 -0.9514866 0.165823
vn 0.2591829 -0.9514866 0.165823
vn 0.2591829 -0.9514866 0.165823
vn -0.7720044 0.3011228 0.5597627
vn -0.7720044 0.3011228 0.5597627
vn -0.7720044 0.3011228 0.5597627
vn -0.7720044 0.3011228 0.5597627
vn 0.005586629 0.9911839 0.1323757
vn 0.005586629 0.9911839 0.1323757
vn 0.005586629 0.9911839 0.1323757
vn 0.005586629 0.9911839 0.1323757
vn 0.7929875 0.3070115 -0.5262268
vn 0.7929875 0.3070115 -0.5262268
vn 0.7929875 0.3070115 -0.5262268
vn 0.7929875 0.3070115 -0.5262268
vn -0.2946006 0.08448659 0.9518784
vn -0.2946006 0.08448659 0.9518784
vn -0.2946006 0.08448659 0.9518784
vn -0.2946006 0.08448659 0.9518784
vn 0.05108146 -0.9948242 0.08783823
vn 0.05108146 -0.9948242 0.08783823
vn 0.05108146 -0.9948242 0.08783823
vn 0.05108146 -0.9948242 0.08783823
vn -0.08770312 0.9918035 0.0929184
vn -0.08770312 0.9918035 0.0929184
vn -0.08770312 0.9918035 0.0929184
vn -0.08770312 0.9918035 0.0929184
vn -0.0524708 0.9893458 0.1357996
vn -0.0524708 0.9893458 0.1357996
vn -0.0524708 0.9893458 0.1357996
vn -0.05154568 0.9897969 0.1328354

vt 0.1945615 0.7874737
vt 0.1931406 0.7958895
vt 0.2056295 0.794323
vt 0.2245365 0.7940913
vt 0.2284685 0.8014323
vt 0.2287115 0.7962594
vt 0.2284685 0.8014323
vt 0.2245365 0.7940913
vt 0.221658 0.8039333
vt 0.2056295 0.794323
vt 0.1931406 0.7958895
vt 0.2060269 0.8077306
vt 0.2135688 0.8027805
vt 0.2162916 0.7989041
vt 0.2114489 0.795706
vt 0.1931406 0.7958895
vt 0.1896187 0.8140362
vt 0.2060269 0.8077306
vt 0.1945615 0.7874737
vt 0.1880032 0.7909913
vt 0.1931406 0.7958895
vt 0.2162916 0.7989041
vt 0.2135688 0.8027805
vt 0.221658 0.8039333
vt 0.2135688 0.8027805
vt 0.2114489 0.795706
vt 0.2060269 0.8077306
vt 0.2060269 0.8077306
vt 0.2114489 0.795706
vt 0.2056295 0.794323
vt 0.1901177 0.8266335
vt 0.1845665 0.838572
vt 0.1917006 0.8346976
vt 0.1778982 0.8324644
vt 0.1901177 0.8266335
vt 0.182014 0.8257574
vt 0.1917006 0.8187702
vt 0.1878965 0.8206161
vt 0.1901177 0.8266335
vt 0.182014 0.8257574
vt 0.1836536 0.8226743
vt 0.1794803 0.8191457
vt 0.1901177 0.8266335
vt 0.1866783 0.8231147
vt 0.182014 0.8257574
vt 0.1794803 0.8191457
vt 0.1827546 0.8193485
vt 0.1855698 0.8146045
vt 0.1878965 0.8206161
vt 0.1836536 0.8226743
vt 0.1866783 0.8231147
vt 0.1855698 0.8146045
vt 0.1859415 0.8180782
vt 0.1917006 0.8187702
vt 0.1845665 0.838572
vt 0.1901177 0.8266335
vt 0.1778982 0.8324644
vt 0.1901177 0.8266335
vt 0.1878965 0.8206161
vt 0.1866783 0.8231147
vt 0.1794803 0.8191457
vt 0.1836536 0.8226743
vt 0.1827546 0.8193485
vt 0.1917006 0.8187702
vt 0.1859415 0.8180782
vt 0.1878965 0.8206161
vt 0.182014 0.8257574
vt 0.1866783 0.8231147
vt 0.1836536 0.8226743
vt 0.1855698 0.8146045
vt 0.1827546 0.8193485
vt 0.1859415 0.8180782
vt 0.2231444 0.7843962
vt 0.2215809 0.7913048
vt 0.2245365 0.7940913
vt 0.2298827 0.7887328
vt 0.2231444 0.7843962
vt 0.2142984 0.7843962
vt 0.2170826 0.7903437
vt 0.2215809 0.7913048
vt 0.2228538 0.8145926
vt 0.221658 0.8039333
vt 0.2135688 0.8027805
vt 0.2060269 0.8077306
vt 0.2355368 0.7951081
vt 0.2287115 0.7962594
vt 0.2284685 0.8014323
vt 0.2342547 0.8047785
vt 0.1880032 0.7909913
vt 0.1855843 0.7969486
vt 0.1896187 0.8140362
vt 0.1931406 0.7958895
vt 0.2056295 0.794323
vt 0.2114489 0.795706
vt 0.2170826 0.7903437
vt 0.2142984 0.7843962
vt 0.221658 0.8039333
vt 0.2245365 0.7940913
vt 0.2215809 0.7913048
vt 0.2162916 0.7989041
vt 0.2342547 0.8047785
vt 0.2284685 0.8014323
vt 0.221658 0.8039333
vt 0.2228538 0.8145926
vt 0.2298827 0.7887328
vt 0.2245365 0.7940913
vt 0.2287115 0.7962594
vt 0.2355368 0.7951081
vt 0.1896187 0.8140362
vt 0.1855843 0.7969486
vt 0.1788512 0.7971623
vt 0.1778982 0.8058385
vt 0.2170826 0.7903437
vt 0.2114489 0.795706
vt 0.2162916 0.7989041
vt 0.2215809 0.7913048
vt 0.1836536 0.8226743
vt 0.1859415 0.8180782
vt 0.1827546 0.8193485
vt 0.1878965 0.8206161

usemtl LOW-POLY-COLORS
usemap LOW-POLY-COLORS
f 2/2/2 1/1/1 3/3/3
f 5/5/5 4/4/4 6/6/6
f 8/8/8 7/7/7 9/9/9
f 11/11/11 10/10/10 12/12/12
f 14/14/14 13/13/13 15/15/15
f 17/17/17 16/16/16 18/18/18
f 20/20/20 19/19/19 21/21/21
f 23/23/23 22/22/22 24/24/24
f 26/26/26 25/25/25 27/27/27
f 29/29/29 28/28/28 30/30/30
f 32/32/32 31/31/31 33/33/33
f 35/35/35 34/34/34 36/36/36
f 38/38/38 37/37/37 39/39/39
f 41/41/41 40/40/40 42/42/42
f 44/44/44 43/43/43 45/45/45
f 47/47/47 46/46/46 48/48/48
f 50/50/50 49/49/49 51/51/51
f 53/53/53 52/52/52 54/54/54
f 56/56/56 55/55/55 57/57/57
f 59/59/59 58/58/58 60/60/60
f 62/62/62 61/61/61 63/63/63
f 65/65/65 64/64/64 66/66/66
f 68/68/68 67/67/67 69/69/69
f 71/71/71 70/70/70 72/72/72
f 74/74/74 73/73/73 75/75/75
f 75/75/75 73/73/73 76/76/76
f 78/78/78 77/77/77 79/79/79
f 79/79/79 77/77/77 80/80/80
f 82/82/82 81/81/81 83/83/83
f 83/83/83 81/81/81 84/84/84
f 86/86/86 85/85/85 87/87/87
f 87/87/87 85/85/85 88/88/88
f 90/90/90 89/89/89 91/91/91
f 91/91/91 89/89/89 92/92/92
f 94/94/94 93/93/93 95/95/95
f 95/95/95 93/93/93 96/96/96
f 98/98/98 97/97/97 99/99/99
f 99/99/99 97/97/97 100/100/100
f 102/102/102 101/101/101 103/103/103
f 103/103/103 101/101/101 104/104/104
f 106/106/106 105/105/105 107/107/107
f 107/107/107 105/105/105 108/108/108
f 110/110/110 109/109/109 111/111/111
f 111/111/111 109/109/109 112/112/112
f 114/114/114 113/113/113 115/115/115
f 115/115/115 113/113/113 116/116/116
f 118/118/118 117/117/117 119/119/119
f 117/117/117 118/118/118 120/120/120
