mtllib ./stone-diamond_orange_13.mtl
g stone-diamond_orange
v -0.2050306 -0.143347 -0.678501
v -0.2210049 -0.147276 -0.6758103
v -0.216616 -0.15597 -0.6711155
v 0.5580624 0.008889965 -0.5503147
v 0.727219 0.2832591 -0.2372189
v 0.5267317 0.4647511 -0.181909
v 0.1709691 0.04350416 -0.719061
v -0.1218593 0.3732163 -0.5487729
v 0.3359272 -0.499387 -0.179285
v -0.2178208 -0.3981588 -0.4304851
v -0.4819391 -0.4019748 -0.1875336
v 0.2697186 -0.5111349 0.4278948
v 0.5194926 -0.5383072 0.05099124
v -0.7087847 0.2011271 0.01973819
v -0.8526666 -0.01074864 -0.242927
v -0.7214255 0.1223683 -0.4794638
v -0.5739123 0.2955468 -0.4646822
v -0.6376744 0.2702397 -0.1012747
v 0.8554177 -0.2854606 -0.01969799
v 0.6730263 -0.181606 -0.3474812
v 0.3359272 -0.499387 -0.179285
v 0.5194926 -0.5383072 0.05099124
v 0.9459829 -0.0755547 0.1511018
v 0.8554177 -0.2854606 -0.01969799
v 0.5194926 -0.5383072 0.05099124
v 0.2697186 -0.5111349 0.4278948
v 0.2982968 -0.4415293 0.4973081
v -0.2178208 -0.3981588 -0.4304851
v -0.216616 -0.15597 -0.6711155
v -0.2210049 -0.147276 -0.6758103
v -0.4819391 -0.4019748 -0.1875336
v -0.7214255 0.1223683 -0.4794638
v -0.8526666 -0.01074864 -0.242927
v 0.1855154 0.009383979 0.6625241
v 0.2982968 -0.4415293 0.4973081
v 0.2697186 -0.5111349 0.4278948
v -0.4819391 -0.4019748 -0.1875336
v -0.2374724 0.2314934 0.4345837
v -0.7087847 0.2011271 0.01973819
v -0.8526666 -0.01074864 -0.242927
v 0.7291552 0.3517435 0.3867376
v 0.9614735 0.1260675 0.1859965
v 0.9459829 -0.0755547 0.1511018
v 0.2982968 -0.4415293 0.4973081
v 0.1855154 0.009383979 0.6625241
v -0.02902455 0.3522442 0.3383691
v -0.2374724 0.2314934 0.4345837
v -0.7087847 0.2011271 0.01973819
v -0.6376744 0.2702397 -0.1012747
v 0.6730263 -0.181606 -0.3474812
v 0.8554177 -0.2854606 -0.01969799
v 0.9459829 -0.0755547 0.1511018
v 0.5580624 0.008889965 -0.5503147
v 0.9614735 0.1260675 0.1859965
v 0.727219 0.2832591 -0.2372189
v 0.3359272 -0.499387 -0.179285
v 0.6730263 -0.181606 -0.3474812
v 0.5580624 0.008889965 -0.5503147
v 0.1709691 0.04350416 -0.719061
v -0.2178208 -0.3981588 -0.4304851
v -0.2050306 -0.143347 -0.678501
v -0.216616 -0.15597 -0.6711155
v 0.5953456 0.4570435 0.2828901
v 0.7291552 0.3517435 0.3867376
v 0.1855154 0.009383979 0.6625241
v -0.02902455 0.3522442 0.3383691
v -0.2374724 0.2314934 0.4345837
v 0.5267317 0.4647511 -0.181909
v 0.727219 0.2832591 -0.2372189
v 0.9614735 0.1260675 0.1859965
v 0.5953456 0.4570435 0.2828901
v 0.7291552 0.3517435 0.3867376
v -0.2050306 -0.143347 -0.678501
v 0.1709691 0.04350416 -0.719061
v -0.1218593 0.3732163 -0.5487729
v -0.5739123 0.2955468 -0.4646822
v -0.2210049 -0.147276 -0.6758103
v -0.7214255 0.1223683 -0.4794638
v -0.5739123 0.2955468 -0.4646822
v -0.1218593 0.3732163 -0.5487729
v 0.5267317 0.4647511 -0.181909
v -0.6376744 0.2702397 -0.1012747
v 0.5953456 0.4570435 0.2828901
v -0.02902455 0.3522442 0.3383691

vn -0.02767932 -0.4857577 -0.8736551
vn -0.02767932 -0.4857577 -0.8736551
vn -0.02767932 -0.4857577 -0.8736551
vn 0.3349026 0.6195781 -0.7099037
vn 0.3349026 0.6195781 -0.7099037
vn 0.3349026 0.6195781 -0.7099037
vn 0.3349026 0.6195781 -0.7099037
vn 0.3349026 0.6195781 -0.7099037
vn -0.12443 -0.9904359 -0.05961475
vn -0.12443 -0.9904359 -0.05961475
vn -0.12443 -0.9904359 -0.05961475
vn -0.12443 -0.9904359 -0.05961475
vn -0.12443 -0.9904359 -0.05961475
vn -0.7661344 0.6373791 -0.0823767
vn -0.7661344 0.6373791 -0.0823767
vn -0.7661344 0.6373791 -0.0823767
vn -0.7661344 0.6373791 -0.0823767
vn -0.7661344 0.6373791 -0.0823767
vn 0.4563589 -0.743126 -0.4893877
vn 0.4563589 -0.743126 -0.4893877
vn 0.4563589 -0.743126 -0.4893877
vn 0.4563589 -0.743126 -0.4893877
vn 0.6029316 -0.6572658 0.4521892
vn 0.6029316 -0.6572658 0.4521892
vn 0.6029316 -0.6572658 0.4521892
vn 0.6029316 -0.6572658 0.4521892
vn 0.6029316 -0.6572658 0.4521892
vn -0.5410187 -0.5854051 -0.6038209
vn -0.5410187 -0.5854051 -0.6038209
vn -0.5410187 -0.5854051 -0.6038209
vn -0.5410187 -0.5854051 -0.6038209
vn -0.5410187 -0.5854051 -0.6038209
vn -0.5410187 -0.5854051 -0.6038209
vn -0.5942182 -0.4305041 0.6793901
vn -0.5942182 -0.4305041 0.6793901
vn -0.5942182 -0.4305041 0.6793901
vn -0.5942182 -0.4305041 0.6793901
vn -0.5942182 -0.4305041 0.6793901
vn -0.5942182 -0.4305041 0.6793901
vn -0.5942182 -0.4305041 0.6793901
vn 0.5356488 -0.1764584 0.8257983
vn 0.5356488 -0.1764584 0.8257983
vn 0.5356488 -0.1764584 0.8257983
vn 0.5356488 -0.1764584 0.8257983
vn 0.5356488 -0.1764584 0.8257983
vn -0.3470934 0.8804932 0.3228899
vn -0.3470934 0.8804932 0.3228899
vn -0.3470934 0.8804932 0.3228899
vn -0.3470934 0.8804932 0.3228899
vn 0.8759488 0.01340477 -0.4822178
vn 0.8759488 0.01340477 -0.4822178
vn 0.8759488 0.01340477 -0.4822178
vn 0.8759488 0.01340477 -0.4822178
vn 0.8759488 0.01340477 -0.4822178
vn 0.8759488 0.01340477 -0.4822178
vn 0.2356015 -0.6530306 -0.719752
vn 0.2356015 -0.6530306 -0.719752
vn 0.2356015 -0.6530306 -0.719752
vn 0.2356015 -0.6530306 -0.719752
vn 0.2356015 -0.6530306 -0.719752
vn 0.2356015 -0.6530306 -0.719752
vn 0.2356015 -0.6530306 -0.719752
vn -0.04678531 0.6706414 0.7403049
vn -0.04678531 0.6706414 0.7403049
vn -0.04678531 0.6706414 0.7403049
vn -0.04678531 0.6706414 0.7403049
vn -0.04678531 0.6706414 0.7403049
vn 0.6558275 0.750181 -0.08437367
vn 0.6558275 0.750181 -0.08437367
vn 0.6558275 0.750181 -0.08437367
vn 0.6558275 0.750181 -0.08437367
vn 0.6558275 0.750181 -0.08437367
vn -0.2262628 0.2709617 -0.9356201
vn -0.2262628 0.2709617 -0.9356201
vn -0.2262628 0.2709617 -0.9356201
vn -0.2262628 0.2709617 -0.9356201
vn -0.2262628 0.2709617 -0.9356201
vn -0.2262628 0.2709617 -0.9356201
vn -0.1619187 0.9859827 0.0402527
vn -0.1619187 0.9859827 0.0402527
vn -0.1619187 0.9859827 0.0402527
vn -0.1619187 0.9859827 0.0402527
vn -0.1619187 0.9859827 0.0402527
vn -0.1619187 0.9859827 0.0402527

vt 0.2966459 0.8243048
vt 0.295817 0.8239626
vt 0.2959061 0.8242825
vt 0.3136803 0.8292915
vt 0.3175899 0.8236308
vt 0.3157119 0.8209617
vt 0.305099 0.8271716
vt 0.3045803 0.8190353
vt 0.2949256 0.8357054
vt 0.2925563 0.8273592
vt 0.2874892 0.8268157
vt 0.2879349 0.84069
vt 0.2944229 0.8398468
vt 0.3015437 0.8038785
vt 0.2919815 0.8076899
vt 0.295947 0.8125622
vt 0.2994515 0.8135506
vt 0.3018448 0.8073289
vt 0.3001692 0.8420411
vt 0.3017931 0.8366657
vt 0.2949256 0.8357054
vt 0.2944229 0.8398468
vt 0.3245877 0.8228977
vt 0.3263065 0.8257831
vt 0.3322459 0.8220036
vt 0.3322459 0.8145243
vt 0.3307372 0.8137618
vt 0.2886118 0.824246
vt 0.2959061 0.8242825
vt 0.295817 0.8239626
vt 0.2848642 0.8178769
vt 0.295947 0.8125622
vt 0.2919815 0.8076899
vt 0.279763 0.8413081
vt 0.2867635 0.8415508
vt 0.2879349 0.84069
vt 0.2874892 0.8268157
vt 0.276828 0.8343883
vt 0.2779636 0.8255343
vt 0.281628 0.8218317
vt 0.3211082 0.8183081
vt 0.3234644 0.8217041
vt 0.3245877 0.8228977
vt 0.3307372 0.8137618
vt 0.3240491 0.8099674
vt 0.3155435 0.8098055
vt 0.315232 0.8053309
vt 0.3015437 0.8038785
vt 0.3018448 0.8073289
vt 0.3198985 0.8298913
vt 0.3263065 0.8257831
vt 0.3245877 0.8228977
vt 0.3136803 0.8292915
vt 0.3234644 0.8217041
vt 0.3175899 0.8236308
vt 0.2949256 0.8357054
vt 0.3017931 0.8366657
vt 0.3038726 0.8329145
vt 0.3019109 0.8272065
vt 0.2925563 0.8273592
vt 0.2966459 0.8243048
vt 0.2959061 0.8242825
vt 0.3196456 0.8176162
vt 0.3211082 0.8183081
vt 0.3240491 0.8099674
vt 0.3155435 0.8098055
vt 0.315232 0.8053309
vt 0.3157119 0.8209617
vt 0.3175899 0.8236308
vt 0.3234644 0.8217041
vt 0.3196456 0.8176162
vt 0.3211082 0.8183081
vt 0.2966459 0.8243048
vt 0.305099 0.8271716
vt 0.3045803 0.8190353
vt 0.2994515 0.8135506
vt 0.295817 0.8239626
vt 0.295947 0.8125622
vt 0.2994515 0.8135506
vt 0.3045803 0.8190353
vt 0.3157119 0.8209617
vt 0.3018448 0.8073289
vt 0.3196456 0.8176162
vt 0.3155435 0.8098055

usemtl LOW-POLY-COLORS
usemap LOW-POLY-COLORS
f 2/2/2 1/1/1 3/3/3
f 5/5/5 4/4/4 6/6/6
f 7/7/7 6/6/6 4/4/4
f 8/8/8 6/6/6 7/7/7
f 10/10/10 9/9/9 11/11/11
f 12/12/12 11/11/11 9/9/9
f 13/13/13 12/12/12 9/9/9
f 15/15/15 14/14/14 16/16/16
f 17/17/17 16/16/16 14/14/14
f 18/18/18 17/17/17 14/14/14
f 20/20/20 19/19/19 21/21/21
f 21/21/21 19/19/19 22/22/22
f 24/24/24 23/23/23 25/25/25
f 26/26/26 25/25/25 23/23/23
f 27/27/27 26/26/26 23/23/23
f 29/29/29 28/28/28 30/30/30
f 31/31/31 30/30/30 28/28/28
f 32/32/32 30/30/30 31/31/31
f 33/33/33 32/32/32 31/31/31
f 35/35/35 34/34/34 36/36/36
f 37/37/37 36/36/36 34/34/34
f 38/38/38 37/37/37 34/34/34
f 39/39/39 37/37/37 38/38/38
f 40/40/40 37/37/37 39/39/39
f 42/42/42 41/41/41 43/43/43
f 44/44/44 43/43/43 41/41/41
f 45/45/45 44/44/44 41/41/41
f 47/47/47 46/46/46 48/48/48
f 48/48/48 46/46/46 49/49/49
f 51/51/51 50/50/50 52/52/52
f 53/53/53 52/52/52 50/50/50
f 54/54/54 52/52/52 53/53/53
f 55/55/55 54/54/54 53/53/53
f 57/57/57 56/56/56 58/58/58
f 59/59/59 58/58/58 56/56/56
f 60/60/60 59/59/59 56/56/56
f 61/61/61 59/59/59 60/60/60
f 62/62/62 61/61/61 60/60/60
f 64/64/64 63/63/63 65/65/65
f 66/66/66 65/65/65 63/63/63
f 67/67/67 65/65/65 66/66/66
f 69/69/69 68/68/68 70/70/70
f 71/71/71 70/70/70 68/68/68
f 72/72/72 70/70/70 71/71/71
f 74/74/74 73/73/73 75/75/75
f 76/76/76 75/75/75 73/73/73
f 77/77/77 76/76/76 73/73/73
f 78/78/78 76/76/76 77/77/77
f 80/80/80 79/79/79 81/81/81
f 82/82/82 81/81/81 79/79/79
f 83/83/83 81/81/81 82/82/82
f 84/84/84 83/83/83 82/82/82
