mtllib ./stone-oval_33.mtl
g stone-oval
v 0.2646791 -0.08113442 0.2394212
v 0.2722764 -0.08335824 0.2342881
v 0.2689143 -0.08827899 0.2328993
v -0.2287411 0.2630488 0.1552797
v 0.1914064 0.2112402 0.1921082
v 0.08051549 0.02462324 0.3485142
v -0.1584606 0.005031616 0.3523955
v -0.3190382 0.1603245 0.2307995
v 0.2921461 -0.2275175 -0.07843293
v -0.2393986 -0.2893019 -0.2191203
v -0.2796451 -0.3046816 0.03361424
v 0.2130888 -0.2253577 0.1086676
v -0.131073 -0.2826528 0.1091699
v 0.3603736 0.1138379 -0.2384114
v 0.4961024 -0.006083705 -0.1368633
v 0.4839856 0.06926039 0.01576313
v 0.4045339 0.1672793 0.04275221
v 0.3521313 0.1529556 -0.1593967
v -0.4360986 -0.1615706 0.1488263
v -0.2652585 -0.1027889 0.2748833
v -0.131073 -0.2826528 0.1091699
v -0.2796451 -0.3046816 0.03361424
v -0.4360986 -0.1615706 0.1488263
v -0.2796451 -0.3046816 0.03361424
v -0.2393986 -0.2893019 -0.2191203
v -0.270402 -0.2499053 -0.2481715
v -0.5228145 -0.0427639 0.08209148
v 0.4961024 -0.006083705 -0.1368633
v 0.2921461 -0.2275175 -0.07843293
v 0.2130888 -0.2253577 0.1086676
v 0.2689143 -0.08827899 0.2328993
v 0.2722764 -0.08335824 0.2342881
v 0.4839856 0.06926039 0.01576313
v 0.2921461 -0.2275175 -0.07843293
v 0.4961024 -0.006083705 -0.1368633
v 0.3603736 0.1138379 -0.2384114
v 0.02028724 0.1310252 -0.3415405
v -0.2393986 -0.2893019 -0.2191203
v -0.2510636 0.005311396 -0.3597302
v -0.270402 -0.2499053 -0.2481715
v -0.5228145 -0.0427639 0.08209148
v -0.270402 -0.2499053 -0.2481715
v -0.2510636 0.005311396 -0.3597302
v -0.5389791 0.07135411 0.06775091
v -0.4664006 0.1990867 -0.0901473
v -0.06451493 0.1993701 -0.2430833
v 0.02028724 0.1310252 -0.3415405
v 0.3603736 0.1138379 -0.2384114
v 0.3521313 0.1529556 -0.1593967
v -0.3190382 0.1603245 0.2307995
v -0.1584606 0.005031616 0.3523955
v -0.2652585 -0.1027889 0.2748833
v -0.4360986 -0.1615706 0.1488263
v -0.5389791 0.07135411 0.06775091
v -0.5228145 -0.0427639 0.08209148
v 0.2646791 -0.08113442 0.2394212
v 0.2689143 -0.08827899 0.2328993
v 0.2130888 -0.2253577 0.1086676
v 0.08051549 0.02462324 0.3485142
v -0.131073 -0.2826528 0.1091699
v -0.1584606 0.005031616 0.3523955
v -0.2652585 -0.1027889 0.2748833
v -0.2510636 0.005311396 -0.3597302
v 0.02028724 0.1310252 -0.3415405
v -0.06451493 0.1993701 -0.2430833
v -0.3731149 0.2586864 -0.06804383
v -0.4664006 0.1990867 -0.0901473
v -0.5389791 0.07135411 0.06775091
v -0.4664006 0.1990867 -0.0901473
v -0.3731149 0.2586864 -0.06804383
v -0.2287411 0.2630488 0.1552797
v -0.3190382 0.1603245 0.2307995
v 0.4045339 0.1672793 0.04275221
v 0.4839856 0.06926039 0.01576313
v 0.2722764 -0.08335824 0.2342881
v 0.1914064 0.2112402 0.1921082
v 0.2646791 -0.08113442 0.2394212
v 0.08051549 0.02462324 0.3485142
v -0.3731149 0.2586864 -0.06804383
v -0.06451493 0.1993701 -0.2430833
v 0.3521313 0.1529556 -0.1593967
v 0.4045339 0.1672793 0.04275221
v -0.2287411 0.2630488 0.1552797
v 0.1914064 0.2112402 0.1921082

vn 0.387269 -0.4857603 0.7836196
vn 0.387269 -0.4857603 0.7836196
vn 0.387269 -0.4857603 0.7836196
vn -0.01056993 0.619578 0.7848639
vn -0.01056993 0.619578 0.7848639
vn -0.01056993 0.619578 0.7848639
vn -0.01056993 0.619578 0.7848639
vn -0.01056993 0.619578 0.7848639
vn 0.1379475 -0.9904359 0.002684093
vn 0.1379475 -0.9904359 0.002684093
vn 0.1379475 -0.9904359 0.002684093
vn 0.1379475 -0.9904359 0.002684093
vn 0.1379475 -0.9904359 0.002684093
vn 0.7313799 0.6373792 -0.2425515
vn 0.7313799 0.6373792 -0.2425515
vn 0.7313799 0.6373792 -0.2425515
vn 0.7313799 0.6373792 -0.2425515
vn 0.7313799 0.6373792 -0.2425515
vn -0.2124962 -0.743126 0.6345147
vn -0.2124962 -0.743126 0.6345147
vn -0.2124962 -0.743126 0.6345147
vn -0.2124962 -0.743126 0.6345147
vn -0.7361201 -0.657266 -0.1616437
vn -0.7361201 -0.657266 -0.1616437
vn -0.7361201 -0.657266 -0.1616437
vn -0.7361201 -0.657266 -0.1616437
vn -0.7361201 -0.657266 -0.1616437
vn 0.7426179 -0.5854052 0.325299
vn 0.7426179 -0.5854052 0.325299
vn 0.7426179 -0.5854052 0.325299
vn 0.7426179 -0.5854052 0.325299
vn 0.7426179 -0.5854052 0.325299
vn 0.7426179 -0.5854052 0.325299
vn 0.2592126 -0.4305041 -0.8645664
vn 0.2592126 -0.4305041 -0.8645664
vn 0.2592126 -0.4305041 -0.8645664
vn 0.2592126 -0.4305041 -0.8645664
vn 0.2592126 -0.4305041 -0.8645664
vn 0.2592126 -0.4305041 -0.8645664
vn 0.2592126 -0.4305041 -0.8645664
vn -0.8297283 -0.176458 -0.5295408
vn -0.8297283 -0.176458 -0.5295408
vn -0.8297283 -0.176458 -0.5295408
vn -0.8297283 -0.176458 -0.5295408
vn -0.8297283 -0.176458 -0.5295408
vn 0.1820604 0.8804933 -0.4377047
vn 0.1820604 0.8804933 -0.4377047
vn 0.1820604 0.8804933 -0.4377047
vn 0.1820604 0.8804933 -0.4377047
vn -0.5973256 0.01340425 0.8018867
vn -0.5973256 0.01340425 0.8018867
vn -0.5973256 0.01340425 0.8018867
vn -0.5973256 0.01340425 0.8018867
vn -0.5973256 0.01340425 0.8018867
vn -0.5973256 0.01340425 0.8018867
vn 0.08388302 -0.653031 0.7526714
vn 0.08388302 -0.653031 0.7526714
vn 0.08388302 -0.653031 0.7526714
vn 0.08388302 -0.653031 0.7526714
vn 0.08388302 -0.653031 0.7526714
vn 0.08388302 -0.653031 0.7526714
vn 0.08388302 -0.653031 0.7526714
vn -0.2642378 0.6706414 -0.6931222
vn -0.2642378 0.6706414 -0.6931222
vn -0.2642378 0.6706414 -0.6931222
vn -0.2642378 0.6706414 -0.6931222
vn -0.2642378 0.6706414 -0.6931222
vn -0.561883 0.7501811 0.3485911
vn -0.561883 0.7501811 0.3485911
vn -0.561883 0.7501811 0.3485911
vn -0.561883 0.7501811 0.3485911
vn -0.561883 0.7501811 0.3485911
vn 0.5936794 0.2709615 0.7577102
vn 0.5936794 0.2709615 0.7577102
vn 0.5936794 0.2709615 0.7577102
vn 0.5936794 0.2709615 0.7577102
vn 0.5936794 0.2709615 0.7577102
vn 0.5936794 0.2709615 0.7577102
vn 0.1306755 0.9859828 -0.1037391
vn 0.1306755 0.9859828 -0.1037391
vn 0.1306755 0.9859828 -0.1037391
vn 0.1306755 0.9859828 -0.1037391
vn 0.1306755 0.9859828 -0.1037391
vn 0.1306755 0.9859828 -0.1037391

vt 0.6841761 0.7889382
vt 0.6844307 0.7889961
vt 0.6844115 0.7888176
vt 0.6753473 0.7923188
vt 0.6809448 0.7937967
vt 0.6800179 0.7897612
vt 0.6771253 0.7887715
vt 0.674784 0.79061
vt 0.667775 0.8203162
vt 0.666885 0.8070111
vt 0.6607833 0.8079844
vt 0.6628923 0.8199633
vt 0.6602068 0.8119951
vt 0.6867498 0.8057616
vt 0.6946027 0.7991933
vt 0.6887031 0.7958874
vt 0.6857027 0.7963538
vt 0.6857684 0.8022942
vt 0.6720791 0.7870407
vt 0.6752536 0.7868906
vt 0.67621 0.7808243
vt 0.6702346 0.7811556
vt 0.6720791 0.7870407
vt 0.6702346 0.7811556
vt 0.6608095 0.7829308
vt 0.6602068 0.7850128
vt 0.6716102 0.789046
vt 0.6946027 0.7991933
vt 0.6965013 0.7838405
vt 0.6867665 0.7831909
vt 0.6844115 0.7888176
vt 0.6844307 0.7889961
vt 0.6887031 0.7958874
vt 0.667775 0.8203162
vt 0.6735681 0.8249058
vt 0.6769628 0.821229
vt 0.6777581 0.8126913
vt 0.666885 0.8070111
vt 0.6747098 0.8061456
vt 0.6679809 0.8061456
vt 0.6716102 0.789046
vt 0.6602068 0.7850128
vt 0.6602068 0.7969076
vt 0.6721341 0.790193
vt 0.6713358 0.7921934
vt 0.6720195 0.8003711
vt 0.6716557 0.806136
vt 0.6867498 0.8057616
vt 0.6857684 0.8022942
vt 0.674784 0.79061
vt 0.6771253 0.7887715
vt 0.6752536 0.7868906
vt 0.6720791 0.7870407
vt 0.6721341 0.790193
vt 0.6716102 0.789046
vt 0.6841761 0.7889382
vt 0.6844115 0.7888176
vt 0.6867665 0.7831909
vt 0.6800179 0.7897612
vt 0.67621 0.7808243
vt 0.6771253 0.7887715
vt 0.6752536 0.7868906
vt 0.6602068 0.7969076
vt 0.6716557 0.806136
vt 0.6720195 0.8003711
vt 0.6724458 0.7929847
vt 0.6713358 0.7921934
vt 0.6721341 0.790193
vt 0.6713358 0.7921934
vt 0.6724458 0.7929847
vt 0.6753473 0.7923188
vt 0.674784 0.79061
vt 0.6857027 0.7963538
vt 0.6887031 0.7958874
vt 0.6844307 0.7889961
vt 0.6809448 0.7937967
vt 0.6841761 0.7889382
vt 0.6800179 0.7897612
vt 0.6724458 0.7929847
vt 0.6720195 0.8003711
vt 0.6857684 0.8022942
vt 0.6857027 0.7963538
vt 0.6753473 0.7923188
vt 0.6809448 0.7937967

usemtl LOW-POLY-COLORS
usemap LOW-POLY-COLORS
f 2/2/2 1/1/1 3/3/3
f 5/5/5 4/4/4 6/6/6
f 7/7/7 6/6/6 4/4/4
f 8/8/8 7/7/7 4/4/4
f 10/10/10 9/9/9 11/11/11
f 12/12/12 11/11/11 9/9/9
f 13/13/13 11/11/11 12/12/12
f 15/15/15 14/14/14 16/16/16
f 17/17/17 16/16/16 14/14/14
f 18/18/18 17/17/17 14/14/14
f 20/20/20 19/19/19 21/21/21
f 21/21/21 19/19/19 22/22/22
f 24/24/24 23/23/23 25/25/25
f 26/26/26 25/25/25 23/23/23
f 27/27/27 26/26/26 23/23/23
f 29/29/29 28/28/28 30/30/30
f 31/31/31 30/30/30 28/28/28
f 32/32/32 31/31/31 28/28/28
f 33/33/33 32/32/32 28/28/28
f 35/35/35 34/34/34 36/36/36
f 37/37/37 36/36/36 34/34/34
f 38/38/38 37/37/37 34/34/34
f 39/39/39 37/37/37 38/38/38
f 40/40/40 39/39/39 38/38/38
f 42/42/42 41/41/41 43/43/43
f 44/44/44 43/43/43 41/41/41
f 45/45/45 43/43/43 44/44/44
f 47/47/47 46/46/46 48/48/48
f 48/48/48 46/46/46 49/49/49
f 51/51/51 50/50/50 52/52/52
f 53/53/53 52/52/52 50/50/50
f 54/54/54 53/53/53 50/50/50
f 55/55/55 53/53/53 54/54/54
f 57/57/57 56/56/56 58/58/58
f 59/59/59 58/58/58 56/56/56
f 60/60/60 58/58/58 59/59/59
f 61/61/61 60/60/60 59/59/59
f 62/62/62 60/60/60 61/61/61
f 64/64/64 63/63/63 65/65/65
f 66/66/66 65/65/65 63/63/63
f 67/67/67 66/66/66 63/63/63
f 69/69/69 68/68/68 70/70/70
f 71/71/71 70/70/70 68/68/68
f 72/72/72 71/71/71 68/68/68
f 74/74/74 73/73/73 75/75/75
f 76/76/76 75/75/75 73/73/73
f 77/77/77 75/75/75 76/76/76
f 78/78/78 77/77/77 76/76/76
f 80/80/80 79/79/79 81/81/81
f 82/82/82 81/81/81 79/79/79
f 83/83/83 82/82/82 79/79/79
f 84/84/84 82/82/82 83/83/83
