mtllib ./stone-small_2.mtl
g stone-small
v 0.08860859 0.04327213 -0.2215378
v 0.2820422 0.05584857 -0.1381343
v 0.1827848 0.1292763 -0.2424484
v 0.1093428 0.03068148 0.3203232
v 0.1354866 0.006325247 0.2818415
v 0.07469109 0.01780276 0.3045443
v 0.180898 0.4769259 -0.0001515178
v 0.292824 0.3113131 -0.1610491
v 0.1578791 0.3927324 0.1818045
v -0.2072341 0.006452305 0.06984847
v 0.1354866 0.006325247 0.2818415
v 0.08860859 0.04327213 -0.2215378
v -0.3364819 0.3348212 0.01365534
v 0.1578791 0.3927324 0.1818045
v 0.1093428 0.03068148 0.3203232
v 0.07469109 0.01780276 0.3045443
v -0.1754062 0.01308184 0.2002977
v -0.2567626 0.07411771 0.1191433
v -0.3430664 0.3405668 -0.02457675
v -0.3364819 0.3348212 0.01365534
v -0.2567626 0.07411771 0.1191433
v -0.299735 0.02491372 -0.1044402
v 0.2924379 0.04629406 -0.01270468
v 0.1354866 0.006325247 0.2818415
v 0.1093428 0.03068148 0.3203232
v 0.1578791 0.3927324 0.1818045
v 0.292824 0.3113131 -0.1610491
v 0.08860859 0.04327213 -0.2215378
v 0.1827848 0.1292763 -0.2424484
v 0.1440706 0.3561033 -0.2331492
v -0.02622803 0.4628886 -0.2370058
v -0.1402986 0.0221854 -0.2633326
v -0.106388 0.3499623 -0.2476798
v -0.1441036 0.4685753 -0.1571921
v -0.07477827 0.5131779 -0.2033997
v 0.180898 0.4769259 -0.0001515178
v -0.3430664 0.3405668 -0.02457675
v -0.3364819 0.3348212 0.01365534
v 0.1578791 0.3927324 0.1818045
v -0.07477827 0.5131779 -0.2033997
v -0.02622803 0.4628886 -0.2370058
v 0.1440706 0.3561033 -0.2331492
v 0.292824 0.3113131 -0.1610491
v 0.180898 0.4769259 -0.0001515178
v -0.1754062 0.01308184 0.2002977
v -0.2072341 0.006452305 0.06984847
v -0.299735 0.02491372 -0.1044402
v -0.2567626 0.07411771 0.1191433
v -0.2072341 0.006452305 0.06984847
v -0.1754062 0.01308184 0.2002977
v 0.07469109 0.01780276 0.3045443
v 0.1354866 0.006325247 0.2818415
v -0.07477827 0.5131779 -0.2033997
v -0.1441036 0.4685753 -0.1571921
v -0.106388 0.3499623 -0.2476798
v -0.02622803 0.4628886 -0.2370058
v -0.1402986 0.0221854 -0.2633326
v -0.106388 0.3499623 -0.2476798
v -0.1441036 0.4685753 -0.1571921
v -0.299735 0.02491372 -0.1044402
v -0.3430664 0.3405668 -0.02457675
v 0.2820422 0.05584857 -0.1381343
v 0.2924379 0.04629406 -0.01270468
v 0.292824 0.3113131 -0.1610491
v 0.1827848 0.1292763 -0.2424484
v 0.1440706 0.3561033 -0.2331492
v 0.08860859 0.04327213 -0.2215378
v 0.1354866 0.006325247 0.2818415
v 0.2924379 0.04629406 -0.01270468
v 0.2820422 0.05584857 -0.1381343
v -0.299735 0.02491372 -0.1044402
v -0.2072341 0.006452305 0.06984847
v 0.08860859 0.04327213 -0.2215378
v -0.1402986 0.0221854 -0.2633326

vn 0.356266 -0.5701113 -0.7403025
vn 0.356266 -0.5701113 -0.7403025
vn 0.356266 -0.5701113 -0.7403025
vn 0.05272387 -0.8272235 0.5593939
vn 0.05272387 -0.8272235 0.5593939
vn 0.05272387 -0.8272235 0.5593939
vn 0.8989998 0.3429213 0.2724051
vn 0.8989998 0.3429213 0.2724051
vn 0.8989998 0.3429213 0.2724051
vn 0.04758448 -0.9958543 -0.07752479
vn 0.04758448 -0.9958543 -0.07752479
vn 0.04758448 -0.9958543 -0.07752479
vn -0.3775327 0.3341852 0.863591
vn -0.3775327 0.3341852 0.863591
vn -0.3775327 0.3341852 0.863591
vn -0.3775327 0.3341852 0.863591
vn -0.3775327 0.3341852 0.863591
vn -0.3775327 0.3341852 0.863591
vn -0.9572967 -0.1948861 0.2135474
vn -0.9572967 -0.1948861 0.2135474
vn -0.9572967 -0.1948861 0.2135474
vn -0.9572967 -0.1948861 0.2135474
vn 0.9013323 0.1204511 0.4160427
vn 0.9013323 0.1204511 0.4160427
vn 0.9013323 0.1204511 0.4160427
vn 0.9013323 0.1204511 0.4160427
vn 0.9013323 0.1204511 0.4160427
vn 0.06828813 0.000129277 -0.9976656
vn 0.06828813 0.000129277 -0.9976656
vn 0.06828813 0.000129277 -0.9976656
vn 0.06828813 0.000129277 -0.9976656
vn 0.06828813 0.000129277 -0.9976656
vn 0.06828813 0.000129277 -0.9976656
vn -0.2418066 0.8820907 0.4042839
vn -0.2418066 0.8820907 0.4042839
vn -0.2418066 0.8820907 0.4042839
vn -0.2418066 0.8820907 0.4042839
vn -0.2418066 0.8820907 0.4042839
vn -0.2418066 0.8820907 0.4042839
vn 0.4680843 0.7531816 -0.4621845
vn 0.4680843 0.7531816 -0.4621845
vn 0.4680843 0.7531816 -0.4621845
vn 0.4680843 0.7531816 -0.4621845
vn 0.4680843 0.7531816 -0.4621845
vn -0.6839051 -0.6845029 0.2524469
vn -0.6839051 -0.6845029 0.2524469
vn -0.6839051 -0.6845029 0.2524469
vn -0.6839051 -0.6845029 0.2524469
vn -0.04989354 -0.9929032 0.1079531
vn -0.04989354 -0.9929032 0.1079531
vn -0.04989354 -0.9929032 0.1079531
vn -0.04989354 -0.9929032 0.1079531
vn -0.5214344 0.31602 -0.7926143
vn -0.5214344 0.31602 -0.7926143
vn -0.5214344 0.31602 -0.7926143
vn -0.5214344 0.31602 -0.7926143
vn -0.6879947 0.137669 -0.7125381
vn -0.6879947 0.137669 -0.7125381
vn -0.6879947 0.137669 -0.7125381
vn -0.6879947 0.137669 -0.7125381
vn -0.6879947 0.137669 -0.7125381
vn 0.7701775 -0.008534471 -0.6377724
vn 0.7701775 -0.008534471 -0.6377724
vn 0.7701775 -0.008534471 -0.6377724
vn 0.7701775 -0.008534471 -0.6377724
vn 0.7701775 -0.008534471 -0.6377724
vn 0.09908409 -0.9916648 -0.08236001
vn 0.09908409 -0.9916648 -0.08236001
vn 0.09908409 -0.9916648 -0.08236001
vn 0.09908409 -0.9916648 -0.08236001
vn 0.03511532 -0.9985784 -0.04009914
vn 0.03511532 -0.9985784 -0.04009914
vn 0.03511532 -0.9985784 -0.04009914
vn 0.03511532 -0.9985784 -0.04009914

vt 0.6670243 0.7774526
vt 0.6487189 0.8011247
vt 0.667587 0.7893427
vt 0.6839205 0.8105703
vt 0.6828544 0.8140513
vt 0.6848342 0.8103837
vt 0.6796569 0.8009408
vt 0.6743295 0.7998016
vt 0.6806709 0.8043647
vt 0.6968285 0.8051624
vt 0.6828544 0.8140513
vt 0.7242898 0.8252999
vt 0.687242 0.7989312
vt 0.6806709 0.8043647
vt 0.6839205 0.8105703
vt 0.6848342 0.8103837
vt 0.6909521 0.8061387
vt 0.6923524 0.802595
vt 0.6872315 0.7983157
vt 0.687242 0.7989312
vt 0.6923524 0.802595
vt 0.7049655 0.7898235
vt 0.6487189 0.8231787
vt 0.6828544 0.8140513
vt 0.6839205 0.8105703
vt 0.6806709 0.8043647
vt 0.6743295 0.7998016
vt 0.6670243 0.7774526
vt 0.667587 0.7893427
vt 0.6774118 0.7962546
vt 0.6810098 0.7969559
vt 0.6900151 0.7772022
vt 0.6825585 0.7945129
vt 0.6829377 0.7978523
vt 0.6816646 0.7977386
vt 0.6796569 0.8009408
vt 0.6872315 0.7983157
vt 0.687242 0.7989312
vt 0.6806709 0.8043647
vt 0.6816646 0.7977386
vt 0.6810098 0.7969559
vt 0.6774118 0.7962546
vt 0.6743295 0.7998016
vt 0.6796569 0.8009408
vt 0.6909521 0.8061387
vt 0.6968285 0.8051624
vt 0.7049655 0.7898235
vt 0.6923524 0.802595
vt 0.6968285 0.8051624
vt 0.6909521 0.8061387
vt 0.6848342 0.8103837
vt 0.6828544 0.8140513
vt 0.6816646 0.7977386
vt 0.6829377 0.7978523
vt 0.6825585 0.7945129
vt 0.6810098 0.7969559
vt 0.6900151 0.7772022
vt 0.6825585 0.7945129
vt 0.6829377 0.7978523
vt 0.7049655 0.7898235
vt 0.6872315 0.7983157
vt 0.6487189 0.8011247
vt 0.6487189 0.8231787
vt 0.6743295 0.7998016
vt 0.667587 0.7893427
vt 0.6774118 0.7962546
vt 0.7242898 0.8252999
vt 0.6828544 0.8140513
vt 0.7017183 0.8353762
vt 0.7120063 0.8382841
vt 0.7049655 0.7898235
vt 0.6968285 0.8051624
vt 0.7242898 0.8252999
vt 0.7256844 0.8006798

usemtl LOW-POLY-COLORS
usemap LOW-POLY-COLORS
f 2/2/2 1/1/1 3/3/3
f 5/5/5 4/4/4 6/6/6
f 8/8/8 7/7/7 9/9/9
f 11/11/11 10/10/10 12/12/12
f 14/14/14 13/13/13 15/15/15
f 16/16/16 15/15/15 13/13/13
f 17/17/17 16/16/16 13/13/13
f 18/18/18 17/17/17 13/13/13
f 20/20/20 19/19/19 21/21/21
f 21/21/21 19/19/19 22/22/22
f 24/24/24 23/23/23 25/25/25
f 26/26/26 25/25/25 23/23/23
f 27/27/27 26/26/26 23/23/23
f 29/29/29 28/28/28 30/30/30
f 31/31/31 30/30/30 28/28/28
f 32/32/32 31/31/31 28/28/28
f 33/33/33 31/31/31 32/32/32
f 35/35/35 34/34/34 36/36/36
f 37/37/37 36/36/36 34/34/34
f 38/38/38 36/36/36 37/37/37
f 39/39/39 36/36/36 38/38/38
f 41/41/41 40/40/40 42/42/42
f 43/43/43 42/42/42 40/40/40
f 44/44/44 43/43/43 40/40/40
f 46/46/46 45/45/45 47/47/47
f 47/47/47 45/45/45 48/48/48
f 50/50/50 49/49/49 51/51/51
f 51/51/51 49/49/49 52/52/52
f 54/54/54 53/53/53 55/55/55
f 55/55/55 53/53/53 56/56/56
f 58/58/58 57/57/57 59/59/59
f 60/60/60 59/59/59 57/57/57
f 61/61/61 59/59/59 60/60/60
f 63/63/63 62/62/62 64/64/64
f 65/65/65 64/64/64 62/62/62
f 66/66/66 64/64/64 65/65/65
f 68/68/68 67/67/67 69/69/69
f 69/69/69 67/67/67 70/70/70
f 72/72/72 71/71/71 73/73/73
f 73/73/73 71/71/71 74/74/74
