mtllib ./stone-diamond_16.mtl
g stone-diamond
v -0.2050306 -0.143347 -0.678501
v -0.2210049 -0.147276 -0.6758103
v -0.216616 -0.15597 -0.6711155
v 0.5580624 0.008889965 -0.5503147
v 0.727219 0.2832591 -0.2372189
v 0.5267317 0.4647511 -0.181909
v 0.1709691 0.04350416 -0.719061
v -0.1218593 0.3732163 -0.5487729
v 0.3359272 -0.499387 -0.179285
v -0.2178208 -0.3981588 -0.4304851
v -0.4819391 -0.4019748 -0.1875336
v 0.2697186 -0.5111349 0.4278948
v 0.5194926 -0.5383072 0.05099124
v -0.7087847 0.2011271 0.01973819
v -0.8526666 -0.01074864 -0.242927
v -0.7214255 0.1223683 -0.4794638
v -0.5739123 0.2955468 -0.4646822
v -0.6376744 0.2702397 -0.1012747
v 0.8554177 -0.2854606 -0.01969799
v 0.6730263 -0.181606 -0.3474812
v 0.3359272 -0.499387 -0.179285
v 0.5194926 -0.5383072 0.05099124
v 0.9459829 -0.0755547 0.1511018
v 0.8554177 -0.2854606 -0.01969799
v 0.5194926 -0.5383072 0.05099124
v 0.2697186 -0.5111349 0.4278948
v 0.2982968 -0.4415293 0.4973081
v -0.2178208 -0.3981588 -0.4304851
v -0.216616 -0.15597 -0.6711155
v -0.2210049 -0.147276 -0.6758103
v -0.4819391 -0.4019748 -0.1875336
v -0.7214255 0.1223683 -0.4794638
v -0.8526666 -0.01074864 -0.242927
v 0.1855154 0.009383979 0.6625241
v 0.2982968 -0.4415293 0.4973081
v 0.2697186 -0.5111349 0.4278948
v -0.4819391 -0.4019748 -0.1875336
v -0.2374724 0.2314934 0.4345837
v -0.7087847 0.2011271 0.01973819
v -0.8526666 -0.01074864 -0.242927
v 0.7291552 0.3517435 0.3867376
v 0.9614735 0.1260675 0.1859965
v 0.9459829 -0.0755547 0.1511018
v 0.2982968 -0.4415293 0.4973081
v 0.1855154 0.009383979 0.6625241
v -0.02902455 0.3522442 0.3383691
v -0.2374724 0.2314934 0.4345837
v -0.7087847 0.2011271 0.01973819
v -0.6376744 0.2702397 -0.1012747
v 0.6730263 -0.181606 -0.3474812
v 0.8554177 -0.2854606 -0.01969799
v 0.9459829 -0.0755547 0.1511018
v 0.5580624 0.008889965 -0.5503147
v 0.9614735 0.1260675 0.1859965
v 0.727219 0.2832591 -0.2372189
v 0.3359272 -0.499387 -0.179285
v 0.6730263 -0.181606 -0.3474812
v 0.5580624 0.008889965 -0.5503147
v 0.1709691 0.04350416 -0.719061
v -0.2178208 -0.3981588 -0.4304851
v -0.2050306 -0.143347 -0.678501
v -0.216616 -0.15597 -0.6711155
v 0.5953456 0.4570435 0.2828901
v 0.7291552 0.3517435 0.3867376
v 0.1855154 0.009383979 0.6625241
v -0.02902455 0.3522442 0.3383691
v -0.2374724 0.2314934 0.4345837
v 0.5267317 0.4647511 -0.181909
v 0.727219 0.2832591 -0.2372189
v 0.9614735 0.1260675 0.1859965
v 0.5953456 0.4570435 0.2828901
v 0.7291552 0.3517435 0.3867376
v -0.2050306 -0.143347 -0.678501
v 0.1709691 0.04350416 -0.719061
v -0.1218593 0.3732163 -0.5487729
v -0.5739123 0.2955468 -0.4646822
v -0.2210049 -0.147276 -0.6758103
v -0.7214255 0.1223683 -0.4794638
v -0.5739123 0.2955468 -0.4646822
v -0.1218593 0.3732163 -0.5487729
v 0.5267317 0.4647511 -0.181909
v -0.6376744 0.2702397 -0.1012747
v 0.5953456 0.4570435 0.2828901
v -0.02902455 0.3522442 0.3383691

vn -0.02767932 -0.4857577 -0.8736551
vn -0.02767932 -0.4857577 -0.8736551
vn -0.02767932 -0.4857577 -0.8736551
vn 0.3349026 0.6195781 -0.7099037
vn 0.3349026 0.6195781 -0.7099037
vn 0.3349026 0.6195781 -0.7099037
vn 0.3349026 0.6195781 -0.7099037
vn 0.3349026 0.6195781 -0.7099037
vn -0.12443 -0.9904359 -0.05961475
vn -0.12443 -0.9904359 -0.05961475
vn -0.12443 -0.9904359 -0.05961475
vn -0.12443 -0.9904359 -0.05961475
vn -0.12443 -0.9904359 -0.05961475
vn -0.7661344 0.6373791 -0.0823767
vn -0.7661344 0.6373791 -0.0823767
vn -0.7661344 0.6373791 -0.0823767
vn -0.7661344 0.6373791 -0.0823767
vn -0.7661344 0.6373791 -0.0823767
vn 0.4563589 -0.743126 -0.4893877
vn 0.4563589 -0.743126 -0.4893877
vn 0.4563589 -0.743126 -0.4893877
vn 0.4563589 -0.743126 -0.4893877
vn 0.6029316 -0.6572658 0.4521892
vn 0.6029316 -0.6572658 0.4521892
vn 0.6029316 -0.6572658 0.4521892
vn 0.6029316 -0.6572658 0.4521892
vn 0.6029316 -0.6572658 0.4521892
vn -0.5410187 -0.5854051 -0.6038209
vn -0.5410187 -0.5854051 -0.6038209
vn -0.5410187 -0.5854051 -0.6038209
vn -0.5410187 -0.5854051 -0.6038209
vn -0.5410187 -0.5854051 -0.6038209
vn -0.5410187 -0.5854051 -0.6038209
vn -0.5942182 -0.4305041 0.6793901
vn -0.5942182 -0.4305041 0.6793901
vn -0.5942182 -0.4305041 0.6793901
vn -0.5942182 -0.4305041 0.6793901
vn -0.5942182 -0.4305041 0.6793901
vn -0.5942182 -0.4305041 0.6793901
vn -0.5942182 -0.4305041 0.6793901
vn 0.5356488 -0.1764584 0.8257983
vn 0.5356488 -0.1764584 0.8257983
vn 0.5356488 -0.1764584 0.8257983
vn 0.5356488 -0.1764584 0.8257983
vn 0.5356488 -0.1764584 0.8257983
vn -0.3470934 0.8804932 0.3228899
vn -0.3470934 0.8804932 0.3228899
vn -0.3470934 0.8804932 0.3228899
vn -0.3470934 0.8804932 0.3228899
vn 0.8759488 0.01340477 -0.4822178
vn 0.8759488 0.01340477 -0.4822178
vn 0.8759488 0.01340477 -0.4822178
vn 0.8759488 0.01340477 -0.4822178
vn 0.8759488 0.01340477 -0.4822178
vn 0.8759488 0.01340477 -0.4822178
vn 0.2356015 -0.6530306 -0.719752
vn 0.2356015 -0.6530306 -0.719752
vn 0.2356015 -0.6530306 -0.719752
vn 0.2356015 -0.6530306 -0.719752
vn 0.2356015 -0.6530306 -0.719752
vn 0.2356015 -0.6530306 -0.719752
vn 0.2356015 -0.6530306 -0.719752
vn -0.04678531 0.6706414 0.7403049
vn -0.04678531 0.6706414 0.7403049
vn -0.04678531 0.6706414 0.7403049
vn -0.04678531 0.6706414 0.7403049
vn -0.04678531 0.6706414 0.7403049
vn 0.6558275 0.750181 -0.08437367
vn 0.6558275 0.750181 -0.08437367
vn 0.6558275 0.750181 -0.08437367
vn 0.6558275 0.750181 -0.08437367
vn 0.6558275 0.750181 -0.08437367
vn -0.2262628 0.2709617 -0.9356201
vn -0.2262628 0.2709617 -0.9356201
vn -0.2262628 0.2709617 -0.9356201
vn -0.2262628 0.2709617 -0.9356201
vn -0.2262628 0.2709617 -0.9356201
vn -0.2262628 0.2709617 -0.9356201
vn -0.1619187 0.9859827 0.0402527
vn -0.1619187 0.9859827 0.0402527
vn -0.1619187 0.9859827 0.0402527
vn -0.1619187 0.9859827 0.0402527
vn -0.1619187 0.9859827 0.0402527
vn -0.1619187 0.9859827 0.0402527

vt 0.6825568 0.7917092
vt 0.6817279 0.7913671
vt 0.6818169 0.791687
vt 0.6995912 0.7966959
vt 0.7035008 0.7910353
vt 0.7016228 0.7883661
vt 0.6910098 0.794576
vt 0.6904912 0.7864398
vt 0.6808366 0.8031099
vt 0.6784672 0.7947637
vt 0.6734001 0.7942202
vt 0.6738458 0.8080945
vt 0.6803337 0.8072513
vt 0.6874546 0.771283
vt 0.6778924 0.7750944
vt 0.6818579 0.7799667
vt 0.6853623 0.7809551
vt 0.6877557 0.7747334
vt 0.68608 0.8094456
vt 0.687704 0.8040702
vt 0.6808366 0.8031099
vt 0.6803337 0.8072513
vt 0.7104986 0.7903021
vt 0.7122174 0.7931876
vt 0.7181568 0.789408
vt 0.7181568 0.7819287
vt 0.7166482 0.7811663
vt 0.6745226 0.7916505
vt 0.6818169 0.791687
vt 0.6817279 0.7913671
vt 0.6707751 0.7852814
vt 0.6818579 0.7799667
vt 0.6778924 0.7750944
vt 0.665674 0.8087126
vt 0.6726744 0.8089553
vt 0.6738458 0.8080945
vt 0.6734001 0.7942202
vt 0.6627389 0.8017927
vt 0.6638745 0.7929388
vt 0.6675389 0.7892362
vt 0.7070191 0.7857126
vt 0.7093753 0.7891086
vt 0.7104986 0.7903021
vt 0.7166482 0.7811663
vt 0.70996 0.7773719
vt 0.7014544 0.7772099
vt 0.701143 0.7727353
vt 0.6874546 0.771283
vt 0.6877557 0.7747334
vt 0.7058094 0.7972957
vt 0.7122174 0.7931876
vt 0.7104986 0.7903021
vt 0.6995912 0.7966959
vt 0.7093753 0.7891086
vt 0.7035008 0.7910353
vt 0.6808366 0.8031099
vt 0.687704 0.8040702
vt 0.6897835 0.800319
vt 0.6878217 0.794611
vt 0.6784672 0.7947637
vt 0.6825568 0.7917092
vt 0.6818169 0.791687
vt 0.7055566 0.7850207
vt 0.7070191 0.7857126
vt 0.70996 0.7773719
vt 0.7014544 0.7772099
vt 0.701143 0.7727353
vt 0.7016228 0.7883661
vt 0.7035008 0.7910353
vt 0.7093753 0.7891086
vt 0.7055566 0.7850207
vt 0.7070191 0.7857126
vt 0.6825568 0.7917092
vt 0.6910098 0.794576
vt 0.6904912 0.7864398
vt 0.6853623 0.7809551
vt 0.6817279 0.7913671
vt 0.6818579 0.7799667
vt 0.6853623 0.7809551
vt 0.6904912 0.7864398
vt 0.7016228 0.7883661
vt 0.6877557 0.7747334
vt 0.7055566 0.7850207
vt 0.7014544 0.7772099

usemtl LOW-POLY-COLORS
usemap LOW-POLY-COLORS
f 2/2/2 1/1/1 3/3/3
f 5/5/5 4/4/4 6/6/6
f 7/7/7 6/6/6 4/4/4
f 8/8/8 6/6/6 7/7/7
f 10/10/10 9/9/9 11/11/11
f 12/12/12 11/11/11 9/9/9
f 13/13/13 12/12/12 9/9/9
f 15/15/15 14/14/14 16/16/16
f 17/17/17 16/16/16 14/14/14
f 18/18/18 17/17/17 14/14/14
f 20/20/20 19/19/19 21/21/21
f 21/21/21 19/19/19 22/22/22
f 24/24/24 23/23/23 25/25/25
f 26/26/26 25/25/25 23/23/23
f 27/27/27 26/26/26 23/23/23
f 29/29/29 28/28/28 30/30/30
f 31/31/31 30/30/30 28/28/28
f 32/32/32 30/30/30 31/31/31
f 33/33/33 32/32/32 31/31/31
f 35/35/35 34/34/34 36/36/36
f 37/37/37 36/36/36 34/34/34
f 38/38/38 37/37/37 34/34/34
f 39/39/39 37/37/37 38/38/38
f 40/40/40 37/37/37 39/39/39
f 42/42/42 41/41/41 43/43/43
f 44/44/44 43/43/43 41/41/41
f 45/45/45 44/44/44 41/41/41
f 47/47/47 46/46/46 48/48/48
f 48/48/48 46/46/46 49/49/49
f 51/51/51 50/50/50 52/52/52
f 53/53/53 52/52/52 50/50/50
f 54/54/54 52/52/52 53/53/53
f 55/55/55 54/54/54 53/53/53
f 57/57/57 56/56/56 58/58/58
f 59/59/59 58/58/58 56/56/56
f 60/60/60 59/59/59 56/56/56
f 61/61/61 59/59/59 60/60/60
f 62/62/62 61/61/61 60/60/60
f 64/64/64 63/63/63 65/65/65
f 66/66/66 65/65/65 63/63/63
f 67/67/67 65/65/65 66/66/66
f 69/69/69 68/68/68 70/70/70
f 71/71/71 70/70/70 68/68/68
f 72/72/72 70/70/70 71/71/71
f 74/74/74 73/73/73 75/75/75
f 76/76/76 75/75/75 73/73/73
f 77/77/77 76/76/76 73/73/73
f 78/78/78 76/76/76 77/77/77
f 80/80/80 79/79/79 81/81/81
f 82/82/82 81/81/81 79/79/79
f 83/83/83 81/81/81 82/82/82
f 84/84/84 83/83/83 82/82/82
