mtllib ./stone-brick_10.mtl
g stone-brick
v 0.3355555 0.03386342 0.7230776
v 0.301986 0.0002939687 0.7230777
v 0.301986 0.03386343 0.7566469
v 0.2234572 0.6716822 0.7566469
v 0.301986 0.5493388 0.7566469
v 0.301986 0.03386343 0.7566469
v -0.3355533 0.03386343 0.756647
v -0.3355533 0.6716822 0.7566469
v 0.3355553 0.03386325 -0.5081677
v 0.3355554 0.2458041 -0.7539766
v 0.08341058 0.03386321 -0.7539765
v 0.08322499 0.0002938527 -0.7204072
v 0.3019859 0.0002937682 -0.5071434
v -0.3355533 0.6716822 0.7566469
v -0.3235377 0.6716821 -0.7428396
v 0.3019858 0.6716821 -0.7428396
v 0.301986 0.6716824 0.6022564
v 0.2234572 0.6716822 0.7566469
v 0.301986 0.5493388 0.7566469
v 0.2234572 0.6716822 0.7566469
v 0.301986 0.6716824 0.6022564
v 0.3355555 0.5379912 0.7230776
v 0.08341058 0.03386321 -0.7539765
v 0.3355554 0.2458041 -0.7539766
v 0.3019858 0.6716821 -0.7428396
v -0.3235377 0.6716821 -0.7428396
v -0.3235377 0.03386321 -0.7539765
v 0.3355554 0.2458041 -0.7539766
v 0.3355553 0.03386325 -0.5081677
v 0.3355555 0.03386342 0.7230776
v 0.3355555 0.5379912 0.7230776
v 0.3019858 0.6716821 -0.7428396
v 0.301986 0.6716824 0.6022564
v -0.3355533 0.03386343 0.756647
v -0.3235377 0.03386321 -0.7539765
v -0.3235377 0.6716821 -0.7428396
v -0.3355533 0.6716822 0.7566469
v -0.2899671 0.0002938527 -0.7204072
v -0.3235377 0.03386321 -0.7539765
v -0.3355533 0.03386343 0.756647
v -0.3019828 0.0002939687 0.7230777
v 0.08322499 0.0002938527 -0.7204072
v 0.08341058 0.03386321 -0.7539765
v -0.3235377 0.03386321 -0.7539765
v -0.2899671 0.0002938527 -0.7204072
v 0.301986 0.5493388 0.7566469
v 0.3355555 0.5379912 0.7230776
v 0.3355555 0.03386342 0.7230776
v 0.301986 0.03386343 0.7566469
v -0.3019828 0.0002939687 0.7230777
v -0.3355533 0.03386343 0.756647
v 0.301986 0.03386343 0.7566469
v 0.301986 0.0002939687 0.7230777
v 0.301986 0.0002939687 0.7230777
v 0.3355555 0.03386342 0.7230776
v 0.3355553 0.03386325 -0.5081677
v 0.3019859 0.0002937682 -0.5071434
v 0.3019859 0.0002937682 -0.5071434
v 0.08322499 0.0002938527 -0.7204072
v -0.2899671 0.0002938527 -0.7204072
v -0.3019828 0.0002939687 0.7230777
v 0.301986 0.0002939687 0.7230777

vn 0.5773497 -0.5773495 0.5773515
vn 0.5773497 -0.5773495 0.5773515
vn 0.5773497 -0.5773495 0.5773515
vn 1.036831E-07 0 1
vn 1.036831E-07 0 1
vn 1.036831E-07 0 1
vn 1.036831E-07 0 1
vn 1.036831E-07 0 1
vn 0.5436982 -0.6271756 -0.5577124
vn 0.5436982 -0.6271756 -0.5577124
vn 0.5436982 -0.6271756 -0.5577124
vn 0.5436982 -0.6271756 -0.5577124
vn 0.5436982 -0.6271756 -0.5577124
vn -1.66288E-07 1 0
vn -1.66288E-07 1 0
vn -1.66288E-07 1 0
vn -1.66288E-07 1 0
vn -1.66288E-07 1 0
vn 0.7461475 0.5218089 0.4134968
vn 0.7461475 0.5218089 0.4134968
vn 0.7461475 0.5218089 0.4134968
vn 0.7461475 0.5218089 0.4134968
vn -0.003052945 0.01850406 -0.9998242
vn -0.003052945 0.01850406 -0.9998242
vn -0.003052945 0.01850406 -0.9998242
vn -0.003052945 0.01850406 -0.9998242
vn -0.003052945 0.01850406 -0.9998242
vn 0.9986203 0.05223475 -0.005408169
vn 0.9986203 0.05223475 -0.005408169
vn 0.9986203 0.05223475 -0.005408169
vn 0.9986203 0.05223475 -0.005408169
vn 0.9986203 0.05223475 -0.005408169
vn 0.9986203 0.05223475 -0.005408169
vn -0.9999682 6.969731E-05 -0.007983283
vn -0.9999682 6.969731E-05 -0.007983283
vn -0.9999682 6.969731E-05 -0.007983283
vn -0.9999682 6.969731E-05 -0.007983283
vn -0.7070826 -0.7071075 -0.005751947
vn -0.7070826 -0.7071075 -0.005751947
vn -0.7070826 -0.7071075 -0.005751947
vn -0.7070826 -0.7071075 -0.005751947
vn 0 -0.7071073 -0.7071062
vn 0 -0.7071073 -0.7071062
vn 0 -0.7071073 -0.7071062
vn 0 -0.7071073 -0.7071062
vn 0.7071055 0 0.7071081
vn 0.7071055 0 0.7071081
vn 0.7071055 0 0.7071081
vn 0.7071055 0 0.7071081
vn 0 -0.7071048 0.7071087
vn 0 -0.7071048 0.7071087
vn 0 -0.7071048 0.7071087
vn 0 -0.7071048 0.7071087
vn 0.7071072 -0.7071064 0
vn 0.7071072 -0.7071064 0
vn 0.7071072 -0.7071064 0
vn 0.7071072 -0.7071064 0
vn 0 -1 0
vn 0 -1 0
vn 0 -1 0
vn 0 -1 0
vn 0 -1 0

vt 0.4625525 0.7029861
vt 0.4625925 0.7038003
vt 0.4636562 0.7032676
vt 0.4610009 0.6928495
vt 0.4605478 0.6948129
vt 0.4636562 0.7032676
vt 0.4750858 0.6951675
vt 0.4669822 0.683733
vt 0.4425016 0.7016275
vt 0.4398813 0.6988006
vt 0.4345247 0.7036002
vt 0.4356083 0.7043806
vt 0.442356 0.7025219
vt 0.4669822 0.683733
vt 0.4333715 0.683733
vt 0.44043 0.6942487
vt 0.4582759 0.6927961
vt 0.4610009 0.6928495
vt 0.4605478 0.6948129
vt 0.4610009 0.6928495
vt 0.4582759 0.6927961
vt 0.4598379 0.6951169
vt 0.4345247 0.7036002
vt 0.4398813 0.6988006
vt 0.44043 0.6942487
vt 0.4333715 0.683733
vt 0.424623 0.6994969
vt 0.4398813 0.6988006
vt 0.4425016 0.7016275
vt 0.4625525 0.7029861
vt 0.4598379 0.6951169
vt 0.44043 0.6942487
vt 0.4582759 0.6927961
vt 0.4669822 0.6694369
vt 0.4331219 0.6694369
vt 0.4333715 0.683733
vt 0.4669822 0.683733
vt 0.4322852 0.7125288
vt 0.4307525 0.7134492
vt 0.4637036 0.7174045
vt 0.4626929 0.7162639
vt 0.4356083 0.7043806
vt 0.4345247 0.7036002
vt 0.4307525 0.7134492
vt 0.4322852 0.7125288
vt 0.4605478 0.6948129
vt 0.4598379 0.6951169
vt 0.4625525 0.7029861
vt 0.4636562 0.7032676
vt 0.4626929 0.7162639
vt 0.4637036 0.7174045
vt 0.4636562 0.7032676
vt 0.4625925 0.7038003
vt 0.4625925 0.7038003
vt 0.4625525 0.7029861
vt 0.4425016 0.7016275
vt 0.442356 0.7025219
vt 0.442356 0.7025219
vt 0.4356083 0.7043806
vt 0.4322852 0.7125288
vt 0.4626929 0.7162639
vt 0.4625925 0.7038003

usemtl LOW-POLY-COLORS
usemap LOW-POLY-COLORS
f 2/2/2 1/1/1 3/3/3
f 5/5/5 4/4/4 6/6/6
f 7/7/7 6/6/6 4/4/4
f 8/8/8 7/7/7 4/4/4
f 10/10/10 9/9/9 11/11/11
f 12/12/12 11/11/11 9/9/9
f 13/13/13 12/12/12 9/9/9
f 15/15/15 14/14/14 16/16/16
f 17/17/17 16/16/16 14/14/14
f 18/18/18 17/17/17 14/14/14
f 20/20/20 19/19/19 21/21/21
f 21/21/21 19/19/19 22/22/22
f 24/24/24 23/23/23 25/25/25
f 26/26/26 25/25/25 23/23/23
f 27/27/27 26/26/26 23/23/23
f 29/29/29 28/28/28 30/30/30
f 31/31/31 30/30/30 28/28/28
f 32/32/32 31/31/31 28/28/28
f 33/33/33 31/31/31 32/32/32
f 35/35/35 34/34/34 36/36/36
f 36/36/36 34/34/34 37/37/37
f 39/39/39 38/38/38 40/40/40
f 40/40/40 38/38/38 41/41/41
f 43/43/43 42/42/42 44/44/44
f 44/44/44 42/42/42 45/45/45
f 47/47/47 46/46/46 48/48/48
f 48/48/48 46/46/46 49/49/49
f 51/51/51 50/50/50 52/52/52
f 52/52/52 50/50/50 53/53/53
f 55/55/55 54/54/54 56/56/56
f 56/56/56 54/54/54 57/57/57
f 59/59/59 58/58/58 60/60/60
f 61/61/61 60/60/60 58/58/58
f 62/62/62 61/61/61 58/58/58
