mtllib ./stone-oval_brown_5.mtl
g stone-oval_brown
v 0.2646791 -0.08113442 0.2394212
v 0.2722764 -0.08335824 0.2342881
v 0.2689143 -0.08827899 0.2328993
v -0.2287411 0.2630488 0.1552797
v 0.1914064 0.2112402 0.1921082
v 0.08051549 0.02462324 0.3485142
v -0.1584606 0.005031616 0.3523955
v -0.3190382 0.1603245 0.2307995
v 0.2921461 -0.2275175 -0.07843293
v -0.2393986 -0.2893019 -0.2191203
v -0.2796451 -0.3046816 0.03361424
v 0.2130888 -0.2253577 0.1086676
v -0.131073 -0.2826528 0.1091699
v 0.3603736 0.1138379 -0.2384114
v 0.4961024 -0.006083705 -0.1368633
v 0.4839856 0.06926039 0.01576313
v 0.4045339 0.1672793 0.04275221
v 0.3521313 0.1529556 -0.1593967
v -0.4360986 -0.1615706 0.1488263
v -0.2652585 -0.1027889 0.2748833
v -0.131073 -0.2826528 0.1091699
v -0.2796451 -0.3046816 0.03361424
v -0.4360986 -0.1615706 0.1488263
v -0.2796451 -0.3046816 0.03361424
v -0.2393986 -0.2893019 -0.2191203
v -0.270402 -0.2499053 -0.2481715
v -0.5228145 -0.0427639 0.08209148
v 0.4961024 -0.006083705 -0.1368633
v 0.2921461 -0.2275175 -0.07843293
v 0.2130888 -0.2253577 0.1086676
v 0.2689143 -0.08827899 0.2328993
v 0.2722764 -0.08335824 0.2342881
v 0.4839856 0.06926039 0.01576313
v 0.2921461 -0.2275175 -0.07843293
v 0.4961024 -0.006083705 -0.1368633
v 0.3603736 0.1138379 -0.2384114
v 0.02028724 0.1310252 -0.3415405
v -0.2393986 -0.2893019 -0.2191203
v -0.2510636 0.005311396 -0.3597302
v -0.270402 -0.2499053 -0.2481715
v -0.5228145 -0.0427639 0.08209148
v -0.270402 -0.2499053 -0.2481715
v -0.2510636 0.005311396 -0.3597302
v -0.5389791 0.07135411 0.06775091
v -0.4664006 0.1990867 -0.0901473
v -0.06451493 0.1993701 -0.2430833
v 0.02028724 0.1310252 -0.3415405
v 0.3603736 0.1138379 -0.2384114
v 0.3521313 0.1529556 -0.1593967
v -0.3190382 0.1603245 0.2307995
v -0.1584606 0.005031616 0.3523955
v -0.2652585 -0.1027889 0.2748833
v -0.4360986 -0.1615706 0.1488263
v -0.5389791 0.07135411 0.06775091
v -0.5228145 -0.0427639 0.08209148
v 0.2646791 -0.08113442 0.2394212
v 0.2689143 -0.08827899 0.2328993
v 0.2130888 -0.2253577 0.1086676
v 0.08051549 0.02462324 0.3485142
v -0.131073 -0.2826528 0.1091699
v -0.1584606 0.005031616 0.3523955
v -0.2652585 -0.1027889 0.2748833
v -0.2510636 0.005311396 -0.3597302
v 0.02028724 0.1310252 -0.3415405
v -0.06451493 0.1993701 -0.2430833
v -0.3731149 0.2586864 -0.06804383
v -0.4664006 0.1990867 -0.0901473
v -0.5389791 0.07135411 0.06775091
v -0.4664006 0.1990867 -0.0901473
v -0.3731149 0.2586864 -0.06804383
v -0.2287411 0.2630488 0.1552797
v -0.3190382 0.1603245 0.2307995
v 0.4045339 0.1672793 0.04275221
v 0.4839856 0.06926039 0.01576313
v 0.2722764 -0.08335824 0.2342881
v 0.1914064 0.2112402 0.1921082
v 0.2646791 -0.08113442 0.2394212
v 0.08051549 0.02462324 0.3485142
v -0.3731149 0.2586864 -0.06804383
v -0.06451493 0.1993701 -0.2430833
v 0.3521313 0.1529556 -0.1593967
v 0.4045339 0.1672793 0.04275221
v -0.2287411 0.2630488 0.1552797
v 0.1914064 0.2112402 0.1921082

vn 0.387269 -0.4857603 0.7836196
vn 0.387269 -0.4857603 0.7836196
vn 0.387269 -0.4857603 0.7836196
vn -0.01056993 0.619578 0.7848639
vn -0.01056993 0.619578 0.7848639
vn -0.01056993 0.619578 0.7848639
vn -0.01056993 0.619578 0.7848639
vn -0.01056993 0.619578 0.7848639
vn 0.1379475 -0.9904359 0.002684093
vn 0.1379475 -0.9904359 0.002684093
vn 0.1379475 -0.9904359 0.002684093
vn 0.1379475 -0.9904359 0.002684093
vn 0.1379475 -0.9904359 0.002684093
vn 0.7313799 0.6373792 -0.2425515
vn 0.7313799 0.6373792 -0.2425515
vn 0.7313799 0.6373792 -0.2425515
vn 0.7313799 0.6373792 -0.2425515
vn 0.7313799 0.6373792 -0.2425515
vn -0.2124962 -0.743126 0.6345147
vn -0.2124962 -0.743126 0.6345147
vn -0.2124962 -0.743126 0.6345147
vn -0.2124962 -0.743126 0.6345147
vn -0.7361201 -0.657266 -0.1616437
vn -0.7361201 -0.657266 -0.1616437
vn -0.7361201 -0.657266 -0.1616437
vn -0.7361201 -0.657266 -0.1616437
vn -0.7361201 -0.657266 -0.1616437
vn 0.7426179 -0.5854052 0.325299
vn 0.7426179 -0.5854052 0.325299
vn 0.7426179 -0.5854052 0.325299
vn 0.7426179 -0.5854052 0.325299
vn 0.7426179 -0.5854052 0.325299
vn 0.7426179 -0.5854052 0.325299
vn 0.2592126 -0.4305041 -0.8645664
vn 0.2592126 -0.4305041 -0.8645664
vn 0.2592126 -0.4305041 -0.8645664
vn 0.2592126 -0.4305041 -0.8645664
vn 0.2592126 -0.4305041 -0.8645664
vn 0.2592126 -0.4305041 -0.8645664
vn 0.2592126 -0.4305041 -0.8645664
vn -0.8297283 -0.176458 -0.5295408
vn -0.8297283 -0.176458 -0.5295408
vn -0.8297283 -0.176458 -0.5295408
vn -0.8297283 -0.176458 -0.5295408
vn -0.8297283 -0.176458 -0.5295408
vn 0.1820604 0.8804933 -0.4377047
vn 0.1820604 0.8804933 -0.4377047
vn 0.1820604 0.8804933 -0.4377047
vn 0.1820604 0.8804933 -0.4377047
vn -0.5973256 0.01340425 0.8018867
vn -0.5973256 0.01340425 0.8018867
vn -0.5973256 0.01340425 0.8018867
vn -0.5973256 0.01340425 0.8018867
vn -0.5973256 0.01340425 0.8018867
vn -0.5973256 0.01340425 0.8018867
vn 0.08388302 -0.653031 0.7526714
vn 0.08388302 -0.653031 0.7526714
vn 0.08388302 -0.653031 0.7526714
vn 0.08388302 -0.653031 0.7526714
vn 0.08388302 -0.653031 0.7526714
vn 0.08388302 -0.653031 0.7526714
vn 0.08388302 -0.653031 0.7526714
vn -0.2642378 0.6706414 -0.6931222
vn -0.2642378 0.6706414 -0.6931222
vn -0.2642378 0.6706414 -0.6931222
vn -0.2642378 0.6706414 -0.6931222
vn -0.2642378 0.6706414 -0.6931222
vn -0.561883 0.7501811 0.3485911
vn -0.561883 0.7501811 0.3485911
vn -0.561883 0.7501811 0.3485911
vn -0.561883 0.7501811 0.3485911
vn -0.561883 0.7501811 0.3485911
vn 0.5936794 0.2709615 0.7577102
vn 0.5936794 0.2709615 0.7577102
vn 0.5936794 0.2709615 0.7577102
vn 0.5936794 0.2709615 0.7577102
vn 0.5936794 0.2709615 0.7577102
vn 0.5936794 0.2709615 0.7577102
vn 0.1306755 0.9859828 -0.1037391
vn 0.1306755 0.9859828 -0.1037391
vn 0.1306755 0.9859828 -0.1037391
vn 0.1306755 0.9859828 -0.1037391
vn 0.1306755 0.9859828 -0.1037391
vn 0.1306755 0.9859828 -0.1037391

vt 0.2019911 0.7808693
vt 0.2025563 0.7809978
vt 0.2025137 0.7806019
vt 0.1824006 0.7883707
vt 0.1948211 0.7916502
vt 0.1927644 0.7826955
vt 0.186346 0.7804995
vt 0.1811507 0.7845789
vt 0.1655982 0.8504954
vt 0.1636233 0.8209721
vt 0.1500839 0.8231319
vt 0.1547638 0.8497123
vt 0.1488047 0.8320314
vt 0.2077021 0.8181995
vt 0.2251274 0.8036248
vt 0.2120363 0.7962891
vt 0.2053787 0.7973242
vt 0.2055245 0.8105056
vt 0.1751487 0.7766589
vt 0.1821928 0.7763258
vt 0.184315 0.7628651
vt 0.1710558 0.7636003
vt 0.1751487 0.7766589
vt 0.1710558 0.7636003
vt 0.1501421 0.7675393
vt 0.1488047 0.7721591
vt 0.1741082 0.7811086
vt 0.2251274 0.8036248
vt 0.2293401 0.769558
vt 0.2077392 0.7681164
vt 0.2025137 0.7806019
vt 0.2025563 0.7809978
vt 0.2120363 0.7962891
vt 0.1655982 0.8504954
vt 0.1784526 0.8606794
vt 0.1859854 0.852521
vt 0.1877501 0.8335761
vt 0.1636233 0.8209721
vt 0.1809859 0.8190517
vt 0.1660549 0.8190517
vt 0.1741082 0.7811086
vt 0.1488047 0.7721591
vt 0.1488047 0.798553
vt 0.1752707 0.7836536
vt 0.1734994 0.7880924
vt 0.1750164 0.8062384
vt 0.1742091 0.8190302
vt 0.2077021 0.8181995
vt 0.2055245 0.8105056
vt 0.1811507 0.7845789
vt 0.186346 0.7804995
vt 0.1821928 0.7763258
vt 0.1751487 0.7766589
vt 0.1752707 0.7836536
vt 0.1741082 0.7811086
vt 0.2019911 0.7808693
vt 0.2025137 0.7806019
vt 0.2077392 0.7681164
vt 0.1927644 0.7826955
vt 0.184315 0.7628651
vt 0.186346 0.7804995
vt 0.1821928 0.7763258
vt 0.1488047 0.798553
vt 0.1742091 0.8190302
vt 0.1750164 0.8062384
vt 0.1759623 0.7898483
vt 0.1734994 0.7880924
vt 0.1752707 0.7836536
vt 0.1734994 0.7880924
vt 0.1759623 0.7898483
vt 0.1824006 0.7883707
vt 0.1811507 0.7845789
vt 0.2053787 0.7973242
vt 0.2120363 0.7962891
vt 0.2025563 0.7809978
vt 0.1948211 0.7916502
vt 0.2019911 0.7808693
vt 0.1927644 0.7826955
vt 0.1759623 0.7898483
vt 0.1750164 0.8062384
vt 0.2055245 0.8105056
vt 0.2053787 0.7973242
vt 0.1824006 0.7883707
vt 0.1948211 0.7916502

usemtl LOW-POLY-COLORS
usemap LOW-POLY-COLORS
f 2/2/2 1/1/1 3/3/3
f 5/5/5 4/4/4 6/6/6
f 7/7/7 6/6/6 4/4/4
f 8/8/8 7/7/7 4/4/4
f 10/10/10 9/9/9 11/11/11
f 12/12/12 11/11/11 9/9/9
f 13/13/13 11/11/11 12/12/12
f 15/15/15 14/14/14 16/16/16
f 17/17/17 16/16/16 14/14/14
f 18/18/18 17/17/17 14/14/14
f 20/20/20 19/19/19 21/21/21
f 21/21/21 19/19/19 22/22/22
f 24/24/24 23/23/23 25/25/25
f 26/26/26 25/25/25 23/23/23
f 27/27/27 26/26/26 23/23/23
f 29/29/29 28/28/28 30/30/30
f 31/31/31 30/30/30 28/28/28
f 32/32/32 31/31/31 28/28/28
f 33/33/33 32/32/32 28/28/28
f 35/35/35 34/34/34 36/36/36
f 37/37/37 36/36/36 34/34/34
f 38/38/38 37/37/37 34/34/34
f 39/39/39 37/37/37 38/38/38
f 40/40/40 39/39/39 38/38/38
f 42/42/42 41/41/41 43/43/43
f 44/44/44 43/43/43 41/41/41
f 45/45/45 43/43/43 44/44/44
f 47/47/47 46/46/46 48/48/48
f 48/48/48 46/46/46 49/49/49
f 51/51/51 50/50/50 52/52/52
f 53/53/53 52/52/52 50/50/50
f 54/54/54 53/53/53 50/50/50
f 55/55/55 53/53/53 54/54/54
f 57/57/57 56/56/56 58/58/58
f 59/59/59 58/58/58 56/56/56
f 60/60/60 58/58/58 59/59/59
f 61/61/61 60/60/60 59/59/59
f 62/62/62 60/60/60 61/61/61
f 64/64/64 63/63/63 65/65/65
f 66/66/66 65/65/65 63/63/63
f 67/67/67 66/66/66 63/63/63
f 69/69/69 68/68/68 70/70/70
f 71/71/71 70/70/70 68/68/68
f 72/72/72 71/71/71 68/68/68
f 74/74/74 73/73/73 75/75/75
f 76/76/76 75/75/75 73/73/73
f 77/77/77 75/75/75 76/76/76
f 78/78/78 77/77/77 76/76/76
f 80/80/80 79/79/79 81/81/81
f 82/82/82 81/81/81 79/79/79
f 83/83/83 82/82/82 79/79/79
f 84/84/84 82/82/82 83/83/83
