mtllib ./stone-snow_35.mtl
g stone-snow
v 0.6242458 0.2611014 0.4302106
v 0.6380954 0.254808 0.4208947
v 0.6318253 0.2452514 0.4183744
v -0.1704373 0.9595506 0.3929883
v 0.3911707 0.7921536 0.6647705
v -0.2407368 0.6029317 0.7220653
v -0.3817849 0.8509502 0.4845349
v -0.748274 0.7781941 0.115281
v -0.5789292 0.9048527 -0.4149199
v -0.2980212 1.009553 -0.3086276
v -0.1704373 0.9595506 0.3929883
v -0.3817849 0.8509502 0.4845349
v 0.4264988 0.6705149 -0.5707147
v 0.4507489 0.9524 -0.4423372
v -0.2980212 1.009553 -0.3086276
v -0.3449162 0.5071344 -0.7345758
v -0.5789292 0.9048527 -0.4149199
v -0.2980212 1.009553 -0.3086276
v 0.4507489 0.9524 -0.4423372
v 0.7839671 0.842843 0.2332734
v -0.1704373 0.9595506 0.3929883
v 0.3911707 0.7921536 0.6647705
v 0.4264988 0.6705149 -0.5707147
v 0.4327753 0.6024924 -0.4806546
v 0.4834807 0.7496818 -0.3190249
v 0.4507489 0.9524 -0.4423372
v -0.3817849 0.8509502 0.4845349
v -0.3678583 0.6882023 0.4620292
v -0.7292544 0.612261 0.1098362
v -0.748274 0.7781941 0.115281
v -0.748274 0.7781941 0.115281
v -0.7292544 0.612261 0.1098362
v -0.5632927 0.7081664 -0.3458394
v -0.5789292 0.9048527 -0.4149199
v -0.5789292 0.9048527 -0.4149199
v -0.5632927 0.7081664 -0.3458394
v -0.3386399 0.4391118 -0.6445158
v -0.3449162 0.5071344 -0.7345758
v 0.7839671 0.842843 0.2332734
v 0.7781706 0.6734895 0.2315056
v 0.3875085 0.6234792 0.5999611
v 0.3911707 0.7921536 0.6647705
v 0.4507489 0.9524 -0.4423372
v 0.4834807 0.7496818 -0.3190249
v 0.7781706 0.6734895 0.2315056
v 0.7839671 0.842843 0.2332734
v -0.3449162 0.5071344 -0.7345758
v -0.3386399 0.4391118 -0.6445158
v 0.4327753 0.6024924 -0.4806546
v 0.4264988 0.6705149 -0.5707147
v -0.2407368 0.6029317 0.7220653
v -0.2348711 0.45082 0.6276462
v -0.3678583 0.6882023 0.4620292
v -0.3817849 0.8509502 0.4845349
v 0.3911707 0.7921536 0.6647705
v 0.3875085 0.6234792 0.5999611
v -0.2348711 0.45082 0.6276462
v -0.2407368 0.6029317 0.7220653
v -0.3617257 0.7314239 0.4622433
v -0.1603634 0.8347773 0.3348783
v 0.3359044 0.7773879 0.5210578
v -0.2793514 0.6171159 0.5368243
v 0.3048919 0.657331 0.5672461
v 0.6483756 -0.03517168 -0.1466382
v -0.3222549 -0.003298944 -0.4019608
v -0.3986216 -0.02009328 0.05670752
v 0.5070608 -0.01006141 0.1929159
v -0.1260423 -0.02045953 0.1938275
v 0.4058951 0.6374643 -0.5026115
v 0.8533111 0.1569629 -0.199038
v 0.8111 0.4210951 0.2249239
v 0.7428999 0.7257143 0.2194438
v 0.3924899 0.8099753 -0.4527091
v -0.6598228 0.2263011 0.2657968
v -0.3475464 0.2999103 0.494568
v -0.1260423 -0.02045953 0.1938275
v -0.3986216 -0.02009328 0.05670752
v -0.3222549 -0.003298944 -0.4019608
v -0.3678456 0.07314993 -0.4546834
v -0.8277251 0.3945393 0.144685
v -0.3986216 -0.02009328 0.05670752
v -0.6598228 0.2263011 0.2657968
v 0.8533111 0.1569629 -0.199038
v 0.6483756 -0.03517168 -0.1466382
v 0.5070608 -0.01006141 0.1929159
v 0.6318253 0.2452514 0.4183744
v 0.8111 0.4210951 0.2249239
v 0.6380954 0.254808 0.4208947
v -0.8277251 0.3945393 0.144685
v -0.3678456 0.07314993 -0.4546834
v -0.3215967 0.4833863 -0.6571426
v -0.7086294 0.6638482 0.1091393
v -0.5447354 0.7525932 -0.3501769
v -0.3617257 0.7314239 0.4622433
v -0.2793514 0.6171159 0.5368243
v -0.3475464 0.2999103 0.494568
v -0.6598228 0.2263011 0.2657968
v -0.7086294 0.6638482 0.1091393
v -0.8277251 0.3945393 0.144685
v 0.6242458 0.2611014 0.4302106
v 0.6318253 0.2452514 0.4183744
v 0.5070608 -0.01006141 0.1929159
v 0.3048919 0.657331 0.5672461
v -0.1260423 -0.02045953 0.1938275
v -0.2793514 0.6171159 0.5368243
v -0.3475464 0.2999103 0.494568
v -0.7086294 0.6638482 0.1091393
v -0.5447354 0.7525932 -0.3501769
v -0.2782796 0.8520141 -0.2488274
v -0.1603634 0.8347773 0.3348783
v -0.3617257 0.7314239 0.4622433
v 0.7428999 0.7257143 0.2194438
v 0.8111 0.4210951 0.2249239
v 0.6380954 0.254808 0.4208947
v 0.3359044 0.7773879 0.5210578
v 0.6242458 0.2611014 0.4302106
v 0.3048919 0.657331 0.5672461
v 0.6483756 -0.03517168 -0.1466382
v 0.8533111 0.1569629 -0.199038
v 0.4058951 0.6374643 -0.5026115
v -0.3222549 -0.003298944 -0.4019608
v -0.3215967 0.4833863 -0.6571426
v -0.3678456 0.07314993 -0.4546834
v -0.2782796 0.8520141 -0.2488274
v 0.3924899 0.8099753 -0.4527091
v 0.7428999 0.7257143 0.2194438
v -0.1603634 0.8347773 0.3348783
v 0.3359044 0.7773879 0.5210578
v -0.5447354 0.7525932 -0.3501769
v -0.3215967 0.4833863 -0.6571426
v 0.4058951 0.6374643 -0.5026115
v 0.3924899 0.8099753 -0.4527091
v -0.2782796 0.8520141 -0.2488274

vn 0.3504718 -0.4470072 0.8230152
vn 0.3504718 -0.4470072 0.8230152
vn 0.3504718 -0.4470072 0.8230152
vn -0.1153853 0.6858183 0.7185677
vn -0.1153853 0.6858183 0.7185677
vn -0.1153853 0.6858183 0.7185677
vn -0.1153853 0.6858183 0.7185677
vn -0.3649276 0.9213457 0.1339779
vn -0.3649276 0.9213457 0.1339779
vn -0.3649276 0.9213457 0.1339779
vn -0.3649276 0.9213457 0.1339779
vn -0.3649276 0.9213457 0.1339779
vn -0.009748683 0.5917928 -0.8060312
vn -0.009748683 0.5917928 -0.8060312
vn -0.009748683 0.5917928 -0.8060312
vn -0.009748683 0.5917928 -0.8060312
vn -0.009748683 0.5917928 -0.8060312
vn 0.124939 0.9851483 0.1177835
vn 0.124939 0.9851483 0.1177835
vn 0.124939 0.9851483 0.1177835
vn 0.124939 0.9851483 0.1177835
vn 0.124939 0.9851483 0.1177835
vn 0.9767525 -0.02688299 -0.2126782
vn 0.9767525 -0.02688299 -0.2126782
vn 0.9767525 -0.02688299 -0.2126782
vn 0.9767525 -0.02688299 -0.2126782
vn -0.6845372 -0.1296192 0.7173616
vn -0.6845372 -0.1296192 0.7173616
vn -0.6845372 -0.1296192 0.7173616
vn -0.6845372 -0.1296192 0.7173616
vn -0.9253048 -0.1495864 -0.3484751
vn -0.9253048 -0.1495864 -0.3484751
vn -0.9253048 -0.1495864 -0.3484751
vn -0.9253048 -0.1495864 -0.3484751
vn -0.8910077 -0.2858142 -0.352726
vn -0.8910077 -0.2858142 -0.352726
vn -0.8910077 -0.2858142 -0.352726
vn -0.8910077 -0.2858142 -0.352726
vn 0.7155218 -0.1542198 0.6813551
vn 0.7155218 -0.1542198 0.6813551
vn 0.7155218 -0.1542198 0.6813551
vn 0.7155218 -0.1542198 0.6813551
vn 0.8811569 -0.08797109 -0.4645681
vn 0.8811569 -0.08797109 -0.4645681
vn 0.8811569 -0.08797109 -0.4645681
vn 0.8811569 -0.08797109 -0.4645681
vn 0.2853072 -0.7551305 -0.5902352
vn 0.2853072 -0.7551305 -0.5902352
vn 0.2853072 -0.7551305 -0.5902352
vn 0.2853072 -0.7551305 -0.5902352
vn -0.9047256 -0.1971133 0.3776477
vn -0.9047256 -0.1971133 0.3776477
vn -0.9047256 -0.1971133 0.3776477
vn -0.9047256 -0.1971133 0.3776477
vn 0.1854261 -0.4358783 0.8806971
vn 0.1854261 -0.4358783 0.8806971
vn 0.1854261 -0.4358783 0.8806971
vn 0.1854261 -0.4358783 0.8806971
vn -0.09879285 0.6294491 0.7707359
vn -0.09879285 0.6294491 0.7707359
vn -0.09879285 0.6294491 0.7707359
vn -0.09879285 0.6294491 0.7707359
vn -0.09879285 0.6294491 0.7707359
vn -0.01015212 -0.9999449 0.002684197
vn -0.01015212 -0.9999449 0.002684197
vn -0.01015212 -0.9999449 0.002684197
vn -0.01015212 -0.9999449 0.002684197
vn -0.01015212 -0.9999449 0.002684197
vn 0.8521306 0.3771468 -0.3628135
vn 0.8521306 0.3771468 -0.3628135
vn 0.8521306 0.3771468 -0.3628135
vn 0.8521306 0.3771468 -0.3628135
vn 0.8521306 0.3771468 -0.3628135
vn -0.272653 -0.761349 0.5882245
vn -0.272653 -0.761349 0.5882245
vn -0.272653 -0.761349 0.5882245
vn -0.272653 -0.761349 0.5882245
vn -0.7125164 -0.6879148 -0.1381792
vn -0.7125164 -0.6879148 -0.1381792
vn -0.7125164 -0.6879148 -0.1381792
vn -0.7125164 -0.6879148 -0.1381792
vn -0.7125164 -0.6879148 -0.1381792
vn 0.7403325 -0.5763884 0.3459541
vn 0.7403325 -0.5763884 0.3459541
vn 0.7403325 -0.5763884 0.3459541
vn 0.7403325 -0.5763884 0.3459541
vn 0.7403325 -0.5763884 0.3459541
vn 0.7403325 -0.5763884 0.3459541
vn -0.8628448 -0.05124256 -0.502865
vn -0.8628448 -0.05124256 -0.502865
vn -0.8628448 -0.05124256 -0.502865
vn -0.8628448 -0.05124256 -0.502865
vn -0.8628448 -0.05124256 -0.502865
vn -0.6304568 0.1294222 0.7653589
vn -0.6304568 0.1294222 0.7653589
vn -0.6304568 0.1294222 0.7653589
vn -0.6304568 0.1294222 0.7653589
vn -0.6304568 0.1294222 0.7653589
vn -0.6304568 0.1294222 0.7653589
vn 0.01981566 -0.4811502 0.8764142
vn 0.01981566 -0.4811502 0.8764142
vn 0.01981566 -0.4811502 0.8764142
vn 0.01981566 -0.4811502 0.8764142
vn 0.01981566 -0.4811502 0.8764142
vn 0.01981566 -0.4811502 0.8764142
vn 0.01981566 -0.4811502 0.8764142
vn -0.3464071 0.9326511 0.1008176
vn -0.3464071 0.9326511 0.1008176
vn -0.3464071 0.9326511 0.1008176
vn -0.3464071 0.9326511 0.1008176
vn -0.3464071 0.9326511 0.1008176
vn 0.6086276 0.186372 0.7712575
vn 0.6086276 0.186372 0.7712575
vn 0.6086276 0.186372 0.7712575
vn 0.6086276 0.186372 0.7712575
vn 0.6086276 0.186372 0.7712575
vn 0.6086276 0.186372 0.7712575
vn 0.2295481 -0.4139785 -0.8808686
vn 0.2295481 -0.4139785 -0.8808686
vn 0.2295481 -0.4139785 -0.8808686
vn 0.2295481 -0.4139785 -0.8808686
vn 0.2295481 -0.4139785 -0.8808686
vn 0.2295481 -0.4139785 -0.8808686
vn 0.1064393 0.9937861 0.03255375
vn 0.1064393 0.9937861 0.03255375
vn 0.1064393 0.9937861 0.03255375
vn 0.1064393 0.9937861 0.03255375
vn 0.1064393 0.9937861 0.03255375
vn -0.06645999 0.6692123 -0.7400933
vn -0.06645999 0.6692123 -0.7400933
vn -0.06645999 0.6692123 -0.7400933
vn -0.06645999 0.6692123 -0.7400933
vn -0.06645999 0.6692123 -0.7400933

vt 0.8206671 0.8059759
vt 0.8211176 0.8057792
vt 0.8209436 0.805501
vt 0.7948377 0.301167
vt 0.8069905 0.2858899
vt 0.7861973 0.2875902
vt 0.7859073 0.300671
vt 0.7808377 0.3172457
vt 0.7943653 0.3276834
vt 0.8002753 0.320465
vt 0.7948377 0.301167
vt 0.7859073 0.300671
vt 0.8218987 0.3229465
vt 0.8188182 0.3156165
vt 0.8002753 0.320465
vt 0.8057312 0.3361612
vt 0.7943653 0.3276834
vt 0.8002753 0.320465
vt 0.8188182 0.3156165
vt 0.8218981 0.2940152
vt 0.7948377 0.301167
vt 0.8069905 0.2858899
vt 0.8218987 0.3229465
vt 0.8256238 0.3240255
vt 0.8271084 0.3144569
vt 0.8188182 0.3156165
vt 0.7859073 0.300671
vt 0.7793201 0.297524
vt 0.7742959 0.3190245
vt 0.7808377 0.3172457
vt 0.7808377 0.3172457
vt 0.7742959 0.3190245
vt 0.7894959 0.3342416
vt 0.7943653 0.3276834
vt 0.7943653 0.3276834
vt 0.7894959 0.3342416
vt 0.8063928 0.3403726
vt 0.8057312 0.3361612
vt 0.8218981 0.2940152
vt 0.8271084 0.2904845
vt 0.8084829 0.2776691
vt 0.8069905 0.2858899
vt 0.8188182 0.3156165
vt 0.8271084 0.3144569
vt 0.8271084 0.2904845
vt 0.8218981 0.2940152
vt 0.8057312 0.3361612
vt 0.8063928 0.3403726
vt 0.8256238 0.3240255
vt 0.8218987 0.3229465
vt 0.7861973 0.2875902
vt 0.7808686 0.2820453
vt 0.7793201 0.297524
vt 0.7859073 0.300671
vt 0.8069905 0.2858899
vt 0.8084829 0.2776691
vt 0.7808686 0.2820453
vt 0.7861973 0.2875902
vt 0.7842408 0.8040582
vt 0.7842408 0.8190839
vt 0.8116759 0.8256317
vt 0.7920908 0.8048214
vt 0.8103143 0.8189992
vt 0.8240757 0.792566
vt 0.8111496 0.7797088
vt 0.8056523 0.787697
vt 0.8190802 0.7972381
vt 0.8090733 0.7925239
vt 0.8519219 0.7751639
vt 0.8294933 0.79494
vt 0.8294522 0.8063189
vt 0.8365482 0.8168812
vt 0.85967 0.7814649
vt 0.7977978 0.7884147
vt 0.7992929 0.7967544
vt 0.8090733 0.7925239
vt 0.8056523 0.787697
vt 0.8111496 0.7797088
vt 0.809827 0.7774348
vt 0.7938582 0.7842165
vt 0.8056523 0.787697
vt 0.7977978 0.7884147
vt 0.8294933 0.79494
vt 0.8240757 0.792566
vt 0.8190802 0.7972381
vt 0.8209436 0.805501
vt 0.8294522 0.8063189
vt 0.8211176 0.8057792
vt 0.7938582 0.7842165
vt 0.809827 0.7774348
vt 0.8117094 0.757731
vt 0.7855976 0.7823138
vt 0.7912632 0.7633766
vt 0.7842408 0.8040582
vt 0.7920908 0.8048214
vt 0.7992929 0.7967544
vt 0.7977978 0.7884147
vt 0.7855976 0.7823138
vt 0.7938582 0.7842165
vt 0.8206671 0.8059759
vt 0.8209436 0.805501
vt 0.8190802 0.7972381
vt 0.8103143 0.8189992
vt 0.8090733 0.7925239
vt 0.7920908 0.8048214
vt 0.7992929 0.7967544
vt 0.7842408 0.8359966
vt 0.7890077 0.8507917
vt 0.7979457 0.8481331
vt 0.8028109 0.8303194
vt 0.796092 0.8256661
vt 0.8365482 0.8168812
vt 0.8294522 0.8063189
vt 0.8211176 0.8057792
vt 0.8116759 0.8256317
vt 0.8206671 0.8059759
vt 0.8103143 0.8189992
vt 0.8240757 0.792566
vt 0.8294933 0.79494
vt 0.8519219 0.7751639
vt 0.8111496 0.7797088
vt 0.8117094 0.757731
vt 0.809827 0.7774348
vt 0.7979457 0.8481331
vt 0.8181748 0.8561153
vt 0.8308511 0.8359845
vt 0.8028109 0.8303194
vt 0.8187762 0.8256661
vt 0.7890077 0.8507917
vt 0.7935566 0.8646591
vt 0.8172238 0.8617106
vt 0.8181748 0.8561153
vt 0.7979457 0.8481331

usemtl LOW-POLY-COLORS
usemap LOW-POLY-COLORS
f 2/2/2 1/1/1 3/3/3
f 5/5/5 4/4/4 6/6/6
f 6/6/6 4/4/4 7/7/7
f 9/9/9 8/8/8 10/10/10
f 11/11/11 10/10/10 8/8/8
f 12/12/12 11/11/11 8/8/8
f 14/14/14 13/13/13 15/15/15
f 16/16/16 15/15/15 13/13/13
f 17/17/17 15/15/15 16/16/16
f 19/19/19 18/18/18 20/20/20
f 21/21/21 20/20/20 18/18/18
f 22/22/22 20/20/20 21/21/21
f 24/24/24 23/23/23 25/25/25
f 25/25/25 23/23/23 26/26/26
f 28/28/28 27/27/27 29/29/29
f 29/29/29 27/27/27 30/30/30
f 32/32/32 31/31/31 33/33/33
f 33/33/33 31/31/31 34/34/34
f 36/36/36 35/35/35 37/37/37
f 37/37/37 35/35/35 38/38/38
f 40/40/40 39/39/39 41/41/41
f 41/41/41 39/39/39 42/42/42
f 44/44/44 43/43/43 45/45/45
f 45/45/45 43/43/43 46/46/46
f 48/48/48 47/47/47 49/49/49
f 49/49/49 47/47/47 50/50/50
f 52/52/52 51/51/51 53/53/53
f 53/53/53 51/51/51 54/54/54
f 56/56/56 55/55/55 57/57/57
f 57/57/57 55/55/55 58/58/58
f 60/60/60 59/59/59 61/61/61
f 62/62/62 61/61/61 59/59/59
f 63/63/63 61/61/61 62/62/62
f 65/65/65 64/64/64 66/66/66
f 67/67/67 66/66/66 64/64/64
f 68/68/68 66/66/66 67/67/67
f 70/70/70 69/69/69 71/71/71
f 72/72/72 71/71/71 69/69/69
f 73/73/73 72/72/72 69/69/69
f 75/75/75 74/74/74 76/76/76
f 76/76/76 74/74/74 77/77/77
f 79/79/79 78/78/78 80/80/80
f 81/81/81 80/80/80 78/78/78
f 82/82/82 80/80/80 81/81/81
f 84/84/84 83/83/83 85/85/85
f 86/86/86 85/85/85 83/83/83
f 87/87/87 86/86/86 83/83/83
f 88/88/88 86/86/86 87/87/87
f 90/90/90 89/89/89 91/91/91
f 92/92/92 91/91/91 89/89/89
f 93/93/93 91/91/91 92/92/92
f 95/95/95 94/94/94 96/96/96
f 97/97/97 96/96/96 94/94/94
f 98/98/98 97/97/97 94/94/94
f 99/99/99 97/97/97 98/98/98
f 101/101/101 100/100/100 102/102/102
f 103/103/103 102/102/102 100/100/100
f 104/104/104 102/102/102 103/103/103
f 105/105/105 104/104/104 103/103/103
f 106/106/106 104/104/104 105/105/105
f 108/108/108 107/107/107 109/109/109
f 110/110/110 109/109/109 107/107/107
f 111/111/111 110/110/110 107/107/107
f 113/113/113 112/112/112 114/114/114
f 115/115/115 114/114/114 112/112/112
f 116/116/116 114/114/114 115/115/115
f 117/117/117 116/116/116 115/115/115
f 119/119/119 118/118/118 120/120/120
f 121/121/121 120/120/120 118/118/118
f 122/122/122 120/120/120 121/121/121
f 123/123/123 122/122/122 121/121/121
f 125/125/125 124/124/124 126/126/126
f 127/127/127 126/126/126 124/124/124
f 128/128/128 126/126/126 127/127/127
f 130/130/130 129/129/129 131/131/131
f 132/132/132 131/131/131 129/129/129
f 133/133/133 132/132/132 129/129/129
