mtllib ./base-japan-edge_small_9.mtl
g base-japan-edge_small
v -2.21426 1.15187 3.709013
v -2.500691 1.619656 3.568674
v -2.100651 1.518978 3.598879
v -5.762366 2.615985 1.002389
v -5.622027 3.08377 0.7159582
v -5.652231 2.983093 1.115998
v 5.000772 5 2.50077
v 5.00077 5.000001 -2.500775
v 5.000771 7.752586E-08 -4.000771
v 5.000772 -2.563397E-07 4.000774
v 0.0007865627 5 -2.500772
v 1.500786 7.752586E-08 -4.000771
v 5.000771 7.752586E-08 -4.000771
v 5.00077 5.000001 -2.500775
v 0.0007865627 5 -2.500772
v 5.00077 5.000001 -2.500775
v 5.000772 5 2.50077
v -5.000773 5.000001 2.500776
v -5.000774 4.999999 -7.50077
v 0.0007861255 4.999999 -7.500773
v -2.914586 1.524857 3.542399
v -2.914586 1.539916 3.5926
v -2.927533 1.15881 3.70693
v -2.927533 1.143751 3.656733
v -2.214261 1.136811 3.658816
v -2.21426 1.15187 3.709013
v -2.100651 1.518978 3.598879
v -2.100651 1.503919 3.548681
v -2.927533 1.143751 3.656733
v -2.927533 1.15881 3.70693
v -2.21426 1.15187 3.709013
v -2.214261 1.136811 3.658816
v -2.500691 1.604596 3.518481
v -2.500691 1.619656 3.568674
v -2.914586 1.539916 3.5926
v -2.914586 1.524857 3.542399
v -2.100651 1.503919 3.548681
v -2.100651 1.518978 3.598879
v -2.500691 1.619656 3.568674
v -2.500691 1.604596 3.518481
v -4.630822 2.156851 3.407058
v -4.170647 2.20611 3.39228
v -4.146988 1.695438 3.545485
v -4.633679 1.768071 3.523692
v -4.170647 2.20611 3.39228
v -3.802796 2.20611 3.392279
v -3.669979 1.797572 3.514842
v -4.146988 1.695438 3.545485
v -4.630822 2.141388 3.355514
v -4.630822 2.156851 3.407058
v -4.633679 1.768071 3.523692
v -4.633679 1.752608 3.472148
v -4.633679 1.752608 3.472148
v -4.633679 1.768071 3.523692
v -4.146988 1.695438 3.545485
v -4.146988 1.679975 3.493941
v -3.802796 2.190647 3.340735
v -3.802796 2.20611 3.392279
v -4.170647 2.20611 3.39228
v -4.170647 2.190647 3.340736
v -4.170647 2.190647 3.340736
v -4.170647 2.20611 3.39228
v -4.630822 2.156851 3.407058
v -4.630822 2.141388 3.355514
v -4.146988 1.679975 3.493941
v -4.146988 1.695438 3.545485
v -3.669979 1.797572 3.514842
v -3.669979 1.782109 3.463298
v -3.669979 1.782109 3.463298
v -3.669979 1.797572 3.514842
v -3.802796 2.20611 3.392279
v -3.802796 2.190647 3.340735
v -5.000774 4.999999 -7.50077
v -6.500772 1.371303E-07 -7.50077
v 1.500786 7.752581E-08 -7.500774
v 0.0007861255 4.999999 -7.500773
v 0.0007865627 5 -2.500772
v 0.0007861255 4.999999 -7.500773
v 1.500786 7.752581E-08 -7.500774
v 1.500786 7.752586E-08 -4.000771
v -5.000773 5.000001 2.500776
v 5.000772 5 2.50077
v 5.000772 -2.563397E-07 4.000774
v -6.500774 4.168348E-08 4.000775
v -6.500772 1.371303E-07 -7.50077
v -5.000774 4.999999 -7.50077
v -5.000773 5.000001 2.500776
v -6.500774 4.168348E-08 4.000775
v -6.500772 1.371303E-07 -7.50077
v 1.500786 7.752586E-08 -4.000771
v 1.500786 7.752581E-08 -7.500774
v -6.500774 4.168348E-08 4.000775
v 5.000772 -2.563397E-07 4.000774
v 5.000771 7.752586E-08 -4.000771
v 3.334091 3.909283 2.877532
v 3.734131 3.808388 2.906987
v 3.620522 3.440486 3.014391
v 3.399451 3.349486 3.040957
v 2.920197 3.814264 2.850678
v 2.920197 3.82937 2.900862
v 2.907249 3.44744 3.012361
v 2.907249 3.432333 2.962177
v 3.620522 3.425378 2.964208
v 3.620522 3.440486 3.014391
v 3.734131 3.808388 2.906987
v 3.734131 3.793281 2.856803
v 3.399451 3.334378 2.990774
v 3.399451 3.349486 3.040957
v 3.620522 3.440486 3.014391
v 3.620522 3.425378 2.964208
v 3.334091 3.894175 2.827349
v 3.334091 3.909283 2.877532
v 2.920197 3.82937 2.900862
v 2.920197 3.814264 2.850678
v 3.734131 3.793281 2.856803
v 3.734131 3.808388 2.906987
v 3.334091 3.909283 2.877532
v 3.334091 3.894175 2.827349
v 2.907249 3.432333 2.962177
v 2.907249 3.44744 3.012361
v 3.399451 3.349486 3.040957
v 3.399451 3.334378 2.990774
v 2.920197 3.82937 2.900862
v 3.334091 3.909283 2.877532
v 3.399451 3.349486 3.040957
v 2.907249 3.44744 3.012361
v -2.914586 1.539916 3.5926
v -2.500691 1.619656 3.568674
v -2.927533 1.15881 3.70693
v -2.21426 1.15187 3.709013
v -5.595751 2.988971 0.3020636
v -5.645953 3.004031 0.3020636
v -5.760283 2.622925 0.2891165
v -5.710085 2.607865 0.2891165
v -5.712168 2.600925 1.002389
v -5.762366 2.615985 1.002389
v -5.652231 2.983093 1.115998
v -5.602034 2.968034 1.115998
v -5.710085 2.607865 0.2891165
v -5.760283 2.622925 0.2891165
v -5.762366 2.615985 1.002389
v -5.712168 2.600925 1.002389
v -5.571833 3.068711 0.7159582
v -5.622027 3.08377 0.7159582
v -5.645953 3.004031 0.3020636
v -5.595751 2.988971 0.3020636
v -5.602034 2.968034 1.115998
v -5.652231 2.983093 1.115998
v -5.622027 3.08377 0.7159582
v -5.571833 3.068711 0.7159582
v -5.460411 3.620965 -4.630821
v -5.445633 3.670224 -4.170647
v -5.598838 3.159553 -4.146988
v -5.577045 3.232186 -4.633678
v -5.445633 3.670224 -4.170647
v -5.568194 3.261687 -3.669979
v -5.445632 3.670224 -3.802796
v -5.408867 3.605502 -4.630821
v -5.460411 3.620965 -4.630821
v -5.577045 3.232186 -4.633678
v -5.525501 3.216723 -4.633678
v -5.525501 3.216723 -4.633678
v -5.577045 3.232186 -4.633678
v -5.598838 3.159553 -4.146988
v -5.547294 3.144089 -4.146988
v -5.394088 3.654762 -3.802796
v -5.445632 3.670224 -3.802796
v -5.445633 3.670224 -4.170647
v -5.394089 3.654762 -4.170647
v -5.394089 3.654762 -4.170647
v -5.445633 3.670224 -4.170647
v -5.460411 3.620965 -4.630821
v -5.408867 3.605502 -4.630821
v -5.547294 3.144089 -4.146988
v -5.598838 3.159553 -4.146988
v -5.568194 3.261687 -3.669979
v -5.51665 3.246224 -3.669979
v -5.51665 3.246224 -3.669979
v -5.568194 3.261687 -3.669979
v -5.445632 3.670224 -3.802796
v -5.394088 3.654762 -3.802796
v -5.645953 3.004031 0.3020636
v -5.622027 3.08377 0.7159582
v -5.760283 2.622925 0.2891165
v -5.762366 2.615985 1.002389

vn -1.622968E-06 0.2873534 0.9578246
vn -1.622968E-06 0.2873534 0.9578246
vn -1.622968E-06 0.2873534 0.9578246
vn -0.9578248 0.2873527 -2.163956E-06
vn -0.9578248 0.2873527 -2.163956E-06
vn -0.9578248 0.2873527 -2.163956E-06
vn 1 1.430509E-07 -2.933685E-07
vn 1 1.430509E-07 -2.933685E-07
vn 1 1.430509E-07 -2.933685E-07
vn 1 1.430509E-07 -2.933685E-07
vn -4.083694E-07 0.2873473 -0.9578264
vn -4.083694E-07 0.2873473 -0.9578264
vn -4.083694E-07 0.2873473 -0.9578264
vn -4.083694E-07 0.2873473 -0.9578264
vn 0 1 0
vn 0 1 0
vn 0 1 0
vn 0 1 0
vn 0 1 -1.907152E-07
vn 0 1 -1.907152E-07
vn -0.999471 0.03115107 -0.009341731
vn -0.999471 0.03115107 -0.009341731
vn -0.999471 0.03115107 -0.009341731
vn -0.999471 0.03115107 -0.009341731
vn 0.9587663 -0.2722096 0.08166414
vn 0.9587663 -0.2722096 0.08166414
vn 0.9587663 -0.2722096 0.08166414
vn 0.9587663 -0.2722096 0.08166414
vn -0.01015757 -0.9577758 0.2873366
vn -0.01015757 -0.9577758 0.2873366
vn -0.01015757 -0.9577758 0.2873366
vn -0.01015757 -0.9577758 0.2873366
vn -0.1971909 0.9390196 -0.2817056
vn -0.1971909 0.9390196 -0.2817056
vn -0.1971909 0.9390196 -0.2817056
vn -0.1971909 0.9390196 -0.2817056
vn 0.2541246 0.9263794 -0.2779241
vn 0.2541246 0.9263794 -0.2779241
vn 0.2541246 0.9263794 -0.2779241
vn 0.2541246 0.9263794 -0.2779241
vn -2.280485E-06 0.2873517 0.9578252
vn -2.280485E-06 0.2873517 0.9578252
vn -2.280485E-06 0.2873517 0.9578252
vn -2.280485E-06 0.2873517 0.9578252
vn 3.169371E-06 0.2873532 0.9578248
vn 3.169371E-06 0.2873532 0.9578248
vn 3.169371E-06 0.2873532 0.9578248
vn 3.169371E-06 0.2873532 0.9578248
vn -0.9999752 0.006742171 -0.002024715
vn -0.9999752 0.006742171 -0.002024715
vn -0.9999752 0.006742171 -0.002024715
vn -0.9999752 0.006742171 -0.002024715
vn -0.1539549 -0.9464077 0.2839196
vn -0.1539549 -0.9464077 0.2839196
vn -0.1539549 -0.9464077 0.2839196
vn -0.1539549 -0.9464077 0.2839196
vn -4.482766E-07 0.957827 -0.2873453
vn -4.482766E-07 0.957827 -0.2873453
vn -4.482766E-07 0.957827 -0.2873453
vn -4.482766E-07 0.957827 -0.2873453
vn -0.1110653 0.9519014 -0.2855667
vn -0.1110653 0.9519014 -0.2855667
vn -0.1110653 0.9519014 -0.2855667
vn -0.1110653 0.9519014 -0.2855667
vn 0.2181594 -0.934756 0.2804243
vn 0.2181594 -0.934756 0.2804243
vn 0.2181594 -0.934756 0.2804243
vn 0.2181594 -0.934756 0.2804243
vn 0.9547808 0.2847721 -0.08543002
vn 0.9547808 0.2847721 -0.08543002
vn 0.9547808 0.2847721 -0.08543002
vn 0.9547808 0.2847721 -0.08543002
vn -5.500648E-07 1.173472E-07 -1
vn -5.500648E-07 1.173472E-07 -1
vn -5.500648E-07 1.173472E-07 -1
vn -5.500648E-07 1.173472E-07 -1
vn 0.9578263 0.2873479 -1.182117E-07
vn 0.9578263 0.2873479 -1.182117E-07
vn 0.9578263 0.2873479 -1.182117E-07
vn 0.9578263 0.2873479 -1.182117E-07
vn 3.14353E-07 0.2873481 0.9578263
vn 3.14353E-07 0.2873481 0.9578263
vn 3.14353E-07 0.2873481 0.9578263
vn 3.14353E-07 0.2873481 0.9578263
vn -0.9578263 0.2873479 0
vn -0.9578263 0.2873479 0
vn -0.9578263 0.2873479 0
vn -0.9578263 0.2873479 0
vn 0 -1 0
vn 0 -1 0
vn 0 -1 0
vn 0 -1 0
vn 0 -1 0
vn 0 -1 0
vn 1.984332E-07 0.2802387 0.9599304
vn 1.984332E-07 0.2802387 0.9599304
vn 1.984332E-07 0.2802387 0.9599304
vn 1.984332E-07 0.2802387 0.9599304
vn -0.999471 0.03114418 -0.009371237
vn -0.999471 0.03114418 -0.009371237
vn -0.999471 0.03114418 -0.009371237
vn -0.999471 0.03114418 -0.009371237
vn 0.958761 -0.2721502 0.08192503
vn 0.958761 -0.2721502 0.08192503
vn 0.958761 -0.2721502 0.08192503
vn 0.958761 -0.2721502 0.08192503
vn 0.3941007 -0.8800547 0.2649309
vn 0.3941007 -0.8800547 0.2649309
vn 0.3941007 -0.8800547 0.2649309
vn 0.3941007 -0.8800547 0.2649309
vn -0.1971778 0.9387531 -0.2826013
vn -0.1971778 0.9387531 -0.2826013
vn -0.1971778 0.9387531 -0.2826013
vn -0.1971778 0.9387531 -0.2826013
vn 0.254108 0.9261184 -0.2788078
vn 0.254108 0.9261184 -0.2788078
vn 0.254108 0.9261184 -0.2788078
vn 0.254108 0.9261184 -0.2788078
vn -0.2029993 -0.9376138 0.2822614
vn -0.2029993 -0.9376138 0.2822614
vn -0.2029993 -0.9376138 0.2822614
vn -0.2029993 -0.9376138 0.2822614
vn -2.685107E-07 0.2802379 0.9599306
vn -2.685107E-07 0.2802379 0.9599306
vn -2.685107E-07 0.2802379 0.9599306
vn -2.685107E-07 0.2802379 0.9599306
vn 9.65449E-06 0.2873439 0.9578274
vn 9.65449E-06 0.2873439 0.9578274
vn 9.65449E-06 0.2873439 0.9578274
vn -1.118852E-06 0.2873541 0.9578244
vn 0.009344972 0.03115098 -0.999471
vn 0.009344972 0.03115098 -0.999471
vn 0.009344972 0.03115098 -0.999471
vn 0.009344972 0.03115098 -0.999471
vn -0.08166393 -0.272211 0.958766
vn -0.08166393 -0.272211 0.958766
vn -0.08166393 -0.272211 0.958766
vn -0.08166393 -0.272211 0.958766
vn -0.2873358 -0.9577761 -0.01015753
vn -0.2873358 -0.9577761 -0.01015753
vn -0.2873358 -0.9577761 -0.01015753
vn -0.2873358 -0.9577761 -0.01015753
vn 0.2817019 0.9390209 -0.1971899
vn 0.2817019 0.9390209 -0.1971899
vn 0.2817019 0.9390209 -0.1971899
vn 0.2817019 0.9390209 -0.1971899
vn 0.2779267 0.9263794 0.2541218
vn 0.2779267 0.9263794 0.2541218
vn 0.2779267 0.9263794 0.2541218
vn 0.2779267 0.9263794 0.2541218
vn -0.9578251 0.2873518 -3.219511E-06
vn -0.9578251 0.2873518 -3.219511E-06
vn -0.9578251 0.2873518 -3.219511E-06
vn -0.9578251 0.2873518 -3.219511E-06
vn -0.9578246 0.2873535 4.609997E-06
vn -0.9578246 0.2873535 4.609997E-06
vn -0.9578246 0.2873535 4.609997E-06
vn 0.002022638 0.006742724 -0.9999752
vn 0.002022638 0.006742724 -0.9999752
vn 0.002022638 0.006742724 -0.9999752
vn 0.002022638 0.006742724 -0.9999752
vn -0.2839216 -0.9464071 -0.1539552
vn -0.2839216 -0.9464071 -0.1539552
vn -0.2839216 -0.9464071 -0.1539552
vn -0.2839216 -0.9464071 -0.1539552
vn 0.2873432 0.9578277 -3.763796E-07
vn 0.2873432 0.9578277 -3.763796E-07
vn 0.2873432 0.9578277 -3.763796E-07
vn 0.2873432 0.9578277 -3.763796E-07
vn 0.2855673 0.9519011 -0.1110663
vn 0.2855673 0.9519011 -0.1110663
vn 0.2855673 0.9519011 -0.1110663
vn 0.2855673 0.9519011 -0.1110663
vn -0.2804253 -0.9347559 0.2181584
vn -0.2804253 -0.9347559 0.2181584
vn -0.2804253 -0.9347559 0.2181584
vn -0.2804253 -0.9347559 0.2181584
vn 0.0854297 0.2847698 0.9547816
vn 0.0854297 0.2847698 0.9547816
vn 0.0854297 0.2847698 0.9547816
vn 0.0854297 0.2847698 0.9547816
vn -0.9578274 0.2873444 1.165827E-05
vn -0.9578274 0.2873444 1.165827E-05
vn -0.9578274 0.2873444 1.165827E-05
vn -0.9578246 0.2873533 -1.377048E-06

vt 0.5657834 0.6765075
vt 0.5654705 0.6749464
vt 0.5649265 0.6759798
vt 0.563902 0.6761477
vt 0.5642151 0.6777089
vt 0.5647589 0.6766754
vt 0.4208603 0.6809402
vt 0.4074517 0.6778965
vt 0.4003877 0.6903881
vt 0.4218388 0.6952574
vt 0.395487 0.6711304
vt 0.3920124 0.6856518
vt 0.4003877 0.6903881
vt 0.4074517 0.6778965
vt 0.4331268 0.8058959
vt 0.4331268 0.8427413
vt 0.4699836 0.8427413
vt 0.4699836 0.769039
vt 0.3962814 0.769039
vt 0.3962814 0.8058959
vt 0.5667683 0.6744243
vt 0.5666991 0.67462
vt 0.5670954 0.6754875
vt 0.5672904 0.6755096
vt 0.5658066 0.6767025
vt 0.5657834 0.6765075
vt 0.5649265 0.6759798
vt 0.5647082 0.6760615
vt 0.5672904 0.6755096
vt 0.5670954 0.6754875
vt 0.5657834 0.6765075
vt 0.5658066 0.6767025
vt 0.5653251 0.6747898
vt 0.5654705 0.6749464
vt 0.5666991 0.67462
vt 0.5667683 0.6744243
vt 0.5647082 0.6760615
vt 0.5649265 0.6759798
vt 0.5654705 0.6749464
vt 0.5653251 0.6747898
vt 0.5734136 0.6717449
vt 0.572796 0.6705464
vt 0.5715411 0.6716285
vt 0.572681 0.6722972
vt 0.572796 0.6705464
vt 0.5719982 0.6699842
vt 0.5710826 0.6704109
vt 0.5715411 0.6716285
vt 0.5736048 0.671771
vt 0.5734136 0.6717449
vt 0.572681 0.6722972
vt 0.572708 0.6724921
vt 0.572708 0.6724921
vt 0.572681 0.6722972
vt 0.5715411 0.6716285
vt 0.571372 0.6717656
vt 0.5720143 0.6698264
vt 0.5719982 0.6699842
vt 0.572796 0.6705464
vt 0.5729314 0.6704201
vt 0.5729314 0.6704201
vt 0.572796 0.6705464
vt 0.5734136 0.6717449
vt 0.5736048 0.671771
vt 0.571372 0.6717656
vt 0.5715411 0.6716285
vt 0.5710826 0.6704109
vt 0.5708907 0.670315
vt 0.5708907 0.670315
vt 0.5710826 0.6704109
vt 0.5719982 0.6699842
vt 0.5720143 0.6698264
vt 0.4705425 0.6629141
vt 0.4789723 0.6745278
vt 0.4923104 0.6570361
vt 0.4788798 0.6519805
vt 0.4837222 0.6391163
vt 0.4788798 0.6519805
vt 0.4923104 0.6570361
vt 0.4957001 0.6480312
vt 0.4482913 0.6790652
vt 0.4208603 0.6809402
vt 0.4218388 0.6952574
vt 0.4533839 0.6931012
vt 0.4789723 0.6745278
vt 0.4705425 0.6629141
vt 0.4482913 0.6790652
vt 0.4533839 0.6931012
vt 0.3840055 0.7190924
vt 0.3982578 0.6997712
vt 0.3888747 0.6976413
vt 0.4148397 0.7260916
vt 0.4218388 0.6952574
vt 0.4003877 0.6903881
vt 0.5684774 0.6735436
vt 0.5673481 0.673437
vt 0.5671422 0.67443
vt 0.5675421 0.6749531
vt 0.5695285 0.6743935
vt 0.5693163 0.6743984
vt 0.5688047 0.6751736
vt 0.5688632 0.6753371
vt 0.5669738 0.6744821
vt 0.5671422 0.67443
vt 0.5673481 0.673437
vt 0.5672086 0.6732755
vt 0.5674587 0.6750852
vt 0.5675421 0.6749531
vt 0.5671422 0.67443
vt 0.5669738 0.6744821
vt 0.5685713 0.6733415
vt 0.5684774 0.6735436
vt 0.5693163 0.6743984
vt 0.5695285 0.6743935
vt 0.5672086 0.6732755
vt 0.5673481 0.673437
vt 0.5684774 0.6735436
vt 0.5685713 0.6733415
vt 0.5688632 0.6753371
vt 0.5688047 0.6751736
vt 0.5675421 0.6749531
vt 0.5674587 0.6750852
vt 0.5693163 0.6743984
vt 0.5684774 0.6735436
vt 0.5675421 0.6749531
vt 0.5688047 0.6751736
vt 0.5666991 0.67462
vt 0.5654705 0.6749464
vt 0.5670954 0.6754875
vt 0.5657834 0.6765075
vt 0.5629172 0.6782309
vt 0.5629864 0.6780353
vt 0.5625901 0.6771678
vt 0.5623951 0.6771457
vt 0.5638788 0.6759527
vt 0.563902 0.6761477
vt 0.5647589 0.6766754
vt 0.5649772 0.6765938
vt 0.5623951 0.6771457
vt 0.5625901 0.6771678
vt 0.563902 0.6761477
vt 0.5638788 0.6759527
vt 0.5643603 0.6778654
vt 0.5642151 0.6777089
vt 0.5629864 0.6780353
vt 0.5629172 0.6782309
vt 0.5649772 0.6765938
vt 0.5647589 0.6766754
vt 0.5642151 0.6777089
vt 0.5643603 0.6778654
vt 0.5692827 0.6736662
vt 0.5704812 0.6730485
vt 0.5693991 0.6717936
vt 0.5687304 0.6729336
vt 0.5704812 0.6730485
vt 0.5706167 0.6713352
vt 0.5710434 0.6722509
vt 0.5692564 0.6738574
vt 0.5692827 0.6736662
vt 0.5687304 0.6729336
vt 0.5685354 0.6729606
vt 0.5685354 0.6729606
vt 0.5687304 0.6729336
vt 0.5693991 0.6717936
vt 0.569262 0.6716245
vt 0.5712011 0.6722668
vt 0.5710434 0.6722509
vt 0.5704812 0.6730485
vt 0.5706075 0.6731839
vt 0.5706075 0.6731839
vt 0.5704812 0.6730485
vt 0.5692827 0.6736662
vt 0.5692564 0.6738574
vt 0.569262 0.6716245
vt 0.5693991 0.6717936
vt 0.5706167 0.6713352
vt 0.5707124 0.6711432
vt 0.5707124 0.6711432
vt 0.5706167 0.6713352
vt 0.5710434 0.6722509
vt 0.5712011 0.6722668
vt 0.5629864 0.6780353
vt 0.5642151 0.6777089
vt 0.5625901 0.6771678
vt 0.563902 0.6761477

usemtl LOW-POLY-COLORS
usemap LOW-POLY-COLORS
f 2/2/2 1/1/1 3/3/3
f 5/5/5 4/4/4 6/6/6
f 8/8/8 7/7/7 9/9/9
f 9/9/9 7/7/7 10/10/10
f 12/12/12 11/11/11 13/13/13
f 13/13/13 11/11/11 14/14/14
f 16/16/16 15/15/15 17/17/17
f 17/17/17 15/15/15 18/18/18
f 18/18/18 15/15/15 19/19/19
f 19/19/19 15/15/15 20/20/20
f 22/22/22 21/21/21 23/23/23
f 23/23/23 21/21/21 24/24/24
f 26/26/26 25/25/25 27/27/27
f 27/27/27 25/25/25 28/28/28
f 30/30/30 29/29/29 31/31/31
f 31/31/31 29/29/29 32/32/32
f 34/34/34 33/33/33 35/35/35
f 35/35/35 33/33/33 36/36/36
f 38/38/38 37/37/37 39/39/39
f 39/39/39 37/37/37 40/40/40
f 42/42/42 41/41/41 43/43/43
f 43/43/43 41/41/41 44/44/44
f 46/46/46 45/45/45 47/47/47
f 47/47/47 45/45/45 48/48/48
f 50/50/50 49/49/49 51/51/51
f 51/51/51 49/49/49 52/52/52
f 54/54/54 53/53/53 55/55/55
f 55/55/55 53/53/53 56/56/56
f 58/58/58 57/57/57 59/59/59
f 59/59/59 57/57/57 60/60/60
f 62/62/62 61/61/61 63/63/63
f 63/63/63 61/61/61 64/64/64
f 66/66/66 65/65/65 67/67/67
f 67/67/67 65/65/65 68/68/68
f 70/70/70 69/69/69 71/71/71
f 71/71/71 69/69/69 72/72/72
f 74/74/74 73/73/73 75/75/75
f 75/75/75 73/73/73 76/76/76
f 78/78/78 77/77/77 79/79/79
f 79/79/79 77/77/77 80/80/80
f 82/82/82 81/81/81 83/83/83
f 83/83/83 81/81/81 84/84/84
f 86/86/86 85/85/85 87/87/87
f 87/87/87 85/85/85 88/88/88
f 90/90/90 89/89/89 91/91/91
f 92/92/92 89/89/89 90/90/90
f 90/90/90 93/93/93 92/92/92
f 94/94/94 93/93/93 90/90/90
f 96/96/96 95/95/95 97/97/97
f 97/97/97 95/95/95 98/98/98
f 100/100/100 99/99/99 101/101/101
f 101/101/101 99/99/99 102/102/102
f 104/104/104 103/103/103 105/105/105
f 105/105/105 103/103/103 106/106/106
f 108/108/108 107/107/107 109/109/109
f 109/109/109 107/107/107 110/110/110
f 112/112/112 111/111/111 113/113/113
f 113/113/113 111/111/111 114/114/114
f 116/116/116 115/115/115 117/117/117
f 117/117/117 115/115/115 118/118/118
f 120/120/120 119/119/119 121/121/121
f 121/121/121 119/119/119 122/122/122
f 124/124/124 123/123/123 125/125/125
f 125/125/125 123/123/123 126/126/126
f 128/128/128 127/127/127 129/129/129
f 128/128/128 129/129/129 130/130/130
f 132/132/132 131/131/131 133/133/133
f 133/133/133 131/131/131 134/134/134
f 136/136/136 135/135/135 137/137/137
f 137/137/137 135/135/135 138/138/138
f 140/140/140 139/139/139 141/141/141
f 141/141/141 139/139/139 142/142/142
f 144/144/144 143/143/143 145/145/145
f 145/145/145 143/143/143 146/146/146
f 148/148/148 147/147/147 149/149/149
f 149/149/149 147/147/147 150/150/150
f 152/152/152 151/151/151 153/153/153
f 153/153/153 151/151/151 154/154/154
f 156/156/156 155/155/155 153/153/153
f 157/157/157 155/155/155 156/156/156
f 159/159/159 158/158/158 160/160/160
f 160/160/160 158/158/158 161/161/161
f 163/163/163 162/162/162 164/164/164
f 164/164/164 162/162/162 165/165/165
f 167/167/167 166/166/166 168/168/168
f 168/168/168 166/166/166 169/169/169
f 171/171/171 170/170/170 172/172/172
f 172/172/172 170/170/170 173/173/173
f 175/175/175 174/174/174 176/176/176
f 176/176/176 174/174/174 177/177/177
f 179/179/179 178/178/178 180/180/180
f 180/180/180 178/178/178 181/181/181
f 183/183/183 182/182/182 184/184/184
f 183/183/183 184/184/184 185/185/185
