mtllib ./base-japan_small_11.mtl
g base-japan_small
v -5.000772 5.000001 2.500778
v 5.000772 5 2.500772
v 5.000773 -1.96735E-07 4.000776
v -5.000772 1.012882E-07 4.000777
v -5.000772 4.999999 -2.500772
v -5.000772 5.000001 2.500778
v -5.000772 1.012882E-07 4.000777
v -5.000771 1.96735E-07 -4.000772
v 5.000772 5 2.500772
v 5.000771 5.000001 -2.500777
v 5.000772 1.371306E-07 -4.000777
v 5.000773 -1.96735E-07 4.000776
v -5.000772 4.999999 -2.500772
v -5.000771 1.96735E-07 -4.000772
v 5.000772 1.371306E-07 -4.000777
v 5.000771 5.000001 -2.500777
v -5.000772 4.999999 -2.500772
v 5.000771 5.000001 -2.500777
v 5.000772 5 2.500772
v -5.000772 5.000001 2.500778
v -5.000771 1.96735E-07 -4.000772
v -5.000772 1.012882E-07 4.000777
v 5.000773 -1.96735E-07 4.000776
v 5.000772 1.371306E-07 -4.000777
v -0.5006889 1.619656 3.568676
v -0.1006491 1.518978 3.598881
v -0.2142584 1.15187 3.709015
v -0.9275306 1.15881 3.706933
v -0.9145835 1.539916 3.592602
v -0.9145835 1.524857 3.542401
v -0.9145835 1.539916 3.592602
v -0.9275306 1.15881 3.706933
v -0.9275306 1.143751 3.656735
v -0.2142584 1.136811 3.658818
v -0.2142584 1.15187 3.709015
v -0.1006491 1.518978 3.598881
v -0.1006491 1.503919 3.548684
v -0.9275306 1.143751 3.656735
v -0.9275306 1.15881 3.706933
v -0.2142584 1.15187 3.709015
v -0.2142584 1.136811 3.658818
v -0.5006889 1.604596 3.518483
v -0.5006889 1.619656 3.568676
v -0.9145835 1.539916 3.592602
v -0.9145835 1.524857 3.542401
v -0.1006491 1.503919 3.548684
v -0.1006491 1.518978 3.598881
v -0.5006889 1.619656 3.568676
v -0.5006889 1.604596 3.518483
v -2.63082 2.156851 3.40706
v -2.146987 1.695438 3.545487
v -2.633677 1.768071 3.523695
v -2.170645 2.20611 3.392282
v -1.669977 1.797573 3.514844
v -1.802794 2.20611 3.392282
v -2.63082 2.141387 3.355516
v -2.63082 2.156851 3.40706
v -2.633677 1.768071 3.523695
v -2.633677 1.752608 3.472151
v -2.633677 1.752608 3.472151
v -2.633677 1.768071 3.523695
v -2.146987 1.695438 3.545487
v -2.146987 1.679975 3.493943
v -1.802794 2.190646 3.340737
v -1.802794 2.20611 3.392282
v -2.170645 2.20611 3.392282
v -2.170645 2.190646 3.340738
v -2.170645 2.190646 3.340738
v -2.170645 2.20611 3.392282
v -2.63082 2.156851 3.40706
v -2.63082 2.141387 3.355516
v -2.146987 1.679975 3.493943
v -2.146987 1.695438 3.545487
v -1.669977 1.797573 3.514844
v -1.669977 1.782109 3.4633
v -1.669977 1.782109 3.4633
v -1.669977 1.797573 3.514844
v -1.802794 2.20611 3.392282
v -1.802794 2.190646 3.340737
v 2.970533 3.54836 2.974235
v 3.423868 3.486776 3.008464
v 3.295123 3.070761 3.133271
v 2.657204 3.076967 3.131408
v 2.501498 3.510503 3.001348
v 2.501498 3.493438 2.944459
v 2.501498 3.510503 3.001348
v 2.657204 3.076967 3.131408
v 2.657204 3.059901 3.074523
v 3.295123 3.053695 3.076385
v 3.295123 3.070761 3.133271
v 3.423868 3.486776 3.008464
v 3.423868 3.46971 2.951579
v 2.657204 3.059901 3.074523
v 2.657204 3.076967 3.131408
v 3.295123 3.070761 3.133271
v 3.295123 3.053695 3.076385
v 2.970533 3.531294 2.917354
v 2.970533 3.54836 2.974235
v 2.501498 3.510503 3.001348
v 2.501498 3.493438 2.944459
v 3.423868 3.46971 2.951579
v 3.423868 3.486776 3.008464
v 2.970533 3.54836 2.974235
v 2.970533 3.531294 2.917354
v 1.004448 1.360037 -3.643084
v 1.71772 1.366977 -3.641001
v 1.704773 1.748083 -3.526671
v 1.290879 1.827823 -3.502745
v 0.8908389 1.727145 -3.532949
v 1.704773 1.733024 -3.476469
v 1.704773 1.748083 -3.526671
v 1.71772 1.366977 -3.641001
v 1.71772 1.351918 -3.590803
v 1.004448 1.344978 -3.592886
v 1.004448 1.360037 -3.643084
v 0.8908389 1.727145 -3.532949
v 0.8908389 1.712086 -3.482751
v 1.71772 1.351918 -3.590803
v 1.71772 1.366977 -3.641001
v 1.004448 1.360037 -3.643084
v 1.004448 1.344978 -3.592886
v 1.290879 1.812763 -3.452551
v 1.290879 1.827823 -3.502745
v 1.704773 1.748083 -3.526671
v 1.704773 1.733024 -3.476469
v 0.8908389 1.712086 -3.482751
v 0.8908389 1.727145 -3.532949
v 1.290879 1.827823 -3.502745
v 1.290879 1.812763 -3.452551
v 3.42101 2.365017 -3.341129
v 2.937177 1.903605 -3.479555
v 3.423867 1.976238 -3.457763
v 2.960835 2.414276 -3.326351
v 2.460167 2.005739 -3.448912
v 2.592984 2.414276 -3.326349
v 3.42101 2.349554 -3.289585
v 3.42101 2.365017 -3.341129
v 3.423867 1.976238 -3.457763
v 3.423867 1.960775 -3.406219
v 3.423867 1.960775 -3.406219
v 3.423867 1.976238 -3.457763
v 2.937177 1.903605 -3.479555
v 2.937177 1.888142 -3.428011
v 2.592984 2.398813 -3.274805
v 2.592984 2.414276 -3.326349
v 2.960835 2.414276 -3.326351
v 2.960835 2.398813 -3.274806
v 2.960835 2.398813 -3.274806
v 2.960835 2.414276 -3.326351
v 3.42101 2.365017 -3.341129
v 3.42101 2.349554 -3.289585
v 2.937177 1.888142 -3.428011
v 2.937177 1.903605 -3.479555
v 2.460167 2.005739 -3.448912
v 2.460167 1.990276 -3.397368
v 2.460167 1.990276 -3.397368
v 2.460167 2.005739 -3.448912
v 2.592984 2.414276 -3.326349
v 2.592984 2.398813 -3.274805
v -1.867014 3.285133 -3.065476
v -1.711308 3.718669 -2.935416
v -2.180343 3.756526 -2.908303
v -2.504933 3.278927 -3.067338
v -2.633678 3.694942 -2.942532
v -1.711308 3.701604 -2.878527
v -1.711308 3.718669 -2.935416
v -1.867014 3.285133 -3.065476
v -1.867014 3.268068 -3.008591
v -2.504933 3.261861 -3.010453
v -2.504933 3.278927 -3.067338
v -2.633678 3.694942 -2.942532
v -2.633678 3.677876 -2.885647
v -1.867014 3.268068 -3.008591
v -1.867014 3.285133 -3.065476
v -2.504933 3.278927 -3.067338
v -2.504933 3.261861 -3.010453
v -2.180343 3.739461 -2.851422
v -2.180343 3.756526 -2.908303
v -1.711308 3.718669 -2.935416
v -1.711308 3.701604 -2.878527
v -2.633678 3.677876 -2.885647
v -2.633678 3.694942 -2.942532
v -2.180343 3.756526 -2.908303
v -2.180343 3.739461 -2.851422

vn 3.333593E-07 0.2873482 0.9578261
vn 3.333593E-07 0.2873482 0.9578261
vn 3.333593E-07 0.2873482 0.9578261
vn 3.333593E-07 0.2873482 0.9578261
vn -1 -1.907349E-07 -1.76021E-07
vn -1 -1.907349E-07 -1.76021E-07
vn -1 -1.907349E-07 -1.76021E-07
vn -1 -1.907349E-07 -1.76021E-07
vn 1 0 -1.173473E-07
vn 1 0 -1.173473E-07
vn 1 0 -1.173473E-07
vn 1 0 -1.173473E-07
vn -5.297218E-07 0.287348 -0.9578263
vn -5.297218E-07 0.287348 -0.9578263
vn -5.297218E-07 0.287348 -0.9578263
vn -5.297218E-07 0.287348 -0.9578263
vn 0 1 0
vn 0 1 0
vn 0 1 0
vn 0 1 0
vn 0 -1 0
vn 0 -1 0
vn 0 -1 0
vn 0 -1 0
vn 1.1808E-06 0.2873508 0.9578254
vn 1.1808E-06 0.2873508 0.9578254
vn 1.1808E-06 0.2873508 0.9578254
vn 1.1808E-06 0.2873508 0.9578254
vn 1.1808E-06 0.2873508 0.9578254
vn -0.999471 0.03115087 -0.009344582
vn -0.999471 0.03115087 -0.009344582
vn -0.999471 0.03115087 -0.009344582
vn -0.999471 0.03115087 -0.009344582
vn 0.9587657 -0.2722121 0.08166333
vn 0.9587657 -0.2722121 0.08166333
vn 0.9587657 -0.2722121 0.08166333
vn 0.9587657 -0.2722121 0.08166333
vn -0.01015757 -0.9577758 0.2873367
vn -0.01015757 -0.9577758 0.2873367
vn -0.01015757 -0.9577758 0.2873367
vn -0.01015757 -0.9577758 0.2873367
vn -0.1971908 0.9390196 -0.2817051
vn -0.1971908 0.9390196 -0.2817051
vn -0.1971908 0.9390196 -0.2817051
vn -0.1971908 0.9390196 -0.2817051
vn 0.2541231 0.9263801 -0.277923
vn 0.2541231 0.9263801 -0.277923
vn 0.2541231 0.9263801 -0.277923
vn 0.2541231 0.9263801 -0.277923
vn -1.743902E-06 0.2873528 0.9578248
vn -1.743902E-06 0.2873528 0.9578248
vn -1.743902E-06 0.2873528 0.9578248
vn -1.743902E-06 0.2873528 0.9578248
vn 3.16937E-06 0.2873532 0.9578248
vn 3.16937E-06 0.2873532 0.9578248
vn -0.9999752 0.006742223 -0.002024718
vn -0.9999752 0.006742223 -0.002024718
vn -0.9999752 0.006742223 -0.002024718
vn -0.9999752 0.006742223 -0.002024718
vn -0.1539548 -0.9464076 0.2839201
vn -0.1539548 -0.9464076 0.2839201
vn -0.1539548 -0.9464076 0.2839201
vn -0.1539548 -0.9464076 0.2839201
vn -4.482682E-07 0.9578274 -0.2873439
vn -4.482682E-07 0.9578274 -0.2873439
vn -4.482682E-07 0.9578274 -0.2873439
vn -4.482682E-07 0.9578274 -0.2873439
vn -0.1110667 0.951901 -0.2855677
vn -0.1110667 0.951901 -0.2855677
vn -0.1110667 0.951901 -0.2855677
vn -0.1110667 0.951901 -0.2855677
vn 0.2181598 -0.9347557 0.2804248
vn 0.2181598 -0.9347557 0.2804248
vn 0.2181598 -0.9347557 0.2804248
vn 0.2181598 -0.9347557 0.2804248
vn 0.9547808 0.2847725 -0.08543014
vn 0.9547808 0.2847725 -0.08543014
vn 0.9547808 0.2847725 -0.08543014
vn 0.9547808 0.2847725 -0.08543014
vn 0.0005039332 0.3052197 0.9522818
vn 0.0005039332 0.3052197 0.9522818
vn 0.0005039332 0.3052197 0.9522818
vn 0.0005039332 0.3052197 0.9522818
vn 0.0005039332 0.3052197 0.9522818
vn -0.9456122 -0.3115772 0.09347295
vn -0.9456122 -0.3115772 0.09347295
vn -0.9456122 -0.3115772 0.09347295
vn -0.9456122 -0.3115772 0.09347295
vn 0.9587661 -0.2722099 0.08166519
vn 0.9587661 -0.2722099 0.08166519
vn 0.9587661 -0.2722099 0.08166519
vn 0.9587661 -0.2722099 0.08166519
vn -0.01015744 -0.9577751 0.287339
vn -0.01015744 -0.9577751 0.287339
vn -0.01015744 -0.9577751 0.287339
vn -0.01015744 -0.9577751 0.287339
vn -0.09350549 0.9536297 -0.2860892
vn -0.09350549 0.9536297 -0.2860892
vn -0.09350549 0.9536297 -0.2860892
vn -0.09350549 0.9536297 -0.2860892
vn 0.1500929 0.9469718 -0.2841064
vn 0.1500929 0.9469718 -0.2841064
vn 0.1500929 0.9469718 -0.2841064
vn 0.1500929 0.9469718 -0.2841064
vn -1.533937E-06 0.2873515 -0.9578252
vn -1.533937E-06 0.2873515 -0.9578252
vn -1.533937E-06 0.2873515 -0.9578252
vn -1.533937E-06 0.2873515 -0.9578252
vn -1.533937E-06 0.2873515 -0.9578252
vn 0.999471 0.03115089 0.009344588
vn 0.999471 0.03115089 0.009344588
vn 0.999471 0.03115089 0.009344588
vn 0.999471 0.03115089 0.009344588
vn -0.9587659 -0.2722108 -0.08166553
vn -0.9587659 -0.2722108 -0.08166553
vn -0.9587659 -0.2722108 -0.08166553
vn -0.9587659 -0.2722108 -0.08166553
vn 0.01015776 -0.9577758 -0.2873367
vn 0.01015776 -0.9577758 -0.2873367
vn 0.01015776 -0.9577758 -0.2873367
vn 0.01015776 -0.9577758 -0.2873367
vn 0.1971906 0.9390197 0.281705
vn 0.1971906 0.9390197 0.281705
vn 0.1971906 0.9390197 0.281705
vn 0.1971906 0.9390197 0.281705
vn -0.2541238 0.9263796 0.2779242
vn -0.2541238 0.9263796 0.2779242
vn -0.2541238 0.9263796 0.2779242
vn -0.2541238 0.9263796 0.2779242
vn 1.609758E-06 0.2873521 -0.9578251
vn 1.609758E-06 0.2873521 -0.9578251
vn 1.609758E-06 0.2873521 -0.9578251
vn 1.609758E-06 0.2873521 -0.9578251
vn -4.177809E-06 0.2873534 -0.9578246
vn -4.177809E-06 0.2873534 -0.9578246
vn 0.9999752 0.006742228 0.002019261
vn 0.9999752 0.006742228 0.002019261
vn 0.9999752 0.006742228 0.002019261
vn 0.9999752 0.006742228 0.002019261
vn 0.1539545 -0.9464077 -0.2839196
vn 0.1539545 -0.9464077 -0.2839196
vn 0.1539545 -0.9464077 -0.2839196
vn 0.1539545 -0.9464077 -0.2839196
vn 8.597055E-07 0.957827 0.2873455
vn 8.597055E-07 0.957827 0.2873455
vn 8.597055E-07 0.957827 0.2873455
vn 8.597055E-07 0.957827 0.2873455
vn 0.1110655 0.951901 0.285568
vn 0.1110655 0.951901 0.285568
vn 0.1110655 0.951901 0.285568
vn 0.1110655 0.951901 0.285568
vn -0.2181587 -0.9347571 -0.280421
vn -0.2181587 -0.9347571 -0.280421
vn -0.2181587 -0.9347571 -0.280421
vn -0.2181587 -0.9347571 -0.280421
vn -0.9547804 0.2847738 0.08543015
vn -0.9547804 0.2847738 0.08543015
vn -0.9547804 0.2847738 0.08543015
vn -0.9547804 0.2847738 0.08543015
vn -0.0005041737 0.3052198 -0.9522818
vn -0.0005041737 0.3052198 -0.9522818
vn -0.0005041737 0.3052198 -0.9522818
vn -0.0005041737 0.3052198 -0.9522818
vn -0.0005041737 0.3052198 -0.9522818
vn 0.9456115 -0.3115798 -0.09347069
vn 0.9456115 -0.3115798 -0.09347069
vn 0.9456115 -0.3115798 -0.09347069
vn 0.9456115 -0.3115798 -0.09347069
vn -0.9587656 -0.2722108 -0.08166956
vn -0.9587656 -0.2722108 -0.08166956
vn -0.9587656 -0.2722108 -0.08166956
vn -0.9587656 -0.2722108 -0.08166956
vn 0.01015702 -0.9577757 -0.2873372
vn 0.01015702 -0.9577757 -0.2873372
vn 0.01015702 -0.9577757 -0.2873372
vn 0.01015702 -0.9577757 -0.2873372
vn 0.09350432 0.9536301 0.2860884
vn 0.09350432 0.9536301 0.2860884
vn 0.09350432 0.9536301 0.2860884
vn 0.09350432 0.9536301 0.2860884
vn -0.1500929 0.9469718 0.2841064
vn -0.1500929 0.9469718 0.2841064
vn -0.1500929 0.9469718 0.2841064
vn -0.1500929 0.9469718 0.2841064

vt 0.4513184 0.6694596
vt 0.4238457 0.6805931
vt 0.4296567 0.694932
vt 0.4571293 0.6837985
vt 0.4628776 0.660179
vt 0.4513184 0.6694596
vt 0.4571293 0.6837985
vt 0.4756219 0.6689514
vt 0.4238457 0.6805931
vt 0.4090868 0.6819782
vt 0.4060451 0.697148
vt 0.4296567 0.694932
vt 0.4628776 0.660179
vt 0.4756219 0.6689514
vt 0.4924293 0.6445338
vt 0.4796849 0.6357614
vt 0.4826549 0.8547282
vt 0.4826549 0.7797089
vt 0.4451394 0.7797089
vt 0.4451394 0.8547282
vt 0.4088149 0.7266611
vt 0.4324265 0.7244453
vt 0.4296567 0.694932
vt 0.4060451 0.697148
vt 0.5887413 0.6779312
vt 0.5884271 0.6791503
vt 0.589457 0.6794915
vt 0.5905804 0.6780958
vt 0.5899495 0.6772839
vt 0.5899734 0.6770615
vt 0.5899495 0.6772839
vt 0.5905804 0.6780958
vt 0.5907905 0.6780705
vt 0.5895298 0.6796904
vt 0.589457 0.6794915
vt 0.5884271 0.6791503
vt 0.5882183 0.6792902
vt 0.5907905 0.6780705
vt 0.5905804 0.6780958
vt 0.589457 0.6794915
vt 0.5895298 0.6796904
vt 0.5885501 0.677803
vt 0.5887413 0.6779312
vt 0.5899495 0.6772839
vt 0.5899734 0.6770615
vt 0.5882183 0.6792902
vt 0.5884271 0.6791503
vt 0.5887413 0.6779312
vt 0.5885501 0.677803
vt 0.5971611 0.6699635
vt 0.5964018 0.6680887
vt 0.5962828 0.6695086
vt 0.5980386 0.6688045
vt 0.5973719 0.6670756
vt 0.5982134 0.667767
vt 0.5972248 0.6701615
vt 0.5971611 0.6699635
vt 0.5962828 0.6695086
vt 0.5961059 0.6696256
vt 0.5961059 0.6696256
vt 0.5962828 0.6695086
vt 0.5964018 0.6680887
vt 0.5961897 0.6679883
vt 0.5983742 0.6677091
vt 0.5982134 0.667767
vt 0.5980386 0.6688045
vt 0.5982245 0.6688772
vt 0.5982245 0.6688772
vt 0.5980386 0.6688045
vt 0.5971611 0.6699635
vt 0.5972248 0.6701615
vt 0.4746076 0.6704297
vt 0.4748198 0.6705301
vt 0.4757899 0.669517
vt 0.4757936 0.6692858
vt 0.5973756 0.6668444
vt 0.5973719 0.6670756
vt 0.5982134 0.667767
vt 0.5983742 0.6677091
vt 0.5906789 0.6754259
vt 0.5902714 0.676793
vt 0.5913889 0.6771637
vt 0.5924597 0.6758195
vt 0.591952 0.6747963
vt 0.5920029 0.6745579
vt 0.591952 0.6747963
vt 0.5924597 0.6758195
vt 0.5926945 0.6758186
vt 0.5914728 0.6773881
vt 0.5913889 0.6771637
vt 0.5902714 0.676793
vt 0.5899943 0.6769413
vt 0.5926945 0.6758186
vt 0.5924597 0.6758195
vt 0.5913889 0.6771637
vt 0.5914728 0.6773881
vt 0.5905098 0.6752853
vt 0.5906789 0.6754259
vt 0.591952 0.6747963
vt 0.5920029 0.6745579
vt 0.5899943 0.6769413
vt 0.5902714 0.676793
vt 0.5906789 0.6754259
vt 0.5905098 0.6752853
vt 0.5876163 0.6817994
vt 0.588771 0.6803815
vt 0.5881104 0.6795818
vt 0.5869141 0.6802717
vt 0.5866047 0.6814691
vt 0.5881281 0.6793564
vt 0.5881104 0.6795818
vt 0.588771 0.6803815
vt 0.588989 0.6803541
vt 0.5876759 0.682041
vt 0.5876163 0.6817994
vt 0.5866047 0.6814691
vt 0.5864225 0.681565
vt 0.588989 0.6803541
vt 0.588771 0.6803815
vt 0.5876163 0.6817994
vt 0.5876759 0.682041
vt 0.5867249 0.6801478
vt 0.5869141 0.6802717
vt 0.5881104 0.6795818
vt 0.5881281 0.6793564
vt 0.5864225 0.681565
vt 0.5866047 0.6814691
vt 0.5869141 0.6802717
vt 0.5867249 0.6801478
vt 0.5952678 0.6723959
vt 0.5945085 0.6705211
vt 0.5943895 0.6719409
vt 0.5961453 0.6712368
vt 0.5954787 0.6695079
vt 0.5963202 0.6701993
vt 0.5953315 0.672594
vt 0.5952678 0.6723959
vt 0.5943895 0.6719409
vt 0.5942126 0.672058
vt 0.5942126 0.672058
vt 0.5943895 0.6719409
vt 0.5945085 0.6705211
vt 0.5942965 0.6704206
vt 0.5964809 0.6701415
vt 0.5963202 0.6701993
vt 0.5961453 0.6712368
vt 0.5963312 0.6713096
vt 0.5963312 0.6713096
vt 0.5961453 0.6712368
vt 0.5952678 0.6723959
vt 0.5953315 0.672594
vt 0.5942965 0.6704206
vt 0.5945085 0.6705211
vt 0.5954787 0.6695079
vt 0.5954823 0.6692767
vt 0.5954823 0.6692767
vt 0.5954787 0.6695079
vt 0.5963202 0.6701993
vt 0.5964809 0.6701415
vt 0.594439 0.6732767
vt 0.5939313 0.6722535
vt 0.5926582 0.6728832
vt 0.5933681 0.674621
vt 0.5922506 0.6742503
vt 0.5939822 0.672015
vt 0.5939313 0.6722535
vt 0.594439 0.6732767
vt 0.5946738 0.6732758
vt 0.5934521 0.6748453
vt 0.5933681 0.674621
vt 0.5922506 0.6742503
vt 0.5919735 0.6743985
vt 0.5946738 0.6732758
vt 0.594439 0.6732767
vt 0.5933681 0.674621
vt 0.5934521 0.6748453
vt 0.5924891 0.6727425
vt 0.5926582 0.6728832
vt 0.5939313 0.6722535
vt 0.5939822 0.672015
vt 0.5919735 0.6743985
vt 0.5922506 0.6742503
vt 0.5926582 0.6728832
vt 0.5924891 0.6727425

usemtl LOW-POLY-COLORS
usemap LOW-POLY-COLORS
f 2/2/2 1/1/1 3/3/3
f 3/3/3 1/1/1 4/4/4
f 6/6/6 5/5/5 7/7/7
f 7/7/7 5/5/5 8/8/8
f 10/10/10 9/9/9 11/11/11
f 11/11/11 9/9/9 12/12/12
f 14/14/14 13/13/13 15/15/15
f 15/15/15 13/13/13 16/16/16
f 18/18/18 17/17/17 19/19/19
f 19/19/19 17/17/17 20/20/20
f 22/22/22 21/21/21 23/23/23
f 23/23/23 21/21/21 24/24/24
f 26/26/26 25/25/25 27/27/27
f 28/28/28 27/27/27 25/25/25
f 29/29/29 28/28/28 25/25/25
f 31/31/31 30/30/30 32/32/32
f 32/32/32 30/30/30 33/33/33
f 35/35/35 34/34/34 36/36/36
f 36/36/36 34/34/34 37/37/37
f 39/39/39 38/38/38 40/40/40
f 40/40/40 38/38/38 41/41/41
f 43/43/43 42/42/42 44/44/44
f 44/44/44 42/42/42 45/45/45
f 47/47/47 46/46/46 48/48/48
f 48/48/48 46/46/46 49/49/49
f 51/51/51 50/50/50 52/52/52
f 53/53/53 50/50/50 51/51/51
f 54/54/54 53/53/53 51/51/51
f 55/55/55 53/53/53 54/54/54
f 57/57/57 56/56/56 58/58/58
f 58/58/58 56/56/56 59/59/59
f 61/61/61 60/60/60 62/62/62
f 62/62/62 60/60/60 63/63/63
f 65/65/65 64/64/64 66/66/66
f 66/66/66 64/64/64 67/67/67
f 69/69/69 68/68/68 70/70/70
f 70/70/70 68/68/68 71/71/71
f 73/73/73 72/72/72 74/74/74
f 74/74/74 72/72/72 75/75/75
f 77/77/77 76/76/76 78/78/78
f 78/78/78 76/76/76 79/79/79
f 81/81/81 80/80/80 82/82/82
f 83/83/83 82/82/82 80/80/80
f 84/84/84 83/83/83 80/80/80
f 86/86/86 85/85/85 87/87/87
f 87/87/87 85/85/85 88/88/88
f 90/90/90 89/89/89 91/91/91
f 91/91/91 89/89/89 92/92/92
f 94/94/94 93/93/93 95/95/95
f 95/95/95 93/93/93 96/96/96
f 98/98/98 97/97/97 99/99/99
f 99/99/99 97/97/97 100/100/100
f 102/102/102 101/101/101 103/103/103
f 103/103/103 101/101/101 104/104/104
f 106/106/106 105/105/105 107/107/107
f 108/108/108 107/107/107 105/105/105
f 109/109/109 108/108/108 105/105/105
f 111/111/111 110/110/110 112/112/112
f 112/112/112 110/110/110 113/113/113
f 115/115/115 114/114/114 116/116/116
f 116/116/116 114/114/114 117/117/117
f 119/119/119 118/118/118 120/120/120
f 120/120/120 118/118/118 121/121/121
f 123/123/123 122/122/122 124/124/124
f 124/124/124 122/122/122 125/125/125
f 127/127/127 126/126/126 128/128/128
f 128/128/128 126/126/126 129/129/129
f 131/131/131 130/130/130 132/132/132
f 133/133/133 130/130/130 131/131/131
f 134/134/134 133/133/133 131/131/131
f 135/135/135 133/133/133 134/134/134
f 137/137/137 136/136/136 138/138/138
f 138/138/138 136/136/136 139/139/139
f 141/141/141 140/140/140 142/142/142
f 142/142/142 140/140/140 143/143/143
f 145/145/145 144/144/144 146/146/146
f 146/146/146 144/144/144 147/147/147
f 149/149/149 148/148/148 150/150/150
f 150/150/150 148/148/148 151/151/151
f 153/153/153 152/152/152 154/154/154
f 154/154/154 152/152/152 155/155/155
f 157/157/157 156/156/156 158/158/158
f 158/158/158 156/156/156 159/159/159
f 161/161/161 160/160/160 162/162/162
f 163/163/163 162/162/162 160/160/160
f 164/164/164 162/162/162 163/163/163
f 166/166/166 165/165/165 167/167/167
f 167/167/167 165/165/165 168/168/168
f 170/170/170 169/169/169 171/171/171
f 171/171/171 169/169/169 172/172/172
f 174/174/174 173/173/173 175/175/175
f 175/175/175 173/173/173 176/176/176
f 178/178/178 177/177/177 179/179/179
f 179/179/179 177/177/177 180/180/180
f 182/182/182 181/181/181 183/183/183
f 183/183/183 181/181/181 184/184/184
