mtllib ./japan-flag_big_22.mtl
g japan-flag_big
v 0.002274144 4.497493 -0.1084058
v -0.4269551 4.567885 -0.06564497
v -0.4269551 4.497493 -0.1084058
v 0.002274147 4.567885 -0.06564502
v 0.4315034 4.497493 -0.1084059
v 0.4315034 4.567885 -0.06564505
v 0.002274091 1.791324 -0.09470725
v 0.4315034 1.568677 -0.1038165
v 0.4315034 2.832801 -0.08922159
v 0.002274144 2.832801 -0.08922155
v -0.4269551 2.832801 -0.08922151
v -0.4269551 1.568677 -0.1038164
v -0.4269551 3.892775 -0.09643236
v 0.007822623 3.892775 -0.0964324
v -0.4269551 4.497493 -0.1084058
v 0.4315034 3.892775 -0.09643245
v 0.002274144 4.497493 -0.1084058
v 0.4315034 4.497493 -0.1084059
v 0.4269553 4.474654 0.01326763
v 0.4269553 4.445501 -0.0548121
v -0.4269551 4.445501 -0.05481199
v -0.4269551 4.474654 0.01326774
v 0.4269553 4.501241 -0.1035754
v 0.4269553 4.564842 -0.06563283
v -0.4269551 4.564842 -0.06563272
v -0.4269551 4.501241 -0.1035753
v 0.4269553 4.54841 0.006580407
v 0.4269553 4.474654 0.01326763
v -0.4269551 4.474654 0.01326774
v -0.4269551 4.54841 0.006580512
v 0.4269553 4.445501 -0.0548121
v 0.4269553 4.501241 -0.1035754
v -0.4269551 4.501241 -0.1035753
v -0.4269551 4.445501 -0.05481199
v 0.4269553 4.564842 -0.06563283
v 0.4269553 4.54841 0.006580407
v -0.4269551 4.54841 0.006580512
v -0.4269551 4.564842 -0.06563272
v -0.4269551 4.474654 0.01326774
v -0.4269551 4.445501 -0.05481199
v -0.4269551 4.501241 -0.1035753
v -0.4269551 4.54841 0.006580512
v -0.4269551 4.564842 -0.06563272
v 0.4269553 4.501241 -0.1035754
v 0.4269553 4.445501 -0.0548121
v 0.4269553 4.474654 0.01326763
v 0.4269553 4.54841 0.006580407
v 0.4269553 4.564842 -0.06563283
v 0.05000011 -3.581123E-05 0.002103027
v -0.04999989 -3.581123E-05 0.002103191
v -0.04999989 -3.5821E-05 0.06210319
v 0.05000012 -3.5821E-05 0.06210302
v 0.05000012 4.899964 0.06210383
v 0.05000011 4.899964 0.00210384
v 0.05000011 -3.581123E-05 0.002103027
v 0.05000012 -3.5821E-05 0.06210302
v 0.05000011 4.899964 0.00210384
v 0.05000012 4.899964 0.06210383
v -0.04999989 4.899964 0.06210401
v -0.04999989 4.899964 0.002104004
v 0.05000011 4.899964 0.00210384
v -0.04999989 4.899964 0.002104004
v -0.04999989 -3.581123E-05 0.002103191
v 0.05000011 -3.581123E-05 0.002103027
v -0.04999989 4.899964 0.002104004
v -0.04999989 4.899964 0.06210401
v -0.04999989 -3.5821E-05 0.06210319
v -0.04999989 -3.581123E-05 0.002103191
v -0.04999989 4.899964 0.06210401
v 0.05000012 4.899964 0.06210383
v 0.05000012 -3.5821E-05 0.06210302
v -0.04999989 -3.5821E-05 0.06210319
v 0.002274144 4.497493 -0.1084058
v -0.4269551 4.497493 -0.1084058
v -0.4269551 4.567885 -0.06564497
v 0.002274147 4.567885 -0.06564502
v 0.4315034 4.497493 -0.1084059
v 0.4315034 4.567885 -0.06564505
v 0.002274091 1.791324 -0.09470725
v 0.4315034 2.832801 -0.08922159
v 0.4315034 1.568677 -0.1038165
v 0.002274144 2.832801 -0.08922155
v -0.4269551 2.832801 -0.08922151
v -0.4269551 1.568677 -0.1038164
v -0.4269551 3.892775 -0.09643236
v 0.007822623 3.892775 -0.0964324
v -0.4269551 4.497493 -0.1084058
v 0.4315034 3.892775 -0.09643245
v 0.002274144 4.497493 -0.1084058
v 0.4315034 4.497493 -0.1084059

vn -2.965945E-07 0.5191799 -0.854665
vn -2.965945E-07 0.5191799 -0.854665
vn -2.965945E-07 0.5191799 -0.854665
vn -2.965945E-07 0.5191799 -0.854665
vn 0 0.5191799 -0.8546649
vn 0 0.5191799 -0.8546649
vn -0.008351764 0.008708866 -0.9999272
vn -0.008351764 0.008708866 -0.9999272
vn -0.008351764 0.008708866 -0.9999272
vn -0.008351764 0.008708866 -0.9999272
vn -1.034251E-07 -0.006802704 -0.9999769
vn 0.008351591 0.008708868 -0.9999272
vn -1.034251E-07 -0.006802704 -0.9999769
vn -1.034251E-07 -0.006802704 -0.9999769
vn 0 -0.01979616 -0.9998041
vn -1.047708E-07 -0.006802702 -0.9999769
vn -1.006645E-07 -0.01979615 -0.9998041
vn -1.006645E-07 -0.01979615 -0.9998041
vn 2.077058E-07 -0.9192654 0.3936383
vn 2.077058E-07 -0.9192654 0.3936383
vn 2.077058E-07 -0.9192654 0.3936383
vn 2.077058E-07 -0.9192654 0.3936383
vn 0 0.5123298 -0.8587887
vn 0 0.5123298 -0.8587887
vn 0 0.5123298 -0.8587887
vn 0 0.5123298 -0.8587887
vn 1.301678E-07 0.09029619 0.995915
vn 1.301678E-07 0.09029619 0.995915
vn 1.301678E-07 0.09029619 0.995915
vn 1.301678E-07 0.09029619 0.995915
vn 0 -0.6584355 -0.7526373
vn 0 -0.6584355 -0.7526373
vn 0 -0.6584355 -0.7526373
vn 0 -0.6584355 -0.7526373
vn 0 0.9750739 0.2218803
vn 0 0.9750739 0.2218803
vn 0 0.9750739 0.2218803
vn 0 0.9750739 0.2218803
vn -1 0 2.960832E-07
vn -1 0 2.960832E-07
vn -1 0 2.960832E-07
vn -1 0 2.960832E-07
vn -1 0 2.960832E-07
vn 1 0 1.973897E-07
vn 1 0 1.973897E-07
vn 1 0 1.973897E-07
vn 1 0 1.973897E-07
vn 1 0 1.973897E-07
vn 0 -1 -1.629208E-07
vn 0 -1 -1.629208E-07
vn 0 -1 -1.629208E-07
vn 0 -1 -1.629208E-07
vn 1 0 0
vn 1 0 0
vn 1 0 0
vn 1 0 0
vn 4.098837E-06 1 0
vn 4.098837E-06 1 0
vn 4.098837E-06 1 0
vn 4.098837E-06 1 0
vn -1.639128E-06 1.660106E-07 -1
vn -1.639128E-06 1.660106E-07 -1
vn -1.639128E-06 1.660106E-07 -1
vn -1.639128E-06 1.660106E-07 -1
vn -1 0 1.013684E-07
vn -1 0 1.013684E-07
vn -1 0 1.013684E-07
vn -1 0 1.013684E-07
vn 1.713634E-06 -1.653573E-07 1
vn 1.713634E-06 -1.653573E-07 1
vn 1.713634E-06 -1.653573E-07 1
vn 1.713634E-06 -1.653573E-07 1
vn 4.215049E-07 -0.5191799 0.854665
vn 4.215049E-07 -0.5191799 0.854665
vn 4.215049E-07 -0.5191799 0.854665
vn 4.215049E-07 -0.5191799 0.854665
vn 0 -0.5191799 0.8546649
vn 0 -0.5191799 0.8546649
vn 0.008351764 -0.008708866 0.9999272
vn 0.008351764 -0.008708866 0.9999272
vn 0.008351764 -0.008708866 0.9999272
vn 0.008351764 -0.008708866 0.9999272
vn 1.016899E-07 0.006802704 0.9999769
vn -0.008351591 -0.008708868 0.9999272
vn 1.016899E-07 0.006802704 0.9999769
vn 1.016899E-07 0.006802704 0.9999769
vn 0 0.01979616 0.9998041
vn 1.030129E-07 0.006802705 0.9999769
vn 1.01099E-07 0.01979615 0.9998041
vn 1.01099E-07 0.01979615 0.9998041

vt 0.2385206 0.537139
vt 0.2415287 0.5214623
vt 0.2385206 0.5214623
vt 0.2415287 0.537139
vt 0.2385206 0.5528157
vt 0.2415287 0.5528157
vt 0.1396776 0.537139
vt 0.1315434 0.5528179
vt 0.1777159 0.5528157
vt 0.1777159 0.537139
vt 0.1777159 0.5214623
vt 0.1315434 0.5214601
vt 0.2164302 0.5214623
vt 0.2164302 0.5373416
vt 0.2385206 0.5214623
vt 0.2164302 0.5528157
vt 0.2385206 0.537139
vt 0.2385206 0.5528157
vt 0.2802209 0.8111107
vt 0.2802209 0.8093206
vt 0.25958 0.8093206
vt 0.25958 0.8111108
vt 0.2802209 0.8164812
vt 0.2802209 0.8146911
vt 0.25958 0.8146911
vt 0.25958 0.8164813
vt 0.2802209 0.8129009
vt 0.2802209 0.8111107
vt 0.25958 0.8111108
vt 0.25958 0.812901
vt 0.2802209 0.8182715
vt 0.2802209 0.8164812
vt 0.25958 0.8164813
vt 0.25958 0.8182715
vt 0.2802209 0.8146911
vt 0.2802209 0.8129009
vt 0.25958 0.812901
vt 0.25958 0.8146911
vt 0.25958 0.8111108
vt 0.25958 0.8093206
vt 0.2578773 0.8087674
vt 0.2578774 0.811664
vt 0.2568251 0.8102157
vt 0.2819235 0.8087674
vt 0.2802209 0.8093206
vt 0.2802209 0.8111107
vt 0.2819235 0.811664
vt 0.2829757 0.8102157
vt 0.2581729 0.8045151
vt 0.2581729 0.8067614
vt 0.2568251 0.8067614
vt 0.2568251 0.8045151
vt 0.3682337 0.8025947
vt 0.3682237 0.8045154
vt 0.2581729 0.8045151
vt 0.258183 0.8025943
vt 0.3682237 0.8045154
vt 0.3695713 0.8045155
vt 0.3695713 0.8067614
vt 0.3682237 0.8067614
vt 0.3682237 0.8045154
vt 0.3682237 0.8067614
vt 0.2581729 0.8067614
vt 0.2581729 0.8045151
vt 0.3682237 0.8067614
vt 0.3682137 0.8086821
vt 0.2581629 0.8086821
vt 0.2581729 0.8067614
vt 0.3682337 0.8003488
vt 0.3682337 0.8025947
vt 0.258183 0.8025943
vt 0.258183 0.8003479
vt 0.2385206 0.5771781
vt 0.2385206 0.5615013
vt 0.2415287 0.5615013
vt 0.2415287 0.5771781
vt 0.2385206 0.5928547
vt 0.2415287 0.5928547
vt 0.1396776 0.5771781
vt 0.1777159 0.5928547
vt 0.1315434 0.592857
vt 0.1777159 0.5771781
vt 0.1777159 0.5615014
vt 0.1315434 0.5614991
vt 0.2164302 0.5615014
vt 0.2164302 0.5773807
vt 0.2385206 0.5615013
vt 0.2164302 0.5928547
vt 0.2385206 0.5771781
vt 0.2385206 0.5928547

usemtl LOW-POLY-COLORS
usemap LOW-POLY-COLORS
f 2/2/2 1/1/1 3/3/3
f 4/4/4 1/1/1 2/2/2
f 4/4/4 5/5/5 1/1/1
f 6/6/6 5/5/5 4/4/4
f 8/8/8 7/7/7 9/9/9
f 9/9/9 7/7/7 10/10/10
f 10/10/10 7/7/7 11/11/11
f 11/11/11 7/7/7 12/12/12
f 13/13/13 10/10/10 11/11/11
f 14/14/14 9/9/9 10/10/10
f 14/14/14 10/10/10 13/13/13
f 15/15/15 14/14/14 13/13/13
f 16/16/16 9/9/9 14/14/14
f 17/17/17 14/14/14 15/15/15
f 17/17/17 16/16/16 14/14/14
f 18/18/18 16/16/16 17/17/17
f 20/20/20 19/19/19 21/21/21
f 21/21/21 19/19/19 22/22/22
f 24/24/24 23/23/23 25/25/25
f 25/25/25 23/23/23 26/26/26
f 28/28/28 27/27/27 29/29/29
f 29/29/29 27/27/27 30/30/30
f 32/32/32 31/31/31 33/33/33
f 33/33/33 31/31/31 34/34/34
f 36/36/36 35/35/35 37/37/37
f 37/37/37 35/35/35 38/38/38
f 40/40/40 39/39/39 41/41/41
f 42/42/42 41/41/41 39/39/39
f 43/43/43 41/41/41 42/42/42
f 45/45/45 44/44/44 46/46/46
f 47/47/47 46/46/46 44/44/44
f 48/48/48 47/47/47 44/44/44
f 50/50/50 49/49/49 51/51/51
f 51/51/51 49/49/49 52/52/52
f 54/54/54 53/53/53 55/55/55
f 55/55/55 53/53/53 56/56/56
f 58/58/58 57/57/57 59/59/59
f 59/59/59 57/57/57 60/60/60
f 62/62/62 61/61/61 63/63/63
f 63/63/63 61/61/61 64/64/64
f 66/66/66 65/65/65 67/67/67
f 67/67/67 65/65/65 68/68/68
f 70/70/70 69/69/69 71/71/71
f 71/71/71 69/69/69 72/72/72
f 74/74/74 73/73/73 75/75/75
f 75/75/75 73/73/73 76/76/76
f 73/73/73 77/77/77 76/76/76
f 76/76/76 77/77/77 78/78/78
f 80/80/80 79/79/79 81/81/81
f 82/82/82 79/79/79 80/80/80
f 83/83/83 79/79/79 82/82/82
f 84/84/84 79/79/79 83/83/83
f 83/83/83 82/82/82 85/85/85
f 82/82/82 80/80/80 86/86/86
f 85/85/85 82/82/82 86/86/86
f 85/85/85 86/86/86 87/87/87
f 86/86/86 80/80/80 88/88/88
f 87/87/87 86/86/86 89/89/89
f 86/86/86 88/88/88 89/89/89
f 89/89/89 88/88/88 90/90/90
