mtllib ./shrub-round_red_23.mtl
g shrub-round_red
v -0.6795676 0.8989998 0.01440492
v -0.737859 0.436475 -0.2240313
v -0.4771062 0.9514781 -0.4368964
v -0.2656811 -0.2192454 0.1489372
v -0.2656909 -0.1973049 -0.1947216
v -0.6795634 0.1149148 0.01041688
v 0.2008103 1.211381 0.2831507
v 0.2639896 1.23315 -0.1241415
v 0.6778748 0.8989998 0.01440492
v -0.2656849 1.233514 -0.05397633
v -0.0008464002 1.185152 -0.3803947
v 0.2639896 1.23315 -0.1241415
v 0.06838237 -0.2185507 0.2771002
v 0.2640042 0.3078029 0.7209468
v 0.4449748 0.03184621 0.4613446
v 0.2008103 1.211381 0.2831507
v 0.4449954 0.9553879 0.4952532
v -0.0008464002 0.9010826 0.6985154
v 0.7245153 0.5082782 0.2806456
v 0.6778677 0.1155488 0.150508
v 0.4449748 0.03184621 0.4613446
v -0.7262082 0.5082782 0.2806456
v -0.6795676 0.8989998 0.01440492
v -0.4466883 0.9553879 0.4952532
v -0.4466872 0.05838357 -0.4707957
v -0.2656909 -0.1973049 -0.1947216
v -0.0008464002 0.1125975 -0.6742914
v -0.0008464002 1.185152 -0.3803947
v -0.2656952 0.7060502 -0.6962817
v 0.1376189 0.7692283 -0.719646
v -0.4466872 0.05838357 -0.4707957
v -0.2656995 0.365492 -0.720649
v -0.737859 0.436475 -0.2240313
v 0.6778748 0.8989998 0.01440492
v 0.7245153 0.5082782 0.2806456
v 0.4449954 0.9553879 0.4952532
v 0.2640042 0.3078029 0.7209468
v 0.2640131 0.6482503 0.7450317
v 0.7245153 0.5082782 0.2806456
v 0.06838237 -0.2185507 0.2771002
v -0.4771086 0.06234197 0.461477
v -0.1393124 0.2445809 0.7441993
v -0.0008464002 1.185152 -0.3803947
v -0.4771062 0.9514781 -0.4368964
v -0.2656952 0.7060502 -0.6962817
v 0.2640063 0.4348135 -0.7204353
v 0.7245051 0.6443847 -0.2551278
v 0.4754133 0.9514781 -0.4368964
v -0.4466883 0.9553879 0.4952532
v -0.1393116 1.234703 0.2831607
v -0.0008464002 0.9010826 0.6985154
v -0.2657044 0.5789891 0.7449715
v -0.7262082 0.5082782 0.2806456
v -0.4466883 0.9553879 0.4952532
v 0.4449954 0.9553879 0.4952532
v 0.2008103 1.211381 0.2831507
v 0.6778748 0.8989998 0.01440492
v 0.2008103 1.211381 0.2831507
v -0.2656849 1.233514 -0.05397633
v 0.2639896 1.23315 -0.1241415
v -0.2657044 0.5789891 0.7449715
v -0.4771086 0.06234197 0.461477
v -0.7262082 0.5082782 0.2806456
v 0.2640131 0.6482503 0.7450317
v -0.0008464002 0.9010826 0.6985154
v 0.4449954 0.9553879 0.4952532
v 0.3903697 -0.1731724 0.009024755
v 0.7011968 0.240633 -0.1929735
v 0.4754343 0.05846591 -0.440142
v -0.737859 0.436475 -0.2240313
v -0.6795634 0.1149148 0.01041688
v -0.4466872 0.05838357 -0.4707957
v -0.4771086 0.06234197 0.461477
v -0.2656811 -0.2192454 0.1489372
v -0.6795634 0.1149148 0.01041688
v 0.4449748 0.03184621 0.4613446
v 0.2640042 0.3078029 0.7209468
v 0.7245153 0.5082782 0.2806456
v 0.2640063 0.4348135 -0.7204353
v -0.0008464002 0.1125975 -0.6742914
v 0.4754343 0.05846591 -0.440142
v 0.3903697 -0.1731724 0.009024755
v 0.6778677 0.1155488 0.150508
v 0.7011968 0.240633 -0.1929735
v -0.0008464002 1.185152 -0.3803947
v 0.4754133 0.9514781 -0.4368964
v 0.2639896 1.23315 -0.1241415
v 0.2640063 0.4348135 -0.7204353
v 0.7011968 0.240633 -0.1929735
v 0.7245051 0.6443847 -0.2551278
v -0.1393116 1.234703 0.2831607
v 0.2008103 1.211381 0.2831507
v -0.0008464002 0.9010826 0.6985154
v -0.2656909 -0.1973049 -0.1947216
v 0.137618 -0.2208869 -0.2585899
v -0.0008464002 0.1125975 -0.6742914
v 0.2640063 0.4348135 -0.7204353
v 0.4754343 0.05846591 -0.440142
v 0.7011968 0.240633 -0.1929735
v -0.2656909 -0.1973049 -0.1947216
v -0.4466872 0.05838357 -0.4707957
v -0.6795634 0.1149148 0.01041688
v 0.06838237 -0.2185507 0.2771002
v -0.1393124 0.2445809 0.7441993
v 0.2640042 0.3078029 0.7209468
v 0.1376189 0.7692283 -0.719646
v 0.2640063 0.4348135 -0.7204353
v 0.4754133 0.9514781 -0.4368964
v -0.4466883 0.9553879 0.4952532
v -0.2656849 1.233514 -0.05397633
v -0.1393116 1.234703 0.2831607
v 0.7245051 0.6443847 -0.2551278
v 0.6778748 0.8989998 0.01440492
v 0.4754133 0.9514781 -0.4368964
v -0.4771086 0.06234197 0.461477
v 0.06838237 -0.2185507 0.2771002
v -0.2656811 -0.2192454 0.1489372
v -0.2656952 0.7060502 -0.6962817
v -0.4771062 0.9514781 -0.4368964
v -0.737859 0.436475 -0.2240313
v -0.2656995 0.365492 -0.720649
v -0.0008464002 0.1125975 -0.6742914
v 0.2640063 0.4348135 -0.7204353
v -0.7262082 0.5082782 0.2806456
v -0.6795634 0.1149148 0.01041688
v -0.737859 0.436475 -0.2240313
v 0.137618 -0.2208869 -0.2585899
v 0.4754343 0.05846591 -0.440142
v -0.0008464002 0.1125975 -0.6742914
v 0.4754343 0.05846591 -0.440142
v 0.137618 -0.2208869 -0.2585899
v 0.3903697 -0.1731724 0.009024755
v -0.2656849 1.233514 -0.05397633
v -0.6795676 0.8989998 0.01440492
v -0.4771062 0.9514781 -0.4368964
v 0.2640042 0.3078029 0.7209468
v -0.2657044 0.5789891 0.7449715
v 0.2640131 0.6482503 0.7450317
v -0.6795676 0.8989998 0.01440492
v -0.7262082 0.5082782 0.2806456
v -0.737859 0.436475 -0.2240313
v -0.4771086 0.06234197 0.461477
v -0.2657044 0.5789891 0.7449715
v -0.1393124 0.2445809 0.7441993
v -0.2656995 0.365492 -0.720649
v -0.2656952 0.7060502 -0.6962817
v -0.737859 0.436475 -0.2240313
v -0.0008464002 1.185152 -0.3803947
v 0.1376189 0.7692283 -0.719646
v 0.4754133 0.9514781 -0.4368964
v -0.2656849 1.233514 -0.05397633
v -0.4466883 0.9553879 0.4952532
v -0.6795676 0.8989998 0.01440492
v -0.1393124 0.2445809 0.7441993
v -0.2657044 0.5789891 0.7449715
v 0.2640042 0.3078029 0.7209468
v 0.2639896 1.23315 -0.1241415
v 0.4754133 0.9514781 -0.4368964
v 0.6778748 0.8989998 0.01440492
v -0.2656909 -0.1973049 -0.1947216
v 0.06838237 -0.2185507 0.2771002
v 0.137618 -0.2208869 -0.2585899
v -0.2656952 0.7060502 -0.6962817
v 0.2640063 0.4348135 -0.7204353
v 0.1376189 0.7692283 -0.719646
v 0.2640131 0.6482503 0.7450317
v 0.4449954 0.9553879 0.4952532
v 0.7245153 0.5082782 0.2806456
v -0.2656849 1.233514 -0.05397633
v -0.4771062 0.9514781 -0.4368964
v -0.0008464002 1.185152 -0.3803947
v -0.2657044 0.5789891 0.7449715
v -0.0008464002 0.9010826 0.6985154
v 0.2640131 0.6482503 0.7450317
v -0.6795634 0.1149148 0.01041688
v -0.7262082 0.5082782 0.2806456
v -0.4771086 0.06234197 0.461477
v 0.6778677 0.1155488 0.150508
v 0.7245153 0.5082782 0.2806456
v 0.7011968 0.240633 -0.1929735
v 0.7011968 0.240633 -0.1929735
v 0.7245153 0.5082782 0.2806456
v 0.7245051 0.6443847 -0.2551278
v -0.2656811 -0.2192454 0.1489372
v 0.06838237 -0.2185507 0.2771002
v -0.2656909 -0.1973049 -0.1947216
v 0.06838237 -0.2185507 0.2771002
v 0.4449748 0.03184621 0.4613446
v 0.3903697 -0.1731724 0.009024755
v -0.2657044 0.5789891 0.7449715
v -0.4466883 0.9553879 0.4952532
v -0.0008464002 0.9010826 0.6985154
v 0.7245153 0.5082782 0.2806456
v 0.6778748 0.8989998 0.01440492
v 0.7245051 0.6443847 -0.2551278
v -0.2656995 0.365492 -0.720649
v 0.2640063 0.4348135 -0.7204353
v -0.2656952 0.7060502 -0.6962817
v -0.4466872 0.05838357 -0.4707957
v -0.0008464002 0.1125975 -0.6742914
v -0.2656995 0.365492 -0.720649
v 0.3903697 -0.1731724 0.009024755
v 0.4449748 0.03184621 0.4613446
v 0.6778677 0.1155488 0.150508
v 0.06838237 -0.2185507 0.2771002
v 0.3903697 -0.1731724 0.009024755
v 0.137618 -0.2208869 -0.2585899
v -0.1393116 1.234703 0.2831607
v -0.2656849 1.233514 -0.05397633
v 0.2008103 1.211381 0.2831507

vn -0.8834512 0.2978015 -0.3617019
vn -0.8834512 0.2978015 -0.3617019
vn -0.8834512 0.2978015 -0.3617019
vn -0.6171936 -0.7852139 -0.05011352
vn -0.6171936 -0.7852139 -0.05011352
vn -0.6171936 -0.7852139 -0.05011352
vn 0.5947855 0.7925319 0.1346228
vn 0.5947855 0.7925319 0.1346228
vn 0.5947855 0.7925319 0.1346228
vn -0.02093092 0.9863839 -0.1631218
vn -0.02093092 0.9863839 -0.1631218
vn -0.02093092 0.9863839 -0.1631218
vn 0.07110205 -0.6583271 0.7493663
vn 0.07110205 -0.6583271 0.7493663
vn 0.07110205 -0.6583271 0.7493663
vn 0.2060485 0.7333452 0.6478803
vn 0.2060485 0.7333452 0.6478803
vn 0.2060485 0.7333452 0.6478803
vn 0.8039503 -0.2709184 0.5294026
vn 0.8039503 -0.2709184 0.5294026
vn 0.8039503 -0.2709184 0.5294026
vn -0.8566008 0.3564578 0.3730587
vn -0.8566008 0.3564578 0.3730587
vn -0.8566008 0.3564578 0.3730587
vn -0.1802648 -0.7777653 -0.6021509
vn -0.1802648 -0.7777653 -0.6021509
vn -0.1802648 -0.7777653 -0.6021509
vn -0.1393569 0.5976259 -0.7895714
vn -0.1393569 0.5976259 -0.7895714
vn -0.1393569 0.5976259 -0.7895714
vn -0.7279976 -0.1201089 -0.6749765
vn -0.7279976 -0.1201089 -0.6749765
vn -0.7279976 -0.1201089 -0.6749765
vn 0.8566008 0.3564577 0.373059
vn 0.8566008 0.3564577 0.373059
vn 0.8566008 0.3564577 0.373059
vn 0.7015483 -0.0503069 0.710844
vn 0.7015483 -0.0503069 0.710844
vn 0.7015483 -0.0503069 0.710844
vn -0.1555717 -0.7351884 0.6597692
vn -0.1555717 -0.7351884 0.6597692
vn -0.1555717 -0.7351884 0.6597692
vn -0.2129339 0.6171464 -0.7574889
vn -0.2129339 0.6171464 -0.7574889
vn -0.2129339 0.6171464 -0.7574889
vn 0.677889 0.1206061 -0.7252038
vn 0.677889 0.1206061 -0.7252038
vn 0.677889 0.1206061 -0.7252038
vn -0.2095277 0.7270517 0.6538302
vn -0.2095277 0.7270517 0.6538302
vn -0.2095277 0.7270517 0.6538302
vn -0.7140141 0.1148803 0.6906418
vn -0.7140141 0.1148803 0.6906418
vn -0.7140141 0.1148803 0.6906418
vn 0.6153631 0.7600598 0.2088954
vn 0.6153631 0.7600598 0.2088954
vn 0.6153631 0.7600598 0.2088954
vn 0.007918497 0.9984772 0.05459511
vn 0.007918497 0.9984772 0.05459511
vn 0.007918497 0.9984772 0.05459511
vn -0.6983762 -0.1028912 0.7082966
vn -0.6983762 -0.1028912 0.7082966
vn -0.6983762 -0.1028912 0.7082966
vn 0.3147338 0.4803261 0.8186754
vn 0.3147338 0.4803261 0.8186754
vn 0.3147338 0.4803261 0.8186754
vn 0.7362205 -0.6480986 -0.1948009
vn 0.7362205 -0.6480986 -0.1948009
vn 0.7362205 -0.6480986 -0.1948009
vn -0.8381063 -0.4123368 -0.3571501
vn -0.8381063 -0.4123368 -0.3571501
vn -0.8381063 -0.4123368 -0.3571501
vn -0.6557575 -0.7252344 0.2098026
vn -0.6557575 -0.7252344 0.2098026
vn -0.6557575 -0.7252344 0.2098026
vn 0.7181756 -0.1649821 0.6760212
vn 0.7181756 -0.1649821 0.6760212
vn 0.7181756 -0.1649821 0.6760212
vn 0.3623345 -0.4171877 -0.8334675
vn 0.3623345 -0.4171877 -0.8334675
vn 0.3623345 -0.4171877 -0.8334675
vn 0.7402236 -0.6463763 -0.185113
vn 0.7402236 -0.6463763 -0.185113
vn 0.7402236 -0.6463763 -0.185113
vn 0.3344315 0.801488 -0.4957543
vn 0.3344315 0.801488 -0.4957543
vn 0.3344315 0.801488 -0.4957543
vn 0.7350705 -0.1444113 -0.6624324
vn 0.7350705 -0.1444113 -0.6624324
vn 0.7350705 -0.1444113 -0.6624324
vn 0.05399814 0.7872178 0.6143063
vn 0.05399814 0.7872178 0.6143063
vn 0.05399814 0.7872178 0.6143063
vn -0.1400184 -0.7945817 -0.5907916
vn -0.1400184 -0.7945817 -0.5907916
vn -0.1400184 -0.7945817 -0.5907916
vn 0.7580262 -0.05798423 -0.6496415
vn 0.7580262 -0.05798423 -0.6496415
vn 0.7580262 -0.05798423 -0.6496415
vn -0.6567107 -0.7170615 -0.233568
vn -0.6567107 -0.7170615 -0.233568
vn -0.6567107 -0.7170615 -0.233568
vn 0.1468748 -0.66899 0.7286153
vn 0.1468748 -0.66899 0.7286153
vn 0.1468748 -0.66899 0.7286153
vn 0.5572457 0.2124977 -0.8026966
vn 0.5572457 0.2124977 -0.8026966
vn 0.5572457 0.2124977 -0.8026966
vn -0.5730563 0.7916166 0.2120131
vn -0.5730563 0.7916166 0.2120131
vn -0.5730563 0.7916166 0.2120131
vn 0.8197632 0.480314 -0.3119078
vn 0.8197632 0.480314 -0.3119078
vn 0.8197632 0.480314 -0.3119078
vn -0.2164857 -0.7936289 0.5685833
vn -0.2164857 -0.7936289 0.5685833
vn -0.2164857 -0.7936289 0.5685833
vn -0.7292715 0.08882411 -0.6784344
vn -0.7292715 0.08882411 -0.6784344
vn -0.7292715 0.08882411 -0.6784344
vn 0.02117545 -0.1587645 -0.9870895
vn 0.02117545 -0.1587645 -0.9870895
vn 0.02117545 -0.1587645 -0.9870895
vn -0.9881333 -0.1472336 0.04375932
vn -0.9881333 -0.1472336 0.04375932
vn -0.9881333 -0.1472336 0.04375932
vn 0.2405172 -0.7164516 -0.6548653
vn 0.2405172 -0.7164516 -0.6548653
vn 0.2405172 -0.7164516 -0.6548653
vn 0.4941148 -0.8072733 -0.3227391
vn 0.4941148 -0.8072733 -0.3227391
vn 0.4941148 -0.8072733 -0.3227391
vn -0.6357138 0.7459804 -0.1984476
vn -0.6357138 0.7459804 -0.1984476
vn -0.6357138 0.7459804 -0.1984476
vn 0.009113079 -0.0705658 0.9974655
vn 0.009113079 -0.0705658 0.9974655
vn 0.009113079 -0.0705658 0.9974655
vn -0.9924856 0.1222357 0.005520928
vn -0.9924856 0.1222357 0.005520928
vn -0.9924856 0.1222357 0.005520928
vn -0.557225 -0.2124607 0.8027208
vn -0.557225 -0.2124607 0.8027208
vn -0.557225 -0.2124607 0.8027208
vn -0.720295 0.04951504 -0.6918985
vn -0.720295 0.04951504 -0.6918985
vn -0.720295 0.04951504 -0.6918985
vn 0.2395331 0.6603055 -0.7117729
vn 0.2395331 0.6603055 -0.7117729
vn 0.2395331 0.6603055 -0.7117729
vn -0.59626 0.7781113 0.1975268
vn -0.59626 0.7781113 0.1975268
vn -0.59626 0.7781113 0.1975268
vn 0.05467897 0.01836105 0.9983352
vn 0.05467897 0.01836105 0.9983352
vn 0.05467897 0.01836105 0.9983352
vn 0.6557549 0.7252224 -0.2098524
vn 0.6557549 0.7252224 -0.2098524
vn 0.6557549 0.7252224 -0.2098524
vn -0.05888519 -0.9982595 -0.003257249
vn -0.05888519 -0.9982595 -0.003257249
vn -0.05888519 -0.9982595 -0.003257249
vn -0.05494924 -0.01841063 -0.9983193
vn -0.05494924 -0.01841063 -0.9983193
vn -0.05494924 -0.01841063 -0.9983193
vn 0.7231468 0.1261403 0.6790782
vn 0.7231468 0.1261403 0.6790782
vn 0.7231468 0.1261403 0.6790782
vn -0.3602975 0.8349295 -0.416027
vn -0.3602975 0.8349295 -0.416027
vn -0.3602975 0.8349295 -0.416027
vn -0.02098053 0.159603 0.9869583
vn -0.02098053 0.159603 0.9869583
vn -0.02098053 0.159603 0.9869583
vn -0.8708948 -0.3442397 0.3507721
vn -0.8708948 -0.3442397 0.3507721
vn -0.8708948 -0.3442397 0.3507721
vn 0.99191 -0.1250511 0.02183085
vn 0.99191 -0.1250511 0.02183085
vn 0.99191 -0.1250511 0.02183085
vn 0.9980838 -0.05996681 -0.01525277
vn 0.9980838 -0.05996681 -0.01525277
vn 0.9980838 -0.05996681 -0.01525277
vn 0.02651013 -0.9976173 -0.06369253
vn 0.02651013 -0.9976173 -0.06369253
vn 0.02651013 -0.9976173 -0.06369253
vn 0.4010651 -0.8515824 0.337571
vn 0.4010651 -0.8515824 0.337571
vn 0.4010651 -0.8515824 0.337571
vn -0.3389952 0.4014721 0.8508245
vn -0.3389952 0.4014721 0.8508245
vn -0.3389952 0.4014721 0.8508245
vn 0.989092 0.1427691 0.03624995
vn 0.989092 0.1427691 0.03624995
vn 0.989092 0.1427691 0.03624995
vn -0.008937021 0.07136558 -0.9974102
vn -0.008937021 0.07136558 -0.9974102
vn -0.008937021 0.07136558 -0.9974102
vn -0.3152296 -0.4801852 -0.8185674
vn -0.3152296 -0.4801852 -0.8185674
vn -0.3152296 -0.4801852 -0.8185674
vn 0.6165855 -0.7423922 0.2620614
vn 0.6165855 -0.7423922 0.2620614
vn 0.6165855 -0.7423922 0.2620614
vn 0.15986 -0.986824 0.02496474
vn 0.15986 -0.986824 0.02496474
vn 0.15986 -0.986824 0.02496474
vn 0.0683794 0.9972335 -0.02914977
vn 0.0683794 0.9972335 -0.02914977
vn 0.0683794 0.9972335 -0.02914977

vt 0.2188275 0.5603094
vt 0.2290814 0.5598654
vt 0.2209089 0.5527021
vt 0.1535249 0.5464811
vt 0.1515569 0.5382482
vt 0.1387251 0.5462401
vt 0.2046567 0.5562741
vt 0.2084998 0.5511832
vt 0.2011855 0.5475622
vt 0.2132412 0.5555206
vt 0.2139016 0.5502364
vt 0.2084998 0.5511832
vt 0.1620757 0.5478904
vt 0.1709738 0.5658084
vt 0.1749855 0.5534742
vt 0.2046567 0.5562741
vt 0.1974822 0.5572851
vt 0.200378 0.5652255
vt 0.1911698 0.5479663
vt 0.1822821 0.5401645
vt 0.1749855 0.5534742
vt 0.2208248 0.5685537
vt 0.2188275 0.5603094
vt 0.2101407 0.5647757
vt 0.1429353 0.5309889
vt 0.1515569 0.5382482
vt 0.1540843 0.5212734
vt 0.2139016 0.5502364
vt 0.2253933 0.5454898
vt 0.2183006 0.5421686
vt 0.2442015 0.5485631
vt 0.2345741 0.5400428
vt 0.2290814 0.5598654
vt 0.2011855 0.5475622
vt 0.1911698 0.5479663
vt 0.1974822 0.5572851
vt 0.182954 0.5691608
vt 0.189254 0.5666553
vt 0.1911698 0.5479663
vt 0.1620757 0.5478904
vt 0.1476664 0.5578388
vt 0.1586994 0.5666428
vt 0.2139016 0.5502364
vt 0.2209089 0.5527021
vt 0.2253933 0.5454898
vt 0.2198839 0.5352117
vt 0.2026754 0.5403283
vt 0.2095246 0.5444949
vt 0.2101407 0.5647757
vt 0.208319 0.5585077
vt 0.200378 0.5652255
vt 0.2039869 0.5734292
vt 0.2208248 0.5685537
vt 0.2101407 0.5647757
vt 0.1974822 0.5572851
vt 0.2046567 0.5562741
vt 0.2011855 0.5475622
vt 0.2046567 0.5562741
vt 0.2132412 0.5555206
vt 0.2084998 0.5511832
vt 0.2039869 0.5734292
vt 0.2201596 0.5841466
vt 0.2208248 0.5685537
vt 0.189254 0.5666553
vt 0.200378 0.5652255
vt 0.1974822 0.5572851
vt 0.169093 0.5392988
vt 0.181095 0.5281938
vt 0.1695151 0.5245773
vt 0.2290814 0.5598654
vt 0.2351471 0.5708092
vt 0.2442015 0.5485631
vt 0.1476664 0.5578388
vt 0.1535249 0.5464811
vt 0.1387251 0.5462401
vt 0.1749855 0.5534742
vt 0.182954 0.5691608
vt 0.1911698 0.5479663
vt 0.2198839 0.5352117
vt 0.2335947 0.5294375
vt 0.2118354 0.5212734
vt 0.169093 0.5392988
vt 0.1822821 0.5401645
vt 0.181095 0.5281938
vt 0.2139016 0.5502364
vt 0.2095246 0.5444949
vt 0.2084998 0.5511832
vt 0.2198839 0.5352117
vt 0.1967562 0.5309927
vt 0.2026754 0.5403283
vt 0.208319 0.5585077
vt 0.2046567 0.5562741
vt 0.200378 0.5652255
vt 0.1515569 0.5382482
vt 0.1609806 0.5345344
vt 0.1540843 0.5212734
vt 0.2198839 0.5352117
vt 0.2118354 0.5212734
vt 0.1967562 0.5309927
vt 0.1515569 0.5382482
vt 0.1429353 0.5309889
vt 0.1387251 0.5462401
vt 0.1620757 0.5478904
vt 0.1586994 0.5666428
vt 0.1709738 0.5658084
vt 0.2183006 0.5421686
vt 0.2198839 0.5352117
vt 0.2095246 0.5444949
vt 0.2101407 0.5647757
vt 0.2132412 0.5555206
vt 0.208319 0.5585077
vt 0.2026754 0.5403283
vt 0.2011855 0.5475622
vt 0.2095246 0.5444949
vt 0.1476664 0.5578388
vt 0.1620757 0.5478904
vt 0.1535249 0.5464811
vt 0.2253933 0.5454898
vt 0.2209089 0.5527021
vt 0.2290814 0.5598654
vt 0.2345741 0.5400428
vt 0.2335947 0.5294375
vt 0.2198839 0.5352117
vt 0.2208248 0.5685537
vt 0.2351471 0.5708092
vt 0.2290814 0.5598654
vt 0.1609806 0.5345344
vt 0.1695151 0.5245773
vt 0.1540843 0.5212734
vt 0.1695151 0.5245773
vt 0.1609806 0.5345344
vt 0.169093 0.5392988
vt 0.2132412 0.5555206
vt 0.2188275 0.5603094
vt 0.2209089 0.5527021
vt 0.182954 0.5691608
vt 0.2039869 0.5734292
vt 0.189254 0.5666553
vt 0.2188275 0.5603094
vt 0.2208248 0.5685537
vt 0.2290814 0.5598654
vt 0.2201596 0.5841466
vt 0.2039869 0.5734292
vt 0.1991531 0.5822179
vt 0.2345741 0.5400428
vt 0.2253933 0.5454898
vt 0.2290814 0.5598654
vt 0.2139016 0.5502364
vt 0.2183006 0.5421686
vt 0.2095246 0.5444949
vt 0.2132412 0.5555206
vt 0.2101407 0.5647757
vt 0.2188275 0.5603094
vt 0.1991531 0.5822179
vt 0.2039869 0.5734292
vt 0.182954 0.5691608
vt 0.2084998 0.5511832
vt 0.2095246 0.5444949
vt 0.2011855 0.5475622
vt 0.1515569 0.5382482
vt 0.1620757 0.5478904
vt 0.1609806 0.5345344
vt 0.2253933 0.5454898
vt 0.2198839 0.5352117
vt 0.2183006 0.5421686
vt 0.189254 0.5666553
vt 0.1974822 0.5572851
vt 0.1911698 0.5479663
vt 0.2132412 0.5555206
vt 0.2209089 0.5527021
vt 0.2139016 0.5502364
vt 0.2039869 0.5734292
vt 0.200378 0.5652255
vt 0.189254 0.5666553
vt 0.2351471 0.5708092
vt 0.2208248 0.5685537
vt 0.2201596 0.5841466
vt 0.1822821 0.5401645
vt 0.1911698 0.5479663
vt 0.1967562 0.5309927
vt 0.1967562 0.5309927
vt 0.1911698 0.5479663
vt 0.2026754 0.5403283
vt 0.1535249 0.5464811
vt 0.1620757 0.5478904
vt 0.1515569 0.5382482
vt 0.1620757 0.5478904
vt 0.1749855 0.5534742
vt 0.169093 0.5392988
vt 0.2039869 0.5734292
vt 0.2101407 0.5647757
vt 0.200378 0.5652255
vt 0.1911698 0.5479663
vt 0.2011855 0.5475622
vt 0.2026754 0.5403283
vt 0.2345741 0.5400428
vt 0.2198839 0.5352117
vt 0.2253933 0.5454898
vt 0.2442015 0.5485631
vt 0.2335947 0.5294375
vt 0.2345741 0.5400428
vt 0.169093 0.5392988
vt 0.1749855 0.5534742
vt 0.1822821 0.5401645
vt 0.1620757 0.5478904
vt 0.169093 0.5392988
vt 0.1609806 0.5345344
vt 0.208319 0.5585077
vt 0.2132412 0.5555206
vt 0.2046567 0.5562741

usemtl LOW-POLY-COLORS
usemap LOW-POLY-COLORS
f 2/2/2 1/1/1 3/3/3
f 5/5/5 4/4/4 6/6/6
f 8/8/8 7/7/7 9/9/9
f 11/11/11 10/10/10 12/12/12
f 14/14/14 13/13/13 15/15/15
f 17/17/17 16/16/16 18/18/18
f 20/20/20 19/19/19 21/21/21
f 23/23/23 22/22/22 24/24/24
f 26/26/26 25/25/25 27/27/27
f 29/29/29 28/28/28 30/30/30
f 32/32/32 31/31/31 33/33/33
f 35/35/35 34/34/34 36/36/36
f 38/38/38 37/37/37 39/39/39
f 41/41/41 40/40/40 42/42/42
f 44/44/44 43/43/43 45/45/45
f 47/47/47 46/46/46 48/48/48
f 50/50/50 49/49/49 51/51/51
f 53/53/53 52/52/52 54/54/54
f 56/56/56 55/55/55 57/57/57
f 59/59/59 58/58/58 60/60/60
f 62/62/62 61/61/61 63/63/63
f 65/65/65 64/64/64 66/66/66
f 68/68/68 67/67/67 69/69/69
f 71/71/71 70/70/70 72/72/72
f 74/74/74 73/73/73 75/75/75
f 77/77/77 76/76/76 78/78/78
f 80/80/80 79/79/79 81/81/81
f 83/83/83 82/82/82 84/84/84
f 86/86/86 85/85/85 87/87/87
f 89/89/89 88/88/88 90/90/90
f 92/92/92 91/91/91 93/93/93
f 95/95/95 94/94/94 96/96/96
f 98/98/98 97/97/97 99/99/99
f 101/101/101 100/100/100 102/102/102
f 104/104/104 103/103/103 105/105/105
f 107/107/107 106/106/106 108/108/108
f 110/110/110 109/109/109 111/111/111
f 113/113/113 112/112/112 114/114/114
f 116/116/116 115/115/115 117/117/117
f 119/119/119 118/118/118 120/120/120
f 122/122/122 121/121/121 123/123/123
f 125/125/125 124/124/124 126/126/126
f 128/128/128 127/127/127 129/129/129
f 131/131/131 130/130/130 132/132/132
f 134/134/134 133/133/133 135/135/135
f 137/137/137 136/136/136 138/138/138
f 140/140/140 139/139/139 141/141/141
f 143/143/143 142/142/142 144/144/144
f 146/146/146 145/145/145 147/147/147
f 149/149/149 148/148/148 150/150/150
f 152/152/152 151/151/151 153/153/153
f 155/155/155 154/154/154 156/156/156
f 158/158/158 157/157/157 159/159/159
f 161/161/161 160/160/160 162/162/162
f 164/164/164 163/163/163 165/165/165
f 167/167/167 166/166/166 168/168/168
f 170/170/170 169/169/169 171/171/171
f 173/173/173 172/172/172 174/174/174
f 176/176/176 175/175/175 177/177/177
f 179/179/179 178/178/178 180/180/180
f 182/182/182 181/181/181 183/183/183
f 185/185/185 184/184/184 186/186/186
f 188/188/188 187/187/187 189/189/189
f 191/191/191 190/190/190 192/192/192
f 194/194/194 193/193/193 195/195/195
f 197/197/197 196/196/196 198/198/198
f 200/200/200 199/199/199 201/201/201
f 203/203/203 202/202/202 204/204/204
f 206/206/206 205/205/205 207/207/207
f 209/209/209 208/208/208 210/210/210
