mtllib ./slope-japan_small_10.mtl
g slope-japan_small
v -5.500773 4.999999 -4.000771
v -5.500772 1.490116E-07 6.000777
v -5.500773 1.96735E-07 -4.000772
v 5.500777 1.371306E-07 -4.000777
v 5.500777 2.623023E-07 6.000776
v 5.500777 4.999999 -4.000772
v 5.500777 4.999999 -4.000772
v 4.000777 4.999999 -4.000772
v 5.500777 1.371306E-07 -4.000777
v -5.500773 4.999999 -4.000771
v -5.500773 1.96735E-07 -4.000772
v -4.000773 4.999999 -4.000772
v 5.500777 4.999999 -4.000772
v 5.500777 2.623023E-07 6.000776
v 4.000778 2.38837E-08 6.000776
v 4.000777 4.999999 -4.000772
v -4.000773 4.999999 -4.000772
v -5.500773 1.96735E-07 -4.000772
v 5.500777 1.371306E-07 -4.000777
v 4.000777 4.999999 -4.000772
v -4.000772 1.012882E-07 6.000777
v -4.000773 4.999999 -4.000772
v 4.000777 4.999999 -4.000772
v 4.000778 2.38837E-08 6.000776
v -5.500772 1.490116E-07 6.000777
v -4.000772 1.012882E-07 6.000777
v -5.500773 1.96735E-07 -4.000772
v 5.500777 1.371306E-07 -4.000777
v 4.000778 2.38837E-08 6.000776
v 5.500777 2.623023E-07 6.000776
v -4.000772 1.012882E-07 6.000777
v -5.500772 1.490116E-07 6.000777
v -5.500773 4.999999 -4.000771
v -4.000773 4.999999 -4.000772

vn -1 0 2.393454E-07
vn -1 0 2.393454E-07
vn -1 0 2.393454E-07
vn 1 0 1.525642E-07
vn 1 0 1.525642E-07
vn 1 0 1.525642E-07
vn 0 1.017253E-06 -1
vn 0 1.017253E-06 -1
vn 0 1.017253E-06 -1
vn -3.178914E-07 1.271566E-07 -1
vn -3.178914E-07 1.271566E-07 -1
vn -3.178914E-07 1.271566E-07 -1
vn 0 0.894455 0.447158
vn 0 0.894455 0.447158
vn 0 0.894455 0.447158
vn 0 0.894455 0.447158
vn -2.760185E-07 7.22667E-07 -1
vn -2.760185E-07 7.22667E-07 -1
vn -2.760185E-07 7.22667E-07 -1
vn -2.760185E-07 7.22667E-07 -1
vn 0 0.894455 0.4471582
vn 0 0.894455 0.4471582
vn 0 0.894455 0.4471582
vn 0 0.894455 0.4471582
vn 0 -1 0
vn 0 -1 0
vn 0 -1 0
vn 0 -1 0
vn 0 -1 0
vn 1.589458E-07 -1 0
vn 0 0.894455 0.4471582
vn 0 0.894455 0.4471582
vn 0 0.894455 0.4471582
vn 0 0.894455 0.4471582

vt 0.4616281 0.6633318
vt 0.4861093 0.6688034
vt 0.4620477 0.651338
vt 0.4293956 0.6513267
vt 0.4053219 0.6687755
vt 0.4298068 0.6633208
vt 0.4298068 0.6633208
vt 0.4338424 0.666168
vt 0.4293956 0.6513267
vt 0.4616281 0.6633318
vt 0.4620477 0.651338
vt 0.4575906 0.6661762
vt 0.4298068 0.6633208
vt 0.4053219 0.6687755
vt 0.4061697 0.6724877
vt 0.4338424 0.666168
vt 0.4575906 0.6661762
vt 0.4620477 0.651338
vt 0.4293956 0.6513267
vt 0.4338424 0.666168
vt 0.4146785 0.7855885
vt 0.4146786 0.8393745
vt 0.4531673 0.8393744
vt 0.4531673 0.7855885
vt 0.4343018 0.672609
vt 0.4303505 0.672609
vt 0.4343018 0.6989546
vt 0.4053219 0.6989546
vt 0.4092731 0.672609
vt 0.4053219 0.672609
vt 0.4852589 0.672515
vt 0.4861093 0.6688034
vt 0.4616281 0.6633318
vt 0.4575906 0.6661762

usemtl LOW-POLY-COLORS
usemap LOW-POLY-COLORS
f 2/2/2 1/1/1 3/3/3
f 5/5/5 4/4/4 6/6/6
f 8/8/8 7/7/7 9/9/9
f 11/11/11 10/10/10 12/12/12
f 14/14/14 13/13/13 15/15/15
f 15/15/15 13/13/13 16/16/16
f 18/18/18 17/17/17 19/19/19
f 19/19/19 17/17/17 20/20/20
f 22/22/22 21/21/21 23/23/23
f 23/23/23 21/21/21 24/24/24
f 26/26/26 25/25/25 27/27/27
f 27/27/27 28/28/28 26/26/26
f 26/26/26 28/28/28 29/29/29
f 28/28/28 30/30/30 29/29/29
f 32/32/32 31/31/31 33/33/33
f 33/33/33 31/31/31 34/34/34
