mtllib ./SM_Prop_Table_03_13.mtl
g SM_Prop_Table_03
v -0.3912506 0.6508849 0.4158707
v -0.365593 0.4812349 0.422821
v -0.4096222 0.4615379 0.3732681
v -0.365593 0.4812349 0.422821
v -0.4188004 0.3669208 0.4275055
v -0.4096222 0.4615379 0.3732681
v 0.3823471 0.7427236 -0.4121017
v 0.3936157 0.2747175 -0.4356613
v 0.4250259 0.4370332 -0.4025269
v 0.3823471 0.7427236 -0.3098526
v 0.4250259 0.4370332 -0.4025269
v 0.4264526 0.2731104 -0.3994522
v 0.3823471 0.7427236 -0.3098526
v 0.3823471 0.7427236 -0.4121017
v 0.4250259 0.4370332 -0.4025269
v 0.4310684 0.2239515 -0.3359756
v 0.4264526 0.2731104 -0.3994522
v 0.4310684 0.2239515 -0.4382248
v 0.4520569 0 -0.3640289
v 0.4520569 0 -0.4662781
v 0.4264526 0.2731104 -0.3994522
v 0.4250259 0.4370332 -0.4025269
v 0.3936157 0.2747175 -0.4356613
v 0.4310684 0.2239515 -0.4382248
v 0.4264526 0.2731104 -0.3994522
v 0.3936157 0.2747175 -0.4356613
v 0.4363785 0 0.4454117
v 0.4012756 0 0.4662781
v 0.4336472 0.251807 0.4478607
v 0.4520569 0 0.420433
v 0.4363785 0 0.4454117
v 0.4336472 0.251807 0.4478607
v -0.4189911 0.7427235 0.4496002
v -0.4189911 0.7896583 0.4496002
v -0.3039474 0.7896583 0.4312897
v -0.3039474 0.7427235 0.4312897
v -0.4189911 0.7896583 0.4496002
v -0.4189911 0.7896583 -0.4496002
v -0.3039474 0.7896583 -0.4496002
v -0.3039474 0.7896583 0.4312897
v -0.1940308 0.7896583 -0.4340668
v -0.2102127 0.7896583 0.4625473
v 0.4189987 0.7896583 -0.4496002
v 0.4189987 0.7896583 0.4496002
v -0.4189911 0.7896583 -0.4496002
v -0.4189911 0.7427235 -0.4496002
v -0.3039474 0.7427235 -0.4496002
v -0.3039474 0.7896583 -0.4496002
v -0.4189911 0.7427235 -0.4496002
v -0.4189911 0.7427235 0.4496002
v -0.3039474 0.7427235 0.4312897
v -0.3039474 0.7427235 -0.4496002
v -0.1940308 0.7427235 -0.4340668
v -0.2102127 0.7427235 0.4625473
v 0.4189987 0.7427235 -0.4496002
v 0.4189987 0.7427235 0.4496002
v 0.4189987 0.7427235 0.4496002
v 0.4189987 0.7896583 0.4496002
v 0.4189987 0.7896583 -0.4496002
v 0.4189987 0.7427235 -0.4496002
v -0.4189911 0.7427235 -0.4496002
v -0.4189911 0.7896583 -0.4496002
v -0.4189911 0.7896583 0.4496002
v -0.4189911 0.7427235 0.4496002
v -0.1940308 0.7427235 -0.4340668
v 0.4189987 0.7427235 -0.4496002
v 0.4189987 0.7896583 -0.4496002
v -0.1940308 0.7896583 -0.4340668
v -0.2102127 0.7896583 0.4625473
v 0.4189987 0.7896583 0.4496002
v 0.4189987 0.7427235 0.4496002
v -0.2102127 0.7427235 0.4625473
v -0.3039474 0.7427235 -0.4496002
v -0.1940308 0.7427235 -0.4340668
v -0.1940308 0.7896583 -0.4340668
v -0.3039474 0.7896583 -0.4496002
v -0.3039474 0.7896583 0.4312897
v -0.2102127 0.7896583 0.4625473
v -0.2102127 0.7427235 0.4625473
v -0.3039474 0.7427235 0.4312897
v -0.3592224 0.6571792 0.3854675
v -0.3592224 0.7427236 0.3854675
v 0.35923 0.7427236 0.3854675
v 0.35923 0.6571792 0.3854675
v -0.3592224 0.7427236 -0.3854675
v -0.3592224 0.6571792 -0.3854675
v 0.35923 0.6571792 -0.3854675
v 0.35923 0.7427236 -0.3854675
v -0.3592224 0.6571792 -0.3854675
v -0.3592224 0.6571792 0.3854675
v 0.35923 0.6571792 0.3854675
v 0.35923 0.6571792 -0.3854675
v 0.35923 0.6571792 0.3854675
v 0.35923 0.7427236 0.3854675
v 0.35923 0.7427236 -0.3854675
v 0.35923 0.6571792 -0.3854675
v -0.3592224 0.6571792 -0.3854675
v -0.3592224 0.7427236 -0.3854675
v -0.3592224 0.7427236 0.3854675
v -0.3592224 0.6571792 0.3854675
v -0.4520569 0 -0.4662781
v -0.3567657 0 -0.4662781
v -0.3108292 0.5807449 -0.424324
v -0.4061203 0.5807449 -0.424324
v -0.2870483 0.7427236 -0.4121017
v -0.3823395 0.7427236 -0.4121017
v -0.4061203 0.5807449 -0.3220749
v -0.3567657 0 -0.3640289
v -0.4520569 0 -0.3640289
v -0.3108292 0.5807449 -0.3220749
v -0.3823395 0.7427236 -0.3098526
v -0.2870483 0.7427236 -0.3098526
v -0.4520569 0 -0.3640289
v -0.3567657 0 -0.3640289
v -0.3567657 0 -0.4662781
v -0.4520569 0 -0.4662781
v -0.3567657 0 -0.4662781
v -0.3567657 0 -0.3640289
v -0.3108292 0.5807449 -0.3220749
v -0.3108292 0.5807449 -0.424324
v -0.2870483 0.7427236 -0.4121017
v -0.2870483 0.7427236 -0.3098526
v -0.4520569 0 -0.3640289
v -0.4520569 0 -0.4662781
v -0.4061203 0.5807449 -0.424324
v -0.4061203 0.5807449 -0.3220749
v -0.3823395 0.7427236 -0.3098526
v -0.3823395 0.7427236 -0.4121017
v -0.4520569 0 0.4662781
v -0.3344803 0.2538821 0.4321442
v -0.3567657 0 0.4662781
v -0.4297714 0.2538821 0.4321442
v -0.365593 0.4812349 0.422821
v -0.4188004 0.3669208 0.4275055
v -0.3823395 0.7427236 0.4121017
v -0.2870483 0.7427236 0.4121017
v -0.3912506 0.6508849 0.4158707
v -0.4297714 0.2538821 0.3298874
v -0.4520569 0 0.3640289
v -0.3567657 0 0.3640289
v -0.3344803 0.2538821 0.3298874
v -0.3823395 0.7427236 0.3098526
v -0.2870483 0.7427236 0.3098526
v -0.4520569 0 0.3640289
v -0.4520569 0 0.4662781
v -0.3567657 0 0.4662781
v -0.3567657 0 0.3640289
v -0.3567657 0 0.4662781
v -0.3344803 0.2538821 0.3298874
v -0.3567657 0 0.3640289
v -0.3344803 0.2538821 0.4321442
v -0.2870483 0.7427236 0.3098526
v -0.2870483 0.7427236 0.4121017
v -0.4520569 0 0.3640289
v -0.4297714 0.2538821 0.4321442
v -0.4520569 0 0.4662781
v -0.4297714 0.2538821 0.3298874
v -0.4188004 0.3669208 0.4275055
v -0.4096222 0.4615379 0.3732681
v -0.3823395 0.7427236 0.3098526
v -0.3912506 0.6508849 0.4158707
v -0.3823395 0.7427236 0.4121017
v 0.3823471 0.7427236 -0.4121017
v 0.2870483 0.7427236 -0.4121017
v 0.3357773 0.2239515 -0.4382248
v 0.3936157 0.2747175 -0.4356613
v 0.4310684 0.2239515 -0.4382248
v 0.4520569 0 -0.4662781
v 0.3567657 0 -0.4662781
v 0.3823471 0.7427236 -0.3098526
v 0.3357773 0.2239515 -0.3359756
v 0.2870483 0.7427236 -0.3098526
v 0.4310684 0.2239515 -0.3359756
v 0.3567657 0 -0.3640289
v 0.4520569 0 -0.3640289
v 0.4520569 0 -0.3640289
v 0.4520569 0 -0.4662781
v 0.3567657 0 -0.4662781
v 0.3567657 0 -0.3640289
v 0.3357773 0.2239515 -0.4382248
v 0.2870483 0.7427236 -0.4121017
v 0.2870483 0.7427236 -0.3098526
v 0.3357773 0.2239515 -0.3359756
v 0.3567657 0 -0.4662781
v 0.3567657 0 -0.3640289
v 0.4132767 0.5303165 0.4274902
v 0.4336472 0.251807 0.4478607
v 0.4012756 0 0.4662781
v 0.3179932 0.5303165 0.4274902
v 0.3567657 0 0.4662781
v 0.3823471 0.7427236 0.4121017
v 0.2870483 0.7427236 0.4121017
v 0.4132767 0.5303165 0.3252335
v 0.3567657 0 0.3640289
v 0.4520569 0 0.3640289
v 0.3179932 0.5303165 0.3252335
v 0.3823471 0.7427236 0.3098526
v 0.2870483 0.7427236 0.3098526
v 0.4520569 0 0.420433
v 0.4520569 0 0.3640289
v 0.3567657 0 0.3640289
v 0.3567657 0 0.4662781
v 0.4363785 0 0.4454117
v 0.4012756 0 0.4662781
v 0.3567657 0 0.4662781
v 0.3567657 0 0.3640289
v 0.3179932 0.5303165 0.3252335
v 0.3179932 0.5303165 0.4274902
v 0.2870483 0.7427236 0.3098526
v 0.2870483 0.7427236 0.4121017
v 0.4132767 0.5303165 0.3252335
v 0.4520569 0 0.3640289
v 0.4520569 0 0.420433
v 0.4336472 0.251807 0.4478607
v 0.4132767 0.5303165 0.4274902
v 0.3823471 0.7427236 0.3098526
v 0.3823471 0.7427236 0.4121017

vn -0.7285333 -0.08232175 0.6800459
vn -0.7285333 -0.08232175 0.6800459
vn -0.7285333 -0.08232175 0.6800459
vn -0.7618175 0.3761978 0.5273607
vn -0.7618175 0.3761978 0.5273607
vn -0.7618175 0.3761978 0.5273607
vn 0.5763175 0.05492292 -0.8153781
vn 0.5763175 0.05492292 -0.8153781
vn 0.5763175 0.05492292 -0.8153781
vn 0.9262291 0.01512624 0.3766573
vn 0.9262291 0.01512624 0.3766573
vn 0.9262291 0.01512624 0.3766573
vn 0.9932588 0.1159183 0
vn 0.9903941 0.1382735 0
vn 0.9903941 0.1382735 0
vn 0.9956255 0.09343272 0
vn 0.9956198 0.09349413 0
vn 0.995629 0.09339692 0
vn 0.9956371 0.09330992 0
vn 0.9956371 0.09330992 0
vn 0.7406088 -0.006156899 -0.6719084
vn 0.7406088 -0.006156899 -0.6719084
vn 0.7406088 -0.006156899 -0.6719084
vn 0.6493121 0.5076275 -0.5663111
vn 0.6493121 0.5076275 -0.5663111
vn 0.6493121 0.5076275 -0.5663111
vn 0.5109726 -0.002817797 0.8595924
vn 0.5109726 -0.002817797 0.8595924
vn 0.5109726 -0.002817797 0.8595924
vn 0.8469726 0.004016553 0.5316215
vn 0.8469726 0.004016553 0.5316215
vn 0.8469726 0.004016553 0.5316215
vn 0.1571833 0 0.9875695
vn 0.1571833 0 0.9875695
vn 0.1571833 0 0.9875695
vn 0.1571833 0 0.9875695
vn 0 1 0
vn 0 1 0
vn 0 1 0
vn 0 1 0
vn 0 1 0
vn 0 1 0
vn 0 1 0
vn 0 1 0
vn 0 0 -1
vn 0 0 -1
vn 0 0 -1
vn 0 0 -1
vn 0 -1 0
vn 0 -1 0
vn 0 -1 0
vn 0 -1 0
vn 0 -1 0
vn 0 -1 0
vn 0 -1 0
vn 0 -1 0
vn 1 0 0
vn 1 0 0
vn 1 0 0
vn 1 0 0
vn -1 0 0
vn -1 0 0
vn -1 0 0
vn -1 0 0
vn -0.02533069 0 -0.9996791
vn -0.02533069 0 -0.9996791
vn -0.02533069 0 -0.9996791
vn -0.02533069 0 -0.9996791
vn 0.02057233 0 0.9997883
vn 0.02057233 0 0.9997883
vn 0.02057233 0 0.9997883
vn 0.02057233 0 0.9997883
vn 0.1399298 0 -0.9901614
vn 0.1399298 0 -0.9901614
vn 0.1399298 0 -0.9901614
vn 0.1399298 0 -0.9901614
vn -0.3163436 0 0.9486447
vn -0.3163436 0 0.9486447
vn -0.3163436 0 0.9486447
vn -0.3163436 0 0.9486447
vn 0 0 1
vn 0 0 1
vn 0 0 1
vn 0 0 1
vn 0 0 -1
vn 0 0 -1
vn 0 0 -1
vn 0 0 -1
vn 0 -1 0
vn 0 -1 0
vn 0 -1 0
vn 0 -1 0
vn 1 0 0
vn 1 0 0
vn 1 0 0
vn 1 0 0
vn -1 0 0
vn -1 0 0
vn -1 0 0
vn -1 0 0
vn 0 0.072054 -0.9974008
vn 0 0.072054 -0.9974008
vn 0 0.07364824 -0.9972843
vn 0 0.07364824 -0.9972843
vn 0 0.07524227 -0.9971653
vn 0 0.07524227 -0.9971653
vn 0 -0.07364824 0.9972843
vn 0 -0.072054 0.9974008
vn 0 -0.072054 0.9974008
vn 0 -0.07364824 0.9972843
vn 0 -0.07524227 0.9971653
vn 0 -0.07524227 0.9971653
vn 0 -1 0
vn 0 -1 0
vn 0 -1 0
vn 0 -1 0
vn 0.9968862 -0.07885312 0
vn 0.9968862 -0.07885312 0
vn 0.9936948 -0.1121179 0
vn 0.9936948 -0.1121179 0
vn 0.9893939 -0.1452574 0
vn 0.9893939 -0.1452574 0
vn -0.9968862 0.07885312 0
vn -0.9968862 0.07885312 0
vn -0.9936948 0.1121179 0
vn -0.9936948 0.1121179 0
vn -0.9893939 0.1452574 0
vn -0.9893939 0.1452574 0
vn 0 0.133249 0.9910827
vn 0 0.06408507 0.9979444
vn 0 0.133249 0.9910827
vn 0 0.07181463 0.997418
vn 0 0.04097829 0.9991601
vn 0 0.0410167 0.9991584
vn 0 0.04096301 0.9991606
vn 0 0.04096542 0.9991605
vn 0 0.04097686 0.9991601
vn 0 -0.08720771 -0.9961901
vn 0 -0.1332782 -0.9910787
vn 0 -0.1332782 -0.9910787
vn 0 -0.08720771 -0.9961901
vn 0 -0.04094985 -0.9991612
vn 0 -0.04094985 -0.9991612
vn 0 -1 0
vn 0 -1 0
vn 0 -1 0
vn 0 -1 0
vn 0.9961696 -0.08744256 0
vn 0.9957581 -0.09201012 0
vn 0.9961696 -0.08744256 0
vn 0.9957581 -0.09201012 0
vn 0.9953257 -0.09657575 0
vn 0.9953257 -0.09657575 0
vn -0.9961696 0.08744256 0
vn -0.9957568 0.09202321 0
vn -0.9961696 0.08744256 0
vn -0.995544 0.0942986 0
vn -0.9953246 0.09658634 0
vn -0.9953258 0.09657336 0
vn -0.9953257 0.09657534 0
vn -0.9953257 0.09657493 0
vn -0.9953256 0.09657668 0
vn 0 0.05028583 -0.9987349
vn 0 0.05029181 -0.9987345
vn 0 0.06885984 -0.9976264
vn 0 0.05035577 -0.9987313
vn 0 0.08742277 -0.9961713
vn 0 0.1242936 -0.9922455
vn 0 0.1242936 -0.9922455
vn 0 -0.05029181 0.9987345
vn 0 -0.087353 0.9961774
vn 0 -0.05029181 0.9987345
vn 0 -0.087353 0.9961774
vn 0 -0.1242936 0.9922455
vn 0 -0.1242936 0.9922455
vn 0 -1 0
vn 0 -1 0
vn 0 -1 0
vn 0 -1 0
vn -0.9956273 -0.09341478 0
vn -0.9956175 -0.09351966 0
vn -0.9956175 -0.09351966 0
vn -0.9956273 -0.09341478 0
vn -0.9956371 -0.09330992 0
vn -0.9956371 -0.09330992 0
vn 0 0.07271697 0.9973526
vn 0 0.07294611 0.9973359
vn 0 0.07294609 0.9973359
vn 0 0.07271696 0.9973526
vn 0 0.07294608 0.9973359
vn 0 0.0722587 0.9973859
vn 0 0.0722587 0.9973859
vn 0 -0.07259171 -0.9973617
vn 0 -0.07296034 -0.9973348
vn 0 -0.07296034 -0.9973348
vn 0 -0.07259171 -0.9973617
vn 0 -0.07222307 -0.9973885
vn 0 -0.07222307 -0.9973885
vn 0 -1 0
vn 0 -1 0
vn 0 -1 0
vn 0 -1 0
vn 0 -1 0
vn 0 -1 0
vn -0.997338 -0.07291754 0
vn -0.997338 -0.07291754 0
vn -0.9940844 -0.1086108 0
vn -0.9940844 -0.1086108 0
vn -0.9895537 -0.1441645 0
vn -0.9895537 -0.1441645 0
vn 0.9958722 0.09076733 0
vn 0.9973369 0.0729318 0
vn 0.9973373 0.07292684 0
vn 0.9973367 0.07293405 0
vn 0.9940866 0.1085901 0
vn 0.9895639 0.1440949 0
vn 0.9895639 0.1440949 0

vt 0.9933059 0.4507867
vt 0.9933059 0.4507867
vt 0.9933059 0.4507867
vt 0.9933059 0.4507867
vt 0.9933059 0.4507867
vt 0.9933059 0.4507867
vt 0.9933059 0.4507867
vt 0.9933059 0.4507867
vt 0.9933059 0.4507867
vt 0.9933059 0.4507867
vt 0.9933059 0.4507867
vt 0.9933059 0.4507867
vt 0.9933059 0.4507867
vt 0.9933059 0.4507867
vt 0.9933059 0.4507867
vt 0.9933059 0.4507867
vt 0.9933059 0.4507867
vt 0.9933059 0.4507867
vt 0.9933059 0.4507867
vt 0.9933059 0.4507867
vt 0.9933059 0.4507867
vt 0.9933059 0.4507867
vt 0.9933059 0.4507867
vt 0.9933059 0.4507867
vt 0.9933059 0.4507867
vt 0.9933059 0.4507867
vt 0.9933059 0.4507867
vt 0.9933059 0.4507867
vt 0.9933059 0.4507867
vt 0.9933059 0.4507867
vt 0.9933059 0.4507867
vt 0.9933059 0.4507867
vt 0.9933059 0.4507867
vt 0.9933059 0.4507867
vt 0.9933059 0.4507867
vt 0.9933059 0.4507867
vt 0.9933059 0.4507867
vt 0.9933059 0.4507867
vt 0.9933059 0.4507867
vt 0.9933059 0.4507867
vt 0.9933059 0.4507867
vt 0.9933059 0.4507867
vt 0.9933059 0.4507867
vt 0.9933059 0.4507867
vt 0.9933059 0.4507867
vt 0.9933059 0.4507867
vt 0.9933059 0.4507867
vt 0.9933059 0.4507867
vt 0.9933059 0.4507867
vt 0.9933059 0.4507867
vt 0.9933059 0.4507867
vt 0.9933059 0.4507867
vt 0.9933059 0.4507867
vt 0.9933059 0.4507867
vt 0.9933059 0.4507867
vt 0.9933059 0.4507867
vt 0.9933059 0.4507867
vt 0.9933059 0.4507867
vt 0.9933059 0.4507867
vt 0.9933059 0.4507867
vt 0.9933059 0.4507867
vt 0.9933059 0.4507867
vt 0.9933059 0.4507867
vt 0.9933059 0.4507867
vt 0.9933059 0.4507867
vt 0.9933059 0.4507867
vt 0.9933059 0.4507867
vt 0.9933059 0.4507867
vt 0.9933059 0.4507867
vt 0.9933059 0.4507867
vt 0.9933059 0.4507867
vt 0.9933059 0.4507867
vt 0.9933059 0.4507867
vt 0.9933059 0.4507867
vt 0.9933059 0.4507867
vt 0.9933059 0.4507867
vt 0.9933059 0.4507867
vt 0.9933059 0.4507867
vt 0.9933059 0.4507867
vt 0.9933059 0.4507867
vt 0.9933059 0.4507867
vt 0.9933059 0.4507867
vt 0.9933059 0.4507867
vt 0.9933059 0.4507867
vt 0.9933059 0.4507867
vt 0.9933059 0.4507867
vt 0.9933059 0.4507867
vt 0.9933059 0.4507867
vt 0.9933059 0.4507867
vt 0.9933059 0.4507867
vt 0.9933059 0.4507867
vt 0.9933059 0.4507867
vt 0.9933059 0.4507867
vt 0.9933059 0.4507867
vt 0.9933059 0.4507867
vt 0.9933059 0.4507867
vt 0.9933059 0.4507867
vt 0.9933059 0.4507867
vt 0.9933059 0.4507867
vt 0.9933059 0.4507867
vt 0.9933059 0.4507867
vt 0.9933059 0.4507867
vt 0.9933059 0.4507867
vt 0.9933059 0.4507867
vt 0.9933059 0.4507867
vt 0.9933059 0.4507867
vt 0.9933059 0.4507867
vt 0.9933059 0.4507867
vt 0.9933059 0.4507867
vt 0.9933059 0.4507867
vt 0.9933059 0.4507867
vt 0.9933059 0.4507867
vt 0.9933059 0.4507867
vt 0.9933059 0.4507867
vt 0.9933059 0.4507867
vt 0.9933059 0.4507867
vt 0.9933059 0.4507867
vt 0.9933059 0.4507867
vt 0.9933059 0.4507867
vt 0.9933059 0.4507867
vt 0.9933059 0.4507867
vt 0.9933059 0.4507867
vt 0.9933059 0.4507867
vt 0.9933059 0.4507867
vt 0.9933059 0.4507867
vt 0.9933059 0.4507867
vt 0.9933059 0.4507867
vt 0.9933059 0.4507867
vt 0.9933059 0.4507867
vt 0.9933059 0.4507867
vt 0.9933059 0.4507867
vt 0.9933059 0.4507867
vt 0.9933059 0.4507867
vt 0.9933059 0.4507867
vt 0.9933059 0.4507867
vt 0.9933059 0.4507867
vt 0.9933059 0.4507867
vt 0.9933059 0.4507867
vt 0.9933059 0.4507867
vt 0.9933059 0.4507867
vt 0.9933059 0.4507867
vt 0.9933059 0.4507867
vt 0.9933059 0.4507867
vt 0.9933059 0.4507867
vt 0.9933059 0.4507867
vt 0.9933059 0.4507867
vt 0.9933059 0.4507867
vt 0.9933059 0.4507867
vt 0.9933059 0.4507867
vt 0.9933059 0.4507867
vt 0.9933059 0.4507867
vt 0.9933059 0.4507867
vt 0.9933059 0.4507867
vt 0.9933059 0.4507867
vt 0.9933059 0.4507867
vt 0.9933059 0.4507867
vt 0.9933059 0.4507867
vt 0.9933059 0.4507867
vt 0.9933059 0.4507867
vt 0.9933059 0.4507867
vt 0.9933059 0.4507867
vt 0.9933059 0.4507867
vt 0.9933059 0.4507867
vt 0.9933059 0.4507867
vt 0.9933059 0.4507867
vt 0.9933059 0.4507867
vt 0.9933059 0.4507867
vt 0.9933059 0.4507867
vt 0.9933059 0.4507867
vt 0.9933059 0.4507867
vt 0.9933059 0.4507867
vt 0.9933059 0.4507867
vt 0.9933059 0.4507867
vt 0.9933059 0.4507867
vt 0.9933059 0.4507867
vt 0.9933059 0.4507867
vt 0.9933059 0.4507867
vt 0.9933059 0.4507867
vt 0.9933059 0.4507867
vt 0.9933059 0.4507867
vt 0.9933059 0.4507867
vt 0.9933059 0.4507867
vt 0.9933059 0.4507867
vt 0.9933059 0.4507867
vt 0.9933059 0.4507867
vt 0.9933059 0.4507867
vt 0.9933059 0.4507867
vt 0.9933059 0.4507867
vt 0.9933059 0.4507867
vt 0.9933059 0.4507867
vt 0.9933059 0.4507867
vt 0.9933059 0.4507867
vt 0.9933059 0.4507867
vt 0.9933059 0.4507867
vt 0.9933059 0.4507867
vt 0.9933059 0.4507867
vt 0.9933059 0.4507867
vt 0.9933059 0.4507867
vt 0.9933059 0.4507867
vt 0.9933059 0.4507867
vt 0.9933059 0.4507867
vt 0.9933059 0.4507867
vt 0.9933059 0.4507867
vt 0.9933059 0.4507867
vt 0.9933059 0.4507867
vt 0.9933059 0.4507867
vt 0.9933059 0.4507867
vt 0.9933059 0.4507867
vt 0.9933059 0.4507867
vt 0.9933059 0.4507867
vt 0.9933059 0.4507867
vt 0.9933059 0.4507867
vt 0.9933059 0.4507867
vt 0.9933059 0.4507867
vt 0.9933059 0.4507867
vt 0.9933059 0.4507867
vt 0.9933059 0.4507867

usemtl PolygonSamurai_Mat_01
usemap PolygonSamurai_Mat_01
f 2/2/2 1/1/1 3/3/3
f 5/5/5 4/4/4 6/6/6
f 8/8/8 7/7/7 9/9/9
f 11/11/11 10/10/10 12/12/12
f 14/14/14 13/13/13 15/15/15
f 13/13/13 16/16/16 17/17/17
f 18/18/18 17/17/17 16/16/16
f 16/16/16 19/19/19 18/18/18
f 18/18/18 19/19/19 20/20/20
f 22/22/22 21/21/21 23/23/23
f 25/25/25 24/24/24 26/26/26
f 28/28/28 27/27/27 29/29/29
f 31/31/31 30/30/30 32/32/32
f 34/34/34 33/33/33 35/35/35
f 35/35/35 33/33/33 36/36/36
f 38/38/38 37/37/37 39/39/39
f 39/39/39 37/37/37 40/40/40
f 39/39/39 40/40/40 41/41/41
f 41/41/41 40/40/40 42/42/42
f 41/41/41 42/42/42 43/43/43
f 43/43/43 42/42/42 44/44/44
f 46/46/46 45/45/45 47/47/47
f 47/47/47 45/45/45 48/48/48
f 50/50/50 49/49/49 51/51/51
f 51/51/51 49/49/49 52/52/52
f 53/53/53 51/51/51 52/52/52
f 54/54/54 51/51/51 53/53/53
f 55/55/55 54/54/54 53/53/53
f 56/56/56 54/54/54 55/55/55
f 58/58/58 57/57/57 59/59/59
f 59/59/59 57/57/57 60/60/60
f 62/62/62 61/61/61 63/63/63
f 63/63/63 61/61/61 64/64/64
f 66/66/66 65/65/65 67/67/67
f 67/67/67 65/65/65 68/68/68
f 70/70/70 69/69/69 71/71/71
f 71/71/71 69/69/69 72/72/72
f 74/74/74 73/73/73 75/75/75
f 75/75/75 73/73/73 76/76/76
f 78/78/78 77/77/77 79/79/79
f 79/79/79 77/77/77 80/80/80
f 82/82/82 81/81/81 83/83/83
f 83/83/83 81/81/81 84/84/84
f 86/86/86 85/85/85 87/87/87
f 87/87/87 85/85/85 88/88/88
f 90/90/90 89/89/89 91/91/91
f 91/91/91 89/89/89 92/92/92
f 94/94/94 93/93/93 95/95/95
f 95/95/95 93/93/93 96/96/96
f 98/98/98 97/97/97 99/99/99
f 99/99/99 97/97/97 100/100/100
f 102/102/102 101/101/101 103/103/103
f 103/103/103 101/101/101 104/104/104
f 103/103/103 104/104/104 105/105/105
f 105/105/105 104/104/104 106/106/106
f 108/108/108 107/107/107 109/109/109
f 110/110/110 107/107/107 108/108/108
f 110/110/110 111/111/111 107/107/107
f 112/112/112 111/111/111 110/110/110
f 114/114/114 113/113/113 115/115/115
f 115/115/115 113/113/113 116/116/116
f 118/118/118 117/117/117 119/119/119
f 119/119/119 117/117/117 120/120/120
f 121/121/121 119/119/119 120/120/120
f 122/122/122 119/119/119 121/121/121
f 124/124/124 123/123/123 125/125/125
f 125/125/125 123/123/123 126/126/126
f 127/127/127 125/125/125 126/126/126
f 128/128/128 125/125/125 127/127/127
f 130/130/130 129/129/129 131/131/131
f 132/132/132 129/129/129 130/130/130
f 130/130/130 133/133/133 132/132/132
f 134/134/134 132/132/132 133/133/133
f 133/133/133 130/130/130 135/135/135
f 136/136/136 135/135/135 130/130/130
f 137/137/137 133/133/133 135/135/135
f 139/139/139 138/138/138 140/140/140
f 140/140/140 138/138/138 141/141/141
f 138/138/138 142/142/142 141/141/141
f 141/141/141 142/142/142 143/143/143
f 145/145/145 144/144/144 146/146/146
f 146/146/146 144/144/144 147/147/147
f 149/149/149 148/148/148 150/150/150
f 151/151/151 148/148/148 149/149/149
f 152/152/152 151/151/151 149/149/149
f 153/153/153 151/151/151 152/152/152
f 155/155/155 154/154/154 156/156/156
f 157/157/157 154/154/154 155/155/155
f 155/155/155 158/158/158 157/157/157
f 159/159/159 157/157/157 158/158/158
f 160/160/160 157/157/157 159/159/159
f 161/161/161 160/160/160 159/159/159
f 162/162/162 160/160/160 161/161/161
f 164/164/164 163/163/163 165/165/165
f 163/163/163 166/166/166 165/165/165
f 167/167/167 165/165/165 166/166/166
f 167/167/167 168/168/168 165/165/165
f 165/165/165 168/168/168 169/169/169
f 171/171/171 170/170/170 172/172/172
f 173/173/173 170/170/170 171/171/171
f 174/174/174 173/173/173 171/171/171
f 175/175/175 173/173/173 174/174/174
f 177/177/177 176/176/176 178/178/178
f 178/178/178 176/176/176 179/179/179
f 181/181/181 180/180/180 182/182/182
f 182/182/182 180/180/180 183/183/183
f 180/180/180 184/184/184 183/183/183
f 183/183/183 184/184/184 185/185/185
f 187/187/187 186/186/186 188/188/188
f 189/189/189 188/188/188 186/186/186
f 190/190/190 188/188/188 189/189/189
f 191/191/191 189/189/189 186/186/186
f 192/192/192 189/189/189 191/191/191
f 194/194/194 193/193/193 195/195/195
f 196/196/196 193/193/193 194/194/194
f 196/196/196 197/197/197 193/193/193
f 198/198/198 197/197/197 196/196/196
f 200/200/200 199/199/199 201/201/201
f 202/202/202 201/201/201 199/199/199
f 203/203/203 202/202/202 199/199/199
f 204/204/204 202/202/202 203/203/203
f 206/206/206 205/205/205 207/207/207
f 207/207/207 205/205/205 208/208/208
f 207/207/207 208/208/208 209/209/209
f 209/209/209 208/208/208 210/210/210
f 212/212/212 211/211/211 213/213/213
f 214/214/214 213/213/213 211/211/211
f 215/215/215 214/214/214 211/211/211
f 216/216/216 215/215/215 211/211/211
f 217/217/217 215/215/215 216/216/216
