mtllib ./SM_Prop_Fan_02_14.mtl
g SM_Prop_Fan_02
v -0.1416321 0.1937474 -0.01201057
v 0.00112915 0.2508186 -0.01201153
v -0.07122803 0.2377455 -0.01201153
v 0.0008544922 0.1844602 -0.01201057
v 0.07122803 0.2377455 -0.01201153
v 0.1416321 0.1937474 -0.01201057
v -0.05456543 0.1616643 -0.01201057
v 0.05456543 0.1616643 -0.01201057
v -0.1739197 0.1259421 -0.01201057
v 0.0670166 0.1168116 -0.01201057
v -0.0670166 0.1168116 -0.01201057
v 0.1739197 0.1259421 -0.01201057
v 0.05664063 0.07370341 -0.01201057
v -0.1705933 0.06077409 -0.01201057
v 0.1705933 0.06077409 -0.01201057
v -0.05664063 0.07370341 -0.01201057
v 0.001037598 0.05090743 -0.01201057
v 0.002349854 0.001322329 -0.01201057
v 0.06430054 -0.006721258 -0.01201248
v 0.1177368 -0.03730357 -0.01201248
v -0.05841064 -0.00406754 -0.01201057
v -0.1177368 -0.03730357 -0.01201248
v -0.0670166 0.1168116 -0.01201057
v 0.0008544922 0.1844602 -0.01201057
v -0.05456543 0.1616643 -0.01201057
v 0.001068115 0.1163595 -0.01201057
v -0.05664063 0.07370341 -0.01201057
v 0.05456543 0.1616643 -0.01201057
v 0.001037598 0.05090743 -0.01201057
v 0.0670166 0.1168116 -0.01201057
v 0.05664063 0.07370341 -0.01201057
v -0.05841064 -0.00406754 -0.01201057
v -0.1177368 -0.03730357 -0.01201248
v -0.06698608 -0.07204735 -0.01201248
v 0.001556396 -0.06034362 -0.01201248
v 0.002349854 0.001322329 -0.01201057
v -0.01156616 -0.09442216 -0.01201248
v 0.06430054 -0.006721258 -0.01201248
v 0.01184082 -0.09442216 -0.01201248
v 0.1177368 -0.03730357 -0.01201248
v 0.06698608 -0.07204735 -0.01201248
v -0.1416321 0.1937473 0.01018715
v -0.07122803 0.2377455 0.0101862
v 0.00112915 0.2508185 0.0101862
v 0.0008544922 0.1844602 0.01018715
v 0.07122803 0.2377455 0.0101862
v 0.1416321 0.1937473 0.01018715
v -0.05456543 0.1616642 0.01018715
v 0.05456543 0.1616642 0.01018715
v -0.0670166 0.1168115 0.01018715
v 0.1739197 0.125942 0.01018715
v -0.1739197 0.125942 0.01018715
v 0.0670166 0.1168115 0.01018715
v -0.05664063 0.07370329 0.01018715
v 0.1705933 0.06077409 0.01018715
v -0.1705933 0.06077409 0.01018715
v 0.05664063 0.07370329 0.01018715
v 0.001037598 0.05090737 0.01018715
v 0.002349854 0.001322269 0.01018715
v -0.05841064 -0.004067659 0.01018715
v -0.1177368 -0.03730345 0.01018524
v 0.06430054 -0.006721258 0.01018524
v 0.1177368 -0.03730345 0.01018524
v -0.0670166 0.1168115 0.01018715
v -0.05456543 0.1616642 0.01018715
v 0.0008544922 0.1844602 0.01018715
v 0.001068115 0.1163595 0.01018715
v -0.05664063 0.07370329 0.01018715
v 0.05456543 0.1616642 0.01018715
v 0.001037598 0.05090737 0.01018715
v 0.0670166 0.1168115 0.01018715
v 0.05664063 0.07370329 0.01018715
v -0.05841064 -0.004067659 0.01018715
v -0.06698608 -0.07204723 0.01018524
v -0.1177368 -0.03730345 0.01018524
v 0.001556396 -0.0603435 0.01018524
v 0.002349854 0.001322269 0.01018715
v -0.01156616 -0.0944221 0.01018524
v 0.06430054 -0.006721258 0.01018524
v 0.01657104 -0.0944221 0.01018524
v 0.1177368 -0.03730345 0.01018524
v 0.06698608 -0.07204723 0.01018524
v 0.1739197 0.125942 0.01018715
v 0.1416321 0.1937473 0.01018715
v 0.1416321 0.1937474 -0.01201057
v 0.1739197 0.1259421 -0.01201057
v 0.1416321 0.1937473 0.01018715
v 0.07122803 0.2377455 0.0101862
v 0.07122803 0.2377455 -0.01201153
v 0.1416321 0.1937474 -0.01201057
v 0.07122803 0.2377455 0.0101862
v 0.00112915 0.2508185 0.0101862
v 0.00112915 0.2508186 -0.01201153
v 0.07122803 0.2377455 -0.01201153
v 0.00112915 0.2508185 0.0101862
v -0.07122803 0.2377455 0.0101862
v -0.07122803 0.2377455 -0.01201153
v 0.00112915 0.2508186 -0.01201153
v -0.07122803 0.2377455 0.0101862
v -0.1416321 0.1937473 0.01018715
v -0.1416321 0.1937474 -0.01201057
v -0.07122803 0.2377455 -0.01201153
v -0.1416321 0.1937473 0.01018715
v -0.1739197 0.125942 0.01018715
v -0.1739197 0.1259421 -0.01201057
v -0.1416321 0.1937474 -0.01201057
v -0.1705933 0.06077409 0.01018715
v -0.1177368 -0.03730345 0.01018524
v -0.1177368 -0.03730357 -0.01201248
v -0.1705933 0.06077409 -0.01201057
v 0.1177368 -0.03730345 0.01018524
v 0.1705933 0.06077409 0.01018715
v 0.1705933 0.06077409 -0.01201057
v 0.1177368 -0.03730357 -0.01201248
v -0.1177368 -0.03730345 0.01018524
v -0.06698608 -0.07204723 0.01018524
v -0.06698608 -0.07204735 -0.01201248
v -0.1177368 -0.03730357 -0.01201248
v 0.06698608 -0.07204723 0.01018524
v 0.1177368 -0.03730345 0.01018524
v 0.1177368 -0.03730357 -0.01201248
v 0.06698608 -0.07204735 -0.01201248
v -0.06698608 -0.07204723 0.01018524
v -0.01156616 -0.0944221 0.01018524
v -0.01156616 -0.09442216 -0.01201248
v -0.06698608 -0.07204735 -0.01201248
v 0.01657104 -0.0944221 0.01018524
v 0.06698608 -0.07204723 0.01018524
v 0.06698608 -0.07204735 -0.01201248
v 0.01184082 -0.09442216 -0.01201248
v -0.1739197 0.125942 0.01018715
v -0.1705933 0.06077409 0.01018715
v -0.1705933 0.06077409 -0.01201057
v -0.1739197 0.1259421 -0.01201057
v 0.1705933 0.06077409 0.01018715
v 0.1739197 0.125942 0.01018715
v 0.1739197 0.1259421 -0.01201057
v 0.1705933 0.06077409 -0.01201057
v -0.01156616 -0.0944221 0.01018524
v 0.01657104 -0.0944221 0.01018524
v 0.01184082 -0.09442216 -0.01201248
v -0.01156616 -0.09442216 -0.01201248
v 0.01446533 -0.0944221 0.02228165
v 0.01446533 -0.2508185 0.02228165
v -0.01126099 -0.2508185 0.02228165
v -0.01126099 -0.0944221 0.02228165
v -0.01126099 -0.0944221 0.02228165
v -0.01126099 -0.2508185 0.02228165
v -0.0241394 -0.2508186 0
v -0.0241394 -0.09442222 0
v -0.0241394 -0.09442222 0
v -0.0241394 -0.2508186 0
v -0.01126099 -0.2508186 -0.02228165
v -0.01126099 -0.09442216 -0.02228165
v -0.01126099 -0.09442216 -0.02228165
v -0.01126099 -0.2508186 -0.02228165
v 0.01446533 -0.2508186 -0.02228165
v 0.01446533 -0.09442216 -0.02228165
v 0.01446533 -0.09442216 -0.02228165
v 0.01446533 -0.2508186 -0.02228165
v 0.02731323 -0.2508186 0
v 0.02731323 -0.09442222 0
v 0.02731323 -0.09442222 0
v 0.02731323 -0.2508186 0
v 0.01446533 -0.2508185 0.02228165
v 0.01446533 -0.0944221 0.02228165
v -0.01126099 -0.0944221 0.02228165
v 0.001586914 -0.09442222 0
v 0.01446533 -0.0944221 0.02228165
v -0.0241394 -0.09442222 0
v 0.02731323 -0.09442222 0
v -0.01126099 -0.09442216 -0.02228165
v 0.01446533 -0.09442216 -0.02228165
v 0.01446533 -0.2508185 0.02228165
v 0.001586914 -0.2508186 0
v -0.01126099 -0.2508185 0.02228165
v 0.02731323 -0.2508186 0
v -0.0241394 -0.2508186 0
v 0.01446533 -0.2508186 -0.02228165
v -0.01126099 -0.2508186 -0.02228165

vn 0 0 -1
vn 0 0 -1
vn 0 0 -1
vn 0 0 -1
vn 0 0 -1
vn 0 0 -1
vn 0 0 -1
vn 0 0 -1
vn 0 0 -1
vn 0 0 -1
vn 0 0 -1
vn 0 0 -1
vn 0 0 -1
vn 0 0 -1
vn 0 0 -1
vn 0 0 -1
vn 0 0 -1
vn 0 0 -1
vn 0 0 -1
vn 0 0 -1
vn 0 0 -1
vn 0 0 -1
vn 0 0 -1
vn 0 0 -1
vn 0 0 -1
vn 0 0 -1
vn 0 0 -1
vn 0 0 -1
vn 0 0 -1
vn 0 0 -1
vn 0 0 -1
vn 0 0 -1
vn 0 0 -1
vn 0 0 -1
vn 0 0 -1
vn 0 0 -1
vn 0 0 -1
vn 0 0 -1
vn 0 0 -1
vn 0 0 -1
vn 0 0 -1
vn 0 0 1
vn 0 0 1
vn 0 0 1
vn 0 0 1
vn 0 0 1
vn 0 0 1
vn 0 0 1
vn 0 0 1
vn 0 0 1
vn 0 0 1
vn 0 0 1
vn 0 0 1
vn 0 0 1
vn 0 0 1
vn 0 0 1
vn 0 0 1
vn 0 0 1
vn 0 0 1
vn 0 0 1
vn 0 0 1
vn 0 0 1
vn 0 0 1
vn 0 0 1
vn 0 0 1
vn 0 0 1
vn 0 0 1
vn 0 0 1
vn 0 0 1
vn 0 0 1
vn 0 0 1
vn 0 0 1
vn 0 0 1
vn 0 0 1
vn 0 0 1
vn 0 0 1
vn 0 0 1
vn 0 0 1
vn 0 0 1
vn 0 0 1
vn 0 0 1
vn 0 0 1
vn 0.9028638 0.4299267 0
vn 0.9028638 0.4299267 0
vn 0.9028638 0.4299267 0
vn 0.9028638 0.4299267 0
vn 0.5299611 0.8480219 0
vn 0.5299611 0.8480219 0
vn 0.5299611 0.8480219 0
vn 0.5299611 0.8480219 0
vn 0.1833332 0.9830509 0
vn 0.1833332 0.9830509 0
vn 0.1833332 0.9830509 0
vn 0.1833332 0.9830509 0
vn -0.177795 0.9840676 0
vn -0.177795 0.9840676 0
vn -0.177795 0.9840676 0
vn -0.177795 0.9840676 0
vn -0.5299611 0.8480219 0
vn -0.5299611 0.8480219 0
vn -0.5299611 0.8480219 0
vn -0.5299611 0.8480219 0
vn -0.9028638 0.4299267 0
vn -0.9028638 0.4299267 0
vn -0.9028638 0.4299267 0
vn -0.9028638 0.4299267 0
vn -0.8803008 -0.4744159 0
vn -0.8803008 -0.4744159 0
vn -0.8803008 -0.4744159 0
vn -0.8803008 -0.4744159 0
vn 0.8803008 -0.4744159 0
vn 0.8803008 -0.4744159 0
vn 0.8803008 -0.4744159 0
vn 0.8803008 -0.4744159 0
vn -0.564901 -0.8251587 0
vn -0.564901 -0.8251587 0
vn -0.564901 -0.8251587 0
vn -0.564901 -0.8251587 0
vn 0.564901 -0.8251587 0
vn 0.564901 -0.8251587 0
vn 0.564901 -0.8251587 0
vn 0.564901 -0.8251587 0
vn -0.3743727 -0.9272783 0
vn -0.3743727 -0.9272783 0
vn -0.3743727 -0.9272783 0
vn -0.3743727 -0.9272783 0
vn 0.3899654 -0.9198918 -0.04154611
vn 0.3899654 -0.9198918 -0.04154611
vn 0.3899654 -0.9198918 -0.04154611
vn 0.3899654 -0.9198918 -0.04154611
vn -0.9986998 -0.05097736 0
vn -0.9986998 -0.05097736 0
vn -0.9986998 -0.05097736 0
vn -0.9986998 -0.05097736 0
vn 0.9986998 -0.05097736 0
vn 0.9986998 -0.05097736 0
vn 0.9986998 -0.05097736 0
vn 0.9986998 -0.05097736 0
vn 0 -1 0
vn 0 -1 0
vn 0 -1 0
vn 0 -1 0
vn 0 0 1
vn 0 0 1
vn 0 0 1
vn 0 0 1
vn -0.865788 0 0.500411
vn -0.865788 0 0.500411
vn -0.865788 0 0.500411
vn -0.865788 0 0.500411
vn -0.865788 0 -0.5004109
vn -0.865788 0 -0.5004109
vn -0.865788 0 -0.5004109
vn -0.865788 0 -0.5004109
vn 0 0 -1
vn 0 0 -1
vn 0 0 -1
vn 0 0 -1
vn 0.8663016 0 -0.4995213
vn 0.8663016 0 -0.4995213
vn 0.8663016 0 -0.4995213
vn 0.8663016 0 -0.4995213
vn 0.8663016 0 0.4995212
vn 0.8663016 0 0.4995212
vn 0.8663016 0 0.4995212
vn 0.8663016 0 0.4995212
vn 0 1 0
vn 0 1 0
vn 0 1 0
vn 0 1 0
vn 0 1 0
vn 0 1 0
vn 0 1 0
vn 0 -1 0
vn 0 -1 0
vn 0 -1 0
vn 0 -1 0
vn 0 -1 0
vn 0 -1 0
vn 0 -1 0

vt 0.775722 0.1260524
vt 0.775722 0.1260524
vt 0.775722 0.1260524
vt 0.775722 0.1260524
vt 0.775722 0.1260524
vt 0.775722 0.1260524
vt 0.775722 0.1260524
vt 0.775722 0.1260524
vt 0.775722 0.1260524
vt 0.775722 0.1260524
vt 0.775722 0.1260524
vt 0.775722 0.1260524
vt 0.775722 0.1260524
vt 0.775722 0.1260524
vt 0.775722 0.1260524
vt 0.775722 0.1260524
vt 0.775722 0.1260524
vt 0.775722 0.1260524
vt 0.775722 0.1260524
vt 0.775722 0.1260524
vt 0.775722 0.1260524
vt 0.775722 0.1260524
vt 0.3770447 0.4326188
vt 0.3770447 0.4326188
vt 0.3770447 0.4326188
vt 0.3770447 0.4326188
vt 0.3770447 0.4326188
vt 0.3770447 0.4326188
vt 0.3770447 0.4326188
vt 0.3770447 0.4326188
vt 0.3770447 0.4326188
vt 0.5061646 0.5317662
vt 0.5061646 0.5317662
vt 0.5061646 0.5317662
vt 0.5061646 0.5317662
vt 0.5061646 0.5317662
vt 0.5061646 0.5317662
vt 0.5061646 0.5317662
vt 0.5061646 0.5317662
vt 0.5061646 0.5317662
vt 0.5061646 0.5317662
vt 0.775722 0.1260524
vt 0.775722 0.1260524
vt 0.775722 0.1260524
vt 0.775722 0.1260524
vt 0.775722 0.1260524
vt 0.775722 0.1260524
vt 0.775722 0.1260524
vt 0.775722 0.1260524
vt 0.775722 0.1260524
vt 0.775722 0.1260524
vt 0.775722 0.1260524
vt 0.775722 0.1260524
vt 0.775722 0.1260524
vt 0.775722 0.1260524
vt 0.775722 0.1260524
vt 0.775722 0.1260524
vt 0.775722 0.1260524
vt 0.775722 0.1260524
vt 0.775722 0.1260524
vt 0.775722 0.1260524
vt 0.775722 0.1260524
vt 0.775722 0.1260524
vt 0.3770447 0.4326189
vt 0.3770447 0.4326189
vt 0.3770447 0.4326189
vt 0.3770447 0.4326189
vt 0.3770447 0.4326189
vt 0.3770447 0.4326189
vt 0.3770447 0.4326189
vt 0.3770447 0.4326189
vt 0.3770447 0.4326189
vt 0.5061646 0.5317662
vt 0.5061646 0.5317662
vt 0.5061646 0.5317662
vt 0.5061646 0.5317662
vt 0.5061646 0.5317662
vt 0.5061646 0.5317662
vt 0.5061646 0.5317662
vt 0.5061646 0.5317662
vt 0.5061646 0.5317662
vt 0.5061646 0.5317662
vt 0.775722 0.1260524
vt 0.775722 0.1260524
vt 0.775722 0.1260524
vt 0.775722 0.1260524
vt 0.775722 0.1260524
vt 0.775722 0.1260524
vt 0.775722 0.1260524
vt 0.775722 0.1260524
vt 0.775722 0.1260524
vt 0.775722 0.1260524
vt 0.775722 0.1260524
vt 0.775722 0.1260524
vt 0.775722 0.1260524
vt 0.775722 0.1260524
vt 0.775722 0.1260524
vt 0.775722 0.1260524
vt 0.775722 0.1260524
vt 0.775722 0.1260524
vt 0.775722 0.1260524
vt 0.775722 0.1260524
vt 0.775722 0.1260524
vt 0.775722 0.1260524
vt 0.775722 0.1260524
vt 0.775722 0.1260524
vt 0.775722 0.1260524
vt 0.775722 0.1260524
vt 0.775722 0.1260524
vt 0.775722 0.1260524
vt 0.775722 0.1260524
vt 0.775722 0.1260524
vt 0.775722 0.1260524
vt 0.775722 0.1260524
vt 0.5061646 0.5317662
vt 0.5061646 0.5317662
vt 0.5061646 0.5317662
vt 0.5061646 0.5317662
vt 0.5061646 0.5317662
vt 0.5061646 0.5317662
vt 0.5061646 0.5317662
vt 0.5061646 0.5317662
vt 0.5061646 0.5317662
vt 0.5061646 0.5317662
vt 0.5061646 0.5317662
vt 0.5061646 0.5317662
vt 0.5061646 0.5317662
vt 0.5061646 0.5317662
vt 0.5061646 0.5317662
vt 0.5061646 0.5317662
vt 0.775722 0.1260524
vt 0.775722 0.1260524
vt 0.775722 0.1260524
vt 0.775722 0.1260524
vt 0.775722 0.1260524
vt 0.775722 0.1260524
vt 0.775722 0.1260524
vt 0.775722 0.1260524
vt 0.5061646 0.5317662
vt 0.5061646 0.5317662
vt 0.5061646 0.5317662
vt 0.5061646 0.5317662
vt 0.6805716 0.7158124
vt 0.6805716 0.7158124
vt 0.6805716 0.7158124
vt 0.6805716 0.7158124
vt 0.6805716 0.7158124
vt 0.6805716 0.7158124
vt 0.6805716 0.7158124
vt 0.6805716 0.7158124
vt 0.6805716 0.7158124
vt 0.6805716 0.7158124
vt 0.6805716 0.7158124
vt 0.6805716 0.7158124
vt 0.6805716 0.7158124
vt 0.6805716 0.7158124
vt 0.6805716 0.7158124
vt 0.6805716 0.7158124
vt 0.6805716 0.7158124
vt 0.6805716 0.7158124
vt 0.6805715 0.7158124
vt 0.6805715 0.7158124
vt 0.6805715 0.7158124
vt 0.6805715 0.7158124
vt 0.6805716 0.7158124
vt 0.6805716 0.7158124
vt 0.6805716 0.7158124
vt 0.6805716 0.7158124
vt 0.6805715 0.7158124
vt 0.6805716 0.7158124
vt 0.6805716 0.7158124
vt 0.6805716 0.7158124
vt 0.6805716 0.7158124
vt 0.6805716 0.7158124
vt 0.6805716 0.7158124
vt 0.6805716 0.7158124
vt 0.6805716 0.7158124
vt 0.6805716 0.7158124
vt 0.6805715 0.7158124
vt 0.6805716 0.7158124

usemtl PolygonSamurai_Mat_02
usemap PolygonSamurai_Mat_02
f 2/2/2 1/1/1 3/3/3
f 4/4/4 1/1/1 2/2/2
f 5/5/5 4/4/4 2/2/2
f 6/6/6 4/4/4 5/5/5
f 7/7/7 1/1/1 4/4/4
f 8/8/8 4/4/4 6/6/6
f 7/7/7 9/9/9 1/1/1
f 8/8/8 6/6/6 10/10/10
f 11/11/11 9/9/9 7/7/7
f 10/10/10 6/6/6 12/12/12
f 10/10/10 12/12/12 13/13/13
f 11/11/11 14/14/14 9/9/9
f 13/13/13 12/12/12 15/15/15
f 16/16/16 14/14/14 11/11/11
f 13/13/13 15/15/15 17/17/17
f 16/16/16 17/17/17 14/14/14
f 15/15/15 18/18/18 17/17/17
f 18/18/18 14/14/14 17/17/17
f 19/19/19 18/18/18 15/15/15
f 19/19/19 15/15/15 20/20/20
f 21/21/21 14/14/14 18/18/18
f 21/21/21 22/22/22 14/14/14
f 24/24/24 23/23/23 25/25/25
f 26/26/26 23/23/23 24/24/24
f 26/26/26 27/27/27 23/23/23
f 28/28/28 26/26/26 24/24/24
f 29/29/29 27/27/27 26/26/26
f 30/30/30 26/26/26 28/28/28
f 30/30/30 29/29/29 26/26/26
f 31/31/31 29/29/29 30/30/30
f 33/33/33 32/32/32 34/34/34
f 34/34/34 32/32/32 35/35/35
f 32/32/32 36/36/36 35/35/35
f 34/34/34 35/35/35 37/37/37
f 36/36/36 38/38/38 35/35/35
f 37/37/37 35/35/35 39/39/39
f 38/38/38 40/40/40 35/35/35
f 35/35/35 41/41/41 39/39/39
f 35/35/35 40/40/40 41/41/41
f 43/43/43 42/42/42 44/44/44
f 44/44/44 42/42/42 45/45/45
f 44/44/44 45/45/45 46/46/46
f 46/46/46 45/45/45 47/47/47
f 48/48/48 45/45/45 42/42/42
f 49/49/49 47/47/47 45/45/45
f 48/48/48 42/42/42 50/50/50
f 49/49/49 51/51/51 47/47/47
f 50/50/50 42/42/42 52/52/52
f 53/53/53 51/51/51 49/49/49
f 50/50/50 52/52/52 54/54/54
f 53/53/53 55/55/55 51/51/51
f 54/54/54 52/52/52 56/56/56
f 57/57/57 55/55/55 53/53/53
f 54/54/54 56/56/56 58/58/58
f 57/57/57 58/58/58 55/55/55
f 58/58/58 56/56/56 59/59/59
f 58/58/58 59/59/59 55/55/55
f 59/59/59 56/56/56 60/60/60
f 56/56/56 61/61/61 60/60/60
f 55/55/55 59/59/59 62/62/62
f 63/63/63 55/55/55 62/62/62
f 65/65/65 64/64/64 66/66/66
f 66/66/66 64/64/64 67/67/67
f 64/64/64 68/68/68 67/67/67
f 66/66/66 67/67/67 69/69/69
f 67/67/67 68/68/68 70/70/70
f 69/69/69 67/67/67 71/71/71
f 67/67/67 70/70/70 71/71/71
f 71/71/71 70/70/70 72/72/72
f 74/74/74 73/73/73 75/75/75
f 76/76/76 73/73/73 74/74/74
f 76/76/76 77/77/77 73/73/73
f 78/78/78 76/76/76 74/74/74
f 76/76/76 79/79/79 77/77/77
f 78/78/78 80/80/80 76/76/76
f 76/76/76 81/81/81 79/79/79
f 80/80/80 82/82/82 76/76/76
f 82/82/82 81/81/81 76/76/76
f 84/84/84 83/83/83 85/85/85
f 85/85/85 83/83/83 86/86/86
f 88/88/88 87/87/87 89/89/89
f 89/89/89 87/87/87 90/90/90
f 92/92/92 91/91/91 93/93/93
f 93/93/93 91/91/91 94/94/94
f 96/96/96 95/95/95 97/97/97
f 97/97/97 95/95/95 98/98/98
f 100/100/100 99/99/99 101/101/101
f 101/101/101 99/99/99 102/102/102
f 104/104/104 103/103/103 105/105/105
f 105/105/105 103/103/103 106/106/106
f 108/108/108 107/107/107 109/109/109
f 109/109/109 107/107/107 110/110/110
f 112/112/112 111/111/111 113/113/113
f 113/113/113 111/111/111 114/114/114
f 116/116/116 115/115/115 117/117/117
f 117/117/117 115/115/115 118/118/118
f 120/120/120 119/119/119 121/121/121
f 121/121/121 119/119/119 122/122/122
f 124/124/124 123/123/123 125/125/125
f 125/125/125 123/123/123 126/126/126
f 128/128/128 127/127/127 129/129/129
f 129/129/129 127/127/127 130/130/130
f 132/132/132 131/131/131 133/133/133
f 133/133/133 131/131/131 134/134/134
f 136/136/136 135/135/135 137/137/137
f 137/137/137 135/135/135 138/138/138
f 140/140/140 139/139/139 141/141/141
f 141/141/141 139/139/139 142/142/142
f 144/144/144 143/143/143 145/145/145
f 145/145/145 143/143/143 146/146/146
f 148/148/148 147/147/147 149/149/149
f 149/149/149 147/147/147 150/150/150
f 152/152/152 151/151/151 153/153/153
f 153/153/153 151/151/151 154/154/154
f 156/156/156 155/155/155 157/157/157
f 157/157/157 155/155/155 158/158/158
f 160/160/160 159/159/159 161/161/161
f 161/161/161 159/159/159 162/162/162
f 164/164/164 163/163/163 165/165/165
f 165/165/165 163/163/163 166/166/166
f 168/168/168 167/167/167 169/169/169
f 168/168/168 170/170/170 167/167/167
f 168/168/168 169/169/169 171/171/171
f 168/168/168 172/172/172 170/170/170
f 168/168/168 171/171/171 173/173/173
f 168/168/168 173/173/173 172/172/172
f 175/175/175 174/174/174 176/176/176
f 175/175/175 177/177/177 174/174/174
f 175/175/175 176/176/176 178/178/178
f 175/175/175 179/179/179 177/177/177
f 175/175/175 178/178/178 180/180/180
f 175/175/175 180/180/180 179/179/179
