mtllib ./SM_Prop_Fan_03_43.mtl
g SM_Prop_Fan_03
v -0.05212402 -0.1063145 0.006195068
v 0.02253723 -0.1503954 0.005279541
v -0.06278992 -0.1199183 0.00340271
v -0.04397583 -0.09268439 0.003944397
v 0.02253723 -0.1503954 0.005279541
v -0.05212402 -0.1063145 0.006195068
v -0.03043365 -0.08270299 0.009628296
v 0.02253723 -0.1503954 0.005279541
v -0.04397583 -0.09268439 0.003944397
v -0.01644135 -0.07874912 0.004257202
v 0.02253723 -0.1503954 0.005279541
v -0.03043365 -0.08270299 0.009628296
v -0.002685547 -0.07226551 0.009628296
v 0.02253723 -0.1503954 0.005279541
v -0.01644135 -0.07874912 0.004257202
v 0.01359558 -0.06805974 0.004219055
v 0.02253723 -0.1503954 0.005279541
v -0.002685547 -0.07226551 0.009628296
v 0.02868652 -0.06851053 0.009628296
v 0.02253723 -0.1503954 0.005279541
v 0.01359558 -0.06805974 0.004219055
v 0.04290771 -0.06855559 0.004394531
v 0.02253723 -0.1503954 0.005279541
v 0.02868652 -0.06851053 0.009628296
v 0.05895233 -0.07512939 0.009628296
v 0.02253723 -0.1503954 0.005279541
v 0.04290771 -0.06855559 0.004394531
v 0.07461548 -0.08816838 0.004470825
v 0.02253723 -0.1503954 0.005279541
v 0.05895233 -0.07512939 0.009628296
v 0.08824921 -0.101247 0.009628296
v 0.02253723 -0.1503954 0.005279541
v 0.07461548 -0.08816838 0.004470825
v 0.06332397 -0.1795122 0.0002975464
v 0.06332397 -0.1795121 0.009757996
v 0.07180786 -0.1552509 0.009757996
v 0.07180786 -0.1552508 0.0002975464
v 0.06332397 -0.1795121 0.009757996
v -0.31073 -0.04939902 0.009757996
v -0.3022461 -0.02513778 0.009757996
v 0.07180786 -0.1552509 0.009757996
v -0.31073 -0.04939902 0.009757996
v -0.31073 -0.04939908 0.0002975464
v -0.3022461 -0.02513772 0.0002975464
v -0.3022461 -0.02513778 0.009757996
v -0.31073 -0.04939908 0.0002975464
v 0.06332397 -0.1795122 0.0002975464
v 0.07180786 -0.1552508 0.0002975464
v -0.3022461 -0.02513772 0.0002975464
v 0.07180786 -0.1552508 0.0002975464
v 0.07180786 -0.1552509 0.009757996
v -0.3022461 -0.02513778 0.009757996
v -0.3022461 -0.02513772 0.0002975464
v -0.31073 -0.04939908 0.0002975464
v -0.31073 -0.04939902 0.009757996
v 0.06332397 -0.1795121 0.009757996
v 0.06332397 -0.1795122 0.0002975464
v 0.2988968 0.05101132 0.009628296
v 0.2725067 0.03193426 0.009628296
v 0.2230453 0.06647664 -0.01248932
v 0.2545319 0.1027214 -0.01491547
v 0.2545319 0.1027214 -0.01491547
v 0.2230453 0.06647664 -0.01248932
v 0.1831512 0.1172373 0.009628296
v 0.2009354 0.1447895 0.009628296
v 0.2009354 0.1447895 0.009628296
v 0.1831512 0.1172373 0.009628296
v 0.1279755 0.1450043 -0.01249695
v 0.1401596 0.1755902 -0.01491547
v 0.1401596 0.1755902 -0.01491547
v 0.1279755 0.1450043 -0.01249695
v 0.06572723 0.1510637 0.009628296
v 0.07453918 0.1939459 0.009628296
v 0.07453918 0.1939459 0.009628296
v 0.06572723 0.1510637 0.009628296
v 0.007476807 0.1656645 -0.01251984
v 0.006599426 0.1991382 -0.01491547
v 0.006599426 0.1991382 -0.01491547
v 0.007476807 0.1656645 -0.01251984
v -0.05373383 0.1580008 0.009628296
v -0.06105042 0.1909812 0.009628296
v -0.06105042 0.1909812 0.009628296
v -0.05373383 0.1580008 0.009628296
v -0.107399 0.1252856 -0.01251221
v -0.1258011 0.1697881 -0.01491547
v -0.1258011 0.1697881 -0.01491547
v -0.107399 0.1252856 -0.01251221
v -0.1657944 0.1089213 0.009628296
v -0.1851807 0.1363674 0.009628296
v -0.1851807 0.1363674 0.009628296
v -0.1657944 0.1089213 0.009628296
v -0.2127228 0.06886059 -0.01255035
v -0.2368927 0.0919975 -0.01491547
v -0.2368927 0.0919975 -0.01491547
v -0.2127228 0.06886059 -0.01255035
v -0.2505417 0.02027166 0.00920105
v -0.2789612 0.03840202 0.009628296
v -0.2789612 0.03840202 0.009628296
v -0.2505417 0.02027166 0.00920105
v -0.2672577 -0.04087615 0.005622864
v -0.3097687 -0.02237982 0.005943298
v 0.31073 0.03466034 0.005310059
v 0.31073 0.03466034 0.01491547
v 0.2959137 0.05566525 0.01491547
v 0.2959137 0.05566525 0.005310059
v 0.31073 0.03466034 0.01491547
v -0.009010315 -0.1991382 0.01491547
v -0.0238266 -0.1781332 0.01491547
v 0.2959137 0.05566525 0.01491547
v -0.009010315 -0.1991382 0.01491547
v -0.009010315 -0.1991382 0.005310059
v -0.0238266 -0.1781332 0.005310059
v -0.0238266 -0.1781332 0.01491547
v -0.009010315 -0.1991382 0.005310059
v 0.31073 0.03466034 0.005310059
v 0.2959137 0.05566525 0.005310059
v -0.0238266 -0.1781332 0.005310059
v 0.2959137 0.05566525 0.005310059
v 0.2959137 0.05566525 0.01491547
v -0.0238266 -0.1781332 0.01491547
v -0.0238266 -0.1781332 0.005310059
v -0.009010315 -0.1991382 0.005310059
v -0.009010315 -0.1991382 0.01491547
v 0.31073 0.03466034 0.01491547
v 0.31073 0.03466034 0.005310059
v -0.2505417 0.02027166 0.00920105
v -0.05212402 -0.1063145 0.006195068
v -0.06278992 -0.1199183 0.00340271
v -0.2672577 -0.04087615 0.005622864
v -0.2127228 0.06886059 -0.01255035
v -0.04397583 -0.09268439 0.003944397
v -0.05212402 -0.1063145 0.006195068
v -0.2505417 0.02027166 0.00920105
v -0.1657944 0.1089213 0.009628296
v -0.03043365 -0.08270299 0.009628296
v -0.04397583 -0.09268439 0.003944397
v -0.2127228 0.06886059 -0.01255035
v -0.107399 0.1252856 -0.01251221
v -0.01644135 -0.07874912 0.004257202
v -0.03043365 -0.08270299 0.009628296
v -0.1657944 0.1089213 0.009628296
v -0.05373383 0.1580008 0.009628296
v -0.002685547 -0.07226551 0.009628296
v -0.01644135 -0.07874912 0.004257202
v -0.107399 0.1252856 -0.01251221
v 0.007476807 0.1656645 -0.01251984
v 0.01359558 -0.06805974 0.004219055
v -0.002685547 -0.07226551 0.009628296
v -0.05373383 0.1580008 0.009628296
v 0.06572723 0.1510637 0.009628296
v 0.02868652 -0.06851053 0.009628296
v 0.01359558 -0.06805974 0.004219055
v 0.007476807 0.1656645 -0.01251984
v 0.1279755 0.1450043 -0.01249695
v 0.04290771 -0.06855559 0.004394531
v 0.02868652 -0.06851053 0.009628296
v 0.06572723 0.1510637 0.009628296
v 0.1831512 0.1172373 0.009628296
v 0.05895233 -0.07512939 0.009628296
v 0.04290771 -0.06855559 0.004394531
v 0.1279755 0.1450043 -0.01249695
v 0.2230453 0.06647664 -0.01248932
v 0.07461548 -0.08816838 0.004470825
v 0.05895233 -0.07512939 0.009628296
v 0.1831512 0.1172373 0.009628296
v 0.2725067 0.03193426 0.009628296
v 0.08824921 -0.101247 0.009628296
v 0.07461548 -0.08816838 0.004470825
v 0.2230453 0.06647664 -0.01248932

vn -0.04959732 -0.110346 0.992655
vn -0.07347023 -0.1449323 0.98671
vn -0.04959732 -0.110346 0.992655
vn 0.08031526 0.1154699 0.9900587
vn 0.08031526 0.1154699 0.9900587
vn 0.08031526 0.1154699 0.9900587
vn -0.2491819 -0.2141747 0.9444774
vn -0.2233693 -0.2355554 0.9458435
vn -0.2491819 -0.2141747 0.9444774
vn 0.3016776 0.1946836 0.9333214
vn 0.3075614 0.1806569 0.9342211
vn 0.3016776 0.1946836 0.9333214
vn -0.3189294 -0.111808 0.9411604
vn -0.2980694 -0.1487079 0.9428895
vn -0.3189294 -0.111808 0.9411604
vn 0.3142887 0.05964247 0.9474521
vn 0.3044085 0.04531364 0.9514631
vn 0.3142887 0.05964247 0.9474521
vn -0.3396289 0.01666802 0.9404118
vn -0.3379702 -0.02458557 0.9408356
vn -0.3396289 0.01666802 0.9404118
vn 0.3382547 -0.0662596 0.938719
vn 0.3441808 -0.07554863 0.9358589
vn 0.3382547 -0.0662596 0.938719
vn -0.2793919 0.07988984 0.9568478
vn -0.2793919 0.07988984 0.9568478
vn -0.2793919 0.07988984 0.9568478
vn 0.233594 -0.1590296 0.959241
vn 0.1943109 -0.1500217 0.9694002
vn 0.233594 -0.1590296 0.959241
vn -0.1957451 0.1763575 0.9646667
vn -0.1957451 0.1763575 0.9646667
vn -0.1957451 0.1763575 0.9646667
vn 0.9439501 -0.3300881 0
vn 0.9439501 -0.3300881 0
vn 0.9439501 -0.3300881 0
vn 0.9439501 -0.3300881 0
vn 0 0 1
vn 0 0 1
vn 0 0 1
vn 0 0 1
vn -0.9439501 0.3300881 0
vn -0.9439501 0.3300881 0
vn -0.9439501 0.3300881 0
vn -0.9439501 0.3300881 0
vn 0 0 -1
vn 0 0 -1
vn 0 0 -1
vn 0 0 -1
vn 0.3285373 0.944491 0
vn 0.3285373 0.944491 0
vn 0.3285373 0.944491 0
vn 0.3285373 0.944491 0
vn -0.3285373 -0.944491 0
vn -0.3285373 -0.944491 0
vn -0.3285373 -0.944491 0
vn -0.3285373 -0.944491 0
vn -0.2184763 0.2696945 0.9378342
vn -0.206596 0.2750752 0.9389631
vn -0.206596 0.2750752 0.9389631
vn -0.2184763 0.2696945 0.9378342
vn 0.285717 -0.1849013 0.940307
vn 0.2791134 -0.1763435 0.9439273
vn 0.2791134 -0.1763435 0.9439273
vn 0.285717 -0.1849013 0.940307
vn -0.284645 0.1858474 0.9404457
vn -0.2799788 0.1835335 0.9422991
vn -0.2799788 0.1835335 0.9422991
vn -0.284645 0.1858474 0.9404457
vn 0.3313986 -0.06372068 0.9413366
vn 0.3318436 -0.06034167 0.9414025
vn 0.3318436 -0.06034167 0.9414025
vn 0.3313986 -0.06372068 0.9413366
vn -0.3373781 0.06452437 0.9391553
vn -0.3390457 0.0612092 0.9387766
vn -0.3390457 0.0612092 0.9387766
vn -0.3373781 0.06452437 0.9391553
vn 0.3315869 0.07478846 0.9404556
vn 0.3278305 0.07437096 0.9418048
vn 0.3278305 0.07437096 0.9418048
vn 0.3315869 0.07478846 0.9404556
vn -0.3332273 -0.08147271 0.9393198
vn -0.3362249 -0.07809063 0.9385386
vn -0.3362249 -0.07809063 0.9385386
vn -0.3332273 -0.08147271 0.9393198
vn 0.2933734 0.18541 0.9378461
vn 0.2945698 0.1970518 0.9350931
vn 0.2945698 0.1970518 0.9350931
vn 0.2933734 0.18541 0.9378461
vn -0.278112 -0.1955052 0.9404421
vn -0.2764138 -0.1940297 0.9412481
vn -0.2764138 -0.1940297 0.9412481
vn -0.278112 -0.1955052 0.9404421
vn 0.185943 0.281169 0.9414718
vn 0.1734019 0.2654387 0.948406
vn 0.1734019 0.2654387 0.948406
vn 0.185943 0.281169 0.9414718
vn -0.01680523 -0.05292669 0.998457
vn -0.02122172 -0.06424856 0.9977082
vn -0.02122172 -0.06424856 0.9977082
vn -0.01680523 -0.05292669 0.998457
vn 0.8171642 0.5764049 0
vn 0.8171642 0.5764049 0
vn 0.8171642 0.5764049 0
vn 0.8171642 0.5764049 0
vn 0 0 1
vn 0 0 1
vn 0 0 1
vn 0 0 1
vn -0.8171642 -0.5764049 0
vn -0.8171642 -0.5764049 0
vn -0.8171642 -0.5764049 0
vn -0.8171642 -0.5764049 0
vn 0 0 -1
vn 0 0 -1
vn 0 0 -1
vn 0 0 -1
vn -0.5902504 0.8072201 0
vn -0.5902504 0.8072201 0
vn -0.5902504 0.8072201 0
vn -0.5902504 0.8072201 0
vn 0.5902504 -0.8072201 0
vn 0.5902504 -0.8072201 0
vn 0.5902504 -0.8072201 0
vn 0.5902504 -0.8072201 0
vn -0.02122172 -0.06424856 0.9977082
vn -0.04959732 -0.110346 0.992655
vn -0.04959732 -0.110346 0.992655
vn -0.02122172 -0.06424856 0.9977082
vn 0.1734019 0.2654387 0.948406
vn 0.1607823 0.2495882 0.9549108
vn 0.1607823 0.2495882 0.9549108
vn 0.1734019 0.2654387 0.948406
vn -0.2764138 -0.1940297 0.9412481
vn -0.2491819 -0.2141747 0.9444774
vn -0.2491819 -0.2141747 0.9444774
vn -0.2764138 -0.1940297 0.9412481
vn 0.2945698 0.1970518 0.9350931
vn 0.3016776 0.1946836 0.9333214
vn 0.3016776 0.1946836 0.9333214
vn 0.2945698 0.1970518 0.9350931
vn -0.3362249 -0.07809063 0.9385386
vn -0.3189294 -0.111808 0.9411604
vn -0.3189294 -0.111808 0.9411604
vn -0.3362249 -0.07809063 0.9385386
vn 0.3278305 0.07437096 0.9418048
vn 0.3142887 0.05964247 0.9474521
vn 0.3142887 0.05964247 0.9474521
vn 0.3278305 0.07437096 0.9418048
vn -0.3390457 0.0612092 0.9387766
vn -0.3396289 0.01666802 0.9404118
vn -0.3396289 0.01666802 0.9404118
vn -0.3390457 0.0612092 0.9387766
vn 0.3318436 -0.06034167 0.9414025
vn 0.3382547 -0.0662596 0.938719
vn 0.3382547 -0.0662596 0.938719
vn 0.3318436 -0.06034167 0.9414025
vn -0.2799788 0.1835335 0.9422991
vn -0.2753039 0.1812139 0.9441235
vn -0.2753039 0.1812139 0.9441235
vn -0.2799788 0.1835335 0.9422991
vn 0.2791134 -0.1763435 0.9439273
vn 0.233594 -0.1590296 0.959241
vn 0.233594 -0.1590296 0.959241
vn 0.2791134 -0.1763435 0.9439273
vn -0.206596 0.2750752 0.9389631
vn -0.1946802 0.2804088 0.9399311
vn -0.1946802 0.2804088 0.9399311
vn -0.206596 0.2750752 0.9389631

vt 0.9931844 0.4034449
vt 0.9931844 0.4034449
vt 0.9931844 0.4034449
vt 0.9931844 0.4034449
vt 0.9931844 0.4034449
vt 0.9931844 0.4034449
vt 0.9931844 0.4034449
vt 0.9931844 0.4034449
vt 0.9931844 0.4034449
vt 0.9931844 0.4034449
vt 0.9931844 0.4034449
vt 0.9931844 0.4034449
vt 0.9931844 0.4034449
vt 0.9931844 0.4034449
vt 0.9931844 0.4034449
vt 0.9931844 0.4034449
vt 0.9931844 0.4034449
vt 0.9931844 0.4034449
vt 0.9931844 0.4034449
vt 0.9931844 0.4034449
vt 0.9931844 0.4034449
vt 0.9931844 0.4034449
vt 0.9931844 0.4034449
vt 0.9931844 0.4034449
vt 0.9931844 0.4034449
vt 0.9931844 0.4034449
vt 0.9931844 0.4034449
vt 0.9931844 0.4034449
vt 0.9931844 0.4034449
vt 0.9931844 0.4034449
vt 0.9931844 0.4034449
vt 0.9931844 0.4034449
vt 0.9931844 0.4034449
vt 0.9933392 0.4052377
vt 0.9933392 0.4052377
vt 0.9933392 0.4052377
vt 0.9933392 0.4052377
vt 0.9933392 0.4052377
vt 0.9933392 0.4052377
vt 0.9933392 0.4052377
vt 0.9933392 0.4052377
vt 0.9933392 0.4052377
vt 0.9933392 0.4052377
vt 0.9933392 0.4052377
vt 0.9933392 0.4052377
vt 0.9933392 0.4052377
vt 0.9933392 0.4052377
vt 0.9933392 0.4052377
vt 0.9933392 0.4052377
vt 0.9933392 0.4052377
vt 0.9933392 0.4052377
vt 0.9933392 0.4052377
vt 0.9933392 0.4052377
vt 0.9933392 0.4052377
vt 0.9933392 0.4052377
vt 0.9933392 0.4052377
vt 0.9933392 0.4052377
vt 0.6452712 0.1107433
vt 0.6452712 0.1107433
vt 0.6452712 0.1107433
vt 0.6452712 0.1107433
vt 0.6452712 0.1107433
vt 0.6452712 0.1107433
vt 0.6452712 0.1107433
vt 0.6452712 0.1107433
vt 0.6452712 0.1107433
vt 0.6452712 0.1107433
vt 0.6452712 0.1107433
vt 0.6452712 0.1107433
vt 0.6452712 0.1107433
vt 0.6452712 0.1107433
vt 0.6452712 0.1107433
vt 0.6452712 0.1107433
vt 0.6452712 0.1107433
vt 0.6452712 0.1107433
vt 0.6452712 0.1107433
vt 0.6452712 0.1107433
vt 0.6452712 0.1107433
vt 0.6452712 0.1107433
vt 0.6452712 0.1107433
vt 0.6452712 0.1107433
vt 0.6452712 0.1107433
vt 0.6452712 0.1107433
vt 0.6452712 0.1107433
vt 0.6452712 0.1107433
vt 0.6452712 0.1107433
vt 0.6452712 0.1107433
vt 0.6452712 0.1107433
vt 0.6452712 0.1107433
vt 0.6452712 0.1107433
vt 0.6452712 0.1107433
vt 0.6452712 0.1107433
vt 0.6452712 0.1107433
vt 0.6452712 0.1107433
vt 0.6452712 0.1107433
vt 0.6452712 0.1107433
vt 0.6452712 0.1107433
vt 0.6452712 0.1107433
vt 0.6452712 0.1107433
vt 0.6452712 0.1107433
vt 0.6452712 0.1107433
vt 0.9933392 0.4052377
vt 0.9933392 0.4052377
vt 0.9933392 0.4052377
vt 0.9933392 0.4052377
vt 0.9933392 0.4052377
vt 0.9933392 0.4052377
vt 0.9933392 0.4052377
vt 0.9933392 0.4052377
vt 0.9933392 0.4052377
vt 0.9933392 0.4052377
vt 0.9933392 0.4052377
vt 0.9933392 0.4052377
vt 0.9933392 0.4052377
vt 0.9933392 0.4052377
vt 0.9933392 0.4052377
vt 0.9933392 0.4052377
vt 0.9933392 0.4052377
vt 0.9933392 0.4052377
vt 0.9933392 0.4052377
vt 0.9933392 0.4052377
vt 0.9933392 0.4052377
vt 0.9933392 0.4052377
vt 0.9933392 0.4052377
vt 0.9933392 0.4052377
vt 0.4327871 0.6572884
vt 0.4327871 0.6572883
vt 0.4327871 0.6572883
vt 0.432787 0.6572884
vt 0.432787 0.6572884
vt 0.432787 0.6572883
vt 0.4327871 0.6572883
vt 0.4327871 0.6572884
vt 0.432787 0.6572884
vt 0.4327871 0.6572883
vt 0.432787 0.6572883
vt 0.432787 0.6572884
vt 0.4327871 0.6572884
vt 0.4327871 0.6572883
vt 0.4327871 0.6572883
vt 0.432787 0.6572884
vt 0.4327871 0.6572884
vt 0.4327871 0.6572883
vt 0.4327871 0.6572883
vt 0.4327871 0.6572884
vt 0.4327871 0.6572883
vt 0.4327871 0.6572883
vt 0.4327871 0.6572883
vt 0.4327871 0.6572884
vt 0.432787 0.6572883
vt 0.4327871 0.6572883
vt 0.4327871 0.6572883
vt 0.4327871 0.6572883
vt 0.432787 0.6572883
vt 0.4327871 0.6572883
vt 0.4327871 0.6572883
vt 0.432787 0.6572883
vt 0.4327869 0.6572884
vt 0.432787 0.6572883
vt 0.4327871 0.6572883
vt 0.432787 0.6572883
vt 0.432787 0.6572884
vt 0.4327871 0.6572883
vt 0.432787 0.6572883
vt 0.4327869 0.6572884
vt 0.432787 0.6572884
vt 0.4327871 0.6572883
vt 0.4327871 0.6572883
vt 0.432787 0.6572884

usemtl PolygonSamurai_Mat_01
usemap PolygonSamurai_Mat_01
f 2/2/2 1/1/1 3/3/3
f 5/5/5 4/4/4 6/6/6
f 8/8/8 7/7/7 9/9/9
f 11/11/11 10/10/10 12/12/12
f 14/14/14 13/13/13 15/15/15
f 17/17/17 16/16/16 18/18/18
f 20/20/20 19/19/19 21/21/21
f 23/23/23 22/22/22 24/24/24
f 26/26/26 25/25/25 27/27/27
f 29/29/29 28/28/28 30/30/30
f 32/32/32 31/31/31 33/33/33
f 35/35/35 34/34/34 36/36/36
f 36/36/36 34/34/34 37/37/37
f 39/39/39 38/38/38 40/40/40
f 40/40/40 38/38/38 41/41/41
f 43/43/43 42/42/42 44/44/44
f 44/44/44 42/42/42 45/45/45
f 47/47/47 46/46/46 48/48/48
f 48/48/48 46/46/46 49/49/49
f 51/51/51 50/50/50 52/52/52
f 52/52/52 50/50/50 53/53/53
f 55/55/55 54/54/54 56/56/56
f 56/56/56 54/54/54 57/57/57
f 59/59/59 58/58/58 60/60/60
f 60/60/60 58/58/58 61/61/61
f 63/63/63 62/62/62 64/64/64
f 64/64/64 62/62/62 65/65/65
f 67/67/67 66/66/66 68/68/68
f 68/68/68 66/66/66 69/69/69
f 71/71/71 70/70/70 72/72/72
f 72/72/72 70/70/70 73/73/73
f 75/75/75 74/74/74 76/76/76
f 76/76/76 74/74/74 77/77/77
f 79/79/79 78/78/78 80/80/80
f 80/80/80 78/78/78 81/81/81
f 83/83/83 82/82/82 84/84/84
f 84/84/84 82/82/82 85/85/85
f 87/87/87 86/86/86 88/88/88
f 88/88/88 86/86/86 89/89/89
f 91/91/91 90/90/90 92/92/92
f 92/92/92 90/90/90 93/93/93
f 95/95/95 94/94/94 96/96/96
f 96/96/96 94/94/94 97/97/97
f 99/99/99 98/98/98 100/100/100
f 100/100/100 98/98/98 101/101/101
f 103/103/103 102/102/102 104/104/104
f 104/104/104 102/102/102 105/105/105
f 107/107/107 106/106/106 108/108/108
f 108/108/108 106/106/106 109/109/109
f 111/111/111 110/110/110 112/112/112
f 112/112/112 110/110/110 113/113/113
f 115/115/115 114/114/114 116/116/116
f 116/116/116 114/114/114 117/117/117
f 119/119/119 118/118/118 120/120/120
f 120/120/120 118/118/118 121/121/121
f 123/123/123 122/122/122 124/124/124
f 124/124/124 122/122/122 125/125/125
f 127/127/127 126/126/126 128/128/128
f 128/128/128 126/126/126 129/129/129
f 131/131/131 130/130/130 132/132/132
f 132/132/132 130/130/130 133/133/133
f 135/135/135 134/134/134 136/136/136
f 136/136/136 134/134/134 137/137/137
f 139/139/139 138/138/138 140/140/140
f 140/140/140 138/138/138 141/141/141
f 143/143/143 142/142/142 144/144/144
f 144/144/144 142/142/142 145/145/145
f 147/147/147 146/146/146 148/148/148
f 148/148/148 146/146/146 149/149/149
f 151/151/151 150/150/150 152/152/152
f 152/152/152 150/150/150 153/153/153
f 155/155/155 154/154/154 156/156/156
f 156/156/156 154/154/154 157/157/157
f 159/159/159 158/158/158 160/160/160
f 160/160/160 158/158/158 161/161/161
f 163/163/163 162/162/162 164/164/164
f 164/164/164 162/162/162 165/165/165
f 167/167/167 166/166/166 168/168/168
f 168/168/168 166/166/166 169/169/169
