mtllib ./SM_Prop_Fan_05_64.mtl
g SM_Prop_Fan_05
v -0.04764557 0.01078224 0.0008010864
v -0.0717926 0.04703498 -0.005447388
v -0.06969452 0.08832878 0.001014709
v -0.05212402 -0.1063132 0.006195068
v 0.02253723 -0.1503968 0.005279541
v -0.06278992 -0.119917 0.00340271
v -0.04397583 -0.09268308 0.003944397
v 0.02253723 -0.1503968 0.005279541
v -0.05212402 -0.1063132 0.006195068
v -0.03043365 -0.08269894 0.009628296
v 0.02253723 -0.1503968 0.005279541
v -0.04397583 -0.09268308 0.003944397
v -0.01644135 -0.07874781 0.004257202
v 0.02253723 -0.1503968 0.005279541
v -0.03043365 -0.08269894 0.009628296
v -0.002685547 -0.07226419 0.009628296
v 0.02253723 -0.1503968 0.005279541
v -0.01644135 -0.07874781 0.004257202
v 0.01359558 -0.06805843 0.004219055
v 0.02253723 -0.1503968 0.005279541
v -0.002685547 -0.07226419 0.009628296
v 0.02868652 -0.06851184 0.009628296
v 0.02253723 -0.1503968 0.005279541
v 0.01359558 -0.06805843 0.004219055
v 0.04290009 -0.06855428 0.004394531
v 0.02253723 -0.1503968 0.005279541
v 0.02868652 -0.06851184 0.009628296
v 0.05895233 -0.07512808 0.009628296
v 0.02253723 -0.1503968 0.005279541
v 0.04290009 -0.06855428 0.004394531
v 0.07461548 -0.08816969 0.004470825
v 0.02253723 -0.1503968 0.005279541
v 0.05895233 -0.07512808 0.009628296
v 0.08824921 -0.1012456 0.009628296
v 0.02253723 -0.1503968 0.005279541
v 0.07461548 -0.08816969 0.004470825
v -0.06969452 0.08832878 0.001014709
v -0.0717926 0.04703498 -0.005447388
v -0.1258011 0.1697867 -0.01491547
v -0.01644135 -0.07874781 0.004257202
v -0.04764557 0.01078224 0.0008010864
v -0.01786041 -0.003815889 0.009628296
v -0.002685547 -0.07226419 0.009628296
v 0.07453918 0.1939499 0.009628296
v 0.04624176 0.03195417 0.009628296
v 0.0368576 0.09478855 -0.0006866455
v 0.0368576 0.09478855 -0.0006866455
v 0.006599426 0.1991395 -0.01491547
v 0.07453918 0.1939499 0.009628296
v 0.0368576 0.09478855 -0.0006866455
v 0.008720398 0.118249 -0.009124756
v 0.006599426 0.1991395 -0.01491547
v 0.06332397 -0.1795135 0.0002975464
v 0.06332397 -0.1795136 0.009757996
v 0.07180786 -0.1552522 0.009757996
v 0.07180786 -0.1552522 0.0002975464
v 0.06332397 -0.1795136 0.009757996
v -0.31073 -0.04940033 0.009757996
v -0.3022461 -0.02513909 0.009757996
v 0.07180786 -0.1552522 0.009757996
v -0.31073 -0.04940033 0.009757996
v -0.31073 -0.04940039 0.0002975464
v -0.3022461 -0.02513903 0.0002975464
v -0.3022461 -0.02513909 0.009757996
v -0.31073 -0.04940039 0.0002975464
v 0.06332397 -0.1795135 0.0002975464
v 0.07180786 -0.1552522 0.0002975464
v -0.3022461 -0.02513903 0.0002975464
v 0.07180786 -0.1552522 0.0002975464
v 0.07180786 -0.1552522 0.009757996
v -0.3022461 -0.02513909 0.009757996
v -0.3022461 -0.02513903 0.0002975464
v -0.31073 -0.04940039 0.0002975464
v -0.31073 -0.04940033 0.009757996
v 0.06332397 -0.1795136 0.009757996
v 0.06332397 -0.1795135 0.0002975464
v 0.2988968 0.05101264 0.009628296
v 0.08824921 -0.1012456 0.009628296
v 0.07461548 -0.08816969 0.004470825
v 0.2545319 0.1027227 -0.01491547
v 0.2545319 0.1027227 -0.01491547
v 0.07461548 -0.08816969 0.004470825
v 0.05895233 -0.07512808 0.009628296
v 0.2009354 0.1447882 0.009628296
v 0.2009354 0.1447882 0.009628296
v 0.05895233 -0.07512808 0.009628296
v 0.04290009 -0.06855428 0.004394531
v 0.1401596 0.1755915 -0.01491547
v 0.07453918 0.1939499 0.009628296
v 0.1401596 0.1755915 -0.01491547
v 0.04290009 -0.06855428 0.004394531
v 0.04624176 0.03195417 0.009628296
v 0.02868652 -0.06851184 0.009628296
v 0.04624176 0.03195417 0.009628296
v 0.01163483 0.006812453 -0.001144409
v 0.008720398 0.118249 -0.009124756
v 0.0368576 0.09478855 -0.0006866455
v 0.008720398 0.118249 -0.009124756
v 0.01163483 0.006812453 -0.001144409
v -0.01786041 -0.003815889 0.009628296
v -0.04444122 0.1160852 0.009628296
v -0.04444122 0.1160852 0.009628296
v -0.01786041 -0.003815889 0.009628296
v -0.04764557 0.01078224 0.0008010864
v -0.06969452 0.08832878 0.001014709
v -0.0717926 0.04703498 -0.005447388
v -0.01644135 -0.07874781 0.004257202
v -0.03043365 -0.08269894 0.009628296
v -0.1851807 0.1363688 0.009628296
v -0.1258011 0.1697867 -0.01491547
v -0.1851807 0.1363688 0.009628296
v -0.03043365 -0.08269894 0.009628296
v -0.04397583 -0.09268308 0.003944397
v -0.2368927 0.09199888 -0.01491547
v -0.2368927 0.09199888 -0.01491547
v -0.04397583 -0.09268308 0.003944397
v -0.05212402 -0.1063132 0.006195068
v -0.2789612 0.03840333 0.009628296
v -0.2789612 0.03840333 0.009628296
v -0.05212402 -0.1063132 0.006195068
v -0.06278992 -0.119917 0.00340271
v -0.3097687 -0.0223785 0.005943298
v 0.006599426 0.1991395 -0.01491547
v 0.008720398 0.118249 -0.009124756
v -0.04444122 0.1160852 0.009628296
v -0.06105042 0.1909825 0.009628296
v -0.06105042 0.1909825 0.009628296
v -0.04444122 0.1160852 0.009628296
v -0.06969452 0.08832878 0.001014709
v -0.1258011 0.1697867 -0.01491547
v 0.01163483 0.006812453 -0.001144409
v 0.01359558 -0.06805843 0.004219055
v -0.002685547 -0.07226419 0.009628296
v -0.01786041 -0.003815889 0.009628296
v 0.04624176 0.03195417 0.009628296
v 0.02868652 -0.06851184 0.009628296
v 0.01359558 -0.06805843 0.004219055
v 0.01163483 0.006812453 -0.001144409
v 0.31073 0.03465903 0.005310059
v 0.31073 0.03465903 0.01491547
v 0.2959137 0.05566388 0.01491547
v 0.2959137 0.05566388 0.005310059
v 0.31073 0.03465903 0.01491547
v -0.009010315 -0.1991395 0.01491547
v -0.0238266 -0.1781346 0.01491547
v 0.2959137 0.05566388 0.01491547
v -0.009010315 -0.1991395 0.01491547
v -0.009010315 -0.1991395 0.005310059
v -0.0238266 -0.1781346 0.005310059
v -0.0238266 -0.1781346 0.01491547
v -0.009010315 -0.1991395 0.005310059
v 0.31073 0.03465903 0.005310059
v 0.2959137 0.05566388 0.005310059
v -0.0238266 -0.1781346 0.005310059
v 0.2959137 0.05566388 0.005310059
v 0.2959137 0.05566388 0.01491547
v -0.0238266 -0.1781346 0.01491547
v -0.0238266 -0.1781346 0.005310059
v -0.009010315 -0.1991395 0.005310059
v -0.009010315 -0.1991395 0.01491547
v 0.31073 0.03465903 0.01491547
v 0.31073 0.03465903 0.005310059

vn -0.4001704 -0.1097231 0.9098486
vn -0.4090814 -0.1127004 0.9055115
vn -0.420357 -0.1194007 0.8994684
vn -0.04916425 -0.109076 0.9928169
vn -0.07347388 -0.1449295 0.9867101
vn -0.04916425 -0.109076 0.9928169
vn 0.08031838 0.115468 0.9900586
vn 0.08031838 0.115468 0.9900586
vn 0.08031838 0.115468 0.9900586
vn -0.2495026 -0.2144473 0.9443309
vn -0.2233509 -0.2355228 0.9458558
vn -0.2495026 -0.2144473 0.9443309
vn 0.3038708 0.1923263 0.9330987
vn 0.3075901 0.1806655 0.93421
vn 0.2964159 0.1945012 0.9350438
vn -0.3155039 -0.1112926 0.9423754
vn -0.2980716 -0.1487034 0.9428895
vn -0.3158671 -0.09879787 0.9436455
vn 0.3079287 0.05900639 0.9495779
vn 0.3044089 0.04531217 0.951463
vn 0.3079287 0.05900639 0.9495779
vn -0.3369133 0.01701322 0.941382
vn -0.337974 -0.02458518 0.9408342
vn -0.3369133 0.01701322 0.941382
vn 0.3422976 -0.06379883 0.9374232
vn 0.3443555 -0.07555819 0.9357939
vn 0.3445659 -0.06790209 0.9363032
vn -0.2792919 0.07983661 0.9568815
vn -0.2792919 0.07983661 0.9568815
vn -0.2792919 0.07983661 0.9568815
vn 0.2334304 -0.1594182 0.9592164
vn 0.1942972 -0.1500099 0.9694047
vn 0.2334304 -0.1594182 0.9592164
vn -0.1915491 0.221511 0.9561599
vn -0.1957629 0.176372 0.9646605
vn -0.1915491 0.221511 0.9561599
vn -0.420357 -0.1194007 0.8994684
vn -0.4090814 -0.1127004 0.9055115
vn -0.4267688 -0.1186179 0.8965479
vn -0.3336559 -0.09895848 0.9374864
vn -0.3169973 -0.07915505 0.9451175
vn -0.3212052 -0.07241909 0.9442366
vn -0.3155039 -0.1112926 0.9423754
vn -0.4505343 0.07869934 0.8892835
vn -0.4505343 0.07869934 0.8892835
vn -0.4505343 0.07869934 0.8892835
vn -0.3158436 0.05486903 0.9472234
vn -0.3375541 0.0304062 0.9408149
vn -0.3375541 0.0304062 0.9408149
vn -0.2660175 0.07123896 0.9613322
vn -0.2660175 0.07123896 0.9613322
vn -0.2380102 0.06314204 0.9692081
vn 0.9439503 -0.3300874 0
vn 0.9439503 -0.3300874 0
vn 0.9439503 -0.3300874 0
vn 0.9439503 -0.3300874 0
vn 0 0 1
vn 0 0 1
vn 0 0 1
vn 0 0 1
vn -0.9439501 0.3300881 0
vn -0.9439501 0.3300881 0
vn -0.9439501 0.3300881 0
vn -0.9439501 0.3300881 0
vn 0 0 -1
vn 0 0 -1
vn 0 0 -1
vn 0 0 -1
vn 0.3285373 0.944491 0
vn 0.3285373 0.944491 0
vn 0.3285373 0.944491 0
vn 0.3285373 0.944491 0
vn -0.3285374 -0.944491 0
vn -0.3285374 -0.944491 0
vn -0.3285374 -0.944491 0
vn -0.3285374 -0.944491 0
vn -0.1869278 0.2661788 0.9456251
vn -0.1915491 0.221511 0.9561599
vn -0.1915491 0.221511 0.9561599
vn -0.1869278 0.2661788 0.9456251
vn 0.2721613 -0.1685517 0.9473746
vn 0.2334304 -0.1594182 0.9592164
vn 0.2334304 -0.1594182 0.9592164
vn 0.2721613 -0.1685517 0.9473746
vn -0.2770717 0.1820987 0.943436
vn -0.2770717 0.1820987 0.943436
vn -0.2770717 0.1820987 0.943436
vn -0.2770717 0.1820987 0.943436
vn 0.3400213 -0.05969414 0.9385213
vn 0.3351528 -0.05914293 0.9403057
vn 0.3422976 -0.06379883 0.9374232
vn 0.3448183 -0.06024287 0.9367344
vn 0.3445659 -0.06790209 0.9363032
vn -0.3146161 0.06894635 0.9467117
vn -0.3146161 0.06894635 0.9467117
vn -0.2660175 0.07123896 0.9613322
vn -0.2901027 0.05767011 0.9552563
vn 0.3280305 0.0743655 0.9417355
vn 0.3183486 0.07334375 0.9451322
vn 0.3183486 0.07334375 0.9451322
vn 0.3280305 0.0743655 0.9417355
vn -0.2759634 -0.0672681 0.9588113
vn -0.3212052 -0.07241909 0.9442366
vn -0.3169973 -0.07915505 0.9451175
vn -0.2843765 -0.06077318 0.9567845
vn 0.2868042 0.1993344 0.9370214
vn 0.3038708 0.1923263 0.9330987
vn 0.2964159 0.1945012 0.9350438
vn 0.2801294 0.1970058 0.9395298
vn 0.2788068 0.195197 0.9403004
vn -0.2753722 -0.1931293 0.9417384
vn -0.2495026 -0.2144473 0.9443309
vn -0.2495026 -0.2144473 0.9443309
vn -0.2753722 -0.1931293 0.9417384
vn 0.1657377 0.2558045 0.9524154
vn 0.1657377 0.2558045 0.9524154
vn 0.1657377 0.2558045 0.9524154
vn 0.1657377 0.2558045 0.9524154
vn -0.02476052 -0.0730138 0.9970235
vn -0.04916425 -0.109076 0.9928169
vn -0.04916425 -0.109076 0.9928169
vn -0.02476052 -0.0730138 0.9970235
vn 0.3307644 0.07473547 0.9407494
vn 0.3280305 0.0743655 0.9417355
vn 0.3280305 0.0743655 0.9417355
vn 0.3307644 0.07473547 0.9407494
vn -0.3020412 -0.05442586 0.9517399
vn -0.2759634 -0.0672681 0.9588113
vn -0.2843765 -0.06077318 0.9567845
vn -0.3395798 -0.05021567 0.9392358
vn 0.3183486 0.07334375 0.9451322
vn 0.3079287 0.05900639 0.9495779
vn 0.3079287 0.05900639 0.9495779
vn 0.3183486 0.07334375 0.9451322
vn -0.3146161 0.06894635 0.9467117
vn -0.3369133 0.01701322 0.941382
vn -0.3369133 0.01701322 0.941382
vn -0.3146161 0.06894635 0.9467117
vn 0.8171634 0.576406 0
vn 0.8171634 0.576406 0
vn 0.8171634 0.576406 0
vn 0.8171634 0.576406 0
vn 0 0 1
vn 0 0 1
vn 0 0 1
vn 0 0 1
vn -0.8171642 -0.5764049 0
vn -0.8171642 -0.5764049 0
vn -0.8171642 -0.5764049 0
vn -0.8171642 -0.5764049 0
vn 0 0 -1
vn 0 0 -1
vn 0 0 -1
vn 0 0 -1
vn -0.5902504 0.8072203 0
vn -0.5902504 0.8072203 0
vn -0.5902504 0.8072203 0
vn -0.5902504 0.8072203 0
vn 0.5902504 -0.8072201 0
vn 0.5902504 -0.8072201 0
vn 0.5902504 -0.8072201 0
vn 0.5902504 -0.8072201 0

vt 0.775722 0.1260524
vt 0.775722 0.1260524
vt 0.775722 0.1260524
vt 0.9931844 0.4034449
vt 0.9931844 0.4034449
vt 0.9931844 0.4034449
vt 0.9931844 0.4034449
vt 0.9931844 0.4034449
vt 0.9931844 0.4034449
vt 0.9931844 0.4034449
vt 0.9931844 0.4034449
vt 0.9931844 0.4034449
vt 0.9931844 0.4034449
vt 0.9931844 0.4034449
vt 0.9931844 0.4034449
vt 0.9931844 0.4034449
vt 0.9931844 0.4034449
vt 0.9931844 0.4034449
vt 0.9931844 0.4034449
vt 0.9931844 0.4034449
vt 0.9931844 0.4034449
vt 0.9931844 0.4034449
vt 0.9931844 0.4034449
vt 0.9931844 0.4034449
vt 0.9931844 0.4034449
vt 0.9931844 0.4034449
vt 0.9931844 0.4034449
vt 0.9931844 0.4034449
vt 0.9931844 0.4034449
vt 0.9931844 0.4034449
vt 0.9931844 0.4034449
vt 0.9931844 0.4034449
vt 0.9931844 0.4034449
vt 0.9931844 0.4034449
vt 0.9931844 0.4034449
vt 0.9931844 0.4034449
vt 0.512785 0.4220563
vt 0.512785 0.4220563
vt 0.512785 0.4220563
vt 0.512785 0.4220563
vt 0.512785 0.4220563
vt 0.512785 0.4220563
vt 0.512785 0.4220563
vt 0.512785 0.4220563
vt 0.512785 0.4220563
vt 0.512785 0.4220563
vt 0.512785 0.4220563
vt 0.512785 0.4220563
vt 0.512785 0.4220563
vt 0.512785 0.4220563
vt 0.512785 0.4220563
vt 0.512785 0.4220563
vt 0.9933392 0.4052377
vt 0.9933392 0.4052377
vt 0.9933392 0.4052377
vt 0.9933392 0.4052377
vt 0.9933392 0.4052377
vt 0.9933392 0.4052377
vt 0.9933392 0.4052377
vt 0.9933392 0.4052377
vt 0.9933392 0.4052377
vt 0.9933392 0.4052377
vt 0.9933392 0.4052377
vt 0.9933392 0.4052377
vt 0.9933392 0.4052377
vt 0.9933392 0.4052377
vt 0.9933392 0.4052377
vt 0.9933392 0.4052377
vt 0.9933392 0.4052377
vt 0.9933392 0.4052377
vt 0.9933392 0.4052377
vt 0.9933392 0.4052377
vt 0.9933392 0.4052377
vt 0.9933392 0.4052377
vt 0.9933392 0.4052377
vt 0.9933392 0.4052377
vt 0.512785 0.4220563
vt 0.512785 0.4220563
vt 0.512785 0.4220563
vt 0.512785 0.4220563
vt 0.512785 0.4220563
vt 0.512785 0.4220563
vt 0.512785 0.4220563
vt 0.5127848 0.4220563
vt 0.5127848 0.4220563
vt 0.512785 0.4220563
vt 0.512785 0.4220563
vt 0.5127849 0.4220563
vt 0.512785 0.4220563
vt 0.5127849 0.4220563
vt 0.512785 0.4220563
vt 0.512785 0.4220563
vt 0.512785 0.4220563
vt 0.775722 0.1260524
vt 0.775722 0.1260524
vt 0.775722 0.1260524
vt 0.775722 0.1260524
vt 0.775722 0.1260524
vt 0.775722 0.1260524
vt 0.775722 0.1260524
vt 0.775722 0.1260524
vt 0.775722 0.1260524
vt 0.775722 0.1260524
vt 0.775722 0.1260524
vt 0.775722 0.1260524
vt 0.512785 0.4220563
vt 0.512785 0.4220563
vt 0.512785 0.4220563
vt 0.512785 0.4220563
vt 0.512785 0.4220563
vt 0.512785 0.4220563
vt 0.512785 0.4220563
vt 0.512785 0.4220563
vt 0.5127849 0.4220563
vt 0.5127849 0.4220563
vt 0.512785 0.4220563
vt 0.512785 0.4220563
vt 0.512785 0.4220563
vt 0.512785 0.4220563
vt 0.512785 0.4220563
vt 0.512785 0.4220563
vt 0.512785 0.4220563
vt 0.512785 0.4220563
vt 0.512785 0.4220563
vt 0.512785 0.4220563
vt 0.512785 0.4220563
vt 0.512785 0.4220563
vt 0.512785 0.4220563
vt 0.512785 0.4220563
vt 0.512785 0.4220563
vt 0.512785 0.4220563
vt 0.512785 0.4220563
vt 0.512785 0.4220563
vt 0.512785 0.4220563
vt 0.512785 0.4220563
vt 0.512785 0.4220563
vt 0.512785 0.4220563
vt 0.512785 0.4220563
vt 0.9933392 0.4052377
vt 0.9933392 0.4052377
vt 0.9933392 0.4052377
vt 0.9933392 0.4052377
vt 0.9933392 0.4052377
vt 0.9933392 0.4052377
vt 0.9933392 0.4052377
vt 0.9933392 0.4052377
vt 0.9933392 0.4052377
vt 0.9933392 0.4052377
vt 0.9933392 0.4052377
vt 0.9933392 0.4052377
vt 0.9933392 0.4052377
vt 0.9933392 0.4052377
vt 0.9933392 0.4052377
vt 0.9933392 0.4052377
vt 0.9933392 0.4052377
vt 0.9933392 0.4052377
vt 0.9933392 0.4052377
vt 0.9933392 0.4052377
vt 0.9933392 0.4052377
vt 0.9933392 0.4052377
vt 0.9933392 0.4052377
vt 0.9933392 0.4052377

usemtl PolygonSamurai_Mat_02
usemap PolygonSamurai_Mat_02
f 2/2/2 1/1/1 3/3/3
f 5/5/5 4/4/4 6/6/6
f 8/8/8 7/7/7 9/9/9
f 11/11/11 10/10/10 12/12/12
f 14/14/14 13/13/13 15/15/15
f 17/17/17 16/16/16 18/18/18
f 20/20/20 19/19/19 21/21/21
f 23/23/23 22/22/22 24/24/24
f 26/26/26 25/25/25 27/27/27
f 29/29/29 28/28/28 30/30/30
f 32/32/32 31/31/31 33/33/33
f 35/35/35 34/34/34 36/36/36
f 38/38/38 37/37/37 39/39/39
f 38/38/38 40/40/40 41/41/41
f 41/41/41 40/40/40 42/42/42
f 43/43/43 42/42/42 40/40/40
f 45/45/45 44/44/44 46/46/46
f 48/48/48 47/47/47 49/49/49
f 51/51/51 50/50/50 52/52/52
f 54/54/54 53/53/53 55/55/55
f 55/55/55 53/53/53 56/56/56
f 58/58/58 57/57/57 59/59/59
f 59/59/59 57/57/57 60/60/60
f 62/62/62 61/61/61 63/63/63
f 63/63/63 61/61/61 64/64/64
f 66/66/66 65/65/65 67/67/67
f 67/67/67 65/65/65 68/68/68
f 70/70/70 69/69/69 71/71/71
f 71/71/71 69/69/69 72/72/72
f 74/74/74 73/73/73 75/75/75
f 75/75/75 73/73/73 76/76/76
f 78/78/78 77/77/77 79/79/79
f 79/79/79 77/77/77 80/80/80
f 82/82/82 81/81/81 83/83/83
f 83/83/83 81/81/81 84/84/84
f 86/86/86 85/85/85 87/87/87
f 87/87/87 85/85/85 88/88/88
f 90/90/90 89/89/89 91/91/91
f 92/92/92 91/91/91 89/89/89
f 93/93/93 91/91/91 92/92/92
f 95/95/95 94/94/94 96/96/96
f 96/96/96 94/94/94 97/97/97
f 99/99/99 98/98/98 100/100/100
f 100/100/100 98/98/98 101/101/101
f 103/103/103 102/102/102 104/104/104
f 105/105/105 104/104/104 102/102/102
f 107/107/107 106/106/106 108/108/108
f 109/109/109 108/108/108 106/106/106
f 110/110/110 109/109/109 106/106/106
f 112/112/112 111/111/111 113/113/113
f 113/113/113 111/111/111 114/114/114
f 116/116/116 115/115/115 117/117/117
f 117/117/117 115/115/115 118/118/118
f 120/120/120 119/119/119 121/121/121
f 121/121/121 119/119/119 122/122/122
f 124/124/124 123/123/123 125/125/125
f 125/125/125 123/123/123 126/126/126
f 128/128/128 127/127/127 129/129/129
f 130/130/130 129/129/129 127/127/127
f 132/132/132 131/131/131 133/133/133
f 133/133/133 131/131/131 134/134/134
f 136/136/136 135/135/135 137/137/137
f 137/137/137 135/135/135 138/138/138
f 140/140/140 139/139/139 141/141/141
f 141/141/141 139/139/139 142/142/142
f 144/144/144 143/143/143 145/145/145
f 145/145/145 143/143/143 146/146/146
f 148/148/148 147/147/147 149/149/149
f 149/149/149 147/147/147 150/150/150
f 152/152/152 151/151/151 153/153/153
f 153/153/153 151/151/151 154/154/154
f 156/156/156 155/155/155 157/157/157
f 157/157/157 155/155/155 158/158/158
f 160/160/160 159/159/159 161/161/161
f 161/161/161 159/159/159 162/162/162
