mtllib ./SM_Prop_Fan_01_65.mtl
g SM_Prop_Fan_01
v -0.1416321 0.1937474 -0.01201057
v 0.00112915 0.2508186 -0.01201153
v -0.07122803 0.2377455 -0.01201153
v 0.002227783 0.1937474 -0.01201057
v 0.07122803 0.2377455 -0.01201153
v -0.1739197 0.1259421 -0.01201057
v 0.1416321 0.1937474 -0.01201057
v 0.002746582 0.1259421 -0.01201057
v 0.1739197 0.1259421 -0.01201057
v -0.1705933 0.06077409 -0.01201057
v 0.002685547 0.06077409 -0.01201057
v 0.1705933 0.06077409 -0.01201057
v 0.002349854 0.001322329 -0.01201057
v -0.05841064 -0.00406754 -0.01201057
v -0.1177368 -0.03730357 -0.01201248
v 0.06430054 -0.006721258 -0.01201248
v 0.1177368 -0.03730357 -0.01201248
v -0.05841064 -0.00406754 -0.01201057
v -0.1177368 -0.03730357 -0.01201248
v -0.06698608 -0.07204735 -0.01201248
v 0.001556396 -0.06034362 -0.01201248
v 0.002349854 0.001322329 -0.01201057
v -0.01156616 -0.09442216 -0.01201248
v 0.06430054 -0.006721258 -0.01201248
v 0.01184082 -0.09442216 -0.01201248
v 0.1177368 -0.03730357 -0.01201248
v 0.06698608 -0.07204735 -0.01201248
v -0.1416321 0.1937473 0.01018715
v -0.07122803 0.2377455 0.0101862
v 0.00112915 0.2508185 0.0101862
v 0.002227783 0.1937473 0.01018715
v 0.07122803 0.2377455 0.0101862
v -0.1739197 0.125942 0.01018715
v 0.1416321 0.1937473 0.01018715
v 0.002746582 0.125942 0.01018715
v 0.1739197 0.125942 0.01018715
v -0.1705933 0.06077409 0.01018715
v 0.002685547 0.06077409 0.01018715
v 0.1705933 0.06077409 0.01018715
v 0.002349854 0.001322269 0.01018715
v -0.05841064 -0.004067659 0.01018715
v -0.1177368 -0.03730345 0.01018524
v 0.06430054 -0.006721258 0.01018524
v 0.1177368 -0.03730345 0.01018524
v -0.05841064 -0.004067659 0.01018715
v -0.06698608 -0.07204723 0.01018524
v -0.1177368 -0.03730345 0.01018524
v 0.001556396 -0.0603435 0.01018524
v 0.002349854 0.001322269 0.01018715
v -0.01156616 -0.0944221 0.01018524
v 0.06430054 -0.006721258 0.01018524
v 0.01657104 -0.0944221 0.01018524
v 0.1177368 -0.03730345 0.01018524
v 0.06698608 -0.07204723 0.01018524
v 0.1739197 0.125942 0.01018715
v 0.1416321 0.1937473 0.01018715
v 0.1416321 0.1937474 -0.01201057
v 0.1739197 0.1259421 -0.01201057
v 0.1416321 0.1937473 0.01018715
v 0.07122803 0.2377455 0.0101862
v 0.07122803 0.2377455 -0.01201153
v 0.1416321 0.1937474 -0.01201057
v 0.07122803 0.2377455 0.0101862
v 0.00112915 0.2508185 0.0101862
v 0.00112915 0.2508186 -0.01201153
v 0.07122803 0.2377455 -0.01201153
v 0.00112915 0.2508185 0.0101862
v -0.07122803 0.2377455 0.0101862
v -0.07122803 0.2377455 -0.01201153
v 0.00112915 0.2508186 -0.01201153
v -0.07122803 0.2377455 0.0101862
v -0.1416321 0.1937473 0.01018715
v -0.1416321 0.1937474 -0.01201057
v -0.07122803 0.2377455 -0.01201153
v -0.1416321 0.1937473 0.01018715
v -0.1739197 0.125942 0.01018715
v -0.1739197 0.1259421 -0.01201057
v -0.1416321 0.1937474 -0.01201057
v -0.1705933 0.06077409 0.01018715
v -0.1177368 -0.03730345 0.01018524
v -0.1177368 -0.03730357 -0.01201248
v -0.1705933 0.06077409 -0.01201057
v 0.1177368 -0.03730345 0.01018524
v 0.1705933 0.06077409 0.01018715
v 0.1705933 0.06077409 -0.01201057
v 0.1177368 -0.03730357 -0.01201248
v -0.1177368 -0.03730345 0.01018524
v -0.06698608 -0.07204723 0.01018524
v -0.06698608 -0.07204735 -0.01201248
v -0.1177368 -0.03730357 -0.01201248
v 0.06698608 -0.07204723 0.01018524
v 0.1177368 -0.03730345 0.01018524
v 0.1177368 -0.03730357 -0.01201248
v 0.06698608 -0.07204735 -0.01201248
v -0.06698608 -0.07204723 0.01018524
v -0.01156616 -0.0944221 0.01018524
v -0.01156616 -0.09442216 -0.01201248
v -0.06698608 -0.07204735 -0.01201248
v 0.01657104 -0.0944221 0.01018524
v 0.06698608 -0.07204723 0.01018524
v 0.06698608 -0.07204735 -0.01201248
v 0.01184082 -0.09442216 -0.01201248
v -0.1739197 0.125942 0.01018715
v -0.1705933 0.06077409 0.01018715
v -0.1705933 0.06077409 -0.01201057
v -0.1739197 0.1259421 -0.01201057
v 0.1705933 0.06077409 0.01018715
v 0.1739197 0.125942 0.01018715
v 0.1739197 0.1259421 -0.01201057
v 0.1705933 0.06077409 -0.01201057
v -0.01156616 -0.0944221 0.01018524
v 0.01657104 -0.0944221 0.01018524
v 0.01184082 -0.09442216 -0.01201248
v -0.01156616 -0.09442216 -0.01201248
v 0.01489258 -0.0944221 0.02303314
v 0.01489258 -0.2508185 0.02303314
v -0.01168823 -0.2508185 0.02303314
v -0.01168823 -0.0944221 0.02303314
v -0.01168823 -0.0944221 0.02303314
v -0.01168823 -0.2508185 0.02303314
v -0.0249939 -0.2508186 0
v -0.0249939 -0.09442222 0
v -0.0249939 -0.09442222 0
v -0.0249939 -0.2508186 0
v -0.01168823 -0.2508186 -0.02303314
v -0.01168823 -0.09442216 -0.02303314
v -0.01168823 -0.09442216 -0.02303314
v -0.01168823 -0.2508186 -0.02303314
v 0.01489258 -0.2508186 -0.02303314
v 0.01489258 -0.09442216 -0.02303314
v 0.01489258 -0.09442216 -0.02303314
v 0.01489258 -0.2508186 -0.02303314
v 0.02819824 -0.2508186 0
v 0.02819824 -0.09442222 0
v 0.02819824 -0.09442222 0
v 0.02819824 -0.2508186 0
v 0.01489258 -0.2508185 0.02303314
v 0.01489258 -0.0944221 0.02303314
v -0.01168823 -0.0944221 0.02303314
v 0.001586914 -0.09442222 0
v 0.01489258 -0.0944221 0.02303314
v -0.0249939 -0.09442222 0
v 0.02819824 -0.09442222 0
v -0.01168823 -0.09442216 -0.02303314
v 0.01489258 -0.09442216 -0.02303314
v 0.01489258 -0.2508185 0.02303314
v 0.001586914 -0.2508186 0
v -0.01168823 -0.2508185 0.02303314
v 0.02819824 -0.2508186 0
v -0.0249939 -0.2508186 0
v 0.01489258 -0.2508186 -0.02303314
v -0.01168823 -0.2508186 -0.02303314

vn 0 0 -1
vn 0 0 -1
vn 0 0 -1
vn 0 0 -1
vn 0 0 -1
vn 0 0 -1
vn 0 0 -1
vn 0 0 -1
vn 0 0 -1
vn 0 0 -1
vn 0 0 -1
vn 0 0 -1
vn 0 0 -1
vn 0 0 -1
vn 0 0 -1
vn 0 0 -1
vn 0 0 -1
vn 0 0 -1
vn 0 0 -1
vn 0 0 -1
vn 0 0 -1
vn 0 0 -1
vn 0 0 -1
vn 0 0 -1
vn 0 0 -1
vn 0 0 -1
vn 0 0 -1
vn 0 0 1
vn 0 0 1
vn 0 0 1
vn 0 0 1
vn 0 0 1
vn 0 0 1
vn 0 0 1
vn 0 0 1
vn 0 0 1
vn 0 0 1
vn 0 0 1
vn 0 0 1
vn 0 0 1
vn 0 0 1
vn 0 0 1
vn 0 0 1
vn 0 0 1
vn 0 0 1
vn 0 0 1
vn 0 0 1
vn 0 0 1
vn 0 0 1
vn 0 0 1
vn 0 0 1
vn 0 0 1
vn 0 0 1
vn 0 0 1
vn 0.9028638 0.4299267 0
vn 0.9028638 0.4299267 0
vn 0.9028638 0.4299267 0
vn 0.9028638 0.4299267 0
vn 0.5299611 0.8480219 0
vn 0.5299611 0.8480219 0
vn 0.5299611 0.8480219 0
vn 0.5299611 0.8480219 0
vn 0.1833332 0.9830509 0
vn 0.1833332 0.9830509 0
vn 0.1833332 0.9830509 0
vn 0.1833332 0.9830509 0
vn -0.177795 0.9840676 0
vn -0.177795 0.9840676 0
vn -0.177795 0.9840676 0
vn -0.177795 0.9840676 0
vn -0.5299611 0.8480219 0
vn -0.5299611 0.8480219 0
vn -0.5299611 0.8480219 0
vn -0.5299611 0.8480219 0
vn -0.9028638 0.4299267 0
vn -0.9028638 0.4299267 0
vn -0.9028638 0.4299267 0
vn -0.9028638 0.4299267 0
vn -0.8803008 -0.4744159 0
vn -0.8803008 -0.4744159 0
vn -0.8803008 -0.4744159 0
vn -0.8803008 -0.4744159 0
vn 0.8803008 -0.4744159 0
vn 0.8803008 -0.4744159 0
vn 0.8803008 -0.4744159 0
vn 0.8803008 -0.4744159 0
vn -0.564901 -0.8251587 0
vn -0.564901 -0.8251587 0
vn -0.564901 -0.8251587 0
vn -0.564901 -0.8251587 0
vn 0.564901 -0.8251587 0
vn 0.564901 -0.8251587 0
vn 0.564901 -0.8251587 0
vn 0.564901 -0.8251587 0
vn -0.3743727 -0.9272783 0
vn -0.3743727 -0.9272783 0
vn -0.3743727 -0.9272783 0
vn -0.3743727 -0.9272783 0
vn 0.3899654 -0.9198918 -0.04154611
vn 0.3899654 -0.9198918 -0.04154611
vn 0.3899654 -0.9198918 -0.04154611
vn 0.3899654 -0.9198918 -0.04154611
vn -0.9986998 -0.05097736 0
vn -0.9986998 -0.05097736 0
vn -0.9986998 -0.05097736 0
vn -0.9986998 -0.05097736 0
vn 0.9986998 -0.05097736 0
vn 0.9986998 -0.05097736 0
vn 0.9986998 -0.05097736 0
vn 0.9986998 -0.05097736 0
vn 0 -1 0
vn 0 -1 0
vn 0 -1 0
vn 0 -1 0
vn 0 0 1
vn 0 0 1
vn 0 0 1
vn 0 0 1
vn -0.8659037 0 0.5002107
vn -0.8659037 0 0.5002107
vn -0.8659037 0 0.5002107
vn -0.8659037 0 0.5002107
vn -0.8659037 0 -0.5002107
vn -0.8659037 0 -0.5002107
vn -0.8659037 0 -0.5002107
vn -0.8659037 0 -0.5002107
vn 0 0 -1
vn 0 0 -1
vn 0 0 -1
vn 0 0 -1
vn 0.8659037 0 -0.5002107
vn 0.8659037 0 -0.5002107
vn 0.8659037 0 -0.5002107
vn 0.8659037 0 -0.5002107
vn 0.8659037 0 0.5002107
vn 0.8659037 0 0.5002107
vn 0.8659037 0 0.5002107
vn 0.8659037 0 0.5002107
vn 0 1 0
vn 0 1 0
vn 0 1 0
vn 0 1 0
vn 0 1 0
vn 0 1 0
vn 0 1 0
vn 0 -1 0
vn 0 -1 0
vn 0 -1 0
vn 0 -1 0
vn 0 -1 0
vn 0 -1 0
vn 0 -1 0

vt 0.775722 0.1260524
vt 0.775722 0.1260524
vt 0.775722 0.1260524
vt 0.775722 0.1260524
vt 0.775722 0.1260524
vt 0.775722 0.1260524
vt 0.775722 0.1260524
vt 0.775722 0.1260524
vt 0.775722 0.1260524
vt 0.775722 0.1260524
vt 0.775722 0.1260524
vt 0.775722 0.1260524
vt 0.775722 0.1260524
vt 0.775722 0.1260524
vt 0.775722 0.1260524
vt 0.775722 0.1260524
vt 0.775722 0.1260524
vt 0.5061646 0.5317662
vt 0.5061646 0.5317662
vt 0.5061646 0.5317662
vt 0.5061646 0.5317662
vt 0.5061646 0.5317662
vt 0.5061646 0.5317662
vt 0.5061646 0.5317662
vt 0.5061646 0.5317662
vt 0.5061646 0.5317662
vt 0.5061646 0.5317662
vt 0.775722 0.1260524
vt 0.775722 0.1260524
vt 0.775722 0.1260524
vt 0.775722 0.1260524
vt 0.775722 0.1260524
vt 0.775722 0.1260524
vt 0.775722 0.1260524
vt 0.775722 0.1260524
vt 0.775722 0.1260524
vt 0.775722 0.1260524
vt 0.775722 0.1260524
vt 0.775722 0.1260524
vt 0.775722 0.1260524
vt 0.775722 0.1260524
vt 0.775722 0.1260524
vt 0.775722 0.1260524
vt 0.775722 0.1260524
vt 0.5061646 0.5317662
vt 0.5061646 0.5317662
vt 0.5061646 0.5317662
vt 0.5061646 0.5317662
vt 0.5061646 0.5317662
vt 0.5061646 0.5317662
vt 0.5061646 0.5317662
vt 0.5061646 0.5317662
vt 0.5061646 0.5317662
vt 0.5061646 0.5317662
vt 0.775722 0.1260524
vt 0.775722 0.1260524
vt 0.775722 0.1260524
vt 0.775722 0.1260524
vt 0.775722 0.1260524
vt 0.775722 0.1260524
vt 0.775722 0.1260524
vt 0.775722 0.1260524
vt 0.775722 0.1260524
vt 0.775722 0.1260524
vt 0.775722 0.1260524
vt 0.775722 0.1260524
vt 0.775722 0.1260524
vt 0.775722 0.1260524
vt 0.775722 0.1260524
vt 0.775722 0.1260524
vt 0.775722 0.1260524
vt 0.775722 0.1260524
vt 0.775722 0.1260524
vt 0.775722 0.1260524
vt 0.775722 0.1260524
vt 0.775722 0.1260524
vt 0.775722 0.1260524
vt 0.775722 0.1260524
vt 0.775722 0.1260524
vt 0.775722 0.1260524
vt 0.775722 0.1260524
vt 0.775722 0.1260524
vt 0.775722 0.1260524
vt 0.775722 0.1260524
vt 0.775722 0.1260524
vt 0.775722 0.1260524
vt 0.5061646 0.5317662
vt 0.5061646 0.5317662
vt 0.5061646 0.5317662
vt 0.5061646 0.5317662
vt 0.5061646 0.5317662
vt 0.5061646 0.5317662
vt 0.5061646 0.5317662
vt 0.5061646 0.5317662
vt 0.5061646 0.5317662
vt 0.5061646 0.5317662
vt 0.5061646 0.5317662
vt 0.5061646 0.5317662
vt 0.5061646 0.5317662
vt 0.5061646 0.5317662
vt 0.5061646 0.5317662
vt 0.5061646 0.5317662
vt 0.775722 0.1260524
vt 0.775722 0.1260524
vt 0.775722 0.1260524
vt 0.775722 0.1260524
vt 0.775722 0.1260524
vt 0.775722 0.1260524
vt 0.775722 0.1260524
vt 0.775722 0.1260524
vt 0.5061646 0.5317662
vt 0.5061646 0.5317662
vt 0.5061646 0.5317662
vt 0.5061646 0.5317662
vt 0.6805716 0.7158124
vt 0.6805716 0.7158124
vt 0.6805716 0.7158124
vt 0.6805716 0.7158124
vt 0.6805716 0.7158124
vt 0.6805716 0.7158124
vt 0.6805716 0.7158124
vt 0.6805716 0.7158124
vt 0.6805716 0.7158124
vt 0.6805716 0.7158124
vt 0.6805716 0.7158124
vt 0.6805716 0.7158124
vt 0.6805716 0.7158124
vt 0.6805716 0.7158124
vt 0.6805716 0.7158124
vt 0.6805716 0.7158124
vt 0.6805716 0.7158124
vt 0.6805716 0.7158124
vt 0.6805715 0.7158124
vt 0.6805715 0.7158124
vt 0.6805715 0.7158124
vt 0.6805715 0.7158124
vt 0.6805716 0.7158124
vt 0.6805716 0.7158124
vt 0.6805716 0.7158124
vt 0.6805716 0.7158124
vt 0.6805715 0.7158124
vt 0.6805716 0.7158124
vt 0.6805716 0.7158124
vt 0.6805716 0.7158124
vt 0.6805716 0.7158124
vt 0.6805716 0.7158124
vt 0.6805716 0.7158124
vt 0.6805716 0.7158124
vt 0.6805716 0.7158124
vt 0.6805716 0.7158124
vt 0.6805715 0.7158124
vt 0.6805716 0.7158124

usemtl PolygonSamurai_Mat_02
usemap PolygonSamurai_Mat_02
f 2/2/2 1/1/1 3/3/3
f 4/4/4 1/1/1 2/2/2
f 5/5/5 4/4/4 2/2/2
f 4/4/4 6/6/6 1/1/1
f 7/7/7 4/4/4 5/5/5
f 8/8/8 6/6/6 4/4/4
f 7/7/7 8/8/8 4/4/4
f 9/9/9 8/8/8 7/7/7
f 8/8/8 10/10/10 6/6/6
f 9/9/9 11/11/11 8/8/8
f 11/11/11 10/10/10 8/8/8
f 12/12/12 11/11/11 9/9/9
f 13/13/13 10/10/10 11/11/11
f 12/12/12 13/13/13 11/11/11
f 14/14/14 10/10/10 13/13/13
f 14/14/14 15/15/15 10/10/10
f 16/16/16 13/13/13 12/12/12
f 16/16/16 12/12/12 17/17/17
f 19/19/19 18/18/18 20/20/20
f 20/20/20 18/18/18 21/21/21
f 18/18/18 22/22/22 21/21/21
f 20/20/20 21/21/21 23/23/23
f 22/22/22 24/24/24 21/21/21
f 23/23/23 21/21/21 25/25/25
f 24/24/24 26/26/26 21/21/21
f 21/21/21 27/27/27 25/25/25
f 21/21/21 26/26/26 27/27/27
f 29/29/29 28/28/28 30/30/30
f 30/30/30 28/28/28 31/31/31
f 30/30/30 31/31/31 32/32/32
f 28/28/28 33/33/33 31/31/31
f 32/32/32 31/31/31 34/34/34
f 31/31/31 33/33/33 35/35/35
f 31/31/31 35/35/35 34/34/34
f 34/34/34 35/35/35 36/36/36
f 33/33/33 37/37/37 35/35/35
f 35/35/35 38/38/38 36/36/36
f 35/35/35 37/37/37 38/38/38
f 36/36/36 38/38/38 39/39/39
f 38/38/38 37/37/37 40/40/40
f 38/38/38 40/40/40 39/39/39
f 40/40/40 37/37/37 41/41/41
f 37/37/37 42/42/42 41/41/41
f 39/39/39 40/40/40 43/43/43
f 44/44/44 39/39/39 43/43/43
f 46/46/46 45/45/45 47/47/47
f 48/48/48 45/45/45 46/46/46
f 48/48/48 49/49/49 45/45/45
f 50/50/50 48/48/48 46/46/46
f 48/48/48 51/51/51 49/49/49
f 50/50/50 52/52/52 48/48/48
f 48/48/48 53/53/53 51/51/51
f 52/52/52 54/54/54 48/48/48
f 54/54/54 53/53/53 48/48/48
f 56/56/56 55/55/55 57/57/57
f 57/57/57 55/55/55 58/58/58
f 60/60/60 59/59/59 61/61/61
f 61/61/61 59/59/59 62/62/62
f 64/64/64 63/63/63 65/65/65
f 65/65/65 63/63/63 66/66/66
f 68/68/68 67/67/67 69/69/69
f 69/69/69 67/67/67 70/70/70
f 72/72/72 71/71/71 73/73/73
f 73/73/73 71/71/71 74/74/74
f 76/76/76 75/75/75 77/77/77
f 77/77/77 75/75/75 78/78/78
f 80/80/80 79/79/79 81/81/81
f 81/81/81 79/79/79 82/82/82
f 84/84/84 83/83/83 85/85/85
f 85/85/85 83/83/83 86/86/86
f 88/88/88 87/87/87 89/89/89
f 89/89/89 87/87/87 90/90/90
f 92/92/92 91/91/91 93/93/93
f 93/93/93 91/91/91 94/94/94
f 96/96/96 95/95/95 97/97/97
f 97/97/97 95/95/95 98/98/98
f 100/100/100 99/99/99 101/101/101
f 101/101/101 99/99/99 102/102/102
f 104/104/104 103/103/103 105/105/105
f 105/105/105 103/103/103 106/106/106
f 108/108/108 107/107/107 109/109/109
f 109/109/109 107/107/107 110/110/110
f 112/112/112 111/111/111 113/113/113
f 113/113/113 111/111/111 114/114/114
f 116/116/116 115/115/115 117/117/117
f 117/117/117 115/115/115 118/118/118
f 120/120/120 119/119/119 121/121/121
f 121/121/121 119/119/119 122/122/122
f 124/124/124 123/123/123 125/125/125
f 125/125/125 123/123/123 126/126/126
f 128/128/128 127/127/127 129/129/129
f 129/129/129 127/127/127 130/130/130
f 132/132/132 131/131/131 133/133/133
f 133/133/133 131/131/131 134/134/134
f 136/136/136 135/135/135 137/137/137
f 137/137/137 135/135/135 138/138/138
f 140/140/140 139/139/139 141/141/141
f 140/140/140 142/142/142 139/139/139
f 140/140/140 141/141/141 143/143/143
f 140/140/140 144/144/144 142/142/142
f 140/140/140 143/143/143 145/145/145
f 140/140/140 145/145/145 144/144/144
f 147/147/147 146/146/146 148/148/148
f 147/147/147 149/149/149 146/146/146
f 147/147/147 148/148/148 150/150/150
f 147/147/147 151/151/151 149/149/149
f 147/147/147 150/150/150 152/152/152
f 147/147/147 152/152/152 151/151/151
