mtllib ./SM_Prop_Fence_Simple_Post_01_5.mtl
g SM_Prop_Fence_Simple_Post_01
v 0.03482819 0 -0.06032562
v -0.04737854 0.6557995 -0.0552597
v -0.03482819 0 -0.06032562
v 0.01642609 0.6602517 -0.0552597
v -0.01990509 1.597453 -0.06032562
v 0.04975891 1.609297 -0.06032562
v -0.03482819 2.213063 -0.06032562
v 0.03482819 2.229471 -0.06032562
v -0.03482819 0 -0.06032562
v -0.07927704 0.6557995 0
v -0.06965637 0 0
v -0.04737854 0.6557995 -0.0552597
v -0.05472565 1.597453 0
v -0.01990509 1.597453 -0.06032562
v -0.06965637 2.213063 0
v -0.03482819 2.213063 -0.06032562
v -0.06965637 0 0
v -0.04737854 0.6602517 0.0552597
v -0.03482819 0 0.06032562
v -0.07927704 0.6557995 0
v -0.01990509 1.609297 0.06032562
v -0.05472565 1.597453 0
v -0.03482819 2.229471 0.06032562
v -0.06965637 2.213063 0
v -0.03482819 0 0.06032562
v 0.01642609 0.6602517 0.0552597
v 0.03482819 0 0.06032562
v -0.04737854 0.6602517 0.0552597
v 0.04975891 1.609297 0.06032562
v -0.01990509 1.609297 0.06032562
v 0.03482819 2.229471 0.06032562
v -0.03482819 2.229471 0.06032562
v 0.03482819 0 0.06032562
v 0.04831696 0.6557995 0
v 0.06965637 0 0
v 0.01642609 0.6602517 0.0552597
v 0.0845871 1.597453 0
v 0.04975891 1.609297 0.06032562
v 0.06965637 2.213063 0
v 0.03482819 2.229471 0.06032562
v 0.06965637 0 0
v 0.01642609 0.6602517 -0.0552597
v 0.03482819 0 -0.06032562
v 0.04831696 0.6557995 0
v 0.04975891 1.609297 -0.06032562
v 0.0845871 1.597453 0
v 0.03482819 2.229471 -0.06032562
v 0.06965637 2.213063 0
v 0.03482819 2.229471 0.06032562
v 0.02967072 2.252709 0.05138397
v 0.05932617 2.252709 0
v 0.06965637 2.213063 0
v -0.03482819 2.229471 0.06032562
v -0.02967072 2.252709 0.05138397
v 0.02967072 2.252709 0.05138397
v 0.03482819 2.229471 0.06032562
v -0.06965637 2.213063 0
v -0.05932617 2.252709 0
v -0.02967072 2.252709 0.05138397
v -0.03482819 2.229471 0.06032562
v -0.03482819 2.213063 -0.06032562
v -0.02967072 2.252709 -0.05138397
v -0.05932617 2.252709 0
v -0.06965637 2.213063 0
v 0.03482819 2.229471 -0.06032562
v 0.02967072 2.252709 -0.05138397
v -0.02967072 2.252709 -0.05138397
v -0.03482819 2.213063 -0.06032562
v 0.06965637 2.213063 0
v 0.05932617 2.252709 0
v 0.02967072 2.252709 -0.05138397
v 0.03482819 2.229471 -0.06032562
v 0.02967072 2.252709 -0.05138397
v 0 2.252709 0
v -0.02967072 2.252709 -0.05138397
v 0.05932617 2.252709 0
v -0.05932617 2.252709 0
v 0.02967072 2.252709 0.05138397
v -0.02967072 2.252709 0.05138397
v -0.03482819 0 -0.06032562
v 0 0 0
v 0.03482819 0 -0.06032562
v -0.06965637 0 0
v 0.06965637 0 0
v -0.03482819 0 0.06032562
v 0.03482819 0 0.06032562

vn -0.0002566131 0.007692401 -0.9999704
vn 0.0002001221 0.001156314 -0.9999993
vn -0.0002566131 0.007692401 -0.9999704
vn 0.0002001221 0.001156314 -0.9999993
vn 0.0003284256 -0.002689922 -0.9999963
vn 0.0003284256 -0.002689922 -0.9999963
vn 0 0 -1
vn 0 0 -1
vn -0.8659767 -0.0127074 -0.4999229
vn -0.8660484 0.004934077 -0.4999357
vn -0.8659767 -0.0127074 -0.4999229
vn -0.8660484 0.004934077 -0.4999357
vn -0.8660625 0.0007897515 -0.4999351
vn -0.8660625 0.0007897515 -0.4999351
vn -0.8658634 -0.0209949 -0.4998398
vn -0.8658634 -0.0209949 -0.4998398
vn -0.865766 -0.01265946 0.5002889
vn -0.8666301 0.00493601 0.4989269
vn -0.865766 -0.01265946 0.5002889
vn -0.8666301 0.00493601 0.4989269
vn -0.8656921 0.0008321124 0.5005762
vn -0.8656921 0.0008321124 0.5005762
vn -0.8637424 -0.02086611 0.5035014
vn -0.8637424 -0.02086611 0.5035014
vn 0 0.007672481 0.9999706
vn 0 0.001167349 0.9999994
vn 0 0.007672481 0.9999706
vn 0 0.001167349 0.9999994
vn 0 -0.002668926 0.9999964
vn 0 -0.002668926 0.9999964
vn 0 0 1
vn 0 0 1
vn 0.8661978 0.02807752 0.4989119
vn 0.8652899 -0.002531866 0.5012654
vn 0.8661978 0.02807752 0.4989119
vn 0.8652899 -0.002531866 0.5012654
vn 0.8660866 -0.006085046 0.4998569
vn 0.8660866 -0.006085046 0.4998569
vn 0.8679588 0.02097333 0.4961932
vn 0.8679588 0.02097333 0.4961932
vn 0.8661978 0.02807752 -0.4989119
vn 0.8652899 -0.002531866 -0.5012654
vn 0.8661978 0.02807752 -0.4989119
vn 0.8652899 -0.002531866 -0.5012654
vn 0.8660866 -0.006085046 -0.4998569
vn 0.8660866 -0.006085046 -0.4998569
vn 0.8679588 0.02097333 -0.4961932
vn 0.8679588 0.02097333 -0.4961932
vn 0.8499156 0.2733753 0.4504548
vn 0.8499156 0.2733753 0.4504548
vn 0.8499156 0.2733753 0.4504548
vn 0.8499156 0.2733753 0.4504548
vn 0 0.3591151 0.9332933
vn 0 0.3591151 0.9332933
vn 0 0.3591151 0.9332933
vn 0 0.3591151 0.9332933
vn -0.8499156 0.2733753 0.4504548
vn -0.8499156 0.2733753 0.4504548
vn -0.8499156 0.2733753 0.4504548
vn -0.8499156 0.2733753 0.4504548
vn -0.8448442 0.2200131 -0.4876808
vn -0.8448442 0.2200131 -0.4876808
vn -0.8448442 0.2200131 -0.4876808
vn -0.8448442 0.2200131 -0.4876808
vn -0.03477182 0.2733726 -0.9612796
vn -0.03477182 0.2733726 -0.9612796
vn -0.03477182 0.2733726 -0.9612796
vn -0.03477182 0.2733726 -0.9612796
vn 0.8499156 0.2733753 -0.4504548
vn 0.8499156 0.2733753 -0.4504548
vn 0.8499156 0.2733753 -0.4504548
vn 0.8499156 0.2733753 -0.4504548
vn 0 1 0
vn 0 1 0
vn 0 1 0
vn 0 1 0
vn 0 1 0
vn 0 1 0
vn 0 1 0
vn 0 -1 0
vn 0 -1 0
vn 0 -1 0
vn 0 -1 0
vn 0 -1 0
vn 0 -1 0
vn 0 -1 0

vt 0.5378478 0.08407216
vt 0.5378478 0.08407216
vt 0.5378478 0.08407216
vt 0.5378478 0.08407216
vt 0.5378478 0.08407216
vt 0.5378478 0.08407216
vt 0.5378478 0.08407216
vt 0.5378478 0.08407216
vt 0.5378478 0.08407216
vt 0.5378478 0.08407216
vt 0.5378478 0.08407216
vt 0.5378478 0.08407216
vt 0.5378478 0.08407216
vt 0.5378478 0.08407216
vt 0.5378478 0.08407216
vt 0.5378478 0.08407216
vt 0.5378478 0.08407216
vt 0.5378478 0.08407216
vt 0.5378478 0.08407216
vt 0.5378478 0.08407216
vt 0.5378478 0.08407216
vt 0.5378478 0.08407216
vt 0.5378478 0.08407216
vt 0.5378478 0.08407216
vt 0.5378478 0.08407216
vt 0.5378478 0.08407216
vt 0.5378478 0.08407216
vt 0.5378478 0.08407216
vt 0.5378478 0.08407216
vt 0.5378478 0.08407216
vt 0.5378478 0.08407216
vt 0.5378478 0.08407216
vt 0.5378478 0.08407216
vt 0.5378478 0.08407216
vt 0.5378478 0.08407216
vt 0.5378478 0.08407216
vt 0.5378478 0.08407216
vt 0.5378478 0.08407216
vt 0.5378478 0.08407216
vt 0.5378478 0.08407216
vt 0.5378478 0.08407216
vt 0.5378478 0.08407216
vt 0.5378478 0.08407216
vt 0.5378478 0.08407216
vt 0.5378478 0.08407216
vt 0.5378478 0.08407216
vt 0.5378478 0.08407216
vt 0.5378478 0.08407216
vt 0.5367571 0.1377368
vt 0.5367571 0.1377368
vt 0.5367571 0.1377368
vt 0.5367571 0.1377368
vt 0.5367571 0.1377368
vt 0.5367571 0.1377368
vt 0.5367571 0.1377368
vt 0.5367571 0.1377368
vt 0.5367571 0.1377368
vt 0.5367571 0.1377368
vt 0.5367571 0.1377368
vt 0.5367571 0.1377368
vt 0.5367571 0.1377368
vt 0.5367571 0.1377368
vt 0.5367571 0.1377368
vt 0.5367571 0.1377368
vt 0.5367571 0.1377368
vt 0.5367571 0.1377368
vt 0.5367571 0.1377368
vt 0.5367571 0.1377368
vt 0.5367571 0.1377368
vt 0.5367571 0.1377368
vt 0.5367571 0.1377368
vt 0.5367571 0.1377368
vt 0.5367571 0.1377368
vt 0.5367571 0.1377368
vt 0.5367571 0.1377368
vt 0.5367571 0.1377368
vt 0.5367571 0.1377368
vt 0.5367571 0.1377368
vt 0.5367571 0.1377368
vt 0.5378478 0.08407216
vt 0.5378478 0.08407216
vt 0.5378478 0.08407216
vt 0.5378478 0.08407216
vt 0.5378478 0.08407216
vt 0.5378478 0.08407216
vt 0.5378478 0.08407216

usemtl PolygonSamurai_Mat_01
usemap PolygonSamurai_Mat_01
f 2/2/2 1/1/1 3/3/3
f 4/4/4 1/1/1 2/2/2
f 5/5/5 4/4/4 2/2/2
f 6/6/6 4/4/4 5/5/5
f 7/7/7 6/6/6 5/5/5
f 8/8/8 6/6/6 7/7/7
f 10/10/10 9/9/9 11/11/11
f 12/12/12 9/9/9 10/10/10
f 13/13/13 12/12/12 10/10/10
f 14/14/14 12/12/12 13/13/13
f 15/15/15 14/14/14 13/13/13
f 16/16/16 14/14/14 15/15/15
f 18/18/18 17/17/17 19/19/19
f 20/20/20 17/17/17 18/18/18
f 21/21/21 20/20/20 18/18/18
f 22/22/22 20/20/20 21/21/21
f 23/23/23 22/22/22 21/21/21
f 24/24/24 22/22/22 23/23/23
f 26/26/26 25/25/25 27/27/27
f 28/28/28 25/25/25 26/26/26
f 29/29/29 28/28/28 26/26/26
f 30/30/30 28/28/28 29/29/29
f 31/31/31 30/30/30 29/29/29
f 32/32/32 30/30/30 31/31/31
f 34/34/34 33/33/33 35/35/35
f 36/36/36 33/33/33 34/34/34
f 37/37/37 36/36/36 34/34/34
f 38/38/38 36/36/36 37/37/37
f 39/39/39 38/38/38 37/37/37
f 40/40/40 38/38/38 39/39/39
f 42/42/42 41/41/41 43/43/43
f 44/44/44 41/41/41 42/42/42
f 45/45/45 44/44/44 42/42/42
f 46/46/46 44/44/44 45/45/45
f 47/47/47 46/46/46 45/45/45
f 48/48/48 46/46/46 47/47/47
f 50/50/50 49/49/49 51/51/51
f 51/51/51 49/49/49 52/52/52
f 54/54/54 53/53/53 55/55/55
f 55/55/55 53/53/53 56/56/56
f 58/58/58 57/57/57 59/59/59
f 59/59/59 57/57/57 60/60/60
f 62/62/62 61/61/61 63/63/63
f 63/63/63 61/61/61 64/64/64
f 66/66/66 65/65/65 67/67/67
f 67/67/67 65/65/65 68/68/68
f 70/70/70 69/69/69 71/71/71
f 71/71/71 69/69/69 72/72/72
f 74/74/74 73/73/73 75/75/75
f 74/74/74 76/76/76 73/73/73
f 74/74/74 75/75/75 77/77/77
f 74/74/74 78/78/78 76/76/76
f 74/74/74 77/77/77 79/79/79
f 74/74/74 79/79/79 78/78/78
f 81/81/81 80/80/80 82/82/82
f 81/81/81 83/83/83 80/80/80
f 81/81/81 82/82/82 84/84/84
f 81/81/81 85/85/85 83/83/83
f 81/81/81 84/84/84 86/86/86
f 81/81/81 86/86/86 85/85/85
