mtllib ./SM_Wep_BoStaff_01_67.mtl
g SM_Wep_BoStaff_01
v -0.0005645752 0.986264 0.01322285
v -0.0005645752 0.992638 -0.009479891
v 0.01786613 0.9895886 0.002964012
v 0.01786613 0.9895886 0.002964012
v -0.0005645752 0.992638 -0.009479891
v 0.01786613 0.9895886 -0.0219233
v -0.0005645752 0.986264 -0.03218362
v -0.0005645752 0.992638 -0.009479891
v -0.01899433 0.9829394 -0.0219233
v -0.01899433 0.9829394 -0.0219233
v -0.0005645752 0.992638 -0.009479891
v -0.01899433 0.9829394 0.002964012
v -0.01899433 0.9829394 0.002964012
v -0.0005645752 0.992638 -0.009479891
v -0.0005645752 0.986264 0.01322285
v 0.01786613 0.9895886 -0.0219233
v -0.0005645752 0.992638 -0.009479891
v -0.0005645752 0.986264 -0.03218362
v -0.0009365082 -0.1009372 0.02610011
v -0.004768372 0.5538466 0.0003855787
v 0.01371384 0.5630599 -0.007217397
v 0.01934242 -0.08875939 0.0148118
v -0.0006694794 -0.7176275 0.01481341
v 0.01704216 -0.718498 0.007160362
v 0.002286911 -0.8432461 0.01538019
v 0.02182579 -0.8430681 0.004504638
v 0 -0.923813 0.01471207
v 0.02347946 -0.9243803 0.001642652
v -0.01425552 -0.9576099 -0.007494885
v -0.02347946 -0.9232485 0.001642652
v 0 -0.923813 0.01471207
v -0.0002536774 -0.9576099 0.0002993513
v -0.0002536774 -0.9576099 0.0002993513
v 0 -0.923813 0.01471207
v 0.02347946 -0.9243803 0.001642652
v 0.01375008 -0.95761 -0.007494885
v 0.01375008 -0.95761 -0.007494885
v 0.02347946 -0.9243803 0.001642652
v 0.02347946 -0.9243803 -0.03006832
v 0.01375008 -0.95761 -0.02640568
v 0.01375008 -0.95761 -0.02640568
v 0.02347946 -0.9243803 -0.03006832
v 0 -0.923813 -0.04314224
v -0.00025177 -0.95761 -0.03420273
v -0.00025177 -0.95761 -0.03420273
v 0 -0.923813 -0.04314224
v -0.02347946 -0.9232485 -0.03006832
v -0.01425552 -0.9576099 -0.02640568
v -0.01425552 -0.9576099 -0.02640568
v -0.02347946 -0.9232485 -0.03006832
v -0.02347946 -0.9232485 0.001642652
v -0.01425552 -0.9576099 -0.007494885
v -0.004768372 0.5538466 0.0003855787
v 0.01985264 0.7946118 0.003727801
v 0.01371384 0.5630599 -0.007217397
v 0.0002422333 0.7915542 0.01464363
v 0.02138138 0.8753165 0.005337436
v -0.0005645752 0.8713592 0.01755286
v 0.01786613 0.9895886 0.002964012
v -0.0005645752 0.986264 0.01322285
v -0.02347946 -0.9232485 -0.03006832
v -0.01725006 -0.8434211 0.004504638
v -0.02347946 -0.9232485 0.001642652
v -0.01725006 -0.8434211 -0.02188201
v -0.01660728 -0.7198356 0.004031312
v -0.0144558 -0.7235732 -0.0183323
v -0.02121735 -0.1131178 0.0148118
v -0.02121735 -0.1131178 -0.01257361
v -0.02324867 0.5446318 -0.007217397
v -0.02324867 0.5446318 -0.02566198
v -0.01936817 0.7884979 0.003727801
v -0.01936817 0.7884979 -0.02275344
v -0.02250957 0.8674005 0.005337436
v -0.02250957 0.8674005 -0.02429644
v -0.01899433 0.9829394 0.002964012
v -0.01899433 0.9829394 -0.0219233
v -0.02347946 -0.9232485 0.001642652
v 0.002286911 -0.8432461 0.01538019
v 0 -0.923813 0.01471207
v -0.01725006 -0.8434211 0.004504638
v -0.0006694794 -0.7176275 0.01481341
v -0.01660728 -0.7198356 0.004031312
v -0.0009365082 -0.1009372 0.02610011
v -0.02121735 -0.1131178 0.0148118
v -0.004768372 0.5538466 0.0003855787
v -0.02324867 0.5446318 -0.007217397
v 0.0002422333 0.7915542 0.01464363
v -0.01936817 0.7884979 0.003727801
v -0.0005645752 0.8713592 0.01755286
v -0.02250957 0.8674005 0.005337436
v -0.0005645752 0.986264 0.01322285
v -0.01899433 0.9829394 0.002964012
v 0.02347946 -0.9243803 0.001642652
v 0.02182579 -0.8430681 -0.02188201
v 0.02347946 -0.9243803 -0.03006832
v 0.02182579 -0.8430681 0.004504638
v 0.01919365 -0.7222329 -0.01520316
v 0.01704216 -0.718498 0.007160362
v 0.01934242 -0.08875665 -0.01257371
v 0.01934242 -0.08875939 0.0148118
v 0.01371384 0.5630585 -0.02566198
v 0.01371384 0.5630599 -0.007217397
v 0.01985264 0.7946104 -0.02275344
v 0.01985264 0.7946118 0.003727801
v 0.02138138 0.8753165 -0.02429644
v 0.02138138 0.8753165 0.005337436
v 0.01786613 0.9895886 -0.0219233
v 0.01786613 0.9895886 0.002964012
v 0.02347946 -0.9243803 -0.03006832
v 0.002286911 -0.8432461 -0.03276088
v 0 -0.923813 -0.04314224
v 0.02182579 -0.8430681 -0.02188201
v 0.003255844 -0.7244465 -0.0259879
v 0.01919365 -0.7222329 -0.01520316
v -0.0009365082 -0.1009372 -0.02386412
v 0.01934242 -0.08875665 -0.01257371
v -0.004768372 0.5538466 -0.03326622
v 0.01371384 0.5630585 -0.02566198
v 0.0002422333 0.7915542 -0.03367092
v 0.01985264 0.7946104 -0.02275344
v -0.0005645752 0.8713592 -0.03651364
v 0.02138138 0.8753165 -0.02429644
v -0.0005645752 0.986264 -0.03218362
v 0.01786613 0.9895886 -0.0219233
v 0 -0.923813 -0.04314224
v -0.01725006 -0.8434211 -0.02188201
v -0.02347946 -0.9232485 -0.03006832
v 0.002286911 -0.8432461 -0.03276088
v -0.0144558 -0.7235732 -0.0183323
v 0.003255844 -0.7244465 -0.0259879
v -0.02121735 -0.1131178 -0.01257361
v -0.0009365082 -0.1009372 -0.02386412
v -0.02324867 0.5446318 -0.02566198
v -0.004768372 0.5538466 -0.03326622
v -0.01936817 0.7884979 -0.02275344
v 0.0002422333 0.7915542 -0.03367092
v -0.02250957 0.8674005 -0.02429644
v -0.0005645752 0.8713592 -0.03651364
v -0.01899433 0.9829394 -0.0219233
v -0.0005645752 0.986264 -0.03218362
v 0.01375008 -0.95761 -0.02640568
v -0.00025177 -0.95761 -0.03420273
v -0.01425552 -0.9576099 -0.02640568
v 0.01375008 -0.95761 -0.007494885
v -0.01425552 -0.9576099 -0.007494885
v -0.0002536774 -0.9576099 0.0002993513

vn -0.02320628 0.9625148 0.2702348
vn -0.02320628 0.9625148 0.2702348
vn -0.02320628 0.9625148 0.2702348
vn 0.1632316 0.9865878 0
vn 0.1632316 0.9865878 0
vn 0.1632316 0.9865878 0
vn -0.3083641 0.9158595 -0.2571247
vn -0.3083641 0.9158595 -0.2571247
vn -0.3083641 0.9158595 -0.2571247
vn -0.4656997 0.8849428 0
vn -0.4656997 0.8849428 0
vn -0.4656997 0.8849428 0
vn -0.3083501 0.9158609 0.2571363
vn -0.3083501 0.9158609 0.2571363
vn -0.3083501 0.9158609 0.2571363
vn -0.02319115 0.9625181 -0.2702239
vn -0.02319115 0.9625181 -0.2702239
vn -0.02319115 0.9625181 -0.2702239
vn 0.4357844 0.01093301 0.8999847
vn 0.4216304 0.03616006 0.9060465
vn 0.4216304 0.03616006 0.9060465
vn 0.4357844 0.01093301 0.8999847
vn 0.4475234 -0.003999408 0.8942633
vn 0.4475234 -0.003999408 0.8942633
vn 0.4659383 -0.007326644 0.8847869
vn 0.4659383 -0.007326644 0.8847869
vn 0.4861035 -0.02095326 0.87365
vn 0.4861035 -0.02095326 0.87365
vn -0.4607318 -0.3434155 0.8184082
vn -0.4607318 -0.3434155 0.8184082
vn -0.4607318 -0.3434155 0.8184082
vn -0.4607318 -0.3434155 0.8184082
vn 0.4505775 -0.3549243 0.8191513
vn 0.4505775 -0.3549243 0.8191513
vn 0.4505775 -0.3549243 0.8191513
vn 0.4505775 -0.3549243 0.8191513
vn 0.9597092 -0.280995 0
vn 0.9597092 -0.280995 0
vn 0.9597092 -0.280995 0
vn 0.9597092 -0.280995 0
vn 0.4707661 -0.2302348 -0.8516873
vn 0.4707661 -0.2302348 -0.8516873
vn 0.4707661 -0.2302348 -0.8516873
vn 0.4707661 -0.2302348 -0.8516873
vn -0.4770761 -0.220119 -0.8508502
vn -0.4770761 -0.220119 -0.8508502
vn -0.4770761 -0.220119 -0.8508502
vn -0.4770761 -0.220119 -0.8508502
vn -0.9658074 -0.2592606 0
vn -0.9658074 -0.2592606 0
vn -0.9658074 -0.2592606 0
vn -0.9658074 -0.2592606 0
vn 0.451664 -0.05854619 0.8902652
vn 0.4708091 -0.04265726 0.8812032
vn 0.451664 -0.05854619 0.8902652
vn 0.4708091 -0.04265726 0.8812032
vn 0.4858012 0.003133915 0.8740637
vn 0.4858012 0.003133915 0.8740637
vn 0.4815346 0.0330034 0.8758055
vn 0.4815346 0.0330034 0.8758055
vn -0.996969 0.07779932 0
vn -0.9986727 0.04627176 -0.02262109
vn -0.996969 0.07779932 0
vn -0.9986727 0.04627176 -0.02262109
vn -0.9990324 0.002959564 -0.0438812
vn -0.9990324 0.002959564 -0.0438812
vn -0.999756 -0.00592334 -0.02127902
vn -0.999756 -0.00592334 -0.02127902
vn -0.9999795 0.006411353 0
vn -0.9999795 0.006411353 0
vn -0.9999287 -0.01194051 0
vn -0.9999287 -0.01194051 0
vn -0.999989 -0.004688621 0
vn -0.999989 -0.004688621 0
vn -0.9995375 0.03041071 0
vn -0.9995375 0.03041071 0
vn -0.4863154 0.006590989 0.8737584
vn -0.5037685 0.003296177 0.8638324
vn -0.4863154 0.006590989 0.8737584
vn -0.5037685 0.003296177 0.8638324
vn -0.5181308 -0.008755364 0.8552566
vn -0.5181308 -0.008755364 0.8552566
vn -0.4837749 0.006462369 0.8751686
vn -0.4837749 0.006462369 0.8751686
vn -0.4393253 -0.004498364 0.8983168
vn -0.4393253 -0.004498364 0.8983168
vn -0.4541496 -0.03817896 0.890107
vn -0.4541496 -0.03817896 0.890107
vn -0.4862463 -0.002048994 0.8738194
vn -0.4862463 -0.002048994 0.8738194
vn -0.4906186 0.03281368 0.8707564
vn -0.4906186 0.03281368 0.8707564
vn 0.9997932 0.02033311 0
vn 0.9994813 0.02446531 0.02094781
vn 0.9997932 0.02033311 0
vn 0.9994813 0.02446531 0.02094781
vn 0.9990041 0.01314977 0.04263705
vn 0.9990041 0.01314977 0.04263705
vn 0.9997596 0.003173276 0.02169435
vn 0.9997596 0.003173276 0.02169435
vn 0.9999601 -0.008935075 0
vn 0.9999601 -0.008935075 0
vn 0.9997419 -0.02272072 0
vn 0.9997419 -0.02272072 0
vn 0.9999826 0.005906156 0
vn 0.9999826 0.005906156 0
vn 0.9995272 0.03074749 0
vn 0.9995272 0.03074749 0
vn 0.48482 0.09779345 -0.8691295
vn 0.5015949 0.0746923 -0.8618721
vn 0.48482 0.09779345 -0.8691295
vn 0.5015949 0.0746923 -0.8618721
vn 0.5186277 0.02822177 -0.8545343
vn 0.5186277 0.02822177 -0.8545343
vn 0.4817742 -0.003659409 -0.8762876
vn 0.4817742 -0.003659409 -0.8762876
vn 0.4411636 -0.008921652 -0.8973823
vn 0.4411636 -0.008921652 -0.8973823
vn 0.4643827 -0.01583021 -0.8854932
vn 0.4643827 -0.01583021 -0.8854932
vn 0.4858083 0.003494646 -0.8740584
vn 0.4858083 0.003494646 -0.8740584
vn 0.4815888 0.03300228 -0.8757757
vn 0.4815888 0.03300228 -0.8757757
vn -0.4817466 0.1259694 -0.8672093
vn -0.4635381 0.08593041 -0.8819004
vn -0.4817466 0.1259694 -0.8672093
vn -0.4635381 0.08593041 -0.8819004
vn -0.4456169 0.02373406 -0.8949091
vn -0.4456169 0.02373406 -0.8949091
vn -0.4385511 -0.007819106 -0.8986722
vn -0.4385511 -0.007819106 -0.8986722
vn -0.4355234 -0.00229299 -0.9001745
vn -0.4355234 -0.00229299 -0.9001745
vn -0.4612745 -0.0116943 -0.8871804
vn -0.4612745 -0.0116943 -0.8871804
vn -0.4863481 -0.001683122 -0.8737634
vn -0.4863481 -0.001683122 -0.8737634
vn -0.4906719 0.03281255 -0.8707264
vn -0.4906719 0.03281255 -0.8707264
vn 0 -1 0
vn 0 -1 0
vn 0 -1 0
vn 0 -1 0
vn 0 -1 0
vn 0 -1 0

vt 0.5354722 0.08450874
vt 0.5354722 0.08450874
vt 0.5354722 0.08450874
vt 0.5354722 0.08450874
vt 0.5354722 0.08450874
vt 0.5354722 0.08450874
vt 0.5354722 0.08450874
vt 0.5354722 0.08450874
vt 0.5354722 0.08450874
vt 0.5354722 0.08450874
vt 0.5354722 0.08450874
vt 0.5354722 0.08450874
vt 0.5354722 0.08450874
vt 0.5354722 0.08450874
vt 0.5354722 0.08450874
vt 0.5354722 0.08450874
vt 0.5354722 0.08450874
vt 0.5354722 0.08450874
vt 0.5354722 0.08450874
vt 0.5354722 0.08450874
vt 0.5354722 0.08450874
vt 0.5354722 0.08450874
vt 0.5354722 0.08450874
vt 0.5354722 0.08450874
vt 0.5354722 0.08450874
vt 0.5354722 0.08450874
vt 0.5354722 0.08450874
vt 0.5354722 0.08450874
vt 0.5354722 0.08450874
vt 0.5354722 0.08450874
vt 0.5354722 0.08450874
vt 0.5354722 0.08450874
vt 0.5354722 0.08450874
vt 0.5354722 0.08450874
vt 0.5354722 0.08450874
vt 0.5354722 0.08450874
vt 0.5354722 0.08450874
vt 0.5354722 0.08450874
vt 0.5354722 0.08450874
vt 0.5354722 0.08450874
vt 0.5354722 0.08450874
vt 0.5354722 0.08450874
vt 0.5354722 0.08450874
vt 0.5354722 0.08450874
vt 0.5354722 0.08450874
vt 0.5354722 0.08450874
vt 0.5354722 0.08450874
vt 0.5354722 0.08450874
vt 0.5354722 0.08450874
vt 0.5354722 0.08450874
vt 0.5354722 0.08450874
vt 0.5354722 0.08450874
vt 0.5354722 0.08450874
vt 0.5354722 0.08450874
vt 0.5354722 0.08450874
vt 0.5354722 0.08450874
vt 0.5354722 0.08450874
vt 0.5354722 0.08450874
vt 0.5354722 0.08450874
vt 0.5354722 0.08450874
vt 0.5354722 0.08450874
vt 0.5354722 0.08450874
vt 0.5354722 0.08450874
vt 0.5354722 0.08450874
vt 0.5354722 0.08450874
vt 0.5354722 0.08450874
vt 0.5354722 0.08450874
vt 0.5354722 0.08450874
vt 0.5354722 0.08450874
vt 0.5354722 0.08450874
vt 0.5354722 0.08450874
vt 0.5354722 0.08450874
vt 0.5354722 0.08450874
vt 0.5354722 0.08450874
vt 0.5354722 0.08450874
vt 0.5354722 0.08450874
vt 0.5354722 0.08450874
vt 0.5354722 0.08450874
vt 0.5354722 0.08450874
vt 0.5354722 0.08450874
vt 0.5354722 0.08450874
vt 0.5354722 0.08450874
vt 0.5354722 0.08450874
vt 0.5354722 0.08450874
vt 0.5354722 0.08450874
vt 0.5354722 0.08450874
vt 0.5354722 0.08450874
vt 0.5354722 0.08450874
vt 0.5354722 0.08450874
vt 0.5354722 0.08450874
vt 0.5354722 0.08450874
vt 0.5354722 0.08450874
vt 0.5354722 0.08450874
vt 0.5354722 0.08450874
vt 0.5354722 0.08450874
vt 0.5354722 0.08450874
vt 0.5354722 0.08450874
vt 0.5354722 0.08450874
vt 0.5354722 0.08450874
vt 0.5354722 0.08450874
vt 0.5354722 0.08450874
vt 0.5354722 0.08450874
vt 0.5354722 0.08450874
vt 0.5354722 0.08450874
vt 0.5354722 0.08450874
vt 0.5354722 0.08450874
vt 0.5354722 0.08450874
vt 0.5354722 0.08450874
vt 0.5354722 0.08450874
vt 0.5354722 0.08450874
vt 0.5354722 0.08450874
vt 0.5354722 0.08450874
vt 0.5354722 0.08450874
vt 0.5354722 0.08450874
vt 0.5354722 0.08450874
vt 0.5354722 0.08450874
vt 0.5354722 0.08450874
vt 0.5354722 0.08450874
vt 0.5354722 0.08450874
vt 0.5354722 0.08450874
vt 0.5354722 0.08450874
vt 0.5354722 0.08450874
vt 0.5354722 0.08450874
vt 0.5354722 0.08450874
vt 0.5354722 0.08450874
vt 0.5354722 0.08450874
vt 0.5354722 0.08450874
vt 0.5354722 0.08450874
vt 0.5354722 0.08450874
vt 0.5354722 0.08450874
vt 0.5354722 0.08450874
vt 0.5354722 0.08450874
vt 0.5354722 0.08450874
vt 0.5354722 0.08450874
vt 0.5354722 0.08450874
vt 0.5354722 0.08450874
vt 0.5354722 0.08450874
vt 0.5354722 0.08450874
vt 0.5354722 0.08450874
vt 0.5354722 0.08450874
vt 0.5354722 0.08450874
vt 0.5354722 0.08450874
vt 0.5354722 0.08450874
vt 0.5354722 0.08450874
vt 0.5354722 0.08450874
vt 0.5354722 0.08450874

usemtl PolygonSamurai_Mat_01
usemap PolygonSamurai_Mat_01
f 2/2/2 1/1/1 3/3/3
f 5/5/5 4/4/4 6/6/6
f 8/8/8 7/7/7 9/9/9
f 11/11/11 10/10/10 12/12/12
f 14/14/14 13/13/13 15/15/15
f 17/17/17 16/16/16 18/18/18
f 20/20/20 19/19/19 21/21/21
f 21/21/21 19/19/19 22/22/22
f 19/19/19 23/23/23 22/22/22
f 22/22/22 23/23/23 24/24/24
f 23/23/23 25/25/25 24/24/24
f 24/24/24 25/25/25 26/26/26
f 25/25/25 27/27/27 26/26/26
f 26/26/26 27/27/27 28/28/28
f 30/30/30 29/29/29 31/31/31
f 31/31/31 29/29/29 32/32/32
f 34/34/34 33/33/33 35/35/35
f 35/35/35 33/33/33 36/36/36
f 38/38/38 37/37/37 39/39/39
f 39/39/39 37/37/37 40/40/40
f 42/42/42 41/41/41 43/43/43
f 43/43/43 41/41/41 44/44/44
f 46/46/46 45/45/45 47/47/47
f 47/47/47 45/45/45 48/48/48
f 50/50/50 49/49/49 51/51/51
f 51/51/51 49/49/49 52/52/52
f 54/54/54 53/53/53 55/55/55
f 56/56/56 53/53/53 54/54/54
f 57/57/57 56/56/56 54/54/54
f 58/58/58 56/56/56 57/57/57
f 59/59/59 58/58/58 57/57/57
f 60/60/60 58/58/58 59/59/59
f 62/62/62 61/61/61 63/63/63
f 64/64/64 61/61/61 62/62/62
f 65/65/65 64/64/64 62/62/62
f 66/66/66 64/64/64 65/65/65
f 67/67/67 66/66/66 65/65/65
f 68/68/68 66/66/66 67/67/67
f 69/69/69 68/68/68 67/67/67
f 70/70/70 68/68/68 69/69/69
f 71/71/71 70/70/70 69/69/69
f 72/72/72 70/70/70 71/71/71
f 73/73/73 72/72/72 71/71/71
f 74/74/74 72/72/72 73/73/73
f 75/75/75 74/74/74 73/73/73
f 76/76/76 74/74/74 75/75/75
f 78/78/78 77/77/77 79/79/79
f 80/80/80 77/77/77 78/78/78
f 81/81/81 80/80/80 78/78/78
f 82/82/82 80/80/80 81/81/81
f 83/83/83 82/82/82 81/81/81
f 84/84/84 82/82/82 83/83/83
f 85/85/85 84/84/84 83/83/83
f 86/86/86 84/84/84 85/85/85
f 87/87/87 86/86/86 85/85/85
f 88/88/88 86/86/86 87/87/87
f 89/89/89 88/88/88 87/87/87
f 90/90/90 88/88/88 89/89/89
f 91/91/91 90/90/90 89/89/89
f 92/92/92 90/90/90 91/91/91
f 94/94/94 93/93/93 95/95/95
f 96/96/96 93/93/93 94/94/94
f 97/97/97 96/96/96 94/94/94
f 98/98/98 96/96/96 97/97/97
f 99/99/99 98/98/98 97/97/97
f 100/100/100 98/98/98 99/99/99
f 101/101/101 100/100/100 99/99/99
f 102/102/102 100/100/100 101/101/101
f 103/103/103 102/102/102 101/101/101
f 104/104/104 102/102/102 103/103/103
f 105/105/105 104/104/104 103/103/103
f 106/106/106 104/104/104 105/105/105
f 107/107/107 106/106/106 105/105/105
f 108/108/108 106/106/106 107/107/107
f 110/110/110 109/109/109 111/111/111
f 112/112/112 109/109/109 110/110/110
f 113/113/113 112/112/112 110/110/110
f 114/114/114 112/112/112 113/113/113
f 115/115/115 114/114/114 113/113/113
f 116/116/116 114/114/114 115/115/115
f 117/117/117 116/116/116 115/115/115
f 118/118/118 116/116/116 117/117/117
f 119/119/119 118/118/118 117/117/117
f 120/120/120 118/118/118 119/119/119
f 121/121/121 120/120/120 119/119/119
f 122/122/122 120/120/120 121/121/121
f 123/123/123 122/122/122 121/121/121
f 124/124/124 122/122/122 123/123/123
f 126/126/126 125/125/125 127/127/127
f 128/128/128 125/125/125 126/126/126
f 129/129/129 128/128/128 126/126/126
f 130/130/130 128/128/128 129/129/129
f 131/131/131 130/130/130 129/129/129
f 132/132/132 130/130/130 131/131/131
f 133/133/133 132/132/132 131/131/131
f 134/134/134 132/132/132 133/133/133
f 135/135/135 134/134/134 133/133/133
f 136/136/136 134/134/134 135/135/135
f 137/137/137 136/136/136 135/135/135
f 138/138/138 136/136/136 137/137/137
f 139/139/139 138/138/138 137/137/137
f 140/140/140 138/138/138 139/139/139
f 142/142/142 141/141/141 143/143/143
f 144/144/144 143/143/143 141/141/141
f 145/145/145 143/143/143 144/144/144
f 146/146/146 145/145/145 144/144/144
