mtllib ./SM_Bld_Castle_Base_Medium_Blank_01_36.mtl
g SM_Bld_Castle_Base_Medium_Blank_01
v -6.002609 0.4191942 6.002617
v -6.002609 2.123296 6.002617
v 6.002617 2.123296 6.002617
v 6.002617 0.4191942 6.002617
v -6.002609 2.123296 -6.002609
v -6.002609 0.4191942 -6.002609
v 6.002617 0.4191942 -6.002609
v 6.002617 2.123296 -6.002609
v -6.081535 0 -6.081532
v -6.081535 0 6.081535
v 6.081535 0 6.081535
v 6.081535 0 -6.081532
v 6.002617 0.4191942 6.002617
v 6.002617 2.123296 6.002617
v 6.002617 2.123296 -6.002609
v 6.002617 0.4191942 -6.002609
v -6.002609 0.4191942 -6.002609
v -6.002609 2.123296 -6.002609
v -6.002609 2.123296 6.002617
v -6.002609 0.4191942 6.002617
v 7.629395E-06 2.5 6.081535
v 6.081535 2.5 6.081535
v 6.081535 2.23458 6.081535
v -6.081535 2.23458 6.081535
v -6.081535 2.5 6.081535
v 6.081535 2.5 -6.081532
v 6.081535 2.23458 -6.081532
v 6.081535 2.23458 6.081535
v 6.081535 2.5 6.081535
v -6.081535 2.23458 -6.081532
v 6.081535 2.23458 -6.081532
v 6.081535 2.5 -6.081532
v 7.629395E-06 2.5 -6.081532
v -6.081535 2.5 -6.081532
v -6.081535 2.5 6.081535
v -6.081535 2.23458 6.081535
v -6.081535 2.23458 -6.081532
v -6.081535 2.5 -6.081532
v -6.081535 0 -6.081532
v -6.081535 0.30791 -6.081532
v -6.081535 0.30791 6.081535
v -6.081535 0 6.081535
v -6.081535 0 6.081535
v -6.081535 0.30791 6.081535
v 6.081535 0.30791 6.081535
v 6.081535 0 6.081535
v 6.081535 0 6.081535
v 6.081535 0.30791 6.081535
v 6.081535 0.30791 -6.081532
v 6.081535 0 -6.081532
v -6.081535 0.30791 -6.081532
v -6.081535 0 -6.081532
v 6.081535 0 -6.081532
v 6.081535 0.30791 -6.081532
v -6.081535 0.30791 6.081535
v -6.002609 0.4191942 6.002617
v 6.002617 0.4191942 6.002617
v 6.081535 0.30791 6.081535
v 6.081535 2.23458 6.081535
v 6.002617 2.123296 6.002617
v -6.002609 2.123296 6.002617
v -6.081535 2.23458 6.081535
v -6.081535 2.23458 -6.081532
v -6.002609 2.123296 -6.002609
v 6.002617 2.123296 -6.002609
v 6.081535 2.23458 -6.081532
v 6.081535 0.30791 -6.081532
v 6.002617 0.4191942 -6.002609
v -6.002609 0.4191942 -6.002609
v -6.081535 0.30791 -6.081532
v 6.081535 0.30791 6.081535
v 6.002617 0.4191942 6.002617
v 6.002617 0.4191942 -6.002609
v 6.081535 0.30791 -6.081532
v 6.081535 2.23458 -6.081532
v 6.002617 2.123296 -6.002609
v 6.002617 2.123296 6.002617
v 6.081535 2.23458 6.081535
v -6.081535 0.30791 -6.081532
v -6.002609 0.4191942 -6.002609
v -6.002609 0.4191942 6.002617
v -6.081535 0.30791 6.081535
v -6.081535 2.23458 6.081535
v -6.002609 2.123296 6.002617
v -6.002609 2.123296 -6.002609
v -6.081535 2.23458 -6.081532
v 7.629395E-06 2.5 -6.081532
v 6.081535 2.5 -6.081532
v 6.081535 2.5 0
v 6.081535 2.5 6.081535
v 7.629395E-06 2.5 6.081535
v 7.629395E-06 2.5 0
v -6.081535 2.5 6.081535
v -6.081535 2.5 0
v -6.081535 2.5 -6.081532

vn 0 0 1
vn 0 0 1
vn 0 0 1
vn 0 0 1
vn 0 0 -1
vn 0 0 -1
vn 0 0 -1
vn 0 0 -1
vn 0 -1 0
vn 0 -1 0
vn 0 -1 0
vn 0 -1 0
vn 1 0 0
vn 1 0 0
vn 1 0 0
vn 1 0 0
vn -1 0 0
vn -1 0 0
vn -1 0 0
vn -1 0 0
vn 0 0 1
vn 0 0 1
vn 0 0 1
vn 0 0 1
vn 0 0 1
vn 1 0 0
vn 1 0 0
vn 1 0 0
vn 1 0 0
vn 0 0 -1
vn 0 0 -1
vn 0 0 -1
vn 0 0 -1
vn 0 0 -1
vn -1 0 0
vn -1 0 0
vn -1 0 0
vn -1 0 0
vn -1 0 0
vn -1 0 0
vn -1 0 0
vn -1 0 0
vn 0 0 1
vn 0 0 1
vn 0 0 1
vn 0 0 1
vn 1 0 0
vn 1 0 0
vn 1 0 0
vn 1 0 0
vn 0 0 -1
vn 0 0 -1
vn 0 0 -1
vn 0 0 -1
vn 0 0.5784668 0.815706
vn 0 0.5784668 0.815706
vn 0 0.5784668 0.815706
vn 0 0.5784668 0.815706
vn 0 -0.5784668 0.815706
vn 0 -0.5784668 0.815706
vn 0 -0.5784668 0.815706
vn 0 -0.5784668 0.815706
vn 0 -0.5784854 -0.8156927
vn 0 -0.5784854 -0.8156927
vn 0 -0.5784854 -0.8156927
vn 0 -0.5784854 -0.8156927
vn 0 0.5784854 -0.8156927
vn 0 0.5784854 -0.8156927
vn 0 0.5784854 -0.8156927
vn 0 0.5784854 -0.8156927
vn 0.815706 0.5784668 0
vn 0.815706 0.5784668 0
vn 0.815706 0.5784668 0
vn 0.815706 0.5784668 0
vn 0.815706 -0.5784668 0
vn 0.815706 -0.5784668 0
vn 0.815706 -0.5784668 0
vn 0.815706 -0.5784668 0
vn -0.8156795 0.5785041 0
vn -0.8156795 0.5785041 0
vn -0.8156795 0.5785041 0
vn -0.8156795 0.5785041 0
vn -0.8156795 -0.5785041 0
vn -0.8156795 -0.5785041 0
vn -0.8156795 -0.5785041 0
vn -0.8156795 -0.5785041 0
vn 0 1 0
vn 0 1 0
vn 0 1 0
vn 0 1 0
vn 0 1 0
vn 0 1 0
vn 0 1 0
vn 0 1 0
vn 0 1 0

vt 0.5293829 0.1088426
vt 0.5293829 0.1088426
vt 0.5293829 0.1088426
vt 0.5293829 0.1088426
vt 0.5293829 0.1088426
vt 0.5293829 0.1088426
vt 0.5293829 0.1088426
vt 0.5293829 0.1088426
vt 0.651434 0.1105883
vt 0.651434 0.1105883
vt 0.651434 0.1105883
vt 0.651434 0.1105883
vt 0.5293829 0.1088426
vt 0.5293829 0.1088426
vt 0.5293829 0.1088426
vt 0.5293829 0.1088426
vt 0.5293829 0.1088426
vt 0.5293829 0.1088426
vt 0.5293829 0.1088426
vt 0.5293829 0.1088426
vt 0.651434 0.1105883
vt 0.651434 0.1105883
vt 0.651434 0.1105883
vt 0.651434 0.1105883
vt 0.651434 0.1105883
vt 0.651434 0.1105883
vt 0.651434 0.1105883
vt 0.651434 0.1105883
vt 0.651434 0.1105883
vt 0.651434 0.1105883
vt 0.651434 0.1105883
vt 0.651434 0.1105883
vt 0.651434 0.1105883
vt 0.651434 0.1105883
vt 0.651434 0.1105883
vt 0.651434 0.1105883
vt 0.651434 0.1105883
vt 0.651434 0.1105883
vt 0.651434 0.1105883
vt 0.651434 0.1105883
vt 0.651434 0.1105883
vt 0.651434 0.1105883
vt 0.651434 0.1105883
vt 0.651434 0.1105883
vt 0.651434 0.1105883
vt 0.651434 0.1105883
vt 0.651434 0.1105883
vt 0.651434 0.1105883
vt 0.651434 0.1105883
vt 0.651434 0.1105883
vt 0.651434 0.1105883
vt 0.651434 0.1105883
vt 0.651434 0.1105883
vt 0.651434 0.1105883
vt 0.651434 0.1105883
vt 0.651434 0.1105883
vt 0.651434 0.1105883
vt 0.651434 0.1105883
vt 0.651434 0.1105883
vt 0.651434 0.1105883
vt 0.651434 0.1105883
vt 0.651434 0.1105883
vt 0.651434 0.1105883
vt 0.651434 0.1105883
vt 0.651434 0.1105883
vt 0.651434 0.1105883
vt 0.651434 0.1105883
vt 0.651434 0.1105883
vt 0.651434 0.1105883
vt 0.651434 0.1105883
vt 0.651434 0.1105883
vt 0.651434 0.1105883
vt 0.651434 0.1105883
vt 0.651434 0.1105883
vt 0.651434 0.1105883
vt 0.651434 0.1105883
vt 0.651434 0.1105883
vt 0.651434 0.1105883
vt 0.651434 0.1105883
vt 0.651434 0.1105883
vt 0.651434 0.1105883
vt 0.651434 0.1105883
vt 0.651434 0.1105883
vt 0.651434 0.1105883
vt 0.651434 0.1105883
vt 0.651434 0.1105883
vt 0.651434 0.1105883
vt 0.651434 0.1105883
vt 0.651434 0.1105883
vt 0.651434 0.1105883
vt 0.651434 0.1105883
vt 0.651434 0.1105883
vt 0.651434 0.1105883
vt 0.651434 0.1105883
vt 0.651434 0.1105883

usemtl PolygonSamurai_Mat_02
usemap PolygonSamurai_Mat_02
f 2/2/2 1/1/1 3/3/3
f 3/3/3 1/1/1 4/4/4
f 6/6/6 5/5/5 7/7/7
f 7/7/7 5/5/5 8/8/8
f 10/10/10 9/9/9 11/11/11
f 11/11/11 9/9/9 12/12/12
f 14/14/14 13/13/13 15/15/15
f 15/15/15 13/13/13 16/16/16
f 18/18/18 17/17/17 19/19/19
f 19/19/19 17/17/17 20/20/20
f 22/22/22 21/21/21 23/23/23
f 24/24/24 23/23/23 21/21/21
f 25/25/25 24/24/24 21/21/21
f 27/27/27 26/26/26 28/28/28
f 29/29/29 28/28/28 26/26/26
f 31/31/31 30/30/30 32/32/32
f 33/33/33 32/32/32 30/30/30
f 34/34/34 33/33/33 30/30/30
f 36/36/36 35/35/35 37/37/37
f 38/38/38 37/37/37 35/35/35
f 40/40/40 39/39/39 41/41/41
f 41/41/41 39/39/39 42/42/42
f 44/44/44 43/43/43 45/45/45
f 45/45/45 43/43/43 46/46/46
f 48/48/48 47/47/47 49/49/49
f 49/49/49 47/47/47 50/50/50
f 52/52/52 51/51/51 53/53/53
f 53/53/53 51/51/51 54/54/54
f 56/56/56 55/55/55 57/57/57
f 57/57/57 55/55/55 58/58/58
f 60/60/60 59/59/59 61/61/61
f 61/61/61 59/59/59 62/62/62
f 64/64/64 63/63/63 65/65/65
f 65/65/65 63/63/63 66/66/66
f 68/68/68 67/67/67 69/69/69
f 69/69/69 67/67/67 70/70/70
f 72/72/72 71/71/71 73/73/73
f 73/73/73 71/71/71 74/74/74
f 76/76/76 75/75/75 77/77/77
f 77/77/77 75/75/75 78/78/78
f 80/80/80 79/79/79 81/81/81
f 81/81/81 79/79/79 82/82/82
f 84/84/84 83/83/83 85/85/85
f 85/85/85 83/83/83 86/86/86
f 88/88/88 87/87/87 89/89/89
f 89/89/89 90/90/90 88/88/88
f 90/90/90 89/89/89 91/91/91
f 91/91/91 89/89/89 92/92/92
f 89/89/89 87/87/87 92/92/92
f 92/92/92 93/93/93 91/91/91
f 87/87/87 94/94/94 92/92/92
f 94/94/94 93/93/93 92/92/92
f 95/95/95 94/94/94 87/87/87
f 94/94/94 95/95/95 93/93/93
