mtllib ./SM_Bld_Castle_Window_01_35.mtl
g SM_Bld_Castle_Window_01
v 1.270599 1.044762 -0.04109192
v 1.270599 2.012958 -0.04109192
v 1.270599 2.012958 -0.1382523
v 1.270599 1.044762 -0.1382523
v 1.039749 2.012958 -0.04109192
v 1.039749 1.044762 -0.04109192
v 1.039749 1.044762 -0.1382523
v 1.039749 2.012958 -0.1382523
v 1.039749 1.044762 -0.04109192
v 1.039749 2.012958 -0.04109192
v 1.270599 2.012958 -0.04109192
v 1.270599 1.044762 -0.04109192
v 2.310349 0 0
v 2.310349 2.012958 0
v 2.310349 2.012959 -0.1556168
v 2.310349 0 -0.155632
v 2.310349 2.560234 0.08599854
v 2.310349 2.560234 -0.155632
v 2.310349 2.012958 0.08599854
v 2.009613 2.012958 0
v 2.009613 0 0
v 2.009613 0 -0.155632
v 2.009613 2.012958 -0.155632
v 2.009613 0 0
v 2.009613 2.012958 0
v 2.310349 2.012958 0
v 2.310349 0 0
v 0.3007355 0 0
v 0.3007355 2.012958 0
v 0.3007355 2.012958 -0.155632
v 0.3007355 0 -0.155632
v 0 2.012958 0
v 0 0 0
v 0 0 -0.155632
v 0 2.012959 -0.1556168
v 0 2.012958 0.08599854
v 0 2.560234 -0.155632
v 0 2.560234 0.08599854
v 0 0 0
v 0 2.012958 0
v 0.3007355 2.012958 0
v 0.3007355 0 0
v 0.3007355 0.8224449 -0.03450775
v 2.009613 0.8224449 -0.03450775
v 2.009613 0.8224449 -0.155632
v 0.3007355 0.8224449 -0.155632
v 2.009613 1.044765 -0.03450775
v 0.3007355 1.044765 -0.03450775
v 0.3007355 1.044765 -0.155632
v 2.009613 1.044765 -0.155632
v 0.3007355 1.044765 -0.03450775
v 2.009613 1.044765 -0.03450775
v 2.009613 0.8224449 -0.03450775
v 0.3007355 0.8224449 -0.03450775
v 2.310349 2.560234 0.08599854
v 0 2.560234 0.08599854
v 0 2.560234 -0.155632
v 2.310349 2.560234 -0.155632
v 0 2.012958 0.08599854
v 2.310349 2.012958 0.08599854
v 2.310349 2.012959 -0.1556168
v 0 2.012959 -0.1556168
v 0 2.012958 0.08599854
v 0 2.560234 0.08599854
v 2.310349 2.560234 0.08599854
v 2.310349 2.012958 0.08599854
v 0.3368912 1.095821 -0.06555939
v 0.3368912 1.957209 -0.06555939
v 1.011223 1.957209 -0.06555939
v 1.011223 1.095821 -0.06555939
v 1.298164 1.095821 -0.06555939
v 1.298164 1.957209 -0.06555939
v 1.972496 1.957209 -0.06555939
v 1.972496 1.095821 -0.06555939
v 0.2887115 1.021838 -0.06555939
v 0.3368912 1.095821 -0.06555939
v 1.011223 1.095821 -0.06555939
v 1.059402 1.021838 -0.06555939
v 0.2887115 2.031191 -0.06555939
v 1.011223 1.957209 -0.06555939
v 0.3368912 1.957209 -0.06555939
v 1.059402 2.031191 -0.06555939
v 1.249985 1.021838 -0.06555939
v 1.298164 1.095821 -0.06555939
v 1.972496 1.095821 -0.06555939
v 2.020676 1.021838 -0.06555939
v 1.249985 2.031191 -0.06555939
v 1.972496 1.957209 -0.06555939
v 1.298164 1.957209 -0.06555939
v 2.020676 2.031191 -0.06555939

vn 1 0 0
vn 1 0 0
vn 1 0 0
vn 1 0 0
vn -1 0 0
vn -1 0 0
vn -1 0 0
vn -1 0 0
vn 0 0 1
vn 0 0 1
vn 0 0 1
vn 0 0 1
vn 1 0 0
vn 1 0 0
vn 1 0 0
vn 1 0 0
vn 1 0 0
vn 1 0 0
vn 1 0 0
vn -1 0 0
vn -1 0 0
vn -1 0 0
vn -1 0 0
vn 0 0 1
vn 0 0 1
vn 0 0 1
vn 0 0 1
vn 1 0 0
vn 1 0 0
vn 1 0 0
vn 1 0 0
vn -1 0 0
vn -1 0 0
vn -1 0 0
vn -1 0 0
vn -1 0 0
vn -1 0 0
vn -1 0 0
vn 0 0 1
vn 0 0 1
vn 0 0 1
vn 0 0 1
vn 0 -1 0
vn 0 -1 0
vn 0 -1 0
vn 0 -1 0
vn 0 1 0
vn 0 1 0
vn 0 1 0
vn 0 1 0
vn 0 0 1
vn 0 0 1
vn 0 0 1
vn 0 0 1
vn 0 1 0
vn 0 1 0
vn 0 1 0
vn 0 1 0
vn 0 -1 0
vn 0 -1 0
vn 0 -1 0
vn 0 -1 0
vn 0 0 1
vn 0 0 1
vn 0 0 1
vn 0 0 1
vn 0 0 1
vn 0 0 1
vn 0 0 1
vn 0 0 1
vn 0 0 1
vn 0 0 1
vn 0 0 1
vn 0 0 1
vn 0 0 1
vn 0 0 1
vn 0 0 1
vn 0 0 1
vn 0 0 1
vn 0 0 1
vn 0 0 1
vn 0 0 1
vn 0 0 1
vn 0 0 1
vn 0 0 1
vn 0 0 1
vn 0 0 1
vn 0 0 1
vn 0 0 1
vn 0 0 1

vt 0.6520833 0.1105402
vt 0.6520833 0.1105402
vt 0.6520833 0.1105402
vt 0.6520833 0.1105402
vt 0.6520833 0.1105402
vt 0.6520833 0.1105402
vt 0.6520833 0.1105402
vt 0.6520833 0.1105402
vt 0.6520833 0.1105402
vt 0.6520833 0.1105402
vt 0.6520833 0.1105402
vt 0.6520833 0.1105402
vt 0.6520833 0.1105402
vt 0.6520833 0.1105402
vt 0.6520833 0.1105402
vt 0.6520833 0.1105402
vt 0.6519155 0.110627
vt 0.6519155 0.110627
vt 0.6519155 0.110627
vt 0.6520833 0.1105402
vt 0.6520833 0.1105402
vt 0.6520833 0.1105402
vt 0.6520833 0.1105402
vt 0.6520833 0.1105402
vt 0.6520833 0.1105402
vt 0.6520833 0.1105402
vt 0.6520833 0.1105402
vt 0.6520833 0.1105402
vt 0.6520833 0.1105402
vt 0.6520833 0.1105402
vt 0.6520833 0.1105402
vt 0.6520833 0.1105402
vt 0.6520833 0.1105402
vt 0.6520833 0.1105402
vt 0.6520833 0.1105402
vt 0.6519155 0.110627
vt 0.6519155 0.110627
vt 0.6519155 0.110627
vt 0.6520833 0.1105402
vt 0.6520833 0.1105402
vt 0.6520833 0.1105402
vt 0.6520833 0.1105402
vt 0.6520833 0.1105402
vt 0.6520833 0.1105402
vt 0.6520833 0.1105402
vt 0.6520833 0.1105402
vt 0.6520833 0.1105402
vt 0.6520833 0.1105402
vt 0.6520833 0.1105402
vt 0.6520833 0.1105402
vt 0.6520833 0.1105402
vt 0.6520833 0.1105402
vt 0.6520833 0.1105402
vt 0.6520833 0.1105402
vt 0.6520833 0.1105132
vt 0.6520833 0.1105132
vt 0.6520833 0.1105132
vt 0.6520833 0.1105132
vt 0.6520833 0.1105132
vt 0.6520833 0.1105132
vt 0.6520833 0.1105132
vt 0.6520833 0.1105132
vt 0.6520833 0.1105132
vt 0.6520833 0.1105132
vt 0.6520833 0.1105132
vt 0.6520833 0.1105132
vt 0.712123 0.07596736
vt 0.712123 0.07687759
vt 0.8312437 0.07687759
vt 0.8312437 0.07596736
vt 0.712123 0.07596736
vt 0.712123 0.07687759
vt 0.8312437 0.07687759
vt 0.8312437 0.07596736
vt 0.5299062 0.1085875
vt 0.5299062 0.1085875
vt 0.5299062 0.1085875
vt 0.5299062 0.1085875
vt 0.5299062 0.1085875
vt 0.5299062 0.1085875
vt 0.5299062 0.1085875
vt 0.5299062 0.1085875
vt 0.5299062 0.1085875
vt 0.5299062 0.1085875
vt 0.5299062 0.1085875
vt 0.5299062 0.1085875
vt 0.5299062 0.1085875
vt 0.5299062 0.1085875
vt 0.5299062 0.1085875
vt 0.5299062 0.1085875

usemtl PolygonSamurai_Mat_02
usemap PolygonSamurai_Mat_02
f 2/2/2 1/1/1 3/3/3
f 3/3/3 1/1/1 4/4/4
f 6/6/6 5/5/5 7/7/7
f 7/7/7 5/5/5 8/8/8
f 10/10/10 9/9/9 11/11/11
f 11/11/11 9/9/9 12/12/12
f 14/14/14 13/13/13 15/15/15
f 15/15/15 13/13/13 16/16/16
f 18/18/18 17/17/17 15/15/15
f 15/15/15 17/17/17 19/19/19
f 21/21/21 20/20/20 22/22/22
f 22/22/22 20/20/20 23/23/23
f 25/25/25 24/24/24 26/26/26
f 26/26/26 24/24/24 27/27/27
f 29/29/29 28/28/28 30/30/30
f 30/30/30 28/28/28 31/31/31
f 33/33/33 32/32/32 34/34/34
f 34/34/34 32/32/32 35/35/35
f 35/35/35 36/36/36 37/37/37
f 37/37/37 36/36/36 38/38/38
f 40/40/40 39/39/39 41/41/41
f 41/41/41 39/39/39 42/42/42
f 44/44/44 43/43/43 45/45/45
f 45/45/45 43/43/43 46/46/46
f 48/48/48 47/47/47 49/49/49
f 49/49/49 47/47/47 50/50/50
f 52/52/52 51/51/51 53/53/53
f 53/53/53 51/51/51 54/54/54
f 56/56/56 55/55/55 57/57/57
f 57/57/57 55/55/55 58/58/58
f 60/60/60 59/59/59 61/61/61
f 61/61/61 59/59/59 62/62/62
f 64/64/64 63/63/63 65/65/65
f 65/65/65 63/63/63 66/66/66
f 68/68/68 67/67/67 69/69/69
f 69/69/69 67/67/67 70/70/70
f 72/72/72 71/71/71 73/73/73
f 73/73/73 71/71/71 74/74/74
f 76/76/76 75/75/75 77/77/77
f 77/77/77 75/75/75 78/78/78
f 76/76/76 79/79/79 75/75/75
f 77/77/77 78/78/78 80/80/80
f 81/81/81 79/79/79 76/76/76
f 80/80/80 78/78/78 82/82/82
f 79/79/79 81/81/81 82/82/82
f 82/82/82 81/81/81 80/80/80
f 84/84/84 83/83/83 85/85/85
f 85/85/85 83/83/83 86/86/86
f 84/84/84 87/87/87 83/83/83
f 85/85/85 86/86/86 88/88/88
f 89/89/89 87/87/87 84/84/84
f 88/88/88 86/86/86 90/90/90
f 87/87/87 89/89/89 90/90/90
f 90/90/90 89/89/89 88/88/88
