mtllib ./SM_Bld_Temple_Window_01_21.mtl
g SM_Bld_Temple_Window_01
v 0.2287521 0.07818031 0.01470184
v 0.2287521 0.9884376 0.01470184
v 0.327095 0.9884376 0.01470184
v 0.327095 0.07818031 0.01470184
v 0.327095 0.07818031 0.01470184
v 0.327095 0.9884376 0.01470184
v 0.327095 0.9884376 -0.05112457
v 0.327095 0.07818031 -0.05112457
v 0.2287521 0.07818031 -0.05112457
v 0.2287521 0.9884376 -0.05112457
v 0.2287521 0.9884376 0.01470184
v 0.2287521 0.07818031 0.01470184
v 0.51754 0.07818031 0.01470184
v 0.51754 0.9884376 0.01470184
v 0.6219635 0.9884376 0.01470184
v 0.6219635 0.07818031 0.01470184
v 0.6219635 0.07818031 0.01470184
v 0.6219635 0.9884376 0.01470184
v 0.6219635 0.9884376 -0.05112457
v 0.6219635 0.07818031 -0.05112457
v 0.51754 0.07818031 -0.05112457
v 0.51754 0.9884376 -0.05112457
v 0.51754 0.9884376 0.01470184
v 0.51754 0.07818031 0.01470184
v -0.3270798 0.07818031 0.01470184
v -0.3270798 0.9884376 0.01470184
v -0.2287369 0.9884376 0.01470184
v -0.2287369 0.07818031 0.01470184
v -0.2287369 0.07818031 0.01470184
v -0.2287369 0.9884376 0.01470184
v -0.2287369 0.9884376 -0.05112457
v -0.2287369 0.07818031 -0.05112457
v -0.3270798 0.07818031 -0.05112457
v -0.3270798 0.9884376 -0.05112457
v -0.3270798 0.9884376 0.01470184
v -0.3270798 0.07818031 0.01470184
v -0.6219559 0.07818031 0.01470184
v -0.6219559 0.9884376 0.01470184
v -0.51754 0.9884376 0.01470184
v -0.51754 0.07818031 0.01470184
v -0.51754 0.07818031 0.01470184
v -0.51754 0.9884376 0.01470184
v -0.51754 0.9884376 -0.05112457
v -0.51754 0.07818031 -0.05112457
v -0.6219559 0.07818031 -0.05112457
v -0.6219559 0.9884376 -0.05112457
v -0.6219559 0.9884376 0.01470184
v -0.6219559 0.07818031 0.01470184
v 0.05222321 0.07818031 0.01470184
v 0.05222321 0.9884376 0.01470184
v 0.05222321 0.9884376 -0.05112457
v 0.05222321 0.07818031 -0.05112457
v -0.05220795 0.07818031 -0.05112457
v -0.05220795 0.9884376 -0.05112457
v -0.05220795 0.9884376 0.01470184
v -0.05220795 0.07818031 0.01470184
v -0.776619 0.07818031 -0.05112457
v -0.776619 0.9884375 -0.05112457
v 0.7766266 0.9884375 -0.05112457
v 0.7766266 0.07818031 -0.05112457
v -0.8876038 1.066618 0.07486725
v -0.8876038 1.066618 -0.07486725
v 0.8876038 1.066618 -0.07486725
v 0.8876038 1.066618 0.07486725
v -0.8876038 1.066618 -0.07486725
v -0.8876038 0 -0.07486725
v 0.8876038 0 -0.07486725
v 0.8876038 1.066618 -0.07486725
v -0.8876038 0 -0.07486725
v -0.8876038 0 0.07486725
v 0.8876038 0 0.07486725
v 0.8876038 0 -0.07486725
v 0.8876038 0 0.07486725
v 0.8876038 1.066618 0.07486725
v 0.8876038 1.066618 -0.07486725
v 0.8876038 0 -0.07486725
v -0.8876038 0 -0.07486725
v -0.8876038 1.066618 -0.07486725
v -0.8876038 1.066618 0.07486725
v -0.8876038 0 0.07486725
v -0.776619 0.07818031 0.07486725
v -0.776619 0.07818031 -0.05112457
v 0.7766266 0.07818031 -0.05112457
v 0.7766266 0.07818031 0.07486725
v 0.7766266 0.07818031 0.07486725
v 0.7766266 0.07818031 -0.05112457
v 0.7766266 0.9884375 -0.05112457
v 0.7766266 0.9884375 0.07486725
v -0.776619 0.9884375 -0.05112457
v -0.776619 0.9884375 0.07486725
v 0.7766266 0.9884375 0.07486725
v 0.7766266 0.9884375 -0.05112457
v -0.776619 0.9884375 0.07486725
v -0.776619 0.9884375 -0.05112457
v -0.776619 0.07818031 -0.05112457
v -0.776619 0.07818031 0.07486725
v -0.05220795 0.07818031 0.01470184
v -0.05220795 0.9884376 0.01470184
v 0.05222321 0.9884376 0.01470184
v 0.05222321 0.07818031 0.01470184
v -0.8876038 0 0.07486725
v -0.776619 0.07818031 0.07486725
v 0.7766266 0.07818031 0.07486725
v 0.8876038 0 0.07486725
v -0.8876038 1.066618 0.07486725
v 0.7766266 0.9884375 0.07486725
v -0.776619 0.9884375 0.07486725
v 0.8876038 1.066618 0.07486725

vn 0 0 1
vn 0 0 1
vn 0 0 1
vn 0 0 1
vn 1 0 0
vn 1 0 0
vn 1 0 0
vn 1 0 0
vn -1 0 0
vn -1 0 0
vn -1 0 0
vn -1 0 0
vn 0 0 1
vn 0 0 1
vn 0 0 1
vn 0 0 1
vn 1 0 0
vn 1 0 0
vn 1 0 0
vn 1 0 0
vn -1 0 0
vn -1 0 0
vn -1 0 0
vn -1 0 0
vn 0 0 1
vn 0 0 1
vn 0 0 1
vn 0 0 1
vn 1 0 0
vn 1 0 0
vn 1 0 0
vn 1 0 0
vn -1 0 0
vn -1 0 0
vn -1 0 0
vn -1 0 0
vn 0 0 1
vn 0 0 1
vn 0 0 1
vn 0 0 1
vn 1 0 0
vn 1 0 0
vn 1 0 0
vn 1 0 0
vn -1 0 0
vn -1 0 0
vn -1 0 0
vn -1 0 0
vn 1 0 0
vn 1 0 0
vn 1 0 0
vn 1 0 0
vn -1 0 0
vn -1 0 0
vn -1 0 0
vn -1 0 0
vn 0 0 1
vn 0 0 1
vn 0 0 1
vn 0 0 1
vn 0 1 0
vn 0 1 0
vn 0 1 0
vn 0 1 0
vn 0 0 -1
vn 0 0 -1
vn 0 0 -1
vn 0 0 -1
vn 0 -1 0
vn 0 -1 0
vn 0 -1 0
vn 0 -1 0
vn 1 0 0
vn 1 0 0
vn 1 0 0
vn 1 0 0
vn -1 0 0
vn -1 0 0
vn -1 0 0
vn -1 0 0
vn 0 1 0
vn 0 1 0
vn 0 1 0
vn 0 1 0
vn -1 0 0
vn -1 0 0
vn -1 0 0
vn -1 0 0
vn 0 -1 0
vn 0 -1 0
vn 0 -1 0
vn 0 -1 0
vn 1 0 0
vn 1 0 0
vn 1 0 0
vn 1 0 0
vn 0 0 1
vn 0 0 1
vn 0 0 1
vn 0 0 1
vn 0 0 1
vn 0 0 1
vn 0 0 1
vn 0 0 1
vn 0 0 1
vn 0 0 1
vn 0 0 1
vn 0 0 1

vt 0.6516783 0.1105256
vt 0.6516783 0.1105256
vt 0.6516783 0.1105256
vt 0.6516783 0.1105256
vt 0.6516783 0.1105256
vt 0.6516783 0.1105256
vt 0.6516783 0.1105256
vt 0.6516783 0.1105256
vt 0.6516783 0.1105256
vt 0.6516783 0.1105256
vt 0.6516783 0.1105256
vt 0.6516783 0.1105256
vt 0.6516783 0.1105256
vt 0.6516783 0.1105256
vt 0.6516783 0.1105256
vt 0.6516783 0.1105256
vt 0.6516783 0.1105256
vt 0.6516783 0.1105256
vt 0.6516783 0.1105256
vt 0.6516783 0.1105256
vt 0.6516783 0.1105256
vt 0.6516783 0.1105256
vt 0.6516783 0.1105256
vt 0.6516783 0.1105256
vt 0.6516783 0.1105256
vt 0.6516783 0.1105256
vt 0.6516783 0.1105256
vt 0.6516783 0.1105256
vt 0.6516783 0.1105256
vt 0.6516783 0.1105256
vt 0.6516783 0.1105256
vt 0.6516783 0.1105256
vt 0.6516783 0.1105256
vt 0.6516783 0.1105256
vt 0.6516783 0.1105256
vt 0.6516783 0.1105256
vt 0.6516783 0.1105256
vt 0.6516783 0.1105256
vt 0.6516783 0.1105256
vt 0.6516783 0.1105256
vt 0.6516783 0.1105256
vt 0.6516783 0.1105256
vt 0.6516783 0.1105256
vt 0.6516783 0.1105256
vt 0.6516783 0.1105256
vt 0.6516783 0.1105256
vt 0.6516783 0.1105256
vt 0.6516783 0.1105256
vt 0.6516783 0.1105256
vt 0.6516783 0.1105256
vt 0.6516783 0.1105256
vt 0.6516783 0.1105256
vt 0.6516783 0.1105256
vt 0.6516783 0.1105256
vt 0.6516783 0.1105256
vt 0.6516783 0.1105256
vt 0.2223434 0.02956605
vt 0.2223434 0.02956605
vt 0.2223434 0.02956605
vt 0.2223434 0.02956605
vt 0.6516783 0.1105256
vt 0.6516783 0.1105256
vt 0.6516783 0.1105256
vt 0.6516783 0.1105256
vt 0.6516783 0.1105256
vt 0.6516783 0.1105256
vt 0.6516783 0.1105256
vt 0.6516783 0.1105256
vt 0.6516783 0.1105256
vt 0.6516783 0.1105256
vt 0.6516783 0.1105256
vt 0.6516783 0.1105256
vt 0.6516783 0.1105256
vt 0.6516783 0.1105256
vt 0.6516783 0.1105256
vt 0.6516783 0.1105256
vt 0.6516783 0.1105256
vt 0.6516783 0.1105256
vt 0.6516783 0.1105256
vt 0.6516783 0.1105256
vt 0.6516783 0.1105256
vt 0.6516783 0.1105256
vt 0.6516783 0.1105256
vt 0.6516783 0.1105256
vt 0.6516783 0.1105256
vt 0.6516783 0.1105256
vt 0.6516783 0.1105256
vt 0.6516783 0.1105256
vt 0.6516783 0.1105256
vt 0.6516783 0.1105256
vt 0.6516783 0.1105256
vt 0.6516783 0.1105256
vt 0.6516783 0.1105256
vt 0.6516783 0.1105256
vt 0.6516783 0.1105256
vt 0.6516783 0.1105256
vt 0.6516783 0.1105256
vt 0.6516783 0.1105256
vt 0.6516783 0.1105256
vt 0.6516783 0.1105256
vt 0.6516783 0.1105256
vt 0.6516783 0.1105256
vt 0.6516783 0.1105256
vt 0.6516783 0.1105256
vt 0.6516783 0.1105256
vt 0.6516783 0.1105256
vt 0.6516783 0.1105256
vt 0.6516783 0.1105256

usemtl PolygonSamurai_Mat_01
usemap PolygonSamurai_Mat_01
f 2/2/2 1/1/1 3/3/3
f 3/3/3 1/1/1 4/4/4
f 6/6/6 5/5/5 7/7/7
f 7/7/7 5/5/5 8/8/8
f 10/10/10 9/9/9 11/11/11
f 11/11/11 9/9/9 12/12/12
f 14/14/14 13/13/13 15/15/15
f 15/15/15 13/13/13 16/16/16
f 18/18/18 17/17/17 19/19/19
f 19/19/19 17/17/17 20/20/20
f 22/22/22 21/21/21 23/23/23
f 23/23/23 21/21/21 24/24/24
f 26/26/26 25/25/25 27/27/27
f 27/27/27 25/25/25 28/28/28
f 30/30/30 29/29/29 31/31/31
f 31/31/31 29/29/29 32/32/32
f 34/34/34 33/33/33 35/35/35
f 35/35/35 33/33/33 36/36/36
f 38/38/38 37/37/37 39/39/39
f 39/39/39 37/37/37 40/40/40
f 42/42/42 41/41/41 43/43/43
f 43/43/43 41/41/41 44/44/44
f 46/46/46 45/45/45 47/47/47
f 47/47/47 45/45/45 48/48/48
f 50/50/50 49/49/49 51/51/51
f 51/51/51 49/49/49 52/52/52
f 54/54/54 53/53/53 55/55/55
f 55/55/55 53/53/53 56/56/56
f 58/58/58 57/57/57 59/59/59
f 59/59/59 57/57/57 60/60/60
f 62/62/62 61/61/61 63/63/63
f 63/63/63 61/61/61 64/64/64
f 66/66/66 65/65/65 67/67/67
f 67/67/67 65/65/65 68/68/68
f 70/70/70 69/69/69 71/71/71
f 71/71/71 69/69/69 72/72/72
f 74/74/74 73/73/73 75/75/75
f 75/75/75 73/73/73 76/76/76
f 78/78/78 77/77/77 79/79/79
f 79/79/79 77/77/77 80/80/80
f 82/82/82 81/81/81 83/83/83
f 83/83/83 81/81/81 84/84/84
f 86/86/86 85/85/85 87/87/87
f 87/87/87 85/85/85 88/88/88
f 90/90/90 89/89/89 91/91/91
f 91/91/91 89/89/89 92/92/92
f 94/94/94 93/93/93 95/95/95
f 95/95/95 93/93/93 96/96/96
f 98/98/98 97/97/97 99/99/99
f 99/99/99 97/97/97 100/100/100
f 102/102/102 101/101/101 103/103/103
f 103/103/103 101/101/101 104/104/104
f 102/102/102 105/105/105 101/101/101
f 103/103/103 104/104/104 106/106/106
f 107/107/107 105/105/105 102/102/102
f 106/106/106 104/104/104 108/108/108
f 105/105/105 107/107/107 108/108/108
f 108/108/108 107/107/107 106/106/106
