mtllib ./tile-road-straight_15.mtl
g tile-road-straight
v 5.000008 1.490135E-06 -15
v 15 1.490136E-06 -15
v 15 -1.490138E-06 15.00001
v 5.00001 -1.490138E-06 15.00002
v -4.999996 1.490136E-06 -15
v -4.999992 -1.490138E-06 15.00001
v -14.99999 -1.490138E-06 15.00002
v -15 1.490136E-06 -15
v 3.000007 -1.490138E-06 15.00001
v 3.000007 -0.2000022 15.00001
v 3.000001 -0.1999983 -15
v 3.000001 1.490136E-06 -15
v 5.000008 1.490135E-06 -15
v 5.00001 -1.490138E-06 15.00002
v 3.000007 -1.490138E-06 15.00001
v 3.000001 1.490136E-06 -15
v -2.999994 -0.2000022 15.00001
v -2.999994 -1.490138E-06 15.00001
v -3 1.490136E-06 -15
v -3 -0.1999983 -15
v 3.000001 -0.1999983 -15
v 3.000007 -0.2000022 15.00001
v -2.999994 -0.2000022 15.00001
v -3 -0.1999983 -15
v -4.999996 1.490136E-06 -15
v -3 1.490136E-06 -15
v -2.999994 -1.490138E-06 15.00001
v -4.999992 -1.490138E-06 15.00001
v -4.999992 -1.490138E-06 15.00001
v -4.999992 -2.000001 15.00001
v -14.99999 -2.000001 15.00002
v -14.99999 -1.490138E-06 15.00002
v 5.000008 1.490135E-06 -15
v 5.000008 -1.999998 -15
v 15 -1.999997 -15
v 15 1.490136E-06 -15
v -15 1.490136E-06 -15
v -15 -1.999997 -15
v -4.999996 -1.999998 -15
v -4.999996 1.490136E-06 -15
v 15 -1.490138E-06 15.00001
v 15 -2.000001 15.00001
v 5.00001 -2.000001 15.00001
v 5.00001 -1.490138E-06 15.00002
v 15 1.490136E-06 -15
v 15 -1.999997 -15
v 15 -2.000001 15.00001
v 15 -1.490138E-06 15.00001
v -14.99999 -1.490138E-06 15.00002
v -14.99999 -2.000001 15.00002
v -15 -1.999997 -15
v -15 1.490136E-06 -15
v 15 -2.000001 15.00001
v 15 -6.000004 15.00001
v 14.99999 -6.000004 15.00001
v 5.00001 -2.000001 15.00001
v 14.99999 -6.000004 15.00001
v 15.00001 -6.000004 15.00001
v 3.000007 -2.000001 15.00001
v 15.00001 -6.000004 15.00001
v -14.99999 -6.000004 15.00002
v -2.999994 -2.000001 15.00001
v -14.99999 -6.000004 15.00002
v -4.999992 -2.000001 15.00001
v -14.99999 -6.000004 15.00002
v -14.99999 -6.000004 15.00002
v -14.99999 -2.000001 15.00002
v 3.000001 -1.999997 -15
v 15 -6 -15
v 14.99999 -6 -15
v 5.000008 -1.999998 -15
v 14.99999 -6 -15
v 15 -6 -15
v 15 -1.999997 -15
v -3.000005 -1.999998 -15
v 15 -6 -15
v -15 -6 -15
v -4.999996 -1.999998 -15
v -15 -6 -15
v -15 -6 -15
v -15 -1.999997 -15
v -15 -6 -15
v -15 -6 -15
v 3.000007 -0.2000022 15.00001
v 3.000007 -2.000001 15.00001
v -2.999994 -2.000001 15.00001
v -2.999994 -0.2000022 15.00001
v -14.99999 -2.000001 15.00002
v -14.99999 -6.000004 15.00002
v -15 -6 -15
v -15 -1.999997 -15
v 5.000008 -1.999998 -15
v 3.000001 -0.1999983 -15
v 3.000001 -1.999997 -15
v 3.000001 1.490136E-06 -15
v 5.000008 1.490135E-06 -15
v -4.999996 -1.999998 -15
v -3.000005 -1.999998 -15
v -3 -0.1999983 -15
v -4.999996 1.490136E-06 -15
v -3 1.490136E-06 -15
v 3.000001 -0.1999983 -15
v -3 -0.1999983 -15
v -3.000005 -1.999998 -15
v 3.000001 -1.999997 -15
v -4.999992 -2.000001 15.00001
v -2.999994 -0.2000022 15.00001
v -2.999994 -2.000001 15.00001
v -2.999994 -1.490138E-06 15.00001
v -4.999992 -1.490138E-06 15.00001
v 3.000007 -0.2000022 15.00001
v 3.000007 -1.490138E-06 15.00001
v 5.00001 -1.490138E-06 15.00002
v 5.00001 -2.000001 15.00001
v 3.000007 -2.000001 15.00001
v 15 -1.999997 -15
v 15 -6 -15
v 15 -6.000004 15.00001
v 15 -2.000001 15.00001

vn 0 1 0
vn 0 1 0
vn 0 1 0
vn 0 1 0
vn 0 1 0
vn 0 1 0
vn 0 1 0
vn 0 1 0
vn -1 0 0
vn -1 0 0
vn -1 0 0
vn -1 0 0
vn 0 1 0
vn 0 1 0
vn 0 1 0
vn 0 1 0
vn 1 0 0
vn 1 0 0
vn 1 0 0
vn 1 0 0
vn 0 1 0
vn 0 1 0
vn 0 1 0
vn 0 1 0
vn 0 1 0
vn 0 1 0
vn 0 1 0
vn 0 1 0
vn 0 0 1
vn 0 0 1
vn 0 0 1
vn 0 0 1
vn 0 0 -1
vn 0 0 -1
vn 0 0 -1
vn 0 0 -1
vn 0 0 -1
vn 0 0 -1
vn 0 0 -1
vn 0 0 -1
vn 0 0 1
vn 0 0 1
vn 0 0 1
vn 0 0 1
vn 1 0 0
vn 1 0 0
vn 1 0 0
vn 1 0 0
vn -1 0 0
vn -1 0 0
vn -1 0 0
vn -1 0 0
vn 0 0 1
vn 0 0 1
vn 0 0 1
vn 0 0 1
vn 0 0 1
vn 0 0 1
vn 0 0 1
vn 0 0 1
vn 0 0 1
vn 0 0 1
vn 0 0 1
vn 0 0 1
vn 0 0 1
vn 0 0 1
vn 0 0 1
vn 0 0 -1
vn 0 0 -1
vn 0 0 -1
vn 0 0 -1
vn 0 0 -1
vn 0 0 -1
vn 0 0 -1
vn 0 0 -1
vn 0 0 -1
vn 0 0 -1
vn 0 0 -1
vn 0 0 -1
vn 0 0 -1
vn 0 0 -1
vn 0 0 -1
vn 0 0 -1
vn 0 0 1
vn 0 0 1
vn 0 0 1
vn 0 0 1
vn -1 0 0
vn -1 0 0
vn -1 0 0
vn -1 0 0
vn 0 0 -1
vn 0 0 -1
vn 0 0 -1
vn 0 0 -1
vn 0 0 -1
vn 0 0 -1
vn 0 0 -1
vn 0 0 -1
vn 0 0 -1
vn 0 0 -1
vn 0 0 -1
vn 0 0 -1
vn 0 0 -1
vn 0 0 -1
vn 0 0 1
vn 0 0 1
vn 0 0 1
vn 0 0 1
vn 0 0 1
vn 0 0 1
vn 0 0 1
vn 0 0 1
vn 0 0 1
vn 0 0 1
vn 1 0 0
vn 1 0 0
vn 1 0 0
vn 1 0 0

vt 0.4245292 0.3819001
vt 0.4014734 0.3819001
vt 0.4014733 0.4806546
vt 0.4245292 0.4806546
vt 0.4006613 0.4806546
vt 0.4006613 0.3819001
vt 0.3776054 0.3819001
vt 0.3776054 0.4806546
vt 0.6050319 0.6348298
vt 0.6045708 0.6348298
vt 0.6045708 0.7335843
vt 0.6050319 0.7335843
vt 0.5712194 0.7335843
vt 0.5712194 0.6348298
vt 0.5666081 0.6348299
vt 0.5666081 0.7335843
vt 0.605844 0.7335843
vt 0.606305 0.7335843
vt 0.606305 0.6348298
vt 0.605844 0.6348298
vt 0.1774033 0.7399363
vt 0.1774033 0.6411818
vt 0.1635698 0.6411818
vt 0.1635698 0.7399363
vt 0.5720314 0.7335843
vt 0.5766425 0.7335843
vt 0.5766425 0.6348298
vt 0.5720314 0.6348298
vt 0.4879839 0.4156304
vt 0.4833727 0.4156304
vt 0.4833727 0.4485486
vt 0.4879839 0.4485486
vt 0.488796 0.4148182
vt 0.4934072 0.4148182
vt 0.4934072 0.3819001
vt 0.488796 0.3819001
vt 0.4833727 0.4148183
vt 0.4879839 0.4148183
vt 0.4879839 0.3819001
vt 0.4833727 0.3819001
vt 0.4879839 0.4493606
vt 0.4833727 0.4493606
vt 0.4833727 0.4822787
vt 0.4879839 0.4822787
vt 0.4671031 0.4806546
vt 0.4717143 0.4806546
vt 0.4717143 0.3819001
vt 0.4671031 0.3819001
vt 0.444598 0.3819001
vt 0.4399869 0.3819001
vt 0.4399868 0.4806546
vt 0.444598 0.4806546
vt 0.03791195 0.7656892
vt 0.03330079 0.7656892
vt 0.03330079 0.7656892
vt 0.03791195 0.7986072
vt 0.03330079 0.7656892
vt 0.03330079 0.7656891
vt 0.03791195 0.805191
vt 0.03330079 0.7656891
vt 0.03330079 0.8644435
vt 0.03791195 0.8249419
vt 0.03330079 0.8644435
vt 0.03791195 0.8315256
vt 0.03330079 0.8644435
vt 0.03330079 0.8644437
vt 0.03791195 0.8644437
vt 0.06502819 0.8249418
vt 0.06041703 0.8644437
vt 0.06041703 0.8644436
vt 0.06502819 0.8315256
vt 0.06041703 0.8644436
vt 0.06041703 0.8644436
vt 0.06502819 0.8644437
vt 0.06502819 0.8051909
vt 0.06041703 0.8644437
vt 0.06041703 0.7656891
vt 0.06502819 0.7986073
vt 0.06041703 0.7656891
vt 0.06041703 0.7656893
vt 0.06502819 0.7656892
vt 0.06041703 0.7656893
vt 0.06041703 0.7656892
vt 0.2311746 0.695475
vt 0.2270245 0.695475
vt 0.2270245 0.7152259
vt 0.2311746 0.7152259
vt 0.06584024 0.8644437
vt 0.07045135 0.8644437
vt 0.07045135 0.7656891
vt 0.06584024 0.7656892
vt 0.5766425 0.7343963
vt 0.5724925 0.7409801
vt 0.5766425 0.7409801
vt 0.5720314 0.7409801
vt 0.5720314 0.7343963
vt 0.5348808 0.7409799
vt 0.5348808 0.7343963
vt 0.5307307 0.7343963
vt 0.5302696 0.7409799
vt 0.5302696 0.7343963
vt 0.2270245 0.674912
vt 0.2270245 0.6946629
vt 0.2311746 0.6946629
vt 0.2311746 0.674912
vt 0.5356928 0.74098
vt 0.5398429 0.7343963
vt 0.5356928 0.7343963
vt 0.540304 0.7343963
vt 0.540304 0.74098
vt 0.5816047 0.74098
vt 0.5820658 0.74098
vt 0.5820658 0.7343963
vt 0.5774547 0.7343963
vt 0.5774547 0.74098
vt 0.03872406 0.8644437
vt 0.04333523 0.8644437
vt 0.04333523 0.7656891
vt 0.03872406 0.7656891

usemtl LOW-POLY-COLORS
usemap LOW-POLY-COLORS
f 2/2/2 1/1/1 3/3/3
f 3/3/3 1/1/1 4/4/4
f 6/6/6 5/5/5 7/7/7
f 7/7/7 5/5/5 8/8/8
f 10/10/10 9/9/9 11/11/11
f 11/11/11 9/9/9 12/12/12
f 14/14/14 13/13/13 15/15/15
f 15/15/15 13/13/13 16/16/16
f 18/18/18 17/17/17 19/19/19
f 19/19/19 17/17/17 20/20/20
f 22/22/22 21/21/21 23/23/23
f 23/23/23 21/21/21 24/24/24
f 26/26/26 25/25/25 27/27/27
f 27/27/27 25/25/25 28/28/28
f 30/30/30 29/29/29 31/31/31
f 31/31/31 29/29/29 32/32/32
f 34/34/34 33/33/33 35/35/35
f 35/35/35 33/33/33 36/36/36
f 38/38/38 37/37/37 39/39/39
f 39/39/39 37/37/37 40/40/40
f 42/42/42 41/41/41 43/43/43
f 43/43/43 41/41/41 44/44/44
f 46/46/46 45/45/45 47/47/47
f 47/47/47 45/45/45 48/48/48
f 50/50/50 49/49/49 51/51/51
f 51/51/51 49/49/49 52/52/52
f 54/54/54 53/53/53 55/55/55
f 55/55/55 53/53/53 56/56/56
f 57/57/57 56/56/56 58/58/58
f 58/58/58 56/56/56 59/59/59
f 60/60/60 59/59/59 61/61/61
f 61/61/61 59/59/59 62/62/62
f 61/61/61 62/62/62 63/63/63
f 63/63/63 62/62/62 64/64/64
f 65/65/65 64/64/64 66/66/66
f 66/66/66 64/64/64 67/67/67
f 69/69/69 68/68/68 70/70/70
f 70/70/70 68/68/68 71/71/71
f 72/72/72 71/71/71 73/73/73
f 73/73/73 71/71/71 74/74/74
f 76/76/76 75/75/75 68/68/68
f 77/77/77 75/75/75 76/76/76
f 79/79/79 78/78/78 75/75/75
f 80/80/80 78/78/78 79/79/79
f 82/82/82 81/81/81 78/78/78
f 83/83/83 81/81/81 82/82/82
f 85/85/85 84/84/84 86/86/86
f 86/86/86 84/84/84 87/87/87
f 89/89/89 88/88/88 90/90/90
f 90/90/90 88/88/88 91/91/91
f 93/93/93 92/92/92 94/94/94
f 93/93/93 95/95/95 92/92/92
f 92/92/92 95/95/95 96/96/96
f 98/98/98 97/97/97 99/99/99
f 100/100/100 99/99/99 97/97/97
f 101/101/101 99/99/99 100/100/100
f 103/103/103 102/102/102 104/104/104
f 104/104/104 102/102/102 105/105/105
f 107/107/107 106/106/106 108/108/108
f 107/107/107 109/109/109 106/106/106
f 106/106/106 109/109/109 110/110/110
f 112/112/112 111/111/111 113/113/113
f 113/113/113 111/111/111 114/114/114
f 114/114/114 111/111/111 115/115/115
f 117/117/117 116/116/116 118/118/118
f 118/118/118 116/116/116 119/119/119
