mtllib ./tile-mainroad-straight_8.mtl
g tile-mainroad-straight
v -6.250043 -2.000001 15
v -8.250042 -2.000001 15
v -6.250041 -0.2000022 15
v -6.250043 -1.490136E-06 15
v -6.250041 -0.2000022 15
v -8.250042 -1.490136E-06 15
v 6.250043 -2.000001 15
v 6.250041 -0.2000022 15
v 8.250042 -2.000001 15
v 6.250043 -1.490136E-06 15
v 8.250042 -1.490136E-06 15
v 6.250041 -0.2000022 15
v -6.250043 -2.000001 -15
v -6.250041 -0.2000022 -15
v -8.250042 -2.000001 -15
v -6.250043 -1.490136E-06 -15
v -8.250042 -1.490136E-06 -15
v -6.250041 -0.2000022 -15
v 6.250043 -2.000001 -15
v 8.250042 -2.000001 -15
v 6.250041 -0.2000022 -15
v 6.250043 -1.490136E-06 -15
v 6.250041 -0.2000022 -15
v 8.250042 -1.490136E-06 -15
v -15 0 0
v -15 -1.490136E-06 15
v -15 -2.000001 15
v -15 -1.999999 0
v -15 -2.000001 -15
v -15 -1.490136E-06 -15
v -8.250042 -2.000001 15
v -15 -6.000003 15
v -15 -2.000001 15
v -6.250043 -2.000001 15
v 6.250043 -2.000001 15
v 15 -6.000003 15
v 8.250042 -2.000001 15
v 15 -2.000001 15
v -8.250042 -1.490136E-06 15
v -8.250042 -2.000001 15
v -15 -2.000001 15
v -15 -1.490136E-06 15
v -6.250043 0 0
v -6.250041 -0.2000022 15
v -6.250043 -1.490136E-06 15
v -6.250041 -0.2000003 0
v -6.250041 -0.2000022 -15
v -6.250043 -1.490136E-06 -15
v -0.1500244 -0.2000022 15
v -6.250043 -2.000001 15
v -6.250041 -0.2000022 15
v 6.250043 -2.000001 15
v 0.1500244 -0.2000022 15
v 6.250041 -0.2000022 15
v -3.09726 -0.1999993 11.66336
v -3.09726 -0.2000003 13.33
v -3.297363 -0.2000003 13.33
v -3.297363 -0.1999993 11.66336
v -15 -2.000001 15
v -15 -6.000003 15
v -15 -6.000001 0
v -15 -1.999999 0
v -15 -2.000001 -15
v -15 -6.000003 -15
v -3.09726 -0.1999991 6.663396
v -3.09726 -0.1999992 8.330048
v -3.297363 -0.1999992 8.330048
v -3.297363 -0.1999991 6.663396
v -3.09726 -0.1999989 1.663457
v -3.09726 -0.199999 3.330104
v -3.297363 -0.199999 3.330104
v -3.297363 -0.1999989 1.663457
v -8.250042 -1.490136E-06 15
v -15 -1.490136E-06 15
v -15 0 0
v -8.250042 0 0
v -8.250042 -1.490136E-06 -15
v -15 -1.490136E-06 -15
v -6.250043 -1.490136E-06 15
v -8.250042 -1.490136E-06 15
v -8.250042 0 0
v -6.250043 0 0
v -6.250043 -1.490136E-06 -15
v -8.250042 0 0
v -8.250042 -1.490136E-06 -15
v 15 0 0
v 15 -2.000001 15
v 15 -1.490136E-06 15
v 15 -1.999999 0
v 15 -2.000001 -15
v 15 -1.490136E-06 -15
v 8.250042 -1.490136E-06 15
v 15 -1.490136E-06 15
v 15 -2.000001 15
v 8.250042 -2.000001 15
v 6.250043 0 0
v 6.250043 -1.490136E-06 15
v 6.250041 -0.2000022 15
v 6.250041 -0.2000003 0
v 6.250041 -0.2000022 -15
v 6.250043 -1.490136E-06 -15
v 3.09726 -0.1999993 11.66336
v 3.297363 -0.1999993 11.66336
v 3.297363 -0.2000003 13.33
v 3.09726 -0.2000003 13.33
v 15 -2.000001 15
v 15 -6.000001 0
v 15 -6.000003 15
v 15 -1.999999 0
v 15 -2.000001 -15
v 15 -6.000003 -15
v 3.09726 -0.1999991 6.663396
v 3.297363 -0.1999991 6.663396
v 3.297363 -0.1999992 8.330048
v 3.09726 -0.1999992 8.330048
v 3.09726 -0.1999989 1.663457
v 3.297363 -0.1999989 1.663457
v 3.297363 -0.199999 3.330104
v 3.09726 -0.199999 3.330104
v 8.250042 -1.490136E-06 15
v 15 0 0
v 15 -1.490136E-06 15
v 8.250042 0 0
v 8.250042 -1.490136E-06 -15
v 15 -1.490136E-06 -15
v 6.250043 -1.490136E-06 15
v 8.250042 0 0
v 8.250042 -1.490136E-06 15
v 6.250043 0 0
v 6.250043 -1.490136E-06 -15
v 8.250042 0 0
v 8.250042 -1.490136E-06 -15
v -8.250042 -2.000001 -15
v -15 -2.000001 -15
v -15 -6.000003 -15
v -6.250043 -2.000001 -15
v 6.250043 -2.000001 -15
v 15 -6.000003 -15
v 8.250042 -2.000001 -15
v 15 -2.000001 -15
v -8.250042 -1.490136E-06 -15
v -15 -1.490136E-06 -15
v -15 -2.000001 -15
v -8.250042 -2.000001 -15
v 0.1500244 -0.2000022 -15
v -0.1500244 -0.2000022 0
v -0.1500244 -0.2000022 -15
v 0.1500244 -0.2000022 0
v 0.1500244 -0.2000022 15
v -0.1500244 -0.2000022 15
v -3.09726 -0.1999993 -11.66336
v -3.297363 -0.1999993 -11.66336
v -3.297363 -0.2000003 -13.33
v -3.09726 -0.2000003 -13.33
v -3.09726 -0.1999991 -6.663396
v -3.297363 -0.1999991 -6.663396
v -3.297363 -0.1999992 -8.330048
v -3.09726 -0.1999992 -8.330048
v -3.09726 -0.1999989 -1.663457
v -3.297363 -0.1999989 -1.663457
v -3.297363 -0.199999 -3.330104
v -3.09726 -0.199999 -3.330104
v 8.250042 -1.490136E-06 -15
v 8.250042 -2.000001 -15
v 15 -2.000001 -15
v 15 -1.490136E-06 -15
v 0.1500244 -0.2000022 -15
v 6.250043 -2.000001 -15
v 6.250041 -0.2000022 -15
v -0.1500244 -0.2000022 -15
v -6.250043 -2.000001 -15
v -6.250041 -0.2000022 -15
v 3.09726 -0.1999991 -6.663396
v 3.09726 -0.1999992 -8.330048
v 3.297363 -0.1999992 -8.330048
v 3.297363 -0.1999991 -6.663396
v 3.09726 -0.1999989 -1.663457
v 3.09726 -0.199999 -3.330104
v 3.297363 -0.199999 -3.330104
v 3.297363 -0.1999989 -1.663457
v 3.09726 -0.1999993 -11.66336
v 3.09726 -0.2000003 -13.33
v 3.297363 -0.2000003 -13.33
v 3.297363 -0.1999993 -11.66336
v -3.09726 -0.2000003 13.33
v -6.250041 -0.2000022 15
v -3.297363 -0.2000003 13.33
v -3.297363 -0.1999993 11.66336
v -0.1500244 -0.2000022 15
v -3.09726 -0.1999993 11.66336
v -3.09726 -0.1999992 8.330048
v -3.297363 -0.1999992 8.330048
v -3.09726 -0.1999991 6.663396
v -0.1500244 -0.2000022 0
v -3.297363 -0.1999991 6.663396
v -3.09726 -0.199999 3.330104
v -3.297363 -0.199999 3.330104
v -6.250041 -0.2000003 0
v -3.09726 -0.1999989 1.663457
v -3.297363 -0.1999989 1.663457
v -3.09726 -0.1999989 0
v -3.297363 -0.1999989 0
v -3.297363 -0.1999989 -1.663457
v -3.09726 -0.1999989 -1.663457
v -3.297363 -0.199999 -3.330104
v -3.09726 -0.199999 -3.330104
v -6.250041 -0.2000022 -15
v -3.297363 -0.1999991 -6.663396
v -3.09726 -0.1999991 -6.663396
v -0.1500244 -0.2000022 -15
v -3.297363 -0.1999992 -8.330048
v -3.09726 -0.1999992 -8.330048
v -3.297363 -0.1999993 -11.66336
v -3.09726 -0.1999993 -11.66336
v -3.297363 -0.2000003 -13.33
v -3.09726 -0.2000003 -13.33
v 3.09726 -0.2000003 13.33
v 3.297363 -0.2000003 13.33
v 6.250041 -0.2000022 15
v 3.297363 -0.1999993 11.66336
v 0.1500244 -0.2000022 15
v 3.09726 -0.1999993 11.66336
v 3.09726 -0.1999992 8.330048
v 3.297363 -0.1999992 8.330048
v 3.09726 -0.1999991 6.663396
v 0.1500244 -0.2000022 0
v 3.297363 -0.1999991 6.663396
v 3.09726 -0.199999 3.330104
v 3.297363 -0.199999 3.330104
v 6.250041 -0.2000003 0
v 3.09726 -0.1999989 1.663457
v 3.297363 -0.1999989 1.663457
v 3.09726 -0.1999989 0
v 3.297363 -0.1999989 0
v 3.297363 -0.1999989 -1.663457
v 3.09726 -0.1999989 -1.663457
v 3.297363 -0.199999 -3.330104
v 3.09726 -0.199999 -3.330104
v 6.250041 -0.2000022 -15
v 3.297363 -0.1999991 -6.663396
v 3.09726 -0.1999991 -6.663396
v 0.1500244 -0.2000022 -15
v 3.297363 -0.1999992 -8.330048
v 3.09726 -0.1999992 -8.330048
v 3.297363 -0.1999993 -11.66336
v 3.09726 -0.1999993 -11.66336
v 3.297363 -0.2000003 -13.33
v 3.09726 -0.2000003 -13.33

vn 0 0 1
vn 0 0 1
vn 0 0 1
vn 0 0 1
vn 0 0 1
vn 0 0 1
vn 0 0 1
vn 0 0 1
vn 0 0 1
vn 0 0 1
vn 0 0 1
vn 0 0 1
vn 0 0 -1
vn 0 0 -1
vn 0 0 -1
vn 0 0 -1
vn 0 0 -1
vn 0 0 -1
vn 0 0 -1
vn 0 0 -1
vn 0 0 -1
vn 0 0 -1
vn 0 0 -1
vn 0 0 -1
vn -1 0 0
vn -1 0 0
vn -1 0 0
vn -1 0 0
vn -1 0 0
vn -1 0 0
vn 0 0 1
vn 0 0 1
vn 0 0 1
vn 0 0 1
vn 0 0 1
vn 0 0 1
vn 0 0 1
vn 0 0 1
vn 0 0 1
vn 0 0 1
vn 0 0 1
vn 0 0 1
vn 1 0 0
vn 1 0 0
vn 1 0 0
vn 1 0 0
vn 1 0 0
vn 1 0 0
vn 0 0 1
vn 0 0 1
vn 0 0 1
vn 0 0 1
vn 0 0 1
vn 0 0 1
vn 0 1 0
vn 0 1 0
vn 0 1 0
vn 0 1 0
vn -1 0 0
vn -1 0 0
vn -1 0 0
vn -1 0 0
vn -1 0 0
vn -1 0 0
vn 0 1 0
vn 0 1 0
vn 0 1 0
vn 0 1 0
vn 0 1 0
vn 0 1 0
vn 0 1 0
vn 0 1 0
vn 0 1 0
vn 0 1 0
vn 0 1 0
vn 0 1 0
vn 0 1 0
vn 0 1 0
vn 0 1 0
vn 0 1 0
vn 0 1 0
vn 0 1 0
vn 0 1 0
vn 0 1 0
vn 0 1 0
vn 1 0 0
vn 1 0 0
vn 1 0 0
vn 1 0 0
vn 1 0 0
vn 1 0 0
vn 0 0 1
vn 0 0 1
vn 0 0 1
vn 0 0 1
vn -1 0 0
vn -1 0 0
vn -1 0 0
vn -1 0 0
vn -1 0 0
vn -1 0 0
vn 0 1 0
vn 0 1 0
vn 0 1 0
vn 0 1 0
vn 1 0 0
vn 1 0 0
vn 1 0 0
vn 1 0 0
vn 1 0 0
vn 1 0 0
vn 0 1 0
vn 0 1 0
vn 0 1 0
vn 0 1 0
vn 0 1 0
vn 0 1 0
vn 0 1 0
vn 0 1 0
vn 0 1 0
vn 0 1 0
vn 0 1 0
vn 0 1 0
vn 0 1 0
vn 0 1 0
vn 0 1 0
vn 0 1 0
vn 0 1 0
vn 0 1 0
vn 0 1 0
vn 0 1 0
vn 0 1 0
vn 0 0 -1
vn 0 0 -1
vn 0 0 -1
vn 0 0 -1
vn 0 0 -1
vn 0 0 -1
vn 0 0 -1
vn 0 0 -1
vn 0 0 -1
vn 0 0 -1
vn 0 0 -1
vn 0 0 -1
vn 0 1 0
vn 0 1 0
vn 0 1 0
vn 0 1 0
vn 0 1 0
vn 0 1 0
vn 0 1 0
vn 0 1 0
vn 0 1 0
vn 0 1 0
vn 0 1 0
vn 0 1 0
vn 0 1 0
vn 0 1 0
vn 0 1 0
vn 0 1 0
vn 0 1 0
vn 0 1 0
vn 0 0 -1
vn 0 0 -1
vn 0 0 -1
vn 0 0 -1
vn 0 0 -1
vn 0 0 -1
vn 0 0 -1
vn 0 0 -1
vn 0 0 -1
vn 0 0 -1
vn 0 1 0
vn 0 1 0
vn 0 1 0
vn 0 1 0
vn 0 1 0
vn 0 1 0
vn 0 1 0
vn 0 1 0
vn 0 1 0
vn 0 1 0
vn 0 1 0
vn 0 1 0
vn 0 1 0
vn 0 1 0
vn 0 1 0
vn 0 1 0
vn 0 1 0
vn 0 1 0
vn 0 1 0
vn 0 1 0
vn 0 1 0
vn 0 1 0
vn 0 1 0
vn 0 1 0
vn 0 1 0
vn 0 1 0
vn 0 1 0
vn 0 1 0
vn 0 1 0
vn 0 1 0
vn 0 1 0
vn 0 1 0
vn 0 1 0
vn 0 1 0
vn 0 1 0
vn 0 1 0
vn 0 1 0
vn 0 1 0
vn 0 1 0
vn 0 1 0
vn 0 1 0
vn 0 1 0
vn 0 1 0
vn 0 1 0
vn 0 1 0
vn 0 1 0
vn 0 1 0
vn 0 1 0
vn 0 1 0
vn 0 1 0
vn 0 1 0
vn 0 1 0
vn 0 1 0
vn 0 1 0
vn 0 1 0
vn 0 1 0
vn 0 1 0
vn 0 1 0
vn 0 1 0
vn 0 1 0
vn 0 1 0
vn 0 1 0
vn 0 1 0
vn 0 1 0
vn 0 1 0
vn 0 1 0
vn 0 1 0
vn 0 1 0
vn 0 1 0
vn 0 1 0
vn 0 1 0
vn 0 1 0
vn 0 1 0
vn 0 1 0
vn 0 1 0
vn 0 1 0

vt 0.5606177 0.6566511
vt 0.5559917 0.6540419
vt 0.5582693 0.6608146
vt 0.5577452 0.6611255
vt 0.5582693 0.6608146
vt 0.5533823 0.6586679
vt 0.5531503 0.7270882
vt 0.5508019 0.7229247
vt 0.5485242 0.7296976
vt 0.5502778 0.7226139
vt 0.5459148 0.7250714
vt 0.5508019 0.7229247
vt 0.5606177 0.7270882
vt 0.5582693 0.7229247
vt 0.5559917 0.7296976
vt 0.5577452 0.7226139
vt 0.5533823 0.7250714
vt 0.5582693 0.7229247
vt 0.5531502 0.6566513
vt 0.5485242 0.6540419
vt 0.5508019 0.6608146
vt 0.5502778 0.6611255
vt 0.5508019 0.6608146
vt 0.5459148 0.6586679
vt 0.4101358 0.4327372
vt 0.4101358 0.398936
vt 0.405629 0.398936
vt 0.405629 0.4327372
vt 0.405629 0.4665383
vt 0.4101358 0.4665383
vt 0.06050766 0.797213
vt 0.06952131 0.7820026
vt 0.06050766 0.7820026
vt 0.06050766 0.8017198
vt 0.06050766 0.8298875
vt 0.06952131 0.8496047
vt 0.06050766 0.8343943
vt 0.06050766 0.8496047
vt 0.4253462 0.398936
vt 0.4253462 0.3944293
vt 0.4101358 0.3944293
vt 0.4101358 0.398936
vt 0.5576913 0.6918697
vt 0.5582693 0.6608146
vt 0.5577452 0.6611255
vt 0.5584083 0.6918697
vt 0.5582693 0.7229247
vt 0.5577452 0.7226139
vt 0.1782294 0.6458247
vt 0.1644993 0.6417522
vt 0.1644944 0.6458093
vt 0.1926522 0.6417379
vt 0.1789131 0.6457947
vt 0.1926544 0.6457946
vt 0.8163795 0.6898353
vt 0.8163795 0.6860796
vt 0.8159286 0.6860796
vt 0.8159286 0.6898353
vt 0.03311607 0.8496047
vt 0.0421297 0.8496047
vt 0.0421297 0.8158036
vt 0.03311607 0.8158036
vt 0.03311607 0.7820026
vt 0.0421297 0.7820026
vt 0.8119539 0.690403
vt 0.8157095 0.690403
vt 0.8157095 0.6899521
vt 0.8119539 0.6899521
vt 0.8136573 0.6860796
vt 0.8136573 0.6898353
vt 0.8141083 0.6898353
vt 0.8141083 0.6860796
vt 0.4253462 0.398936
vt 0.4101358 0.398936
vt 0.4101358 0.4327372
vt 0.4253462 0.4327372
vt 0.4253462 0.4665383
vt 0.4101358 0.4665383
vt 0.5577452 0.6611255
vt 0.5533823 0.6586679
vt 0.5532672 0.6918697
vt 0.5576913 0.6918697
vt 0.5577452 0.7226139
vt 0.5532672 0.6918697
vt 0.5533823 0.7250714
vt 0.4406735 0.4327371
vt 0.4451803 0.398936
vt 0.4406735 0.398936
vt 0.4451803 0.4327371
vt 0.4451803 0.4665383
vt 0.4406735 0.4665383
vt 0.4254631 0.398936
vt 0.4406735 0.398936
vt 0.4406735 0.3944293
vt 0.4254631 0.3944293
vt 0.5502238 0.6918697
vt 0.5502778 0.7226139
vt 0.5508019 0.7229247
vt 0.5509408 0.6918697
vt 0.5508019 0.6608146
vt 0.5502778 0.6611255
vt 0.814793 0.6898353
vt 0.8152438 0.6898353
vt 0.8152438 0.6860796
vt 0.814793 0.6860796
vt 0.04224661 0.7820026
vt 0.0512602 0.8158036
vt 0.05126023 0.7820026
vt 0.04224661 0.8158036
vt 0.04224661 0.8496047
vt 0.05126023 0.8496047
vt 0.8129726 0.6860796
vt 0.8125217 0.6860796
vt 0.8125217 0.6898353
vt 0.8129726 0.6898353
vt 0.8119539 0.6910878
vt 0.8119539 0.6915387
vt 0.8157095 0.6915387
vt 0.8157095 0.6910878
vt 0.4254631 0.398936
vt 0.4406735 0.4327371
vt 0.4406735 0.398936
vt 0.4254631 0.4327371
vt 0.4254631 0.4665383
vt 0.4406735 0.4665383
vt 0.5502778 0.7226139
vt 0.5457997 0.6918697
vt 0.5459148 0.7250714
vt 0.5502238 0.6918697
vt 0.5502778 0.6611255
vt 0.5457997 0.6918697
vt 0.5459148 0.6586679
vt 0.05137712 0.8343943
vt 0.05137712 0.8496047
vt 0.06039077 0.8496047
vt 0.05137712 0.8298875
vt 0.05137712 0.8017198
vt 0.06039077 0.7820026
vt 0.05137712 0.797213
vt 0.05137712 0.7820026
vt 0.4253462 0.4665383
vt 0.4101358 0.4665383
vt 0.4101358 0.4710451
vt 0.4253462 0.4710451
vt 0.6647637 0.5924543
vt 0.6640876 0.5586512
vt 0.6640875 0.5924543
vt 0.6647637 0.5586512
vt 0.6647636 0.5248508
vt 0.6640875 0.5248508
vt 0.8158116 0.6860796
vt 0.8153608 0.6860796
vt 0.8153608 0.6898353
vt 0.8158116 0.6898353
vt 0.8124048 0.6860796
vt 0.8119539 0.6860796
vt 0.8119539 0.6898353
vt 0.8124048 0.6898353
vt 0.814676 0.6860796
vt 0.8142251 0.6860796
vt 0.8142251 0.6898353
vt 0.814676 0.6898353
vt 0.4254631 0.4665383
vt 0.4254631 0.4710451
vt 0.4406735 0.4710451
vt 0.4406735 0.4665383
vt 0.1789072 0.7133765
vt 0.1926513 0.7174638
vt 0.1926544 0.7133988
vt 0.1781158 0.713373
vt 0.164445 0.7173873
vt 0.1644367 0.7133486
vt 0.8135405 0.6898353
vt 0.8135405 0.6860796
vt 0.8130895 0.6860796
vt 0.8130895 0.6898353
vt 0.8157095 0.6905199
vt 0.8119539 0.6905199
vt 0.8119539 0.6909708
vt 0.8157095 0.6909708
vt 0.8164964 0.6860796
vt 0.8164964 0.6898353
vt 0.8169473 0.6898353
vt 0.8169473 0.6860796
vt 0.1715916 0.6495786
vt 0.1644944 0.6458093
vt 0.1711408 0.6495776
vt 0.1711392 0.6533313
vt 0.1782294 0.6458247
vt 0.1715898 0.6533321
vt 0.1715869 0.6608391
vt 0.1711361 0.6608388
vt 0.1715861 0.6645934
vt 0.178221 0.679607
vt 0.1711352 0.6645922
vt 0.1715831 0.6721
vt 0.171132 0.6720994
vt 0.1644767 0.6795941
vt 0.171581 0.6758531
vt 0.1711297 0.6758528
vt 0.1715776 0.6795993
vt 0.1711262 0.6795991
vt 0.1711209 0.6833445
vt 0.1715721 0.6833448
vt 0.1711135 0.6870958
vt 0.1715646 0.6870956
vt 0.1644367 0.7133486
vt 0.1710983 0.6945975
vt 0.1715471 0.6945971
vt 0.1781158 0.713373
vt 0.1710893 0.6983513
vt 0.1715394 0.698352
vt 0.1710745 0.7058535
vt 0.1715219 0.7058538
vt 0.1710665 0.7096043
vt 0.1715136 0.7096028
vt 0.1855513 0.6495587
vt 0.186002 0.6495582
vt 0.1926544 0.6457946
vt 0.1860009 0.6533145
vt 0.1789131 0.6457947
vt 0.1855503 0.6533147
vt 0.1855479 0.6608274
vt 0.1859989 0.6608274
vt 0.1855468 0.6645845
vt 0.1789001 0.6796049
vt 0.1859974 0.6645839
vt 0.1855442 0.672097
vt 0.1859952 0.6720966
vt 0.1926478 0.6796005
vt 0.1855432 0.6758531
vt 0.1859943 0.6758528
vt 0.185543 0.6796017
vt 0.1859942 0.6796013
vt 0.1859946 0.6833491
vt 0.1855435 0.6833495
vt 0.1859951 0.6871033
vt 0.1855438 0.6871035
vt 0.1926544 0.7133988
vt 0.1859965 0.6946114
vt 0.1855448 0.6946104
vt 0.1789072 0.7133765
vt 0.1859985 0.6983643
vt 0.1855476 0.6983641
vt 0.1860001 0.7058727
vt 0.1855488 0.7058713
vt 0.1860007 0.7096266
vt 0.1855484 0.7096252

usemtl LOW-POLY-COLORS
usemap LOW-POLY-COLORS
f 2/2/2 1/1/1 3/3/3
f 5/5/5 4/4/4 2/2/2
f 2/2/2 4/4/4 6/6/6
f 8/8/8 7/7/7 9/9/9
f 11/11/11 10/10/10 9/9/9
f 9/9/9 10/10/10 12/12/12
f 14/14/14 13/13/13 15/15/15
f 17/17/17 16/16/16 15/15/15
f 15/15/15 16/16/16 18/18/18
f 20/20/20 19/19/19 21/21/21
f 23/23/23 22/22/22 20/20/20
f 20/20/20 22/22/22 24/24/24
f 26/26/26 25/25/25 27/27/27
f 27/27/27 25/25/25 28/28/28
f 28/28/28 25/25/25 29/29/29
f 29/29/29 25/25/25 30/30/30
f 32/32/32 31/31/31 33/33/33
f 32/32/32 34/34/34 31/31/31
f 32/32/32 35/35/35 34/34/34
f 36/36/36 35/35/35 32/32/32
f 37/37/37 35/35/35 36/36/36
f 38/38/38 37/37/37 36/36/36
f 40/40/40 39/39/39 41/41/41
f 41/41/41 39/39/39 42/42/42
f 44/44/44 43/43/43 45/45/45
f 46/46/46 43/43/43 44/44/44
f 47/47/47 43/43/43 46/46/46
f 48/48/48 43/43/43 47/47/47
f 50/50/50 49/49/49 51/51/51
f 50/50/50 52/52/52 49/49/49
f 49/49/49 52/52/52 53/53/53
f 54/54/54 53/53/53 52/52/52
f 56/56/56 55/55/55 57/57/57
f 57/57/57 55/55/55 58/58/58
f 60/60/60 59/59/59 61/61/61
f 61/61/61 59/59/59 62/62/62
f 62/62/62 63/63/63 61/61/61
f 61/61/61 63/63/63 64/64/64
f 66/66/66 65/65/65 67/67/67
f 67/67/67 65/65/65 68/68/68
f 70/70/70 69/69/69 71/71/71
f 71/71/71 69/69/69 72/72/72
f 74/74/74 73/73/73 75/75/75
f 75/75/75 73/73/73 76/76/76
f 76/76/76 77/77/77 75/75/75
f 75/75/75 77/77/77 78/78/78
f 80/80/80 79/79/79 81/81/81
f 81/81/81 79/79/79 82/82/82
f 82/82/82 83/83/83 84/84/84
f 84/84/84 83/83/83 85/85/85
f 87/87/87 86/86/86 88/88/88
f 89/89/89 86/86/86 87/87/87
f 90/90/90 86/86/86 89/89/89
f 91/91/91 86/86/86 90/90/90
f 93/93/93 92/92/92 94/94/94
f 94/94/94 92/92/92 95/95/95
f 97/97/97 96/96/96 98/98/98
f 98/98/98 96/96/96 99/99/99
f 99/99/99 96/96/96 100/100/100
f 100/100/100 96/96/96 101/101/101
f 103/103/103 102/102/102 104/104/104
f 104/104/104 102/102/102 105/105/105
f 107/107/107 106/106/106 108/108/108
f 109/109/109 106/106/106 107/107/107
f 107/107/107 110/110/110 109/109/109
f 111/111/111 110/110/110 107/107/107
f 113/113/113 112/112/112 114/114/114
f 114/114/114 112/112/112 115/115/115
f 117/117/117 116/116/116 118/118/118
f 118/118/118 116/116/116 119/119/119
f 121/121/121 120/120/120 122/122/122
f 123/123/123 120/120/120 121/121/121
f 121/121/121 124/124/124 123/123/123
f 125/125/125 124/124/124 121/121/121
f 127/127/127 126/126/126 128/128/128
f 129/129/129 126/126/126 127/127/127
f 131/131/131 130/130/130 129/129/129
f 132/132/132 130/130/130 131/131/131
f 134/134/134 133/133/133 135/135/135
f 133/133/133 136/136/136 135/135/135
f 136/136/136 137/137/137 135/135/135
f 135/135/135 137/137/137 138/138/138
f 138/138/138 137/137/137 139/139/139
f 138/138/138 139/139/139 140/140/140
f 142/142/142 141/141/141 143/143/143
f 143/143/143 141/141/141 144/144/144
f 146/146/146 145/145/145 147/147/147
f 148/148/148 145/145/145 146/146/146
f 146/146/146 149/149/149 148/148/148
f 150/150/150 149/149/149 146/146/146
f 152/152/152 151/151/151 153/153/153
f 153/153/153 151/151/151 154/154/154
f 156/156/156 155/155/155 157/157/157
f 157/157/157 155/155/155 158/158/158
f 160/160/160 159/159/159 161/161/161
f 161/161/161 159/159/159 162/162/162
f 164/164/164 163/163/163 165/165/165
f 165/165/165 163/163/163 166/166/166
f 168/168/168 167/167/167 169/169/169
f 167/167/167 168/168/168 170/170/170
f 170/170/170 168/168/168 171/171/171
f 171/171/171 172/172/172 170/170/170
f 174/174/174 173/173/173 175/175/175
f 175/175/175 173/173/173 176/176/176
f 178/178/178 177/177/177 179/179/179
f 179/179/179 177/177/177 180/180/180
f 182/182/182 181/181/181 183/183/183
f 183/183/183 181/181/181 184/184/184
f 186/186/186 185/185/185 187/187/187
f 186/186/186 187/187/187 188/188/188
f 189/189/189 185/185/185 186/186/186
f 190/190/190 185/185/185 189/189/189
f 190/190/190 191/191/191 188/188/188
f 191/191/191 190/190/190 189/189/189
f 188/188/188 191/191/191 192/192/192
f 186/186/186 188/188/188 192/192/192
f 193/193/193 191/191/191 189/189/189
f 194/194/194 193/193/193 189/189/189
f 192/192/192 195/195/195 186/186/186
f 193/193/193 196/196/196 195/195/195
f 196/196/196 193/193/193 194/194/194
f 197/197/197 186/186/186 195/195/195
f 195/195/195 196/196/196 197/197/197
f 198/198/198 186/186/186 197/197/197
f 199/199/199 196/196/196 194/194/194
f 198/198/198 197/197/197 200/200/200
f 199/199/199 201/201/201 200/200/200
f 201/201/201 199/199/199 194/194/194
f 198/198/198 200/200/200 202/202/202
f 200/200/200 201/201/201 202/202/202
f 202/202/202 203/203/203 198/198/198
f 202/202/202 201/201/201 203/203/203
f 203/203/203 201/201/201 204/204/204
f 194/194/194 204/204/204 201/201/201
f 203/203/203 205/205/205 198/198/198
f 194/194/194 206/206/206 204/204/204
f 205/205/205 207/207/207 198/198/198
f 205/205/205 206/206/206 208/208/208
f 208/208/208 207/207/207 205/205/205
f 194/194/194 209/209/209 206/206/206
f 208/208/208 206/206/206 209/209/209
f 210/210/210 209/209/209 194/194/194
f 207/207/207 208/208/208 211/211/211
f 210/210/210 212/212/212 209/209/209
f 211/211/211 212/212/212 213/213/213
f 211/211/211 213/213/213 207/207/207
f 213/213/213 212/212/212 214/214/214
f 210/210/210 214/214/214 212/212/212
f 213/213/213 215/215/215 207/207/207
f 210/210/210 216/216/216 214/214/214
f 215/215/215 216/216/216 207/207/207
f 207/207/207 216/216/216 210/210/210
f 218/218/218 217/217/217 219/219/219
f 220/220/220 218/218/218 219/219/219
f 219/219/219 217/217/217 221/221/221
f 221/221/221 217/217/217 222/222/222
f 220/220/220 223/223/223 222/222/222
f 221/221/221 222/222/222 223/223/223
f 224/224/224 223/223/223 220/220/220
f 224/224/224 220/220/220 219/219/219
f 221/221/221 223/223/223 225/225/225
f 221/221/221 225/225/225 226/226/226
f 219/219/219 227/227/227 224/224/224
f 227/227/227 228/228/228 225/225/225
f 226/226/226 225/225/225 228/228/228
f 227/227/227 219/219/219 229/229/229
f 229/229/229 228/228/228 227/227/227
f 229/229/229 219/219/219 230/230/230
f 226/226/226 228/228/228 231/231/231
f 232/232/232 229/229/229 230/230/230
f 232/232/232 233/233/233 231/231/231
f 226/226/226 231/231/231 233/233/233
f 234/234/234 232/232/232 230/230/230
f 234/234/234 233/233/233 232/232/232
f 230/230/230 235/235/235 234/234/234
f 235/235/235 233/233/233 234/234/234
f 236/236/236 233/233/233 235/235/235
f 233/233/233 236/236/236 226/226/226
f 230/230/230 237/237/237 235/235/235
f 236/236/236 238/238/238 226/226/226
f 230/230/230 239/239/239 237/237/237
f 240/240/240 238/238/238 237/237/237
f 237/237/237 239/239/239 240/240/240
f 238/238/238 241/241/241 226/226/226
f 241/241/241 238/238/238 240/240/240
f 226/226/226 241/241/241 242/242/242
f 243/243/243 240/240/240 239/239/239
f 241/241/241 244/244/244 242/242/242
f 245/245/245 244/244/244 243/243/243
f 239/239/239 245/245/245 243/243/243
f 246/246/246 244/244/244 245/245/245
f 244/244/244 246/246/246 242/242/242
f 239/239/239 247/247/247 245/245/245
f 246/246/246 248/248/248 242/242/242
f 239/239/239 248/248/248 247/247/247
f 242/242/242 248/248/248 239/239/239
