mtllib ./tile-road-straight-crosswalk_5.mtl
g tile-road-straight-crosswalk
v 15 -1.999997 -15
v 15 -6 -15
v 15 -1.999999 -0.9990358
v -14.99999 -2.000001 15.00002
v -14.99999 -6.000004 15.00002
v -15 -2 0.9990506
v 15 -2.000001 15.00001
v 15 -6.000004 15.00001
v 5.00001 -2.000001 15.00001
v 3.000007 -2.000001 15.00001
v -14.99999 -6.000004 15.00002
v -2.999994 -2.000001 15.00001
v -4.999992 -2.000001 15.00001
v -14.99999 -6.000004 15.00002
v -14.99999 -2.000001 15.00002
v 5.000008 -1.999998 -15
v 3.000001 -0.1999983 -15
v 3.000001 -1.999997 -15
v 3.000001 1.490136E-06 -15
v 3.000001 -0.1999983 -15
v 5.000008 1.490135E-06 -15
v -4.999996 -1.999998 -15
v -3.000005 -1.999998 -15
v -3 -0.1999983 -15
v -3 -0.1999983 -15
v -4.999996 1.490136E-06 -15
v -3 1.490136E-06 -15
v 3.000007 -0.2000022 15.00001
v 5.00001 -2.000001 15.00001
v 3.000007 -2.000001 15.00001
v 3.000007 -0.2000022 15.00001
v 5.00001 -1.490138E-06 15.00002
v 3.000007 -1.490138E-06 15.00001
v -15 -1.999999 -0.9990349
v -15 -6 -15
v -15 -1.999997 -15
v -15 -2 0.9990506
v -14.99999 -6.000004 15.00002
v -15 -1.999999 -0.9990349
v 5.00001 -2.000001 15.00001
v 15 -6.000004 15.00001
v 3.000007 -2.000001 15.00001
v 15 -2 0.9990501
v 15 -6.000004 15.00001
v 15 -2.000001 15.00001
v 15 -1.999999 -0.9990358
v 15 -6 -15
v 15 -2 0.9990501
v 3.000007 -1.490138E-06 15.00001
v 5.00001 -4.768372E-07 0.9990511
v 5.00001 -1.490138E-06 15.00002
v 3.000001 1.490136E-06 -15
v 5.000008 1.490135E-06 -15
v 5.000009 4.768372E-07 -0.9990349
v -3 1.490136E-06 -15
v -4.999995 4.768372E-07 -0.9990354
v -4.999996 1.490136E-06 -15
v -2.999994 -1.490138E-06 15.00001
v -4.999992 -1.490138E-06 15.00001
v -4.999994 -4.768372E-07 0.9990501
v -4.999995 4.768372E-07 -0.9990354
v -15 -4.768372E-07 0.9990506
v -15 4.768372E-07 -0.9990349
v 5.00001 -4.768372E-07 0.9990511
v 15 -4.768372E-07 0.9990501
v 15 -1.490138E-06 15.00001
v 5.00001 -1.490138E-06 15.00002
v -4.999994 -4.768372E-07 0.9990501
v -4.999992 -1.490138E-06 15.00001
v -14.99999 -1.490138E-06 15.00002
v -15 -4.768372E-07 0.9990506
v 3.000007 -1.490138E-06 15.00001
v 3.000007 -0.2000022 15.00001
v 3.000001 -0.1999983 -15
v 3.000001 1.490136E-06 -15
v -2.999994 -0.2000022 15.00001
v -2.999994 -1.490138E-06 15.00001
v -3 1.490136E-06 -15
v -3 -0.1999983 -15
v -4.999992 -1.490138E-06 15.00001
v -4.999992 -2.000001 15.00001
v -14.99999 -2.000001 15.00002
v -14.99999 -1.490138E-06 15.00002
v 5.000008 1.490135E-06 -15
v 5.000008 -1.999998 -15
v 15 -1.999997 -15
v 15 1.490136E-06 -15
v -15 1.490136E-06 -15
v -15 -1.999997 -15
v -4.999996 -1.999998 -15
v -4.999996 1.490136E-06 -15
v 15 -1.490138E-06 15.00001
v 15 -2.000001 15.00001
v 5.00001 -2.000001 15.00001
v 5.00001 -1.490138E-06 15.00002
v 15 -4.768372E-07 0.9990501
v 15 -2 0.9990501
v 15 -2.000001 15.00001
v 15 -1.490138E-06 15.00001
v 3.000007 -0.2000022 15.00001
v 3.000007 -2.000001 15.00001
v -2.999994 -2.000001 15.00001
v -2.999994 -0.2000022 15.00001
v -15 4.768372E-07 -0.9990349
v -15 -1.999999 -0.9990349
v -15 -1.999997 -15
v -15 1.490136E-06 -15
v 3.000001 -0.1999983 -15
v -3 -0.1999983 -15
v -3.000005 -1.999998 -15
v 3.000001 -1.999997 -15
v -4.999992 -2.000001 15.00001
v -2.999994 -0.2000022 15.00001
v -2.999994 -2.000001 15.00001
v -2.999994 -1.490138E-06 15.00001
v -4.999992 -1.490138E-06 15.00001
v -15 -1.999997 -15
v -15 -6 -15
v -4.999996 -1.999998 -15
v -3.000005 -1.999998 -15
v 15 -6 -15
v 3.000001 -1.999997 -15
v 5.000008 -1.999998 -15
v 15 -1.999997 -15
v -1.576302 -0.1821092 0.9964943
v -1.929238 -0.1821092 0.9964943
v -1.929237 -0.1821092 -1.003506
v -1.576305 -0.1821092 -1.003506
v -0.8704152 -0.1821091 0.9964943
v -1.223351 -0.1821091 0.9964943
v -1.223351 -0.1821091 -1.003506
v -0.8704171 -0.1821091 -1.003504
v -2.282174 -0.1821092 0.9964943
v -2.635124 -0.1821092 0.9964943
v -2.635124 -0.1821092 -1.003505
v -2.282173 -0.1821092 -1.003505
v -0.1645286 -0.182109 0.9964943
v -0.5174644 -0.182109 0.9964943
v -0.5174642 -0.182109 -1.003506
v -0.1645284 -0.182109 -1.003506
v 1.576333 -0.1821092 0.9964943
v 1.576337 -0.1821092 -1.003506
v 1.929269 -0.1821092 -1.003506
v 1.929269 -0.1821092 0.9964943
v 0.8704462 -0.1821091 0.9964943
v 0.8704481 -0.1821091 -1.003504
v 1.223382 -0.1821091 -1.003506
v 1.223382 -0.1821091 0.9964943
v 2.282205 -0.1821092 0.9964943
v 2.282205 -0.1821092 -1.003506
v 2.635156 -0.1821092 -1.003506
v 2.635156 -0.1821092 0.9964943
v 0.1645594 -0.182109 0.9964943
v 0.1645594 -0.182109 -1.003506
v 0.5174952 -0.182109 -1.003506
v 0.5174952 -0.182109 0.9964943
v -3 -0.1999983 -15
v -2.635124 -0.1821092 -1.003505
v -2.635124 -0.1821092 0.9964943
v -2.999994 -0.2000022 15.00001
v 2.635156 -0.1821092 0.9964943
v 3.000007 -0.2000022 15.00001
v 2.282205 -0.1821092 0.9964943
v 1.929269 -0.1821092 0.9964943
v 1.929269 -0.1821092 -1.003506
v 2.282205 -0.1821092 -1.003506
v 3.000001 -0.1999983 -15
v 2.635156 -0.1821092 -1.003506
v 1.576337 -0.1821092 -1.003506
v 1.576333 -0.1821092 0.9964943
v 1.223382 -0.1821091 -1.003506
v 1.223382 -0.1821091 0.9964943
v 0.8704481 -0.1821091 -1.003504
v 0.8704462 -0.1821091 0.9964943
v 0.5174952 -0.182109 -1.003506
v 0.5174952 -0.182109 0.9964943
v 0.1645594 -0.182109 -1.003506
v 0.1645594 -0.182109 0.9964943
v -0.1645284 -0.182109 -1.003506
v -3 -0.1999983 -15
v -0.1645286 -0.182109 0.9964943
v -2.999994 -0.2000022 15.00001
v -0.5174642 -0.182109 -1.003506
v -0.5174644 -0.182109 0.9964943
v -0.8704171 -0.1821091 -1.003504
v -0.8704152 -0.1821091 0.9964943
v -1.223351 -0.1821091 -1.003506
v -1.223351 -0.1821091 0.9964943
v -1.576305 -0.1821092 -1.003506
v -1.576302 -0.1821092 0.9964943
v -1.929237 -0.1821092 -1.003506
v -1.929238 -0.1821092 0.9964943
v -2.282173 -0.1821092 -1.003505
v -2.635124 -0.1821092 -1.003505
v -2.282174 -0.1821092 0.9964943
v -2.635124 -0.1821092 0.9964943
v 15 1.490136E-06 -15
v 15 -1.999997 -15
v 15 -1.999999 -0.9990358
v 15 4.768372E-07 -0.9990354
v 15 4.768372E-07 -0.9990354
v 15 -1.999999 -0.9990358
v 15 -2 0.9990501
v 15 -4.768372E-07 0.9990501
v 5.000008 1.490135E-06 -15
v 15 1.490136E-06 -15
v 15 4.768372E-07 -0.9990354
v 5.000009 4.768372E-07 -0.9990349
v 5.000009 4.768372E-07 -0.9990349
v 15 4.768372E-07 -0.9990354
v 15 -4.768372E-07 0.9990501
v 5.00001 -4.768372E-07 0.9990511
v -14.99999 -1.490138E-06 15.00002
v -14.99999 -2.000001 15.00002
v -15 -2 0.9990506
v -15 -4.768372E-07 0.9990506
v -15 -4.768372E-07 0.9990506
v -15 -2 0.9990506
v -15 -1.999999 -0.9990349
v -15 4.768372E-07 -0.9990349
v -4.999996 1.490136E-06 -15
v -4.999995 4.768372E-07 -0.9990354
v -15 4.768372E-07 -0.9990349
v -15 1.490136E-06 -15
v 3.000007 -0.2000022 15.00001
v 2.635156 -0.1821092 0.9964943
v 2.635156 -0.1821092 -1.003506
v 3.000001 -0.1999983 -15
v -4.999994 -4.768372E-07 0.9990501
v -4.999995 4.768372E-07 -0.9990354
v -3 1.490136E-06 -15
v -2.999994 -1.490138E-06 15.00001
v 5.000009 4.768372E-07 -0.9990349
v 5.00001 -4.768372E-07 0.9990511
v 3.000007 -1.490138E-06 15.00001
v 3.000001 1.490136E-06 -15

vn 1 0 0
vn 1 0 0
vn 1 0 0
vn -1 0 0
vn -1 0 0
vn -1 0 0
vn 0 0 1
vn 0 0 1
vn 0 0 1
vn 0 0 1
vn 0 0 1
vn 0 0 1
vn 0 0 1
vn 0 0 1
vn 0 0 1
vn 0 0 -1
vn 0 0 -1
vn 0 0 -1
vn 0 0 -1
vn 0 0 -1
vn 0 0 -1
vn 0 0 -1
vn 0 0 -1
vn 0 0 -1
vn 0 0 -1
vn 0 0 -1
vn 0 0 -1
vn 0 0 1
vn 0 0 1
vn 0 0 1
vn 0 0 1
vn 0 0 1
vn 0 0 1
vn -1 0 0
vn -1 0 0
vn -1 0 0
vn -1 0 0
vn -1 0 0
vn -1 0 0
vn 0 0 1
vn 0 0 1
vn 0 0 1
vn 1 0 0
vn 1 0 0
vn 1 0 0
vn 1 0 0
vn 1 0 0
vn 1 0 0
vn 0 1 0
vn 0 1 0
vn 0 1 0
vn 0 1 0
vn 0 1 0
vn 0 1 0
vn 0 1 0
vn 0 1 0
vn 0 1 0
vn 0 1 0
vn 0 1 0
vn 0 1 0
vn 0 1 0
vn 0 1 0
vn 0 1 0
vn 0 1 0
vn 0 1 0
vn 0 1 0
vn 0 1 0
vn 0 1 0
vn 0 1 0
vn 0 1 0
vn 0 1 0
vn -1 0 0
vn -1 0 0
vn -1 0 0
vn -1 0 0
vn 1 0 0
vn 1 0 0
vn 1 0 0
vn 1 0 0
vn 0 0 1
vn 0 0 1
vn 0 0 1
vn 0 0 1
vn 0 0 -1
vn 0 0 -1
vn 0 0 -1
vn 0 0 -1
vn 0 0 -1
vn 0 0 -1
vn 0 0 -1
vn 0 0 -1
vn 0 0 1
vn 0 0 1
vn 0 0 1
vn 0 0 1
vn 1 0 0
vn 1 0 0
vn 1 0 0
vn 1 0 0
vn 0 0 1
vn 0 0 1
vn 0 0 1
vn 0 0 1
vn -1 0 0
vn -1 0 0
vn -1 0 0
vn -1 0 0
vn 0 0 -1
vn 0 0 -1
vn 0 0 -1
vn 0 0 -1
vn 0 0 1
vn 0 0 1
vn 0 0 1
vn 0 0 1
vn 0 0 1
vn 0 0 -1
vn 0 0 -1
vn 0 0 -1
vn 0 0 -1
vn 0 0 -1
vn 0 0 -1
vn 0 0 -1
vn 0 0 -1
vn 0 1 0
vn 0 1 0
vn 0 1 0
vn 0 1 0
vn 0 1 0
vn 0 1 0
vn 0 1 0
vn 0 1 0
vn 0 1 0
vn 0 1 0
vn 0 1 0
vn 0 1 0
vn 0 1 0
vn 0 1 0
vn 0 1 0
vn 0 1 0
vn 0 1 0
vn 0 1 0
vn 0 1 0
vn 0 1 0
vn 0 1 0
vn 0 1 0
vn 0 1 0
vn 0 1 0
vn 0 1 0
vn 0 1 0
vn 0 1 0
vn 0 1 0
vn 0 1 0
vn 0 1 0
vn 0 1 0
vn 0 1 0
vn -0.04897491 0.9988 0
vn -0.04897491 0.9988 0
vn -0.04897491 0.9988 0
vn -0.04897491 0.9988 0
vn 0 0.9999992 0.001277746
vn 0 0.9999992 0.001277768
vn 0 1 0
vn 0 1 0
vn 0 1 0
vn 0 1 0
vn 0 0.9999992 -0.001278129
vn 0 0.9999992 -0.001278105
vn 0 1 0
vn 0 1 0
vn 0 1 0
vn 0 1 0
vn 0 1 0
vn 0 1 0
vn 0 1 0
vn 0 1 0
vn 0 1 0
vn 0 1 0
vn 0 1 0
vn 0 0.9999992 -0.001278129
vn 0 1 0
vn 0 0.9999992 0.001277768
vn 0 1 0
vn 0 1 0
vn 0 1 0
vn 0 1 0
vn 0 1 0
vn 0 1 0
vn 0 1 0
vn 0 1 0
vn 0 1 0
vn 0 1 0
vn 0 1 0
vn 0 0.9999992 -0.001278107
vn 0 1 0
vn 0 0.9999992 0.001277746
vn 1 0 0
vn 1 0 0
vn 1 0 0
vn 1 0 0
vn 1 0 0
vn 1 0 0
vn 1 0 0
vn 1 0 0
vn 0 1 0
vn 0 1 0
vn 0 1 0
vn 0 1 0
vn 0 1 0
vn 0 1 0
vn 0 1 0
vn 0 1 0
vn -1 0 0
vn -1 0 0
vn -1 0 0
vn -1 0 0
vn -1 0 0
vn -1 0 0
vn -1 0 0
vn -1 0 0
vn 0 1 0
vn 0 1 0
vn 0 1 0
vn 0 1 0
vn 0.04897809 0.9987999 0
vn 0.04897809 0.9987999 0
vn 0.04897809 0.9987999 0
vn 0.04897809 0.9987999 0
vn 0 1 0
vn 0 1 0
vn 0 1 0
vn 0 1 0
vn 0 1 0
vn 0 1 0
vn 0 1 0
vn 0 1 0

vt 0.04949352 0.8559043
vt 0.05800417 0.8559043
vt 0.04949353 0.8346277
vt 0.05810762 0.8559043
vt 0.06661827 0.8559043
vt 0.05810763 0.8346277
vt 0.03159565 0.855287
vt 0.03978057 0.8555668
vt 0.031938 0.8348156
vt 0.031938 0.8305416
vt 0.04048621 0.7920746
vt 0.031938 0.8177192
vt 0.031938 0.8134451
vt 0.03974053 0.7928581
vt 0.03156535 0.7930071
vt 0.5511518 0.635999
vt 0.5534346 0.6458026
vt 0.5572877 0.6402802
vt 0.5524409 0.6461561
vt 0.5534346 0.6458026
vt 0.5468705 0.6421348
vt 0.5979929 0.7405007
vt 0.6049783 0.736212
vt 0.6011184 0.7299251
vt 0.6011184 0.7299251
vt 0.5937042 0.7335153
vt 0.6000404 0.7294842
vt 0.5527595 0.72545
vt 0.5495861 0.7374128
vt 0.5572877 0.7323814
vt 0.5527595 0.72545
vt 0.5445548 0.7297112
vt 0.5513228 0.7250567
vt 0.05810763 0.8133511
vt 0.06661826 0.8133511
vt 0.05810764 0.7920746
vt 0.05810763 0.8346277
vt 0.06661826 0.8346277
vt 0.05810763 0.8133511
vt 0.031938 0.8348156
vt 0.0397842 0.8554239
vt 0.031938 0.8305416
vt 0.04949353 0.8133511
vt 0.05800417 0.8133511
vt 0.04949354 0.7920746
vt 0.04949353 0.8346277
vt 0.05800417 0.8346277
vt 0.04949353 0.8133511
vt 0.5513228 0.7250567
vt 0.5447184 0.6868698
vt 0.5445548 0.7297112
vt 0.5524409 0.6461561
vt 0.5468705 0.6421348
vt 0.5450938 0.6805581
vt 0.6000404 0.7294842
vt 0.5946879 0.6916634
vt 0.5937042 0.7335153
vt 0.6034533 0.6425067
vt 0.5972681 0.6421841
vt 0.5950102 0.6854832
vt 0.5946879 0.6916634
vt 0.5640799 0.6838703
vt 0.5637576 0.6900505
vt 0.4901442 0.4489515
vt 0.4688676 0.4489515
vt 0.4688676 0.4702281
vt 0.4901442 0.4702281
vt 0.4177004 0.402143
vt 0.3964238 0.402143
vt 0.3964238 0.4234196
vt 0.4177004 0.4234196
vt 0.5513228 0.7250567
vt 0.5527595 0.72545
vt 0.5534346 0.6458026
vt 0.5524409 0.6461561
vt 0.6049783 0.6425658
vt 0.6034533 0.6425067
vt 0.6000404 0.7294842
vt 0.6011184 0.7299251
vt 0.3964238 0.402143
vt 0.3921684 0.402143
vt 0.3921684 0.4234196
vt 0.3964238 0.4234196
vt 0.4901442 0.4063983
vt 0.4901442 0.402143
vt 0.4688676 0.402143
vt 0.4688676 0.4063983
vt 0.4602535 0.4234196
vt 0.4645088 0.4234196
vt 0.4645088 0.402143
vt 0.4602535 0.402143
vt 0.4688676 0.4702281
vt 0.4688676 0.4744835
vt 0.4901442 0.4744835
vt 0.4901442 0.4702281
vt 0.4688676 0.4489515
vt 0.4646123 0.4489515
vt 0.4646123 0.4702281
vt 0.4688676 0.4702281
vt 0.1598751 0.7306281
vt 0.1598752 0.7359087
vt 0.1774772 0.7359086
vt 0.1774771 0.730628
vt 0.4389769 0.4234196
vt 0.4389769 0.4276749
vt 0.4602535 0.4276749
vt 0.4602535 0.4234196
vt 0.1598674 0.6426026
vt 0.1774757 0.6426075
vt 0.1774772 0.6373249
vt 0.1598689 0.63732
vt 0.5975906 0.635999
vt 0.6034855 0.6418882
vt 0.6037758 0.6363215
vt 0.6034533 0.6425067
vt 0.5972681 0.6421841
vt 0.04939007 0.7923684
vt 0.04097294 0.7922214
vt 0.04902255 0.8134112
vt 0.04902251 0.8176274
vt 0.04058966 0.8555735
vt 0.04902239 0.8302761
vt 0.04902235 0.8344924
vt 0.04939007 0.8555703
vt 0.7981546 0.6932913
vt 0.7981546 0.6940422
vt 0.8024099 0.6940422
vt 0.8024099 0.6932913
vt 0.8024099 0.6923335
vt 0.8024099 0.6915825
vt 0.7981546 0.6915825
vt 0.7981546 0.6923335
vt 0.7989056 0.6863694
vt 0.7981546 0.6863694
vt 0.7981546 0.6906247
vt 0.7989056 0.6906247
vt 0.7981546 0.698401
vt 0.7989055 0.698401
vt 0.7989055 0.6941457
vt 0.7981546 0.6941457
vt 0.8024099 0.6907282
vt 0.7981546 0.6907282
vt 0.7981546 0.6914791
vt 0.8024099 0.6914791
vt 0.7981546 0.6985044
vt 0.7981546 0.7027597
vt 0.7989055 0.7027597
vt 0.7989055 0.6985044
vt 0.7981546 0.6820107
vt 0.7981546 0.686266
vt 0.7989056 0.686266
vt 0.7989056 0.6820107
vt 0.8024099 0.6924369
vt 0.7981546 0.6924369
vt 0.7981546 0.6931878
vt 0.8024099 0.6931878
vt 0.1774757 0.6426075
vt 0.1764033 0.6836603
vt 0.1764048 0.6895453
vt 0.1774771 0.730628
vt 0.1609445 0.6895419
vt 0.1598751 0.7306281
vt 0.1619787 0.6895437
vt 0.1630131 0.6895449
vt 0.1630094 0.6836965
vt 0.1619759 0.6837003
vt 0.1598674 0.6426026
vt 0.1609428 0.6837046
vt 0.1640433 0.6836931
vt 0.1640478 0.6895457
vt 0.1650776 0.6836898
vt 0.1650829 0.6895461
vt 0.1661122 0.6836869
vt 0.1661181 0.6895462
vt 0.1671471 0.683684
vt 0.1671534 0.6895461
vt 0.1681822 0.6836812
vt 0.1681889 0.6895459
vt 0.1691479 0.6836787
vt 0.1774757 0.6426075
vt 0.1691542 0.6895455
vt 0.1774771 0.730628
vt 0.1701837 0.6836762
vt 0.1701896 0.6895451
vt 0.1712197 0.6836737
vt 0.1712252 0.6895447
vt 0.1722559 0.6836712
vt 0.1722608 0.6895445
vt 0.1732923 0.6836686
vt 0.1732966 0.6895443
vt 0.174329 0.683666
vt 0.1743326 0.6895444
vt 0.175366 0.6836632
vt 0.1764033 0.6836603
vt 0.1753686 0.6895447
vt 0.1764048 0.6895453
vt 0.4688676 0.4063983
vt 0.4646123 0.4063983
vt 0.4646123 0.4276749
vt 0.4688676 0.4276749
vt 0.5135053 0.6786798
vt 0.5071877 0.6783041
vt 0.5068124 0.6846157
vt 0.51313 0.6849914
vt 0.4901442 0.4063983
vt 0.4688676 0.4063983
vt 0.4688676 0.4276749
vt 0.4901442 0.4276749
vt 0.5450938 0.6805581
vt 0.5135053 0.6786798
vt 0.51313 0.6849914
vt 0.5447184 0.6868698
vt 0.3964238 0.4234196
vt 0.3964238 0.427675
vt 0.4177004 0.4276749
vt 0.4177004 0.4234196
vt 0.5640799 0.6838703
vt 0.5578938 0.6835478
vt 0.5575715 0.6897279
vt 0.5637576 0.6900505
vt 0.4602535 0.402143
vt 0.4389769 0.402143
vt 0.4389769 0.4234196
vt 0.4602535 0.4234196
vt 0.1598751 0.7306281
vt 0.1609445 0.6895419
vt 0.1609428 0.6837046
vt 0.1598674 0.6426026
vt 0.5950102 0.6854832
vt 0.5946879 0.6916634
vt 0.6000404 0.7294842
vt 0.6034533 0.6425067
vt 0.5450938 0.6805581
vt 0.5447184 0.6868698
vt 0.5513228 0.7250567
vt 0.5524409 0.6461561

usemtl LOW-POLY-COLORS
usemap LOW-POLY-COLORS
f 2/2/2 1/1/1 3/3/3
f 5/5/5 4/4/4 6/6/6
f 8/8/8 7/7/7 9/9/9
f 8/8/8 10/10/10 11/11/11
f 11/11/11 10/10/10 12/12/12
f 11/11/11 12/12/12 13/13/13
f 14/14/14 13/13/13 15/15/15
f 17/17/17 16/16/16 18/18/18
f 20/20/20 19/19/19 16/16/16
f 16/16/16 19/19/19 21/21/21
f 23/23/23 22/22/22 24/24/24
f 26/26/26 25/25/25 22/22/22
f 27/27/27 25/25/25 26/26/26
f 29/29/29 28/28/28 30/30/30
f 32/32/32 31/31/31 29/29/29
f 33/33/33 31/31/31 32/32/32
f 35/35/35 34/34/34 36/36/36
f 38/38/38 37/37/37 35/35/35
f 35/35/35 37/37/37 39/39/39
f 41/41/41 40/40/40 42/42/42
f 44/44/44 43/43/43 45/45/45
f 47/47/47 46/46/46 44/44/44
f 44/44/44 46/46/46 48/48/48
f 50/50/50 49/49/49 51/51/51
f 53/53/53 52/52/52 54/54/54
f 56/56/56 55/55/55 57/57/57
f 59/59/59 58/58/58 60/60/60
f 60/60/60 61/61/61 62/62/62
f 62/62/62 61/61/61 63/63/63
f 65/65/65 64/64/64 66/66/66
f 66/66/66 64/64/64 67/67/67
f 69/69/69 68/68/68 70/70/70
f 70/70/70 68/68/68 71/71/71
f 73/73/73 72/72/72 74/74/74
f 74/74/74 72/72/72 75/75/75
f 77/77/77 76/76/76 78/78/78
f 78/78/78 76/76/76 79/79/79
f 81/81/81 80/80/80 82/82/82
f 82/82/82 80/80/80 83/83/83
f 85/85/85 84/84/84 86/86/86
f 86/86/86 84/84/84 87/87/87
f 89/89/89 88/88/88 90/90/90
f 90/90/90 88/88/88 91/91/91
f 93/93/93 92/92/92 94/94/94
f 94/94/94 92/92/92 95/95/95
f 97/97/97 96/96/96 98/98/98
f 98/98/98 96/96/96 99/99/99
f 101/101/101 100/100/100 102/102/102
f 102/102/102 100/100/100 103/103/103
f 105/105/105 104/104/104 106/106/106
f 106/106/106 104/104/104 107/107/107
f 109/109/109 108/108/108 110/110/110
f 110/110/110 108/108/108 111/111/111
f 113/113/113 112/112/112 114/114/114
f 113/113/113 115/115/115 112/112/112
f 112/112/112 115/115/115 116/116/116
f 118/118/118 117/117/117 119/119/119
f 118/118/118 119/119/119 120/120/120
f 118/118/118 120/120/120 121/121/121
f 121/121/121 120/120/120 122/122/122
f 121/121/121 122/122/122 123/123/123
f 121/121/121 123/123/123 124/124/124
f 126/126/126 125/125/125 127/127/127
f 127/127/127 125/125/125 128/128/128
f 130/130/130 129/129/129 131/131/131
f 131/131/131 129/129/129 132/132/132
f 134/134/134 133/133/133 135/135/135
f 135/135/135 133/133/133 136/136/136
f 138/138/138 137/137/137 139/139/139
f 139/139/139 137/137/137 140/140/140
f 142/142/142 141/141/141 143/143/143
f 143/143/143 141/141/141 144/144/144
f 146/146/146 145/145/145 147/147/147
f 147/147/147 145/145/145 148/148/148
f 150/150/150 149/149/149 151/151/151
f 151/151/151 149/149/149 152/152/152
f 154/154/154 153/153/153 155/155/155
f 155/155/155 153/153/153 156/156/156
f 158/158/158 157/157/157 159/159/159
f 159/159/159 157/157/157 160/160/160
f 162/162/162 161/161/161 163/163/163
f 162/162/162 163/163/163 164/164/164
f 163/163/163 165/165/165 164/164/164
f 166/166/166 165/165/165 163/163/163
f 165/165/165 166/166/166 167/167/167
f 166/166/166 168/168/168 167/167/167
f 169/169/169 165/165/165 167/167/167
f 164/164/164 170/170/170 162/162/162
f 171/171/171 170/170/170 169/169/169
f 167/167/167 171/171/171 169/169/169
f 172/172/172 170/170/170 171/171/171
f 170/170/170 172/172/172 162/162/162
f 173/173/173 171/171/171 167/167/167
f 172/172/172 174/174/174 162/162/162
f 175/175/175 174/174/174 173/173/173
f 167/167/167 175/175/175 173/173/173
f 176/176/176 174/174/174 175/175/175
f 174/174/174 176/176/176 162/162/162
f 167/167/167 177/177/177 175/175/175
f 176/176/176 178/178/178 162/162/162
f 177/177/177 167/167/167 179/179/179
f 177/177/177 179/179/179 178/178/178
f 179/179/179 167/167/167 180/180/180
f 181/181/181 162/162/162 178/178/178
f 178/178/178 179/179/179 181/181/181
f 182/182/182 162/162/162 181/181/181
f 183/183/183 179/179/179 180/180/180
f 182/182/182 181/181/181 184/184/184
f 183/183/183 185/185/185 184/184/184
f 185/185/185 183/183/183 180/180/180
f 184/184/184 185/185/185 186/186/186
f 182/182/182 184/184/184 186/186/186
f 187/187/187 185/185/185 180/180/180
f 186/186/186 188/188/188 182/182/182
f 187/187/187 189/189/189 188/188/188
f 189/189/189 187/187/187 180/180/180
f 188/188/188 189/189/189 190/190/190
f 182/182/182 188/188/188 190/190/190
f 191/191/191 189/189/189 180/180/180
f 190/190/190 192/192/192 182/182/182
f 180/180/180 193/193/193 191/191/191
f 193/193/193 192/192/192 191/191/191
f 180/180/180 194/194/194 193/193/193
f 195/195/195 192/192/192 193/193/193
f 192/192/192 195/195/195 182/182/182
f 195/195/195 196/196/196 182/182/182
f 198/198/198 197/197/197 199/199/199
f 199/199/199 197/197/197 200/200/200
f 202/202/202 201/201/201 203/203/203
f 203/203/203 201/201/201 204/204/204
f 206/206/206 205/205/205 207/207/207
f 207/207/207 205/205/205 208/208/208
f 210/210/210 209/209/209 211/211/211
f 211/211/211 209/209/209 212/212/212
f 214/214/214 213/213/213 215/215/215
f 215/215/215 213/213/213 216/216/216
f 218/218/218 217/217/217 219/219/219
f 219/219/219 217/217/217 220/220/220
f 222/222/222 221/221/221 223/223/223
f 223/223/223 221/221/221 224/224/224
f 226/226/226 225/225/225 227/227/227
f 227/227/227 225/225/225 228/228/228
f 230/230/230 229/229/229 231/231/231
f 231/231/231 229/229/229 232/232/232
f 234/234/234 233/233/233 235/235/235
f 235/235/235 233/233/233 236/236/236
