mtllib ./candle_2.mtl
g candle
v -1.546926E-10 0.1305928 -0.0239922
v 0.01796561 0.129656 -0.01532867
v 0 0.1390388 -0.001771834
v 0.02240274 0.1294247 0.004138108
v 0.009970159 0.1300729 0.01974925
v 0 0.1390388 -0.001771834
v -0.009970155 0.1311126 0.01974925
v -0.02240274 0.1317609 0.004138107
v 0 0.1390388 -0.001771834
v -0.01796561 0.1315295 -0.01532867
v -1.546926E-10 0.1305928 -0.0239922
v 0 0.1390388 -0.001771834
v 0.01796561 0.129656 -0.01532867
v 0.02240274 0.1294247 0.004138108
v 0 0.1390388 -0.001771834
v 0.009970159 0.1300729 0.01974925
v -0.009970155 0.1311126 0.01974925
v 0 0.1390388 -0.001771834
v -0.02240274 0.1317609 0.004138107
v -0.01796561 0.1315295 -0.01532867
v 0 0.1390388 -0.001771834
v -0.002894973 0.169303 -0.003092165
v 4.015601E-20 0.1676482 -0.007825462
v 0.002894973 0.169303 -0.003092166
v 0.04198166 0.1151597 0.008696462
v 0.01939351 0.1157207 0.03822191
v 0.009970159 0.1300729 0.01974925
v 0.02240274 0.1294247 0.004138108
v -0.01776643 0.1166576 0.03896517
v -0.04151597 0.117265 0.01036654
v -0.02240274 0.1317609 0.004138107
v -0.009970155 0.1311126 0.01974925
v -0.03397123 0.1170855 -0.02603863
v -0.0008135401 0.1162542 -0.04283649
v -1.546926E-10 0.1305928 -0.0239922
v -0.01796561 0.1315295 -0.01532867
v 0.03298867 0.1153972 -0.02737792
v 0.04198166 0.1151597 0.008696462
v 0.02240274 0.1294247 0.004138108
v 0.01796561 0.129656 -0.01532867
v 0.01939351 0.1157207 0.03822191
v -0.01776643 0.1166576 0.03896517
v -0.009970155 0.1311126 0.01974925
v 0.009970159 0.1300729 0.01974925
v -0.04151597 0.117265 0.01036654
v -0.03397123 0.1170855 -0.02603863
v -0.01796561 0.1315295 -0.01532867
v -0.02240274 0.1317609 0.004138107
v -0.0008135401 0.1162542 -0.04283649
v 0.03298867 0.1153972 -0.02737792
v 0.01796561 0.129656 -0.01532867
v -1.546926E-10 0.1305928 -0.0239922
v -0.04177044 0 0.009533831
v -0.01858959 0 0.03860169
v 0.0185896 0 0.03860169
v 0.04177044 0 0.009533834
v -0.03349729 0 -0.0267132
v 0.0334973 0 -0.02671319
v 0 0 -0.04284465
v 4.015601E-20 0.1676482 -0.007825462
v 0 0.1357717 -0.004874361
v 0.002682866 0.1357717 -0.0002275014
v 0.002894973 0.169303 -0.003092166
v 0.002894973 0.169303 -0.003092166
v 0.002682866 0.1357717 -0.0002275014
v -0.002682866 0.1357717 -0.0002274999
v -0.002894973 0.169303 -0.003092165
v -0.002894973 0.169303 -0.003092165
v -0.002682866 0.1357717 -0.0002274999
v 0 0.1357717 -0.004874361
v 4.015601E-20 0.1676482 -0.007825462
v 0 0 -0.04284465
v 0.0334973 0 -0.02671319
v 0.03298867 0.1153972 -0.02737792
v -0.0008135401 0.1162542 -0.04283649
v -0.04177044 0 0.009533831
v -0.03349729 0 -0.0267132
v -0.03397123 0.1170855 -0.02603863
v -0.04151597 0.117265 0.01036654
v 0.0185896 0 0.03860169
v -0.01858959 0 0.03860169
v -0.01776643 0.1166576 0.03896517
v 0.01939351 0.1157207 0.03822191
v 0.0334973 0 -0.02671319
v 0.04177044 0 0.009533834
v 0.04198166 0.1151597 0.008696462
v 0.03298867 0.1153972 -0.02737792
v -0.03349729 0 -0.0267132
v 0 0 -0.04284465
v -0.0008135401 0.1162542 -0.04283649
v -0.03397123 0.1170855 -0.02603863
v -0.01858959 0 0.03860169
v -0.04177044 0 0.009533831
v -0.04151597 0.117265 0.01036654
v -0.01776643 0.1166576 0.03896517
v 0.04177044 0 0.009533834
v 0.0185896 0 0.03860169
v 0.01939351 0.1157207 0.03822191
v 0.04198166 0.1151597 0.008696462

vn 0.2149326 0.9129051 -0.3469989
vn 0.2149326 0.9129051 -0.3469989
vn 0.2149326 0.9129051 -0.3469989
vn 0.3328633 0.9152235 0.2270857
vn 0.3328633 0.9152235 0.2270857
vn 0.3328633 0.9152235 0.2270857
vn -0.2441595 0.9411962 0.2335288
vn -0.2441595 0.9411962 0.2335288
vn -0.2441595 0.9411962 0.2335288
vn -0.1216887 0.9278045 -0.3526623
vn -0.1216887 0.9278045 -0.3526623
vn -0.1216887 0.9278045 -0.3526623
vn 0.4114161 0.9076617 -0.0829877
vn 0.4114161 0.9076617 -0.0829877
vn 0.4114161 0.9076617 -0.0829877
vn 0.04848057 0.9297842 0.3648986
vn 0.04848057 0.9297842 0.3648986
vn 0.04848057 0.9297842 0.3648986
vn -0.3282787 0.9406573 -0.08600529
vn -0.3282787 0.9406573 -0.08600529
vn -0.3282787 0.9406573 -0.08600529
vn 0 0.9439716 -0.330027
vn 0 0.9439716 -0.330027
vn 0 0.9439716 -0.330027
vn 0.4933944 0.7910684 0.3616252
vn 0.4933944 0.7910684 0.3616252
vn 0.4933944 0.7910684 0.3616252
vn 0.4933944 0.7910684 0.3616252
vn -0.4657388 0.7875564 0.4035373
vn -0.4657388 0.7875564 0.4035373
vn -0.4657388 0.7875564 0.4035373
vn -0.4657388 0.7875564 0.4035373
vn -0.2674226 0.7619402 -0.5898578
vn -0.2674226 0.7619402 -0.5898578
vn -0.2674226 0.7619402 -0.5898578
vn -0.2674226 0.7619402 -0.5898578
vn 0.6113173 0.7786787 -0.1412466
vn 0.6113173 0.7786787 -0.1412466
vn 0.6113173 0.7786787 -0.1412466
vn 0.6113173 0.7786787 -0.1412466
vn 0.03539863 0.7947323 0.6059271
vn 0.03539863 0.7947323 0.6059271
vn 0.03539863 0.7947323 0.6059271
vn 0.03539863 0.7947323 0.6059271
vn -0.6192384 0.7728952 -0.1384809
vn -0.6192384 0.7728952 -0.1384809
vn -0.6192384 0.7728952 -0.1384809
vn -0.6192384 0.7728952 -0.1384809
vn 0.2935809 0.7650506 -0.5731559
vn 0.2935809 0.7650506 -0.5731559
vn 0.2935809 0.7650506 -0.5731559
vn 0.2935809 0.7650506 -0.5731559
vn 0 -1 0
vn 0 -1 0
vn 0 -1 0
vn 0 -1 0
vn 0 -1 0
vn 0 -1 0
vn 0 -1 0
vn 0.8622114 -0.04763645 -0.5043037
vn 0.8622114 -0.04763645 -0.5043037
vn 0.8622114 -0.04763645 -0.5043037
vn 0.8622114 -0.04763645 -0.5043037
vn 0 0.0851225 0.9963706
vn 0 0.0851225 0.9963706
vn 0 0.0851225 0.9963706
vn 0 0.0851225 0.9963706
vn -0.8622118 -0.04763641 -0.5043033
vn -0.8622118 -0.04763641 -0.5043033
vn -0.8622118 -0.04763641 -0.5043033
vn -0.8622118 -0.04763641 -0.5043033
vn 0.4249107 -0.0001405452 -0.9052353
vn 0.4249107 -0.0001405452 -0.9052353
vn 0.4249107 -0.0001405452 -0.9052353
vn 0.4249107 -0.0001405452 -0.9052353
vn -0.9771091 0.0004532141 -0.212738
vn -0.9771091 0.0004532141 -0.212738
vn -0.9771091 0.0004532141 -0.212738
vn -0.9771091 0.0004532141 -0.212738
vn 0.009997722 0 0.9999501
vn 0.009997722 0 0.9999501
vn 0.009997722 0 0.9999501
vn 0.009997722 0 0.9999501
vn 0.9726642 -0.000258213 -0.2322161
vn 0.9726642 -0.000258213 -0.2322161
vn 0.9726642 -0.000258213 -0.2322161
vn 0.9726642 -0.000258213 -0.2322161
vn -0.442922 0.0001793527 -0.8965602
vn -0.442922 0.0001793527 -0.8965602
vn -0.442922 0.0001793527 -0.8965602
vn -0.442922 0.0001793527 -0.8965602
vn -0.7756092 0.0003453113 0.6312133
vn -0.7756092 0.0003453113 0.6312133
vn -0.7756092 0.0003453113 0.6312133
vn -0.7756092 0.0003453113 0.6312133
vn 0.7880692 -0.0002197283 0.6155867
vn 0.7880692 -0.0002197283 0.6155867
vn 0.7880692 -0.0002197283 0.6155867
vn 0.7880692 -0.0002197283 0.6155867

vt 0.8251362 0.813139
vt 0.8222212 0.8091899
vt 0.817631 0.8140229
vt 0.8189019 0.8079437
vt 0.8159001 0.8082039
vt 0.817631 0.8140229
vt 0.8135047 0.8096792
vt 0.8118891 0.812058
vt 0.817631 0.8140229
vt 0.8112966 0.8155068
vt 0.8131109 0.8202463
vt 0.817631 0.8140229
vt 0.8222212 0.8091899
vt 0.8189019 0.8079437
vt 0.817631 0.8140229
vt 0.8159001 0.8082039
vt 0.8135047 0.8096792
vt 0.817631 0.8140229
vt 0.8118891 0.812058
vt 0.8112966 0.8155068
vt 0.817631 0.8140229
vt 0.8322251 0.7846193
vt 0.8327494 0.7855274
vt 0.8332738 0.7846193
vt 0.8190413 0.8042276
vt 0.8148319 0.805154
vt 0.8159001 0.8082039
vt 0.8189019 0.8079437
vt 0.8114766 0.8073356
vt 0.8090395 0.8104253
vt 0.8118891 0.812058
vt 0.8135047 0.8096792
vt 0.807135 0.8151106
vt 0.8071791 0.823929
vt 0.8131109 0.8202463
vt 0.8112966 0.8155068
vt 0.8242922 0.805474
vt 0.8190413 0.8042276
vt 0.8189019 0.8079437
vt 0.8222212 0.8091899
vt 0.8148319 0.805154
vt 0.8114766 0.8073356
vt 0.8135047 0.8096792
vt 0.8159001 0.8082039
vt 0.8090395 0.8104253
vt 0.807135 0.8151106
vt 0.8112966 0.8155068
vt 0.8118891 0.812058
vt 0.8311034 0.8103578
vt 0.8242922 0.805474
vt 0.8222212 0.8091899
vt 0.8251362 0.813139
vt 0.7951359 0.7975738
vt 0.8027543 0.7948511
vt 0.8073037 0.7892686
vt 0.8044523 0.7809171
vt 0.7888315 0.791882
vt 0.7963027 0.7785244
vt 0.7893507 0.7834042
vt 0.8342955 0.7843839
vt 0.834205 0.7785869
vt 0.8332353 0.7785244
vt 0.8332738 0.7846193
vt 0.8332738 0.7846193
vt 0.8332353 0.7785244
vt 0.8322635 0.7785244
vt 0.8322251 0.7846193
vt 0.8322251 0.7846193
vt 0.8322635 0.7785244
vt 0.8312937 0.7785869
vt 0.8312032 0.7843839
vt 0.8311034 0.7844301
vt 0.82259 0.7848799
vt 0.8242922 0.805474
vt 0.8311034 0.8103578
vt 0.7951359 0.7975738
vt 0.7902377 0.8040906
vt 0.807135 0.8151106
vt 0.8090395 0.8104253
vt 0.8073037 0.7892686
vt 0.8027543 0.7948511
vt 0.8114766 0.8073356
vt 0.8148319 0.805154
vt 0.82259 0.7848799
vt 0.8146547 0.7866054
vt 0.8190413 0.8042276
vt 0.8242922 0.805474
vt 0.7902377 0.8040906
vt 0.7860073 0.8108347
vt 0.8071791 0.823929
vt 0.807135 0.8151106
vt 0.8027543 0.7948511
vt 0.7951359 0.7975738
vt 0.8090395 0.8104253
vt 0.8114766 0.8073356
vt 0.8146547 0.7866054
vt 0.8073037 0.7892686
vt 0.8148319 0.805154
vt 0.8190413 0.8042276

usemtl LOW-POLY-COLORS
usemap LOW-POLY-COLORS
f 2/2/2 1/1/1 3/3/3
f 5/5/5 4/4/4 6/6/6
f 8/8/8 7/7/7 9/9/9
f 11/11/11 10/10/10 12/12/12
f 14/14/14 13/13/13 15/15/15
f 17/17/17 16/16/16 18/18/18
f 20/20/20 19/19/19 21/21/21
f 23/23/23 22/22/22 24/24/24
f 26/26/26 25/25/25 27/27/27
f 27/27/27 25/25/25 28/28/28
f 30/30/30 29/29/29 31/31/31
f 31/31/31 29/29/29 32/32/32
f 34/34/34 33/33/33 35/35/35
f 35/35/35 33/33/33 36/36/36
f 38/38/38 37/37/37 39/39/39
f 39/39/39 37/37/37 40/40/40
f 42/42/42 41/41/41 43/43/43
f 43/43/43 41/41/41 44/44/44
f 46/46/46 45/45/45 47/47/47
f 47/47/47 45/45/45 48/48/48
f 50/50/50 49/49/49 51/51/51
f 51/51/51 49/49/49 52/52/52
f 54/54/54 53/53/53 55/55/55
f 55/55/55 53/53/53 56/56/56
f 56/56/56 53/53/53 57/57/57
f 56/56/56 57/57/57 58/58/58
f 58/58/58 57/57/57 59/59/59
f 61/61/61 60/60/60 62/62/62
f 62/62/62 60/60/60 63/63/63
f 65/65/65 64/64/64 66/66/66
f 66/66/66 64/64/64 67/67/67
f 69/69/69 68/68/68 70/70/70
f 70/70/70 68/68/68 71/71/71
f 73/73/73 72/72/72 74/74/74
f 74/74/74 72/72/72 75/75/75
f 77/77/77 76/76/76 78/78/78
f 78/78/78 76/76/76 79/79/79
f 81/81/81 80/80/80 82/82/82
f 82/82/82 80/80/80 83/83/83
f 85/85/85 84/84/84 86/86/86
f 86/86/86 84/84/84 87/87/87
f 89/89/89 88/88/88 90/90/90
f 90/90/90 88/88/88 91/91/91
f 93/93/93 92/92/92 94/94/94
f 94/94/94 92/92/92 95/95/95
f 97/97/97 96/96/96 98/98/98
f 98/98/98 96/96/96 99/99/99
