mtllib ./drugs_15.mtl
g drugs
v 0 0 -0.03000147
v 0 0.01767452 -0.03000147
v -0.02121426 0.01767452 -0.02121426
v -0.02121426 0 -0.02121426
v -0.03000147 0.01767452 1.311406E-09
v -0.02121426 0.01767452 -0.02121426
v -0.02121426 0.06297456 -0.02121426
v -0.03000147 0.06297456 1.311406E-09
v -0.03000147 0 1.311406E-09
v -0.02121426 0 -0.02121426
v -0.02121426 0.01767452 -0.02121426
v -0.03000147 0.01767452 1.311406E-09
v -0.02121426 0.01767452 0.02121426
v -0.03000147 0.01767452 1.311406E-09
v -0.03000147 0.06297456 1.311406E-09
v -0.02121426 0.06297456 0.02121426
v -0.02121426 0 0.02121426
v -0.03000147 0 1.311406E-09
v -0.03000147 0.01767452 1.311406E-09
v -0.02121426 0.01767452 0.02121426
v 2.622813E-09 0.01767452 0.03000147
v -0.02121426 0.01767452 0.02121426
v -0.02121426 0.06297456 0.02121426
v 2.622813E-09 0.06297456 0.03000147
v 2.622813E-09 0 0.03000147
v -0.02121426 0 0.02121426
v -0.02121426 0.01767452 0.02121426
v 2.622813E-09 0.01767452 0.03000147
v 0.02121426 0.01767452 0.02121426
v 2.622813E-09 0.01767452 0.03000147
v 2.622813E-09 0.06297456 0.03000147
v 0.02121426 0.06297456 0.02121426
v 0.02121426 0 0.02121426
v 2.622813E-09 0 0.03000147
v 2.622813E-09 0.01767452 0.03000147
v 0.02121426 0.01767452 0.02121426
v 0.03000147 0.01767452 -3.577642E-10
v 0.02121426 0.01767452 0.02121426
v 0.02121426 0.06297456 0.02121426
v 0.03000147 0.06297456 -3.577642E-10
v 0.03000147 0 -3.577642E-10
v 0.02121426 0 0.02121426
v 0.02121426 0.01767452 0.02121426
v 0.03000147 0.01767452 -3.577642E-10
v 0.02121426 0.01767452 -0.02121426
v 0.03000147 0.01767452 -3.577642E-10
v 0.03000147 0.06297456 -3.577642E-10
v 0.02121426 0.06297456 -0.02121426
v 0.02121426 0 -0.02121426
v 0.03000147 0 -3.577642E-10
v 0.03000147 0.01767452 -3.577642E-10
v 0.02121426 0.01767452 -0.02121426
v 0 0.01767452 -0.03000147
v 0.02121426 0.01767452 -0.02121426
v 0.02121426 0.06297456 -0.02121426
v 0 0.06297456 -0.03000147
v 0 0 -0.03000147
v 0.02121426 0 -0.02121426
v 0.02121426 0.01767452 -0.02121426
v 0 0.01767452 -0.03000147
v 0 0.06297456 -0.03000147
v 0 0.075 -0.03000147
v -0.02121426 0.075 -0.02121426
v -0.02121426 0.06297456 -0.02121426
v 0 0.08936978 -0.03308768
v 0 0.09088021 -0.02459636
v -0.01739226 0.09088021 -0.01739226
v -0.02339653 0.08936978 -0.02339653
v -0.03308768 0.08936978 1.342429E-09
v -0.02339653 0.08936978 -0.02339653
v -0.01739226 0.09088021 -0.01739226
v -0.02459636 0.09088021 1.075141E-09
v -0.03000147 0.06297456 1.311406E-09
v -0.02121426 0.06297456 -0.02121426
v -0.02121426 0.075 -0.02121426
v -0.03000147 0.075 1.311406E-09
v -0.02339653 0.08936978 0.02339653
v -0.03308768 0.08936978 1.342429E-09
v -0.02459636 0.09088021 1.075141E-09
v -0.01739226 0.09088021 0.01739226
v -0.02121426 0.06297456 0.02121426
v -0.03000147 0.06297456 1.311406E-09
v -0.03000147 0.075 1.311406E-09
v -0.02121426 0.075 0.02121426
v 2.592808E-09 0.08936978 0.03308768
v -0.02339653 0.08936978 0.02339653
v -0.01739226 0.09088021 0.01739226
v 2.150282E-09 0.09088021 0.02459636
v 2.622813E-09 0.06297456 0.03000147
v -0.02121426 0.06297456 0.02121426
v -0.02121426 0.075 0.02121426
v 2.622813E-09 0.075 0.03000147
v 0.02339653 0.08936978 0.02339653
v 2.592808E-09 0.08936978 0.03308768
v 2.150282E-09 0.09088021 0.02459636
v 0.01739226 0.09088021 0.01739226
v 0.02121426 0.06297456 0.02121426
v 2.622813E-09 0.06297456 0.03000147
v 2.622813E-09 0.075 0.03000147
v 0.02121426 0.075 0.02121426
v 0.03308768 0.08936978 -3.411155E-10
v 0.02339653 0.08936978 0.02339653
v 0.01739226 0.09088021 0.01739226
v 0.02459636 0.09088021 -2.933088E-10
v 0.03000147 0.06297456 -3.577642E-10
v 0.02121426 0.06297456 0.02121426
v 0.02121426 0.075 0.02121426
v 0.03000147 0.075 -3.577642E-10
v 0.02339653 0.08936978 -0.02339653
v 0.03308768 0.08936978 -3.411155E-10
v 0.02459636 0.09088021 -2.933088E-10
v 0.01739226 0.09088021 -0.01739226
v 0.02121426 0.06297456 -0.02121426
v 0.03000147 0.06297456 -3.577642E-10
v 0.03000147 0.075 -3.577642E-10
v 0.02121426 0.075 -0.02121426
v 0 0.08936978 -0.03308768
v 0.02339653 0.08936978 -0.02339653
v 0.01739226 0.09088021 -0.01739226
v 0 0.09088021 -0.02459636
v 0 0.06297456 -0.03000147
v 0.02121426 0.06297456 -0.02121426
v 0.02121426 0.075 -0.02121426
v 0 0.075 -0.03000147
v 0 0.01767452 -0.03000147
v 0 0.06297456 -0.03000147
v -0.02121426 0.06297456 -0.02121426
v -0.02121426 0.01767452 -0.02121426
v 0 0.075 -0.03000147
v 0.02121426 0.075 -0.02121426
v 0.02339653 0.07563021 -0.02339653
v 0 0.07563021 -0.03308768
v 0 0.07563021 -0.03308768
v 0.02339653 0.07563021 -0.02339653
v 0.02339653 0.08936978 -0.02339653
v 0 0.08936978 -0.03308768
v 0.02121426 0.075 -0.02121426
v 0.03000147 0.075 -3.577642E-10
v 0.03308768 0.07563021 -3.411155E-10
v 0.02339653 0.07563021 -0.02339653
v 0.02339653 0.07563021 -0.02339653
v 0.03308768 0.07563021 -3.411155E-10
v 0.03308768 0.08936978 -3.411155E-10
v 0.02339653 0.08936978 -0.02339653
v 0.03000147 0.075 -3.577642E-10
v 0.02121426 0.075 0.02121426
v 0.02339653 0.07563021 0.02339653
v 0.03308768 0.07563021 -3.411155E-10
v 0.03308768 0.07563021 -3.411155E-10
v 0.02339653 0.07563021 0.02339653
v 0.02339653 0.08936978 0.02339653
v 0.03308768 0.08936978 -3.411155E-10
v 0.02121426 0.075 0.02121426
v 2.622813E-09 0.075 0.03000147
v 2.546783E-09 0.07563021 0.03308768
v 0.02339653 0.07563021 0.02339653
v 0.02339653 0.07563021 0.02339653
v 2.546783E-09 0.07563021 0.03308768
v 2.592808E-09 0.08936978 0.03308768
v 0.02339653 0.08936978 0.02339653
v 2.622813E-09 0.075 0.03000147
v -0.02121426 0.075 0.02121426
v -0.02339653 0.07563021 0.02339653
v 2.546783E-09 0.07563021 0.03308768
v 2.546783E-09 0.07563021 0.03308768
v -0.02339653 0.07563021 0.02339653
v -0.02339653 0.08936978 0.02339653
v 2.592808E-09 0.08936978 0.03308768
v -0.02121426 0.075 0.02121426
v -0.03000147 0.075 1.311406E-09
v -0.03308768 0.07563021 1.296404E-09
v -0.02339653 0.07563021 0.02339653
v -0.02339653 0.07563021 0.02339653
v -0.03308768 0.07563021 1.296404E-09
v -0.03308768 0.08936978 1.342429E-09
v -0.02339653 0.08936978 0.02339653
v -0.03000147 0.075 1.311406E-09
v -0.02121426 0.075 -0.02121426
v -0.02339653 0.07563021 -0.02339653
v -0.03308768 0.07563021 1.296404E-09
v -0.03308768 0.07563021 1.296404E-09
v -0.02339653 0.07563021 -0.02339653
v -0.02339653 0.08936978 -0.02339653
v -0.03308768 0.08936978 1.342429E-09
v 0 0.075 -0.03000147
v 0 0.07563021 -0.03308768
v -0.02339653 0.07563021 -0.02339653
v -0.02121426 0.075 -0.02121426
v 0 0.07563021 -0.03308768
v 0 0.08936978 -0.03308768
v -0.02339653 0.08936978 -0.02339653
v -0.02339653 0.07563021 -0.02339653
v -0.02459636 0.09088021 1.075141E-09
v 2.150282E-09 0.09088021 0.02459636
v -0.01739226 0.09088021 0.01739226
v 1.075141E-09 0.09088021 0
v -0.01739226 0.09088021 -0.01739226
v 0.01739226 0.09088021 0.01739226
v 0 0.09088021 -0.02459636
v 0.02459636 0.09088021 -2.933088E-10
v 0.01739226 0.09088021 -0.01739226
v -0.03000147 0 1.311406E-09
v -0.02121426 0 0.02121426
v 2.622813E-09 0 0.03000147
v 1.311406E-09 0 0
v -0.02121426 0 -0.02121426
v 0.02121426 0 0.02121426
v 0 0 -0.03000147
v 0.03000147 0 -3.577642E-10
v 0.02121426 0 -0.02121426

vn -0.3826827 0 -0.9238798
vn -0.3826827 0 -0.9238798
vn -0.3826827 0 -0.9238798
vn -0.3826827 0 -0.9238798
vn -0.9238799 0 -0.3826826
vn -0.9238799 0 -0.3826826
vn -0.9238799 0 -0.3826826
vn -0.9238799 0 -0.3826826
vn -0.9238798 0 -0.3826827
vn -0.9238798 0 -0.3826827
vn -0.9238798 0 -0.3826827
vn -0.9238798 0 -0.3826827
vn -0.9238798 0 0.3826827
vn -0.9238798 0 0.3826827
vn -0.9238798 0 0.3826827
vn -0.9238798 0 0.3826827
vn -0.9238798 0 0.3826827
vn -0.9238798 0 0.3826827
vn -0.9238798 0 0.3826827
vn -0.9238798 0 0.3826827
vn -0.3826827 0 0.9238798
vn -0.3826827 0 0.9238798
vn -0.3826827 0 0.9238798
vn -0.3826827 0 0.9238798
vn -0.3826826 0 0.9238798
vn -0.3826826 0 0.9238798
vn -0.3826826 0 0.9238798
vn -0.3826826 0 0.9238798
vn 0.3826827 0 0.9238798
vn 0.3826827 0 0.9238798
vn 0.3826827 0 0.9238798
vn 0.3826827 0 0.9238798
vn 0.3826827 0 0.9238798
vn 0.3826827 0 0.9238798
vn 0.3826827 0 0.9238798
vn 0.3826827 0 0.9238798
vn 0.9238798 0 0.3826827
vn 0.9238798 0 0.3826827
vn 0.9238798 0 0.3826827
vn 0.9238798 0 0.3826827
vn 0.9238799 0 0.3826826
vn 0.9238799 0 0.3826826
vn 0.9238799 0 0.3826826
vn 0.9238799 0 0.3826826
vn 0.9238798 0 -0.3826827
vn 0.9238798 0 -0.3826827
vn 0.9238798 0 -0.3826827
vn 0.9238798 0 -0.3826827
vn 0.9238798 0 -0.3826827
vn 0.9238798 0 -0.3826827
vn 0.9238798 0 -0.3826827
vn 0.9238798 0 -0.3826827
vn 0.3826827 0 -0.9238798
vn 0.3826827 0 -0.9238798
vn 0.3826827 0 -0.9238798
vn 0.3826827 0 -0.9238798
vn 0.3826827 0 -0.9238798
vn 0.3826827 0 -0.9238798
vn 0.3826827 0 -0.9238798
vn 0.3826827 0 -0.9238798
vn -0.3826826 0 -0.9238799
vn -0.3826826 0 -0.9238799
vn -0.3826826 0 -0.9238799
vn -0.3826826 0 -0.9238799
vn -0.07235133 0.9819649 -0.1746717
vn -0.07235133 0.9819649 -0.1746717
vn -0.07235133 0.9819649 -0.1746717
vn -0.07235133 0.9819649 -0.1746717
vn -0.1746722 0.9819648 -0.07235124
vn -0.1746722 0.9819648 -0.07235124
vn -0.1746722 0.9819648 -0.07235124
vn -0.1746722 0.9819648 -0.07235124
vn -0.9238798 0 -0.3826827
vn -0.9238798 0 -0.3826827
vn -0.9238798 0 -0.3826827
vn -0.9238798 0 -0.3826827
vn -0.1746712 0.981965 0.07235128
vn -0.1746712 0.981965 0.07235128
vn -0.1746712 0.981965 0.07235128
vn -0.1746712 0.981965 0.07235128
vn -0.9238798 0 0.3826827
vn -0.9238798 0 0.3826827
vn -0.9238798 0 0.3826827
vn -0.9238798 0 0.3826827
vn -0.07235132 0.9819649 0.1746717
vn -0.07235132 0.9819649 0.1746717
vn -0.07235132 0.9819649 0.1746717
vn -0.07235132 0.9819649 0.1746717
vn -0.3826825 0 0.9238799
vn -0.3826825 0 0.9238799
vn -0.3826825 0 0.9238799
vn -0.3826825 0 0.9238799
vn 0.07235134 0.9819649 0.1746717
vn 0.07235134 0.9819649 0.1746717
vn 0.07235134 0.9819649 0.1746717
vn 0.07235134 0.9819649 0.1746717
vn 0.3826826 0 0.9238798
vn 0.3826826 0 0.9238798
vn 0.3826826 0 0.9238798
vn 0.3826826 0 0.9238798
vn 0.174671 0.981965 0.07235128
vn 0.174671 0.981965 0.07235128
vn 0.174671 0.981965 0.07235128
vn 0.174671 0.981965 0.07235128
vn 0.9238798 0 0.3826827
vn 0.9238798 0 0.3826827
vn 0.9238798 0 0.3826827
vn 0.9238798 0 0.3826827
vn 0.1746706 0.9819651 -0.07235128
vn 0.1746706 0.9819651 -0.07235128
vn 0.1746706 0.9819651 -0.07235128
vn 0.1746706 0.9819651 -0.07235128
vn 0.9238798 0 -0.3826827
vn 0.9238798 0 -0.3826827
vn 0.9238798 0 -0.3826827
vn 0.9238798 0 -0.3826827
vn 0.07235132 0.9819649 -0.1746717
vn 0.07235132 0.9819649 -0.1746717
vn 0.07235132 0.9819649 -0.1746717
vn 0.07235132 0.9819649 -0.1746717
vn 0.3826826 0 -0.9238799
vn 0.3826826 0 -0.9238799
vn 0.3826826 0 -0.9238799
vn 0.3826826 0 -0.9238799
vn -0.3826827 0 -0.9238798
vn -0.3826827 0 -0.9238798
vn -0.3826827 0 -0.9238798
vn -0.3826827 0 -0.9238798
vn 0.08259106 -0.9764331 -0.1993917
vn 0.08259106 -0.9764331 -0.1993917
vn 0.08259106 -0.9764331 -0.1993917
vn 0.08259106 -0.9764331 -0.1993917
vn 0.3826827 0 -0.9238798
vn 0.3826827 0 -0.9238798
vn 0.3826827 0 -0.9238798
vn 0.3826827 0 -0.9238798
vn 0.1993911 -0.9764333 -0.08259059
vn 0.1993911 -0.9764333 -0.08259059
vn 0.1993911 -0.9764333 -0.08259059
vn 0.1993911 -0.9764333 -0.08259059
vn 0.9238798 0 -0.3826827
vn 0.9238798 0 -0.3826827
vn 0.9238798 0 -0.3826827
vn 0.9238798 0 -0.3826827
vn 0.1993917 -0.9764332 0.08259057
vn 0.1993917 -0.9764332 0.08259057
vn 0.1993917 -0.9764332 0.08259057
vn 0.1993917 -0.9764332 0.08259057
vn 0.9238798 0 0.3826827
vn 0.9238798 0 0.3826827
vn 0.9238798 0 0.3826827
vn 0.9238798 0 0.3826827
vn 0.08259102 -0.9764331 0.1993916
vn 0.08259102 -0.9764331 0.1993916
vn 0.08259102 -0.9764331 0.1993916
vn 0.08259102 -0.9764331 0.1993916
vn 0.3826827 0 0.9238798
vn 0.3826827 0 0.9238798
vn 0.3826827 0 0.9238798
vn 0.3826827 0 0.9238798
vn -0.08259106 -0.9764331 0.1993917
vn -0.08259106 -0.9764331 0.1993917
vn -0.08259106 -0.9764331 0.1993917
vn -0.08259106 -0.9764331 0.1993917
vn -0.3826827 0 0.9238798
vn -0.3826827 0 0.9238798
vn -0.3826827 0 0.9238798
vn -0.3826827 0 0.9238798
vn -0.1993911 -0.9764333 0.0825906
vn -0.1993911 -0.9764333 0.0825906
vn -0.1993911 -0.9764333 0.0825906
vn -0.1993911 -0.9764333 0.0825906
vn -0.9238798 0 0.3826829
vn -0.9238798 0 0.3826829
vn -0.9238798 0 0.3826829
vn -0.9238798 0 0.3826829
vn -0.1993917 -0.9764332 -0.08259057
vn -0.1993917 -0.9764332 -0.08259057
vn -0.1993917 -0.9764332 -0.08259057
vn -0.1993917 -0.9764332 -0.08259057
vn -0.9238798 0 -0.3826829
vn -0.9238798 0 -0.3826829
vn -0.9238798 0 -0.3826829
vn -0.9238798 0 -0.3826829
vn -0.08259082 -0.9764332 -0.1993917
vn -0.08259082 -0.9764332 -0.1993917
vn -0.08259082 -0.9764332 -0.1993917
vn -0.08259082 -0.9764332 -0.1993917
vn -0.3826827 0 -0.9238798
vn -0.3826827 0 -0.9238798
vn -0.3826827 0 -0.9238798
vn -0.3826827 0 -0.9238798
vn 0 1 0
vn 2.721342E-07 1 0
vn 0 1 0
vn 2.721342E-07 1 0
vn 0 1 0
vn 2.721342E-07 1 0
vn 2.721342E-07 1 0
vn 2.721342E-07 1 0
vn 2.721342E-07 1 0
vn 0 -1 0
vn 0 -1 0
vn 0 -1 0
vn 0 -1 0
vn 0 -1 0
vn 0 -1 0
vn 0 -1 0
vn 0 -1 0
vn 0 -1 0

vt 0.4096091 0.5273976
vt 0.4096091 0.5332121
vt 0.417163 0.5332121
vt 0.417163 0.5273976
vt 0.1614132 0.04374518
vt 0.1538593 0.04374518
vt 0.1538592 0.05864776
vt 0.1614132 0.05864776
vt 0.424717 0.5273976
vt 0.417163 0.5273976
vt 0.417163 0.5332121
vt 0.424717 0.5332121
vt 0.1689672 0.04374518
vt 0.1614132 0.04374518
vt 0.1614132 0.05864776
vt 0.1689672 0.05864776
vt 0.432271 0.5273976
vt 0.424717 0.5273976
vt 0.424717 0.5332121
vt 0.432271 0.5332121
vt 0.1765212 0.04374518
vt 0.1689672 0.04374518
vt 0.1689672 0.05864776
vt 0.1765212 0.05864778
vt 0.439825 0.5273976
vt 0.432271 0.5273976
vt 0.432271 0.5332121
vt 0.439825 0.5332121
vt 0.1840751 0.04374518
vt 0.1765212 0.04374518
vt 0.1765212 0.05864778
vt 0.1840751 0.05864778
vt 0.4473789 0.5273976
vt 0.439825 0.5273976
vt 0.439825 0.5332121
vt 0.4473789 0.5332121
vt 0.1916291 0.04374518
vt 0.1840751 0.04374518
vt 0.1840751 0.05864778
vt 0.1916291 0.05864778
vt 0.4549329 0.5273976
vt 0.4473789 0.5273976
vt 0.4473789 0.5332121
vt 0.4549329 0.5332121
vt 0.1991831 0.04374518
vt 0.1916291 0.04374518
vt 0.1916291 0.05864778
vt 0.1991831 0.05864778
vt 0.4624869 0.5273976
vt 0.4549329 0.5273976
vt 0.4549329 0.5332121
vt 0.4624869 0.5332121
vt 0.2067371 0.04374518
vt 0.1991831 0.04374518
vt 0.1991831 0.05864778
vt 0.2067371 0.05864778
vt 0.4700409 0.5273976
vt 0.4624869 0.5273976
vt 0.4624869 0.5332121
vt 0.4700409 0.5332121
vt 0.4096091 0.5779322
vt 0.4096091 0.5818883
vt 0.417163 0.5818883
vt 0.417163 0.5779322
vt 0.1579813 0.08190729
vt 0.158864 0.07957566
vt 0.1553801 0.07619652
vt 0.1533939 0.07709107
vt 0.1529565 0.07054958
vt 0.1533939 0.07709107
vt 0.1553801 0.07619652
vt 0.1551532 0.07138314
vt 0.424717 0.5779322
vt 0.417163 0.5779322
vt 0.417163 0.5818883
vt 0.424717 0.5818883
vt 0.1575302 0.06563669
vt 0.1529565 0.07054958
vt 0.1551532 0.07138314
vt 0.1584752 0.06779789
vt 0.432271 0.5779322
vt 0.424717 0.5779322
vt 0.424717 0.5818883
vt 0.432271 0.5818883
vt 0.1642128 0.06546756
vt 0.1575302 0.06563669
vt 0.1584752 0.06779789
vt 0.1633494 0.06764769
vt 0.439825 0.5779322
vt 0.432271 0.5779322
vt 0.432271 0.5818883
vt 0.439825 0.5818883
vt 0.1690172 0.07005376
vt 0.1642128 0.06546756
vt 0.1633494 0.06764769
vt 0.1668798 0.07098009
vt 0.4473789 0.5779322
vt 0.439825 0.5779322
vt 0.439825 0.5818883
vt 0.4473789 0.5818883
vt 0.1691898 0.07665409
vt 0.1690172 0.07005376
vt 0.1668798 0.07098009
vt 0.1670304 0.07581273
vt 0.4549329 0.5779322
vt 0.4473789 0.5779322
vt 0.4473789 0.5818883
vt 0.4549329 0.5818883
vt 0.1647052 0.08147689
vt 0.1691898 0.07665409
vt 0.1670304 0.07581273
vt 0.1637478 0.07935326
vt 0.4624869 0.5779322
vt 0.4549329 0.5779322
vt 0.4549329 0.5818883
vt 0.4624869 0.5818883
vt 0.1579813 0.08190729
vt 0.1647052 0.08147689
vt 0.1637478 0.07935326
vt 0.158864 0.07957566
vt 0.4700408 0.5779322
vt 0.4624869 0.5779322
vt 0.4624869 0.5818883
vt 0.4700408 0.5818883
vt 0.1463053 0.04374518
vt 0.1463053 0.05864776
vt 0.1538592 0.05864776
vt 0.1538593 0.04374518
vt 0.1557331 0.08800749
vt 0.1670434 0.0878301
vt 0.1664436 0.0863999
vt 0.1562148 0.08667974
vt 0.1562148 0.08667974
vt 0.1664436 0.0863999
vt 0.1647052 0.08147689
vt 0.1579813 0.08190729
vt 0.1670434 0.0878301
vt 0.1753994 0.07964094
vt 0.1739396 0.07900584
vt 0.1664436 0.0863999
vt 0.1664436 0.0863999
vt 0.1739396 0.07900584
vt 0.1691898 0.07665409
vt 0.1647052 0.08147689
vt 0.1753994 0.07964094
vt 0.1756139 0.06777838
vt 0.1741095 0.06836046
vt 0.1739396 0.07900584
vt 0.1739396 0.07900584
vt 0.1741095 0.06836046
vt 0.1690172 0.07005376
vt 0.1691898 0.07665409
vt 0.1756139 0.06777838
vt 0.1673069 0.05912383
vt 0.1666455 0.06061596
vt 0.1741095 0.06836046
vt 0.1741095 0.06836046
vt 0.1666455 0.06061596
vt 0.1642128 0.06546756
vt 0.1690172 0.07005376
vt 0.1673069 0.05912383
vt 0.1551727 0.0588767
vt 0.1557741 0.06042048
vt 0.1666455 0.06061596
vt 0.1666455 0.06061596
vt 0.1557741 0.06042048
vt 0.1575302 0.06563669
vt 0.1642128 0.06546756
vt 0.1551727 0.0588767
vt 0.1463053 0.06745896
vt 0.1478813 0.06812116
vt 0.1557741 0.06042048
vt 0.1557741 0.06042048
vt 0.1478813 0.06812116
vt 0.1529565 0.07054958
vt 0.1575302 0.06563669
vt 0.1463053 0.06745896
vt 0.1463053 0.0803062
vt 0.1480282 0.07952395
vt 0.1478813 0.06812116
vt 0.1478813 0.06812116
vt 0.1480282 0.07952395
vt 0.1533939 0.07709107
vt 0.1529565 0.07054958
vt 0.1557331 0.08800749
vt 0.1562148 0.08667974
vt 0.1480282 0.07952395
vt 0.1463053 0.0803062
vt 0.1562148 0.08667974
vt 0.1579813 0.08190729
vt 0.1533939 0.07709107
vt 0.1480282 0.07952395
vt 0.1551532 0.07138314
vt 0.1633494 0.06764769
vt 0.1584752 0.06779789
vt 0.1611099 0.07359314
vt 0.1553801 0.07619652
vt 0.1668798 0.07098009
vt 0.158864 0.07957566
vt 0.1670304 0.07581273
vt 0.1637478 0.07935326
vt 0.4753823 0.5145022
vt 0.4700409 0.5091607
vt 0.4624869 0.5091607
vt 0.4662639 0.5182791
vt 0.4753823 0.5220562
vt 0.4571454 0.5145022
vt 0.4700409 0.5273976
vt 0.4571454 0.5220561
vt 0.4624869 0.5273976

usemtl LOW-POLY-COLORS
usemap LOW-POLY-COLORS
f 2/2/2 1/1/1 3/3/3
f 3/3/3 1/1/1 4/4/4
f 6/6/6 5/5/5 7/7/7
f 7/7/7 5/5/5 8/8/8
f 10/10/10 9/9/9 11/11/11
f 11/11/11 9/9/9 12/12/12
f 14/14/14 13/13/13 15/15/15
f 15/15/15 13/13/13 16/16/16
f 18/18/18 17/17/17 19/19/19
f 19/19/19 17/17/17 20/20/20
f 22/22/22 21/21/21 23/23/23
f 23/23/23 21/21/21 24/24/24
f 26/26/26 25/25/25 27/27/27
f 27/27/27 25/25/25 28/28/28
f 30/30/30 29/29/29 31/31/31
f 31/31/31 29/29/29 32/32/32
f 34/34/34 33/33/33 35/35/35
f 35/35/35 33/33/33 36/36/36
f 38/38/38 37/37/37 39/39/39
f 39/39/39 37/37/37 40/40/40
f 42/42/42 41/41/41 43/43/43
f 43/43/43 41/41/41 44/44/44
f 46/46/46 45/45/45 47/47/47
f 47/47/47 45/45/45 48/48/48
f 50/50/50 49/49/49 51/51/51
f 51/51/51 49/49/49 52/52/52
f 54/54/54 53/53/53 55/55/55
f 55/55/55 53/53/53 56/56/56
f 58/58/58 57/57/57 59/59/59
f 59/59/59 57/57/57 60/60/60
f 62/62/62 61/61/61 63/63/63
f 63/63/63 61/61/61 64/64/64
f 66/66/66 65/65/65 67/67/67
f 67/67/67 65/65/65 68/68/68
f 70/70/70 69/69/69 71/71/71
f 71/71/71 69/69/69 72/72/72
f 74/74/74 73/73/73 75/75/75
f 75/75/75 73/73/73 76/76/76
f 78/78/78 77/77/77 79/79/79
f 79/79/79 77/77/77 80/80/80
f 82/82/82 81/81/81 83/83/83
f 83/83/83 81/81/81 84/84/84
f 86/86/86 85/85/85 87/87/87
f 87/87/87 85/85/85 88/88/88
f 90/90/90 89/89/89 91/91/91
f 91/91/91 89/89/89 92/92/92
f 94/94/94 93/93/93 95/95/95
f 95/95/95 93/93/93 96/96/96
f 98/98/98 97/97/97 99/99/99
f 99/99/99 97/97/97 100/100/100
f 102/102/102 101/101/101 103/103/103
f 103/103/103 101/101/101 104/104/104
f 106/106/106 105/105/105 107/107/107
f 107/107/107 105/105/105 108/108/108
f 110/110/110 109/109/109 111/111/111
f 111/111/111 109/109/109 112/112/112
f 114/114/114 113/113/113 115/115/115
f 115/115/115 113/113/113 116/116/116
f 118/118/118 117/117/117 119/119/119
f 119/119/119 117/117/117 120/120/120
f 122/122/122 121/121/121 123/123/123
f 123/123/123 121/121/121 124/124/124
f 126/126/126 125/125/125 127/127/127
f 127/127/127 125/125/125 128/128/128
f 130/130/130 129/129/129 131/131/131
f 131/131/131 129/129/129 132/132/132
f 134/134/134 133/133/133 135/135/135
f 135/135/135 133/133/133 136/136/136
f 138/138/138 137/137/137 139/139/139
f 139/139/139 137/137/137 140/140/140
f 142/142/142 141/141/141 143/143/143
f 143/143/143 141/141/141 144/144/144
f 146/146/146 145/145/145 147/147/147
f 147/147/147 145/145/145 148/148/148
f 150/150/150 149/149/149 151/151/151
f 151/151/151 149/149/149 152/152/152
f 154/154/154 153/153/153 155/155/155
f 155/155/155 153/153/153 156/156/156
f 158/158/158 157/157/157 159/159/159
f 159/159/159 157/157/157 160/160/160
f 162/162/162 161/161/161 163/163/163
f 163/163/163 161/161/161 164/164/164
f 166/166/166 165/165/165 167/167/167
f 167/167/167 165/165/165 168/168/168
f 170/170/170 169/169/169 171/171/171
f 171/171/171 169/169/169 172/172/172
f 174/174/174 173/173/173 175/175/175
f 175/175/175 173/173/173 176/176/176
f 178/178/178 177/177/177 179/179/179
f 179/179/179 177/177/177 180/180/180
f 182/182/182 181/181/181 183/183/183
f 183/183/183 181/181/181 184/184/184
f 186/186/186 185/185/185 187/187/187
f 187/187/187 185/185/185 188/188/188
f 190/190/190 189/189/189 191/191/191
f 191/191/191 189/189/189 192/192/192
f 194/194/194 193/193/193 195/195/195
f 196/196/196 193/193/193 194/194/194
f 196/196/196 197/197/197 193/193/193
f 198/198/198 196/196/196 194/194/194
f 199/199/199 197/197/197 196/196/196
f 200/200/200 196/196/196 198/198/198
f 200/200/200 199/199/199 196/196/196
f 201/201/201 199/199/199 200/200/200
f 203/203/203 202/202/202 204/204/204
f 204/204/204 202/202/202 205/205/205
f 202/202/202 206/206/206 205/205/205
f 204/204/204 205/205/205 207/207/207
f 205/205/205 206/206/206 208/208/208
f 207/207/207 205/205/205 209/209/209
f 205/205/205 208/208/208 209/209/209
f 209/209/209 208/208/208 210/210/210
