mtllib ./duct-tape_16.mtl
g duct-tape
v -0.01219444 0.03694512 -0.04559898
v -0.03863388 0.01039003 -0.04560041
v -0.02585671 -0.0004099692 -0.04560041
v -0.03087743 0.05262199 -0.04559898
v -0.06547152 0.0328308 -0.04560041
v -0.01219444 0.03694512 -0.04559898
v -0.03511251 0.07664036 -0.04559898
v -0.06547152 0.0328308 -0.04560041
v -0.07445146 0.08375859 -0.04560041
v -0.01206699 0.03730653 0.002399453
v -0.02585671 -0.0004099624 0.002400406
v -0.03863388 0.01039004 0.002400407
v 0.01206701 0.03730653 0.002399453
v 0.02585674 -0.0004099624 0.002400406
v -0.01206699 0.03730653 0.002399453
v -0.03863388 0.01039004 0.002400407
v -0.03863388 0.01039003 -0.04560041
v -0.06547152 0.0328308 -0.04560041
v -0.06547152 0.0328308 0.002400408
v -0.04859475 0.1285438 0.002400412
v -0.04859475 0.1285438 -0.0456004
v -2.235174E-09 0.1462308 -0.0456004
v -2.235174E-09 0.1462308 0.002400413
v 0.04859476 0.1285437 0.002400412
v 0.04859476 0.1285437 -0.0456004
v 0.07445146 0.08375859 -0.04560041
v 0.07445146 0.08375861 0.00240041
v 0.02585674 -0.0004099624 0.002400406
v 0.02585674 -0.0004099513 -0.04560041
v -0.02585671 -0.0004099692 -0.04560041
v -0.02585671 -0.0004099624 0.002400406
v -0.07445146 0.08375859 0.00240041
v -0.07445146 0.08375859 -0.04560041
v -0.04859475 0.1285438 -0.0456004
v -0.04859475 0.1285438 0.002400412
v -2.235174E-09 0.1462308 0.002400413
v -2.235174E-09 0.1462308 -0.0456004
v 0.04859476 0.1285437 -0.0456004
v 0.04859476 0.1285437 0.002400412
v 0.06547153 0.03283081 0.002400408
v 0.06547153 0.03283081 -0.04560041
v 0.02585674 -0.0004099513 -0.04560041
v 0.02585674 -0.0004099624 0.002400406
v -0.06547152 0.0328308 0.002400408
v -0.06547152 0.0328308 -0.04560041
v -0.07445146 0.08375859 -0.04560041
v -0.07445146 0.08375859 0.00240041
v 0.07445146 0.08375861 0.00240041
v 0.07445146 0.08375859 -0.04560041
v 0.06547153 0.03283081 -0.04560041
v 0.06547153 0.03283081 0.002400408
v -0.02267853 0.09748754 0.002399455
v -0.02291807 0.09776177 -0.04559898
v -0.03511251 0.07664036 -0.04559898
v -0.03474552 0.07658689 0.002399454
v -0.02267853 0.09748754 0.002399455
v -0.04859475 0.1285438 0.002400412
v -2.235174E-09 0.1462308 0.002400413
v -7.152558E-09 0.1057419 0.002399456
v -7.152558E-09 0.1057419 0.002399456
v 0.04859476 0.1285437 0.002400412
v 0.02267853 0.09748752 0.002399455
v 0.04859476 0.1285437 0.002400412
v 0.07445146 0.08375861 0.00240041
v 0.03474552 0.07658689 0.002399454
v -0.03474552 0.07658689 0.002399454
v -0.07445146 0.08375859 0.00240041
v -0.04859475 0.1285438 0.002400412
v -0.02267853 0.09748754 0.002399455
v -0.0305547 0.05281955 0.002399453
v -0.07445146 0.08375859 0.00240041
v -0.03474552 0.07658689 0.002399454
v -0.06547152 0.0328308 0.002400408
v -0.01206699 0.03730653 0.002399453
v -0.03863388 0.01039004 0.002400407
v -0.0305547 0.05281955 0.002399453
v 0.0305547 0.05281955 0.002399453
v 0.06547153 0.03283081 0.002400408
v 0.02585674 -0.0004099624 0.002400406
v 0.01206701 0.03730653 0.002399453
v 0.03474552 0.07658689 0.002399454
v 0.07445146 0.08375861 0.00240041
v 0.06547153 0.03283081 0.002400408
v 0.0305547 0.05281955 0.002399453
v -0.02291807 0.09776177 -0.04559898
v -0.04859475 0.1285438 -0.0456004
v -0.07445146 0.08375859 -0.04560041
v -0.03511251 0.07664036 -0.04559898
v 0.02267853 0.09748752 0.002399455
v 0.02291807 0.09776175 -0.04559898
v -7.152558E-09 0.1061032 -0.04559898
v -7.152558E-09 0.1057419 0.002399456
v 0.01206701 0.03730653 0.002399453
v 0.01219446 0.03694512 -0.04559898
v 0.03087742 0.05262199 -0.04559898
v 0.0305547 0.05281955 0.002399453
v -0.03474552 0.07658689 0.002399454
v -0.03511251 0.07664036 -0.04559898
v -0.03087743 0.05262199 -0.04559898
v -0.0305547 0.05281955 0.002399453
v 0.0305547 0.05281955 0.002399453
v 0.03087742 0.05262199 -0.04559898
v 0.03511251 0.07664036 -0.04559898
v 0.03474552 0.07658689 0.002399454
v -0.07044297 0.004000408 0.002400407
v -0.1356407 -0.0004099624 0.002400406
v -0.1109164 0.01039004 0.002400407
v -0.07044297 0.01502898 0.002400407
v -7.152558E-09 0.1057419 0.002399456
v -7.152558E-09 0.1061032 -0.04559898
v -0.02291807 0.09776177 -0.04559898
v -0.02267853 0.09748754 0.002399455
v 0.03474552 0.07658689 0.002399454
v 0.03511251 0.07664036 -0.04559898
v 0.02291807 0.09776175 -0.04559898
v 0.02267853 0.09748752 0.002399455
v -0.01206699 0.03730653 0.002399453
v -0.01219444 0.03694512 -0.04559898
v 0.01219446 0.03694512 -0.04559898
v 0.01206701 0.03730653 0.002399453
v -0.01219444 0.03694512 -0.04559898
v -0.02585671 -0.0004099692 -0.04560041
v 0.02585674 -0.0004099513 -0.04560041
v 0.01219446 0.03694512 -0.04559898
v 0.01219446 0.03694512 -0.04559898
v 0.02585674 -0.0004099513 -0.04560041
v 0.06547153 0.03283081 -0.04560041
v 0.03087742 0.05262199 -0.04559898
v 0.03087742 0.05262199 -0.04559898
v 0.07445146 0.08375859 -0.04560041
v 0.03511251 0.07664036 -0.04559898
v 0.03511251 0.07664036 -0.04559898
v 0.07445146 0.08375859 -0.04560041
v 0.04859476 0.1285437 -0.0456004
v 0.02291807 0.09776175 -0.04559898
v 0.02291807 0.09776175 -0.04559898
v -2.235174E-09 0.1462308 -0.0456004
v -7.152558E-09 0.1061032 -0.04559898
v -7.152558E-09 0.1061032 -0.04559898
v -2.235174E-09 0.1462308 -0.0456004
v -0.04859475 0.1285438 -0.0456004
v -0.02291807 0.09776177 -0.04559898
v -0.07044297 0.004000401 -0.04560041
v -0.1356407 -0.0004099692 -0.04560041
v -0.1356407 -0.0004099624 0.002400406
v -0.07044297 0.004000408 0.002400407
v -0.1356407 -0.0004099692 -0.04560041
v -0.1109164 0.01039003 -0.04560041
v -0.1109164 0.01039004 0.002400407
v -0.1356407 -0.0004099624 0.002400406
v -0.07044297 0.01502897 -0.04560041
v -0.03863388 0.01039003 -0.04560041
v -0.03863388 0.01039004 0.002400407
v -0.07044297 0.01502898 0.002400407
v -0.0305547 0.05281955 0.002399453
v -0.03087743 0.05262199 -0.04559898
v -0.01219444 0.03694512 -0.04559898
v -0.01206699 0.03730653 0.002399453
v -0.07044297 0.004000401 -0.04560041
v -0.02585671 -0.0004099692 -0.04560041
v -0.03863388 0.01039003 -0.04560041
v -0.07044297 0.01502897 -0.04560041
v -0.1356407 -0.0004099692 -0.04560041
v -0.07044297 0.004000401 -0.04560041
v -0.07044297 0.01502897 -0.04560041
v -0.1109164 0.01039003 -0.04560041
v -0.1109164 0.01039003 -0.04560041
v -0.07044297 0.01502897 -0.04560041
v -0.07044297 0.01502898 0.002400407
v -0.1109164 0.01039004 0.002400407
v -0.02585671 -0.0004099692 -0.04560041
v -0.07044297 0.004000401 -0.04560041
v -0.07044297 0.004000408 0.002400407
v -0.02585671 -0.0004099624 0.002400406
v -0.02585671 -0.0004099624 0.002400406
v -0.07044297 0.004000408 0.002400407
v -0.07044297 0.01502898 0.002400407
v -0.03863388 0.01039004 0.002400407

vn 2.472538E-05 2.943711E-05 -1
vn 2.472538E-05 2.943711E-05 -1
vn 2.472538E-05 2.943711E-05 -1
vn 3.760284E-05 0 -1
vn 2.457636E-05 2.949637E-05 -1
vn 2.457636E-05 2.949637E-05 -1
vn 3.760284E-05 0 -1
vn 3.760284E-05 0 -1
vn 3.760284E-05 0 -1
vn 1.63548E-05 1.930754E-05 1
vn 0 2.528159E-05 1
vn 1.63548E-05 1.930754E-05 1
vn 0 2.528159E-05 1
vn 0 2.528159E-05 1
vn 0 2.528159E-05 1
vn -0.6414667 -0.767151 0
vn -0.6414667 -0.767151 0
vn -0.6414667 -0.767151 0
vn -0.6414667 -0.767151 0
vn -0.34202 0.9396926 0
vn -0.34202 0.9396926 0
vn -0.34202 0.9396926 0
vn -0.34202 0.9396926 0
vn 0.8660256 0.4999998 0
vn 0.8660256 0.4999998 0
vn 0.8660256 0.4999998 0
vn 0.8660256 0.4999998 0
vn 0 -1 0
vn 0 -1 0
vn 0 -1 0
vn 0 -1 0
vn -0.8660256 0.4999996 0
vn -0.8660256 0.4999996 0
vn -0.8660256 0.4999996 0
vn -0.8660256 0.4999996 0
vn 0.3420203 0.9396926 0
vn 0.3420203 0.9396926 0
vn 0.3420203 0.9396926 0
vn 0.3420203 0.9396926 0
vn 0.6427878 -0.7660443 0
vn 0.6427878 -0.7660443 0
vn 0.6427878 -0.7660443 0
vn 0.6427878 -0.7660443 0
vn -0.9848077 -0.1736481 0
vn -0.9848077 -0.1736481 0
vn -0.9848077 -0.1736481 0
vn -0.9848077 -0.1736481 0
vn 0.9848078 -0.173648 0
vn 0.9848078 -0.173648 0
vn 0.9848078 -0.173648 0
vn 0.9848078 -0.173648 0
vn 0.8660033 -0.4999868 -0.007178307
vn 0.8660033 -0.4999868 -0.007178307
vn 0.8660033 -0.4999868 -0.007178307
vn 0.8660033 -0.4999868 -0.007178307
vn 0 -2.362975E-05 1
vn 0 -2.362975E-05 1
vn 0 -2.362975E-05 1
vn 0 -2.362975E-05 1
vn 0 -2.363478E-05 1
vn 0 -2.363478E-05 1
vn -2.179015E-05 -1.262641E-05 1
vn -2.179015E-05 -1.262641E-05 1
vn -2.179015E-05 -1.262641E-05 1
vn -2.179015E-05 -1.262641E-05 1
vn 2.179015E-05 -1.263145E-05 1
vn 2.179015E-05 -1.263145E-05 1
vn 2.179015E-05 -1.263145E-05 1
vn 2.179015E-05 -1.263145E-05 1
vn 2.485216E-05 0 1
vn 2.485216E-05 0 1
vn 2.485216E-05 0 1
vn 2.485216E-05 0 1
vn 1.625992E-05 1.937629E-05 1
vn 1.625992E-05 1.937629E-05 1
vn 1.625992E-05 1.937629E-05 1
vn -1.6263E-05 1.934514E-05 1
vn -1.6263E-05 1.934514E-05 1
vn -1.6263E-05 1.934514E-05 1
vn -1.6263E-05 1.934514E-05 1
vn -2.485216E-05 0 1
vn -2.485216E-05 0 1
vn -2.485216E-05 0 1
vn -2.485216E-05 0 1
vn 3.290595E-05 -1.902614E-05 -1
vn 3.290595E-05 -1.902614E-05 -1
vn 3.290595E-05 -1.902614E-05 -1
vn 3.290595E-05 -1.902614E-05 -1
vn -0.342012 -0.9396688 -0.00707523
vn -0.342012 -0.9396688 -0.00707523
vn -0.342012 -0.9396688 -0.00707523
vn -0.342012 -0.9396688 -0.00707523
vn -0.6427699 0.7660229 -0.007474624
vn -0.6427699 0.7660229 -0.007474624
vn -0.6427699 0.7660229 -0.007474624
vn -0.6427699 0.7660229 -0.007474624
vn 0.9847813 0.1736434 -0.007335947
vn 0.9847813 0.1736434 -0.007335947
vn 0.9847813 0.1736434 -0.007335947
vn 0.9847813 0.1736434 -0.007335947
vn -0.9847813 0.1736436 -0.007335947
vn -0.9847813 0.1736436 -0.007335947
vn -0.9847813 0.1736436 -0.007335947
vn -0.9847813 0.1736436 -0.007335947
vn 0 0 1
vn 0 0 1
vn 0 0 1
vn 0 0 1
vn 0.3420116 -0.9396691 -0.007075231
vn 0.3420116 -0.9396691 -0.007075231
vn 0.3420116 -0.9396691 -0.007075231
vn 0.3420116 -0.9396691 -0.007075231
vn -0.8660031 -0.4999871 -0.007178312
vn -0.8660031 -0.4999871 -0.007178312
vn -0.8660031 -0.4999871 -0.007178312
vn -0.8660031 -0.4999871 -0.007178312
vn 0 0.9999716 -0.007529465
vn 0 0.9999716 -0.007529465
vn 0 0.9999716 -0.007529465
vn 0 0.9999716 -0.007529465
vn 0 3.832995E-05 -1
vn 0 3.832995E-05 -1
vn 0 3.832995E-05 -1
vn 0 3.832995E-05 -1
vn -2.458217E-05 2.953288E-05 -1
vn -2.458217E-05 2.953288E-05 -1
vn -2.458217E-05 2.953288E-05 -1
vn -2.458217E-05 2.953288E-05 -1
vn -3.760282E-05 0 -1
vn -3.760282E-05 0 -1
vn -3.760282E-05 0 -1
vn -3.290595E-05 -1.894484E-05 -1
vn -3.290595E-05 -1.894484E-05 -1
vn -3.290595E-05 -1.894484E-05 -1
vn -3.290595E-05 -1.894484E-05 -1
vn -1.294143E-05 -3.553756E-05 -1
vn -1.294143E-05 -3.553756E-05 -1
vn -1.294143E-05 -3.553756E-05 -1
vn 1.294142E-05 -3.553757E-05 -1
vn 1.294142E-05 -3.553757E-05 -1
vn 1.294142E-05 -3.553757E-05 -1
vn 1.294142E-05 -3.553757E-05 -1
vn 0.06749188 -0.9977198 0
vn 0.06749188 -0.9977198 0
vn 0.06749188 -0.9977198 0
vn 0.06749188 -0.9977198 0
vn -0.4002946 0.9163864 0
vn -0.4002946 0.9163864 0
vn -0.4002946 0.9163864 0
vn -0.4002946 0.9163864 0
vn 0.1443103 0.9895325 0
vn 0.1443103 0.9895325 0
vn 0.1443103 0.9895325 0
vn 0.1443103 0.9895325 0
vn 0.6427693 0.7660233 -0.007474667
vn 0.6427693 0.7660233 -0.007474667
vn 0.6427693 0.7660233 -0.007474667
vn 0.6427693 0.7660233 -0.007474667
vn 0 0 -1
vn 0 0 -1
vn 0 0 -1
vn 0 0 -1
vn 0 0 -1
vn 0 0 -1
vn 0 0 -1
vn 0 0 -1
vn -0.1138713 0.9934955 0
vn -0.1138713 0.9934955 0
vn -0.1138713 0.9934955 0
vn -0.1138713 0.9934955 0
vn -0.09843726 -0.9951433 0
vn -0.09843726 -0.9951433 0
vn -0.09843726 -0.9951433 0
vn -0.09843726 -0.9951433 0
vn 0 0 1
vn 0 0 1
vn 0 0 1
vn 0 0 1

vt 0.4225865 0.7032713
vt 0.4266628 0.7011546
vt 0.4249934 0.6991504
vt 0.4256417 0.7069124
vt 0.430176 0.7053268
vt 0.4225865 0.7032713
vt 0.4256417 0.7116656
vt 0.430176 0.7053268
vt 0.430176 0.7133895
vt 0.41216 0.6859152
vt 0.407313 0.6859385
vt 0.408214 0.6883864
vt 0.4137687 0.6814954
vt 0.4100706 0.678362
vt 0.41216 0.6859152
vt 0.3846381 0.6648645
vt 0.3845991 0.6717219
vt 0.3901522 0.6717535
vt 0.3901912 0.6648961
vt 0.4066088 0.6649895
vt 0.4065697 0.6718469
vt 0.4147785 0.6718937
vt 0.4148175 0.6650363
vt 0.4230263 0.6650829
vt 0.4229873 0.6719403
vt 0.431196 0.6719871
vt 0.431235 0.6651297
vt 0.4476525 0.6652232
vt 0.4476135 0.6720806
vt 0.4558223 0.6721273
vt 0.4558614 0.6652699
vt 0.3983999 0.6649428
vt 0.3983609 0.6718001
vt 0.4065697 0.6718469
vt 0.4066088 0.6649895
vt 0.4148175 0.6650363
vt 0.4147785 0.6718937
vt 0.4229873 0.6719403
vt 0.4230263 0.6650829
vt 0.4394438 0.6651765
vt 0.4394048 0.6720338
vt 0.4476135 0.6720806
vt 0.4476525 0.6652232
vt 0.3901912 0.6648961
vt 0.3901522 0.6717535
vt 0.3983609 0.6718001
vt 0.3983999 0.6649428
vt 0.431235 0.6651297
vt 0.431196 0.6719871
vt 0.4394048 0.6720338
vt 0.4394438 0.6651765
vt 0.7980452 0.6657012
vt 0.793999 0.6573898
vt 0.7882493 0.6642622
vt 0.7959877 0.6674802
vt 0.422474 0.69187
vt 0.4249934 0.6961462
vt 0.430176 0.6899698
vt 0.4254974 0.6882669
vt 0.4254974 0.6882669
vt 0.430176 0.6819071
vt 0.4254974 0.6835635
vt 0.430176 0.6819071
vt 0.4249934 0.6757307
vt 0.422474 0.6799604
vt 0.417842 0.6926868
vt 0.4170532 0.6975464
vt 0.4249934 0.6961462
vt 0.422474 0.69187
vt 0.4137687 0.6903351
vt 0.4170532 0.6975464
vt 0.417842 0.6926868
vt 0.4100706 0.693515
vt 0.41216 0.6859152
vt 0.408214 0.6883864
vt 0.4137687 0.6903351
vt 0.417842 0.6791437
vt 0.4170532 0.6743307
vt 0.4100706 0.678362
vt 0.4137687 0.6814954
vt 0.422474 0.6799604
vt 0.4249934 0.6757307
vt 0.4170532 0.6743307
vt 0.417842 0.6791437
vt 0.4225865 0.7153066
vt 0.4249934 0.7195659
vt 0.430176 0.7133895
vt 0.4256417 0.7116656
vt 0.8025074 0.6672359
vt 0.8106775 0.6634201
vt 0.8040062 0.6558748
vt 0.8005792 0.6656152
vt 0.7992089 0.6734869
vt 0.7992995 0.679859
vt 0.8059164 0.6781471
vt 0.801653 0.6723923
vt 0.7959877 0.6674802
vt 0.7882493 0.6642622
vt 0.7881675 0.6723858
vt 0.7955455 0.6702141
vt 0.801653 0.6723923
vt 0.8059164 0.6781471
vt 0.8106775 0.6720871
vt 0.8029081 0.6699208
vt 0.4827553 0.6642056
vt 0.4733462 0.6653695
vt 0.4773268 0.6661312
vt 0.4828342 0.6658693
vt 0.8005792 0.6656152
vt 0.8040062 0.6558748
vt 0.793999 0.6573898
vt 0.7980452 0.6657012
vt 0.8029081 0.6699208
vt 0.8106775 0.6720871
vt 0.8106775 0.6634201
vt 0.8025074 0.6672359
vt 0.7967255 0.672569
vt 0.7927467 0.6782592
vt 0.7992995 0.679859
vt 0.7992089 0.6734869
vt 0.4225865 0.7032713
vt 0.4249934 0.6991504
vt 0.4170532 0.6977503
vt 0.4179055 0.7024459
vt 0.4179055 0.7024459
vt 0.4170532 0.6977503
vt 0.4100706 0.7017816
vt 0.4137892 0.7048225
vt 0.4137892 0.7048225
vt 0.407313 0.7093581
vt 0.4121635 0.709289
vt 0.4121635 0.709289
vt 0.407313 0.7093581
vt 0.4100706 0.7169346
vt 0.4137892 0.7137555
vt 0.4137892 0.7137555
vt 0.4170532 0.720966
vt 0.4179055 0.716132
vt 0.4179055 0.716132
vt 0.4170532 0.720966
vt 0.4249934 0.7195659
vt 0.4225865 0.7153066
vt 0.4629343 0.6721678
vt 0.4733071 0.6722268
vt 0.4733462 0.6653695
vt 0.4629734 0.6653104
vt 0.4733071 0.6722268
vt 0.4770714 0.6715991
vt 0.4773268 0.6661312
vt 0.4733462 0.6653695
vt 0.4826277 0.6720041
vt 0.4875809 0.6724702
vt 0.487616 0.6655208
vt 0.4828342 0.6658693
vt 0.7955455 0.6702141
vt 0.7881675 0.6723858
vt 0.7927467 0.6782592
vt 0.7967255 0.672569
vt 0.4825035 0.6737003
vt 0.4897053 0.6741267
vt 0.4875809 0.6724702
vt 0.4826277 0.6720041
vt 0.4733071 0.6722268
vt 0.4825035 0.6737003
vt 0.4826277 0.6720041
vt 0.4770714 0.6715991
vt 0.4770714 0.6715991
vt 0.4826277 0.6720041
vt 0.4828342 0.6658693
vt 0.4773268 0.6661312
vt 0.4558223 0.6721273
vt 0.4629343 0.6721678
vt 0.4629734 0.6653104
vt 0.4558614 0.6652699
vt 0.4897053 0.6639791
vt 0.4827553 0.6642056
vt 0.4828342 0.6658693
vt 0.487616 0.6655208

usemtl LOW-POLY-COLORS
usemap LOW-POLY-COLORS
f 2/2/2 1/1/1 3/3/3
f 5/5/5 4/4/4 2/2/2
f 2/2/2 4/4/4 6/6/6
f 8/8/8 7/7/7 4/4/4
f 9/9/9 7/7/7 8/8/8
f 11/11/11 10/10/10 12/12/12
f 14/14/14 13/13/13 11/11/11
f 11/11/11 13/13/13 15/15/15
f 17/17/17 16/16/16 18/18/18
f 18/18/18 16/16/16 19/19/19
f 21/21/21 20/20/20 22/22/22
f 22/22/22 20/20/20 23/23/23
f 25/25/25 24/24/24 26/26/26
f 26/26/26 24/24/24 27/27/27
f 29/29/29 28/28/28 30/30/30
f 30/30/30 28/28/28 31/31/31
f 33/33/33 32/32/32 34/34/34
f 34/34/34 32/32/32 35/35/35
f 37/37/37 36/36/36 38/38/38
f 38/38/38 36/36/36 39/39/39
f 41/41/41 40/40/40 42/42/42
f 42/42/42 40/40/40 43/43/43
f 45/45/45 44/44/44 46/46/46
f 46/46/46 44/44/44 47/47/47
f 49/49/49 48/48/48 50/50/50
f 50/50/50 48/48/48 51/51/51
f 53/53/53 52/52/52 54/54/54
f 54/54/54 52/52/52 55/55/55
f 57/57/57 56/56/56 58/58/58
f 58/58/58 56/56/56 59/59/59
f 58/58/58 60/60/60 61/61/61
f 61/61/61 60/60/60 62/62/62
f 63/63/63 62/62/62 64/64/64
f 64/64/64 62/62/62 65/65/65
f 67/67/67 66/66/66 68/68/68
f 68/68/68 66/66/66 69/69/69
f 71/71/71 70/70/70 72/72/72
f 73/73/73 70/70/70 71/71/71
f 75/75/75 74/74/74 73/73/73
f 73/73/73 74/74/74 76/76/76
f 78/78/78 77/77/77 79/79/79
f 79/79/79 77/77/77 80/80/80
f 82/82/82 81/81/81 83/83/83
f 83/83/83 81/81/81 84/84/84
f 86/86/86 85/85/85 87/87/87
f 87/87/87 85/85/85 88/88/88
f 90/90/90 89/89/89 91/91/91
f 91/91/91 89/89/89 92/92/92
f 94/94/94 93/93/93 95/95/95
f 95/95/95 93/93/93 96/96/96
f 98/98/98 97/97/97 99/99/99
f 99/99/99 97/97/97 100/100/100
f 102/102/102 101/101/101 103/103/103
f 103/103/103 101/101/101 104/104/104
f 106/106/106 105/105/105 107/107/107
f 107/107/107 105/105/105 108/108/108
f 110/110/110 109/109/109 111/111/111
f 111/111/111 109/109/109 112/112/112
f 114/114/114 113/113/113 115/115/115
f 115/115/115 113/113/113 116/116/116
f 118/118/118 117/117/117 119/119/119
f 119/119/119 117/117/117 120/120/120
f 122/122/122 121/121/121 123/123/123
f 123/123/123 121/121/121 124/124/124
f 126/126/126 125/125/125 127/127/127
f 127/127/127 125/125/125 128/128/128
f 127/127/127 129/129/129 130/130/130
f 130/130/130 129/129/129 131/131/131
f 133/133/133 132/132/132 134/134/134
f 134/134/134 132/132/132 135/135/135
f 134/134/134 136/136/136 137/137/137
f 137/137/137 136/136/136 138/138/138
f 140/140/140 139/139/139 141/141/141
f 141/141/141 139/139/139 142/142/142
f 144/144/144 143/143/143 145/145/145
f 145/145/145 143/143/143 146/146/146
f 148/148/148 147/147/147 149/149/149
f 149/149/149 147/147/147 150/150/150
f 152/152/152 151/151/151 153/153/153
f 153/153/153 151/151/151 154/154/154
f 156/156/156 155/155/155 157/157/157
f 157/157/157 155/155/155 158/158/158
f 160/160/160 159/159/159 161/161/161
f 161/161/161 159/159/159 162/162/162
f 164/164/164 163/163/163 165/165/165
f 165/165/165 163/163/163 166/166/166
f 168/168/168 167/167/167 169/169/169
f 169/169/169 167/167/167 170/170/170
f 172/172/172 171/171/171 173/173/173
f 173/173/173 171/171/171 174/174/174
f 176/176/176 175/175/175 177/177/177
f 177/177/177 175/175/175 178/178/178
