mtllib ./fire_4.mtl
g fire
v -0.1385678 -2.257557E-08 -0.1385678
v -0.07361336 0.4873355 -0.07361344
v -0.3286834 0.7259939 -0.3286835
v 1.956517E-08 1.095132E-15 1.217347E-08
v 1.956516E-08 0.7259939 -5.867479E-08
v 0.1385678 2.257557E-08 0.1385678
v -0.07361336 0.938045 -0.07361349
v -0.2105944 1.02364 -0.2105945
v 1.956516E-08 1.408818 -1.103164E-07
v 0.07361335 0.4873355 0.07361327
v 0.3286835 0.7259939 0.3286834
v 0.07361335 0.938045 0.07361324
v 0.2105944 1.02364 0.2105943
v -0.1549444 2.524364E-08 0.1549444
v -0.3675288 0.5890434 0.3675286
v -0.1242036 0.4873356 0.1242036
v -2.047431E-08 -2.763597E-15 -2.786603E-08
v 1.956516E-08 0.7259939 -5.867479E-08
v 0.1549444 -2.524364E-08 -0.1549444
v -0.08231334 0.938045 0.08231326
v -0.2042501 1.02364 0.20425
v 1.956516E-08 1.408818 -1.103164E-07
v 0.1242037 0.4873355 -0.1242037
v 0.3675288 0.5890433 -0.3675287
v 0.0823133 0.938045 -0.08231338
v 0.2042501 1.02364 -0.2042501
v -0.1385678 -2.257557E-08 -0.1385678
v -0.3286834 0.7259939 -0.3286835
v -0.07361336 0.4873355 -0.07361344
v 1.956517E-08 1.095132E-15 1.217347E-08
v 1.956516E-08 0.7259939 -5.867479E-08
v 0.1385678 2.257557E-08 0.1385678
v -0.07361336 0.938045 -0.07361349
v -0.2105944 1.02364 -0.2105945
v 1.956516E-08 1.408818 -1.103164E-07
v 0.07361335 0.4873355 0.07361327
v 0.3286835 0.7259939 0.3286834
v 0.07361335 0.938045 0.07361324
v 0.2105944 1.02364 0.2105943
v -0.1549444 2.524364E-08 0.1549444
v -0.1242036 0.4873356 0.1242036
v -0.3675288 0.5890434 0.3675286
v -2.047431E-08 -2.763597E-15 -2.786603E-08
v 1.956516E-08 0.7259939 -5.867479E-08
v 0.1549444 -2.524364E-08 -0.1549444
v -0.08231334 0.938045 0.08231326
v -0.2042501 1.02364 0.20425
v 1.956516E-08 1.408818 -1.103164E-07
v 0.1242037 0.4873355 -0.1242037
v 0.3675288 0.5890433 -0.3675287
v 0.0823133 0.938045 -0.08231338
v 0.2042501 1.02364 -0.2042501

vn 0.7071068 0 -0.7071066
vn 0.7071068 0 -0.7071068
vn 0.7071068 0 -0.7071068
vn 0.7071068 0 -0.7071068
vn 0.7071068 0 -0.7071068
vn 0.7071068 0 -0.7071068
vn 0.7071068 0 -0.7071066
vn 0.7071068 0 -0.7071068
vn 0.7071068 0 -0.7071068
vn 0.7071068 0 -0.7071068
vn 0.7071068 0 -0.7071068
vn 0.7071066 0 -0.7071068
vn 0.7071066 0 -0.7071068
vn 0.7071068 0 0.7071068
vn 0.7071066 0 0.7071069
vn 0.7071068 0 0.7071068
vn 0.7071068 0 0.7071068
vn 0.7071068 0 0.7071068
vn 0.7071066 0 0.7071069
vn 0.7071068 0 0.7071068
vn 0.7071068 0 0.7071066
vn 0.7071068 0 0.7071066
vn 0.7071066 0 0.7071069
vn 0.7071066 0 0.7071069
vn 0.7071068 0 0.7071066
vn 0.7071066 0 0.7071068
vn -0.7071068 0 0.7071068
vn -0.7071068 0 0.7071068
vn -0.7071068 0 0.7071068
vn -0.7071068 0 0.7071068
vn -0.7071068 0 0.7071068
vn -0.7071068 0 0.7071068
vn -0.7071068 0 0.7071066
vn -0.7071068 0 0.7071068
vn -0.7071068 0 0.7071068
vn -0.7071068 0 0.7071068
vn -0.7071068 0 0.7071068
vn -0.7071066 0 0.7071068
vn -0.7071066 0 0.7071068
vn -0.7071068 0 -0.7071068
vn -0.7071068 0 -0.7071068
vn -0.7071066 0 -0.7071069
vn -0.7071068 0 -0.7071068
vn -0.7071068 0 -0.7071068
vn -0.7071066 0 -0.7071069
vn -0.7071068 0 -0.7071068
vn -0.7071068 0 -0.7071066
vn -0.7071068 0 -0.7071066
vn -0.7071066 0 -0.7071069
vn -0.7071066 0 -0.7071069
vn -0.7071068 0 -0.7071066
vn -0.7071066 0 -0.7071068

vt 0.5607647 0.05529165
vt 0.5576544 0.0717923
vt 0.5698681 0.07987303
vt 0.5541295 0.05529165
vt 0.5541295 0.07987303
vt 0.5474943 0.05529165
vt 0.5576544 0.08705282
vt 0.5642135 0.08995104
vt 0.5541295 0.1029928
vt 0.5506046 0.07179236
vt 0.5383909 0.07987303
vt 0.5506046 0.08705288
vt 0.5440454 0.08995104
vt 0.5837994 0.007556081
vt 0.5736201 0.02750045
vt 0.5852714 0.02405679
vt 0.5912188 0.007556081
vt 0.5912188 0.03213751
vt 0.5986381 0.007556081
vt 0.5872773 0.03931731
vt 0.5814385 0.04221547
vt 0.5912188 0.0552572
vt 0.5971661 0.02405679
vt 0.6088173 0.02750045
vt 0.5951602 0.03931731
vt 0.600999 0.04221547
vt 0.5827235 0.05528909
vt 0.5736201 0.07987046
vt 0.5858338 0.07178974
vt 0.5893587 0.05528909
vt 0.5893587 0.07987046
vt 0.5959939 0.05528909
vt 0.5858338 0.08705032
vt 0.5792747 0.08994848
vt 0.5893587 0.1029903
vt 0.5928836 0.07178974
vt 0.6050973 0.07987046
vt 0.5928836 0.08705032
vt 0.5994427 0.08994848
vt 0.5634158 0.007561207
vt 0.561938 0.02406132
vt 0.5735883 0.02750909
vt 0.5559964 0.007558644
vt 0.555988 0.03214002
vt 0.5485771 0.007556081
vt 0.559927 0.03932118
vt 0.5657648 0.04222137
vt 0.55598 0.05525976
vt 0.5500433 0.02405727
vt 0.5383909 0.02749693
vt 0.552044 0.0393185
vt 0.5462042 0.04221463

usemtl LOW-POLY-COLORS
usemap LOW-POLY-COLORS
f 2/2/2 1/1/1 3/3/3
f 2/2/2 4/4/4 1/1/1
f 5/5/5 4/4/4 2/2/2
f 5/5/5 6/6/6 4/4/4
f 7/7/7 5/5/5 2/2/2
f 7/7/7 2/2/2 8/8/8
f 9/9/9 5/5/5 7/7/7
f 10/10/10 6/6/6 5/5/5
f 9/9/9 10/10/10 5/5/5
f 11/11/11 6/6/6 10/10/10
f 12/12/12 10/10/10 9/9/9
f 13/13/13 10/10/10 12/12/12
f 15/15/15 14/14/14 16/16/16
f 14/14/14 17/17/17 16/16/16
f 16/16/16 17/17/17 18/18/18
f 17/17/17 19/19/19 18/18/18
f 16/16/16 18/18/18 20/20/20
f 21/21/21 16/16/16 20/20/20
f 20/20/20 18/18/18 22/22/22
f 18/18/18 19/19/19 23/23/23
f 18/18/18 23/23/23 22/22/22
f 23/23/23 19/19/19 24/24/24
f 22/22/22 23/23/23 25/25/25
f 25/25/25 23/23/23 26/26/26
f 28/28/28 27/27/27 29/29/29
f 27/27/27 30/30/30 29/29/29
f 29/29/29 30/30/30 31/31/31
f 30/30/30 32/32/32 31/31/31
f 29/29/29 31/31/31 33/33/33
f 34/34/34 29/29/29 33/33/33
f 33/33/33 31/31/31 35/35/35
f 31/31/31 32/32/32 36/36/36
f 31/31/31 36/36/36 35/35/35
f 36/36/36 32/32/32 37/37/37
f 35/35/35 36/36/36 38/38/38
f 38/38/38 36/36/36 39/39/39
f 41/41/41 40/40/40 42/42/42
f 41/41/41 43/43/43 40/40/40
f 44/44/44 43/43/43 41/41/41
f 44/44/44 45/45/45 43/43/43
f 46/46/46 44/44/44 41/41/41
f 46/46/46 41/41/41 47/47/47
f 48/48/48 44/44/44 46/46/46
f 49/49/49 45/45/45 44/44/44
f 48/48/48 49/49/49 44/44/44
f 50/50/50 45/45/45 49/49/49
f 51/51/51 49/49/49 48/48/48
f 52/52/52 49/49/49 51/51/51
