mtllib ./fuel-canister_20.mtl
g fuel-canister
v -0.1815045 -2.520558E-08 0.1051612
v -0.2334496 0.01769337 0.1051612
v -0.2486928 0.06191889 0.1051612
v -0.1815045 0.06191889 0.1051612
v 0.1815045 -2.520559E-08 0.105161
v -0.2486928 0.5249245 0.1051612
v 0.1815045 0.06191889 0.105161
v 0.2513071 0.06191889 0.105161
v 0.2360639 0.01769337 0.105161
v 0.1815045 0.5249245 0.105161
v 0.2513071 0.6011752 0.105161
v -0.1815045 0.5249245 0.1051612
v 0.09878993 0.6011752 0.1051611
v -0.04411097 0.6011752 0.1051611
v -0.09822226 0.6011752 0.1051612
v 0.1599565 0.653354 0.105161
v 0.2057149 0.6855494 0.105161
v 0.1599565 0.6855494 0.105161
v -0.04411097 0.653354 0.1051611
v -0.06129696 0.6855494 0.1051612
v -0.04411097 0.653354 0.1051611
v -0.04411101 0.6011752 1.789731E-08
v -0.04411097 0.6011752 0.1051611
v -0.04411101 0.653354 1.56165E-08
v -0.04411105 0.6533542 -0.1051611
v -0.04411105 0.6011752 -0.1051611
v 0.1599565 0.653354 0.105161
v -0.04411101 0.653354 1.56165E-08
v -0.04411097 0.653354 0.1051611
v 0.1599565 0.653354 -8.067946E-08
v 0.1599565 0.653354 -0.1051612
v -0.04411105 0.6533542 -0.1051611
v -0.04411097 0.6011752 0.1051611
v 0.09878989 0.6011752 -5.846804E-08
v 0.09878993 0.6011752 0.1051611
v -0.04411101 0.6011752 1.789731E-08
v -0.04411105 0.6011752 -0.1051611
v 0.09878985 0.6011752 -0.1051612
v 0.09878993 0.6011752 0.1051611
v 0.1599565 0.653354 -8.067946E-08
v 0.1599565 0.653354 0.105161
v 0.09878989 0.6011752 -5.846804E-08
v 0.09878985 0.6011752 -0.1051612
v 0.1599565 0.653354 -0.1051612
v 0.251307 0.6011752 -0.1051612
v 0.2513071 0.6011752 0.105161
v 0.2057149 0.6855494 0.105161
v 0.2057149 0.6855494 -0.1051612
v 0.2057149 0.6855494 0.105161
v 0.1599565 0.6855494 -0.1051612
v 0.2057149 0.6855494 -0.1051612
v 0.1599565 0.6855494 0.105161
v -0.06129703 0.6855496 -0.1051611
v -0.06129696 0.6855494 0.1051612
v 0.2513071 0.06191889 0.105161
v 0.2513071 0.6011752 0.105161
v 0.251307 0.6011752 -0.1051612
v 0.251307 0.06191888 -0.1051612
v -0.1815045 -2.520558E-08 0.1051612
v 0.1815045 -2.520559E-08 0.105161
v 0.1815045 -3.439906E-08 -0.1051612
v -0.1815045 -3.439906E-08 -0.1051611
v -0.2334497 0.01769337 -0.105161
v -0.2486929 0.06191888 -0.105161
v -0.2486928 0.06191889 0.1051612
v -0.2334496 0.01769337 0.1051612
v -0.09822226 0.6011752 0.1051612
v -0.2486928 0.5249245 0.1051612
v -0.2486929 0.5249245 -0.105161
v -0.09822233 0.6011752 -0.1051611
v -0.2334496 0.01769337 0.1051612
v -0.1815045 -2.520558E-08 0.1051612
v -0.1815045 -3.439906E-08 -0.1051611
v -0.2334497 0.01769337 -0.105161
v 0.2360639 0.01769337 0.105161
v 0.2513071 0.06191889 0.105161
v 0.251307 0.06191888 -0.1051612
v 0.2360638 0.01769337 -0.1051612
v 0.1815045 -2.520559E-08 0.105161
v 0.2360639 0.01769337 0.105161
v 0.2360638 0.01769337 -0.1051612
v 0.1815045 -3.439906E-08 -0.1051612
v -0.2486929 0.06191888 -0.105161
v -0.2486929 0.5249245 -0.105161
v -0.2486928 0.5249245 0.1051612
v -0.2486928 0.06191889 0.1051612
v -0.1815045 -3.439906E-08 -0.1051611
v -0.2486929 0.06191888 -0.105161
v -0.2334497 0.01769337 -0.105161
v -0.1815045 0.06191888 -0.1051611
v 0.1815045 -3.439906E-08 -0.1051612
v -0.2486929 0.5249245 -0.105161
v 0.1815045 0.06191888 -0.1051612
v -0.1815045 0.5249245 -0.1051611
v 0.251307 0.06191888 -0.1051612
v 0.2360638 0.01769337 -0.1051612
v 0.1815045 0.5249245 -0.1051612
v 0.251307 0.6011752 -0.1051612
v -0.04411105 0.6011752 -0.1051611
v -0.09822233 0.6011752 -0.1051611
v 0.09878985 0.6011752 -0.1051612
v -0.04411105 0.6533542 -0.1051611
v -0.06129703 0.6855496 -0.1051611
v 0.1599565 0.6855494 -0.1051612
v 0.1599565 0.653354 -0.1051612
v 0.2057149 0.6855494 -0.1051612
v -0.06129696 0.6855494 0.1051612
v -0.09822226 0.6011752 0.1051612
v -0.09822233 0.6011752 -0.1051611
v -0.06129703 0.6855496 -0.1051611
v -0.153254 0.631357 0.06340781
v -0.153254 0.631357 0.01462979
v -0.1042659 0.5176228 0.01684694
v -0.1042659 0.5176228 0.06119061
v -0.2336196 0.6052943 0.06340788
v -0.1934368 0.6183257 0.08779684
v -0.1281713 0.5057761 0.08336246
v -0.1872486 0.4939294 0.06119065
v -0.1934368 0.6183257 -0.009759233
v -0.2336196 0.6052943 0.01462982
v -0.1872486 0.4939294 0.01684696
v -0.1281713 0.5057761 -0.00532491
v -0.153254 0.631357 0.01462979
v -0.1934368 0.6183257 -0.009759233
v -0.1281713 0.5057761 -0.00532491
v -0.1042659 0.5176228 0.01684694
v -0.1934368 0.6183257 0.08779684
v -0.153254 0.631357 0.06340781
v -0.1042659 0.5176228 0.06119061
v -0.1281713 0.5057761 0.08336246
v -0.2336196 0.6052943 0.01462982
v -0.2336196 0.6052943 0.06340788
v -0.1872486 0.4939294 0.06119065
v -0.1872486 0.4939294 0.01684696
v -0.2336196 0.6052943 0.01462982
v -0.1934368 0.6183257 -0.009759233
v -0.153254 0.631357 0.01462979
v -0.153254 0.631357 0.06340781
v -0.2336196 0.6052943 0.06340788
v -0.1934368 0.6183257 0.08779684

vn 3.088615E-07 -1.128817E-07 1
vn 3.088615E-07 -1.128817E-07 1
vn 3.088615E-07 -1.128817E-07 1
vn 3.088615E-07 -1.128817E-07 1
vn 2.956054E-07 0 1
vn 3.326728E-07 0 1
vn 2.956054E-07 0 1
vn 2.956054E-07 0 1
vn 2.956054E-07 0 1
vn 4.418129E-07 0 1
vn 3.776431E-07 0 1
vn 3.326728E-07 0 1
vn 4.418129E-07 0 1
vn 4.418129E-07 0 1
vn 1.161456E-06 -1.27874E-07 1
vn 4.729742E-07 -8.161501E-07 1
vn 3.259055E-07 0 1
vn 4.729742E-07 -8.161501E-07 1
vn 1.161456E-06 -1.27874E-07 1
vn 1.161456E-06 -1.27874E-07 1
vn 1 0 -3.818857E-07
vn 1 0 -3.818857E-07
vn 1 0 -3.818857E-07
vn 1 0 -3.818857E-07
vn 1 0 -3.818851E-07
vn 1 0 -3.818851E-07
vn 1.929113E-07 -1 0
vn 1.929113E-07 -1 0
vn 1.929113E-07 -1 0
vn 1.929113E-07 -1 0
vn -3.47185E-07 -1 -5.667933E-07
vn -3.47185E-07 -1 -5.667933E-07
vn 0 1 0
vn 0 1 0
vn 0 1 0
vn 0 1 0
vn -4.957924E-07 1 0
vn -4.957924E-07 1 0
vn -0.648999 0.7607892 1.652289E-07
vn -0.648999 0.7607892 1.652289E-07
vn -0.648999 0.7607892 1.652289E-07
vn -0.648999 0.7607892 1.652289E-07
vn -0.6489989 0.7607893 2.753815E-07
vn -0.6489989 0.7607893 2.753815E-07
vn 0.8797742 0.4753918 -2.770304E-07
vn 0.8797742 0.4753918 -2.770304E-07
vn 0.8797742 0.4753918 -2.770304E-07
vn 0.8797742 0.4753918 -2.770304E-07
vn 0 1 0
vn 0 1 0
vn 0 1 0
vn 0 1 0
vn 6.404345E-07 1 2.833967E-07
vn 6.404345E-07 1 2.833967E-07
vn 1 0 -1.313831E-07
vn 1 0 -1.313831E-07
vn 1 0 -1.313831E-07
vn 1 0 -1.313831E-07
vn 0 -1 0
vn 0 -1 0
vn 0 -1 0
vn 0 -1 0
vn -0.9454188 -0.325858 2.829899E-07
vn -0.9454188 -0.325858 2.829899E-07
vn -0.9454188 -0.325858 2.829899E-07
vn -0.9454188 -0.325858 2.829899E-07
vn -0.4520229 0.8920063 1.575007E-07
vn -0.4520229 0.8920063 1.575007E-07
vn -0.4520229 0.8920063 1.575007E-07
vn -0.4520229 0.8920063 1.575007E-07
vn -0.3224263 -0.9465947 0
vn -0.3224263 -0.9465947 0
vn -0.3224263 -0.9465947 0
vn -0.3224263 -0.9465947 0
vn 0.9454188 -0.325858 -2.8299E-07
vn 0.9454188 -0.325858 -2.8299E-07
vn 0.9454188 -0.325858 -2.8299E-07
vn 0.9454188 -0.325858 -2.8299E-07
vn 0.3084806 -0.9512306 0
vn 0.3084806 -0.9512306 0
vn 0.3084806 -0.9512306 0
vn 0.3084806 -0.9512306 0
vn -1 0 3.060403E-07
vn -1 0 3.060403E-07
vn -1 0 3.060403E-07
vn -1 0 3.060403E-07
vn -5.325257E-07 -1.505088E-07 -1
vn -5.325257E-07 -1.505088E-07 -1
vn -5.325257E-07 -1.505088E-07 -1
vn -5.325257E-07 -1.505088E-07 -1
vn -5.810252E-07 1.440492E-07 -1
vn -3.326728E-07 0 -1
vn -5.810252E-07 1.440492E-07 -1
vn -3.326728E-07 0 -1
vn -5.810252E-07 1.440492E-07 -1
vn -5.810252E-07 1.440492E-07 -1
vn -3.591789E-07 0 -1
vn -3.45161E-07 0 -1
vn -4.123586E-07 -1.448552E-07 -1
vn -8.434584E-07 5.541201E-07 -1
vn -4.123586E-07 -1.448552E-07 -1
vn -8.434584E-07 5.541201E-07 -1
vn -8.434584E-07 5.541201E-07 -1
vn -5.430426E-07 5.441001E-07 -1
vn -5.430426E-07 5.441001E-07 -1
vn -3.259054E-07 0 -1
vn -0.9161112 0.400924 4.327086E-07
vn -0.9161112 0.400924 4.327086E-07
vn -0.9161112 0.400924 4.327086E-07
vn -0.9161112 0.400924 4.327086E-07
vn 0.9184277 0.3955889 -6.460901E-07
vn 0.9184277 0.3955889 -6.460901E-07
vn 0.9184277 0.3955889 -6.460901E-07
vn 0.9184277 0.3955889 -6.460901E-07
vn -0.3710193 -0.2118365 0.9041405
vn -0.3710193 -0.2118365 0.9041405
vn -0.3710193 -0.2118365 0.9041405
vn -0.3710193 -0.2118365 0.9041405
vn -0.3710204 -0.2118363 -0.90414
vn -0.3710204 -0.2118363 -0.90414
vn -0.3710204 -0.2118363 -0.90414
vn -0.3710204 -0.2118363 -0.90414
vn 0.5105781 0.2334726 -0.8275267
vn 0.5105781 0.2334726 -0.8275267
vn 0.5105781 0.2334726 -0.8275267
vn 0.5105781 0.2334726 -0.8275267
vn 0.5105783 0.2334723 0.8275267
vn 0.5105783 0.2334723 0.8275267
vn 0.5105783 0.2334723 0.8275267
vn 0.5105783 0.2334723 0.8275267
vn -0.9231684 -0.3843957 0
vn -0.9231684 -0.3843957 0
vn -0.9231684 -0.3843957 0
vn -0.9231684 -0.3843957 0
vn -0.3084845 0.9512295 1.129954E-07
vn -0.3084845 0.9512295 1.129954E-07
vn -0.3084845 0.9512295 1.129954E-07
vn -0.3084845 0.9512295 1.129954E-07
vn -0.3084845 0.9512295 1.129954E-07
vn -0.3084845 0.9512295 1.129954E-07

vt 0.3194762 0.4235669
vt 0.32026 0.4258682
vt 0.3222193 0.4265435
vt 0.3222193 0.4235669
vt 0.3194761 0.4074847
vt 0.3427317 0.4265435
vt 0.3222193 0.4074847
vt 0.3222193 0.4043922
vt 0.32026 0.4050676
vt 0.3427317 0.4074847
vt 0.3461097 0.4043922
vt 0.3427317 0.4235669
vt 0.3461097 0.4111491
vt 0.3461097 0.41748
vt 0.3461097 0.4198773
vt 0.3484214 0.4084393
vt 0.3498477 0.4064121
vt 0.3498478 0.4084393
vt 0.3484215 0.41748
vt 0.3498478 0.4182414
vt 0.3771111 0.4043923
vt 0.3794228 0.4090512
vt 0.3794228 0.4043923
vt 0.3771112 0.4090512
vt 0.3771112 0.4137101
vt 0.3794228 0.4137101
vt 0.3680704 0.4043923
vt 0.3771112 0.4090512
vt 0.3771111 0.4043923
vt 0.3680704 0.4090512
vt 0.3680704 0.4137101
vt 0.3771112 0.4137101
vt 0.3794228 0.4043923
vt 0.3857537 0.4090512
vt 0.3857537 0.4043922
vt 0.3794228 0.4090512
vt 0.3794228 0.4137101
vt 0.3857537 0.4137101
vt 0.3857537 0.4043922
vt 0.3893156 0.4090512
vt 0.3893156 0.4043922
vt 0.3857537 0.4090512
vt 0.3857537 0.4137101
vt 0.3893156 0.4137101
vt 0.3623019 0.4599686
vt 0.3623019 0.4692864
vt 0.3665507 0.4692864
vt 0.3665507 0.4599686
vt 0.3661146 0.4265435
vt 0.3640873 0.4358613
vt 0.3661146 0.4358613
vt 0.3640873 0.4265435
vt 0.3542852 0.4358613
vt 0.3542852 0.4265435
vt 0.3384115 0.4692864
vt 0.3623019 0.4692864
vt 0.3623019 0.4599686
vt 0.3384115 0.4599685
vt 0.3177158 0.4692864
vt 0.333798 0.4692864
vt 0.333798 0.4599685
vt 0.3177158 0.4599685
vt 0.3201469 0.4358613
vt 0.3222193 0.4358613
vt 0.3222193 0.4265435
vt 0.3201469 0.4265435
vt 0.3502049 0.4265435
vt 0.3427317 0.4265435
vt 0.3427317 0.4358613
vt 0.3502049 0.4358613
vt 0.3201469 0.4265435
vt 0.3177158 0.4265435
vt 0.3177158 0.4358613
vt 0.3201469 0.4358613
vt 0.3363391 0.4692864
vt 0.3384115 0.4692864
vt 0.3384115 0.4599685
vt 0.3363391 0.4599685
vt 0.333798 0.4692864
vt 0.3363391 0.4692864
vt 0.3363391 0.4599685
vt 0.333798 0.4599685
vt 0.3222193 0.4358613
vt 0.3427317 0.4358613
vt 0.3427317 0.4265435
vt 0.3222193 0.4265435
vt 0.3194761 0.438838
vt 0.3222193 0.4358613
vt 0.32026 0.4365367
vt 0.3222193 0.438838
vt 0.3194762 0.4549202
vt 0.3427317 0.4358613
vt 0.3222193 0.4549202
vt 0.3427317 0.438838
vt 0.3222193 0.4580126
vt 0.32026 0.4573373
vt 0.3427317 0.4549202
vt 0.3461097 0.4580126
vt 0.3461097 0.4449249
vt 0.3461097 0.4425276
vt 0.3461097 0.4512557
vt 0.3484215 0.4449249
vt 0.3498478 0.4441635
vt 0.3498478 0.4539656
vt 0.3484214 0.4539656
vt 0.3498478 0.4559928
vt 0.3542852 0.4265435
vt 0.3502049 0.4265435
vt 0.3502049 0.4358613
vt 0.3542852 0.4358613
vt 0.3746223 0.4232053
vt 0.3752821 0.4213548
vt 0.3700972 0.4195061
vt 0.3694374 0.4213566
vt 0.3737333 0.4270324
vt 0.3741715 0.4251174
vt 0.3688962 0.422795
vt 0.3685897 0.4256228
vt 0.3761427 0.4195888
vt 0.377015 0.4178286
vt 0.3721398 0.415666
vt 0.3705881 0.4180498
vt 0.3752821 0.4213548
vt 0.3761427 0.4195888
vt 0.3705881 0.4180498
vt 0.3700972 0.4195061
vt 0.3741715 0.4251174
vt 0.3746223 0.4232053
vt 0.3694374 0.4213566
vt 0.3688962 0.422795
vt 0.3732141 0.4289271
vt 0.3737333 0.4270324
vt 0.3685897 0.4256228
vt 0.3680704 0.4275175
vt 0.3732141 0.4289271
vt 0.3745953 0.4303241
vt 0.3764958 0.4298265
vt 0.377015 0.4279318
vt 0.3737333 0.4270324
vt 0.3756338 0.4265348

usemtl LOW-POLY-COLORS
usemap LOW-POLY-COLORS
f 2/2/2 1/1/1 3/3/3
f 3/3/3 1/1/1 4/4/4
f 1/1/1 5/5/5 4/4/4
f 3/3/3 4/4/4 6/6/6
f 4/4/4 5/5/5 7/7/7
f 5/5/5 8/8/8 7/7/7
f 9/9/9 8/8/8 5/5/5
f 7/7/7 8/8/8 10/10/10
f 10/10/10 4/4/4 7/7/7
f 10/10/10 8/8/8 11/11/11
f 6/6/6 4/4/4 12/12/12
f 12/12/12 4/4/4 10/10/10
f 11/11/11 13/13/13 10/10/10
f 13/13/13 12/12/12 10/10/10
f 14/14/14 6/6/6 12/12/12
f 14/14/14 12/12/12 13/13/13
f 15/15/15 6/6/6 14/14/14
f 16/16/16 13/13/13 11/11/11
f 11/11/11 17/17/17 16/16/16
f 16/16/16 17/17/17 18/18/18
f 19/19/19 15/15/15 14/14/14
f 18/18/18 19/19/19 16/16/16
f 20/20/20 15/15/15 19/19/19
f 20/20/20 19/19/19 18/18/18
f 22/22/22 21/21/21 23/23/23
f 24/24/24 21/21/21 22/22/22
f 22/22/22 25/25/25 24/24/24
f 26/26/26 25/25/25 22/22/22
f 28/28/28 27/27/27 29/29/29
f 30/30/30 27/27/27 28/28/28
f 28/28/28 31/31/31 30/30/30
f 32/32/32 31/31/31 28/28/28
f 34/34/34 33/33/33 35/35/35
f 36/36/36 33/33/33 34/34/34
f 34/34/34 37/37/37 36/36/36
f 38/38/38 37/37/37 34/34/34
f 40/40/40 39/39/39 41/41/41
f 42/42/42 39/39/39 40/40/40
f 40/40/40 43/43/43 42/42/42
f 44/44/44 43/43/43 40/40/40
f 46/46/46 45/45/45 47/47/47
f 47/47/47 45/45/45 48/48/48
f 50/50/50 49/49/49 51/51/51
f 52/52/52 49/49/49 50/50/50
f 53/53/53 52/52/52 50/50/50
f 54/54/54 52/52/52 53/53/53
f 56/56/56 55/55/55 57/57/57
f 57/57/57 55/55/55 58/58/58
f 60/60/60 59/59/59 61/61/61
f 61/61/61 59/59/59 62/62/62
f 64/64/64 63/63/63 65/65/65
f 65/65/65 63/63/63 66/66/66
f 68/68/68 67/67/67 69/69/69
f 69/69/69 67/67/67 70/70/70
f 72/72/72 71/71/71 73/73/73
f 73/73/73 71/71/71 74/74/74
f 76/76/76 75/75/75 77/77/77
f 77/77/77 75/75/75 78/78/78
f 80/80/80 79/79/79 81/81/81
f 81/81/81 79/79/79 82/82/82
f 84/84/84 83/83/83 85/85/85
f 85/85/85 83/83/83 86/86/86
f 88/88/88 87/87/87 89/89/89
f 90/90/90 87/87/87 88/88/88
f 90/90/90 91/91/91 87/87/87
f 92/92/92 90/90/90 88/88/88
f 93/93/93 91/91/91 90/90/90
f 94/94/94 90/90/90 92/92/92
f 94/94/94 93/93/93 90/90/90
f 93/93/93 95/95/95 91/91/91
f 91/91/91 95/95/95 96/96/96
f 97/97/97 95/95/95 93/93/93
f 97/97/97 93/93/93 94/94/94
f 98/98/98 95/95/95 97/97/97
f 94/94/94 92/92/92 99/99/99
f 99/99/99 92/92/92 100/100/100
f 97/97/97 94/94/94 101/101/101
f 101/101/101 94/94/94 99/99/99
f 97/97/97 101/101/101 98/98/98
f 99/99/99 100/100/100 102/102/102
f 102/102/102 100/100/100 103/103/103
f 104/104/104 102/102/102 103/103/103
f 98/98/98 101/101/101 105/105/105
f 105/105/105 102/102/102 104/104/104
f 105/105/105 106/106/106 98/98/98
f 104/104/104 106/106/106 105/105/105
f 108/108/108 107/107/107 109/109/109
f 109/109/109 107/107/107 110/110/110
f 112/112/112 111/111/111 113/113/113
f 113/113/113 111/111/111 114/114/114
f 116/116/116 115/115/115 117/117/117
f 117/117/117 115/115/115 118/118/118
f 120/120/120 119/119/119 121/121/121
f 121/121/121 119/119/119 122/122/122
f 124/124/124 123/123/123 125/125/125
f 125/125/125 123/123/123 126/126/126
f 128/128/128 127/127/127 129/129/129
f 129/129/129 127/127/127 130/130/130
f 132/132/132 131/131/131 133/133/133
f 133/133/133 131/131/131 134/134/134
f 136/136/136 135/135/135 137/137/137
f 138/138/138 137/137/137 135/135/135
f 139/139/139 138/138/138 135/135/135
f 140/140/140 138/138/138 139/139/139
