mtllib ./garbage-bag_21.mtl
g garbage-bag
v 0.03687522 0.5611079 0.0002517746
v -0.009443101 0.5962922 -0.02954285
v 0.04094531 0.5851491 -0.05933749
v 0.03687522 0.5611079 0.0002517746
v -0.009443101 0.5962922 0.03004641
v -0.009443101 0.5962922 -0.02954285
v 0.03687522 0.5611079 0.0002517746
v 0.04094531 0.5851491 0.05984104
v -0.009443101 0.5962922 0.03004641
v 0.03687522 0.5611079 0.0002517746
v 0.09133374 0.574006 0.0300464
v 0.04094531 0.5851491 0.05984104
v 0.03687522 0.5611079 0.0002517746
v 0.09133374 0.574006 -0.02954285
v 0.09133374 0.574006 0.0300464
v 0.03687522 0.5611079 0.0002517746
v 0.04094531 0.5851491 -0.05933749
v 0.09133374 0.574006 -0.02954285
v 0.1719791 0.4779315 0.001542713
v 0.04134528 0.5400764 0.0002480645
v 0.02947953 0.5230268 -0.07555582
v 0.1261205 0.4938671 -0.06098367
v 0.04134528 0.5400764 0.0002480645
v 0.1719791 0.4779315 0.001542713
v 0.1295089 0.4756061 0.06665842
v 0.03032666 0.5184615 0.07734659
v -0.07850517 0.5415573 0.0002480654
v 0.04134528 0.5400764 0.0002480645
v 0.03032666 0.5184615 0.07734659
v -0.05902803 0.5306103 0.06147981
v 0.02947953 0.5230268 -0.07555582
v 0.04134528 0.5400764 0.0002480645
v -0.07850517 0.5415573 0.0002480654
v -0.05902804 0.5306103 -0.06098368
v 0 0.09480742 -0.1877535
v 0.1645969 0.1578159 -0.1323095
v 0.1572059 0.2675644 -0.1036519
v 0.01866919 0.2546623 -0.1472115
v 0.2149515 0.179087 3.011913E-05
v 0.1120898 0.1035586 0.1575131
v 0.1572059 0.2675644 0.1247905
v 0.2145897 0.2729087 6.404255E-05
v 4.312433E-05 0.09441948 0.2227572
v -0.1101451 0.09577977 0.1575131
v -0.1198675 0.2417602 0.1331481
v 0.01380744 0.2391046 0.1504929
v -0.1783234 0.09577977 9.867669E-09
v -0.1645969 0.09480742 -0.1575131
v -0.1198675 0.2417602 -0.1331481
v -0.1772513 0.236416 9.593693E-09
v 0.1645969 0.1578159 -0.1323095
v 0.2149515 0.179087 3.011913E-05
v 0.2145897 0.2729087 6.404255E-05
v 0.1572059 0.2675644 -0.1036519
v 0.1120898 0.1035586 0.1575131
v 4.312433E-05 0.09441948 0.2227572
v 0.01380744 0.2391046 0.1504929
v 0.1572059 0.2675644 0.1247905
v -0.1101451 0.09577977 0.1575131
v -0.1783234 0.09577977 9.867669E-09
v -0.1772513 0.236416 9.593693E-09
v -0.1198675 0.2417602 0.1331481
v -0.1645969 0.09480742 -0.1575131
v 0 0.09480742 -0.1877535
v 0.01866919 0.2546623 -0.1472115
v -0.1198675 0.2417602 -0.1331481
v -0.1772513 0.236416 9.593693E-09
v -0.1198675 0.2417602 -0.1331481
v -0.1312976 0.4438836 -0.1083197
v -0.1880994 0.453631 0.0001459085
v 0.1572059 0.2675644 -0.1036519
v 0.2145897 0.2729087 6.404255E-05
v 0.2124083 0.374431 0.0001785771
v 0.1429659 0.396819 -0.1062014
v 0.1572059 0.2675644 0.1247905
v 0.01380744 0.2391046 0.1504929
v 0.005834146 0.4203513 0.1798594
v 0.1429659 0.396819 0.1036252
v -0.1198675 0.2417602 0.1331481
v -0.1772513 0.236416 9.593693E-09
v -0.1880994 0.453631 0.0001459085
v -0.1312976 0.4438836 0.1086514
v -0.1198675 0.2417602 -0.1331481
v 0.01866919 0.2546623 -0.1472115
v 0.005834118 0.4203513 -0.1560003
v -0.1312976 0.4438836 -0.1083197
v 0.01866919 0.2546623 -0.1472115
v 0.1572059 0.2675644 -0.1036519
v 0.1429659 0.396819 -0.1062014
v 0.005834118 0.4203513 -0.1560003
v 0.2145897 0.2729087 6.404255E-05
v 0.1572059 0.2675644 0.1247905
v 0.1429659 0.396819 0.1036252
v 0.2124083 0.374431 0.0001785771
v 0.01380744 0.2391046 0.1504929
v -0.1198675 0.2417602 0.1331481
v -0.1312976 0.4438836 0.1086514
v 0.005834146 0.4203513 0.1798594
v 0.005834118 0.4203513 -0.1560003
v 0.1429659 0.396819 -0.1062014
v 0.1261205 0.4938671 -0.06098367
v 0.02947953 0.5230268 -0.07555582
v 0.2124083 0.374431 0.0001785771
v 0.1429659 0.396819 0.1036252
v 0.1295089 0.4756061 0.06665842
v 0.1719791 0.4779315 0.001542713
v 0.005834146 0.4203513 0.1798594
v -0.1312976 0.4438836 0.1086514
v -0.05902803 0.5306103 0.06147981
v 0.03032666 0.5184615 0.07734659
v -0.1880994 0.453631 0.0001459085
v -0.1312976 0.4438836 -0.1083197
v -0.05902804 0.5306103 -0.06098368
v -0.07850517 0.5415573 0.0002480654
v 0.1429659 0.396819 -0.1062014
v 0.2124083 0.374431 0.0001785771
v 0.1719791 0.4779315 0.001542713
v 0.1261205 0.4938671 -0.06098367
v 0.1429659 0.396819 0.1036252
v 0.005834146 0.4203513 0.1798594
v 0.03032666 0.5184615 0.07734659
v 0.1295089 0.4756061 0.06665842
v -0.1312976 0.4438836 0.1086514
v -0.1880994 0.453631 0.0001459085
v -0.07850517 0.5415573 0.0002480654
v -0.05902803 0.5306103 0.06147981
v -0.1312976 0.4438836 -0.1083197
v 0.005834118 0.4203513 -0.1560003
v 0.02947953 0.5230268 -0.07555582
v -0.05902804 0.5306103 -0.06098368
v 0.1645969 0.1578159 -0.1323095
v 0 0.09480742 -0.1877535
v 0 0.003795147 -0.1690697
v 0.1249269 0.003795147 -0.1195503
v 0.1120898 0.1035586 0.1575131
v 0.2149515 0.179087 3.011913E-05
v 0.2476551 0.02713163 1.119326E-09
v 0.1249269 0.003795147 0.1195503
v -0.1101451 0.09577977 0.1575131
v 4.312433E-05 0.09441948 0.2227572
v 0.0008103103 -0.003497505 0.1690697
v -0.160904 -0.00592839 0.1195503
v -0.1645969 0.09480742 -0.1575131
v -0.1783234 0.09577977 9.867669E-09
v -0.2223739 0.02129751 9.741871E-09
v -0.1249269 0.003795147 -0.1195503
v 0.2149515 0.179087 3.011913E-05
v 0.1645969 0.1578159 -0.1323095
v 0.1249269 0.003795147 -0.1195503
v 0.2476551 0.02713163 1.119326E-09
v 4.312433E-05 0.09441948 0.2227572
v 0.1120898 0.1035586 0.1575131
v 0.1249269 0.003795147 0.1195503
v 0.0008103103 -0.003497505 0.1690697
v -0.1783234 0.09577977 9.867669E-09
v -0.1101451 0.09577977 0.1575131
v -0.160904 -0.00592839 0.1195503
v -0.2223739 0.02129751 9.741871E-09
v 0 0.09480742 -0.1877535
v -0.1645969 0.09480742 -0.1575131
v -0.1249269 0.003795147 -0.1195503
v 0 0.003795147 -0.1690697
v -0.160904 -0.00592839 0.1195503
v 0.0008103103 -0.003497505 0.1690697
v -0.0006316541 -0.003505036 0.0005092768
v -0.2223739 0.02129751 9.741871E-09
v 0.0008103103 -0.003497505 0.1690697
v 0.1249269 0.003795147 0.1195503
v 0.2476551 0.02713163 1.119326E-09
v -0.0006316541 -0.003505036 0.0005092768
v 0.2476551 0.02713163 1.119326E-09
v 0.1249269 0.003795147 -0.1195503
v 0 0.003795147 -0.1690697
v -0.0006316541 -0.003505036 0.0005092768
v 0 0.003795147 -0.1690697
v -0.1249269 0.003795147 -0.1195503
v -0.2223739 0.02129751 9.741871E-09
v -0.0006316541 -0.003505036 0.0005092768
v 0.04094531 0.5851491 -0.05933749
v 0.0158787 0.4972873 -0.0119974
v 0.02623653 0.4949968 -0.005872814
v 0.09133374 0.574006 -0.02954285
v 0.09133374 0.574006 0.0300464
v 0.02623653 0.4949968 0.006376339
v 0.0158787 0.4972873 0.01250092
v 0.04094531 0.5851491 0.05984104
v -0.009443101 0.5962922 0.03004641
v 0.005520867 0.4995779 0.006376342
v 0.005520867 0.4995779 -0.005872814
v -0.009443101 0.5962922 -0.02954285
v 0.09133374 0.574006 -0.02954285
v 0.02623653 0.4949968 -0.005872814
v 0.02623653 0.4949968 0.006376339
v 0.09133374 0.574006 0.0300464
v 0.04094531 0.5851491 0.05984104
v 0.0158787 0.4972873 0.01250092
v 0.005520867 0.4995779 0.006376342
v -0.009443101 0.5962922 0.03004641
v -0.009443101 0.5962922 -0.02954285
v 0.005520867 0.4995779 -0.005872814
v 0.0158787 0.4972873 -0.0119974
v 0.04094531 0.5851491 -0.05933749

vn 0.4020493 0.8392598 0.3660594
vn 0.4020493 0.8392598 0.3660594
vn 0.4020493 0.8392598 0.3660594
vn 0.6048915 0.7963079 0
vn 0.6048915 0.7963079 0
vn 0.6048915 0.7963079 0
vn 0.4020492 0.8392597 -0.3660594
vn 0.4020492 0.8392597 -0.3660594
vn 0.4020492 0.8392597 -0.3660594
vn -0.01552903 0.9276254 -0.373189
vn -0.01552903 0.9276254 -0.373189
vn -0.01552903 0.9276254 -0.373189
vn -0.2304665 0.9730802 0
vn -0.2304665 0.9730802 0
vn -0.2304665 0.9730802 0
vn -0.01552902 0.9276254 0.373189
vn -0.01552902 0.9276254 0.373189
vn -0.01552902 0.9276254 0.373189
vn 0.3775672 0.9111822 -0.1648936
vn 0.3775672 0.9111822 -0.1648936
vn 0.3775672 0.9111822 -0.1648936
vn 0.3775672 0.9111822 -0.1648936
vn 0.4067058 0.8634771 0.2983247
vn 0.4067058 0.8634771 0.2983247
vn 0.4067058 0.8634771 0.2983247
vn 0.4067058 0.8634771 0.2983247
vn 0.04623351 0.9729819 0.2262051
vn 0.04623351 0.9729819 0.2262051
vn 0.04623351 0.9729819 0.2262051
vn 0.04623351 0.9729819 0.2262051
vn 0.02873332 0.9796692 -0.1985516
vn 0.02873332 0.9796692 -0.1985516
vn 0.02873332 0.9796692 -0.1985516
vn 0.02873332 0.9796692 -0.1985516
vn 0.2493216 0.2309642 -0.9404756
vn 0.2493216 0.2309642 -0.9404756
vn 0.2493216 0.2309642 -0.9404756
vn 0.2493216 0.2309642 -0.9404756
vn 0.87701 -0.09245504 0.4714929
vn 0.87701 -0.09245504 0.4714929
vn 0.87701 -0.09245504 0.4714929
vn 0.87701 -0.09245504 0.4714929
vn -0.3010254 0.3045999 0.9036607
vn -0.3010254 0.3045999 0.9036607
vn -0.3010254 0.3045999 0.9036607
vn -0.3010254 0.3045999 0.9036607
vn -0.9574526 0.17211 -0.231652
vn -0.9574526 0.17211 -0.231652
vn -0.9574526 0.17211 -0.231652
vn -0.9574526 0.17211 -0.231652
vn 0.9016739 0.09383316 -0.4221133
vn 0.9016739 0.09383316 -0.4221133
vn 0.9016739 0.09383316 -0.4221133
vn 0.9016739 0.09383316 -0.4221133
vn 0.2901089 0.2580818 0.921537
vn 0.2901089 0.2580818 0.921537
vn 0.2901089 0.2580818 0.921537
vn 0.2901089 0.2580818 0.921537
vn -0.9180294 0.005996389 0.3964671
vn -0.9180294 0.005996389 0.3964671
vn -0.9180294 0.005996389 0.3964671
vn -0.9180294 0.005996389 0.3964671
vn -0.150347 0.2342622 -0.9604774
vn -0.150347 0.2342622 -0.9604774
vn -0.150347 0.2342622 -0.9604774
vn -0.150347 0.2342622 -0.9604774
vn -0.9040462 -0.02260847 -0.4268364
vn -0.9040462 -0.02260847 -0.4268364
vn -0.9040462 -0.02260847 -0.4268364
vn -0.9040462 -0.02260847 -0.4268364
vn 0.8567736 0.055556 -0.5126913
vn 0.8567736 0.055556 -0.5126913
vn 0.8567736 0.055556 -0.5126913
vn 0.8567736 0.055556 -0.5126913
vn 0.3415287 -0.0003917778 0.9398713
vn 0.3415287 -0.0003917778 0.9398713
vn 0.3415287 -0.0003917778 0.9398713
vn 0.3415287 -0.0003917778 0.9398713
vn -0.9040647 -0.0232484 0.426763
vn -0.9040647 -0.0232484 0.426763
vn -0.9040647 -0.0232484 0.426763
vn -0.9040647 -0.0232484 0.426763
vn -0.2174412 0.02820202 -0.9756659
vn -0.2174412 0.02820202 -0.9756659
vn -0.2174412 0.02820202 -0.9756659
vn -0.2174412 0.02820202 -0.9756659
vn 0.3205169 -0.006990621 -0.947217
vn 0.3205169 -0.006990621 -0.947217
vn 0.3205169 -0.006990621 -0.947217
vn 0.3205169 -0.006990621 -0.947217
vn 0.8724959 0.1056014 0.4770738
vn 0.8724959 0.1056014 0.4770738
vn 0.8724959 0.1056014 0.4770738
vn 0.8724959 0.1056014 0.4770738
vn -0.3131173 -0.02790635 0.9493044
vn -0.3131173 -0.02790635 0.9493044
vn -0.3131173 -0.02790635 0.9493044
vn -0.3131173 -0.02790635 0.9493044
vn 0.3325597 0.4940926 -0.8032911
vn 0.3325597 0.4940926 -0.8032911
vn 0.3325597 0.4940926 -0.8032911
vn 0.3325597 0.4940926 -0.8032911
vn 0.8031427 0.3338023 0.4934953
vn 0.8031427 0.3338023 0.4934953
vn 0.8031427 0.3338023 0.4934953
vn 0.8031427 0.3338023 0.4934953
vn -0.1708723 0.672559 0.7200466
vn -0.1708723 0.672559 0.7200466
vn -0.1708723 0.672559 0.7200466
vn -0.1708723 0.672559 0.7200466
vn -0.5972667 0.7186503 -0.3561099
vn -0.5972667 0.7186503 -0.3561099
vn -0.5972667 0.7186503 -0.3561099
vn -0.5972667 0.7186503 -0.3561099
vn 0.81045 0.3419381 -0.4756566
vn 0.81045 0.3419381 -0.4756566
vn 0.81045 0.3419381 -0.4756566
vn 0.81045 0.3419381 -0.4756566
vn 0.4200197 0.5455973 0.7251944
vn 0.4200197 0.5455973 0.7251944
vn 0.4200197 0.5455973 0.7251944
vn 0.4200197 0.5455973 0.7251944
vn -0.5976492 0.7183091 0.3561564
vn -0.5976492 0.7183091 0.3561564
vn -0.5976492 0.7183091 0.3561564
vn -0.5976492 0.7183091 0.3561564
vn -0.1347631 0.6001676 -0.78844
vn -0.1347631 0.6001676 -0.78844
vn -0.1347631 0.6001676 -0.78844
vn -0.1347631 0.6001676 -0.78844
vn 0.3692488 -0.1768538 -0.9123475
vn 0.3692488 -0.1768538 -0.9123475
vn 0.3692488 -0.1768538 -0.9123475
vn 0.3692488 -0.1768538 -0.9123475
vn 0.7673026 0.04223807 0.6398927
vn 0.7673026 0.04223807 0.6398927
vn 0.7673026 0.04223807 0.6398927
vn 0.7673026 0.04223807 0.6398927
vn -0.3686627 -0.3100159 0.8763436
vn -0.3686627 -0.3100159 0.8763436
vn -0.3686627 -0.3100159 0.8763436
vn -0.3686627 -0.3100159 0.8763436
vn -0.9277809 -0.05992271 -0.3682824
vn -0.9277809 -0.05992271 -0.3682824
vn -0.9277809 -0.05992271 -0.3682824
vn -0.9277809 -0.05992271 -0.3682824
vn 0.8269181 -0.04215494 -0.5607401
vn 0.8269181 -0.04215494 -0.5607401
vn 0.8269181 -0.04215494 -0.5607401
vn 0.8269181 -0.04215494 -0.5607401
vn 0.4284031 -0.3556344 0.8306594
vn 0.4284031 -0.3556344 0.8306594
vn 0.4284031 -0.3556344 0.8306594
vn 0.4284031 -0.3556344 0.8306594
vn -0.8323264 0.3564164 0.4244999
vn -0.8323264 0.3564164 0.4244999
vn -0.8323264 0.3564164 0.4244999
vn -0.8323264 0.3564164 0.4244999
vn -0.2500586 -0.3369756 -0.9076993
vn -0.2500586 -0.3369756 -0.9076993
vn -0.2500586 -0.3369756 -0.9076993
vn -0.2500586 -0.3369756 -0.9076993
vn -0.04714678 -0.9953718 -0.08373968
vn -0.04714678 -0.9953718 -0.08373968
vn -0.04714678 -0.9953718 -0.08373968
vn -0.04714678 -0.9953718 -0.08373968
vn 0.09590287 -0.9945802 -0.04016101
vn 0.09590287 -0.9945802 -0.04016101
vn 0.09590287 -0.9945802 -0.04016101
vn 0.09590287 -0.9945802 -0.04016101
vn 0.07893096 -0.9966385 0.02194589
vn 0.07893096 -0.9966385 0.02194589
vn 0.07893096 -0.9966385 0.02194589
vn 0.07893096 -0.9966385 0.02194589
vn -0.06973458 -0.9974988 0.01154218
vn -0.06973458 -0.9974988 0.01154218
vn -0.06973458 -0.9974988 0.01154218
vn -0.06973458 -0.9974988 0.01154218
vn 0.3467877 -0.5196517 -0.7808331
vn 0.3467877 -0.5196517 -0.7808331
vn 0.3467877 -0.5196517 -0.7808331
vn 0.3467877 -0.5196517 -0.7808331
vn 0.3467878 -0.5196518 0.7808329
vn 0.3467878 -0.5196518 0.7808329
vn 0.3467878 -0.5196518 0.7808329
vn 0.3467878 -0.5196518 0.7808329
vn -0.988241 -0.152904 0
vn -0.988241 -0.152904 0
vn -0.988241 -0.152904 0
vn -0.988241 -0.152904 0
vn 0.7717829 -0.6358862 0
vn 0.7717829 -0.6358862 0
vn 0.7717829 -0.6358862 0
vn 0.7717829 -0.6358862 0
vn -0.5337242 -0.2780415 0.7986435
vn -0.5337242 -0.2780415 0.7986435
vn -0.5337242 -0.2780415 0.7986435
vn -0.5337242 -0.2780415 0.7986435
vn -0.5337244 -0.2780412 -0.7986435
vn -0.5337244 -0.2780412 -0.7986435
vn -0.5337244 -0.2780412 -0.7986435
vn -0.5337244 -0.2780412 -0.7986435

vt 0.09228719 0.6555238
vt 0.08923402 0.6487332
vt 0.08330107 0.6505921
vt 0.09228719 0.6555238
vt 0.09155566 0.6485794
vt 0.08923402 0.6487332
vt 0.09228719 0.6555238
vt 0.09304013 0.6487064
vt 0.09155566 0.6485794
vt 0.09228719 0.6555238
vt 0.09446888 0.648991
vt 0.09304013 0.6487064
vt 0.09228719 0.6555238
vt 0.09661135 0.6496375
vt 0.09446888 0.648991
vt 0.09228719 0.6555238
vt 0.1025648 0.6524284
vt 0.09661135 0.6496375
vt 0.0596146 0.6911373
vt 0.05304836 0.6911193
vt 0.05273776 0.6943718
vt 0.05705385 0.6939521
vt 0.05304836 0.6911193
vt 0.0596146 0.6911373
vt 0.05756853 0.6879759
vt 0.05278229 0.6877165
vt 0.04766794 0.691182
vt 0.05304836 0.6911193
vt 0.05278229 0.6877165
vt 0.04888094 0.6883414
vt 0.05273776 0.6943718
vt 0.05304836 0.6911193
vt 0.04766794 0.691182
vt 0.04895105 0.6940013
vt 0.05664485 0.7212023
vt 0.0675503 0.7145294
vt 0.06571051 0.7058924
vt 0.0555393 0.7101017
vt 0.07894473 0.6730987
vt 0.06383812 0.6636896
vt 0.06430432 0.6762277
vt 0.07498141 0.6822442
vt 0.05612178 0.6617582
vt 0.04849216 0.6598101
vt 0.0449286 0.6701266
vt 0.05483215 0.6715084
vt 0.03339178 0.7290488
vt 0.04679605 0.7235333
vt 0.04520471 0.7127519
vt 0.03112671 0.7136004
vt 0.0675503 0.7145294
vt 0.07952804 0.7089615
vt 0.07519162 0.6999807
vt 0.06571051 0.7058924
vt 0.06383812 0.6636896
vt 0.05612178 0.6617582
vt 0.05483215 0.6715084
vt 0.06430432 0.6762277
vt 0.04849216 0.6598101
vt 0.03334906 0.6541029
vt 0.03112673 0.6693665
vt 0.0449286 0.6701266
vt 0.04679605 0.7235333
vt 0.05664485 0.7212023
vt 0.0555393 0.7101017
vt 0.04520471 0.7127519
vt 0.03112671 0.7136004
vt 0.04520471 0.7127519
vt 0.04460031 0.6984555
vt 0.03660727 0.691292
vt 0.06571051 0.7058924
vt 0.07519162 0.6999807
vt 0.06915411 0.6910774
vt 0.06046829 0.6984718
vt 0.06430432 0.6762277
vt 0.05483215 0.6715084
vt 0.05211851 0.6817328
vt 0.0603276 0.6839392
vt 0.0449286 0.6701266
vt 0.03112673 0.6693665
vt 0.03660727 0.691292
vt 0.04445117 0.684032
vt 0.04520471 0.7127519
vt 0.0555393 0.7101017
vt 0.0525255 0.7003825
vt 0.04460031 0.6984555
vt 0.0555393 0.7101017
vt 0.06571051 0.7058924
vt 0.06046829 0.6984718
vt 0.0525255 0.7003825
vt 0.07498141 0.6822442
vt 0.06430432 0.6762277
vt 0.0603276 0.6839392
vt 0.06915411 0.6910774
vt 0.05483215 0.6715084
vt 0.0449286 0.6701266
vt 0.04445117 0.684032
vt 0.05211851 0.6817328
vt 0.0525255 0.7003825
vt 0.06046829 0.6984718
vt 0.05705385 0.6939521
vt 0.05273776 0.6943718
vt 0.06915411 0.6910774
vt 0.0603276 0.6839392
vt 0.05756853 0.6879759
vt 0.0596146 0.6911373
vt 0.05211851 0.6817328
vt 0.04445117 0.684032
vt 0.04888094 0.6883414
vt 0.05278229 0.6877165
vt 0.03660727 0.691292
vt 0.04460031 0.6984555
vt 0.04895105 0.6940013
vt 0.04766794 0.691182
vt 0.06046829 0.6984718
vt 0.06915411 0.6910774
vt 0.0596146 0.6911373
vt 0.05705385 0.6939521
vt 0.0603276 0.6839392
vt 0.05211851 0.6817328
vt 0.05278229 0.6877165
vt 0.05756853 0.6879759
vt 0.04445117 0.684032
vt 0.03660727 0.691292
vt 0.04766794 0.691182
vt 0.04888094 0.6883414
vt 0.04460031 0.6984555
vt 0.0525255 0.7003825
vt 0.05273776 0.6943718
vt 0.04895105 0.6940013
vt 0.0675503 0.7145294
vt 0.05664485 0.7212023
vt 0.05793813 0.7270835
vt 0.06672499 0.7262059
vt 0.06383812 0.6636896
vt 0.07894473 0.6730987
vt 0.08203361 0.6568205
vt 0.06625677 0.6562544
vt 0.04849216 0.6598101
vt 0.05612178 0.6617582
vt 0.05746619 0.6556349
vt 0.04781908 0.6518209
vt 0.04679605 0.7235333
vt 0.03339178 0.7290488
vt 0.03639764 0.7387656
vt 0.04929738 0.7303066
vt 0.07952804 0.7089615
vt 0.0675503 0.7145294
vt 0.06672499 0.7262059
vt 0.08312224 0.7258915
vt 0.05612178 0.6617582
vt 0.06383812 0.6636896
vt 0.06625677 0.6562544
vt 0.05746619 0.6556349
vt 0.03334906 0.6541029
vt 0.04849216 0.6598101
vt 0.04781908 0.6518209
vt 0.03770327 0.6444918
vt 0.05664485 0.7212023
vt 0.04679605 0.7235333
vt 0.04929738 0.7303066
vt 0.05793813 0.7270835
vt 0.04781908 0.6518209
vt 0.05746619 0.6556349
vt 0.06122824 0.6407723
vt 0.03770327 0.6444918
vt 0.05746619 0.6556349
vt 0.06625677 0.6562544
vt 0.08203361 0.6568205
vt 0.06122824 0.6407723
vt 0.08312224 0.7258915
vt 0.06672499 0.7262059
vt 0.05793813 0.7270835
vt 0.06147954 0.74204
vt 0.05793813 0.7270835
vt 0.04929738 0.7303066
vt 0.03639764 0.7387656
vt 0.06147954 0.74204
vt 0.1025648 0.6524284
vt 0.0976655 0.6407723
vt 0.09619451 0.6410907
vt 0.09661135 0.6496375
vt 0.09446888 0.648991
vt 0.09493668 0.6412644
vt 0.09370027 0.6413414
vt 0.09304013 0.6487064
vt 0.09155566 0.6485794
vt 0.09247542 0.6413735
vt 0.09121878 0.641301
vt 0.08923402 0.6487332
vt 0.09661135 0.6496375
vt 0.09619451 0.6410907
vt 0.09493668 0.6412644
vt 0.09446888 0.648991
vt 0.09304013 0.6487064
vt 0.09370027 0.6413414
vt 0.09247542 0.6413735
vt 0.09155566 0.6485794
vt 0.08923402 0.6487332
vt 0.09121878 0.641301
vt 0.09006663 0.6407723
vt 0.08330107 0.6505921

usemtl LOW-POLY-COLORS
usemap LOW-POLY-COLORS
f 2/2/2 1/1/1 3/3/3
f 5/5/5 4/4/4 6/6/6
f 8/8/8 7/7/7 9/9/9
f 11/11/11 10/10/10 12/12/12
f 14/14/14 13/13/13 15/15/15
f 17/17/17 16/16/16 18/18/18
f 20/20/20 19/19/19 21/21/21
f 21/21/21 19/19/19 22/22/22
f 24/24/24 23/23/23 25/25/25
f 25/25/25 23/23/23 26/26/26
f 28/28/28 27/27/27 29/29/29
f 29/29/29 27/27/27 30/30/30
f 32/32/32 31/31/31 33/33/33
f 33/33/33 31/31/31 34/34/34
f 36/36/36 35/35/35 37/37/37
f 37/37/37 35/35/35 38/38/38
f 40/40/40 39/39/39 41/41/41
f 41/41/41 39/39/39 42/42/42
f 44/44/44 43/43/43 45/45/45
f 45/45/45 43/43/43 46/46/46
f 48/48/48 47/47/47 49/49/49
f 49/49/49 47/47/47 50/50/50
f 52/52/52 51/51/51 53/53/53
f 53/53/53 51/51/51 54/54/54
f 56/56/56 55/55/55 57/57/57
f 57/57/57 55/55/55 58/58/58
f 60/60/60 59/59/59 61/61/61
f 61/61/61 59/59/59 62/62/62
f 64/64/64 63/63/63 65/65/65
f 65/65/65 63/63/63 66/66/66
f 68/68/68 67/67/67 69/69/69
f 69/69/69 67/67/67 70/70/70
f 72/72/72 71/71/71 73/73/73
f 73/73/73 71/71/71 74/74/74
f 76/76/76 75/75/75 77/77/77
f 77/77/77 75/75/75 78/78/78
f 80/80/80 79/79/79 81/81/81
f 81/81/81 79/79/79 82/82/82
f 84/84/84 83/83/83 85/85/85
f 85/85/85 83/83/83 86/86/86
f 88/88/88 87/87/87 89/89/89
f 89/89/89 87/87/87 90/90/90
f 92/92/92 91/91/91 93/93/93
f 93/93/93 91/91/91 94/94/94
f 96/96/96 95/95/95 97/97/97
f 97/97/97 95/95/95 98/98/98
f 100/100/100 99/99/99 101/101/101
f 101/101/101 99/99/99 102/102/102
f 104/104/104 103/103/103 105/105/105
f 105/105/105 103/103/103 106/106/106
f 108/108/108 107/107/107 109/109/109
f 109/109/109 107/107/107 110/110/110
f 112/112/112 111/111/111 113/113/113
f 113/113/113 111/111/111 114/114/114
f 116/116/116 115/115/115 117/117/117
f 117/117/117 115/115/115 118/118/118
f 120/120/120 119/119/119 121/121/121
f 121/121/121 119/119/119 122/122/122
f 124/124/124 123/123/123 125/125/125
f 125/125/125 123/123/123 126/126/126
f 128/128/128 127/127/127 129/129/129
f 129/129/129 127/127/127 130/130/130
f 132/132/132 131/131/131 133/133/133
f 133/133/133 131/131/131 134/134/134
f 136/136/136 135/135/135 137/137/137
f 137/137/137 135/135/135 138/138/138
f 140/140/140 139/139/139 141/141/141
f 141/141/141 139/139/139 142/142/142
f 144/144/144 143/143/143 145/145/145
f 145/145/145 143/143/143 146/146/146
f 148/148/148 147/147/147 149/149/149
f 149/149/149 147/147/147 150/150/150
f 152/152/152 151/151/151 153/153/153
f 153/153/153 151/151/151 154/154/154
f 156/156/156 155/155/155 157/157/157
f 157/157/157 155/155/155 158/158/158
f 160/160/160 159/159/159 161/161/161
f 161/161/161 159/159/159 162/162/162
f 164/164/164 163/163/163 165/165/165
f 165/165/165 163/163/163 166/166/166
f 168/168/168 167/167/167 169/169/169
f 169/169/169 167/167/167 170/170/170
f 172/172/172 171/171/171 173/173/173
f 173/173/173 171/171/171 174/174/174
f 176/176/176 175/175/175 177/177/177
f 177/177/177 175/175/175 178/178/178
f 180/180/180 179/179/179 181/181/181
f 181/181/181 179/179/179 182/182/182
f 184/184/184 183/183/183 185/185/185
f 185/185/185 183/183/183 186/186/186
f 188/188/188 187/187/187 189/189/189
f 189/189/189 187/187/187 190/190/190
f 192/192/192 191/191/191 193/193/193
f 193/193/193 191/191/191 194/194/194
f 196/196/196 195/195/195 197/197/197
f 197/197/197 195/195/195 198/198/198
f 200/200/200 199/199/199 201/201/201
f 201/201/201 199/199/199 202/202/202
