mtllib ./medkit_9.mtl
g medkit
v -0.1999118 0.01499997 0.1351793
v -0.1849118 0.01499997 0.1501793
v -0.1849118 -3.337861E-08 0.1351793
v -0.1849118 0.135 0.1501793
v -0.1999118 0.135 0.1351793
v -0.1849118 0.15 0.1351793
v -0.1999118 0.01499997 -0.1351793
v -0.1849118 -3.337861E-08 -0.1351793
v -0.1849118 0.01499997 -0.1501793
v -0.1849118 0.15 -0.1351793
v -0.1999118 0.135 -0.1351793
v -0.1849118 0.135 -0.1501793
v 0.1999118 0.01499997 0.1351793
v 0.1849118 -3.337861E-08 0.1351793
v 0.1849118 0.01499997 0.1501793
v 0.1849118 0.15 0.1351793
v 0.1999118 0.135 0.1351793
v 0.1849118 0.135 0.1501793
v 0.1849118 0.01499997 -0.1501793
v 0.1849118 -3.337861E-08 -0.1351793
v 0.1999118 0.01499997 -0.1351793
v 0.1999118 0.135 -0.1351793
v 0.1849118 0.15 -0.1351793
v 0.1849118 0.135 -0.1501793
v -0.1999118 0.1051656 0.1351793
v -0.1999118 0.1051656 -0.1351793
v -0.1999118 0.135 -0.1351793
v -0.1999118 0.135 0.1351793
v -0.1849118 0.0994838 0.1476005
v 0.1849118 0.0994838 0.1476005
v 0.1849118 0.01499997 0.1501793
v -0.1849118 0.01499997 0.1501793
v -0.1849118 -3.337861E-08 -0.1351793
v -0.1849118 -3.337861E-08 0.1351793
v 0.1849118 -3.337861E-08 0.1351793
v 0.1849118 -3.337861E-08 -0.1351793
v 0.1849118 0.1051656 0.1501793
v -0.1849118 0.1051656 0.1501793
v -0.1849118 0.135 0.1501793
v 0.1849118 0.135 0.1501793
v -0.02311227 0.15 -0.02310935
v -0.02311227 0.15 -0.08320067
v 0.02311227 0.15 -0.08320067
v 0.02311227 0.15 -0.02311227
v -0.02311227 0.15 0.02311227
v -0.08322887 0.15 0.02311227
v -0.08322887 0.15 -0.02311227
v 0.02311227 0.15 0.02311227
v -0.02311227 0.15 0.08320068
v 0.02311227 0.15 0.08320068
v 0.08322889 0.15 -0.02311227
v 0.08322889 0.15 0.02311227
v 0.1999118 0.1051656 -0.1351793
v 0.1999118 0.1051656 0.1351793
v 0.1999118 0.135 0.1351793
v 0.1999118 0.135 -0.1351793
v -0.02311227 0.15 0.08320068
v -0.08322887 0.15 0.02311227
v -0.02311227 0.15 0.02311227
v -0.1849118 0.15 0.1351793
v -0.08322887 0.15 -0.02311227
v 0.1849118 0.15 0.1351793
v -0.1849118 0.15 -0.1351793
v 0.02311227 0.15 0.08320068
v 0.02311227 0.15 0.02311227
v 0.08322889 0.15 0.02311227
v -0.02311227 0.15 -0.02310935
v -0.02311227 0.15 -0.08320067
v 0.02311227 0.15 -0.08320067
v 0.1849118 0.15 -0.1351793
v 0.08322889 0.15 -0.02311227
v 0.02311227 0.15 -0.02311227
v 0.1849118 0.0994838 -0.1501793
v -0.1849118 0.01499997 -0.1501793
v 0.1849118 0.01499997 -0.1501793
v -0.1849118 0.0994838 -0.1501793
v 0.1849118 0.1051656 -0.1501793
v -0.1849118 0.1051656 -0.1501793
v 0.1999118 0.0994838 0.1326005
v 0.1999118 0.01499997 -0.1351793
v 0.1999118 0.01499997 0.1351793
v 0.1999118 0.0994838 -0.1351793
v 0.1999118 0.1051656 0.1351793
v 0.1999118 0.1051656 -0.1351793
v -0.1849118 0.1051656 -0.1501793
v 0.1849118 0.1051656 -0.1501793
v 0.1849118 0.135 -0.1501793
v -0.1849118 0.135 -0.1501793
v -0.1849118 -3.337861E-08 -0.1351793
v -0.1999118 0.01499997 -0.1351793
v -0.1999118 0.01499997 0.1351793
v -0.1849118 -3.337861E-08 0.1351793
v -0.1849118 0.1051656 0.1501793
v -0.1999118 0.1051656 0.1351793
v -0.1999118 0.135 0.1351793
v -0.1849118 0.135 0.1501793
v -0.1849118 0.15 0.1351793
v -0.1999118 0.135 0.1351793
v -0.1999118 0.135 -0.1351793
v -0.1849118 0.15 -0.1351793
v 0.1999118 0.135 -0.1351793
v 0.1849118 0.135 -0.1501793
v 0.1849118 0.1051656 -0.1501793
v 0.1999118 0.1051656 -0.1351793
v 0.1849118 -3.337861E-08 -0.1351793
v 0.1849118 0.01499997 -0.1501793
v -0.1849118 0.01499997 -0.1501793
v -0.1849118 -3.337861E-08 -0.1351793
v -0.1849118 0.15 -0.1351793
v -0.1849118 0.135 -0.1501793
v 0.1849118 0.135 -0.1501793
v 0.1849118 0.15 -0.1351793
v -0.1849118 0.135 -0.1501793
v -0.1999118 0.135 -0.1351793
v -0.1999118 0.1051656 -0.1351793
v -0.1849118 0.1051656 -0.1501793
v 0.1849118 -3.337861E-08 0.1351793
v 0.1999118 0.01499997 0.1351793
v 0.1999118 0.01499997 -0.1351793
v 0.1849118 -3.337861E-08 -0.1351793
v 0.1849118 0.15 -0.1351793
v 0.1999118 0.135 -0.1351793
v 0.1999118 0.135 0.1351793
v 0.1849118 0.15 0.1351793
v -0.1849118 -3.337861E-08 0.1351793
v -0.1849118 0.01499997 0.1501793
v 0.1849118 0.01499997 0.1501793
v 0.1849118 -3.337861E-08 0.1351793
v 0.1849118 0.15 0.1351793
v 0.1849118 0.135 0.1501793
v -0.1849118 0.135 0.1501793
v -0.1849118 0.15 0.1351793
v 0.1849118 0.135 0.1501793
v 0.1999118 0.135 0.1351793
v 0.1999118 0.1051656 0.1351793
v 0.1849118 0.1051656 0.1501793
v 0.1849118 0.0994838 0.1476005
v 0.1999118 0.0994838 0.1326005
v 0.1999118 0.01499997 0.1351793
v 0.1849118 0.01499997 0.1501793
v 0.1849118 0.0994838 -0.1501793
v 0.1999118 0.1051656 -0.1351793
v 0.1849118 0.1051656 -0.1501793
v 0.1999118 0.0994838 -0.1351793
v 0.1849118 0.01499997 -0.1501793
v 0.1999118 0.01499997 -0.1351793
v 0.1849118 0.0994838 -0.1501793
v -0.1999118 0.0994838 -0.1351793
v -0.1849118 0.0994838 -0.1501793
v -0.1849118 0.1051656 -0.1501793
v -0.1999118 0.1051656 -0.1351793
v -0.1849118 0.0994838 0.1476005
v -0.1999118 0.0994838 0.1326005
v -0.1999118 0.1051656 0.1351793
v -0.1849118 0.1051656 0.1501793
v -0.1999118 0.0994838 -0.1351793
v -0.1999118 0.01499997 0.1351793
v -0.1999118 0.01499997 -0.1351793
v -0.1999118 0.0994838 0.1326005
v -0.1999118 0.1051656 -0.1351793
v -0.1999118 0.1051656 0.1351793
v -0.1524723 0.08301184 0.157025
v -0.1524723 0.08301184 0.1466097
v -0.1524723 0.1169884 0.1466097
v -0.1524723 0.1169884 0.157025
v -0.1286045 0.08301184 0.1466097
v -0.1286045 0.08301184 0.157025
v -0.1286045 0.1169884 0.157025
v -0.1286045 0.1169884 0.1466097
v -0.1286045 0.08301184 0.157025
v -0.1524723 0.08301184 0.157025
v -0.1524723 0.1169884 0.157025
v -0.1286045 0.1169884 0.157025
v -0.1524723 0.08301184 0.1466097
v -0.1524723 0.08301184 0.157025
v -0.1286045 0.08301184 0.157025
v -0.1286045 0.08301184 0.1466097
v -0.1286045 0.1169884 0.1466097
v -0.1286045 0.1169884 0.157025
v -0.1524723 0.1169884 0.157025
v -0.1524723 0.1169884 0.1466097
v 0.1176335 0.08301184 0.157025
v 0.1176335 0.08301184 0.1466097
v 0.1176335 0.1169884 0.1466097
v 0.1176335 0.1169884 0.157025
v 0.1415013 0.08301184 0.1466097
v 0.1415013 0.08301184 0.157025
v 0.1415013 0.1169884 0.157025
v 0.1415013 0.1169884 0.1466097
v 0.1415013 0.08301184 0.157025
v 0.1176335 0.08301184 0.157025
v 0.1176335 0.1169884 0.157025
v 0.1415013 0.1169884 0.157025
v 0.1176335 0.08301184 0.1466097
v 0.1176335 0.08301184 0.157025
v 0.1415013 0.08301184 0.157025
v 0.1415013 0.08301184 0.1466097
v 0.1415013 0.1169884 0.1466097
v 0.1415013 0.1169884 0.157025
v 0.1176335 0.1169884 0.157025
v 0.1176335 0.1169884 0.1466097
v -0.1849118 0.01499997 0.1501793
v -0.1999118 0.01499997 0.1351793
v -0.1999118 0.0994838 0.1326005
v -0.1849118 0.0994838 0.1476005
v -0.1999118 0.01499997 -0.1351793
v -0.1849118 0.01499997 -0.1501793
v -0.1849118 0.0994838 -0.1501793
v -0.1999118 0.0994838 -0.1351793
v 0.1849118 0.1051656 0.1501793
v 0.1999118 0.1051656 0.1351793
v 0.1999118 0.0994838 0.1326005
v 0.1849118 0.0994838 0.1476005
v -0.1849118 0.1051656 0.1501793
v 0.1849118 0.1051656 0.1501793
v 0.1849118 0.0994838 0.1476005
v -0.1849118 0.0994838 0.1476005
v 0.05937718 0.09408883 0.1968775
v 0.05937718 0.06408883 0.1968775
v -0.05937718 0.06408883 0.1968775
v -0.05937718 0.09408883 0.1968775
v -0.05937718 0.09408883 0.1968775
v -0.05937718 0.06408883 0.1968775
v -0.08570498 0.06408883 0.1476005
v -0.08570498 0.09408883 0.1476005
v 0.05937718 0.06408883 0.1968775
v 0.05937718 0.09408883 0.1968775
v 0.08570498 0.09408883 0.1476005
v 0.08570498 0.06408883 0.1476005
v 0.04654284 0.09408883 0.1786648
v 0.05937718 0.09408883 0.1968775
v -0.05937718 0.09408883 0.1968775
v -0.04654284 0.09408883 0.1786648
v -0.08570498 0.09408883 0.1476005
v -0.06110666 0.09408883 0.1476001
v -0.04654284 0.06408883 0.1786648
v -0.05937718 0.06408883 0.1968775
v 0.05937718 0.06408883 0.1968775
v 0.04654284 0.06408883 0.1786648
v -0.06110666 0.06408883 0.1476001
v -0.08570498 0.06408883 0.1476005
v -0.05937718 0.06408883 0.1968775
v -0.04654284 0.06408883 0.1786648
v 0.04654284 0.06408883 0.1786648
v 0.05937718 0.06408883 0.1968775
v 0.08570498 0.06408883 0.1476005
v 0.06110666 0.06408883 0.1476001
v 0.06110666 0.09408883 0.1476001
v 0.08570498 0.09408883 0.1476005
v 0.05937718 0.09408883 0.1968775
v 0.04654284 0.09408883 0.1786648
v -0.04654284 0.06408883 0.1786648
v -0.04654284 0.09408883 0.1786648
v -0.06110666 0.09408883 0.1476001
v -0.06110666 0.06408883 0.1476001
v 0.04654284 0.09408883 0.1786648
v -0.04654284 0.09408883 0.1786648
v -0.04654284 0.06408883 0.1786648
v 0.04654284 0.06408883 0.1786648
v 0.06110666 0.06408883 0.1476001
v 0.06110666 0.09408883 0.1476001
v 0.04654284 0.09408883 0.1786648
v 0.04654284 0.06408883 0.1786648

vn -0.5773497 -0.5773511 0.5773499
vn -0.5773497 -0.5773511 0.5773499
vn -0.5773497 -0.5773511 0.5773499
vn -0.5773491 0.5773515 0.5773503
vn -0.5773491 0.5773515 0.5773503
vn -0.5773491 0.5773515 0.5773503
vn -0.5773497 -0.5773511 -0.5773499
vn -0.5773497 -0.5773511 -0.5773499
vn -0.5773497 -0.5773511 -0.5773499
vn -0.5773491 0.5773515 -0.5773503
vn -0.5773491 0.5773515 -0.5773503
vn -0.5773491 0.5773515 -0.5773503
vn 0.5773497 -0.5773511 0.5773499
vn 0.5773497 -0.5773511 0.5773499
vn 0.5773497 -0.5773511 0.5773499
vn 0.5773491 0.5773515 0.5773503
vn 0.5773491 0.5773515 0.5773503
vn 0.5773491 0.5773515 0.5773503
vn 0.5773497 -0.5773511 -0.5773499
vn 0.5773497 -0.5773511 -0.5773499
vn 0.5773497 -0.5773511 -0.5773499
vn 0.5773491 0.5773515 -0.5773503
vn 0.5773491 0.5773515 -0.5773503
vn 0.5773491 0.5773515 -0.5773503
vn -1 0 0
vn -1 0 0
vn -1 0 0
vn -1 0 0
vn 0 0.03050923 0.9995345
vn 0 0.03050923 0.9995345
vn 0 0.03050923 0.9995345
vn 0 0.03050923 0.9995345
vn 0 -1 0
vn 0 -1 0
vn 0 -1 0
vn 0 -1 0
vn 0 0 1
vn 0 0 1
vn 0 0 1
vn 0 0 1
vn 3.486867E-07 1 0
vn 3.352944E-07 1 0
vn 3.352944E-07 1 0
vn 3.486867E-07 1 0
vn 3.486867E-07 1 0
vn -2.681103E-07 1 0
vn -2.681103E-07 1 0
vn 3.486867E-07 1 0
vn 0 1 0
vn 0 1 0
vn 0 1 0
vn 0 1 0
vn 1 0 0
vn 1 0 0
vn 1 0 0
vn 1 0 0
vn 0 1 0
vn 0 1 0
vn 0 1 0
vn 0 1 0
vn 0 1 0
vn 0 1 0
vn 0 1 0
vn 0 1 0
vn 0 1 0
vn 0 1 0
vn 0 1 0
vn 0 1 0
vn 0 1 0
vn 0 1 0
vn 0 1 0
vn 0 1 0
vn 0 0 -1
vn 0 0 -1
vn 0 0 -1
vn 0 0 -1
vn 0 0 -1
vn 0 0 -1
vn 1 0 0
vn 1 0 0
vn 1 0 0
vn 1 0 0
vn 1 0 0
vn 1 0 0
vn 0 0 -1
vn 0 0 -1
vn 0 0 -1
vn 0 0 -1
vn -0.7071068 -0.7071068 0
vn -0.7071068 -0.7071068 0
vn -0.7071068 -0.7071068 0
vn -0.7071068 -0.7071068 0
vn -0.7071069 0 0.7071066
vn -0.7071069 0 0.7071066
vn -0.7071069 0 0.7071066
vn -0.7071069 0 0.7071066
vn -0.707107 0.7071065 0
vn -0.707107 0.7071065 0
vn -0.707107 0.7071065 0
vn -0.707107 0.7071065 0
vn 0.7071069 0 -0.7071066
vn 0.7071069 0 -0.7071066
vn 0.7071069 0 -0.7071066
vn 0.7071069 0 -0.7071066
vn 0 -0.7071068 -0.7071066
vn 0 -0.7071068 -0.7071066
vn 0 -0.7071068 -0.7071066
vn 0 -0.7071068 -0.7071066
vn 0 0.7071068 -0.7071068
vn 0 0.7071068 -0.7071068
vn 0 0.7071068 -0.7071068
vn 0 0.7071068 -0.7071068
vn -0.7071069 0 -0.7071066
vn -0.7071069 0 -0.7071066
vn -0.7071069 0 -0.7071066
vn -0.7071069 0 -0.7071066
vn 0.7071068 -0.7071068 0
vn 0.7071068 -0.7071068 0
vn 0.7071068 -0.7071068 0
vn 0.7071068 -0.7071068 0
vn 0.707107 0.7071065 0
vn 0.707107 0.7071065 0
vn 0.707107 0.7071065 0
vn 0.707107 0.7071065 0
vn 0 -0.7071068 0.7071066
vn 0 -0.7071068 0.7071066
vn 0 -0.7071068 0.7071066
vn 0 -0.7071068 0.7071066
vn 0 0.7071068 0.7071068
vn 0 0.7071068 0.7071068
vn 0 0.7071068 0.7071068
vn 0 0.7071068 0.7071068
vn 0.7071069 0 0.7071066
vn 0.7071069 0 0.7071066
vn 0.7071069 0 0.7071066
vn 0.7071069 0 0.7071066
vn 0.7069423 0.02157832 0.706942
vn 0.7069423 0.02157832 0.706942
vn 0.7069423 0.02157832 0.706942
vn 0.7069423 0.02157832 0.706942
vn 0.7071068 0 -0.7071068
vn 0.7071068 0 -0.7071068
vn 0.7071068 0 -0.7071068
vn 0.7071068 0 -0.7071068
vn 0.7071069 0 -0.7071066
vn 0.7071069 0 -0.7071066
vn 0.7071069 0 -0.7071066
vn -0.7071068 0 -0.7071068
vn -0.7071068 0 -0.7071068
vn -0.7071068 0 -0.7071068
vn -0.7071068 0 -0.7071068
vn -0.6732842 -0.3055755 0.6732845
vn -0.6732842 -0.3055755 0.6732845
vn -0.6732842 -0.3055755 0.6732845
vn -0.6732842 -0.3055755 0.6732845
vn -1 0 0
vn -1 0 0
vn -1 0 0
vn -1 0 0
vn -1 0 0
vn -1 0 0
vn -1 0 0
vn -1 0 0
vn -1 0 0
vn -1 0 0
vn 1 0 0
vn 1 0 0
vn 1 0 0
vn 1 0 0
vn 0 0 1
vn 0 0 1
vn 0 0 1
vn 0 0 1
vn 0 -1 0
vn 0 -1 0
vn 0 -1 0
vn 0 -1 0
vn 0 1 0
vn 0 1 0
vn 0 1 0
vn 0 1 0
vn -1 0 0
vn -1 0 0
vn -1 0 0
vn -1 0 0
vn 1 0 0
vn 1 0 0
vn 1 0 0
vn 1 0 0
vn 0 0 1
vn 0 0 1
vn 0 0 1
vn 0 0 1
vn 0 -1 0
vn 0 -1 0
vn 0 -1 0
vn 0 -1 0
vn 0 1 0
vn 0 1 0
vn 0 1 0
vn 0 1 0
vn -0.7069423 0.02157832 0.706942
vn -0.7069423 0.02157832 0.706942
vn -0.7069423 0.02157832 0.706942
vn -0.7069423 0.02157832 0.706942
vn -0.7071069 0 -0.7071066
vn -0.7071069 0 -0.7071066
vn -0.7071069 0 -0.7071066
vn -0.7071069 0 -0.7071066
vn 0.6732842 -0.3055755 0.6732845
vn 0.6732842 -0.3055755 0.6732845
vn 0.6732842 -0.3055755 0.6732845
vn 0.6732842 -0.3055755 0.6732845
vn 0 -0.4132837 0.9106023
vn 0 -0.4132837 0.9106023
vn 0 -0.4132837 0.9106023
vn 0 -0.4132837 0.9106023
vn 0 0 1
vn 0 0 1
vn 0 0 1
vn 0 0 1
vn -0.8820053 0 0.4712394
vn -0.8820053 0 0.4712394
vn -0.8820053 0 0.4712394
vn -0.8820053 0 0.4712394
vn 0.8820053 0 0.4712394
vn 0.8820053 0 0.4712394
vn 0.8820053 0 0.4712394
vn 0.8820053 0 0.4712394
vn 0 1 0
vn 0 1 0
vn 0 1 0
vn 0 1 0
vn 0 1 0
vn 0 1 0
vn 0 -1 0
vn 0 -1 0
vn 0 -1 0
vn 0 -1 0
vn -2.482095E-07 -1 0
vn -2.482095E-07 -1 0
vn -2.482095E-07 -1 0
vn -2.482095E-07 -1 0
vn 2.482095E-07 -1 0
vn 2.482095E-07 -1 0
vn 2.482095E-07 -1 0
vn 2.482095E-07 -1 0
vn -4.96419E-07 1 0
vn -4.96419E-07 1 0
vn -4.96419E-07 1 0
vn -4.96419E-07 1 0
vn 0.9054336 0 -0.424488
vn 0.9054336 0 -0.424488
vn 0.9054336 0 -0.424488
vn 0.9054336 0 -0.424488
vn 0 0 -1
vn 0 0 -1
vn 0 0 -1
vn 0 0 -1
vn -0.9054336 0 -0.424488
vn -0.9054336 0 -0.424488
vn -0.9054336 0 -0.424488
vn -0.9054336 0 -0.424488

vt 0.1577413 0.5560861
vt 0.1584283 0.5569895
vt 0.160258 0.5557564
vt 0.1488613 0.5706158
vt 0.1472738 0.5721872
vt 0.1495807 0.5728233
vt 0.1618796 0.5209771
vt 0.162913 0.5215684
vt 0.1624102 0.5204902
vt 0.1503604 0.6082086
vt 0.1483106 0.6087956
vt 0.1497796 0.61026
vt 0.214187 0.557009
vt 0.2113755 0.5565565
vt 0.212761 0.5577385
vt 0.1983041 0.572563
vt 0.2003539 0.571976
vt 0.1988849 0.5705116
vt 0.2108683 0.5222111
vt 0.2102681 0.5230235
vt 0.2112867 0.5227872
vt 0.2013907 0.6085844
vt 0.1990839 0.6079484
vt 0.1998033 0.6101559
vt 0.143712 0.5704954
vt 0.1450775 0.6103669
vt 0.1483106 0.6087956
vt 0.1472738 0.5721872
vt 0.1533837 0.5650082
vt 0.2159824 0.5655506
vt 0.212761 0.5577385
vt 0.1584283 0.5569895
vt 0.162913 0.5215684
vt 0.160258 0.5557564
vt 0.2113755 0.5565565
vt 0.2102681 0.5230235
vt 0.2003835 0.5672846
vt 0.1472127 0.5672843
vt 0.1488613 0.5706158
vt 0.1988849 0.5705116
vt 0.1651405 0.0632714
vt 0.165255 0.07114637
vt 0.1713297 0.07114947
vt 0.1712235 0.06324029
vt 0.1650395 0.05719721
vt 0.1571034 0.05725026
vt 0.1572469 0.06333447
vt 0.1711224 0.05716574
vt 0.1649332 0.04928809
vt 0.1710079 0.04929113
vt 0.1791596 0.06318724
vt 0.1790161 0.0571031
vt 0.2049525 0.6102762
vt 0.203587 0.5704047
vt 0.2003539 0.571976
vt 0.2013907 0.6085844
vt 0.171134 0.5794551
vt 0.1633042 0.5874173
vt 0.1712403 0.5873643
vt 0.1495807 0.5728233
vt 0.1634477 0.5935015
vt 0.1983041 0.572563
vt 0.1503604 0.6082086
vt 0.1772087 0.5794582
vt 0.1773232 0.5873328
vt 0.1852169 0.5872701
vt 0.1713413 0.5934384
vt 0.1714558 0.6013134
vt 0.1775305 0.6013165
vt 0.1990839 0.6079484
vt 0.1853604 0.5933543
vt 0.1774243 0.5934073
vt 0.2141576 0.5148702
vt 0.1624102 0.5204902
vt 0.2108683 0.5222111
vt 0.1595797 0.5127057
vt 0.2148498 0.5138831
vt 0.1589888 0.5116357
vt 0.220993 0.5599532
vt 0.2112867 0.5227872
vt 0.214187 0.557009
vt 0.2187013 0.5194737
vt 0.2219559 0.5611803
vt 0.2197093 0.5187761
vt 0.148281 0.613487
vt 0.2014518 0.6134873
vt 0.1998033 0.6101559
vt 0.1497796 0.61026
vt 0.162913 0.5215684
vt 0.1618796 0.5209771
vt 0.1577413 0.5560861
vt 0.160258 0.5557564
vt 0.1472127 0.5672843
vt 0.143712 0.5704954
vt 0.1472738 0.5721872
vt 0.1488613 0.5706158
vt 0.1495807 0.5728233
vt 0.1472738 0.5721872
vt 0.1483106 0.6087956
vt 0.1503604 0.6082086
vt 0.2013907 0.6085844
vt 0.1998033 0.6101559
vt 0.2014518 0.6134873
vt 0.2049525 0.6102762
vt 0.2102681 0.5230235
vt 0.2108683 0.5222111
vt 0.1624102 0.5204902
vt 0.162913 0.5215684
vt 0.1503604 0.6082086
vt 0.1497796 0.61026
vt 0.1998033 0.6101559
vt 0.1990839 0.6079484
vt 0.1497796 0.61026
vt 0.1483106 0.6087956
vt 0.1450775 0.6103669
vt 0.148281 0.613487
vt 0.2113755 0.5565565
vt 0.214187 0.557009
vt 0.2112867 0.5227872
vt 0.2102681 0.5230235
vt 0.1990839 0.6079484
vt 0.2013907 0.6085844
vt 0.2003539 0.571976
vt 0.1983041 0.572563
vt 0.160258 0.5557564
vt 0.1584283 0.5569895
vt 0.212761 0.5577385
vt 0.2113755 0.5565565
vt 0.1983041 0.572563
vt 0.1988849 0.5705116
vt 0.1488613 0.5706158
vt 0.1495807 0.5728233
vt 0.1988849 0.5705116
vt 0.2003539 0.571976
vt 0.203587 0.5704047
vt 0.2003835 0.5672846
vt 0.2159824 0.5655506
vt 0.220993 0.5599532
vt 0.214187 0.557009
vt 0.212761 0.5577385
vt 0.2141576 0.5148702
vt 0.2197093 0.5187761
vt 0.2148498 0.5138831
vt 0.2187013 0.5194737
vt 0.2108683 0.5222111
vt 0.2112867 0.5227872
vt 0.2141576 0.5148702
vt 0.1544821 0.5167876
vt 0.1595797 0.5127057
vt 0.1589888 0.5116357
vt 0.1535455 0.5159426
vt 0.1533837 0.5650082
vt 0.1472406 0.5584549
vt 0.143712 0.5599576
vt 0.1526308 0.5669852
vt 0.1544821 0.5167876
vt 0.1577413 0.5560861
vt 0.1618796 0.5209771
vt 0.1472406 0.5584549
vt 0.1535455 0.5159426
vt 0.143712 0.5599576
vt 0.2044206 0.05245191
vt 0.203516 0.05116093
vt 0.203516 0.05737334
vt 0.2044214 0.05663943
vt 0.2078173 0.05223441
vt 0.2069118 0.05296832
vt 0.2069126 0.05715579
vt 0.2078173 0.05844682
vt 0.2069118 0.05296832
vt 0.2044206 0.05245191
vt 0.2044214 0.05663943
vt 0.2069126 0.05715579
vt 0.203516 0.05116093
vt 0.2044206 0.05245191
vt 0.2069118 0.05296832
vt 0.2078173 0.05223441
vt 0.2078173 0.05844682
vt 0.2069126 0.05715579
vt 0.2044214 0.05663943
vt 0.203516 0.05737334
vt 0.2001237 0.05221266
vt 0.1993996 0.05157185
vt 0.1990509 0.05725336
vt 0.1999729 0.05652136
vt 0.2032168 0.05116093
vt 0.202369 0.05149901
vt 0.2024507 0.05712485
vt 0.2032168 0.05881816
vt 0.202369 0.05149901
vt 0.2001237 0.05221266
vt 0.1999729 0.05652136
vt 0.2024507 0.05712485
vt 0.1993996 0.05157185
vt 0.2001237 0.05221266
vt 0.202369 0.05149901
vt 0.2032168 0.05116093
vt 0.2032168 0.05881816
vt 0.2024507 0.05712485
vt 0.1999729 0.05652136
vt 0.1990509 0.05725336
vt 0.1584283 0.5569895
vt 0.1577413 0.5560861
vt 0.1472406 0.5584549
vt 0.1533837 0.5650082
vt 0.1618796 0.5209771
vt 0.1624102 0.5204902
vt 0.1595797 0.5127057
vt 0.1544821 0.5167876
vt 0.2166295 0.5669852
vt 0.2219559 0.5611803
vt 0.220993 0.5599532
vt 0.2159824 0.5655506
vt 0.1526308 0.5669852
vt 0.2166295 0.5669852
vt 0.2159824 0.5655506
vt 0.1533837 0.5650082
vt 0.05587155 0.7080786
vt 0.05574167 0.704775
vt 0.04227269 0.7046806
vt 0.04224268 0.7080074
vt 0.04224268 0.7080074
vt 0.04227269 0.7046806
vt 0.03545766 0.7042333
vt 0.0356946 0.708244
vt 0.05574167 0.704775
vt 0.05587155 0.7080786
vt 0.062636 0.7080374
vt 0.06222194 0.7040437
vt 0.05563198 0.7104504
vt 0.05587155 0.7080786
vt 0.04224268 0.7080074
vt 0.04258035 0.7104083
vt 0.0356946 0.708244
vt 0.03761017 0.7109365
vt 0.04265027 0.7023199
vt 0.04227269 0.7046806
vt 0.05574167 0.704775
vt 0.05527733 0.7024285
vt 0.03750917 0.701397
vt 0.03545766 0.7042333
vt 0.04227269 0.7046806
vt 0.04265027 0.7023199
vt 0.05527733 0.7024285
vt 0.05574167 0.704775
vt 0.06222194 0.7040437
vt 0.06016409 0.701397
vt 0.06072682 0.7108922
vt 0.062636 0.7080374
vt 0.05587155 0.7080786
vt 0.05563198 0.7104504
vt 0.04271978 0.7146466
vt 0.04258035 0.7104083
vt 0.03761017 0.7109365
vt 0.03798562 0.715076
vt 0.05563198 0.7104504
vt 0.04258035 0.7104083
vt 0.04271978 0.7146466
vt 0.05549873 0.7147201
vt 0.06035835 0.7151415
vt 0.06072682 0.7108922
vt 0.05563198 0.7104504
vt 0.05549873 0.7147201

usemtl LOW-POLY-COLORS
usemap LOW-POLY-COLORS
f 2/2/2 1/1/1 3/3/3
f 5/5/5 4/4/4 6/6/6
f 8/8/8 7/7/7 9/9/9
f 11/11/11 10/10/10 12/12/12
f 14/14/14 13/13/13 15/15/15
f 17/17/17 16/16/16 18/18/18
f 20/20/20 19/19/19 21/21/21
f 23/23/23 22/22/22 24/24/24
f 26/26/26 25/25/25 27/27/27
f 27/27/27 25/25/25 28/28/28
f 30/30/30 29/29/29 31/31/31
f 31/31/31 29/29/29 32/32/32
f 34/34/34 33/33/33 35/35/35
f 35/35/35 33/33/33 36/36/36
f 38/38/38 37/37/37 39/39/39
f 39/39/39 37/37/37 40/40/40
f 42/42/42 41/41/41 43/43/43
f 43/43/43 41/41/41 44/44/44
f 41/41/41 45/45/45 44/44/44
f 41/41/41 46/46/46 45/45/45
f 47/47/47 46/46/46 41/41/41
f 44/44/44 45/45/45 48/48/48
f 45/45/45 49/49/49 48/48/48
f 48/48/48 49/49/49 50/50/50
f 44/44/44 48/48/48 51/51/51
f 51/51/51 48/48/48 52/52/52
f 54/54/54 53/53/53 55/55/55
f 55/55/55 53/53/53 56/56/56
f 58/58/58 57/57/57 59/59/59
f 60/60/60 57/57/57 58/58/58
f 61/61/61 60/60/60 58/58/58
f 60/60/60 62/62/62 57/57/57
f 63/63/63 60/60/60 61/61/61
f 57/57/57 62/62/62 64/64/64
f 62/62/62 65/65/65 64/64/64
f 66/66/66 65/65/65 62/62/62
f 61/61/61 67/67/67 63/63/63
f 63/63/63 67/67/67 68/68/68
f 69/69/69 63/63/63 68/68/68
f 62/62/62 70/70/70 66/66/66
f 70/70/70 63/63/63 69/69/69
f 66/66/66 70/70/70 71/71/71
f 69/69/69 72/72/72 70/70/70
f 70/70/70 72/72/72 71/71/71
f 74/74/74 73/73/73 75/75/75
f 76/76/76 73/73/73 74/74/74
f 76/76/76 77/77/77 73/73/73
f 78/78/78 77/77/77 76/76/76
f 80/80/80 79/79/79 81/81/81
f 82/82/82 79/79/79 80/80/80
f 82/82/82 83/83/83 79/79/79
f 84/84/84 83/83/83 82/82/82
f 86/86/86 85/85/85 87/87/87
f 87/87/87 85/85/85 88/88/88
f 90/90/90 89/89/89 91/91/91
f 91/91/91 89/89/89 92/92/92
f 94/94/94 93/93/93 95/95/95
f 95/95/95 93/93/93 96/96/96
f 98/98/98 97/97/97 99/99/99
f 99/99/99 97/97/97 100/100/100
f 102/102/102 101/101/101 103/103/103
f 103/103/103 101/101/101 104/104/104
f 106/106/106 105/105/105 107/107/107
f 107/107/107 105/105/105 108/108/108
f 110/110/110 109/109/109 111/111/111
f 111/111/111 109/109/109 112/112/112
f 114/114/114 113/113/113 115/115/115
f 115/115/115 113/113/113 116/116/116
f 118/118/118 117/117/117 119/119/119
f 119/119/119 117/117/117 120/120/120
f 122/122/122 121/121/121 123/123/123
f 123/123/123 121/121/121 124/124/124
f 126/126/126 125/125/125 127/127/127
f 127/127/127 125/125/125 128/128/128
f 130/130/130 129/129/129 131/131/131
f 131/131/131 129/129/129 132/132/132
f 134/134/134 133/133/133 135/135/135
f 135/135/135 133/133/133 136/136/136
f 138/138/138 137/137/137 139/139/139
f 139/139/139 137/137/137 140/140/140
f 142/142/142 141/141/141 143/143/143
f 144/144/144 141/141/141 142/142/142
f 146/146/146 145/145/145 144/144/144
f 144/144/144 145/145/145 147/147/147
f 149/149/149 148/148/148 150/150/150
f 150/150/150 148/148/148 151/151/151
f 153/153/153 152/152/152 154/154/154
f 154/154/154 152/152/152 155/155/155
f 157/157/157 156/156/156 158/158/158
f 159/159/159 156/156/156 157/157/157
f 159/159/159 160/160/160 156/156/156
f 161/161/161 160/160/160 159/159/159
f 163/163/163 162/162/162 164/164/164
f 164/164/164 162/162/162 165/165/165
f 167/167/167 166/166/166 168/168/168
f 168/168/168 166/166/166 169/169/169
f 171/171/171 170/170/170 172/172/172
f 172/172/172 170/170/170 173/173/173
f 175/175/175 174/174/174 176/176/176
f 176/176/176 174/174/174 177/177/177
f 179/179/179 178/178/178 180/180/180
f 180/180/180 178/178/178 181/181/181
f 183/183/183 182/182/182 184/184/184
f 184/184/184 182/182/182 185/185/185
f 187/187/187 186/186/186 188/188/188
f 188/188/188 186/186/186 189/189/189
f 191/191/191 190/190/190 192/192/192
f 192/192/192 190/190/190 193/193/193
f 195/195/195 194/194/194 196/196/196
f 196/196/196 194/194/194 197/197/197
f 199/199/199 198/198/198 200/200/200
f 200/200/200 198/198/198 201/201/201
f 203/203/203 202/202/202 204/204/204
f 204/204/204 202/202/202 205/205/205
f 207/207/207 206/206/206 208/208/208
f 208/208/208 206/206/206 209/209/209
f 211/211/211 210/210/210 212/212/212
f 212/212/212 210/210/210 213/213/213
f 215/215/215 214/214/214 216/216/216
f 216/216/216 214/214/214 217/217/217
f 219/219/219 218/218/218 220/220/220
f 220/220/220 218/218/218 221/221/221
f 223/223/223 222/222/222 224/224/224
f 224/224/224 222/222/222 225/225/225
f 227/227/227 226/226/226 228/228/228
f 228/228/228 226/226/226 229/229/229
f 231/231/231 230/230/230 232/232/232
f 232/232/232 230/230/230 233/233/233
f 232/232/232 233/233/233 234/234/234
f 234/234/234 233/233/233 235/235/235
f 237/237/237 236/236/236 238/238/238
f 238/238/238 236/236/236 239/239/239
f 241/241/241 240/240/240 242/242/242
f 242/242/242 240/240/240 243/243/243
f 245/245/245 244/244/244 246/246/246
f 246/246/246 244/244/244 247/247/247
f 249/249/249 248/248/248 250/250/250
f 250/250/250 248/248/248 251/251/251
f 253/253/253 252/252/252 254/254/254
f 254/254/254 252/252/252 255/255/255
f 257/257/257 256/256/256 258/258/258
f 258/258/258 256/256/256 259/259/259
f 261/261/261 260/260/260 262/262/262
f 262/262/262 260/260/260 263/263/263
