mtllib ./microphone_11.mtl
g microphone
v -2.687893E-05 0.03103956 -0.05365848
v 0.01529441 0.01532129 0.1000691
v -2.687897E-05 0.02163337 0.1001189
v 0.02192141 0.02194828 -0.05365847
v -2.687895E-05 0.03352575 -0.09864439
v 0.02367941 0.02370629 -0.09864439
v 0.03101268 5.857838E-10 -0.05365848
v 0.01529441 -0.01532129 0.1000691
v 0.02160649 3.740248E-10 0.1001189
v 0.02192141 -0.02194828 -0.05365847
v 0.03349887 5.973155E-10 -0.09864439
v 0.02367941 -0.02370629 -0.09864439
v -2.687651E-05 -0.03103956 -0.05365848
v -0.01534817 -0.01532129 0.1000691
v -2.687654E-05 -0.02163337 0.1001189
v -0.02197517 -0.02194829 -0.05365847
v -2.68765E-05 -0.03352575 -0.09864439
v -0.02373317 -0.02370629 -0.09864439
v -0.03106644 -1.041005E-09 -0.05365848
v -0.01534817 0.01532129 0.1000691
v -0.02166025 -7.478267E-10 0.1001189
v -0.02197517 0.02194828 -0.05365847
v -0.03355264 -1.154903E-09 -0.09864439
v -0.02373317 0.02370629 -0.09864439
v 0.02192141 0.02194828 -0.05365847
v 0.02160649 3.740248E-10 0.1001189
v 0.01529441 0.01532129 0.1000691
v 0.03101268 5.857838E-10 -0.05365848
v 0.02367941 0.02370629 -0.09864439
v 0.03349887 5.973155E-10 -0.09864439
v 0.02192141 -0.02194828 -0.05365847
v -2.687654E-05 -0.02163337 0.1001189
v 0.01529441 -0.01532129 0.1000691
v -2.687651E-05 -0.03103956 -0.05365848
v 0.02367941 -0.02370629 -0.09864439
v -2.68765E-05 -0.03352575 -0.09864439
v -0.02197517 -0.02194829 -0.05365847
v -0.02166025 -7.478267E-10 0.1001189
v -0.01534817 -0.01532129 0.1000691
v -0.03106644 -1.041005E-09 -0.05365848
v -0.02373317 -0.02370629 -0.09864439
v -0.03355264 -1.154903E-09 -0.09864439
v -0.02197517 0.02194828 -0.05365847
v -2.687897E-05 0.02163337 0.1001189
v -0.01534817 0.01532129 0.1000691
v -2.687893E-05 0.03103956 -0.05365848
v -0.02373317 0.02370629 -0.09864439
v -2.687895E-05 0.03352575 -0.09864439
v -2.687905E-05 -2.099098E-10 0.1073113
v 0.02160649 3.740248E-10 0.1001189
v 0.01529441 -0.01532129 0.1000691
v -2.687654E-05 -0.02163337 0.1001189
v -0.02166025 -7.478267E-10 0.1001189
v -2.687905E-05 -2.099098E-10 0.1073113
v -2.687654E-05 -0.02163337 0.1001189
v -0.01534817 -0.01532129 0.1000691
v -2.687897E-05 0.02163337 0.1001189
v 0.01529441 0.01532129 0.1000691
v 0.02160649 3.740248E-10 0.1001189
v -2.687905E-05 -2.099098E-10 0.1073113
v -0.01534817 0.01532129 0.1000691
v -2.687897E-05 0.02163337 0.1001189
v -2.687905E-05 -2.099098E-10 0.1073113
v -0.02166025 -7.478267E-10 0.1001189
v 0.02367941 0.02370629 -0.09864439
v 0.03535715 0.03538402 -0.125791
v 0.05001369 9.040121E-10 -0.125791
v 0.03349887 5.973155E-10 -0.09864439
v 0.02367941 -0.02370629 -0.09864439
v 0.03535715 -0.03538402 -0.125791
v -2.687651E-05 -0.05004057 -0.125791
v -2.68765E-05 -0.03352575 -0.09864439
v -0.02373317 -0.02370629 -0.09864439
v -0.03541091 -0.03538403 -0.125791
v -0.05006745 -1.762792E-09 -0.125791
v -0.03355264 -1.154903E-09 -0.09864439
v -0.02373317 0.02370629 -0.09864439
v -0.03541091 0.03538403 -0.125791
v -2.687898E-05 0.05004057 -0.125791
v -2.687895E-05 0.03352575 -0.09864439
v -2.687895E-05 0.03352575 -0.09864439
v -2.687898E-05 0.05004057 -0.125791
v 0.03535715 0.03538402 -0.125791
v 0.02367941 0.02370629 -0.09864439
v 0.03349887 5.973155E-10 -0.09864439
v 0.05001369 9.040121E-10 -0.125791
v 0.03535715 -0.03538402 -0.125791
v 0.02367941 -0.02370629 -0.09864439
v -2.68765E-05 -0.03352575 -0.09864439
v -2.687651E-05 -0.05004057 -0.125791
v -0.03541091 -0.03538403 -0.125791
v -0.02373317 -0.02370629 -0.09864439
v -0.03355264 -1.154903E-09 -0.09864439
v -0.05006745 -1.762792E-09 -0.125791
v -0.03541091 0.03538403 -0.125791
v -0.02373317 0.02370629 -0.09864439
v 0.03545998 0.03548686 -0.1604583
v 0.02427285 0.02429972 -0.1867146
v 0.03431296 5.020832E-10 -0.1867343
v 0.05015912 9.075617E-10 -0.1604583
v 0.03545998 -0.03548685 -0.1604583
v 0.02427285 -0.02429973 -0.1867146
v -2.687651E-05 -0.03433985 -0.1867343
v -2.687651E-05 -0.05018599 -0.1604583
v -0.03551374 -0.03548685 -0.1604583
v -0.02432661 -0.02429974 -0.1867146
v -0.03436673 -1.352497E-09 -0.1867343
v -0.05021288 -1.828147E-09 -0.1604583
v -0.03551374 0.03548686 -0.1604583
v -0.02432661 0.02429973 -0.1867146
v -2.687904E-05 0.03433984 -0.1867343
v -2.687898E-05 0.05018599 -0.1604583
v -2.687898E-05 0.05018599 -0.1604583
v -2.687904E-05 0.03433984 -0.1867343
v 0.02427285 0.02429972 -0.1867146
v 0.03545998 0.03548686 -0.1604583
v 0.05015912 9.075617E-10 -0.1604583
v 0.03431296 5.020832E-10 -0.1867343
v 0.02427285 -0.02429973 -0.1867146
v 0.03545998 -0.03548685 -0.1604583
v -2.687651E-05 -0.05018599 -0.1604583
v -2.687651E-05 -0.03433985 -0.1867343
v -0.02432661 -0.02429974 -0.1867146
v -0.03551374 -0.03548685 -0.1604583
v -0.05021288 -1.828147E-09 -0.1604583
v -0.03436673 -1.352497E-09 -0.1867343
v -0.02432661 0.02429973 -0.1867146
v -0.03551374 0.03548686 -0.1604583
v 0.03431296 5.020832E-10 -0.1867343
v -2.687904E-05 8.221546E-10 -0.1924329
v -2.687651E-05 -0.03433985 -0.1867343
v 0.02427285 -0.02429973 -0.1867146
v -2.687904E-05 0.03433984 -0.1867343
v -2.687904E-05 8.221546E-10 -0.1924329
v 0.03431296 5.020832E-10 -0.1867343
v 0.02427285 0.02429972 -0.1867146
v -0.02432661 -0.02429974 -0.1867146
v -2.687651E-05 -0.03433985 -0.1867343
v -2.687904E-05 8.221546E-10 -0.1924329
v -0.03436673 -1.352497E-09 -0.1867343
v -0.05006745 -1.762792E-09 -0.125791
v -0.05021288 -1.828147E-09 -0.1604583
v -0.03551374 0.03548686 -0.1604583
v -0.03541091 0.03538403 -0.125791
v -2.687651E-05 -0.05004057 -0.125791
v -2.687651E-05 -0.05018599 -0.1604583
v -0.03551374 -0.03548685 -0.1604583
v -0.03541091 -0.03538403 -0.125791
v 0.05001369 9.040121E-10 -0.125791
v 0.05015912 9.075617E-10 -0.1604583
v 0.03545998 -0.03548685 -0.1604583
v 0.03535715 -0.03538402 -0.125791
v -2.687898E-05 0.05004057 -0.125791
v -2.687898E-05 0.05018599 -0.1604583
v 0.03545998 0.03548686 -0.1604583
v 0.03535715 0.03538402 -0.125791
v -0.03541091 0.03538403 -0.125791
v -0.03551374 0.03548686 -0.1604583
v -2.687898E-05 0.05018599 -0.1604583
v -2.687898E-05 0.05004057 -0.125791
v -0.03541091 -0.03538403 -0.125791
v -0.03551374 -0.03548685 -0.1604583
v -0.05021288 -1.828147E-09 -0.1604583
v -0.05006745 -1.762792E-09 -0.125791
v 0.03535715 -0.03538402 -0.125791
v 0.03545998 -0.03548685 -0.1604583
v -2.687651E-05 -0.05018599 -0.1604583
v -2.687651E-05 -0.05004057 -0.125791
v -0.02432661 0.02429973 -0.1867146
v -0.03436673 -1.352497E-09 -0.1867343
v -2.687904E-05 8.221546E-10 -0.1924329
v -2.687904E-05 0.03433984 -0.1867343
v 0.03535715 0.03538402 -0.125791
v 0.03545998 0.03548686 -0.1604583
v 0.05015912 9.075617E-10 -0.1604583
v 0.05001369 9.040121E-10 -0.125791

vn 0.3814172 0.9226852 0.05632831
vn 0.3814172 0.9226852 0.05632831
vn 0.3814172 0.9226852 0.05632831
vn 0.3814172 0.9226852 0.05632831
vn 0.3821857 0.9226775 0.0509927
vn 0.3821857 0.9226775 0.0509927
vn 0.9226853 -0.3814171 0.05632831
vn 0.9226853 -0.3814171 0.05632831
vn 0.9226853 -0.3814171 0.05632831
vn 0.9226853 -0.3814171 0.05632831
vn 0.9226776 -0.3821856 0.05099267
vn 0.9226776 -0.3821856 0.05099267
vn -0.381417 -0.9226853 0.05632832
vn -0.381417 -0.9226853 0.05632832
vn -0.381417 -0.9226853 0.05632832
vn -0.381417 -0.9226853 0.05632832
vn -0.3821855 -0.9226776 0.05099266
vn -0.3821855 -0.9226776 0.05099266
vn -0.9226853 0.3814171 0.0563283
vn -0.9226853 0.3814171 0.0563283
vn -0.9226853 0.3814171 0.0563283
vn -0.9226853 0.3814171 0.0563283
vn -0.9226777 0.3821855 0.05099275
vn -0.9226777 0.3821855 0.05099275
vn 0.9226852 0.3814172 0.0563283
vn 0.9226852 0.3814172 0.0563283
vn 0.9226852 0.3814172 0.0563283
vn 0.9226852 0.3814172 0.0563283
vn 0.9226776 0.3821856 0.0509927
vn 0.9226776 0.3821856 0.0509927
vn 0.3814174 -0.9226852 0.05632833
vn 0.3814174 -0.9226852 0.05632833
vn 0.3814174 -0.9226852 0.05632833
vn 0.3814174 -0.9226852 0.05632833
vn 0.3821857 -0.9226775 0.05099266
vn 0.3821857 -0.9226775 0.05099266
vn -0.9226853 -0.3814171 0.0563283
vn -0.9226853 -0.3814171 0.0563283
vn -0.9226853 -0.3814171 0.0563283
vn -0.9226853 -0.3814171 0.0563283
vn -0.9226777 -0.3821855 0.05099269
vn -0.9226777 -0.3821855 0.05099269
vn -0.3814172 0.9226852 0.05632832
vn -0.3814172 0.9226852 0.05632832
vn -0.3814172 0.9226852 0.05632832
vn -0.3814172 0.9226852 0.05632832
vn -0.3821856 0.9226776 0.05099271
vn -0.3821856 0.9226776 0.05099271
vn 0.2241567 -0.2241576 0.9484234
vn 0.2241567 -0.2241576 0.9484234
vn 0.2241567 -0.2241576 0.9484234
vn 0.2241567 -0.2241576 0.9484234
vn -0.2241571 -0.2241569 0.9484236
vn -0.2241571 -0.2241569 0.9484236
vn -0.2241571 -0.2241569 0.9484236
vn -0.2241571 -0.2241569 0.9484236
vn 0.2241571 0.2241573 0.9484234
vn 0.2241571 0.2241573 0.9484234
vn 0.2241571 0.2241573 0.9484234
vn 0.2241571 0.2241573 0.9484234
vn -0.2241571 0.2241571 0.9484236
vn -0.2241571 0.2241571 0.9484236
vn -0.2241571 0.2241571 0.9484236
vn -0.2241571 0.2241571 0.9484236
vn 0.8053861 0.333602 0.4899623
vn 0.8053861 0.333602 0.4899623
vn 0.8053861 0.333602 0.4899623
vn 0.8053861 0.333602 0.4899623
vn 0.3336019 -0.8053861 0.4899621
vn 0.3336019 -0.8053861 0.4899621
vn 0.3336019 -0.8053861 0.4899621
vn 0.3336019 -0.8053861 0.4899621
vn -0.8053861 -0.3336019 0.4899622
vn -0.8053861 -0.3336019 0.4899622
vn -0.8053861 -0.3336019 0.4899622
vn -0.8053861 -0.3336019 0.4899622
vn -0.3336018 0.8053861 0.4899623
vn -0.3336018 0.8053861 0.4899623
vn -0.3336018 0.8053861 0.4899623
vn -0.3336018 0.8053861 0.4899623
vn 0.333602 0.8053859 0.4899624
vn 0.333602 0.8053859 0.4899624
vn 0.333602 0.8053859 0.4899624
vn 0.333602 0.8053859 0.4899624
vn 0.8053861 -0.3336019 0.4899622
vn 0.8053861 -0.3336019 0.4899622
vn 0.8053861 -0.3336019 0.4899622
vn 0.8053861 -0.3336019 0.4899622
vn -0.3336018 -0.8053861 0.4899623
vn -0.3336018 -0.8053861 0.4899623
vn -0.3336018 -0.8053861 0.4899623
vn -0.3336018 -0.8053861 0.4899623
vn -0.8053861 0.3336018 0.4899622
vn -0.8053861 0.3336018 0.4899622
vn -0.8053861 0.3336018 0.4899622
vn -0.8053861 0.3336018 0.4899622
vn 0.8072091 0.3341779 -0.4865579
vn 0.8072091 0.3341779 -0.4865579
vn 0.8072091 0.3341779 -0.4865579
vn 0.8072091 0.3341779 -0.4865579
vn 0.3341781 -0.8072091 -0.4865578
vn 0.3341781 -0.8072091 -0.4865578
vn 0.3341781 -0.8072091 -0.4865578
vn 0.3341781 -0.8072091 -0.4865578
vn -0.8072091 -0.334178 -0.4865578
vn -0.8072091 -0.334178 -0.4865578
vn -0.8072091 -0.334178 -0.4865578
vn -0.8072091 -0.334178 -0.4865578
vn -0.3341779 0.807209 -0.4865581
vn -0.3341779 0.807209 -0.4865581
vn -0.3341779 0.807209 -0.4865581
vn -0.3341779 0.807209 -0.4865581
vn 0.3341779 0.8072091 -0.4865579
vn 0.3341779 0.8072091 -0.4865579
vn 0.3341779 0.8072091 -0.4865579
vn 0.3341779 0.8072091 -0.4865579
vn 0.8072093 -0.334178 -0.4865578
vn 0.8072093 -0.334178 -0.4865578
vn 0.8072093 -0.334178 -0.4865578
vn 0.8072093 -0.334178 -0.4865578
vn -0.3341779 -0.8072093 -0.4865577
vn -0.3341779 -0.8072093 -0.4865577
vn -0.3341779 -0.8072093 -0.4865577
vn -0.3341779 -0.8072093 -0.4865577
vn -0.8072091 0.334178 -0.4865577
vn -0.8072091 0.334178 -0.4865577
vn -0.8072091 0.334178 -0.4865577
vn -0.8072091 0.334178 -0.4865577
vn 0.1160663 -0.1160665 -0.9864365
vn 0.1160663 -0.1160665 -0.9864365
vn 0.1160663 -0.1160665 -0.9864365
vn 0.1160663 -0.1160665 -0.9864365
vn 0.1160663 0.1160665 -0.9864365
vn 0.1160663 0.1160665 -0.9864365
vn 0.1160663 0.1160665 -0.9864365
vn 0.1160663 0.1160665 -0.9864365
vn -0.1160663 -0.1160671 -0.9864365
vn -0.1160663 -0.1160671 -0.9864365
vn -0.1160663 -0.1160671 -0.9864365
vn -0.1160663 -0.1160671 -0.9864365
vn -0.9238727 0.3826803 0.003875558
vn -0.9238727 0.3826803 0.003875558
vn -0.9238727 0.3826803 0.003875558
vn -0.9238727 0.3826803 0.003875558
vn -0.3826803 -0.9238727 0.003875382
vn -0.3826803 -0.9238727 0.003875382
vn -0.3826803 -0.9238727 0.003875382
vn -0.3826803 -0.9238727 0.003875382
vn 0.9238726 -0.3826806 0.003875471
vn 0.9238726 -0.3826806 0.003875471
vn 0.9238726 -0.3826806 0.003875471
vn 0.9238726 -0.3826806 0.003875471
vn 0.3826807 0.9238726 0.003875514
vn 0.3826807 0.9238726 0.003875514
vn 0.3826807 0.9238726 0.003875514
vn 0.3826807 0.9238726 0.003875514
vn -0.3826804 0.9238726 0.003875425
vn -0.3826804 0.9238726 0.003875425
vn -0.3826804 0.9238726 0.003875425
vn -0.3826804 0.9238726 0.003875425
vn -0.9238726 -0.3826805 0.003875559
vn -0.9238726 -0.3826805 0.003875559
vn -0.9238726 -0.3826805 0.003875559
vn -0.9238726 -0.3826805 0.003875559
vn 0.3826805 -0.9238726 0.003875426
vn 0.3826805 -0.9238726 0.003875426
vn 0.3826805 -0.9238726 0.003875426
vn 0.3826805 -0.9238726 0.003875426
vn -0.1160663 0.1160671 -0.9864365
vn -0.1160663 0.1160671 -0.9864365
vn -0.1160663 0.1160671 -0.9864365
vn -0.1160663 0.1160671 -0.9864365
vn 0.9238726 0.3826806 0.003875384
vn 0.9238726 0.3826806 0.003875384
vn 0.9238726 0.3826806 0.003875384
vn 0.9238726 0.3826806 0.003875384

vt 0.03670558 0.6951861
vt 0.0378077 0.7373816
vt 0.0417999 0.736805
vt 0.03091651 0.6960223
vt 0.03525993 0.6833759
vt 0.02896103 0.6842858
vt 0.0251691 0.6971083
vt 0.02991685 0.7390504
vt 0.0338442 0.7381306
vt 0.01947409 0.6984421
vt 0.02270734 0.6854674
vt 0.0165107 0.6869187
vt 0.06006026 0.6943638
vt 0.05387375 0.736118
vt 0.05790561 0.736238
vt 0.05421373 0.6941898
vt 0.06067172 0.6824812
vt 0.0543102 0.6822918
vt 0.04836512 0.6942691
vt 0.04581335 0.7364017
vt 0.04984048 0.7361726
vt 0.04252541 0.6946014
vt 0.04794645 0.6823781
vt 0.04159239 0.6827396
vt 0.03091651 0.6960223
vt 0.0338442 0.7381306
vt 0.0378077 0.7373816
vt 0.0251691 0.6971083
vt 0.02896103 0.6842858
vt 0.02270734 0.6854674
vt 0.01947409 0.6984421
vt 0.02603298 0.7401393
vt 0.02991685 0.7390504
vt 0.01384214 0.7000211
vt 0.0165107 0.6869187
vt 0.01038271 0.6886368
vt 0.05421373 0.6941898
vt 0.04984048 0.7361726
vt 0.05387375 0.736118
vt 0.04836512 0.6942691
vt 0.0543102 0.6822918
vt 0.04794645 0.6823781
vt 0.04252541 0.6946014
vt 0.0417999 0.736805
vt 0.04581335 0.7364017
vt 0.03670558 0.6951861
vt 0.04159239 0.6827396
vt 0.03525993 0.6833759
vt 0.05574483 0.7410448
vt 0.06055167 0.7432057
vt 0.06067172 0.7391738
vt 0.05790561 0.736238
vt 0.05093792 0.738884
vt 0.05574483 0.7410448
vt 0.05790561 0.736238
vt 0.05387375 0.736118
vt 0.05358398 0.7458517
vt 0.05761585 0.7459717
vt 0.06055167 0.7432057
vt 0.05574483 0.7410448
vt 0.05081794 0.7429159
vt 0.05358398 0.7458517
vt 0.05574483 0.7410448
vt 0.05093792 0.738884
vt 0.4762944 0.6955897
vt 0.466805 0.6955072
vt 0.4666661 0.7033489
vt 0.4765795 0.703281
vt 0.4771197 0.71121
vt 0.4664949 0.7119043
vt 0.4665531 0.7227278
vt 0.4784532 0.7194334
vt 0.4764515 0.6664662
vt 0.4674816 0.6647583
vt 0.4669205 0.6729468
vt 0.4758512 0.6735787
vt 0.4758413 0.6807631
vt 0.4668254 0.6805633
vt 0.4668881 0.6879297
vt 0.4760663 0.6880702
vt 0.4760663 0.6880702
vt 0.4668881 0.6879297
vt 0.466805 0.6955072
vt 0.4762944 0.6955897
vt 0.4765795 0.703281
vt 0.4666661 0.7033489
vt 0.4664949 0.7119043
vt 0.4771197 0.71121
vt 0.4784532 0.6595945
vt 0.4691859 0.654964
vt 0.4674816 0.6647583
vt 0.4764515 0.6664662
vt 0.4758512 0.6735787
vt 0.4669205 0.6729468
vt 0.4668254 0.6805633
vt 0.4758413 0.6807631
vt 0.4608051 0.6955706
vt 0.4530654 0.6947895
vt 0.4526029 0.7023897
vt 0.4603406 0.7032747
vt 0.4594755 0.7115726
vt 0.4517309 0.7099029
vt 0.449469 0.7171487
vt 0.4573979 0.7214421
vt 0.4605756 0.6646765
vt 0.4517008 0.6654246
vt 0.4524462 0.6734589
vt 0.4607003 0.6731285
vt 0.4609127 0.6808576
vt 0.4530654 0.6812052
vt 0.4544258 0.6881075
vt 0.4611453 0.6880706
vt 0.4611453 0.6880706
vt 0.4544258 0.6881075
vt 0.4530654 0.6947895
vt 0.4608051 0.6955706
vt 0.4603406 0.7032747
vt 0.4526029 0.7023897
vt 0.4517309 0.7099029
vt 0.4594755 0.7115726
vt 0.4601566 0.6539928
vt 0.4502197 0.6570408
vt 0.4517008 0.6654246
vt 0.4605756 0.6646765
vt 0.4607003 0.6731285
vt 0.4524462 0.6734589
vt 0.4530654 0.6812052
vt 0.4609127 0.6808576
vt 0.4459853 0.6981087
vt 0.4456232 0.688074
vt 0.4355477 0.6881306
vt 0.4386606 0.6953331
vt 0.4544258 0.6881075
vt 0.4456232 0.688074
vt 0.4459853 0.6981087
vt 0.4530654 0.6947895
vt 0.4385553 0.680869
vt 0.4355477 0.6881306
vt 0.4456232 0.688074
vt 0.4458742 0.6779669
vt 0.4669205 0.6729468
vt 0.4607003 0.6731285
vt 0.4609127 0.6808576
vt 0.4668254 0.6805633
vt 0.4691859 0.654964
vt 0.4601566 0.6539928
vt 0.4605756 0.6646765
vt 0.4674816 0.6647583
vt 0.4666661 0.7033489
vt 0.4603406 0.7032747
vt 0.4594755 0.7115726
vt 0.4664949 0.7119043
vt 0.4668881 0.6879297
vt 0.4611453 0.6880706
vt 0.4608051 0.6955706
vt 0.466805 0.6955072
vt 0.4668254 0.6805633
vt 0.4609127 0.6808576
vt 0.4611453 0.6880706
vt 0.4668881 0.6879297
vt 0.4674816 0.6647583
vt 0.4605756 0.6646765
vt 0.4607003 0.6731285
vt 0.4669205 0.6729468
vt 0.4664949 0.7119043
vt 0.4594755 0.7115726
vt 0.4573979 0.7214421
vt 0.4665531 0.7227278
vt 0.4530654 0.6812052
vt 0.4458742 0.6779669
vt 0.4456232 0.688074
vt 0.4544258 0.6881075
vt 0.466805 0.6955072
vt 0.4608051 0.6955706
vt 0.4603406 0.7032747
vt 0.4666661 0.7033489

usemtl LOW-POLY-COLORS
usemap LOW-POLY-COLORS
f 2/2/2 1/1/1 3/3/3
f 4/4/4 1/1/1 2/2/2
f 4/4/4 5/5/5 1/1/1
f 6/6/6 5/5/5 4/4/4
f 8/8/8 7/7/7 9/9/9
f 10/10/10 7/7/7 8/8/8
f 10/10/10 11/11/11 7/7/7
f 12/12/12 11/11/11 10/10/10
f 14/14/14 13/13/13 15/15/15
f 16/16/16 13/13/13 14/14/14
f 16/16/16 17/17/17 13/13/13
f 18/18/18 17/17/17 16/16/16
f 20/20/20 19/19/19 21/21/21
f 22/22/22 19/19/19 20/20/20
f 22/22/22 23/23/23 19/19/19
f 24/24/24 23/23/23 22/22/22
f 26/26/26 25/25/25 27/27/27
f 28/28/28 25/25/25 26/26/26
f 28/28/28 29/29/29 25/25/25
f 30/30/30 29/29/29 28/28/28
f 32/32/32 31/31/31 33/33/33
f 34/34/34 31/31/31 32/32/32
f 34/34/34 35/35/35 31/31/31
f 36/36/36 35/35/35 34/34/34
f 38/38/38 37/37/37 39/39/39
f 40/40/40 37/37/37 38/38/38
f 40/40/40 41/41/41 37/37/37
f 42/42/42 41/41/41 40/40/40
f 44/44/44 43/43/43 45/45/45
f 46/46/46 43/43/43 44/44/44
f 46/46/46 47/47/47 43/43/43
f 48/48/48 47/47/47 46/46/46
f 50/50/50 49/49/49 51/51/51
f 51/51/51 49/49/49 52/52/52
f 54/54/54 53/53/53 55/55/55
f 55/55/55 53/53/53 56/56/56
f 58/58/58 57/57/57 59/59/59
f 59/59/59 57/57/57 60/60/60
f 62/62/62 61/61/61 63/63/63
f 63/63/63 61/61/61 64/64/64
f 66/66/66 65/65/65 67/67/67
f 67/67/67 65/65/65 68/68/68
f 70/70/70 69/69/69 71/71/71
f 71/71/71 69/69/69 72/72/72
f 74/74/74 73/73/73 75/75/75
f 75/75/75 73/73/73 76/76/76
f 78/78/78 77/77/77 79/79/79
f 79/79/79 77/77/77 80/80/80
f 82/82/82 81/81/81 83/83/83
f 83/83/83 81/81/81 84/84/84
f 86/86/86 85/85/85 87/87/87
f 87/87/87 85/85/85 88/88/88
f 90/90/90 89/89/89 91/91/91
f 91/91/91 89/89/89 92/92/92
f 94/94/94 93/93/93 95/95/95
f 95/95/95 93/93/93 96/96/96
f 98/98/98 97/97/97 99/99/99
f 99/99/99 97/97/97 100/100/100
f 102/102/102 101/101/101 103/103/103
f 103/103/103 101/101/101 104/104/104
f 106/106/106 105/105/105 107/107/107
f 107/107/107 105/105/105 108/108/108
f 110/110/110 109/109/109 111/111/111
f 111/111/111 109/109/109 112/112/112
f 114/114/114 113/113/113 115/115/115
f 115/115/115 113/113/113 116/116/116
f 118/118/118 117/117/117 119/119/119
f 119/119/119 117/117/117 120/120/120
f 122/122/122 121/121/121 123/123/123
f 123/123/123 121/121/121 124/124/124
f 126/126/126 125/125/125 127/127/127
f 127/127/127 125/125/125 128/128/128
f 130/130/130 129/129/129 131/131/131
f 131/131/131 129/129/129 132/132/132
f 134/134/134 133/133/133 135/135/135
f 135/135/135 133/133/133 136/136/136
f 138/138/138 137/137/137 139/139/139
f 139/139/139 137/137/137 140/140/140
f 142/142/142 141/141/141 143/143/143
f 143/143/143 141/141/141 144/144/144
f 146/146/146 145/145/145 147/147/147
f 147/147/147 145/145/145 148/148/148
f 150/150/150 149/149/149 151/151/151
f 151/151/151 149/149/149 152/152/152
f 154/154/154 153/153/153 155/155/155
f 155/155/155 153/153/153 156/156/156
f 158/158/158 157/157/157 159/159/159
f 159/159/159 157/157/157 160/160/160
f 162/162/162 161/161/161 163/163/163
f 163/163/163 161/161/161 164/164/164
f 166/166/166 165/165/165 167/167/167
f 167/167/167 165/165/165 168/168/168
f 170/170/170 169/169/169 171/171/171
f 171/171/171 169/169/169 172/172/172
f 174/174/174 173/173/173 175/175/175
f 175/175/175 173/173/173 176/176/176
