mtllib ./music-record_0.mtl
g music-record
v -0.029374 0.01276768 -0.03514192
v -0.006509184 0.01276768 -0.002758629
v -0.04500357 0.01276768 -0.008070695
v 0.04500356 0.01276768 -0.008070696
v 0.006509184 0.01276768 -0.002758629
v 0.029374 0.01276768 -0.0351419
v 0.006509184 0.01276768 -0.002758629
v 0 0.01276768 -0.006516709
v -5.277502E-09 0.01276768 -0.04583318
v -0.01562957 0.01276768 0.04280655
v 6.570836E-10 0.01276768 0.008515609
v 0.01562959 0.01276768 0.04280654
v -0.128025 0.002767682 -0.02257425
v -0.128025 0.01276768 -0.02257425
v -0.1125833 0.01276768 0.06500001
v -0.1125833 0.002767682 0.06500001
v 0.1125833 0.002767684 0.06499998
v 0.1125833 0.01276768 0.06499998
v 0.128025 0.01276768 -0.02257426
v 0.128025 0.002767684 -0.02257426
v -0.1125833 0.002767682 0.06500001
v -0.1125833 0.01276768 0.06500001
v -0.0444626 0.01276768 0.12216
v -0.0444626 0.002767682 0.12216
v -1.488413E-12 0.002767684 -0.13
v -1.488413E-12 0.01276768 -0.13
v -0.08356239 0.01276768 -0.09958577
v -0.08356239 0.002767682 -0.09958577
v 0.128025 0.002767684 -0.02257426
v 0.128025 0.01276768 -0.02257426
v 0.0835624 0.01276768 -0.09958575
v 0.0835624 0.002767682 -0.09958575
v -0.0444626 0.002767682 0.12216
v -0.0444626 0.01276768 0.12216
v 0.04446265 0.01276768 0.12216
v 0.04446265 0.002767682 0.12216
v -0.08356239 0.002767682 -0.09958577
v -0.08356239 0.01276768 -0.09958577
v -0.128025 0.01276768 -0.02257425
v -0.128025 0.002767682 -0.02257425
v 0.0835624 0.002767682 -0.09958575
v 0.0835624 0.01276768 -0.09958575
v -1.488413E-12 0.01276768 -0.13
v -1.488413E-12 0.002767684 -0.13
v 0.04446265 0.002767682 0.12216
v 0.04446265 0.01276768 0.12216
v 0.1125833 0.01276768 0.06499998
v 0.1125833 0.002767684 0.06499998
v -0.03893805 0.01276768 -0.04653795
v -0.08356239 0.01276768 -0.09958577
v -1.488413E-12 0.01276768 -0.13
v -4.350766E-09 0.01276768 -0.06071025
v -0.05965655 0.01276768 -0.01065245
v -0.08356239 0.01276768 -0.09958577
v -0.03893805 0.01276768 -0.04653795
v -0.128025 0.01276768 -0.02257425
v -0.05246109 0.01276768 0.03015503
v -0.1125833 0.01276768 0.06500001
v -0.0207185 0.01276768 0.05679023
v -0.0444626 0.01276768 0.12216
v -0.1125833 0.01276768 0.06500001
v -0.05246109 0.01276768 0.03015503
v 0.02071852 0.01276768 0.05679021
v -0.0444626 0.01276768 0.12216
v -0.0207185 0.01276768 0.05679023
v 0.04446265 0.01276768 0.12216
v 0.05246108 0.01276768 0.03015503
v 0.1125833 0.01276768 0.06499998
v 0.05965654 0.01276768 -0.01065245
v 0.128025 0.01276768 -0.02257426
v 0.1125833 0.01276768 0.06499998
v 0.05246108 0.01276768 0.03015503
v 0.03893806 0.01276768 -0.04653793
v 0.128025 0.01276768 -0.02257426
v 0.05965654 0.01276768 -0.01065245
v 0.0835624 0.01276768 -0.09958575
v -4.350766E-09 0.01276768 -0.06071025
v -1.488413E-12 0.01276768 -0.13
v 0.03957547 0.01276768 0.02271355
v 0.006509184 0.01276768 0.00475753
v 0.006509184 0.01276768 -0.002758629
v 0.04500356 0.01276768 -0.008070696
v -0.04500357 0.01276768 -0.008070695
v -0.006509184 0.01276768 -0.002758629
v -0.006509184 0.01276768 0.00475753
v -0.03957548 0.01276768 0.02271355
v -0.03957548 0.01276768 0.02271355
v -0.006509184 0.01276768 0.00475753
v 6.570836E-10 0.01276768 0.008515609
v -0.01562957 0.01276768 0.04280655
v 0.01562959 0.01276768 0.04280654
v 6.570836E-10 0.01276768 0.008515609
v 0.006509184 0.01276768 0.00475753
v 0.03957547 0.01276768 0.02271355
v -5.277502E-09 0.01276768 -0.04583318
v 0 0.01276768 -0.006516709
v -0.006509184 0.01276768 -0.002758629
v -0.029374 0.01276768 -0.03514192
v -0.03893805 0.002767684 -0.04653795
v -4.350766E-09 0.002767684 -0.06071025
v -1.488413E-12 0.002767684 -0.13
v -0.08356239 0.002767682 -0.09958577
v -0.05965655 0.002767684 -0.01065245
v -0.03893805 0.002767684 -0.04653795
v -0.08356239 0.002767682 -0.09958577
v -0.128025 0.002767682 -0.02257425
v -0.05246109 0.002767684 0.03015503
v -0.1125833 0.002767682 0.06500001
v -0.0207185 0.002767684 0.05679023
v -0.05246109 0.002767684 0.03015503
v -0.1125833 0.002767682 0.06500001
v -0.0444626 0.002767682 0.12216
v 0.02071852 0.002767684 0.05679021
v -0.0207185 0.002767684 0.05679023
v -0.0444626 0.002767682 0.12216
v 0.04446265 0.002767682 0.12216
v 0.05246108 0.002767684 0.03015503
v 0.1125833 0.002767684 0.06499998
v 0.05965654 0.002767684 -0.01065245
v 0.05246108 0.002767684 0.03015503
v 0.1125833 0.002767684 0.06499998
v 0.128025 0.002767684 -0.02257426
v 0.03893806 0.002767684 -0.04653793
v 0.05965654 0.002767684 -0.01065245
v 0.128025 0.002767684 -0.02257426
v 0.0835624 0.002767682 -0.09958575
v -4.350766E-09 0.002767684 -0.06071025
v -1.488413E-12 0.002767684 -0.13
v 0.029374 0.002767684 -0.0351419
v 0 0.002767682 -0.006516709
v 0.006509184 0.002767682 -0.002758629
v -5.277502E-09 0.002767684 -0.04583318
v -0.006509184 0.002767682 -0.002758629
v 0 0.002767682 -0.006516709
v -0.029374 0.002767684 -0.03514192
v 0.04500356 0.002767684 -0.008070696
v 0.006509184 0.002767682 -0.002758629
v 0.03957547 0.002767684 0.02271355
v 0.006509184 0.002767682 0.00475753
v 0.01562959 0.002767684 0.04280654
v 6.570836E-10 0.002767682 0.008515609
v -0.01562957 0.002767684 0.04280655
v -0.03957548 0.002767684 0.02271355
v -0.006509184 0.002767682 0.00475753
v -0.04500357 0.002767684 -0.008070695
v -0.006509184 0.002767682 -0.002758629
v -0.006509184 0.01276768 -0.002758629
v -0.006509184 0.002767682 -0.002758629
v -0.006509184 0.002767682 0.00475753
v -0.006509184 0.01276768 0.00475753
v -0.006509184 0.01276768 0.00475753
v -0.006509184 0.002767682 0.00475753
v 6.570836E-10 0.002767682 0.008515609
v 6.570836E-10 0.01276768 0.008515609
v 6.570836E-10 0.01276768 0.008515609
v 6.570836E-10 0.002767682 0.008515609
v 0.006509184 0.002767682 0.00475753
v 0.006509184 0.01276768 0.00475753
v 0.006509184 0.01276768 0.00475753
v 0.006509184 0.002767682 0.00475753
v 0.006509184 0.002767682 -0.002758629
v 0.006509184 0.01276768 -0.002758629
v 0.006509184 0.01276768 -0.002758629
v 0.006509184 0.002767682 -0.002758629
v 0 0.002767682 -0.006516709
v 0 0.01276768 -0.006516709
v 0 0.01276768 -0.006516709
v 0 0.002767682 -0.006516709
v -0.006509184 0.002767682 -0.002758629
v -0.006509184 0.01276768 -0.002758629
v -5.277502E-09 0.01276768 -0.04583318
v -4.350766E-09 0.01276768 -0.06071025
v 0.03893806 0.01276768 -0.04653793
v 0.029374 0.01276768 -0.0351419
v -0.029374 0.01276768 -0.03514192
v 0.05965654 0.01276768 -0.01065245
v -0.03893805 0.01276768 -0.04653795
v 0.04500356 0.01276768 -0.008070696
v -0.04500357 0.01276768 -0.008070695
v 0.05246108 0.01276768 0.03015503
v -0.05965655 0.01276768 -0.01065245
v 0.03957547 0.01276768 0.02271355
v -0.03957548 0.01276768 0.02271355
v 0.02071852 0.01276768 0.05679021
v -0.05246109 0.01276768 0.03015503
v 0.01562959 0.01276768 0.04280654
v -0.01562957 0.01276768 0.04280655
v -0.0207185 0.01276768 0.05679023
v -5.277502E-09 0.002767684 -0.04583318
v 0.029374 0.002767684 -0.0351419
v 0.03893806 0.002767684 -0.04653793
v -4.350766E-09 0.002767684 -0.06071025
v 0.05965654 0.002767684 -0.01065245
v -0.029374 0.002767684 -0.03514192
v 0.04500356 0.002767684 -0.008070696
v -0.03893805 0.002767684 -0.04653795
v 0.05246108 0.002767684 0.03015503
v -0.04500357 0.002767684 -0.008070695
v 0.03957547 0.002767684 0.02271355
v -0.05965655 0.002767684 -0.01065245
v 0.02071852 0.002767684 0.05679021
v -0.03957548 0.002767684 0.02271355
v 0.01562959 0.002767684 0.04280654
v -0.05246109 0.002767684 0.03015503
v -0.0207185 0.002767684 0.05679023
v -0.01562957 0.002767684 0.04280655

vn 0 1 0
vn 0 1 0
vn 0 1 0
vn 0 1 0
vn 0 1 0
vn 0 1 0
vn 0 1 0
vn 0 1 0
vn 0 1 0
vn 0 1 0
vn 0 1 0
vn 0 1 0
vn -0.9848077 0 0.1736483
vn -0.9848077 0 0.1736483
vn -0.9848077 0 0.1736483
vn -0.9848077 0 0.1736483
vn 0.9848077 0 0.1736481
vn 0.9848077 0 0.1736481
vn 0.9848077 0 0.1736481
vn 0.9848077 0 0.1736481
vn -0.6427875 0 0.7660445
vn -0.6427875 0 0.7660445
vn -0.6427875 0 0.7660445
vn -0.6427875 0 0.7660445
vn -0.3420202 0 -0.9396926
vn -0.3420202 0 -0.9396926
vn -0.3420202 0 -0.9396926
vn -0.3420202 0 -0.9396926
vn 0.8660254 0 -0.4999999
vn 0.8660254 0 -0.4999999
vn 0.8660254 0 -0.4999999
vn 0.8660254 0 -0.4999999
vn 1.675695E-07 0 1
vn 1.675695E-07 0 1
vn 1.675695E-07 0 1
vn 1.675695E-07 0 1
vn -0.8660254 0 -0.5
vn -0.8660254 0 -0.5
vn -0.8660254 0 -0.5
vn -0.8660254 0 -0.5
vn 0.3420202 0 -0.9396926
vn 0.3420202 0 -0.9396926
vn 0.3420202 0 -0.9396926
vn 0.3420202 0 -0.9396926
vn 0.6427878 0 0.7660443
vn 0.6427878 0 0.7660443
vn 0.6427878 0 0.7660443
vn 0.6427878 0 0.7660443
vn 0 1 0
vn 0 1 0
vn 0 1 0
vn 0 1 0
vn 0 1 0
vn 0 1 0
vn 0 1 0
vn 0 1 0
vn 0 1 0
vn 0 1 0
vn 0 1 0
vn 0 1 0
vn 0 1 0
vn 0 1 0
vn 0 1 0
vn 0 1 0
vn 0 1 0
vn 0 1 0
vn 0 1 0
vn 0 1 0
vn 0 1 0
vn 0 1 0
vn 0 1 0
vn 0 1 0
vn 0 1 0
vn 0 1 0
vn 0 1 0
vn 0 1 0
vn 0 1 0
vn 0 1 0
vn 0 1 0
vn 0 1 0
vn 0 1 0
vn 0 1 0
vn 0 1 0
vn 0 1 0
vn 0 1 0
vn 0 1 0
vn 0 1 0
vn 0 1 0
vn 0 1 0
vn 0 1 0
vn 0 1 0
vn 0 1 0
vn 0 1 0
vn 0 1 0
vn 0 1 0
vn 0 1 0
vn 0 1 0
vn 0 1 0
vn 0 -1 0
vn 0 -1 0
vn 0 -1 0
vn 0 -1 0
vn 0 -1 0
vn 0 -1 0
vn 0 -1 0
vn 0 -1 0
vn 0 -1 0
vn 0 -1 0
vn 0 -1 0
vn 0 -1 0
vn 0 -1 0
vn 0 -1 0
vn 0 -1 0
vn 0 -1 0
vn 0 -1 0
vn 0 -1 0
vn 0 -1 0
vn 0 -1 0
vn 0 -1 0
vn 0 -1 0
vn 0 -1 0
vn 0 -1 0
vn 0 -1 0
vn 0 -1 0
vn 0 -1 0
vn 0 -1 0
vn 0 -1 0
vn 0 -1 0
vn 0 -1 0
vn 0 -1 0
vn 0 -1 0
vn 0 -1 0
vn 0 -1 0
vn 0 -1 0
vn 0 -1 0
vn 0 -1 0
vn 0 -1 0
vn 0 -1 0
vn 0 -1 0
vn 0 -1 0
vn 0 -1 0
vn 0 -1 0
vn 0 -1 0
vn 0 -1 0
vn 0 -1 0
vn 0 -1 0
vn 1 0 0
vn 1 0 0
vn 1 0 0
vn 1 0 0
vn 0.5 0 -0.8660254
vn 0.5 0 -0.8660254
vn 0.5 0 -0.8660254
vn 0.5 0 -0.8660254
vn -0.5000001 0 -0.8660253
vn -0.5000001 0 -0.8660253
vn -0.5000001 0 -0.8660253
vn -0.5000001 0 -0.8660253
vn -1 0 0
vn -1 0 0
vn -1 0 0
vn -1 0 0
vn -0.5 0 0.8660254
vn -0.5 0 0.8660254
vn -0.5 0 0.8660254
vn -0.5 0 0.8660254
vn 0.5 0 0.8660254
vn 0.5 0 0.8660254
vn 0.5 0 0.8660254
vn 0.5 0 0.8660254
vn 0 1 0
vn 0 1 0
vn 0 1 0
vn 0 1 0
vn 0 1 0
vn 0 1 0
vn 0 1 0
vn 0 1 0
vn 0 1 0
vn 0 1 0
vn 0 1 0
vn 0 1 0
vn 0 1 0
vn 0 1 0
vn 0 1 0
vn 0 1 0
vn 0 1 0
vn 0 1 0
vn 0 -1 0
vn 0 -1 0
vn 0 -1 0
vn 0 -1 0
vn 0 -1 0
vn 0 -1 0
vn 0 -1 0
vn 0 -1 0
vn 0 -1 0
vn 0 -1 0
vn 0 -1 0
vn 0 -1 0
vn 0 -1 0
vn 0 -1 0
vn 0 -1 0
vn 0 -1 0
vn 0 -1 0
vn 0 -1 0

vt 0.2209198 0.5513393
vt 0.2205406 0.5509245
vt 0.2211056 0.5511088
vt 0.2202405 0.5510776
vt 0.2208218 0.5509458
vt 0.2203773 0.5513285
vt 0.2208218 0.5509458
vt 0.2206844 0.5508275
vt 0.220643 0.551393
vt 0.220863 0.5506564
vt 0.2206676 0.551193
vt 0.2205522 0.5506306
vt 0.03180529 0.7026411
vt 0.03180529 0.7012383
vt 0.01933205 0.7012384
vt 0.01933205 0.7026411
vt 0.09417144 0.702641
vt 0.09417144 0.7012383
vt 0.08169829 0.7012383
vt 0.08169829 0.702641
vt 0.01933205 0.7026411
vt 0.01933205 0.7012384
vt 0.006858822 0.7012384
vt 0.006858822 0.7026411
vt 0.05675188 0.702641
vt 0.05675188 0.7012383
vt 0.0442786 0.7012383
vt 0.0442786 0.702641
vt 0.08169829 0.702641
vt 0.08169829 0.7012383
vt 0.06922511 0.7012383
vt 0.06922511 0.702641
vt 0.1191179 0.702641
vt 0.1191179 0.7012383
vt 0.1066446 0.7012383
vt 0.1066446 0.702641
vt 0.0442786 0.702641
vt 0.0442786 0.7012383
vt 0.03180529 0.7012383
vt 0.03180529 0.7026411
vt 0.06922511 0.702641
vt 0.06922511 0.7012383
vt 0.05675188 0.7012383
vt 0.05675188 0.702641
vt 0.1066446 0.702641
vt 0.1066446 0.7012383
vt 0.09417144 0.7012383
vt 0.09417144 0.702641
vt 0.1795804 0.7153842
vt 0.1762435 0.7245172
vt 0.1887168 0.7245172
vt 0.1853926 0.7153842
vt 0.05430954 0.6843337
vt 0.06601211 0.6898021
vt 0.05977126 0.6823459
vt 0.05429113 0.6940682
vt 0.04884783 0.6823459
vt 0.0425701 0.6898021
vt 0.2193055 0.6776701
vt 0.215963 0.6868349
vt 0.2284362 0.6868349
vt 0.2251178 0.6776701
vt 0.01858621 0.6868557
vt 0.006858822 0.6813665
vt 0.0131245 0.6888436
vt 0.01857981 0.6771004
vt 0.02404791 0.6888436
vt 0.03030081 0.6813665
vt 0.1725898 0.724538
vt 0.1759019 0.7153842
vt 0.1634286 0.7153842
vt 0.1667775 0.724538
vt 0.01856778 0.6911733
vt 0.03030081 0.6966305
vt 0.0240295 0.6891853
vt 0.01857981 0.7008966
vt 0.01310607 0.6891853
vt 0.006858822 0.6966305
vt 0.220311 0.5508027
vt 0.2208413 0.5511322
vt 0.2208218 0.5509458
vt 0.2202405 0.5510776
vt 0.2211056 0.5511088
vt 0.2205406 0.5509245
vt 0.2205043 0.551108
vt 0.2210873 0.5508335
vt 0.2210873 0.5508335
vt 0.2205043 0.551108
vt 0.2206676 0.551193
vt 0.220863 0.5506564
vt 0.2205522 0.5506306
vt 0.2206676 0.551193
vt 0.2208413 0.5511322
vt 0.220311 0.5508027
vt 0.220643 0.551393
vt 0.2206844 0.5508275
vt 0.2205406 0.5509245
vt 0.2209198 0.5513393
vt 0.1763184 0.6638257
vt 0.1820423 0.6628164
vt 0.18373 0.653245
vt 0.1714463 0.6554109
vt 0.01601255 0.6558765
vt 0.01974858 0.6514241
vt 0.01487645 0.6430094
vt 0.006858822 0.6525645
vt 0.01601255 0.6616888
vt 0.006858822 0.6650377
vt 0.1763184 0.6785427
vt 0.1725824 0.6740904
vt 0.1634286 0.6774393
vt 0.1714463 0.6869944
vt 0.0254725 0.6671505
vt 0.01974856 0.6661412
vt 0.01487645 0.6745928
vt 0.02716019 0.6767587
vt 0.03050602 0.6642444
vt 0.03796231 0.670522
vt 0.1890637 0.6711842
vt 0.1870758 0.676646
vt 0.1945321 0.6829236
vt 0.1987982 0.6712027
vt 0.03050604 0.653321
vt 0.03249393 0.6587827
vt 0.04222841 0.6588011
vt 0.03796232 0.6470801
vt 0.0254725 0.6504148
vt 0.02716019 0.6408435
vt 0.2265456 0.5435724
vt 0.2206698 0.54965
vt 0.2220342 0.550217
vt 0.2206841 0.5414838
vt 0.2193052 0.550198
vt 0.2206698 0.54965
vt 0.2148095 0.5435493
vt 0.2298733 0.5490056
vt 0.2220342 0.550217
vt 0.2288844 0.5554107
vt 0.2220355 0.5517689
vt 0.2239321 0.5596917
vt 0.2206663 0.5525696
vt 0.2174224 0.5596914
vt 0.2124549 0.5554208
vt 0.2193309 0.5517981
vt 0.2114474 0.5489962
vt 0.2193052 0.550198
vt 0.2205406 0.5509245
vt 0.2193052 0.550198
vt 0.2193309 0.5517981
vt 0.2205043 0.551108
vt 0.2205043 0.551108
vt 0.2193309 0.5517981
vt 0.2206663 0.5525696
vt 0.2206676 0.551193
vt 0.2206676 0.551193
vt 0.2206663 0.5525696
vt 0.2220355 0.5517689
vt 0.2208413 0.5511322
vt 0.2208413 0.5511322
vt 0.2220355 0.5517689
vt 0.2220342 0.550217
vt 0.2208218 0.5509458
vt 0.2208218 0.5509458
vt 0.2220342 0.550217
vt 0.2206697 0.5496736
vt 0.2206844 0.5508275
vt 0.2206844 0.5508275
vt 0.2206697 0.5496736
vt 0.2193052 0.550198
vt 0.2205406 0.5509245
vt 0.04995389 0.6799491
vt 0.04959153 0.6820042
vt 0.05531547 0.6809949
vt 0.05427191 0.6791877
vt 0.04615671 0.6777568
vt 0.0590515 0.6765424
vt 0.04455801 0.679098
vt 0.05709028 0.6758289
vt 0.04465708 0.6736366
vt 0.0590515 0.6707302
vt 0.0425701 0.6736363
vt 0.05709028 0.6714443
vt 0.04615671 0.6695164
vt 0.05531547 0.6662778
vt 0.04455801 0.6681746
vt 0.05427191 0.6680855
vt 0.04995389 0.6673241
vt 0.04959155 0.6652685
vt 0.2113829 0.6561983
vt 0.2172444 0.6582869
vt 0.219127 0.6559669
vt 0.2113892 0.653245
vt 0.2235659 0.6631231
vt 0.2055084 0.6582639
vt 0.2205721 0.6637202
vt 0.2036275 0.6559309
vt 0.2222959 0.6716312
vt 0.2021463 0.6637108
vt 0.2195832 0.6701252
vt 0.1991399 0.6631112
vt 0.2157167 0.6773284
vt 0.2031537 0.6701353
vt 0.2146309 0.6744062
vt 0.2004382 0.6716499
vt 0.207035 0.6773273
vt 0.2081212 0.6744059

usemtl LOW-POLY-COLORS
usemap LOW-POLY-COLORS
f 2/2/2 1/1/1 3/3/3
f 5/5/5 4/4/4 6/6/6
f 7/7/7 6/6/6 8/8/8
f 8/8/8 6/6/6 9/9/9
f 11/11/11 10/10/10 12/12/12
f 14/14/14 13/13/13 15/15/15
f 15/15/15 13/13/13 16/16/16
f 18/18/18 17/17/17 19/19/19
f 19/19/19 17/17/17 20/20/20
f 22/22/22 21/21/21 23/23/23
f 23/23/23 21/21/21 24/24/24
f 26/26/26 25/25/25 27/27/27
f 27/27/27 25/25/25 28/28/28
f 30/30/30 29/29/29 31/31/31
f 31/31/31 29/29/29 32/32/32
f 34/34/34 33/33/33 35/35/35
f 35/35/35 33/33/33 36/36/36
f 38/38/38 37/37/37 39/39/39
f 39/39/39 37/37/37 40/40/40
f 42/42/42 41/41/41 43/43/43
f 43/43/43 41/41/41 44/44/44
f 46/46/46 45/45/45 47/47/47
f 47/47/47 45/45/45 48/48/48
f 50/50/50 49/49/49 51/51/51
f 51/51/51 49/49/49 52/52/52
f 54/54/54 53/53/53 55/55/55
f 56/56/56 53/53/53 54/54/54
f 56/56/56 57/57/57 53/53/53
f 58/58/58 57/57/57 56/56/56
f 60/60/60 59/59/59 61/61/61
f 61/61/61 59/59/59 62/62/62
f 64/64/64 63/63/63 65/65/65
f 66/66/66 63/63/63 64/64/64
f 66/66/66 67/67/67 63/63/63
f 68/68/68 67/67/67 66/66/66
f 70/70/70 69/69/69 71/71/71
f 71/71/71 69/69/69 72/72/72
f 74/74/74 73/73/73 75/75/75
f 76/76/76 73/73/73 74/74/74
f 76/76/76 77/77/77 73/73/73
f 78/78/78 77/77/77 76/76/76
f 80/80/80 79/79/79 81/81/81
f 81/81/81 79/79/79 82/82/82
f 84/84/84 83/83/83 85/85/85
f 85/85/85 83/83/83 86/86/86
f 88/88/88 87/87/87 89/89/89
f 89/89/89 87/87/87 90/90/90
f 92/92/92 91/91/91 93/93/93
f 93/93/93 91/91/91 94/94/94
f 96/96/96 95/95/95 97/97/97
f 97/97/97 95/95/95 98/98/98
f 100/100/100 99/99/99 101/101/101
f 101/101/101 99/99/99 102/102/102
f 104/104/104 103/103/103 105/105/105
f 105/105/105 103/103/103 106/106/106
f 103/103/103 107/107/107 106/106/106
f 106/106/106 107/107/107 108/108/108
f 110/110/110 109/109/109 111/111/111
f 111/111/111 109/109/109 112/112/112
f 114/114/114 113/113/113 115/115/115
f 115/115/115 113/113/113 116/116/116
f 113/113/113 117/117/117 116/116/116
f 116/116/116 117/117/117 118/118/118
f 120/120/120 119/119/119 121/121/121
f 121/121/121 119/119/119 122/122/122
f 124/124/124 123/123/123 125/125/125
f 125/125/125 123/123/123 126/126/126
f 123/123/123 127/127/127 126/126/126
f 126/126/126 127/127/127 128/128/128
f 130/130/130 129/129/129 131/131/131
f 132/132/132 129/129/129 130/130/130
f 133/133/133 132/132/132 134/134/134
f 135/135/135 132/132/132 133/133/133
f 129/129/129 136/136/136 137/137/137
f 136/136/136 138/138/138 137/137/137
f 137/137/137 138/138/138 139/139/139
f 138/138/138 140/140/140 139/139/139
f 139/139/139 140/140/140 141/141/141
f 140/140/140 142/142/142 141/141/141
f 142/142/142 143/143/143 141/141/141
f 141/141/141 143/143/143 144/144/144
f 143/143/143 145/145/145 144/144/144
f 145/145/145 135/135/135 146/146/146
f 144/144/144 145/145/145 146/146/146
f 148/148/148 147/147/147 149/149/149
f 149/149/149 147/147/147 150/150/150
f 152/152/152 151/151/151 153/153/153
f 153/153/153 151/151/151 154/154/154
f 156/156/156 155/155/155 157/157/157
f 157/157/157 155/155/155 158/158/158
f 160/160/160 159/159/159 161/161/161
f 161/161/161 159/159/159 162/162/162
f 164/164/164 163/163/163 165/165/165
f 165/165/165 163/163/163 166/166/166
f 168/168/168 167/167/167 169/169/169
f 169/169/169 167/167/167 170/170/170
f 172/172/172 171/171/171 173/173/173
f 173/173/173 171/171/171 174/174/174
f 172/172/172 175/175/175 171/171/171
f 173/173/173 174/174/174 176/176/176
f 177/177/177 175/175/175 172/172/172
f 176/176/176 174/174/174 178/178/178
f 177/177/177 179/179/179 175/175/175
f 176/176/176 178/178/178 180/180/180
f 181/181/181 179/179/179 177/177/177
f 180/180/180 178/178/178 182/182/182
f 181/181/181 183/183/183 179/179/179
f 180/180/180 182/182/182 184/184/184
f 185/185/185 183/183/183 181/181/181
f 184/184/184 182/182/182 186/186/186
f 185/185/185 187/187/187 183/183/183
f 184/184/184 186/186/186 188/188/188
f 188/188/188 186/186/186 187/187/187
f 188/188/188 187/187/187 185/185/185
f 190/190/190 189/189/189 191/191/191
f 191/191/191 189/189/189 192/192/192
f 193/193/193 190/190/190 191/191/191
f 189/189/189 194/194/194 192/192/192
f 195/195/195 190/190/190 193/193/193
f 192/192/192 194/194/194 196/196/196
f 197/197/197 195/195/195 193/193/193
f 194/194/194 198/198/198 196/196/196
f 199/199/199 195/195/195 197/197/197
f 196/196/196 198/198/198 200/200/200
f 201/201/201 199/199/199 197/197/197
f 198/198/198 202/202/202 200/200/200
f 203/203/203 199/199/199 201/201/201
f 200/200/200 202/202/202 204/204/204
f 205/205/205 203/203/203 201/201/201
f 202/202/202 206/206/206 204/204/204
f 206/206/206 203/203/203 205/205/205
f 204/204/204 206/206/206 205/205/205
