mtllib ./speaker-reprobox_20.mtl
g speaker-reprobox
v 0.4699999 0.4221635 0.1408187
v 0.4999999 0.396172 0.155823
v 0.47 0.4111829 0.1818022
v 0.47 0 -0.127915
v 0.4999999 0.03084952 -0.1410899
v 0.47 0.02597656 -0.1729222
v 0.47 0.1613748 -0.2511466
v 0.4999999 0.1762517 -0.2250901
v 0.47 0.2023521 -0.2401617
v -0.47 0 -0.127915
v -0.47 0.02597656 -0.1729222
v -0.5000006 0.0294308 -0.1400322
v -0.47 0.02598119 0.1731434
v -0.47 0 0.1281441
v -0.5000006 0.03006665 0.136173
v -0.47 0.2520404 0.2736534
v -0.47 0.2000764 0.2736506
v -0.5000006 0.2302905 0.2515946
v -0.47 0.1613748 -0.2511466
v -0.4700001 0.2023521 -0.2401617
v -0.5000005 0.1762462 -0.2250996
v -0.4700001 0.4221653 0.1408142
v -0.47 0.4111829 0.1818022
v -0.5000005 0.3961719 0.1558229
v 0.4999999 0.2302844 0.2515982
v 0.47 0.2000764 0.2736506
v 0.47 0.2520404 0.2736534
v 0.47 0.02598119 0.1731434
v 0.4999999 0.03031581 0.1366015
v 0.47 0 0.1281441
v -0.2499961 0.1935811 0.2699008
v -0.1499277 0.1713371 0.233963
v -0.1499277 0.07471945 0.1781844
v -0.2499961 0.03247649 0.1768932
v -0.5000005 0.3961719 0.1558229
v -0.4700001 0.4221653 0.1408142
v 0.4699999 0.4221635 0.1408187
v 0.47 0.4111829 0.1818022
v -0.47 0.4111829 0.1818022
v -0.47 0.2520404 0.2736534
v -0.47 0.4111829 0.1818022
v 0.47 0.4111829 0.1818022
v 0.47 0.2520404 0.2736534
v 0.4999993 0.2029746 0.07893942
v 0.4999993 0.1295322 0.06476895
v 0.4999993 0.1633186 0.08706464
v 0.4999993 0.1733386 0.03513296
v 0.4999993 0.121407 0.02511298
v 0.4999993 0.1437027 -0.008673478
v 0.4999993 0.1833587 -0.01679864
v 0.4999993 0.2171451 0.005496983
v 0.4999993 0.2252703 0.045153
v 0.47 0.1613748 -0.2511466
v 0.47 0.2023521 -0.2401617
v -0.4700001 0.2023521 -0.2401617
v -0.47 0.1613748 -0.2511466
v 0.47 0.1613748 -0.2511466
v -0.47 0.1613748 -0.2511466
v -0.47 0.02597656 -0.1729222
v 0.47 0.02597656 -0.1729222
v -0.5000006 0.0294308 -0.1400322
v -0.500003 0.09561885 -0.01630459
v -0.5000006 0.03006665 0.136173
v -0.500003 0.1565059 -0.02462492
v -0.5000005 0.1762462 -0.2250996
v -0.4700001 0.2023521 -0.2401617
v -0.4700001 0.4221653 0.1408142
v -0.5000005 0.3961719 0.1558229
v -0.5000005 0.1762462 -0.2250996
v 0.47 0 -0.127915
v -0.47 0 -0.127915
v -0.47 0 0.1281441
v 0.47 0 0.1281441
v -0.5000005 0.3961719 0.1558229
v -0.500003 0.2137631 0.07343221
v -0.500003 0.2054428 0.01254524
v -0.5000005 0.1762462 -0.2250996
v -0.500003 0.1565059 -0.02462492
v -0.500003 0.1361059 0.05303228
v -0.5000006 0.03006665 0.136173
v -0.500003 0.09561885 -0.01630459
v -0.500003 0.1765929 0.1223692
v -0.500003 0.1765929 0.1223692
v -0.4700029 0.1765929 0.1223692
v -0.4700029 0.2137631 0.07343221
v -0.500003 0.2137631 0.07343221
v -0.500003 0.2054428 0.01254524
v -0.4700029 0.2054428 0.01254524
v -0.4700029 0.1565059 -0.02462492
v -0.500003 0.1565059 -0.02462492
v -0.4700029 0.1361059 0.05303228
v -0.4700029 0.09561885 -0.01630459
v -0.4700029 0.1565059 -0.02462492
v -0.4700029 0.2054428 0.01254524
v -0.4700029 0.1765929 0.1223692
v -0.4700029 0.1361059 0.05303228
v -0.4700029 0.2137631 0.07343221
v -0.500003 0.09561885 -0.01630459
v -0.4700029 0.09561885 -0.01630459
v -0.4700029 0.1361059 0.05303228
v -0.500003 0.1361059 0.05303228
v -0.500003 0.1565059 -0.02462492
v -0.4700029 0.1565059 -0.02462492
v -0.4700029 0.09561885 -0.01630459
v -0.500003 0.09561885 -0.01630459
v -0.500003 0.2137631 0.07343221
v -0.4700029 0.2137631 0.07343221
v -0.4700029 0.2054428 0.01254524
v -0.500003 0.2054428 0.01254524
v -0.500003 0.1361059 0.05303228
v -0.4700029 0.1361059 0.05303228
v -0.4700029 0.1765929 0.1223692
v -0.500003 0.1765929 0.1223692
v -0.5000005 0.3961719 0.1558229
v -0.500003 0.1765929 0.1223692
v -0.500003 0.2137631 0.07343221
v -0.5000006 0.2302905 0.2515946
v -0.5000006 0.03006665 0.136173
v 0.1499277 0.07471945 0.1781844
v -0.1499277 0.07471945 0.1781844
v -0.1499277 0.1713371 0.233963
v 0.1499277 0.1713371 0.233963
v 0.2499961 0.1935811 0.2699008
v 0.1499277 0.1713371 0.233963
v -0.1499277 0.1713371 0.233963
v -0.2499961 0.1935811 0.2699008
v -0.2499961 0.03247649 0.1768932
v -0.1499277 0.07471945 0.1781844
v 0.1499277 0.07471945 0.1781844
v 0.2499961 0.03247649 0.1768932
v 0.2499961 0.03247649 0.1768932
v 0.1499277 0.07471945 0.1781844
v 0.1499277 0.1713371 0.233963
v 0.2499961 0.1935811 0.2699008
v 0.47 0.202244 -0.2400928
v 0.4627787 0.2417211 -0.2317165
v -0.4627787 0.2417211 -0.2317166
v -0.47 0.202244 -0.2400929
v -0.4627787 0.2417211 -0.2317166
v 0.4627787 0.2417211 -0.2317165
v 0.4627786 0.4346482 0.1024429
v -0.4627787 0.4346482 0.1024429
v 0.4699999 0.4221635 0.1408187
v 0.4627786 0.4346482 0.1024429
v 0.4627787 0.2417211 -0.2317165
v 0.47 0.202244 -0.2400928
v -0.4700001 0.4221653 0.1408142
v -0.4627787 0.4346482 0.1024429
v 0.4627786 0.4346482 0.1024429
v 0.4699999 0.4221635 0.1408187
v -0.47 0.202244 -0.2400929
v -0.4627787 0.2417211 -0.2317166
v -0.4627787 0.4346482 0.1024429
v -0.4700001 0.4221653 0.1408142
v 0.47 0.2023521 -0.2401617
v 0.4999999 0.1762517 -0.2250901
v 0.4999999 0.396172 0.155823
v 0.4699999 0.4221635 0.1408187
v 0.47 0.2000764 0.2736506
v 0.4999999 0.2302844 0.2515982
v 0.4999999 0.03031581 0.1366015
v 0.47 0.02598119 0.1731434
v 0.47 0.2520404 0.2736534
v 0.47 0.2000764 0.2736506
v -0.47 0.2000764 0.2736506
v -0.47 0.2520404 0.2736534
v -0.47 0 0.1281441
v -0.47 0.02598119 0.1731434
v 0.47 0.02598119 0.1731434
v 0.47 0 0.1281441
v 0.4999999 0.03084952 -0.1410899
v 0.47 0 -0.127915
v 0.47 0 0.1281441
v 0.4999999 0.03031581 0.1366015
v 0.47 0.02597656 -0.1729222
v 0.4999999 0.03084952 -0.1410899
v 0.4999999 0.1762517 -0.2250901
v 0.47 0.1613748 -0.2511466
v 0.47 0.4111829 0.1818022
v 0.4999999 0.396172 0.155823
v 0.4999999 0.2302844 0.2515982
v 0.47 0.2520404 0.2736534
v -0.5000005 0.3961719 0.1558229
v -0.47 0.4111829 0.1818022
v -0.47 0.2520404 0.2736534
v -0.5000006 0.2302905 0.2515946
v -0.5000006 0.2302905 0.2515946
v -0.47 0.2000764 0.2736506
v -0.47 0.02598119 0.1731434
v -0.5000006 0.03006665 0.136173
v -0.47 0 -0.127915
v -0.5000006 0.0294308 -0.1400322
v -0.5000006 0.03006665 0.136173
v -0.47 0 0.1281441
v 0.47 0 -0.127915
v 0.47 0.02597656 -0.1729222
v -0.47 0.02597656 -0.1729222
v -0.47 0 -0.127915
v -0.5000006 0.0294308 -0.1400322
v -0.47 0.02597656 -0.1729222
v -0.47 0.1613748 -0.2511466
v -0.5000005 0.1762462 -0.2250996
v 0.4999999 0.396172 0.155823
v 0.4999993 0.2171451 0.005496983
v 0.4999993 0.2252703 0.045153
v 0.4999993 0.2029746 0.07893942
v 0.4999999 0.1762517 -0.2250901
v 0.4999993 0.1833587 -0.01679864
v 0.4999999 0.2302844 0.2515982
v 0.4999993 0.1633186 0.08706464
v 0.4999999 0.03084952 -0.1410899
v 0.4999993 0.1295322 0.06476895
v 0.4999999 0.03031581 0.1366015
v 0.4999993 0.1437027 -0.008673478
v 0.4999993 0.121407 0.02511298
v 0.2499961 0.1935811 0.2699008
v 0.47 0.02598119 0.1731434
v 0.2499961 0.03247649 0.1768932
v 0.47 0.2000764 0.2736506
v -0.47 0.02598119 0.1731434
v -0.2499961 0.1935811 0.2699008
v -0.2499961 0.03247649 0.1768932
v -0.47 0.2000764 0.2736506

vn 0.5775276 0.7885582 0.2112767
vn 0.5775276 0.7885582 0.2112767
vn 0.5775276 0.7885582 0.2112767
vn 0.5572429 -0.7191619 -0.4150741
vn 0.5572429 -0.7191619 -0.4150741
vn 0.5572429 -0.7191619 -0.4150741
vn 0.5792092 0.2110749 -0.787378
vn 0.5792092 0.2110749 -0.787378
vn 0.5792092 0.2110749 -0.787378
vn -0.543657 -0.7269198 -0.419553
vn -0.543657 -0.7269198 -0.419553
vn -0.543657 -0.7269198 -0.419553
vn -0.5917701 -0.6981032 0.4030635
vn -0.5917701 -0.6981032 0.4030635
vn -0.5917701 -0.6981032 0.4030635
vn -0.592362 -4.23553E-05 0.8056719
vn -0.592362 -4.23553E-05 0.8056719
vn -0.592362 -4.23553E-05 0.8056719
vn -0.5790612 0.2111008 -0.7874799
vn -0.5790612 0.2111008 -0.7874799
vn -0.5790612 0.2111008 -0.7874799
vn -0.5775262 0.7885556 0.2112905
vn -0.5775262 0.7885556 0.2112905
vn -0.5775262 0.7885556 0.2112905
vn 0.5923069 -4.332109E-05 0.8057125
vn 0.5923069 -4.332109E-05 0.8057125
vn 0.5923069 -4.332109E-05 0.8057125
vn 0.5918062 -0.6980804 0.40305
vn 0.5918062 -0.6980804 0.40305
vn 0.5918062 -0.6980804 0.40305
vn 0.1960076 -0.4902768 0.8492407
vn 0.1960076 -0.4902768 0.8492407
vn 0.1960076 -0.4902768 0.8492407
vn 0.1960076 -0.4902768 0.8492407
vn -0.01111129 0.9658693 0.2587912
vn -0.01111129 0.9658693 0.2587912
vn -0.01111129 0.9658693 0.2587912
vn -0.01111129 0.9658693 0.2587912
vn -0.01111129 0.9658693 0.2587912
vn 0 0.4998787 0.8660954
vn 0 0.4998787 0.8660954
vn 0 0.4998787 0.8660954
vn 0 0.4998787 0.8660954
vn 1 0 0
vn 1 0 0
vn 1 0 0
vn 1 0 0
vn 1 0 0
vn 1 0 0
vn 1 0 0
vn 1 0 0
vn 1 0 0
vn 0 0.2589301 -0.965896
vn 0 0.2589301 -0.965896
vn 0 0.2589301 -0.965896
vn 0 0.2589301 -0.965896
vn 0 -0.5002502 -0.8658808
vn 0 -0.5002502 -0.8658808
vn 0 -0.5002502 -0.8658808
vn 0 -0.5002502 -0.8658808
vn -1 -3.617708E-05 0
vn -1 -3.617708E-05 0
vn -1 -3.617708E-05 0
vn -1 0 -1.392918E-05
vn -1 0 -1.392918E-05
vn -0.7080106 0.6116385 -0.3530146
vn -0.7080106 0.6116385 -0.3530146
vn -0.7080106 0.6116385 -0.3530146
vn -0.7080106 0.6116385 -0.3530146
vn 0 -1 0
vn 0 -1 0
vn 0 -1 0
vn 0 -1 0
vn -1 1.427866E-05 0
vn -1 1.427866E-05 0
vn -1 1.427866E-05 0
vn -1 2.262606E-05 -1.340079E-05
vn -1 0 -1.095221E-05
vn -1 -1.542298E-05 0
vn -1 -1.542298E-05 0
vn -1 -1.542298E-05 0
vn -1 -1.542298E-05 0
vn 0 -0.7963344 -0.6048566
vn 0 -0.7963344 -0.6048566
vn 0 -0.7963344 -0.6048566
vn 0 -0.7963344 -0.6048566
vn 0 -0.6048574 0.7963338
vn 0 -0.6048574 0.7963338
vn 0 -0.6048574 0.7963338
vn 0 -0.6048574 0.7963338
vn -1 0 0
vn -1 0 0
vn -1 0 0
vn -1 0 0
vn -1 0 0
vn -1 0 0
vn -1 0 0
vn 0 0.8635591 -0.5042476
vn 0 0.8635591 -0.5042476
vn 0 0.8635591 -0.5042476
vn 0 0.8635591 -0.5042476
vn 0 0.1353937 0.9907919
vn 0 0.1353937 0.9907919
vn 0 0.1353937 0.9907919
vn 0 0.1353937 0.9907919
vn 0 -0.9907918 0.1353941
vn 0 -0.9907918 0.1353941
vn 0 -0.9907918 0.1353941
vn 0 -0.9907918 0.1353941
vn 0 0.8635594 -0.5042471
vn 0 0.8635594 -0.5042471
vn 0 0.8635594 -0.5042471
vn 0 0.8635594 -0.5042471
vn -1 0 1.265337E-05
vn -1 0 1.265337E-05
vn -1 0 1.265337E-05
vn -1 0 1.265337E-05
vn -1 -1.39858E-05 2.423429E-05
vn 0 -0.4999751 0.8660398
vn 0 -0.4999751 0.8660398
vn 0 -0.4999751 0.8660398
vn 0 -0.4999751 0.8660398
vn 0 -0.8502998 0.5262986
vn 0 -0.8502998 0.5262986
vn 0 -0.8502998 0.5262986
vn 0 -0.8502998 0.5262986
vn 0 -0.03055284 0.9995332
vn 0 -0.03055284 0.9995332
vn 0 -0.03055284 0.9995332
vn 0 -0.03055284 0.9995332
vn -0.1960076 -0.4902768 0.8492407
vn -0.1960076 -0.4902768 0.8492407
vn -0.1960076 -0.4902768 0.8492407
vn -0.1960076 -0.4902768 0.8492407
vn 0 0.2075603 -0.9782223
vn 0 0.2075603 -0.9782223
vn 0 0.2075603 -0.9782223
vn 0 0.2075603 -0.9782223
vn 0 0.8660254 -0.5000001
vn 0 0.8660254 -0.5000001
vn 0 0.8660254 -0.5000001
vn 0 0.8660254 -0.5000001
vn 0.9722304 0.2026727 -0.1170124
vn 0.9722304 0.2026727 -0.1170124
vn 0.9722304 0.2026727 -0.1170124
vn 0.9722304 0.2026727 -0.1170124
vn 0 0.9509438 0.3093638
vn 0 0.9509438 0.3093638
vn 0 0.9509438 0.3093638
vn 0 0.9509438 0.3093638
vn -0.9722266 0.2026856 -0.1170217
vn -0.9722266 0.2026856 -0.1170217
vn -0.9722266 0.2026856 -0.1170217
vn -0.9722266 0.2026856 -0.1170217
vn 0.7079943 0.6116544 -0.3530198
vn 0.7079943 0.6116544 -0.3530198
vn 0.7079943 0.6116544 -0.3530198
vn 0.7079943 0.6116544 -0.3530198
vn 0.7499105 -0.3302385 0.5732161
vn 0.7499105 -0.3302385 0.5732161
vn 0.7499105 -0.3302385 0.5732161
vn 0.7499105 -0.3302385 0.5732161
vn 0 -5.3081E-05 1
vn 0 -5.3081E-05 1
vn 0 -5.3081E-05 1
vn 0 -5.3081E-05 1
vn 0 -0.8660183 0.5000123
vn 0 -0.8660183 0.5000123
vn 0 -0.8660183 0.5000123
vn 0 -0.8660183 0.5000123
vn 0.7138487 -0.7002996 -0.0007001677
vn 0.7138487 -0.7002996 -0.0007001677
vn 0.7138487 -0.7002996 -0.0007001677
vn 0.7138487 -0.7002996 -0.0007001677
vn 0.707136 -0.3537093 -0.6122485
vn 0.707136 -0.3537093 -0.6122485
vn 0.707136 -0.3537093 -0.6122485
vn 0.707136 -0.3537093 -0.6122485
vn 0.7070017 0.3535642 0.6124877
vn 0.7070017 0.3535642 0.6124877
vn 0.7070017 0.3535642 0.6124877
vn 0.7070017 0.3535642 0.6124877
vn -0.7069949 0.3535677 0.6124935
vn -0.7069949 0.3535677 0.6124935
vn -0.7069949 0.3535677 0.6124935
vn -0.7069949 0.3535677 0.6124935
vn -0.7511209 -0.3298709 0.5718414
vn -0.7511209 -0.3298709 0.5718414
vn -0.7511209 -0.3298709 0.5718414
vn -0.7511209 -0.3298709 0.5718414
vn -0.7041487 -0.710052 0.0008482477
vn -0.7041487 -0.710052 0.0008482477
vn -0.7041487 -0.710052 0.0008482477
vn -0.7041487 -0.710052 0.0008482477
vn 0 -0.8660954 -0.4998789
vn 0 -0.8660954 -0.4998789
vn 0 -0.8660954 -0.4998789
vn 0 -0.8660954 -0.4998789
vn -0.7082223 -0.3535715 -0.6110715
vn -0.7082223 -0.3535715 -0.6110715
vn -0.7082223 -0.3535715 -0.6110715
vn -0.7082223 -0.3535715 -0.6110715
vn 1 0 0
vn 1 0 0
vn 1 0 0
vn 1 0 0
vn 1 0 0
vn 1 0 0
vn 1 0 0
vn 1 0 0
vn 1 0 0
vn 1 0 0
vn 1 0 0
vn 1 0 0
vn 1 0 0
vn 0 -0.4999751 0.8660398
vn 0 -0.4999751 0.8660398
vn 0 -0.4999751 0.8660398
vn 0 -0.4999751 0.8660398
vn 0 -0.4999751 0.8660398
vn 0 -0.4999751 0.8660398
vn 0 -0.4999751 0.8660398
vn 0 -0.4999751 0.8660398

vt 0.1836285 0.7158917
vt 0.1835195 0.7184866
vt 0.1852117 0.7162247
vt 0.2266199 0.7164194
vt 0.2272459 0.7180306
vt 0.2282311 0.7164194
vt 0.1579321 0.7161954
vt 0.1595711 0.7186589
vt 0.1595186 0.7158644
vt 0.1589706 0.6528206
vt 0.1575912 0.6554068
vt 0.1595372 0.6538014
vt 0.1742612 0.6454812
vt 0.1729062 0.6449422
vt 0.1732144 0.6458592
vt 0.185514 0.6537439
vt 0.1840536 0.6512138
vt 0.1835933 0.6525007
vt 0.1578742 0.6661874
vt 0.1580941 0.6655487
vt 0.1566437 0.6645742
vt 0.04006999 0.6571828
vt 0.04165421 0.6568511
vt 0.04066813 0.6562945
vt 0.1838519 0.7291634
vt 0.1846319 0.7298245
vt 0.1854981 0.7285087
vt 0.2104506 0.7164194
vt 0.212346 0.7180306
vt 0.2112562 0.7164194
vt 0.09545252 0.6623392
vt 0.09317404 0.6568549
vt 0.08723681 0.6567802
vt 0.08498594 0.6623107
vt 0.1842228 0.6655719
vt 0.1836247 0.6664601
vt 0.1836285 0.7158917
vt 0.1852117 0.7162247
vt 0.1852089 0.6661285
vt 0.1955875 0.6659583
vt 0.1852089 0.6661285
vt 0.1852117 0.7162248
vt 0.1955878 0.7163947
vt 0.08651382 0.6785774
vt 0.08497474 0.6748617
vt 0.08497474 0.6770383
vt 0.08760214 0.67595
vt 0.08651382 0.6733227
vt 0.08869044 0.6733227
vt 0.09022952 0.6748617
vt 0.09022952 0.6770383
vt 0.08869044 0.6785774
vt 0.1579321 0.7161954
vt 0.1595186 0.7158644
vt 0.159463 0.6665145
vt 0.1578742 0.6661874
vt 0.1579321 0.7161954
vt 0.1578742 0.6661874
vt 0.149021 0.66607
vt 0.1490826 0.7163348
vt 0.1595372 0.6538014
vt 0.1671014 0.6541878
vt 0.1725897 0.6460657
vt 0.1684352 0.6573158
vt 0.1598029 0.6632616
vt 0.159463 0.6665145
vt 0.1836246 0.6664601
vt 0.1842228 0.6655719
vt 0.1598029 0.6632616
vt 0.2266199 0.7164194
vt 0.2266199 0.6659338
vt 0.2128675 0.6659338
vt 0.2128675 0.7164194
vt 0.1833466 0.66324
vt 0.174669 0.657329
vt 0.1715478 0.6585932
vt 0.1598029 0.6632616
vt 0.1684352 0.6573158
vt 0.1715575 0.6541717
vt 0.1725831 0.6460724
vt 0.1671014 0.6541878
vt 0.1760184 0.6542011
vt 0.08903509 0.6730244
vt 0.08856228 0.6709574
vt 0.08693826 0.6694136
vt 0.08512954 0.670549
vt 0.08497474 0.6658871
vt 0.08693877 0.6665374
vt 0.08899102 0.6645476
vt 0.08818064 0.6626375
vt 0.09078708 0.668111
vt 0.09133597 0.6648024
vt 0.08899102 0.6645476
vt 0.08693877 0.6665374
vt 0.08856228 0.6709574
vt 0.09078708 0.668111
vt 0.08693826 0.6694136
vt 0.09280568 0.6630708
vt 0.09133597 0.6648024
vt 0.09078708 0.668111
vt 0.09280568 0.6688124
vt 0.08818064 0.6626375
vt 0.08899102 0.6645476
vt 0.09133597 0.6648024
vt 0.09280568 0.6630708
vt 0.08512954 0.670549
vt 0.08693826 0.6694136
vt 0.08693877 0.6665374
vt 0.08497474 0.6658871
vt 0.09280568 0.6688124
vt 0.09078708 0.668111
vt 0.08856228 0.6709574
vt 0.08903509 0.6730244
vt 0.1833484 0.6632586
vt 0.1760184 0.6542011
vt 0.174669 0.657329
vt 0.1835933 0.6525007
vt 0.172574 0.6460643
vt 0.08725292 0.6409191
vt 0.08723681 0.6567802
vt 0.09317404 0.6568549
vt 0.09319273 0.6408413
vt 0.09545252 0.6353483
vt 0.09319273 0.6408413
vt 0.09317404 0.6568549
vt 0.09545252 0.6623392
vt 0.08498594 0.6623107
vt 0.08723681 0.6567802
vt 0.08725292 0.6409191
vt 0.08497474 0.6353956
vt 0.08497474 0.6353956
vt 0.08725292 0.6409191
vt 0.09319273 0.6408413
vt 0.09545252 0.6353483
vt 0.1152122 0.6844652
vt 0.113263 0.6858762
vt 0.1130793 0.728392
vt 0.1152122 0.7299311
vt 0.1130793 0.728392
vt 0.113263 0.6858762
vt 0.0948852 0.6856053
vt 0.09473566 0.7278744
vt 0.0927145 0.6838806
vt 0.0948852 0.6856053
vt 0.113263 0.6858762
vt 0.1152122 0.6844652
vt 0.0927465 0.7294479
vt 0.09473566 0.7278744
vt 0.0948852 0.6856053
vt 0.0927145 0.6838806
vt 0.1152122 0.7299311
vt 0.1130793 0.728392
vt 0.09473566 0.7278744
vt 0.0927465 0.7294479
vt 0.1595186 0.7158644
vt 0.1595711 0.7186589
vt 0.1835195 0.7184866
vt 0.1836285 0.7158917
vt 0.1988483 0.7164193
vt 0.198118 0.7180306
vt 0.2104918 0.7180306
vt 0.209645 0.7164193
vt 0.1955878 0.7163947
vt 0.1988483 0.7164193
vt 0.1988483 0.6659339
vt 0.1955875 0.6659583
vt 0.2128675 0.6659338
vt 0.209645 0.6659339
vt 0.2096449 0.7164192
vt 0.2128675 0.7164194
vt 0.2272459 0.7180306
vt 0.2266199 0.7164194
vt 0.2128675 0.7164194
vt 0.212346 0.7180306
vt 0.1490826 0.7163348
vt 0.1482761 0.7179507
vt 0.1571403 0.7178045
vt 0.1579321 0.7161954
vt 0.1852118 0.7178236
vt 0.1835738 0.7186544
vt 0.1838519 0.7291634
vt 0.1854981 0.7285087
vt 0.1833484 0.6632586
vt 0.1852088 0.6645296
vt 0.185473 0.6537782
vt 0.1835933 0.6525007
vt 0.1835933 0.6525007
vt 0.1840536 0.6512138
vt 0.1742612 0.6454812
vt 0.172574 0.6460643
vt 0.2266199 0.6659338
vt 0.2266417 0.6643226
vt 0.2121355 0.6643226
vt 0.2128675 0.6659338
vt 0.2266199 0.7164194
vt 0.2282311 0.7164194
vt 0.2282311 0.6659338
vt 0.2266199 0.6659338
vt 0.1595372 0.6538014
vt 0.1575912 0.6554068
vt 0.1578723 0.6645914
vt 0.1598029 0.6632616
vt 0.1835284 0.7185141
vt 0.1715813 0.7229857
vt 0.1736755 0.7236748
vt 0.1747076 0.7256618
vt 0.1595711 0.7186589
vt 0.1696076 0.723977
vt 0.1838519 0.7291634
vt 0.1740168 0.7277997
vt 0.159348 0.7278453
vt 0.1720062 0.7288067
vt 0.1727039 0.7357401
vt 0.1688878 0.7260805
vt 0.1698762 0.7280932
vt 0.1992511 0.7046032
vt 0.209645 0.7164193
vt 0.2092421 0.7046032
vt 0.1988483 0.7164193
vt 0.209645 0.6659338
vt 0.1992511 0.6777499
vt 0.2092422 0.6777499
vt 0.1988483 0.6659338

usemtl LOW-POLY-COLORS
usemap LOW-POLY-COLORS
f 2/2/2 1/1/1 3/3/3
f 5/5/5 4/4/4 6/6/6
f 8/8/8 7/7/7 9/9/9
f 11/11/11 10/10/10 12/12/12
f 14/14/14 13/13/13 15/15/15
f 17/17/17 16/16/16 18/18/18
f 20/20/20 19/19/19 21/21/21
f 23/23/23 22/22/22 24/24/24
f 26/26/26 25/25/25 27/27/27
f 29/29/29 28/28/28 30/30/30
f 32/32/32 31/31/31 33/33/33
f 33/33/33 31/31/31 34/34/34
f 36/36/36 35/35/35 37/37/37
f 38/38/38 37/37/37 35/35/35
f 39/39/39 38/38/38 35/35/35
f 41/41/41 40/40/40 42/42/42
f 42/42/42 40/40/40 43/43/43
f 45/45/45 44/44/44 46/46/46
f 47/47/47 44/44/44 45/45/45
f 48/48/48 47/47/47 45/45/45
f 49/49/49 47/47/47 48/48/48
f 50/50/50 47/47/47 49/49/49
f 51/51/51 47/47/47 50/50/50
f 51/51/51 44/44/44 47/47/47
f 52/52/52 44/44/44 51/51/51
f 54/54/54 53/53/53 55/55/55
f 55/55/55 53/53/53 56/56/56
f 58/58/58 57/57/57 59/59/59
f 59/59/59 57/57/57 60/60/60
f 62/62/62 61/61/61 63/63/63
f 64/64/64 61/61/61 62/62/62
f 65/65/65 61/61/61 64/64/64
f 67/67/67 66/66/66 68/68/68
f 68/68/68 66/66/66 69/69/69
f 71/71/71 70/70/70 72/72/72
f 72/72/72 70/70/70 73/73/73
f 75/75/75 74/74/74 76/76/76
f 76/76/76 74/74/74 77/77/77
f 76/76/76 77/77/77 78/78/78
f 80/80/80 79/79/79 81/81/81
f 80/80/80 82/82/82 79/79/79
f 84/84/84 83/83/83 85/85/85
f 85/85/85 83/83/83 86/86/86
f 88/88/88 87/87/87 89/89/89
f 89/89/89 87/87/87 90/90/90
f 92/92/92 91/91/91 93/93/93
f 93/93/93 91/91/91 94/94/94
f 96/96/96 95/95/95 94/94/94
f 94/94/94 95/95/95 97/97/97
f 99/99/99 98/98/98 100/100/100
f 100/100/100 98/98/98 101/101/101
f 103/103/103 102/102/102 104/104/104
f 104/104/104 102/102/102 105/105/105
f 107/107/107 106/106/106 108/108/108
f 108/108/108 106/106/106 109/109/109
f 111/111/111 110/110/110 112/112/112
f 112/112/112 110/110/110 113/113/113
f 115/115/115 114/114/114 116/116/116
f 117/117/117 114/114/114 115/115/115
f 118/118/118 117/117/117 115/115/115
f 120/120/120 119/119/119 121/121/121
f 121/121/121 119/119/119 122/122/122
f 124/124/124 123/123/123 125/125/125
f 125/125/125 123/123/123 126/126/126
f 128/128/128 127/127/127 129/129/129
f 129/129/129 127/127/127 130/130/130
f 132/132/132 131/131/131 133/133/133
f 133/133/133 131/131/131 134/134/134
f 136/136/136 135/135/135 137/137/137
f 137/137/137 135/135/135 138/138/138
f 140/140/140 139/139/139 141/141/141
f 141/141/141 139/139/139 142/142/142
f 144/144/144 143/143/143 145/145/145
f 145/145/145 143/143/143 146/146/146
f 148/148/148 147/147/147 149/149/149
f 149/149/149 147/147/147 150/150/150
f 152/152/152 151/151/151 153/153/153
f 153/153/153 151/151/151 154/154/154
f 156/156/156 155/155/155 157/157/157
f 157/157/157 155/155/155 158/158/158
f 160/160/160 159/159/159 161/161/161
f 161/161/161 159/159/159 162/162/162
f 164/164/164 163/163/163 165/165/165
f 165/165/165 163/163/163 166/166/166
f 168/168/168 167/167/167 169/169/169
f 169/169/169 167/167/167 170/170/170
f 172/172/172 171/171/171 173/173/173
f 173/173/173 171/171/171 174/174/174
f 176/176/176 175/175/175 177/177/177
f 177/177/177 175/175/175 178/178/178
f 180/180/180 179/179/179 181/181/181
f 181/181/181 179/179/179 182/182/182
f 184/184/184 183/183/183 185/185/185
f 185/185/185 183/183/183 186/186/186
f 188/188/188 187/187/187 189/189/189
f 189/189/189 187/187/187 190/190/190
f 192/192/192 191/191/191 193/193/193
f 193/193/193 191/191/191 194/194/194
f 196/196/196 195/195/195 197/197/197
f 197/197/197 195/195/195 198/198/198
f 200/200/200 199/199/199 201/201/201
f 201/201/201 199/199/199 202/202/202
f 204/204/204 203/203/203 205/205/205
f 205/205/205 203/203/203 206/206/206
f 204/204/204 207/207/207 203/203/203
f 208/208/208 207/207/207 204/204/204
f 206/206/206 203/203/203 209/209/209
f 209/209/209 210/210/210 206/206/206
f 208/208/208 211/211/211 207/207/207
f 210/210/210 209/209/209 212/212/212
f 212/212/212 209/209/209 213/213/213
f 213/213/213 211/211/211 212/212/212
f 214/214/214 211/211/211 208/208/208
f 212/212/212 211/211/211 215/215/215
f 211/211/211 214/214/214 215/215/215
f 217/217/217 216/216/216 218/218/218
f 219/219/219 216/216/216 217/217/217
f 217/217/217 218/218/218 220/220/220
f 219/219/219 221/221/221 216/216/216
f 220/220/220 218/218/218 222/222/222
f 223/223/223 221/221/221 219/219/219
f 220/220/220 222/222/222 223/223/223
f 223/223/223 222/222/222 221/221/221
