mtllib ./speaker-tower_21.mtl
g speaker-tower
v 0.2999309 0.5103343 -0.06929798
v 0.224931 0.5795227 -0.06929797
v 0.2999309 0.5795227 -0.06929797
v 0.2999309 0.5795227 0.05103918
v 0.224931 0.5795227 0.05103918
v 0.2999309 0.5103343 0.05103919
v 0.224931 0.6099843 0.05103918
v 0.2999309 0.6099843 0.05103918
v 0.2999309 0.7861077 0.05103919
v 0.224931 0.6099843 -0.06929797
v 0.2999309 0.7861078 -0.06929798
v 0.2999309 0.6099843 -0.06929797
v -0.2999285 0.5103343 -0.06929798
v -0.2999285 0.5795227 -0.06929797
v -0.2249287 0.5795227 -0.06929797
v -0.2999285 0.5795227 0.05103918
v -0.2999285 0.5103343 0.05103919
v -0.2249287 0.5795227 0.05103918
v -0.2249287 0.6099843 0.05103918
v -0.2999285 0.7861077 0.05103919
v -0.2999285 0.6099843 0.05103918
v -0.2249287 0.6099843 -0.06929797
v -0.2999285 0.6099843 -0.06929797
v -0.2999285 0.7861078 -0.06929798
v 0.269926 0 0.2199987
v 0.2699262 0.03565985 0.2499987
v 0.2999261 0.03565985 0.2206097
v 0.269926 1 0.2199987
v 0.2999266 0.97 0.2200081
v 0.2699262 0.97 0.2499987
v 0.2699233 0 -0.2200013
v 0.2999232 0.03565985 -0.220667
v 0.2699232 0.03565985 -0.2500013
v 0.2699232 0.97 -0.2500013
v 0.2999232 0.97 -0.2200058
v 0.2699233 1 -0.2200013
v -0.2699201 1 0.2199987
v -0.2699203 0.97 0.2499987
v -0.2999202 0.97 0.2199987
v -0.2699203 0.03565985 0.2499987
v -0.2699201 0 0.2199987
v -0.2999202 0.03565985 0.2199987
v -0.2699175 1 -0.2200013
v -0.2999182 0.97 -0.2192845
v -0.2699173 0.97 -0.2500013
v -0.2699175 0 -0.2200013
v -0.2699173 0.03565985 -0.2500013
v -0.2999181 0.03565985 -0.2200041
v 0.2699262 0.03565985 0.2499987
v 0.2429336 0.04288116 0.2799987
v 0.2429336 0.9627787 0.2799987
v 0.2699262 0.97 0.2499987
v 0.2999309 0.5960993 0.08039182
v 0.2999266 0.97 0.2200081
v 0.2999255 0.8155077 0.08039144
v 0.2999261 0.03565985 0.2206097
v 0.2999255 0.4809343 0.08039144
v 0.2999238 0.4809343 -0.09868926
v 0.2999232 0.03565985 -0.220667
v 0.2999309 0.5960993 -0.09869798
v 0.2999232 0.97 -0.2200058
v 0.2999238 0.8155078 -0.09868926
v 0.269926 1 0.2199987
v -0.2699201 1 0.2199987
v -0.2699175 1 -0.2200013
v 0.2699233 1 -0.2200013
v -0.2999179 0.8155078 -0.09869429
v -0.2999182 0.97 -0.2192845
v -0.2999202 0.97 0.2199987
v -0.2999197 0.8155077 0.08039647
v 0.2429336 0.9627787 0.2799987
v 0.2429336 0.04288116 0.2799987
v -0.2429283 0.04288116 0.2799987
v -0.2429283 0.9627787 0.2799987
v -0.2699203 0.03565985 0.2499987
v -0.2429283 0.04288116 0.2799987
v 0.2429336 0.04288116 0.2799987
v 0.2699262 0.03565985 0.2499987
v -0.2699203 0.97 0.2499987
v -0.2429283 0.9627787 0.2799987
v -0.2429283 0.04288116 0.2799987
v -0.2699203 0.03565985 0.2499987
v 0.2699262 0.97 0.2499987
v 0.2429336 0.9627787 0.2799987
v -0.2429283 0.9627787 0.2799987
v -0.2699203 0.97 0.2499987
v -0.2699201 0 0.2199987
v 0.269926 0 0.2199987
v 0.2699233 0 -0.2200013
v -0.2699175 0 -0.2200013
v 0.2699232 0.97 -0.2500013
v -0.2699173 0.97 -0.2500013
v -0.2699173 0.03565985 -0.2500013
v 0.2699232 0.03565985 -0.2500013
v -0.2999179 0.8155078 -0.09869429
v -0.2999285 0.5960993 -0.09869798
v -0.2999182 0.97 -0.2192845
v -0.2999285 0.4809343 -0.09869798
v -0.2999181 0.03565985 -0.2200041
v -0.2999212 0.4809343 0.08040026
v -0.2999202 0.03565985 0.2199987
v -0.2999202 0.97 0.2199987
v -0.2999197 0.5960993 0.08039647
v -0.2999197 0.8155077 0.08039647
v -0.2999285 0.5103343 -0.06929798
v -0.2999285 0.5103343 0.05103919
v -0.2999212 0.4809343 0.08040026
v -0.2999285 0.4809343 -0.09869798
v -0.2999285 0.5795227 -0.06929797
v -0.2999285 0.4809343 -0.09869798
v -0.2999285 0.5960993 -0.09869798
v -0.2999285 0.5103343 0.05103919
v -0.2999197 0.5960993 0.08039647
v -0.2999285 0.5795227 0.05103918
v -0.2999285 0.7861078 -0.06929798
v -0.2999285 0.6099843 -0.06929797
v -0.2999179 0.8155078 -0.09869429
v -0.2999285 0.7861077 0.05103919
v -0.2999197 0.8155077 0.08039647
v -0.2999197 0.5960993 0.08039647
v -0.2999285 0.6099843 0.05103918
v -0.2999285 0.5795227 -0.06929797
v -0.2999285 0.7861077 0.05103919
v -0.2999197 0.8155077 0.08039647
v -0.2999285 0.6099843 -0.06929797
v -0.2999285 0.5960993 -0.09869798
v 0.2999309 0.6099843 -0.06929797
v 0.2999309 0.5960993 -0.09869798
v 0.2999309 0.5795227 -0.06929797
v 0.2999309 0.6099843 0.05103918
v 0.2999309 0.5795227 0.05103918
v 0.2999309 0.5960993 0.08039182
v 0.2999309 0.7861077 0.05103919
v 0.2999255 0.8155077 0.08039144
v 0.2999309 0.5103343 0.05103919
v 0.2999309 0.5960993 0.08039182
v 0.2999255 0.4809343 0.08039144
v 0.2999309 0.5103343 -0.06929798
v 0.2999238 0.4809343 -0.09868926
v 0.2999309 0.5103343 0.05103919
v 0.2999309 0.5795227 -0.06929797
v 0.2999238 0.4809343 -0.09868926
v 0.2999309 0.5960993 -0.09869798
v 0.2999309 0.6099843 -0.06929797
v 0.2999309 0.7861078 -0.06929798
v 0.2999238 0.8155078 -0.09868926
v 0.2999309 0.7861077 0.05103919
v 0.2999255 0.8155077 0.08039144
v 0.2999309 0.5103343 0.05103919
v 0.224931 0.5795227 0.05103918
v 0.224931 0.5795227 -0.06929797
v 0.2999309 0.5103343 -0.06929798
v 0.2999309 0.7861078 -0.06929798
v 0.224931 0.6099843 -0.06929797
v 0.224931 0.6099843 0.05103918
v 0.2999309 0.7861077 0.05103919
v 0.224931 0.5795227 0.05103918
v 0.2999309 0.5795227 0.05103918
v 0.2999309 0.5795227 -0.06929797
v 0.224931 0.5795227 -0.06929797
v 0.224931 0.6099843 -0.06929797
v 0.2999309 0.6099843 -0.06929797
v 0.2999309 0.6099843 0.05103918
v 0.224931 0.6099843 0.05103918
v -0.2999285 0.5103343 0.05103919
v -0.2999285 0.5103343 -0.06929798
v -0.2249287 0.5795227 -0.06929797
v -0.2249287 0.5795227 0.05103918
v -0.2999285 0.7861078 -0.06929798
v -0.2999285 0.7861077 0.05103919
v -0.2249287 0.6099843 0.05103918
v -0.2249287 0.6099843 -0.06929797
v -0.2249287 0.5795227 0.05103918
v -0.2249287 0.5795227 -0.06929797
v -0.2999285 0.5795227 -0.06929797
v -0.2999285 0.5795227 0.05103918
v -0.2249287 0.6099843 -0.06929797
v -0.2249287 0.6099843 0.05103918
v -0.2999285 0.6099843 0.05103918
v -0.2999285 0.6099843 -0.06929797
v 0.2999255 0.8155077 0.08039144
v 0.2999266 0.97 0.2200081
v 0.2999232 0.97 -0.2200058
v 0.2999238 0.8155078 -0.09868926
v 0.269926 1 0.2199987
v 0.2699262 0.97 0.2499987
v -0.2699203 0.97 0.2499987
v -0.2699201 1 0.2199987
v 0.2699262 0.03565985 0.2499987
v 0.269926 0 0.2199987
v -0.2699201 0 0.2199987
v -0.2699203 0.03565985 0.2499987
v -0.2999202 0.97 0.2199987
v -0.2699203 0.97 0.2499987
v -0.2699203 0.03565985 0.2499987
v -0.2999202 0.03565985 0.2199987
v 0.2999261 0.03565985 0.2206097
v 0.2699262 0.03565985 0.2499987
v 0.2699262 0.97 0.2499987
v 0.2999266 0.97 0.2200081
v 0.2699232 0.97 -0.2500013
v 0.2699233 1 -0.2200013
v -0.2699175 1 -0.2200013
v -0.2699173 0.97 -0.2500013
v 0.2699233 0 -0.2200013
v 0.2699232 0.03565985 -0.2500013
v -0.2699173 0.03565985 -0.2500013
v -0.2699175 0 -0.2200013
v -0.2699173 0.97 -0.2500013
v -0.2999182 0.97 -0.2192845
v -0.2999181 0.03565985 -0.2200041
v -0.2699173 0.03565985 -0.2500013
v 0.2699232 0.03565985 -0.2500013
v 0.2999232 0.03565985 -0.220667
v 0.2999232 0.97 -0.2200058
v 0.2699232 0.97 -0.2500013
v -0.2999202 0.03565985 0.2199987
v -0.2699201 0 0.2199987
v -0.2699175 0 -0.2200013
v -0.2999181 0.03565985 -0.2200041
v -0.2999182 0.97 -0.2192845
v -0.2699175 1 -0.2200013
v -0.2699201 1 0.2199987
v -0.2999202 0.97 0.2199987
v 0.2699233 1 -0.2200013
v 0.2999232 0.97 -0.2200058
v 0.2999266 0.97 0.2200081
v 0.269926 1 0.2199987
v 0.2999232 0.03565985 -0.220667
v 0.2699233 0 -0.2200013
v 0.269926 0 0.2199987
v 0.2999261 0.03565985 0.2206097

vn 0 0 1
vn 0 0 1
vn 0 0 1
vn 0 0 -1
vn 0 0 -1
vn 0 0 -1
vn 0 0 -1
vn 0 0 -1
vn 0 0 -1
vn 0 0 1
vn 0 0 1
vn 0 0 1
vn 0 0 1
vn 0 0 1
vn 0 0 1
vn 0 0 -1
vn 0 0 -1
vn 0 0 -1
vn 0 0 -1
vn 0 0 -1
vn 0 0 -1
vn 0 0 1
vn 0 0 1
vn 0 0 1
vn 0.599815 -0.5151058 0.612281
vn 0.599815 -0.5151058 0.612281
vn 0.599815 -0.5151058 0.612281
vn 0.5772232 0.5774156 0.577412
vn 0.5772232 0.5774156 0.577412
vn 0.5772232 0.5774156 0.577412
vn 0.5990979 -0.5154473 -0.6126956
vn 0.5990979 -0.5154473 -0.6126956
vn 0.5990979 -0.5154473 -0.6126956
vn 0.5772919 0.577378 -0.577381
vn 0.5772919 0.577378 -0.577381
vn 0.5772919 0.577378 -0.577381
vn -0.5773497 0.5773527 0.5773485
vn -0.5773497 0.5773527 0.5773485
vn -0.5773497 0.5773527 0.5773485
vn -0.6077095 -0.5112559 0.6077061
vn -0.6077095 -0.5112559 0.6077061
vn -0.6077095 -0.5112559 0.6077061
vn -0.5864269 0.5727562 -0.5727598
vn -0.5864269 0.5727562 -0.5727598
vn -0.5864269 0.5727562 -0.5727598
vn -0.6076633 -0.5112754 -0.6077358
vn -0.6076633 -0.5112754 -0.6077358
vn -0.6076633 -0.5112754 -0.6077358
vn 0.7433851 0 0.6688637
vn 0.7433851 0 0.6688637
vn 0.7433851 0 0.6688637
vn 0.7433851 0 0.6688637
vn 1 2.444943E-05 -3.453724E-05
vn 1 2.444943E-05 -3.453724E-05
vn 1 2.444943E-05 -3.453724E-05
vn 1 0 1.136699E-05
vn 1 0 1.136699E-05
vn 1 0 -3.268784E-05
vn 1 0 -3.268784E-05
vn 1 0 -3.268784E-05
vn 1 0 -3.268784E-05
vn 1 3.205457E-05 3.526675E-05
vn 0 1 0
vn 0 1 0
vn 0 1 0
vn 0 1 0
vn -1 0 0
vn -1 0 0
vn -1 0 0
vn -1 0 0
vn 0 0 1
vn 0 0 1
vn 0 0 1
vn 0 0 1
vn 0 -0.9722303 0.2340262
vn 0 -0.9722303 0.2340262
vn 0 -0.9722303 0.2340262
vn 0 -0.9722303 0.2340262
vn -0.7433928 0 0.6688551
vn -0.7433928 0 0.6688551
vn -0.7433928 0 0.6688551
vn -0.7433928 0 0.6688551
vn 0 0.9722301 0.2340273
vn 0 0.9722301 0.2340273
vn 0 0.9722301 0.2340273
vn 0 0.9722301 0.2340273
vn 0 -1 0
vn 0 -1 0
vn 0 -1 0
vn 0 -1 0
vn 0 0 -1
vn 0 0 -1
vn 0 0 -1
vn 0 0 -1
vn -1 4.80829E-05 6.363913E-05
vn -1 4.80829E-05 6.363913E-05
vn -1 4.80829E-05 6.363913E-05
vn -1 -1.264608E-05 0
vn -1 -1.264608E-05 0
vn -1 -1.264608E-05 0
vn -1 -1.264608E-05 0
vn -1 0 0
vn -1 0 0
vn -1 0 0
vn -1 -0.0001231788 2.412042E-05
vn -1 -0.0001231788 2.412042E-05
vn -1 -0.0001231788 2.412042E-05
vn -1 -0.0001231788 2.412042E-05
vn -1 0 0
vn -1 0 0
vn -1 0 0
vn -1 0 0.000275485
vn -1 0 0.000275485
vn -1 0 0.0002999338
vn -1 0.0003294426 0
vn -1 2.667459E-05 -0.0001723611
vn -1 0.0003294426 0
vn -1 0.0003294426 0
vn -1 0.0003294426 0
vn -1 0 0.0002999338
vn -1 0 0.0002999338
vn -1 0 0
vn -1 0 0.00030093
vn -1 0 0.00030093
vn -1 0 0
vn -1 0 0
vn 1 0 0
vn 1 0 0
vn 1 0 0
vn 1 0 0
vn 1 -2.909872E-05 8.536623E-05
vn 1 0 0
vn 1 1.356263E-05 8.807989E-05
vn 1 1.356263E-05 8.807989E-05
vn 1 -2.909872E-05 8.536623E-05
vn 1 -2.909872E-05 8.536623E-05
vn 1 -0.0002108429 0
vn 1 -0.0002108429 0
vn 1 -0.0002108429 0
vn 1 -0.0002108429 0
vn 1 -3.815668E-05 -0.0001127367
vn 1 -3.815668E-05 -0.0001127367
vn 1 -3.815668E-05 -0.0001127367
vn 1 1.778453E-05 -0.0001147033
vn 1 0.0002108425 0
vn 1 0.0002108425 0
vn 1 0.0002108425 0
vn 1 0.0002108425 0
vn 0.6780567 0.7350096 0
vn 0.6780567 0.7350096 0
vn 0.6780567 0.7350096 0
vn 0.6780567 0.7350096 0
vn 0.9200536 -0.3917925 0
vn 0.9200536 -0.3917925 0
vn 0.9200536 -0.3917925 0
vn 0.9200536 -0.3917925 0
vn 0 -1 0
vn 0 -1 0
vn 0 -1 0
vn 0 -1 0
vn 0 1 0
vn 0 1 0
vn 0 1 0
vn 0 1 0
vn -0.6780568 0.7350096 0
vn -0.6780568 0.7350096 0
vn -0.6780568 0.7350096 0
vn -0.6780568 0.7350096 0
vn -0.9200536 -0.3917926 0
vn -0.9200536 -0.3917926 0
vn -0.9200536 -0.3917926 0
vn -0.9200536 -0.3917926 0
vn 0 -1 0
vn 0 -1 0
vn 0 -1 0
vn 0 -1 0
vn 0 1 0
vn 0 1 0
vn 0 1 0
vn 0 1 0
vn 1 0 0
vn 1 0 0
vn 1 0 0
vn 1 0 0
vn 0 0.7071071 0.7071064
vn 0 0.7071071 0.7071064
vn 0 0.7071071 0.7071064
vn 0 0.7071071 0.7071064
vn 0 -0.6437673 0.7652214
vn 0 -0.6437673 0.7652214
vn 0 -0.6437673 0.7652214
vn 0 -0.6437673 0.7652214
vn -0.7071081 0 0.7071053
vn -0.7071081 0 0.7071053
vn -0.7071081 0 0.7071053
vn -0.7071081 0 0.7071053
vn 0.7034215 0.000228648 0.710773
vn 0.7034215 0.000228648 0.710773
vn 0.7034215 0.000228648 0.710773
vn 0.7034215 0.000228648 0.710773
vn 0 0.707107 -0.7071065
vn 0 0.707107 -0.7071065
vn 0 0.707107 -0.7071065
vn 0 0.707107 -0.7071065
vn 0 -0.6437672 -0.7652215
vn 0 -0.6437672 -0.7652215
vn 0 -0.6437672 -0.7652215
vn 0 -0.6437672 -0.7652215
vn -0.7112666 0.000270667 -0.7029223
vn -0.7112666 0.000270667 -0.7029223
vn -0.7112666 0.000270667 -0.7029223
vn -0.7112666 0.000270667 -0.7029223
vn 0.7031231 0.0002516005 -0.7110681
vn 0.7031231 0.0002516005 -0.7110681
vn 0.7031231 0.0002516005 -0.7110681
vn 0.7031231 0.0002516005 -0.7110681
vn -0.7652175 -0.6437717 0
vn -0.7652175 -0.6437717 0
vn -0.7652175 -0.6437717 0
vn -0.7652175 -0.6437717 0
vn -0.7071024 0.7071111 0
vn -0.7071024 0.7071111 0
vn -0.7071024 0.7071111 0
vn -0.7071024 0.7071111 0
vn 0.7071037 0.7071099 0
vn 0.7071037 0.7071099 0
vn 0.7071037 0.7071099 0
vn 0.7071037 0.7071099 0
vn 0.7652214 -0.6437672 0
vn 0.7652214 -0.6437672 0
vn 0.7652214 -0.6437672 0
vn 0.7652214 -0.6437672 0

vt 0.03061313 0.7092274
vt 0.03420627 0.7122226
vt 0.03601288 0.7092259
vt 0.03629313 0.7162142
vt 0.03383012 0.7132962
vt 0.03097799 0.7164208
vt 0.04035525 0.7138638
vt 0.0379732 0.7161978
vt 0.04771293 0.7163966
vt 0.04088968 0.7117551
vt 0.04763705 0.7092525
vt 0.03770756 0.7090945
vt 0.009563128 0.716444
vt 0.01496279 0.7164454
vt 0.01315619 0.7134488
vt 0.01524301 0.7094572
vt 0.009927942 0.7092507
vt 0.01278005 0.7123752
vt 0.01930508 0.7118075
vt 0.02666271 0.7092747
vt 0.01692306 0.7094736
vt 0.01983952 0.7139162
vt 0.01665745 0.7165768
vt 0.02658684 0.7164188
vt 0.1559173 0.6781748
vt 0.1582369 0.6789881
vt 0.1581727 0.6771232
vt 0.1992102 0.6791794
vt 0.1973364 0.6781355
vt 0.1972296 0.6799306
vt 0.2436942 0.701941
vt 0.2453466 0.7000353
vt 0.2432914 0.6996921
vt 0.243366 0.6576773
vt 0.2453466 0.6572503
vt 0.2437141 0.6556085
vt 0.1992102 0.7000707
vt 0.1971164 0.6992662
vt 0.1972059 0.7011063
vt 0.1580432 0.6987162
vt 0.1558326 0.6994635
vt 0.1579455 0.7005631
vt 0.2231619 0.6559859
vt 0.2216039 0.6575006
vt 0.2235376 0.6579087
vt 0.2221801 0.7021589
vt 0.2225858 0.6997722
vt 0.2204506 0.7001324
vt 0.1152474 0.6884176
vt 0.113363 0.6897815
vt 0.1131853 0.7308841
vt 0.1152474 0.7323721
vt 0.1819938 0.67138
vt 0.1973364 0.6781355
vt 0.1917202 0.6719903
vt 0.1581727 0.6771232
vt 0.1767372 0.6711243
vt 0.1770866 0.6627626
vt 0.155081 0.6556085
vt 0.1824949 0.6631289
vt 0.2008301 0.6585319
vt 0.1926144 0.6638541
vt 0.1992102 0.6791794
vt 0.1992102 0.7000707
vt 0.2201088 0.7000706
vt 0.2201088 0.6791795
vt 0.1917558 0.7153404
vt 0.1997972 0.7211336
vt 0.1972059 0.7011063
vt 0.191257 0.7070699
vt 0.1131853 0.7308841
vt 0.113363 0.6897815
vt 0.09559608 0.6895198
vt 0.09545147 0.7303837
vt 0.0934975 0.6878523
vt 0.09559608 0.6895198
vt 0.113363 0.6897815
vt 0.1152474 0.6884176
vt 0.09352845 0.731905
vt 0.09545147 0.7303837
vt 0.09559608 0.6895198
vt 0.0934975 0.6878523
vt 0.1152474 0.7323721
vt 0.1131853 0.7308841
vt 0.09545147 0.7303837
vt 0.09352845 0.731905
vt 0.1558326 0.6994635
vt 0.1559173 0.6781748
vt 0.1346211 0.6780902
vt 0.1345364 0.6993787
vt 0.243366 0.6576773
vt 0.2235376 0.6579087
vt 0.2225858 0.6997722
vt 0.2432914 0.6996921
vt 0.1917558 0.7153404
vt 0.1815552 0.7155327
vt 0.1997972 0.7211336
vt 0.1761281 0.715611
vt 0.1540117 0.7214704
vt 0.1761937 0.7072732
vt 0.1579455 0.7005631
vt 0.1972059 0.7011063
vt 0.1814642 0.7072473
vt 0.191257 0.7070699
vt 0.009563128 0.716444
vt 0.009927942 0.7092507
vt 0.008259437 0.7071638
vt 0.007583304 0.7185081
vt 0.01496279 0.7164454
vt 0.007583304 0.7185081
vt 0.01589523 0.7181563
vt 0.009927942 0.7092507
vt 0.01620657 0.7079057
vt 0.01524301 0.7094572
vt 0.02658684 0.7164188
vt 0.01665745 0.7165768
vt 0.02829153 0.7180883
vt 0.02666271 0.7092747
vt 0.02829153 0.7076259
vt 0.01620657 0.7079057
vt 0.01692306 0.7094736
vt 0.01496279 0.7164454
vt 0.02666271 0.7092747
vt 0.02829153 0.7076259
vt 0.01665745 0.7165768
vt 0.01589523 0.7181563
vt 0.03770756 0.7090945
vt 0.03694531 0.7075149
vt 0.03601288 0.7092259
vt 0.0379732 0.7161978
vt 0.03629313 0.7162142
vt 0.03725671 0.7177654
vt 0.04771293 0.7163966
vt 0.04934175 0.7180453
vt 0.03097799 0.7164208
vt 0.03725671 0.7177654
vt 0.02930944 0.7185072
vt 0.03061313 0.7092274
vt 0.0286333 0.7071638
vt 0.03097799 0.7164208
vt 0.03601288 0.7092259
vt 0.0286333 0.7071638
vt 0.03694531 0.7075149
vt 0.03770756 0.7090945
vt 0.04763705 0.7092525
vt 0.04934175 0.7075832
vt 0.04771293 0.7163966
vt 0.04934175 0.7180453
vt 0.03097799 0.7164208
vt 0.03383012 0.7132962
vt 0.03420627 0.7122226
vt 0.03061313 0.7092274
vt 0.04763705 0.7092525
vt 0.04088968 0.7117551
vt 0.04035525 0.7138638
vt 0.04771293 0.7163966
vt 0.03383012 0.7132962
vt 0.03629313 0.7162142
vt 0.03601288 0.7092259
vt 0.03420627 0.7122226
vt 0.04088968 0.7117551
vt 0.03770756 0.7090945
vt 0.0379732 0.7161978
vt 0.04035525 0.7138638
vt 0.009927942 0.7092507
vt 0.009563128 0.716444
vt 0.01315619 0.7134488
vt 0.01278005 0.7123752
vt 0.02658684 0.7164188
vt 0.02666271 0.7092747
vt 0.01930508 0.7118075
vt 0.01983952 0.7139162
vt 0.01278005 0.7123752
vt 0.01315619 0.7134488
vt 0.01496279 0.7164454
vt 0.01524301 0.7094572
vt 0.01983952 0.7139162
vt 0.01930508 0.7118075
vt 0.01692306 0.7094736
vt 0.01665745 0.7165768
vt 0.1917202 0.6719903
vt 0.1973364 0.6781355
vt 0.2008301 0.6585319
vt 0.1926144 0.6638541
vt 0.1992102 0.6791794
vt 0.1972296 0.6799306
vt 0.1971164 0.6992662
vt 0.1992102 0.7000707
vt 0.1582369 0.6789881
vt 0.1559173 0.6781748
vt 0.1558326 0.6994635
vt 0.1580432 0.6987162
vt 0.1972059 0.7011063
vt 0.1971164 0.6992662
vt 0.1580432 0.6987162
vt 0.1579455 0.7005631
vt 0.1581727 0.6771232
vt 0.1582369 0.6789881
vt 0.1972296 0.6799306
vt 0.1973364 0.6781355
vt 0.243366 0.6576773
vt 0.2437141 0.6556085
vt 0.2231619 0.6559859
vt 0.2235376 0.6579087
vt 0.2436942 0.701941
vt 0.2432914 0.6996921
vt 0.2225858 0.6997722
vt 0.2221801 0.7021589
vt 0.2235376 0.6579087
vt 0.2216039 0.6575006
vt 0.2204506 0.7001324
vt 0.2225858 0.6997722
vt 0.2432914 0.6996921
vt 0.2453466 0.7000353
vt 0.2453466 0.6572503
vt 0.243366 0.6576773
vt 0.1579455 0.7005631
vt 0.1558326 0.6994635
vt 0.1515742 0.721006
vt 0.1540117 0.7214704
vt 0.1997972 0.7211336
vt 0.2018115 0.7209167
vt 0.1992102 0.7000707
vt 0.1972059 0.7011063
vt 0.2027877 0.6588771
vt 0.2008301 0.6585319
vt 0.1973364 0.6781355
vt 0.1992102 0.6791794
vt 0.155081 0.6556085
vt 0.1525785 0.6560013
vt 0.1559173 0.6781748
vt 0.1581727 0.6771232

usemtl LOW-POLY-COLORS
usemap LOW-POLY-COLORS
f 2/2/2 1/1/1 3/3/3
f 5/5/5 4/4/4 6/6/6
f 8/8/8 7/7/7 9/9/9
f 11/11/11 10/10/10 12/12/12
f 14/14/14 13/13/13 15/15/15
f 17/17/17 16/16/16 18/18/18
f 20/20/20 19/19/19 21/21/21
f 23/23/23 22/22/22 24/24/24
f 26/26/26 25/25/25 27/27/27
f 29/29/29 28/28/28 30/30/30
f 32/32/32 31/31/31 33/33/33
f 35/35/35 34/34/34 36/36/36
f 38/38/38 37/37/37 39/39/39
f 41/41/41 40/40/40 42/42/42
f 44/44/44 43/43/43 45/45/45
f 47/47/47 46/46/46 48/48/48
f 50/50/50 49/49/49 51/51/51
f 51/51/51 49/49/49 52/52/52
f 54/54/54 53/53/53 55/55/55
f 54/54/54 56/56/56 53/53/53
f 53/53/53 56/56/56 57/57/57
f 56/56/56 58/58/58 57/57/57
f 59/59/59 58/58/58 56/56/56
f 59/59/59 60/60/60 58/58/58
f 61/61/61 60/60/60 59/59/59
f 60/60/60 61/61/61 62/62/62
f 64/64/64 63/63/63 65/65/65
f 65/65/65 63/63/63 66/66/66
f 68/68/68 67/67/67 69/69/69
f 69/69/69 67/67/67 70/70/70
f 72/72/72 71/71/71 73/73/73
f 73/73/73 71/71/71 74/74/74
f 76/76/76 75/75/75 77/77/77
f 77/77/77 75/75/75 78/78/78
f 80/80/80 79/79/79 81/81/81
f 81/81/81 79/79/79 82/82/82
f 84/84/84 83/83/83 85/85/85
f 85/85/85 83/83/83 86/86/86
f 88/88/88 87/87/87 89/89/89
f 89/89/89 87/87/87 90/90/90
f 92/92/92 91/91/91 93/93/93
f 93/93/93 91/91/91 94/94/94
f 96/96/96 95/95/95 97/97/97
f 97/97/97 98/98/98 96/96/96
f 99/99/99 98/98/98 97/97/97
f 99/99/99 100/100/100 98/98/98
f 101/101/101 100/100/100 99/99/99
f 102/102/102 100/100/100 101/101/101
f 103/103/103 100/100/100 102/102/102
f 103/103/103 102/102/102 104/104/104
f 106/106/106 105/105/105 107/107/107
f 107/107/107 105/105/105 108/108/108
f 105/105/105 109/109/109 110/110/110
f 110/110/110 109/109/109 111/111/111
f 113/113/113 112/112/112 107/107/107
f 114/114/114 112/112/112 113/113/113
f 115/115/115 111/111/111 116/116/116
f 117/117/117 111/111/111 115/115/115
f 115/115/115 118/118/118 117/117/117
f 117/117/117 118/118/118 119/119/119
f 114/114/114 120/120/120 121/121/121
f 121/121/121 122/122/122 114/114/114
f 121/121/121 120/120/120 123/123/123
f 123/123/123 120/120/120 124/124/124
f 125/125/125 122/122/122 121/121/121
f 122/122/122 125/125/125 126/126/126
f 128/128/128 127/127/127 129/129/129
f 130/130/130 129/129/129 127/127/127
f 131/131/131 129/129/129 130/130/130
f 130/130/130 132/132/132 131/131/131
f 133/133/133 132/132/132 130/130/130
f 134/134/134 132/132/132 133/133/133
f 136/136/136 135/135/135 131/131/131
f 137/137/137 135/135/135 136/136/136
f 139/139/139 138/138/138 137/137/137
f 137/137/137 138/138/138 140/140/140
f 142/142/142 141/141/141 138/138/138
f 143/143/143 141/141/141 142/142/142
f 144/144/144 143/143/143 145/145/145
f 145/145/145 143/143/143 146/146/146
f 146/146/146 147/147/147 145/145/145
f 148/148/148 147/147/147 146/146/146
f 150/150/150 149/149/149 151/151/151
f 151/151/151 149/149/149 152/152/152
f 154/154/154 153/153/153 155/155/155
f 155/155/155 153/153/153 156/156/156
f 158/158/158 157/157/157 159/159/159
f 159/159/159 157/157/157 160/160/160
f 162/162/162 161/161/161 163/163/163
f 163/163/163 161/161/161 164/164/164
f 166/166/166 165/165/165 167/167/167
f 167/167/167 165/165/165 168/168/168
f 170/170/170 169/169/169 171/171/171
f 171/171/171 169/169/169 172/172/172
f 174/174/174 173/173/173 175/175/175
f 175/175/175 173/173/173 176/176/176
f 178/178/178 177/177/177 179/179/179
f 179/179/179 177/177/177 180/180/180
f 182/182/182 181/181/181 183/183/183
f 183/183/183 181/181/181 184/184/184
f 186/186/186 185/185/185 187/187/187
f 187/187/187 185/185/185 188/188/188
f 190/190/190 189/189/189 191/191/191
f 191/191/191 189/189/189 192/192/192
f 194/194/194 193/193/193 195/195/195
f 195/195/195 193/193/193 196/196/196
f 198/198/198 197/197/197 199/199/199
f 199/199/199 197/197/197 200/200/200
f 202/202/202 201/201/201 203/203/203
f 203/203/203 201/201/201 204/204/204
f 206/206/206 205/205/205 207/207/207
f 207/207/207 205/205/205 208/208/208
f 210/210/210 209/209/209 211/211/211
f 211/211/211 209/209/209 212/212/212
f 214/214/214 213/213/213 215/215/215
f 215/215/215 213/213/213 216/216/216
f 218/218/218 217/217/217 219/219/219
f 219/219/219 217/217/217 220/220/220
f 222/222/222 221/221/221 223/223/223
f 223/223/223 221/221/221 224/224/224
f 226/226/226 225/225/225 227/227/227
f 227/227/227 225/225/225 228/228/228
f 230/230/230 229/229/229 231/231/231
f 231/231/231 229/229/229 232/232/232
