mtllib ./stage-platform-medium_24.mtl
g stage-platform-medium
v -1 0 0.5
v -1 0 0.4
v -1 0.9 0.4
v -1 1 0.5
v -1 0.9 -0.4
v -1 1 -0.5
v -1 0 -0.5
v -1 0 -0.4
v -1 0 0.4
v -0.9 0 0.4
v -0.9 0.9 0.4
v -1 0.9 0.4
v -0.9 0 0.4
v -0.9 0 0.5
v -0.9 0.9 0.5
v -0.9 0.9 0.4
v -0.9 0 0.5
v -1 0 0.5
v -1 1 0.5
v -0.9 0.9 0.5
v -1 0 0.4
v -1 0 0.5
v -0.9 0 0.5
v -0.9 0 0.4
v 1 1 0.5
v 0.9 0.9 0.5
v -0.9 0.9 0.5
v -1 1 0.5
v 1 0.9 -0.4
v 0.9 0.9 0.4
v 1 0.9 0.4
v 0.9 0.9 -0.4
v -0.9 0.9 -0.4
v -0.9 0.9 -0.5
v 0.9 0.9 -0.5
v -0.9 0.9 0.4
v 0.9 0.9 0.5
v -0.9 0.9 0.5
v -1 0.9 0.4
v -1 0.9 -0.4
v 0.98 1 -0.48
v 0.98 1 0.48
v -0.98 1 0.48
v -0.98 1 -0.48
v 1 0 0.5
v 1 0.9 0.4
v 1 0 0.4
v 1 1 0.5
v 1 1 -0.5
v 1 0.9 -0.4
v 1 0 -0.5
v 1 0 -0.4
v 1 0 0.4
v 1 0.9 0.4
v 0.9 0.9 0.4
v 0.9 0 0.4
v 0.9 0 0.4
v 0.9 0.9 0.4
v 0.9 0.9 0.5
v 0.9 0 0.5
v 0.9 0 0.5
v 0.9 0.9 0.5
v 1 1 0.5
v 1 0 0.5
v 1 0 0.4
v 0.9 0 0.4
v 0.9 0 0.5
v 1 0 0.5
v -1 0 -0.4
v -1 0.9 -0.4
v -0.9 0.9 -0.4
v -0.9 0 -0.4
v -0.9 0 -0.4
v -0.9 0.9 -0.4
v -0.9 0.9 -0.5
v -0.9 0 -0.5
v -0.9 0 -0.5
v -1 1 -0.5
v -1 0 -0.5
v -0.9 0.9 -0.5
v 1 1 -0.5
v 0.9 0.9 -0.5
v 0.9 0 -0.5
v 1 0 -0.5
v -1 0 -0.4
v -0.9 0 -0.4
v -0.9 0 -0.5
v -1 0 -0.5
v 1 0 -0.4
v 0.9 0 -0.4
v 0.9 0.9 -0.4
v 1 0.9 -0.4
v 0.9 0 -0.4
v 0.9 0 -0.5
v 0.9 0.9 -0.5
v 0.9 0.9 -0.4
v 1 0 -0.4
v 1 0 -0.5
v 0.9 0 -0.5
v 0.9 0 -0.4
v 0.98 1 0.48
v 1 1 0.5
v -1 1 0.5
v -0.98 1 0.48
v -0.98 1 0.48
v -1 1 0.5
v -1 1 -0.5
v -0.98 1 -0.48
v -0.98 1 -0.48
v -1 1 -0.5
v 1 1 -0.5
v 0.98 1 -0.48
v 0.98 1 -0.48
v 1 1 -0.5
v 1 1 0.5
v 0.98 1 0.48

vn -1 0 0
vn -1 0 0
vn -1 0 0
vn -1 0 0
vn -1 0 0
vn -1 0 0
vn -1 0 0
vn -1 0 0
vn 0 0 -1
vn 0 0 -1
vn 0 0 -1
vn 0 0 -1
vn 1 0 0
vn 1 0 0
vn 1 0 0
vn 1 0 0
vn 0 0 1
vn 0 0 1
vn 0 0 1
vn 0 0 1
vn 0 -1 0
vn 0 -1 0
vn 0 -1 0
vn 0 -1 0
vn 0 0 1
vn 0 0 1
vn 0 0 1
vn 0 0 1
vn 0 -1 0
vn 0 -1 0
vn 0 -1 0
vn 0 -1 0
vn 0 -1 0
vn 0 -1 0
vn 0 -1 0
vn 0 -1 0
vn 0 -1 0
vn 0 -1 0
vn 0 -1 0
vn 0 -1 0
vn 0 1 0
vn 0 1 0
vn 0 1 0
vn 0 1 0
vn 1 0 0
vn 1 0 0
vn 1 0 0
vn 1 0 0
vn 1 0 0
vn 1 0 0
vn 1 0 0
vn 1 0 0
vn 0 0 -1
vn 0 0 -1
vn 0 0 -1
vn 0 0 -1
vn -1 0 0
vn -1 0 0
vn -1 0 0
vn -1 0 0
vn 0 0 1
vn 0 0 1
vn 0 0 1
vn 0 0 1
vn 0 -1 0
vn 0 -1 0
vn 0 -1 0
vn 0 -1 0
vn 0 0 1
vn 0 0 1
vn 0 0 1
vn 0 0 1
vn 1 0 0
vn 1 0 0
vn 1 0 0
vn 1 0 0
vn 0 0 -1
vn 0 0 -1
vn 0 0 -1
vn 0 0 -1
vn 0 0 -1
vn 0 0 -1
vn 0 0 -1
vn 0 0 -1
vn 0 -1 0
vn 0 -1 0
vn 0 -1 0
vn 0 -1 0
vn 0 0 1
vn 0 0 1
vn 0 0 1
vn 0 0 1
vn -1 0 0
vn -1 0 0
vn -1 0 0
vn -1 0 0
vn 0 -1 0
vn 0 -1 0
vn 0 -1 0
vn 0 -1 0
vn 0 1 0
vn 0 1 0
vn 0 1 0
vn 0 1 0
vn 0 1 0
vn 0 1 0
vn 0 1 0
vn 0 1 0
vn 0 1 0
vn 0 1 0
vn 0 1 0
vn 0 1 0
vn 0 1 0
vn 0 1 0
vn 0 1 0
vn 0 1 0

vt 0.434471 0.7022311
vt 0.4316312 0.7022311
vt 0.4316312 0.7221094
vt 0.434471 0.7249491
vt 0.4089131 0.7221094
vt 0.4060734 0.7249491
vt 0.4060733 0.7022311
vt 0.4089131 0.7022311
vt 0.4478178 0.7063597
vt 0.444978 0.7063597
vt 0.444978 0.7262383
vt 0.4478177 0.7262383
vt 0.444978 0.7063597
vt 0.4421383 0.7063597
vt 0.4421383 0.7262383
vt 0.444978 0.7262383
vt 0.4421383 0.7063597
vt 0.4392984 0.7063597
vt 0.4392984 0.729078
vt 0.4421383 0.7262383
vt 0.4478178 0.7063597
vt 0.4478178 0.7035201
vt 0.444978 0.70352
vt 0.444978 0.7063597
vt 0.4960939 0.7290779
vt 0.4932542 0.7262383
vt 0.4421383 0.7262383
vt 0.4392984 0.729078
vt 0.438883 0.6491488
vt 0.4360433 0.6718667
vt 0.438883 0.6718667
vt 0.4360433 0.6491488
vt 0.3849277 0.6491488
vt 0.3849277 0.646309
vt 0.4360433 0.646309
vt 0.3849277 0.6718667
vt 0.4360433 0.6747065
vt 0.3849277 0.6747065
vt 0.382088 0.6718667
vt 0.382088 0.6491488
vt 0.002204607 0.6692776
vt 0.002204607 0.6959713
vt 0.05729585 0.6959713
vt 0.05729585 0.6692776
vt 0.382088 0.7306287
vt 0.4019663 0.7277889
vt 0.382088 0.7277889
vt 0.404806 0.7306287
vt 0.404806 0.7022311
vt 0.4019663 0.7050709
vt 0.382088 0.7022311
vt 0.382088 0.7050709
vt 0.4875748 0.7063603
vt 0.4875748 0.7262383
vt 0.4904144 0.7262383
vt 0.4904145 0.7063603
vt 0.4904145 0.7063603
vt 0.4904144 0.7262383
vt 0.4932542 0.7262383
vt 0.4932542 0.7063603
vt 0.4932542 0.7063603
vt 0.4932542 0.7262383
vt 0.4960939 0.7290779
vt 0.4960939 0.7063603
vt 0.4875748 0.7063603
vt 0.4904145 0.7063603
vt 0.4904145 0.7035205
vt 0.4875748 0.7035205
vt 0.4421387 0.654828
vt 0.4620167 0.6548281
vt 0.4620167 0.6519884
vt 0.4421387 0.6519883
vt 0.4421387 0.6519883
vt 0.4620167 0.6519884
vt 0.4620167 0.6491487
vt 0.4421387 0.6491486
vt 0.4421387 0.6491486
vt 0.4648564 0.646309
vt 0.4421387 0.646309
vt 0.4620167 0.6491487
vt 0.4648564 0.7031046
vt 0.4620166 0.7002648
vt 0.4421383 0.7002648
vt 0.4421383 0.7031046
vt 0.4421387 0.654828
vt 0.4421387 0.6519883
vt 0.4392989 0.6519883
vt 0.4392989 0.6548281
vt 0.4421383 0.6945853
vt 0.4421383 0.697425
vt 0.4620166 0.697425
vt 0.4620166 0.6945853
vt 0.4421383 0.697425
vt 0.4421383 0.7002648
vt 0.4620166 0.7002648
vt 0.4620166 0.697425
vt 0.4421383 0.6945853
vt 0.4392984 0.6945853
vt 0.4392985 0.697425
vt 0.4421383 0.697425
vt 0.4952419 0.7299299
vt 0.4960939 0.7290779
vt 0.4392984 0.729078
vt 0.4401504 0.7299299
vt 0.433619 0.7258011
vt 0.434471 0.7249491
vt 0.4060734 0.7249491
vt 0.4069253 0.7258011
vt 0.4657083 0.6471609
vt 0.4648564 0.646309
vt 0.4648564 0.7031046
vt 0.4657083 0.7022526
vt 0.4056579 0.703083
vt 0.404806 0.7022311
vt 0.404806 0.7306287
vt 0.4056579 0.7297768

usemtl LOW-POLY-COLORS
usemap LOW-POLY-COLORS
f 2/2/2 1/1/1 3/3/3
f 3/3/3 1/1/1 4/4/4
f 3/3/3 4/4/4 5/5/5
f 5/5/5 4/4/4 6/6/6
f 6/6/6 7/7/7 5/5/5
f 5/5/5 7/7/7 8/8/8
f 10/10/10 9/9/9 11/11/11
f 11/11/11 9/9/9 12/12/12
f 14/14/14 13/13/13 15/15/15
f 15/15/15 13/13/13 16/16/16
f 18/18/18 17/17/17 19/19/19
f 19/19/19 17/17/17 20/20/20
f 22/22/22 21/21/21 23/23/23
f 23/23/23 21/21/21 24/24/24
f 26/26/26 25/25/25 27/27/27
f 27/27/27 25/25/25 28/28/28
f 30/30/30 29/29/29 31/31/31
f 32/32/32 29/29/29 30/30/30
f 32/32/32 30/30/30 33/33/33
f 34/34/34 32/32/32 33/33/33
f 35/35/35 32/32/32 34/34/34
f 33/33/33 30/30/30 36/36/36
f 30/30/30 37/37/37 36/36/36
f 36/36/36 37/37/37 38/38/38
f 36/36/36 39/39/39 33/33/33
f 33/33/33 39/39/39 40/40/40
f 42/42/42 41/41/41 43/43/43
f 43/43/43 41/41/41 44/44/44
f 46/46/46 45/45/45 47/47/47
f 48/48/48 45/45/45 46/46/46
f 48/48/48 46/46/46 49/49/49
f 49/49/49 46/46/46 50/50/50
f 50/50/50 51/51/51 49/49/49
f 52/52/52 51/51/51 50/50/50
f 54/54/54 53/53/53 55/55/55
f 55/55/55 53/53/53 56/56/56
f 58/58/58 57/57/57 59/59/59
f 59/59/59 57/57/57 60/60/60
f 62/62/62 61/61/61 63/63/63
f 63/63/63 61/61/61 64/64/64
f 66/66/66 65/65/65 67/67/67
f 67/67/67 65/65/65 68/68/68
f 70/70/70 69/69/69 71/71/71
f 71/71/71 69/69/69 72/72/72
f 74/74/74 73/73/73 75/75/75
f 75/75/75 73/73/73 76/76/76
f 78/78/78 77/77/77 79/79/79
f 80/80/80 77/77/77 78/78/78
f 78/78/78 81/81/81 80/80/80
f 80/80/80 81/81/81 82/82/82
f 81/81/81 83/83/83 82/82/82
f 84/84/84 83/83/83 81/81/81
f 86/86/86 85/85/85 87/87/87
f 87/87/87 85/85/85 88/88/88
f 90/90/90 89/89/89 91/91/91
f 91/91/91 89/89/89 92/92/92
f 94/94/94 93/93/93 95/95/95
f 95/95/95 93/93/93 96/96/96
f 98/98/98 97/97/97 99/99/99
f 99/99/99 97/97/97 100/100/100
f 102/102/102 101/101/101 103/103/103
f 103/103/103 101/101/101 104/104/104
f 106/106/106 105/105/105 107/107/107
f 107/107/107 105/105/105 108/108/108
f 110/110/110 109/109/109 111/111/111
f 111/111/111 109/109/109 112/112/112
f 114/114/114 113/113/113 115/115/115
f 115/115/115 113/113/113 116/116/116
