mtllib ./terrain-plane-valley4_4.mtl
g terrain-plane-valley4
v -15 0.4041462 3.000068
v -9.001634 -0.4818346 2.977818
v -9.001633 -0.4696397 8.977815
v 2.99837 -0.602365 -3.022185
v -3.001626 -0.3789179 2.977816
v -3.001627 -0.3589985 -3.022184
v 2.998368 -0.3419009 -9.022186
v -3.001627 -0.3589985 -3.022184
v -3.00163 -7.940344E-07 -9.022186
v -2.999999 0.4500676 -14.99993
v 3.000009 0.1494027 -14.99993
v -9.001634 -0.4818346 2.977818
v -9.001635 -0.1616509 -3.022183
v -15 0.03876158 -2.999934
v -15.00158 0.3506819 -9.001538
v 8.999995 0.07540236 -14.99993
v 2.998368 -0.3419009 -9.022186
v 8.998369 -0.2850795 -9.022186
v 14.99838 -4.88812E-06 -15.00154
v 2.99837 -0.602365 -3.022185
v 14.99838 -4.88812E-06 -15.00154
v 15 -0.0270138 -8.99999
v 8.998369 -0.2850795 -9.022186
v 15 -0.0270138 -8.99999
v 8.998371 -0.9251835 -3.022187
v 8.998369 -0.2850795 -9.022186
v -9.001621 0.2268907 -15.00153
v -2.999999 0.4500676 -14.99993
v -3.00163 -7.940344E-07 -9.022186
v -9.001637 -0.4307113 -9.022186
v -3.001627 -0.3589985 -3.022184
v 8.998371 -2.984714 2.977813
v 8.998372 -4.830756 8.977808
v 2.998372 -3.067079 8.977812
v -3.001626 -0.3789179 2.977816
v -3.001624 -1.087407 8.977812
v -9.001633 -0.4696397 8.977815
v -15 0.03876158 -2.999934
v -9.001634 -0.4818346 2.977818
v -15 0.4041462 3.000068
v 8.998372 -4.830756 8.977808
v 2.98971 -4.334693 14.99996
v 2.998372 -3.067079 8.977812
v -3.010286 -2.172473 14.99996
v -3.001624 -1.087407 8.977812
v 2.998372 -3.067079 8.977812
v 2.98971 -4.334693 14.99996
v 2.998371 -1.828084 2.977815
v -3.001624 -1.087407 8.977812
v -3.010286 -2.172473 14.99996
v -9.010284 -0.5612942 14.99996
v 8.998369 -0.2850795 -9.022186
v 8.998371 -0.9251835 -3.022187
v 2.99837 -0.602365 -3.022185
v -9.001637 -0.4307113 -9.022186
v -3.001627 -0.3589985 -3.022184
v -9.001635 -0.1616509 -3.022183
v 8.998371 -2.984714 2.977813
v 2.998372 -3.067079 8.977812
v 2.998371 -1.828084 2.977815
v 2.99837 -0.602365 -3.022185
v -3.001626 -0.3789179 2.977816
v 14.99999 -5.0082 9.000007
v 15 -5.999979 15.00009
v 8.989724 -5.445777 14.99995
v 14.99999 -5.0082 9.000007
v 8.989724 -5.445777 14.99995
v 8.998372 -4.830756 8.977808
v 2.998371 -1.828084 2.977815
v -3.001624 -1.087407 8.977812
v -3.001626 -0.3789179 2.977816
v 14.99999 -3.594034 3.000011
v 14.99999 -5.0082 9.000007
v 8.998372 -4.830756 8.977808
v 8.998371 -0.9251835 -3.022187
v 2.998371 -1.828084 2.977815
v 2.99837 -0.602365 -3.022185
v 8.998372 -4.830756 8.977808
v 8.989724 -5.445777 14.99995
v 2.98971 -4.334693 14.99996
v -15.00161 -6.318633E-06 -15.00153
v -9.001637 -0.4307113 -9.022186
v -15.00158 0.3506819 -9.001538
v -9.001635 -0.1616509 -3.022183
v -15 0.1331284 9.000063
v -9.010284 -0.5612942 14.99996
v -15.0016 4.88712E-06 14.99847
v -9.001633 -0.4696397 8.977815
v -15 0.4041462 3.000068
v -3.001624 -1.087407 8.977812
v -3.001626 -0.3789179 2.977816
v -9.001633 -0.4696397 8.977815
v -9.001634 -0.4818346 2.977818
v -3.001627 -0.3589985 -3.022184
v 14.99999 -3.594034 3.000011
v 8.998372 -4.830756 8.977808
v 8.998371 -2.984714 2.977813
v 14.99999 -1.902434 -2.999985
v -9.001621 0.2268907 -15.00153
v -3.00163 -7.940344E-07 -9.022186
v -9.001637 -0.4307113 -9.022186
v -15.00161 -6.318633E-06 -15.00153
v 15 -0.0270138 -8.99999
v 14.99999 -1.902434 -2.999985
v 8.998371 -0.9251835 -3.022187
v 8.998371 -2.984714 2.977813
v 2.998371 -1.828084 2.977815

vn 0.1461108 0.9892662 -0.002010731
vn 0.1461108 0.9892662 -0.002010731
vn 0.1461108 0.9892662 -0.002010731
vn 0.04052757 0.9991729 0.00331714
vn 0.04052757 0.9991729 0.00331714
vn 0.04052757 0.9991729 0.00331714
vn 0.04988012 0.9953979 0.08182422
vn 0.05678986 0.9966038 0.05962972
vn 0.05678986 0.9966038 0.05962972
vn 0.04988012 0.9953979 0.08182422
vn 0.04988012 0.9953979 0.08182422
vn 0.03354248 0.9980173 0.05325811
vn 0.03354248 0.9980173 0.05325811
vn 0.03354248 0.9980173 0.05325811
vn 0.03353976 0.9980907 0.05186477
vn 0.01256354 0.9981077 0.06019325
vn -0.009452626 0.9981422 0.06018937
vn 0.01256354 0.9981077 0.06019325
vn 0.01256354 0.9981077 0.06019325
vn -0.009460888 0.9990144 0.04336789
vn -0.04297578 0.9990659 0.004507672
vn -0.04297578 0.9990659 0.004507672
vn -0.04297578 0.9990659 0.004507672
vn -0.0431089 0.993433 0.1059834
vn -0.0431089 0.993433 0.1059834
vn -0.0431089 0.993433 0.1059834
vn -0.03707568 0.9964928 0.07501648
vn -0.03707568 0.9964928 0.07501648
vn -0.03707568 0.9964928 0.07501648
vn -0.07147361 0.9956619 0.05957342
vn -0.07147361 0.9956619 0.05957342
vn 0.2704774 0.9201583 0.2831086
vn 0.2704774 0.9201583 0.2831086
vn 0.2704774 0.9201583 0.2831086
vn 0.1017204 0.9879493 0.1166587
vn 0.1017204 0.9879493 0.1166587
vn 0.1017204 0.9879493 0.1166587
vn 0.1456356 0.987509 -0.06013674
vn 0.1456356 0.987509 -0.06013674
vn 0.1456356 0.987509 -0.06013674
vn 0.2764128 0.9403508 0.1983342
vn 0.2764128 0.9403508 0.1983342
vn 0.2764128 0.9403508 0.1983342
vn 0.3088191 0.9359704 0.1690867
vn 0.3088191 0.9359704 0.1690867
vn 0.3325388 0.9227699 0.1947142
vn 0.3325388 0.9227699 0.1947142
vn 0.3074745 0.9318948 0.1924356
vn 0.2554866 0.9514269 0.1717949
vn 0.2554866 0.9514269 0.1717949
vn 0.2554866 0.9514269 0.1717949
vn 0.05342311 0.9929374 0.1059305
vn 0.05342311 0.9929374 0.1059305
vn 0.05342311 0.9929374 0.1059305
vn 0.03284048 0.9984572 -0.04477422
vn 0.03284048 0.9984572 -0.04477422
vn 0.03284048 0.9984572 -0.04477422
vn 0.1855117 0.9623382 0.1987221
vn 0.1855117 0.9623382 0.1987221
vn 0.1855117 0.9623382 0.1987221
vn 0.2302805 0.9534328 0.1947734
vn 0.2302805 0.9534328 0.1947734
vn 0.09059662 0.9825554 0.1624106
vn 0.09059662 0.9825554 0.1624106
vn 0.09059662 0.9825554 0.1624106
vn 0.02902458 0.9944022 0.1015966
vn 0.02902458 0.9944022 0.1015966
vn 0.02902458 0.9944022 0.1015966
vn 0.2332454 0.9657087 0.1140324
vn 0.2332454 0.9657087 0.1140324
vn 0.2332454 0.9657087 0.1140324
vn 0.02791771 0.9729508 0.2293191
vn 0.02791771 0.9729508 0.2293191
vn 0.02791771 0.9729508 0.2293191
vn 0.0526413 0.9784063 0.1998751
vn 0.0526413 0.9784063 0.1998751
vn 0.0526413 0.9784063 0.1998751
vn 0.1811688 0.9783368 0.1001743
vn 0.1811688 0.9783368 0.1001743
vn 0.1811688 0.9783368 0.1001743
vn 0.1287306 0.98999 -0.05786356
vn 0.1287306 0.98999 -0.05786356
vn 0.1287306 0.98999 -0.05786356
vn 0.128865 0.9906666 -0.04442492
vn 0.09324875 0.9953972 0.02211583
vn 0.09324875 0.9953972 0.02211583
vn 0.09324875 0.9953972 0.02211583
vn 0.1000492 0.993969 0.04489721
vn 0.1000492 0.993969 0.04489721
vn 0.1024078 0.994625 0.01528489
vn -0.0171502 0.9998509 -0.002032182
vn -0.0171502 0.9998509 -0.002032182
vn -0.0171502 0.9998509 -0.002032182
vn -0.01715015 0.9998474 0.003319385
vn 0.09551056 0.9514145 0.2927254
vn 0.09551056 0.9514145 0.2927254
vn 0.09551056 0.9514145 0.2927254
vn 0.09626367 0.9580094 0.270095
vn -0.07117383 0.9914858 0.1090424
vn -0.07117383 0.9914858 0.1090424
vn -0.07117383 0.9914858 0.1090424
vn -0.03756315 0.9933051 0.1092426
vn 0.1525073 0.943296 0.2948461
vn 0.1510562 0.9349772 0.3209358
vn 0.1510562 0.9349772 0.3209358
vn 0.1510562 0.9349772 0.3209358
vn 0.1793724 0.9304902 0.3193956

vt 0.4260395 0.4984767
vt 0.4261045 0.4743638
vt 0.4020358 0.4743942
vt 0.4501556 0.42616
vt 0.4260828 0.4502926
vt 0.4501662 0.450271
vt 0.4742547 0.426188
vt 0.4501662 0.450271
vt 0.4742625 0.4502696
vt 0.4982446 0.4502735
vt 0.4982459 0.4262176
vt 0.4261045 0.4743638
vt 0.4501764 0.4743568
vt 0.4500951 0.4984064
vt 0.4741492 0.4984248
vt 0.498284 0.4021722
vt 0.4742547 0.426188
vt 0.4743078 0.4021206
vt 0.4983546 0.37814
vt 0.4501556 0.42616
vt 0.4983546 0.37814
vt 0.4743103 0.378013
vt 0.4743078 0.4021206
vt 0.4743103 0.378013
vt 0.4502014 0.4020545
vt 0.4743078 0.4021206
vt 0.4982409 0.4743212
vt 0.4982446 0.4502735
vt 0.4742625 0.4502696
vt 0.4742339 0.4743361
vt 0.4501662 0.450271
vt 0.4257745 0.4018399
vt 0.4014651 0.4016159
vt 0.4017161 0.425901
vt 0.4260828 0.4502926
vt 0.4019694 0.4502912
vt 0.4020358 0.4743942
vt 0.4500951 0.4984064
vt 0.4261045 0.4743638
vt 0.4260395 0.4984767
vt 0.4014651 0.4016159
vt 0.3774276 0.4257756
vt 0.4017161 0.425901
vt 0.3777192 0.4502142
vt 0.4019694 0.4502912
vt 0.4017161 0.425901
vt 0.3774276 0.4257756
vt 0.4259207 0.4260303
vt 0.4019694 0.4502912
vt 0.3777192 0.4502142
vt 0.3778877 0.4744784
vt 0.4743078 0.4021206
vt 0.4502014 0.4020545
vt 0.4501556 0.42616
vt 0.4742339 0.4743361
vt 0.4501662 0.450271
vt 0.4501764 0.4743568
vt 0.4257745 0.4018399
vt 0.4017161 0.425901
vt 0.4259207 0.4260303
vt 0.4501556 0.42616
vt 0.4260828 0.4502926
vt 0.401448 0.3775464
vt 0.3773255 0.3774557
vt 0.3773264 0.4016046
vt 0.401448 0.3775464
vt 0.3773264 0.4016046
vt 0.4014651 0.4016159
vt 0.4259207 0.4260303
vt 0.4019694 0.4502912
vt 0.4260828 0.4502926
vt 0.4256826 0.3776934
vt 0.401448 0.3775464
vt 0.4014651 0.4016159
vt 0.4502014 0.4020545
vt 0.4259207 0.4260303
vt 0.4501556 0.42616
vt 0.4014651 0.4016159
vt 0.3773264 0.4016046
vt 0.3774276 0.4257756
vt 0.4982049 0.4983767
vt 0.4742339 0.4743361
vt 0.4741492 0.4984248
vt 0.4501764 0.4743568
vt 0.4019877 0.4984789
vt 0.3778877 0.4744784
vt 0.3779416 0.4985208
vt 0.4020358 0.4743942
vt 0.4260395 0.4984767
vt 0.4019694 0.4502912
vt 0.4260828 0.4502926
vt 0.4020358 0.4743942
vt 0.4261045 0.4743638
vt 0.4501662 0.450271
vt 0.4256826 0.3776934
vt 0.4014651 0.4016159
vt 0.4257745 0.4018399
vt 0.4499758 0.37786
vt 0.4982409 0.4743212
vt 0.4742625 0.4502696
vt 0.4742339 0.4743361
vt 0.4982049 0.4983767
vt 0.4743103 0.378013
vt 0.4499758 0.37786
vt 0.4502014 0.4020545
vt 0.4257745 0.4018399
vt 0.4259207 0.4260303

usemtl LOW-POLY-COLORS
usemap LOW-POLY-COLORS
f 2/2/2 1/1/1 3/3/3
f 5/5/5 4/4/4 6/6/6
f 4/4/4 7/7/7 8/8/8
f 8/8/8 7/7/7 9/9/9
f 7/7/7 10/10/10 9/9/9
f 11/11/11 10/10/10 7/7/7
f 12/12/12 8/8/8 13/13/13
f 13/13/13 14/14/14 12/12/12
f 13/13/13 15/15/15 14/14/14
f 17/17/17 16/16/16 11/11/11
f 18/18/18 16/16/16 17/17/17
f 18/18/18 19/19/19 16/16/16
f 20/20/20 18/18/18 17/17/17
f 22/22/22 21/21/21 23/23/23
f 25/25/25 24/24/24 26/26/26
f 28/28/28 27/27/27 29/29/29
f 29/29/29 30/30/30 31/31/31
f 33/33/33 32/32/32 34/34/34
f 36/36/36 35/35/35 37/37/37
f 39/39/39 38/38/38 40/40/40
f 42/42/42 41/41/41 43/43/43
f 44/44/44 43/43/43 45/45/45
f 47/47/47 46/46/46 44/44/44
f 46/46/46 48/48/48 45/45/45
f 50/50/50 49/49/49 51/51/51
f 53/53/53 52/52/52 54/54/54
f 56/56/56 55/55/55 57/57/57
f 59/59/59 58/58/58 60/60/60
f 60/60/60 61/61/61 62/62/62
f 64/64/64 63/63/63 65/65/65
f 67/67/67 66/66/66 68/68/68
f 70/70/70 69/69/69 71/71/71
f 73/73/73 72/72/72 74/74/74
f 76/76/76 75/75/75 77/77/77
f 79/79/79 78/78/78 80/80/80
f 82/82/82 81/81/81 83/83/83
f 82/82/82 83/83/83 84/84/84
f 86/86/86 85/85/85 87/87/87
f 88/88/88 85/85/85 86/86/86
f 88/88/88 89/89/89 85/85/85
f 86/86/86 90/90/90 88/88/88
f 92/92/92 91/91/91 93/93/93
f 91/91/91 94/94/94 93/93/93
f 96/96/96 95/95/95 97/97/97
f 95/95/95 98/98/98 97/97/97
f 100/100/100 99/99/99 101/101/101
f 99/99/99 102/102/102 101/101/101
f 104/104/104 103/103/103 105/105/105
f 106/106/106 104/104/104 105/105/105
f 106/106/106 105/105/105 107/107/107
