mtllib ./terrain-plane-slope3_8.mtl
g terrain-plane-slope3
v 3.000038 1.887593 -9.000042
v 2.989715 1.665306 -15.00004
v 8.989724 0.5542222 -15.00005
v -15.01028 6.3507 -9.000049
v -15.01028 6.000021 -15.00004
v -9.010284 5.438706 -15.00004
v -8.999958 5.213307 -9.000037
v -8.999958 5.256602 -3.000038
v -15.01028 6.038782 -3.000048
v 8.98973 0.5542124 14.99996
v 2.989719 1.665299 14.99996
v 3.000041 1.644288 8.999962
v -2.999962 3.479587 -9.000041
v -3.010286 3.827527 -15.00004
v 2.989715 1.665306 -15.00004
v 15.00004 1.513954E-05 14.99998
v 8.98973 0.5542124 14.99996
v 9.000041 0.2711248 8.999962
v 3.000038 1.725608 -3.00004
v -2.999961 3.808282 -3.000039
v -2.999962 3.479587 -9.000041
v 3.000041 1.657328 2.999961
v -2.99996 3.929836 2.999962
v -2.99996 3.929836 2.999962
v -2.999959 3.594247 8.999962
v -8.999957 5.537483 8.999964
v -2.99996 3.929836 2.999962
v -8.999958 5.602998 2.999963
v -8.999958 5.256602 -3.000038
v 15.00003 0.3507 -9.000044
v 15.00004 0.03878071 -3.000042
v 9.000037 0.317465 -3.000041
v 9.000036 0.2411886 -9.000042
v 8.989724 0.5542222 -15.00005
v 15.00003 2.205376E-05 -15.00004
v -3.01028 3.82752 14.99996
v -9.010279 5.4387 14.99996
v -8.999957 5.537483 8.999964
v -2.99996 3.929836 2.999962
v -8.999958 5.602998 2.999963
v -8.999958 5.256602 -3.000038
v -2.999961 3.808282 -3.000039
v -8.999958 5.213307 -9.000037
v 8.98973 0.5542124 14.99996
v 3.000041 1.644288 8.999962
v 9.000041 0.2711248 8.999962
v -2.999962 3.479587 -9.000041
v 2.989715 1.665306 -15.00004
v 3.000038 1.887593 -9.000042
v -2.999961 3.808282 -3.000039
v -8.999958 5.213307 -9.000037
v 3.000041 1.657328 2.999961
v -2.999961 3.808282 -3.000039
v 3.000038 1.725608 -3.00004
v 3.000041 1.644288 8.999962
v -2.999959 3.594247 8.999962
v 2.989719 1.665299 14.99996
v -3.01028 3.82752 14.99996
v -2.999959 3.594247 8.999962
v -8.999957 5.537483 8.999964
v 3.000041 1.657328 2.999961
v -2.999959 3.594247 8.999962
v -2.99996 3.929836 2.999962
v 9.000036 0.2411886 -9.000042
v 9.000037 0.317465 -3.000041
v 3.000038 1.725608 -3.00004
v 9.000037 0.4810807 2.999959
v 3.000041 1.644288 8.999962
v 3.000041 1.657328 2.999961
v 9.000037 0.4810807 2.999959
v 9.000041 0.2711248 8.999962
v -9.010279 5.4387 14.99996
v -15.01028 6.000017 14.99994
v -15.01028 6.133148 8.999943
v -8.999957 5.537483 8.999964
v -8.999958 5.602998 2.999963
v -15.01028 6.404166 2.999941
v -8.999958 5.602998 2.999963
v -15.01028 6.404166 2.999941
v -15.01028 6.038782 -3.000048
v -8.999958 5.256602 -3.000038
v 15.00004 0.4041664 2.999947
v 9.000037 0.4810807 2.999959
v 9.000037 0.317465 -3.000041
v 15.00004 0.03878071 -3.000042
v 15.00003 0.3507 -9.000044
v 9.000036 0.2411886 -9.000042
v 15.00003 2.205376E-05 -15.00004
v -8.999958 5.213307 -9.000037
v -9.010284 5.438706 -15.00004
v -3.010286 3.827527 -15.00004
v -2.999962 3.479587 -9.000041
v 3.000038 1.725608 -3.00004
v 3.000038 1.887593 -9.000042
v 9.000036 0.2411886 -9.000042
v 8.989724 0.5542222 -15.00005
v -15.01028 6.3507 -9.000049
v -9.010284 5.438706 -15.00004
v -8.999958 5.213307 -9.000037
v -15.01028 6.038782 -3.000048
v 15.00004 0.4041664 2.999947
v 9.000041 0.2711248 8.999962
v 9.000037 0.4810807 2.999959
v 15.00004 0.1331491 8.999959
v 15.00004 1.513954E-05 14.99998

vn 0.1819618 0.9826199 -0.03671693
vn 0.1819618 0.9826199 -0.03671693
vn 0.1819618 0.9826199 -0.03671693
vn 0.09298854 0.993971 -0.05809418
vn 0.09298854 0.993971 -0.05809418
vn 0.09298854 0.993971 -0.05809418
vn 0.1290479 0.9916126 -0.007155331
vn 0.1290479 0.9916126 -0.007155331
vn 0.1290479 0.9916126 -0.007155331
vn 0.1820841 0.983278 -0.003130033
vn 0.1820841 0.983278 -0.003130033
vn 0.1820841 0.983278 -0.003130033
vn 0.3385349 0.9394091 0.05389375
vn 0.3385349 0.9394091 0.05389375
vn 0.3385349 0.9394091 0.05389375
vn 0.09171791 0.9946859 -0.04677296
vn 0.09171791 0.9946859 -0.04677296
vn 0.09171791 0.9946859 -0.04677296
vn 0.3274807 0.9434432 -0.05168416
vn 0.3274807 0.9434432 -0.05168416
vn 0.3274807 0.9434432 -0.05168416
vn 0.3541337 0.9350029 -0.01894227
vn 0.3541337 0.9350029 -0.01894227
vn 0.3076808 0.9500048 0.05313507
vn 0.3076808 0.9500048 0.05313507
vn 0.3076808 0.9500048 0.05313507
vn 0.2681973 0.9617625 -0.05552502
vn 0.2681973 0.9617625 -0.05552502
vn 0.2681973 0.9617625 -0.05552502
vn 0.04633496 0.9975789 0.05186059
vn 0.04633496 0.9975789 0.05186059
vn 0.04633496 0.9975789 0.05186059
vn 0.0916958 0.9944428 0.05172473
vn 0.0916958 0.9944428 0.05172473
vn 0.0916958 0.9944428 0.05172473
vn 0.2593077 0.9656564 0.01634462
vn 0.2593077 0.9656564 0.01634462
vn 0.2593077 0.9656564 0.01634462
vn 0.2685971 0.9631953 0.01051715
vn 0.2685971 0.9631953 0.01051715
vn 0.2346416 0.9720567 -0.007014269
vn 0.2346416 0.9720567 -0.007014269
vn 0.2346416 0.9720567 -0.007014269
vn 0.2228609 0.9737849 -0.04556142
vn 0.2228609 0.9737849 -0.04556142
vn 0.2228609 0.9737849 -0.04556142
vn 0.25629 0.9659208 -0.03622616
vn 0.25629 0.9659208 -0.03622616
vn 0.25629 0.9659208 -0.03622616
vn 0.2772133 0.9593698 -0.05255663
vn 0.2772133 0.9593698 -0.05255663
vn 0.3090794 0.9510339 0.002066855
vn 0.3279001 0.9446512 0.01074996
vn 0.3279001 0.9446512 0.01074996
vn 0.3090794 0.9510339 0.002066855
vn 0.3090794 0.9510339 0.002066855
vn 0.3388084 0.9401675 -0.03596987
vn 0.3388084 0.9401675 -0.03596987
vn 0.3388084 0.9401675 -0.03596987
vn 0.3079115 0.9507172 -0.0364331
vn 0.3537137 0.9338942 0.05223403
vn 0.3537137 0.9338942 0.05223403
vn 0.3537137 0.9338942 0.05223403
vn 0.2284649 0.9734735 -0.01237557
vn 0.2284649 0.9734735 -0.01237557
vn 0.2284649 0.9734735 -0.01237557
vn 0.2284019 0.9732051 -0.02653863
vn 0.222963 0.9742306 0.03409078
vn 0.1923673 0.9812594 0.01116665
vn 0.1923673 0.9812594 0.01116665
vn 0.222963 0.9742306 0.03409078
vn 0.09312328 0.9954095 0.02208666
vn 0.09312328 0.9954095 0.02208666
vn 0.09312328 0.9954095 0.02208666
vn 0.09861781 0.995066 0.01086511
vn 0.09861781 0.995066 0.01086511
vn 0.1319977 0.9902403 0.04472881
vn 0.1318903 0.9894314 -0.06025385
vn 0.1318903 0.9894314 -0.06025385
vn 0.1318903 0.9894314 -0.06025385
vn 0.1288405 0.9900168 -0.05715623
vn 0.0128132 0.9995463 -0.0272569
vn 0.0128132 0.9995463 -0.0272569
vn 0.0128132 0.9995463 -0.0272569
vn 0.04631173 0.9970798 -0.06071986
vn -0.01824741 0.9997527 -0.0127096
vn -0.01824741 0.9997527 -0.0127096
vn -0.01821781 0.9981307 -0.05833712
vn 0.2591759 0.965166 0.03581182
vn 0.2591759 0.965166 0.03581182
vn 0.2591759 0.965166 0.03581182
vn 0.2563711 0.9662263 0.02608571
vn 0.2645296 0.9640263 0.02602633
vn 0.2642909 0.9631566 0.04979581
vn 0.2642909 0.9631566 0.04979581
vn 0.2642909 0.9631566 0.04979581
vn 0.1858155 0.981904 0.03656689
vn 0.1858155 0.981904 0.03656689
vn 0.1858155 0.981904 0.03656689
vn 0.1856975 0.9812819 0.0510132
vn 0.02296648 0.9987179 0.04511153
vn 0.02296648 0.9987179 0.04511153
vn 0.01281022 0.9993063 0.03496837
vn 0.02296648 0.9987179 0.04511153
vn 0.02298422 0.9994898 0.02217759

vt 0.4266343 0.4088477
vt 0.4266204 0.3894173
vt 0.4071157 0.3894282
vt 0.4854447 0.4088483
vt 0.4854168 0.3894059
vt 0.4659615 0.3894072
vt 0.4658854 0.4088488
vt 0.4658943 0.4282913
vt 0.4854037 0.4282852
vt 0.4070963 0.4865676
vt 0.4266034 0.4865687
vt 0.4265688 0.4671434
vt 0.4462407 0.4088485
vt 0.4463579 0.389407
vt 0.4266204 0.3894173
vt 0.3876108 0.4865804
vt 0.4070963 0.4865676
vt 0.4070219 0.4671425
vt 0.4265959 0.428284
vt 0.4463179 0.4282916
vt 0.4462407 0.4088485
vt 0.4265732 0.4477162
vt 0.4463446 0.4477169
vt 0.4463446 0.4477169
vt 0.4462499 0.467147
vt 0.4659296 0.46715
vt 0.4463446 0.4477169
vt 0.4659505 0.4477278
vt 0.4658943 0.4282913
vt 0.3876103 0.4088428
vt 0.3875971 0.4282731
vt 0.4070303 0.428274
vt 0.4070308 0.4088531
vt 0.4071157 0.3894282
vt 0.3876327 0.3894059
vt 0.4463409 0.4865773
vt 0.4659421 0.4865778
vt 0.4659296 0.46715
vt 0.4463446 0.4477169
vt 0.4659505 0.4477278
vt 0.4658943 0.4282913
vt 0.4463179 0.4282916
vt 0.4658854 0.4088488
vt 0.4070963 0.4865676
vt 0.4265688 0.4671434
vt 0.4070219 0.4671425
vt 0.4462407 0.4088485
vt 0.4266204 0.3894173
vt 0.4266343 0.4088477
vt 0.4463179 0.4282916
vt 0.4658854 0.4088488
vt 0.4265732 0.4477162
vt 0.4463179 0.4282916
vt 0.4265959 0.428284
vt 0.4265688 0.4671434
vt 0.4462499 0.467147
vt 0.4266034 0.4865687
vt 0.4463409 0.4865773
vt 0.4462499 0.467147
vt 0.4659296 0.46715
vt 0.4265732 0.4477162
vt 0.4462499 0.467147
vt 0.4463446 0.4477169
vt 0.4070308 0.4088531
vt 0.4070303 0.428274
vt 0.4265959 0.428284
vt 0.4070426 0.4477115
vt 0.4265688 0.4671434
vt 0.4265732 0.4477162
vt 0.4070426 0.4477115
vt 0.4070219 0.4671425
vt 0.4659421 0.4865778
vt 0.4853921 0.4865916
vt 0.4854161 0.4671617
vt 0.4659296 0.46715
vt 0.4659505 0.4477278
vt 0.4854498 0.4477261
vt 0.4659505 0.4477278
vt 0.4854498 0.4477261
vt 0.4854037 0.4282852
vt 0.4658943 0.4282913
vt 0.3876071 0.447711
vt 0.4070426 0.4477115
vt 0.4070303 0.428274
vt 0.3875971 0.4282731
vt 0.3876103 0.4088428
vt 0.4070308 0.4088531
vt 0.3876327 0.3894059
vt 0.4658854 0.4088488
vt 0.4659615 0.3894072
vt 0.4463579 0.389407
vt 0.4462407 0.4088485
vt 0.4265959 0.428284
vt 0.4266343 0.4088477
vt 0.4070308 0.4088531
vt 0.4071157 0.3894282
vt 0.4854447 0.4088483
vt 0.4659615 0.3894072
vt 0.4658854 0.4088488
vt 0.4854037 0.4282852
vt 0.3876071 0.447711
vt 0.4070219 0.4671425
vt 0.4070426 0.4477115
vt 0.3876002 0.4671479
vt 0.3876108 0.4865804

usemtl LOW-POLY-COLORS
usemap LOW-POLY-COLORS
f 2/2/2 1/1/1 3/3/3
f 5/5/5 4/4/4 6/6/6
f 8/8/8 7/7/7 9/9/9
f 11/11/11 10/10/10 12/12/12
f 14/14/14 13/13/13 15/15/15
f 17/17/17 16/16/16 18/18/18
f 20/20/20 19/19/19 21/21/21
f 23/23/23 22/22/22 20/20/20
f 25/25/25 24/24/24 26/26/26
f 28/28/28 27/27/27 29/29/29
f 31/31/31 30/30/30 32/32/32
f 34/34/34 33/33/33 35/35/35
f 37/37/37 36/36/36 38/38/38
f 38/38/38 39/39/39 40/40/40
f 41/41/41 39/39/39 42/42/42
f 41/41/41 42/42/42 43/43/43
f 45/45/45 44/44/44 46/46/46
f 48/48/48 47/47/47 49/49/49
f 51/51/51 50/50/50 47/47/47
f 53/53/53 52/52/52 54/54/54
f 55/55/55 52/52/52 56/56/56
f 56/56/56 57/57/57 55/55/55
f 58/58/58 57/57/57 59/59/59
f 60/60/60 58/58/58 56/56/56
f 62/62/62 61/61/61 63/63/63
f 65/65/65 64/64/64 66/66/66
f 66/66/66 67/67/67 65/65/65
f 68/68/68 67/67/67 69/69/69
f 69/69/69 70/70/70 66/66/66
f 71/71/71 70/70/70 68/68/68
f 73/73/73 72/72/72 74/74/74
f 74/74/74 72/72/72 75/75/75
f 75/75/75 76/76/76 74/74/74
f 74/74/74 76/76/76 77/77/77
f 79/79/79 78/78/78 80/80/80
f 80/80/80 78/78/78 81/81/81
f 83/83/83 82/82/82 84/84/84
f 84/84/84 82/82/82 85/85/85
f 84/84/84 86/86/86 87/87/87
f 88/88/88 87/87/87 86/86/86
f 90/90/90 89/89/89 91/91/91
f 91/91/91 89/89/89 92/92/92
f 92/92/92 93/93/93 94/94/94
f 93/93/93 95/95/95 94/94/94
f 96/96/96 94/94/94 95/95/95
f 98/98/98 97/97/97 99/99/99
f 100/100/100 99/99/99 97/97/97
f 102/102/102 101/101/101 103/103/103
f 104/104/104 101/101/101 102/102/102
f 102/102/102 105/105/105 104/104/104
