mtllib ./terrain-plane-valley3_12.mtl
g terrain-plane-valley3
v -8.999968 -0.5348154 -9.020567
v -15 -0.02701381 -9
v -15 -6.318109E-06 -14.99992
v -3.000004 0.4500669 -14.99992
v 3.000004 0.149402 -14.99992
v 3.000032 -0.5889409 -9.020568
v 9.000002 0.07540236 -14.99992
v 3.000032 -0.5889409 -9.020568
v 9.000031 -0.5058861 -9.020569
v 15 5.125984E-06 -14.99992
v -2.999969 -0.5928984 -9.020567
v 3.000033 -0.9983169 -3.020567
v 15 0.1331285 9.000067
v 15 2.491529E-05 15.00007
v 9.000024 -0.5729128 15.00007
v 3.000032 -0.5889409 -9.020568
v 9.000031 -0.5058861 -9.020569
v 9.000032 -0.3490729 -3.020569
v -8.999964 -5.299881 8.979436
v -15.00001 -5.0082 9.000004
v -15.00001 -3.594034 3.000008
v -8.99995 -5.243358 15.00007
v -15 -5.999978 15.00007
v -15.00001 -5.0082 9.000004
v 15 0.03876087 -2.999949
v 15 0.4041469 3.000058
v 9.000032 -0.3602261 2.979431
v -2.999968 -1.388615 -3.020566
v 3.000033 -0.9983169 -3.020567
v 3.000034 -1.488584 2.979433
v 3.000032 -0.5889409 -9.020568
v 9.000032 -0.3490729 -3.020569
v 15 0.3506819 -8.999943
v 15 0.03876087 -2.999949
v -8.999965 -3.555387 2.979435
v -2.999968 -2.792867 2.979434
v -2.999966 -3.545866 8.979434
v -2.999968 -2.792867 2.979434
v 3.000035 -1.892556 8.979433
v -2.999966 -3.545866 8.979434
v -8.999965 -1.885149 -3.020565
v -2.999968 -2.792867 2.979434
v -8.999965 -3.555387 2.979435
v -2.999969 -0.5928984 -9.020567
v 3.000033 -0.9983169 -3.020567
v -2.999968 -1.388615 -3.020566
v -8.99995 -5.243358 15.00007
v -15.00001 -5.0082 9.000004
v -8.999964 -5.299881 8.979436
v -2.999968 -1.388615 -3.020566
v 3.000034 -1.488584 2.979433
v -2.999968 -2.792867 2.979434
v -8.999965 -1.885149 -3.020565
v -15 -0.02701381 -9
v -8.999968 -0.5348154 -9.020567
v -8.999965 -3.555387 2.979435
v -2.999966 -3.545866 8.979434
v -8.999964 -5.299881 8.979436
v 15 0.4041469 3.000058
v 9.000035 -0.8180935 8.979432
v 9.000032 -0.3602261 2.979431
v 15 0.1331285 9.000067
v 9.000035 -0.8180935 8.979432
v 3.000034 -1.488584 2.979433
v 9.000032 -0.3602261 2.979431
v 3.000033 -0.9983169 -3.020567
v 3.000035 -1.892556 8.979433
v -2.999968 -2.792867 2.979434
v 9.000024 -0.5729128 15.00007
v 3.000036 -2.031135 15.00007
v 3.000035 -1.892556 8.979433
v -2.999966 -3.545866 8.979434
v -2.999964 -3.543075 15.00007
v -8.999964 -5.299881 8.979436
v -8.99995 -5.243358 15.00007
v 3.000033 -0.9983169 -3.020567
v 9.000032 -0.3490729 -3.020569
v 9.000032 -0.3602261 2.979431
v 15 0.03876087 -2.999949
v 15 0.3506819 -8.999943
v 9.000031 -0.5058861 -9.020569
v 15 5.125984E-06 -14.99992
v -8.999965 -1.885149 -3.020565
v -2.999968 -1.388615 -3.020566
v -2.999968 -2.792867 2.979434
v -8.999968 -0.5348154 -9.020567
v -8.999965 -1.885149 -3.020565
v -15.00001 -1.902434 -2.999988
v -15 -0.02701381 -9
v -8.999965 -3.555387 2.979435
v -15.00001 -3.594034 3.000008
v -8.999964 -5.299881 8.979436
v -8.999968 -0.5348154 -9.020567
v -2.999969 -0.5928984 -9.020567
v -2.999968 -1.388615 -3.020566
v -3.000004 0.4500669 -14.99992
v 3.000032 -0.5889409 -9.020568
v -15 -6.318109E-06 -14.99992
v -8.999995 0.2268907 -14.99992
v -3.000004 0.4500669 -14.99992
v 9.000024 -0.5729128 15.00007
v 3.000035 -1.892556 8.979433
v 9.000035 -0.8180935 8.979432
v 15 0.1331285 9.000067

vn 0.08434606 0.9964264 0.004485243
vn 0.08434606 0.9964264 0.004485243
vn 0.08434606 0.9964264 0.004485243
vn 0.04967161 0.9912372 0.1223997
vn 0.04967161 0.9912372 0.1223997
vn 0.04967161 0.9912372 0.1223997
vn -0.01377618 0.9952133 0.09675062
vn -0.01377618 0.9952133 0.09675062
vn -0.01377618 0.9952133 0.09675062
vn 0.01250627 0.99523 0.09675211
vn -0.0006580416 0.9976802 0.06807106
vn -0.0006580416 0.9976802 0.06807106
vn -0.09503451 0.9952291 0.02207805
vn -0.09503451 0.9952291 0.02207805
vn -0.09503451 0.9952291 0.02207805
vn -0.01383641 0.9995629 -0.0261241
vn -0.01383641 0.9995629 -0.0261241
vn -0.01383641 0.9995629 -0.0261241
vn 0.0480476 0.9722061 0.2291437
vn 0.0480476 0.9722061 0.2291437
vn 0.0480476 0.9722061 0.2291437
vn -0.1234623 0.9790643 0.161834
vn -0.1234623 0.9790643 0.161834
vn -0.1234623 0.9790643 0.161834
vn -0.1259409 0.9902034 -0.060301
vn -0.1259409 0.9902034 -0.060301
vn -0.1259409 0.9902034 -0.060301
vn -0.06469779 0.9945902 0.08126918
vn -0.06469779 0.9945902 0.08126918
vn -0.06469779 0.9945902 0.08126918
vn -0.1073327 0.9919171 0.06767785
vn -0.06459541 0.9965658 0.05180839
vn -0.06459541 0.9965658 0.05180839
vn -0.06459541 0.9965658 0.05180839
vn -0.125107 0.984421 0.1235448
vn -0.125107 0.984421 0.1235448
vn -0.125107 0.984421 0.1235448
vn -0.2637277 0.9570894 0.1201148
vn -0.2637277 0.9570894 0.1201148
vn -0.2637277 0.9570894 0.1201148
vn -0.1215242 0.9562299 0.2661886
vn -0.1215242 0.9562299 0.2661886
vn -0.1215242 0.9562299 0.2661886
vn -0.06435132 0.9892657 0.1311958
vn -0.06435132 0.9892657 0.1311958
vn -0.06435132 0.9892657 0.1311958
vn 0.04852165 0.9987782 -0.009376968
vn 0.04852165 0.9987782 -0.009376968
vn 0.04852165 0.9987782 -0.009376968
vn -0.2070729 0.9525841 0.2229447
vn -0.2070729 0.9525841 0.2229447
vn -0.2070729 0.9525841 0.2229447
vn 0.08303279 0.9722292 0.2188054
vn 0.08303279 0.9722292 0.2188054
vn 0.08303279 0.9722292 0.2188054
vn -0.2702651 0.9245023 0.2687981
vn -0.2702651 0.9245023 0.2687981
vn -0.2702651 0.9245023 0.2687981
vn -0.1565763 0.9866599 0.04456711
vn -0.1262697 0.9891201 0.07548099
vn -0.1262697 0.9891201 0.07548099
vn -0.1565763 0.9866599 0.04456711
vn -0.1843023 0.9800202 0.07478667
vn -0.2119613 0.9750705 0.06565018
vn -0.1843023 0.9800202 0.07478667
vn -0.1842268 0.9796189 0.08004581
vn -0.2119613 0.9750705 0.06565018
vn -0.2119613 0.9750705 0.06565018
vn -0.2361039 0.9714705 0.02236081
vn -0.2361039 0.9714705 0.02236081
vn -0.2361039 0.9714705 0.02236081
vn -0.280592 0.959827 -0.0004449936
vn -0.280592 0.959827 -0.0004449936
vn -0.280592 0.959827 -0.0004449936
vn -0.272634 0.9620754 -0.009031673
vn -0.1075792 0.9941948 0.001848085
vn -0.1075792 0.9941948 0.001848085
vn -0.1075792 0.9941948 0.001848085
vn -0.06451098 0.9979152 0.001854974
vn -0.1408987 0.9883375 -0.05776468
vn -0.1408987 0.9883375 -0.05776468
vn -0.1408987 0.9883375 -0.05776468
vn -0.080318 0.9705426 0.2271477
vn -0.080318 0.9705426 0.2271477
vn -0.080318 0.9705426 0.2271477
vn -0.08047447 0.9724339 0.2188517
vn -0.00172654 0.9544597 0.298335
vn -0.005269001 0.962466 0.2713514
vn -0.00172654 0.9544597 0.298335
vn -0.005269001 0.962466 0.2713514
vn -0.005269001 0.962466 0.2713514
vn -0.005227554 0.9602234 0.2791839
vn 0.009596043 0.9912747 0.1314622
vn 0.009596043 0.9912747 0.1314622
vn 0.009596043 0.9912747 0.1314622
vn 0.009536091 0.9850814 0.1718254
vn -0.0006497458 0.9851259 0.1718332
vn -0.03748661 0.9912862 0.1262794
vn -0.03748661 0.9912862 0.1262794
vn -0.03687279 0.9913088 0.1262823
vn -0.1761314 0.9835514 -0.04005392
vn -0.1761314 0.9835514 -0.04005392
vn -0.1761314 0.9835514 -0.04005392
vn -0.1563212 0.9868882 -0.04018975

vt 0.4723311 0.4732763
vt 0.4723352 0.4966969
vt 0.4957296 0.4966575
vt 0.4957235 0.4498332
vt 0.4956869 0.4264165
vt 0.4722959 0.4264059
vt 0.4957004 0.4030056
vt 0.4722959 0.4264059
vt 0.4723403 0.4029734
vt 0.4957275 0.3795963
vt 0.4722951 0.4498442
vt 0.4488332 0.4263925
vt 0.4020494 0.3792914
vt 0.3786324 0.3791805
vt 0.378509 0.4026225
vt 0.4722959 0.4264059
vt 0.4723403 0.4029734
vt 0.4489055 0.4029071
vt 0.4014996 0.4735743
vt 0.4014683 0.496917
vt 0.4251445 0.4968553
vt 0.3780764 0.4734924
vt 0.3779937 0.4969269
vt 0.4014683 0.496917
vt 0.4488917 0.3794692
vt 0.4254687 0.3793541
vt 0.4254673 0.4028272
vt 0.4487934 0.4498628
vt 0.4488332 0.4263925
vt 0.4253564 0.4263795
vt 0.4722959 0.4264059
vt 0.4489055 0.4029071
vt 0.4723087 0.3795016
vt 0.4488917 0.3794692
vt 0.4250933 0.4734213
vt 0.4251892 0.4499599
vt 0.401728 0.4499771
vt 0.4251892 0.4499599
vt 0.4018912 0.426319
vt 0.401728 0.4499771
vt 0.4487517 0.4733317
vt 0.4251892 0.4499599
vt 0.4250933 0.4734213
vt 0.4722951 0.4498442
vt 0.4488332 0.4263925
vt 0.4487934 0.4498628
vt 0.3780764 0.4734924
vt 0.4014683 0.496917
vt 0.4014996 0.4735743
vt 0.4487934 0.4498628
vt 0.4253564 0.4263795
vt 0.4251892 0.4499599
vt 0.4487517 0.4733317
vt 0.4723352 0.4966969
vt 0.4723311 0.4732763
vt 0.4250933 0.4734213
vt 0.401728 0.4499771
vt 0.4014996 0.4735743
vt 0.4254687 0.3793541
vt 0.4020161 0.4027893
vt 0.4254673 0.4028272
vt 0.4020494 0.3792914
vt 0.4020161 0.4027893
vt 0.4253564 0.4263795
vt 0.4254673 0.4028272
vt 0.4488332 0.4263925
vt 0.4018912 0.426319
vt 0.4251892 0.4499599
vt 0.378509 0.4026225
vt 0.3783751 0.426207
vt 0.4018912 0.426319
vt 0.401728 0.4499771
vt 0.3782118 0.4498153
vt 0.4014996 0.4735743
vt 0.3780764 0.4734924
vt 0.4488332 0.4263925
vt 0.4489055 0.4029071
vt 0.4254673 0.4028272
vt 0.4488917 0.3794692
vt 0.4723087 0.3795016
vt 0.4723403 0.4029734
vt 0.4957275 0.3795963
vt 0.4487517 0.4733317
vt 0.4487934 0.4498628
vt 0.4251892 0.4499599
vt 0.4723311 0.4732763
vt 0.4487517 0.4733317
vt 0.4487514 0.4967636
vt 0.4723352 0.4966969
vt 0.4250933 0.4734213
vt 0.4251445 0.4968553
vt 0.4014996 0.4735743
vt 0.4723311 0.4732763
vt 0.4722951 0.4498442
vt 0.4487934 0.4498628
vt 0.4957235 0.4498332
vt 0.4722959 0.4264059
vt 0.4957296 0.4966575
vt 0.4957184 0.4732454
vt 0.4957235 0.4498332
vt 0.378509 0.4026225
vt 0.4018912 0.426319
vt 0.4020161 0.4027893
vt 0.4020494 0.3792914

usemtl LOW-POLY-COLORS
usemap LOW-POLY-COLORS
f 2/2/2 1/1/1 3/3/3
f 5/5/5 4/4/4 6/6/6
f 8/8/8 7/7/7 5/5/5
f 9/9/9 7/7/7 8/8/8
f 9/9/9 10/10/10 7/7/7
f 8/8/8 11/11/11 12/12/12
f 14/14/14 13/13/13 15/15/15
f 17/17/17 16/16/16 18/18/18
f 20/20/20 19/19/19 21/21/21
f 23/23/23 22/22/22 24/24/24
f 26/26/26 25/25/25 27/27/27
f 29/29/29 28/28/28 30/30/30
f 32/32/32 31/31/31 29/29/29
f 34/34/34 33/33/33 32/32/32
f 36/36/36 35/35/35 37/37/37
f 39/39/39 38/38/38 40/40/40
f 42/42/42 41/41/41 43/43/43
f 45/45/45 44/44/44 46/46/46
f 48/48/48 47/47/47 49/49/49
f 51/51/51 50/50/50 52/52/52
f 54/54/54 53/53/53 55/55/55
f 57/57/57 56/56/56 58/58/58
f 60/60/60 59/59/59 61/61/61
f 62/62/62 59/59/59 63/63/63
f 65/65/65 64/64/64 63/63/63
f 65/65/65 66/66/66 64/64/64
f 63/63/63 64/64/64 67/67/67
f 64/64/64 68/68/68 67/67/67
f 70/70/70 69/69/69 71/71/71
f 71/71/71 72/72/72 70/70/70
f 70/70/70 72/72/72 73/73/73
f 72/72/72 74/74/74 73/73/73
f 73/73/73 74/74/74 75/75/75
f 77/77/77 76/76/76 78/78/78
f 78/78/78 79/79/79 77/77/77
f 77/77/77 80/80/80 81/81/81
f 80/80/80 82/82/82 81/81/81
f 84/84/84 83/83/83 85/85/85
f 84/84/84 86/86/86 83/83/83
f 88/88/88 87/87/87 89/89/89
f 88/88/88 90/90/90 87/87/87
f 91/91/91 90/90/90 88/88/88
f 91/91/91 92/92/92 90/90/90
f 94/94/94 93/93/93 95/95/95
f 94/94/94 96/96/96 93/93/93
f 97/97/97 96/96/96 94/94/94
f 98/98/98 93/93/93 99/99/99
f 93/93/93 100/100/100 99/99/99
f 102/102/102 101/101/101 103/103/103
f 101/101/101 104/104/104 103/103/103
