mtllib ./terrain-plane-valley1_10.mtl
g terrain-plane-valley1
v -3.0103 -0.602363 3.010424
v -3.010301 -1.828082 -2.989576
v 2.989697 -0.3789184 -2.989576
v -9.010302 -2.984711 -2.989576
v -3.010301 -3.067077 -8.989573
v -15.00001 -0.5613018 8.999945
v -15.00001 -2.172477 2.999937
v -9.010302 -0.9251772 3.010424
v -3.000005 0.4500766 15.00007
v -3.0103 -0.3418993 9.010424
v 2.989698 -6.403091E-07 9.010426
v -9.010302 -2.984711 -2.989576
v -9.010302 -4.830752 -8.989573
v -3.010301 -3.067077 -8.989573
v -15.00001 -4.334697 -3.000069
v -15.00001 -5.445782 -9.000071
v -9.010302 -4.830752 -8.989573
v 8.999991 0.07541072 15.00007
v 8.989704 -0.4307154 9.010424
v 14.99999 0.1331285 9.00007
v 2.989697 -1.087408 -8.989573
v 3.000036 -2.031135 -14.99993
v 9.000024 -0.5729125 -14.99993
v -3.010301 -1.828082 -2.989576
v 2.989697 -0.3789184 -2.989576
v 2.989697 -0.3789184 -2.989576
v 2.989697 -1.087408 -8.989573
v 8.989707 -0.4696427 -8.989573
v 8.989704 -0.481838 -2.989577
v 8.989707 -0.4696427 -8.989573
v 14.99999 0.3506819 -8.999943
v 9.000024 -0.5729125 -14.99993
v 14.99999 1.370905E-05 -14.99993
v 2.989697 -1.087408 -8.989573
v 8.989707 -0.4696427 -8.989573
v 14.99999 1.370905E-05 -14.99993
v 14.99999 0.3506819 -8.999943
v 2.989697 -0.358998 3.010424
v 8.989704 -0.481838 -2.989577
v 8.989705 -0.1616532 3.010423
v -3.0103 -0.602363 3.010424
v 2.989697 -0.3789184 -2.989576
v -3.0103 -0.3418993 9.010424
v 2.989698 -6.403091E-07 9.010426
v -3.000005 0.4500766 15.00007
v -9.010299 -0.2850737 9.010425
v -3.0103 -0.3418993 9.010424
v -9.010299 -0.2850737 9.010425
v -3.0103 -0.602363 3.010424
v -3.0103 -0.3418993 9.010424
v 8.989704 -0.4307154 9.010424
v 2.989697 -0.358998 3.010424
v 8.989705 -0.1616532 3.010423
v 8.999991 0.07541072 15.00007
v 14.99999 0.1331285 9.00007
v 14.99999 -5.125936E-06 15.00007
v 2.999998 0.1494118 15.00007
v 2.989698 -6.403091E-07 9.010426
v -3.000005 0.4500766 15.00007
v 2.989698 -6.403091E-07 9.010426
v 8.989704 -0.4307154 9.010424
v 2.989697 -0.358998 3.010424
v 8.999991 0.07541072 15.00007
v -9.010302 -0.9251772 3.010424
v -3.010301 -1.828082 -2.989576
v -3.0103 -0.602363 3.010424
v 8.989704 -0.481838 -2.989577
v 14.99999 0.3506819 -8.999943
v 14.99999 0.03876159 -2.999949
v 2.989697 -0.358998 3.010424
v 2.989697 -0.3789184 -2.989576
v 8.989704 -0.481838 -2.989577
v 8.989707 -0.4696427 -8.989573
v 8.989705 -0.1616532 3.010423
v 8.989704 -0.481838 -2.989577
v 14.99999 0.03876159 -2.999949
v 14.99999 0.4041462 3.000058
v -3.000005 0.4500766 15.00007
v -9.000004 0.226899 15.00007
v -9.010299 -0.2850737 9.010425
v -15.00001 6.319839E-06 15.00007
v -15.00001 -0.5613018 8.999945
v -9.010302 -0.9251772 3.010424
v -3.0103 -0.602363 3.010424
v -3.010301 -3.067077 -8.989573
v -2.999964 -3.543075 -14.99993
v 3.000036 -2.031135 -14.99993
v -9.010302 -4.830752 -8.989573
v -8.99995 -5.243356 -14.99993
v -15.00001 -5.445782 -9.000071
v -15.00001 -5.999985 -14.99993
v -8.99995 -5.243356 -14.99993
v -9.010302 -4.830752 -8.989573
v -3.010301 -1.828082 -2.989576
v -3.010301 -3.067077 -8.989573
v 2.989697 -1.087408 -8.989573
v 3.000036 -2.031135 -14.99993
v -9.010302 -0.9251772 3.010424
v -9.010302 -2.984711 -2.989576
v -3.010301 -1.828082 -2.989576
v -15.00001 -2.172477 2.999937
v -15.00001 -4.334697 -3.000069
v -9.010302 -4.830752 -8.989573
v 8.989705 -0.1616532 3.010423
v 14.99999 0.4041462 3.000058
v 14.99999 0.1331285 9.00007
v 8.989704 -0.4307154 9.010424

vn -0.2302801 0.9534329 -0.1947734
vn -0.2302801 0.9534329 -0.1947734
vn -0.2302801 0.9534329 -0.1947734
vn -0.1855113 0.9623383 -0.1987222
vn -0.1855113 0.9623383 -0.1987222
vn -0.1967398 0.9469101 -0.2542727
vn -0.1967398 0.9469101 -0.2542727
vn -0.1967398 0.9469101 -0.2542727
vn -0.05640217 0.9898058 -0.1307792
vn -0.05640217 0.9898058 -0.1307792
vn -0.05640217 0.9898058 -0.1307792
vn -0.2704769 0.9201586 -0.2831088
vn -0.2704769 0.9201586 -0.2831088
vn -0.2704769 0.9201586 -0.2831088
vn -0.1001396 0.9783402 -0.1811697
vn -0.1001396 0.9783402 -0.1811697
vn -0.1001396 0.9783402 -0.1811697
vn -0.09321836 0.9921234 -0.0836745
vn -0.09321836 0.9921234 -0.0836745
vn -0.09321836 0.9921234 -0.0836745
vn -0.2334469 0.9605386 -0.1512224
vn -0.2334469 0.9605386 -0.1512224
vn -0.2334469 0.9605386 -0.1512224
vn -0.2332451 0.9657088 -0.1140324
vn -0.2332451 0.9657088 -0.1140324
vn -0.1017199 0.9879494 -0.1166587
vn -0.1017199 0.9879494 -0.1166587
vn -0.1017199 0.9879494 -0.1166587
vn -0.1352293 0.9908122 0.002013727
vn -0.09504166 0.9953236 -0.01726482
vn -0.1352293 0.9908122 0.002013727
vn -0.09504166 0.9953236 -0.01726482
vn -0.09504166 0.9953236 -0.01726482
vn -0.1024039 0.9945931 -0.01726485
vn -0.1351048 0.9891434 -0.05781031
vn -0.1351048 0.9891434 -0.05781031
vn -0.1351048 0.9891434 -0.05781031
vn -0.04048948 0.9982399 -0.04333422
vn -0.03282631 0.9980411 -0.05325958
vn -0.03282631 0.9980411 -0.05325958
vn -0.04048948 0.9982399 -0.04333422
vn -0.04052731 0.9991729 -0.003317327
vn -0.04048948 0.9982399 -0.04333422
vn -0.05678959 0.9966038 -0.05962967
vn 0.009388768 0.9913256 -0.1310934
vn 0.009388768 0.9913256 -0.1310934
vn 0.009388768 0.9913256 -0.1310934
vn 0.009461608 0.9990144 -0.04336784
vn 0.009461608 0.9990144 -0.04336784
vn 0.009461608 0.9990144 -0.04336784
vn -0.03284 0.9984572 0.04477452
vn -0.03284 0.9984572 0.04477452
vn -0.03284 0.9984572 0.04477452
vn 0.01232875 0.9996125 -0.02495666
vn 0.01256523 0.999675 0.02218172
vn 0.01256523 0.999675 0.02218172
vn 0.01232875 0.9996125 -0.02495666
vn 0.01232875 0.9996125 -0.02495666
vn 0.05003237 0.9984348 -0.02499212
vn 0.07147431 0.9956618 -0.05957334
vn 0.07147431 0.9956618 -0.05957334
vn 0.07147431 0.9956618 -0.05957334
vn 0.07134774 0.9938991 -0.08410718
vn -0.05264061 0.9784063 -0.1998753
vn -0.05264061 0.9784063 -0.1998753
vn -0.05264061 0.9784063 -0.1998753
vn -0.08609087 0.9949437 0.05172396
vn -0.08609087 0.9949437 0.05172396
vn -0.08609087 0.9949437 0.05172396
vn 0.01715062 0.9998474 -0.003319557
vn 0.01715062 0.9998474 -0.003319557
vn 0.01715062 0.9998474 -0.003319557
vn 0.01715067 0.9998509 0.002032257
vn -0.08626421 0.9948567 -0.05308965
vn -0.08626421 0.9948567 -0.05308965
vn -0.08626421 0.9948567 -0.05308965
vn -0.09365583 0.9937637 -0.0605176
vn -0.03703593 0.9956886 -0.0850441
vn -0.03703593 0.9956886 -0.0850441
vn -0.04570587 0.9946123 -0.0930454
vn -0.04570587 0.9946123 -0.0930454
vn -0.04570587 0.9946123 -0.0930454
vn -0.05342237 0.9929375 -0.1059304
vn -0.05342237 0.9929375 -0.1059304
vn -0.2436261 0.9668089 -0.07698664
vn -0.2436261 0.9668089 -0.07698664
vn -0.2436261 0.9668089 -0.07698664
vn -0.2720437 0.9599934 -0.06637098
vn -0.2720437 0.9599934 -0.06637098
vn -0.1245906 0.9880023 -0.09126119
vn -0.1245906 0.9880023 -0.09126119
vn -0.1245906 0.9880023 -0.09126119
vn -0.1017871 0.9924584 -0.06830638
vn -0.3074741 0.931895 -0.1924356
vn -0.3074741 0.931895 -0.1924356
vn -0.3074741 0.931895 -0.1924356
vn -0.3098797 0.939186 -0.1480012
vn -0.1793719 0.9304902 -0.3193959
vn -0.2068687 0.9204263 -0.3316937
vn -0.1793719 0.9304902 -0.3193959
vn -0.2068687 0.9204263 -0.3316937
vn -0.2068687 0.9204263 -0.3316937
vn -0.2101067 0.9344495 -0.2875056
vn -0.09355271 0.9946002 0.0449256
vn -0.09355271 0.9946002 0.0449256
vn -0.09355271 0.9946002 0.0449256
vn -0.09323389 0.9946446 0.04460354

vt 0.4254819 0.4498144
vt 0.4498869 0.4499749
vt 0.4497511 0.4255385
vt 0.4499981 0.4743421
vt 0.4742662 0.4501363
vt 0.4011588 0.4981931
vt 0.4256048 0.4983865
vt 0.4254136 0.4740714
vt 0.3769812 0.4496717
vt 0.4012208 0.4497683
vt 0.4012264 0.4255204
vt 0.4499981 0.4743421
vt 0.4744907 0.4746063
vt 0.4742662 0.4501363
vt 0.4502224 0.4986923
vt 0.47457 0.4987987
vt 0.4744907 0.4746063
vt 0.3770763 0.4012119
vt 0.4012734 0.401283
vt 0.4013118 0.3769977
vt 0.4740406 0.4255656
vt 0.4983997 0.4256209
vt 0.4982754 0.401215
vt 0.4498869 0.4499749
vt 0.4497511 0.4255385
vt 0.4497511 0.4255385
vt 0.4740406 0.4255656
vt 0.4739964 0.4012839
vt 0.4497529 0.401293
vt 0.4739964 0.4012839
vt 0.4740172 0.3769496
vt 0.4982754 0.401215
vt 0.4982485 0.3769667
vt 0.4740406 0.4255656
vt 0.4739964 0.4012839
vt 0.4982485 0.3769667
vt 0.4740172 0.3769496
vt 0.4254941 0.425536
vt 0.4497529 0.401293
vt 0.4255043 0.4012765
vt 0.4254819 0.4498144
vt 0.4497511 0.4255385
vt 0.4012208 0.4497683
vt 0.4012264 0.4255204
vt 0.3769812 0.4496717
vt 0.401155 0.473997
vt 0.4012208 0.4497683
vt 0.401155 0.473997
vt 0.4254819 0.4498144
vt 0.4012208 0.4497683
vt 0.4012734 0.401283
vt 0.4254941 0.425536
vt 0.4255043 0.4012765
vt 0.3770763 0.4012119
vt 0.4013118 0.3769977
vt 0.3770856 0.3769867
vt 0.3770352 0.4254369
vt 0.4012264 0.4255204
vt 0.3769812 0.4496717
vt 0.4012264 0.4255204
vt 0.4012734 0.401283
vt 0.4254941 0.425536
vt 0.3770763 0.4012119
vt 0.4254136 0.4740714
vt 0.4498869 0.4499749
vt 0.4254819 0.4498144
vt 0.4497529 0.401293
vt 0.4740172 0.3769496
vt 0.44978 0.3769962
vt 0.4254941 0.425536
vt 0.4497511 0.4255385
vt 0.4497529 0.401293
vt 0.4739964 0.4012839
vt 0.4255043 0.4012765
vt 0.4497529 0.401293
vt 0.44978 0.3769962
vt 0.4255419 0.3769731
vt 0.3769812 0.4496717
vt 0.376946 0.4738994
vt 0.401155 0.473997
vt 0.3769059 0.4981301
vt 0.4011588 0.4981931
vt 0.4254136 0.4740714
vt 0.4254819 0.4498144
vt 0.4742662 0.4501363
vt 0.4985702 0.4500453
vt 0.4983997 0.4256209
vt 0.4744907 0.4746063
vt 0.4987496 0.4745323
vt 0.47457 0.4987987
vt 0.4988167 0.498802
vt 0.4987496 0.4745323
vt 0.4744907 0.4746063
vt 0.4498869 0.4499749
vt 0.4742662 0.4501363
vt 0.4740406 0.4255656
vt 0.4983997 0.4256209
vt 0.4254136 0.4740714
vt 0.4499981 0.4743421
vt 0.4498869 0.4499749
vt 0.4256048 0.4983865
vt 0.4502224 0.4986923
vt 0.4744907 0.4746063
vt 0.4255043 0.4012765
vt 0.4255419 0.3769731
vt 0.4013118 0.3769977
vt 0.4012734 0.401283

usemtl LOW-POLY-COLORS
usemap LOW-POLY-COLORS
f 2/2/2 1/1/1 3/3/3
f 5/5/5 4/4/4 2/2/2
f 7/7/7 6/6/6 8/8/8
f 10/10/10 9/9/9 11/11/11
f 13/13/13 12/12/12 14/14/14
f 16/16/16 15/15/15 17/17/17
f 19/19/19 18/18/18 20/20/20
f 22/22/22 21/21/21 23/23/23
f 21/21/21 24/24/24 25/25/25
f 27/27/27 26/26/26 28/28/28
f 30/30/30 29/29/29 31/31/31
f 32/32/32 30/30/30 33/33/33
f 32/32/32 34/34/34 30/30/30
f 36/36/36 35/35/35 37/37/37
f 39/39/39 38/38/38 40/40/40
f 42/42/42 41/41/41 38/38/38
f 41/41/41 43/43/43 38/38/38
f 38/38/38 43/43/43 44/44/44
f 46/46/46 45/45/45 47/47/47
f 49/49/49 48/48/48 50/50/50
f 52/52/52 51/51/51 53/53/53
f 55/55/55 54/54/54 56/56/56
f 57/57/57 54/54/54 58/58/58
f 60/60/60 59/59/59 57/57/57
f 60/60/60 61/61/61 62/62/62
f 60/60/60 63/63/63 61/61/61
f 65/65/65 64/64/64 66/66/66
f 68/68/68 67/67/67 69/69/69
f 71/71/71 70/70/70 72/72/72
f 73/73/73 71/71/71 72/72/72
f 75/75/75 74/74/74 76/76/76
f 76/76/76 74/74/74 77/77/77
f 79/79/79 78/78/78 80/80/80
f 80/80/80 81/81/81 79/79/79
f 82/82/82 81/81/81 80/80/80
f 83/83/83 82/82/82 80/80/80
f 83/83/83 80/80/80 84/84/84
f 86/86/86 85/85/85 87/87/87
f 86/86/86 88/88/88 85/85/85
f 89/89/89 88/88/88 86/86/86
f 91/91/91 90/90/90 92/92/92
f 92/92/92 90/90/90 93/93/93
f 95/95/95 94/94/94 96/96/96
f 97/97/97 95/95/95 96/96/96
f 99/99/99 98/98/98 100/100/100
f 99/99/99 101/101/101 98/98/98
f 102/102/102 101/101/101 99/99/99
f 103/103/103 102/102/102 99/99/99
f 105/105/105 104/104/104 106/106/106
f 106/106/106 104/104/104 107/107/107
