mtllib ./terrain-plane-lake_14.mtl
g terrain-plane-lake
v -9.000001 -0.0807553 -8.999944
v -15 0.3506812 -8.999943
v -15 5.125979E-06 -14.99993
v 10.53682 0.1465345 5.478437E-06
v 15 0.4041469 3.000068
v 8.999997 0.1840561 5.393564
v 8.999993 0.04515259 -8.999948
v 14.99999 5.125984E-06 -14.99993
v 14.99999 0.3506812 -8.999934
v 15 0.03876087 -2.999933
v 8.999993 0.04515259 -8.999948
v 14.99999 0.3506812 -8.999934
v -9.000001 -0.0807553 -8.999944
v -15 0.03876087 -2.999949
v -15 0.3506812 -8.999943
v -5.393616 0.1044588 -8.999945
v -9.000002 0.2268985 -14.99994
v 6.525262E-07 0.1777155 -10.53682
v 6.525262E-07 0.1777155 -10.53682
v -3.000004 0.4500755 -14.99994
v -9.000001 -0.0807553 -8.999944
v -15 5.125979E-06 -14.99993
v -5.393616 0.1044588 -8.999945
v 15 0.03876087 -2.999933
v 15 0.4041469 3.000068
v 10.53682 0.1465345 5.478437E-06
v 15 0.03876087 -2.999933
v 8.999995 0.02037046 -5.393563
v 8.999993 0.04515259 -8.999948
v 5.393614 0.08148463 -8.999946
v 8.999992 0.07541023 -14.99994
v 14.99999 5.125984E-06 -14.99993
v 2.999996 0.1494106 -14.99994
v 6.525262E-07 0.1777155 -10.53682
v -3.000004 0.4500755 -14.99994
v 2.037367 -2.625742 -3.364497
v 4.060999 -1.278852 -6.746485
v 6.746188 -1.33977 -4.061234
v -2.03711 -2.507728 3.356195
v -4.06075 -1.083468 6.745843
v -6.74615 -1.287831 4.060583
v 3.940864 -2.599126 -0.004185888
v 7.903275 -1.228303 -0.0003731199
v 6.746208 -1.198106 4.060403
v -2.037399 -2.608454 -3.364508
v -3.940847 -2.671424 -0.004198187
v -6.746219 -1.319835 -4.061205
v -3.940847 -2.671424 -0.004198187
v -7.903266 -1.344682 -0.0003847526
v -6.746219 -1.319835 -4.061205
v -2.037399 -2.608454 -3.364508
v 8.428617E-06 -1.187081 -7.903729
v 4.060999 -1.278852 -6.746485
v -3.940847 -2.671424 -0.004198187
v -2.03711 -2.507728 3.356195
v -6.74615 -1.287831 4.060583
v -2.03711 -2.507728 3.356195
v -0.03439825 -1.162178 7.893145
v -4.06075 -1.083468 6.745843
v 3.940864 -2.599126 -0.004185888
v 2.037367 -2.625742 -3.364497
v 6.746188 -1.33977 -4.061234
v 3.940864 -2.599126 -0.004185888
v 6.746208 -1.198106 4.060403
v 4.334212 -1.290529 6.472537
v -0.03439825 -1.162178 7.893145
v 2.199108 -2.644128 3.194406
v 4.334212 -1.290529 6.472537
v -2.037399 -2.608454 -3.364508
v -4.061028 -1.254938 -6.746493
v 8.428617E-06 -1.187081 -7.903729
v -2.037399 -2.608454 -3.364508
v -6.746219 -1.319835 -4.061205
v -4.061028 -1.254938 -6.746493
v -2.037399 -2.608454 -3.364508
v 4.060999 -1.278852 -6.746485
v 2.037367 -2.625742 -3.364497
v -3.940847 -2.671424 -0.004198187
v -6.74615 -1.287831 4.060583
v -7.903266 -1.344682 -0.0003847526
v 3.940864 -2.599126 -0.004185888
v 6.746188 -1.33977 -4.061234
v 7.903275 -1.228303 -0.0003731199
v 3.940864 -2.599126 -0.004185888
v 4.334212 -1.290529 6.472537
v 2.199108 -2.644128 3.194406
v -2.03711 -2.507728 3.356195
v 2.199108 -2.644128 3.194406
v -0.03439825 -1.162178 7.893145
v -8.999996 0.2752648 9.000067
v -14.99999 0.1331292 9.000067
v -15 0.4041469 3.000058
v -8.999996 0.2268911 15.00007
v -14.99999 -5.125935E-06 15.00008
v -5.393495 0.3077803 9.000066
v -2.999998 0.4500681 15.00007
v -8.999996 0.2752648 9.000067
v -15 0.4041469 3.000058
v -8.999997 0.08221306 5.393564
v -15 0.03876087 -2.999949
v 15 0.1331292 9.000061
v 8.999997 0.1840561 5.393564
v 15 0.4041469 3.000068
v 8.999998 0.05259282 9.000062
v 15 -5.125941E-06 15.00005
v 8.999998 0.07540286 15.00007
v 5.715506 0.08678164 8.678053
v 3.000002 0.1494032 15.00007
v -1.8969E-06 0.2257736 10.53682
v -2.999998 0.4500681 15.00007
v -5.393495 0.3077803 9.000066
v -8.999996 0.2752648 9.000067
v -8.999997 0.08221306 5.393564
v -15 0.03876087 -2.999949
v -10.53682 0.01507121 7.623287E-07
v -8.999999 0.03703345 -5.393562
v -9.000001 -0.0807553 -8.999944
v -5.393616 0.1044588 -8.999945
v 6.746208 -1.198106 4.060403
v 8.999997 0.1840561 5.393564
v 5.715506 0.08678164 8.678053
v 4.334212 -1.290529 6.472537
v 7.903275 -1.228303 -0.0003731199
v 6.746188 -1.33977 -4.061234
v 8.999995 0.02037046 -5.393563
v 10.53682 0.1465345 5.478437E-06
v -0.03439825 -1.162178 7.893145
v -1.8969E-06 0.2257736 10.53682
v -5.393495 0.3077803 9.000066
v -4.06075 -1.083468 6.745843
v -7.903266 -1.344682 -0.0003847526
v -6.74615 -1.287831 4.060583
v -8.999997 0.08221306 5.393564
v -10.53682 0.01507121 7.623287E-07
v 8.428617E-06 -1.187081 -7.903729
v 6.525262E-07 0.1777155 -10.53682
v 5.393614 0.08148463 -8.999946
v 4.060999 -1.278852 -6.746485
v -7.903266 -1.344682 -0.0003847526
v -10.53682 0.01507121 7.623287E-07
v -8.999999 0.03703345 -5.393562
v -6.746219 -1.319835 -4.061205
v -4.061028 -1.254938 -6.746493
v -6.746219 -1.319835 -4.061205
v -8.999999 0.03703345 -5.393562
v -5.393616 0.1044588 -8.999945
v 7.903275 -1.228303 -0.0003731199
v 10.53682 0.1465345 5.478437E-06
v 8.999997 0.1840561 5.393564
v 6.746208 -1.198106 4.060403
v -4.06075 -1.083468 6.745843
v -5.393495 0.3077803 9.000066
v -8.999997 0.08221306 5.393564
v -6.74615 -1.287831 4.060583
v 4.060999 -1.278852 -6.746485
v 5.393614 0.08148463 -8.999946
v 8.999995 0.02037046 -5.393563
v 6.746188 -1.33977 -4.061234
v 8.428617E-06 -1.187081 -7.903729
v -4.061028 -1.254938 -6.746493
v -5.393616 0.1044588 -8.999945
v 6.525262E-07 0.1777155 -10.53682
v -0.03439825 -1.162178 7.893145
v 4.334212 -1.290529 6.472537
v 5.715506 0.08678164 8.678053
v -1.8969E-06 0.2257736 10.53682
v 2.199108 -2.644128 3.194406
v -2.03711 -2.507728 3.356195
v -0.01677824 -2.580702 -0.008984343
v 3.940864 -2.599126 -0.004185888
v 2.037367 -2.625742 -3.364497
v -0.01677824 -2.580702 -0.008984343
v -2.037399 -2.608454 -3.364508
v -3.940847 -2.671424 -0.004198187
v -2.03711 -2.507728 3.356195

vn 0.0715993 0.9957343 -0.05819677
vn 0.0715993 0.9957343 -0.05819677
vn 0.0715993 0.9957343 -0.05819677
vn -0.04446441 0.9988183 -0.01961805
vn -0.04446441 0.9988183 -0.01961805
vn -0.04446441 0.9988183 -0.01961805
vn -0.050769 0.997009 -0.05827129
vn -0.050769 0.997009 -0.05827129
vn -0.050769 0.997009 -0.05827129
vn -0.05078727 0.9973627 0.05184965
vn -0.05078727 0.9973627 0.05184965
vn -0.05078727 0.9973627 0.05184965
vn 0.0716247 0.9960866 0.05178331
vn 0.0716247 0.9960866 0.05178331
vn 0.0716247 0.9960866 0.05178331
vn -0.006629471 0.9996806 0.02438486
vn -0.03773903 0.9979766 0.05117195
vn -0.006629471 0.9996806 0.02438486
vn -0.03703387 0.9956366 0.08565156
vn -0.03703387 0.9956366 0.08565156
vn -0.03773903 0.9979766 0.05117195
vn -0.03773903 0.9979766 0.05117195
vn -0.05122257 0.997377 0.05114124
vn -0.01675186 0.9980108 -0.06077651
vn -0.01675186 0.9980108 -0.06077651
vn 0.00706798 0.9996525 -0.02539738
vn -0.005806232 0.9999596 0.006871462
vn 0.01007364 0.9999256 0.006871221
vn 0.01256636 0.9999083 0.005042484
vn 0.01007364 0.9999256 0.006871221
vn 0.01256636 0.9999083 0.005042484
vn 0.01256636 0.9999083 0.005042484
vn 0.05002939 0.9983747 0.02729682
vn 0.05002939 0.9983747 0.02729682
vn 0.05002939 0.9983747 0.02729682
vn -0.2218719 0.9442372 0.2432879
vn -0.2218719 0.9442372 0.2432879
vn -0.2218719 0.9442372 0.2432879
vn 0.2025437 0.9401296 -0.274103
vn 0.2025437 0.9401296 -0.274103
vn 0.2025437 0.9401296 -0.274103
vn -0.3252307 0.9403681 -0.09966334
vn -0.3252307 0.9403681 -0.09966334
vn -0.3252307 0.9403681 -0.09966334
vn 0.2396005 0.9586303 0.1536859
vn 0.2396005 0.9586303 0.1536859
vn 0.2396005 0.9586303 0.1536859
vn 0.3161272 0.9438626 0.09584895
vn 0.3161272 0.9438626 0.09584895
vn 0.3161272 0.9438626 0.09584895
vn -0.05669938 0.9597485 0.2750782
vn -0.05669938 0.9597485 0.2750782
vn -0.05669938 0.9597485 0.2750782
vn 0.2226847 0.9594371 -0.1728931
vn 0.2226847 0.9594371 -0.1728931
vn 0.2226847 0.9594371 -0.1728931
vn 0.1116745 0.9382121 -0.3275467
vn 0.1116745 0.9382121 -0.3275467
vn 0.1116745 0.9382121 -0.3275467
vn -0.2432391 0.9611918 0.130173
vn -0.2432391 0.9611918 0.130173
vn -0.2432391 0.9611918 0.130173
vn -0.2173741 0.9592337 -0.1806078
vn -0.2173741 0.9592337 -0.1806078
vn -0.2173741 0.9592337 -0.1806078
vn -0.08126391 0.9388065 -0.3347214
vn -0.08126391 0.9388065 -0.3347214
vn -0.08126391 0.9388065 -0.3347214
vn 0.07823655 0.9408315 0.3297199
vn 0.07823655 0.9408315 0.3297199
vn 0.07823655 0.9408315 0.3297199
vn 0.2220511 0.9437906 0.2448522
vn 0.2220511 0.9437906 0.2448522
vn 0.2220511 0.9437906 0.2448522
vn 0.00393711 0.9282157 0.3720215
vn 0.00393711 0.9282157 0.3720215
vn 0.00393711 0.9282157 0.3720215
vn 0.3157224 0.9432266 -0.1031653
vn 0.3157224 0.9432266 -0.1031653
vn 0.3157224 0.9432266 -0.1031653
vn -0.3262654 0.9428948 0.06708346
vn -0.3262654 0.9428948 0.06708346
vn -0.3262654 0.9428948 0.06708346
vn -0.3315156 0.928469 -0.1674598
vn -0.3315156 0.928469 -0.1674598
vn -0.3315156 0.928469 -0.1674598
vn 0.01962563 0.9561458 -0.2922331
vn 0.01962563 0.9561458 -0.2922331
vn 0.01962563 0.9561458 -0.2922331
vn -0.02365853 0.9987018 0.04511094
vn -0.02365853 0.9987018 0.04511094
vn -0.02365853 0.9987018 0.04511094
vn -0.03777974 0.9990402 0.02216771
vn -0.03777974 0.9990402 0.02216771
vn -0.009015137 0.9999269 0.008061681
vn -0.037169 0.9992697 -0.008869982
vn 0.07469273 0.9957809 -0.05330299
vn 0.07469273 0.9957809 -0.05330299
vn 0.07469273 0.9957809 -0.05330299
vn 0.07757017 0.9951433 -0.06060182
vn -0.0134126 0.9992464 0.03642431
vn -0.0134126 0.9992464 0.03642431
vn -0.01864063 0.9988078 0.04511585
vn -0.0134126 0.9992464 0.03642431
vn 0.0125669 0.9999138 -0.003801341
vn 0.0125669 0.9999138 -0.003801341
vn 0.01233233 0.9999133 -0.004607336
vn 0.01233233 0.9999133 -0.004607336
vn 0.02475645 0.9991297 -0.03356973
vn 0.02475645 0.9991297 -0.03356973
vn 0.02475645 0.9991297 -0.03356973
vn -0.009002572 0.9985299 -0.05345007
vn -0.009002572 0.9985299 -0.05345007
vn -0.01273398 0.9993861 -0.03264114
vn 0.002157571 0.9999868 0.004686653
vn -0.01273398 0.9993861 -0.03264114
vn -0.01273398 0.9993861 -0.03264114
vn -0.05126242 0.9981529 -0.03260084
vn -0.3487442 0.8799159 -0.3226846
vn -0.3487442 0.8799159 -0.3226846
vn -0.3487442 0.8799159 -0.3226846
vn -0.3571255 0.8762357 -0.3235314
vn -0.4657811 0.8782092 0.108612
vn -0.4657811 0.8782092 0.108612
vn -0.4657811 0.8782092 0.108612
vn -0.4599629 0.8810418 0.1104512
vn 0.1447791 0.8752897 -0.4614184
vn 0.1447791 0.8752897 -0.4614184
vn 0.1447791 0.8752897 -0.4614184
vn 0.1468687 0.878206 -0.4551744
vn 0.4519592 0.8808069 -0.1411101
vn 0.4519592 0.8808069 -0.1411101
vn 0.4519592 0.8808069 -0.1411101
vn 0.4542175 0.8797622 -0.1403747
vn -0.1145268 0.8819827 0.4571542
vn -0.1145268 0.8819827 0.4571542
vn -0.1145268 0.8819827 0.4571542
vn -0.1123634 0.8786875 0.4639857
vn 0.4547068 0.8806323 0.1331481
vn 0.4547068 0.8806323 0.1331481
vn 0.4547068 0.8806323 0.1331481
vn 0.4517307 0.8820173 0.134108
vn 0.3250635 0.8799983 0.346319
vn 0.3250635 0.8799983 0.346319
vn 0.3250635 0.8799983 0.346319
vn 0.3241787 0.8825227 0.3406785
vn -0.4584202 0.8781548 -0.1367297
vn -0.4584202 0.8781548 -0.1367297
vn -0.4584202 0.8781548 -0.1367297
vn -0.4577266 0.8784814 -0.1369561
vn 0.3068277 0.8802819 -0.3618846
vn 0.3068277 0.8802819 -0.3618846
vn 0.3068277 0.8802819 -0.3618846
vn 0.3090297 0.8737662 -0.375544
vn -0.3252887 0.8822835 0.3402397
vn -0.3252887 0.8822835 0.3402397
vn -0.3252887 0.8822835 0.3402397
vn -0.3262142 0.879634 0.3461623
vn 0.1168013 0.8794419 0.4614536
vn 0.1168013 0.8794419 0.4614536
vn 0.1168013 0.8794419 0.4614536
vn 0.1182319 0.8815975 0.4569543
vn -0.1262672 0.875009 -0.4673499
vn -0.1262672 0.875009 -0.4673499
vn -0.1262672 0.875009 -0.4673499
vn -0.1281307 0.8787819 -0.4597009
vn 0.03209005 0.9994821 -0.002408116
vn 0.03209005 0.9994821 -0.002408116
vn 0.03209005 0.9994821 -0.002408116
vn 0.004667781 0.9999334 -0.0105643
vn 0.004242424 0.9999324 -0.01082477
vn -0.0231059 0.9997171 0.005645529
vn -0.0231059 0.9997171 0.005645529
vn -0.0231059 0.9997171 0.005645529
vn -0.02314192 0.9990996 -0.03555903

vt 0.4018643 0.4741472
vt 0.3778321 0.4741472
vt 0.3778321 0.4981793
vt 0.4801161 0.4380992
vt 0.4979928 0.426083
vt 0.4739606 0.4164961
vt 0.4739606 0.4741472
vt 0.4979927 0.4981793
vt 0.4979927 0.4741472
vt 0.4979928 0.4501151
vt 0.4739606 0.4741472
vt 0.4979927 0.4741472
vt 0.4018643 0.4741472
vt 0.3778321 0.4501152
vt 0.3778321 0.4741472
vt 0.4163091 0.4741472
vt 0.4018642 0.4981793
vt 0.4379124 0.4803029
vt 0.4379124 0.4803029
vt 0.4258964 0.4981793
vt 0.4018643 0.4741472
vt 0.3778321 0.4981793
vt 0.4163091 0.4741472
vt 0.4979928 0.4501151
vt 0.4979928 0.426083
vt 0.4801161 0.4380992
vt 0.4979928 0.4501151
vt 0.4739606 0.4597024
vt 0.4739606 0.4741472
vt 0.4595158 0.4741472
vt 0.4739606 0.4981793
vt 0.4979927 0.4981793
vt 0.4499285 0.4981793
vt 0.4379124 0.4803029
vt 0.4258964 0.4981793
vt 0.4460728 0.4515752
vt 0.4541781 0.4651213
vt 0.4649333 0.454366
vt 0.429753 0.4246565
vt 0.4216476 0.4110797
vt 0.4108917 0.4218352
vt 0.453697 0.438116
vt 0.4695679 0.4381007
vt 0.4649334 0.4218359
vt 0.4297519 0.4515752
vt 0.4221279 0.438116
vt 0.4108914 0.4543658
vt 0.4221279 0.438116
vt 0.406257 0.4381008
vt 0.4108914 0.4543658
vt 0.4297519 0.4515752
vt 0.4379124 0.4697565
vt 0.4541781 0.4651213
vt 0.4221279 0.438116
vt 0.429753 0.4246565
vt 0.4108917 0.4218352
vt 0.429753 0.4246565
vt 0.4377746 0.4064844
vt 0.4216476 0.4110797
vt 0.453697 0.438116
vt 0.4460728 0.4515752
vt 0.4649333 0.454366
vt 0.453697 0.438116
vt 0.4649334 0.4218359
vt 0.4552725 0.4121745
vt 0.4377746 0.4064844
vt 0.4467206 0.4253045
vt 0.4552725 0.4121745
vt 0.4297519 0.4515752
vt 0.4216466 0.4651213
vt 0.4379124 0.4697565
vt 0.4297519 0.4515752
vt 0.4108914 0.4543658
vt 0.4216466 0.4651213
vt 0.4297519 0.4515752
vt 0.4541781 0.4651213
vt 0.4460728 0.4515752
vt 0.4221279 0.438116
vt 0.4108917 0.4218352
vt 0.406257 0.4381008
vt 0.453697 0.438116
vt 0.4649333 0.454366
vt 0.4695679 0.4381007
vt 0.453697 0.438116
vt 0.4552725 0.4121745
vt 0.4467206 0.4253045
vt 0.429753 0.4246565
vt 0.4467206 0.4253045
vt 0.4377746 0.4064844
vt 0.4018643 0.4020508
vt 0.3778321 0.4020508
vt 0.3778321 0.426083
vt 0.4018643 0.3780186
vt 0.3778321 0.3780186
vt 0.4163095 0.4020508
vt 0.4258964 0.3780186
vt 0.4018643 0.4020508
vt 0.3778321 0.426083
vt 0.4018643 0.4164961
vt 0.3778321 0.4501152
vt 0.4979928 0.4020508
vt 0.4739606 0.4164961
vt 0.4979928 0.426083
vt 0.4739606 0.4020508
vt 0.4979928 0.3780186
vt 0.4739606 0.3780186
vt 0.460805 0.4033405
vt 0.4499285 0.3780186
vt 0.4379124 0.3958956
vt 0.4258964 0.3780186
vt 0.4163095 0.4020508
vt 0.4018643 0.4020508
vt 0.4018643 0.4164961
vt 0.3778321 0.4501152
vt 0.3957087 0.4380992
vt 0.4018643 0.4597023
vt 0.4018643 0.4741472
vt 0.4163091 0.4741472
vt 0.4649334 0.4218359
vt 0.4739606 0.4164961
vt 0.460805 0.4033405
vt 0.4552725 0.4121745
vt 0.4695679 0.4381007
vt 0.4649333 0.454366
vt 0.4739606 0.4597024
vt 0.4801161 0.4380992
vt 0.4377746 0.4064844
vt 0.4379124 0.3958956
vt 0.4163095 0.4020508
vt 0.4216476 0.4110797
vt 0.406257 0.4381008
vt 0.4108917 0.4218352
vt 0.4018643 0.4164961
vt 0.3957087 0.4380992
vt 0.4379124 0.4697565
vt 0.4379124 0.4803029
vt 0.4595158 0.4741472
vt 0.4541781 0.4651213
vt 0.406257 0.4381008
vt 0.3957087 0.4380992
vt 0.4018643 0.4597023
vt 0.4108914 0.4543658
vt 0.4216466 0.4651213
vt 0.4108914 0.4543658
vt 0.4018643 0.4597023
vt 0.4163091 0.4741472
vt 0.4695679 0.4381007
vt 0.4801161 0.4380992
vt 0.4739606 0.4164961
vt 0.4649334 0.4218359
vt 0.4216476 0.4110797
vt 0.4163095 0.4020508
vt 0.4018643 0.4164961
vt 0.4108917 0.4218352
vt 0.4541781 0.4651213
vt 0.4595158 0.4741472
vt 0.4739606 0.4597024
vt 0.4649333 0.454366
vt 0.4379124 0.4697565
vt 0.4216466 0.4651213
vt 0.4163091 0.4741472
vt 0.4379124 0.4803029
vt 0.4377746 0.4064844
vt 0.4552725 0.4121745
vt 0.460805 0.4033405
vt 0.4379124 0.3958956
vt 0.4467206 0.4253045
vt 0.429753 0.4246565
vt 0.4378452 0.4381352
vt 0.453697 0.438116
vt 0.4460728 0.4515752
vt 0.4378452 0.4381352
vt 0.4297519 0.4515752
vt 0.4221279 0.438116
vt 0.429753 0.4246565

usemtl LOW-POLY-COLORS
usemap LOW-POLY-COLORS
f 2/2/2 1/1/1 3/3/3
f 5/5/5 4/4/4 6/6/6
f 8/8/8 7/7/7 9/9/9
f 11/11/11 10/10/10 12/12/12
f 14/14/14 13/13/13 15/15/15
f 17/17/17 16/16/16 18/18/18
f 17/17/17 19/19/19 20/20/20
f 22/22/22 21/21/21 17/17/17
f 17/17/17 21/21/21 23/23/23
f 25/25/25 24/24/24 26/26/26
f 26/26/26 27/27/27 28/28/28
f 28/28/28 27/27/27 29/29/29
f 28/28/28 29/29/29 30/30/30
f 31/31/31 30/30/30 29/29/29
f 31/31/31 29/29/29 32/32/32
f 33/33/33 30/30/30 31/31/31
f 33/33/33 34/34/34 30/30/30
f 35/35/35 34/34/34 33/33/33
f 37/37/37 36/36/36 38/38/38
f 40/40/40 39/39/39 41/41/41
f 43/43/43 42/42/42 44/44/44
f 46/46/46 45/45/45 47/47/47
f 49/49/49 48/48/48 50/50/50
f 52/52/52 51/51/51 53/53/53
f 55/55/55 54/54/54 56/56/56
f 58/58/58 57/57/57 59/59/59
f 61/61/61 60/60/60 62/62/62
f 64/64/64 63/63/63 65/65/65
f 67/67/67 66/66/66 68/68/68
f 70/70/70 69/69/69 71/71/71
f 73/73/73 72/72/72 74/74/74
f 76/76/76 75/75/75 77/77/77
f 79/79/79 78/78/78 80/80/80
f 82/82/82 81/81/81 83/83/83
f 85/85/85 84/84/84 86/86/86
f 88/88/88 87/87/87 89/89/89
f 91/91/91 90/90/90 92/92/92
f 91/91/91 93/93/93 90/90/90
f 94/94/94 93/93/93 91/91/91
f 93/93/93 95/95/95 90/90/90
f 96/96/96 95/95/95 93/93/93
f 98/98/98 97/97/97 99/99/99
f 98/98/98 99/99/99 100/100/100
f 102/102/102 101/101/101 103/103/103
f 104/104/104 101/101/101 102/102/102
f 104/104/104 105/105/105 101/101/101
f 106/106/106 105/105/105 104/104/104
f 104/104/104 102/102/102 107/107/107
f 107/107/107 106/106/106 104/104/104
f 108/108/108 106/106/106 107/107/107
f 109/109/109 108/108/108 107/107/107
f 110/110/110 108/108/108 109/109/109
f 110/110/110 109/109/109 111/111/111
f 112/112/112 111/111/111 113/113/113
f 114/114/114 113/113/113 115/115/115
f 114/114/114 115/115/115 116/116/116
f 116/116/116 117/117/117 114/114/114
f 117/117/117 116/116/116 118/118/118
f 120/120/120 119/119/119 121/121/121
f 121/121/121 119/119/119 122/122/122
f 124/124/124 123/123/123 125/125/125
f 125/125/125 123/123/123 126/126/126
f 128/128/128 127/127/127 129/129/129
f 129/129/129 127/127/127 130/130/130
f 132/132/132 131/131/131 133/133/133
f 133/133/133 131/131/131 134/134/134
f 136/136/136 135/135/135 137/137/137
f 137/137/137 135/135/135 138/138/138
f 140/140/140 139/139/139 141/141/141
f 141/141/141 139/139/139 142/142/142
f 144/144/144 143/143/143 145/145/145
f 145/145/145 143/143/143 146/146/146
f 148/148/148 147/147/147 149/149/149
f 149/149/149 147/147/147 150/150/150
f 152/152/152 151/151/151 153/153/153
f 153/153/153 151/151/151 154/154/154
f 156/156/156 155/155/155 157/157/157
f 157/157/157 155/155/155 158/158/158
f 160/160/160 159/159/159 161/161/161
f 161/161/161 159/159/159 162/162/162
f 164/164/164 163/163/163 165/165/165
f 165/165/165 163/163/163 166/166/166
f 168/168/168 167/167/167 169/169/169
f 169/169/169 167/167/167 170/170/170
f 170/170/170 171/171/171 172/172/172
f 173/173/173 172/172/172 171/171/171
f 174/174/174 172/172/172 173/173/173
f 175/175/175 172/172/172 174/174/174
