mtllib ./beam-wood_17.mtl
g beam-wood
v -0.0999999 1.430511E-06 0.0999999
v -0.0999999 1.430511E-06 -0.0999999
v -0.0999999 2.999998 -0.0999999
v -0.0999999 2.999998 0.0999999
v -0.0999999 1.430511E-06 -0.0999999
v 0.0999999 1.430511E-06 -0.0999999
v 0.0999999 2.999998 -0.0999999
v -0.0999999 2.999998 -0.0999999
v 0.0999999 1.430511E-06 -0.0999999
v 0.0999999 1.430511E-06 0.0999999
v 0.0999999 2.999998 0.0999999
v 0.0999999 2.999998 -0.0999999
v 0.0999999 1.430511E-06 0.0999999
v -0.0999999 1.430511E-06 0.0999999
v -0.0999999 2.999998 0.0999999
v 0.0999999 2.999998 0.0999999
v -0.0999999 1.430511E-06 -0.0999999
v -0.0999999 1.430511E-06 0.0999999
v 0.0999999 1.430511E-06 0.0999999
v 0.0999999 1.430511E-06 -0.0999999
v 0.0999999 2.999998 -0.0999999
v 0.0999999 2.999998 0.0999999
v -0.0999999 2.999998 0.0999999
v -0.0999999 2.999998 -0.0999999

vn -1 0 0
vn -1 0 0
vn -1 0 0
vn -1 0 0
vn 0 0 -1
vn 0 0 -1
vn 0 0 -1
vn 0 0 -1
vn 1 0 0
vn 1 0 0
vn 1 0 0
vn 1 0 0
vn 0 0 1
vn 0 0 1
vn 0 0 1
vn 0 0 1
vn 0 -1 0
vn 0 -1 0
vn 0 -1 0
vn 0 -1 0
vn 0 1 0
vn 0 1 0
vn 0 1 0
vn 0 1 0

vt 0.5277494 0.7655811
vt 0.5220283 0.7655811
vt 0.5220283 0.851397
vt 0.5277494 0.851397
vt 0.5449125 0.7655811
vt 0.5391915 0.7655811
vt 0.5391915 0.851397
vt 0.5449125 0.851397
vt 0.5391915 0.7655811
vt 0.5334704 0.7655811
vt 0.5334704 0.851397
vt 0.5391915 0.851397
vt 0.5334704 0.7655811
vt 0.5277494 0.7655811
vt 0.5277494 0.851397
vt 0.5334704 0.851397
vt 0.5277494 0.75986
vt 0.5277494 0.7655811
vt 0.5334704 0.7655811
vt 0.5334704 0.75986
vt 0.5334704 0.8571181
vt 0.5334704 0.851397
vt 0.5277494 0.851397
vt 0.5277494 0.857118

usemtl LOW-POLY-COLORS
usemap LOW-POLY-COLORS
f 2/2/2 1/1/1 3/3/3
f 3/3/3 1/1/1 4/4/4
f 6/6/6 5/5/5 7/7/7
f 7/7/7 5/5/5 8/8/8
f 10/10/10 9/9/9 11/11/11
f 11/11/11 9/9/9 12/12/12
f 14/14/14 13/13/13 15/15/15
f 15/15/15 13/13/13 16/16/16
f 18/18/18 17/17/17 19/19/19
f 19/19/19 17/17/17 20/20/20
f 22/22/22 21/21/21 23/23/23
f 23/23/23 21/21/21 24/24/24
