mtllib ./door-house-simple_16.mtl
g door-house-simple
v -0.7478905 1.079719 0.06999542
v -0.7095997 1.1 0.06999542
v -0.7345996 1.056699 0.06999542
v -0.7478905 1.120281 0.06999542
v -0.7095997 1.1 0.06999542
v -0.7345996 1.143301 0.06999542
v -0.7713087 1.120281 -0.07000062
v -0.7845996 1.143301 -0.07000062
v -0.8095996 1.1 -0.07000062
v -0.7478905 1.079719 -0.07000062
v -0.7345996 1.056699 -0.07000062
v -0.7095997 1.1 -0.07000062
v 3.039837E-06 2.2 -0.05000605
v -0.8999968 2.2 -0.05000605
v -0.8999968 0.09999995 -0.05000613
v 3.039837E-06 0.09999995 -0.05000613
v 3.039837E-06 2.2 0.04999243
v 3.039837E-06 0.09999995 0.04999235
v -0.8999968 0.09999995 0.04999235
v -0.8999968 2.2 0.04999243
v 3.039837E-06 2.2 -0.05000605
v 3.039837E-06 0.09999995 -0.05000613
v 3.039837E-06 0.09999995 0.04999235
v 3.039837E-06 2.2 0.04999243
v -0.8999968 2.2 -0.05000605
v 3.039837E-06 2.2 -0.05000605
v 3.039837E-06 2.2 0.04999243
v -0.8999968 2.2 0.04999243
v 3.039837E-06 0.09999995 -0.05000613
v -0.8999968 0.09999995 -0.05000613
v -0.8999968 0.09999995 0.04999235
v 3.039837E-06 0.09999995 0.04999235
v -0.7713087 1.120281 0.06999542
v -0.7600908 1.120281 0.1099954
v -0.7600908 1.079719 0.1099954
v -0.7713087 1.079719 0.06999542
v -0.7298795 1.151477 0.04999542
v -0.7345996 1.143301 0.06999542
v -0.7845996 1.143301 0.06999542
v -0.7893198 1.151477 0.04999542
v -0.7893198 1.048523 0.04999542
v -0.7845996 1.056699 0.06999542
v -0.7345996 1.056699 0.06999542
v -0.7298795 1.048523 0.04999542
v -0.7893198 1.151477 0.04999542
v -0.7845996 1.143301 0.06999542
v -0.8095996 1.1 0.06999542
v -0.8190399 1.1 0.04999542
v -0.7001594 1.1 0.04999542
v -0.7095997 1.1 0.06999542
v -0.7345996 1.143301 0.06999542
v -0.7298795 1.151477 0.04999542
v -0.7298795 1.048523 0.04999542
v -0.7345996 1.056699 0.06999542
v -0.7095997 1.1 0.06999542
v -0.7001594 1.1 0.04999542
v -0.8190399 1.1 0.04999542
v -0.8095996 1.1 0.06999542
v -0.7845996 1.056699 0.06999542
v -0.7893198 1.048523 0.04999542
v -0.7713087 1.120281 0.06999542
v -0.7845996 1.143301 0.06999542
v -0.7345996 1.143301 0.06999542
v -0.7478905 1.120281 0.06999542
v -0.7713087 1.120281 0.06999542
v -0.8095996 1.1 0.06999542
v -0.7845996 1.143301 0.06999542
v -0.7713087 1.079719 0.06999542
v -0.7845996 1.056699 0.06999542
v -0.7478905 1.079719 0.06999542
v -0.7345996 1.056699 0.06999542
v -0.7845996 1.056699 0.06999542
v -0.7713087 1.079719 0.06999542
v -0.7421713 1.120281 0.08999557
v -0.7421713 1.079719 0.08999557
v -0.7600908 1.079719 0.1099954
v -0.7600908 1.120281 0.1099954
v -0.7478905 1.120281 0.06999542
v -0.7421713 1.120281 0.08999557
v -0.7600908 1.120281 0.1099954
v -0.7713087 1.120281 0.06999542
v -0.7478905 1.079719 0.06999542
v -0.7421713 1.079719 0.08999557
v -0.7421713 1.120281 0.08999557
v -0.7478905 1.120281 0.06999542
v -0.7713087 1.079719 0.06999542
v -0.7600908 1.079719 0.1099954
v -0.7421713 1.079719 0.08999557
v -0.7478905 1.079719 0.06999542
v -0.7600908 1.120281 0.1099954
v -0.6046358 1.120281 0.1099954
v -0.6046358 1.079719 0.1099954
v -0.7600908 1.079719 0.1099954
v -0.6046358 1.120281 0.1099954
v -0.5913088 1.120281 0.08999877
v -0.5913088 1.079719 0.08999877
v -0.6046358 1.079719 0.1099954
v -0.7421713 1.079719 0.08999557
v -0.5913088 1.079719 0.08999877
v -0.5913088 1.120281 0.08999877
v -0.7421713 1.120281 0.08999557
v -0.7600908 1.120281 0.1099954
v -0.7421713 1.120281 0.08999557
v -0.5913088 1.120281 0.08999877
v -0.6046358 1.120281 0.1099954
v -0.7421713 1.079719 0.08999557
v -0.7600908 1.079719 0.1099954
v -0.6046358 1.079719 0.1099954
v -0.5913088 1.079719 0.08999877
v -0.8999968 0.09999995 -0.05000613
v -0.8999968 2.2 -0.05000605
v -0.8999968 2.2 0.04999243
v -0.8999968 0.09999995 0.04999235
v -0.7713087 1.120281 -0.07000062
v -0.7713087 1.079719 -0.07000062
v -0.7600908 1.079719 -0.1100006
v -0.7600908 1.120281 -0.1100006
v -0.7298795 1.151477 -0.05000062
v -0.7893198 1.151477 -0.05000062
v -0.7845996 1.143301 -0.07000062
v -0.7345996 1.143301 -0.07000062
v -0.7893198 1.048523 -0.05000062
v -0.7298795 1.048523 -0.05000062
v -0.7345996 1.056699 -0.07000062
v -0.7845996 1.056699 -0.07000062
v -0.7893198 1.151477 -0.05000062
v -0.8190399 1.1 -0.05000062
v -0.8095996 1.1 -0.07000062
v -0.7845996 1.143301 -0.07000062
v -0.7001594 1.1 -0.05000062
v -0.7298795 1.151477 -0.05000062
v -0.7345996 1.143301 -0.07000062
v -0.7095997 1.1 -0.07000062
v -0.7298795 1.048523 -0.05000062
v -0.7001594 1.1 -0.05000062
v -0.7095997 1.1 -0.07000062
v -0.7345996 1.056699 -0.07000062
v -0.8190399 1.1 -0.05000062
v -0.7893198 1.048523 -0.05000062
v -0.7845996 1.056699 -0.07000062
v -0.8095996 1.1 -0.07000062
v -0.7478905 1.120281 -0.07000062
v -0.7478905 1.079719 -0.07000062
v -0.7095997 1.1 -0.07000062
v -0.7345996 1.143301 -0.07000062
v -0.7713087 1.120281 -0.07000062
v -0.7345996 1.143301 -0.07000062
v -0.7845996 1.143301 -0.07000062
v -0.7713087 1.079719 -0.07000062
v -0.8095996 1.1 -0.07000062
v -0.7845996 1.056699 -0.07000062
v -0.7478905 1.079719 -0.07000062
v -0.7713087 1.079719 -0.07000062
v -0.7845996 1.056699 -0.07000062
v -0.7345996 1.056699 -0.07000062
v -0.7421713 1.120281 -0.09000078
v -0.7421713 1.079719 -0.09000078
v -0.7600908 1.079719 -0.1100006
v -0.7600908 1.120281 -0.1100006
v -0.7478905 1.120281 -0.07000062
v -0.7713087 1.120281 -0.07000062
v -0.7600908 1.120281 -0.1100006
v -0.7421713 1.120281 -0.09000078
v -0.7478905 1.079719 -0.07000062
v -0.7478905 1.120281 -0.07000062
v -0.7421713 1.120281 -0.09000078
v -0.7421713 1.079719 -0.09000078
v -0.7713087 1.079719 -0.07000062
v -0.7478905 1.079719 -0.07000062
v -0.7421713 1.079719 -0.09000078
v -0.7600908 1.079719 -0.1100006
v -0.7600908 1.120281 -0.1100006
v -0.7600908 1.079719 -0.1100006
v -0.6046358 1.079719 -0.1100006
v -0.6046358 1.120281 -0.1100006
v -0.6046358 1.120281 -0.1100006
v -0.6046358 1.079719 -0.1100006
v -0.5913088 1.079719 -0.09000397
v -0.5913088 1.120281 -0.09000397
v -0.7421713 1.079719 -0.09000078
v -0.7421713 1.120281 -0.09000078
v -0.5913088 1.120281 -0.09000397
v -0.5913088 1.079719 -0.09000397
v -0.7600908 1.120281 -0.1100006
v -0.6046358 1.120281 -0.1100006
v -0.5913088 1.120281 -0.09000397
v -0.7421713 1.120281 -0.09000078
v -0.7421713 1.079719 -0.09000078
v -0.5913088 1.079719 -0.09000397
v -0.6046358 1.079719 -0.1100006
v -0.7600908 1.079719 -0.1100006

vn 0 0 1
vn 0 2.022811E-07 1
vn 0 2.022811E-07 1
vn 0 0 1
vn 0 0 1
vn 0 0 1
vn 0 2.022811E-07 -1
vn 0 2.022811E-07 -1
vn 0 2.022811E-07 -1
vn 0 -2.022811E-07 -1
vn 0 -2.022811E-07 -1
vn 0 -2.022811E-07 -1
vn 0 0 -1
vn 0 0 -1
vn 0 0 -1
vn 0 0 -1
vn 0 0 1
vn 0 0 1
vn 0 0 1
vn 0 0 1
vn 1 0 0
vn 1 0 0
vn 1 0 0
vn 1 0 0
vn 0 1 0
vn 0 1 0
vn 0 1 0
vn 0 1 0
vn 0 -1 0
vn 0 -1 0
vn 0 -1 0
vn 0 -1 0
vn -0.9628518 0 0.2700306
vn -0.9628518 0 0.2700306
vn -0.9628518 0 0.2700306
vn -0.9628518 0 0.2700306
vn 0 0.9256478 0.3783863
vn 0 0.9256478 0.3783863
vn 0 0.9256478 0.3783863
vn 0 0.9256478 0.3783863
vn 0 -0.9256478 0.3783863
vn 0 -0.9256478 0.3783863
vn 0 -0.9256478 0.3783863
vn 0 -0.9256478 0.3783863
vn -0.8016372 0.4628239 0.3783805
vn -0.8016372 0.4628239 0.3783805
vn -0.8016372 0.4628239 0.3783805
vn -0.8016372 0.4628239 0.3783805
vn 0.8016367 0.4628237 0.3783819
vn 0.8016367 0.4628237 0.3783819
vn 0.8016367 0.4628237 0.3783819
vn 0.8016367 0.4628237 0.3783819
vn 0.8016367 -0.4628236 0.3783819
vn 0.8016367 -0.4628236 0.3783819
vn 0.8016367 -0.4628236 0.3783819
vn 0.8016367 -0.4628236 0.3783819
vn -0.8016372 -0.462824 0.3783805
vn -0.8016372 -0.462824 0.3783805
vn -0.8016372 -0.462824 0.3783805
vn -0.8016372 -0.462824 0.3783805
vn 0 2.755191E-07 1
vn 0 2.755191E-07 1
vn 0 2.755191E-07 1
vn 0 2.755191E-07 1
vn 0 -2.022811E-07 1
vn 0 -2.022811E-07 1
vn 0 -2.022811E-07 1
vn 0 0 1
vn 0 0 1
vn 0 -2.755191E-07 1
vn 0 -2.755191E-07 1
vn 0 -2.755191E-07 1
vn 0 -2.755191E-07 1
vn 0.7447808 0 0.6673092
vn 0.7447808 0 0.6673092
vn 0.7447808 0 0.6673092
vn 0.7447808 0 0.6673092
vn -2.64298E-06 1 1.03185E-06
vn -2.64298E-06 1 1.03185E-06
vn -2.64298E-06 1 1.03185E-06
vn -2.64298E-06 1 1.03185E-06
vn 0.9614618 0 -0.2749386
vn 0.9614618 0 -0.2749386
vn 0.9614618 0 -0.2749386
vn 0.9614618 0 -0.2749386
vn 0 -1 -1.03185E-06
vn 0 -1 -1.03185E-06
vn 0 -1 -1.03185E-06
vn 0 -1 -1.03185E-06
vn 0 0 1
vn 0 0 1
vn 0 0 1
vn 0 0 1
vn 0.8321282 0 0.5545834
vn 0.8321282 0 0.5545834
vn 0.8321282 0 0.5545834
vn 0.8321282 0 0.5545834
vn 2.113747E-05 0 -1
vn 2.113747E-05 0 -1
vn 2.113747E-05 0 -1
vn 2.113747E-05 0 -1
vn 0 1 -3.2845E-06
vn 0 1 -3.2845E-06
vn 0 1 -3.2845E-06
vn 0 1 -3.2845E-06
vn -6.081255E-07 -1 3.2845E-06
vn -6.081255E-07 -1 3.2845E-06
vn -6.081255E-07 -1 3.2845E-06
vn -6.081255E-07 -1 3.2845E-06
vn -1 0 0
vn -1 0 0
vn -1 0 0
vn -1 0 0
vn -0.9628518 0 -0.2700306
vn -0.9628518 0 -0.2700306
vn -0.9628518 0 -0.2700306
vn -0.9628518 0 -0.2700306
vn 0 0.9256478 -0.3783864
vn 0 0.9256478 -0.3783864
vn 0 0.9256478 -0.3783864
vn 0 0.9256478 -0.3783864
vn 0 -0.9256478 -0.3783864
vn 0 -0.9256478 -0.3783864
vn 0 -0.9256478 -0.3783864
vn 0 -0.9256478 -0.3783864
vn -0.8016372 0.462824 -0.3783805
vn -0.8016372 0.462824 -0.3783805
vn -0.8016372 0.462824 -0.3783805
vn -0.8016372 0.462824 -0.3783805
vn 0.8016366 0.4628237 -0.3783822
vn 0.8016366 0.4628237 -0.3783822
vn 0.8016366 0.4628237 -0.3783822
vn 0.8016366 0.4628237 -0.3783822
vn 0.8016367 -0.4628237 -0.3783819
vn 0.8016367 -0.4628237 -0.3783819
vn 0.8016367 -0.4628237 -0.3783819
vn 0.8016367 -0.4628237 -0.3783819
vn -0.8016367 -0.4628237 -0.3783819
vn -0.8016367 -0.4628237 -0.3783819
vn -0.8016367 -0.4628237 -0.3783819
vn -0.8016367 -0.4628237 -0.3783819
vn 0 1.722016E-07 -1
vn 0 1.722016E-07 -1
vn 0 1.722016E-07 -1
vn 0 1.722016E-07 -1
vn 0 1.377596E-07 -1
vn 0 1.377596E-07 -1
vn 0 1.377596E-07 -1
vn 0 -1.722007E-07 -1
vn 0 -1.722007E-07 -1
vn 0 -1.722007E-07 -1
vn 0 -1.377596E-07 -1
vn 0 -1.377596E-07 -1
vn 0 -1.377596E-07 -1
vn 0 -1.377596E-07 -1
vn -0.7447808 0 0.6673092
vn -0.7447808 0 0.6673092
vn -0.7447808 0 0.6673092
vn -0.7447808 0 0.6673092
vn 0 1 -1.03185E-06
vn 0 1 -1.03185E-06
vn 0 1 -1.03185E-06
vn 0 1 -1.03185E-06
vn 0.9614615 0 0.2749393
vn 0.9614615 0 0.2749393
vn 0.9614615 0 0.2749393
vn 0.9614615 0 0.2749393
vn 0 -1 1.031849E-06
vn 0 -1 1.031849E-06
vn 0 -1 1.031849E-06
vn 0 -1 1.031849E-06
vn 0 0 -1
vn 0 0 -1
vn 0 0 -1
vn 0 0 -1
vn 0.8321282 0 -0.5545834
vn 0.8321282 0 -0.5545834
vn 0.8321282 0 -0.5545834
vn 0.8321282 0 -0.5545834
vn 2.113747E-05 0 1
vn 2.113747E-05 0 1
vn 2.113747E-05 0 1
vn 2.113747E-05 0 1
vn 0 1 3.284501E-06
vn 0 1 3.284501E-06
vn 0 1 3.284501E-06
vn 0 1 3.284501E-06
vn -6.081257E-07 -1 -3.284501E-06
vn -6.081257E-07 -1 -3.284501E-06
vn -6.081257E-07 -1 -3.284501E-06
vn -6.081257E-07 -1 -3.284501E-06

vt 0.5496644 0.7986702
vt 0.551348 0.7985486
vt 0.5498365 0.7974706
vt 0.5503914 0.7997956
vt 0.551348 0.7985486
vt 0.5514216 0.8004674
vt 0.5496399 0.7921947
vt 0.5490618 0.7909896
vt 0.5475875 0.7929463
vt 0.5506883 0.7937482
vt 0.5510601 0.7948774
vt 0.5526184 0.793126
vt 0.02169182 0.8545564
vt 0.06001516 0.8545564
vt 0.06001528 0.7651353
vt 0.02169194 0.7651353
vt 0.1029129 0.8588146
vt 0.1029129 0.7693934
vt 0.06458949 0.7693934
vt 0.06458952 0.8588146
vt 0.02169182 0.8545564
vt 0.02169194 0.7651353
vt 0.01743372 0.7651353
vt 0.01743372 0.8545564
vt 0.06001516 0.8545564
vt 0.02169182 0.8545564
vt 0.02169182 0.8588145
vt 0.06001516 0.8588146
vt 0.1029129 0.7651353
vt 0.06458952 0.7651353
vt 0.06458949 0.7693934
vt 0.1029129 0.7693934
vt 0.5495038 0.8006425
vt 0.5496448 0.7994552
vt 0.5495997 0.7993642
vt 0.5484831 0.7989271
vt 0.5524064 0.8009877
vt 0.5514216 0.8004674
vt 0.5495746 0.8017423
vt 0.5497614 0.8030825
vt 0.5463689 0.7974287
vt 0.5474684 0.7982102
vt 0.5498365 0.7974706
vt 0.5498665 0.7962341
vt 0.5497614 0.8030825
vt 0.5495746 0.8017423
vt 0.5475273 0.8006272
vt 0.5461699 0.8014404
vt 0.5524064 0.7979916
vt 0.551348 0.7985486
vt 0.5514216 0.8004674
vt 0.5524064 0.8009877
vt 0.5498665 0.7962341
vt 0.5498365 0.7974706
vt 0.551348 0.7985486
vt 0.5524064 0.7979916
vt 0.5461699 0.8014404
vt 0.5475273 0.8006272
vt 0.5474684 0.7982102
vt 0.5463689 0.7974287
vt 0.5495038 0.8006425
vt 0.5495746 0.8017423
vt 0.5514216 0.8004674
vt 0.5503914 0.7997956
vt 0.5495038 0.8006425
vt 0.5475273 0.8006272
vt 0.5495746 0.8017423
vt 0.5484831 0.7989271
vt 0.5474684 0.7982102
vt 0.5496644 0.7986702
vt 0.5498365 0.7974706
vt 0.5474684 0.7982102
vt 0.5484831 0.7989271
vt 0.5473134 0.8051259
vt 0.5473134 0.8033987
vt 0.5461699 0.8033987
vt 0.5461699 0.8051259
vt 0.55037 0.7997925
vt 0.5497971 0.7994533
vt 0.5496448 0.7994552
vt 0.5495038 0.8006425
vt 0.5496643 0.7986708
vt 0.5496703 0.7992691
vt 0.5497971 0.7994533
vt 0.55037 0.7997925
vt 0.5484831 0.7989271
vt 0.5495997 0.7993642
vt 0.5496649 0.799269
vt 0.5496522 0.7986818
vt 0.5461699 0.7862532
vt 0.5498783 0.785885
vt 0.5506251 0.7852675
vt 0.5461699 0.7843835
vt 0.5498783 0.785885
vt 0.5501326 0.786204
vt 0.5565838 0.7863769
vt 0.5506251 0.7852675
vt 0.5479558 0.7896168
vt 0.5565838 0.7863769
vt 0.5501326 0.786204
vt 0.5469516 0.7869424
vt 0.5461699 0.7862532
vt 0.5469516 0.7869424
vt 0.5501326 0.786204
vt 0.5498783 0.785885
vt 0.547111 0.7836857
vt 0.5461699 0.7843835
vt 0.5506251 0.7852675
vt 0.5565838 0.7863769
vt 0.06001528 0.7651353
vt 0.06001516 0.8545564
vt 0.06427338 0.8545564
vt 0.06427338 0.7651354
vt 0.549768 0.7923799
vt 0.5497586 0.793622
vt 0.5502608 0.7932419
vt 0.5502745 0.7927639
vt 0.5520327 0.7901525
vt 0.5485336 0.7899329
vt 0.5490618 0.7909896
vt 0.5514337 0.7911403
vt 0.5483241 0.7959179
vt 0.551585 0.7959179
vt 0.5510601 0.7948774
vt 0.5488861 0.7949459
vt 0.5485336 0.7899329
vt 0.5461699 0.7928917
vt 0.5475875 0.7929463
vt 0.5490618 0.7909896
vt 0.5539985 0.793216
vt 0.5520327 0.7901525
vt 0.5514337 0.7911403
vt 0.5526184 0.793126
vt 0.551585 0.7959179
vt 0.5539985 0.793216
vt 0.5526184 0.793126
vt 0.5510601 0.7948774
vt 0.5461699 0.7928917
vt 0.5483241 0.7959179
vt 0.5488861 0.7949459
vt 0.5475875 0.7929463
vt 0.5507672 0.7922574
vt 0.5506883 0.7937482
vt 0.5526184 0.793126
vt 0.5514337 0.7911403
vt 0.5496399 0.7921947
vt 0.5514337 0.7911403
vt 0.5490618 0.7909896
vt 0.5495451 0.7938928
vt 0.5475875 0.7929463
vt 0.5488861 0.7949459
vt 0.5502577 0.7942396
vt 0.5495451 0.7938928
vt 0.5488861 0.7949459
vt 0.5510601 0.7948774
vt 0.5478972 0.805442
vt 0.5461699 0.805442
vt 0.5461699 0.8065855
vt 0.5478972 0.8065855
vt 0.5507672 0.7922574
vt 0.549768 0.7923799
vt 0.5502745 0.7927639
vt 0.5504815 0.792603
vt 0.5506883 0.7937482
vt 0.5507672 0.7922574
vt 0.5504815 0.792603
vt 0.5504494 0.7934023
vt 0.5497586 0.793622
vt 0.5506883 0.7937482
vt 0.5504494 0.7934023
vt 0.5502608 0.7932419
vt 0.5461699 0.7808031
vt 0.5461699 0.7826718
vt 0.550624 0.7817885
vt 0.5498766 0.7811702
vt 0.5498766 0.7811702
vt 0.550624 0.7817885
vt 0.5565851 0.7806795
vt 0.5501311 0.7808509
vt 0.5479555 0.7774392
vt 0.5469511 0.780114
vt 0.5501311 0.7808509
vt 0.5565851 0.7806795
vt 0.5461699 0.7808031
vt 0.5498766 0.7811702
vt 0.5501311 0.7808509
vt 0.5469511 0.780114
vt 0.5471106 0.7833696
vt 0.5565851 0.7806795
vt 0.550624 0.7817885
vt 0.5461699 0.7826718

usemtl LOW-POLY-COLORS
usemap LOW-POLY-COLORS
f 2/2/2 1/1/1 3/3/3
f 5/5/5 4/4/4 1/1/1
f 6/6/6 4/4/4 5/5/5
f 8/8/8 7/7/7 9/9/9
f 11/11/11 10/10/10 12/12/12
f 14/14/14 13/13/13 15/15/15
f 15/15/15 13/13/13 16/16/16
f 18/18/18 17/17/17 19/19/19
f 19/19/19 17/17/17 20/20/20
f 22/22/22 21/21/21 23/23/23
f 23/23/23 21/21/21 24/24/24
f 26/26/26 25/25/25 27/27/27
f 27/27/27 25/25/25 28/28/28
f 30/30/30 29/29/29 31/31/31
f 31/31/31 29/29/29 32/32/32
f 34/34/34 33/33/33 35/35/35
f 35/35/35 33/33/33 36/36/36
f 38/38/38 37/37/37 39/39/39
f 39/39/39 37/37/37 40/40/40
f 42/42/42 41/41/41 43/43/43
f 43/43/43 41/41/41 44/44/44
f 46/46/46 45/45/45 47/47/47
f 47/47/47 45/45/45 48/48/48
f 50/50/50 49/49/49 51/51/51
f 51/51/51 49/49/49 52/52/52
f 54/54/54 53/53/53 55/55/55
f 55/55/55 53/53/53 56/56/56
f 58/58/58 57/57/57 59/59/59
f 59/59/59 57/57/57 60/60/60
f 62/62/62 61/61/61 63/63/63
f 63/63/63 61/61/61 64/64/64
f 66/66/66 65/65/65 67/67/67
f 66/66/66 68/68/68 65/65/65
f 69/69/69 68/68/68 66/66/66
f 71/71/71 70/70/70 72/72/72
f 72/72/72 70/70/70 73/73/73
f 75/75/75 74/74/74 76/76/76
f 76/76/76 74/74/74 77/77/77
f 79/79/79 78/78/78 80/80/80
f 80/80/80 78/78/78 81/81/81
f 83/83/83 82/82/82 84/84/84
f 84/84/84 82/82/82 85/85/85
f 87/87/87 86/86/86 88/88/88
f 88/88/88 86/86/86 89/89/89
f 91/91/91 90/90/90 92/92/92
f 92/92/92 90/90/90 93/93/93
f 95/95/95 94/94/94 96/96/96
f 96/96/96 94/94/94 97/97/97
f 99/99/99 98/98/98 100/100/100
f 100/100/100 98/98/98 101/101/101
f 103/103/103 102/102/102 104/104/104
f 104/104/104 102/102/102 105/105/105
f 107/107/107 106/106/106 108/108/108
f 108/108/108 106/106/106 109/109/109
f 111/111/111 110/110/110 112/112/112
f 112/112/112 110/110/110 113/113/113
f 115/115/115 114/114/114 116/116/116
f 116/116/116 114/114/114 117/117/117
f 119/119/119 118/118/118 120/120/120
f 120/120/120 118/118/118 121/121/121
f 123/123/123 122/122/122 124/124/124
f 124/124/124 122/122/122 125/125/125
f 127/127/127 126/126/126 128/128/128
f 128/128/128 126/126/126 129/129/129
f 131/131/131 130/130/130 132/132/132
f 132/132/132 130/130/130 133/133/133
f 135/135/135 134/134/134 136/136/136
f 136/136/136 134/134/134 137/137/137
f 139/139/139 138/138/138 140/140/140
f 140/140/140 138/138/138 141/141/141
f 143/143/143 142/142/142 144/144/144
f 144/144/144 142/142/142 145/145/145
f 142/142/142 146/146/146 147/147/147
f 147/147/147 146/146/146 148/148/148
f 146/146/146 149/149/149 150/150/150
f 150/150/150 149/149/149 151/151/151
f 153/153/153 152/152/152 154/154/154
f 154/154/154 152/152/152 155/155/155
f 157/157/157 156/156/156 158/158/158
f 158/158/158 156/156/156 159/159/159
f 161/161/161 160/160/160 162/162/162
f 162/162/162 160/160/160 163/163/163
f 165/165/165 164/164/164 166/166/166
f 166/166/166 164/164/164 167/167/167
f 169/169/169 168/168/168 170/170/170
f 170/170/170 168/168/168 171/171/171
f 173/173/173 172/172/172 174/174/174
f 174/174/174 172/172/172 175/175/175
f 177/177/177 176/176/176 178/178/178
f 178/178/178 176/176/176 179/179/179
f 181/181/181 180/180/180 182/182/182
f 182/182/182 180/180/180 183/183/183
f 185/185/185 184/184/184 186/186/186
f 186/186/186 184/184/184 187/187/187
f 189/189/189 188/188/188 190/190/190
f 190/190/190 188/188/188 191/191/191
