mtllib ./door-garage_15.mtl
g door-garage
v -1.5 0.667628 -0.05000304
v -1.5 0.1000001 -0.05000304
v 1.5 0.1000001 -0.05000304
v 1.5 0.667628 -0.05000304
v -1.5 0.667628 0.04999696
v 1.5 0.667628 0.04999696
v 1.5 0.1000001 0.04999696
v -1.5 0.1000001 0.04999696
v 1.5 1.828092 -0.05000304
v 1.5 1.828092 0.04999696
v 1.5 2.4 0.04999696
v 1.5 2.4 -0.05000304
v 1.5 2.4 -0.05000304
v 1.5 2.4 0.04999696
v -1.5 2.4 0.04999696
v -1.5 2.4 -0.05000304
v -1.5 0.667628 -0.05000304
v -1.5 0.667628 0.04999696
v -1.5 0.1000001 0.04999696
v -1.5 0.1000001 -0.05000304
v -1.5 0.1000001 -0.05000304
v -1.5 0.1000001 0.04999696
v 1.5 0.1000001 0.04999696
v 1.5 0.1000001 -0.05000304
v -1.5 2.4 -0.05000304
v -1.5 2.4 0.04999696
v -1.5 1.828092 0.04999696
v -1.5 1.828092 -0.05000304
v -1.5 1.81151 -0.05000304
v -1.5 1.81151 0.04999696
v -1.5 1.256745 0.04999696
v -1.5 1.256745 -0.05000304
v -1.5 1.236511 -0.05000304
v -1.5 1.236511 0.04999696
v -1.5 0.6815056 0.04999696
v -1.5 0.6815056 -0.05000304
v 1.5 0.1000001 -0.05000304
v 1.5 0.1000001 0.04999696
v 1.5 0.667628 0.04999696
v 1.5 0.667628 -0.05000304
v 1.5 0.6815056 -0.05000304
v 1.5 0.6815056 0.04999696
v 1.5 1.236511 0.04999696
v 1.5 1.236511 -0.05000304
v 1.5 1.256745 -0.05000304
v 1.5 1.256745 0.04999696
v 1.5 1.81151 0.04999696
v 1.5 1.81151 -0.05000304
v -1.5 2.4 0.04999696
v 1.5 2.4 0.04999696
v 1.5 1.828092 0.04999696
v -1.5 1.828092 0.04999696
v -1.5 1.81151 0.04999696
v 1.5 1.81151 0.04999696
v 1.5 1.256745 0.04999696
v -1.5 1.256745 0.04999696
v -1.5 1.236511 0.04999696
v 1.5 1.236511 0.04999696
v 1.5 0.6815056 0.04999696
v -1.5 0.6815056 0.04999696
v -1.5 2.4 -0.05000304
v -1.5 1.828092 -0.05000304
v 1.5 1.828092 -0.05000304
v 1.5 2.4 -0.05000304
v -1.5 1.81151 -0.05000304
v -1.5 1.256745 -0.05000304
v 1.5 1.256745 -0.05000304
v 1.5 1.81151 -0.05000304
v -1.5 1.236511 -0.05000304
v -1.5 0.6815056 -0.05000304
v 1.5 0.6815056 -0.05000304
v 1.5 1.236511 -0.05000304
v -1.5 0.667628 0.04999696
v -1.5 0.667628 -0.05000304
v 1.5 0.667628 -0.05000304
v 1.5 0.667628 0.04999696
v 1.5 0.6815056 0.04999696
v 1.5 0.6815056 -0.05000304
v -1.5 0.6815056 -0.05000304
v -1.5 0.6815056 0.04999696
v 1.5 1.256745 0.04999696
v 1.5 1.256745 -0.05000304
v -1.5 1.256745 -0.05000304
v -1.5 1.256745 0.04999696
v -1.5 1.236511 0.04999696
v -1.5 1.236511 -0.05000304
v 1.5 1.236511 -0.05000304
v 1.5 1.236511 0.04999696
v -1.5 1.81151 0.04999696
v -1.5 1.81151 -0.05000304
v 1.5 1.81151 -0.05000304
v 1.5 1.81151 0.04999696
v 1.5 1.828092 0.04999696
v 1.5 1.828092 -0.05000304
v -1.5 1.828092 -0.05000304
v -1.5 1.828092 0.04999696

vn 0 0 -1
vn 0 0 -1
vn 0 0 -1
vn 0 0 -1
vn 0 0 1
vn 0 0 1
vn 0 0 1
vn 0 0 1
vn 1 0 0
vn 1 0 0
vn 1 0 0
vn 1 0 0
vn 0 1 0
vn 0 1 0
vn 0 1 0
vn 0 1 0
vn -1 0 0
vn -1 0 0
vn -1 0 0
vn -1 0 0
vn 0 -1 0
vn 0 -1 0
vn 0 -1 0
vn 0 -1 0
vn -1 0 0
vn -1 0 0
vn -1 0 0
vn -1 0 0
vn -1 0 0
vn -1 0 0
vn -1 0 0
vn -1 0 0
vn -1 0 0
vn -1 0 0
vn -1 0 0
vn -1 0 0
vn 1 0 0
vn 1 0 0
vn 1 0 0
vn 1 0 0
vn 1 0 0
vn 1 0 0
vn 1 0 0
vn 1 0 0
vn 1 0 0
vn 1 0 0
vn 1 0 0
vn 1 0 0
vn 0 0 1
vn 0 0 1
vn 0 0 1
vn 0 0 1
vn 0 0 1
vn 0 0 1
vn 0 0 1
vn 0 0 1
vn 0 0 1
vn 0 0 1
vn 0 0 1
vn 0 0 1
vn 0 0 -1
vn 0 0 -1
vn 0 0 -1
vn 0 0 -1
vn 0 0 -1
vn 0 0 -1
vn 0 0 -1
vn 0 0 -1
vn 0 0 -1
vn 0 0 -1
vn 0 0 -1
vn 0 0 -1
vn 0 1 0
vn 0 1 0
vn 0 1 0
vn 0 1 0
vn 0 -1 0
vn 0 -1 0
vn 0 -1 0
vn 0 -1 0
vn 0 -1 0
vn 0 -1 0
vn 0 -1 0
vn 0 -1 0
vn 0 1 0
vn 0 1 0
vn 0 1 0
vn 0 1 0
vn 0 1 0
vn 0 1 0
vn 0 1 0
vn 0 1 0
vn 0 -1 0
vn 0 -1 0
vn 0 -1 0
vn 0 -1 0

vt 0.7934725 0.6865562
vt 0.7934725 0.6956704
vt 0.8416424 0.6956704
vt 0.8416424 0.6865562
vt 0.7934725 0.6849506
vt 0.8416424 0.6849505
vt 0.8416424 0.6758363
vt 0.7934725 0.6758364
vt 0.8432481 0.6539947
vt 0.8416424 0.6539947
vt 0.8416424 0.6631776
vt 0.8432481 0.6631776
vt 0.8416424 0.6647833
vt 0.8416424 0.6631776
vt 0.7934725 0.6631776
vt 0.7934725 0.6647833
vt 0.7918668 0.6849506
vt 0.7934725 0.6849506
vt 0.7934725 0.6758364
vt 0.7918668 0.6758364
vt 0.7934725 0.6742307
vt 0.7934725 0.6758364
vt 0.8416424 0.6758363
vt 0.8416424 0.6742307
vt 0.7918668 0.6631776
vt 0.7934725 0.6631776
vt 0.7934725 0.6539947
vt 0.7918668 0.6539947
vt 0.7918668 0.7277471
vt 0.7934725 0.7277471
vt 0.7934725 0.7188394
vt 0.7918668 0.7188394
vt 0.7918668 0.7064521
vt 0.7934725 0.7064521
vt 0.7934725 0.6975406
vt 0.7918668 0.6975406
vt 0.8432481 0.6758363
vt 0.8416424 0.6758363
vt 0.8416424 0.6849505
vt 0.8432481 0.6849505
vt 0.8432481 0.6975406
vt 0.8416424 0.6975406
vt 0.8416424 0.7064521
vt 0.8432481 0.7064521
vt 0.8432481 0.7188394
vt 0.8416424 0.7188394
vt 0.8416424 0.7277471
vt 0.8432481 0.7277471
vt 0.7934725 0.6631776
vt 0.8416424 0.6631776
vt 0.8416424 0.6539947
vt 0.7934725 0.6539947
vt 0.7934725 0.7277471
vt 0.8416424 0.7277471
vt 0.8416424 0.7188394
vt 0.7934725 0.7188394
vt 0.7934725 0.7064521
vt 0.8416424 0.7064521
vt 0.8416424 0.6975406
vt 0.7934725 0.6975406
vt 0.7934725 0.6647833
vt 0.7934725 0.6739662
vt 0.8416424 0.6739662
vt 0.8416424 0.6647833
vt 0.7934725 0.7293528
vt 0.7934725 0.7382604
vt 0.8416424 0.7382604
vt 0.8416424 0.7293528
vt 0.7934725 0.7080578
vt 0.7934725 0.7169693
vt 0.8416424 0.7169693
vt 0.8416424 0.7080578
vt 0.7934725 0.6849506
vt 0.7934725 0.6865562
vt 0.8416424 0.6865562
vt 0.8416424 0.6849505
vt 0.8416424 0.6975406
vt 0.8416424 0.695935
vt 0.7934725 0.6959349
vt 0.7934725 0.6975406
vt 0.8416424 0.7188394
vt 0.8416424 0.7172338
vt 0.7934725 0.7172337
vt 0.7934725 0.7188394
vt 0.7934725 0.7064521
vt 0.7934725 0.7080578
vt 0.8416424 0.7080578
vt 0.8416424 0.7064521
vt 0.7934725 0.7277471
vt 0.7934725 0.7293528
vt 0.8416424 0.7293528
vt 0.8416424 0.7277471
vt 0.8416424 0.6539947
vt 0.8416424 0.652389
vt 0.7934725 0.652389
vt 0.7934725 0.6539947

usemtl LOW-POLY-COLORS
usemap LOW-POLY-COLORS
f 2/2/2 1/1/1 3/3/3
f 3/3/3 1/1/1 4/4/4
f 6/6/6 5/5/5 7/7/7
f 7/7/7 5/5/5 8/8/8
f 10/10/10 9/9/9 11/11/11
f 11/11/11 9/9/9 12/12/12
f 14/14/14 13/13/13 15/15/15
f 15/15/15 13/13/13 16/16/16
f 18/18/18 17/17/17 19/19/19
f 19/19/19 17/17/17 20/20/20
f 22/22/22 21/21/21 23/23/23
f 23/23/23 21/21/21 24/24/24
f 26/26/26 25/25/25 27/27/27
f 27/27/27 25/25/25 28/28/28
f 30/30/30 29/29/29 31/31/31
f 31/31/31 29/29/29 32/32/32
f 34/34/34 33/33/33 35/35/35
f 35/35/35 33/33/33 36/36/36
f 38/38/38 37/37/37 39/39/39
f 39/39/39 37/37/37 40/40/40
f 42/42/42 41/41/41 43/43/43
f 43/43/43 41/41/41 44/44/44
f 46/46/46 45/45/45 47/47/47
f 47/47/47 45/45/45 48/48/48
f 50/50/50 49/49/49 51/51/51
f 51/51/51 49/49/49 52/52/52
f 54/54/54 53/53/53 55/55/55
f 55/55/55 53/53/53 56/56/56
f 58/58/58 57/57/57 59/59/59
f 59/59/59 57/57/57 60/60/60
f 62/62/62 61/61/61 63/63/63
f 63/63/63 61/61/61 64/64/64
f 66/66/66 65/65/65 67/67/67
f 67/67/67 65/65/65 68/68/68
f 70/70/70 69/69/69 71/71/71
f 71/71/71 69/69/69 72/72/72
f 74/74/74 73/73/73 75/75/75
f 75/75/75 73/73/73 76/76/76
f 78/78/78 77/77/77 79/79/79
f 79/79/79 77/77/77 80/80/80
f 82/82/82 81/81/81 83/83/83
f 83/83/83 81/81/81 84/84/84
f 86/86/86 85/85/85 87/87/87
f 87/87/87 85/85/85 88/88/88
f 90/90/90 89/89/89 91/91/91
f 91/91/91 89/89/89 92/92/92
f 94/94/94 93/93/93 95/95/95
f 95/95/95 93/93/93 96/96/96
