mtllib ./house-wall-corner-half_0.mtl
g house-wall-corner-half
v 0 -8.742278E-09 0.2
v 0 3 0.2000001
v 0 3 -0.1999999
v 0 8.742278E-09 -0.2
v -0.5 -8.742278E-09 0.5
v -0.5 8.742278E-09 -0.2
v -0.5 3 -0.1999999
v -0.5 3 0.5000001
v 0 -8.742278E-09 0.2
v 0 8.742278E-09 -0.2
v -0.5 8.742278E-09 -0.2
v -0.3000004 -8.742276E-09 0.2
v -0.3000004 -8.742278E-09 0.5
v -0.5 -8.742278E-09 0.5
v 0 3 0.2000001
v 0 -8.742278E-09 0.2
v -0.3000004 -8.742276E-09 0.2
v -0.3000004 3 0.2000001
v 0 8.742278E-09 -0.2
v 0 3 -0.1999999
v -0.5 3 -0.1999999
v -0.5 8.742278E-09 -0.2
v 0 3 -0.1999999
v 0 3 0.2000001
v -0.3000004 3 0.2000001
v -0.5 3 -0.1999999
v -0.5 3 0.5000001
v -0.3000004 3 0.5000001
v -0.5 3 0.5000001
v -0.3000004 3 0.5000001
v -0.3000004 -8.742278E-09 0.5
v -0.5 -8.742278E-09 0.5
v -0.3000004 3 0.5000001
v -0.3000004 3 0.2000001
v -0.3000004 -8.742276E-09 0.2
v -0.3000004 -8.742278E-09 0.5

vn 1 0 0
vn 1 0 0
vn 1 0 0
vn 1 0 0
vn -1 0 0
vn -1 0 0
vn -1 0 0
vn -1 0 0
vn 0 -1 0
vn 0 -1 0
vn 0 -1 0
vn 0 -1 0
vn 0 -1 0
vn 0 -1 0
vn 0 0 1
vn 0 0 1
vn 0 0 1
vn 0 0 1
vn 0 0 -1
vn 0 0 -1
vn 0 0 -1
vn 0 0 -1
vn 0 1 0
vn 0 1 0
vn 0 1 0
vn 0 1 0
vn -1.192095E-06 1 0
vn -1.192095E-06 1 0
vn 0 0 1
vn 0 0 1
vn 0 0 1
vn 0 0 1
vn 1 0 0
vn 1 0 0
vn 1 0 0
vn 1 0 0

vt 0.7055575 0.7587551
vt 0.7055576 0.8666895
vt 0.7199488 0.8666895
vt 0.7199488 0.7587551
vt 0.6573853 0.7587551
vt 0.6322007 0.7587551
vt 0.6322007 0.8666894
vt 0.6573853 0.8666894
vt 0.7312091 0.8023957
vt 0.7456003 0.8023956
vt 0.7456003 0.7844066
vt 0.7312091 0.7916023
vt 0.7204157 0.7916023
vt 0.7204157 0.7844066
vt 0.1905411 0.1147364
vt 0.1905411 0.006802082
vt 0.1797476 0.006802082
vt 0.1797476 0.1147364
vt 0.8042891 0.6337551
vt 0.8042891 0.7416894
vt 0.8222781 0.7416894
vt 0.8222781 0.6337551
vt 0.7384048 0.7839398
vt 0.7384048 0.7695485
vt 0.7276113 0.7695485
vt 0.7204157 0.7839398
vt 0.7204157 0.7587551
vt 0.7276113 0.7587551
vt 0.6573853 0.8666894
vt 0.6645809 0.8666894
vt 0.6645809 0.7587551
vt 0.6573853 0.7587551
vt 0.1689542 0.1147364
vt 0.1797476 0.1147364
vt 0.1797476 0.006802082
vt 0.1689542 0.006802082

usemtl LOW-POLY-COLORS
usemap LOW-POLY-COLORS
f 2/2/2 1/1/1 3/3/3
f 3/3/3 1/1/1 4/4/4
f 6/6/6 5/5/5 7/7/7
f 7/7/7 5/5/5 8/8/8
f 10/10/10 9/9/9 11/11/11
f 11/11/11 9/9/9 12/12/12
f 13/13/13 11/11/11 12/12/12
f 14/14/14 11/11/11 13/13/13
f 16/16/16 15/15/15 17/17/17
f 17/17/17 15/15/15 18/18/18
f 20/20/20 19/19/19 21/21/21
f 21/21/21 19/19/19 22/22/22
f 24/24/24 23/23/23 25/25/25
f 25/25/25 23/23/23 26/26/26
f 26/26/26 27/27/27 25/25/25
f 25/25/25 27/27/27 28/28/28
f 30/30/30 29/29/29 31/31/31
f 31/31/31 29/29/29 32/32/32
f 34/34/34 33/33/33 35/35/35
f 35/35/35 33/33/33 36/36/36
