mtllib ./house-roof_1.mtl
g house-roof
v 1.500008 0 0.2003006
v 1.500007 0.300274 -0.1999993
v 1.500008 0 -0.1999985
v -1.499992 0 0.2003006
v -1.499992 0 -0.1999985
v -1.499993 0.300274 -0.1999998
v -1.500002 0.08884692 0.6004272
v -1.500002 4.298935 -4.999574
v 1.499998 4.298935 -4.999574
v 1.499998 0.08884692 0.6004272
v -1.500002 4.298935 -4.999574
v -1.499996 3.897651 -4.999985
v 1.499998 3.897651 -4.99998
v 1.499998 4.298935 -4.999574
v -1.499992 0 0.2003006
v -1.500002 0.08884692 0.6004272
v -1.500002 -0.1478899 0.3976539
v -1.499993 0.300274 -0.1999998
v -1.500002 4.298935 -4.999574
v -1.499996 3.897651 -4.999985
v 1.499998 0.08884692 0.6004272
v 1.499998 -0.1478899 0.3976539
v -1.500002 -0.1478899 0.3976539
v -1.500002 0.08884692 0.6004272
v 1.500007 0.300274 -0.1999993
v 1.499998 4.298935 -4.999574
v 1.499998 3.897651 -4.99998
v 1.499998 0.08884692 0.6004272
v 1.500008 0 0.2003006
v 1.499998 -0.1478899 0.3976539
v -1.499992 0 -0.1999985
v 1.500008 0 -0.1999985
v 1.500007 0.300274 -0.1999993
v -1.499993 0.300274 -0.1999998
v -1.499996 3.897651 -4.999985
v -1.499993 0.300274 -0.1999998
v 1.500007 0.300274 -0.1999993
v 1.499998 3.897651 -4.99998
v -1.499992 0 -0.1999985
v -1.499992 0 0.2003006
v 1.500008 0 0.2003006
v 1.500008 0 -0.1999985
v 1.499998 -0.1478899 0.3976539
v 1.500008 0 0.2003006
v -1.499992 0 0.2003006
v -1.500002 -0.1478899 0.3976539

vn 1 2.779012E-06 0
vn 1 2.779012E-06 0
vn 1 2.779012E-06 0
vn -1 -1.191005E-06 0
vn -1 -1.191005E-06 0
vn -1 -1.191005E-06 0
vn 0 0.7993084 0.600921
vn 0 0.7993084 0.600921
vn 0 0.7993084 0.600921
vn 0 0.7993084 0.600921
vn 8.741348E-07 0.001018752 -0.9999995
vn 8.741348E-07 0.001018752 -0.9999995
vn 8.741348E-07 0.001018752 -0.9999995
vn 8.741348E-07 0.001018752 -0.9999995
vn -1 -2.48227E-05 -1.799089E-05
vn -1 -2.48227E-05 -1.799089E-05
vn -1 2.457931E-05 -2.874988E-05
vn -1 -2.48227E-05 -1.799089E-05
vn -1 -1.801431E-05 -1.322935E-05
vn -1 -1.801431E-05 -1.322935E-05
vn 0 -0.650525 0.7594848
vn 0 -0.650525 0.7594848
vn 0 -0.650525 0.7594848
vn 0 -0.650525 0.7594848
vn 1 2.604798E-05 1.79909E-05
vn 1 1.152333E-05 7.650748E-06
vn 1 1.152333E-05 7.650748E-06
vn 1 2.604798E-05 1.79909E-05
vn 1 2.604798E-05 1.79909E-05
vn 1 -2.457931E-05 2.836137E-05
vn 0 -3.559781E-06 -1
vn 0 -3.559781E-06 -1
vn 0 -3.559781E-06 -1
vn 0 -3.559781E-06 -1
vn 5.74999E-07 -0.8002088 -0.5997214
vn 5.74999E-07 -0.8002088 -0.5997214
vn 5.74999E-07 -0.8002088 -0.5997214
vn 5.74999E-07 -0.8002088 -0.5997214
vn 0 -1 0
vn 0 -1 0
vn 0 -1 0
vn 0 -1 0
vn 0 -0.8002433 -0.5996755
vn 0 -0.8002433 -0.5996755
vn 0 -0.8002433 -0.5996755
vn 0 -0.8002433 -0.5996755

vt 0.6734871 0.7681108
vt 0.6779577 0.7714642
vt 0.6779577 0.7681108
vt 0.7159321 0.7681108
vt 0.7114615 0.7681108
vt 0.7114615 0.7714642
vt 0.01775412 0.7907898
vt 0.0959976 0.7907897
vt 0.09599759 0.7572859
vt 0.01775412 0.7572859
vt 0.0959976 0.7907897
vt 0.1004791 0.7907897
vt 0.1004791 0.7572859
vt 0.09599759 0.7572859
vt 0.02072957 0.7942681
vt 0.01775412 0.7907898
vt 0.01797545 0.7942638
vt 0.0263179 0.7942741
vt 0.0959976 0.7907897
vt 0.09330823 0.7943747
vt 0.2194725 0.064812
vt 0.2194725 0.06133085
vt 0.1859686 0.06133085
vt 0.1859686 0.064812
vt 0.02631808 0.7538015
vt 0.09599759 0.7572859
vt 0.09330809 0.7537009
vt 0.01775412 0.7572859
vt 0.02072962 0.7538075
vt 0.01797545 0.7538118
vt 0.7114615 0.7681108
vt 0.6779577 0.7681108
vt 0.6779577 0.7714642
vt 0.7114615 0.7714642
vt 0.7114617 0.8384544
vt 0.7114615 0.7714642
vt 0.6779577 0.7714642
vt 0.6779578 0.8384542
vt 0.7114615 0.7681108
vt 0.7114615 0.7636403
vt 0.6779577 0.7636403
vt 0.6779577 0.7681108
vt 0.2194724 0.06783575
vt 0.2194725 0.06508154
vt 0.1859687 0.06508154
vt 0.1859686 0.06783575

usemtl LOW-POLY-COLORS
usemap LOW-POLY-COLORS
f 2/2/2 1/1/1 3/3/3
f 5/5/5 4/4/4 6/6/6
f 8/8/8 7/7/7 9/9/9
f 9/9/9 7/7/7 10/10/10
f 12/12/12 11/11/11 13/13/13
f 13/13/13 11/11/11 14/14/14
f 16/16/16 15/15/15 17/17/17
f 15/15/15 16/16/16 18/18/18
f 16/16/16 19/19/19 18/18/18
f 18/18/18 19/19/19 20/20/20
f 22/22/22 21/21/21 23/23/23
f 23/23/23 21/21/21 24/24/24
f 26/26/26 25/25/25 27/27/27
f 28/28/28 25/25/25 26/26/26
f 28/28/28 29/29/29 25/25/25
f 28/28/28 30/30/30 29/29/29
f 32/32/32 31/31/31 33/33/33
f 33/33/33 31/31/31 34/34/34
f 36/36/36 35/35/35 37/37/37
f 37/37/37 35/35/35 38/38/38
f 40/40/40 39/39/39 41/41/41
f 41/41/41 39/39/39 42/42/42
f 44/44/44 43/43/43 45/45/45
f 45/45/45 43/43/43 46/46/46
