mtllib ./house-wall-door-garage_13.mtl
g house-wall-door-garage
v -1.4 2.4 0.2
v -1.4 0.1 0.2
v -1.500006 -8.742276E-09 0.1999999
v -1.500006 2.5 0.2000001
v -1.500006 2.5 0.2000001
v -1.500006 3 0.2000001
v 1.500006 3 0.2000001
v 1.500006 2.5 0.2000001
v -1.4 2.4 0.2
v -1.500006 2.5 0.2000001
v 1.500006 2.5 0.2000001
v 1.4 2.4 0.2
v 1.4 2.4 -3.039837E-06
v 1.4 2.4 0.2
v 1.4 0.1 0.2
v 1.4 0.1 -3.039837E-06
v -1.4 2.4 -3.039837E-06
v -1.4 2.4 0.2
v 1.4 2.4 0.2
v 1.4 2.4 -3.039837E-06
v 1.4 2.4 0.2
v 1.500006 2.5 0.2000001
v 1.5 -1.490116E-08 0.2
v 1.4 0.1 0.2
v -1.4 0.1 -3.039837E-06
v -1.4 0.1 0.2
v -1.4 2.4 0.2
v -1.4 2.4 -3.039837E-06
v -1.4 0.1 -3.039837E-06
v 1.4 0.1 -3.039837E-06
v 1.4 0.1 0.2
v -1.4 0.1 0.2
v 1.5 -1.490116E-08 0.2
v 1.500006 2.5 7.450581E-08
v 1.500006 2.664535E-15 -5.960464E-08
v 1.500006 2.5 0.2000001
v 1.500006 3 0.2000001
v 1.500006 3 7.450581E-08
v 1.500006 3 0.2000001
v -1.500006 3 0.2000001
v -1.500006 3 7.450581E-08
v 1.500006 3 7.450581E-08
v -1.500006 -8.742276E-09 0.1999999
v -1.500006 1.776357E-15 -5.960464E-08
v -1.500006 2.5 7.450581E-08
v -1.500006 2.5 0.2000001
v -1.500006 3 7.450581E-08
v -1.500006 3 0.2000001
v -1.4 0.1 0.2
v 1.4 0.1 0.2
v 1.5 -1.490116E-08 0.2
v -1.500006 -8.742276E-09 0.1999999
v 1.500006 2.664535E-15 -5.960464E-08
v -1.500006 1.776357E-15 -5.960464E-08
v -1.500006 -8.742276E-09 0.1999999
v 1.5 -1.490116E-08 0.2

vn 0 0 1
vn 0 0 1
vn 0 0 1
vn 0 0 1
vn 0 0 1
vn 0 0 1
vn 0 0 1
vn 0 0 1
vn 0 -2.05533E-07 1
vn 0 -2.05533E-07 1
vn 0 -2.05533E-07 1
vn 0 -2.05533E-07 1
vn -1 0 1.036587E-06
vn -1 0 1.036587E-06
vn -1 0 1.036587E-06
vn -1 0 1.036587E-06
vn 0 -1 0
vn 0 -1 0
vn 0 -1 0
vn 0 -1 0
vn 0 0 1
vn 0 0 1
vn 0 0 1
vn 0 0 1
vn 1 0 0
vn 1 0 0
vn 1 0 0
vn 1 0 0
vn 0 1 0
vn 0 1 0
vn 0 1 0
vn 0 1 0
vn 1 -1.215936E-06 1.525879E-05
vn 1 -1.215936E-06 1.525879E-05
vn 1 -1.215936E-06 1.525879E-05
vn 1 -1.215936E-06 1.525879E-05
vn 1 0 0
vn 1 0 0
vn 0 1 0
vn 0 1 0
vn 0 1 0
vn 0 1 0
vn -1 0 0
vn -1 0 0
vn -1 0 0
vn -1 0 0
vn -1 0 0
vn -1 0 0
vn 0 -3.211452E-07 1
vn 0 -3.211452E-07 1
vn 0 -3.211452E-07 1
vn 0 -3.211452E-07 1
vn 0 -1 0
vn 0 -1 0
vn 0 -1 0
vn 0 -1 0

vt 0.2117138 0.08307435
vt 0.2117137 0.007924872
vt 0.2084463 0.004657643
vt 0.2084463 0.08634175
vt 0.7610545 0.7108729
vt 0.7610545 0.7272097
vt 0.8590755 0.7272097
vt 0.8590755 0.7108729
vt 0.1364065 0.1155059
vt 0.1331376 0.1187723
vt 0.2311583 0.1188062
vt 0.2278919 0.1155377
vt 0.2187634 0.08307458
vt 0.2252983 0.08307458
vt 0.2252981 0.00792505
vt 0.2187634 0.00792505
vt 0.1364088 0.1089711
vt 0.1364065 0.1155059
vt 0.2278919 0.1155377
vt 0.2278942 0.1090029
vt 0.2252983 0.08307458
vt 0.2285657 0.08634175
vt 0.2285655 0.004657643
vt 0.2252981 0.00792505
vt 0.2182486 0.007924872
vt 0.2117137 0.007924872
vt 0.2117138 0.08307435
vt 0.2182487 0.08307435
vt 0.1364052 0.1084565
vt 0.2278911 0.1084565
vt 0.2278911 0.1019218
vt 0.1364052 0.1019217
vt 0.8598506 0.7625061
vt 0.8663853 0.8441898
vt 0.8663852 0.7625061
vt 0.8598506 0.8441898
vt 0.8598506 0.8605266
vt 0.8663853 0.8605266
vt 0.8025879 0.76654
vt 0.8025879 0.8645607
vt 0.8091227 0.8645607
vt 0.8091227 0.7665401
vt 0.7618296 0.7625058
vt 0.7552948 0.7625058
vt 0.7552948 0.8441898
vt 0.7618296 0.8441898
vt 0.7552948 0.8605266
vt 0.7618296 0.8605266
vt 0.1364052 0.1019217
vt 0.2278911 0.1019218
vt 0.2311585 0.09865429
vt 0.1331376 0.09865429
vt 0.2311586 0.0921196
vt 0.1331376 0.0921196
vt 0.1331376 0.09865429
vt 0.2311585 0.09865429

usemtl LOW-POLY-COLORS
usemap LOW-POLY-COLORS
f 2/2/2 1/1/1 3/3/3
f 3/3/3 1/1/1 4/4/4
f 6/6/6 5/5/5 7/7/7
f 7/7/7 5/5/5 8/8/8
f 10/10/10 9/9/9 11/11/11
f 11/11/11 9/9/9 12/12/12
f 14/14/14 13/13/13 15/15/15
f 15/15/15 13/13/13 16/16/16
f 18/18/18 17/17/17 19/19/19
f 19/19/19 17/17/17 20/20/20
f 22/22/22 21/21/21 23/23/23
f 23/23/23 21/21/21 24/24/24
f 26/26/26 25/25/25 27/27/27
f 27/27/27 25/25/25 28/28/28
f 30/30/30 29/29/29 31/31/31
f 31/31/31 29/29/29 32/32/32
f 34/34/34 33/33/33 35/35/35
f 36/36/36 33/33/33 34/34/34
f 36/36/36 34/34/34 37/37/37
f 37/37/37 34/34/34 38/38/38
f 40/40/40 39/39/39 41/41/41
f 41/41/41 39/39/39 42/42/42
f 44/44/44 43/43/43 45/45/45
f 45/45/45 43/43/43 46/46/46
f 46/46/46 47/47/47 45/45/45
f 48/48/48 47/47/47 46/46/46
f 50/50/50 49/49/49 51/51/51
f 51/51/51 49/49/49 52/52/52
f 54/54/54 53/53/53 55/55/55
f 55/55/55 53/53/53 56/56/56
