mtllib ./house-roof-edge_21.mtl
g house-roof-edge
v -0.4999999 0 5.200285
v -0.4999999 0 4.799986
v -0.4999938 0.3014041 4.799986
v 0.2000062 0 5.200285
v 0.2000017 3.897651 1.907349E-06
v 0.2000017 0 1.907349E-06
v 0.6 4.298935 0.0004105568
v 0.2000017 3.897651 1.907349E-06
v 0.6 3.897651 4.768372E-06
v -0.4999999 4.298935 0.0004105568
v -0.1999878 3.897651 9.536743E-07
v -0.4999966 3.897651 -4.768372E-07
v -0.1999878 0.3014041 4.799986
v -0.1999878 3.897651 9.536743E-07
v -0.4999966 3.897651 -4.768372E-07
v -0.4999938 0.3014041 4.799986
v 0.6 -0.1478899 5.397638
v 0.6 0.08884692 5.600412
v 0.6 4.298935 0.0004105568
v 0.6 3.897651 4.768372E-06
v -0.4999999 -0.1478899 5.397638
v 0.6 -0.1478899 5.397638
v 0.2000062 0 5.200285
v -0.4999999 0 5.200285
v 0.6 -0.1478899 5.397638
v 0.6 3.897651 4.768372E-06
v 0.2000017 3.897651 1.907349E-06
v 0.2000062 0 5.200285
v -0.4999999 0.08884692 5.600412
v -0.4999999 4.298935 0.0004105568
v 0.6 4.298935 0.0004105568
v 0.6 0.08884692 5.600412
v -0.1999878 3.897651 9.536743E-07
v -0.1999878 0.3014041 4.799986
v -0.1999878 0 9.536743E-07
v -0.1999878 0 4.799986
v 0.6 0.08884692 5.600412
v 0.6 -0.1478899 5.397638
v -0.4999999 -0.1478899 5.397638
v -0.4999999 0.08884692 5.600412
v -0.1999878 3.897651 9.536743E-07
v -0.1999878 0 9.536743E-07
v 0.2000017 0 1.907349E-06
v 0.2000017 3.897651 1.907349E-06
v -0.1999878 0.3014041 4.799986
v -0.4999938 0.3014041 4.799986
v -0.4999999 0 4.799986
v -0.1999878 0 4.799986
v -0.4999999 0.08884692 5.600412
v -0.4999999 -0.1478899 5.397638
v -0.4999999 0 5.200285
v -0.4999938 0.3014041 4.799986
v -0.4999999 4.298935 0.0004105568
v -0.4999966 3.897651 -4.768372E-07
v -0.4999999 0 5.200285
v -0.1999878 0 4.799986
v -0.4999999 0 4.799986
v 0.2000062 0 5.200285
v -0.1999878 0 9.536743E-07
v 0.2000017 0 1.907349E-06

vn -1 2.056672E-05 0
vn -1 2.056672E-05 0
vn -1 2.056672E-05 0
vn 1 0 -8.70446E-07
vn 1 0 -8.70446E-07
vn 1 0 -8.70446E-07
vn 7.153092E-06 0.001011225 -0.9999995
vn 7.153092E-06 0.001011225 -0.9999995
vn 7.153092E-06 0.001011225 -0.9999995
vn 6.357035E-07 0.001019463 -0.9999995
vn 6.357035E-07 0.001019463 -0.9999995
vn 4.768569E-06 0.001024296 -0.9999995
vn 1.508649E-06 -0.8002994 -0.5996006
vn 1.508649E-06 -0.8002994 -0.5996006
vn 1.508649E-06 -0.8002994 -0.5996006
vn 1.508649E-06 -0.8002994 -0.5996006
vn 1 0 0
vn 1 0 0
vn 1 0 0
vn 1 0 0
vn 0 -0.8002428 -0.599676
vn 0 -0.8002428 -0.599676
vn 0 -0.8002428 -0.599676
vn 0 -0.8002428 -0.599676
vn 2.905245E-05 -0.8001901 -0.5997465
vn 2.905245E-05 -0.8001901 -0.5997465
vn 2.905245E-05 -0.8001901 -0.5997465
vn 2.905245E-05 -0.8001901 -0.5997465
vn 0 0.7993084 0.600921
vn 0 0.7993084 0.600921
vn 0 0.7993084 0.600921
vn 0 0.7993084 0.600921
vn -1 0 0
vn -1 0 0
vn -1 0 0
vn -1 0 0
vn 0 -0.6505258 0.7594842
vn 0 -0.6505258 0.7594842
vn 0 -0.6505258 0.7594842
vn 0 -0.6505258 0.7594842
vn 2.384248E-06 0 -1
vn 2.384248E-06 0 -1
vn 2.384248E-06 0 -1
vn 2.384248E-06 0 -1
vn 0 -5.282724E-07 -1
vn 0 -5.282724E-07 -1
vn 0 -5.282724E-07 -1
vn 0 -5.282724E-07 -1
vn -1 0 -1.942561E-07
vn -1 0 -1.942561E-07
vn -1 0 -1.942561E-07
vn -1 -1.235316E-05 -8.899677E-06
vn -1 -1.235316E-05 -8.899677E-06
vn -1 -1.235316E-05 -8.899677E-06
vn 0 -1 0
vn 0 -1 0
vn 0 -1 0
vn 0 -1 0
vn 0 -1 0
vn 0 -1 0

vt 0.6428701 0.7823896
vt 0.6444688 0.7875304
vt 0.6483395 0.7863267
vt 0.7742374 0.6953816
vt 0.8515729 0.6953816
vt 0.8237556 0.6582674
vt 0.1042139 0.8383663
vt 0.1089891 0.8431263
vt 0.1089891 0.8383663
vt 0.1042139 0.8514563
vt 0.1089891 0.8478861
vt 0.1089891 0.8514563
vt 0.6492558 0.7898975
vt 0.7272017 0.7863244
vt 0.7270048 0.7823896
vt 0.6483395 0.7863267
vt 0.1454736 0.05571538
vt 0.1452323 0.05941677
vt 0.2286043 0.05953926
vt 0.2257442 0.05571526
vt 0.1324114 0.05486393
vt 0.1454736 0.05571538
vt 0.1409147 0.05247724
vt 0.1326023 0.05193543
vt 0.1454736 0.05571538
vt 0.2257442 0.05571526
vt 0.2257442 0.05095541
vt 0.1484083 0.05095541
vt 0.02084202 0.8514563
vt 0.1042139 0.8514563
vt 0.1042139 0.8383663
vt 0.02084202 0.8383663
vt 0.7272017 0.7863244
vt 0.6492558 0.7898975
vt 0.6929073 0.818835
vt 0.6449362 0.7923993
vt 0.1452323 0.05941677
vt 0.1454736 0.05571538
vt 0.1324114 0.05486393
vt 0.1321701 0.05856538
vt 0.7272017 0.7863244
vt 0.6929073 0.818835
vt 0.6937601 0.8239564
vt 0.7316028 0.7912419
vt 0.6492558 0.7898975
vt 0.6483395 0.7863267
vt 0.6444688 0.7875304
vt 0.6449362 0.7923993
vt 0.02084202 0.8514563
vt 0.02107784 0.855158
vt 0.02401245 0.8551625
vt 0.02997504 0.8551582
vt 0.1042139 0.8514563
vt 0.1013482 0.8552762
vt 0.6400349 0.7871226
vt 0.6449362 0.7923993
vt 0.6444688 0.7875304
vt 0.6380295 0.795046
vt 0.6929073 0.818835
vt 0.6937601 0.8239564

usemtl LOW-POLY-COLORS
usemap LOW-POLY-COLORS
f 2/2/2 1/1/1 3/3/3
f 5/5/5 4/4/4 6/6/6
f 8/8/8 7/7/7 9/9/9
f 8/8/8 10/10/10 7/7/7
f 11/11/11 10/10/10 8/8/8
f 12/12/12 10/10/10 11/11/11
f 14/14/14 13/13/13 15/15/15
f 15/15/15 13/13/13 16/16/16
f 18/18/18 17/17/17 19/19/19
f 19/19/19 17/17/17 20/20/20
f 22/22/22 21/21/21 23/23/23
f 23/23/23 21/21/21 24/24/24
f 26/26/26 25/25/25 27/27/27
f 27/27/27 25/25/25 28/28/28
f 30/30/30 29/29/29 31/31/31
f 31/31/31 29/29/29 32/32/32
f 34/34/34 33/33/33 35/35/35
f 34/34/34 35/35/35 36/36/36
f 38/38/38 37/37/37 39/39/39
f 39/39/39 37/37/37 40/40/40
f 42/42/42 41/41/41 43/43/43
f 43/43/43 41/41/41 44/44/44
f 46/46/46 45/45/45 47/47/47
f 47/47/47 45/45/45 48/48/48
f 50/50/50 49/49/49 51/51/51
f 49/49/49 52/52/52 51/51/51
f 49/49/49 53/53/53 52/52/52
f 52/52/52 53/53/53 54/54/54
f 56/56/56 55/55/55 57/57/57
f 58/58/58 55/55/55 56/56/56
f 59/59/59 58/58/58 56/56/56
f 60/60/60 58/58/58 59/59/59
