mtllib ./house-wall-window-construction_4.mtl
g house-wall-window-construction
v 0.4500031 0.25 0.09999838
v 0.4500031 0.25 -0.1000014
v 0.4500031 2.75 -0.1000014
v 0.4500031 2.75 0.09999838
v 0.4500031 0.25 -0.1000014
v 0.650003 0.25 -0.1000014
v 0.650003 2.75 -0.1000014
v 0.4500031 2.75 -0.1000014
v 0.650003 0.25 -0.1000014
v 0.650003 0.25 0.09999838
v 0.650003 2.75 0.09999838
v 0.650003 2.75 -0.1000014
v 0.650003 0.25 0.09999838
v 0.4500031 0.25 0.09999838
v 0.4500031 2.75 0.09999838
v 0.650003 2.75 0.09999838
v -1.5 0 0.09999838
v 1.5 0 0.09999838
v 1.5 0 -0.1000014
v -1.5 0 -0.1000014
v 1.499994 0.25 -0.1000014
v 1.499994 0.25 0.09999838
v 1.499994 2.75 0.09999838
v 1.499994 2.75 -0.1000014
v 1.399997 0.25 -0.1000014
v 1.499994 0.25 -0.1000014
v 1.499994 2.75 -0.1000014
v 1.399997 2.75 -0.1000014
v 1.499994 0.25 0.09999838
v 1.399997 0.25 0.09999838
v 1.399997 2.75 0.09999838
v 1.499994 2.75 0.09999838
v 1.399997 0.25 0.09999838
v 1.399997 0.25 -0.1000014
v 1.399997 2.75 -0.1000014
v 1.399997 2.75 0.09999838
v -1.5 0 -0.1000014
v 1.5 0 -0.1000014
v 1.5 0.25 -0.1000014
v -1.5 0.25 -0.1000014
v -1.003684 0.25 -0.1000014
v -1.003684 0.25 0.09999838
v -1.003684 2.75 0.09999838
v -1.003684 2.75 -0.1000014
v -1.053684 0.25 -0.1000014
v -1.003684 0.25 -0.1000014
v -1.003684 2.75 -0.1000014
v -1.053684 2.75 -0.1000014
v -1.003684 0.25 0.09999838
v -1.053684 0.25 0.09999838
v -1.053684 2.75 0.09999838
v -1.003684 2.75 0.09999838
v -1.053684 0.25 0.09999838
v -1.053684 0.25 -0.1000014
v -1.053684 2.75 -0.1000014
v -1.053684 2.75 0.09999838
v -1.5 0.25 -0.1000014
v 1.5 0.25 -0.1000014
v 1.5 0.25 0.09999838
v -1.5 0.25 0.09999838
v 1.054086 0.25 0.09999838
v 1.004086 0.25 0.09999838
v 1.004086 2.75 0.09999838
v 1.054086 2.75 0.09999838
v 1.004086 0.25 -0.1000014
v 1.054086 0.25 -0.1000014
v 1.054086 2.75 -0.1000014
v 1.004086 2.75 -0.1000014
v 1.004086 0.25 0.09999838
v 1.004086 0.25 -0.1000014
v 1.004086 2.75 -0.1000014
v 1.004086 2.75 0.09999838
v 1.054086 0.25 -0.1000014
v 1.054086 0.25 0.09999838
v 1.054086 2.75 0.09999838
v 1.054086 2.75 -0.1000014
v -1.5 0.25 0.09999838
v 1.5 0.25 0.09999838
v 1.5 0 0.09999838
v -1.5 0 0.09999838
v -1.400003 0.25 0.09999838
v -1.5 0.25 0.09999838
v -1.5 2.75 0.09999838
v -1.400003 2.75 0.09999838
v -1.5 0.25 -0.1000014
v -1.400003 0.25 -0.1000014
v -1.400003 2.75 -0.1000014
v -1.5 2.75 -0.1000014
v -1.5 0.25 0.09999838
v -1.5 0.25 -0.1000014
v -1.5 2.75 -0.1000014
v -1.5 2.75 0.09999838
v -1.400003 0.25 -0.1000014
v -1.400003 0.25 0.09999838
v -1.400003 2.75 0.09999838
v -1.400003 2.75 -0.1000014
v 1.5 0.25 -0.1000014
v 1.5 0 -0.1000014
v 1.5 0 0.09999838
v 1.5 0.25 0.09999838
v -0.4499971 0.25 0.09999838
v -0.6499969 0.25 0.09999838
v -0.6499969 2.75 0.09999838
v -0.4499971 2.75 0.09999838
v -0.6499969 0.25 -0.1000014
v -0.4499971 0.25 -0.1000014
v -0.4499971 2.75 -0.1000014
v -0.6499969 2.75 -0.1000014
v -0.6499969 0.25 0.09999838
v -0.6499969 0.25 -0.1000014
v -0.6499969 2.75 -0.1000014
v -0.6499969 2.75 0.09999838
v -0.4499971 0.25 -0.1000014
v -0.4499971 0.25 0.09999838
v -0.4499971 2.75 0.09999838
v -0.4499971 2.75 -0.1000014
v -1.5 0.25 -0.1000014
v -1.5 0.25 0.09999838
v -1.5 0 0.09999838
v -1.5 0 -0.1000014
v -1.5 2.75 0.09999838
v 1.5 2.75 0.09999838
v 1.5 2.75 -0.1000014
v -1.5 2.75 -0.1000014
v -1.5 2.75 -0.1000014
v 1.5 2.75 -0.1000014
v 1.5 3 -0.1000014
v -1.5 3 -0.1000014
v -1.5 3 -0.1000014
v 1.5 3 -0.1000014
v 1.5 3 0.09999838
v -1.5 3 0.09999838
v -1.5 3 0.09999838
v 1.5 3 0.09999838
v 1.5 2.75 0.09999838
v -1.5 2.75 0.09999838
v 1.5 3 -0.1000014
v 1.5 2.75 -0.1000014
v 1.5 2.75 0.09999838
v 1.5 3 0.09999838
v -1.5 3 -0.1000014
v -1.5 3 0.09999838
v -1.5 2.75 0.09999838
v -1.5 2.75 -0.1000014
v -1.000005 1.468924 -0.0867108
v -1.000005 1.468924 0.08670774
v -0.649997 1.468924 0.08670774
v -0.649997 1.468924 -0.0867108
v -1.000005 1.518923 -0.0867108
v -1.000005 1.468924 -0.0867108
v -0.649997 1.468924 -0.0867108
v -0.649997 1.518923 -0.0867108
v -1.000005 1.468924 0.08670774
v -1.000005 1.518923 0.08670774
v -0.649997 1.518923 0.08670774
v -0.649997 1.468924 0.08670774
v -1.000005 1.518923 0.08670774
v -1.000005 1.518923 -0.0867108
v -0.649997 1.518923 -0.0867108
v -0.649997 1.518923 0.08670774
v 1.054088 1.529379 -0.0867108
v 1.054088 1.529379 0.08670774
v 1.449994 1.529379 0.08670774
v 1.449994 1.529379 -0.0867108
v 1.054088 1.579378 -0.0867108
v 1.054088 1.529379 -0.0867108
v 1.449994 1.529379 -0.0867108
v 1.449994 1.579378 -0.0867108
v 1.054088 1.529379 0.08670774
v 1.054088 1.579378 0.08670774
v 1.449994 1.579378 0.08670774
v 1.449994 1.529379 0.08670774
v 1.054088 1.579378 0.08670774
v 1.054088 1.579378 -0.0867108
v 1.449994 1.579378 -0.0867108
v 1.449994 1.579378 0.08670774
v 0.02500298 0.25 0.09999838
v -0.0249969 0.25 0.09999838
v -0.0249969 0.8409141 0.09999838
v 0.02500298 0.8409141 0.09999838
v -0.0249969 0.25 -0.1000014
v 0.02500298 0.25 -0.1000014
v 0.02500298 0.8409141 -0.1000014
v -0.0249969 0.8409141 -0.1000014
v -0.0249969 0.25 0.09999838
v -0.0249969 0.25 -0.1000014
v -0.0249969 0.8409141 -0.1000014
v -0.0249969 0.8409141 0.09999838
v 0.02500298 0.25 -0.1000014
v 0.02500298 0.25 0.09999838
v 0.02500298 0.8409141 0.09999838
v 0.02500298 0.8409141 -0.1000014
v 0.02500298 0.8409141 0.09999838
v -0.0249969 0.8409141 0.09999838
v -0.0249969 0.8409141 -0.1000014
v 0.02500298 0.8409141 -0.1000014
v -0.0249969 2.75 0.09999838
v 0.02500299 2.75 0.09999838
v 0.02500299 2.25 0.09999841
v -0.0249969 2.25 0.09999841
v 0.02500298 2.75 -0.1000014
v -0.02499691 2.75 -0.1000014
v -0.02499691 2.25 -0.1000014
v 0.02500298 2.25 -0.1000014
v 0.02500299 2.75 0.09999838
v 0.02500298 2.75 -0.1000014
v 0.02500298 2.25 -0.1000014
v 0.02500299 2.25 0.09999841
v -0.02499691 2.75 -0.1000014
v -0.0249969 2.75 0.09999838
v -0.0249969 2.25 0.09999841
v -0.02499691 2.25 -0.1000014
v -0.0249969 2.25 0.09999841
v 0.02500299 2.25 0.09999841
v 0.02500298 2.25 -0.1000014
v -0.02499691 2.25 -0.1000014
v -1.400015 1.579378 0.08670774
v -1.400015 1.579378 -0.0867108
v -1.053685 1.579378 -0.0867108
v -1.053685 1.579378 0.08670774
v -1.400015 1.529379 0.08670774
v -1.400015 1.579378 0.08670774
v -1.053685 1.579378 0.08670774
v -1.053685 1.529379 0.08670774
v -1.400015 1.579378 -0.0867108
v -1.400015 1.529379 -0.0867108
v -1.053685 1.529379 -0.0867108
v -1.053685 1.579378 -0.0867108
v -1.400015 1.529379 -0.0867108
v -1.400015 1.529379 0.08670774
v -1.053685 1.529379 0.08670774
v -1.053685 1.529379 -0.0867108
v 0.6500032 1.468924 -0.0867108
v 0.6500032 1.468924 0.08670774
v 1.004084 1.468924 0.08670774
v 1.004084 1.468924 -0.0867108
v 0.6500032 1.518923 -0.0867108
v 0.6500032 1.468924 -0.0867108
v 1.004084 1.468924 -0.0867108
v 1.004084 1.518923 -0.0867108
v 0.6500032 1.468924 0.08670774
v 0.6500032 1.518923 0.08670774
v 1.004084 1.518923 0.08670774
v 1.004084 1.468924 0.08670774
v 0.6500032 1.518923 0.08670774
v 0.6500032 1.518923 -0.0867108
v 1.004084 1.518923 -0.0867108
v 1.004084 1.518923 0.08670774
v -0.4500015 0.8409141 0.08670774
v -0.4500015 0.890914 0.08670774
v 0.4499928 0.890914 0.08670774
v 0.4499928 0.8409141 0.08670774
v 0.4499931 0.890914 0.08670774
v 0.4499931 0.8409141 0.08670774
v -0.4500015 0.890914 -0.0867108
v -0.4500015 0.8409141 -0.0867108
v 0.4499928 0.8409141 -0.0867108
v 0.4499928 0.890914 -0.0867108
v 0.4499931 0.8409141 -0.0867108
v 0.4499931 0.890914 -0.0867108
v -0.4500015 2.2 0.08670774
v -0.4500015 2.25 0.08670774
v 0.4499928 2.25 0.08670774
v 0.4499928 2.2 0.08670774
v 0.4499931 2.25 0.08670774
v 0.4499931 2.2 0.08670774
v 0.4499928 2.25 0.08670774
v 0.4499931 2.25 -0.0867108
v 0.4499931 2.25 0.08670774
v 0.4499928 2.25 -0.0867108
v -0.4500015 2.25 0.08670774
v -0.4500015 2.25 -0.0867108
v 0.4499928 0.890914 0.08670774
v 0.4499931 0.890914 -0.0867108
v 0.4499931 0.890914 0.08670774
v 0.4499928 0.890914 -0.0867108
v -0.4500015 0.890914 0.08670774
v -0.4500015 0.890914 -0.0867108
v 0.4499928 0.8409141 -0.0867108
v 0.4499931 0.8409141 0.08670774
v 0.4499931 0.8409141 -0.0867108
v 0.4499928 0.8409141 0.08670774
v -0.4500015 0.8409141 -0.0867108
v -0.4500015 0.8409141 0.08670774
v -0.4500015 2.2 -0.0867108
v -0.4500015 2.2 0.08670774
v 0.4499928 2.2 0.08670774
v 0.4499928 2.2 -0.0867108
v 0.4499931 2.2 0.08670774
v 0.4499931 2.2 -0.0867108
v 0.4499928 2.25 -0.0867108
v 0.4499931 2.2 -0.0867108
v 0.4499931 2.25 -0.0867108
v 0.4499928 2.2 -0.0867108
v -0.4500015 2.25 -0.0867108
v -0.4500015 2.2 -0.0867108

vn -1 0 0
vn -1 0 0
vn -1 0 0
vn -1 0 0
vn 0 0 -1
vn 0 0 -1
vn 0 0 -1
vn 0 0 -1
vn 1 0 0
vn 1 0 0
vn 1 0 0
vn 1 0 0
vn 0 0 1
vn 0 0 1
vn 0 0 1
vn 0 0 1
vn 0 -1 0
vn 0 -1 0
vn 0 -1 0
vn 0 -1 0
vn 1 0 0
vn 1 0 0
vn 1 0 0
vn 1 0 0
vn 0 0 -1
vn 0 0 -1
vn 0 0 -1
vn 0 0 -1
vn 0 0 1
vn 0 0 1
vn 0 0 1
vn 0 0 1
vn -1 0 0
vn -1 0 0
vn -1 0 0
vn -1 0 0
vn 0 0 -1
vn 0 0 -1
vn 0 0 -1
vn 0 0 -1
vn 1 0 0
vn 1 0 0
vn 1 0 0
vn 1 0 0
vn 0 0 -1
vn 0 0 -1
vn 0 0 -1
vn 0 0 -1
vn 0 0 1
vn 0 0 1
vn 0 0 1
vn 0 0 1
vn -1 0 0
vn -1 0 0
vn -1 0 0
vn -1 0 0
vn 0 1 0
vn 0 1 0
vn 0 1 0
vn 0 1 0
vn 0 0 1
vn 0 0 1
vn 0 0 1
vn 0 0 1
vn 0 0 -1
vn 0 0 -1
vn 0 0 -1
vn 0 0 -1
vn -1 0 0
vn -1 0 0
vn -1 0 0
vn -1 0 0
vn 1 0 0
vn 1 0 0
vn 1 0 0
vn 1 0 0
vn 0 0 1
vn 0 0 1
vn 0 0 1
vn 0 0 1
vn 0 0 1
vn 0 0 1
vn 0 0 1
vn 0 0 1
vn 0 0 -1
vn 0 0 -1
vn 0 0 -1
vn 0 0 -1
vn -1 0 0
vn -1 0 0
vn -1 0 0
vn -1 0 0
vn 1 0 0
vn 1 0 0
vn 1 0 0
vn 1 0 0
vn 1 0 0
vn 1 0 0
vn 1 0 0
vn 1 0 0
vn 0 0 1
vn 0 0 1
vn 0 0 1
vn 0 0 1
vn 0 0 -1
vn 0 0 -1
vn 0 0 -1
vn 0 0 -1
vn -1 0 0
vn -1 0 0
vn -1 0 0
vn -1 0 0
vn 1 0 0
vn 1 0 0
vn 1 0 0
vn 1 0 0
vn -1 0 0
vn -1 0 0
vn -1 0 0
vn -1 0 0
vn 0 -1 0
vn 0 -1 0
vn 0 -1 0
vn 0 -1 0
vn 0 0 -1
vn 0 0 -1
vn 0 0 -1
vn 0 0 -1
vn 0 1 0
vn 0 1 0
vn 0 1 0
vn 0 1 0
vn 0 0 1
vn 0 0 1
vn 0 0 1
vn 0 0 1
vn 1 0 0
vn 1 0 0
vn 1 0 0
vn 1 0 0
vn -1 0 0
vn -1 0 0
vn -1 0 0
vn -1 0 0
vn 0 -1 0
vn 0 -1 0
vn 0 -1 0
vn 0 -1 0
vn 0 0 -1
vn 0 0 -1
vn 0 0 -1
vn 0 0 -1
vn 0 0 1
vn 0 0 1
vn 0 0 1
vn 0 0 1
vn 0 1 0
vn 0 1 0
vn 0 1 0
vn 0 1 0
vn 0 -1 0
vn 0 -1 0
vn 0 -1 0
vn 0 -1 0
vn 0 0 -1
vn 0 0 -1
vn 0 0 -1
vn 0 0 -1
vn 0 0 1
vn 0 0 1
vn 0 0 1
vn 0 0 1
vn 0 1 0
vn 0 1 0
vn 0 1 0
vn 0 1 0
vn 0 0 1
vn 0 0 1
vn 0 0 1
vn 0 0 1
vn 0 0 -1
vn 0 0 -1
vn 0 0 -1
vn 0 0 -1
vn -1 0 0
vn -1 0 0
vn -1 0 0
vn -1 0 0
vn 1 0 0
vn 1 0 0
vn 1 0 0
vn 1 0 0
vn 0 1 0
vn 0 1 0
vn 0 1 0
vn 0 1 0
vn 0 0 1
vn 0 0 1
vn 0 0 1
vn 0 0 1
vn 0 -1.11759E-07 -1
vn 0 -1.11759E-07 -1
vn 0 -1.11759E-07 -1
vn 0 -1.11759E-07 -1
vn 1 0 0
vn 1 0 0
vn 1 0 0
vn 1 0 0
vn -1 0 0
vn -1 0 0
vn -1 0 0
vn -1 0 0
vn 0 -1 0
vn 0 -1 0
vn 0 -1 0
vn 0 -1 0
vn 0 1 0
vn 0 1 0
vn 0 1 0
vn 0 1 0
vn 0 0 1
vn 0 0 1
vn 0 0 1
vn 0 0 1
vn 0 0 -1
vn 0 0 -1
vn 0 0 -1
vn 0 0 -1
vn 0 -1 0
vn 0 -1 0
vn 0 -1 0
vn 0 -1 0
vn 0 -1 0
vn 0 -1 0
vn 0 -1 0
vn 0 -1 0
vn 0 0 -1
vn 0 0 -1
vn 0 0 -1
vn 0 0 -1
vn 0 0 1
vn 0 0 1
vn 0 0 1
vn 0 0 1
vn 0 1 0
vn 0 1 0
vn 0 1 0
vn 0 1 0
vn 0 0 1
vn 0 0 1
vn 0 0 1
vn 0 0 1
vn 0 0 1
vn 0 0 1
vn 0 0 -1
vn 0 0 -1
vn 0 0 -1
vn 0 0 -1
vn 0 0 -1
vn 0 0 -1
vn 0 0 1
vn 0 0 1
vn 0 0 1
vn 0 0 1
vn 0 0 1
vn 0 0 1
vn 0 1 0
vn 0 1 0
vn 0 1 0
vn 0 1 0
vn 0 1 0
vn 0 1 0
vn 0 1 0
vn 0 1 0
vn 0 1 0
vn 0 1 0
vn 0 1 0
vn 0 1 0
vn 0 -1 0
vn 0 -1 0
vn 0 -1 0
vn 0 -1 0
vn 0 -1 0
vn 0 -1 0
vn 0 -1 0
vn 0 -1 0
vn 0 -1 0
vn 0 -1 0
vn 0 -1 0
vn 0 -1 0
vn 0 0 -1
vn 0 0 -1
vn 0 0 -1
vn 0 0 -1
vn 0 0 -1
vn 0 0 -1

vt 0.5888238 0.7664762
vt 0.5845333 0.7664762
vt 0.5845333 0.8201081
vt 0.5888238 0.8201081
vt 0.6016955 0.7664762
vt 0.597405 0.7664762
vt 0.5974049 0.8201081
vt 0.6016955 0.8201081
vt 0.597405 0.7664762
vt 0.5931144 0.7664762
vt 0.5931144 0.8201081
vt 0.5974049 0.8201081
vt 0.5931144 0.7664762
vt 0.5888238 0.7664762
vt 0.5888238 0.8201081
vt 0.5931144 0.8201081
vt 0.5152311 0.7907274
vt 0.5795895 0.7907275
vt 0.5795895 0.7864369
vt 0.5152311 0.7864369
vt 0.5394824 0.8063976
vt 0.5351918 0.8063976
vt 0.5351918 0.8600295
vt 0.5394824 0.8600295
vt 0.5416276 0.8063976
vt 0.5394824 0.8063976
vt 0.5394824 0.8600295
vt 0.5416276 0.8600295
vt 0.5351918 0.8063976
vt 0.5330466 0.8063976
vt 0.5330466 0.8600295
vt 0.5351918 0.8600295
vt 0.5330466 0.8063976
vt 0.528756 0.8063976
vt 0.5287561 0.8600295
vt 0.5330466 0.8600295
vt 0.5152311 0.8057444
vt 0.5795895 0.8057444
vt 0.5795895 0.8003812
vt 0.5152311 0.8003812
vt 0.5654594 0.8063976
vt 0.5611688 0.8063976
vt 0.5611688 0.8600293
vt 0.5654593 0.8600293
vt 0.5665321 0.8063976
vt 0.5654594 0.8063976
vt 0.5654593 0.8600293
vt 0.566532 0.8600293
vt 0.5611688 0.8063976
vt 0.5600961 0.8063976
vt 0.5600961 0.8600293
vt 0.5611688 0.8600293
vt 0.5600961 0.8063976
vt 0.5558056 0.8063976
vt 0.5558056 0.8600293
vt 0.5600961 0.8600293
vt 0.5152311 0.8003812
vt 0.5795895 0.8003812
vt 0.5795895 0.7960907
vt 0.5152311 0.7960907
vt 0.5725486 0.8063976
vt 0.5714759 0.8063976
vt 0.571476 0.8600293
vt 0.5725486 0.8600293
vt 0.5779119 0.8063976
vt 0.5768391 0.8063976
vt 0.5768391 0.8600293
vt 0.5779118 0.8600293
vt 0.5714759 0.8063976
vt 0.5671853 0.8063976
vt 0.5671855 0.8600293
vt 0.571476 0.8600293
vt 0.5768391 0.8063976
vt 0.5725486 0.8063976
vt 0.5725486 0.8600293
vt 0.5768391 0.8600293
vt 0.5152311 0.7960907
vt 0.5795895 0.7960907
vt 0.5795895 0.7907275
vt 0.5152311 0.7907274
vt 0.5487166 0.8063976
vt 0.5465714 0.8063976
vt 0.5465714 0.8600295
vt 0.5487166 0.8600295
vt 0.5551524 0.8063976
vt 0.5530072 0.8063976
vt 0.5530072 0.8600295
vt 0.5551524 0.8600295
vt 0.5465714 0.8063976
vt 0.5422808 0.8063976
vt 0.5422809 0.8600295
vt 0.5465714 0.8600295
vt 0.5530072 0.8063976
vt 0.5487166 0.8063976
vt 0.5487166 0.8600295
vt 0.5530072 0.8600295
vt 0.5838801 0.7960907
vt 0.5838801 0.7907275
vt 0.5795895 0.7907275
vt 0.5795895 0.7960907
vt 0.5195217 0.8063976
vt 0.5152311 0.8063976
vt 0.5152311 0.8600296
vt 0.5195217 0.8600296
vt 0.5281029 0.8063976
vt 0.5238123 0.8063976
vt 0.5238123 0.8600296
vt 0.5281028 0.8600296
vt 0.5152311 0.8063976
vt 0.5109406 0.8063976
vt 0.5109406 0.8600296
vt 0.5152311 0.8600296
vt 0.5238123 0.8063976
vt 0.5195217 0.8063976
vt 0.5195217 0.8600296
vt 0.5238123 0.8600296
vt 0.5109406 0.7960907
vt 0.5152311 0.7960907
vt 0.5152311 0.7907274
vt 0.5109406 0.7907274
vt 0.5152311 0.7707667
vt 0.5795895 0.7707667
vt 0.5795895 0.7664762
vt 0.5152311 0.7664762
vt 0.5152311 0.7857837
vt 0.5795895 0.7857836
vt 0.5795895 0.7804205
vt 0.5152311 0.7804205
vt 0.5152311 0.7804205
vt 0.5795895 0.7804205
vt 0.5795895 0.7761299
vt 0.5152311 0.7761299
vt 0.5152311 0.7761299
vt 0.5795895 0.7761299
vt 0.5795895 0.7707667
vt 0.5152311 0.7707667
vt 0.5838801 0.7761299
vt 0.5838801 0.7707667
vt 0.5795895 0.7707667
vt 0.5795895 0.7761299
vt 0.5109406 0.7761299
vt 0.5152311 0.7761299
vt 0.5152311 0.7707667
vt 0.5109406 0.7707667
vt 0.6023487 0.7954084
vt 0.6023487 0.7991287
vt 0.6098574 0.7991287
vt 0.6098574 0.7954084
vt 0.6023487 0.7943358
vt 0.6023487 0.7954084
vt 0.6098574 0.7954084
vt 0.6098574 0.7943358
vt 0.6023487 0.7991287
vt 0.6023487 0.8002014
vt 0.6098574 0.8002014
vt 0.6098574 0.7991287
vt 0.6023487 0.8002014
vt 0.6023487 0.8039216
vt 0.6098574 0.8039216
vt 0.6098574 0.8002014
vt 0.6003559 0.821834
vt 0.6003559 0.8255543
vt 0.6088492 0.8255543
vt 0.6088492 0.821834
vt 0.6003559 0.8207613
vt 0.6003559 0.821834
vt 0.6088492 0.821834
vt 0.6088492 0.8207613
vt 0.6003559 0.8255543
vt 0.6003559 0.8266269
vt 0.6088492 0.8266269
vt 0.6088492 0.8255543
vt 0.6003559 0.8266269
vt 0.6003559 0.8303472
vt 0.6088492 0.8303472
vt 0.6088492 0.8266269
vt 0.6077119 0.7664762
vt 0.6066393 0.7664762
vt 0.6066393 0.7791529
vt 0.6077119 0.7791529
vt 0.6130751 0.7664762
vt 0.6120025 0.7664762
vt 0.6120025 0.7791529
vt 0.6130751 0.7791529
vt 0.6066393 0.7664762
vt 0.6023487 0.7664762
vt 0.6023487 0.7791529
vt 0.6066393 0.7791529
vt 0.6120025 0.7664762
vt 0.6077119 0.7664762
vt 0.6077119 0.7791529
vt 0.6120025 0.7791529
vt 0.6077119 0.7791529
vt 0.6066393 0.7791529
vt 0.6066393 0.7834435
vt 0.6077119 0.7834435
vt 0.5883256 0.8321384
vt 0.5890841 0.8328968
vt 0.5966688 0.8253121
vt 0.5959103 0.8245537
vt 0.5845333 0.828346
vt 0.5852917 0.8291045
vt 0.5928764 0.8215198
vt 0.592118 0.8207613
vt 0.5890841 0.8328968
vt 0.592118 0.8359307
vt 0.5997027 0.828346
vt 0.5966688 0.8253121
vt 0.5852917 0.8291045
vt 0.5883256 0.8321384
vt 0.5959103 0.8245537
vt 0.5928764 0.8215198
vt 0.5959103 0.8245537
vt 0.5966688 0.8253121
vt 0.5997027 0.8222783
vt 0.5989442 0.8215198
vt 0.6023487 0.8104404
vt 0.6023487 0.8141608
vt 0.6097785 0.8141608
vt 0.6097785 0.8104404
vt 0.6023487 0.8093678
vt 0.6023487 0.8104404
vt 0.6097785 0.8104404
vt 0.6097785 0.8093678
vt 0.6023487 0.8045748
vt 0.6023487 0.8056475
vt 0.6097785 0.8056475
vt 0.6097785 0.8045748
vt 0.6023487 0.8056475
vt 0.6023487 0.8093678
vt 0.6097785 0.8093678
vt 0.6097785 0.8056475
vt 0.6023487 0.7851693
vt 0.6023487 0.7888896
vt 0.6099448 0.7888896
vt 0.6099448 0.7851693
vt 0.6023487 0.7840967
vt 0.6023487 0.7851693
vt 0.6099448 0.7851693
vt 0.6099448 0.7840967
vt 0.6023487 0.7888896
vt 0.6023487 0.7899622
vt 0.6099448 0.7899622
vt 0.6099448 0.7888896
vt 0.6023487 0.7899622
vt 0.6023487 0.7936826
vt 0.6099448 0.7936826
vt 0.6099448 0.7899622
vt 0.5845333 0.8516158
vt 0.5845333 0.8526884
vt 0.6038404 0.8526884
vt 0.6038404 0.8516158
vt 0.6038404 0.8526884
vt 0.6038413 0.8516158
vt 0.5845333 0.8468229
vt 0.5845333 0.8478955
vt 0.6038404 0.8478955
vt 0.6038404 0.8468229
vt 0.6038404 0.8478955
vt 0.6038404 0.8468229
vt 0.5845333 0.8413768
vt 0.5845333 0.8424494
vt 0.6038404 0.8424494
vt 0.6038404 0.8413768
vt 0.6038404 0.8424494
vt 0.6038413 0.8413768
vt 0.6038404 0.8424494
vt 0.6038422 0.8461697
vt 0.6038404 0.8424494
vt 0.6038404 0.8461697
vt 0.5845333 0.8424494
vt 0.5845333 0.8461697
vt 0.6038404 0.8526884
vt 0.6038422 0.8564087
vt 0.6038404 0.8526884
vt 0.6038404 0.8564087
vt 0.5845333 0.8526884
vt 0.5845333 0.8564087
vt 0.6038404 0.8478955
vt 0.6038413 0.8516158
vt 0.6038404 0.8478955
vt 0.6038404 0.8516158
vt 0.5845333 0.8478955
vt 0.5845333 0.8516158
vt 0.5845333 0.8376566
vt 0.5845333 0.8413768
vt 0.6038404 0.8413768
vt 0.6038404 0.8376566
vt 0.6038413 0.8413768
vt 0.6038404 0.8376566
vt 0.6038404 0.8365839
vt 0.6038404 0.8376566
vt 0.6038404 0.8365839
vt 0.6038404 0.8376566
vt 0.5845333 0.8365839
vt 0.5845333 0.8376566

usemtl LOW-POLY-COLORS
usemap LOW-POLY-COLORS
f 2/2/2 1/1/1 3/3/3
f 3/3/3 1/1/1 4/4/4
f 6/6/6 5/5/5 7/7/7
f 7/7/7 5/5/5 8/8/8
f 10/10/10 9/9/9 11/11/11
f 11/11/11 9/9/9 12/12/12
f 14/14/14 13/13/13 15/15/15
f 15/15/15 13/13/13 16/16/16
f 18/18/18 17/17/17 19/19/19
f 19/19/19 17/17/17 20/20/20
f 22/22/22 21/21/21 23/23/23
f 23/23/23 21/21/21 24/24/24
f 26/26/26 25/25/25 27/27/27
f 27/27/27 25/25/25 28/28/28
f 30/30/30 29/29/29 31/31/31
f 31/31/31 29/29/29 32/32/32
f 34/34/34 33/33/33 35/35/35
f 35/35/35 33/33/33 36/36/36
f 38/38/38 37/37/37 39/39/39
f 39/39/39 37/37/37 40/40/40
f 42/42/42 41/41/41 43/43/43
f 43/43/43 41/41/41 44/44/44
f 46/46/46 45/45/45 47/47/47
f 47/47/47 45/45/45 48/48/48
f 50/50/50 49/49/49 51/51/51
f 51/51/51 49/49/49 52/52/52
f 54/54/54 53/53/53 55/55/55
f 55/55/55 53/53/53 56/56/56
f 58/58/58 57/57/57 59/59/59
f 59/59/59 57/57/57 60/60/60
f 62/62/62 61/61/61 63/63/63
f 63/63/63 61/61/61 64/64/64
f 66/66/66 65/65/65 67/67/67
f 67/67/67 65/65/65 68/68/68
f 70/70/70 69/69/69 71/71/71
f 71/71/71 69/69/69 72/72/72
f 74/74/74 73/73/73 75/75/75
f 75/75/75 73/73/73 76/76/76
f 78/78/78 77/77/77 79/79/79
f 79/79/79 77/77/77 80/80/80
f 82/82/82 81/81/81 83/83/83
f 83/83/83 81/81/81 84/84/84
f 86/86/86 85/85/85 87/87/87
f 87/87/87 85/85/85 88/88/88
f 90/90/90 89/89/89 91/91/91
f 91/91/91 89/89/89 92/92/92
f 94/94/94 93/93/93 95/95/95
f 95/95/95 93/93/93 96/96/96
f 98/98/98 97/97/97 99/99/99
f 99/99/99 97/97/97 100/100/100
f 102/102/102 101/101/101 103/103/103
f 103/103/103 101/101/101 104/104/104
f 106/106/106 105/105/105 107/107/107
f 107/107/107 105/105/105 108/108/108
f 110/110/110 109/109/109 111/111/111
f 111/111/111 109/109/109 112/112/112
f 114/114/114 113/113/113 115/115/115
f 115/115/115 113/113/113 116/116/116
f 118/118/118 117/117/117 119/119/119
f 119/119/119 117/117/117 120/120/120
f 122/122/122 121/121/121 123/123/123
f 123/123/123 121/121/121 124/124/124
f 126/126/126 125/125/125 127/127/127
f 127/127/127 125/125/125 128/128/128
f 130/130/130 129/129/129 131/131/131
f 131/131/131 129/129/129 132/132/132
f 134/134/134 133/133/133 135/135/135
f 135/135/135 133/133/133 136/136/136
f 138/138/138 137/137/137 139/139/139
f 139/139/139 137/137/137 140/140/140
f 142/142/142 141/141/141 143/143/143
f 143/143/143 141/141/141 144/144/144
f 146/146/146 145/145/145 147/147/147
f 147/147/147 145/145/145 148/148/148
f 150/150/150 149/149/149 151/151/151
f 151/151/151 149/149/149 152/152/152
f 154/154/154 153/153/153 155/155/155
f 155/155/155 153/153/153 156/156/156
f 158/158/158 157/157/157 159/159/159
f 159/159/159 157/157/157 160/160/160
f 162/162/162 161/161/161 163/163/163
f 163/163/163 161/161/161 164/164/164
f 166/166/166 165/165/165 167/167/167
f 167/167/167 165/165/165 168/168/168
f 170/170/170 169/169/169 171/171/171
f 171/171/171 169/169/169 172/172/172
f 174/174/174 173/173/173 175/175/175
f 175/175/175 173/173/173 176/176/176
f 178/178/178 177/177/177 179/179/179
f 179/179/179 177/177/177 180/180/180
f 182/182/182 181/181/181 183/183/183
f 183/183/183 181/181/181 184/184/184
f 186/186/186 185/185/185 187/187/187
f 187/187/187 185/185/185 188/188/188
f 190/190/190 189/189/189 191/191/191
f 191/191/191 189/189/189 192/192/192
f 194/194/194 193/193/193 195/195/195
f 195/195/195 193/193/193 196/196/196
f 198/198/198 197/197/197 199/199/199
f 199/199/199 197/197/197 200/200/200
f 202/202/202 201/201/201 203/203/203
f 203/203/203 201/201/201 204/204/204
f 206/206/206 205/205/205 207/207/207
f 207/207/207 205/205/205 208/208/208
f 210/210/210 209/209/209 211/211/211
f 211/211/211 209/209/209 212/212/212
f 214/214/214 213/213/213 215/215/215
f 215/215/215 213/213/213 216/216/216
f 218/218/218 217/217/217 219/219/219
f 219/219/219 217/217/217 220/220/220
f 222/222/222 221/221/221 223/223/223
f 223/223/223 221/221/221 224/224/224
f 226/226/226 225/225/225 227/227/227
f 227/227/227 225/225/225 228/228/228
f 230/230/230 229/229/229 231/231/231
f 231/231/231 229/229/229 232/232/232
f 234/234/234 233/233/233 235/235/235
f 235/235/235 233/233/233 236/236/236
f 238/238/238 237/237/237 239/239/239
f 239/239/239 237/237/237 240/240/240
f 242/242/242 241/241/241 243/243/243
f 243/243/243 241/241/241 244/244/244
f 246/246/246 245/245/245 247/247/247
f 247/247/247 245/245/245 248/248/248
f 250/250/250 249/249/249 251/251/251
f 251/251/251 249/249/249 252/252/252
f 251/251/251 252/252/252 253/253/253
f 253/253/253 252/252/252 254/254/254
f 256/256/256 255/255/255 257/257/257
f 257/257/257 255/255/255 258/258/258
f 257/257/257 258/258/258 259/259/259
f 259/259/259 258/258/258 260/260/260
f 262/262/262 261/261/261 263/263/263
f 263/263/263 261/261/261 264/264/264
f 263/263/263 264/264/264 265/265/265
f 265/265/265 264/264/264 266/266/266
f 268/268/268 267/267/267 269/269/269
f 270/270/270 267/267/267 268/268/268
f 270/270/270 271/271/271 267/267/267
f 272/272/272 271/271/271 270/270/270
f 274/274/274 273/273/273 275/275/275
f 276/276/276 273/273/273 274/274/274
f 276/276/276 277/277/277 273/273/273
f 278/278/278 277/277/277 276/276/276
f 280/280/280 279/279/279 281/281/281
f 282/282/282 279/279/279 280/280/280
f 282/282/282 283/283/283 279/279/279
f 284/284/284 283/283/283 282/282/282
f 286/286/286 285/285/285 287/287/287
f 287/287/287 285/285/285 288/288/288
f 287/287/287 288/288/288 289/289/289
f 289/289/289 288/288/288 290/290/290
f 292/292/292 291/291/291 293/293/293
f 294/294/294 291/291/291 292/292/292
f 294/294/294 295/295/295 291/291/291
f 296/296/296 295/295/295 294/294/294
