mtllib ./house-wall-door_10.mtl
g house-wall-door
v -0.4499999 2.2 0.2
v -0.4499999 0.1 0.2
v -0.5499997 -1.490116E-08 0.2
v -0.5499999 2.3 0.2
v -0.4499999 2.2 0.2
v -0.5499999 2.3 0.2
v 0.55 2.3 0.2
v 0.45 2.2 0.2
v -1.5 -1.490116E-08 0.2
v -0.5499999 2.3 0.2
v -0.5499997 -1.490116E-08 0.2
v -1.5 3 0.2000001
v 1.5 3 0.2000001
v 0.55 2.3 0.2
v 1.5 -1.490116E-08 0.2
v 0.5500001 0 0.2
v -0.4499999 0.1 0.2
v 0.45 0.1 0.2
v 0.5500001 0 0.2
v -0.5499997 -1.490116E-08 0.2
v 0.45 2.2 0.2
v 0.45 2.2 3.099442E-06
v -0.4499999 2.2 3.099442E-06
v -0.4499999 2.2 0.2
v -0.4499999 2.2 0.2
v -0.4499999 2.2 3.099442E-06
v -0.4499999 0.1 3.039837E-06
v -0.4499999 0.1 0.2
v -0.4499999 0.1 0.2
v -0.4499999 0.1 3.039837E-06
v 0.45 0.1 3.039837E-06
v 0.45 0.1 0.2
v 0.45 2.2 0.2
v 0.55 2.3 0.2
v 0.5500001 0 0.2
v 0.45 0.1 0.2
v 0.45 2.2 0.2
v 0.45 0.1 0.2
v 0.45 0.1 3.039837E-06
v 0.45 2.2 3.099442E-06
v 1.5 -1.490116E-08 0.2
v 1.5 3 0.2000001
v 1.5 3 3.129244E-06
v 1.5 -1.490116E-08 3.039837E-06
v 1.5 3 0.2000001
v -1.5 3 0.2000001
v -1.5 3 3.129244E-06
v 1.5 3 3.129244E-06
v -1.5 -1.490116E-08 0.2
v -1.5 -1.490116E-08 3.039837E-06
v -1.5 3 3.129244E-06
v -1.5 3 0.2000001
v 0.5500001 0 0.2
v 0.5500001 0 3.039837E-06
v -0.5499997 -1.490116E-08 3.039837E-06
v -0.5499997 -1.490116E-08 0.2
v -0.5499997 -1.490116E-08 0.2
v -0.5499997 -1.490116E-08 3.039837E-06
v -1.5 -1.490116E-08 3.039837E-06
v -1.5 -1.490116E-08 0.2
v 1.5 -1.490116E-08 0.2
v 1.5 -1.490116E-08 3.039837E-06
v 0.5500001 0 3.039837E-06
v 0.5500001 0 0.2

vn 0 0 1
vn 0 0 1
vn 0 0 1
vn 0 0 1
vn 0 0 1
vn 0 0 1
vn 0 0 1
vn 0 0 1
vn 0 0 1
vn 0 0 1
vn 0 0 1
vn 0 0 1
vn 0 0 1
vn 0 0 1
vn 0 0 1
vn 0 0 1
vn 0 0 1
vn 0 0 1
vn 0 0 1
vn 0 0 1
vn 0 -1 0
vn 0 -1 0
vn 0 -1 0
vn 0 -1 0
vn 1 0 0
vn 1 0 0
vn 1 0 0
vn 1 0 0
vn 0 1 0
vn 0 1 0
vn 0 1 0
vn 0 1 0
vn 0 0 1
vn 0 0 1
vn 0 0 1
vn 0 0 1
vn -1 0 0
vn -1 0 0
vn -1 0 0
vn -1 0 0
vn 1 0 0
vn 1 0 0
vn 1 0 0
vn 1 0 0
vn 0 1 0
vn 0 1 0
vn 0 1 0
vn 0 1 0
vn -1 0 0
vn -1 0 0
vn -1 0 0
vn -1 0 0
vn 0 -1 0
vn 0 -1 0
vn 0 -1 0
vn 0 -1 0
vn 0 -1 0
vn 0 -1 0
vn 0 -1 0
vn 0 -1 0
vn 0 -1 0
vn 0 -1 0
vn 0 -1 0
vn 0 -1 0

vt 0.2296647 0.04112196
vt 0.1818904 0.0337593
vt 0.1850452 0.03839272
vt 0.227025 0.04292864
vt 0.2296647 0.04112196
vt 0.227025 0.04292864
vt 0.2245005 0.06854677
vt 0.2296647 0.07207721
vt 0.7672585 0.6371509
vt 0.7949968 0.7043068
vt 0.7949969 0.6371509
vt 0.7672584 0.7247456
vt 0.8548532 0.7247457
vt 0.8271149 0.7043069
vt 0.8548533 0.6371509
vt 0.8271149 0.6371509
vt 0.1818904 0.0337593
vt 0.1590592 0.07861477
vt 0.172405 0.07145822
vt 0.1850452 0.03839272
vt 0.2296647 0.07207721
vt 0.2365435 0.07207727
vt 0.2365435 0.04112196
vt 0.2296647 0.04112196
vt 0.2296647 0.04112196
vt 0.2303659 0.03657216
vt 0.1825916 0.02920943
vt 0.1818904 0.0337593
vt 0.1818904 0.0337593
vt 0.1719227 0.02868575
vt 0.1490915 0.07354128
vt 0.1590592 0.07861477
vt 0.2296647 0.07207721
vt 0.2245005 0.06854677
vt 0.172405 0.07145822
vt 0.1590592 0.07861477
vt 0.2296647 0.07207721
vt 0.1590592 0.07861477
vt 0.1596818 0.08533901
vt 0.2302873 0.07880151
vt 0.7330445 0.7688029
vt 0.7330444 0.8563976
vt 0.738884 0.8563976
vt 0.738884 0.7688029
vt 0.7330444 0.8563976
vt 0.6454496 0.8563975
vt 0.6454496 0.8622371
vt 0.7330444 0.8622371
vt 0.6454498 0.7688029
vt 0.6396102 0.7688028
vt 0.6396102 0.8563975
vt 0.6454496 0.8563975
vt 0.7053062 0.7688029
vt 0.7053062 0.7629633
vt 0.6731881 0.7629633
vt 0.6731881 0.7688029
vt 0.7949969 0.6371509
vt 0.7949969 0.6313114
vt 0.7672585 0.6313114
vt 0.7672585 0.6371509
vt 0.8548533 0.6371509
vt 0.8548533 0.6313114
vt 0.8271149 0.6313114
vt 0.8271149 0.6371509

usemtl LOW-POLY-COLORS
usemap LOW-POLY-COLORS
f 2/2/2 1/1/1 3/3/3
f 3/3/3 1/1/1 4/4/4
f 6/6/6 5/5/5 7/7/7
f 7/7/7 5/5/5 8/8/8
f 10/10/10 9/9/9 11/11/11
f 12/12/12 9/9/9 10/10/10
f 12/12/12 10/10/10 13/13/13
f 13/13/13 10/10/10 14/14/14
f 14/14/14 15/15/15 13/13/13
f 16/16/16 15/15/15 14/14/14
f 18/18/18 17/17/17 19/19/19
f 19/19/19 17/17/17 20/20/20
f 22/22/22 21/21/21 23/23/23
f 23/23/23 21/21/21 24/24/24
f 26/26/26 25/25/25 27/27/27
f 27/27/27 25/25/25 28/28/28
f 30/30/30 29/29/29 31/31/31
f 31/31/31 29/29/29 32/32/32
f 34/34/34 33/33/33 35/35/35
f 35/35/35 33/33/33 36/36/36
f 38/38/38 37/37/37 39/39/39
f 39/39/39 37/37/37 40/40/40
f 42/42/42 41/41/41 43/43/43
f 43/43/43 41/41/41 44/44/44
f 46/46/46 45/45/45 47/47/47
f 47/47/47 45/45/45 48/48/48
f 50/50/50 49/49/49 51/51/51
f 51/51/51 49/49/49 52/52/52
f 54/54/54 53/53/53 55/55/55
f 55/55/55 53/53/53 56/56/56
f 58/58/58 57/57/57 59/59/59
f 59/59/59 57/57/57 60/60/60
f 62/62/62 61/61/61 63/63/63
f 63/63/63 61/61/61 64/64/64
