mtllib ./house-roof-porch_14.mtl
g house-roof-porch
v -1.500004 3.139949 0.1917804
v -1.499996 4.228806 -3
v 1.5 4.228806 -3
v 1.499995 3.139949 0.1917804
v -1.499996 4.228806 -3
v -1.499986 4.029815 -3
v 1.500005 4.029814 -3
v 1.5 4.228806 -3
v 1.499995 3.139949 0.1917804
v 1.499996 2.96385 0.09852493
v -1.500002 2.96385 0.09852493
v -1.500004 3.139949 0.1917804
v -1.499996 4.228806 -3
v -1.500004 3.139949 0.1917804
v -1.500002 2.96385 0.09852493
v -1.499986 4.029815 -3
v 1.499996 2.96385 0.09852493
v 1.499995 3.139949 0.1917804
v 1.5 4.228806 -3
v 1.500005 4.029814 -3
v -1.499986 4.029815 -3
v -1.500002 2.96385 0.09852493
v 1.499996 2.96385 0.09852493
v 1.500005 4.029814 -3
v -1.500003 2.972975 0.0982182
v -1.500003 2.873071 0.1480253
v 1.499996 2.873071 0.1480253
v 1.499996 2.972975 0.0982182
v -1.500003 2.873071 0.1480253
v -1.500003 2.873071 0.2984111
v 1.499996 2.873071 0.2984111
v 1.499996 2.873071 0.1480253
v -1.500003 2.873071 0.2984111
v -1.500003 2.972975 0.3482182
v 1.499996 2.972975 0.3482182
v 1.499996 2.873071 0.2984111
v 1.499996 2.922657 0.2660137
v 1.499996 2.982394 0.2953367
v -1.500003 2.982394 0.2953367
v -1.500003 2.922657 0.2660137
v -1.500003 2.922657 0.2660137
v -1.500003 2.922657 0.1804227
v 1.499996 2.922657 0.1804227
v 1.499996 2.922657 0.2660137
v -1.500003 2.922657 0.1804227
v -1.500003 2.982394 0.1510997
v 1.499996 2.982394 0.1510997
v 1.499996 2.922657 0.1804227
v 1.499996 2.982394 0.1510997
v 1.499996 2.972975 0.0982182
v 1.499996 2.873071 0.1480253
v 1.499996 2.922657 0.1804227
v 1.499996 2.922657 0.1804227
v 1.499996 2.873071 0.1480253
v 1.499996 2.873071 0.2984111
v 1.499996 2.922657 0.2660137
v 1.499996 2.873071 0.2984111
v 1.499996 2.972975 0.3482182
v 1.499996 2.982394 0.2953367
v -1.500003 2.982394 0.2953367
v -1.500003 2.972975 0.3482182
v -1.500003 2.873071 0.2984111
v -1.500003 2.922657 0.2660137
v -1.500003 2.873071 0.1480253
v -1.500003 2.922657 0.1804227
v -1.500003 2.972975 0.0982182
v -1.500003 2.982394 0.1510997
v -1.500003 2.982394 0.1510997
v -1.500003 2.972975 0.0982182
v 1.499996 2.972975 0.0982182
v 1.499996 2.982394 0.1510997
v 1.499996 2.982394 0.2953367
v 1.499996 2.972975 0.3482182
v -1.500003 2.972975 0.3482182
v -1.500003 2.982394 0.2953367

vn 0 0.9464422 0.3228732
vn 0 0.9464422 0.3228732
vn 0 0.9464422 0.3228732
vn 0 0.9464422 0.3228732
vn 0 1.597519E-06 -1
vn 0 1.597519E-06 -1
vn 0 1.597519E-06 -1
vn 0 1.597519E-06 -1
vn 0 -0.4679932 0.883732
vn 0 -0.4679932 0.883732
vn 0 -0.4679932 0.883732
vn 0 -0.4679932 0.883732
vn -1 -2.901329E-05 -1.359533E-05
vn -1 -2.901329E-05 -1.359533E-05
vn -1 -2.901329E-05 -1.359533E-05
vn -1 -2.901329E-05 -1.359533E-05
vn 1 1.707733E-05 8.008189E-06
vn 1 1.707733E-05 8.008189E-06
vn 1 1.707733E-05 8.008189E-06
vn 1 1.707733E-05 8.008189E-06
vn -1.940284E-07 -0.9456071 -0.3253109
vn -1.940284E-07 -0.9456071 -0.3253109
vn -1.940284E-07 -0.9456071 -0.3253109
vn -1.940284E-07 -0.9456071 -0.3253109
vn 0 -0.4461754 -0.8949455
vn 0 -0.4461754 -0.8949455
vn 0 -0.4461754 -0.8949455
vn 0 -0.4461754 -0.8949455
vn 0 -1 0
vn 0 -1 0
vn 0 -1 0
vn 0 -1 0
vn 0 -0.4461754 0.8949455
vn 0 -0.4461754 0.8949455
vn 0 -0.4461754 0.8949455
vn 0 -0.4461754 0.8949455
vn 0 0.4406451 -0.8976814
vn 0 0.4406451 -0.8976814
vn 0 0.4406451 -0.8976814
vn 0 0.4406451 -0.8976814
vn 0 1 0
vn 0 1 0
vn 0 1 0
vn 0 1 0
vn 0 0.4406451 0.8976814
vn 0 0.4406451 0.8976814
vn 0 0.4406451 0.8976814
vn 0 0.4406451 0.8976814
vn 1 0 3.260111E-06
vn 1 0 3.260111E-06
vn 1 0 3.260111E-06
vn 1 0 3.260111E-06
vn 1 0 0
vn 1 0 0
vn 1 0 0
vn 1 0 0
vn 1 0 -3.260122E-06
vn 1 0 -3.260122E-06
vn 1 0 -3.260122E-06
vn -1 0 0
vn -1 0 0
vn -1 0 0
vn -1 0 0
vn -1 0 0
vn -1 0 0
vn -1 0 0
vn -1 0 0
vn 0 0.9845076 -0.1753418
vn 0 0.9845076 -0.1753418
vn 0 0.9845076 -0.1753418
vn 0 0.9845076 -0.1753418
vn 0 0.9845076 0.1753418
vn 0 0.9845076 0.1753418
vn 0 0.9845076 0.1753418
vn 0 0.9845076 0.1753418

vt 0.09334014 0.8132823
vt 0.09334001 0.762466
vt 0.04813508 0.762466
vt 0.04813516 0.8132824
vt 0.09334001 0.762466
vt 0.09333986 0.7594675
vt 0.04813502 0.7594674
vt 0.04813508 0.762466
vt 0.09695405 0.8658523
vt 0.09695408 0.8628497
vt 0.05174923 0.8628497
vt 0.05174918 0.8658523
vt 0.09334001 0.762466
vt 0.09334014 0.8132823
vt 0.09630515 0.8128092
vt 0.09617788 0.7634341
vt 0.04517011 0.8128092
vt 0.04813516 0.8132824
vt 0.04813508 0.762466
vt 0.04529721 0.7634341
vt 0.09454533 0.8135499
vt 0.04517011 0.8135498
vt 0.04517022 0.8587547
vt 0.09454547 0.8587547
vt 0.4237722 0.6922696
vt 0.4247137 0.6940039
vt 0.4669336 0.6941685
vt 0.4678322 0.6922846
vt 0.4247137 0.6940039
vt 0.4248192 0.6964707
vt 0.4670391 0.6966352
vt 0.4669336 0.6941685
vt 0.4248192 0.6964707
vt 0.4239206 0.6983547
vt 0.4679806 0.6983695
vt 0.4670391 0.6966352
vt 0.46798 0.7001362
vt 0.4679803 0.6991586
vt 0.4239203 0.6991435
vt 0.42392 0.7001209
vt 0.42392 0.7001209
vt 0.4239195 0.701378
vt 0.4679796 0.7013932
vt 0.46798 0.7001362
vt 0.4237728 0.6905029
vt 0.4237725 0.6914805
vt 0.4678325 0.6914958
vt 0.4678328 0.6905184
vt 0.4686695 0.693148
vt 0.4678322 0.6922846
vt 0.4669336 0.6941685
vt 0.4679283 0.6944404
vt 0.4679283 0.6944404
vt 0.4669336 0.6941685
vt 0.4670391 0.6966352
vt 0.468132 0.696284
vt 0.4670391 0.6966352
vt 0.4679806 0.6983695
vt 0.4688149 0.697556
vt 0.4230833 0.6974913
vt 0.4239206 0.6983547
vt 0.4248192 0.6964707
vt 0.4238245 0.6961988
vt 0.4247137 0.6940039
vt 0.4236208 0.6943551
vt 0.4237722 0.6922696
vt 0.4229379 0.6930831
vt 0.4237725 0.6914805
vt 0.4237722 0.6922696
vt 0.4678322 0.6922846
vt 0.4678325 0.6914958
vt 0.4679803 0.6991586
vt 0.4679806 0.6983695
vt 0.4239206 0.6983547
vt 0.4239203 0.6991435

usemtl LOW-POLY-COLORS
usemap LOW-POLY-COLORS
f 2/2/2 1/1/1 3/3/3
f 3/3/3 1/1/1 4/4/4
f 6/6/6 5/5/5 7/7/7
f 7/7/7 5/5/5 8/8/8
f 10/10/10 9/9/9 11/11/11
f 11/11/11 9/9/9 12/12/12
f 14/14/14 13/13/13 15/15/15
f 15/15/15 13/13/13 16/16/16
f 18/18/18 17/17/17 19/19/19
f 19/19/19 17/17/17 20/20/20
f 22/22/22 21/21/21 23/23/23
f 23/23/23 21/21/21 24/24/24
f 26/26/26 25/25/25 27/27/27
f 27/27/27 25/25/25 28/28/28
f 30/30/30 29/29/29 31/31/31
f 31/31/31 29/29/29 32/32/32
f 34/34/34 33/33/33 35/35/35
f 35/35/35 33/33/33 36/36/36
f 38/38/38 37/37/37 39/39/39
f 39/39/39 37/37/37 40/40/40
f 42/42/42 41/41/41 43/43/43
f 43/43/43 41/41/41 44/44/44
f 46/46/46 45/45/45 47/47/47
f 47/47/47 45/45/45 48/48/48
f 50/50/50 49/49/49 51/51/51
f 51/51/51 49/49/49 52/52/52
f 54/54/54 53/53/53 55/55/55
f 55/55/55 53/53/53 56/56/56
f 57/57/57 56/56/56 58/58/58
f 58/58/58 56/56/56 59/59/59
f 61/61/61 60/60/60 62/62/62
f 62/62/62 60/60/60 63/63/63
f 62/62/62 63/63/63 64/64/64
f 64/64/64 63/63/63 65/65/65
f 64/64/64 65/65/65 66/66/66
f 66/66/66 65/65/65 67/67/67
f 69/69/69 68/68/68 70/70/70
f 70/70/70 68/68/68 71/71/71
f 73/73/73 72/72/72 74/74/74
f 74/74/74 72/72/72 75/75/75
