mtllib ./house-wall_19.mtl
g house-wall
v 1.5 -1.490116E-08 0.2
v -1.5 -1.490116E-08 0.2
v -1.5 3 0.2000001
v 1.5 3 0.2000001
v -1.5 0 0
v -1.5 -1.490116E-08 0.2
v 1.5 -1.490116E-08 0.2
v 1.5 0 0
v 1.5 -1.490116E-08 0.2
v 1.5 3 0.2000001
v 1.5 3 1.341105E-07
v 1.5 0 0
v 1.5 3 0.2000001
v -1.5 3 0.2000001
v -1.5 3 1.341105E-07
v 1.5 3 1.341105E-07
v -1.5 -1.490116E-08 0.2
v -1.5 0 0
v -1.5 3 1.341105E-07
v -1.5 3 0.2000001

vn 0 0 1
vn 0 0 1
vn 0 0 1
vn 0 0 1
vn 0 -1 0
vn 0 -1 0
vn 0 -1 0
vn 0 -1 0
vn 1 0 0
vn 1 0 0
vn 1 0 0
vn 1 0 0
vn 0 1 0
vn 0 1 0
vn 0 1 0
vn 0 1 0
vn -1 0 0
vn -1 0 0
vn -1 0 0
vn -1 0 0

vt 0.8609367 0.6307328
vt 0.7593067 0.6307329
vt 0.7593067 0.7323629
vt 0.8609368 0.7323629
vt 0.6309569 0.8538243
vt 0.6309569 0.8603817
vt 0.7293162 0.8603816
vt 0.7293162 0.8538243
vt 0.7366734 0.755065
vt 0.7366734 0.8534244
vt 0.7432306 0.8534244
vt 0.7432306 0.755065
vt 0.7293162 0.8607816
vt 0.6309569 0.8607816
vt 0.6309569 0.8673388
vt 0.7293162 0.8673388
vt 0.7362735 0.755065
vt 0.7297161 0.755065
vt 0.7297161 0.8534244
vt 0.7362734 0.8534244

usemtl LOW-POLY-COLORS
usemap LOW-POLY-COLORS
f 2/2/2 1/1/1 3/3/3
f 3/3/3 1/1/1 4/4/4
f 6/6/6 5/5/5 7/7/7
f 7/7/7 5/5/5 8/8/8
f 10/10/10 9/9/9 11/11/11
f 11/11/11 9/9/9 12/12/12
f 14/14/14 13/13/13 15/15/15
f 15/15/15 13/13/13 16/16/16
f 18/18/18 17/17/17 19/19/19
f 19/19/19 17/17/17 20/20/20
