mtllib ./shutter-window-two_2.mtl
g shutter-window-two
v 1.001161 0.75 -0.0250015
v 1.66893E-06 0.75 -0.0250015
v 1.66893E-06 -0.75 -0.0250015
v 1.001161 -0.75 -0.0250015
v 1.001161 0.75 0.02499849
v 1.001161 -0.75 0.02499849
v 1.66893E-06 -0.75 0.02499849
v 1.66893E-06 0.75 0.02499849
v 1.001161 -0.75 -0.0250015
v 1.001161 -0.75 0.02499849
v 1.001161 0.75 0.02499849
v 1.001161 0.75 -0.0250015
v 1.66893E-06 -0.75 -0.0250015
v 1.66893E-06 -0.75 0.02499849
v 1.001161 -0.75 0.02499849
v 1.001161 -0.75 -0.0250015
v 1.66893E-06 0.75 -0.0250015
v 1.66893E-06 0.75 0.02499849
v 1.66893E-06 -0.75 0.02499849
v 1.66893E-06 -0.75 -0.0250015
v 1.001161 0.75 -0.0250015
v 1.001161 0.75 0.02499849
v 1.66893E-06 0.75 0.02499849
v 1.66893E-06 0.75 -0.0250015

vn 0 0 -1
vn 0 0 -1
vn 0 0 -1
vn 0 0 -1
vn 0 0 1
vn 0 0 1
vn 0 0 1
vn 0 0 1
vn 1 0 0
vn 1 0 0
vn 1 0 0
vn 1 0 0
vn 0 -1 0
vn 0 -1 0
vn 0 -1 0
vn 0 -1 0
vn -1 0 0
vn -1 0 0
vn -1 0 0
vn -1 0 0
vn 0 1 0
vn 0 1 0
vn 0 1 0
vn 0 1 0

vt 0.3577603 0.4034145
vt 0.3137228 0.4034145
vt 0.3137228 0.4693942
vt 0.3577603 0.4693941
vt 0.267486 0.4034145
vt 0.2674861 0.4693942
vt 0.3115235 0.4693941
vt 0.3115235 0.4034145
vt 0.2652867 0.4693942
vt 0.2674861 0.4693942
vt 0.267486 0.4034145
vt 0.2652867 0.4034145
vt 0.3115235 0.4715935
vt 0.3115235 0.4693941
vt 0.2674861 0.4693942
vt 0.2674861 0.4715935
vt 0.3137228 0.4034145
vt 0.3115235 0.4034145
vt 0.3115235 0.4693941
vt 0.3137228 0.4693942
vt 0.267486 0.4012152
vt 0.267486 0.4034145
vt 0.3115235 0.4034145
vt 0.3115235 0.4012152

usemtl LOW-POLY-COLORS
usemap LOW-POLY-COLORS
f 2/2/2 1/1/1 3/3/3
f 3/3/3 1/1/1 4/4/4
f 6/6/6 5/5/5 7/7/7
f 7/7/7 5/5/5 8/8/8
f 10/10/10 9/9/9 11/11/11
f 11/11/11 9/9/9 12/12/12
f 14/14/14 13/13/13 15/15/15
f 15/15/15 13/13/13 16/16/16
f 18/18/18 17/17/17 19/19/19
f 19/19/19 17/17/17 20/20/20
f 22/22/22 21/21/21 23/23/23
f 23/23/23 21/21/21 24/24/24
