mtllib ./shutter-window_12.mtl
g shutter-window
v 0.549997 0.75 -0.0250015
v -6.049871E-06 0.75 -0.0250015
v -6.049871E-06 -0.75 -0.0250015
v 0.549997 -0.75 -0.0250015
v 0.549997 0.75 0.02499849
v 0.549997 -0.75 0.02499849
v -6.049871E-06 -0.75 0.02499849
v -6.049871E-06 0.75 0.02499849
v 0.549997 -0.75 -0.0250015
v 0.549997 -0.75 0.02499849
v 0.549997 0.75 0.02499849
v 0.549997 0.75 -0.0250015
v -6.049871E-06 -0.75 -0.0250015
v -6.049871E-06 -0.75 0.02499849
v 0.549997 -0.75 0.02499849
v 0.549997 -0.75 -0.0250015
v -6.049871E-06 0.75 -0.0250015
v -6.049871E-06 0.75 0.02499849
v -6.049871E-06 -0.75 0.02499849
v -6.049871E-06 -0.75 -0.0250015
v 0.549997 0.75 -0.0250015
v 0.549997 0.75 0.02499849
v -6.049871E-06 0.75 0.02499849
v -6.049871E-06 0.75 -0.0250015

vn 0 0 -1
vn 0 0 -1
vn 0 0 -1
vn 0 0 -1
vn 0 0 1
vn 0 0 1
vn 0 0 1
vn 0 0 1
vn 1 0 0
vn 1 0 0
vn 1 0 0
vn 1 0 0
vn 0 -1 0
vn 0 -1 0
vn 0 -1 0
vn 0 -1 0
vn -1 0 0
vn -1 0 0
vn -1 0 0
vn -1 0 0
vn 0 1 0
vn 0 1 0
vn 0 1 0
vn 0 1 0

vt 0.2744964 0.4777086
vt 0.3068475 0.4777086
vt 0.3068475 0.3894789
vt 0.2744964 0.3894789
vt 0.3421396 0.4777086
vt 0.3421396 0.3894789
vt 0.3097885 0.3894789
vt 0.3097885 0.4777086
vt 0.3450806 0.3894789
vt 0.3421396 0.3894789
vt 0.3421396 0.4777086
vt 0.3450806 0.4777086
vt 0.3097885 0.3865379
vt 0.3097885 0.3894789
vt 0.3421396 0.3894789
vt 0.3421396 0.3865379
vt 0.3068475 0.4777086
vt 0.3097885 0.4777086
vt 0.3097885 0.3894789
vt 0.3068475 0.3894789
vt 0.3421396 0.4806496
vt 0.3421396 0.4777086
vt 0.3097885 0.4777086
vt 0.3097885 0.4806496

usemtl LOW-POLY-COLORS
usemap LOW-POLY-COLORS
f 2/2/2 1/1/1 3/3/3
f 3/3/3 1/1/1 4/4/4
f 6/6/6 5/5/5 7/7/7
f 7/7/7 5/5/5 8/8/8
f 10/10/10 9/9/9 11/11/11
f 11/11/11 9/9/9 12/12/12
f 14/14/14 13/13/13 15/15/15
f 15/15/15 13/13/13 16/16/16
f 18/18/18 17/17/17 19/19/19
f 19/19/19 17/17/17 20/20/20
f 22/22/22 21/21/21 23/23/23
f 23/23/23 21/21/21 24/24/24
