mtllib ./floe-deep_2.mtl
g floe-deep
v -1.417561 -0.1355513 -1.227897
v -1.137561 -0.7403591 -1.02166
v -0.6598729 -0.1355511 -2.648177
v -0.2549787 -2.015184 -0.8175905
v -0.2381232 -1.313155 -1.446211
v -0.7726311 -1.361115 -0.7665619
v -0.7548317 -0.771057 1.557673
v -0.9419058 -0.1355516 1.69156
v -0.3513685 -0.135552 3.522039
v -0.2765654 -1.023373 3.16944
v 0.6519666 -0.9250274 2.572974
v -0.203088 -1.319352 2.249331
v -0.5236011 -0.8182455 -2.271969
v -1.137561 -0.7403591 -1.02166
v -0.2381232 -1.313155 -1.446211
v 0.7993176 -1.132649 -0.1063894
v 0.3701959 -1.76757 -0.4437379
v 0.4680308 -1.571371 0.803189
v -0.6598729 -0.1355511 -2.648177
v -1.137561 -0.7403591 -1.02166
v -0.5236011 -0.8182455 -2.271969
v -0.7726311 -1.361115 -0.7665619
v -0.2381232 -1.313155 -1.446211
v -1.137561 -0.7403591 -1.02166
v -0.6523052 -1.359736 0.6761759
v -1.370141 -0.1355514 0.2651783
v -0.7548317 -0.771057 1.557673
v -0.3594697 -1.798541 1.010422
v -0.5398623 -2.012196 -0.2131396
v -0.7548317 -0.771057 1.557673
v -0.6523052 -1.359736 0.6761759
v -0.2381232 -1.313155 -1.446211
v -0.2549787 -2.015184 -0.8175905
v 0.3701959 -1.76757 -0.4437379
v -0.203088 -1.319352 2.249331
v 0.0836694 -1.612324 1.625935
v -0.3594697 -1.798541 1.010422
v 0.7993176 -1.132649 -0.1063894
v 1.321202 -0.1355519 0.04112523
v 1.115693 -0.7368534 -1.02123
v -0.203088 -1.319352 2.249331
v 0.6519666 -0.9250274 2.572974
v 0.0836694 -1.612324 1.625935
v -0.2381232 -1.313155 -1.446211
v 0.4878403 -0.7608847 -1.832028
v -0.5236011 -0.8182455 -2.271969
v 1.012279 -0.7541807 1.197252
v 1.268876 -0.135552 1.284361
v 1.321202 -0.1355519 0.04112523
v 1.115693 -0.7368534 -1.02123
v 0.3701959 -1.76757 -0.4437379
v 0.7993176 -1.132649 -0.1063894
v 1.545976 -0.1355518 -1.38878
v 1.115693 -0.7368534 -1.02123
v 1.321202 -0.1355519 0.04112523
v -0.5398623 -2.012196 -0.2131396
v -0.2549787 -2.015184 -0.8175905
v -0.7726311 -1.361115 -0.7665619
v -1.370141 -0.1355514 0.2651783
v -1.137561 -0.7403591 -1.02166
v -1.417561 -0.1355513 -1.227897
v -0.9419058 -0.1355516 1.69156
v -0.7548317 -0.771057 1.557673
v -1.370141 -0.1355514 0.2651783
v 0.0836694 -1.612324 1.625935
v 0.4680308 -1.571371 0.803189
v -0.3594697 -1.798541 1.010422
v -0.5398623 -2.012196 -0.2131396
v 0.4680308 -1.571371 0.803189
v 0.3701959 -1.76757 -0.4437379
v -0.3594697 -1.798541 1.010422
v -0.7548317 -0.771057 1.557673
v -0.203088 -1.319352 2.249331
v 0.4680308 -1.571371 0.803189
v 0.0836694 -1.612324 1.625935
v 1.012279 -0.7541807 1.197252
v 0.4878403 -0.7608847 -1.832028
v 1.115693 -0.7368534 -1.02123
v 0.6122604 -0.1355513 -2.424654
v 0.6519666 -0.9250274 2.572974
v -0.2765654 -1.023373 3.16944
v 0.8401725 -0.135552 2.84123
v -0.5398623 -2.012196 -0.2131396
v 0.3701959 -1.76757 -0.4437379
v -0.2549787 -2.015184 -0.8175905
v 1.012279 -0.7541807 1.197252
v 0.0836694 -1.612324 1.625935
v 0.6519666 -0.9250274 2.572974
v 0.6122604 -0.1355513 -2.424654
v 1.115693 -0.7368534 -1.02123
v 1.545976 -0.1355518 -1.38878
v 0.8401725 -0.135552 2.84123
v -0.2765654 -1.023373 3.16944
v -0.3513685 -0.135552 3.522039
v -0.6523052 -1.359736 0.6761759
v -0.5398623 -2.012196 -0.2131396
v -0.7726311 -1.361115 -0.7665619
v 1.268876 -0.135552 1.284361
v 0.6519666 -0.9250274 2.572974
v 0.8401725 -0.135552 2.84123
v 1.268876 -0.135552 1.284361
v 1.012279 -0.7541807 1.197252
v 0.6519666 -0.9250274 2.572974
v 0.7688311 0.3841999 -0.7229208
v -0.371891 0.3842002 -1.55748
v 0.3355033 0.3842 -1.266297
v -0.7928276 0.3842001 -0.7229208
v 0.5955923 0.3841996 0.6795183
v -0.6133933 0.3841999 0.7600586
v 0.6255293 0.3841997 1.110831
v 0.4175635 0.3841997 1.289372
v 0.03136948 0.3841997 1.70593
v -0.7928276 0.3842001 -0.7229208
v -0.6133933 0.3841999 0.7600586
v -0.6488472 -0.1355516 0.725198
v -0.8388169 -0.1355514 -0.6824025
v 0.3355033 0.3842 -1.266297
v -0.371891 0.3842002 -1.55748
v -0.3931653 -0.1355514 -1.474541
v 0.3557629 -0.1355516 -1.198159
v 0.5955923 0.3841996 0.6795183
v 0.7688311 0.3841999 -0.7229208
v 0.8145334 -0.1355517 -0.6824025
v 0.6311228 -0.1355518 0.6487515
v -0.6133933 0.3841999 0.7600586
v 0.03136948 0.3841997 1.70593
v 0.03377222 -0.1355519 1.622991
v -0.6488472 -0.1355516 0.725198
v -0.371891 0.3842002 -1.55748
v -0.7928276 0.3842001 -0.7229208
v -0.8388169 -0.1355514 -0.6824025
v -0.3931653 -0.1355514 -1.474541
v 0.7688311 0.3841999 -0.7229208
v 0.3355033 0.3842 -1.266297
v 0.3557629 -0.1355516 -1.198159
v 0.8145334 -0.1355517 -0.6824025
v 0.6255293 0.3841997 1.110831
v 0.5955923 0.3841996 0.6795183
v 0.6311228 -0.1355518 0.6487515
v 0.6725122 -0.1355519 1.067021
v 0.03136948 0.3841997 1.70593
v 0.4175635 0.3841997 1.289372
v 0.4485422 -0.1355519 1.23252
v 0.03377222 -0.1355519 1.622991
v 0.4175635 0.3841997 1.289372
v 0.6255293 0.3841997 1.110831
v 0.6725122 -0.1355519 1.067021
v 0.4485422 -0.1355519 1.23252
v -0.7548317 -0.771057 1.557673
v -0.3513685 -0.135552 3.522039
v -0.2765654 -1.023373 3.16944
v -0.203088 -1.319352 2.249331
v -0.6598729 -0.1355511 -2.648177
v -0.5236011 -0.8182455 -2.271969
v 0.4878403 -0.7608847 -1.832028
v 0.6122604 -0.1355513 -2.424654
v 1.321202 -0.1355519 0.04112523
v 0.7993176 -1.132649 -0.1063894
v 0.4680308 -1.571371 0.803189
v 1.012279 -0.7541807 1.197252
v -0.2381232 -1.313155 -1.446211
v 0.3701959 -1.76757 -0.4437379
v 1.115693 -0.7368534 -1.02123
v 0.4878403 -0.7608847 -1.832028
v -0.6523052 -1.359736 0.6761759
v -1.137561 -0.7403591 -1.02166
v -1.370141 -0.1355514 0.2651783
v -0.7726311 -1.361115 -0.7665619
v 0.3557629 -0.1355516 -1.198159
v 0.6122604 -0.1355513 -2.424654
v 1.545976 -0.1355518 -1.38878
v -0.6598729 -0.1355511 -2.648177
v 0.8145334 -0.1355517 -0.6824025
v -0.3931653 -0.1355514 -1.474541
v 0.6311228 -0.1355518 0.6487515
v -0.8388169 -0.1355514 -0.6824025
v 1.321202 -0.1355519 0.04112523
v -1.417561 -0.1355513 -1.227897
v 0.6725122 -0.1355519 1.067021
v 1.268876 -0.135552 1.284361
v -0.6488472 -0.1355516 0.725198
v -1.370141 -0.1355514 0.2651783
v -0.9419058 -0.1355516 1.69156
v 0.8401725 -0.135552 2.84123
v 0.4485422 -0.1355519 1.23252
v 0.03377222 -0.1355519 1.622991
v -0.3513685 -0.135552 3.522039

vn -0.7668616 -0.4945273 -0.4091038
vn -0.7668616 -0.4945273 -0.4091038
vn -0.7668616 -0.4945273 -0.4091038
vn -0.6698135 -0.4863387 -0.5610921
vn -0.6698135 -0.4863387 -0.5610921
vn -0.6698135 -0.4863387 -0.5610921
vn -0.8997083 -0.325999 0.2902579
vn -0.8997083 -0.325999 0.2902579
vn -0.8997083 -0.325999 0.2902579
vn 0.2971022 -0.9018033 0.3138169
vn 0.2971022 -0.9018033 0.3138169
vn 0.2971022 -0.9018033 0.3138169
vn -0.6009059 -0.7599612 -0.2477316
vn -0.6009059 -0.7599612 -0.2477316
vn -0.6009059 -0.7599612 -0.2477316
vn 0.8220403 -0.5688798 0.02501285
vn 0.8220403 -0.5688798 0.02501285
vn 0.8220403 -0.5688798 0.02501285
vn -0.8389516 -0.3813878 -0.3882056
vn -0.8389516 -0.3813878 -0.3882056
vn -0.8389516 -0.3813878 -0.3882056
vn -0.6192945 -0.5810691 -0.5280464
vn -0.6192945 -0.5810691 -0.5280464
vn -0.6192945 -0.5810691 -0.5280464
vn -0.8731818 -0.4460943 0.1963501
vn -0.8731818 -0.4460943 0.1963501
vn -0.8731818 -0.4460943 0.1963501
vn -0.8789988 -0.4306094 0.2047845
vn -0.8789988 -0.4306094 0.2047845
vn -0.8774906 -0.439675 0.191562
vn -0.8774906 -0.439675 0.191562
vn 0.5780202 -0.5520134 -0.6009775
vn 0.5780202 -0.5520134 -0.6009775
vn 0.5780202 -0.5520134 -0.6009775
vn -0.1304047 -0.9190537 0.3719343
vn -0.1304047 -0.9190537 0.3719343
vn -0.1304047 -0.9190537 0.3719343
vn 0.8756475 -0.4728518 0.0982471
vn 0.8756475 -0.4728518 0.0982471
vn 0.8756475 -0.4728518 0.0982471
vn 0.2042294 -0.8464509 0.4917432
vn 0.2042294 -0.8464509 0.4917432
vn 0.2042294 -0.8464509 0.4917432
vn 0.2890625 -0.7737625 -0.5636794
vn 0.2890625 -0.7737625 -0.5636794
vn 0.2890625 -0.7737625 -0.5636794
vn 0.9210556 -0.3874969 0.03876545
vn 0.9210556 -0.3874969 0.03876545
vn 0.9210556 -0.3874969 0.03876545
vn 0.819119 -0.5725192 0.03557803
vn 0.819119 -0.5725192 0.03557803
vn 0.819119 -0.5725192 0.03557803
vn 0.8426031 -0.5219924 0.132453
vn 0.8426031 -0.5219924 0.132453
vn 0.8426031 -0.5219924 0.132453
vn -0.7477306 -0.5645027 -0.3496221
vn -0.7477306 -0.5645027 -0.3496221
vn -0.7477306 -0.5645027 -0.3496221
vn -0.9108135 -0.4118033 0.02892688
vn -0.9108135 -0.4118033 0.02892688
vn -0.9108135 -0.4118033 0.02892688
vn -0.9060901 -0.3240371 0.2720307
vn -0.9060901 -0.3240371 0.2720307
vn -0.9060901 -0.3240371 0.2720307
vn 0.283489 -0.9552108 0.08489025
vn 0.283489 -0.9552108 0.08489025
vn 0.2891755 -0.9490947 0.1248875
vn 0.2891755 -0.9490947 0.1248875
vn 0.2891755 -0.9490947 0.1248875
vn 0.2891755 -0.9490947 0.1248875
vn -0.8321495 -0.4737369 0.2882716
vn -0.8321495 -0.4737369 0.2882716
vn -0.8321495 -0.4737369 0.2882716
vn 0.7184745 -0.6253489 0.304521
vn 0.7184745 -0.6253489 0.304521
vn 0.7184745 -0.6253489 0.304521
vn 0.6479338 -0.587898 -0.4843117
vn 0.6479338 -0.587898 -0.4843117
vn 0.6479338 -0.587898 -0.4843117
vn 0.5275789 -0.3833615 0.7580861
vn 0.5275789 -0.3833615 0.7580861
vn 0.5275789 -0.3833615 0.7580861
vn 0.2902532 -0.9464339 0.1414778
vn 0.2902532 -0.9464339 0.1414778
vn 0.2902532 -0.9464339 0.1414778
vn 0.698928 -0.7088511 0.0950248
vn 0.698928 -0.7088511 0.0950248
vn 0.698928 -0.7088511 0.0950248
vn 0.541002 -0.6852123 -0.4876483
vn 0.541002 -0.6852123 -0.4876483
vn 0.541002 -0.6852123 -0.4876483
vn 0.474779 -0.2900108 0.8309505
vn 0.474779 -0.2900108 0.8309505
vn 0.474779 -0.2900108 0.8309505
vn -0.9582576 -0.2744327 0.08018199
vn -0.9582576 -0.2744327 0.08018199
vn -0.9582576 -0.2744327 0.08018199
vn 0.9182349 -0.3048163 0.2528474
vn 0.9182349 -0.3048163 0.2528474
vn 0.9182349 -0.3048163 0.2528474
vn 0.8980969 -0.398665 0.1857098
vn 0.8980969 -0.398665 0.1857098
vn 0.8980969 -0.398665 0.1857098
vn 1.145142E-07 1 1.718069E-07
vn 1.145142E-07 1 1.718069E-07
vn 1.145142E-07 1 1.718069E-07
vn 1.145142E-07 1 1.718069E-07
vn 1.789265E-07 1 1.442218E-07
vn 1.789265E-07 1 1.442218E-07
vn 1.457309E-07 1 0
vn 1.880655E-07 1 0
vn 1.880655E-07 1 0
vn -0.9888979 0.07816622 0.126377
vn -0.9888979 0.07816622 0.126377
vn -0.9888979 0.07816622 0.126377
vn -0.9888979 0.07816622 0.126377
vn 0.3598222 -0.1345352 -0.9232704
vn 0.3598222 -0.1345352 -0.9232704
vn 0.3598222 -0.1345352 -0.9232704
vn 0.3598222 -0.1345352 -0.9232704
vn 0.9885392 0.07845997 0.1289738
vn 0.9885392 0.07845997 0.1289738
vn 0.9885392 0.07845997 0.1289738
vn 0.9885392 0.07845997 0.1289738
vn -0.8108843 -0.0403772 0.5838118
vn -0.8108843 -0.0403772 0.5838118
vn -0.8108843 -0.0403772 0.5838118
vn -0.8108843 -0.0403772 0.5838118
vn -0.8825739 0.001268817 -0.4701719
vn -0.8825739 0.001268817 -0.4701719
vn -0.8825739 0.001268817 -0.4701719
vn -0.8825739 0.001268817 -0.4701719
vn 0.7647058 -0.01880182 -0.6441053
vn 0.7647058 -0.01880182 -0.6441053
vn 0.7647058 -0.01880182 -0.6441053
vn 0.7647058 -0.01880182 -0.6441053
vn 0.9929054 0.08479493 -0.08335898
vn 0.9929054 0.08479493 -0.08335898
vn 0.9929054 0.08479493 -0.08335898
vn 0.9929054 0.08479493 -0.08335898
vn 0.7079395 -0.07175334 0.7026188
vn 0.7079395 -0.07175334 0.7026188
vn 0.7079395 -0.07175334 0.7026188
vn 0.7079395 -0.07175334 0.7026188
vn 0.6227651 -0.0290073 0.781871
vn 0.6227651 -0.0290073 0.781871
vn 0.6227651 -0.0290073 0.781871
vn 0.6227651 -0.0290073 0.781871
vn -0.9125381 -0.3470166 0.2164573
vn -0.9125381 -0.3470166 0.2164573
vn -0.9125381 -0.3470166 0.2164573
vn -0.9125381 -0.3470166 0.2164573
vn 0.241345 -0.5761904 -0.7808695
vn 0.241345 -0.5761904 -0.7808695
vn 0.241345 -0.5761904 -0.7808695
vn 0.241345 -0.5761904 -0.7808695
vn 0.86125 -0.5081356 0.006827084
vn 0.86125 -0.5081356 0.006827084
vn 0.86125 -0.5081356 0.006827084
vn 0.86125 -0.5081356 0.006827084
vn 0.4671865 -0.7341255 -0.492744
vn 0.4671865 -0.7341255 -0.492744
vn 0.4671865 -0.7341255 -0.492744
vn 0.4671865 -0.7341255 -0.492744
vn -0.8707014 -0.486611 0.07133617
vn -0.8707014 -0.486611 0.07133617
vn -0.8707014 -0.486611 0.07133617
vn -0.8726113 -0.482893 0.07323832
vn 1.26986E-07 1 1.817079E-07
vn 1.26986E-07 1 1.817079E-07
vn 1.671052E-07 1 1.313368E-07
vn 1.845075E-07 1 2.538424E-07
vn 1.671052E-07 1 1.313368E-07
vn 1.845075E-07 1 2.538424E-07
vn 1.671052E-07 1 1.313368E-07
vn 1.51312E-07 1 1.503335E-07
vn 1.671052E-07 1 1.313368E-07
vn 1.51312E-07 1 1.503335E-07
vn 1.676514E-07 1 1.084481E-07
vn 1.676514E-07 1 1.084481E-07
vn 1.181195E-07 1 1.180797E-07
vn 1.181195E-07 1 1.180797E-07
vn 2.384867E-07 1 1.22275E-07
vn 0 1 0
vn 0 1 0
vn 0 1 0
vn 0 1 0

vt 0.5915244 0.2690618
vt 0.584169 0.2752963
vt 0.6059516 0.2881529
vt 0.5734163 0.2881664
vt 0.5826492 0.2904208
vt 0.5769847 0.2815508
vt 0.5521334 0.2686689
vt 0.5501058 0.2600679
vt 0.5250171 0.2672358
vt 0.534655 0.2752854
vt 0.5353966 0.2861856
vt 0.5435894 0.2785091
vt 0.5946102 0.2899745
vt 0.584169 0.2752963
vt 0.5826492 0.2904208
vt 0.5643689 0.3013874
vt 0.5696519 0.2937324
vt 0.5565253 0.2916051
vt 0.6059516 0.2881529
vt 0.584169 0.2752963
vt 0.5946102 0.2899745
vt 0.5769847 0.2815508
vt 0.5826492 0.2904208
vt 0.584169 0.2752963
vt 0.5623664 0.2766696
vt 0.5716945 0.2600679
vt 0.5521334 0.2686689
vt 0.5578753 0.2820017
vt 0.5693164 0.2850966
vt 0.5521334 0.2686689
vt 0.5623664 0.2766696
vt 0.5826492 0.2904208
vt 0.5734163 0.2881664
vt 0.5696519 0.2937324
vt 0.5435894 0.2785091
vt 0.549729 0.2841926
vt 0.5578753 0.2820017
vt 0.5643689 0.3013874
vt 0.5583521 0.3168752
vt 0.5757574 0.3094139
vt 0.5435894 0.2785091
vt 0.5353966 0.2861856
vt 0.549729 0.2841926
vt 0.5826492 0.2904208
vt 0.5877275 0.3019543
vt 0.5946102 0.2899745
vt 0.5465928 0.3002376
vt 0.5399638 0.3081002
vt 0.5583521 0.3168752
vt 0.5757574 0.3094139
vt 0.5696519 0.2937324
vt 0.5643689 0.3013874
vt 0.5813068 0.3204742
vt 0.5757574 0.3094139
vt 0.5583521 0.3168752
vt 0.5693164 0.2850966
vt 0.5734163 0.2881664
vt 0.5769847 0.2815508
vt 0.5716945 0.2600679
vt 0.584169 0.2752963
vt 0.5915244 0.2690618
vt 0.5501058 0.2600679
vt 0.5521334 0.2686689
vt 0.5716945 0.2600679
vt 0.549729 0.2841926
vt 0.5565253 0.2916051
vt 0.5578753 0.2820017
vt 0.5693164 0.2850966
vt 0.5565253 0.2916051
vt 0.5696519 0.2937324
vt 0.5578753 0.2820017
vt 0.5521334 0.2686689
vt 0.5435894 0.2785091
vt 0.5565253 0.2916051
vt 0.549729 0.2841926
vt 0.5465928 0.3002376
vt 0.5877275 0.3019543
vt 0.5757574 0.3094139
vt 0.5996633 0.3082266
vt 0.5353966 0.2861856
vt 0.534655 0.2752854
vt 0.5232114 0.2888159
vt 0.5693164 0.2850966
vt 0.5696519 0.2937324
vt 0.5734163 0.2881664
vt 0.5465928 0.3002376
vt 0.549729 0.2841926
vt 0.5353966 0.2861856
vt 0.5996633 0.3082266
vt 0.5757574 0.3094139
vt 0.5813068 0.3204742
vt 0.5232114 0.2888159
vt 0.534655 0.2752854
vt 0.5250171 0.2672358
vt 0.5623664 0.2766696
vt 0.5693164 0.2850966
vt 0.5769847 0.2815508
vt 0.5399638 0.3081002
vt 0.5353966 0.2861856
vt 0.5232114 0.2888159
vt 0.5399638 0.3081002
vt 0.5465928 0.3002376
vt 0.5353966 0.2861856
vt 0.7992061 0.3196459
vt 0.8131367 0.3345384
vt 0.80774 0.3249109
vt 0.8019125 0.3420139
vt 0.7794189 0.3245578
vt 0.7803605 0.3420139
vt 0.7731892 0.3248765
vt 0.7709923 0.3281646
vt 0.7656952 0.3344181
vt 0.5773494 0.3249032
vt 0.5533482 0.3249032
vt 0.5565932 0.33224
vt 0.5730106 0.3327563
vt 0.5838729 0.3499369
vt 0.5875705 0.3375586
vt 0.5804696 0.3385535
vt 0.576957 0.3455815
vt 0.5512074 0.354068
vt 0.5733784 0.357225
vt 0.5705071 0.349284
vt 0.5550874 0.3468893
vt 0.5533482 0.3249032
vt 0.5401651 0.3358298
vt 0.5466667 0.337599
vt 0.5565932 0.33224
vt 0.5875705 0.3375586
vt 0.5773494 0.3249032
vt 0.5730106 0.3327563
vt 0.5804696 0.3385535
vt 0.5733784 0.357225
vt 0.5838729 0.3499369
vt 0.576957 0.3455815
vt 0.5705071 0.349284
vt 0.5447021 0.3493884
vt 0.5512074 0.354068
vt 0.5550874 0.3468893
vt 0.5506532 0.3451976
vt 0.5401651 0.3358298
vt 0.5420299 0.3455801
vt 0.5490738 0.3426418
vt 0.5466667 0.337599
vt 0.5420299 0.3455801
vt 0.5447021 0.3493884
vt 0.5506532 0.3451976
vt 0.5490738 0.3426418
vt 0.5521334 0.2686689
vt 0.5250171 0.2672358
vt 0.534655 0.2752854
vt 0.5435894 0.2785091
vt 0.6059516 0.2881529
vt 0.5946102 0.2899745
vt 0.5877275 0.3019543
vt 0.5996633 0.3082266
vt 0.5583521 0.3168752
vt 0.5643689 0.3013874
vt 0.5565253 0.2916051
vt 0.5465928 0.3002376
vt 0.5826492 0.2904208
vt 0.5696519 0.2937324
vt 0.5757574 0.3094139
vt 0.5877275 0.3019543
vt 0.5623664 0.2766696
vt 0.584169 0.2752963
vt 0.5716945 0.2600679
vt 0.5769847 0.2815508
vt 0.8334386 0.2940432
vt 0.8510077 0.2897827
vt 0.8356423 0.2767926
vt 0.8548136 0.3080251
vt 0.8257911 0.2876638
vt 0.8377671 0.3047165
vt 0.8066792 0.2909183
vt 0.8265483 0.3115058
vt 0.8151254 0.2806888
vt 0.8346796 0.3196017
vt 0.8006287 0.290513
vt 0.7972214 0.2820128
vt 0.8061631 0.309411
vt 0.813127 0.3196017
vt 0.7923619 0.3140797
vt 0.774967 0.2889079
vt 0.7983446 0.2938186
vt 0.7929038 0.2999786
vt 0.7656952 0.3064022

usemtl LOW-POLY-COLORS
usemap LOW-POLY-COLORS
f 2/2/2 1/1/1 3/3/3
f 5/5/5 4/4/4 6/6/6
f 8/8/8 7/7/7 9/9/9
f 11/11/11 10/10/10 12/12/12
f 14/14/14 13/13/13 15/15/15
f 17/17/17 16/16/16 18/18/18
f 20/20/20 19/19/19 21/21/21
f 23/23/23 22/22/22 24/24/24
f 26/26/26 25/25/25 27/27/27
f 28/28/28 25/25/25 29/29/29
f 28/28/28 30/30/30 31/31/31
f 33/33/33 32/32/32 34/34/34
f 36/36/36 35/35/35 37/37/37
f 39/39/39 38/38/38 40/40/40
f 42/42/42 41/41/41 43/43/43
f 45/45/45 44/44/44 46/46/46
f 48/48/48 47/47/47 49/49/49
f 51/51/51 50/50/50 52/52/52
f 54/54/54 53/53/53 55/55/55
f 57/57/57 56/56/56 58/58/58
f 60/60/60 59/59/59 61/61/61
f 63/63/63 62/62/62 64/64/64
f 66/66/66 65/65/65 67/67/67
f 67/67/67 68/68/68 69/69/69
f 69/69/69 68/68/68 70/70/70
f 72/72/72 71/71/71 73/73/73
f 75/75/75 74/74/74 76/76/76
f 78/78/78 77/77/77 79/79/79
f 81/81/81 80/80/80 82/82/82
f 84/84/84 83/83/83 85/85/85
f 87/87/87 86/86/86 88/88/88
f 90/90/90 89/89/89 91/91/91
f 93/93/93 92/92/92 94/94/94
f 96/96/96 95/95/95 97/97/97
f 99/99/99 98/98/98 100/100/100
f 102/102/102 101/101/101 103/103/103
f 105/105/105 104/104/104 106/106/106
f 107/107/107 104/104/104 105/105/105
f 107/107/107 108/108/108 104/104/104
f 109/109/109 108/108/108 107/107/107
f 109/109/109 110/110/110 108/108/108
f 111/111/111 110/110/110 109/109/109
f 112/112/112 111/111/111 109/109/109
f 114/114/114 113/113/113 115/115/115
f 115/115/115 113/113/113 116/116/116
f 118/118/118 117/117/117 119/119/119
f 119/119/119 117/117/117 120/120/120
f 122/122/122 121/121/121 123/123/123
f 123/123/123 121/121/121 124/124/124
f 126/126/126 125/125/125 127/127/127
f 127/127/127 125/125/125 128/128/128
f 130/130/130 129/129/129 131/131/131
f 131/131/131 129/129/129 132/132/132
f 134/134/134 133/133/133 135/135/135
f 135/135/135 133/133/133 136/136/136
f 138/138/138 137/137/137 139/139/139
f 139/139/139 137/137/137 140/140/140
f 142/142/142 141/141/141 143/143/143
f 143/143/143 141/141/141 144/144/144
f 146/146/146 145/145/145 147/147/147
f 147/147/147 145/145/145 148/148/148
f 150/150/150 149/149/149 151/151/151
f 151/151/151 149/149/149 152/152/152
f 154/154/154 153/153/153 155/155/155
f 155/155/155 153/153/153 156/156/156
f 158/158/158 157/157/157 159/159/159
f 159/159/159 157/157/157 160/160/160
f 162/162/162 161/161/161 163/163/163
f 163/163/163 161/161/161 164/164/164
f 166/166/166 165/165/165 167/167/167
f 166/166/166 168/168/168 165/165/165
f 170/170/170 169/169/169 171/171/171
f 172/172/172 169/169/169 170/170/170
f 171/171/171 169/169/169 173/173/173
f 174/174/174 169/169/169 172/172/172
f 173/173/173 175/175/175 171/171/171
f 172/172/172 176/176/176 174/174/174
f 171/171/171 175/175/175 177/177/177
f 178/178/178 176/176/176 172/172/172
f 175/175/175 179/179/179 177/177/177
f 177/177/177 179/179/179 180/180/180
f 178/178/178 181/181/181 176/176/176
f 182/182/182 181/181/181 178/178/178
f 181/181/181 182/182/182 183/183/183
f 179/179/179 184/184/184 180/180/180
f 185/185/185 184/184/184 179/179/179
f 183/183/183 186/186/186 181/181/181
f 185/185/185 186/186/186 184/184/184
f 187/187/187 186/186/186 183/183/183
f 184/184/184 186/186/186 187/187/187
