mtllib ./floe_1.mtl
g floe
v 0.04934581 -1.432208E-07 0.8142767
v 0.4855543 -2.569639E-07 0.939328
v 0.9709226 -1.518242E-07 0.617453
v 1.070733 2.289324E-07 0.1238792
v 0.9230683 3.423458E-07 -0.008714064
v -0.07242625 7.320524E-08 -1.05245
v 0.816032 -9.288115E-08 -0.7612779
v -0.9350663 2.11976E-07 -0.6049364
v -1.022342 1.079161E-07 0.4234391
v -0.1466894 -1.363789E-07 0.9708014
v -0.5087028 -7.720035E-08 0.9610524
v -1.118804 0.5315018 0.4401824
v -0.1709917 0.5314944 1.03265
v -0.5628369 0.5315018 1.022098
v 0.04119802 0.5315018 0.8632274
v -1.024335 0.531502 -0.6729372
v -0.09060878 0.5314946 -1.157329
v 0.9869204 0.5315021 -0.02758276
v 0.8710638 0.5315016 -0.8421623
v 1.146754 0.531502 0.115937
v 1.038718 0.5315016 0.6501843
v 0.5133525 0.5315015 0.9985836
v -0.07242625 7.320524E-08 -1.05245
v -0.09060878 0.5314946 -1.157329
v -1.024335 0.531502 -0.6729372
v -0.9350663 2.11976E-07 -0.6049364
v -0.5087028 -7.720035E-08 0.9610524
v -0.5628369 0.5315018 1.022098
v -0.1709917 0.5314944 1.03265
v -0.1466894 -1.363789E-07 0.9708014
v -0.1466894 -1.363789E-07 0.9708014
v -0.1709917 0.5314944 1.03265
v 0.04119802 0.5315018 0.8632274
v 0.04934581 -1.432208E-07 0.8142767
v 0.04934581 -1.432208E-07 0.8142767
v 0.04119802 0.5315018 0.8632274
v 0.5133525 0.5315015 0.9985836
v 0.4855543 -2.569639E-07 0.939328
v 0.4855543 -2.569639E-07 0.939328
v 0.5133525 0.5315015 0.9985836
v 1.038718 0.5315016 0.6501843
v 0.9709226 -1.518242E-07 0.617453
v 0.9709226 -1.518242E-07 0.617453
v 1.038718 0.5315016 0.6501843
v 1.146754 0.531502 0.115937
v 1.070733 2.289324E-07 0.1238792
v 0.816032 -9.288115E-08 -0.7612779
v 0.8710638 0.5315016 -0.8421623
v -0.09060878 0.5314946 -1.157329
v -0.07242625 7.320524E-08 -1.05245
v -0.9350663 2.11976E-07 -0.6049364
v -1.024335 0.531502 -0.6729372
v -1.118804 0.5315018 0.4401824
v -1.022342 1.079161E-07 0.4234391
v 0.9230683 3.423458E-07 -0.008714064
v 0.9869204 0.5315021 -0.02758276
v 0.8710638 0.5315016 -0.8421623
v 0.816032 -9.288115E-08 -0.7612779
v -1.022342 1.079161E-07 0.4234391
v -1.118804 0.5315018 0.4401824
v -0.5628369 0.5315018 1.022098
v -0.5087028 -7.720035E-08 0.9610524
v 1.070733 2.289324E-07 0.1238792
v 1.146754 0.531502 0.115937
v 0.9869204 0.5315021 -0.02758276
v 0.9230683 3.423458E-07 -0.008714064

vn -1.506319E-07 -1 -7.137685E-07
vn -1.506319E-07 -1 -7.137685E-07
vn -1.506319E-07 -1 -7.137685E-07
vn -1.506319E-07 -1 -7.137685E-07
vn -1.506319E-07 -1 -7.137685E-07
vn 2.012041E-07 -1 0
vn 2.012041E-07 -1 0
vn -2.047447E-07 -1 -1.082597E-07
vn -1.65892E-07 -1 -1.809245E-07
vn -1.65892E-07 -1 -1.809245E-07
vn -1.65892E-07 -1 -1.809245E-07
vn 2.315251E-06 1 8.7096E-06
vn 2.315251E-06 1 8.7096E-06
vn 2.315251E-06 1 8.7096E-06
vn 2.315251E-06 1 8.7096E-06
vn 3.487269E-06 1 -2.285704E-06
vn 3.487269E-06 1 -2.285704E-06
vn 4.65831E-07 1 7.68876E-07
vn -4.639255E-06 1 -2.356206E-06
vn 4.65831E-07 1 7.68876E-07
vn 4.65831E-07 1 7.68876E-07
vn 4.65831E-07 1 7.68876E-07
vn -0.4523259 -0.1875259 -0.8719147
vn -0.4523259 -0.1875259 -0.8719147
vn -0.4523259 -0.1875259 -0.8719147
vn -0.4523259 -0.1875259 -0.8719147
vn -0.02673705 -0.1167522 0.9928012
vn -0.02673705 -0.1167522 0.9928012
vn -0.02673705 -0.1167522 0.9928012
vn -0.02673705 -0.1167522 0.9928012
vn 0.6227461 -0.06228547 0.779941
vn 0.6227461 -0.06228547 0.779941
vn 0.6227461 -0.06228547 0.779941
vn 0.6227461 -0.06228547 0.779941
vn -0.2743994 -0.09236082 0.95717
vn -0.2743994 -0.09236082 0.95717
vn -0.2743994 -0.09236082 0.95717
vn -0.2743994 -0.09236082 0.95717
vn 0.5486173 -0.1209246 0.8272825
vn 0.5486173 -0.1209246 0.8272825
vn 0.5486173 -0.1209246 0.8272825
vn 0.5486173 -0.1209246 0.8272825
vn 0.9710591 -0.1359555 0.1963677
vn 0.9710591 -0.1359555 0.1963677
vn 0.9710591 -0.1359555 0.1963677
vn 0.9710591 -0.1359555 0.1963677
vn 0.3066706 -0.1741566 -0.9357471
vn 0.3066706 -0.1741566 -0.9357471
vn 0.3066706 -0.1741566 -0.9357471
vn 0.3066706 -0.1741566 -0.9357471
vn -0.9809688 -0.1754114 -0.08325266
vn -0.9809688 -0.1754114 -0.08325266
vn -0.9809688 -0.1754114 -0.08325266
vn -0.9809688 -0.1754114 -0.08325266
vn 0.9825193 -0.1229963 -0.1397423
vn 0.9825193 -0.1229963 -0.1397423
vn 0.9825193 -0.1229963 -0.1397423
vn 0.9825193 -0.1229963 -0.1397423
vn -0.7147288 -0.1512259 0.6828569
vn -0.7147288 -0.1512259 0.6828569
vn -0.7147288 -0.1512259 0.6828569
vn -0.7147288 -0.1512259 0.6828569
vn 0.6643454 -0.1060768 -0.73986
vn 0.6643454 -0.1060768 -0.73986
vn 0.6643454 -0.1060768 -0.73986
vn 0.6643454 -0.1060768 -0.73986

vt 0.8302765 0.3382776
vt 0.838624 0.3435036
vt 0.8506789 0.3397032
vt 0.8557229 0.3300078
vt 0.8534389 0.3263561
vt 0.8389398 0.2986127
vt 0.8557229 0.3100177
vt 0.8182622 0.3027692
vt 0.8102701 0.3236941
vt 0.8252484 0.3403656
vt 0.8177564 0.3379896
vt 0.7612751 0.3109126
vt 0.7821842 0.2986127
vt 0.7736767 0.2986127
vt 0.7866887 0.3024123
vt 0.7626742 0.3351173
vt 0.7826487 0.3461718
vt 0.806686 0.3222912
vt 0.8036966 0.3398961
vt 0.8102373 0.3192709
vt 0.8082057 0.3076172
vt 0.7970114 0.2997515
vt 0.5592757 0.3076324
vt 0.5588762 0.2987964
vt 0.5418053 0.3005874
vt 0.5435045 0.3092871
vt 0.5165154 0.3196158
vt 0.5125922 0.3117672
vt 0.5071772 0.3151718
vt 0.5115126 0.3227612
vt 0.6167352 0.3227612
vt 0.6210706 0.3151718
vt 0.6170094 0.3134004
vt 0.6129831 0.3211247
vt 0.6129831 0.3211247
vt 0.6170094 0.3134004
vt 0.6099417 0.3096206
vt 0.6064535 0.3176326
vt 0.6064535 0.3176326
vt 0.6099417 0.3096206
vt 0.6004383 0.3056838
vt 0.5976736 0.3139955
vt 0.5976736 0.3139955
vt 0.6004383 0.3056838
vt 0.5919063 0.3031714
vt 0.5897912 0.3116744
vt 0.5745153 0.3083504
vt 0.5753716 0.2995734
vt 0.5588762 0.2987964
vt 0.5592757 0.3076324
vt 0.5435045 0.3092871
vt 0.5418053 0.3005874
vt 0.5244119 0.3060431
vt 0.5274352 0.3143275
vt 0.5865882 0.3111963
vt 0.5884394 0.3026538
vt 0.5753716 0.2995734
vt 0.5745153 0.3083504
vt 0.5274352 0.3143275
vt 0.5244119 0.3060431
vt 0.5125922 0.3117672
vt 0.5165154 0.3196158
vt 0.5897912 0.3116744
vt 0.5919063 0.3031714
vt 0.5884394 0.3026538
vt 0.5865882 0.3111963

usemtl LOW-POLY-COLORS
usemap LOW-POLY-COLORS
f 2/2/2 1/1/1 3/3/3
f 3/3/3 1/1/1 4/4/4
f 5/5/5 4/4/4 1/1/1
f 1/1/1 6/6/6 5/5/5
f 5/5/5 6/6/6 7/7/7
f 1/1/1 8/8/8 6/6/6
f 9/9/9 8/8/8 1/1/1
f 10/10/10 9/9/9 1/1/1
f 11/11/11 9/9/9 10/10/10
f 13/13/13 12/12/12 14/14/14
f 15/15/15 12/12/12 13/13/13
f 15/15/15 16/16/16 12/12/12
f 17/17/17 16/16/16 15/15/15
f 18/18/18 17/17/17 15/15/15
f 19/19/19 17/17/17 18/18/18
f 18/18/18 15/15/15 20/20/20
f 21/21/21 20/20/20 15/15/15
f 22/22/22 21/21/21 15/15/15
f 24/24/24 23/23/23 25/25/25
f 25/25/25 23/23/23 26/26/26
f 28/28/28 27/27/27 29/29/29
f 29/29/29 27/27/27 30/30/30
f 32/32/32 31/31/31 33/33/33
f 33/33/33 31/31/31 34/34/34
f 36/36/36 35/35/35 37/37/37
f 37/37/37 35/35/35 38/38/38
f 40/40/40 39/39/39 41/41/41
f 41/41/41 39/39/39 42/42/42
f 44/44/44 43/43/43 45/45/45
f 45/45/45 43/43/43 46/46/46
f 48/48/48 47/47/47 49/49/49
f 49/49/49 47/47/47 50/50/50
f 52/52/52 51/51/51 53/53/53
f 53/53/53 51/51/51 54/54/54
f 56/56/56 55/55/55 57/57/57
f 57/57/57 55/55/55 58/58/58
f 60/60/60 59/59/59 61/61/61
f 61/61/61 59/59/59 62/62/62
f 64/64/64 63/63/63 65/65/65
f 65/65/65 63/63/63 66/66/66
