mtllib ./grass-sea-long_5.mtl
g grass-sea-long
v -0.289277 0.8549678 0.01010262
v -0.2651399 0.849155 0.007353649
v -0.3141116 1.048517 0.05023233
v -0.1661656 1.419708 0.1002607
v -0.1989879 1.752802 0.1310597
v -0.1319544 1.443345 0.102963
v 0.3539982 1.499055 0.03584077
v 0.2583666 2.213691 0.07838333
v 0.3146895 1.468115 0.03581944
v 0.1949989 2.131541 -0.03900229
v 0.1301521 2.553043 -0.05169404
v 0.2346261 2.151384 -0.04102289
v -0.289277 0.8549678 0.01010262
v -0.3141116 1.048517 0.05023233
v -0.2651399 0.849155 0.007353649
v -0.1661656 1.419708 0.1002607
v -0.1319544 1.443345 0.102963
v -0.1989879 1.752802 0.1310597
v 0.3539982 1.499055 0.03584077
v 0.3146895 1.468115 0.03581944
v 0.2583666 2.213691 0.07838333
v 0.1949989 2.131541 -0.03900229
v 0.2346261 2.151384 -0.04102289
v 0.1301521 2.553043 -0.05169404
v -0.156432 -0.002140438 0.04210766
v -0.08156048 0.3697341 0.04210769
v -0.08105135 -0.002140449 0.04210766
v -0.1832746 0.3825976 0.0421077
v -0.04704099 0.6688734 0.04210773
v -0.1172145 0.6985125 0.04210774
v -0.0453168 1.048523 0.04731961
v -0.1117026 1.002658 0.04491451
v -0.1117026 1.002658 0.04491451
v -0.1661656 1.419708 0.1002607
v -0.1319544 1.443345 0.102963
v -0.0453168 1.048523 0.04731961
v -0.2850704 -0.002140411 -0.009325217
v -0.2432975 -0.002140417 -0.009765134
v -0.2447868 0.2917025 0.009141185
v -0.3072283 0.2520884 0.009141193
v -0.3072283 0.2520884 0.009141193
v -0.2447868 0.2917025 0.009141185
v -0.2418746 0.6374949 -0.01186044
v -0.2821514 0.6650337 -0.01186043
v -0.2821514 0.6650337 -0.01186043
v -0.2418746 0.6374949 -0.01186044
v -0.2651399 0.849155 0.007353649
v -0.289277 0.8549678 0.01010262
v 0.1822097 -0.002140494 0.004744479
v 0.2575904 -0.002140507 0.006030283
v 0.274491 0.1590812 0.02261567
v 0.2000416 0.1926458 0.0241412
v 0.2000416 0.1926458 0.0241412
v 0.274491 0.1590812 0.02261567
v 0.3485168 0.5207373 0.03937257
v 0.2579995 0.5525569 0.03956844
v 0.3732553 0.8804684 0.04086118
v 0.31714 0.8945959 0.04086118
v 0.3539982 1.499055 0.03584077
v 0.3146895 1.468115 0.03581944
v 0.3281355 -0.002140518 -0.01482575
v 0.3848935 -0.002140527 -0.01482575
v 0.4012808 0.1637857 -0.01478323
v 0.3479279 0.2045839 -0.01451899
v 0.4661677 0.5393595 -0.009050136
v 0.40967 0.5381315 -0.00905019
v 0.4486486 0.8845885 -0.01458361
v 0.4199533 0.8658442 -0.01438899
v 0.4216381 1.280429 -0.01482544
v 0.06769966 -0.002140472 -0.00468874
v 0.1145715 -0.002140481 -0.004599109
v 0.07605158 0.3526963 -0.02607315
v 0.01618924 0.3653602 -0.02664994
v 0.06037312 0.653658 -0.03676078
v -0.005741088 0.6819514 -0.03676071
v -0.005741088 0.6819514 -0.03676071
v 0.06037312 0.653658 -0.03676078
v 0.09227154 1.213188 -0.006984056
v 0.01781688 1.229086 -0.005206521
v 0.01781688 1.229086 -0.005206521
v 0.09227154 1.213188 -0.006984056
v 0.1029439 1.76673 0.05523733
v 0.04318706 1.742348 0.05523733
v -0.0311319 2.516483 0.1555787
v 0.2021002 -0.002140487 -0.06109128
v 0.2089924 0.6262573 -0.05680464
v 0.2774808 -0.002140498 -0.06116248
v 0.1268541 0.6262573 -0.05680469
v 0.2168861 1.150357 -0.05952008
v 0.147615 1.194495 -0.06056625
v 0.147615 1.194495 -0.06056625
v 0.2143406 1.718559 -0.03558526
v 0.259568 1.741206 -0.03301607
v 0.2168861 1.150357 -0.05952008
v 0.2143406 1.718559 -0.03558526
v 0.1949989 2.131541 -0.03900229
v 0.2346261 2.151384 -0.04102289
v 0.259568 1.741206 -0.03301607
v -0.156432 -0.002140438 0.04210766
v -0.08105135 -0.002140449 0.04210766
v -0.08156048 0.3697341 0.04210769
v -0.1832746 0.3825976 0.0421077
v -0.04704099 0.6688734 0.04210773
v -0.1172145 0.6985125 0.04210774
v -0.0453168 1.048523 0.04731961
v -0.1117026 1.002658 0.04491451
v -0.1117026 1.002658 0.04491451
v -0.0453168 1.048523 0.04731961
v -0.1319544 1.443345 0.102963
v -0.1661656 1.419708 0.1002607
v -0.2850704 -0.002140411 -0.009325217
v -0.3072283 0.2520884 0.009141193
v -0.2447868 0.2917025 0.009141185
v -0.2432975 -0.002140417 -0.009765134
v -0.3072283 0.2520884 0.009141193
v -0.2821514 0.6650337 -0.01186043
v -0.2418746 0.6374949 -0.01186044
v -0.2447868 0.2917025 0.009141185
v -0.2821514 0.6650337 -0.01186043
v -0.289277 0.8549678 0.01010262
v -0.2651399 0.849155 0.007353649
v -0.2418746 0.6374949 -0.01186044
v 0.1822097 -0.002140494 0.004744479
v 0.2000416 0.1926458 0.0241412
v 0.274491 0.1590812 0.02261567
v 0.2575904 -0.002140507 0.006030283
v 0.2000416 0.1926458 0.0241412
v 0.3485168 0.5207373 0.03937257
v 0.274491 0.1590812 0.02261567
v 0.2579995 0.5525569 0.03956844
v 0.3732553 0.8804684 0.04086118
v 0.31714 0.8945959 0.04086118
v 0.3539982 1.499055 0.03584077
v 0.3146895 1.468115 0.03581944
v 0.3281355 -0.002140518 -0.01482575
v 0.4012808 0.1637857 -0.01478323
v 0.3848935 -0.002140527 -0.01482575
v 0.3479279 0.2045839 -0.01451899
v 0.4661677 0.5393595 -0.009050136
v 0.40967 0.5381315 -0.00905019
v 0.4486486 0.8845885 -0.01458361
v 0.4199533 0.8658442 -0.01438899
v 0.4216381 1.280429 -0.01482544
v 0.06769966 -0.002140472 -0.00468874
v 0.07605158 0.3526963 -0.02607315
v 0.1145715 -0.002140481 -0.004599109
v 0.01618924 0.3653602 -0.02664994
v 0.06037312 0.653658 -0.03676078
v -0.005741088 0.6819514 -0.03676071
v -0.005741088 0.6819514 -0.03676071
v 0.01781688 1.229086 -0.005206521
v 0.09227154 1.213188 -0.006984056
v 0.06037312 0.653658 -0.03676078
v 0.01781688 1.229086 -0.005206521
v 0.1029439 1.76673 0.05523733
v 0.09227154 1.213188 -0.006984056
v 0.04318706 1.742348 0.05523733
v -0.0311319 2.516483 0.1555787
v 0.2021002 -0.002140487 -0.06109128
v 0.2774808 -0.002140498 -0.06116248
v 0.2089924 0.6262573 -0.05680464
v 0.1268541 0.6262573 -0.05680469
v 0.2168861 1.150357 -0.05952008
v 0.147615 1.194495 -0.06056625
v 0.147615 1.194495 -0.06056625
v 0.2168861 1.150357 -0.05952008
v 0.259568 1.741206 -0.03301607
v 0.2143406 1.718559 -0.03558526
v 0.2143406 1.718559 -0.03558526
v 0.259568 1.741206 -0.03301607
v 0.2346261 2.151384 -0.04102289
v 0.1949989 2.131541 -0.03900229

vn -0.06459563 0.1946406 -0.9787453
vn -0.06459563 0.1946406 -0.9787453
vn -0.06459563 0.1946406 -0.9787453
vn -0.0140815 -0.09343726 0.9955255
vn -0.0140815 -0.09343726 0.9955255
vn -0.0140815 -0.09343726 0.9955255
vn -0.04180406 0.05379797 -0.9976764
vn -0.04180406 0.05379797 -0.9976764
vn -0.04180406 0.05379797 -0.9976764
vn 0.03330538 0.03519933 0.9988251
vn 0.03330538 0.03519933 0.9988251
vn 0.03330538 0.03519933 0.9988251
vn 0.06459563 -0.1946406 0.9787453
vn 0.06459563 -0.1946406 0.9787453
vn 0.06459563 -0.1946406 0.9787453
vn 0.0140815 0.09343726 -0.9955255
vn 0.0140815 0.09343726 -0.9955255
vn 0.0140815 0.09343726 -0.9955255
vn 0.04180406 -0.05379797 0.9976764
vn 0.04180406 -0.05379797 0.9976764
vn 0.04180406 -0.05379797 0.9976764
vn -0.03330538 -0.03519933 -0.9988251
vn -0.03330538 -0.03519933 -0.9988251
vn -0.03330538 -0.03519933 -0.9988251
vn 0 0 1
vn 0 0 1
vn 0 0 1
vn 0 0 1
vn -0.0162359 -0.01155253 0.9998015
vn -0.0162359 -0.01155253 0.9998015
vn -0.0162359 -0.01155253 0.9998015
vn -0.0162359 -0.01155253 0.9998015
vn 0.03864254 -0.1287517 0.9909237
vn 0.03864254 -0.1287517 0.9909237
vn 0.03864254 -0.1287517 0.9909237
vn 0.03864254 -0.1287517 0.9909237
vn -0.0295762 0.06673154 -0.9973326
vn -0.0295762 0.06673154 -0.9973326
vn -0.0295762 0.06673154 -0.9973326
vn -0.0295762 0.06673154 -0.9973326
vn 0.006525888 -0.05551355 -0.9984366
vn 0.006525888 -0.05551355 -0.9984366
vn 0.006525888 -0.05551355 -0.9984366
vn 0.006525888 -0.05551355 -0.9984366
vn 0.01077954 0.1028007 -0.9946436
vn 0.01077954 0.1028007 -0.9946436
vn 0.01077954 0.1028007 -0.9946436
vn 0.01077954 0.1028007 -0.9946436
vn 0.02048716 0.09855888 -0.9949203
vn 0.02048716 0.09855888 -0.9949203
vn 0.02048716 0.09855888 -0.9949203
vn 0.02048716 0.09855888 -0.9949203
vn 0.006747462 0.04332599 -0.9990382
vn 0.006747462 0.04332599 -0.9990382
vn 0.006747462 0.04332599 -0.9990382
vn 0.006747462 0.04332599 -0.9990382
vn 0.001344566 -0.00218631 -0.9999968
vn 0.006190487 0.003841977 -0.9999735
vn 0.001705201 -0.008409294 -0.9999632
vn 0.001705201 -0.008409294 -0.9999632
vn -0.001981251 0.001129631 -0.9999974
vn -0.001981251 0.001129631 -0.9999974
vn -0.001981251 0.001129631 -0.9999974
vn -0.001981251 0.001129631 -0.9999974
vn 0.003086393 0.0152438 -0.999879
vn 0.003086393 0.0152438 -0.999879
vn 0.001499914 -0.01613809 -0.9998686
vn 0.001499914 -0.01613809 -0.9998686
vn -0.006110484 -0.001027872 -0.9999808
vn -0.0009025649 -0.06013515 -0.9981899
vn -0.0009025649 -0.06013515 -0.9981899
vn -0.0009025649 -0.06013515 -0.9981899
vn -0.0009025649 -0.06013515 -0.9981899
vn -0.006496348 -0.03405413 -0.9993989
vn -0.006496348 -0.03405413 -0.9993989
vn 0.004695659 0.05509951 -0.9984698
vn 0.004695659 0.05509951 -0.9984698
vn 0.004695659 0.05509951 -0.9984698
vn 0.004695659 0.05509951 -0.9984698
vn -0.02041536 0.1148881 -0.9931686
vn -0.02041536 0.1148881 -0.9931686
vn -0.02041536 0.1148881 -0.9931686
vn -0.02041536 0.1148881 -0.9931686
vn -0.05043641 0.1236151 -0.9910477
vn 0.0004516745 -0.00682633 0.9999766
vn -0.006382239 -0.008342369 0.9999448
vn 0.0004516745 -0.00682633 0.9999766
vn 0.002252506 -0.01358812 0.9999051
vn -0.005141877 0.006064173 0.9999684
vn -0.005141877 0.006064173 0.9999684
vn -0.03944976 -0.04223005 0.9983287
vn -0.03944976 -0.04223005 0.9983287
vn -0.03944976 -0.04223005 0.9983287
vn -0.03944976 -0.04223005 0.9983287
vn -0.01306003 0.01317305 0.999828
vn -0.01306003 0.01317305 0.999828
vn -0.01306003 0.01317305 0.999828
vn -0.01306003 0.01317305 0.999828
vn 0 1.000687E-07 -1
vn 0 1.000687E-07 -1
vn 0 1.000687E-07 -1
vn 0 1.000687E-07 -1
vn 0.0162359 0.01155253 -0.9998015
vn 0.0162359 0.01155253 -0.9998015
vn 0.0162359 0.01155253 -0.9998015
vn 0.0162359 0.01155253 -0.9998015
vn -0.03864254 0.1287517 -0.9909237
vn -0.03864254 0.1287517 -0.9909237
vn -0.03864254 0.1287517 -0.9909237
vn -0.03864254 0.1287517 -0.9909237
vn 0.02957619 -0.06673154 0.9973326
vn 0.02957619 -0.06673154 0.9973326
vn 0.02957619 -0.06673154 0.9973326
vn 0.02957619 -0.06673154 0.9973326
vn -0.006525873 0.05551354 0.9984366
vn -0.006525873 0.05551354 0.9984366
vn -0.006525873 0.05551354 0.9984366
vn -0.006525873 0.05551354 0.9984366
vn -0.0107795 -0.1028007 0.9946436
vn -0.0107795 -0.1028007 0.9946436
vn -0.0107795 -0.1028007 0.9946436
vn -0.0107795 -0.1028007 0.9946436
vn -0.02048716 -0.09855888 0.9949203
vn -0.02048716 -0.09855888 0.9949203
vn -0.02048716 -0.09855888 0.9949203
vn -0.02048716 -0.09855888 0.9949203
vn -0.006747457 -0.04332599 0.9990382
vn -0.006747457 -0.04332599 0.9990382
vn -0.006747457 -0.04332599 0.9990382
vn -0.006747457 -0.04332599 0.9990382
vn -0.006135569 -0.002829971 0.9999772
vn -9.216387E-05 -0.01024877 0.9999475
vn -0.0017052 0.008409292 0.9999632
vn -0.0017052 0.008409292 0.9999632
vn 0.001981252 -0.001129629 0.9999974
vn 0.001981252 -0.001129629 0.9999974
vn 0.001981252 -0.001129629 0.9999974
vn 0.001981252 -0.001129629 0.9999974
vn -0.003086396 -0.01524381 0.999879
vn -0.003086396 -0.01524381 0.999879
vn -0.001499916 0.01613809 0.9998686
vn -0.001499916 0.01613809 0.9998686
vn 0.006110484 0.001027872 0.9999808
vn 0.0009025612 0.06013516 0.9981899
vn 0.0009025612 0.06013516 0.9981899
vn 0.0009025612 0.06013516 0.9981899
vn 0.0009025612 0.06013516 0.9981899
vn 0.006496344 0.03405413 0.9993989
vn 0.006496344 0.03405413 0.9993989
vn -0.004695641 -0.05509952 0.9984698
vn -0.004695641 -0.05509952 0.9984698
vn -0.004695641 -0.05509952 0.9984698
vn -0.004695641 -0.05509952 0.9984698
vn 0.02041531 -0.114888 0.9931686
vn 0.02041531 -0.114888 0.9931686
vn 0.02041531 -0.114888 0.9931686
vn 0.02041531 -0.114888 0.9931686
vn 0.05043641 -0.1236151 0.9910477
vn -0.0004516735 0.00682633 -0.9999766
vn -0.0004516735 0.00682633 -0.9999766
vn 0.003336065 0.0008853084 -0.999994
vn 0.005144794 0.01111028 -0.999925
vn 0.005141877 -0.006064174 -0.9999684
vn 0.005141877 -0.006064174 -0.9999684
vn 0.03944971 0.04223005 -0.9983287
vn 0.03944971 0.04223005 -0.9983287
vn 0.03944971 0.04223005 -0.9983287
vn 0.03944971 0.04223005 -0.9983287
vn 0.01306 -0.01317305 -0.999828
vn 0.01306 -0.01317305 -0.999828
vn 0.01306 -0.01317305 -0.999828
vn 0.01306 -0.01317305 -0.999828

vt 0.3181344 0.4335295
vt 0.3177419 0.4333927
vt 0.3182748 0.4368416
vt 0.3110856 0.4429752
vt 0.310919 0.4485658
vt 0.3116805 0.4433314
vt 0.3044916 0.4442984
vt 0.3065017 0.4561476
vt 0.3051278 0.4437616
vt 0.2908654 0.4547439
vt 0.2902173 0.4618137
vt 0.2915441 0.4550341
vt 0.3171865 0.4335294
vt 0.3170463 0.4368415
vt 0.317579 0.4333926
vt 0.3081056 0.4429752
vt 0.3075106 0.4433314
vt 0.3082718 0.4485658
vt 0.3031287 0.4442984
vt 0.3024925 0.4437616
vt 0.3011186 0.4561477
vt 0.2922446 0.454744
vt 0.2915658 0.4550341
vt 0.2928928 0.4618137
vt 0.3096071 0.4193013
vt 0.3112804 0.4253877
vt 0.3108584 0.4192141
vt 0.3096068 0.4257189
vt 0.3121996 0.4303134
vt 0.311069 0.4308866
vt 0.3126682 0.436614
vt 0.3115126 0.4359292
vt 0.3115126 0.4359292
vt 0.3110856 0.4429752
vt 0.3116805 0.4433314
vt 0.3126682 0.436614
vt 0.3193154 0.4192748
vt 0.3186229 0.4192141
vt 0.3182223 0.4240974
vt 0.3193154 0.4235323
vt 0.3193154 0.4235323
vt 0.3182223 0.4240974
vt 0.3176711 0.4298358
vt 0.3182994 0.43035
vt 0.3182994 0.43035
vt 0.3176711 0.4298358
vt 0.3177419 0.4333927
vt 0.3181344 0.4335295
vt 0.3065017 0.4192141
vt 0.3052479 0.4192578
vt 0.3050561 0.4219625
vt 0.3063131 0.4224794
vt 0.3063131 0.4224794
vt 0.3050561 0.4219625
vt 0.3040286 0.4280252
vt 0.305552 0.4285031
vt 0.303821 0.4340218
vt 0.3047622 0.434225
vt 0.3044916 0.4442984
vt 0.3051278 0.4437616
vt 0.3159827 0.4192141
vt 0.3150408 0.4192827
vt 0.3149695 0.4220563
vt 0.3159044 0.4226688
vt 0.3143471 0.4283686
vt 0.3152832 0.4282798
vt 0.3150555 0.4340776
vt 0.315509 0.4337317
vt 0.3159827 0.4406142
vt 0.2975824 0.419268
vt 0.2968043 0.4192141
vt 0.297035 0.4251595
vt 0.2980142 0.4254388
vt 0.296949 0.4301767
vt 0.2980142 0.4307221
vt 0.2980142 0.4307221
vt 0.296949 0.4301767
vt 0.2957721 0.4394411
vt 0.2969897 0.4397924
vt 0.2969897 0.4397924
vt 0.2957721 0.4394411
vt 0.2949529 0.4486756
vt 0.2959738 0.4483424
vt 0.2963167 0.461386
vt 0.2887812 0.4192916
vt 0.2895427 0.4297215
vt 0.2900332 0.4192141
vt 0.2881785 0.429806
vt 0.2902133 0.4384178
vt 0.2891082 0.4392223
vt 0.2891082 0.4392223
vt 0.2907687 0.4478649
vt 0.2915441 0.4481949
vt 0.2902133 0.4384178
vt 0.2907687 0.4478649
vt 0.2908654 0.4547439
vt 0.2915441 0.4550341
vt 0.2915441 0.4481949
vt 0.3095852 0.4193014
vt 0.3083339 0.4192141
vt 0.3079116 0.4253877
vt 0.3095852 0.425719
vt 0.3069922 0.4303133
vt 0.3081227 0.4308866
vt 0.3065233 0.436614
vt 0.3076789 0.4359291
vt 0.3076789 0.4359291
vt 0.3065233 0.436614
vt 0.3075106 0.4433314
vt 0.3081056 0.4429752
vt 0.3160043 0.4192749
vt 0.3160047 0.4235324
vt 0.3170978 0.4240974
vt 0.3166968 0.4192141
vt 0.3160047 0.4235324
vt 0.3170212 0.4303499
vt 0.3176495 0.4298357
vt 0.3170978 0.4240974
vt 0.3170212 0.4303499
vt 0.3171865 0.4335294
vt 0.317579 0.4333926
vt 0.3176495 0.4298357
vt 0.3011188 0.4192141
vt 0.3013073 0.4224794
vt 0.3025643 0.4219625
vt 0.3023726 0.4192578
vt 0.3013073 0.4224794
vt 0.3035918 0.4280251
vt 0.3025643 0.4219625
vt 0.3020684 0.428503
vt 0.3037994 0.4340217
vt 0.3028582 0.4342249
vt 0.3031287 0.4442984
vt 0.3024925 0.4437616
vt 0.3126898 0.4192141
vt 0.313703 0.4220563
vt 0.3136318 0.4192827
vt 0.3127682 0.4226688
vt 0.3143255 0.4283685
vt 0.3133893 0.4282798
vt 0.3136171 0.4340775
vt 0.3131635 0.4337317
vt 0.3126898 0.4406142
vt 0.2984676 0.419268
vt 0.299015 0.4251595
vt 0.2992457 0.4192141
vt 0.2980358 0.4254388
vt 0.2991009 0.4301768
vt 0.2980358 0.4307222
vt 0.2980358 0.4307222
vt 0.2990602 0.4397925
vt 0.3002778 0.4394413
vt 0.2991009 0.4301768
vt 0.2990602 0.4397925
vt 0.301097 0.4486757
vt 0.3002778 0.4394413
vt 0.3000761 0.4483424
vt 0.2997332 0.461386
vt 0.2943284 0.4192916
vt 0.2930765 0.4192141
vt 0.2935671 0.4297215
vt 0.2949313 0.429806
vt 0.2928965 0.4384178
vt 0.2940016 0.4392223
vt 0.2940016 0.4392223
vt 0.2928965 0.4384178
vt 0.2915658 0.4481949
vt 0.2923412 0.447865
vt 0.2923412 0.447865
vt 0.2915658 0.4481949
vt 0.2915658 0.4550341
vt 0.2922446 0.454744

usemtl LOW-POLY-COLORS
usemap LOW-POLY-COLORS
f 2/2/2 1/1/1 3/3/3
f 5/5/5 4/4/4 6/6/6
f 8/8/8 7/7/7 9/9/9
f 11/11/11 10/10/10 12/12/12
f 14/14/14 13/13/13 15/15/15
f 17/17/17 16/16/16 18/18/18
f 20/20/20 19/19/19 21/21/21
f 23/23/23 22/22/22 24/24/24
f 26/26/26 25/25/25 27/27/27
f 28/28/28 25/25/25 26/26/26
f 29/29/29 28/28/28 26/26/26
f 30/30/30 28/28/28 29/29/29
f 31/31/31 30/30/30 29/29/29
f 32/32/32 30/30/30 31/31/31
f 34/34/34 33/33/33 35/35/35
f 35/35/35 33/33/33 36/36/36
f 38/38/38 37/37/37 39/39/39
f 39/39/39 37/37/37 40/40/40
f 42/42/42 41/41/41 43/43/43
f 43/43/43 41/41/41 44/44/44
f 46/46/46 45/45/45 47/47/47
f 47/47/47 45/45/45 48/48/48
f 50/50/50 49/49/49 51/51/51
f 51/51/51 49/49/49 52/52/52
f 54/54/54 53/53/53 55/55/55
f 55/55/55 53/53/53 56/56/56
f 55/55/55 56/56/56 57/57/57
f 57/57/57 56/56/56 58/58/58
f 57/57/57 58/58/58 59/59/59
f 59/59/59 58/58/58 60/60/60
f 62/62/62 61/61/61 63/63/63
f 63/63/63 61/61/61 64/64/64
f 63/63/63 64/64/64 65/65/65
f 65/65/65 64/64/64 66/66/66
f 65/65/65 66/66/66 67/67/67
f 67/67/67 66/66/66 68/68/68
f 67/67/67 68/68/68 69/69/69
f 71/71/71 70/70/70 72/72/72
f 72/72/72 70/70/70 73/73/73
f 72/72/72 73/73/73 74/74/74
f 74/74/74 73/73/73 75/75/75
f 77/77/77 76/76/76 78/78/78
f 78/78/78 76/76/76 79/79/79
f 81/81/81 80/80/80 82/82/82
f 82/82/82 80/80/80 83/83/83
f 82/82/82 83/83/83 84/84/84
f 86/86/86 85/85/85 87/87/87
f 88/88/88 85/85/85 86/86/86
f 89/89/89 88/88/88 86/86/86
f 90/90/90 88/88/88 89/89/89
f 92/92/92 91/91/91 93/93/93
f 93/93/93 91/91/91 94/94/94
f 96/96/96 95/95/95 97/97/97
f 97/97/97 95/95/95 98/98/98
f 100/100/100 99/99/99 101/101/101
f 101/101/101 99/99/99 102/102/102
f 101/101/101 102/102/102 103/103/103
f 103/103/103 102/102/102 104/104/104
f 103/103/103 104/104/104 105/105/105
f 105/105/105 104/104/104 106/106/106
f 108/108/108 107/107/107 109/109/109
f 109/109/109 107/107/107 110/110/110
f 112/112/112 111/111/111 113/113/113
f 113/113/113 111/111/111 114/114/114
f 116/116/116 115/115/115 117/117/117
f 117/117/117 115/115/115 118/118/118
f 120/120/120 119/119/119 121/121/121
f 121/121/121 119/119/119 122/122/122
f 124/124/124 123/123/123 125/125/125
f 125/125/125 123/123/123 126/126/126
f 128/128/128 127/127/127 129/129/129
f 130/130/130 127/127/127 128/128/128
f 131/131/131 130/130/130 128/128/128
f 132/132/132 130/130/130 131/131/131
f 133/133/133 132/132/132 131/131/131
f 134/134/134 132/132/132 133/133/133
f 136/136/136 135/135/135 137/137/137
f 138/138/138 135/135/135 136/136/136
f 139/139/139 138/138/138 136/136/136
f 140/140/140 138/138/138 139/139/139
f 141/141/141 140/140/140 139/139/139
f 142/142/142 140/140/140 141/141/141
f 143/143/143 142/142/142 141/141/141
f 145/145/145 144/144/144 146/146/146
f 147/147/147 144/144/144 145/145/145
f 148/148/148 147/147/147 145/145/145
f 149/149/149 147/147/147 148/148/148
f 151/151/151 150/150/150 152/152/152
f 152/152/152 150/150/150 153/153/153
f 155/155/155 154/154/154 156/156/156
f 157/157/157 154/154/154 155/155/155
f 158/158/158 157/157/157 155/155/155
f 160/160/160 159/159/159 161/161/161
f 161/161/161 159/159/159 162/162/162
f 161/161/161 162/162/162 163/163/163
f 163/163/163 162/162/162 164/164/164
f 166/166/166 165/165/165 167/167/167
f 167/167/167 165/165/165 168/168/168
f 170/170/170 169/169/169 171/171/171
f 171/171/171 169/169/169 172/172/172
