mtllib ./SM_Env_Tulips_01_7.mtl
g SM_Env_Tulips_01
v -0.07362366 0.4457322 -0.01174927
v -0.08272934 0.3966797 0.0446434
v -0.139122 0.4202729 0.03553391
v -0.139122 0.4202729 0.03553391
v -0.08272934 0.3966797 0.0446434
v -0.09183502 0.4457322 0.1010361
v -0.09183502 0.4457322 0.1010361
v -0.08272934 0.3966797 0.0446434
v -0.02633667 0.4266793 0.05374908
v -0.02633667 0.4266793 0.05374908
v -0.08272934 0.3966797 0.0446434
v -0.07362366 0.4457322 -0.01174927
v -0.0535202 0.561874 -0.1484718
v -0.01754761 0.5000117 -0.103447
v -0.06257248 0.535129 -0.06747437
v -0.06257248 0.535129 -0.06747437
v -0.01754761 0.5000117 -0.103447
v 0.01842499 0.561874 -0.05842209
v 0.01842499 0.561874 -0.05842209
v -0.01754761 0.5000117 -0.103447
v 0.02747726 0.535129 -0.1394196
v 0.02747726 0.535129 -0.1394196
v -0.01754761 0.5000117 -0.103447
v -0.0535202 0.561874 -0.1484718
v 0.1019516 0.40618 -0.05208969
v 0.1162376 0.3605465 -0.01491165
v 0.08228683 0.3895057 0.003692627
v 0.08228683 0.3895057 0.003692627
v 0.1162376 0.3605465 -0.01491165
v 0.1395531 0.4030857 0.02135849
v 0.1395531 0.4030857 0.02135849
v 0.1162376 0.3605465 -0.01491165
v 0.1553192 0.3816402 -0.0340271
v 0.1553192 0.3816402 -0.0340271
v 0.1162376 0.3605465 -0.01491165
v 0.1019516 0.40618 -0.05208969
v -0.0651474 0.1548201 0.004371643
v -0.06623077 0.1674944 0.01113129
v -0.09464645 0.1837302 0.03164673
v -0.1540718 0.2074029 0.068573
v -0.04572296 0.1674944 0.03954315
v -0.03896713 0.15482 0.04064178
v -0.1278915 0.2074029 0.1048431
v -0.07413483 0.1837302 0.06005478
v -0.1540718 0.2074029 0.068573
v -0.09464645 0.1837302 0.03164673
v -0.07413483 0.1837302 0.06005478
v -0.1278915 0.2074029 0.1048431
v -0.03896713 0.15482 0.04064178
v -0.04572296 0.1674944 0.03954315
v -0.06623077 0.1674944 0.01113129
v -0.0651474 0.1548201 0.004371643
v -0.06991196 0.3381855 0.04671478
v -0.04572296 0.1674944 0.03954315
v -0.07413483 0.1837302 0.06005478
v -0.08479691 0.3381855 0.05746078
v -0.09464645 0.1837302 0.03164673
v -0.09553909 0.3381855 0.04258347
v -0.08479691 0.3381855 0.05746078
v -0.07413483 0.1837302 0.06005478
v -0.06623077 0.1674944 0.01113129
v -0.08065414 0.3381855 0.03183746
v -0.09553909 0.3381855 0.04258347
v -0.09464645 0.1837302 0.03164673
v -0.04572296 0.1674944 0.03954315
v -0.06991196 0.3381855 0.04671478
v -0.08065414 0.3381855 0.03183746
v -0.06623077 0.1674944 0.01113129
v -0.0651474 1.490116E-08 0.004371643
v -0.0651474 0.1548201 0.004371643
v -0.1540718 0.2074029 0.068573
v -0.1014061 1.490116E-08 0.03055191
v -0.1014061 1.490116E-08 0.03055191
v -0.1540718 0.2074029 0.068573
v -0.1278915 0.2074029 0.1048431
v -0.07522202 1.490116E-08 0.06681824
v -0.03896713 0.15482 0.04064178
v -0.03896713 1.490116E-08 0.04064178
v -0.07522202 1.490116E-08 0.06681824
v -0.1278915 0.2074029 0.1048431
v -0.03896713 1.490116E-08 0.04064178
v -0.03896713 0.15482 0.04064178
v -0.0651474 0.1548201 0.004371643
v -0.0651474 1.490116E-08 0.004371643
v -0.08065414 0.3381855 0.03183746
v -0.07083893 0.3697144 -0.02898788
v -0.156353 0.3697144 0.03275299
v -0.09553909 0.3381855 0.04258347
v -0.09553909 0.3381855 0.04258347
v -0.156353 0.3697144 0.03275299
v -0.09461594 0.3697144 0.1182747
v -0.08479691 0.3381855 0.05746078
v -0.08479691 0.3381855 0.05746078
v -0.09461594 0.3697144 0.1182747
v -0.009098053 0.3697144 0.05653381
v -0.06991196 0.3381855 0.04671478
v -0.06991196 0.3381855 0.04671478
v -0.009098053 0.3697144 0.05653381
v -0.07083893 0.3697144 -0.02898788
v -0.08065414 0.3381855 0.03183746
v -0.07083893 0.3697144 -0.02898788
v -0.07362366 0.4457322 -0.01174927
v -0.139122 0.4202729 0.03553391
v -0.156353 0.3697144 0.03275299
v -0.156353 0.3697144 0.03275299
v -0.139122 0.4202729 0.03553391
v -0.09183502 0.4457322 0.1010361
v -0.09461594 0.3697144 0.1182747
v -0.09461594 0.3697144 0.1182747
v -0.09183502 0.4457322 0.1010361
v -0.02633667 0.4266793 0.05374908
v -0.009098053 0.3697144 0.05653381
v -0.009098053 0.3697144 0.05653381
v -0.02633667 0.4266793 0.05374908
v -0.07362366 0.4457322 -0.01174927
v -0.07083893 0.3697144 -0.02898788
v -0.04050446 1.490116E-08 -0.1321754
v -0.02760315 0.4314276 -0.1160316
v -0.03013229 0.4314276 -0.09339523
v -0.04627609 1.490116E-08 -0.0804863
v -0.004962921 0.4314276 -0.1135025
v 0.01118088 1.490116E-08 -0.1264038
v 0.005405426 1.490116E-08 -0.07471085
v -0.00749588 0.4314276 -0.09086227
v -0.04627609 1.490116E-08 -0.0804863
v -0.03013229 0.4314276 -0.09339523
v -0.00749588 0.4314276 -0.09086227
v 0.005405426 1.490116E-08 -0.07471085
v 0.01118088 1.490116E-08 -0.1264038
v -0.004962921 0.4314276 -0.1135025
v -0.02760315 0.4314276 -0.1160316
v -0.04050446 1.490116E-08 -0.1321754
v -0.02760315 0.4314276 -0.1160316
v -0.06665039 0.4769296 -0.1649017
v -0.07900238 0.4769296 -0.05434799
v -0.03013229 0.4314276 -0.09339523
v -0.03013229 0.4314276 -0.09339523
v -0.07900238 0.4769296 -0.05434799
v 0.03155136 0.4769296 -0.04199219
v -0.00749588 0.4314276 -0.09086227
v -0.00749588 0.4314276 -0.09086227
v 0.03155136 0.4769296 -0.04199219
v 0.04390717 0.4769296 -0.1525459
v -0.004962921 0.4314276 -0.1135025
v -0.004962921 0.4314276 -0.1135025
v 0.04390717 0.4769296 -0.1525459
v -0.06665039 0.4769296 -0.1649017
v -0.02760315 0.4314276 -0.1160316
v -0.06665039 0.4769296 -0.1649017
v -0.0535202 0.561874 -0.1484718
v -0.06257248 0.535129 -0.06747437
v -0.07900238 0.4769296 -0.05434799
v -0.07900238 0.4769296 -0.05434799
v -0.06257248 0.535129 -0.06747437
v 0.01842499 0.561874 -0.05842209
v 0.03155136 0.4769296 -0.04199219
v 0.03155136 0.4769296 -0.04199219
v 0.01842499 0.561874 -0.05842209
v 0.02747726 0.535129 -0.1394196
v 0.04390717 0.4769296 -0.1525459
v 0.04390717 0.4769296 -0.1525459
v 0.02747726 0.535129 -0.1394196
v -0.0535202 0.561874 -0.1484718
v -0.06665039 0.4769296 -0.1649017
v 0.06776047 0 -0.03467941
v 0.1059799 0.3121021 -0.02467346
v 0.1010284 0.3127688 -0.0091362
v 0.05645752 1.490116E-08 0.000793457
v 0.1214409 0.3105706 -0.01968002
v 0.103054 1.490116E-08 -0.02327728
v 0.0917511 1.490116E-08 0.01219559
v 0.1164894 0.3112373 -0.004142761
v 0.05645752 1.490116E-08 0.000793457
v 0.1010284 0.3127688 -0.0091362
v 0.1164894 0.3112373 -0.004142761
v 0.0917511 1.490116E-08 0.01219559
v 0.103054 1.490116E-08 -0.02327728
v 0.1214409 0.3105706 -0.01968002
v 0.1059799 0.3121021 -0.02467346
v 0.06776047 0 -0.03467941
v 0.1059799 0.3121021 -0.02467346
v 0.08889389 0.3462086 -0.06486511
v 0.06471252 0.3494647 0.01100159
v 0.1010284 0.3127688 -0.0091362
v 0.1010284 0.3127688 -0.0091362
v 0.06471252 0.3494647 0.01100159
v 0.1402206 0.3419852 0.03538513
v 0.1164894 0.3112373 -0.004142761
v 0.1164894 0.3112373 -0.004142761
v 0.1402206 0.3419852 0.03538513
v 0.1643982 0.3387291 -0.04048538
v 0.1214409 0.3105706 -0.01968002
v 0.1214409 0.3105706 -0.01968002
v 0.1643982 0.3387291 -0.04048538
v 0.08889389 0.3462086 -0.06486511
v 0.1059799 0.3121021 -0.02467346
v 0.08889389 0.3462086 -0.06486511
v 0.1019516 0.40618 -0.05208969
v 0.08228683 0.3895057 0.003692627
v 0.06471252 0.3494647 0.01100159
v 0.06471252 0.3494647 0.01100159
v 0.08228683 0.3895057 0.003692627
v 0.1395531 0.4030857 0.02135849
v 0.1402206 0.3419852 0.03538513
v 0.1402206 0.3419852 0.03538513
v 0.1395531 0.4030857 0.02135849
v 0.1553192 0.3816402 -0.0340271
v 0.1643982 0.3387291 -0.04048538
v 0.1643982 0.3387291 -0.04048538
v 0.1553192 0.3816402 -0.0340271
v 0.1019516 0.40618 -0.05208969
v 0.08889389 0.3462086 -0.06486511

vn 0.1960503 0.7239662 0.6613904
vn 0.1960503 0.7239662 0.6613904
vn 0.1960503 0.7239662 0.6613904
vn 0.3943196 0.7239485 -0.5660484
vn 0.3943196 0.7239485 -0.5660484
vn 0.3943196 0.7239485 -0.5660484
vn -0.2689289 0.7047842 -0.6564728
vn -0.2689289 0.7047842 -0.6564728
vn -0.2689289 0.7047842 -0.6564728
vn -0.4618755 0.7047842 0.5384704
vn -0.4618755 0.7047842 0.5384704
vn -0.4618755 0.7047842 0.5384704
vn 0.7214634 0.6294961 0.2884877
vn 0.7214634 0.6294961 0.2884877
vn 0.7214634 0.6294961 0.2884877
vn -0.1220979 0.6294962 -0.7673505
vn -0.1220979 0.6294962 -0.7673505
vn -0.1220979 0.6294962 -0.7673505
vn -0.7214634 0.6294961 -0.2884877
vn -0.7214634 0.6294961 -0.2884877
vn -0.7214634 0.6294961 -0.2884877
vn 0.1220979 0.6294962 0.7673505
vn 0.1220979 0.6294962 0.7673505
vn 0.1220979 0.6294962 0.7673505
vn 0.7111301 0.5642901 0.4193693
vn 0.7111301 0.5642901 0.4193693
vn 0.7111301 0.5642901 0.4193693
vn 0.09563055 0.6149663 -0.7827332
vn 0.09563055 0.6149663 -0.7827332
vn 0.09563055 0.6149663 -0.7827332
vn -0.5828221 0.6880516 -0.4323232
vn -0.5828221 0.6880516 -0.4323232
vn -0.5828221 0.6880516 -0.4323232
vn 0.032527 0.6373899 0.7698546
vn 0.032527 0.6373899 0.7698546
vn 0.032527 0.6373899 0.7698546
vn -0.3498172 0.4288487 -0.8328966
vn -0.3498172 0.4288487 -0.8328966
vn -0.3498172 0.4288487 -0.8328966
vn -0.3498172 0.4288487 -0.8328966
vn 0.6804833 0.4287438 0.59424
vn 0.6804833 0.4287438 0.59424
vn 0.6804833 0.4287438 0.59424
vn 0.6804833 0.4287438 0.59424
vn 0.2604185 0.9470159 -0.1879979
vn 0.2604185 0.9470159 -0.1879979
vn 0.2604185 0.9470159 -0.1879979
vn 0.2604185 0.9470159 -0.1879979
vn 0.7575904 0.3564095 -0.5468355
vn 0.7575904 0.3564095 -0.5468355
vn 0.7575904 0.3564095 -0.5468355
vn 0.7575904 0.3564095 -0.5468355
vn 0.5974572 0.0527737 0.8001623
vn 0.5974572 0.0527737 0.8001623
vn 0.5974572 0.0527737 0.8001623
vn 0.5974572 0.0527737 0.8001623
vn -0.8098875 -0.04608654 0.584772
vn -0.8098875 -0.04608654 0.584772
vn -0.8098875 -0.04608654 0.584772
vn -0.8098875 -0.04608654 0.584772
vn -0.5714518 0.05277986 -0.8189366
vn -0.5714518 0.05277986 -0.8189366
vn -0.5714518 0.05277986 -0.8189366
vn -0.5714518 0.05277986 -0.8189366
vn 0.8030308 0.1381668 -0.5796994
vn 0.8030308 0.1381668 -0.5796994
vn 0.8030308 0.1381668 -0.5796994
vn 0.8030308 0.1381668 -0.5796994
vn -0.5853719 0 -0.810765
vn -0.5853719 0 -0.810765
vn -0.5853719 0 -0.810765
vn -0.5853719 0 -0.810765
vn -0.7737398 -0.2988838 0.5585653
vn -0.7737398 -0.2988838 0.5585653
vn -0.7737398 -0.2988838 0.5585653
vn -0.7737398 -0.2988838 0.5585653
vn 0.5853664 0 0.810769
vn 0.5853664 0 0.810769
vn 0.5853664 0 0.810769
vn 0.5853664 0 0.810769
vn 0.8108366 0 -0.5852726
vn 0.8108366 0 -0.5852726
vn 0.8108366 0 -0.5852726
vn 0.8108366 0 -0.5852726
vn -0.3431711 -0.8101297 -0.4753141
vn -0.3431711 -0.8101297 -0.4753141
vn -0.3431711 -0.8101297 -0.4753141
vn -0.3431711 -0.8101297 -0.4753141
vn -0.4754296 -0.8100418 0.3432184
vn -0.4754296 -0.8100418 0.3432184
vn -0.4754296 -0.8100418 0.3432184
vn -0.4754296 -0.8100418 0.3432184
vn 0.3432162 -0.8100633 0.4753947
vn 0.3432162 -0.8100633 0.4753947
vn 0.3432162 -0.8100633 0.4753947
vn 0.3432162 -0.8100633 0.4753947
vn 0.4753842 -0.8100748 -0.3432036
vn 0.4753842 -0.8100748 -0.3432036
vn 0.4753842 -0.8100748 -0.3432036
vn 0.4753842 -0.8100748 -0.3432036
vn -0.5955341 0.191367 -0.7802038
vn -0.5955341 0.191367 -0.7802038
vn -0.5955341 0.191367 -0.7802038
vn -0.5955341 0.191367 -0.7802038
vn -0.8108457 0.1913702 0.5530883
vn -0.8108457 0.1913702 0.5530883
vn -0.8108457 0.1913702 0.5530883
vn -0.8108457 0.1913702 0.5530883
vn 0.5905514 0.1825646 0.7860784
vn 0.5905514 0.1825646 0.7860784
vn 0.5905514 0.1825646 0.7860784
vn 0.5905514 0.1825646 0.7860784
vn 0.8079491 0.1825486 -0.5602626
vn 0.8079491 0.1825486 -0.5602626
vn 0.8079491 0.1825486 -0.5602626
vn 0.8079491 0.1825486 -0.5602626
vn -0.9932519 0.03385034 -0.1109277
vn -0.9932519 0.03385034 -0.1109277
vn -0.9932519 0.03385034 -0.1109277
vn -0.9932519 0.03385034 -0.1109277
vn 0.9932417 0.0338523 0.1110172
vn 0.9932417 0.0338523 0.1110172
vn 0.9932417 0.0338523 0.1110172
vn 0.9932417 0.0338523 0.1110172
vn -0.1110396 0.03386886 0.9932387
vn -0.1110396 0.03386886 0.9932387
vn -0.1110396 0.03386886 0.9932387
vn -0.1110396 0.03386886 0.9932387
vn 0.1109277 0.03385131 -0.9932517
vn 0.1109277 0.03385131 -0.9932517
vn 0.1109277 0.03385131 -0.9932517
vn 0.1109277 0.03385131 -0.9932517
vn -0.7126072 -0.6970308 -0.07961853
vn -0.7126072 -0.6970308 -0.07961853
vn -0.7126072 -0.6970308 -0.07961853
vn -0.7126072 -0.6970308 -0.07961853
vn -0.07965884 -0.6970308 0.7126027
vn -0.07965884 -0.6970308 0.7126027
vn -0.07965884 -0.6970308 0.7126027
vn -0.07965884 -0.6970308 0.7126027
vn 0.7126013 -0.6970325 0.0796564
vn 0.7126013 -0.6970325 0.0796564
vn 0.7126013 -0.6970325 0.0796564
vn 0.7126013 -0.6970325 0.0796564
vn 0.07963584 -0.6970154 -0.7126203
vn 0.07963584 -0.6970154 -0.7126203
vn 0.07963584 -0.6970154 -0.7126203
vn 0.07963584 -0.6970154 -0.7126203
vn -0.9757765 0.2033651 -0.08064046
vn -0.9757765 0.2033651 -0.08064046
vn -0.9757765 0.2033651 -0.08064046
vn -0.9757765 0.2033651 -0.08064046
vn -0.1367453 0.2033404 0.9695119
vn -0.1367453 0.2033404 0.9695119
vn -0.1367453 0.2033404 0.9695119
vn -0.1367453 0.2033404 0.9695119
vn 0.9757798 0.2033404 0.08066371
vn 0.9757798 0.2033404 0.08066371
vn 0.9757798 0.2033404 0.08066371
vn 0.9757798 0.2033404 0.08066371
vn 0.1367422 0.2033369 -0.9695131
vn 0.1367422 0.2033369 -0.9695131
vn 0.1367422 0.2033369 -0.9695131
vn 0.1367422 0.2033369 -0.9695131
vn -0.9448227 0.1252184 -0.3027053
vn -0.9448227 0.1252184 -0.3027053
vn -0.9448227 0.1252184 -0.3027053
vn -0.9448227 0.1252184 -0.3027053
vn 0.9508697 -0.05972256 0.3037761
vn 0.9508697 -0.05972256 0.3037761
vn 0.9508697 -0.05972256 0.3037761
vn 0.9508697 -0.05972256 0.3037761
vn -0.3045402 0.07380133 0.949636
vn -0.3045402 0.07380133 0.949636
vn -0.3045402 0.07380133 0.949636
vn -0.3045402 0.07380133 0.949636
vn 0.3071928 -0.007136896 -0.9516206
vn 0.3071928 -0.007136896 -0.9516206
vn 0.3071928 -0.007136896 -0.9516206
vn 0.3071928 -0.007136896 -0.9516206
vn -0.7503291 -0.6260533 -0.2122812
vn -0.7503291 -0.6260533 -0.2122812
vn -0.7503291 -0.6260533 -0.2122812
vn -0.7503291 -0.6260533 -0.2122812
vn -0.2885279 -0.6640571 0.689768
vn -0.2885279 -0.6640571 0.689768
vn -0.2885279 -0.6640571 0.689768
vn -0.2885279 -0.6640571 0.689768
vn 0.6083255 -0.7606822 0.2265007
vn 0.6083255 -0.7606822 0.2265007
vn 0.6083255 -0.7606822 0.2265007
vn 0.6083255 -0.7606822 0.2265007
vn 0.1465411 -0.7226421 -0.6755103
vn 0.1465411 -0.7226421 -0.6755103
vn 0.1465411 -0.7226421 -0.6755103
vn 0.1465411 -0.7226421 -0.6755103
vn -0.9150751 0.2952844 -0.2746719
vn -0.9150751 0.2952844 -0.2746719
vn -0.9150751 0.2952844 -0.2746719
vn -0.9150751 0.2952844 -0.2746719
vn -0.3029331 0.2449218 0.9210021
vn -0.3029331 0.2449218 0.9210021
vn -0.3029331 0.2449218 0.9210021
vn -0.3029331 0.2449218 0.9210021
vn 0.956492 0.1093128 0.2705064
vn 0.956492 0.1093128 0.2705064
vn 0.956492 0.1093128 0.2705064
vn 0.956492 0.1093128 0.2705064
vn 0.3443562 0.1596413 -0.9251667
vn 0.3443562 0.1596413 -0.9251667
vn 0.3443562 0.1596413 -0.9251667
vn 0.3443562 0.1596413 -0.9251667

vt 0.7674973 0.1271766
vt 0.7674973 0.1271766
vt 0.7674973 0.1271766
vt 0.7674973 0.1271766
vt 0.7674973 0.1271766
vt 0.7674973 0.1271766
vt 0.7674973 0.1271766
vt 0.7674973 0.1271766
vt 0.7674973 0.1271766
vt 0.7674973 0.1271766
vt 0.7674973 0.1271766
vt 0.7674973 0.1271766
vt 0.7581085 0.1235209
vt 0.7581085 0.1235209
vt 0.7581085 0.1235209
vt 0.7581085 0.1235209
vt 0.7581085 0.1235209
vt 0.7581085 0.1235209
vt 0.7581085 0.1235209
vt 0.7581085 0.1235209
vt 0.7581085 0.1235209
vt 0.7581085 0.1235209
vt 0.7581085 0.1235209
vt 0.7581085 0.1235209
vt 0.7581085 0.1235209
vt 0.7581085 0.1235209
vt 0.7581085 0.1235209
vt 0.7581085 0.1235209
vt 0.7581085 0.1235209
vt 0.7581085 0.1235209
vt 0.7581085 0.1235209
vt 0.7581085 0.1235209
vt 0.7581085 0.1235209
vt 0.7581085 0.1235209
vt 0.7581085 0.1235209
vt 0.7581085 0.1235209
vt 0.968313 0.8693504
vt 0.968313 0.8693504
vt 0.968313 0.8693503
vt 0.968313 0.8693503
vt 0.968313 0.8693504
vt 0.968313 0.8693504
vt 0.968313 0.8693503
vt 0.968313 0.8693503
vt 0.968313 0.8693503
vt 0.968313 0.8693503
vt 0.968313 0.8693503
vt 0.968313 0.8693503
vt 0.968313 0.8693504
vt 0.968313 0.8693504
vt 0.968313 0.8693504
vt 0.968313 0.8693504
vt 0.968313 0.8693504
vt 0.968313 0.8693504
vt 0.968313 0.8693503
vt 0.968313 0.8693504
vt 0.968313 0.8693503
vt 0.968313 0.8693504
vt 0.968313 0.8693504
vt 0.968313 0.8693503
vt 0.968313 0.8693504
vt 0.968313 0.8693504
vt 0.968313 0.8693504
vt 0.968313 0.8693503
vt 0.968313 0.8693504
vt 0.968313 0.8693504
vt 0.968313 0.8693504
vt 0.968313 0.8693504
vt 0.968313 0.8693503
vt 0.968313 0.8693504
vt 0.968313 0.8693503
vt 0.968313 0.8693503
vt 0.968313 0.8693503
vt 0.968313 0.8693503
vt 0.968313 0.8693503
vt 0.968313 0.8693503
vt 0.968313 0.8693504
vt 0.968313 0.8693503
vt 0.968313 0.8693503
vt 0.968313 0.8693503
vt 0.968313 0.8693503
vt 0.968313 0.8693504
vt 0.968313 0.8693504
vt 0.968313 0.8693503
vt 0.7674973 0.1271766
vt 0.7674973 0.1271766
vt 0.7674973 0.1271766
vt 0.7674973 0.1271766
vt 0.7674973 0.1271766
vt 0.7674973 0.1271766
vt 0.7674973 0.1271766
vt 0.7674973 0.1271766
vt 0.7674973 0.1271766
vt 0.7674973 0.1271766
vt 0.7674973 0.1271766
vt 0.7674973 0.1271766
vt 0.7674973 0.1271766
vt 0.7674973 0.1271766
vt 0.7674973 0.1271766
vt 0.7674973 0.1271766
vt 0.7674973 0.1271766
vt 0.7674973 0.1271766
vt 0.7674973 0.1271766
vt 0.7674973 0.1271766
vt 0.7674973 0.1271766
vt 0.7674973 0.1271766
vt 0.7674973 0.1271766
vt 0.7674973 0.1271766
vt 0.7674973 0.1271766
vt 0.7674973 0.1271766
vt 0.7674973 0.1271766
vt 0.7674973 0.1271766
vt 0.7674973 0.1271766
vt 0.7674973 0.1271766
vt 0.7674973 0.1271766
vt 0.7674973 0.1271766
vt 0.9702871 0.8806165
vt 0.9702871 0.8806165
vt 0.9702871 0.8806165
vt 0.9702871 0.8806165
vt 0.9702871 0.8806165
vt 0.9702871 0.8806165
vt 0.9702871 0.8806165
vt 0.9702871 0.8806165
vt 0.9702871 0.8806165
vt 0.9702871 0.8806165
vt 0.9702871 0.8806165
vt 0.9702871 0.8806165
vt 0.9702871 0.8806165
vt 0.9702871 0.8806165
vt 0.9702871 0.8806165
vt 0.9702871 0.8806165
vt 0.7581085 0.1235209
vt 0.7581085 0.1235209
vt 0.7581085 0.1235209
vt 0.7581085 0.1235209
vt 0.7581085 0.1235209
vt 0.7581085 0.1235209
vt 0.7581085 0.1235209
vt 0.7581085 0.1235209
vt 0.7581085 0.1235209
vt 0.7581085 0.1235209
vt 0.7581085 0.1235209
vt 0.7581085 0.1235209
vt 0.7581085 0.1235209
vt 0.7581085 0.1235209
vt 0.7581085 0.1235209
vt 0.7581085 0.1235209
vt 0.7581085 0.1235209
vt 0.7581085 0.1235209
vt 0.7581085 0.1235209
vt 0.7581085 0.1235209
vt 0.7581085 0.1235209
vt 0.7581085 0.1235209
vt 0.7581085 0.1235209
vt 0.7581085 0.1235209
vt 0.7581085 0.1235209
vt 0.7581085 0.1235209
vt 0.7581085 0.1235209
vt 0.7581085 0.1235209
vt 0.7581085 0.1235209
vt 0.7581085 0.1235209
vt 0.7581085 0.1235209
vt 0.7581085 0.1235209
vt 0.9702871 0.8806165
vt 0.9702871 0.8806165
vt 0.9702871 0.8806165
vt 0.9702871 0.8806165
vt 0.9702871 0.8806165
vt 0.9702871 0.8806165
vt 0.9702871 0.8806165
vt 0.9702871 0.8806165
vt 0.9702871 0.8806165
vt 0.9702871 0.8806165
vt 0.9702871 0.8806165
vt 0.9702871 0.8806165
vt 0.9702871 0.8806165
vt 0.9702871 0.8806165
vt 0.9702871 0.8806165
vt 0.9702871 0.8806165
vt 0.7581085 0.1235209
vt 0.7581085 0.1235209
vt 0.7581085 0.1235209
vt 0.7581085 0.1235209
vt 0.7581085 0.1235209
vt 0.7581085 0.1235209
vt 0.7581085 0.1235209
vt 0.7581085 0.1235209
vt 0.7581085 0.1235209
vt 0.7581085 0.1235209
vt 0.7581085 0.1235209
vt 0.7581085 0.1235209
vt 0.7581085 0.1235209
vt 0.7581085 0.1235209
vt 0.7581085 0.1235209
vt 0.7581085 0.1235209
vt 0.7581085 0.1235209
vt 0.7581085 0.1235209
vt 0.7581085 0.1235209
vt 0.7581085 0.1235209
vt 0.7581085 0.1235209
vt 0.7581085 0.1235209
vt 0.7581085 0.1235209
vt 0.7581085 0.1235209
vt 0.7581085 0.1235209
vt 0.7581085 0.1235209
vt 0.7581085 0.1235209
vt 0.7581085 0.1235209
vt 0.7581085 0.1235209
vt 0.7581085 0.1235209
vt 0.7581085 0.1235209
vt 0.7581085 0.1235209

usemtl PolygonSamurai_Mat_01
usemap PolygonSamurai_Mat_01
f 2/2/2 1/1/1 3/3/3
f 5/5/5 4/4/4 6/6/6
f 8/8/8 7/7/7 9/9/9
f 11/11/11 10/10/10 12/12/12
f 14/14/14 13/13/13 15/15/15
f 17/17/17 16/16/16 18/18/18
f 20/20/20 19/19/19 21/21/21
f 23/23/23 22/22/22 24/24/24
f 26/26/26 25/25/25 27/27/27
f 29/29/29 28/28/28 30/30/30
f 32/32/32 31/31/31 33/33/33
f 35/35/35 34/34/34 36/36/36
f 38/38/38 37/37/37 39/39/39
f 39/39/39 37/37/37 40/40/40
f 42/42/42 41/41/41 43/43/43
f 43/43/43 41/41/41 44/44/44
f 46/46/46 45/45/45 47/47/47
f 47/47/47 45/45/45 48/48/48
f 50/50/50 49/49/49 51/51/51
f 51/51/51 49/49/49 52/52/52
f 54/54/54 53/53/53 55/55/55
f 55/55/55 53/53/53 56/56/56
f 58/58/58 57/57/57 59/59/59
f 59/59/59 57/57/57 60/60/60
f 62/62/62 61/61/61 63/63/63
f 63/63/63 61/61/61 64/64/64
f 66/66/66 65/65/65 67/67/67
f 67/67/67 65/65/65 68/68/68
f 70/70/70 69/69/69 71/71/71
f 71/71/71 69/69/69 72/72/72
f 74/74/74 73/73/73 75/75/75
f 75/75/75 73/73/73 76/76/76
f 78/78/78 77/77/77 79/79/79
f 79/79/79 77/77/77 80/80/80
f 82/82/82 81/81/81 83/83/83
f 83/83/83 81/81/81 84/84/84
f 86/86/86 85/85/85 87/87/87
f 87/87/87 85/85/85 88/88/88
f 90/90/90 89/89/89 91/91/91
f 91/91/91 89/89/89 92/92/92
f 94/94/94 93/93/93 95/95/95
f 95/95/95 93/93/93 96/96/96
f 98/98/98 97/97/97 99/99/99
f 99/99/99 97/97/97 100/100/100
f 102/102/102 101/101/101 103/103/103
f 103/103/103 101/101/101 104/104/104
f 106/106/106 105/105/105 107/107/107
f 107/107/107 105/105/105 108/108/108
f 110/110/110 109/109/109 111/111/111
f 111/111/111 109/109/109 112/112/112
f 114/114/114 113/113/113 115/115/115
f 115/115/115 113/113/113 116/116/116
f 118/118/118 117/117/117 119/119/119
f 119/119/119 117/117/117 120/120/120
f 122/122/122 121/121/121 123/123/123
f 123/123/123 121/121/121 124/124/124
f 126/126/126 125/125/125 127/127/127
f 127/127/127 125/125/125 128/128/128
f 130/130/130 129/129/129 131/131/131
f 131/131/131 129/129/129 132/132/132
f 134/134/134 133/133/133 135/135/135
f 135/135/135 133/133/133 136/136/136
f 138/138/138 137/137/137 139/139/139
f 139/139/139 137/137/137 140/140/140
f 142/142/142 141/141/141 143/143/143
f 143/143/143 141/141/141 144/144/144
f 146/146/146 145/145/145 147/147/147
f 147/147/147 145/145/145 148/148/148
f 150/150/150 149/149/149 151/151/151
f 151/151/151 149/149/149 152/152/152
f 154/154/154 153/153/153 155/155/155
f 155/155/155 153/153/153 156/156/156
f 158/158/158 157/157/157 159/159/159
f 159/159/159 157/157/157 160/160/160
f 162/162/162 161/161/161 163/163/163
f 163/163/163 161/161/161 164/164/164
f 166/166/166 165/165/165 167/167/167
f 167/167/167 165/165/165 168/168/168
f 170/170/170 169/169/169 171/171/171
f 171/171/171 169/169/169 172/172/172
f 174/174/174 173/173/173 175/175/175
f 175/175/175 173/173/173 176/176/176
f 178/178/178 177/177/177 179/179/179
f 179/179/179 177/177/177 180/180/180
f 182/182/182 181/181/181 183/183/183
f 183/183/183 181/181/181 184/184/184
f 186/186/186 185/185/185 187/187/187
f 187/187/187 185/185/185 188/188/188
f 190/190/190 189/189/189 191/191/191
f 191/191/191 189/189/189 192/192/192
f 194/194/194 193/193/193 195/195/195
f 195/195/195 193/193/193 196/196/196
f 198/198/198 197/197/197 199/199/199
f 199/199/199 197/197/197 200/200/200
f 202/202/202 201/201/201 203/203/203
f 203/203/203 201/201/201 204/204/204
f 206/206/206 205/205/205 207/207/207
f 207/207/207 205/205/205 208/208/208
f 210/210/210 209/209/209 211/211/211
f 211/211/211 209/209/209 212/212/212
