mtllib ./SM_Env_Lillypad_Large_01_46.mtl
g SM_Env_Lillypad_Large_01
v 0.0004043579 0 -0.3719177
v 0.007938385 0.0607467 -0.3789253
v -0.06209946 0.09085634 -0.3853607
v 0.06902313 0.09251477 -0.3734856
v 0.007938385 0.0607467 -0.3789253
v 0.0004043579 0 -0.3719177
v 0.1531868 0.08005542 0.3569946
v 0.3027229 0.08005542 0.2533226
v 0.2821007 0 0.2322197
v 0.1424484 0 0.3323822
v 0.2821007 0 0.2322197
v 0.3027229 0.08005542 0.2533226
v 0.373558 0.08005542 0.06641006
v 0.3437653 0 0.06759262
v 0.3530579 0.08005542 -0.1351891
v 0.2302094 0.08005542 -0.305191
v 0.2087173 0 -0.2847633
v 0.3281288 0 -0.1248627
v 0.2087173 0 -0.2847633
v 0.2302094 0.08005542 -0.305191
v 0.06902313 0.09251477 -0.3734856
v 0.0004043579 0 -0.3719177
v 0.0004043579 0 -0.3719177
v -0.06209946 0.09085634 -0.3853607
v -0.2239838 0.08005542 -0.3210869
v -0.2067451 0 -0.2973709
v -0.3518257 0.08005542 -0.1256371
v -0.3735619 0.08005542 0.07397461
v -0.3444748 0 0.0689621
v -0.3267212 0 -0.1159897
v -0.3444748 0 0.0689621
v -0.3735619 0.08005542 0.07397461
v -0.2776756 0.08005542 0.2613831
v -0.2571144 0 0.2401314
v -0.2571144 0 0.2401314
v -0.2776756 0.08005542 0.2613831
v -0.0951004 0.08005542 0.3853645
v -0.0968895 0 0.3557854
v -0.1058655 0.0627327 0.3401222
v 0.002433777 0.02187131 0.009399414
v 0.1373978 0.0627327 0.3216896
v -0.2473335 0.0627327 0.2278061
v 0.002433777 0.02187131 0.009399414
v 0.002433777 0.02187131 0.009399414
v 0.2732544 0.0627327 0.2195778
v -0.3292503 0.0627327 0.06669998
v 0.002433777 0.02187131 0.009399414
v 0.002433777 0.02187131 0.009399414
v 0.3269539 0.0627327 0.07332993
v 0.002433777 0.02187131 0.009399414
v -0.3155403 0.0627327 -0.1111717
v 0.002433777 0.02187131 0.009399414
v 0.316658 0.0627327 -0.1197395
v -0.1980247 0.0627327 -0.2860107
v 0.002433777 0.02187131 0.009399414
v 0.002433777 0.02187131 0.009399414
v 0.193943 0.0627327 -0.2768707
v 0.0002632141 0.0627327 -0.3582497
v 0.002433777 0.02187131 0.009399414
v 0.002433777 0.02187131 0.009399414
v 0.146019 0.0869948 0.3406296
v 0.2890167 0.0869948 0.2390594
v 0.3027229 0.08005542 0.2533226
v 0.1531868 0.08005542 0.3569946
v 0.3027229 0.08005542 0.2533226
v 0.2890167 0.0869948 0.2390594
v 0.3534889 0.0869948 0.06753922
v 0.373558 0.08005542 0.06641006
v 0.3364372 0.0869948 -0.1282845
v 0.2155571 0.0869948 -0.2916794
v 0.2302094 0.08005542 -0.305191
v 0.3530579 0.08005542 -0.1351891
v 0.2302094 0.08005542 -0.305191
v 0.2155571 0.0869948 -0.2916794
v 0.06809998 0.09965149 -0.3543892
v 0.06902313 0.09251477 -0.3734856
v -0.05829239 0.09796679 -0.3672562
v -0.2124443 0.0869948 -0.3052559
v -0.2239838 0.08005542 -0.3210869
v -0.06209946 0.09085634 -0.3853607
v -0.3351212 0.0869948 -0.1191826
v -0.3540535 0.0869948 0.07063675
v -0.3735619 0.08005542 0.07397461
v -0.3518257 0.08005542 -0.1256371
v -0.3735619 0.08005542 0.07397461
v -0.3540535 0.0869948 0.07063675
v -0.2639503 0.0869948 0.2470436
v -0.2776756 0.08005542 0.2613831
v -0.2776756 0.08005542 0.2613831
v -0.2639503 0.0869948 0.2470436
v -0.09683609 0.0869948 0.365509
v -0.0951004 0.08005542 0.3853645
v 0.1373978 0.0627327 0.3216896
v 0.2732544 0.0627327 0.2195778
v 0.2890167 0.0869948 0.2390594
v 0.146019 0.0869948 0.3406296
v 0.2890167 0.0869948 0.2390594
v 0.2732544 0.0627327 0.2195778
v 0.3269539 0.0627327 0.07332993
v 0.3534889 0.0869948 0.06753922
v 0.316658 0.0627327 -0.1197395
v 0.193943 0.0627327 -0.2768707
v 0.2155571 0.0869948 -0.2916794
v 0.3364372 0.0869948 -0.1282845
v 0.2155571 0.0869948 -0.2916794
v 0.193943 0.0627327 -0.2768707
v 0.0002632141 0.0627327 -0.3582497
v 0.06809998 0.09965149 -0.3543892
v 0.0002632141 0.0627327 -0.3582497
v -0.1980247 0.0627327 -0.2860107
v -0.2124443 0.0869948 -0.3052559
v -0.05829239 0.09796679 -0.3672562
v -0.3155403 0.0627327 -0.1111717
v -0.3292503 0.0627327 0.06669998
v -0.3540535 0.0869948 0.07063675
v -0.3351212 0.0869948 -0.1191826
v -0.3540535 0.0869948 0.07063675
v -0.3292503 0.0627327 0.06669998
v -0.2473335 0.0627327 0.2278061
v -0.2639503 0.0869948 0.2470436
v -0.2639503 0.0869948 0.2470436
v -0.2473335 0.0627327 0.2278061
v -0.1058655 0.0627327 0.3401222
v -0.09683609 0.0869948 0.365509
v -0.2124443 0.0869948 -0.3052559
v -0.1980247 0.0627327 -0.2860107
v -0.3155403 0.0627327 -0.1111717
v -0.3351212 0.0869948 -0.1191826
v -0.2239838 0.08005542 -0.3210869
v -0.2124443 0.0869948 -0.3052559
v -0.3351212 0.0869948 -0.1191826
v -0.3518257 0.08005542 -0.1256371
v -0.2067451 0 -0.2973709
v -0.2239838 0.08005542 -0.3210869
v -0.3518257 0.08005542 -0.1256371
v -0.3267212 0 -0.1159897
v -0.09683609 0.0869948 0.365509
v -0.1058655 0.0627327 0.3401222
v 0.1373978 0.0627327 0.3216896
v 0.146019 0.0869948 0.3406296
v -0.0951004 0.08005542 0.3853645
v -0.09683609 0.0869948 0.365509
v 0.146019 0.0869948 0.3406296
v 0.1531868 0.08005542 0.3569946
v -0.0968895 0 0.3557854
v -0.0951004 0.08005542 0.3853645
v 0.1531868 0.08005542 0.3569946
v 0.1424484 0 0.3323822
v 0.3534889 0.0869948 0.06753922
v 0.3269539 0.0627327 0.07332993
v 0.316658 0.0627327 -0.1197395
v 0.3364372 0.0869948 -0.1282845
v 0.373558 0.08005542 0.06641006
v 0.3534889 0.0869948 0.06753922
v 0.3364372 0.0869948 -0.1282845
v 0.3530579 0.08005542 -0.1351891
v 0.3437653 0 0.06759262
v 0.373558 0.08005542 0.06641006
v 0.3530579 0.08005542 -0.1351891
v 0.3281288 0 -0.1248627
v 0.007938385 0.0607467 -0.3789253
v 0.0002632141 0.0627327 -0.3582497
v -0.05829239 0.09796679 -0.3672562
v -0.06209946 0.09085634 -0.3853607
v 0.06809998 0.09965149 -0.3543892
v 0.0002632141 0.0627327 -0.3582497
v 0.007938385 0.0607467 -0.3789253
v 0.06902313 0.09251477 -0.3734856

vn 0.03983164 -0.1193806 -0.9920493
vn 0.03983164 -0.1193806 -0.9920493
vn 0.03983164 -0.1193806 -0.9920493
vn 0.1559559 -0.1322623 -0.978869
vn 0.1559559 -0.1322623 -0.978869
vn 0.1559559 -0.1322623 -0.978869
vn 0.5444143 -0.3271665 0.7723828
vn 0.5444143 -0.3271665 0.7723828
vn 0.5444143 -0.3271665 0.7723828
vn 0.5444143 -0.3271665 0.7723828
vn 0.8863311 -0.3206478 0.3340693
vn 0.8863311 -0.3206478 0.3340693
vn 0.8863311 -0.3206478 0.3340693
vn 0.8863311 -0.3206478 0.3340693
vn 0.7613875 -0.3281445 -0.5591156
vn 0.7613875 -0.3281445 -0.5591156
vn 0.7613875 -0.3281445 -0.5591156
vn 0.7613875 -0.3281445 -0.5591156
vn 0.3611466 -0.3010706 -0.8825699
vn 0.3611466 -0.3010706 -0.8825699
vn 0.3611466 -0.3010706 -0.8825699
vn 0.3611466 -0.3010706 -0.8825699
vn -0.322043 -0.3421746 -0.8827257
vn -0.322043 -0.3421746 -0.8827257
vn -0.322043 -0.3421746 -0.8827257
vn -0.322043 -0.3421746 -0.8827257
vn -0.9419208 -0.3216052 -0.09672322
vn -0.9419208 -0.3216052 -0.09672322
vn -0.9419208 -0.3216052 -0.09672322
vn -0.9419208 -0.3216052 -0.09672322
vn -0.8402682 -0.3309953 0.4294084
vn -0.8402682 -0.3309953 0.4294084
vn -0.8402682 -0.3309953 0.4294084
vn -0.8402682 -0.3309953 0.4294084
vn -0.5445055 -0.3111258 0.7789187
vn -0.5445055 -0.3111258 0.7789187
vn -0.5445055 -0.3111258 0.7789187
vn -0.5445055 -0.3111258 0.7789187
vn 0.03389789 0.993174 -0.1116081
vn -0.001986158 0.9942339 -0.1072151
vn -0.04162295 0.9928451 -0.1119197
vn 0.09482954 0.9924926 -0.07723803
vn 0.06012547 0.9937994 -0.09352851
vn -0.06667308 0.9938006 -0.08896685
vn -0.09514986 0.9929675 -0.07044246
vn 0.1181835 0.9927065 -0.02380032
vn 0.1046156 0.9933369 -0.04834715
vn -0.1055952 0.9934022 -0.04474177
vn -0.1214092 0.9924387 -0.01803049
vn 0.1127751 0.9935964 0.006922442
vn 0.1128175 0.9928519 0.03895007
vn -0.1136185 0.9934337 0.01342983
vn -0.1120356 0.9928356 0.04153914
vn 0.07092921 0.9934772 0.08928768
vn 0.08868086 0.994081 0.06275985
vn -0.09026345 0.993818 0.06464009
vn -0.0721145 0.9930046 0.09349541
vn -0.003178846 0.9938732 0.1104802
vn 0.03182619 0.994819 0.09655262
vn -0.03473916 0.9944622 0.09918711
vn 0.2014189 0.9364896 0.2870845
vn 0.2014189 0.9364896 0.2870845
vn 0.2014189 0.9364896 0.2870845
vn 0.2014189 0.9364896 0.2870845
vn 0.3346129 0.9338515 0.1263154
vn 0.3346129 0.9338515 0.1263154
vn 0.3346129 0.9338515 0.1263154
vn 0.3346129 0.9338515 0.1263154
vn 0.2815546 0.9372093 -0.2058295
vn 0.2815546 0.9372093 -0.2058295
vn 0.2815546 0.9372093 -0.2058295
vn 0.2815546 0.9372093 -0.2058295
vn 0.2046995 0.9304593 -0.3038807
vn 0.2046995 0.9304593 -0.3038807
vn 0.2046995 0.9304593 -0.3038807
vn 0.2046995 0.9304593 -0.3038807
vn -0.1855032 0.9347285 -0.3031023
vn -0.1855032 0.9347285 -0.3031023
vn -0.1855032 0.9347285 -0.3031023
vn -0.1855032 0.9347285 -0.3031023
vn -0.3548433 0.9341912 -0.03705648
vn -0.3548433 0.9341912 -0.03705648
vn -0.3548433 0.9341912 -0.03705648
vn -0.3548433 0.9341912 -0.03705648
vn -0.3080544 0.9382438 0.1574833
vn -0.3080544 0.9382438 0.1574833
vn -0.3080544 0.9382438 0.1574833
vn -0.3080544 0.9382438 0.1574833
vn -0.2103743 0.9293399 0.3034301
vn -0.2103743 0.9293399 0.3034301
vn -0.2103743 0.9293399 0.3034301
vn -0.2103743 0.9293399 0.3034301
vn -0.430673 0.6832778 -0.5896205
vn -0.430673 0.6832778 -0.5896205
vn -0.430673 0.6832778 -0.5896205
vn -0.430673 0.6832778 -0.5896205
vn -0.6913766 0.6751987 -0.2571093
vn -0.6913766 0.6751987 -0.2571093
vn -0.6913766 0.6751987 -0.2571093
vn -0.6913766 0.6751987 -0.2571093
vn -0.5713755 0.6963967 0.434237
vn -0.5713755 0.6963967 0.434237
vn -0.5713755 0.6963967 0.434237
vn -0.5713755 0.6963967 0.434237
vn -0.3001372 0.5750189 0.7610984
vn -0.3001372 0.5750189 0.7610984
vn -0.3001372 0.5750189 0.7610984
vn -0.3001372 0.5750189 0.7610984
vn 0.252679 0.6501716 0.7165405
vn 0.252679 0.6501716 0.7165405
vn 0.252679 0.6501716 0.7165405
vn 0.252679 0.6501716 0.7165405
vn 0.7335891 0.6764655 0.06512555
vn 0.7335891 0.6764655 0.06512555
vn 0.7335891 0.6764655 0.06512555
vn 0.7335891 0.6764655 0.06512555
vn 0.6371652 0.6989723 -0.3247435
vn 0.6371652 0.6989723 -0.3247435
vn 0.6371652 0.6989723 -0.3247435
vn 0.6371652 0.6989723 -0.3247435
vn 0.4608278 0.638716 -0.6161814
vn 0.4608278 0.638716 -0.6161814
vn 0.4608278 0.638716 -0.6161814
vn 0.4608278 0.638716 -0.6161814
vn 0.6204746 0.6667054 0.412935
vn 0.6204746 0.6667054 0.412935
vn 0.6204746 0.6667054 0.412935
vn 0.6204746 0.6667054 0.412935
vn -0.3018453 0.9325268 -0.1982001
vn -0.3018453 0.9325268 -0.1982001
vn -0.3018453 0.9325268 -0.1982001
vn -0.3018453 0.9325268 -0.1982001
vn -0.7921338 -0.3180397 -0.5209364
vn -0.7921338 -0.3180397 -0.5209364
vn -0.7921338 -0.3180397 -0.5209364
vn -0.7921338 -0.3180397 -0.5209364
vn -0.06459281 0.6857501 -0.7249652
vn -0.06459281 0.6857501 -0.7249652
vn -0.06459281 0.6857501 -0.7249652
vn -0.06459281 0.6857501 -0.7249652
vn 0.0378834 0.9362018 0.3494153
vn 0.0378834 0.9362018 0.3494153
vn 0.0378834 0.9362018 0.3494153
vn 0.0378834 0.9362018 0.3494153
vn 0.09981281 -0.3259945 0.9400877
vn 0.09981281 -0.3259945 0.9400877
vn 0.09981281 -0.3259945 0.9400877
vn 0.09981281 -0.3259945 0.9400877
vn -0.7150117 0.6973021 0.05028073
vn -0.7150117 0.6973021 0.05028073
vn -0.7150117 0.6973021 0.05028073
vn -0.7150117 0.6973021 0.05028073
vn 0.347321 0.9371719 -0.03281784
vn 0.347321 0.9371719 -0.03281784
vn 0.347321 0.9371719 -0.03281784
vn 0.347321 0.9371719 -0.03281784
vn 0.9408171 -0.3277492 -0.08627731
vn 0.9408171 -0.3277492 -0.08627731
vn 0.9408171 -0.3277492 -0.08627731
vn 0.9408171 -0.3277492 -0.08627731
vn 0.4623462 0.8724146 -0.1585209
vn 0.4623462 0.8724146 -0.1585209
vn 0.4623462 0.8724146 -0.1585209
vn 0.4623462 0.8724146 -0.1585209
vn -0.4337253 0.8532757 -0.2894875
vn -0.4337253 0.8532757 -0.2894875
vn -0.4337253 0.8532757 -0.2894875
vn -0.4337253 0.8532757 -0.2894875

vt 0.1986427 0.6733673
vt 0.1986427 0.6733673
vt 0.1986427 0.6733673
vt 0.1986427 0.6733673
vt 0.1986427 0.6733673
vt 0.1986427 0.6733673
vt 0.1986427 0.6733673
vt 0.1986427 0.6733673
vt 0.1986427 0.6733673
vt 0.1986427 0.6733673
vt 0.1986427 0.6733673
vt 0.1986427 0.6733673
vt 0.1986427 0.6733673
vt 0.1986427 0.6733673
vt 0.1986427 0.6733673
vt 0.1986427 0.6733673
vt 0.1986427 0.6733673
vt 0.1986427 0.6733673
vt 0.1986427 0.6733673
vt 0.1986427 0.6733673
vt 0.1986427 0.6733673
vt 0.1986427 0.6733673
vt 0.1986427 0.6733673
vt 0.1986427 0.6733673
vt 0.1986427 0.6733673
vt 0.1986427 0.6733673
vt 0.1986427 0.6733673
vt 0.1986427 0.6733673
vt 0.1986427 0.6733673
vt 0.1986427 0.6733673
vt 0.1986427 0.6733673
vt 0.1986427 0.6733673
vt 0.1986427 0.6733673
vt 0.1986427 0.6733673
vt 0.1986427 0.6733673
vt 0.1986427 0.6733673
vt 0.1986427 0.6733673
vt 0.1986427 0.6733673
vt 0.9166778 0.5734094
vt 0.9166778 0.5734094
vt 0.9166778 0.5734094
vt 0.9166778 0.5734094
vt 0.9166778 0.5734094
vt 0.9166778 0.5734094
vt 0.9166778 0.5734094
vt 0.9166778 0.5734094
vt 0.9166778 0.5734094
vt 0.9166778 0.5734094
vt 0.9166778 0.5734094
vt 0.9166778 0.5734094
vt 0.9166778 0.5734094
vt 0.9166778 0.5734094
vt 0.9166778 0.5734094
vt 0.9166778 0.5734094
vt 0.9166778 0.5734094
vt 0.9166778 0.5734094
vt 0.9166778 0.5734094
vt 0.9166778 0.5734094
vt 0.9166778 0.5734094
vt 0.9166778 0.5734094
vt 0.9166778 0.5734094
vt 0.9166778 0.5734094
vt 0.9166778 0.5734094
vt 0.9166778 0.5734094
vt 0.9166778 0.5734094
vt 0.9166778 0.5734094
vt 0.9166778 0.5734094
vt 0.9166778 0.5734094
vt 0.9166778 0.5734094
vt 0.9166778 0.5734094
vt 0.9166778 0.5734094
vt 0.9166778 0.5734094
vt 0.9166778 0.5734094
vt 0.9166778 0.5734094
vt 0.9166778 0.5734094
vt 0.9166778 0.5734094
vt 0.9166778 0.5734094
vt 0.9166778 0.5734094
vt 0.9166778 0.5734094
vt 0.9166778 0.5734094
vt 0.9166778 0.5734094
vt 0.9166778 0.5734094
vt 0.9166778 0.5734094
vt 0.9166778 0.5734094
vt 0.9166778 0.5734094
vt 0.9166778 0.5734094
vt 0.9166778 0.5734094
vt 0.9166778 0.5734094
vt 0.9166778 0.5734094
vt 0.9166778 0.5734094
vt 0.9166778 0.5734094
vt 0.9166778 0.5734094
vt 0.9166778 0.5734094
vt 0.9166778 0.5734094
vt 0.9166778 0.5734094
vt 0.9166778 0.5734094
vt 0.9166778 0.5734094
vt 0.9166778 0.5734094
vt 0.9166778 0.5734094
vt 0.9166778 0.5734094
vt 0.9166778 0.5734094
vt 0.9166778 0.5734094
vt 0.9166778 0.5734094
vt 0.9166778 0.5734094
vt 0.9166778 0.5734094
vt 0.9166778 0.5734094
vt 0.9166778 0.5734094
vt 0.9166778 0.5734094
vt 0.9166778 0.5734094
vt 0.9166778 0.5734094
vt 0.9166778 0.5734094
vt 0.9166778 0.5734094
vt 0.9166778 0.5734094
vt 0.9166778 0.5734094
vt 0.9166778 0.5734094
vt 0.9166778 0.5734094
vt 0.9166778 0.5734094
vt 0.9166778 0.5734094
vt 0.9166778 0.5734094
vt 0.9166778 0.5734094
vt 0.9166778 0.5734094
vt 0.9166778 0.5734094
vt 0.9166778 0.5734094
vt 0.9166778 0.5734094
vt 0.9166778 0.5734094
vt 0.9166778 0.5734094
vt 0.9166778 0.5734094
vt 0.9166778 0.5734094
vt 0.9166778 0.5734094
vt 0.9166778 0.5734094
vt 0.9166778 0.5734094
vt 0.9166778 0.5734094
vt 0.1986427 0.6733673
vt 0.1986427 0.6733673
vt 0.1986427 0.6733673
vt 0.1986427 0.6733673
vt 0.9166778 0.5734094
vt 0.9166778 0.5734094
vt 0.9166778 0.5734094
vt 0.9166778 0.5734094
vt 0.9166778 0.5734094
vt 0.9166778 0.5734094
vt 0.9166778 0.5734094
vt 0.9166778 0.5734094
vt 0.1986427 0.6733673
vt 0.1986427 0.6733673
vt 0.1986427 0.6733673
vt 0.1986427 0.6733673
vt 0.9166778 0.5734094
vt 0.9166778 0.5734094
vt 0.9166778 0.5734094
vt 0.9166778 0.5734094
vt 0.9166778 0.5734094
vt 0.9166778 0.5734094
vt 0.9166778 0.5734094
vt 0.9166778 0.5734094
vt 0.1986427 0.6733673
vt 0.1986427 0.6733673
vt 0.1986427 0.6733673
vt 0.1986427 0.6733673
vt 0.9166778 0.5734094
vt 0.9166778 0.5734094
vt 0.9166778 0.5734094
vt 0.9166778 0.5734094
vt 0.9166778 0.5734094
vt 0.9166778 0.5734094
vt 0.9166778 0.5734094
vt 0.9166778 0.5734094

usemtl PolygonSamurai_Mat_01
usemap PolygonSamurai_Mat_01
f 2/2/2 1/1/1 3/3/3
f 5/5/5 4/4/4 6/6/6
f 8/8/8 7/7/7 9/9/9
f 9/9/9 7/7/7 10/10/10
f 12/12/12 11/11/11 13/13/13
f 13/13/13 11/11/11 14/14/14
f 16/16/16 15/15/15 17/17/17
f 17/17/17 15/15/15 18/18/18
f 20/20/20 19/19/19 21/21/21
f 21/21/21 19/19/19 22/22/22
f 24/24/24 23/23/23 25/25/25
f 25/25/25 23/23/23 26/26/26
f 28/28/28 27/27/27 29/29/29
f 29/29/29 27/27/27 30/30/30
f 32/32/32 31/31/31 33/33/33
f 33/33/33 31/31/31 34/34/34
f 36/36/36 35/35/35 37/37/37
f 37/37/37 35/35/35 38/38/38
f 40/40/40 39/39/39 41/41/41
f 43/43/43 42/42/42 39/39/39
f 45/45/45 44/44/44 41/41/41
f 47/47/47 46/46/46 42/42/42
f 48/48/48 45/45/45 49/49/49
f 46/46/46 50/50/50 51/51/51
f 52/52/52 49/49/49 53/53/53
f 55/55/55 54/54/54 51/51/51
f 57/57/57 56/56/56 53/53/53
f 59/59/59 58/58/58 54/54/54
f 60/60/60 57/57/57 58/58/58
f 62/62/62 61/61/61 63/63/63
f 63/63/63 61/61/61 64/64/64
f 66/66/66 65/65/65 67/67/67
f 67/67/67 65/65/65 68/68/68
f 70/70/70 69/69/69 71/71/71
f 71/71/71 69/69/69 72/72/72
f 74/74/74 73/73/73 75/75/75
f 75/75/75 73/73/73 76/76/76
f 78/78/78 77/77/77 79/79/79
f 79/79/79 77/77/77 80/80/80
f 82/82/82 81/81/81 83/83/83
f 83/83/83 81/81/81 84/84/84
f 86/86/86 85/85/85 87/87/87
f 87/87/87 85/85/85 88/88/88
f 90/90/90 89/89/89 91/91/91
f 91/91/91 89/89/89 92/92/92
f 94/94/94 93/93/93 95/95/95
f 95/95/95 93/93/93 96/96/96
f 98/98/98 97/97/97 99/99/99
f 99/99/99 97/97/97 100/100/100
f 102/102/102 101/101/101 103/103/103
f 103/103/103 101/101/101 104/104/104
f 106/106/106 105/105/105 107/107/107
f 107/107/107 105/105/105 108/108/108
f 110/110/110 109/109/109 111/111/111
f 111/111/111 109/109/109 112/112/112
f 114/114/114 113/113/113 115/115/115
f 115/115/115 113/113/113 116/116/116
f 118/118/118 117/117/117 119/119/119
f 119/119/119 117/117/117 120/120/120
f 122/122/122 121/121/121 123/123/123
f 123/123/123 121/121/121 124/124/124
f 126/126/126 125/125/125 127/127/127
f 127/127/127 125/125/125 128/128/128
f 130/130/130 129/129/129 131/131/131
f 131/131/131 129/129/129 132/132/132
f 134/134/134 133/133/133 135/135/135
f 135/135/135 133/133/133 136/136/136
f 138/138/138 137/137/137 139/139/139
f 139/139/139 137/137/137 140/140/140
f 142/142/142 141/141/141 143/143/143
f 143/143/143 141/141/141 144/144/144
f 146/146/146 145/145/145 147/147/147
f 147/147/147 145/145/145 148/148/148
f 150/150/150 149/149/149 151/151/151
f 151/151/151 149/149/149 152/152/152
f 154/154/154 153/153/153 155/155/155
f 155/155/155 153/153/153 156/156/156
f 158/158/158 157/157/157 159/159/159
f 159/159/159 157/157/157 160/160/160
f 162/162/162 161/161/161 163/163/163
f 163/163/163 161/161/161 164/164/164
f 166/166/166 165/165/165 167/167/167
f 167/167/167 165/165/165 168/168/168
