mtllib ./terrain-world-hill2_4.mtl
g terrain-world-hill2
v -2.999953 0.9174567 2.999985
v -2.999952 1.671927 8.999992
v -8.999948 0.452731 8.999992
v 9.000044 3.356485 2.999984
v 9.000047 4.85221 8.99999
v 3.000048 3.180893 8.999991
v -2.999955 0.2274084 -9.000018
v -2.999955 0.4500953 -15.00001
v 3.000044 0.1494304 -15.00001
v 3.000044 0.1494304 -15.00001
v 3.000046 0.1123439 -9.000018
v 9.000042 0.07543002 -15.00001
v 9.000042 0.2213459 -9.000019
v 15.00004 2.491478E-05 -15.00001
v -2.999954 0.3126746 -3.000023
v -2.999955 0.2274084 -9.000018
v 9.000044 1.346877 -3.000025
v 9.000044 3.356485 2.999984
v 3.000048 2.619164 2.999984
v 15.00005 1.665303 -3.000028
v 15.00005 3.827523 2.999974
v 9.000044 1.346877 -3.000025
v 3.000048 2.619164 2.999984
v 3.000046 0.8389583 -3.000023
v -8.999952 -0.08073513 -9.000017
v -14.99996 0.3507 -9.000015
v -14.99996 2.205376E-05 -15.00001
v -8.999948 0.452731 8.999992
v -8.999946 0.7566355 15
v -14.99995 1.513954E-05 15
v -2.999953 0.9174567 2.999985
v -8.99995 -0.03984144 2.999986
v -2.999954 0.3126746 -3.000023
v 3.000046 0.8389583 -3.000023
v 3.000048 2.619164 2.999984
v -2.999953 0.9174567 2.999985
v 9.000042 0.2213459 -9.000019
v 15.00004 2.491478E-05 -15.00001
v 15.00005 0.5542187 -9.00003
v 3.000046 0.8389583 -3.000023
v 3.000046 0.1123439 -9.000018
v -8.999952 -0.08073513 -9.000017
v -14.99995 0.03878071 -3.00002
v -14.99996 0.3507 -9.000015
v 9.000044 3.356485 2.999984
v 3.000048 3.180893 8.999991
v 3.000048 2.619164 2.999984
v -2.999952 1.671927 8.999992
v -8.999946 0.7566355 15
v -8.999948 0.452731 8.999992
v -8.99995 -0.03984144 2.999986
v -14.99995 0.4041664 2.999987
v -14.99995 0.03878071 -3.00002
v -8.999948 0.452731 8.999992
v -8.999948 0.452731 8.999992
v -14.99995 0.1331491 8.999995
v -14.99995 0.4041664 2.999987
v -14.99995 1.513954E-05 15
v -8.999952 -0.08073513 -9.000017
v -8.99995 0.1152312 -3.000022
v -14.99995 0.03878071 -3.00002
v -2.999955 0.2274084 -9.000018
v -2.999954 0.3126746 -3.000023
v -8.99995 -0.03984144 2.999986
v -14.99995 0.03878071 -3.00002
v 9.000042 0.2213459 -9.000019
v 9.000044 1.346877 -3.000025
v 3.000046 0.8389583 -3.000023
v 15.00005 0.5542187 -9.00003
v 15.00005 1.665303 -3.000028
v 15.00005 3.827523 2.999974
v 15.00005 5.438698 8.999979
v 9.000047 4.85221 8.99999
v 9.000044 3.356485 2.999984
v 15.00005 5.438698 8.999979
v 15.00006 6.000014 14.99994
v 9.000048 5.427083 15
v 9.000047 4.85221 8.99999
v 9.000047 4.85221 8.99999
v 9.000048 5.427083 15
v 3.00005 3.968857 15
v 3.000048 3.180893 8.999991
v -2.999951 2.456918 15
v -2.999952 1.671927 8.999992
v -8.999946 0.7566355 15
v 3.000048 2.619164 2.999984
v -2.999953 0.9174567 2.999985
v 3.000046 0.1123439 -9.000018
v 3.000046 0.8389583 -3.000023
v -2.999954 0.3126746 -3.000023
v -2.999953 0.9174567 2.999985
v -2.999955 0.2274084 -9.000018
v -8.999952 0.2269154 -15.00001
v -2.999955 0.4500953 -15.00001
v -8.999952 -0.08073513 -9.000017
v -14.99996 2.205376E-05 -15.00001
v 15.00005 3.827523 2.999974
v 15.00005 1.827523 2.999973
v 15.00005 3.4387 8.999978
v 15.00005 5.438698 8.999979
v -14.99995 0.03878071 -3.00002
v -14.99995 -1.961219 -3.000021
v -14.99996 -1.649298 -9.000016
v -14.99996 0.3507 -9.000015
v -14.99996 2.205376E-05 -15.00001
v -14.99996 -1.999978 -15.00001
v -8.999952 -1.773085 -15.00001
v -8.999952 0.2269154 -15.00001
v -2.999955 -1.549905 -15.00001
v -2.999955 0.4500953 -15.00001
v 3.000044 -1.85057 -15.00001
v 3.000044 0.1494304 -15.00001
v 9.000042 -1.92457 -15.00001
v 9.000042 0.07543002 -15.00001
v 15.00004 -1.999978 -15.00001
v 15.00004 2.491478E-05 -15.00001
v 15.00005 1.665303 -3.000028
v 15.00005 -0.334696 -3.000027
v 15.00005 1.827523 2.999973
v 15.00005 3.827523 2.999974
v -14.99996 0.3507 -9.000015
v -14.99996 -1.649298 -9.000016
v -14.99996 -1.999978 -15.00001
v -14.99996 2.205376E-05 -15.00001
v 15.00005 0.5542187 -9.00003
v 15.00005 -1.445779 -9.000031
v 15.00005 -0.334696 -3.000027
v 15.00005 1.665303 -3.000028
v -14.99995 1.513954E-05 15
v -14.99995 -1.999984 15
v -14.99995 -1.86685 8.999993
v -14.99995 0.1331491 8.999995
v -14.99995 -1.595833 2.999987
v -14.99995 0.4041664 2.999987
v 15.00004 2.491478E-05 -15.00001
v 15.00004 -1.999978 -15.00001
v 15.00005 -1.445779 -9.000031
v 15.00005 0.5542187 -9.00003
v -8.999946 0.7566355 15
v -14.99995 -1.999984 15
v -14.99995 1.513954E-05 15
v -8.999946 -1.243364 15
v -2.999951 2.456918 15
v -2.999951 0.4569187 15
v 3.00005 3.968857 15
v 3.00005 1.968858 15
v 9.000048 5.427083 15
v 9.000048 3.427084 15
v 15.00006 6.000014 14.99994
v 15.00006 4.000015 14.99994
v 15.00005 5.438698 8.999979
v 15.00005 3.4387 8.999978
v 15.00006 4.000015 14.99994
v 15.00006 6.000014 14.99994
v -14.99995 0.4041664 2.999987
v -14.99995 -1.595833 2.999987
v -14.99995 -1.961219 -3.000021
v -14.99995 0.03878071 -3.00002
v 9.000042 -1.92457 -15.00001
v 15.00004 -5.999975 -15.00001
v 15.00004 -1.999978 -15.00001
v 9.000042 -5.924568 -15.00001
v 3.000044 -1.85057 -15.00001
v 3.000044 -5.850565 -15.00001
v -2.999955 -1.549905 -15.00001
v -2.999955 -5.5499 -15.00001
v -8.999952 -1.773085 -15.00001
v -8.999952 -5.773083 -15.00001
v -14.99996 -1.999978 -15.00001
v -14.99996 -5.999973 -15.00001
v 15.00006 4.000015 14.99994
v 15.00006 1.716614E-05 14.99994
v 9.000048 -0.572916 15
v 9.000048 3.427084 15
v 3.00005 -2.031141 15
v 3.00005 1.968858 15
v -2.999951 -3.543079 15
v -2.999951 0.4569187 15
v -8.999946 -5.243364 15
v -8.999946 -1.243364 15
v -14.99995 -5.999983 15
v -14.99995 -1.999984 15
v -14.99996 -1.649298 -9.000016
v -14.99996 -5.999973 -15.00001
v -14.99996 -1.999978 -15.00001
v -14.99996 -5.649299 -9.000016
v -14.99995 -1.961219 -3.000021
v -14.99995 -5.961219 -3.000021
v -14.99995 -1.595833 2.999987
v -14.99995 -5.59583 2.999987
v -14.99995 -1.86685 8.999993
v -14.99995 -5.866848 8.999993
v -14.99995 -1.999984 15
v -14.99995 -5.999983 15
v 15.00005 3.4387 8.999978
v 15.00006 1.716614E-05 14.99994
v 15.00006 4.000015 14.99994
v 15.00005 -0.5613003 8.999976
v 15.00005 1.827523 2.999973
v 15.00005 -2.172477 2.999973
v 15.00005 -0.334696 -3.000027
v 15.00005 -4.334696 -3.000028
v 15.00005 -1.445779 -9.000031
v 15.00005 -5.445777 -9.00003
v 15.00004 -1.999978 -15.00001
v 15.00004 -5.999975 -15.00001

vn -0.1976352 0.9726164 -0.1223015
vn -0.1976352 0.9726164 -0.1223015
vn -0.1976352 0.9726164 -0.1223015
vn -0.2609189 0.9366944 -0.2335058
vn -0.2609189 0.9366944 -0.2335058
vn -0.2609189 0.9366944 -0.2335058
vn 0.05001365 0.9980614 0.03704254
vn 0.05001365 0.9980614 0.03704254
vn 0.05001365 0.9980614 0.03704254
vn 0.01233223 0.9999049 0.006180502
vn 0.01233223 0.9999049 0.006180502
vn 0.01256285 0.9996256 -0.02431022
vn 0.01256285 0.9996256 -0.02431022
vn 0.01256285 0.9996256 -0.02431022
vn 0.01917197 0.9997153 -0.014207
vn 0.01917197 0.9997153 -0.014207
vn -0.1157415 0.9418542 -0.3154593
vn -0.07365679 0.938221 -0.3381065
vn -0.1157415 0.9418542 -0.3154593
vn -0.07365679 0.938221 -0.3381065
vn -0.07365679 0.938221 -0.3381065
vn -0.0502599 0.9470286 -0.3171922
vn -0.08089054 0.9555508 -0.2835125
vn -0.08089054 0.9555508 -0.2835125
vn 0.07159905 0.9957343 -0.05819705
vn 0.07159905 0.9957343 -0.05819705
vn 0.07159905 0.9957343 -0.05819705
vn -0.1249548 0.9908922 -0.05018933
vn -0.1249548 0.9908922 -0.05018933
vn -0.1249548 0.9908922 -0.05018933
vn -0.1567822 0.9826539 -0.09904841
vn -0.1567822 0.9826539 -0.09904841
vn -0.1567822 0.9826539 -0.09904841
vn -0.2623764 0.9251052 -0.2744792
vn -0.2623764 0.9251052 -0.2744792
vn -0.2623764 0.9251052 -0.2744792
vn -0.05515968 0.9942454 -0.09183446
vn -0.05515968 0.9942454 -0.09183446
vn -0.05515968 0.9942454 -0.09183446
vn -0.01803234 0.9925854 -0.1202046
vn -0.01803234 0.9925854 -0.1202046
vn 0.07162442 0.9960866 0.05178307
vn 0.07162442 0.9960866 0.05178307
vn 0.07162442 0.9960866 0.05178307
vn -0.1214462 0.9882763 -0.09252378
vn -0.1214462 0.9882763 -0.09252378
vn -0.1214462 0.9882763 -0.09252378
vn -0.1988852 0.9787681 -0.04957522
vn -0.1988852 0.9787681 -0.04957522
vn -0.1988852 0.9787681 -0.04957522
vn 0.07366376 0.9954391 -0.06061978
vn 0.07366376 0.9954391 -0.06061978
vn 0.07366376 0.9954391 -0.06061978
vn 0.07355338 0.9939475 -0.08159849
vn -0.05313423 0.9975702 0.04505978
vn -0.05313423 0.9975702 0.04505978
vn -0.05313423 0.9975702 0.04505978
vn -0.05317522 0.9983394 0.02215211
vn -0.01273393 0.9993861 -0.03264102
vn -0.03288614 0.9993582 -0.01420191
vn -0.01273393 0.9993861 -0.03264102
vn -0.03288614 0.9993582 -0.01420191
vn -0.03288614 0.9993582 -0.01420191
vn -0.01273645 0.9995851 0.02583468
vn -0.01273645 0.9995851 0.02583468
vn -0.08291546 0.979472 -0.1837379
vn -0.08291546 0.979472 -0.1837379
vn -0.08291546 0.979472 -0.1837379
vn -0.05211289 0.9819468 -0.1818376
vn -0.05211289 0.9819468 -0.1818376
vn -0.09398605 0.9615106 -0.2581934
vn -0.09398605 0.9615106 -0.2581934
vn -0.09398605 0.9615106 -0.2581934
vn -0.0759553 0.9675021 -0.2411857
vn -0.09464732 0.9911828 -0.09272842
vn -0.09464732 0.9911828 -0.09272842
vn -0.09464732 0.9911828 -0.09272842
vn -0.0968452 0.9907623 -0.0949271
vn -0.2351461 0.9675292 -0.09270105
vn -0.2351461 0.9675292 -0.09270105
vn -0.2351461 0.9675292 -0.09270105
vn -0.2423936 0.9619185 -0.126326
vn -0.2423936 0.9619185 -0.126326
vn -0.2429003 0.9658278 -0.09042212
vn -0.2705101 0.954582 -0.1248895
vn -0.2429003 0.9658278 -0.09042212
vn -0.2708811 0.9550917 -0.1200979
vn -0.08674948 0.9890042 -0.1197709
vn -0.08674948 0.9890042 -0.1197709
vn -0.08674948 0.9890042 -0.1197709
vn -0.08694124 0.9911909 -0.09990891
vn -0.05122255 0.997377 0.05114065
vn -0.05122255 0.997377 0.05114065
vn -0.0371454 0.9986223 0.03706339
vn -0.05122255 0.997377 0.05114065
vn -0.03773902 0.9979766 0.05117144
vn 1 0 -6.357828E-07
vn 1 0 -6.357828E-07
vn 1 0 -6.357828E-07
vn 1 0 -6.357828E-07
vn -1 0 7.947295E-07
vn -1 0 7.947295E-07
vn -1 0 7.947295E-07
vn -1 0 7.947295E-07
vn 0 6.357823E-07 -1
vn 0 6.357823E-07 -1
vn -4.945741E-07 6.357831E-07 -1
vn -4.945741E-07 6.357831E-07 -1
vn -4.945741E-07 6.357831E-07 -1
vn -4.945741E-07 6.357831E-07 -1
vn -3.120106E-07 6.357831E-07 -1
vn -3.120106E-07 6.357831E-07 -1
vn 1.030151E-06 0 -1
vn 1.030151E-06 0 -1
vn 1.030151E-06 0 -1
vn 1.030151E-06 0 -1
vn 1 0 0
vn 1 0 0
vn 1 0 0
vn 1 0 0
vn -1 0 1.986825E-07
vn -1 0 1.986825E-07
vn -1 0 1.986825E-07
vn -1 0 1.986825E-07
vn 1 0 -4.768373E-07
vn 1 0 -4.768373E-07
vn 1 0 -4.768373E-07
vn 1 0 -4.768373E-07
vn -1 0 0
vn -1 0 0
vn -1 0 0
vn -1 0 0
vn -1 0 1.033146E-06
vn -1 0 1.033146E-06
vn 1 0 -1.509989E-06
vn 1 0 -1.509989E-06
vn 1 0 -1.509989E-06
vn 1 0 -1.509989E-06
vn 6.11964E-07 -6.357835E-07 1
vn 1.202616E-07 -6.357831E-07 1
vn 1.202616E-07 -6.357831E-07 1
vn 6.11964E-07 -6.357835E-07 1
vn 6.11964E-07 -6.357835E-07 1
vn 6.11964E-07 -6.357835E-07 1
vn 0 0 1
vn 0 0 1
vn 3.178916E-07 0 1
vn 3.178916E-07 0 1
vn 1.026358E-05 -1.271564E-06 1
vn 1.026358E-05 -1.271564E-06 1
vn 1 0 -3.178938E-07
vn 1 0 -3.178938E-07
vn 1 0 -3.178938E-07
vn 1 0 -3.178938E-07
vn -1 0 0
vn -1 0 0
vn -1 0 0
vn -1 0 0
vn 5.638014E-07 6.357836E-07 -1
vn 5.638014E-07 6.357836E-07 -1
vn 5.638014E-07 6.357836E-07 -1
vn 5.638014E-07 6.357836E-07 -1
vn 0 -3.178919E-07 -1
vn 0 -3.178919E-07 -1
vn -2.324449E-07 0 -1
vn -2.324449E-07 0 -1
vn -1.855511E-07 6.357837E-07 -1
vn -1.855511E-07 6.357837E-07 -1
vn -1.859933E-07 6.357831E-07 -1
vn -1.859933E-07 6.357831E-07 -1
vn 1.02406E-05 3.17891E-07 1
vn 1.02406E-05 3.17891E-07 1
vn 2.748352E-07 -6.357832E-07 1
vn 2.748352E-07 -6.357832E-07 1
vn 2.296705E-07 -6.357831E-07 1
vn 2.296705E-07 -6.357831E-07 1
vn 2.296705E-07 -6.357831E-07 1
vn 2.296705E-07 -6.357831E-07 1
vn 0 -6.357831E-07 1
vn 0 -6.357831E-07 1
vn 0 -6.357831E-07 1
vn 0 -6.357831E-07 1
vn -1 0 7.152562E-07
vn -1 0 -1.589459E-07
vn -1 0 -1.589459E-07
vn -1 0 7.152562E-07
vn -1 0 0
vn -1 0 0
vn -1 0 0
vn -1 0 0
vn -1 0 0
vn -1 0 0
vn -1 0 0
vn -1 0 0
vn 1 0 -5.165773E-07
vn 1 0 -5.165773E-07
vn 1 0 -5.165773E-07
vn 1 0 -5.165773E-07
vn 1 0 -3.97364E-07
vn 1 0 -3.97364E-07
vn 1 0 -3.178915E-07
vn 1 0 -3.178915E-07
vn 1 0 -6.357827E-07
vn 1 0 -6.357827E-07
vn 1 0 -1.390781E-06
vn 1 0 -1.390781E-06

vt 0.4456576 0.4272933
vt 0.4660454 0.4273578
vt 0.4660174 0.4068722
vt 0.4458748 0.4681235
vt 0.466232 0.4682325
vt 0.4661159 0.4478278
vt 0.4049141 0.4272034
vt 0.384616 0.4271439
vt 0.3844606 0.4474677
vt 0.3844606 0.4474677
vt 0.4048415 0.4475597
vt 0.3843914 0.4678417
vt 0.4047647 0.4679469
vt 0.384273 0.4881793
vt 0.4252691 0.4272361
vt 0.4049141 0.4272034
vt 0.4252569 0.4680448
vt 0.4458748 0.4681235
vt 0.4458167 0.447813
vt 0.4252766 0.4885157
vt 0.4459716 0.4883673
vt 0.4252569 0.4680448
vt 0.4458167 0.447813
vt 0.4252614 0.447634
vt 0.404932 0.4068719
vt 0.4049294 0.3865811
vt 0.384636 0.3865076
vt 0.4660174 0.4068722
vt 0.4864941 0.406875
vt 0.4863319 0.3863911
vt 0.4456576 0.4272933
vt 0.4456306 0.4068867
vt 0.4252691 0.4272361
vt 0.4252614 0.447634
vt 0.4458167 0.447813
vt 0.4456576 0.4272933
vt 0.4047647 0.4679469
vt 0.384273 0.4881793
vt 0.4046771 0.4883791
vt 0.4252614 0.447634
vt 0.4048415 0.4475597
vt 0.404932 0.4068719
vt 0.4252832 0.3864518
vt 0.4049294 0.3865811
vt 0.4458748 0.4681235
vt 0.4661159 0.4478278
vt 0.4458167 0.447813
vt 0.4660454 0.4273578
vt 0.4864941 0.406875
vt 0.4660174 0.4068722
vt 0.4456306 0.4068867
vt 0.4456473 0.386582
vt 0.4252832 0.3864518
vt 0.4660174 0.4068722
vt 0.4660174 0.4068722
vt 0.4659554 0.386471
vt 0.4456473 0.386582
vt 0.4863319 0.3863911
vt 0.404932 0.4068719
vt 0.4252788 0.4068628
vt 0.4252832 0.3864518
vt 0.4049141 0.4272034
vt 0.4252691 0.4272361
vt 0.4456306 0.4068867
vt 0.4252832 0.3864518
vt 0.4047647 0.4679469
vt 0.4252569 0.4680448
vt 0.4252614 0.447634
vt 0.4046771 0.4883791
vt 0.4252766 0.4885157
vt 0.4459716 0.4883673
vt 0.4662574 0.4883654
vt 0.466232 0.4682325
vt 0.4458748 0.4681235
vt 0.4662574 0.4883654
vt 0.4864649 0.4885264
vt 0.4863885 0.4682985
vt 0.466232 0.4682325
vt 0.466232 0.4682325
vt 0.4863885 0.4682985
vt 0.4864358 0.4479617
vt 0.4661159 0.4478278
vt 0.4864172 0.4275059
vt 0.4660454 0.4273578
vt 0.4864941 0.406875
vt 0.4458167 0.447813
vt 0.4456576 0.4272933
vt 0.4048415 0.4475597
vt 0.4252614 0.447634
vt 0.4252691 0.4272361
vt 0.4456576 0.4272933
vt 0.4049141 0.4272034
vt 0.3846022 0.406854
vt 0.384616 0.4271439
vt 0.404932 0.4068719
vt 0.384636 0.3865076
vt 0.4459716 0.4883673
vt 0.4448311 0.4958679
vt 0.4655156 0.4959022
vt 0.4662574 0.4883654
vt 0.4252832 0.3864518
vt 0.4252657 0.3787684
vt 0.4048983 0.3789897
vt 0.4049294 0.3865811
vt 0.384636 0.3865076
vt 0.3770013 0.3863489
vt 0.3769632 0.4067162
vt 0.3846022 0.406854
vt 0.3770098 0.4271381
vt 0.384616 0.4271439
vt 0.3768068 0.4475386
vt 0.3844606 0.4474677
vt 0.3767655 0.4678603
vt 0.3843914 0.4678417
vt 0.3766515 0.4881845
vt 0.384273 0.4881793
vt 0.4252766 0.4885157
vt 0.424262 0.4961059
vt 0.4448311 0.4958679
vt 0.4459716 0.4883673
vt 0.4049294 0.3865811
vt 0.4048983 0.3789897
vt 0.3844646 0.3788499
vt 0.384636 0.3865076
vt 0.4046771 0.4883791
vt 0.4040737 0.4959729
vt 0.424262 0.4961059
vt 0.4252766 0.4885157
vt 0.4863319 0.3863911
vt 0.4863933 0.3787583
vt 0.4660373 0.3788203
vt 0.4659554 0.386471
vt 0.4456293 0.3789904
vt 0.4456473 0.386582
vt 0.384273 0.4881793
vt 0.3838389 0.4957473
vt 0.4040737 0.4959729
vt 0.4046771 0.4883791
vt 0.4864941 0.406875
vt 0.493891 0.3858292
vt 0.4863319 0.3863911
vt 0.4941183 0.4060814
vt 0.4864172 0.4275059
vt 0.4939525 0.4265137
vt 0.4864358 0.4479617
vt 0.4940165 0.4470343
vt 0.4863885 0.4682985
vt 0.4939366 0.4676386
vt 0.4864649 0.4885264
vt 0.4941183 0.4881013
vt 0.4662574 0.4883654
vt 0.4655156 0.4959022
vt 0.4860086 0.4961901
vt 0.4864649 0.4885264
vt 0.4456473 0.386582
vt 0.4456293 0.3789904
vt 0.4252657 0.3787684
vt 0.4252832 0.3864518
vt 0.0633489 0.7859764
vt 0.08194119 0.7648795
vt 0.06348149 0.7648795
vt 0.0818086 0.7859763
vt 0.06321879 0.8070732
vt 0.08167856 0.8070732
vt 0.06269024 0.8281701
vt 0.08114998 0.8281701
vt 0.06308258 0.8492669
vt 0.08154231 0.8492669
vt 0.06348149 0.8703638
vt 0.08194119 0.8703638
vt 0.04430306 0.8728901
vt 0.06265369 0.8708854
vt 0.06136402 0.8498039
vt 0.04301339 0.8518087
vt 0.06162164 0.8285535
vt 0.04327096 0.8305582
vt 0.06197303 0.8072927
vt 0.04362254 0.8092974
vt 0.06265369 0.785996
vt 0.04430313 0.7880005
vt 0.06168507 0.7648795
vt 0.04333455 0.7668841
vt 0.08207176 0.7859763
vt 0.101148 0.7648795
vt 0.08268828 0.7648795
vt 0.1005315 0.7859763
vt 0.08262014 0.8070732
vt 0.1010799 0.8070732
vt 0.08197774 0.82817
vt 0.1004375 0.82817
vt 0.08245423 0.8492668
vt 0.100914 0.8492668
vt 0.08268821 0.8703638
vt 0.101148 0.8703638
vt 0.04297683 0.8518851
vt 0.02323992 0.8708805
vt 0.04158223 0.872959
vt 0.0246345 0.849807
vt 0.0425375 0.8306035
vt 0.0241951 0.8285252
vt 0.04113548 0.8092128
vt 0.02279325 0.8071345
vt 0.04156987 0.7880302
vt 0.02322743 0.7859519
vt 0.04297683 0.7669578
vt 0.02463443 0.7648795

usemtl LOW-POLY-COLORS
usemap LOW-POLY-COLORS
f 2/2/2 1/1/1 3/3/3
f 5/5/5 4/4/4 6/6/6
f 8/8/8 7/7/7 9/9/9
f 10/10/10 7/7/7 11/11/11
f 10/10/10 11/11/11 12/12/12
f 12/12/12 11/11/11 13/13/13
f 12/12/12 13/13/13 14/14/14
f 15/15/15 11/11/11 16/16/16
f 18/18/18 17/17/17 19/19/19
f 21/21/21 20/20/20 18/18/18
f 18/18/18 20/20/20 22/22/22
f 23/23/23 22/22/22 24/24/24
f 26/26/26 25/25/25 27/27/27
f 29/29/29 28/28/28 30/30/30
f 28/28/28 31/31/31 32/32/32
f 31/31/31 33/33/33 32/32/32
f 35/35/35 34/34/34 36/36/36
f 38/38/38 37/37/37 39/39/39
f 40/40/40 37/37/37 41/41/41
f 43/43/43 42/42/42 44/44/44
f 46/46/46 45/45/45 47/47/47
f 49/49/49 48/48/48 50/50/50
f 52/52/52 51/51/51 53/53/53
f 52/52/52 54/54/54 51/51/51
f 56/56/56 55/55/55 57/57/57
f 58/58/58 55/55/55 56/56/56
f 60/60/60 59/59/59 61/61/61
f 60/60/60 62/62/62 59/59/59
f 63/63/63 62/62/62 60/60/60
f 64/64/64 63/63/63 60/60/60
f 65/65/65 64/64/64 60/60/60
f 67/67/67 66/66/66 68/68/68
f 67/67/67 69/69/69 66/66/66
f 70/70/70 69/69/69 67/67/67
f 72/72/72 71/71/71 73/73/73
f 73/73/73 71/71/71 74/74/74
f 76/76/76 75/75/75 77/77/77
f 77/77/77 75/75/75 78/78/78
f 80/80/80 79/79/79 81/81/81
f 81/81/81 79/79/79 82/82/82
f 81/81/81 82/82/82 83/83/83
f 83/83/83 82/82/82 84/84/84
f 83/83/83 84/84/84 85/85/85
f 82/82/82 86/86/86 84/84/84
f 84/84/84 86/86/86 87/87/87
f 89/89/89 88/88/88 90/90/90
f 91/91/91 89/89/89 90/90/90
f 93/93/93 92/92/92 94/94/94
f 95/95/95 92/92/92 93/93/93
f 96/96/96 95/95/95 93/93/93
f 98/98/98 97/97/97 99/99/99
f 99/99/99 97/97/97 100/100/100
f 102/102/102 101/101/101 103/103/103
f 103/103/103 101/101/101 104/104/104
f 106/106/106 105/105/105 107/107/107
f 107/107/107 105/105/105 108/108/108
f 107/107/107 108/108/108 109/109/109
f 109/109/109 108/108/108 110/110/110
f 109/109/109 110/110/110 111/111/111
f 111/111/111 110/110/110 112/112/112
f 111/111/111 112/112/112 113/113/113
f 113/113/113 112/112/112 114/114/114
f 113/113/113 114/114/114 115/115/115
f 115/115/115 114/114/114 116/116/116
f 118/118/118 117/117/117 119/119/119
f 119/119/119 117/117/117 120/120/120
f 122/122/122 121/121/121 123/123/123
f 123/123/123 121/121/121 124/124/124
f 126/126/126 125/125/125 127/127/127
f 127/127/127 125/125/125 128/128/128
f 130/130/130 129/129/129 131/131/131
f 131/131/131 129/129/129 132/132/132
f 131/131/131 132/132/132 133/133/133
f 133/133/133 132/132/132 134/134/134
f 136/136/136 135/135/135 137/137/137
f 137/137/137 135/135/135 138/138/138
f 140/140/140 139/139/139 141/141/141
f 142/142/142 139/139/139 140/140/140
f 142/142/142 143/143/143 139/139/139
f 144/144/144 143/143/143 142/142/142
f 144/144/144 145/145/145 143/143/143
f 146/146/146 145/145/145 144/144/144
f 146/146/146 147/147/147 145/145/145
f 148/148/148 147/147/147 146/146/146
f 148/148/148 149/149/149 147/147/147
f 150/150/150 149/149/149 148/148/148
f 152/152/152 151/151/151 153/153/153
f 153/153/153 151/151/151 154/154/154
f 156/156/156 155/155/155 157/157/157
f 157/157/157 155/155/155 158/158/158
f 160/160/160 159/159/159 161/161/161
f 162/162/162 159/159/159 160/160/160
f 162/162/162 163/163/163 159/159/159
f 164/164/164 163/163/163 162/162/162
f 164/164/164 165/165/165 163/163/163
f 166/166/166 165/165/165 164/164/164
f 166/166/166 167/167/167 165/165/165
f 168/168/168 167/167/167 166/166/166
f 168/168/168 169/169/169 167/167/167
f 170/170/170 169/169/169 168/168/168
f 172/172/172 171/171/171 173/173/173
f 173/173/173 171/171/171 174/174/174
f 173/173/173 174/174/174 175/175/175
f 175/175/175 174/174/174 176/176/176
f 175/175/175 176/176/176 177/177/177
f 177/177/177 176/176/176 178/178/178
f 177/177/177 178/178/178 179/179/179
f 179/179/179 178/178/178 180/180/180
f 179/179/179 180/180/180 181/181/181
f 181/181/181 180/180/180 182/182/182
f 184/184/184 183/183/183 185/185/185
f 186/186/186 183/183/183 184/184/184
f 186/186/186 187/187/187 183/183/183
f 188/188/188 187/187/187 186/186/186
f 188/188/188 189/189/189 187/187/187
f 190/190/190 189/189/189 188/188/188
f 190/190/190 191/191/191 189/189/189
f 192/192/192 191/191/191 190/190/190
f 192/192/192 193/193/193 191/191/191
f 194/194/194 193/193/193 192/192/192
f 196/196/196 195/195/195 197/197/197
f 198/198/198 195/195/195 196/196/196
f 198/198/198 199/199/199 195/195/195
f 200/200/200 199/199/199 198/198/198
f 200/200/200 201/201/201 199/199/199
f 202/202/202 201/201/201 200/200/200
f 202/202/202 203/203/203 201/201/201
f 204/204/204 203/203/203 202/202/202
f 204/204/204 205/205/205 203/203/203
f 206/206/206 205/205/205 204/204/204
