mtllib ./terrain-world-valley2_12.mtl
g terrain-world-valley2
v -3.010367 -0.8986904 -3.010235
v 2.989641 -2.6789 -3.010236
v 2.989642 -0.977192 2.989763
v 2.989722 -4.334701 -14.99994
v 8.989736 -5.445787 -14.99994
v 8.989647 -4.911948 -9.010235
v 2.989639 -3.416221 -9.010233
v 8.989647 -4.911948 -9.010235
v 8.989649 -3.240632 -3.010237
v -9.010324 0.226899 15.00007
v -14.99999 -5.12594E-06 15.00006
v -14.99999 0.1331285 9.000052
v -9.010361 0.0210057 8.989763
v -3.010364 -0.1749629 8.989761
v -3.010322 0.4500767 15.00006
v 2.989644 -0.01989334 8.989761
v 8.98965 -0.5124692 8.989759
v 8.999993 0.07541071 15.00005
v -9.010282 -0.5613011 -14.99994
v -3.010279 -2.172481 -14.99994
v -3.010368 -1.406609 -9.010233
v 2.989642 -0.977192 2.989763
v 8.989649 -1.731665 2.989762
v 8.98965 -0.5124692 8.989759
v 8.989649 -3.240632 -3.010237
v 14.99998 -4.334697 -3.000054
v 14.99998 -2.172476 2.999959
v -9.010361 0.0210057 8.989763
v -14.99999 0.1331285 9.000052
v -14.99999 0.4041462 3.000067
v 8.989647 -4.911948 -9.010235
v 14.99998 -5.445781 -9.000046
v 14.99998 -4.334697 -3.000054
v 2.989644 -0.01989334 8.989761
v 2.98968 0.1494118 15.00007
v -3.010322 0.4500767 15.00006
v 2.989644 -0.01989334 8.989761
v 8.999993 0.07541071 15.00005
v -3.010366 -0.3724062 2.989765
v -3.010364 -0.1749629 8.989761
v -9.010361 -0.2871377 2.989767
v -9.010361 0.0210057 8.989763
v -9.010324 0.226899 15.00007
v -14.99999 0.1331285 9.000052
v -3.010368 -1.406609 -9.010233
v 2.989641 -2.6789 -3.010236
v -3.010367 -0.8986904 -3.010235
v 2.989722 -4.334701 -14.99994
v 8.989647 -4.911948 -9.010235
v 2.989639 -3.416221 -9.010233
v 2.989639 -3.416221 -9.010233
v 8.989649 -3.240632 -3.010237
v 2.989641 -2.6789 -3.010236
v -9.010361 0.0210057 8.989763
v -3.010322 0.4500767 15.00006
v -9.010324 0.226899 15.00007
v 8.989647 -4.911948 -9.010235
v 14.99998 -4.334697 -3.000054
v 8.989649 -3.240632 -3.010237
v 2.989644 -0.01989334 8.989761
v -3.010322 0.4500767 15.00006
v -3.010364 -0.1749629 8.989761
v 8.989649 -1.731665 2.989762
v 14.99998 -0.5613018 8.999966
v 8.98965 -0.5124692 8.989759
v -3.010368 -1.406609 -9.010233
v 2.989639 -3.416221 -9.010233
v 2.989641 -2.6789 -3.010236
v -3.010279 -2.172481 -14.99994
v 2.989722 -4.334701 -14.99994
v 8.98965 -0.5124692 8.989759
v 14.99998 -0.5613018 8.999966
v 14.99998 -5.125938E-06 15.00006
v 8.999993 0.07541071 15.00005
v -9.010362 -0.2810755 -9.010232
v -3.010368 -1.406609 -9.010233
v -3.010367 -0.8986904 -3.010235
v -9.010282 -0.5613011 -14.99994
v -9.010361 -0.2871377 2.989767
v -14.99999 0.4041462 3.000067
v -14.99999 0.03876159 -2.989587
v -9.010361 0.0210057 8.989763
v -3.010366 -0.3724062 2.989765
v 2.989642 -0.977192 2.989763
v 2.989644 -0.01989334 8.989761
v 8.98965 -0.5124692 8.989759
v -9.010361 -0.1720722 -3.010234
v -14.99999 0.03876159 -2.989587
v -14.99999 0.3506819 -8.989584
v -9.010361 -0.2871377 2.989767
v -3.010366 -0.3724062 2.989765
v 8.989736 -5.445787 -14.99994
v 14.99998 -5.999978 -14.99994
v 14.99998 -5.445781 -9.000046
v 8.989647 -4.911948 -9.010235
v -9.010361 -0.1720722 -3.010234
v -3.010367 -0.8986904 -3.010235
v -3.010366 -0.3724062 2.989765
v 2.989642 -0.977192 2.989763
v 8.989649 -1.731665 2.989762
v 14.99998 -2.172476 2.999959
v 14.99998 -0.5613018 8.999966
v 8.989649 -3.240632 -3.010237
v 2.989641 -2.6789 -3.010236
v 2.989642 -0.977192 2.989763
v -9.010362 -0.2810755 -9.010232
v -14.99999 1.65684E-05 -14.99994
v -9.010282 -0.5613011 -14.99994
v -14.99999 0.3506819 -8.989584
v -9.010361 -0.1720722 -3.010234
v -3.010367 -0.8986904 -3.010235
v 14.99998 -5.999978 -14.99994
v 14.99998 -8.00001 -14.99994
v 14.99998 -7.445829 -8.989592
v 14.99998 -5.445781 -9.000046
v 14.99998 -6.334745 -2.989595
v 14.99998 -4.334697 -3.000054
v 14.99998 -4.172524 2.989761
v 14.99998 -2.172476 2.999959
v 14.99998 -2.561344 8.989758
v 14.99998 -0.5613018 8.999966
v 14.99998 -2.000005 15.00006
v 14.99998 -5.125938E-06 15.00006
v 8.989736 -5.445787 -14.99994
v 8.989633 -7.008216 -14.99994
v 14.99998 -8.00001 -14.99994
v 14.99998 -5.999978 -14.99994
v 2.98968 0.1494118 15.00007
v -3.010324 -1.96124 15.00006
v -3.010322 0.4500767 15.00006
v 2.98968 -1.595853 15.00006
v 8.999993 0.07541071 15.00005
v 8.989668 -1.866871 15.00007
v 14.99998 -5.125938E-06 15.00006
v 14.99998 -2.000005 15.00006
v 2.989722 -4.334701 -14.99994
v 2.98963 -5.594051 -14.99994
v 8.989633 -7.008216 -14.99994
v 8.989736 -5.445787 -14.99994
v -3.010322 0.4500767 15.00006
v -3.010324 -1.96124 15.00006
v -9.010324 -1.649319 15.00007
v -9.010324 0.226899 15.00007
v -14.99999 -1.999996 15.00006
v -14.99999 -5.12594E-06 15.00006
v -14.99999 -5.12594E-06 15.00006
v -14.99999 -1.999996 15.00006
v -14.99999 -1.773105 9.010409
v -14.99999 0.1331285 9.000052
v -14.99999 -1.549924 3.010412
v -14.99999 0.4041462 3.000067
v -14.99999 -1.85059 -2.989587
v -14.99999 0.03876159 -2.989587
v -14.99999 -1.924591 -8.989584
v -14.99999 0.3506819 -8.989584
v -14.99999 -1.999998 -14.99994
v -14.99999 1.65684E-05 -14.99994
v -3.010279 -2.172481 -14.99994
v 2.98963 -5.594051 -14.99994
v 2.989722 -4.334701 -14.99994
v -3.010372 -3.902451 -14.99994
v -9.010282 -0.5613011 -14.99994
v -9.010376 -2.02703 -14.99994
v -3.010279 -2.172481 -14.99994
v -14.99999 1.65684E-05 -14.99994
v -14.99999 -1.999998 -14.99994
v -9.010376 -2.02703 -14.99994
v -9.010282 -0.5613011 -14.99994
v 14.99998 -2.561344 8.989758
v 14.99998 -6.000005 15.00006
v 14.99998 -2.000005 15.00006
v 14.99998 -6.561344 8.989758
v 14.99998 -4.172524 2.989761
v 14.99998 -8.172523 2.989762
v 14.99998 -6.334745 -2.989595
v 14.99998 -10.33474 -2.989594
v 14.99998 -7.445829 -8.989592
v 14.99998 -11.44583 -8.989591
v 14.99998 -8.00001 -14.99994
v 14.99998 -12.00001 -14.99994
v -14.99999 -1.999998 -14.99994
v -14.99999 -5.999998 -14.99994
v -9.010373 -6.027033 -14.99994
v -9.010376 -2.02703 -14.99994
v -3.010372 -7.902452 -14.99994
v -3.010372 -3.902451 -14.99994
v 2.989629 -9.594049 -14.99994
v 2.98963 -5.594051 -14.99994
v 8.989634 -11.00822 -14.99994
v 8.989633 -7.008216 -14.99994
v 14.99998 -12.00001 -14.99994
v 14.99998 -8.00001 -14.99994
v -14.99999 -1.924591 -8.989584
v -14.99999 -5.999998 -14.99994
v -14.99999 -1.999998 -14.99994
v -14.99999 -5.924589 -8.989584
v -14.99999 -1.85059 -2.989587
v -14.99999 -5.850588 -2.989587
v -14.99999 -1.549924 3.010412
v -14.99999 -5.549921 3.010413
v -14.99999 -1.773105 9.010409
v -14.99999 -5.773104 9.01041
v -14.99999 -1.999996 15.00006
v -14.99999 -5.999996 15.00006
v -9.010324 -1.649319 15.00007
v -14.99999 -5.999996 15.00006
v -14.99999 -1.999996 15.00006
v -9.010324 -5.649323 15.00006
v -3.010324 -1.96124 15.00006
v -3.010324 -5.961239 15.00006
v 2.98968 -1.595853 15.00006
v 2.989678 -5.595854 15.00007
v 8.989668 -1.866871 15.00007
v 8.989668 -5.86687 15.00006
v 14.99998 -2.000005 15.00006
v 14.99998 -6.000005 15.00006

vn 0.2744798 0.9251051 -0.2623765
vn 0.2744798 0.9251051 -0.2623765
vn 0.2744798 0.9251051 -0.2623765
vn 0.1813899 0.9795288 -0.0872988
vn 0.1813899 0.9795288 -0.0872988
vn 0.1813899 0.9795288 -0.0872988
vn 0.2335062 0.9366943 -0.2609189
vn 0.2335062 0.9366943 -0.2609189
vn 0.2335062 0.9366943 -0.2609189
vn -0.03784614 0.9990376 0.02216754
vn -0.03784614 0.9990376 0.02216754
vn -0.03784614 0.9990376 0.02216754
vn 0.0324691 0.9941116 -0.1033826
vn 0.0324691 0.9941116 -0.1033826
vn 0.0324691 0.9941116 -0.1033826
vn 0.08143345 0.9919314 -0.09716308
vn 0.08143345 0.9919314 -0.09716308
vn 0.08143345 0.9919314 -0.09716308
vn 0.2573873 0.9585052 -0.1225551
vn 0.2573873 0.9585052 -0.1225551
vn 0.2573873 0.9585052 -0.1225551
vn 0.122302 0.9726164 -0.1976351
vn 0.122302 0.9726164 -0.1976351
vn 0.122302 0.9726164 -0.1976351
vn 0.1693429 0.9271891 -0.3341308
vn 0.1693429 0.9271891 -0.3341308
vn 0.1693429 0.9271891 -0.3341308
vn 0.01877462 0.9988054 0.04511576
vn 0.01877462 0.9988054 0.04511576
vn 0.01877462 0.9988054 0.04511576
vn 0.08730838 0.979528 -0.1813899
vn 0.08730838 0.979528 -0.1813899
vn 0.08730838 0.979528 -0.1813899
vn 0.05002823 0.9983518 -0.02812302
vn 0.05002823 0.9983518 -0.02812302
vn 0.05002823 0.9983518 -0.02812302
vn -0.0258223 0.9991258 -0.03287845
vn 0.01230648 0.9995278 -0.02815592
vn 0.0142023 0.9993582 -0.03288612
vn 0.0142023 0.9993582 -0.03288612
vn 0.0142023 0.9993582 -0.03288612
vn 0.03260111 0.9981529 -0.05126239
vn 0.01864644 0.99924 -0.0342308
vn 0.01864644 0.99924 -0.0342308
vn 0.283513 0.9555507 -0.08089037
vn 0.283513 0.9555507 -0.08089037
vn 0.283513 0.9555507 -0.08089037
vn 0.2392511 0.95974 -0.1471661
vn 0.2392511 0.95974 -0.1471661
vn 0.2392511 0.95974 -0.1471661
vn 0.09252419 0.9882763 -0.1214462
vn 0.09252419 0.9882763 -0.1214462
vn 0.09252419 0.9882763 -0.1214462
vn -0.03714882 0.9987239 -0.03421278
vn -0.03714882 0.9987239 -0.03421278
vn -0.03714882 0.9987239 -0.03421278
vn 0.1731536 0.9487739 -0.2642837
vn 0.1731536 0.9487739 -0.2642837
vn 0.1731536 0.9487739 -0.2642837
vn -0.02569777 0.9943076 -0.1034025
vn -0.02569777 0.9943076 -0.1034025
vn -0.02569777 0.9943076 -0.1034025
vn 0.008299933 0.9799393 -0.1991232
vn 0.008299933 0.9799393 -0.1991232
vn 0.008299933 0.9799393 -0.1991232
vn 0.3154598 0.9418541 -0.1157415
vn 0.3154598 0.9418541 -0.1157415
vn 0.3154598 0.9418541 -0.1157415
vn 0.3355543 0.9311377 -0.1427789
vn 0.3355543 0.9311377 -0.1427789
vn 0.008247348 0.995619 -0.09313804
vn 0.008247348 0.995619 -0.09313804
vn 0.008247348 0.995619 -0.09313804
vn 0.01250881 0.9951704 -0.09736135
vn 0.1837383 0.9794719 -0.0829154
vn 0.1837383 0.9794719 -0.0829154
vn 0.1837383 0.9794719 -0.0829154
vn 0.1841786 0.981819 -0.0459314
vn 0.1143397 0.9915984 -0.06049008
vn 0.1143397 0.9915984 -0.06049008
vn 0.1143397 0.9915984 -0.06049008
vn 0.1144169 0.9921253 -0.05095286
vn 0.09904902 0.9826538 -0.1567823
vn 0.09904902 0.9826538 -0.1567823
vn 0.09904902 0.9826538 -0.1567823
vn 0.08080534 0.9842806 -0.1570419
vn 0.03530925 0.9980287 0.05188427
vn 0.03530925 0.9980287 0.05188427
vn 0.03530925 0.9980287 0.05188427
vn 0.03523751 0.9991953 0.01916213
vn 0.01420739 0.9997153 0.01917212
vn 0.09143215 0.9915903 -0.09159089
vn 0.09143215 0.9915903 -0.09159089
vn 0.09143215 0.9915903 -0.09159089
vn 0.08827299 0.9921637 -0.08842633
vn 0.1197715 0.9890042 -0.08674956
vn 0.1197715 0.9890042 -0.08674956
vn 0.1197715 0.9890042 -0.08674956
vn 0.09990954 0.9911909 -0.08694138
vn 0.09042257 0.9658278 -0.2429003
vn 0.07109233 0.963342 -0.2586851
vn 0.07109233 0.963342 -0.2586851
vn 0.09042257 0.9658278 -0.2429003
vn 0.09042257 0.9658278 -0.2429003
vn 0.1200983 0.9550915 -0.2708812
vn 0.1045197 0.9928344 -0.05792547
vn 0.1045197 0.9928344 -0.05792547
vn 0.09320376 0.9945592 -0.0465287
vn 0.1045197 0.9928344 -0.05792547
vn 0.1202052 0.9925852 -0.01803255
vn 0.1202052 0.9925852 -0.01803255
vn 1 0 -3.175372E-07
vn 1 0 -3.175372E-07
vn 1 0 -3.175372E-07
vn 1 0 -3.175372E-07
vn 1 0 0
vn 1 0 0
vn 1 0 0
vn 1 0 0
vn 1 0 0
vn 1 0 0
vn 1 0 2.382664E-07
vn 1 0 2.382664E-07
vn -1.137656E-07 0 -1
vn -1.137656E-07 0 -1
vn -1.137656E-07 0 -1
vn -1.137656E-07 0 -1
vn 1.041925E-06 3.445035E-06 1
vn 0 0 1
vn 0 0 1
vn 1.041925E-06 3.445035E-06 1
vn 1.041925E-06 3.445035E-06 1
vn 1.041925E-06 3.445035E-06 1
vn -8.188065E-07 3.222542E-06 1
vn -8.188065E-07 3.222542E-06 1
vn 1.50592E-07 -9.012368E-07 -1
vn 1.50592E-07 -9.012368E-07 -1
vn 1.50592E-07 -9.012368E-07 -1
vn 1.50592E-07 -9.012368E-07 -1
vn 1.589457E-07 0 1
vn 1.589457E-07 0 1
vn 1.589457E-07 0 1
vn 1.589457E-07 0 1
vn -4.776597E-07 0 1
vn -4.776597E-07 0 1
vn -1 0 -1.832792E-07
vn -1 0 -1.832792E-07
vn -1 0 0
vn -1 0 0
vn -1 0 1.241543E-07
vn -1 0 1.241543E-07
vn -1 0 1.241543E-07
vn -1 0 1.241543E-07
vn -1 0 2.226822E-07
vn -1 0 2.226822E-07
vn -1 0 2.226822E-07
vn -1 0 2.226822E-07
vn 0 0 -1
vn 0 0 -1
vn 0 0 -1
vn 0 0 -1
vn -1.661771E-07 0 -1
vn -1.661771E-07 0 -1
vn -1.661771E-07 0 -1
vn 0 0 -1
vn 0 0 -1
vn 0 0 -1
vn 0 0 -1
vn 1 0 1.190049E-07
vn 1 0 1.190049E-07
vn 1 0 1.190049E-07
vn 1 0 1.190049E-07
vn 1 0 0
vn 1 0 0
vn 1 0 1.594945E-07
vn 1 0 1.594945E-07
vn 1 0 0
vn 1 0 0
vn 1 0 0
vn 1 0 0
vn 0 0 -1
vn 0 0 -1
vn 0 3.178912E-07 -1
vn 0 3.178912E-07 -1
vn 0 3.178912E-07 -1
vn 0 3.178912E-07 -1
vn 0 0 -1
vn 0 0 -1
vn 0 3.173439E-07 -1
vn 0 3.173439E-07 -1
vn 0 3.173439E-07 -1
vn 0 3.173439E-07 -1
vn -1 0 3.371774E-07
vn -1 0 3.371774E-07
vn -1 0 3.371774E-07
vn -1 0 3.371774E-07
vn -1 0 -1.341106E-07
vn -1 0 -1.341106E-07
vn -1 0 0
vn -1 0 0
vn -1 0 0
vn -1 0 0
vn -1 0 0
vn -1 0 0
vn 0 0 1
vn -2.458091E-07 0 1
vn -2.458091E-07 0 1
vn 0 0 1
vn 0 0 1
vn 0 0 1
vn 0 -3.17892E-07 1
vn 0 -3.17892E-07 1
vn 0 -3.17892E-07 1
vn 0 -3.17892E-07 1
vn 0 0 1
vn 0 0 1

vt 0.4465432 0.428398
vt 0.4266672 0.4282148
vt 0.4268713 0.4480643
vt 0.4267849 0.3888071
vt 0.4069068 0.3886304
vt 0.406798 0.4083476
vt 0.4266383 0.4085112
vt 0.406798 0.4083476
vt 0.4069611 0.4282452
vt 0.4662772 0.4873723
vt 0.4858931 0.4874257
vt 0.4858704 0.4677621
vt 0.466235 0.4677058
vt 0.4465886 0.4677509
vt 0.4466136 0.4875283
vt 0.4269479 0.4677623
vt 0.4073294 0.467787
vt 0.4073658 0.4875023
vt 0.4663512 0.3894313
vt 0.4466768 0.3890563
vt 0.4465818 0.4087172
vt 0.4268713 0.4480643
vt 0.4071846 0.4480779
vt 0.4073294 0.467787
vt 0.4069611 0.4282452
vt 0.387101 0.4282735
vt 0.3875814 0.4482154
vt 0.466235 0.4677058
vt 0.4858704 0.4677621
vt 0.4858134 0.4481671
vt 0.406798 0.4083476
vt 0.3870463 0.4083656
vt 0.387101 0.4282735
vt 0.4269479 0.4677623
vt 0.4269551 0.4874196
vt 0.4466136 0.4875283
vt 0.4269479 0.4677623
vt 0.4073658 0.4875023
vt 0.4465583 0.4480859
vt 0.4465886 0.4677509
vt 0.4661959 0.448083
vt 0.466235 0.4677058
vt 0.4662772 0.4873723
vt 0.4858704 0.4677621
vt 0.4465818 0.4087172
vt 0.4266672 0.4282148
vt 0.4465432 0.428398
vt 0.4267849 0.3888071
vt 0.406798 0.4083476
vt 0.4266383 0.4085112
vt 0.4266383 0.4085112
vt 0.4069611 0.4282452
vt 0.4266672 0.4282148
vt 0.466235 0.4677058
vt 0.4466136 0.4875283
vt 0.4662772 0.4873723
vt 0.406798 0.4083476
vt 0.387101 0.4282735
vt 0.4069611 0.4282452
vt 0.4269479 0.4677623
vt 0.4466136 0.4875283
vt 0.4465886 0.4677509
vt 0.4071846 0.4480779
vt 0.3878116 0.4678586
vt 0.4073294 0.467787
vt 0.4465818 0.4087172
vt 0.4266383 0.4085112
vt 0.4266672 0.4282148
vt 0.4466768 0.3890563
vt 0.4267849 0.3888071
vt 0.4073294 0.467787
vt 0.3878116 0.4678586
vt 0.3877184 0.4874899
vt 0.4073658 0.4875023
vt 0.4662673 0.4088599
vt 0.4465818 0.4087172
vt 0.4465432 0.428398
vt 0.4663512 0.3894313
vt 0.4661959 0.448083
vt 0.4858134 0.4481671
vt 0.4858867 0.4285531
vt 0.466235 0.4677058
vt 0.4465583 0.4480859
vt 0.4268713 0.4480643
vt 0.4269479 0.4677623
vt 0.4073294 0.467787
vt 0.4662311 0.4284601
vt 0.4858867 0.4285531
vt 0.4858656 0.4089003
vt 0.4661959 0.448083
vt 0.4465583 0.4480859
vt 0.4069068 0.3886304
vt 0.3871318 0.3885626
vt 0.3870463 0.4083656
vt 0.406798 0.4083476
vt 0.4662311 0.4284601
vt 0.4465432 0.428398
vt 0.4465583 0.4480859
vt 0.4268713 0.4480643
vt 0.4071846 0.4480779
vt 0.3875814 0.4482154
vt 0.3878116 0.4678586
vt 0.4069611 0.4282452
vt 0.4266672 0.4282148
vt 0.4268713 0.4480643
vt 0.4662673 0.4088599
vt 0.4857937 0.3892531
vt 0.4663512 0.3894313
vt 0.4858656 0.4089003
vt 0.4662311 0.4284601
vt 0.4465432 0.428398
vt 0.3871318 0.3885626
vt 0.3798043 0.3881846
vt 0.3796954 0.4078383
vt 0.3870463 0.4083656
vt 0.3797511 0.4273857
vt 0.387101 0.4282735
vt 0.3803083 0.4472121
vt 0.3875814 0.4482154
vt 0.3805104 0.4671987
vt 0.3878116 0.4678586
vt 0.3803084 0.4870776
vt 0.3877184 0.4874899
vt 0.4069068 0.3886304
vt 0.4062147 0.3812793
vt 0.386538 0.3812287
vt 0.3871318 0.3885626
vt 0.4269551 0.4874196
vt 0.4466381 0.4949494
vt 0.4466136 0.4875283
vt 0.4269699 0.4947476
vt 0.4073658 0.4875023
vt 0.4072657 0.494882
vt 0.3877184 0.4874899
vt 0.3876261 0.4948537
vt 0.4267849 0.3888071
vt 0.4259184 0.381483
vt 0.4062147 0.3812793
vt 0.4069068 0.3886304
vt 0.4466136 0.4875283
vt 0.4466381 0.4949494
vt 0.4663153 0.4947101
vt 0.4662772 0.4873723
vt 0.4860704 0.4948326
vt 0.4858931 0.4874257
vt 0.4858931 0.4874257
vt 0.4932714 0.4875578
vt 0.4932516 0.4678757
vt 0.4858704 0.4677621
vt 0.4931563 0.4481491
vt 0.4858134 0.4481671
vt 0.4932714 0.4284545
vt 0.4858867 0.4285531
vt 0.4932211 0.4088321
vt 0.4858656 0.4089003
vt 0.4931501 0.3891804
vt 0.4857937 0.3892531
vt 0.4466768 0.3890563
vt 0.4259184 0.381483
vt 0.4267849 0.3888071
vt 0.4457276 0.3817183
vt 0.4663512 0.3894313
vt 0.465784 0.3821807
vt 0.4466768 0.3890563
vt 0.4857937 0.3892531
vt 0.4856381 0.3818081
vt 0.465784 0.3821807
vt 0.4663512 0.3894313
vt 0.06006481 0.8518149
vt 0.03934988 0.871819
vt 0.05859307 0.8739994
vt 0.0408215 0.8496345
vt 0.05960385 0.829488
vt 0.04036057 0.8273077
vt 0.05812445 0.8071225
vt 0.03888118 0.804942
vt 0.05857995 0.7848995
vt 0.03933673 0.7827192
vt 0.06006481 0.7627164
vt 0.0408215 0.7605361
vt 0.01958084 0.8737614
vt 0.03884261 0.8717517
vt 0.03659535 0.8497332
vt 0.01733359 0.8517429
vt 0.03773893 0.8273606
vt 0.01847712 0.8293704
vt 0.03854523 0.8050235
vt 0.01928341 0.8070332
vt 0.03884261 0.7827393
vt 0.01958076 0.7847491
vt 0.03836519 0.7605361
vt 0.01910337 0.7625459
vt 0.06079445 0.782707
vt 0.08029995 0.7605361
vt 0.06093356 0.7605361
vt 0.08016085 0.782707
vt 0.06065805 0.8048399
vt 0.0800244 0.8048399
vt 0.06010339 0.8269728
vt 0.07946978 0.8269728
vt 0.06051513 0.8491059
vt 0.07988144 0.8491059
vt 0.06093356 0.8712388
vt 0.08029995 0.8712388
vt 0.08043715 0.782669
vt 0.1004503 0.7605361
vt 0.08108395 0.7605361
vt 0.09980347 0.782669
vt 0.08101239 0.8048021
vt 0.1003788 0.8048021
vt 0.08033852 0.8269351
vt 0.09970484 0.8269351
vt 0.08083839 0.8490679
vt 0.1002047 0.8490679
vt 0.08108395 0.8712009
vt 0.1004503 0.8712009

usemtl LOW-POLY-COLORS
usemap LOW-POLY-COLORS
f 2/2/2 1/1/1 3/3/3
f 5/5/5 4/4/4 6/6/6
f 8/8/8 7/7/7 9/9/9
f 11/11/11 10/10/10 12/12/12
f 14/14/14 13/13/13 15/15/15
f 17/17/17 16/16/16 18/18/18
f 20/20/20 19/19/19 21/21/21
f 23/23/23 22/22/22 24/24/24
f 26/26/26 25/25/25 27/27/27
f 29/29/29 28/28/28 30/30/30
f 32/32/32 31/31/31 33/33/33
f 35/35/35 34/34/34 36/36/36
f 38/38/38 37/37/37 35/35/35
f 37/37/37 39/39/39 40/40/40
f 39/39/39 41/41/41 40/40/40
f 40/40/40 41/41/41 42/42/42
f 44/44/44 43/43/43 42/42/42
f 46/46/46 45/45/45 47/47/47
f 49/49/49 48/48/48 50/50/50
f 52/52/52 51/51/51 53/53/53
f 55/55/55 54/54/54 56/56/56
f 58/58/58 57/57/57 59/59/59
f 61/61/61 60/60/60 62/62/62
f 64/64/64 63/63/63 65/65/65
f 67/67/67 66/66/66 68/68/68
f 67/67/67 69/69/69 66/66/66
f 70/70/70 69/69/69 67/67/67
f 72/72/72 71/71/71 73/73/73
f 73/73/73 71/71/71 74/74/74
f 76/76/76 75/75/75 77/77/77
f 76/76/76 78/78/78 75/75/75
f 80/80/80 79/79/79 81/81/81
f 80/80/80 82/82/82 79/79/79
f 84/84/84 83/83/83 85/85/85
f 86/86/86 84/84/84 85/85/85
f 88/88/88 87/87/87 89/89/89
f 88/88/88 90/90/90 87/87/87
f 91/91/91 87/87/87 90/90/90
f 93/93/93 92/92/92 94/94/94
f 94/94/94 92/92/92 95/95/95
f 97/97/97 96/96/96 98/98/98
f 99/99/99 97/97/97 98/98/98
f 101/101/101 100/100/100 102/102/102
f 101/101/101 103/103/103 100/100/100
f 103/103/103 104/104/104 100/100/100
f 100/100/100 104/104/104 105/105/105
f 107/107/107 106/106/106 108/108/108
f 109/109/109 106/106/106 107/107/107
f 109/109/109 110/110/110 106/106/106
f 111/111/111 106/106/106 110/110/110
f 113/113/113 112/112/112 114/114/114
f 114/114/114 112/112/112 115/115/115
f 114/114/114 115/115/115 116/116/116
f 116/116/116 115/115/115 117/117/117
f 116/116/116 117/117/117 118/118/118
f 118/118/118 117/117/117 119/119/119
f 118/118/118 119/119/119 120/120/120
f 120/120/120 119/119/119 121/121/121
f 120/120/120 121/121/121 122/122/122
f 122/122/122 121/121/121 123/123/123
f 125/125/125 124/124/124 126/126/126
f 126/126/126 124/124/124 127/127/127
f 129/129/129 128/128/128 130/130/130
f 131/131/131 128/128/128 129/129/129
f 131/131/131 132/132/132 128/128/128
f 133/133/133 132/132/132 131/131/131
f 133/133/133 134/134/134 132/132/132
f 135/135/135 134/134/134 133/133/133
f 137/137/137 136/136/136 138/138/138
f 138/138/138 136/136/136 139/139/139
f 141/141/141 140/140/140 142/142/142
f 142/142/142 140/140/140 143/143/143
f 142/142/142 143/143/143 144/144/144
f 144/144/144 143/143/143 145/145/145
f 147/147/147 146/146/146 148/148/148
f 148/148/148 146/146/146 149/149/149
f 148/148/148 149/149/149 150/150/150
f 150/150/150 149/149/149 151/151/151
f 150/150/150 151/151/151 152/152/152
f 152/152/152 151/151/151 153/153/153
f 152/152/152 153/153/153 154/154/154
f 154/154/154 153/153/153 155/155/155
f 154/154/154 155/155/155 156/156/156
f 156/156/156 155/155/155 157/157/157
f 159/159/159 158/158/158 160/160/160
f 161/161/161 158/158/158 159/159/159
f 163/163/163 162/162/162 161/161/161
f 161/161/161 162/162/162 164/164/164
f 166/166/166 165/165/165 167/167/167
f 167/167/167 165/165/165 168/168/168
f 170/170/170 169/169/169 171/171/171
f 172/172/172 169/169/169 170/170/170
f 172/172/172 173/173/173 169/169/169
f 174/174/174 173/173/173 172/172/172
f 174/174/174 175/175/175 173/173/173
f 176/176/176 175/175/175 174/174/174
f 176/176/176 177/177/177 175/175/175
f 178/178/178 177/177/177 176/176/176
f 178/178/178 179/179/179 177/177/177
f 180/180/180 179/179/179 178/178/178
f 182/182/182 181/181/181 183/183/183
f 183/183/183 181/181/181 184/184/184
f 183/183/183 184/184/184 185/185/185
f 185/185/185 184/184/184 186/186/186
f 185/185/185 186/186/186 187/187/187
f 187/187/187 186/186/186 188/188/188
f 187/187/187 188/188/188 189/189/189
f 189/189/189 188/188/188 190/190/190
f 189/189/189 190/190/190 191/191/191
f 191/191/191 190/190/190 192/192/192
f 194/194/194 193/193/193 195/195/195
f 196/196/196 193/193/193 194/194/194
f 196/196/196 197/197/197 193/193/193
f 198/198/198 197/197/197 196/196/196
f 198/198/198 199/199/199 197/197/197
f 200/200/200 199/199/199 198/198/198
f 200/200/200 201/201/201 199/199/199
f 202/202/202 201/201/201 200/200/200
f 202/202/202 203/203/203 201/201/201
f 204/204/204 203/203/203 202/202/202
f 206/206/206 205/205/205 207/207/207
f 208/208/208 205/205/205 206/206/206
f 208/208/208 209/209/209 205/205/205
f 210/210/210 209/209/209 208/208/208
f 210/210/210 211/211/211 209/209/209
f 212/212/212 211/211/211 210/210/210
f 212/212/212 213/213/213 211/211/211
f 214/214/214 213/213/213 212/212/212
f 214/214/214 215/215/215 213/213/213
f 216/216/216 215/215/215 214/214/214
