mtllib ./terrain-world-valley1_11.mtl
g terrain-world-valley1
v -3.0103 -0.602363 3.010424
v -3.010301 -1.828082 -2.989576
v 2.989697 -0.3789184 -2.989576
v -9.010302 -2.984711 -2.989576
v -3.010301 -3.067077 -8.989573
v -15.00001 -0.5613018 8.999945
v -15.00001 -2.172477 2.999937
v -9.010302 -0.9251772 3.010424
v -3.000005 0.4500766 15.00007
v -3.0103 -0.3418993 9.010424
v 2.989698 -6.403091E-07 9.010426
v -9.010302 -2.984711 -2.989576
v -9.010302 -4.830752 -8.989573
v -3.010301 -3.067077 -8.989573
v -15.00001 -4.334697 -3.000069
v -15.00001 -5.445782 -9.000071
v -9.010302 -4.830752 -8.989573
v 8.999991 0.07541072 15.00007
v 8.989704 -0.4307154 9.010424
v 14.99999 0.1331285 9.00007
v -3.010301 -1.828082 -2.989576
v -3.010301 -3.067077 -8.989573
v 2.989697 -1.087408 -8.989573
v 2.989697 -1.087408 -8.989573
v 3.00003 -2.031141 -14.99993
v 9.000037 -0.5729168 -14.99993
v -3.010301 -1.828082 -2.989576
v 2.989697 -0.3789184 -2.989576
v 2.989697 -0.3789184 -2.989576
v 2.989697 -1.087408 -8.989573
v 8.989707 -0.4696427 -8.989573
v 8.989704 -0.481838 -2.989577
v 8.989707 -0.4696427 -8.989573
v 14.99999 0.3506819 -8.999943
v 9.000037 -0.5729168 -14.99993
v 14.99999 1.370905E-05 -14.99993
v 2.989697 -1.087408 -8.989573
v 8.989707 -0.4696427 -8.989573
v 14.99999 1.370905E-05 -14.99993
v 14.99999 0.3506819 -8.999943
v 2.989697 -0.358998 3.010424
v 8.989704 -0.481838 -2.989577
v 8.989705 -0.1616532 3.010423
v -3.0103 -0.602363 3.010424
v 2.989697 -0.3789184 -2.989576
v -3.0103 -0.3418993 9.010424
v 2.989698 -6.403091E-07 9.010426
v -3.000005 0.4500766 15.00007
v -9.010299 -0.2850737 9.010425
v -3.0103 -0.3418993 9.010424
v -9.010299 -0.2850737 9.010425
v -3.0103 -0.602363 3.010424
v -3.0103 -0.3418993 9.010424
v -3.010301 -3.067077 -8.989573
v 3.00003 -2.031141 -14.99993
v 2.989697 -1.087408 -8.989573
v 8.989704 -0.4307154 9.010424
v 2.989697 -0.358998 3.010424
v 8.989705 -0.1616532 3.010423
v 8.999991 0.07541072 15.00007
v 14.99999 0.1331285 9.00007
v 14.99999 -5.125936E-06 15.00007
v 2.999998 0.1494118 15.00007
v 2.989698 -6.403091E-07 9.010426
v -3.000005 0.4500766 15.00007
v 2.989698 -6.403091E-07 9.010426
v 8.989704 -0.4307154 9.010424
v 2.989697 -0.358998 3.010424
v 8.999991 0.07541072 15.00007
v -9.010302 -0.9251772 3.010424
v -3.010301 -1.828082 -2.989576
v -3.0103 -0.602363 3.010424
v 8.989704 -0.481838 -2.989577
v 14.99999 0.3506819 -8.999943
v 14.99999 0.03876159 -2.999949
v 2.989697 -0.358998 3.010424
v 2.989697 -0.3789184 -2.989576
v 8.989704 -0.481838 -2.989577
v 8.989707 -0.4696427 -8.989573
v 8.989705 -0.1616532 3.010423
v 8.989704 -0.481838 -2.989577
v 14.99999 0.03876159 -2.999949
v 14.99999 0.4041462 3.000058
v -3.000005 0.4500766 15.00007
v -9.000004 0.226899 15.00007
v -9.010299 -0.2850737 9.010425
v -15.00001 6.319839E-06 15.00007
v -15.00001 -0.5613018 8.999945
v -9.010302 -0.9251772 3.010424
v -3.0103 -0.602363 3.010424
v -3.010301 -3.067077 -8.989573
v -2.999968 -3.543082 -14.99993
v 3.00003 -2.031141 -14.99993
v -9.010302 -4.830752 -8.989573
v -8.999958 -5.243365 -14.99993
v -15.00001 -5.445782 -9.000071
v -15.00001 -5.999985 -14.99993
v -8.999958 -5.243365 -14.99993
v -9.010302 -4.830752 -8.989573
v -9.010302 -0.9251772 3.010424
v -9.010302 -2.984711 -2.989576
v -3.010301 -1.828082 -2.989576
v -15.00001 -2.172477 2.999937
v -15.00001 -4.334697 -3.000069
v -9.010302 -4.830752 -8.989573
v 8.989705 -0.1616532 3.010423
v 14.99999 0.4041462 3.000058
v 14.99999 0.1331285 9.00007
v 8.989704 -0.4307154 9.010424
v 14.99999 0.1331285 9.00007
v 14.99999 -2.000005 15.00007
v 14.99999 -5.125936E-06 15.00007
v 14.99999 -1.773108 9.010418
v 14.99999 0.4041462 3.000058
v 14.99999 -1.549931 3.010421
v 14.99999 1.370905E-05 -14.99993
v 14.99999 -2.000005 -14.99993
v 14.99999 -1.924597 -8.989576
v 14.99999 0.3506819 -8.999943
v 14.99999 0.3506819 -8.999943
v 14.99999 -1.850596 -2.989578
v 14.99999 0.03876159 -2.999949
v -15.00001 -4.334697 -3.000069
v -15.00001 -7.486816 -9.01021
v -15.00001 -5.445782 -9.000071
v -15.00001 -6.334724 -2.999892
v -15.00001 -2.172477 2.999937
v -15.00001 -4.172504 3.000108
v 14.99999 0.03876159 -2.999949
v 14.99999 -1.850596 -2.989578
v 14.99999 -1.549931 3.010421
v 14.99999 0.4041462 3.000058
v -15.00001 -0.5613018 8.999945
v -15.00001 -2.561324 9.000105
v -15.00001 -4.172504 3.000108
v -15.00001 -2.172477 2.999937
v -15.00001 6.319839E-06 15.00007
v -15.00001 -1.999995 15.00007
v -15.00001 -2.561324 9.000105
v -15.00001 -0.5613018 8.999945
v 9.000037 -0.5729168 -14.99993
v 14.99999 -2.000005 -14.99993
v 14.99999 1.370905E-05 -14.99993
v 8.989716 -3.051538 -14.99993
v 3.00003 -2.031141 -14.99993
v 2.989719 -4.465702 -14.99993
v -2.999968 -3.543082 -14.99993
v -3.01029 -6.157297 -14.99993
v -8.999958 -5.243365 -14.99993
v -9.010281 -8.032715 -14.99993
v -15.00001 -5.999985 -14.99993
v -15.00001 -7.99999 -14.99993
v -9.000004 0.226899 15.00007
v -15.00001 -1.999995 15.00007
v -15.00001 6.319839E-06 15.00007
v -9.010281 -1.64932 15.00007
v -3.000005 0.4500766 15.00007
v -3.010283 -1.961239 15.00007
v 2.999998 0.1494118 15.00007
v 2.98972 -1.595852 15.00007
v 8.999991 0.07541072 15.00007
v 8.989714 -1.866871 15.00007
v 14.99999 -5.125936E-06 15.00007
v 14.99999 -2.000005 15.00007
v -15.00001 -5.445782 -9.000071
v -15.00001 -7.486816 -9.01021
v -15.00001 -7.99999 -14.99993
v -15.00001 -5.999985 -14.99993
v -15.00001 -7.99999 -14.99993
v -15.00001 -11.99999 -14.99993
v -9.010281 -12.03272 -14.99993
v -9.010281 -8.032715 -14.99993
v -3.010292 -10.1573 -14.99993
v -3.01029 -6.157297 -14.99993
v 2.989717 -8.465701 -14.99993
v 2.989719 -4.465702 -14.99993
v 8.989713 -7.051538 -14.99993
v 8.989716 -3.051538 -14.99993
v 14.99999 -6.000003 -14.99993
v 14.99999 -2.000005 -14.99993
v 14.99999 -1.773108 9.010418
v 14.99999 -6.000005 15.00007
v 14.99999 -2.000005 15.00007
v 14.99999 -5.773109 9.010416
v 14.99999 -1.549931 3.010421
v 14.99999 -5.54993 3.010421
v 14.99999 -1.850596 -2.989578
v 14.99999 -5.850595 -2.989579
v 14.99999 -1.924597 -8.989576
v 14.99999 -5.924594 -8.989577
v 14.99999 -2.000005 -14.99993
v 14.99999 -6.000003 -14.99993
v -15.00001 -1.999995 15.00007
v -15.00001 -5.999996 15.00007
v -15.00001 -6.561324 9.000105
v -15.00001 -2.561324 9.000105
v -15.00001 -8.172503 3.000108
v -15.00001 -4.172504 3.000108
v -15.00001 -10.33472 -2.999891
v -15.00001 -6.334724 -2.999892
v -15.00001 -11.48682 -9.010212
v -15.00001 -7.486816 -9.01021
v -15.00001 -11.99999 -14.99993
v -15.00001 -7.99999 -14.99993
v -9.010281 -1.64932 15.00007
v -15.00001 -5.999996 15.00007
v -15.00001 -1.999995 15.00007
v -9.010283 -5.649321 15.00007
v -3.010283 -1.961239 15.00007
v -3.010283 -5.961239 15.00007
v 2.98972 -1.595852 15.00007
v 2.98972 -5.595854 15.00007
v 8.989714 -1.866871 15.00007
v 8.989714 -5.866869 15.00007
v 14.99999 -2.000005 15.00007
v 14.99999 -6.000005 15.00007

vn -0.2302801 0.9534329 -0.1947734
vn -0.2302801 0.9534329 -0.1947734
vn -0.2302801 0.9534329 -0.1947734
vn -0.1855113 0.9623383 -0.1987222
vn -0.1855113 0.9623383 -0.1987222
vn -0.1967398 0.9469101 -0.2542727
vn -0.1967398 0.9469101 -0.2542727
vn -0.1967398 0.9469101 -0.2542727
vn -0.05640217 0.9898058 -0.1307792
vn -0.05640217 0.9898058 -0.1307792
vn -0.05640217 0.9898058 -0.1307792
vn -0.2704769 0.9201586 -0.2831088
vn -0.2704769 0.9201586 -0.2831088
vn -0.2704769 0.9201586 -0.2831088
vn -0.1001396 0.9783402 -0.1811697
vn -0.1001396 0.9783402 -0.1811697
vn -0.1001396 0.9783402 -0.1811697
vn -0.09321836 0.9921234 -0.0836745
vn -0.09321836 0.9921234 -0.0836745
vn -0.09321836 0.9921234 -0.0836745
vn -0.3074741 0.931895 -0.1924356
vn -0.3074741 0.931895 -0.1924356
vn -0.3074741 0.931895 -0.1924356
vn -0.2334465 0.9605386 -0.1512231
vn -0.2334465 0.9605386 -0.1512231
vn -0.2334465 0.9605386 -0.1512231
vn -0.2332451 0.9657088 -0.1140324
vn -0.2332451 0.9657088 -0.1140324
vn -0.1017199 0.9879494 -0.1166587
vn -0.1017199 0.9879494 -0.1166587
vn -0.1017199 0.9879494 -0.1166587
vn -0.1352293 0.9908122 0.002013727
vn -0.09504259 0.9953235 -0.01726573
vn -0.1352293 0.9908122 0.002013727
vn -0.09504259 0.9953235 -0.01726573
vn -0.09504259 0.9953235 -0.01726573
vn -0.1024039 0.994593 -0.01726581
vn -0.1351048 0.9891434 -0.05781031
vn -0.1351048 0.9891434 -0.05781031
vn -0.1351048 0.9891434 -0.05781031
vn -0.04048948 0.9982399 -0.04333422
vn -0.03282631 0.9980411 -0.05325958
vn -0.03282631 0.9980411 -0.05325958
vn -0.04048948 0.9982399 -0.04333422
vn -0.04052731 0.9991729 -0.003317327
vn -0.04048948 0.9982399 -0.04333422
vn -0.05678959 0.9966038 -0.05962967
vn 0.009388768 0.9913256 -0.1310934
vn 0.009388768 0.9913256 -0.1310934
vn 0.009388768 0.9913256 -0.1310934
vn 0.009461608 0.9990144 -0.04336784
vn 0.009461608 0.9990144 -0.04336784
vn 0.009461608 0.9990144 -0.04336784
vn -0.3098797 0.9391859 -0.1480017
vn -0.3098797 0.9391859 -0.1480017
vn -0.3098797 0.9391859 -0.1480017
vn -0.03284 0.9984572 0.04477452
vn -0.03284 0.9984572 0.04477452
vn -0.03284 0.9984572 0.04477452
vn 0.01232875 0.9996125 -0.02495666
vn 0.01256523 0.999675 0.02218172
vn 0.01256523 0.999675 0.02218172
vn 0.01232875 0.9996125 -0.02495666
vn 0.01232875 0.9996125 -0.02495666
vn 0.05003237 0.9984348 -0.02499212
vn 0.07147431 0.9956618 -0.05957334
vn 0.07147431 0.9956618 -0.05957334
vn 0.07147431 0.9956618 -0.05957334
vn 0.07134774 0.9938991 -0.08410718
vn -0.05264061 0.9784063 -0.1998753
vn -0.05264061 0.9784063 -0.1998753
vn -0.05264061 0.9784063 -0.1998753
vn -0.08609087 0.9949437 0.05172396
vn -0.08609087 0.9949437 0.05172396
vn -0.08609087 0.9949437 0.05172396
vn 0.01715062 0.9998474 -0.003319557
vn 0.01715062 0.9998474 -0.003319557
vn 0.01715062 0.9998474 -0.003319557
vn 0.01715067 0.9998509 0.002032257
vn -0.08626421 0.9948567 -0.05308965
vn -0.08626421 0.9948567 -0.05308965
vn -0.08626421 0.9948567 -0.05308965
vn -0.09365583 0.9937637 -0.0605176
vn -0.03703593 0.9956886 -0.0850441
vn -0.03703593 0.9956886 -0.0850441
vn -0.04570587 0.9946123 -0.0930454
vn -0.04570587 0.9946123 -0.0930454
vn -0.04570587 0.9946123 -0.0930454
vn -0.05342237 0.9929375 -0.1059304
vn -0.05342237 0.9929375 -0.1059304
vn -0.2436263 0.9668087 -0.07698759
vn -0.2436263 0.9668087 -0.07698759
vn -0.2436263 0.9668087 -0.07698759
vn -0.2720438 0.9599932 -0.06637193
vn -0.2720438 0.9599932 -0.06637193
vn -0.1245895 0.9880024 -0.09126122
vn -0.1245895 0.9880024 -0.09126122
vn -0.1245895 0.9880024 -0.09126122
vn -0.1017868 0.9924583 -0.06830765
vn -0.1793719 0.9304902 -0.3193959
vn -0.2068687 0.9204263 -0.3316937
vn -0.1793719 0.9304902 -0.3193959
vn -0.2068687 0.9204263 -0.3316937
vn -0.2068687 0.9204263 -0.3316937
vn -0.2101067 0.9344495 -0.2875056
vn -0.09355271 0.9946002 0.0449256
vn -0.09355271 0.9946002 0.0449256
vn -0.09355271 0.9946002 0.0449256
vn -0.09323389 0.9946446 0.04460354
vn 1 0 -1.832787E-07
vn 1 0 -1.832787E-07
vn 1 0 -1.832787E-07
vn 1 0 -1.832787E-07
vn 1 0 1.029584E-07
vn 1 0 1.029584E-07
vn 1 0 -3.157112E-07
vn 1 0 -3.157112E-07
vn 1 0 -3.157112E-07
vn 1 0 -3.157112E-07
vn 1 0 1.335928E-07
vn 1 0 1.335928E-07
vn 1 0 1.335928E-07
vn -1 0 0
vn -1 0 0
vn -1 0 0
vn -1 0 0
vn -1 0 0
vn -1 0 0
vn 1 0 0
vn 1 0 0
vn 1 0 0
vn 1 0 0
vn -1 0 -1.589402E-07
vn -1 0 -1.589402E-07
vn -1 0 -1.589402E-07
vn -1 0 -1.589402E-07
vn -1 0 0
vn -1 0 0
vn -1 0 0
vn -1 0 0
vn 0 0 -1
vn 0 0 -1
vn 0 0 -1
vn 0 0 -1
vn 0 -5.042623E-07 -1
vn 0 -5.042623E-07 -1
vn 0 -5.042623E-07 -1
vn 0 -5.042623E-07 -1
vn 0 0 -1
vn 0 0 -1
vn 0 0 -1
vn 0 0 -1
vn -1.591022E-07 0 1
vn -1.591022E-07 0 1
vn -1.591022E-07 0 1
vn -1.591022E-07 0 1
vn 0 0 1
vn 0 0 1
vn 0 0 1
vn 0 0 1
vn 0 0 1
vn 0 0 1
vn 0 0 1
vn 0 0 1
vn -1 0 0
vn -1 0 0
vn -1 0 0
vn -1 0 0
vn 0 0 -1
vn 0 0 -1
vn 0 0 -1
vn 0 0 -1
vn 0 0 -1
vn 0 0 -1
vn 0 0 -1
vn 0 0 -1
vn 0 -3.173479E-07 -1
vn 0 -3.173479E-07 -1
vn 0 -3.173479E-07 -1
vn 0 -3.173479E-07 -1
vn 1 0 0
vn 1 0 0
vn 1 0 0
vn 1 0 0
vn 1 0 0
vn 1 0 0
vn 1 0 1.092752E-07
vn 1 0 1.092752E-07
vn 1 0 0
vn 1 0 0
vn 1 0 0
vn 1 0 0
vn -1 0 0
vn -1 0 0
vn -1 0 0
vn -1 0 0
vn -1 0 0
vn -1 0 0
vn -1 0 0
vn -1 0 0
vn -1 0 0
vn -1 0 0
vn -1 0 -1.19414E-07
vn -1 0 -1.19414E-07
vn 0 3.184367E-07 1
vn 0 3.184367E-07 1
vn 0 3.184367E-07 1
vn 0 3.184367E-07 1
vn 0 0 1
vn 0 0 1
vn 0 0 1
vn 0 0 1
vn 0 0 1
vn 0 0 1
vn 0 0 1
vn 0 0 1

vt 0.4473258 0.4301069
vt 0.4280947 0.429899
vt 0.4281561 0.4491585
vt 0.4280743 0.4106533
vt 0.4088541 0.4297386
vt 0.4665692 0.3922145
vt 0.4474846 0.3918948
vt 0.4474629 0.4110146
vt 0.4855799 0.4302956
vt 0.4664338 0.4302138
vt 0.4663376 0.449297
vt 0.4280743 0.4106533
vt 0.4086601 0.4103648
vt 0.4088541 0.4297386
vt 0.4280618 0.3913235
vt 0.4086953 0.3911329
vt 0.4086601 0.4103648
vt 0.4853551 0.4684389
vt 0.4662529 0.4683649
vt 0.4661814 0.4874645
vt 0.4280947 0.429899
vt 0.4088541 0.4297386
vt 0.409036 0.4490961
vt 0.409036 0.4490961
vt 0.3897896 0.4489287
vt 0.3898615 0.4680966
vt 0.4280947 0.429899
vt 0.4281561 0.4491585
vt 0.4281561 0.4491585
vt 0.409036 0.4490961
vt 0.4090126 0.4682015
vt 0.4281029 0.4682521
vt 0.4090126 0.4682015
vt 0.4089508 0.4873187
vt 0.3898615 0.4680966
vt 0.3898469 0.4872437
vt 0.409036 0.4490961
vt 0.4090126 0.4682015
vt 0.3898469 0.4872437
vt 0.4089508 0.4873187
vt 0.4472526 0.4492178
vt 0.4281029 0.4682521
vt 0.4471877 0.4683016
vt 0.4473258 0.4301069
vt 0.4281561 0.4491585
vt 0.4664338 0.4302138
vt 0.4663376 0.449297
vt 0.4855799 0.4302956
vt 0.4665141 0.4111652
vt 0.4664338 0.4302138
vt 0.4665141 0.4111652
vt 0.4473258 0.4301069
vt 0.4664338 0.4302138
vt 0.4088541 0.4297386
vt 0.3897896 0.4489287
vt 0.409036 0.4490961
vt 0.4662529 0.4683649
vt 0.4472526 0.4492178
vt 0.4471877 0.4683016
vt 0.4853551 0.4684389
vt 0.4661814 0.4874645
vt 0.4852811 0.4875476
vt 0.4853736 0.4493948
vt 0.4663376 0.449297
vt 0.4855799 0.4302956
vt 0.4663376 0.449297
vt 0.4662529 0.4683649
vt 0.4472526 0.4492178
vt 0.4853551 0.4684389
vt 0.4474629 0.4110146
vt 0.4280947 0.429899
vt 0.4473258 0.4301069
vt 0.4281029 0.4682521
vt 0.4089508 0.4873187
vt 0.4280741 0.487387
vt 0.4472526 0.4492178
vt 0.4281561 0.4491585
vt 0.4281029 0.4682521
vt 0.4090126 0.4682015
vt 0.4471877 0.4683016
vt 0.4281029 0.4682521
vt 0.4280741 0.487387
vt 0.447142 0.4873618
vt 0.4855799 0.4302956
vt 0.485532 0.4112061
vt 0.4665141 0.4111652
vt 0.4856098 0.3921818
vt 0.4665692 0.3922145
vt 0.4474629 0.4110146
vt 0.4473258 0.4301069
vt 0.4088541 0.4297386
vt 0.3896045 0.4296932
vt 0.3897896 0.4489287
vt 0.4086601 0.4103648
vt 0.3892158 0.4102298
vt 0.4086953 0.3911329
vt 0.3895517 0.3910232
vt 0.3892158 0.4102298
vt 0.4086601 0.4103648
vt 0.4474629 0.4110146
vt 0.4280743 0.4106533
vt 0.4280947 0.429899
vt 0.4474846 0.3918948
vt 0.4280618 0.3913235
vt 0.4086601 0.4103648
vt 0.4471877 0.4683016
vt 0.447142 0.4873618
vt 0.4661814 0.4874645
vt 0.4662529 0.4683649
vt 0.4661814 0.4874645
vt 0.4853872 0.4947138
vt 0.4852811 0.4875476
vt 0.4662719 0.4946357
vt 0.447142 0.4873618
vt 0.4471074 0.4944977
vt 0.3898469 0.4872437
vt 0.3897744 0.494406
vt 0.4088749 0.4944792
vt 0.4089508 0.4873187
vt 0.4089508 0.4873187
vt 0.427962 0.4945678
vt 0.4280741 0.487387
vt 0.4280618 0.3913235
vt 0.4082444 0.3839942
vt 0.4086953 0.3911329
vt 0.4272356 0.3841897
vt 0.4474846 0.3918948
vt 0.4465476 0.3848259
vt 0.4280741 0.487387
vt 0.427962 0.4945678
vt 0.4471074 0.4944977
vt 0.447142 0.4873618
vt 0.4665692 0.3922145
vt 0.4659567 0.3851183
vt 0.4465476 0.3848259
vt 0.4474846 0.3918948
vt 0.4856098 0.3921818
vt 0.4852315 0.3849837
vt 0.4659567 0.3851183
vt 0.4665692 0.3922145
vt 0.3898615 0.4680966
vt 0.3826899 0.4866043
vt 0.3898469 0.4872437
vt 0.3827378 0.4673682
vt 0.3897896 0.4489287
vt 0.3826881 0.4480504
vt 0.3896045 0.4296932
vt 0.3825494 0.4287614
vt 0.3892158 0.4102298
vt 0.3820391 0.4096819
vt 0.3895517 0.3910232
vt 0.3824974 0.3908714
vt 0.485532 0.4112061
vt 0.492793 0.3920253
vt 0.4856098 0.3921818
vt 0.4926505 0.4111926
vt 0.4855799 0.4302956
vt 0.4927893 0.4303083
vt 0.4853736 0.4493948
vt 0.4924946 0.4494168
vt 0.4853551 0.4684389
vt 0.4925303 0.4685664
vt 0.4852811 0.4875476
vt 0.4924402 0.4876609
vt 0.4086953 0.3911329
vt 0.4082444 0.3839942
vt 0.3892752 0.3839216
vt 0.3895517 0.3910232
vt 0.04254553 0.7668788
vt 0.0184488 0.765058
vt 0.01553825 0.7851945
vt 0.039635 0.7870154
vt 0.0170019 0.8056965
vt 0.04109865 0.8075173
vt 0.01804371 0.8261666
vt 0.04214044 0.8279874
vt 0.0184488 0.8465886
vt 0.04254554 0.8484094
vt 0.01801684 0.8669822
vt 0.04211357 0.8688031
vt 0.06954737 0.7853068
vt 0.0942954 0.765058
vt 0.07007085 0.765058
vt 0.09377192 0.7853068
vt 0.06903246 0.8055906
vt 0.09325704 0.8055906
vt 0.06972615 0.8258743
vt 0.0939507 0.8258743
vt 0.06989687 0.8461581
vt 0.09412143 0.8461581
vt 0.07007083 0.866477
vt 0.0942954 0.866477
vt 0.06720234 0.765058
vt 0.0431318 0.7670562
vt 0.04496192 0.7873177
vt 0.06903246 0.7853195
vt 0.04438534 0.8077792
vt 0.06845587 0.8057809
vt 0.04254554 0.8283455
vt 0.06661608 0.8263472
vt 0.04302676 0.8487542
vt 0.06709728 0.846756
vt 0.04496193 0.8689721
vt 0.06903246 0.8669739
vt 0.09441875 0.785307
vt 0.1194524 0.765058
vt 0.09522778 0.765058
vt 0.1186433 0.785307
vt 0.09513837 0.8055908
vt 0.1193629 0.8055908
vt 0.0942954 0.8258746
vt 0.1185199 0.8258746
vt 0.09492067 0.8461584
vt 0.1191452 0.8461584
vt 0.09522782 0.8664769
vt 0.1194524 0.8664769

usemtl LOW-POLY-COLORS
usemap LOW-POLY-COLORS
f 2/2/2 1/1/1 3/3/3
f 5/5/5 4/4/4 2/2/2
f 7/7/7 6/6/6 8/8/8
f 10/10/10 9/9/9 11/11/11
f 13/13/13 12/12/12 14/14/14
f 16/16/16 15/15/15 17/17/17
f 19/19/19 18/18/18 20/20/20
f 22/22/22 21/21/21 23/23/23
f 25/25/25 24/24/24 26/26/26
f 24/24/24 27/27/27 28/28/28
f 30/30/30 29/29/29 31/31/31
f 33/33/33 32/32/32 34/34/34
f 35/35/35 33/33/33 36/36/36
f 35/35/35 37/37/37 33/33/33
f 39/39/39 38/38/38 40/40/40
f 42/42/42 41/41/41 43/43/43
f 45/45/45 44/44/44 41/41/41
f 44/44/44 46/46/46 41/41/41
f 41/41/41 46/46/46 47/47/47
f 49/49/49 48/48/48 50/50/50
f 52/52/52 51/51/51 53/53/53
f 55/55/55 54/54/54 56/56/56
f 58/58/58 57/57/57 59/59/59
f 61/61/61 60/60/60 62/62/62
f 63/63/63 60/60/60 64/64/64
f 66/66/66 65/65/65 63/63/63
f 66/66/66 67/67/67 68/68/68
f 66/66/66 69/69/69 67/67/67
f 71/71/71 70/70/70 72/72/72
f 74/74/74 73/73/73 75/75/75
f 77/77/77 76/76/76 78/78/78
f 79/79/79 77/77/77 78/78/78
f 81/81/81 80/80/80 82/82/82
f 82/82/82 80/80/80 83/83/83
f 85/85/85 84/84/84 86/86/86
f 86/86/86 87/87/87 85/85/85
f 88/88/88 87/87/87 86/86/86
f 89/89/89 88/88/88 86/86/86
f 89/89/89 86/86/86 90/90/90
f 92/92/92 91/91/91 93/93/93
f 92/92/92 94/94/94 91/91/91
f 95/95/95 94/94/94 92/92/92
f 97/97/97 96/96/96 98/98/98
f 98/98/98 96/96/96 99/99/99
f 101/101/101 100/100/100 102/102/102
f 101/101/101 103/103/103 100/100/100
f 104/104/104 103/103/103 101/101/101
f 105/105/105 104/104/104 101/101/101
f 107/107/107 106/106/106 108/108/108
f 108/108/108 106/106/106 109/109/109
f 111/111/111 110/110/110 112/112/112
f 113/113/113 110/110/110 111/111/111
f 113/113/113 114/114/114 110/110/110
f 115/115/115 114/114/114 113/113/113
f 117/117/117 116/116/116 118/118/118
f 118/118/118 116/116/116 119/119/119
f 118/118/118 120/120/120 121/121/121
f 121/121/121 120/120/120 122/122/122
f 124/124/124 123/123/123 125/125/125
f 126/126/126 123/123/123 124/124/124
f 126/126/126 127/127/127 123/123/123
f 128/128/128 127/127/127 126/126/126
f 130/130/130 129/129/129 131/131/131
f 131/131/131 129/129/129 132/132/132
f 134/134/134 133/133/133 135/135/135
f 135/135/135 133/133/133 136/136/136
f 138/138/138 137/137/137 139/139/139
f 139/139/139 137/137/137 140/140/140
f 142/142/142 141/141/141 143/143/143
f 144/144/144 141/141/141 142/142/142
f 144/144/144 145/145/145 141/141/141
f 146/146/146 145/145/145 144/144/144
f 146/146/146 147/147/147 145/145/145
f 148/148/148 147/147/147 146/146/146
f 148/148/148 149/149/149 147/147/147
f 150/150/150 149/149/149 148/148/148
f 150/150/150 151/151/151 149/149/149
f 152/152/152 151/151/151 150/150/150
f 154/154/154 153/153/153 155/155/155
f 156/156/156 153/153/153 154/154/154
f 156/156/156 157/157/157 153/153/153
f 158/158/158 157/157/157 156/156/156
f 158/158/158 159/159/159 157/157/157
f 160/160/160 159/159/159 158/158/158
f 160/160/160 161/161/161 159/159/159
f 162/162/162 161/161/161 160/160/160
f 162/162/162 163/163/163 161/161/161
f 164/164/164 163/163/163 162/162/162
f 166/166/166 165/165/165 167/167/167
f 167/167/167 165/165/165 168/168/168
f 170/170/170 169/169/169 171/171/171
f 171/171/171 169/169/169 172/172/172
f 171/171/171 172/172/172 173/173/173
f 173/173/173 172/172/172 174/174/174
f 173/173/173 174/174/174 175/175/175
f 175/175/175 174/174/174 176/176/176
f 175/175/175 176/176/176 177/177/177
f 177/177/177 176/176/176 178/178/178
f 177/177/177 178/178/178 179/179/179
f 179/179/179 178/178/178 180/180/180
f 182/182/182 181/181/181 183/183/183
f 184/184/184 181/181/181 182/182/182
f 184/184/184 185/185/185 181/181/181
f 186/186/186 185/185/185 184/184/184
f 186/186/186 187/187/187 185/185/185
f 188/188/188 187/187/187 186/186/186
f 188/188/188 189/189/189 187/187/187
f 190/190/190 189/189/189 188/188/188
f 190/190/190 191/191/191 189/189/189
f 192/192/192 191/191/191 190/190/190
f 194/194/194 193/193/193 195/195/195
f 195/195/195 193/193/193 196/196/196
f 195/195/195 196/196/196 197/197/197
f 197/197/197 196/196/196 198/198/198
f 197/197/197 198/198/198 199/199/199
f 199/199/199 198/198/198 200/200/200
f 199/199/199 200/200/200 201/201/201
f 201/201/201 200/200/200 202/202/202
f 201/201/201 202/202/202 203/203/203
f 203/203/203 202/202/202 204/204/204
f 206/206/206 205/205/205 207/207/207
f 208/208/208 205/205/205 206/206/206
f 208/208/208 209/209/209 205/205/205
f 210/210/210 209/209/209 208/208/208
f 210/210/210 211/211/211 209/209/209
f 212/212/212 211/211/211 210/210/210
f 212/212/212 213/213/213 211/211/211
f 214/214/214 213/213/213 212/212/212
f 214/214/214 215/215/215 213/213/213
f 216/216/216 215/215/215 214/214/214
