mtllib ./terrain-world-plain_1.mtl
g terrain-world-plain
v -8.999996 0.2752648 9.000067
v -14.99999 0.1331292 9.000067
v -15 0.4041469 3.000058
v -8.999996 0.2268911 15.00007
v -14.99999 -5.125935E-06 15.00008
v -8.999996 0.2752648 9.000067
v -2.999999 0.3293596 9.000065
v -2.999998 0.4500681 15.00007
v -3 0.1604679 3.000057
v -8.999998 -0.04590843 3.000058
v 2.999999 0.2849266 3.000055
v 2.999999 0.07961628 -2.999952
v 8.999996 0.2713039 3.000054
v 8.999996 0.0039222 -2.999954
v 15 0.03876087 -2.999933
v 15 0.4041469 3.000068
v 2.999999 0.07961628 -2.999952
v -3.000002 0.003527379 -2.999952
v -8.999998 0.1152117 -2.99995
v 2.999997 0.1055988 -8.999946
v -3.000002 0.2273883 -8.999946
v 2.999996 0.1494106 -14.99994
v -3.000004 0.4500755 -14.99994
v 8.999993 0.04515259 -8.999948
v 8.999996 0.0039222 -2.999954
v 15 0.03876087 -2.999933
v 8.999992 0.07541023 -14.99994
v 2.999996 0.1494106 -14.99994
v 14.99999 5.125984E-06 -14.99993
v -3.000002 0.003527379 -2.999952
v -9.000001 -0.0807553 -8.999944
v -15 0.03876087 -2.999949
v -9.000001 -0.0807553 -8.999944
v -15 0.3506812 -8.999943
v -15 5.125979E-06 -14.99993
v 3.000002 0.1494032 15.00007
v -2.999998 0.4500681 15.00007
v -2.999999 0.3293596 9.000065
v -2.999999 0.3293596 9.000065
v 3 0.09360559 9.000063
v 2.999999 0.2849266 3.000055
v 3 0.09360559 9.000063
v 8.999998 0.07540286 15.00007
v 8.999998 0.05259282 9.000062
v 8.999996 0.2713039 3.000054
v 15 -5.125941E-06 15.00005
v 15 0.1331292 9.000061
v 15 0.4041469 3.000068
v 8.999993 0.04515259 -8.999948
v 14.99999 5.125984E-06 -14.99993
v 14.99999 0.3506812 -8.999934
v 15 0.03876087 -2.999933
v 8.999993 0.04515259 -8.999948
v 14.99999 0.3506812 -8.999934
v -9.000001 -0.0807553 -8.999944
v -15 0.03876087 -2.999949
v -15 0.3506812 -8.999943
v -8.999998 -0.04590843 3.000058
v -15 0.4041469 3.000058
v -15 0.03876087 -2.999949
v -8.999996 0.2752648 9.000067
v -3 0.1604679 3.000057
v -8.999998 -0.04590843 3.000058
v -8.999998 0.1152117 -2.99995
v -15 0.03876087 -2.999949
v -9.000001 -0.0807553 -8.999944
v -15 5.125979E-06 -14.99993
v -9.000002 0.2268985 -14.99994
v -3.000002 0.2273883 -8.999946
v -3.000004 0.4500755 -14.99994
v -3.000002 0.003527379 -2.999952
v -15 0.03876087 -2.999949
v -15 -1.961241 -2.99995
v -15 -1.649321 -8.999943
v -15 0.3506812 -8.999943
v -15 5.125979E-06 -14.99993
v -15 -1.999997 -14.99994
v -9.000002 -1.773107 -14.99994
v -9.000002 0.2268985 -14.99994
v -3.000004 -1.549927 -14.99994
v -3.000004 0.4500755 -14.99994
v 2.999996 -1.850592 -14.99994
v 2.999996 0.1494106 -14.99994
v 8.999992 -1.924592 -14.99994
v 8.999992 0.07541023 -14.99994
v 14.99999 -1.999997 -14.99993
v 14.99999 5.125984E-06 -14.99993
v 15 0.03876087 -2.999933
v 15 -1.961241 -2.999933
v 15 -1.595855 3.000067
v 15 0.4041469 3.000068
v -15 0.3506812 -8.999943
v -15 -1.649321 -8.999943
v -15 -1.999997 -14.99994
v -15 5.125979E-06 -14.99993
v 14.99999 0.3506812 -8.999934
v 14.99999 -1.649321 -8.999933
v 15 -1.961241 -2.999933
v 15 0.03876087 -2.999933
v -14.99999 -5.125935E-06 15.00008
v -14.99999 -2.000004 15.00007
v -14.99999 -1.866873 9.000066
v -14.99999 0.1331292 9.000067
v -15 -1.595855 3.000058
v -15 0.4041469 3.000058
v 14.99999 5.125984E-06 -14.99993
v 14.99999 -1.999997 -14.99993
v 14.99999 -1.649321 -8.999933
v 14.99999 0.3506812 -8.999934
v -8.999996 0.2268911 15.00007
v -14.99999 -2.000004 15.00007
v -14.99999 -5.125935E-06 15.00008
v -8.999996 -1.773113 15.00007
v -2.999998 0.4500681 15.00007
v -2.999998 -1.549933 15.00007
v 3.000002 0.1494032 15.00007
v 3.000002 -1.850599 15.00007
v 8.999998 0.07540286 15.00007
v 8.999998 -1.924599 15.00007
v 15 -5.125941E-06 15.00005
v 15 -2.000004 15.00005
v 15 0.1331292 9.000061
v 15 -2.000004 15.00005
v 15 -5.125941E-06 15.00005
v 15 -1.866873 9.000061
v 15 0.4041469 3.000068
v 15 -1.595855 3.000067
v -15 0.4041469 3.000058
v -15 -1.595855 3.000058
v -15 -1.961241 -2.99995
v -15 0.03876087 -2.999949
v 8.999992 -1.924592 -14.99994
v 14.99999 -5.999994 -14.99993
v 14.99999 -1.999997 -14.99993
v 8.999992 -5.924589 -14.99994
v 2.999996 -1.850592 -14.99994
v 2.999996 -5.850586 -14.99994
v -3.000004 -1.549927 -14.99994
v -3.000004 -5.549921 -14.99994
v -9.000002 -1.773107 -14.99994
v -9.000002 -5.773104 -14.99994
v -15 -1.999997 -14.99994
v -15 -5.999994 -14.99994
v 15 -2.000004 15.00005
v 15 -6.000005 15.00005
v 8.999998 -5.924596 15.00007
v 8.999998 -1.924599 15.00007
v 3.000002 -5.850596 15.00007
v 3.000002 -1.850599 15.00007
v -2.999998 -5.549932 15.00007
v -2.999998 -1.549933 15.00007
v -8.999996 -5.773111 15.00007
v -8.999996 -1.773113 15.00007
v -14.99999 -6.000005 15.00007
v -14.99999 -2.000004 15.00007
v -15 -1.649321 -8.999943
v -15 -5.999994 -14.99994
v -15 -1.999997 -14.99994
v -15 -5.649321 -8.999945
v -15 -1.961241 -2.99995
v -15 -5.961237 -2.99995
v -15 -1.595855 3.000058
v -15 -5.595854 3.000058
v -14.99999 -1.866873 9.000066
v -14.99999 -5.86687 9.000065
v -14.99999 -2.000004 15.00007
v -14.99999 -6.000005 15.00007
v 15 -1.866873 9.000061
v 15 -6.000005 15.00005
v 15 -2.000004 15.00005
v 15 -5.86687 9.000059
v 15 -1.595855 3.000067
v 15 -5.595854 3.000067
v 15 -1.961241 -2.999933
v 15 -5.961237 -2.999934
v 15 -5.595854 3.000067
v 15 -1.595855 3.000067
v 14.99999 -1.649321 -8.999933
v 14.99999 -5.649321 -8.999935
v 15 -5.961237 -2.999934
v 15 -1.961241 -2.999933
v 14.99999 -1.999997 -14.99993
v 14.99999 -5.999994 -14.99993
v 14.99999 -5.649321 -8.999935
v 14.99999 -1.649321 -8.999933

vn -0.02365853 0.9987018 0.04511094
vn -0.02365853 0.9987018 0.04511094
vn -0.02365853 0.9987018 0.04511094
vn -0.03777974 0.9990402 0.02216771
vn -0.03777974 0.9990402 0.02216771
vn -0.009011872 0.9995634 -0.02813629
vn -0.009011872 0.9995634 -0.02813629
vn -0.03716295 0.9991071 -0.02010009
vn -0.02072656 0.9992004 -0.03419099
vn -0.03432667 0.9979819 -0.05342075
vn -0.02072656 0.9992004 -0.03419099
vn -0.02072656 0.9992004 -0.03419099
vn -0.02209403 0.9979073 -0.06077022
vn -0.005800433 0.9989917 -0.04451862
vn -0.02209403 0.9979073 -0.06077022
vn -0.02209403 0.9979073 -0.06077022
vn 0.01261439 0.9998969 0.006871024
vn -0.01268034 0.9999102 0.004330047
vn 0.01860092 0.9992942 -0.03263816
vn 0.01233214 0.9998974 0.007301213
vn 0.0500137 0.9980614 0.03704263
vn 0.0500137 0.9980614 0.03704263
vn 0.0500137 0.9980614 0.03704263
vn 0.01256636 0.9999083 0.005042484
vn 0.01261439 0.9998969 0.006871024
vn -0.005806234 0.9999596 0.006871467
vn 0.01233214 0.9998974 0.007301213
vn 0.01233214 0.9998974 0.007301213
vn 0.01256636 0.9999083 0.005042484
vn 0.01860092 0.9992942 -0.03263816
vn 0.01860092 0.9992942 -0.03263816
vn -0.01273398 0.999386 -0.03264114
vn 0.0715993 0.9957343 -0.05819677
vn 0.0715993 0.9957343 -0.05819677
vn 0.0715993 0.9957343 -0.05819677
vn 0.05003792 0.9985453 -0.02008882
vn 0.05003792 0.9985453 -0.02008882
vn 0.05003792 0.9985453 -0.02008882
vn 0.03924214 0.9987221 0.03184606
vn 0.03926033 0.9991857 -0.009292027
vn 0.03924214 0.9987221 0.03184606
vn 0.006830775 0.999313 0.03642675
vn 0.0125669 0.9999138 -0.003801341
vn -0.01341261 0.9992464 0.03642433
vn -0.01341261 0.9992464 0.03642433
vn 0.0125669 0.9999138 -0.003801341
vn -0.01341261 0.9992464 0.03642433
vn -0.02211264 0.9987372 0.04511265
vn -0.050769 0.997009 -0.05827129
vn -0.050769 0.997009 -0.05827129
vn -0.050769 0.997009 -0.05827129
vn -0.05078727 0.9973627 0.05184965
vn -0.05078727 0.9973627 0.05184965
vn -0.05078727 0.9973627 0.05184965
vn 0.0716247 0.9960866 0.05178331
vn 0.0716247 0.9960866 0.05178331
vn 0.0716247 0.9960866 0.05178331
vn 0.07466154 0.9953649 -0.06061533
vn 0.07466154 0.9953649 -0.06061533
vn 0.07466154 0.9953649 -0.06061533
vn 0.07469273 0.9957809 -0.05330297
vn -0.03436336 0.9990492 0.02682778
vn -0.03436336 0.9990492 0.02682778
vn -0.03436336 0.9990492 0.02682778
vn -0.01273617 0.9995585 0.02684147
vn -0.05122256 0.997377 0.05114122
vn -0.03773903 0.9979766 0.05117195
vn -0.05122256 0.997377 0.05114122
vn -0.05122256 0.997377 0.05114122
vn -0.03714491 0.9986223 0.03706344
vn -0.0512541 0.9979912 0.03723524
vn -1 0 9.13938E-07
vn -1 0 9.13938E-07
vn -1 0 9.13938E-07
vn -1 0 9.13938E-07
vn -2.654661E-07 6.357816E-07 -1
vn -2.654661E-07 6.357816E-07 -1
vn -2.654661E-07 6.357816E-07 -1
vn -2.654661E-07 6.357816E-07 -1
vn 0 0 -1
vn 0 0 -1
vn 0 0 -1
vn 0 0 -1
vn 2.072287E-06 0 -1
vn 2.072287E-06 0 -1
vn 2.072287E-06 0 -1
vn 2.072287E-06 0 -1
vn 1 0 0
vn 1 0 0
vn 1 0 0
vn 1 0 0
vn -1 0 -1.589458E-07
vn -1 0 -1.589458E-07
vn -1 0 -1.589458E-07
vn -1 0 -1.589458E-07
vn 1 0 -6.755185E-07
vn 1 0 -6.755185E-07
vn 1 0 -6.755185E-07
vn 1 0 -6.755185E-07
vn -1 0 0
vn -1 0 0
vn -1 0 0
vn -1 0 0
vn -1 0 7.947268E-07
vn -1 0 7.947268E-07
vn 1 0 -1.589457E-07
vn 1 0 -1.589457E-07
vn 1 0 -1.589457E-07
vn 1 0 -1.589457E-07
vn 3.178916E-07 0 1
vn 5.309329E-07 -1.271565E-06 1
vn 5.309329E-07 -1.271565E-06 1
vn 3.178916E-07 0 1
vn 3.178916E-07 0 1
vn 3.178916E-07 0 1
vn 0 0 1
vn 0 0 1
vn 1.648269E-07 0 1
vn 1.648269E-07 0 1
vn 2.390178E-06 6.357825E-07 1
vn 2.390178E-06 6.357825E-07 1
vn 1 0 0
vn 1 0 0
vn 1 0 0
vn 1 0 0
vn 1 0 -5.960466E-07
vn 1 0 -5.960466E-07
vn -1 0 0
vn -1 0 0
vn -1 0 0
vn -1 0 0
vn 1.98832E-06 0 -1
vn 1.98832E-06 0 -1
vn 1.98832E-06 0 -1
vn 1.98832E-06 0 -1
vn 0 3.17892E-07 -1
vn 0 3.17892E-07 -1
vn 0 3.178919E-07 -1
vn 0 3.178919E-07 -1
vn -4.017986E-07 0 -1
vn -4.017986E-07 0 -1
vn -1.499299E-07 0 -1
vn -1.499299E-07 0 -1
vn 2.465156E-06 0 1
vn 2.465156E-06 0 1
vn 1.618864E-07 3.178919E-07 1
vn 1.618864E-07 3.178919E-07 1
vn 1.618864E-07 3.178919E-07 1
vn 1.618864E-07 3.178919E-07 1
vn 1.500774E-07 3.178917E-07 1
vn 1.500774E-07 3.178917E-07 1
vn 0 0 1
vn 0 0 1
vn 0 0 1
vn 0 0 1
vn -1 0 9.139393E-07
vn -1 0 1.192095E-07
vn -1 0 1.192095E-07
vn -1 0 9.139393E-07
vn -1 0 9.139393E-07
vn -1 0 9.139393E-07
vn -1 0 7.152553E-07
vn -1 0 7.152553E-07
vn -1 0 0
vn -1 0 0
vn -1 0 0
vn -1 0 0
vn 1 0 0
vn 1 0 0
vn 1 0 0
vn 1 0 0
vn 1 0 -6.953887E-07
vn 1 0 -6.953887E-07
vn 1 0 0
vn 1 0 0
vn 1 0 0
vn 1 0 0
vn 1 0 -7.549925E-07
vn 1 0 -7.549925E-07
vn 1 0 -7.549925E-07
vn 1 0 -7.549925E-07
vn 1 0 1.192095E-07
vn 1 0 1.192095E-07
vn 1 0 1.192095E-07
vn 1 0 1.192095E-07

vt 0.4655657 0.4087832
vt 0.465569 0.3903153
vt 0.447147 0.3903794
vt 0.4840208 0.4088069
vt 0.4840537 0.390334
vt 0.4655657 0.4087832
vt 0.465556 0.4272234
vt 0.4839595 0.4272174
vt 0.4471195 0.4272262
vt 0.4471216 0.4087918
vt 0.447126 0.4456678
vt 0.4286756 0.4456722
vt 0.4471282 0.4641061
vt 0.4286751 0.4641302
vt 0.428677 0.482633
vt 0.4471393 0.482503
vt 0.4286756 0.4456722
vt 0.428676 0.4272241
vt 0.4286744 0.4087697
vt 0.410226 0.4456664
vt 0.4102388 0.4272314
vt 0.3917618 0.4456542
vt 0.3918409 0.4272267
vt 0.4102261 0.4641083
vt 0.4286751 0.4641302
vt 0.428677 0.482633
vt 0.3917832 0.4641284
vt 0.3917618 0.4456542
vt 0.3918177 0.4825778
vt 0.428676 0.4272241
vt 0.4102262 0.4088025
vt 0.4286696 0.3902582
vt 0.4102262 0.4088025
vt 0.4101982 0.3903933
vt 0.3917784 0.3903571
vt 0.4840451 0.4456495
vt 0.4839595 0.4272174
vt 0.465556 0.4272234
vt 0.465556 0.4272234
vt 0.4655757 0.4456673
vt 0.447126 0.4456678
vt 0.4655757 0.4456673
vt 0.4840306 0.4641296
vt 0.4655718 0.4641206
vt 0.4471282 0.4641061
vt 0.4840164 0.4825892
vt 0.4655476 0.4825796
vt 0.4471393 0.482503
vt 0.4102261 0.4641083
vt 0.3918177 0.4825778
vt 0.4102207 0.4825066
vt 0.428677 0.482633
vt 0.4102261 0.4641083
vt 0.4102207 0.4825066
vt 0.4102262 0.4088025
vt 0.4286696 0.3902582
vt 0.4101982 0.3903933
vt 0.4471216 0.4087918
vt 0.447147 0.3903794
vt 0.4286696 0.3902582
vt 0.4655657 0.4087832
vt 0.4471195 0.4272262
vt 0.4471216 0.4087918
vt 0.4286744 0.4087697
vt 0.4286696 0.3902582
vt 0.4102262 0.4088025
vt 0.3917784 0.3903571
vt 0.3917842 0.4088225
vt 0.4102388 0.4272314
vt 0.3918409 0.4272267
vt 0.428676 0.4272241
vt 0.4286696 0.3902582
vt 0.4286511 0.3832843
vt 0.4101613 0.3835027
vt 0.4101982 0.3903933
vt 0.3917784 0.3903571
vt 0.3848447 0.3902275
vt 0.3848523 0.4087138
vt 0.3917842 0.4088225
vt 0.3849425 0.427242
vt 0.3918409 0.4272267
vt 0.3848233 0.4457445
vt 0.3917618 0.4456542
vt 0.3848664 0.4641863
vt 0.3917832 0.4641284
vt 0.3849002 0.482634
vt 0.3918177 0.4825778
vt 0.428677 0.482633
vt 0.428662 0.4895996
vt 0.4471299 0.4893869
vt 0.4471393 0.482503
vt 0.4101982 0.3903933
vt 0.4101613 0.3835027
vt 0.3916116 0.3834058
vt 0.3917784 0.3903571
vt 0.4102207 0.4825066
vt 0.4101919 0.4893914
vt 0.428662 0.4895996
vt 0.428677 0.482633
vt 0.4840537 0.390334
vt 0.4841427 0.3834065
vt 0.4656668 0.3833742
vt 0.465569 0.3903153
vt 0.4471386 0.3834896
vt 0.447147 0.3903794
vt 0.3918177 0.4825778
vt 0.3916637 0.4895214
vt 0.4101919 0.4893914
vt 0.4102207 0.4825066
vt 0.4840208 0.4088069
vt 0.4909849 0.3902142
vt 0.4840537 0.390334
vt 0.4909547 0.4087033
vt 0.4839595 0.4272174
vt 0.4908593 0.4272326
vt 0.4840451 0.4456495
vt 0.4909849 0.4457371
vt 0.4840306 0.4641296
vt 0.4909506 0.4641824
vt 0.4840164 0.4825892
vt 0.4909369 0.4826378
vt 0.4655476 0.4825796
vt 0.484095 0.4895098
vt 0.4840164 0.4825892
vt 0.465638 0.4895146
vt 0.4471393 0.482503
vt 0.4471299 0.4893869
vt 0.447147 0.3903794
vt 0.4471386 0.3834896
vt 0.4286511 0.3832843
vt 0.4286696 0.3902582
vt 0.01039423 0.7805103
vt 0.02411468 0.7649415
vt 0.01049201 0.7649415
vt 0.02401687 0.7805103
vt 0.01029821 0.7960789
vt 0.02392082 0.7960789
vt 0.009908065 0.8116477
vt 0.02353074 0.8116476
vt 0.01019765 0.8272164
vt 0.02382033 0.8272164
vt 0.01049201 0.8427851
vt 0.02411468 0.8427851
vt 0.02472512 0.8427852
vt 0.0383478 0.8427851
vt 0.03824995 0.8272165
vt 0.02462731 0.8272165
vt 0.03815393 0.8116477
vt 0.02453132 0.8116477
vt 0.03776391 0.796079
vt 0.02414127 0.796079
vt 0.03805344 0.7805103
vt 0.02443077 0.7805103
vt 0.0383478 0.7649415
vt 0.02472518 0.7649415
vt 0.03844373 0.7805102
vt 0.05252136 0.7649415
vt 0.03889866 0.7649415
vt 0.05206637 0.7805102
vt 0.03884842 0.7960789
vt 0.05247106 0.7960789
vt 0.03837438 0.8116476
vt 0.05199705 0.8116476
vt 0.03872599 0.8272165
vt 0.05234863 0.8272165
vt 0.03889866 0.8427851
vt 0.05252136 0.8427852
vt 0.1006493 0.8431634
vt 0.1162181 0.8569588
vt 0.1162181 0.8433361
vt 0.1006493 0.8567861
vt 0.08508064 0.8428118
vt 0.08508064 0.8564345
vt 0.06951191 0.8432859
vt 0.06951191 0.8569085
vt 0.08508064 0.8564345
vt 0.08508064 0.8428118
vt 0.0539432 0.8428812
vt 0.0539432 0.8565038
vt 0.06951191 0.8569085
vt 0.06951191 0.8432859
vt 0.03837438 0.8433362
vt 0.0383745 0.8569588
vt 0.0539432 0.8565038
vt 0.0539432 0.8428812

usemtl LOW-POLY-COLORS
usemap LOW-POLY-COLORS
f 2/2/2 1/1/1 3/3/3
f 5/5/5 4/4/4 2/2/2
f 2/2/2 4/4/4 6/6/6
f 4/4/4 7/7/7 6/6/6
f 8/8/8 7/7/7 4/4/4
f 7/7/7 9/9/9 6/6/6
f 6/6/6 9/9/9 10/10/10
f 7/7/7 11/11/11 9/9/9
f 11/11/11 12/12/12 9/9/9
f 12/12/12 13/13/13 14/14/14
f 13/13/13 15/15/15 14/14/14
f 16/16/16 15/15/15 13/13/13
f 11/11/11 13/13/13 17/17/17
f 9/9/9 17/17/17 18/18/18
f 19/19/19 9/9/9 18/18/18
f 17/17/17 20/20/20 18/18/18
f 18/18/18 20/20/20 21/21/21
f 22/22/22 21/21/21 20/20/20
f 23/23/23 21/21/21 22/22/22
f 17/17/17 24/24/24 20/20/20
f 25/25/25 24/24/24 17/17/17
f 25/25/25 26/26/26 24/24/24
f 27/27/27 20/20/20 24/24/24
f 28/28/28 20/20/20 27/27/27
f 27/27/27 24/24/24 29/29/29
f 19/19/19 30/30/30 31/31/31
f 19/19/19 31/31/31 32/32/32
f 34/34/34 33/33/33 35/35/35
f 37/37/37 36/36/36 38/38/38
f 39/39/39 36/36/36 40/40/40
f 42/42/42 41/41/41 39/39/39
f 36/36/36 43/43/43 42/42/42
f 40/40/40 43/43/43 44/44/44
f 42/42/42 45/45/45 41/41/41
f 44/44/44 45/45/45 42/42/42
f 43/43/43 46/46/46 44/44/44
f 44/44/44 46/46/46 47/47/47
f 44/44/44 47/47/47 45/45/45
f 45/45/45 47/47/47 48/48/48
f 50/50/50 49/49/49 51/51/51
f 53/53/53 52/52/52 54/54/54
f 56/56/56 55/55/55 57/57/57
f 59/59/59 58/58/58 60/60/60
f 59/59/59 61/61/61 58/58/58
f 63/63/63 62/62/62 64/64/64
f 65/65/65 63/63/63 64/64/64
f 67/67/67 66/66/66 68/68/68
f 66/66/66 69/69/69 68/68/68
f 68/68/68 69/69/69 70/70/70
f 66/66/66 71/71/71 69/69/69
f 73/73/73 72/72/72 74/74/74
f 74/74/74 72/72/72 75/75/75
f 77/77/77 76/76/76 78/78/78
f 78/78/78 76/76/76 79/79/79
f 78/78/78 79/79/79 80/80/80
f 80/80/80 79/79/79 81/81/81
f 80/80/80 81/81/81 82/82/82
f 82/82/82 81/81/81 83/83/83
f 82/82/82 83/83/83 84/84/84
f 84/84/84 83/83/83 85/85/85
f 84/84/84 85/85/85 86/86/86
f 86/86/86 85/85/85 87/87/87
f 89/89/89 88/88/88 90/90/90
f 90/90/90 88/88/88 91/91/91
f 93/93/93 92/92/92 94/94/94
f 94/94/94 92/92/92 95/95/95
f 97/97/97 96/96/96 98/98/98
f 98/98/98 96/96/96 99/99/99
f 101/101/101 100/100/100 102/102/102
f 102/102/102 100/100/100 103/103/103
f 102/102/102 103/103/103 104/104/104
f 104/104/104 103/103/103 105/105/105
f 107/107/107 106/106/106 108/108/108
f 108/108/108 106/106/106 109/109/109
f 111/111/111 110/110/110 112/112/112
f 113/113/113 110/110/110 111/111/111
f 113/113/113 114/114/114 110/110/110
f 115/115/115 114/114/114 113/113/113
f 115/115/115 116/116/116 114/114/114
f 117/117/117 116/116/116 115/115/115
f 117/117/117 118/118/118 116/116/116
f 119/119/119 118/118/118 117/117/117
f 119/119/119 120/120/120 118/118/118
f 121/121/121 120/120/120 119/119/119
f 123/123/123 122/122/122 124/124/124
f 125/125/125 122/122/122 123/123/123
f 125/125/125 126/126/126 122/122/122
f 127/127/127 126/126/126 125/125/125
f 129/129/129 128/128/128 130/130/130
f 130/130/130 128/128/128 131/131/131
f 133/133/133 132/132/132 134/134/134
f 135/135/135 132/132/132 133/133/133
f 135/135/135 136/136/136 132/132/132
f 137/137/137 136/136/136 135/135/135
f 137/137/137 138/138/138 136/136/136
f 139/139/139 138/138/138 137/137/137
f 139/139/139 140/140/140 138/138/138
f 141/141/141 140/140/140 139/139/139
f 141/141/141 142/142/142 140/140/140
f 143/143/143 142/142/142 141/141/141
f 145/145/145 144/144/144 146/146/146
f 146/146/146 144/144/144 147/147/147
f 146/146/146 147/147/147 148/148/148
f 148/148/148 147/147/147 149/149/149
f 148/148/148 149/149/149 150/150/150
f 150/150/150 149/149/149 151/151/151
f 150/150/150 151/151/151 152/152/152
f 152/152/152 151/151/151 153/153/153
f 152/152/152 153/153/153 154/154/154
f 154/154/154 153/153/153 155/155/155
f 157/157/157 156/156/156 158/158/158
f 159/159/159 156/156/156 157/157/157
f 159/159/159 160/160/160 156/156/156
f 161/161/161 160/160/160 159/159/159
f 161/161/161 162/162/162 160/160/160
f 163/163/163 162/162/162 161/161/161
f 163/163/163 164/164/164 162/162/162
f 165/165/165 164/164/164 163/163/163
f 165/165/165 166/166/166 164/164/164
f 167/167/167 166/166/166 165/165/165
f 169/169/169 168/168/168 170/170/170
f 171/171/171 168/168/168 169/169/169
f 171/171/171 172/172/172 168/168/168
f 173/173/173 172/172/172 171/171/171
f 175/175/175 174/174/174 176/176/176
f 176/176/176 174/174/174 177/177/177
f 179/179/179 178/178/178 180/180/180
f 180/180/180 178/178/178 181/181/181
f 183/183/183 182/182/182 184/184/184
f 184/184/184 182/182/182 185/185/185
