mtllib ./terrain-world-hill4_6.mtl
g terrain-world-hill4
v -3.010293 3.82752 14.99994
v -9.010291 5.4387 14.99994
v -8.999973 4.771018 8.999945
v -14.99998 0.5542187 -9.000061
v -14.99998 2.205378E-05 -15.00005
v -8.999979 0.2269154 -15.00005
v 3.000022 0.8654449 8.999942
v -2.999978 2.924976 8.999942
v -2.999979 1.768348 2.999943
v 2.989702 1.665299 14.99994
v -3.010293 3.82752 14.99994
v -2.999978 2.924976 8.999942
v 3.000022 0.8654449 8.999942
v -3.010293 3.82752 14.99994
v -8.999973 4.771018 8.999945
v -2.999978 2.924976 8.999942
v -8.999973 4.771018 8.999945
v -8.999975 3.007343 2.999944
v -2.999979 0.3191849 -3.000055
v -8.999975 1.027674 -3.000053
v -8.999978 0.4099087 -9.000063
v 8.989714 0.5542124 14.99994
v 2.989702 1.665299 14.99994
v 3.000022 0.8654449 8.999942
v 9.000021 0.3709818 -9.000065
v 9.000022 -0.05973288 -3.000057
v 3.000021 0.299265 -3.000056
v -2.999979 1.768348 2.999943
v -8.999975 3.007343 2.999944
v -8.999975 1.027674 -3.000053
v -8.999975 1.027674 -3.000053
v -14.99998 1.665303 -3.000053
v -14.99998 0.5542187 -9.000061
v -8.999978 0.4099087 -9.000063
v -8.999979 0.2269154 -15.00005
v -2.999982 0.4500953 -15.00006
v 3.00002 0.1019197 -9.000064
v 3.000018 0.1494304 -15.00006
v 9.000019 0.07543288 -15.00006
v -2.99998 0.4221039 -9.000064
v -2.999982 0.4500953 -15.00006
v 3.00002 0.1019197 -9.000064
v 3.000021 0.299265 -3.000056
v 9.000022 0.2821653 2.99994
v 9.000022 -0.05973288 -3.000057
v 3.000021 0.5426292 2.999942
v -2.999979 0.3191849 -3.000055
v 3.000021 0.5426292 2.999942
v -2.999979 1.768348 2.999943
v -2.999979 0.3191849 -3.000055
v -2.999978 2.924976 8.999942
v -8.999975 3.007343 2.999944
v -14.99998 0.5542187 -9.000061
v -8.999979 0.2269154 -15.00005
v -8.999978 0.4099087 -9.000063
v 3.000022 0.8654449 8.999942
v -2.999979 1.768348 2.999943
v 3.000021 0.5426292 2.999942
v 15.00002 0.1331491 8.999939
v 9.000022 0.2821653 2.99994
v 15.00001 0.4041664 2.999939
v 15.00002 1.513956E-05 14.99994
v 9.000023 0.2253412 8.999941
v 15.00002 0.1331491 8.999939
v 9.000022 0.2821653 2.99994
v 3.000021 0.5426292 2.999942
v -2.999979 1.768348 2.999943
v -8.999975 1.027674 -3.000053
v -2.999979 0.3191849 -3.000055
v -8.999975 1.027674 -3.000053
v -14.99998 0.5542187 -9.000061
v -8.999978 0.4099087 -9.000063
v 3.000021 0.299265 -3.000056
v -2.999979 0.3191849 -3.000055
v -2.99998 0.4221039 -9.000064
v -8.999978 0.4099087 -9.000063
v -2.999982 0.4500953 -15.00006
v 15.00001 0.03878107 -3.000058
v 9.000022 -0.05973288 -3.000057
v 9.000021 0.3709818 -9.000065
v 15.00001 0.3507 -9.000067
v 15.00001 0.3507 -9.000067
v 9.000021 0.3709818 -9.000065
v 9.000019 0.07543288 -15.00006
v 15.00002 2.491479E-05 -15.00005
v -8.999975 3.007343 2.999944
v -14.99998 3.827524 2.999945
v -14.99998 1.665303 -3.000053
v -8.999975 1.027674 -3.000053
v -9.010291 5.4387 14.99994
v -14.99997 6.000014 14.99996
v -14.99997 5.438698 8.999946
v -8.999973 4.771018 8.999945
v 15.00001 0.03878107 -3.000058
v 15.00001 0.4041664 2.999939
v 9.000022 0.2821653 2.99994
v 9.000022 -0.05973288 -3.000057
v 15.00002 1.513956E-05 14.99994
v 8.989714 0.5542124 14.99994
v 9.000023 0.2253412 8.999941
v 3.000022 0.8654449 8.999942
v 3.000021 0.5426292 2.999942
v -8.999973 4.771018 8.999945
v -14.99997 5.438698 8.999946
v -14.99998 3.827524 2.999945
v -8.999975 3.007343 2.999944
v 9.000021 0.3709818 -9.000065
v 3.000021 0.299265 -3.000056
v 3.00002 0.1019197 -9.000064
v 9.000019 0.07543288 -15.00006
v 15.00002 1.513956E-05 14.99994
v 15.00002 -1.999984 14.99994
v 8.989714 -1.445787 14.99994
v 8.989714 0.5542124 14.99994
v -14.99998 0.5542187 -9.000061
v -14.99998 -1.999978 -15.00005
v -14.99998 2.205378E-05 -15.00005
v -14.99998 -1.445779 -9.000062
v -14.99998 1.665303 -3.000053
v -14.99998 -0.334696 -3.000053
v -14.99998 3.827524 2.999945
v -14.99998 1.827524 2.999945
v -14.99997 5.438698 8.999946
v -14.99997 3.4387 8.999945
v -14.99997 6.000014 14.99996
v -14.99997 4.000015 14.99996
v 15.00002 0.1331491 8.999939
v 15.00002 -1.999984 14.99994
v 15.00002 1.513956E-05 14.99994
v 15.00002 -1.86685 8.999939
v 15.00001 0.4041664 2.999939
v 15.00001 -1.595833 2.999939
v 15.00001 0.03878107 -3.000058
v 15.00001 -1.961219 -3.000058
v 15.00001 0.3507 -9.000067
v 15.00001 -1.649298 -9.000067
v 15.00002 2.491479E-05 -15.00005
v 15.00002 -1.999975 -15.00005
v -9.010291 5.4387 14.99994
v -9.010291 3.438697 14.99994
v -14.99997 4.000015 14.99996
v -14.99997 6.000014 14.99996
v 9.000019 0.07543288 -15.00006
v 15.00002 -1.999975 -15.00005
v 15.00002 2.491479E-05 -15.00005
v 9.000019 -1.924567 -15.00006
v 3.000018 0.1494304 -15.00006
v 3.000018 -1.850572 -15.00006
v -2.999982 0.4500953 -15.00006
v -2.999982 -1.549908 -15.00006
v -14.99998 2.205378E-05 -15.00005
v -14.99998 -1.999978 -15.00005
v -8.999979 -1.773085 -15.00005
v -8.999979 0.2269154 -15.00005
v -2.999982 -1.549908 -15.00006
v -2.999982 0.4500953 -15.00006
v -3.010293 3.82752 14.99994
v -3.010293 1.82752 14.99994
v -9.010291 3.438697 14.99994
v -9.010291 5.4387 14.99994
v 2.989702 1.665299 14.99994
v 2.989702 -0.3347006 14.99994
v -3.010293 1.82752 14.99994
v -3.010293 3.82752 14.99994
v 8.989714 0.5542124 14.99994
v 8.989714 -1.445787 14.99994
v 2.989702 -0.3347006 14.99994
v 2.989702 1.665299 14.99994
v -14.99998 -1.445779 -9.000062
v -14.99998 -5.999977 -15.00006
v -14.99998 -1.999978 -15.00005
v -14.99998 -5.44578 -9.000061
v -14.99998 -0.334696 -3.000053
v -14.99998 -4.334698 -3.000053
v -14.99998 1.827524 2.999945
v -14.99998 -2.172478 2.999944
v -14.99997 3.4387 8.999945
v -14.99997 -0.5613022 8.999945
v -14.99997 4.000015 14.99996
v -14.99997 1.525879E-05 14.99995
v 15.00002 -1.999975 -15.00005
v 15.00002 -5.999975 -15.00005
v 15.00001 -5.649302 -9.000067
v 15.00001 -1.649298 -9.000067
v 15.00001 -5.961219 -3.000058
v 15.00001 -1.961219 -3.000058
v 15.00001 -5.595832 2.999939
v 15.00001 -1.595833 2.999939
v 15.00002 -5.86685 8.999939
v 15.00002 -1.86685 8.999939
v 15.00002 -5.999985 14.99994
v 15.00002 -1.999984 14.99994
v -9.010291 3.438697 14.99994
v -14.99997 1.525879E-05 14.99995
v -14.99997 4.000015 14.99996
v -9.010291 -0.5613041 14.99994
v -3.010293 1.82752 14.99994
v -3.010293 -2.172482 14.99994
v 2.989702 -0.3347006 14.99994
v 2.989702 -4.334702 14.99994
v 8.989714 -1.445787 14.99994
v 8.989714 -5.445787 14.99994
v 15.00002 -1.999984 14.99994
v 15.00002 -5.999985 14.99994
v 9.000019 -1.924567 -15.00006
v 15.00002 -5.999975 -15.00005
v 15.00002 -1.999975 -15.00005
v 9.000019 -5.92457 -15.00006
v 3.000018 -1.850572 -15.00006
v 3.000018 -5.850573 -15.00006
v -2.999982 -1.549908 -15.00006
v -2.999982 -5.549908 -15.00006
v -14.99998 -1.999978 -15.00005
v -14.99998 -5.999977 -15.00006
v -8.999979 -5.773085 -15.00006
v -8.999979 -1.773085 -15.00005
v -2.999982 -5.549908 -15.00006
v -2.999982 -1.549908 -15.00006

vn 0.2578698 0.960301 -0.1064191
vn 0.2578698 0.960301 -0.1064191
vn 0.2578698 0.960301 -0.1064191
vn -0.03762864 0.9950562 -0.09190959
vn -0.03762864 0.9950562 -0.09190959
vn -0.03762864 0.9950562 -0.09190959
vn 0.3193958 0.9304903 -0.179372
vn 0.3357106 0.9315703 -0.1395534
vn 0.3193958 0.9304903 -0.179372
vn 0.3357106 0.9315703 -0.1395534
vn 0.3357106 0.9315703 -0.1395534
vn 0.2910973 0.9461235 -0.1418191
vn 0.3221331 0.9384653 -0.1245518
vn 0.2910973 0.9461235 -0.1418191
vn 0.2910973 0.9461235 -0.1418191
vn 0.2831086 0.9201586 -0.2704769
vn 0.2831086 0.9201586 -0.2704769
vn 0.2831086 0.9201586 -0.2704769
vn 0.1166586 0.9879493 -0.1017201
vn 0.1166586 0.9879493 -0.1017201
vn 0.1166586 0.9879493 -0.1017201
vn 0.1805479 0.9749819 -0.1296634
vn 0.1805479 0.9749819 -0.1296634
vn 0.1805479 0.9749819 -0.1296634
vn 0.05957342 0.9956618 0.07147424
vn 0.05957342 0.9956618 0.07147424
vn 0.05957342 0.9956618 0.07147424
vn 0.1924356 0.931895 -0.307474
vn 0.1924356 0.931895 -0.307474
vn 0.1924356 0.931895 -0.307474
vn 0.1039291 0.9779581 -0.1810988
vn 0.1039291 0.9779581 -0.1810988
vn 0.1039291 0.9779581 -0.1810988
vn -0.03715371 0.9988451 -0.03046371
vn -0.03715371 0.9988451 -0.03046371
vn -0.03715371 0.9988451 -0.03046371
vn 0.0123316 0.9998926 0.007917603
vn 0.05004748 0.998736 0.004659332
vn 0.0123316 0.9998926 0.007917603
vn 0.05004748 0.998736 0.004659332
vn 0.05004748 0.998736 0.004659332
vn 0.0532595 0.9980411 -0.03282642
vn 0.04333422 0.9982399 -0.04048932
vn 0.04333422 0.9982399 -0.04048932
vn 0.05962976 0.9966038 -0.05678951
vn 0.04333422 0.9982399 -0.04048932
vn 0.003317233 0.9991729 -0.04052716
vn 0.1947735 0.9534329 -0.2302801
vn 0.1947735 0.9534329 -0.2302801
vn 0.1947735 0.9534329 -0.2302801
vn 0.1987221 0.9623383 -0.1855113
vn 0.1987221 0.9623383 -0.1855113
vn 0.02403353 0.9992465 -0.03047595
vn 0.02403353 0.9992465 -0.03047595
vn 0.02403353 0.9992465 -0.03047595
vn 0.1998753 0.9784063 -0.05264087
vn 0.1998753 0.9784063 -0.05264087
vn 0.1998753 0.9784063 -0.05264087
vn -0.02030864 0.9987754 0.04511425
vn -0.02030864 0.9987754 0.04511425
vn -0.02030864 0.9987754 0.04511425
vn 0.01535979 0.9996359 0.02218093
vn 0.01536287 0.9998372 0.009469126
vn 0.01536287 0.9998372 0.009469126
vn 0.01536287 0.9998372 0.009469126
vn 0.04336786 0.9990144 0.009461338
vn 0.1140323 0.9657088 -0.233245
vn 0.1140323 0.9657088 -0.233245
vn 0.1140323 0.9657088 -0.233245
vn 0.02391833 0.9944566 -0.10239
vn 0.02391833 0.9944566 -0.10239
vn 0.02391833 0.9944566 -0.10239
vn 0.003319467 0.9998474 0.01715052
vn 0.003319467 0.9998474 0.01715052
vn 0.003319467 0.9998474 0.01715052
vn -0.002032218 0.9998509 0.01715058
vn -0.002032495 0.9999871 0.004665181
vn -0.01637466 0.9972996 0.07159183
vn -0.01637466 0.9972996 0.07159183
vn -0.01637466 0.9972996 0.07159183
vn 0.003375747 0.9986457 0.051916
vn 0.003376175 0.9987833 -0.04919824
vn 0.003376175 0.9987833 -0.04919824
vn 0.003376175 0.9987833 -0.04919824
vn 0.01254573 0.9982178 -0.05834183
vn 0.1275507 0.9330921 -0.3362587
vn 0.1275507 0.9330921 -0.3362587
vn 0.1275507 0.9330921 -0.3362587
vn 0.1004101 0.9448448 -0.3117469
vn 0.09290282 0.9913464 -0.09274306
vn 0.09290282 0.9913464 -0.09274306
vn 0.09290282 0.9913464 -0.09274306
vn 0.109929 0.9878627 -0.1097405
vn -0.02029179 0.9979454 -0.06077246
vn -0.02029179 0.9979454 -0.06077246
vn -0.02029179 0.9979454 -0.06077246
vn -0.01639023 0.9982463 -0.05688311
vn 0.09168261 0.9943044 -0.05434215
vn 0.09168261 0.9943044 -0.05434215
vn 0.09168261 0.9943044 -0.05434215
vn 0.1059305 0.9929375 -0.05342267
vn 0.1059305 0.9929375 -0.05342267
vn 0.106857 0.960256 -0.2578567
vn 0.106857 0.960256 -0.2578567
vn 0.106857 0.960256 -0.2578567
vn 0.1300348 0.9512641 -0.2796202
vn -0.04477447 0.9984572 -0.03284008
vn -0.04477447 0.9984572 -0.03284008
vn -0.04477447 0.9984572 -0.03284008
vn -0.0447445 0.9977887 -0.04914923
vn 4.320514E-07 -6.346929E-07 1
vn 4.320514E-07 -6.346929E-07 1
vn 4.320514E-07 -6.346929E-07 1
vn 4.320514E-07 -6.346929E-07 1
vn -1 0 0
vn -1 0 0
vn -1 0 0
vn -1 0 0
vn -1 0 4.768369E-07
vn -1 0 4.768369E-07
vn -1 0 0
vn -1 0 0
vn -1 0 1.112619E-06
vn -1 0 1.112619E-06
vn -1 0 1.112619E-06
vn -1 0 1.112619E-06
vn 1 0 0
vn 1 0 0
vn 1 0 0
vn 1 0 0
vn 1 0 -5.960466E-07
vn 1 0 -5.960466E-07
vn 1 0 0
vn 1 0 0
vn 1 0 1.907356E-06
vn 1 0 1.907356E-06
vn 1 0 1.907356E-06
vn 1 0 1.907356E-06
vn 2.229076E-06 0 1
vn 2.229076E-06 0 1
vn 2.229076E-06 0 1
vn 2.229076E-06 0 1
vn 2.14277E-06 -6.357826E-07 -1
vn 2.14277E-06 -6.357826E-07 -1
vn 2.14277E-06 -6.357826E-07 -1
vn 2.14277E-06 -6.357826E-07 -1
vn -2.025766E-07 6.35782E-07 -1
vn -2.025766E-07 6.35782E-07 -1
vn -2.025766E-07 6.35782E-07 -1
vn -2.025766E-07 6.35782E-07 -1
vn 0 1.271566E-06 -1
vn 0 1.271566E-06 -1
vn 0 1.271566E-06 -1
vn 0 1.271566E-06 -1
vn -4.94574E-07 6.357826E-07 -1
vn -4.94574E-07 6.357826E-07 -1
vn 0 -6.357825E-07 1
vn 0 -6.357825E-07 1
vn 0 -6.357825E-07 1
vn 0 -6.357825E-07 1
vn 0 -6.357835E-07 1
vn 0 -6.357835E-07 1
vn 0 -6.357835E-07 1
vn 0 -6.357835E-07 1
vn -1.4128E-07 -6.357818E-07 1
vn -1.4128E-07 -6.357818E-07 1
vn -1.4128E-07 -6.357818E-07 1
vn -1.4128E-07 -6.357818E-07 1
vn -1 0 0
vn -1 0 0
vn -1 0 0
vn -1 0 0
vn -1 0 2.384182E-07
vn -1 0 2.384182E-07
vn -1 0 0
vn -1 0 0
vn -1 0 9.93409E-07
vn -1 0 9.93409E-07
vn -1 0 9.93409E-07
vn -1 0 9.93409E-07
vn 1 0 1.688803E-06
vn 1 0 1.688803E-06
vn 1 0 -8.940681E-07
vn 1 0 -8.940681E-07
vn 1 0 -8.940681E-07
vn 1 0 -8.940681E-07
vn 1 0 -8.344653E-07
vn 1 0 -8.344653E-07
vn 1 0 0
vn 1 0 0
vn 1 0 0
vn 1 0 0
vn 0 -6.357828E-07 1
vn 2.139702E-06 -9.55318E-07 1
vn 2.139702E-06 -9.55318E-07 1
vn 0 -6.357828E-07 1
vn 0 -6.357828E-07 1
vn 0 -6.357828E-07 1
vn 2.448649E-07 0 1
vn 2.448649E-07 0 1
vn 3.046438E-07 3.178907E-07 1
vn 3.046438E-07 3.178907E-07 1
vn 1.806572E-07 3.173463E-07 1
vn 1.806572E-07 3.173463E-07 1
vn 0 -3.178913E-07 -1
vn 2.222244E-06 0 -1
vn 2.222244E-06 0 -1
vn 0 -3.178913E-07 -1
vn 0 -3.178913E-07 -1
vn 0 -3.178913E-07 -1
vn -2.324449E-07 0 -1
vn -2.324449E-07 0 -1
vn -1.859935E-07 6.357831E-07 -1
vn -1.859935E-07 6.357831E-07 -1
vn -1.859935E-07 6.357831E-07 -1
vn -1.859935E-07 6.357831E-07 -1
vn -1.855506E-07 6.357832E-07 -1
vn -1.855506E-07 6.357832E-07 -1

vt 0.4472159 0.4864788
vt 0.4669148 0.4865257
vt 0.4668724 0.466974
vt 0.4864939 0.4072215
vt 0.4863346 0.3874001
vt 0.4665779 0.3875133
vt 0.4270129 0.4666437
vt 0.4470362 0.4667833
vt 0.4469389 0.4469808
vt 0.427122 0.4865483
vt 0.4472159 0.4864788
vt 0.4470362 0.4667833
vt 0.4270129 0.4666437
vt 0.4472159 0.4864788
vt 0.4668724 0.466974
vt 0.4470362 0.4667833
vt 0.4668724 0.466974
vt 0.4667586 0.4471524
vt 0.4468612 0.4270769
vt 0.4666881 0.4271328
vt 0.4666528 0.407291
vt 0.4071253 0.4863842
vt 0.427122 0.4865483
vt 0.4270129 0.4666437
vt 0.4073621 0.4072655
vt 0.4073044 0.4270257
vt 0.4270855 0.4270558
vt 0.4469389 0.4469808
vt 0.4667586 0.4471524
vt 0.4666881 0.4271328
vt 0.4666881 0.4271328
vt 0.4865981 0.4272374
vt 0.4864939 0.4072215
vt 0.4666528 0.407291
vt 0.4665779 0.3875133
vt 0.4468712 0.3876017
vt 0.4271131 0.4072817
vt 0.427136 0.3875056
vt 0.407358 0.3875175
vt 0.446876 0.4073127
vt 0.4468712 0.3876017
vt 0.4271131 0.4072817
vt 0.4270855 0.4270558
vt 0.4072888 0.4467914
vt 0.4073044 0.4270257
vt 0.4270662 0.4468466
vt 0.4468612 0.4270769
vt 0.4270662 0.4468466
vt 0.4469389 0.4469808
vt 0.4468612 0.4270769
vt 0.4470362 0.4667833
vt 0.4667586 0.4471524
vt 0.4864939 0.4072215
vt 0.4665779 0.3875133
vt 0.4666528 0.407291
vt 0.4270129 0.4666437
vt 0.4469389 0.4469808
vt 0.4270662 0.4468466
vt 0.3874283 0.4664243
vt 0.4072888 0.4467914
vt 0.3875926 0.4467346
vt 0.3872913 0.4861681
vt 0.407193 0.4665571
vt 0.3874283 0.4664243
vt 0.4072888 0.4467914
vt 0.4270662 0.4468466
vt 0.4469389 0.4469808
vt 0.4666881 0.4271328
vt 0.4468612 0.4270769
vt 0.4666881 0.4271328
vt 0.4864939 0.4072215
vt 0.4666528 0.407291
vt 0.4270855 0.4270558
vt 0.4468612 0.4270769
vt 0.446876 0.4073127
vt 0.4666528 0.407291
vt 0.4468712 0.3876017
vt 0.3875033 0.4269827
vt 0.4073044 0.4270257
vt 0.4073621 0.4072655
vt 0.3876771 0.4072322
vt 0.3876771 0.4072322
vt 0.4073621 0.4072655
vt 0.407358 0.3875175
vt 0.387612 0.3875358
vt 0.4667586 0.4471524
vt 0.4864561 0.4473475
vt 0.4865981 0.4272374
vt 0.4666881 0.4271328
vt 0.4669148 0.4865257
vt 0.4865161 0.4867015
vt 0.4864284 0.4670594
vt 0.4668724 0.466974
vt 0.3875033 0.4269827
vt 0.3875926 0.4467346
vt 0.4072888 0.4467914
vt 0.4073044 0.4270257
vt 0.3872913 0.4861681
vt 0.4071253 0.4863842
vt 0.407193 0.4665571
vt 0.4270129 0.4666437
vt 0.4270662 0.4468466
vt 0.4668724 0.466974
vt 0.4864284 0.4670594
vt 0.4864561 0.4473475
vt 0.4667586 0.4471524
vt 0.4073621 0.4072655
vt 0.4270855 0.4270558
vt 0.4271131 0.4072817
vt 0.407358 0.3875175
vt 0.3872913 0.4861681
vt 0.3868624 0.4935109
vt 0.4065295 0.4937525
vt 0.4071253 0.4863842
vt 0.4864939 0.4072215
vt 0.4936866 0.3869911
vt 0.4863346 0.3874001
vt 0.4938716 0.4066466
vt 0.4865981 0.4272374
vt 0.4939747 0.4262563
vt 0.4864561 0.4473475
vt 0.4937454 0.4462433
vt 0.4864284 0.4670594
vt 0.4937568 0.4663546
vt 0.4865161 0.4867015
vt 0.4939747 0.4862907
vt 0.3874283 0.4664243
vt 0.3798954 0.4862061
vt 0.3872913 0.4861681
vt 0.3800131 0.4664824
vt 0.3875926 0.4467346
vt 0.3802305 0.4467
vt 0.3875033 0.4269827
vt 0.3800512 0.4269503
vt 0.3876771 0.4072322
vt 0.3803096 0.4071922
vt 0.387612 0.3875358
vt 0.3801823 0.3873664
vt 0.4669148 0.4865257
vt 0.4661803 0.4938457
vt 0.486063 0.4941494
vt 0.4865161 0.4867015
vt 0.407358 0.3875175
vt 0.3875583 0.3801328
vt 0.387612 0.3875358
vt 0.4073005 0.3801136
vt 0.427136 0.3875056
vt 0.4270408 0.3800735
vt 0.4468712 0.3876017
vt 0.4468516 0.3802161
vt 0.4863346 0.3874001
vt 0.4864355 0.3799902
vt 0.4666708 0.3800947
vt 0.4665779 0.3875133
vt 0.4468516 0.3802161
vt 0.4468712 0.3876017
vt 0.4472159 0.4864788
vt 0.4460855 0.4937578
vt 0.4661803 0.4938457
vt 0.4669148 0.4865257
vt 0.427122 0.4865483
vt 0.4261174 0.4939148
vt 0.4460855 0.4937578
vt 0.4472159 0.4864788
vt 0.4071253 0.4863842
vt 0.4065295 0.4937525
vt 0.4261174 0.4939148
vt 0.427122 0.4865483
vt 0.03868718 0.8248279
vt 0.02700199 0.8408018
vt 0.03965802 0.8393677
vt 0.02603114 0.826262
vt 0.03838751 0.8102121
vt 0.02573151 0.8116463
vt 0.03935485 0.7954529
vt 0.0266988 0.7968868
vt 0.03965802 0.7807688
vt 0.02700195 0.7822028
vt 0.03869569 0.766228
vt 0.02603968 0.767662
vt 0.04017364 0.839011
vt 0.05291063 0.839011
vt 0.05248522 0.8244544
vt 0.03974821 0.8244544
vt 0.05286362 0.8098978
vt 0.04012658 0.8098978
vt 0.05242033 0.7953413
vt 0.03968335 0.7953412
vt 0.05274916 0.7807847
vt 0.04001208 0.7807846
vt 0.05291063 0.766228
vt 0.0401736 0.7662281
vt 0.02570619 0.8262852
vt 0.01209133 0.8393676
vt 0.02474744 0.8408011
vt 0.01305016 0.8248518
vt 0.02540237 0.8116012
vt 0.01274621 0.8101677
vt 0.02443434 0.7968419
vt 0.01177818 0.7954084
vt 0.02473322 0.782226
vt 0.01207713 0.7807927
vt 0.02570619 0.7676615
vt 0.0130501 0.766228
vt 0.05423993 0.8536556
vt 0.03968335 0.840827
vt 0.03968335 0.8535641
vt 0.05423993 0.8409185
vt 0.06879652 0.8537453
vt 0.06879652 0.8410083
vt 0.08335318 0.8541101
vt 0.08335309 0.841373
vt 0.1124663 0.8535641
vt 0.1124663 0.840827
vt 0.09790972 0.8411024
vt 0.09790972 0.8538393
vt 0.08335309 0.841373
vt 0.08335318 0.8541101

usemtl LOW-POLY-COLORS
usemap LOW-POLY-COLORS
f 2/2/2 1/1/1 3/3/3
f 5/5/5 4/4/4 6/6/6
f 8/8/8 7/7/7 9/9/9
f 11/11/11 10/10/10 8/8/8
f 12/12/12 10/10/10 13/13/13
f 15/15/15 14/14/14 12/12/12
f 17/17/17 16/16/16 18/18/18
f 20/20/20 19/19/19 21/21/21
f 23/23/23 22/22/22 24/24/24
f 26/26/26 25/25/25 27/27/27
f 29/29/29 28/28/28 30/30/30
f 32/32/32 31/31/31 33/33/33
f 35/35/35 34/34/34 36/36/36
f 38/38/38 37/37/37 39/39/39
f 41/41/41 40/40/40 38/38/38
f 38/38/38 40/40/40 42/42/42
f 40/40/40 43/43/43 42/42/42
f 43/43/43 44/44/44 45/45/45
f 46/46/46 44/44/44 43/43/43
f 47/47/47 46/46/46 43/43/43
f 49/49/49 48/48/48 50/50/50
f 52/52/52 51/51/51 49/49/49
f 54/54/54 53/53/53 55/55/55
f 57/57/57 56/56/56 58/58/58
f 60/60/60 59/59/59 61/61/61
f 63/63/63 62/62/62 59/59/59
f 63/63/63 64/64/64 65/65/65
f 66/66/66 63/63/63 65/65/65
f 68/68/68 67/67/67 69/69/69
f 71/71/71 70/70/70 72/72/72
f 74/74/74 73/73/73 75/75/75
f 76/76/76 74/74/74 75/75/75
f 77/77/77 76/76/76 75/75/75
f 79/79/79 78/78/78 80/80/80
f 80/80/80 78/78/78 81/81/81
f 83/83/83 82/82/82 84/84/84
f 84/84/84 82/82/82 85/85/85
f 87/87/87 86/86/86 88/88/88
f 88/88/88 86/86/86 89/89/89
f 91/91/91 90/90/90 92/92/92
f 92/92/92 90/90/90 93/93/93
f 95/95/95 94/94/94 96/96/96
f 96/96/96 94/94/94 97/97/97
f 99/99/99 98/98/98 100/100/100
f 101/101/101 99/99/99 100/100/100
f 101/101/101 100/100/100 102/102/102
f 104/104/104 103/103/103 105/105/105
f 105/105/105 103/103/103 106/106/106
f 108/108/108 107/107/107 109/109/109
f 110/110/110 109/109/109 107/107/107
f 112/112/112 111/111/111 113/113/113
f 113/113/113 111/111/111 114/114/114
f 116/116/116 115/115/115 117/117/117
f 118/118/118 115/115/115 116/116/116
f 118/118/118 119/119/119 115/115/115
f 120/120/120 119/119/119 118/118/118
f 120/120/120 121/121/121 119/119/119
f 122/122/122 121/121/121 120/120/120
f 122/122/122 123/123/123 121/121/121
f 124/124/124 123/123/123 122/122/122
f 124/124/124 125/125/125 123/123/123
f 126/126/126 125/125/125 124/124/124
f 128/128/128 127/127/127 129/129/129
f 130/130/130 127/127/127 128/128/128
f 130/130/130 131/131/131 127/127/127
f 132/132/132 131/131/131 130/130/130
f 132/132/132 133/133/133 131/131/131
f 134/134/134 133/133/133 132/132/132
f 134/134/134 135/135/135 133/133/133
f 136/136/136 135/135/135 134/134/134
f 136/136/136 137/137/137 135/135/135
f 138/138/138 137/137/137 136/136/136
f 140/140/140 139/139/139 141/141/141
f 141/141/141 139/139/139 142/142/142
f 144/144/144 143/143/143 145/145/145
f 146/146/146 143/143/143 144/144/144
f 146/146/146 147/147/147 143/143/143
f 148/148/148 147/147/147 146/146/146
f 148/148/148 149/149/149 147/147/147
f 150/150/150 149/149/149 148/148/148
f 152/152/152 151/151/151 153/153/153
f 153/153/153 151/151/151 154/154/154
f 153/153/153 154/154/154 155/155/155
f 155/155/155 154/154/154 156/156/156
f 158/158/158 157/157/157 159/159/159
f 159/159/159 157/157/157 160/160/160
f 162/162/162 161/161/161 163/163/163
f 163/163/163 161/161/161 164/164/164
f 166/166/166 165/165/165 167/167/167
f 167/167/167 165/165/165 168/168/168
f 170/170/170 169/169/169 171/171/171
f 172/172/172 169/169/169 170/170/170
f 172/172/172 173/173/173 169/169/169
f 174/174/174 173/173/173 172/172/172
f 174/174/174 175/175/175 173/173/173
f 176/176/176 175/175/175 174/174/174
f 176/176/176 177/177/177 175/175/175
f 178/178/178 177/177/177 176/176/176
f 178/178/178 179/179/179 177/177/177
f 180/180/180 179/179/179 178/178/178
f 182/182/182 181/181/181 183/183/183
f 183/183/183 181/181/181 184/184/184
f 183/183/183 184/184/184 185/185/185
f 185/185/185 184/184/184 186/186/186
f 185/185/185 186/186/186 187/187/187
f 187/187/187 186/186/186 188/188/188
f 187/187/187 188/188/188 189/189/189
f 189/189/189 188/188/188 190/190/190
f 189/189/189 190/190/190 191/191/191
f 191/191/191 190/190/190 192/192/192
f 194/194/194 193/193/193 195/195/195
f 196/196/196 193/193/193 194/194/194
f 196/196/196 197/197/197 193/193/193
f 198/198/198 197/197/197 196/196/196
f 198/198/198 199/199/199 197/197/197
f 200/200/200 199/199/199 198/198/198
f 200/200/200 201/201/201 199/199/199
f 202/202/202 201/201/201 200/200/200
f 202/202/202 203/203/203 201/201/201
f 204/204/204 203/203/203 202/202/202
f 206/206/206 205/205/205 207/207/207
f 208/208/208 205/205/205 206/206/206
f 208/208/208 209/209/209 205/205/205
f 210/210/210 209/209/209 208/208/208
f 210/210/210 211/211/211 209/209/209
f 212/212/212 211/211/211 210/210/210
f 214/214/214 213/213/213 215/215/215
f 215/215/215 213/213/213 216/216/216
f 215/215/215 216/216/216 217/217/217
f 217/217/217 216/216/216 218/218/218
