mtllib ./terrain-world-slope2_8.mtl
g terrain-world-slope2
v 15 0.7566366 8.98975
v 15 4.768372E-06 15.00007
v 9.010324 0.07541037 15.00007
v 9.010322 1.062476 9.000004
v 3.010326 0.1494093 15.00007
v 3.010325 1.105289 9.000007
v -2.989675 0.4500742 15.00007
v -2.989676 1.337469 9.000007
v 15 0.7566366 8.98975
v 9.010324 0.07541037 15.00007
v -8.989674 1.271376 9.000007
v -14.98967 0.9917827 9.000007
v -14.98967 2.40595 3.000011
v -14.98968 5.972969 -8.99999
v -15 6.000005 -14.99998
v -8.989676 6.226899 -14.99999
v -8.989675 5.37665 -9.000003
v -14.98967 4.097548 -2.999984
v -14.98968 5.972969 -8.99999
v -2.989677 4.151299 -3.000009
v -8.989675 5.37665 -9.000003
v -2.989679 5.688523 -9.000004
v 3.010322 5.566224 -9.000004
v -2.989679 5.688523 -9.000004
v 3.010323 4.226511 -3.00001
v 9.010321 5.507281 -9.000004
v 3.010324 2.796575 2.999997
v 9.010322 4.149607 -3.000012
v 9.010322 2.782162 2.999996
v 3.010324 2.796575 2.999997
v -2.989677 2.671032 2.999998
v -8.989674 4.257239 -3.000009
v -2.989676 1.337469 9.000007
v -8.989674 2.448859 2.999999
v 15 3.968863 -3.010242
v 15 5.427084 -9.010254
v 9.010322 2.782162 2.999996
v 15 2.456919 2.989754
v -8.989674 1.271376 9.000007
v -14.98967 2.40595 3.000011
v -2.989675 0.4500742 15.00007
v -8.989671 0.2268944 15.00007
v -14.98967 0.9917827 9.000007
v -14.98967 -1.430511E-06 15.00007
v 15 0.7566366 8.98975
v 9.010322 1.062476 9.000004
v 9.010322 2.782162 2.999996
v 3.010325 1.105289 9.000007
v -2.989676 1.337469 9.000007
v -14.98968 5.972969 -8.99999
v -8.989676 6.226899 -14.99999
v -8.989675 5.37665 -9.000003
v -8.989675 5.37665 -9.000003
v -8.989674 4.257239 -3.000009
v -14.98967 4.097548 -2.999984
v -2.989677 4.151299 -3.000009
v -2.989679 5.688523 -9.000004
v -2.98968 6.450078 -15
v 3.010321 6.149415 -15
v 3.010322 5.566224 -9.000004
v 9.010319 6.075414 -15
v 9.010321 5.507281 -9.000004
v 15 6.000005 -15.00003
v 15 5.427084 -9.010254
v -2.989679 5.688523 -9.000004
v -8.989675 5.37665 -9.000003
v -8.989676 6.226899 -14.99999
v -2.98968 6.450078 -15
v -8.989674 2.448859 2.999999
v -14.98967 2.40595 3.000011
v -14.98967 4.097548 -2.999984
v -8.989674 4.257239 -3.000009
v -2.989677 2.671032 2.999998
v 15 6.000005 -15.00003
v 15 4.000011 -15.00003
v 15 3.972972 -8.999992
v 15 5.427084 -9.010254
v 15 2.097552 -2.999991
v 15 3.968863 -3.010242
v 15 0.4059525 3.000009
v 15 2.456919 2.989754
v 15 -1.008214 9.000003
v 15 0.7566366 8.98975
v 15 -1.999995 15.00007
v 15 4.768372E-06 15.00007
v 3.010326 0.1494093 15.00007
v -2.989675 -1.549922 15.00007
v -2.989675 0.4500742 15.00007
v 3.010326 -1.850587 15.00007
v 9.010324 0.07541037 15.00007
v 9.010324 -1.924588 15.00007
v 15 4.768372E-06 15.00007
v 15 -1.999995 15.00007
v 9.010319 6.075414 -15
v 15 4.000011 -15.00003
v 15 6.000005 -15.00003
v 9.010319 4.075418 -15
v 3.010321 6.149415 -15
v 3.010321 4.149419 -15
v -2.98968 6.450078 -15
v -2.98968 4.450081 -15
v -8.989671 0.2268944 15.00007
v -14.98967 -1.999995 15.00007
v -14.98967 -1.430511E-06 15.00007
v -8.989671 -1.773099 15.00007
v -2.989675 0.4500742 15.00007
v -2.989675 -1.549922 15.00007
v -8.989676 6.226899 -14.99999
v -2.98968 4.450081 -15
v -2.98968 6.450078 -15
v -8.989676 4.226904 -15
v -15 6.000005 -14.99998
v -15 4.00001 -14.99998
v -14.98968 5.972969 -8.99999
v -15 4.00001 -14.99998
v -15 6.000005 -14.99998
v -14.98968 3.972972 -8.99999
v -14.98967 4.097548 -2.999984
v -14.98967 2.097552 -2.999985
v -14.98967 2.40595 3.000011
v -14.98967 0.4059525 3.000011
v -14.98967 0.9917827 9.000007
v -14.98967 -1.008214 9.000009
v -14.98967 -1.430511E-06 15.00007
v -14.98967 -1.999995 15.00007
v -15 4.00001 -14.99998
v -15 8.583069E-06 -14.99998
v -8.989676 0.2269049 -15
v -8.989676 4.226904 -15
v -2.98968 0.4500818 -15
v -2.98968 4.450081 -15
v 3.010321 0.1494169 -15
v 3.010321 4.149419 -15
v 9.010319 0.07541943 -15
v 9.010319 4.075418 -15
v 15 8.583069E-06 -15.00003
v 15 4.000011 -15.00003
v -8.989671 -1.773099 15.00007
v -14.98967 -5.999996 15.00007
v -14.98967 -1.999995 15.00007
v -8.989671 -5.773102 15.00007
v -2.989675 -1.549922 15.00007
v -2.989675 -5.549923 15.00007
v 3.010326 -1.850587 15.00007
v 3.010326 -5.850586 15.00007
v 9.010324 -1.924588 15.00007
v 9.010324 -5.924587 15.00007
v 15 -1.999995 15.00007
v 15 -5.999996 15.00007
v 15 4.000011 -15.00003
v 15 8.583069E-06 -15.00003
v 15 -0.02702808 -8.999992
v 15 3.972972 -8.999992
v 15 -1.90245 -2.999993
v 15 2.097552 -2.999991
v 15 -3.594047 3.000009
v 15 0.4059525 3.000009
v 15 -5.008213 9.000002
v 15 -1.008214 9.000003
v 15 -5.999996 15.00007
v 15 -1.999995 15.00007
v -14.98968 3.972972 -8.99999
v -15 8.583069E-06 -14.99998
v -15 4.00001 -14.99998
v -14.98968 -0.02702808 -8.99999
v -14.98967 2.097552 -2.999985
v -14.98967 -1.90245 -2.999986
v -14.98967 0.4059525 3.000011
v -14.98967 -3.594047 3.000011
v -14.98967 -1.008214 9.000009
v -14.98967 -5.008213 9.000007
v -14.98967 -1.999995 15.00007
v -14.98967 -5.999996 15.00007

vn 0.01248975 0.9920917 0.1248932
vn 0.01248975 0.9920917 0.1248932
vn 0.01248975 0.9920917 0.1248932
vn 0.01216869 0.9866639 0.1623151
vn 0.04942621 0.9863394 0.1571353
vn 0.04942621 0.9863394 0.1571353
vn 0.04942621 0.9863394 0.1571353
vn 0.03825212 0.9885154 0.146199
vn 0.0505968 0.9854731 0.1621192
vn 0.0505968 0.9854731 0.1621192
vn -0.04530955 0.9723306 0.2291732
vn -0.04530955 0.9723306 0.2291732
vn -0.04530955 0.9723306 0.2291732
vn -0.03772369 0.9992778 0.004567601
vn -0.03772369 0.9992778 0.004567601
vn -0.03772369 0.9992778 0.004567601
vn 0.09443726 0.9501953 0.2970025
vn 0.09443726 0.9501953 0.2970025
vn 0.09443726 0.9501953 0.2970025
vn -0.0203104 0.970689 0.2394794
vn -0.0502889 0.9674861 0.2478741
vn -0.0502889 0.9674861 0.2478741
vn -0.01223331 0.9758937 0.2179032
vn 0.01974151 0.9685231 0.2481398
vn 0.01250046 0.9752656 0.2206825
vn 0.02979551 0.9749087 0.2206019
vn 0.00234216 0.9749963 0.2222086
vn 0.02979551 0.9749087 0.2206019
vn 0.00234216 0.9749963 0.2222086
vn 0.03721932 0.9618258 0.2711199
vn -0.0203104 0.970689 0.2394794
vn 0.01714028 0.9707466 0.2394937
vn -0.01080859 0.9812252 0.1925623
vn -0.01080859 0.9812252 0.1925623
vn 0.02979551 0.9749087 0.2206019
vn 0.01341343 0.9716263 0.2361406
vn 0.05299776 0.9683238 0.2440087
vn 0.04953245 0.9609338 0.2723101
vn -0.01080859 0.9812252 0.1925623
vn -0.007017114 0.9812584 0.1925688
vn -0.03662091 0.9845234 0.1713843
vn -0.03728382 0.9859264 0.1629694
vn -0.03728382 0.9859264 0.1629694
vn -0.03728382 0.9859264 0.1629694
vn 0.04953245 0.9609338 0.2723101
vn 0.04953245 0.9609338 0.2723101
vn 0.006859443 0.9612725 0.2755142
vn 0.006859443 0.9612725 0.2755142
vn 0.03721932 0.9618258 0.2711199
vn 0.09793063 0.9853489 0.1396323
vn 0.09793063 0.9853489 0.1396323
vn 0.09793063 0.9853489 0.1396323
vn -0.02615442 0.9827014 0.1833413
vn -0.02615442 0.9827014 0.1833413
vn -0.02615442 0.9827014 0.1833413
vn 0.01735498 0.9828896 0.1833764
vn 0.04965038 0.9908174 0.1257603
vn 0.04965038 0.9908174 0.1257603
vn 0.04965038 0.9908174 0.1257603
vn 0.01227472 0.9952344 0.09673522
vn 0.01227472 0.9952344 0.09673522
vn 0.01253335 0.9954687 0.09425964
vn 0.01253335 0.9954687 0.09425964
vn 0.01349014 0.9953661 0.09520657
vn -0.05139658 0.9887995 0.1401213
vn -0.05139658 0.9887995 0.1401213
vn -0.05139658 0.9887995 0.1401213
vn -0.03687521 0.9913662 0.1258301
vn -0.0068825 0.9624566 0.2713484
vn -0.0068825 0.9624566 0.2713484
vn -0.0068825 0.9624566 0.2713484
vn -0.03543126 0.9568564 0.2883931
vn -0.03543126 0.9568564 0.2883931
vn 1 0 0
vn 1 0 0
vn 1 0 0
vn 1 0 0
vn 1 0 0
vn 1 0 0
vn 1 0 0
vn 1 0 0
vn 1 0 0
vn 1 0 0
vn 1 0 0
vn 1 0 0
vn 0 0 1
vn 0 0 1
vn 0 0 1
vn 0 0 1
vn -1.648268E-07 -6.35784E-07 1
vn -1.648268E-07 -6.35784E-07 1
vn 1.652228E-07 6.368792E-07 1
vn 1.652228E-07 6.368792E-07 1
vn -5.10103E-06 -6.3688E-07 -1
vn -5.10103E-06 -6.3688E-07 -1
vn -5.10103E-06 -6.3688E-07 -1
vn -5.10103E-06 -6.3688E-07 -1
vn -3.944239E-07 0 -1
vn -3.944239E-07 0 -1
vn -2.025767E-07 0 -1
vn -2.025767E-07 0 -1
vn -1.769779E-07 6.357852E-07 1
vn -1.769779E-07 6.357852E-07 1
vn -1.769779E-07 6.357852E-07 1
vn -1.769779E-07 6.357852E-07 1
vn 1.412091E-07 6.357849E-07 1
vn 1.412091E-07 6.357849E-07 1
vn -5.123105E-07 6.357843E-07 -1
vn -5.123105E-07 6.357843E-07 -1
vn -5.123105E-07 6.357843E-07 -1
vn -5.123105E-07 6.357843E-07 -1
vn -1.976075E-06 1.904077E-06 -1
vn -1.976075E-06 1.904077E-06 -1
vn -1 0 9.536753E-07
vn -0.9999986 0 0.00172045
vn -0.9999986 0 0.00172045
vn -1 0 9.536753E-07
vn -1 0 1.589461E-07
vn -1 0 1.589461E-07
vn -1 0 7.947303E-07
vn -1 0 7.947303E-07
vn -1 0 7.947303E-07
vn -1 0 7.947303E-07
vn -1 0 2.384167E-07
vn -1 0 2.384167E-07
vn -1.996909E-06 6.346905E-07 -1
vn -1.996909E-06 6.346905E-07 -1
vn 0 6.357834E-07 -1
vn 0 6.357834E-07 -1
vn 0 6.357834E-07 -1
vn 0 6.357834E-07 -1
vn -1.618862E-07 0 -1
vn -1.618862E-07 0 -1
vn -5.176139E-06 0 -1
vn -5.176139E-06 0 -1
vn -5.176139E-06 0 -1
vn -5.176139E-06 0 -1
vn 0 0 1
vn 0 0 1
vn 0 0 1
vn 0 0 1
vn 1.678141E-07 -3.178915E-07 1
vn 1.678141E-07 -3.178915E-07 1
vn 0 0 1
vn 0 0 1
vn -1.560052E-07 3.178916E-07 1
vn -1.560052E-07 3.178916E-07 1
vn 0 0 1
vn 0 0 1
vn 1 0 0
vn 1 0 0
vn 1 0 0
vn 1 0 0
vn 1 0 -1.589457E-07
vn 1 0 -1.589457E-07
vn 1 0 0
vn 1 0 0
vn 1 0 0
vn 1 0 0
vn 1 0 0
vn 1 0 0
vn -1 0 1.033146E-06
vn -0.9999986 0 0.001720416
vn -0.9999986 0 0.001720416
vn -1 0 1.033146E-06
vn -1 0 0
vn -1 0 0
vn -1 0 7.947292E-07
vn -1 0 7.947292E-07
vn -1 0 7.947292E-07
vn -1 0 7.947292E-07
vn -1 0 0
vn -1 0 0

vt 0.4046189 0.469619
vt 0.4046943 0.4862584
vt 0.4212492 0.4862124
vt 0.4212182 0.4695891
vt 0.4378213 0.4861887
vt 0.4377863 0.4695705
vt 0.4543509 0.4860667
vt 0.454338 0.4695108
vt 0.4046189 0.469619
vt 0.4212492 0.4862124
vt 0.4708906 0.4695253
vt 0.487486 0.4695762
vt 0.4874568 0.4528484
vt 0.4871509 0.4195205
vt 0.4873787 0.4031262
vt 0.4708067 0.4030713
vt 0.4707702 0.4196057
vt 0.4873589 0.4360979
vt 0.4871509 0.4195205
vt 0.4543103 0.4362093
vt 0.4707702 0.4196057
vt 0.4542944 0.4195781
vt 0.4377971 0.4195792
vt 0.4542944 0.4195781
vt 0.437787 0.4361991
vt 0.421301 0.4195919
vt 0.4377821 0.4528537
vt 0.4212584 0.4361925
vt 0.4212261 0.452848
vt 0.4377821 0.4528537
vt 0.4543284 0.4528657
vt 0.470828 0.4361601
vt 0.454338 0.4695108
vt 0.4708791 0.4528843
vt 0.4047197 0.4361291
vt 0.4049287 0.4195532
vt 0.4212261 0.452848
vt 0.4046328 0.4528857
vt 0.4708906 0.4695253
vt 0.4874568 0.4528484
vt 0.4543509 0.4860667
vt 0.4708597 0.4861411
vt 0.487486 0.4695762
vt 0.4874125 0.486212
vt 0.4046189 0.469619
vt 0.4212182 0.4695891
vt 0.4212261 0.452848
vt 0.4377863 0.4695705
vt 0.454338 0.4695108
vt 0.4871509 0.4195205
vt 0.4708067 0.4030713
vt 0.4707702 0.4196057
vt 0.4707702 0.4196057
vt 0.470828 0.4361601
vt 0.4873589 0.4360979
vt 0.4543103 0.4362093
vt 0.4542944 0.4195781
vt 0.4543141 0.4030781
vt 0.4377978 0.4030226
vt 0.4377971 0.4195792
vt 0.4212415 0.4030727
vt 0.421301 0.4195919
vt 0.4047429 0.4031743
vt 0.4049287 0.4195532
vt 0.4542944 0.4195781
vt 0.4707702 0.4196057
vt 0.4708067 0.4030713
vt 0.4543141 0.4030781
vt 0.4708791 0.4528843
vt 0.4874568 0.4528484
vt 0.4873589 0.4360979
vt 0.470828 0.4361601
vt 0.4543284 0.4528657
vt 0.4047429 0.4031743
vt 0.398467 0.4033212
vt 0.3988226 0.4200579
vt 0.4049287 0.4195532
vt 0.3985376 0.4369731
vt 0.4047197 0.4361291
vt 0.398471 0.4536644
vt 0.4046328 0.4528857
vt 0.3984378 0.4702521
vt 0.4046189 0.469619
vt 0.3985327 0.4868033
vt 0.4046943 0.4862584
vt 0.4378213 0.4861887
vt 0.4543421 0.4922538
vt 0.4543509 0.4860667
vt 0.4377578 0.4924095
vt 0.4212492 0.4862124
vt 0.42122 0.4924182
vt 0.4046943 0.4862584
vt 0.4046724 0.4924637
vt 0.4212415 0.4030727
vt 0.4046662 0.396975
vt 0.4047429 0.4031743
vt 0.4211706 0.3968745
vt 0.4377978 0.4030226
vt 0.4377082 0.3968011
vt 0.4543141 0.4030781
vt 0.454306 0.3968947
vt 0.4708597 0.4861411
vt 0.487505 0.4924212
vt 0.4874125 0.486212
vt 0.4709422 0.4923549
vt 0.4543509 0.4860667
vt 0.4543421 0.4922538
vt 0.4708067 0.4030713
vt 0.454306 0.3968947
vt 0.4543141 0.4030781
vt 0.4709235 0.3968586
vt 0.4873787 0.4031262
vt 0.4875176 0.3969167
vt 0.4871509 0.4195205
vt 0.4936657 0.4032862
vt 0.4873787 0.4031262
vt 0.4932599 0.4200346
vt 0.4873589 0.4360979
vt 0.493535 0.436939
vt 0.4874568 0.4528484
vt 0.4936171 0.4536213
vt 0.487486 0.4695762
vt 0.4936657 0.4702058
vt 0.4874125 0.486212
vt 0.4935738 0.4867556
vt 0.08831091 0.8569239
vt 0.1042206 0.8569239
vt 0.1038768 0.8387101
vt 0.08796711 0.8387101
vt 0.1035387 0.8205276
vt 0.08762895 0.8205276
vt 0.1039942 0.802345
vt 0.08808447 0.802345
vt 0.1041064 0.7841625
vt 0.08819659 0.7841625
vt 0.1042206 0.7660112
vt 0.08831085 0.7660112
vt 0.07134372 0.7841938
vt 0.08759719 0.7660112
vt 0.07168752 0.7660112
vt 0.08725339 0.7841938
vt 0.07100551 0.8023763
vt 0.08691524 0.8023763
vt 0.07146116 0.8205588
vt 0.08737084 0.8205588
vt 0.07157326 0.8387414
vt 0.08748293 0.8387414
vt 0.07168748 0.8569239
vt 0.08759719 0.8569239
vt 0.05514995 0.8590276
vt 0.07097377 0.8573766
vt 0.0691276 0.8392879
vt 0.05330385 0.8409389
vt 0.07006703 0.8209085
vt 0.05424321 0.8225596
vt 0.07072946 0.8025582
vt 0.05490563 0.8042093
vt 0.07097377 0.7842516
vt 0.05514992 0.7859026
vt 0.07058154 0.7660112
vt 0.05475772 0.7676622
vt 0.03560212 0.7841
vt 0.05327209 0.7676624
vt 0.03744828 0.7660112
vt 0.0514259 0.785751
vt 0.03654157 0.8024793
vt 0.05236536 0.8041303
vt 0.03720393 0.8208296
vt 0.05302775 0.8224806
vt 0.03744828 0.8391364
vt 0.05327209 0.8407874
vt 0.03705603 0.8573765
vt 0.05287981 0.8590276

usemtl LOW-POLY-COLORS
usemap LOW-POLY-COLORS
f 2/2/2 1/1/1 3/3/3
f 3/3/3 4/4/4 5/5/5
f 5/5/5 4/4/4 6/6/6
f 5/5/5 6/6/6 7/7/7
f 7/7/7 6/6/6 8/8/8
f 10/10/10 9/9/9 4/4/4
f 12/12/12 11/11/11 13/13/13
f 15/15/15 14/14/14 16/16/16
f 18/18/18 17/17/17 19/19/19
f 21/21/21 20/20/20 22/22/22
f 20/20/20 23/23/23 24/24/24
f 25/25/25 23/23/23 20/20/20
f 25/25/25 26/26/26 23/23/23
f 20/20/20 27/27/27 25/25/25
f 28/28/28 26/26/26 25/25/25
f 29/29/29 28/28/28 27/27/27
f 30/30/30 28/28/28 25/25/25
f 31/31/31 27/27/27 20/20/20
f 32/32/32 31/31/31 20/20/20
f 33/33/33 27/27/27 31/31/31
f 34/34/34 33/33/33 31/31/31
f 28/28/28 35/35/35 26/26/26
f 26/26/26 35/35/35 36/36/36
f 37/37/37 35/35/35 28/28/28
f 38/38/38 35/35/35 37/37/37
f 39/39/39 33/33/33 34/34/34
f 40/40/40 39/39/39 34/34/34
f 39/39/39 41/41/41 33/33/33
f 42/42/42 41/41/41 39/39/39
f 43/43/43 42/42/42 39/39/39
f 44/44/44 42/42/42 43/43/43
f 45/45/45 38/38/38 46/46/46
f 46/46/46 38/38/38 47/47/47
f 46/46/46 47/47/47 48/48/48
f 48/48/48 47/47/47 30/30/30
f 48/48/48 30/30/30 49/49/49
f 51/51/51 50/50/50 52/52/52
f 54/54/54 53/53/53 55/55/55
f 54/54/54 56/56/56 53/53/53
f 58/58/58 57/57/57 59/59/59
f 59/59/59 57/57/57 60/60/60
f 59/59/59 60/60/60 61/61/61
f 61/61/61 60/60/60 62/62/62
f 61/61/61 62/62/62 63/63/63
f 63/63/63 62/62/62 64/64/64
f 66/66/66 65/65/65 67/67/67
f 67/67/67 65/65/65 68/68/68
f 70/70/70 69/69/69 71/71/71
f 71/71/71 69/69/69 72/72/72
f 69/69/69 73/73/73 72/72/72
f 75/75/75 74/74/74 76/76/76
f 76/76/76 74/74/74 77/77/77
f 76/76/76 77/77/77 78/78/78
f 78/78/78 77/77/77 79/79/79
f 78/78/78 79/79/79 80/80/80
f 80/80/80 79/79/79 81/81/81
f 80/80/80 81/81/81 82/82/82
f 82/82/82 81/81/81 83/83/83
f 82/82/82 83/83/83 84/84/84
f 84/84/84 83/83/83 85/85/85
f 87/87/87 86/86/86 88/88/88
f 89/89/89 86/86/86 87/87/87
f 89/89/89 90/90/90 86/86/86
f 91/91/91 90/90/90 89/89/89
f 91/91/91 92/92/92 90/90/90
f 93/93/93 92/92/92 91/91/91
f 95/95/95 94/94/94 96/96/96
f 97/97/97 94/94/94 95/95/95
f 97/97/97 98/98/98 94/94/94
f 99/99/99 98/98/98 97/97/97
f 99/99/99 100/100/100 98/98/98
f 101/101/101 100/100/100 99/99/99
f 103/103/103 102/102/102 104/104/104
f 105/105/105 102/102/102 103/103/103
f 105/105/105 106/106/106 102/102/102
f 107/107/107 106/106/106 105/105/105
f 109/109/109 108/108/108 110/110/110
f 111/111/111 108/108/108 109/109/109
f 111/111/111 112/112/112 108/108/108
f 113/113/113 112/112/112 111/111/111
f 115/115/115 114/114/114 116/116/116
f 117/117/117 114/114/114 115/115/115
f 117/117/117 118/118/118 114/114/114
f 119/119/119 118/118/118 117/117/117
f 119/119/119 120/120/120 118/118/118
f 121/121/121 120/120/120 119/119/119
f 121/121/121 122/122/122 120/120/120
f 123/123/123 122/122/122 121/121/121
f 123/123/123 124/124/124 122/122/122
f 125/125/125 124/124/124 123/123/123
f 127/127/127 126/126/126 128/128/128
f 128/128/128 126/126/126 129/129/129
f 128/128/128 129/129/129 130/130/130
f 130/130/130 129/129/129 131/131/131
f 130/130/130 131/131/131 132/132/132
f 132/132/132 131/131/131 133/133/133
f 132/132/132 133/133/133 134/134/134
f 134/134/134 133/133/133 135/135/135
f 134/134/134 135/135/135 136/136/136
f 136/136/136 135/135/135 137/137/137
f 139/139/139 138/138/138 140/140/140
f 141/141/141 138/138/138 139/139/139
f 141/141/141 142/142/142 138/138/138
f 143/143/143 142/142/142 141/141/141
f 143/143/143 144/144/144 142/142/142
f 145/145/145 144/144/144 143/143/143
f 145/145/145 146/146/146 144/144/144
f 147/147/147 146/146/146 145/145/145
f 147/147/147 148/148/148 146/146/146
f 149/149/149 148/148/148 147/147/147
f 151/151/151 150/150/150 152/152/152
f 152/152/152 150/150/150 153/153/153
f 152/152/152 153/153/153 154/154/154
f 154/154/154 153/153/153 155/155/155
f 154/154/154 155/155/155 156/156/156
f 156/156/156 155/155/155 157/157/157
f 156/156/156 157/157/157 158/158/158
f 158/158/158 157/157/157 159/159/159
f 158/158/158 159/159/159 160/160/160
f 160/160/160 159/159/159 161/161/161
f 163/163/163 162/162/162 164/164/164
f 165/165/165 162/162/162 163/163/163
f 165/165/165 166/166/166 162/162/162
f 167/167/167 166/166/166 165/165/165
f 167/167/167 168/168/168 166/166/166
f 169/169/169 168/168/168 167/167/167
f 169/169/169 170/170/170 168/168/168
f 171/171/171 170/170/170 169/169/169
f 171/171/171 172/172/172 170/170/170
f 173/173/173 172/172/172 171/171/171
