mtllib ./bridge-pillars-large-curve_9.mtl
g bridge-pillars-large-curve
v 8.206303 1.049042E-05 -6.558202
v 7.242075 1.049042E-05 -6.293123
v 11.08444 1.049042E-05 7.683517
v 12.04867 1.049042E-05 7.418438
v 8.206303 9.999994 -6.558202
v 8.206303 1.049042E-05 -6.558202
v 12.04867 1.049042E-05 7.418438
v 12.04867 9.999994 7.418438
v 12.04867 1.049042E-05 7.418438
v 11.08444 1.049042E-05 7.683517
v 11.08444 9.999994 7.683517
v 12.04867 9.999994 7.418438
v 7.242075 9.999994 -6.293123
v 11.08444 9.999994 7.683517
v 11.08444 1.049042E-05 7.683517
v 7.242075 1.049042E-05 -6.293123
v 8.206303 1.049042E-05 -6.558202
v 8.206303 9.999994 -6.558202
v 7.242075 9.999994 -6.293123
v 7.242075 1.049042E-05 -6.293123
v -6.468204 1.049042E-05 7.273571
v -6.732666 1.049042E-05 8.237967
v 7.246429 1.049042E-05 12.0714
v 7.510891 1.049042E-05 11.107
v -6.468204 9.999994 7.273571
v -6.468204 1.049042E-05 7.273571
v 7.510891 1.049042E-05 11.107
v 7.510891 9.999994 11.107
v 7.510891 1.049042E-05 11.107
v 7.246429 1.049042E-05 12.0714
v 7.246429 9.999994 12.0714
v 7.510891 9.999994 11.107
v -6.732666 9.999994 8.237967
v 7.246429 9.999994 12.0714
v 7.246429 1.049042E-05 12.0714
v -6.732666 1.049042E-05 8.237967
v -6.468204 1.049042E-05 7.273571
v -6.468204 9.999994 7.273571
v -6.732666 9.999994 8.237967
v -6.732666 1.049042E-05 8.237967
v 11.08444 9.999994 7.683517
v 7.242075 9.999994 -6.293123
v 8.206303 9.999994 -6.558202
v 12.04867 9.999994 7.418438
v 7.246429 9.999994 12.0714
v -6.732666 9.999994 8.237967
v -6.468204 9.999994 7.273571
v 7.510891 9.999994 11.107

vn 0 -1 0
vn 0 -1 0
vn 0 -1 0
vn 0 -1 0
vn 0.9642267 0 -0.265079
vn 0.9642267 0 -0.265079
vn 0.9642267 0 -0.265079
vn 0.9642267 0 -0.265079
vn 0.2650789 0 0.9642268
vn 0.2650789 0 0.9642268
vn 0.2650789 0 0.9642268
vn 0.2650789 0 0.9642268
vn -0.9642267 0 0.2650791
vn -0.9642267 0 0.2650791
vn -0.9642267 0 0.2650791
vn -0.9642267 0 0.2650791
vn -0.2650782 0 -0.9642269
vn -0.2650782 0 -0.9642269
vn -0.2650782 0 -0.9642269
vn -0.2650782 0 -0.9642269
vn 0 -1 0
vn 0 -1 0
vn 0 -1 0
vn 0 -1 0
vn 0.2644624 0 -0.9643961
vn 0.2644624 0 -0.9643961
vn 0.2644624 0 -0.9643961
vn 0.2644624 0 -0.9643961
vn 0.9643962 0 0.2644616
vn 0.9643962 0 0.2644616
vn 0.9643962 0 0.2644616
vn 0.9643962 0 0.2644616
vn -0.2644624 0 0.9643961
vn -0.2644624 0 0.9643961
vn -0.2644624 0 0.9643961
vn -0.2644624 0 0.9643961
vn -0.9643962 0 -0.264462
vn -0.9643962 0 -0.264462
vn -0.9643962 0 -0.264462
vn -0.9643962 0 -0.264462
vn 0 1 0
vn 0 1 0
vn 0 1 0
vn 0 1 0
vn 0 1 0
vn 0 1 0
vn 0 1 0
vn 0 1 0

vt 0.5565462 0.6340833
vt 0.5529042 0.6340833
vt 0.5529042 0.6868733
vt 0.5565462 0.6868733
vt 0.5164853 0.7433051
vt 0.5529042 0.7433051
vt 0.5529042 0.6905152
vt 0.5164853 0.6905152
vt 0.5529042 0.6905152
vt 0.5529042 0.6868733
vt 0.5164853 0.6868733
vt 0.5164853 0.6905152
vt 0.5164853 0.6340833
vt 0.5164853 0.6868733
vt 0.5529042 0.6868733
vt 0.5529042 0.6340833
vt 0.5529042 0.6304414
vt 0.5164853 0.6304414
vt 0.5164853 0.6340833
vt 0.5529042 0.6340833
vt 0.6005297 0.6340833
vt 0.5968878 0.6340833
vt 0.5968879 0.6868733
vt 0.6005297 0.6868733
vt 0.560469 0.7433051
vt 0.5968878 0.7433051
vt 0.5968879 0.6905152
vt 0.560469 0.6905152
vt 0.5968879 0.6905152
vt 0.5968879 0.6868733
vt 0.560469 0.6868733
vt 0.560469 0.6905152
vt 0.560469 0.6340833
vt 0.560469 0.6868733
vt 0.5968879 0.6868733
vt 0.5968878 0.6340833
vt 0.5968878 0.6304414
vt 0.560469 0.6304414
vt 0.560469 0.6340833
vt 0.5968878 0.6340833
vt 0.5164853 0.6868733
vt 0.5164853 0.6340833
vt 0.5128434 0.6340833
vt 0.5128434 0.6868733
vt 0.560469 0.6868733
vt 0.560469 0.6340833
vt 0.5568271 0.6340833
vt 0.5568271 0.6868733

usemtl LOW-POLY-COLORS
usemap LOW-POLY-COLORS
f 2/2/2 1/1/1 3/3/3
f 3/3/3 1/1/1 4/4/4
f 6/6/6 5/5/5 7/7/7
f 7/7/7 5/5/5 8/8/8
f 10/10/10 9/9/9 11/11/11
f 11/11/11 9/9/9 12/12/12
f 14/14/14 13/13/13 15/15/15
f 15/15/15 13/13/13 16/16/16
f 18/18/18 17/17/17 19/19/19
f 19/19/19 17/17/17 20/20/20
f 22/22/22 21/21/21 23/23/23
f 23/23/23 21/21/21 24/24/24
f 26/26/26 25/25/25 27/27/27
f 27/27/27 25/25/25 28/28/28
f 30/30/30 29/29/29 31/31/31
f 31/31/31 29/29/29 32/32/32
f 34/34/34 33/33/33 35/35/35
f 35/35/35 33/33/33 36/36/36
f 38/38/38 37/37/37 39/39/39
f 39/39/39 37/37/37 40/40/40
f 42/42/42 41/41/41 43/43/43
f 43/43/43 41/41/41 44/44/44
f 46/46/46 45/45/45 47/47/47
f 47/47/47 45/45/45 48/48/48
