mtllib ./shrub_winter_76.mtl
g shrub_winter
v -0.06775422 -0.242424 0.2107898
v 0.3997425 -0.02833562 -0.3723879
v -0.167589 0.0167072 -0.5353451
v -0.06775422 -0.242424 0.2107898
v 0.4113164 -0.03733091 0.3627769
v 0.3997425 -0.02833562 -0.3723879
v 0.1832057 0.9695088 0.5443056
v 0.2589927 0.5646932 0.7209162
v -0.3902187 0.9945258 0.3963923
v -0.3575145 0.2892582 0.6465452
v 0.2589927 0.5646932 0.7209162
v 0.4113164 -0.03733091 0.3627769
v -0.5275869 -0.04286819 -0.04333459
v -0.6901183 0.4931079 0.2312472
v -0.3575145 0.2892582 0.6465452
v 0.2839661 0.6639062 -0.704896
v -0.08219878 1.240396 -0.1997067
v -0.4682413 0.6641877 -0.5640101
v -0.08219878 1.240396 -0.1997067
v 0.5510969 1.018744 0.05332554
v 0.1832057 0.9695088 0.5443056
v -0.4682413 0.6641877 -0.5640101
v -0.08219878 1.240396 -0.1997067
v -0.7225685 0.646351 -0.1563197
v -0.7225685 0.646351 -0.1563197
v -0.6901183 0.4931079 0.2312472
v -0.5275869 -0.04286819 -0.04333459
v 0.4113164 -0.03733091 0.3627769
v -0.06775422 -0.242424 0.2107898
v -0.3575145 0.2892582 0.6465452
v 0.1832057 0.9695088 0.5443056
v -0.3902187 0.9945258 0.3963923
v -0.08219878 1.240396 -0.1997067
v 0.2839661 0.6639062 -0.704896
v -0.4682413 0.6641877 -0.5640101
v -0.167589 0.0167072 -0.5353451
v -0.167589 0.0167072 -0.5353451
v -0.4682413 0.6641877 -0.5640101
v -0.5275869 -0.04286819 -0.04333459
v 0.3997425 -0.02833562 -0.3723879
v 0.7812455 0.4395658 0.004480096
v 0.2839661 0.6639062 -0.704896
v 0.2589927 0.5646932 0.7209162
v 0.7812455 0.4395658 0.004480096
v 0.4113164 -0.03733091 0.3627769
v -0.3575145 0.2892582 0.6465452
v -0.6901183 0.4931079 0.2312472
v -0.3902187 0.9945258 0.3963923
v -0.08219878 1.240396 -0.1997067
v -0.3902187 0.9945258 0.3963923
v -0.7225685 0.646351 -0.1563197
v -0.3575145 0.2892582 0.6465452
v -0.06775422 -0.242424 0.2107898
v -0.5275869 -0.04286819 -0.04333459
v 0.5510969 1.018744 0.05332554
v -0.08219878 1.240396 -0.1997067
v 0.2839661 0.6639062 -0.704896
v -0.167589 0.0167072 -0.5353451
v -0.5275869 -0.04286819 -0.04333459
v -0.06775422 -0.242424 0.2107898
v 0.7812455 0.4395658 0.004480096
v 0.3997425 -0.02833562 -0.3723879
v 0.4113164 -0.03733091 0.3627769
v -0.3902187 0.9945258 0.3963923
v -0.6901183 0.4931079 0.2312472
v -0.7225685 0.646351 -0.1563197
v 0.3997425 -0.02833562 -0.3723879
v 0.2839661 0.6639062 -0.704896
v -0.167589 0.0167072 -0.5353451
v 0.2839661 0.6639062 -0.704896
v 0.7812455 0.4395658 0.004480096
v 0.5510969 1.018744 0.05332554
v 0.5510969 1.018744 0.05332554
v 0.2589927 0.5646932 0.7209162
v 0.1832057 0.9695088 0.5443056
v 0.5510969 1.018744 0.05332554
v 0.7812455 0.4395658 0.004480096
v 0.2589927 0.5646932 0.7209162
v -0.3902187 0.9945258 0.3963923
v 0.2589927 0.5646932 0.7209162
v -0.3575145 0.2892582 0.6465452
v -0.4682413 0.6641877 -0.5640101
v -0.7225685 0.646351 -0.1563197
v -0.5275869 -0.04286819 -0.04333459

vn 0.01998198 -0.9436312 -0.3303948
vn 0.01998198 -0.9436312 -0.3303948
vn 0.01998198 -0.9436312 -0.3303948
vn 0.398182 -0.9171397 -0.01749058
vn 0.398182 -0.9171397 -0.01749058
vn 0.398182 -0.9171397 -0.01749058
vn -0.2188884 0.3554634 0.9086989
vn -0.2188884 0.3554634 0.9086989
vn -0.2188884 0.3554634 0.9086989
vn 0.1129588 -0.4867266 0.8662203
vn 0.1129588 -0.4867266 0.8662203
vn 0.1129588 -0.4867266 0.8662203
vn -0.7914255 -0.45124 0.4123447
vn -0.7914255 -0.45124 0.4123447
vn -0.7914255 -0.45124 0.4123447
vn -0.1474404 0.5972378 -0.7883959
vn -0.1474404 0.5972378 -0.7883959
vn -0.1474404 0.5972378 -0.7883959
vn 0.2239149 0.9387555 0.2619165
vn 0.2239149 0.9387555 0.2619165
vn 0.2239149 0.9387555 0.2619165
vn -0.6445031 0.6675305 -0.3728521
vn -0.6445031 0.6675305 -0.3728521
vn -0.6445031 0.6675305 -0.3728521
vn -0.960583 -0.2764878 -0.0288948
vn -0.960583 -0.2764878 -0.0288948
vn -0.960583 -0.2764878 -0.0288948
vn 0.02122784 -0.6267961 0.7788941
vn 0.02122784 -0.6267961 0.7788941
vn 0.02122784 -0.6267961 0.7788941
vn -0.05163737 0.9323402 0.357876
vn -0.05163737 0.9323402 0.357876
vn -0.05163737 0.9323402 0.357876
vn -0.1826284 -0.1279588 -0.9748197
vn -0.1826284 -0.1279588 -0.9748197
vn -0.1826284 -0.1279588 -0.9748197
vn -0.7299215 -0.3645315 -0.5782139
vn -0.7299215 -0.3645315 -0.5782139
vn -0.7299215 -0.3645315 -0.5782139
vn 0.784721 -0.1568074 -0.599687
vn 0.784721 -0.1568074 -0.599687
vn 0.784721 -0.1568074 -0.599687
vn 0.7845656 -0.1581499 0.5995377
vn 0.7845656 -0.1581499 0.5995377
vn 0.7845656 -0.1581499 0.5995377
vn -0.7123852 0.2050252 0.6711721
vn -0.7123852 0.2050252 0.6711721
vn -0.7123852 0.2050252 0.6711721
vn -0.6810616 0.7304738 -0.05062669
vn -0.6810616 0.7304738 -0.05062669
vn -0.6810616 0.7304738 -0.05062669
vn -0.5565017 -0.6866586 0.467767
vn -0.5565017 -0.6866586 0.467767
vn -0.5565017 -0.6866586 0.467767
vn 0.4577295 0.732421 -0.5040269
vn 0.4577295 0.732421 -0.5040269
vn 0.4577295 0.732421 -0.5040269
vn -0.2420644 -0.9261398 -0.2892576
vn -0.2420644 -0.9261398 -0.2892576
vn -0.2420644 -0.9261398 -0.2892576
vn 0.7826816 -0.6221031 -0.01993389
vn 0.7826816 -0.6221031 -0.01993389
vn 0.7826816 -0.6221031 -0.01993389
vn -0.8654577 0.436874 0.2452021
vn -0.8654577 0.436874 0.2452021
vn -0.8654577 0.436874 0.2452021
vn 0.2252882 -0.3909739 -0.8924039
vn 0.2252882 -0.3909739 -0.8924039
vn 0.2252882 -0.3909739 -0.8924039
vn 0.81332 0.3616285 -0.4557801
vn 0.81332 0.3616285 -0.4557801
vn 0.81332 0.3616285 -0.4557801
vn 0.7190335 0.3865772 0.5775369
vn 0.7190335 0.3865772 0.5775369
vn 0.7190335 0.3865772 0.5775369
vn 0.7995285 0.2725715 0.5352186
vn 0.7995285 0.2725715 0.5352186
vn 0.7995285 0.2725715 0.5352186
vn -0.2504726 0.3132935 0.9160298
vn -0.2504726 0.3132935 0.9160298
vn -0.2504726 0.3132935 0.9160298
vn -0.8003519 -0.3104959 -0.5128635
vn -0.8003519 -0.3104959 -0.5128635
vn -0.8003519 -0.3104959 -0.5128635

vt 0.7844312 0.3044831
vt 0.7735263 0.3142777
vt 0.783412 0.3194579
vt 0.8011762 0.3046165
vt 0.8072692 0.310174
vt 0.8171773 0.3044831
vt 0.8070081 0.3175277
vt 0.8064247 0.3150606
vt 0.8038085 0.319297
vt 0.8023084 0.3144322
vt 0.8064247 0.3150606
vt 0.8072692 0.310174
vt 0.7920746 0.3118208
vt 0.7995887 0.3176247
vt 0.8023084 0.3144322
vt 0.8178025 0.3170741
vt 0.810137 0.3293101
vt 0.8272407 0.3257346
vt 0.810137 0.3293101
vt 0.8106445 0.3175736
vt 0.8070081 0.3175277
vt 0.7935301 0.328349
vt 0.810137 0.3293101
vt 0.7978871 0.3213426
vt 0.7978871 0.3213426
vt 0.7995887 0.3176247
vt 0.7920746 0.3118208
vt 0.8072692 0.310174
vt 0.8011762 0.3046165
vt 0.8023084 0.3144322
vt 0.8070081 0.3175277
vt 0.8038085 0.319297
vt 0.810137 0.3293101
vt 0.8178025 0.3170741
vt 0.8272407 0.3257346
vt 0.8290694 0.3100095
vt 0.783412 0.3194579
vt 0.7935301 0.328349
vt 0.7920746 0.3118208
vt 0.8171773 0.3044831
vt 0.8113819 0.3134343
vt 0.8178025 0.3170741
vt 0.8064247 0.3150606
vt 0.8113819 0.3134343
vt 0.8072692 0.310174
vt 0.8023084 0.3144322
vt 0.7995887 0.3176247
vt 0.8038085 0.319297
vt 0.810137 0.3293101
vt 0.8038085 0.319297
vt 0.7978871 0.3213426
vt 0.8023084 0.3144322
vt 0.8011762 0.3046165
vt 0.7920746 0.3118208
vt 0.8106445 0.3175736
vt 0.810137 0.3293101
vt 0.8178025 0.3170741
vt 0.783412 0.3194579
vt 0.7920746 0.3118208
vt 0.7844312 0.3044831
vt 0.8113819 0.3134343
vt 0.8171773 0.3044831
vt 0.8072692 0.310174
vt 0.8038085 0.319297
vt 0.7995887 0.3176247
vt 0.7978871 0.3213426
vt 0.8171773 0.3044831
vt 0.8178025 0.3170741
vt 0.8290694 0.3100095
vt 0.8178025 0.3170741
vt 0.8113819 0.3134343
vt 0.8106445 0.3175736
vt 0.8106445 0.3175736
vt 0.8064247 0.3150606
vt 0.8070081 0.3175277
vt 0.8106445 0.3175736
vt 0.8113819 0.3134343
vt 0.8064247 0.3150606
vt 0.8038085 0.319297
vt 0.8064247 0.3150606
vt 0.8023084 0.3144322
vt 0.7935301 0.328349
vt 0.7978871 0.3213426
vt 0.7920746 0.3118208

usemtl LOW-POLY-COLORS
usemap LOW-POLY-COLORS
f 2/2/2 1/1/1 3/3/3
f 5/5/5 4/4/4 6/6/6
f 8/8/8 7/7/7 9/9/9
f 11/11/11 10/10/10 12/12/12
f 14/14/14 13/13/13 15/15/15
f 17/17/17 16/16/16 18/18/18
f 20/20/20 19/19/19 21/21/21
f 23/23/23 22/22/22 24/24/24
f 26/26/26 25/25/25 27/27/27
f 29/29/29 28/28/28 30/30/30
f 32/32/32 31/31/31 33/33/33
f 35/35/35 34/34/34 36/36/36
f 38/38/38 37/37/37 39/39/39
f 41/41/41 40/40/40 42/42/42
f 44/44/44 43/43/43 45/45/45
f 47/47/47 46/46/46 48/48/48
f 50/50/50 49/49/49 51/51/51
f 53/53/53 52/52/52 54/54/54
f 56/56/56 55/55/55 57/57/57
f 59/59/59 58/58/58 60/60/60
f 62/62/62 61/61/61 63/63/63
f 65/65/65 64/64/64 66/66/66
f 68/68/68 67/67/67 69/69/69
f 71/71/71 70/70/70 72/72/72
f 74/74/74 73/73/73 75/75/75
f 77/77/77 76/76/76 78/78/78
f 80/80/80 79/79/79 81/81/81
f 83/83/83 82/82/82 84/84/84
