mtllib ./shrub-round_tropic_84.mtl
g shrub-round_tropic
v -0.6795675 0.8989998 0.01440505
v -0.737859 0.4364751 -0.2240312
v -0.4771062 0.9514782 -0.4368963
v -0.2656811 -0.2192454 0.1489373
v -0.265691 -0.1973049 -0.1947215
v -0.6795633 0.1149148 0.010417
v 0.2008103 1.211381 0.2831507
v 0.2639896 1.23315 -0.1241416
v 0.6778747 0.8989998 0.01440481
v -0.2656849 1.233514 -0.05397631
v -0.0008464665 1.185152 -0.3803947
v 0.2639896 1.23315 -0.1241416
v 0.06838242 -0.2185507 0.2771002
v 0.2640043 0.3078029 0.7209468
v 0.4449748 0.0318462 0.4613445
v 0.2008103 1.211381 0.2831507
v 0.4449954 0.9553878 0.4952531
v -0.0008462779 0.9010826 0.6985154
v 0.7245152 0.5082781 0.2806455
v 0.6778677 0.1155488 0.1505078
v 0.4449748 0.0318462 0.4613445
v -0.7262081 0.5082781 0.2806457
v -0.6795675 0.8989998 0.01440505
v -0.4466881 0.9553878 0.4952532
v -0.4466872 0.05838357 -0.4707957
v -0.265691 -0.1973049 -0.1947215
v -0.000846518 0.1125975 -0.6742914
v -0.0008464665 1.185152 -0.3803947
v -0.2656952 0.7060502 -0.6962818
v 0.1376188 0.7692283 -0.719646
v -0.4466872 0.05838357 -0.4707957
v -0.2656996 0.365492 -0.720649
v -0.737859 0.4364751 -0.2240312
v 0.6778747 0.8989998 0.01440481
v 0.7245152 0.5082781 0.2806455
v 0.4449954 0.9553878 0.4952531
v 0.2640043 0.3078029 0.7209468
v 0.2640132 0.6482504 0.7450317
v 0.7245152 0.5082781 0.2806455
v 0.06838242 -0.2185507 0.2771002
v -0.4771086 0.06234194 0.4614771
v -0.1393123 0.2445809 0.7441995
v -0.0008464665 1.185152 -0.3803947
v -0.4771062 0.9514782 -0.4368963
v -0.2656952 0.7060502 -0.6962818
v 0.2640061 0.4348135 -0.7204353
v 0.7245051 0.6443847 -0.2551279
v 0.4754132 0.9514782 -0.4368965
v -0.4466881 0.9553878 0.4952532
v -0.1393115 1.234703 0.2831608
v -0.0008462779 0.9010826 0.6985154
v -0.2657043 0.5789891 0.7449715
v -0.7262081 0.5082781 0.2806457
v -0.4466881 0.9553878 0.4952532
v 0.4449954 0.9553878 0.4952531
v 0.2008103 1.211381 0.2831507
v 0.6778747 0.8989998 0.01440481
v 0.2008103 1.211381 0.2831507
v -0.2656849 1.233514 -0.05397631
v 0.2639896 1.23315 -0.1241416
v -0.2657043 0.5789891 0.7449715
v -0.4771086 0.06234194 0.4614771
v -0.7262081 0.5082781 0.2806457
v 0.2640132 0.6482504 0.7450317
v -0.0008462779 0.9010826 0.6985154
v 0.4449954 0.9553878 0.4952531
v 0.3903696 -0.1731724 0.009024694
v 0.7011967 0.240633 -0.1929736
v 0.4754342 0.05846591 -0.4401421
v -0.737859 0.4364751 -0.2240312
v -0.6795633 0.1149148 0.010417
v -0.4466872 0.05838357 -0.4707957
v -0.4771086 0.06234194 0.4614771
v -0.2656811 -0.2192454 0.1489373
v -0.6795633 0.1149148 0.010417
v 0.4449748 0.0318462 0.4613445
v 0.2640043 0.3078029 0.7209468
v 0.7245152 0.5082781 0.2806455
v 0.2640061 0.4348135 -0.7204353
v -0.000846518 0.1125975 -0.6742914
v 0.4754342 0.05846591 -0.4401421
v 0.3903696 -0.1731724 0.009024694
v 0.6778677 0.1155488 0.1505078
v 0.7011967 0.240633 -0.1929736
v -0.0008464665 1.185152 -0.3803947
v 0.4754132 0.9514782 -0.4368965
v 0.2639896 1.23315 -0.1241416
v 0.2640061 0.4348135 -0.7204353
v 0.7011967 0.240633 -0.1929736
v 0.7245051 0.6443847 -0.2551279
v -0.1393115 1.234703 0.2831608
v 0.2008103 1.211381 0.2831507
v -0.0008462779 0.9010826 0.6985154
v -0.265691 -0.1973049 -0.1947215
v 0.1376179 -0.2208869 -0.2585899
v -0.000846518 0.1125975 -0.6742914
v 0.2640061 0.4348135 -0.7204353
v 0.4754342 0.05846591 -0.4401421
v 0.7011967 0.240633 -0.1929736
v -0.265691 -0.1973049 -0.1947215
v -0.4466872 0.05838357 -0.4707957
v -0.6795633 0.1149148 0.010417
v 0.06838242 -0.2185507 0.2771002
v -0.1393123 0.2445809 0.7441995
v 0.2640043 0.3078029 0.7209468
v 0.1376188 0.7692283 -0.719646
v 0.2640061 0.4348135 -0.7204353
v 0.4754132 0.9514782 -0.4368965
v -0.4466881 0.9553878 0.4952532
v -0.2656849 1.233514 -0.05397631
v -0.1393115 1.234703 0.2831608
v 0.7245051 0.6443847 -0.2551279
v 0.6778747 0.8989998 0.01440481
v 0.4754132 0.9514782 -0.4368965
v -0.4771086 0.06234194 0.4614771
v 0.06838242 -0.2185507 0.2771002
v -0.2656811 -0.2192454 0.1489373
v -0.2656952 0.7060502 -0.6962818
v -0.4771062 0.9514782 -0.4368963
v -0.737859 0.4364751 -0.2240312
v -0.2656996 0.365492 -0.720649
v -0.000846518 0.1125975 -0.6742914
v 0.2640061 0.4348135 -0.7204353
v -0.7262081 0.5082781 0.2806457
v -0.6795633 0.1149148 0.010417
v -0.737859 0.4364751 -0.2240312
v 0.1376179 -0.2208869 -0.2585899
v 0.4754342 0.05846591 -0.4401421
v -0.000846518 0.1125975 -0.6742914
v 0.4754342 0.05846591 -0.4401421
v 0.1376179 -0.2208869 -0.2585899
v 0.3903696 -0.1731724 0.009024694
v -0.2656849 1.233514 -0.05397631
v -0.6795675 0.8989998 0.01440505
v -0.4771062 0.9514782 -0.4368963
v 0.2640043 0.3078029 0.7209468
v -0.2657043 0.5789891 0.7449715
v 0.2640132 0.6482504 0.7450317
v -0.6795675 0.8989998 0.01440505
v -0.7262081 0.5082781 0.2806457
v -0.737859 0.4364751 -0.2240312
v -0.4771086 0.06234194 0.4614771
v -0.2657043 0.5789891 0.7449715
v -0.1393123 0.2445809 0.7441995
v -0.2656996 0.365492 -0.720649
v -0.2656952 0.7060502 -0.6962818
v -0.737859 0.4364751 -0.2240312
v -0.0008464665 1.185152 -0.3803947
v 0.1376188 0.7692283 -0.719646
v 0.4754132 0.9514782 -0.4368965
v -0.2656849 1.233514 -0.05397631
v -0.4466881 0.9553878 0.4952532
v -0.6795675 0.8989998 0.01440505
v -0.1393123 0.2445809 0.7441995
v -0.2657043 0.5789891 0.7449715
v 0.2640043 0.3078029 0.7209468
v 0.2639896 1.23315 -0.1241416
v 0.4754132 0.9514782 -0.4368965
v 0.6778747 0.8989998 0.01440481
v -0.265691 -0.1973049 -0.1947215
v 0.06838242 -0.2185507 0.2771002
v 0.1376179 -0.2208869 -0.2585899
v -0.2656952 0.7060502 -0.6962818
v 0.2640061 0.4348135 -0.7204353
v 0.1376188 0.7692283 -0.719646
v 0.2640132 0.6482504 0.7450317
v 0.4449954 0.9553878 0.4952531
v 0.7245152 0.5082781 0.2806455
v -0.2656849 1.233514 -0.05397631
v -0.4771062 0.9514782 -0.4368963
v -0.0008464665 1.185152 -0.3803947
v -0.2657043 0.5789891 0.7449715
v -0.0008462779 0.9010826 0.6985154
v 0.2640132 0.6482504 0.7450317
v -0.6795633 0.1149148 0.010417
v -0.7262081 0.5082781 0.2806457
v -0.4771086 0.06234194 0.4614771
v 0.6778677 0.1155488 0.1505078
v 0.7245152 0.5082781 0.2806455
v 0.7011967 0.240633 -0.1929736
v 0.7011967 0.240633 -0.1929736
v 0.7245152 0.5082781 0.2806455
v 0.7245051 0.6443847 -0.2551279
v -0.2656811 -0.2192454 0.1489373
v 0.06838242 -0.2185507 0.2771002
v -0.265691 -0.1973049 -0.1947215
v 0.06838242 -0.2185507 0.2771002
v 0.4449748 0.0318462 0.4613445
v 0.3903696 -0.1731724 0.009024694
v -0.2657043 0.5789891 0.7449715
v -0.4466881 0.9553878 0.4952532
v -0.0008462779 0.9010826 0.6985154
v 0.7245152 0.5082781 0.2806455
v 0.6778747 0.8989998 0.01440481
v 0.7245051 0.6443847 -0.2551279
v -0.2656996 0.365492 -0.720649
v 0.2640061 0.4348135 -0.7204353
v -0.2656952 0.7060502 -0.6962818
v -0.4466872 0.05838357 -0.4707957
v -0.000846518 0.1125975 -0.6742914
v -0.2656996 0.365492 -0.720649
v 0.3903696 -0.1731724 0.009024694
v 0.4449748 0.0318462 0.4613445
v 0.6778677 0.1155488 0.1505078
v 0.06838242 -0.2185507 0.2771002
v 0.3903696 -0.1731724 0.009024694
v 0.1376179 -0.2208869 -0.2585899
v -0.1393115 1.234703 0.2831608
v -0.2656849 1.233514 -0.05397631
v 0.2008103 1.211381 0.2831507

vn -0.8834512 0.2978015 -0.361702
vn -0.8834512 0.2978015 -0.361702
vn -0.8834512 0.2978015 -0.361702
vn -0.6171936 -0.7852138 -0.05011336
vn -0.6171936 -0.7852138 -0.05011336
vn -0.6171936 -0.7852138 -0.05011336
vn 0.594786 0.7925316 0.1346223
vn 0.594786 0.7925316 0.1346223
vn 0.594786 0.7925316 0.1346223
vn -0.02093054 0.9863839 -0.1631218
vn -0.02093054 0.9863839 -0.1631218
vn -0.02093054 0.9863839 -0.1631218
vn 0.07110222 -0.658327 0.7493663
vn 0.07110222 -0.658327 0.7493663
vn 0.07110222 -0.658327 0.7493663
vn 0.2060492 0.7333448 0.6478805
vn 0.2060492 0.7333448 0.6478805
vn 0.2060492 0.7333448 0.6478805
vn 0.8039504 -0.2709182 0.5294025
vn 0.8039504 -0.2709182 0.5294025
vn 0.8039504 -0.2709182 0.5294025
vn -0.8566009 0.3564578 0.3730587
vn -0.8566009 0.3564578 0.3730587
vn -0.8566009 0.3564578 0.3730587
vn -0.1802649 -0.7777652 -0.602151
vn -0.1802649 -0.7777652 -0.602151
vn -0.1802649 -0.7777652 -0.602151
vn -0.1393567 0.597626 -0.7895713
vn -0.1393567 0.597626 -0.7895713
vn -0.1393567 0.597626 -0.7895713
vn -0.7279978 -0.1201087 -0.6749764
vn -0.7279978 -0.1201087 -0.6749764
vn -0.7279978 -0.1201087 -0.6749764
vn 0.8566009 0.3564576 0.3730587
vn 0.8566009 0.3564576 0.3730587
vn 0.8566009 0.3564576 0.3730587
vn 0.7015486 -0.05030661 0.7108437
vn 0.7015486 -0.05030661 0.7108437
vn 0.7015486 -0.05030661 0.7108437
vn -0.1555715 -0.7351886 0.6597691
vn -0.1555715 -0.7351886 0.6597691
vn -0.1555715 -0.7351886 0.6597691
vn -0.2129341 0.6171466 -0.7574887
vn -0.2129341 0.6171466 -0.7574887
vn -0.2129341 0.6171466 -0.7574887
vn 0.6778889 0.1206061 -0.7252039
vn 0.6778889 0.1206061 -0.7252039
vn 0.6778889 0.1206061 -0.7252039
vn -0.2095274 0.7270515 0.6538306
vn -0.2095274 0.7270515 0.6538306
vn -0.2095274 0.7270515 0.6538306
vn -0.7140141 0.1148804 0.690642
vn -0.7140141 0.1148804 0.690642
vn -0.7140141 0.1148804 0.690642
vn 0.6153634 0.7600596 0.2088957
vn 0.6153634 0.7600596 0.2088957
vn 0.6153634 0.7600596 0.2088957
vn 0.007917511 0.9984772 0.0545948
vn 0.007917511 0.9984772 0.0545948
vn 0.007917511 0.9984772 0.0545948
vn -0.6983761 -0.1028913 0.7082967
vn -0.6983761 -0.1028913 0.7082967
vn -0.6983761 -0.1028913 0.7082967
vn 0.314734 0.4803264 0.8186752
vn 0.314734 0.4803264 0.8186752
vn 0.314734 0.4803264 0.8186752
vn 0.7362205 -0.6480988 -0.194801
vn 0.7362205 -0.6480988 -0.194801
vn 0.7362205 -0.6480988 -0.194801
vn -0.8381064 -0.4123366 -0.35715
vn -0.8381064 -0.4123366 -0.35715
vn -0.8381064 -0.4123366 -0.35715
vn -0.6557575 -0.7252344 0.2098025
vn -0.6557575 -0.7252344 0.2098025
vn -0.6557575 -0.7252344 0.2098025
vn 0.7181757 -0.1649824 0.6760211
vn 0.7181757 -0.1649824 0.6760211
vn 0.7181757 -0.1649824 0.6760211
vn 0.3623344 -0.4171877 -0.8334676
vn 0.3623344 -0.4171877 -0.8334676
vn 0.3623344 -0.4171877 -0.8334676
vn 0.7402236 -0.6463763 -0.1851126
vn 0.7402236 -0.6463763 -0.1851126
vn 0.7402236 -0.6463763 -0.1851126
vn 0.3344309 0.8014882 -0.4957545
vn 0.3344309 0.8014882 -0.4957545
vn 0.3344309 0.8014882 -0.4957545
vn 0.7350705 -0.1444113 -0.6624324
vn 0.7350705 -0.1444113 -0.6624324
vn 0.7350705 -0.1444113 -0.6624324
vn 0.05399749 0.7872178 0.6143065
vn 0.05399749 0.7872178 0.6143065
vn 0.05399749 0.7872178 0.6143065
vn -0.1400185 -0.7945817 -0.5907915
vn -0.1400185 -0.7945817 -0.5907915
vn -0.1400185 -0.7945817 -0.5907915
vn 0.7580258 -0.05798417 -0.6496419
vn 0.7580258 -0.05798417 -0.6496419
vn 0.7580258 -0.05798417 -0.6496419
vn -0.6567109 -0.7170613 -0.2335678
vn -0.6567109 -0.7170613 -0.2335678
vn -0.6567109 -0.7170613 -0.2335678
vn 0.1468751 -0.6689901 0.7286152
vn 0.1468751 -0.6689901 0.7286152
vn 0.1468751 -0.6689901 0.7286152
vn 0.5572454 0.2124977 -0.802697
vn 0.5572454 0.2124977 -0.802697
vn 0.5572454 0.2124977 -0.802697
vn -0.5730569 0.7916163 0.2120129
vn -0.5730569 0.7916163 0.2120129
vn -0.5730569 0.7916163 0.2120129
vn 0.8197634 0.4803141 -0.3119079
vn 0.8197634 0.4803141 -0.3119079
vn 0.8197634 0.4803141 -0.3119079
vn -0.2164857 -0.7936291 0.5685833
vn -0.2164857 -0.7936291 0.5685833
vn -0.2164857 -0.7936291 0.5685833
vn -0.7292718 0.08882409 -0.6784342
vn -0.7292718 0.08882409 -0.6784342
vn -0.7292718 0.08882409 -0.6784342
vn 0.02117535 -0.1587645 -0.9870893
vn 0.02117535 -0.1587645 -0.9870893
vn 0.02117535 -0.1587645 -0.9870893
vn -0.9881333 -0.1472337 0.04375949
vn -0.9881333 -0.1472337 0.04375949
vn -0.9881333 -0.1472337 0.04375949
vn 0.240517 -0.7164517 -0.6548653
vn 0.240517 -0.7164517 -0.6548653
vn 0.240517 -0.7164517 -0.6548653
vn 0.4941148 -0.8072733 -0.3227392
vn 0.4941148 -0.8072733 -0.3227392
vn 0.4941148 -0.8072733 -0.3227392
vn -0.6357138 0.7459804 -0.1984474
vn -0.6357138 0.7459804 -0.1984474
vn -0.6357138 0.7459804 -0.1984474
vn 0.009113434 -0.07056578 0.9974655
vn 0.009113434 -0.07056578 0.9974655
vn 0.009113434 -0.07056578 0.9974655
vn -0.9924856 0.1222357 0.005521272
vn -0.9924856 0.1222357 0.005521272
vn -0.9924856 0.1222357 0.005521272
vn -0.557225 -0.2124604 0.802721
vn -0.557225 -0.2124604 0.802721
vn -0.557225 -0.2124604 0.802721
vn -0.7202953 0.04951491 -0.6918982
vn -0.7202953 0.04951491 -0.6918982
vn -0.7202953 0.04951491 -0.6918982
vn 0.239533 0.6603053 -0.711773
vn 0.239533 0.6603053 -0.711773
vn 0.239533 0.6603053 -0.711773
vn -0.59626 0.7781112 0.197527
vn -0.59626 0.7781112 0.197527
vn -0.59626 0.7781112 0.197527
vn 0.05467939 0.01836189 0.9983352
vn 0.05467939 0.01836189 0.9983352
vn 0.05467939 0.01836189 0.9983352
vn 0.655755 0.7252223 -0.2098523
vn 0.655755 0.7252223 -0.2098523
vn 0.655755 0.7252223 -0.2098523
vn -0.0588852 -0.9982595 -0.003257214
vn -0.0588852 -0.9982595 -0.003257214
vn -0.0588852 -0.9982595 -0.003257214
vn -0.05494914 -0.01841147 -0.9983193
vn -0.05494914 -0.01841147 -0.9983193
vn -0.05494914 -0.01841147 -0.9983193
vn 0.723147 0.1261403 0.6790782
vn 0.723147 0.1261403 0.6790782
vn 0.723147 0.1261403 0.6790782
vn -0.3602975 0.8349295 -0.416027
vn -0.3602975 0.8349295 -0.416027
vn -0.3602975 0.8349295 -0.416027
vn -0.02098029 0.159603 0.9869583
vn -0.02098029 0.159603 0.9869583
vn -0.02098029 0.159603 0.9869583
vn -0.870895 -0.3442398 0.3507719
vn -0.870895 -0.3442398 0.3507719
vn -0.870895 -0.3442398 0.3507719
vn 0.99191 -0.1250511 0.02183085
vn 0.99191 -0.1250511 0.02183085
vn 0.99191 -0.1250511 0.02183085
vn 0.9980838 -0.05996682 -0.01525256
vn 0.9980838 -0.05996682 -0.01525256
vn 0.9980838 -0.05996682 -0.01525256
vn 0.02651025 -0.9976173 -0.06369257
vn 0.02651025 -0.9976173 -0.06369257
vn 0.02651025 -0.9976173 -0.06369257
vn 0.4010653 -0.8515824 0.3375708
vn 0.4010653 -0.8515824 0.3375708
vn 0.4010653 -0.8515824 0.3375708
vn -0.3389955 0.4014723 0.8508243
vn -0.3389955 0.4014723 0.8508243
vn -0.3389955 0.4014723 0.8508243
vn 0.989092 0.142769 0.03624995
vn 0.989092 0.142769 0.03624995
vn 0.989092 0.142769 0.03624995
vn -0.008937125 0.07136592 -0.9974101
vn -0.008937125 0.07136592 -0.9974101
vn -0.008937125 0.07136592 -0.9974101
vn -0.3152296 -0.4801855 -0.8185672
vn -0.3152296 -0.4801855 -0.8185672
vn -0.3152296 -0.4801855 -0.8185672
vn 0.6165855 -0.7423922 0.2620613
vn 0.6165855 -0.7423922 0.2620613
vn 0.6165855 -0.7423922 0.2620613
vn 0.15986 -0.986824 0.02496473
vn 0.15986 -0.986824 0.02496473
vn 0.15986 -0.986824 0.02496473
vn 0.06838042 0.9972333 -0.02915012
vn 0.06838042 0.9972333 -0.02915012
vn 0.06838042 0.9972333 -0.02915012

vt 0.4573513 0.4497353
vt 0.4656558 0.4493757
vt 0.459037 0.4435743
vt 0.4044637 0.438536
vt 0.4028699 0.4318682
vt 0.3924776 0.4383408
vt 0.4458747 0.4464671
vt 0.4489871 0.4423441
vt 0.4430634 0.4394116
vt 0.4528271 0.4458569
vt 0.4533619 0.4415773
vt 0.4489871 0.4423441
vt 0.4113889 0.4396773
vt 0.4185953 0.4541889
vt 0.4218444 0.4441995
vt 0.4458747 0.4464671
vt 0.4400641 0.447286
vt 0.4424093 0.4537168
vt 0.4349518 0.4397388
vt 0.4277537 0.4334202
vt 0.4218444 0.4441995
vt 0.4589689 0.4564123
vt 0.4573513 0.4497353
vt 0.4503161 0.4533525
vt 0.3958874 0.4259891
vt 0.4028699 0.4318682
vt 0.4049168 0.4181207
vt 0.4533619 0.4415773
vt 0.4626688 0.4377331
vt 0.4569246 0.4350432
vt 0.4779013 0.4402222
vt 0.4701043 0.4333216
vt 0.4656558 0.4493757
vt 0.4430634 0.4394116
vt 0.4349518 0.4397388
vt 0.4400641 0.447286
vt 0.4282979 0.4569038
vt 0.4334002 0.4548748
vt 0.4349518 0.4397388
vt 0.4113889 0.4396773
vt 0.399719 0.4477344
vt 0.4086545 0.4548645
vt 0.4533619 0.4415773
vt 0.459037 0.4435743
vt 0.4626688 0.4377331
vt 0.4582069 0.4294091
vt 0.44427 0.4335529
vt 0.4498171 0.4369273
vt 0.4503161 0.4533525
vt 0.4488406 0.4482761
vt 0.4424093 0.4537168
vt 0.4453322 0.4603609
vt 0.4589689 0.4564123
vt 0.4503161 0.4533525
vt 0.4400641 0.447286
vt 0.4458747 0.4464671
vt 0.4430634 0.4394116
vt 0.4458747 0.4464671
vt 0.4528271 0.4458569
vt 0.4489871 0.4423441
vt 0.4453322 0.4603609
vt 0.4584302 0.4690407
vt 0.4589689 0.4564123
vt 0.4334002 0.4548748
vt 0.4424093 0.4537168
vt 0.4400641 0.447286
vt 0.4170721 0.4327191
vt 0.4267924 0.4237253
vt 0.4174139 0.4207964
vt 0.4656558 0.4493757
vt 0.4705684 0.4582389
vt 0.4779013 0.4402222
vt 0.399719 0.4477344
vt 0.4044637 0.438536
vt 0.3924776 0.4383408
vt 0.4218444 0.4441995
vt 0.4282979 0.4569038
vt 0.4349518 0.4397388
vt 0.4582069 0.4294091
vt 0.4693111 0.4247326
vt 0.4516885 0.4181207
vt 0.4170721 0.4327191
vt 0.4277537 0.4334202
vt 0.4267924 0.4237253
vt 0.4533619 0.4415773
vt 0.4498171 0.4369273
vt 0.4489871 0.4423441
vt 0.4582069 0.4294091
vt 0.4394761 0.4259922
vt 0.44427 0.4335529
vt 0.4488406 0.4482761
vt 0.4458747 0.4464671
vt 0.4424093 0.4537168
vt 0.4028699 0.4318682
vt 0.410502 0.4288605
vt 0.4049168 0.4181207
vt 0.4582069 0.4294091
vt 0.4516885 0.4181207
vt 0.4394761 0.4259922
vt 0.4028699 0.4318682
vt 0.3958874 0.4259891
vt 0.3924776 0.4383408
vt 0.4113889 0.4396773
vt 0.4086545 0.4548645
vt 0.4185953 0.4541889
vt 0.4569246 0.4350432
vt 0.4582069 0.4294091
vt 0.4498171 0.4369273
vt 0.4503161 0.4533525
vt 0.4528271 0.4458569
vt 0.4488406 0.4482761
vt 0.44427 0.4335529
vt 0.4430634 0.4394116
vt 0.4498171 0.4369273
vt 0.399719 0.4477344
vt 0.4113889 0.4396773
vt 0.4044637 0.438536
vt 0.4626688 0.4377331
vt 0.459037 0.4435743
vt 0.4656558 0.4493757
vt 0.4701043 0.4333216
vt 0.4693111 0.4247326
vt 0.4582069 0.4294091
vt 0.4589689 0.4564123
vt 0.4705684 0.4582389
vt 0.4656558 0.4493757
vt 0.410502 0.4288605
vt 0.4174139 0.4207964
vt 0.4049168 0.4181207
vt 0.4174139 0.4207964
vt 0.410502 0.4288605
vt 0.4170721 0.4327191
vt 0.4528271 0.4458569
vt 0.4573513 0.4497353
vt 0.459037 0.4435743
vt 0.4282979 0.4569038
vt 0.4453322 0.4603609
vt 0.4334002 0.4548748
vt 0.4573513 0.4497353
vt 0.4589689 0.4564123
vt 0.4656558 0.4493757
vt 0.4584302 0.4690407
vt 0.4453322 0.4603609
vt 0.4414173 0.4674787
vt 0.4701043 0.4333216
vt 0.4626688 0.4377331
vt 0.4656558 0.4493757
vt 0.4533619 0.4415773
vt 0.4569246 0.4350432
vt 0.4498171 0.4369273
vt 0.4528271 0.4458569
vt 0.4503161 0.4533525
vt 0.4573513 0.4497353
vt 0.4414173 0.4674787
vt 0.4453322 0.4603609
vt 0.4282979 0.4569038
vt 0.4489871 0.4423441
vt 0.4498171 0.4369273
vt 0.4430634 0.4394116
vt 0.4028699 0.4318682
vt 0.4113889 0.4396773
vt 0.410502 0.4288605
vt 0.4626688 0.4377331
vt 0.4582069 0.4294091
vt 0.4569246 0.4350432
vt 0.4334002 0.4548748
vt 0.4400641 0.447286
vt 0.4349518 0.4397388
vt 0.4528271 0.4458569
vt 0.459037 0.4435743
vt 0.4533619 0.4415773
vt 0.4453322 0.4603609
vt 0.4424093 0.4537168
vt 0.4334002 0.4548748
vt 0.4705684 0.4582389
vt 0.4589689 0.4564123
vt 0.4584302 0.4690407
vt 0.4277537 0.4334202
vt 0.4349518 0.4397388
vt 0.4394761 0.4259922
vt 0.4394761 0.4259922
vt 0.4349518 0.4397388
vt 0.44427 0.4335529
vt 0.4044637 0.438536
vt 0.4113889 0.4396773
vt 0.4028699 0.4318682
vt 0.4113889 0.4396773
vt 0.4218444 0.4441995
vt 0.4170721 0.4327191
vt 0.4453322 0.4603609
vt 0.4503161 0.4533525
vt 0.4424093 0.4537168
vt 0.4349518 0.4397388
vt 0.4430634 0.4394116
vt 0.44427 0.4335529
vt 0.4701043 0.4333216
vt 0.4582069 0.4294091
vt 0.4626688 0.4377331
vt 0.4779013 0.4402222
vt 0.4693111 0.4247326
vt 0.4701043 0.4333216
vt 0.4170721 0.4327191
vt 0.4218444 0.4441995
vt 0.4277537 0.4334202
vt 0.4113889 0.4396773
vt 0.4170721 0.4327191
vt 0.410502 0.4288605
vt 0.4488406 0.4482761
vt 0.4528271 0.4458569
vt 0.4458747 0.4464671

usemtl LOW-POLY-COLORS
usemap LOW-POLY-COLORS
f 2/2/2 1/1/1 3/3/3
f 5/5/5 4/4/4 6/6/6
f 8/8/8 7/7/7 9/9/9
f 11/11/11 10/10/10 12/12/12
f 14/14/14 13/13/13 15/15/15
f 17/17/17 16/16/16 18/18/18
f 20/20/20 19/19/19 21/21/21
f 23/23/23 22/22/22 24/24/24
f 26/26/26 25/25/25 27/27/27
f 29/29/29 28/28/28 30/30/30
f 32/32/32 31/31/31 33/33/33
f 35/35/35 34/34/34 36/36/36
f 38/38/38 37/37/37 39/39/39
f 41/41/41 40/40/40 42/42/42
f 44/44/44 43/43/43 45/45/45
f 47/47/47 46/46/46 48/48/48
f 50/50/50 49/49/49 51/51/51
f 53/53/53 52/52/52 54/54/54
f 56/56/56 55/55/55 57/57/57
f 59/59/59 58/58/58 60/60/60
f 62/62/62 61/61/61 63/63/63
f 65/65/65 64/64/64 66/66/66
f 68/68/68 67/67/67 69/69/69
f 71/71/71 70/70/70 72/72/72
f 74/74/74 73/73/73 75/75/75
f 77/77/77 76/76/76 78/78/78
f 80/80/80 79/79/79 81/81/81
f 83/83/83 82/82/82 84/84/84
f 86/86/86 85/85/85 87/87/87
f 89/89/89 88/88/88 90/90/90
f 92/92/92 91/91/91 93/93/93
f 95/95/95 94/94/94 96/96/96
f 98/98/98 97/97/97 99/99/99
f 101/101/101 100/100/100 102/102/102
f 104/104/104 103/103/103 105/105/105
f 107/107/107 106/106/106 108/108/108
f 110/110/110 109/109/109 111/111/111
f 113/113/113 112/112/112 114/114/114
f 116/116/116 115/115/115 117/117/117
f 119/119/119 118/118/118 120/120/120
f 122/122/122 121/121/121 123/123/123
f 125/125/125 124/124/124 126/126/126
f 128/128/128 127/127/127 129/129/129
f 131/131/131 130/130/130 132/132/132
f 134/134/134 133/133/133 135/135/135
f 137/137/137 136/136/136 138/138/138
f 140/140/140 139/139/139 141/141/141
f 143/143/143 142/142/142 144/144/144
f 146/146/146 145/145/145 147/147/147
f 149/149/149 148/148/148 150/150/150
f 152/152/152 151/151/151 153/153/153
f 155/155/155 154/154/154 156/156/156
f 158/158/158 157/157/157 159/159/159
f 161/161/161 160/160/160 162/162/162
f 164/164/164 163/163/163 165/165/165
f 167/167/167 166/166/166 168/168/168
f 170/170/170 169/169/169 171/171/171
f 173/173/173 172/172/172 174/174/174
f 176/176/176 175/175/175 177/177/177
f 179/179/179 178/178/178 180/180/180
f 182/182/182 181/181/181 183/183/183
f 185/185/185 184/184/184 186/186/186
f 188/188/188 187/187/187 189/189/189
f 191/191/191 190/190/190 192/192/192
f 194/194/194 193/193/193 195/195/195
f 197/197/197 196/196/196 198/198/198
f 200/200/200 199/199/199 201/201/201
f 203/203/203 202/202/202 204/204/204
f 206/206/206 205/205/205 207/207/207
f 209/209/209 208/208/208 210/210/210
