mtllib ./tree-fir_white_55.mtl
g tree-fir_white
v 0.3430744 4.800948 0.5141533
v -0.1927342 5.791656 0.06568954
v 0.2703477 4.818953 -0.4800427
v -0.7234705 4.84861 -0.4068419
v -0.1927342 5.791656 0.06568954
v -0.6507437 4.830606 0.5873541
v 0.2703477 4.818953 -0.4800427
v -0.1927342 5.791656 0.06568954
v -0.7234705 4.84861 -0.4068419
v -0.6507437 4.830606 0.5873541
v -0.1927342 5.791656 0.06568954
v 0.3430744 4.800948 0.5141533
v -0.1036585 0.8532439 -0.02073227
v 1.057429 0.7238173 -0.01786768
v 1.060652 0.7355502 -1.17852
v -0.1004353 0.7269484 -1.181385
v 0.8254098 1.435044 -0.001555898
v 0.3827647 2.806747 -0.536528
v 0.8502324 1.378462 -0.9792418
v 0.3814275 2.796015 0.02965779
v 0.8449564 1.355618 0.9730107
v 0.3800902 2.785283 0.5958436
v -1.145136 1.19027 -0.01181436
v -0.7524843 2.772666 0.5931824
v -1.10796 1.339838 0.9682339
v -0.7511472 2.783398 0.02699665
v -1.102684 1.362682 -0.9840189
v -0.74981 2.794129 -0.5391891
v -0.1288251 1.435432 -0.9615005
v -0.74981 2.794129 -0.5391891
v -1.102684 1.362682 -0.9840189
v -0.1835226 2.800438 -0.5378585
v 0.8502324 1.378462 -0.9792418
v 0.3827647 2.806747 -0.536528
v 0.1835127 1.471256 0.9396216
v 0.3800902 2.785283 0.5958436
v 0.8449564 1.355618 0.9730107
v -0.1861971 2.778975 0.5945131
v -1.10796 1.339838 0.9682339
v -0.7524843 2.772666 0.5931824
v -1.130133 2.226779 0.08256522
v 0.7023837 2.182718 -0.9879451
v -1.191278 2.244025 -0.8646938
v 0.7635278 2.165473 -0.04068622
v -1.068989 2.209534 1.029824
v 0.8246719 2.148228 0.9065727
v 0.596189 2.733631 -0.02288635
v 0.2246444 3.906546 -0.4271614
v 0.5262014 2.818437 -0.7811373
v 0.2530954 3.898521 0.01360858
v 0.6243761 2.790748 0.7398108
v 0.2815464 3.890497 0.4543786
v -0.9309252 2.886452 0.07777699
v -0.6001524 3.879557 0.5112802
v -0.8960897 2.825411 0.8385937
v -0.6286035 3.887582 0.07051034
v -0.9942647 2.853101 -0.6823545
v -0.6570545 3.895607 -0.3702596
v 0.5262014 2.818437 -0.7811373
v 0.2246444 3.906546 -0.4271614
v -0.6570545 3.895607 -0.3702596
v -0.9942647 2.853101 -0.6823545
v -0.8960897 2.825411 0.8385937
v -0.6001524 3.879557 0.5112802
v 0.2815464 3.890497 0.4543786
v 0.6243761 2.790748 0.7398108
v -0.1914886 3.620679 0.7583717
v 0.527643 3.658073 0.7631395
v 0.5364693 3.68541 -0.6759247
v -0.1826622 3.648015 -0.6806926
v -0.9106202 3.583284 0.7536039
v -0.9017937 3.61062 -0.6854604
v 0.3161662 4.233187 0.5575595
v 0.0307192 5.009464 0.280072
v 0.03345142 5.017926 -0.165393
v 0.3223991 4.252491 -0.4586568
v -0.6933911 4.207431 -0.4652947
v -0.4120935 5.012994 -0.1681197
v -0.4148256 5.004533 0.2773454
v -0.699624 4.188128 0.5509218
v -0.185496 4.229961 -0.4619758
v -0.4120935 5.012994 -0.1681197
v -0.6933911 4.207431 -0.4652947
v -0.1893211 5.01546 -0.1667564
v 0.3223991 4.252491 -0.4586568
v 0.03345142 5.017926 -0.165393
v -0.1917469 4.25486 0.5389467
v 0.0307192 5.009464 0.280072
v 0.3161662 4.233187 0.5575595
v -0.1920532 5.006999 0.2787087
v -0.699624 4.188128 0.5509218
v -0.4148256 5.004533 0.2773454
v -0.6507437 4.830606 0.5873541
v 0.3430744 4.800948 0.5141533
v 0.2703477 4.818953 -0.4800427
v -0.7234705 4.84861 -0.4068419
v -0.1410327 1.026428 -0.1404891
v -0.1637708 -0.000492611 -0.2349974
v 0.06150627 -0.0004925863 -0.08368413
v -0.01297976 1.028594 -0.0544791
v -0.0551122 1.023277 0.09385311
v -0.01261517 -0.0004925439 0.1772694
v -0.2837019 -0.0004925422 0.1872342
v -0.2092044 1.017825 0.09951739
v -0.2623062 1.019772 -0.04531415
v -0.3771213 -0.0004925837 -0.06756071
v -0.1637708 -0.000492611 -0.2349974
v -0.1410327 1.026428 -0.1404891
v -0.01297976 1.028594 -0.0544791
v 0.06150627 -0.0004925863 -0.08368413
v -0.01261517 -0.0004925439 0.1772694
v -0.0551122 1.023277 0.09385311
v -0.2092044 1.017825 0.09951739
v -0.2837019 -0.0004925422 0.1872342
v -0.3771213 -0.0004925837 -0.06756071
v -0.2623062 1.019772 -0.04531415
v -0.1914886 3.620679 0.7583717
v 0.3161662 4.233187 0.5575595
v 0.527643 3.658073 0.7631395
v -0.1917469 4.25486 0.5389467
v -0.9106202 3.583284 0.7536039
v -0.699624 4.188128 0.5509218
v -0.1826622 3.648015 -0.6806926
v -0.6933911 4.207431 -0.4652947
v -0.9017937 3.61062 -0.6854604
v -0.185496 4.229961 -0.4619758
v 0.5364693 3.68541 -0.6759247
v 0.3223991 4.252491 -0.4586568
v -0.9017937 3.61062 -0.6854604
v -0.6933911 4.207431 -0.4652947
v -0.699624 4.188128 0.5509218
v -0.9106202 3.583284 0.7536039
v 0.527643 3.658073 0.7631395
v 0.3161662 4.233187 0.5575595
v 0.3223991 4.252491 -0.4586568
v 0.5364693 3.68541 -0.6759247
v -1.068989 2.209534 1.029824
v -0.8960897 2.825411 0.8385937
v 0.6243761 2.790748 0.7398108
v 0.8246719 2.148228 0.9065727
v 0.7023837 2.182718 -0.9879451
v 0.5262014 2.818437 -0.7811373
v -0.9942647 2.853101 -0.6823545
v -1.191278 2.244025 -0.8646938
v -1.130133 2.226779 0.08256522
v -0.8960897 2.825411 0.8385937
v -1.068989 2.209534 1.029824
v -0.9309252 2.886452 0.07777699
v -1.191278 2.244025 -0.8646938
v -0.9942647 2.853101 -0.6823545
v 0.7635278 2.165473 -0.04068622
v 0.5262014 2.818437 -0.7811373
v 0.7023837 2.182718 -0.9879451
v 0.596189 2.733631 -0.02288635
v 0.8246719 2.148228 0.9065727
v 0.6243761 2.790748 0.7398108
v -0.1068816 0.7034823 1.13992
v 0.8449564 1.355618 0.9730107
v 1.054206 0.7120842 1.142784
v 0.1835127 1.471256 0.9396216
v -1.267969 0.6948806 1.137055
v -1.10796 1.339838 0.9682339
v -0.1004353 0.7269484 -1.181385
v -1.102684 1.362682 -0.9840189
v -1.261523 0.7183465 -1.184249
v -0.1288251 1.435432 -0.9615005
v 1.060652 0.7355502 -1.17852
v 0.8502324 1.378462 -0.9792418
v -1.264746 0.7066134 -0.02359694
v -1.10796 1.339838 0.9682339
v -1.267969 0.6948806 1.137055
v -1.145136 1.19027 -0.01181436
v -1.261523 0.7183465 -1.184249
v -1.102684 1.362682 -0.9840189
v 1.057429 0.7238173 -0.01786768
v 0.8502324 1.378462 -0.9792418
v 1.060652 0.7355502 -1.17852
v 0.8254098 1.435044 -0.001555898
v 1.054206 0.7120842 1.142784
v 0.8449564 1.355618 0.9730107
v -1.264746 0.7066134 -0.02359694
v -0.1036585 0.8532439 -0.02073227
v -0.1004353 0.7269484 -1.181385
v -1.261523 0.7183465 -1.184249
v -1.267969 0.6948806 1.137055
v -0.1068816 0.7034823 1.13992
v -0.1036585 0.8532439 -0.02073227
v -1.264746 0.7066134 -0.02359694
v -0.1068816 0.7034823 1.13992
v 1.054206 0.7120842 1.142784
v 1.057429 0.7238173 -0.01786768
v -0.1036585 0.8532439 -0.02073227
v 0.06150627 -0.0004925863 -0.08368413
v -0.1637708 -0.000492611 -0.2349974
v -0.3771213 -0.0004925837 -0.06756071
v -0.01261517 -0.0004925439 0.1772694
v -0.2837019 -0.0004925422 0.1872342

vn 0.8887081 0.4549451 -0.05677125
vn 0.8887081 0.4549451 -0.05677125
vn 0.8887081 0.4549451 -0.05677125
vn -0.884338 0.461098 0.07304081
vn -0.884338 0.461098 0.07304081
vn -0.884338 0.461098 0.07304081
vn -0.05087052 0.4701355 -0.8811269
vn -0.05087052 0.4701355 -0.8811269
vn -0.05087052 0.4701355 -0.8811269
vn 0.07897477 0.4462341 0.8914248
vn 0.07897477 0.4462341 0.8914248
vn 0.07897477 0.4462341 0.8914248
vn -0.0520188 -0.9974393 0.04908184
vn -0.0520188 -0.9974393 0.04908184
vn -0.0520188 -0.9974393 0.04908184
vn -0.0520188 -0.9974393 0.04908184
vn 0.9508616 0.309539 0.006918935
vn 0.9508616 0.309539 0.006918935
vn 0.9507984 0.3097302 0.007048696
vn 0.9508616 0.309539 0.006918935
vn 0.9505683 0.3104382 0.006931168
vn 0.9505683 0.3104382 0.006931168
vn -0.9706466 0.2405085 0.00090237
vn -0.9706466 0.2405085 0.00090237
vn -0.9706466 0.2405085 0.00090237
vn -0.9706466 0.2405085 0.00090237
vn -0.9708721 0.2395968 0.0008890195
vn -0.9708721 0.2395968 0.0008890195
vn -0.0004386574 0.2966309 -0.9549921
vn -0.0004386574 0.2966309 -0.9549921
vn -0.0004386574 0.2966309 -0.9549921
vn -0.0004386574 0.2966309 -0.9549921
vn -0.0006596197 0.2962375 -0.955114
vn -0.0004339539 0.2961605 -0.9551381
vn -0.004755474 0.253766 0.967254
vn -0.004755474 0.253766 0.967254
vn -0.004755474 0.253766 0.967254
vn -0.004755474 0.253766 0.967254
vn -0.004636968 0.2541259 0.96716
vn -0.004636968 0.2541259 0.96716
vn -0.03339625 -0.9993135 -0.01603742
vn -0.03339625 -0.9993135 -0.01603742
vn -0.03339625 -0.9993135 -0.01603742
vn -0.03339625 -0.9993135 -0.01603742
vn -0.03339599 -0.9993135 -0.0160373
vn -0.03339599 -0.9993135 -0.0160373
vn 0.9572375 0.2837079 -0.0566232
vn 0.9572375 0.2837079 -0.0566232
vn 0.9570051 0.2846584 -0.05577591
vn 0.9572375 0.2837079 -0.0566232
vn 0.957086 0.283965 -0.05788251
vn 0.9572375 0.2837079 -0.05662306
vn -0.9550235 0.288884 0.06690511
vn -0.9550235 0.288884 0.06690511
vn -0.9546913 0.2897761 0.06778212
vn -0.9550235 0.288884 0.06690511
vn -0.9553818 0.2876539 0.06708954
vn -0.9550236 0.2888839 0.06690466
vn -0.05996136 0.2992336 -0.9522941
vn -0.05878192 0.2987586 -0.9525167
vn -0.05878192 0.2987586 -0.9525167
vn -0.0599735 0.2992235 -0.9522964
vn 0.06556614 0.2732787 0.9596978
vn 0.06489079 0.2743557 0.9594364
vn 0.06489079 0.2743557 0.9594364
vn 0.06420993 0.2754213 0.9591769
vn 0.05204383 -0.9984706 -0.01864775
vn 0.05204383 -0.9984706 -0.01864775
vn 0.05204383 -0.9984706 -0.01864775
vn 0.05204383 -0.9984706 -0.01864775
vn 0.05204383 -0.9984706 -0.01864758
vn 0.05204383 -0.9984706 -0.01864758
vn 0.93749 0.3478016 0.01210874
vn 0.9370456 0.3489874 0.0123766
vn 0.9370456 0.3489874 0.0123766
vn 0.9367473 0.3498179 0.01149635
vn -0.9440369 0.3298355 0.001718329
vn -0.9441491 0.3295182 0.000468512
vn -0.9441491 0.3295182 0.000468512
vn -0.9438076 0.3304952 -0.0003087401
vn -0.005964768 0.3498328 -0.9367931
vn -0.005964768 0.3498328 -0.9367931
vn -0.005246526 0.3508403 -0.9364207
vn -0.005964768 0.3498328 -0.9367931
vn -0.006600197 0.3526695 -0.9357247
vn -0.006107021 0.3537437 -0.9353225
vn -0.01492972 0.3309604 0.9435266
vn -0.017165 0.3289725 0.9441835
vn -0.01603587 0.3295801 0.9439914
vn -0.017165 0.3289725 0.9441835
vn -0.01586505 0.3254209 0.9454361
vn -0.01703669 0.3248995 0.945595
vn -0.03098989 -0.9993943 -0.01583161
vn -0.03098989 -0.9993943 -0.01583161
vn -0.03098989 -0.9993943 -0.01583161
vn -0.03098989 -0.9993943 -0.01583161
vn 0.5561679 0.06385724 -0.828613
vn 0.5561679 0.06385724 -0.828613
vn 0.5561679 0.06385724 -0.828613
vn 0.5561679 0.06385724 -0.828613
vn 0.03554586 0.08290437 0.9959234
vn 0.03554586 0.08290437 0.9959234
vn 0.03554586 0.08290437 0.9959234
vn 0.03554586 0.08290437 0.9959234
vn -0.6161438 0.08605093 -0.782919
vn -0.6161438 0.08605093 -0.782919
vn -0.6161438 0.08605093 -0.782919
vn -0.6161438 0.08605093 -0.782919
vn 0.9598903 0.0619211 0.2734525
vn 0.9598903 0.0619211 0.2734525
vn 0.9598903 0.0619211 0.2734525
vn 0.9598903 0.0619211 0.2734525
vn -0.9342303 0.09777307 0.3430076
vn -0.9342303 0.09777307 0.3430076
vn -0.9342303 0.09777307 0.3430076
vn -0.9342303 0.09777307 0.3430076
vn -0.02219811 0.3280243 0.9444085
vn -0.02262719 0.3291732 0.9439985
vn -0.02219811 0.3280243 0.9444085
vn -0.02009858 0.3259215 0.9451831
vn -0.022093 0.3257632 0.9451932
vn -0.02179896 0.3245722 0.9456096
vn -0.01094984 0.3505816 -0.9364682
vn -0.009752458 0.350123 -0.936653
vn -0.01094984 0.3505816 -0.9364682
vn -0.01094984 0.3505816 -0.9364682
vn -0.01106903 0.3529099 -0.9355918
vn -0.009860382 0.352634 -0.9357094
vn -0.9441492 0.3295179 0.0004685368
vn -0.9445732 0.3283005 0.0005847662
vn -0.9443515 0.3289374 -0.0006705078
vn -0.9441492 0.3295179 0.0004685368
vn 0.9370453 0.3489884 0.01237663
vn 0.937054 0.3489166 0.01366895
vn 0.9366786 0.3499456 0.01308559
vn 0.9370453 0.3489884 0.01237663
vn 0.07008433 0.2743643 0.9590685
vn 0.06889482 0.273908 0.9592851
vn 0.06888428 0.2739227 0.9592816
vn 0.07008433 0.2743643 0.9590685
vn -0.05356752 0.2987667 -0.9528216
vn -0.05393895 0.2975755 -0.9531733
vn -0.05318963 0.2999515 -0.9524704
vn -0.05356752 0.2987667 -0.9528216
vn -0.9550236 0.2888837 0.06690474
vn -0.9547644 0.2899099 0.06615963
vn -0.9550236 0.2888837 0.06690474
vn -0.9550236 0.2888837 0.06690474
vn -0.9550235 0.288884 0.06690473
vn -0.9551066 0.2889053 0.06561325
vn 0.9572376 0.2837076 -0.05662318
vn 0.9575138 0.2829788 -0.05558977
vn 0.9572376 0.2837076 -0.05662318
vn 0.9572376 0.2837076 -0.05662318
vn 0.9572376 0.2837077 -0.05662328
vn 0.9575936 0.2824727 -0.0567763
vn -0.004329985 0.2538747 0.9672273
vn -0.004329985 0.2538747 0.9672273
vn -0.004329985 0.2538747 0.9672273
vn -0.004329985 0.2538747 0.9672273
vn -0.004352764 0.2540911 0.9671705
vn -0.004352764 0.2540911 0.9671705
vn 5.365251E-05 0.2965712 -0.9550107
vn 5.365251E-05 0.2965712 -0.9550107
vn 5.365251E-05 0.2965712 -0.9550107
vn 5.365251E-05 0.2965712 -0.9550107
vn 5.633839E-05 0.2962559 -0.9551086
vn 2.058969E-05 0.2960295 -0.9551787
vn -0.9706559 0.2404728 -8.836159E-05
vn -0.9706559 0.2404728 -8.836159E-05
vn -0.9706559 0.2404728 -8.836159E-05
vn -0.9706559 0.2404728 -8.836159E-05
vn -0.9708527 0.2396772 -9.734945E-05
vn -0.9708527 0.2396772 -9.734945E-05
vn 0.9508125 0.3097093 0.005974793
vn 0.9508392 0.309623 0.006196843
vn 0.9508125 0.3097093 0.005974793
vn 0.9508125 0.3097093 0.005974793
vn 0.9506165 0.3103102 0.005980726
vn 0.9506165 0.3103102 0.005980726
vn 0.06649631 -0.9965647 0.04936767
vn 0.06649631 -0.9965647 0.04936767
vn 0.06649631 -0.9965647 0.04936767
vn 0.06649631 -0.9965647 0.04936767
vn 0.06670924 -0.9953793 -0.06906389
vn 0.06670924 -0.9953793 -0.06906389
vn 0.06670924 -0.9953793 -0.06906389
vn 0.06670924 -0.9953793 -0.06906389
vn -0.05166423 -0.9962465 -0.06945305
vn -0.05166423 -0.9962465 -0.06945305
vn -0.05166423 -0.9962465 -0.06945305
vn -0.05166423 -0.9962465 -0.06945305
vn 0 -1 1.62917E-07
vn 0 -1 1.62917E-07
vn 0 -1 1.62917E-07
vn 0 -1 1.62917E-07
vn 0 -1 1.62917E-07

vt 0.8512737 0.2976286
vt 0.8424236 0.2933199
vt 0.8450243 0.302774
vt 0.8452271 0.2841516
vt 0.8424236 0.2933199
vt 0.8512737 0.289534
vt 0.8424236 0.3109187
vt 0.8467317 0.3197269
vt 0.8505182 0.310919
vt 0.8512737 0.289534
vt 0.8424236 0.2933199
vt 0.8512737 0.2976286
vt 0.8386203 0.3517999
vt 0.8276608 0.3517913
vt 0.8276607 0.3627563
vt 0.8386295 0.3627522
vt 0.7989919 0.2861491
vt 0.8121295 0.2922219
vt 0.8051116 0.2792499
vt 0.8082842 0.2959143
vt 0.7919437 0.2920725
vt 0.8044389 0.2996066
vt 0.7883242 0.3192093
vt 0.80182 0.3099426
vt 0.7874812 0.3099079
vt 0.803218 0.3150872
vt 0.7921774 0.3276775
vt 0.804616 0.3202316
vt 0.7990779 0.333756
vt 0.804616 0.3202316
vt 0.7921774 0.3276775
vt 0.8083727 0.3240144
vt 0.805095 0.3407602
vt 0.8121295 0.3277972
vt 0.7915766 0.2983909
vt 0.8044389 0.2996066
vt 0.7919437 0.2920725
vt 0.8031296 0.3047746
vt 0.7874812 0.3099079
vt 0.80182 0.3099426
vt 0.7812215 0.3614292
vt 0.7633481 0.3703667
vt 0.7812219 0.3703667
vt 0.7633476 0.3614292
vt 0.781221 0.3524918
vt 0.7633472 0.3524918
vt 0.8006434 0.2627648
vt 0.7961233 0.2740876
vt 0.8055097 0.2680887
vt 0.7930342 0.2713033
vt 0.7948502 0.2584811
vt 0.7899451 0.268519
vt 0.7742226 0.259418
vt 0.7817768 0.2669472
vt 0.780678 0.2562455
vt 0.777934 0.2685368
vt 0.7674174 0.2617307
vt 0.7740909 0.2701264
vt 0.7588537 0.273242
vt 0.7693533 0.2769636
vt 0.7740909 0.2701264
vt 0.7674174 0.2617307
vt 0.780678 0.2562455
vt 0.7817768 0.2669472
vt 0.7899451 0.268519
vt 0.7948502 0.2584811
vt 0.7942669 0.3584554
vt 0.7874879 0.3584554
vt 0.7874812 0.3720054
vt 0.7942604 0.3720054
vt 0.8010461 0.3584554
vt 0.8010395 0.3720054
vt 0.8529818 0.3460849
vt 0.8595273 0.3510452
vt 0.8630291 0.3487364
vt 0.8609701 0.3408177
vt 0.8527652 0.3641102
vt 0.8595566 0.3589892
vt 0.8581939 0.3550223
vt 0.8496565 0.3550608
vt 0.8568093 0.3666699
vt 0.8595566 0.3589892
vt 0.8527652 0.3641102
vt 0.8612928 0.3601657
vt 0.8608533 0.3692296
vt 0.8630291 0.3613423
vt 0.8517379 0.3507094
vt 0.8595273 0.3510452
vt 0.8529818 0.3460849
vt 0.8588606 0.3530338
vt 0.8496565 0.3550608
vt 0.8581939 0.3550223
vt 0.8505182 0.3028239
vt 0.8424237 0.3028236
vt 0.8424236 0.3109187
vt 0.8505182 0.310919
vt 0.1739767 0.7992581
vt 0.1551893 0.7937716
vt 0.1540923 0.7988027
vt 0.1733933 0.8021266
vt 0.1729327 0.8050177
vt 0.1534578 0.8039105
vt 0.1533629 0.8090569
vt 0.1727757 0.8079411
vt 0.1731415 0.8108453
vt 0.1539423 0.8141736
vt 0.155197 0.8191642
vt 0.1739767 0.8136516
vt 0.1733933 0.8021266
vt 0.1540923 0.7988027
vt 0.1534578 0.8039105
vt 0.1729327 0.8050177
vt 0.1727757 0.8079411
vt 0.1533629 0.8090569
vt 0.1539423 0.8141736
vt 0.1731415 0.8108453
vt 0.7983166 0.350367
vt 0.7959926 0.3441238
vt 0.7928401 0.348319
vt 0.7999856 0.3451803
vt 0.8037931 0.352415
vt 0.8037459 0.34696
vt 0.8179008 0.3435972
vt 0.8115396 0.3442466
vt 0.8148298 0.3485726
vt 0.813733 0.3407496
vt 0.8209717 0.3386218
vt 0.8159261 0.3372525
vt 0.8148298 0.3485726
vt 0.8115396 0.3442466
vt 0.8037459 0.34696
vt 0.8037931 0.352415
vt 0.7928401 0.348319
vt 0.7959926 0.3441238
vt 0.7914218 0.3372525
vt 0.7863674 0.3385888
vt 0.8314605 0.2924743
vt 0.8260397 0.2924328
vt 0.8227809 0.3043703
vt 0.8275369 0.3073826
vt 0.8159794 0.2670618
vt 0.813535 0.2721148
vt 0.8225929 0.2805456
vt 0.8271671 0.2776676
vt 0.8293138 0.285071
vt 0.8260397 0.2924328
vt 0.8314605 0.2924743
vt 0.8239312 0.2865984
vt 0.8271671 0.2776676
vt 0.8225929 0.2805456
vt 0.8217785 0.312507
vt 0.813535 0.3125982
vt 0.8160201 0.3176313
vt 0.8185599 0.3089309
vt 0.8275369 0.3073826
vt 0.8227809 0.3043703
vt 0.784038 0.3249499
vt 0.7769064 0.3311739
vt 0.7817582 0.3340976
vt 0.7772215 0.3257244
vt 0.7863178 0.3158022
vt 0.780751 0.3157902
vt 0.7749033 0.2908625
vt 0.7766964 0.3004654
vt 0.7815247 0.2975734
vt 0.7707436 0.2952245
vt 0.7682819 0.2841516
vt 0.7655523 0.289185
vt 0.7839212 0.3066877
vt 0.780751 0.3157902
vt 0.7863178 0.3158022
vt 0.7800217 0.3077682
vt 0.7815247 0.2975734
vt 0.7766964 0.3004654
vt 0.7750182 0.3406846
vt 0.7655523 0.3422362
vt 0.7682782 0.3472716
vt 0.7708287 0.3362844
vt 0.7817582 0.3340976
vt 0.7769064 0.3311739
vt 0.8495988 0.3517831
vt 0.8386203 0.3517999
vt 0.8386295 0.3627522
vt 0.8495985 0.3627482
vt 0.8495989 0.3408177
vt 0.8386297 0.3408218
vt 0.8386203 0.3517999
vt 0.8495988 0.3517831
vt 0.8386297 0.3408218
vt 0.8276607 0.3408261
vt 0.8276608 0.3517913
vt 0.8386203 0.3517999
vt 0.1508349 0.8219004
vt 0.155197 0.8191642
vt 0.1539423 0.8141736
vt 0.1468844 0.8186008
vt 0.1488049 0.8138253

usemtl LOW-POLY-COLORS
usemap LOW-POLY-COLORS
f 2/2/2 1/1/1 3/3/3
f 5/5/5 4/4/4 6/6/6
f 8/8/8 7/7/7 9/9/9
f 11/11/11 10/10/10 12/12/12
f 14/14/14 13/13/13 15/15/15
f 15/15/15 13/13/13 16/16/16
f 18/18/18 17/17/17 19/19/19
f 20/20/20 17/17/17 18/18/18
f 20/20/20 21/21/21 17/17/17
f 22/22/22 21/21/21 20/20/20
f 24/24/24 23/23/23 25/25/25
f 26/26/26 23/23/23 24/24/24
f 26/26/26 27/27/27 23/23/23
f 28/28/28 27/27/27 26/26/26
f 30/30/30 29/29/29 31/31/31
f 32/32/32 29/29/29 30/30/30
f 32/32/32 33/33/33 29/29/29
f 34/34/34 33/33/33 32/32/32
f 36/36/36 35/35/35 37/37/37
f 38/38/38 35/35/35 36/36/36
f 38/38/38 39/39/39 35/35/35
f 40/40/40 39/39/39 38/38/38
f 42/42/42 41/41/41 43/43/43
f 44/44/44 41/41/41 42/42/42
f 44/44/44 45/45/45 41/41/41
f 46/46/46 45/45/45 44/44/44
f 48/48/48 47/47/47 49/49/49
f 50/50/50 47/47/47 48/48/48
f 50/50/50 51/51/51 47/47/47
f 52/52/52 51/51/51 50/50/50
f 54/54/54 53/53/53 55/55/55
f 56/56/56 53/53/53 54/54/54
f 56/56/56 57/57/57 53/53/53
f 58/58/58 57/57/57 56/56/56
f 60/60/60 59/59/59 61/61/61
f 61/61/61 59/59/59 62/62/62
f 64/64/64 63/63/63 65/65/65
f 65/65/65 63/63/63 66/66/66
f 68/68/68 67/67/67 69/69/69
f 69/69/69 67/67/67 70/70/70
f 67/67/67 71/71/71 70/70/70
f 70/70/70 71/71/71 72/72/72
f 74/74/74 73/73/73 75/75/75
f 75/75/75 73/73/73 76/76/76
f 78/78/78 77/77/77 79/79/79
f 79/79/79 77/77/77 80/80/80
f 82/82/82 81/81/81 83/83/83
f 84/84/84 81/81/81 82/82/82
f 84/84/84 85/85/85 81/81/81
f 86/86/86 85/85/85 84/84/84
f 88/88/88 87/87/87 89/89/89
f 90/90/90 87/87/87 88/88/88
f 90/90/90 91/91/91 87/87/87
f 92/92/92 91/91/91 90/90/90
f 94/94/94 93/93/93 95/95/95
f 95/95/95 93/93/93 96/96/96
f 98/98/98 97/97/97 99/99/99
f 99/99/99 97/97/97 100/100/100
f 102/102/102 101/101/101 103/103/103
f 103/103/103 101/101/101 104/104/104
f 106/106/106 105/105/105 107/107/107
f 107/107/107 105/105/105 108/108/108
f 110/110/110 109/109/109 111/111/111
f 111/111/111 109/109/109 112/112/112
f 114/114/114 113/113/113 115/115/115
f 115/115/115 113/113/113 116/116/116
f 118/118/118 117/117/117 119/119/119
f 120/120/120 117/117/117 118/118/118
f 120/120/120 121/121/121 117/117/117
f 122/122/122 121/121/121 120/120/120
f 124/124/124 123/123/123 125/125/125
f 126/126/126 123/123/123 124/124/124
f 126/126/126 127/127/127 123/123/123
f 128/128/128 127/127/127 126/126/126
f 130/130/130 129/129/129 131/131/131
f 131/131/131 129/129/129 132/132/132
f 134/134/134 133/133/133 135/135/135
f 135/135/135 133/133/133 136/136/136
f 138/138/138 137/137/137 139/139/139
f 139/139/139 137/137/137 140/140/140
f 142/142/142 141/141/141 143/143/143
f 143/143/143 141/141/141 144/144/144
f 146/146/146 145/145/145 147/147/147
f 148/148/148 145/145/145 146/146/146
f 148/148/148 149/149/149 145/145/145
f 150/150/150 149/149/149 148/148/148
f 152/152/152 151/151/151 153/153/153
f 154/154/154 151/151/151 152/152/152
f 154/154/154 155/155/155 151/151/151
f 156/156/156 155/155/155 154/154/154
f 158/158/158 157/157/157 159/159/159
f 160/160/160 157/157/157 158/158/158
f 160/160/160 161/161/161 157/157/157
f 162/162/162 161/161/161 160/160/160
f 164/164/164 163/163/163 165/165/165
f 166/166/166 163/163/163 164/164/164
f 166/166/166 167/167/167 163/163/163
f 168/168/168 167/167/167 166/166/166
f 170/170/170 169/169/169 171/171/171
f 172/172/172 169/169/169 170/170/170
f 172/172/172 173/173/173 169/169/169
f 174/174/174 173/173/173 172/172/172
f 176/176/176 175/175/175 177/177/177
f 178/178/178 175/175/175 176/176/176
f 178/178/178 179/179/179 175/175/175
f 180/180/180 179/179/179 178/178/178
f 182/182/182 181/181/181 183/183/183
f 183/183/183 181/181/181 184/184/184
f 186/186/186 185/185/185 187/187/187
f 187/187/187 185/185/185 188/188/188
f 190/190/190 189/189/189 191/191/191
f 191/191/191 189/189/189 192/192/192
f 194/194/194 193/193/193 195/195/195
f 196/196/196 195/195/195 193/193/193
f 197/197/197 195/195/195 196/196/196
