mtllib ./tree-fir-snow_50.mtl
g tree-fir-snow
v 0.3430744 4.800948 0.5141533
v -0.1927342 5.791656 0.06568954
v 0.2703477 4.818953 -0.4800427
v -0.7234705 4.84861 -0.4068419
v -0.1927342 5.791656 0.06568954
v -0.6507437 4.830606 0.5873541
v 0.2703477 4.818953 -0.4800427
v -0.1927342 5.791656 0.06568954
v -0.7234705 4.84861 -0.4068419
v -0.6507437 4.830606 0.5873541
v -0.1927342 5.791656 0.06568954
v 0.3430744 4.800948 0.5141533
v -0.1036585 0.8532439 -0.02073227
v 1.057429 0.7238173 -0.01786768
v 1.060652 0.7355502 -1.17852
v -0.1004353 0.7269484 -1.181385
v 0.8254098 1.435044 -0.001555898
v 0.3827647 2.806747 -0.536528
v 0.8502324 1.378462 -0.9792418
v 0.3814275 2.796015 0.02965779
v 0.8449564 1.355618 0.9730107
v 0.3800902 2.785283 0.5958436
v -1.145136 1.19027 -0.01181436
v -0.7524843 2.772666 0.5931824
v -1.10796 1.339838 0.9682339
v -0.7511472 2.783398 0.02699665
v -1.102684 1.362682 -0.9840189
v -0.74981 2.794129 -0.5391891
v -0.1288251 1.435432 -0.9615005
v -0.74981 2.794129 -0.5391891
v -1.102684 1.362682 -0.9840189
v -0.1835226 2.800438 -0.5378585
v 0.8502324 1.378462 -0.9792418
v 0.3827647 2.806747 -0.536528
v 0.1835127 1.471256 0.9396216
v 0.3800902 2.785283 0.5958436
v 0.8449564 1.355618 0.9730107
v -0.1861971 2.778975 0.5945131
v -1.10796 1.339838 0.9682339
v -0.7524843 2.772666 0.5931824
v -1.130133 2.226779 0.08256522
v 0.7023837 2.182718 -0.9879451
v -1.191278 2.244025 -0.8646938
v 0.7635278 2.165473 -0.04068622
v -1.068989 2.209534 1.029824
v 0.8246719 2.148228 0.9065727
v 0.596189 2.733631 -0.02288635
v 0.2246444 3.906546 -0.4271614
v 0.5262014 2.818437 -0.7811373
v 0.2530954 3.898521 0.01360858
v 0.6243761 2.790748 0.7398108
v 0.2815464 3.890497 0.4543786
v -0.9309252 2.886452 0.07777699
v -0.6001524 3.879557 0.5112802
v -0.8960897 2.825411 0.8385937
v -0.6286035 3.887582 0.07051034
v -0.9942647 2.853101 -0.6823545
v -0.6570545 3.895607 -0.3702596
v 0.5262014 2.818437 -0.7811373
v 0.2246444 3.906546 -0.4271614
v -0.6570545 3.895607 -0.3702596
v -0.9942647 2.853101 -0.6823545
v -0.8960897 2.825411 0.8385937
v -0.6001524 3.879557 0.5112802
v 0.2815464 3.890497 0.4543786
v 0.6243761 2.790748 0.7398108
v -0.1914886 3.620679 0.7583717
v 0.527643 3.658073 0.7631395
v 0.5364693 3.68541 -0.6759247
v -0.1826622 3.648015 -0.6806926
v -0.9106202 3.583284 0.7536039
v -0.9017937 3.61062 -0.6854604
v 0.3161662 4.233187 0.5575595
v 0.0307192 5.009464 0.280072
v 0.03345142 5.017926 -0.165393
v 0.3223991 4.252491 -0.4586568
v -0.6933911 4.207431 -0.4652947
v -0.4120935 5.012994 -0.1681197
v -0.4148256 5.004533 0.2773454
v -0.699624 4.188128 0.5509218
v -0.185496 4.229961 -0.4619758
v -0.4120935 5.012994 -0.1681197
v -0.6933911 4.207431 -0.4652947
v -0.1893211 5.01546 -0.1667564
v 0.3223991 4.252491 -0.4586568
v 0.03345142 5.017926 -0.165393
v -0.1917469 4.25486 0.5389467
v 0.0307192 5.009464 0.280072
v 0.3161662 4.233187 0.5575595
v -0.1920532 5.006999 0.2787087
v -0.699624 4.188128 0.5509218
v -0.4148256 5.004533 0.2773454
v -0.6507437 4.830606 0.5873541
v 0.3430744 4.800948 0.5141533
v 0.2703477 4.818953 -0.4800427
v -0.7234705 4.84861 -0.4068419
v -0.1410327 1.026428 -0.1404891
v -0.1637708 -0.000492611 -0.2349974
v 0.06150627 -0.0004925863 -0.08368413
v -0.01297976 1.028594 -0.0544791
v -0.0551122 1.023277 0.09385311
v -0.01261517 -0.0004925439 0.1772694
v -0.2837019 -0.0004925422 0.1872342
v -0.2092044 1.017825 0.09951739
v -0.2623062 1.019772 -0.04531415
v -0.3771213 -0.0004925837 -0.06756071
v -0.1637708 -0.000492611 -0.2349974
v -0.1410327 1.026428 -0.1404891
v -0.01297976 1.028594 -0.0544791
v 0.06150627 -0.0004925863 -0.08368413
v -0.01261517 -0.0004925439 0.1772694
v -0.0551122 1.023277 0.09385311
v -0.2092044 1.017825 0.09951739
v -0.2837019 -0.0004925422 0.1872342
v -0.3771213 -0.0004925837 -0.06756071
v -0.2623062 1.019772 -0.04531415
v -0.1914886 3.620679 0.7583717
v 0.3161662 4.233187 0.5575595
v 0.527643 3.658073 0.7631395
v -0.1917469 4.25486 0.5389467
v -0.9106202 3.583284 0.7536039
v -0.699624 4.188128 0.5509218
v -0.1826622 3.648015 -0.6806926
v -0.6933911 4.207431 -0.4652947
v -0.9017937 3.61062 -0.6854604
v -0.185496 4.229961 -0.4619758
v 0.5364693 3.68541 -0.6759247
v 0.3223991 4.252491 -0.4586568
v -0.9017937 3.61062 -0.6854604
v -0.6933911 4.207431 -0.4652947
v -0.699624 4.188128 0.5509218
v -0.9106202 3.583284 0.7536039
v 0.527643 3.658073 0.7631395
v 0.3161662 4.233187 0.5575595
v 0.3223991 4.252491 -0.4586568
v 0.5364693 3.68541 -0.6759247
v -1.068989 2.209534 1.029824
v -0.8960897 2.825411 0.8385937
v 0.6243761 2.790748 0.7398108
v 0.8246719 2.148228 0.9065727
v 0.7023837 2.182718 -0.9879451
v 0.5262014 2.818437 -0.7811373
v -0.9942647 2.853101 -0.6823545
v -1.191278 2.244025 -0.8646938
v -1.130133 2.226779 0.08256522
v -0.8960897 2.825411 0.8385937
v -1.068989 2.209534 1.029824
v -0.9309252 2.886452 0.07777699
v -1.191278 2.244025 -0.8646938
v -0.9942647 2.853101 -0.6823545
v 0.7635278 2.165473 -0.04068622
v 0.5262014 2.818437 -0.7811373
v 0.7023837 2.182718 -0.9879451
v 0.596189 2.733631 -0.02288635
v 0.8246719 2.148228 0.9065727
v 0.6243761 2.790748 0.7398108
v -0.1068816 0.7034823 1.13992
v 0.8449564 1.355618 0.9730107
v 1.054206 0.7120842 1.142784
v 0.1835127 1.471256 0.9396216
v -1.267969 0.6948806 1.137055
v -1.10796 1.339838 0.9682339
v -0.1004353 0.7269484 -1.181385
v -1.102684 1.362682 -0.9840189
v -1.261523 0.7183465 -1.184249
v -0.1288251 1.435432 -0.9615005
v 1.060652 0.7355502 -1.17852
v 0.8502324 1.378462 -0.9792418
v -1.264746 0.7066134 -0.02359694
v -1.10796 1.339838 0.9682339
v -1.267969 0.6948806 1.137055
v -1.145136 1.19027 -0.01181436
v -1.261523 0.7183465 -1.184249
v -1.102684 1.362682 -0.9840189
v 1.057429 0.7238173 -0.01786768
v 0.8502324 1.378462 -0.9792418
v 1.060652 0.7355502 -1.17852
v 0.8254098 1.435044 -0.001555898
v 1.054206 0.7120842 1.142784
v 0.8449564 1.355618 0.9730107
v -1.264746 0.7066134 -0.02359694
v -0.1036585 0.8532439 -0.02073227
v -0.1004353 0.7269484 -1.181385
v -1.261523 0.7183465 -1.184249
v -1.267969 0.6948806 1.137055
v -0.1068816 0.7034823 1.13992
v -0.1036585 0.8532439 -0.02073227
v -1.264746 0.7066134 -0.02359694
v -0.1068816 0.7034823 1.13992
v 1.054206 0.7120842 1.142784
v 1.057429 0.7238173 -0.01786768
v -0.1036585 0.8532439 -0.02073227
v 0.06150627 -0.0004925863 -0.08368413
v -0.1637708 -0.000492611 -0.2349974
v -0.3771213 -0.0004925837 -0.06756071
v -0.01261517 -0.0004925439 0.1772694
v -0.2837019 -0.0004925422 0.1872342

vn 0.8887081 0.4549451 -0.05677125
vn 0.8887081 0.4549451 -0.05677125
vn 0.8887081 0.4549451 -0.05677125
vn -0.884338 0.461098 0.07304081
vn -0.884338 0.461098 0.07304081
vn -0.884338 0.461098 0.07304081
vn -0.05087052 0.4701355 -0.8811269
vn -0.05087052 0.4701355 -0.8811269
vn -0.05087052 0.4701355 -0.8811269
vn 0.07897477 0.4462341 0.8914248
vn 0.07897477 0.4462341 0.8914248
vn 0.07897477 0.4462341 0.8914248
vn -0.0520188 -0.9974393 0.04908184
vn -0.0520188 -0.9974393 0.04908184
vn -0.0520188 -0.9974393 0.04908184
vn -0.0520188 -0.9974393 0.04908184
vn 0.9508616 0.309539 0.006918935
vn 0.9508616 0.309539 0.006918935
vn 0.9508616 0.309539 0.006918935
vn 0.9508616 0.309539 0.006918935
vn 0.9505683 0.3104382 0.006931168
vn 0.9505683 0.3104382 0.006931168
vn -0.9706466 0.2405085 0.00090237
vn -0.9706466 0.2405085 0.00090237
vn -0.9706466 0.2405085 0.00090237
vn -0.9706466 0.2405085 0.00090237
vn -0.9708721 0.2395968 0.0008890195
vn -0.9708721 0.2395968 0.0008890195
vn -0.0004386574 0.2966309 -0.9549921
vn -0.0004386574 0.2966309 -0.9549921
vn -0.0004386574 0.2966309 -0.9549921
vn -0.0004386574 0.2966309 -0.9549921
vn -0.0004339539 0.2961605 -0.9551381
vn -0.0004339539 0.2961605 -0.9551381
vn -0.004755474 0.253766 0.967254
vn -0.004755474 0.253766 0.967254
vn -0.004755474 0.253766 0.967254
vn -0.004755474 0.253766 0.967254
vn -0.004636968 0.2541259 0.96716
vn -0.004636968 0.2541259 0.96716
vn -0.03339625 -0.9993135 -0.01603742
vn -0.03339625 -0.9993135 -0.01603742
vn -0.03339625 -0.9993135 -0.01603742
vn -0.03339625 -0.9993135 -0.01603742
vn -0.03339599 -0.9993135 -0.0160373
vn -0.03339599 -0.9993135 -0.0160373
vn 0.9572375 0.2837079 -0.0566232
vn 0.9572375 0.2837079 -0.0566232
vn 0.9572375 0.2837079 -0.0566232
vn 0.9572375 0.2837079 -0.0566232
vn 0.9572375 0.2837079 -0.05662306
vn 0.9572375 0.2837079 -0.05662306
vn -0.9550235 0.288884 0.06690511
vn -0.9550235 0.288884 0.06690511
vn -0.9550235 0.288884 0.06690511
vn -0.9550235 0.288884 0.06690511
vn -0.9550236 0.2888839 0.06690466
vn -0.9550236 0.2888839 0.06690466
vn -0.05878192 0.2987586 -0.9525167
vn -0.05878192 0.2987586 -0.9525167
vn -0.05878192 0.2987586 -0.9525167
vn -0.05878192 0.2987586 -0.9525167
vn 0.06489079 0.2743557 0.9594364
vn 0.06489079 0.2743557 0.9594364
vn 0.06489079 0.2743557 0.9594364
vn 0.06489079 0.2743557 0.9594364
vn 0.05204383 -0.9984706 -0.01864775
vn 0.05204383 -0.9984706 -0.01864775
vn 0.05204383 -0.9984706 -0.01864775
vn 0.05204383 -0.9984706 -0.01864775
vn 0.05204383 -0.9984706 -0.01864758
vn 0.05204383 -0.9984706 -0.01864758
vn 0.9370456 0.3489874 0.0123766
vn 0.9370456 0.3489874 0.0123766
vn 0.9370456 0.3489874 0.0123766
vn 0.9370456 0.3489874 0.0123766
vn -0.9441491 0.3295182 0.000468512
vn -0.9441491 0.3295182 0.000468512
vn -0.9441491 0.3295182 0.000468512
vn -0.9441491 0.3295182 0.000468512
vn -0.005964768 0.3498328 -0.9367931
vn -0.005964768 0.3498328 -0.9367931
vn -0.005964768 0.3498328 -0.9367931
vn -0.005964768 0.3498328 -0.9367931
vn -0.006107021 0.3537437 -0.9353225
vn -0.006107021 0.3537437 -0.9353225
vn -0.017165 0.3289725 0.9441835
vn -0.017165 0.3289725 0.9441835
vn -0.017165 0.3289725 0.9441835
vn -0.017165 0.3289725 0.9441835
vn -0.01703669 0.3248995 0.945595
vn -0.01703669 0.3248995 0.945595
vn -0.03098989 -0.9993943 -0.01583161
vn -0.03098989 -0.9993943 -0.01583161
vn -0.03098989 -0.9993943 -0.01583161
vn -0.03098989 -0.9993943 -0.01583161
vn 0.5561679 0.06385724 -0.828613
vn 0.5561679 0.06385724 -0.828613
vn 0.5561679 0.06385724 -0.828613
vn 0.5561679 0.06385724 -0.828613
vn 0.03554586 0.08290437 0.9959234
vn 0.03554586 0.08290437 0.9959234
vn 0.03554586 0.08290437 0.9959234
vn 0.03554586 0.08290437 0.9959234
vn -0.6161438 0.08605093 -0.782919
vn -0.6161438 0.08605093 -0.782919
vn -0.6161438 0.08605093 -0.782919
vn -0.6161438 0.08605093 -0.782919
vn 0.9598903 0.0619211 0.2734525
vn 0.9598903 0.0619211 0.2734525
vn 0.9598903 0.0619211 0.2734525
vn 0.9598903 0.0619211 0.2734525
vn -0.9342303 0.09777307 0.3430076
vn -0.9342303 0.09777307 0.3430076
vn -0.9342303 0.09777307 0.3430076
vn -0.9342303 0.09777307 0.3430076
vn -0.02219811 0.3280243 0.9444085
vn -0.02219811 0.3280243 0.9444085
vn -0.02219811 0.3280243 0.9444085
vn -0.02219811 0.3280243 0.9444085
vn -0.022093 0.3257632 0.9451932
vn -0.022093 0.3257632 0.9451932
vn -0.01094984 0.3505816 -0.9364682
vn -0.01094984 0.3505816 -0.9364682
vn -0.01094984 0.3505816 -0.9364682
vn -0.01094984 0.3505816 -0.9364682
vn -0.01106903 0.3529099 -0.9355918
vn -0.01106903 0.3529099 -0.9355918
vn -0.9441492 0.3295179 0.0004685368
vn -0.9441492 0.3295179 0.0004685368
vn -0.9441492 0.3295179 0.0004685368
vn -0.9441492 0.3295179 0.0004685368
vn 0.9370453 0.3489884 0.01237663
vn 0.9370453 0.3489884 0.01237663
vn 0.9370453 0.3489884 0.01237663
vn 0.9370453 0.3489884 0.01237663
vn 0.07008433 0.2743643 0.9590685
vn 0.07008433 0.2743643 0.9590685
vn 0.07008433 0.2743643 0.9590685
vn 0.07008433 0.2743643 0.9590685
vn -0.05356752 0.2987667 -0.9528216
vn -0.05356752 0.2987667 -0.9528216
vn -0.05356752 0.2987667 -0.9528216
vn -0.05356752 0.2987667 -0.9528216
vn -0.9550236 0.2888837 0.06690474
vn -0.9550236 0.2888837 0.06690474
vn -0.9550236 0.2888837 0.06690474
vn -0.9550236 0.2888837 0.06690474
vn -0.9550235 0.288884 0.06690473
vn -0.9550235 0.288884 0.06690473
vn 0.9572376 0.2837076 -0.05662318
vn 0.9572376 0.2837076 -0.05662318
vn 0.9572376 0.2837076 -0.05662318
vn 0.9572376 0.2837076 -0.05662318
vn 0.9572376 0.2837077 -0.05662328
vn 0.9572376 0.2837077 -0.05662328
vn -0.004329985 0.2538747 0.9672273
vn -0.004329985 0.2538747 0.9672273
vn -0.004329985 0.2538747 0.9672273
vn -0.004329985 0.2538747 0.9672273
vn -0.004352764 0.2540911 0.9671705
vn -0.004352764 0.2540911 0.9671705
vn 5.365251E-05 0.2965712 -0.9550107
vn 5.365251E-05 0.2965712 -0.9550107
vn 5.365251E-05 0.2965712 -0.9550107
vn 5.365251E-05 0.2965712 -0.9550107
vn 5.633839E-05 0.2962559 -0.9551086
vn 5.633839E-05 0.2962559 -0.9551086
vn -0.9706559 0.2404728 -8.836159E-05
vn -0.9706559 0.2404728 -8.836159E-05
vn -0.9706559 0.2404728 -8.836159E-05
vn -0.9706559 0.2404728 -8.836159E-05
vn -0.9708527 0.2396772 -9.734945E-05
vn -0.9708527 0.2396772 -9.734945E-05
vn 0.9508125 0.3097093 0.005974793
vn 0.9508125 0.3097093 0.005974793
vn 0.9508125 0.3097093 0.005974793
vn 0.9508125 0.3097093 0.005974793
vn 0.9506165 0.3103102 0.005980726
vn 0.9506165 0.3103102 0.005980726
vn 0.06649631 -0.9965647 0.04936767
vn 0.06649631 -0.9965647 0.04936767
vn 0.06649631 -0.9965647 0.04936767
vn 0.06649631 -0.9965647 0.04936767
vn 0.06670924 -0.9953793 -0.06906389
vn 0.06670924 -0.9953793 -0.06906389
vn 0.06670924 -0.9953793 -0.06906389
vn 0.06670924 -0.9953793 -0.06906389
vn -0.05166423 -0.9962465 -0.06945305
vn -0.05166423 -0.9962465 -0.06945305
vn -0.05166423 -0.9962465 -0.06945305
vn -0.05166423 -0.9962465 -0.06945305
vn 0 -1 1.62917E-07
vn 0 -1 1.62917E-07
vn 0 -1 1.62917E-07
vn 0 -1 1.62917E-07
vn 0 -1 1.62917E-07

vt 0.8546793 0.2947453
vt 0.8458292 0.2904366
vt 0.84843 0.2998907
vt 0.8486328 0.2812684
vt 0.8458292 0.2904366
vt 0.8546793 0.2866507
vt 0.8458292 0.3080354
vt 0.8501373 0.3168437
vt 0.8539239 0.3080358
vt 0.8546793 0.2866507
vt 0.8458292 0.2904366
vt 0.8546793 0.2947453
vt 0.8389636 0.7104486
vt 0.8280041 0.7104399
vt 0.828004 0.7214049
vt 0.8389728 0.7214008
vt 0.7993352 0.6447977
vt 0.8124728 0.6508705
vt 0.8054549 0.6378985
vt 0.8086275 0.6545629
vt 0.792287 0.6507211
vt 0.8047823 0.6582552
vt 0.7886676 0.6778579
vt 0.8021634 0.6685912
vt 0.7878245 0.6685565
vt 0.8035613 0.6737358
vt 0.7925206 0.6863261
vt 0.8049593 0.6788802
vt 0.7994212 0.6924046
vt 0.8049593 0.6788802
vt 0.7925206 0.6863261
vt 0.8087161 0.682663
vt 0.8054383 0.6994088
vt 0.8124728 0.6864458
vt 0.7919199 0.6570395
vt 0.8047823 0.6582552
vt 0.792287 0.6507211
vt 0.8034729 0.6634232
vt 0.7878245 0.6685565
vt 0.8021634 0.6685912
vt 0.7815648 0.7200778
vt 0.7636914 0.7290153
vt 0.7815652 0.7290153
vt 0.7636909 0.7200778
vt 0.7815644 0.7111403
vt 0.7636905 0.7111403
vt 0.8419862 0.6421682
vt 0.8527614 0.647872
vt 0.8477994 0.6378985
vt 0.8496631 0.650646
vt 0.8371083 0.6474708
vt 0.8465648 0.65342
vt 0.8358363 0.6680804
vt 0.8441294 0.6613737
vt 0.8333715 0.661323
vt 0.8452994 0.6653643
vt 0.8374089 0.6750937
vt 0.8464694 0.6693551
vt 0.8479396 0.684838
vt 0.8527614 0.674796
vt 0.8464694 0.6693551
vt 0.8374089 0.6750937
vt 0.8333715 0.661323
vt 0.8441294 0.6613737
vt 0.8465648 0.65342
vt 0.8371083 0.6474708
vt 0.7946103 0.717104
vt 0.7878312 0.717104
vt 0.7878245 0.7306539
vt 0.7946037 0.7306539
vt 0.8013895 0.717104
vt 0.8013828 0.7306539
vt 0.8533251 0.7047334
vt 0.8598707 0.7096938
vt 0.8633723 0.707385
vt 0.8613135 0.6994663
vt 0.8531085 0.7227588
vt 0.8598999 0.7176378
vt 0.8585372 0.7136709
vt 0.8499998 0.7137094
vt 0.8571526 0.7253185
vt 0.8598999 0.7176378
vt 0.8531085 0.7227588
vt 0.8616362 0.7188143
vt 0.8611966 0.7278783
vt 0.8633723 0.7199909
vt 0.8520812 0.709358
vt 0.8598707 0.7096938
vt 0.8533251 0.7047334
vt 0.8592038 0.7116824
vt 0.8499998 0.7137094
vt 0.8585372 0.7136709
vt 0.8539239 0.2999406
vt 0.8458293 0.2999404
vt 0.8458292 0.3080354
vt 0.8539239 0.3080358
vt 0.3165947 0.7929742
vt 0.2978073 0.7874877
vt 0.2967103 0.7925189
vt 0.3160113 0.7958428
vt 0.3155508 0.7987338
vt 0.2960758 0.7976266
vt 0.2959809 0.8027731
vt 0.3153937 0.8016573
vt 0.3157595 0.8045615
vt 0.2965603 0.8078897
vt 0.2978151 0.8128804
vt 0.3165947 0.8073677
vt 0.3160113 0.7958428
vt 0.2967103 0.7925189
vt 0.2960758 0.7976266
vt 0.3155508 0.7987338
vt 0.3153937 0.8016573
vt 0.2959809 0.8027731
vt 0.2965603 0.8078897
vt 0.3157595 0.8045615
vt 0.8017222 0.3474838
vt 0.7993982 0.3412405
vt 0.7962458 0.3454358
vt 0.8033912 0.342297
vt 0.8071987 0.3495317
vt 0.8071516 0.3440768
vt 0.8213064 0.340714
vt 0.8149453 0.3413633
vt 0.8182355 0.3456893
vt 0.8171386 0.3378663
vt 0.8243774 0.3357386
vt 0.8193318 0.3343692
vt 0.8182355 0.3456893
vt 0.8149453 0.3413633
vt 0.8071516 0.3440768
vt 0.8071987 0.3495317
vt 0.7962458 0.3454358
vt 0.7993982 0.3412405
vt 0.7948274 0.3343692
vt 0.789773 0.3357055
vt 0.8290067 0.3066809
vt 0.823586 0.3066394
vt 0.8203272 0.3185768
vt 0.8250832 0.3215891
vt 0.8135256 0.2812684
vt 0.8110813 0.2863214
vt 0.8201392 0.2947522
vt 0.8247133 0.2918742
vt 0.82686 0.2992776
vt 0.823586 0.3066394
vt 0.8290067 0.3066809
vt 0.8214775 0.300805
vt 0.8247133 0.2918742
vt 0.8201392 0.2947522
vt 0.8193247 0.3267136
vt 0.8110813 0.3268048
vt 0.8135664 0.3318379
vt 0.8161062 0.3231374
vt 0.8250832 0.3215891
vt 0.8203272 0.3185768
vt 0.7874436 0.3220666
vt 0.7803121 0.3282907
vt 0.7851639 0.3312143
vt 0.7806271 0.3228412
vt 0.7897234 0.3129189
vt 0.7841566 0.3129069
vt 0.7783089 0.2879793
vt 0.7801021 0.2975822
vt 0.7849303 0.2946902
vt 0.7741492 0.2923413
vt 0.7716876 0.2812684
vt 0.768958 0.2863017
vt 0.7873268 0.3038044
vt 0.7841566 0.3129069
vt 0.7897234 0.3129189
vt 0.7834274 0.3048849
vt 0.7849303 0.2946902
vt 0.7801021 0.2975822
vt 0.7784238 0.3378013
vt 0.768958 0.3393529
vt 0.7716838 0.3443883
vt 0.7742344 0.3334011
vt 0.7851639 0.3312143
vt 0.7803121 0.3282907
vt 0.8499421 0.7104318
vt 0.8389636 0.7104486
vt 0.8389728 0.7214008
vt 0.8499417 0.7213969
vt 0.8499422 0.6994663
vt 0.8389729 0.6994703
vt 0.8389636 0.7104486
vt 0.8499421 0.7104318
vt 0.8389729 0.6994703
vt 0.828004 0.6994746
vt 0.8280041 0.7104399
vt 0.8389636 0.7104486
vt 0.2934529 0.8156166
vt 0.2978151 0.8128804
vt 0.2965603 0.8078897
vt 0.2895024 0.8123169
vt 0.291423 0.8075415

usemtl LOW-POLY-COLORS
usemap LOW-POLY-COLORS
f 2/2/2 1/1/1 3/3/3
f 5/5/5 4/4/4 6/6/6
f 8/8/8 7/7/7 9/9/9
f 11/11/11 10/10/10 12/12/12
f 14/14/14 13/13/13 15/15/15
f 15/15/15 13/13/13 16/16/16
f 18/18/18 17/17/17 19/19/19
f 20/20/20 17/17/17 18/18/18
f 20/20/20 21/21/21 17/17/17
f 22/22/22 21/21/21 20/20/20
f 24/24/24 23/23/23 25/25/25
f 26/26/26 23/23/23 24/24/24
f 26/26/26 27/27/27 23/23/23
f 28/28/28 27/27/27 26/26/26
f 30/30/30 29/29/29 31/31/31
f 32/32/32 29/29/29 30/30/30
f 32/32/32 33/33/33 29/29/29
f 34/34/34 33/33/33 32/32/32
f 36/36/36 35/35/35 37/37/37
f 38/38/38 35/35/35 36/36/36
f 38/38/38 39/39/39 35/35/35
f 40/40/40 39/39/39 38/38/38
f 42/42/42 41/41/41 43/43/43
f 44/44/44 41/41/41 42/42/42
f 44/44/44 45/45/45 41/41/41
f 46/46/46 45/45/45 44/44/44
f 48/48/48 47/47/47 49/49/49
f 50/50/50 47/47/47 48/48/48
f 50/50/50 51/51/51 47/47/47
f 52/52/52 51/51/51 50/50/50
f 54/54/54 53/53/53 55/55/55
f 56/56/56 53/53/53 54/54/54
f 56/56/56 57/57/57 53/53/53
f 58/58/58 57/57/57 56/56/56
f 60/60/60 59/59/59 61/61/61
f 61/61/61 59/59/59 62/62/62
f 64/64/64 63/63/63 65/65/65
f 65/65/65 63/63/63 66/66/66
f 68/68/68 67/67/67 69/69/69
f 69/69/69 67/67/67 70/70/70
f 67/67/67 71/71/71 70/70/70
f 70/70/70 71/71/71 72/72/72
f 74/74/74 73/73/73 75/75/75
f 75/75/75 73/73/73 76/76/76
f 78/78/78 77/77/77 79/79/79
f 79/79/79 77/77/77 80/80/80
f 82/82/82 81/81/81 83/83/83
f 84/84/84 81/81/81 82/82/82
f 84/84/84 85/85/85 81/81/81
f 86/86/86 85/85/85 84/84/84
f 88/88/88 87/87/87 89/89/89
f 90/90/90 87/87/87 88/88/88
f 90/90/90 91/91/91 87/87/87
f 92/92/92 91/91/91 90/90/90
f 94/94/94 93/93/93 95/95/95
f 95/95/95 93/93/93 96/96/96
f 98/98/98 97/97/97 99/99/99
f 99/99/99 97/97/97 100/100/100
f 102/102/102 101/101/101 103/103/103
f 103/103/103 101/101/101 104/104/104
f 106/106/106 105/105/105 107/107/107
f 107/107/107 105/105/105 108/108/108
f 110/110/110 109/109/109 111/111/111
f 111/111/111 109/109/109 112/112/112
f 114/114/114 113/113/113 115/115/115
f 115/115/115 113/113/113 116/116/116
f 118/118/118 117/117/117 119/119/119
f 120/120/120 117/117/117 118/118/118
f 120/120/120 121/121/121 117/117/117
f 122/122/122 121/121/121 120/120/120
f 124/124/124 123/123/123 125/125/125
f 126/126/126 123/123/123 124/124/124
f 126/126/126 127/127/127 123/123/123
f 128/128/128 127/127/127 126/126/126
f 130/130/130 129/129/129 131/131/131
f 131/131/131 129/129/129 132/132/132
f 134/134/134 133/133/133 135/135/135
f 135/135/135 133/133/133 136/136/136
f 138/138/138 137/137/137 139/139/139
f 139/139/139 137/137/137 140/140/140
f 142/142/142 141/141/141 143/143/143
f 143/143/143 141/141/141 144/144/144
f 146/146/146 145/145/145 147/147/147
f 148/148/148 145/145/145 146/146/146
f 148/148/148 149/149/149 145/145/145
f 150/150/150 149/149/149 148/148/148
f 152/152/152 151/151/151 153/153/153
f 154/154/154 151/151/151 152/152/152
f 154/154/154 155/155/155 151/151/151
f 156/156/156 155/155/155 154/154/154
f 158/158/158 157/157/157 159/159/159
f 160/160/160 157/157/157 158/158/158
f 160/160/160 161/161/161 157/157/157
f 162/162/162 161/161/161 160/160/160
f 164/164/164 163/163/163 165/165/165
f 166/166/166 163/163/163 164/164/164
f 166/166/166 167/167/167 163/163/163
f 168/168/168 167/167/167 166/166/166
f 170/170/170 169/169/169 171/171/171
f 172/172/172 169/169/169 170/170/170
f 172/172/172 173/173/173 169/169/169
f 174/174/174 173/173/173 172/172/172
f 176/176/176 175/175/175 177/177/177
f 178/178/178 175/175/175 176/176/176
f 178/178/178 179/179/179 175/175/175
f 180/180/180 179/179/179 178/178/178
f 182/182/182 181/181/181 183/183/183
f 183/183/183 181/181/181 184/184/184
f 186/186/186 185/185/185 187/187/187
f 187/187/187 185/185/185 188/188/188
f 190/190/190 189/189/189 191/191/191
f 191/191/191 189/189/189 192/192/192
f 194/194/194 193/193/193 195/195/195
f 196/196/196 195/195/195 193/193/193
f 197/197/197 195/195/195 196/196/196
