mtllib ./tree-triangle_orange_30.mtl
g tree-triangle_orange
v 0.9897619 1.104407 0.9897615
v 4.721508E-10 4.817246 6.874057E-07
v 0.9897615 1.104407 -0.989762
v -0.9897619 1.104407 -0.9897614
v 4.721508E-10 4.817246 6.874057E-07
v -0.9897615 1.104407 0.9897621
v 0.9897615 1.104407 -0.989762
v 4.721508E-10 4.817246 6.874057E-07
v -0.9897619 1.104407 -0.9897614
v -0.9897615 1.104407 0.9897621
v 4.721508E-10 4.817246 6.874057E-07
v 0.9897619 1.104407 0.9897615
v 0.1242997 2.415011E-07 -0.02790716
v 0.07682148 2.258006E-07 0.118216
v 0.07682148 3.093703 0.1182164
v 0.1242997 3.093703 -0.02790678
v -0.07682136 2.258006E-07 0.118216
v -0.1242997 2.415011E-07 -0.0279071
v -0.1242997 3.093703 -0.02790674
v -0.07682135 3.093703 0.1182164
v 7.645495E-09 2.510365E-07 -0.1182163
v 0.1242997 2.415011E-07 -0.02790716
v 0.1242997 3.093703 -0.02790678
v 1.230218E-08 3.093703 -0.1182159
v 0.07682148 2.258006E-07 0.118216
v -0.07682136 2.258006E-07 0.118216
v -0.07682135 3.093703 0.1182164
v 0.07682148 3.093703 0.1182164
v -0.1242997 2.415011E-07 -0.0279071
v 7.645495E-09 2.510365E-07 -0.1182163
v 1.230218E-08 3.093703 -0.1182159
v -0.1242997 3.093703 -0.02790674
v 0.1242997 2.415011E-07 -0.02790716
v 7.645495E-09 2.510365E-07 -0.1182163
v -0.1242997 2.415011E-07 -0.0279071
v 0.07682148 2.258006E-07 0.118216
v -0.07682136 2.258006E-07 0.118216
v 0.9897619 1.104407 0.9897615
v 0.9897615 1.104407 -0.989762
v -0.9897619 1.104407 -0.9897614
v -0.9897615 1.104407 0.9897621

vn 0.9662563 0.2575828 -1.253792E-07
vn 0.9662563 0.2575828 -1.253792E-07
vn 0.9662563 0.2575828 -1.253792E-07
vn -0.9662563 0.2575828 3.134481E-07
vn -0.9662563 0.2575828 3.134481E-07
vn -0.9662563 0.2575828 3.134481E-07
vn -3.134481E-07 0.257583 -0.9662561
vn -3.134481E-07 0.257583 -0.9662561
vn -3.134481E-07 0.257583 -0.9662561
vn 3.13448E-07 0.2575826 0.9662563
vn 3.13448E-07 0.2575826 0.9662563
vn 3.13448E-07 0.2575826 0.9662563
vn 0.9510565 0 0.3090166
vn 0.9510565 0 0.3090166
vn 0.9510565 0 0.3090166
vn 0.9510565 0 0.3090166
vn -0.9510565 0 0.3090172
vn -0.9510565 0 0.3090172
vn -0.9510565 0 0.3090172
vn -0.9510565 0 0.3090172
vn 0.5877856 0 -0.8090168
vn 0.5877856 0 -0.8090168
vn 0.5877856 0 -0.8090168
vn 0.5877856 0 -0.8090168
vn 1.454787E-07 -1.212663E-07 1
vn 1.454787E-07 -1.212663E-07 1
vn 1.454787E-07 -1.212663E-07 1
vn 1.454787E-07 -1.212663E-07 1
vn -0.5877859 1.010843E-07 -0.8090165
vn -0.5877859 1.010843E-07 -0.8090165
vn -0.5877859 1.010843E-07 -0.8090165
vn -0.5877859 1.010843E-07 -0.8090165
vn 0 -1 -1.069327E-07
vn 0 -1 -1.069327E-07
vn 0 -1 -1.069327E-07
vn 0 -1 -1.069327E-07
vn 0 -1 -1.069327E-07
vn 0 -1 -3.01106E-07
vn 0 -1 -3.01106E-07
vn 0 -1 -3.01106E-07
vn 0 -1 -3.01106E-07

vt 0.4385217 0.5488107
vt 0.4602446 0.5881799
vt 0.4602446 0.5432153
vt 0.415356 0.5855653
vt 0.4602446 0.5881799
vt 0.4222052 0.5642045
vt 0.4196789 0.6075768
vt 0.4602446 0.5881799
vt 0.415356 0.5855653
vt 0.4222052 0.5642045
vt 0.4602446 0.5881799
vt 0.4385217 0.5488107
vt 0.1737607 0.811222
vt 0.1737607 0.8133689
vt 0.2169894 0.8133689
vt 0.2169894 0.8112221
vt 0.1737607 0.8155158
vt 0.1737607 0.8176627
vt 0.2169894 0.8176627
vt 0.2169894 0.8155158
vt 0.1737607 0.8198096
vt 0.1737607 0.8219565
vt 0.2169894 0.8219564
vt 0.2169894 0.8198096
vt 0.1737607 0.8133689
vt 0.1737607 0.8155158
vt 0.2169894 0.8155158
vt 0.2169894 0.8133689
vt 0.1737607 0.8176627
vt 0.1737607 0.8198096
vt 0.2169894 0.8198096
vt 0.2169894 0.8176627
vt 0.4625402 0.5302143
vt 0.4607991 0.5302143
vt 0.460261 0.5318702
vt 0.4630782 0.5318702
vt 0.4616696 0.5328936
vt 0.4385217 0.5488107
vt 0.4602446 0.5432153
vt 0.4546491 0.5214924
vt 0.4329262 0.5270878

usemtl LOW-POLY-COLORS
usemap LOW-POLY-COLORS
f 2/2/2 1/1/1 3/3/3
f 5/5/5 4/4/4 6/6/6
f 8/8/8 7/7/7 9/9/9
f 11/11/11 10/10/10 12/12/12
f 14/14/14 13/13/13 15/15/15
f 15/15/15 13/13/13 16/16/16
f 18/18/18 17/17/17 19/19/19
f 19/19/19 17/17/17 20/20/20
f 22/22/22 21/21/21 23/23/23
f 23/23/23 21/21/21 24/24/24
f 26/26/26 25/25/25 27/27/27
f 27/27/27 25/25/25 28/28/28
f 30/30/30 29/29/29 31/31/31
f 31/31/31 29/29/29 32/32/32
f 34/34/34 33/33/33 35/35/35
f 36/36/36 35/35/35 33/33/33
f 37/37/37 35/35/35 36/36/36
f 39/39/39 38/38/38 40/40/40
f 40/40/40 38/38/38 41/41/41
