mtllib ./tree-fir_7.mtl
g tree-fir
v 0.3430744 4.800948 0.5141533
v -0.1927342 5.791656 0.06568954
v 0.2703477 4.818953 -0.4800427
v -0.7234705 4.84861 -0.4068419
v -0.1927342 5.791656 0.06568954
v -0.6507437 4.830606 0.5873541
v 0.2703477 4.818953 -0.4800427
v -0.1927342 5.791656 0.06568954
v -0.7234705 4.84861 -0.4068419
v -0.6507437 4.830606 0.5873541
v -0.1927342 5.791656 0.06568954
v 0.3430744 4.800948 0.5141533
v -0.7524843 2.772666 0.5931824
v -1.267969 0.6948806 1.137055
v -1.261523 0.7183465 -1.184249
v -0.74981 2.794129 -0.5391891
v 1.060652 0.7355502 -1.17852
v 1.054206 0.7120842 1.142784
v 0.3800902 2.785283 0.5958436
v 0.3827647 2.806747 -0.536528
v -1.267969 0.6948806 1.137055
v 1.054206 0.7120842 1.142784
v 1.060652 0.7355502 -1.17852
v -1.261523 0.7183465 -1.184249
v -0.74981 2.794129 -0.5391891
v -1.261523 0.7183465 -1.184249
v 1.060652 0.7355502 -1.17852
v 0.3827647 2.806747 -0.536528
v -0.6001524 3.879557 0.5112802
v -1.068989 2.209534 1.029824
v -1.191278 2.244025 -0.8646938
v -0.6570545 3.895607 -0.3702596
v 0.7023837 2.182718 -0.9879451
v 0.8246719 2.148228 0.9065727
v 0.2815464 3.890497 0.4543786
v 0.2246444 3.906546 -0.4271614
v 0.7023837 2.182718 -0.9879451
v 0.2246444 3.906546 -0.4271614
v -0.6570545 3.895607 -0.3702596
v -1.191278 2.244025 -0.8646938
v -1.068989 2.209534 1.029824
v -0.6001524 3.879557 0.5112802
v 0.2815464 3.890497 0.4543786
v 0.8246719 2.148228 0.9065727
v -0.9106202 3.583284 0.7536039
v 0.527643 3.658073 0.7631395
v 0.5364693 3.68541 -0.6759247
v -0.9017937 3.61062 -0.6854604
v 0.0307192 5.009464 0.280072
v 0.527643 3.658073 0.7631395
v -0.9106202 3.583284 0.7536039
v -0.4148256 5.004533 0.2773454
v -0.9017937 3.61062 -0.6854604
v -0.4120935 5.012994 -0.1681197
v -0.4148256 5.004533 0.2773454
v -0.9106202 3.583284 0.7536039
v -0.4120935 5.012994 -0.1681197
v -0.9017937 3.61062 -0.6854604
v 0.5364693 3.68541 -0.6759247
v 0.03345142 5.017926 -0.165393
v -0.6507437 4.830606 0.5873541
v 0.3430744 4.800948 0.5141533
v 0.2703477 4.818953 -0.4800427
v -0.7234705 4.84861 -0.4068419
v -0.1410327 1.026428 -0.1404891
v -0.1637708 -0.000492611 -0.2349974
v 0.06150627 -0.0004925863 -0.08368413
v -0.01297976 1.028594 -0.0544791
v -0.0551122 1.023277 0.09385311
v -0.01261517 -0.0004925439 0.1772694
v -0.2837019 -0.0004925422 0.1872342
v -0.2092044 1.017825 0.09951739
v -0.2623062 1.019772 -0.04531415
v -0.3771213 -0.0004925837 -0.06756071
v -0.1637708 -0.000492611 -0.2349974
v -0.1410327 1.026428 -0.1404891
v -0.01297976 1.028594 -0.0544791
v 0.06150627 -0.0004925863 -0.08368413
v -0.01261517 -0.0004925439 0.1772694
v -0.0551122 1.023277 0.09385311
v -0.2092044 1.017825 0.09951739
v -0.2837019 -0.0004925422 0.1872342
v -0.3771213 -0.0004925837 -0.06756071
v -0.2623062 1.019772 -0.04531415
v 0.3800902 2.785283 0.5958436
v 1.054206 0.7120842 1.142784
v -1.267969 0.6948806 1.137055
v -0.7524843 2.772666 0.5931824
v 0.527643 3.658073 0.7631395
v 0.0307192 5.009464 0.280072
v 0.03345142 5.017926 -0.165393
v 0.5364693 3.68541 -0.6759247
v 0.06150627 -0.0004925863 -0.08368413
v -0.1637708 -0.000492611 -0.2349974
v -0.3771213 -0.0004925837 -0.06756071
v -0.01261517 -0.0004925439 0.1772694
v -0.2837019 -0.0004925422 0.1872342
v -1.068989 2.209534 1.029824
v 0.8246719 2.148228 0.9065727
v 0.7023837 2.182718 -0.9879451
v -1.191278 2.244025 -0.8646938

vn 0.8887081 0.4549451 -0.05677125
vn 0.8887081 0.4549451 -0.05677125
vn 0.8887081 0.4549451 -0.05677125
vn -0.884338 0.461098 0.07304081
vn -0.884338 0.461098 0.07304081
vn -0.884338 0.461098 0.07304081
vn -0.05087052 0.4701355 -0.8811269
vn -0.05087052 0.4701355 -0.8811269
vn -0.05087052 0.4701355 -0.8811269
vn 0.07897477 0.4462341 0.8914248
vn 0.07897477 0.4462341 0.8914248
vn 0.07897477 0.4462341 0.8914248
vn -0.970758 0.2400597 0.0005592775
vn -0.970758 0.2400597 0.0005592775
vn -0.970758 0.2400597 0.0005592775
vn -0.970758 0.2400597 0.0005592775
vn 0.9507152 0.3099965 0.006543511
vn 0.9507152 0.3099965 0.006543511
vn 0.9507152 0.3099965 0.006543511
vn 0.9507152 0.3099965 0.006543511
vn 0.007432657 -0.9999216 -0.01008753
vn 0.007432657 -0.9999216 -0.01008753
vn 0.007432657 -0.9999216 -0.01008753
vn 0.007432657 -0.9999216 -0.01008753
vn -0.0002389853 0.2964028 -0.9550629
vn -0.0002389853 0.2964028 -0.9550629
vn -0.0002389853 0.2964028 -0.9550629
vn -0.0002389853 0.2964028 -0.9550629
vn -0.9550235 0.2888839 0.06690489
vn -0.9550235 0.2888839 0.06690489
vn -0.9550235 0.2888839 0.06690489
vn -0.9550235 0.2888839 0.06690489
vn 0.9572375 0.2837079 -0.05662319
vn 0.9572375 0.2837079 -0.05662319
vn 0.9572375 0.2837079 -0.05662319
vn 0.9572375 0.2837079 -0.05662319
vn -0.05641652 0.2987632 -0.9526582
vn -0.05641652 0.2987632 -0.9526582
vn -0.05641652 0.2987632 -0.9526582
vn -0.05641652 0.2987632 -0.9526582
vn 0.06724702 0.2743605 0.9592727
vn 0.06724702 0.2743605 0.9592727
vn 0.06724702 0.2743605 0.9592727
vn 0.06724702 0.2743605 0.9592727
vn 0.05204384 -0.9984706 -0.01864767
vn 0.05204384 -0.9984706 -0.01864767
vn 0.05204384 -0.9984706 -0.01864767
vn 0.05204384 -0.9984706 -0.01864767
vn -0.01998449 0.3269058 0.9448456
vn -0.01998449 0.3269058 0.9448456
vn -0.01998449 0.3269058 0.9448456
vn -0.01998449 0.3269058 0.9448456
vn -0.9441492 0.3295181 0.0004684724
vn -0.9441492 0.3295181 0.0004684724
vn -0.9441492 0.3295181 0.0004684724
vn -0.9441492 0.3295181 0.0004684724
vn -0.008793211 0.351759 -0.9360493
vn -0.008793211 0.351759 -0.9360493
vn -0.008793211 0.351759 -0.9360493
vn -0.008793211 0.351759 -0.9360493
vn -0.03098989 -0.9993943 -0.01583161
vn -0.03098989 -0.9993943 -0.01583161
vn -0.03098989 -0.9993943 -0.01583161
vn -0.03098989 -0.9993943 -0.01583161
vn 0.5561679 0.06385724 -0.828613
vn 0.5561679 0.06385724 -0.828613
vn 0.5561679 0.06385724 -0.828613
vn 0.5561679 0.06385724 -0.828613
vn 0.03554586 0.08290437 0.9959234
vn 0.03554586 0.08290437 0.9959234
vn 0.03554586 0.08290437 0.9959234
vn 0.03554586 0.08290437 0.9959234
vn -0.6161438 0.08605093 -0.782919
vn -0.6161438 0.08605093 -0.782919
vn -0.6161438 0.08605093 -0.782919
vn -0.6161438 0.08605093 -0.782919
vn 0.9598903 0.0619211 0.2734525
vn 0.9598903 0.0619211 0.2734525
vn 0.9598903 0.0619211 0.2734525
vn 0.9598903 0.0619211 0.2734525
vn -0.9342303 0.09777307 0.3430076
vn -0.9342303 0.09777307 0.3430076
vn -0.9342303 0.09777307 0.3430076
vn -0.9342303 0.09777307 0.3430076
vn -0.004541378 0.2539904 0.9671961
vn -0.004541378 0.2539904 0.9671961
vn -0.004541378 0.2539904 0.9671961
vn -0.004541378 0.2539904 0.9671961
vn 0.9370456 0.3489879 0.01237661
vn 0.9370456 0.3489879 0.01237661
vn 0.9370456 0.3489879 0.01237661
vn 0.9370456 0.3489879 0.01237661
vn 0 -1 1.62917E-07
vn 0 -1 1.62917E-07
vn 0 -1 1.62917E-07
vn 0 -1 1.62917E-07
vn 0 -1 1.62917E-07
vn -0.03339599 -0.9993135 -0.01603736
vn -0.03339599 -0.9993135 -0.01603736
vn -0.03339599 -0.9993135 -0.01603736
vn -0.03339599 -0.9993135 -0.01603736

vt 0.3306877 0.4688827
vt 0.3206054 0.4639741
vt 0.3235682 0.4747446
vt 0.3237993 0.4535292
vt 0.3206054 0.4639741
vt 0.3306877 0.4596611
vt 0.3307263 0.4627515
vt 0.3356342 0.4727861
vt 0.3399479 0.4627519
vt 0.3306877 0.4596611
vt 0.3206054 0.4639741
vt 0.3306877 0.4688827
vt 0.2851707 0.4284435
vt 0.2647399 0.428394
vt 0.2701948 0.4491626
vt 0.2879179 0.438553
vt 0.2853009 0.3925483
vt 0.2699399 0.4075525
vt 0.2877439 0.4182876
vt 0.2953005 0.4110316
vt 0.3420858 0.4320095
vt 0.3206054 0.4320177
vt 0.3206054 0.4534906
vt 0.3420858 0.4534824
vt 0.2879179 0.438553
vt 0.2701948 0.4491626
vt 0.2852772 0.4644573
vt 0.2953005 0.4459869
vt 0.3120852 0.4213398
vt 0.2953391 0.421261
vt 0.3002805 0.438115
vt 0.3143845 0.4291821
vt 0.3128431 0.3925483
vt 0.2997578 0.4042636
vt 0.314478 0.4135247
vt 0.3205668 0.4080734
vt 0.3130615 0.4501599
vt 0.3205668 0.4345281
vt 0.3143845 0.4291821
vt 0.3002805 0.438115
vt 0.2953391 0.421261
vt 0.3120852 0.4213398
vt 0.314478 0.4135247
vt 0.2997578 0.4042636
vt 0.2780684 0.4644958
vt 0.2647464 0.4644958
vt 0.2647399 0.4778097
vt 0.2780619 0.4778097
vt 0.3365192 0.408362
vt 0.325323 0.399877
vt 0.3206054 0.4123357
vt 0.3352088 0.4122697
vt 0.3249311 0.4249272
vt 0.3365479 0.4161674
vt 0.3352088 0.4122697
vt 0.3206054 0.4123357
vt 0.3365479 0.4161674
vt 0.3249311 0.4249272
vt 0.3362387 0.4319709
vt 0.3399599 0.4184793
vt 0.3399479 0.4535296
vt 0.3307263 0.4535292
vt 0.3307263 0.4627515
vt 0.3399479 0.4627519
vt 0.208321 0.8194107
vt 0.1895337 0.8139241
vt 0.1884366 0.8189552
vt 0.2077376 0.8222792
vt 0.2072771 0.8251703
vt 0.1878021 0.8240631
vt 0.1877072 0.8292095
vt 0.20712 0.8280937
vt 0.2074859 0.8309979
vt 0.1882866 0.8343261
vt 0.1895413 0.8393168
vt 0.208321 0.8338041
vt 0.2077376 0.8222792
vt 0.1884366 0.8189552
vt 0.1878021 0.8240631
vt 0.2072771 0.8251703
vt 0.20712 0.8280937
vt 0.1877072 0.8292095
vt 0.1882866 0.8343261
vt 0.2074859 0.8309979
vt 0.2877439 0.4182876
vt 0.2699399 0.4075525
vt 0.2647399 0.428394
vt 0.2851707 0.4284435
vt 0.325323 0.399877
vt 0.3365192 0.408362
vt 0.3399599 0.4060934
vt 0.3364383 0.3925483
vt 0.1851792 0.842053
vt 0.1895413 0.8393168
vt 0.1882866 0.8343261
vt 0.1812287 0.8387533
vt 0.1831492 0.8339779
vt 0.3129014 0.4501994
vt 0.2953391 0.4501985
vt 0.2953391 0.4677619
vt 0.3129014 0.4677628

usemtl LOW-POLY-COLORS
usemap LOW-POLY-COLORS
f 2/2/2 1/1/1 3/3/3
f 5/5/5 4/4/4 6/6/6
f 8/8/8 7/7/7 9/9/9
f 11/11/11 10/10/10 12/12/12
f 14/14/14 13/13/13 15/15/15
f 15/15/15 13/13/13 16/16/16
f 18/18/18 17/17/17 19/19/19
f 19/19/19 17/17/17 20/20/20
f 22/22/22 21/21/21 23/23/23
f 23/23/23 21/21/21 24/24/24
f 26/26/26 25/25/25 27/27/27
f 27/27/27 25/25/25 28/28/28
f 30/30/30 29/29/29 31/31/31
f 31/31/31 29/29/29 32/32/32
f 34/34/34 33/33/33 35/35/35
f 35/35/35 33/33/33 36/36/36
f 38/38/38 37/37/37 39/39/39
f 39/39/39 37/37/37 40/40/40
f 42/42/42 41/41/41 43/43/43
f 43/43/43 41/41/41 44/44/44
f 46/46/46 45/45/45 47/47/47
f 47/47/47 45/45/45 48/48/48
f 50/50/50 49/49/49 51/51/51
f 51/51/51 49/49/49 52/52/52
f 54/54/54 53/53/53 55/55/55
f 55/55/55 53/53/53 56/56/56
f 58/58/58 57/57/57 59/59/59
f 59/59/59 57/57/57 60/60/60
f 62/62/62 61/61/61 63/63/63
f 63/63/63 61/61/61 64/64/64
f 66/66/66 65/65/65 67/67/67
f 67/67/67 65/65/65 68/68/68
f 70/70/70 69/69/69 71/71/71
f 71/71/71 69/69/69 72/72/72
f 74/74/74 73/73/73 75/75/75
f 75/75/75 73/73/73 76/76/76
f 78/78/78 77/77/77 79/79/79
f 79/79/79 77/77/77 80/80/80
f 82/82/82 81/81/81 83/83/83
f 83/83/83 81/81/81 84/84/84
f 86/86/86 85/85/85 87/87/87
f 87/87/87 85/85/85 88/88/88
f 90/90/90 89/89/89 91/91/91
f 91/91/91 89/89/89 92/92/92
f 94/94/94 93/93/93 95/95/95
f 96/96/96 95/95/95 93/93/93
f 97/97/97 95/95/95 96/96/96
f 99/99/99 98/98/98 100/100/100
f 100/100/100 98/98/98 101/101/101
