mtllib ./tree-simple_orange_28.mtl
g tree-simple_orange
v 0.6081653 1.975402 -0.0001278123
v 0.7709661 2.53441 0.3948895
v 1.011653 2.522092 -0.4846843
v -0.9651973 2.690548 0.1425608
v -0.8045586 3.882984 0.2870654
v -0.4979663 2.642519 0.5906409
v 0.778692 3.088557 -0.6119298
v 0.8051519 3.332165 0.2201805
v 0.759316 3.841944 -0.6375463
v 0.7709661 2.53441 0.3948895
v 0.8051519 3.332165 0.2201805
v 1.011653 2.522092 -0.4846843
v 0.3863618 4.991417 0.07093969
v 0.1505329 5.016638 -0.4444959
v 0.6686845 4.538928 -0.3772458
v 0.2130484 3.478725 0.6486523
v -0.4979663 2.642519 0.5906409
v -0.3016665 4.036508 0.5211822
v 0.8051519 3.332165 0.2201805
v 0.6686845 4.538928 -0.3772458
v 0.759316 3.841944 -0.6375463
v 0.8051519 3.332165 0.2201805
v 0.2130484 3.478725 0.6486523
v 0.3863618 4.991417 0.07093969
v -0.719112 4.334616 0.1812084
v 0.1505329 5.016638 -0.4444959
v 0.3863618 4.991417 0.07093969
v -0.3016665 4.036508 0.5211822
v -0.719112 4.334616 0.1812084
v 0.3863618 4.991417 0.07093969
v -0.798829 4.200209 -0.3300101
v 0.1505329 5.016638 -0.4444959
v -0.719112 4.334616 0.1812084
v 0.2130484 3.478725 0.6486523
v 0.187886 2.143493 0.4457702
v -0.4979663 2.642519 0.5906409
v -0.4979663 2.642519 0.5906409
v -0.8045586 3.882984 0.2870654
v -0.3016665 4.036508 0.5211822
v 0.6081653 1.975402 -0.0001278123
v 0.187886 2.143493 0.4457702
v 0.7709661 2.53441 0.3948895
v -0.4163896 2.061167 -0.76825
v -0.9150571 2.516182 -0.4032492
v -0.5297315 1.972946 0.05488998
v 0.3863618 4.991417 0.07093969
v 0.2130484 3.478725 0.6486523
v -0.3016665 4.036508 0.5211822
v 0.6081653 1.975402 -0.0001278123
v -0.5297315 1.972946 0.05488998
v 0.187886 2.143493 0.4457702
v -0.4979663 2.642519 0.5906409
v 0.187886 2.143493 0.4457702
v -0.5297315 1.972946 0.05488998
v -0.5297315 1.972946 0.05488998
v -0.9150571 2.516182 -0.4032492
v -0.9651973 2.690548 0.1425608
v 0.6686845 4.538928 -0.3772458
v 0.8051519 3.332165 0.2201805
v 0.3863618 4.991417 0.07093969
v -0.9651973 2.690548 0.1425608
v -0.9150571 2.516182 -0.4032492
v -0.798829 4.200209 -0.3300101
v 0.1074469 2.021105 -0.6846799
v 0.6081653 1.975402 -0.0001278123
v 1.011653 2.522092 -0.4846843
v -0.4163896 2.061167 -0.76825
v 0.2115282 3.386973 -1.013403
v -0.9150571 2.516182 -0.4032492
v -0.8045586 3.882984 0.2870654
v -0.9651973 2.690548 0.1425608
v -0.798829 4.200209 -0.3300101
v -0.798829 4.200209 -0.3300101
v -0.719112 4.334616 0.1812084
v -0.8045586 3.882984 0.2870654
v -0.5297315 1.972946 0.05488998
v -0.9651973 2.690548 0.1425608
v -0.4979663 2.642519 0.5906409
v 0.2885054 4.12521 -0.8559887
v 0.6686845 4.538928 -0.3772458
v 0.1505329 5.016638 -0.4444959
v 0.1505329 5.016638 -0.4444959
v -0.798829 4.200209 -0.3300101
v -0.490927 3.761025 -0.7857587
v 0.778692 3.088557 -0.6119298
v 1.011653 2.522092 -0.4846843
v 0.8051519 3.332165 0.2201805
v 0.2115282 3.386973 -1.013403
v -0.490927 3.761025 -0.7857587
v -0.9150571 2.516182 -0.4032492
v 0.8051519 3.332165 0.2201805
v 0.7709661 2.53441 0.3948895
v 0.2130484 3.478725 0.6486523
v 0.2130484 3.478725 0.6486523
v 0.7709661 2.53441 0.3948895
v 0.187886 2.143493 0.4457702
v -0.9150571 2.516182 -0.4032492
v -0.490927 3.761025 -0.7857587
v -0.798829 4.200209 -0.3300101
v -0.719112 4.334616 0.1812084
v -0.3016665 4.036508 0.5211822
v -0.8045586 3.882984 0.2870654
v -0.02343755 1.11499 0.06260888
v -0.01335537 2.922781 -0.04793774
v 0.05828635 2.922781 -0.112832
v 0.1188343 1.11499 -0.07947645
v -0.0228915 -4.90744E-05 0.1116801
v 0.1220354 -4.905355E-05 -0.02454135
v -0.1302305 -4.90557E-05 -0.007301128
v -0.09271089 1.11499 -0.05847567
v -0.02343755 1.11499 0.06260888
v -0.0228915 -4.90744E-05 0.1116801
v 0.007378611 -4.904731E-05 -0.167348
v 0.04683138 1.11499 -0.2011479
v -0.09271089 1.11499 -0.05847567
v -0.1302305 -4.90557E-05 -0.007301128
v 0.1220354 -4.905355E-05 -0.02454135
v 0.1188343 1.11499 -0.07947645
v 0.04683138 1.11499 -0.2011479
v 0.007378611 -4.904731E-05 -0.167348
v 0.1074469 2.021105 -0.6846799
v -0.4163896 2.061167 -0.76825
v -0.5297315 1.972946 0.05488998
v 0.6081653 1.975402 -0.0001278123
v -0.09271089 1.11499 -0.05847567
v -0.0598452 2.922781 -0.06424269
v -0.01335537 2.922781 -0.04793774
v -0.02343755 1.11499 0.06260888
v 0.04683138 1.11499 -0.2011479
v 0.01179653 2.922781 -0.1291369
v -0.0598452 2.922781 -0.06424269
v -0.09271089 1.11499 -0.05847567
v 0.1188343 1.11499 -0.07947645
v 0.05828635 2.922781 -0.112832
v 0.01179653 2.922781 -0.1291369
v 0.04683138 1.11499 -0.2011479
v 0.03981094 1.395056 -0.04844624
v -0.1672737 2.1924 -0.6082252
v -0.1840007 2.173843 -0.6219209
v 0.03546388 1.324767 -0.116908
v -0.04076258 1.410694 -0.05058127
v -0.2092009 2.193024 -0.6089559
v -0.1672737 2.1924 -0.6082252
v 0.03981094 1.395056 -0.04844624
v -0.04688536 1.339134 -0.1213367
v -0.2277912 2.18414 -0.6293073
v -0.2092009 2.193024 -0.6089559
v -0.04076258 1.410694 -0.05058127
v 0.03546388 1.324767 -0.116908
v -0.1840007 2.173843 -0.6219209
v -0.2277912 2.18414 -0.6293073
v -0.04688536 1.339134 -0.1213367
v 0.2885054 4.12521 -0.8559887
v 0.2115282 3.386973 -1.013403
v 0.759316 3.841944 -0.6375463
v 0.6686845 4.538928 -0.3772458
v 0.3173317 2.959444 -0.8505008
v 0.1074469 2.021105 -0.6846799
v 1.011653 2.522092 -0.4846843
v 0.778692 3.088557 -0.6119298
v 0.3173317 2.959444 -0.8505008
v 0.778692 3.088557 -0.6119298
v 0.759316 3.841944 -0.6375463
v 0.2115282 3.386973 -1.013403
v -0.490927 3.761025 -0.7857587
v 0.2115282 3.386973 -1.013403
v 0.2885054 4.12521 -0.8559887
v 0.1505329 5.016638 -0.4444959
v -0.4163896 2.061167 -0.76825
v 0.1074469 2.021105 -0.6846799
v 0.3173317 2.959444 -0.8505008
v 0.2115282 3.386973 -1.013403
v 0.1220354 -4.905355E-05 -0.02454135
v 0.007378611 -4.904731E-05 -0.167348
v -0.1302305 -4.90557E-05 -0.007301128
v -0.0228915 -4.90744E-05 0.1116801

vn 0.8709724 -0.4262894 0.2443036
vn 0.8709724 -0.4262894 0.2443036
vn 0.8709724 -0.4262894 0.2443036
vn -0.6918439 0.005703512 0.7220245
vn -0.6918439 0.005703512 0.7220245
vn -0.6918439 0.005703512 0.7220245
vn 0.998946 0.02436873 -0.03889918
vn 0.998946 0.02436873 -0.03889918
vn 0.998946 0.02436873 -0.03889918
vn 0.9644684 0.01641787 0.2636875
vn 0.9644684 0.01641787 0.2636875
vn 0.9644684 0.01641787 0.2636875
vn 0.6709664 0.6892987 -0.2732604
vn 0.6709664 0.6892987 -0.2732604
vn 0.6709664 0.6892987 -0.2732604
vn -0.1652601 0.07228179 0.9835977
vn -0.1652601 0.07228179 0.9835977
vn -0.1652601 0.07228179 0.9835977
vn 0.9923646 0.1218089 0.0193648
vn 0.9923646 0.1218089 0.0193648
vn 0.9923646 0.1218089 0.0193648
vn 0.6070831 0.2218574 0.7630395
vn 0.6070831 0.2218574 0.7630395
vn 0.6070831 0.2218574 0.7630395
vn -0.4743017 0.8416504 0.258191
vn -0.4743017 0.8416504 0.258191
vn -0.4743017 0.8416504 0.258191
vn -0.2503142 0.5545463 0.7936128
vn -0.2503142 0.5545463 0.7936128
vn -0.2503142 0.5545463 0.7936128
vn -0.6556383 0.7491111 -0.09471504
vn -0.6556383 0.7491111 -0.09471504
vn -0.6556383 0.7491111 -0.09471504
vn 0.09768653 -0.1513018 0.9836489
vn 0.09768653 -0.1513018 0.9836489
vn 0.09768653 -0.1513018 0.9836489
vn -0.4463086 0.1071175 0.888445
vn -0.4463086 0.1071175 0.888445
vn -0.4463086 0.1071175 0.888445
vn 0.4583344 -0.5980653 0.6574553
vn 0.4583344 -0.5980653 0.6574553
vn 0.4583344 -0.5980653 0.6574553
vn -0.7295787 -0.662066 -0.1714162
vn -0.7295787 -0.662066 -0.1714162
vn -0.7295787 -0.662066 -0.1714162
vn 0.137574 0.3395895 0.9304582
vn 0.137574 0.3395895 0.9304582
vn 0.137574 0.3395895 0.9304582
vn 0.01984661 -0.9292189 0.3689966
vn 0.01984661 -0.9292189 0.3689966
vn 0.01984661 -0.9292189 0.3689966
vn -0.27169 -0.5933694 0.7576922
vn -0.27169 -0.5933694 0.7576922
vn -0.27169 -0.5933694 0.7576922
vn -0.8465399 -0.5246873 0.08985206
vn -0.8465399 -0.5246873 0.08985206
vn -0.8465399 -0.5246873 0.08985206
vn 0.9134324 0.2588 0.3141079
vn 0.9134324 0.2588 0.3141079
vn 0.9134324 0.2588 0.3141079
vn -0.9907176 0.07335452 -0.1144451
vn -0.9907176 0.07335452 -0.1144451
vn -0.9907176 0.07335452 -0.1144451
vn 0.508983 -0.7500254 -0.4223721
vn 0.508983 -0.7500254 -0.4223721
vn 0.508983 -0.7500254 -0.4223721
vn -0.5299513 0.09517447 -0.8426703
vn -0.5299513 0.09517447 -0.8426703
vn -0.5299513 0.09517447 -0.8426703
vn -0.9903716 0.1266424 0.05590853
vn -0.9903716 0.1266424 0.05590853
vn -0.9903716 0.1266424 0.05590853
vn -0.9734824 0.2070019 0.09737623
vn -0.9734824 0.2070019 0.09737623
vn -0.9734824 0.2070019 0.09737623
vn -0.6380206 -0.4623976 0.6157257
vn -0.6380206 -0.4623976 0.6157257
vn -0.6380206 -0.4623976 0.6157257
vn 0.4917588 0.4265267 -0.7591102
vn 0.4917588 0.4265267 -0.7591102
vn 0.4917588 0.4265267 -0.7591102
vn -0.4773209 0.4491285 -0.7552803
vn -0.4773209 0.4491285 -0.7552803
vn -0.4773209 0.4491285 -0.7552803
vn 0.9268131 0.3514252 -0.1323546
vn 0.9268131 0.3514252 -0.1323546
vn 0.9268131 0.3514252 -0.1323546
vn -0.3771199 -0.1522284 -0.9135683
vn -0.3771199 -0.1522284 -0.9135683
vn -0.3771199 -0.1522284 -0.9135683
vn 0.6034173 0.1458338 0.7839771
vn 0.6034173 0.1458338 0.7839771
vn 0.6034173 0.1458338 0.7839771
vn 0.1859731 -0.1510251 0.9708787
vn 0.1859731 -0.1510251 0.9708787
vn 0.1859731 -0.1510251 0.9708787
vn -0.7879872 0.08092961 -0.6103495
vn -0.7879872 0.08092961 -0.6103495
vn -0.7879872 0.08092961 -0.6103495
vn -0.4746787 0.2849914 0.8327426
vn -0.4746787 0.2849914 0.8327426
vn -0.4746787 0.2849914 0.8327426
vn 0.6948534 0.0382807 0.7181318
vn 0.6948534 0.0382807 0.7181318
vn 0.6948534 0.0382807 0.7181318
vn 0.6948534 0.0382807 0.7181318
vn 0.6954845 0.03464093 0.7177055
vn 0.6954845 0.03464093 0.7177055
vn -0.804858 0.03996094 0.5921205
vn -0.804858 0.03996094 0.5921205
vn -0.804858 0.03996094 0.5921205
vn -0.804858 0.03996094 0.5921205
vn -0.737568 -0.0002728903 -0.6752728
vn -0.737568 -0.0002728903 -0.6752728
vn -0.737568 -0.0002728903 -0.6752728
vn -0.737568 -0.0002728903 -0.6752728
vn 0.816477 -0.03620119 -0.576242
vn 0.816477 -0.03620119 -0.576242
vn 0.816477 -0.03620119 -0.576242
vn 0.816477 -0.03620119 -0.576242
vn -0.02111996 -0.9963197 -0.0830733
vn -0.02111996 -0.9963197 -0.0830733
vn -0.02111996 -0.9963197 -0.0830733
vn -0.02111996 -0.9963197 -0.0830733
vn -0.7643885 0.02979952 0.6440669
vn -0.7643885 0.02979952 0.6440669
vn -0.7643885 0.02979952 0.6440669
vn -0.7643885 0.02979952 0.6440669
vn -0.7009159 0.01264533 -0.7131318
vn -0.7009159 0.01264533 -0.7131318
vn -0.7009159 0.01264533 -0.7131318
vn -0.7009159 0.01264533 -0.7131318
vn 0.758362 0.02701131 -0.6512737
vn 0.758362 0.02701131 -0.6512737
vn 0.758362 0.02701131 -0.6512737
vn 0.758362 0.02701131 -0.6512737
vn 0.9522768 0.05221741 -0.3007361
vn 0.9522768 0.05221741 -0.3007361
vn 0.9522768 0.05221741 -0.3007361
vn 0.9522768 0.05221741 -0.3007361
vn 0.05888859 0.5860341 0.8081436
vn 0.05888859 0.5860341 0.8081436
vn 0.05888859 0.5860341 0.8081436
vn 0.05888859 0.5860341 0.8081436
vn -0.9596956 -0.02245041 0.2801434
vn -0.9596956 -0.02245041 0.2801434
vn -0.9596956 -0.02245041 0.2801434
vn -0.9596956 -0.02245041 0.2801434
vn -0.02086279 -0.5167199 -0.8559003
vn -0.02086279 -0.5167199 -0.8559003
vn -0.02086279 -0.5167199 -0.8559003
vn -0.02086279 -0.5167199 -0.8559003
vn 0.5245585 0.2425139 -0.8161038
vn 0.5245585 0.2425139 -0.8161038
vn 0.5245585 0.2425139 -0.8161038
vn 0.5245585 0.2425139 -0.8161038
vn 0.3722495 -0.1719209 -0.912071
vn 0.3722495 -0.1719209 -0.912071
vn 0.3722495 -0.1719209 -0.912071
vn 0.3722495 -0.1719209 -0.912071
vn 0.5497251 -0.07454852 -0.8320125
vn 0.5497251 -0.07454852 -0.8320125
vn 0.5497251 -0.07454852 -0.8320125
vn 0.5497251 -0.07454852 -0.8320125
vn -0.229352 0.3131401 -0.9215969
vn -0.229352 0.3131401 -0.9215969
vn -0.229352 0.3131401 -0.9215969
vn -0.229352 0.3131401 -0.9215969
vn 0.1914303 -0.2434258 -0.9508408
vn 0.1914303 -0.2434258 -0.9508408
vn 0.1914303 -0.2434258 -0.9508408
vn 0.1914303 -0.2434258 -0.9508408
vn 0 -1 0
vn 0 -1 0
vn 0 -1 0
vn 0 -1 0

vt 0.4331741 0.5245486
vt 0.4375821 0.5273788
vt 0.4389217 0.5185248
vt 0.4275013 0.537721
vt 0.4381747 0.5460586
vt 0.4318701 0.5348399
vt 0.4484009 0.5201973
vt 0.4448654 0.5297598
vt 0.4571353 0.5275277
vt 0.4375821 0.5273788
vt 0.4448654 0.5297598
vt 0.4389217 0.5185248
vt 0.4559849 0.5454998
vt 0.4604127 0.5512503
vt 0.4604127 0.5390466
vt 0.4412624 0.5357522
vt 0.4318701 0.5348399
vt 0.4423911 0.5428795
vt 0.4448654 0.5297598
vt 0.4604127 0.5390466
vt 0.4571353 0.5275277
vt 0.4448654 0.5297598
vt 0.4412624 0.5357522
vt 0.4559849 0.5454998
vt 0.4418583 0.548793
vt 0.4604127 0.5512503
vt 0.4559849 0.5454998
vt 0.4423911 0.5428795
vt 0.4418583 0.548793
vt 0.4559849 0.5454998
vt 0.439061 0.5548726
vt 0.4604127 0.5512503
vt 0.4418583 0.548793
vt 0.4412624 0.5357522
vt 0.4326556 0.5287167
vt 0.4318701 0.5348399
vt 0.4318701 0.5348399
vt 0.4381747 0.5460586
vt 0.4423911 0.5428795
vt 0.4331741 0.5245486
vt 0.4326556 0.5287167
vt 0.4375821 0.5273788
vt 0.4194402 0.5270805
vt 0.4211908 0.5372803
vt 0.4259717 0.5303609
vt 0.4559849 0.5454998
vt 0.4412624 0.5357522
vt 0.4423911 0.5428795
vt 0.4331741 0.5245486
vt 0.4259717 0.5303609
vt 0.4326556 0.5287167
vt 0.4318701 0.5348399
vt 0.4326556 0.5287167
vt 0.4259717 0.5303609
vt 0.4259717 0.5303609
vt 0.4211908 0.5372803
vt 0.4275013 0.537721
vt 0.4604127 0.5390466
vt 0.4448654 0.5297598
vt 0.4559849 0.5454998
vt 0.4275013 0.537721
vt 0.4211908 0.5372803
vt 0.439061 0.5548726
vt 0.4255643 0.5212963
vt 0.4331741 0.5245486
vt 0.4389217 0.5185248
vt 0.4194402 0.5727425
vt 0.4342552 0.5698001
vt 0.4194402 0.5646829
vt 0.4381747 0.5460586
vt 0.4275013 0.537721
vt 0.439061 0.5548726
vt 0.439061 0.5548726
vt 0.4418583 0.548793
vt 0.4381747 0.5460586
vt 0.4259717 0.5303609
vt 0.4275013 0.537721
vt 0.4318701 0.5348399
vt 0.4404742 0.5658118
vt 0.4481198 0.5658373
vt 0.4472884 0.5581169
vt 0.4472884 0.5581169
vt 0.4342643 0.5548904
vt 0.432991 0.5618848
vt 0.4484009 0.5201973
vt 0.4389217 0.5185248
vt 0.4448654 0.5297598
vt 0.4342552 0.5698001
vt 0.432991 0.5618848
vt 0.4194402 0.5646829
vt 0.4448654 0.5297598
vt 0.4375821 0.5273788
vt 0.4412624 0.5357522
vt 0.4412624 0.5357522
vt 0.4375821 0.5273788
vt 0.4326556 0.5287167
vt 0.4194402 0.5646829
vt 0.432991 0.5618848
vt 0.4342643 0.5548904
vt 0.4418583 0.548793
vt 0.4423911 0.5428795
vt 0.4381747 0.5460586
vt 0.1726514 0.8076792
vt 0.2063972 0.8074529
vt 0.2064664 0.8056501
vt 0.1728013 0.80394
vt 0.1518566 0.807498
vt 0.152 0.8037896
vt 0.1519299 0.8104882
vt 0.1727684 0.8102744
vt 0.1726514 0.8076792
vt 0.1518566 0.807498
vt 0.1521938 0.8144192
vt 0.1730257 0.8139884
vt 0.1727684 0.8102744
vt 0.1519299 0.8104882
vt 0.152 0.8037896
vt 0.1728013 0.80394
vt 0.1729811 0.8013121
vt 0.1521626 0.800376
vt 0.4255643 0.5212963
vt 0.4194402 0.5270805
vt 0.4259717 0.5303609
vt 0.4331741 0.5245486
vt 0.1727684 0.8102744
vt 0.2064344 0.808372
vt 0.2063972 0.8074529
vt 0.1726514 0.8076792
vt 0.1730257 0.8139884
vt 0.2065643 0.8101708
vt 0.2064344 0.808372
vt 0.1727684 0.8102744
vt 0.1728013 0.80394
vt 0.2064664 0.8056501
vt 0.2065643 0.8047364
vt 0.1729811 0.8013121
vt 0.1485101 0.8162655
vt 0.1670637 0.8170278
vt 0.1670168 0.8164988
vt 0.1482605 0.8144514
vt 0.1490194 0.817709
vt 0.1672121 0.8177955
vt 0.1670637 0.8170278
vt 0.1485101 0.8162655
vt 0.1487066 0.8195626
vt 0.1673538 0.8183165
vt 0.1672121 0.8177955
vt 0.1490194 0.817709
vt 0.1482605 0.8210581
vt 0.1670264 0.8191009
vt 0.1673538 0.8183165
vt 0.1487066 0.8195626
vt 0.4404742 0.5658118
vt 0.4342552 0.5698001
vt 0.4422825 0.5716959
vt 0.4481198 0.5658373
vt 0.4317231 0.5735489
vt 0.4222158 0.5778809
vt 0.4324289 0.5831853
vt 0.4362421 0.5772353
vt 0.4317231 0.5735489
vt 0.4362421 0.5772353
vt 0.4422825 0.5716959
vt 0.4342552 0.5698001
vt 0.432991 0.5618848
vt 0.4342552 0.5698001
vt 0.4404742 0.5658118
vt 0.4472884 0.5581169
vt 0.4194402 0.5727425
vt 0.4222158 0.5778809
vt 0.4317231 0.5735489
vt 0.4342552 0.5698001
vt 0.152 0.8037896
vt 0.1521626 0.800376
vt 0.1482605 0.800912
vt 0.14829 0.8039022

usemtl LOW-POLY-COLORS
usemap LOW-POLY-COLORS
f 2/2/2 1/1/1 3/3/3
f 5/5/5 4/4/4 6/6/6
f 8/8/8 7/7/7 9/9/9
f 11/11/11 10/10/10 12/12/12
f 14/14/14 13/13/13 15/15/15
f 17/17/17 16/16/16 18/18/18
f 20/20/20 19/19/19 21/21/21
f 23/23/23 22/22/22 24/24/24
f 26/26/26 25/25/25 27/27/27
f 29/29/29 28/28/28 30/30/30
f 32/32/32 31/31/31 33/33/33
f 35/35/35 34/34/34 36/36/36
f 38/38/38 37/37/37 39/39/39
f 41/41/41 40/40/40 42/42/42
f 44/44/44 43/43/43 45/45/45
f 47/47/47 46/46/46 48/48/48
f 50/50/50 49/49/49 51/51/51
f 53/53/53 52/52/52 54/54/54
f 56/56/56 55/55/55 57/57/57
f 59/59/59 58/58/58 60/60/60
f 62/62/62 61/61/61 63/63/63
f 65/65/65 64/64/64 66/66/66
f 68/68/68 67/67/67 69/69/69
f 71/71/71 70/70/70 72/72/72
f 74/74/74 73/73/73 75/75/75
f 77/77/77 76/76/76 78/78/78
f 80/80/80 79/79/79 81/81/81
f 83/83/83 82/82/82 84/84/84
f 86/86/86 85/85/85 87/87/87
f 89/89/89 88/88/88 90/90/90
f 92/92/92 91/91/91 93/93/93
f 95/95/95 94/94/94 96/96/96
f 98/98/98 97/97/97 99/99/99
f 101/101/101 100/100/100 102/102/102
f 104/104/104 103/103/103 105/105/105
f 105/105/105 103/103/103 106/106/106
f 103/103/103 107/107/107 106/106/106
f 106/106/106 107/107/107 108/108/108
f 110/110/110 109/109/109 111/111/111
f 111/111/111 109/109/109 112/112/112
f 114/114/114 113/113/113 115/115/115
f 115/115/115 113/113/113 116/116/116
f 118/118/118 117/117/117 119/119/119
f 119/119/119 117/117/117 120/120/120
f 122/122/122 121/121/121 123/123/123
f 123/123/123 121/121/121 124/124/124
f 126/126/126 125/125/125 127/127/127
f 127/127/127 125/125/125 128/128/128
f 130/130/130 129/129/129 131/131/131
f 131/131/131 129/129/129 132/132/132
f 134/134/134 133/133/133 135/135/135
f 135/135/135 133/133/133 136/136/136
f 138/138/138 137/137/137 139/139/139
f 139/139/139 137/137/137 140/140/140
f 142/142/142 141/141/141 143/143/143
f 143/143/143 141/141/141 144/144/144
f 146/146/146 145/145/145 147/147/147
f 147/147/147 145/145/145 148/148/148
f 150/150/150 149/149/149 151/151/151
f 151/151/151 149/149/149 152/152/152
f 154/154/154 153/153/153 155/155/155
f 155/155/155 153/153/153 156/156/156
f 158/158/158 157/157/157 159/159/159
f 159/159/159 157/157/157 160/160/160
f 162/162/162 161/161/161 163/163/163
f 163/163/163 161/161/161 164/164/164
f 166/166/166 165/165/165 167/167/167
f 167/167/167 165/165/165 168/168/168
f 170/170/170 169/169/169 171/171/171
f 171/171/171 169/169/169 172/172/172
f 174/174/174 173/173/173 175/175/175
f 175/175/175 173/173/173 176/176/176
