mtllib ./tree-pot_9.mtl
g tree-pot
v 0.2840691 0.7539396 -0.04674053
v -0.0140698 0.6595888 -0.2260971
v 0.161397 0.6289191 0.1012125
v 0.2840691 0.7539396 -0.04674053
v 0.2618032 0.8694248 -0.2076774
v -0.0140698 0.6595888 -0.2260971
v -0.01279521 0.5706773 0.02840042
v -0.08187985 0.6275749 0.1959023
v 0.161397 0.6289191 0.1012125
v -0.0140698 0.6595888 -0.2260971
v -0.2290292 0.6754773 -0.08578682
v -0.01279521 0.5706773 0.02840042
v 0.2584462 1.09002 -0.1640124
v 0.2266898 1.165473 0.08710718
v 0.1047797 1.194921 -0.2088113
v -0.0140698 0.6595888 -0.2260971
v -0.2999349 0.8796003 -0.196959
v -0.2290292 0.6754773 -0.08578682
v -0.1637366 1.212031 -0.09989262
v -0.2864089 1.08701 0.04805994
v -0.2999349 0.8796003 -0.196959
v -0.2864089 1.08701 0.04805994
v -0.264143 0.9715245 0.2089968
v -0.2999349 0.8796003 -0.196959
v -0.2999349 0.8796003 -0.196959
v -0.264143 0.9715245 0.2089968
v -0.2607861 0.7509301 0.1653323
v -0.2607861 0.7509301 0.1653323
v -0.264143 0.9715245 0.2089968
v 0.03429413 0.907902 0.3592243
v -0.264143 0.9715245 0.2089968
v -0.2864089 1.08701 0.04805994
v 0.01173043 1.181361 0.227417
v -0.264143 0.9715245 0.2089968
v 0.01173043 1.181361 0.227417
v 0.03429413 0.907902 0.3592243
v 0.01173043 1.181361 0.227417
v -0.2864089 1.08701 0.04805994
v -0.1637366 1.212031 -0.09989262
v 0.01173043 1.181361 0.227417
v -0.1637366 1.212031 -0.09989262
v 0.01045537 1.270273 -0.02708054
v 0.1047797 1.194921 -0.2088113
v 0.01045537 1.270273 -0.02708054
v -0.1637366 1.212031 -0.09989262
v 0.1047797 1.194921 -0.2088113
v -0.1637366 1.212031 -0.09989262
v -0.03663397 0.9330478 -0.3579049
v -0.03663397 0.9330478 -0.3579049
v -0.1637366 1.212031 -0.09989262
v -0.2999349 0.8796003 -0.196959
v -0.2290292 0.6754773 -0.08578682
v -0.2999349 0.8796003 -0.196959
v -0.2607861 0.7509301 0.1653323
v -0.08187985 0.6275749 0.1959023
v -0.2607861 0.7509301 0.1653323
v 0.03429413 0.907902 0.3592243
v 0.2975953 0.9613497 0.1982789
v 0.03429413 0.907902 0.3592243
v 0.01173043 1.181361 0.227417
v 0.2266898 1.165473 0.08710718
v 0.01173043 1.181361 0.227417
v 0.01045537 1.270273 -0.02708054
v 0.2266898 1.165473 0.08710718
v 0.01045537 1.270273 -0.02708054
v 0.1047797 1.194921 -0.2088113
v -0.03663397 0.9330478 -0.3579049
v -0.2999349 0.8796003 -0.196959
v -0.0140698 0.6595888 -0.2260971
v -0.2290292 0.6754773 -0.08578682
v -0.2607861 0.7509301 0.1653323
v -0.08187985 0.6275749 0.1959023
v -0.2290292 0.6754773 -0.08578682
v -0.08187985 0.6275749 0.1959023
v -0.01279521 0.5706773 0.02840042
v -0.08187985 0.6275749 0.1959023
v 0.03429413 0.907902 0.3592243
v 0.161397 0.6289191 0.1012125
v 0.161397 0.6289191 0.1012125
v 0.03429413 0.907902 0.3592243
v 0.2975953 0.9613497 0.1982789
v 0.2975953 0.9613497 0.1982789
v 0.01173043 1.181361 0.227417
v 0.2266898 1.165473 0.08710718
v 0.2975953 0.9613497 0.1982789
v 0.2266898 1.165473 0.08710718
v 0.2584462 1.09002 -0.1640124
v 0.2584462 1.09002 -0.1640124
v 0.1047797 1.194921 -0.2088113
v -0.03663397 0.9330478 -0.3579049
v 0.2618032 0.8694248 -0.2076774
v -0.03663397 0.9330478 -0.3579049
v -0.0140698 0.6595888 -0.2260971
v -0.0140698 0.6595888 -0.2260971
v -0.01279521 0.5706773 0.02840042
v 0.161397 0.6289191 0.1012125
v 0.2840691 0.7539396 -0.04674053
v 0.161397 0.6289191 0.1012125
v 0.2975953 0.9613497 0.1982789
v 0.2584462 1.09002 -0.1640124
v -0.03663397 0.9330478 -0.3579049
v 0.2618032 0.8694248 -0.2076774
v 0.2840691 0.7539396 -0.04674053
v 0.2975953 0.9613497 0.1982789
v 0.2618032 0.8694248 -0.2076774
v 0.2618032 0.8694248 -0.2076774
v 0.2975953 0.9613497 0.1982789
v 0.2584462 1.09002 -0.1640124
v 0.1950123 0.211827 -0.1950116
v -0.1950123 0.211827 -0.1950116
v -0.1497993 0 -0.1497989
v 0.1497993 0 -0.1497989
v -0.1950123 0.211827 -0.1950116
v -0.1950123 0.211827 0.195012
v -0.1497993 0 0.1497989
v -0.1497993 0 -0.1497989
v 0.1950123 0.211827 0.195012
v 0.1950123 0.211827 -0.1950116
v 0.1497993 0 -0.1497989
v 0.1497993 0 0.1497989
v -0.1950123 0.211827 0.195012
v 0.1950123 0.211827 0.195012
v 0.1497993 0 0.1497989
v -0.1497993 0 0.1497989
v 0.1446099 0.3 0.1446095
v -0.1446099 0.3 0.1446095
v -0.1446099 0.3 -0.144609
v 0.1446099 0.3 -0.144609
v 0.1446099 0.3 0.1446095
v 0.1446099 0.3 -0.144609
v 0.2001379 0.3096891 -0.2001371
v 0.2001379 0.3096891 0.2001376
v 0.1446099 0.3 -0.144609
v -0.1446099 0.3 -0.144609
v -0.2001379 0.3096891 -0.2001371
v 0.2001379 0.3096891 -0.2001371
v -0.1446099 0.3 -0.144609
v -0.1446099 0.3 0.1446095
v -0.2001379 0.3096891 0.2001376
v -0.2001379 0.3096891 -0.2001371
v -0.1446099 0.3 0.1446095
v 0.1446099 0.3 0.1446095
v 0.2001379 0.3096891 0.2001376
v -0.2001379 0.3096891 0.2001376
v 0.03663063 0.3 -0.01190233
v 0.02263904 0.3 0.03116035
v 0.01477551 0.7669322 0.02033663
v 0.02390718 0.7669322 -0.007768154
v -0.02263904 0.3 0.03116035
v -0.03663063 0.3 -0.01190233
v -0.02390718 0.7669322 -0.007768154
v -0.01477551 0.7669322 0.02033663
v 0 0.3 -0.03851604
v 0.03663063 0.3 -0.01190233
v 0.02390718 0.7669322 -0.007768154
v 0 0.7669322 -0.02513742
v 0.02263904 0.3 0.03116035
v -0.02263904 0.3 0.03116035
v -0.01477551 0.7669322 0.02033663
v 0.01477551 0.7669322 0.02033663
v -0.03663063 0.3 -0.01190233
v 0 0.3 -0.03851604
v 0 0.7669322 -0.02513742
v -0.02390718 0.7669322 -0.007768154
v 0.1497993 0 0.1497989
v 0.1497993 0 -0.1497989
v -0.1497993 0 -0.1497989
v -0.1497993 0 0.1497989
v -0.2001379 0.3096891 0.2001376
v 0.2001379 0.3096891 0.2001376
v 0.1950123 0.211827 0.195012
v -0.1950123 0.211827 0.195012
v 0.2001379 0.3096891 0.2001376
v 0.2001379 0.3096891 -0.2001371
v 0.1950123 0.211827 -0.1950116
v 0.1950123 0.211827 0.195012
v -0.2001379 0.3096891 -0.2001371
v -0.2001379 0.3096891 0.2001376
v -0.1950123 0.211827 0.195012
v -0.1950123 0.211827 -0.1950116
v 0.2001379 0.3096891 -0.2001371
v -0.2001379 0.3096891 -0.2001371
v -0.1950123 0.211827 -0.1950116
v 0.1950123 0.211827 -0.1950116

vn 0.4563901 -0.8293264 -0.3223754
vn 0.4563901 -0.8293264 -0.3223754
vn 0.4563901 -0.8293264 -0.3223754
vn 0.5317065 -0.65154 -0.5410952
vn 0.5317065 -0.65154 -0.5410952
vn 0.5317065 -0.65154 -0.5410952
vn 0.1502308 -0.9155984 0.3729751
vn 0.1502308 -0.9155984 0.3729751
vn 0.1502308 -0.9155984 0.3729751
vn -0.2734284 -0.9084964 -0.3160239
vn -0.2734284 -0.9084964 -0.3160239
vn -0.2734284 -0.9084964 -0.3160239
vn 0.5882987 0.7919312 -0.163553
vn 0.5882987 0.7919312 -0.163553
vn 0.5882987 0.7919312 -0.163553
vn -0.4870344 -0.5421242 -0.6847618
vn -0.4870344 -0.5421242 -0.6847618
vn -0.4870344 -0.5421242 -0.6847618
vn -0.8381858 0.4382113 -0.3246773
vn -0.8381858 0.4382113 -0.3246773
vn -0.8381858 0.4382113 -0.3246773
vn -0.9936279 -0.05282197 0.09956601
vn -0.9936279 -0.05282197 0.09956601
vn -0.9936279 -0.05282197 0.09956601
vn -0.9948555 -0.0340265 0.09541842
vn -0.9948555 -0.0340265 0.09541842
vn -0.9948555 -0.0340265 0.09541842
vn -0.4724645 -0.1780472 0.8631781
vn -0.4724645 -0.1780472 0.8631781
vn -0.4724645 -0.1780472 0.8631781
vn -0.5317071 0.6515386 0.5410963
vn -0.5317071 0.6515386 0.5410963
vn -0.5317071 0.6515386 0.5410963
vn -0.3487474 0.383428 0.8551949
vn -0.3487474 0.383428 0.8551949
vn -0.3487474 0.383428 0.8551949
vn -0.4563908 0.829326 0.3223752
vn -0.4563908 0.829326 0.3223752
vn -0.4563908 0.829326 0.3223752
vn -0.4134802 0.8589196 0.3021446
vn -0.4134802 0.8589196 0.3021446
vn -0.4134802 0.8589196 0.3021446
vn -0.1183069 0.8940319 -0.4321001
vn -0.1183069 0.8940319 -0.4321001
vn -0.1183069 0.8940319 -0.4321001
vn -0.2731867 0.5831107 -0.7650823
vn -0.2731867 0.5831107 -0.7650823
vn -0.2731867 0.5831107 -0.7650823
vn -0.5327019 0.4309287 -0.7283743
vn -0.5327019 0.4309287 -0.7283743
vn -0.5327019 0.4309287 -0.7283743
vn -0.9414235 -0.3367527 -0.0178709
vn -0.9414235 -0.3367527 -0.0178709
vn -0.9414235 -0.3367527 -0.0178709
vn -0.3823222 -0.3417373 0.8585135
vn -0.3823222 -0.3417373 0.8585135
vn -0.3823222 -0.3417373 0.8585135
vn 0.4083417 0.4234677 0.8086607
vn 0.4083417 0.4234677 0.8086607
vn 0.4083417 0.4234677 0.8086607
vn 0.2734272 0.9084969 0.3160236
vn 0.2734272 0.9084969 0.3160236
vn 0.2734272 0.9084969 0.3160236
vn 0.480424 0.8699392 -0.1113488
vn 0.480424 0.8699392 -0.1113488
vn 0.480424 0.8699392 -0.1113488
vn -0.4083429 -0.4234694 -0.8086591
vn -0.4083429 -0.4234694 -0.8086591
vn -0.4083429 -0.4234694 -0.8086591
vn -0.5788482 -0.7982271 0.1666383
vn -0.5788482 -0.7982271 0.1666383
vn -0.5788482 -0.7982271 0.1666383
vn -0.4763193 -0.8735362 0.1002723
vn -0.4763193 -0.8735362 0.1002723
vn -0.4763193 -0.8735362 0.1002723
vn 0.3007403 -0.5700802 0.7645678
vn 0.3007403 -0.5700802 0.7645678
vn 0.3007403 -0.5700802 0.7645678
vn 0.5327011 -0.4309283 0.7283753
vn 0.5327011 -0.4309283 0.7283753
vn 0.5327011 -0.4309283 0.7283753
vn 0.4870339 0.5421227 0.6847635
vn 0.4870339 0.5421227 0.6847635
vn 0.4870339 0.5421227 0.6847635
vn 0.9414241 0.3367514 0.01786933
vn 0.9414241 0.3367514 0.01786933
vn 0.9414241 0.3367514 0.01786933
vn 0.429719 0.2602251 -0.8646528
vn 0.429719 0.2602251 -0.8646528
vn 0.429719 0.2602251 -0.8646528
vn 0.3487465 -0.3834292 -0.8551947
vn 0.3487465 -0.3834292 -0.8551947
vn 0.3487465 -0.3834292 -0.8551947
vn 0.4134793 -0.8589202 -0.3021441
vn 0.4134793 -0.8589202 -0.3021441
vn 0.4134793 -0.8589202 -0.3021441
vn 0.8381866 -0.4382108 0.3246759
vn 0.8381866 -0.4382108 0.3246759
vn 0.8381866 -0.4382108 0.3246759
vn 0.4724648 0.1780487 -0.8631777
vn 0.4724648 0.1780487 -0.8631777
vn 0.4724648 0.1780487 -0.8631777
vn 0.9936279 0.05282152 -0.09956644
vn 0.9936279 0.05282152 -0.09956644
vn 0.9936279 0.05282152 -0.09956644
vn 0.9948555 0.03402673 -0.09541892
vn 0.9948555 0.03402673 -0.09541892
vn 0.9948555 0.03402673 -0.09541892
vn 0 -0.20874 -0.9779713
vn 0 -0.20874 -0.9779713
vn 0 -0.20874 -0.9779713
vn 0 -0.20874 -0.9779713
vn -0.977971 -0.2087408 0
vn -0.977971 -0.2087408 0
vn -0.977971 -0.2087408 0
vn -0.977971 -0.2087408 0
vn 0.977971 -0.2087408 0
vn 0.977971 -0.2087408 0
vn 0.977971 -0.2087408 0
vn 0.977971 -0.2087408 0
vn 0 -0.2087416 0.9779708
vn 0 -0.2087416 0.9779708
vn 0 -0.2087416 0.9779708
vn 0 -0.2087416 0.9779708
vn 0 1 0
vn 0 1 0
vn 0 1 0
vn 0 1 0
vn -0.1718947 0.9851153 0
vn -0.1718947 0.9851153 0
vn -0.1718947 0.9851153 0
vn -0.1718947 0.9851153 0
vn 0 0.9851155 0.1718941
vn 0 0.9851155 0.1718941
vn 0 0.9851155 0.1718941
vn 0 0.9851155 0.1718941
vn 0.1718947 0.9851153 0
vn 0.1718947 0.9851153 0
vn 0.1718947 0.9851153 0
vn 0.1718947 0.9851153 0
vn 0 0.9851155 -0.1718941
vn 0 0.9851155 -0.1718941
vn 0 0.9851155 -0.1718941
vn 0 0.9851155 -0.1718941
vn 0.9508028 0.02317331 0.3089286
vn 0.9508028 0.02317331 0.3089286
vn 0.9508028 0.02317331 0.3089286
vn 0.9508028 0.02317331 0.3089286
vn -0.9508029 0.02317332 0.3089286
vn -0.9508029 0.02317332 0.3089286
vn -0.9508029 0.02317332 0.3089286
vn -0.9508029 0.02317332 0.3089286
vn 0.5876247 0.02317358 -0.8088017
vn 0.5876247 0.02317358 -0.8088017
vn 0.5876247 0.02317358 -0.8088017
vn 0.5876247 0.02317358 -0.8088017
vn 0 0.02317428 0.9997315
vn 0 0.02317428 0.9997315
vn 0 0.02317428 0.9997315
vn 0 0.02317428 0.9997315
vn -0.5876247 0.02317358 -0.8088017
vn -0.5876247 0.02317358 -0.8088017
vn -0.5876247 0.02317358 -0.8088017
vn -0.5876247 0.02317358 -0.8088017
vn 0 -1 0
vn 0 -1 0
vn 0 -1 0
vn 0 -1 0
vn 0 -0.05230439 0.9986312
vn 0 -0.05230439 0.9986312
vn 0 -0.05230439 0.9986312
vn 0 -0.05230439 0.9986312
vn 0.9986312 -0.05230369 0
vn 0.9986312 -0.05230369 0
vn 0.9986312 -0.05230369 0
vn 0.9986312 -0.05230369 0
vn -0.9986312 -0.05230369 0
vn -0.9986312 -0.05230369 0
vn -0.9986312 -0.05230369 0
vn -0.9986312 -0.05230369 0
vn 0 -0.05230329 -0.9986312
vn 0 -0.05230329 -0.9986312
vn 0 -0.05230329 -0.9986312
vn 0 -0.05230329 -0.9986312

vt 0.2871298 0.4492161
vt 0.2999747 0.4778599
vt 0.2971513 0.4441017
vt 0.2871298 0.4492161
vt 0.2790772 0.4538151
vt 0.2999747 0.4778599
vt 0.3132059 0.4494818
vt 0.3120199 0.4258062
vt 0.2971513 0.4441017
vt 0.2885162 0.3847598
vt 0.2906902 0.4079669
vt 0.3132059 0.4044539
vt 0.2710012 0.4457221
vt 0.2773973 0.4366558
vt 0.2531571 0.4379574
vt 0.2885162 0.3847598
vt 0.279319 0.4108294
vt 0.2906902 0.4079669
vt 0.2721217 0.4232804
vt 0.2794921 0.4219937
vt 0.279319 0.4108294
vt 0.2794921 0.4219937
vt 0.2848343 0.423539
vt 0.279319 0.4108294
vt 0.279319 0.4108294
vt 0.2848343 0.423539
vt 0.2922853 0.4199776
vt 0.2922853 0.4199776
vt 0.2848343 0.423539
vt 0.2877785 0.4319494
vt 0.2848343 0.423539
vt 0.2794921 0.4219937
vt 0.2802015 0.4308307
vt 0.2848343 0.423539
vt 0.2802015 0.4308307
vt 0.2877785 0.4319494
vt 0.2802015 0.4308307
vt 0.2794921 0.4219937
vt 0.2721217 0.4232804
vt 0.2802015 0.4308307
vt 0.2721217 0.4232804
vt 0.2724962 0.4301952
vt 0.2531571 0.4379574
vt 0.2724962 0.4301952
vt 0.2721217 0.4232804
vt 0.2531571 0.4379574
vt 0.2721217 0.4232804
vt 0.2553595 0.3985772
vt 0.2553595 0.3985772
vt 0.2721217 0.4232804
vt 0.279319 0.4108294
vt 0.2906902 0.4079669
vt 0.279319 0.4108294
vt 0.2922853 0.4199776
vt 0.3120199 0.4258062
vt 0.2922853 0.4199776
vt 0.2877785 0.4319494
vt 0.2835819 0.4389172
vt 0.2877785 0.4319494
vt 0.2802015 0.4308307
vt 0.2773973 0.4366558
vt 0.2802015 0.4308307
vt 0.2724962 0.4301952
vt 0.2773973 0.4366558
vt 0.2724962 0.4301952
vt 0.2531571 0.4379574
vt 0.2553595 0.3985772
vt 0.279319 0.4108294
vt 0.2885162 0.3847598
vt 0.2906902 0.4079669
vt 0.2922853 0.4199776
vt 0.3120199 0.4258062
vt 0.2906902 0.4079669
vt 0.3120199 0.4258062
vt 0.3132059 0.4044539
vt 0.3120199 0.4258062
vt 0.2877785 0.4319494
vt 0.2971513 0.4441017
vt 0.2971513 0.4441017
vt 0.2877785 0.4319494
vt 0.2835819 0.4389172
vt 0.2835819 0.4389172
vt 0.2802015 0.4308307
vt 0.2773973 0.4366558
vt 0.2835819 0.4389172
vt 0.2773973 0.4366558
vt 0.2710012 0.4457221
vt 0.2710012 0.4457221
vt 0.2531571 0.4379574
vt 0.2584941 0.478548
vt 0.2790772 0.4538151
vt 0.2584941 0.478548
vt 0.2999747 0.4778599
vt 0.2999747 0.4778599
vt 0.3132059 0.4494818
vt 0.2971513 0.4441017
vt 0.2871298 0.4492161
vt 0.2971513 0.4441017
vt 0.2835819 0.4389172
vt 0.2710012 0.4457221
vt 0.2584941 0.478548
vt 0.2790772 0.4538151
vt 0.2871298 0.4492161
vt 0.2835819 0.4389172
vt 0.2790772 0.4538151
vt 0.2790772 0.4538151
vt 0.2835819 0.4389172
vt 0.2710012 0.4457221
vt 0.2808757 0.7997287
vt 0.299417 0.7857593
vt 0.3025768 0.7974907
vt 0.2911027 0.8103377
vt 0.299417 0.7857593
vt 0.3210616 0.7931643
vt 0.3117009 0.802815
vt 0.3025768 0.7974907
vt 0.3067013 0.8336822
vt 0.2827602 0.8240318
vt 0.2911027 0.8103377
vt 0.3101877 0.8180307
vt 0.3210616 0.7931643
vt 0.3268065 0.818216
vt 0.3101877 0.8180307
vt 0.3117009 0.802815
vt 0.06012207 0.70253
vt 0.06012207 0.6849738
vt 0.07767817 0.6849738
vt 0.07767817 0.70253
vt 0.327456 0.7668501
vt 0.3089158 0.7610174
vt 0.3064761 0.7563381
vt 0.3321354 0.7644103
vt 0.3089158 0.7610174
vt 0.3030832 0.7795577
vt 0.2984038 0.7819974
vt 0.3064761 0.7563381
vt 0.3030832 0.7795577
vt 0.3216234 0.7853903
vt 0.3240631 0.7900697
vt 0.2984038 0.7819974
vt 0.3216234 0.7853903
vt 0.327456 0.7668501
vt 0.3321354 0.7644103
vt 0.3240631 0.7900697
vt 0.2776888 0.8497573
vt 0.2775963 0.8470104
vt 0.3059475 0.8465332
vt 0.3060079 0.848326
vt 0.2775963 0.8442619
vt 0.2776889 0.841515
vt 0.3060079 0.8429465
vt 0.3059475 0.8447393
vt 0.2778737 0.8524996
vt 0.2776888 0.8497573
vt 0.3060079 0.848326
vt 0.3061286 0.8501157
vt 0.2775963 0.8470104
vt 0.2775963 0.8442619
vt 0.3059475 0.8447393
vt 0.3059475 0.8465332
vt 0.2776889 0.841515
vt 0.2778738 0.8387728
vt 0.3061286 0.8411567
vt 0.3060079 0.8429465
vt 0.3101877 0.8180307
vt 0.2911027 0.8103377
vt 0.3025768 0.7974907
vt 0.3117009 0.802815
vt 0.3240631 0.7900697
vt 0.3321354 0.8182755
vt 0.3268065 0.818216
vt 0.3210616 0.7931643
vt 0.3055834 0.838701
vt 0.2800851 0.8284229
vt 0.2827602 0.8240318
vt 0.3067013 0.8336822
vt 0.2984038 0.7819974
vt 0.3240631 0.7900697
vt 0.3210616 0.7931643
vt 0.299417 0.7857593
vt 0.2775963 0.7963268
vt 0.2984038 0.7819974
vt 0.299417 0.7857593
vt 0.2808757 0.7997287

usemtl LOW-POLY-COLORS
usemap LOW-POLY-COLORS
f 2/2/2 1/1/1 3/3/3
f 5/5/5 4/4/4 6/6/6
f 8/8/8 7/7/7 9/9/9
f 11/11/11 10/10/10 12/12/12
f 14/14/14 13/13/13 15/15/15
f 17/17/17 16/16/16 18/18/18
f 20/20/20 19/19/19 21/21/21
f 23/23/23 22/22/22 24/24/24
f 26/26/26 25/25/25 27/27/27
f 29/29/29 28/28/28 30/30/30
f 32/32/32 31/31/31 33/33/33
f 35/35/35 34/34/34 36/36/36
f 38/38/38 37/37/37 39/39/39
f 41/41/41 40/40/40 42/42/42
f 44/44/44 43/43/43 45/45/45
f 47/47/47 46/46/46 48/48/48
f 50/50/50 49/49/49 51/51/51
f 53/53/53 52/52/52 54/54/54
f 56/56/56 55/55/55 57/57/57
f 59/59/59 58/58/58 60/60/60
f 62/62/62 61/61/61 63/63/63
f 65/65/65 64/64/64 66/66/66
f 68/68/68 67/67/67 69/69/69
f 71/71/71 70/70/70 72/72/72
f 74/74/74 73/73/73 75/75/75
f 77/77/77 76/76/76 78/78/78
f 80/80/80 79/79/79 81/81/81
f 83/83/83 82/82/82 84/84/84
f 86/86/86 85/85/85 87/87/87
f 89/89/89 88/88/88 90/90/90
f 92/92/92 91/91/91 93/93/93
f 95/95/95 94/94/94 96/96/96
f 98/98/98 97/97/97 99/99/99
f 101/101/101 100/100/100 102/102/102
f 104/104/104 103/103/103 105/105/105
f 107/107/107 106/106/106 108/108/108
f 110/110/110 109/109/109 111/111/111
f 111/111/111 109/109/109 112/112/112
f 114/114/114 113/113/113 115/115/115
f 115/115/115 113/113/113 116/116/116
f 118/118/118 117/117/117 119/119/119
f 119/119/119 117/117/117 120/120/120
f 122/122/122 121/121/121 123/123/123
f 123/123/123 121/121/121 124/124/124
f 126/126/126 125/125/125 127/127/127
f 127/127/127 125/125/125 128/128/128
f 130/130/130 129/129/129 131/131/131
f 131/131/131 129/129/129 132/132/132
f 134/134/134 133/133/133 135/135/135
f 135/135/135 133/133/133 136/136/136
f 138/138/138 137/137/137 139/139/139
f 139/139/139 137/137/137 140/140/140
f 142/142/142 141/141/141 143/143/143
f 143/143/143 141/141/141 144/144/144
f 146/146/146 145/145/145 147/147/147
f 147/147/147 145/145/145 148/148/148
f 150/150/150 149/149/149 151/151/151
f 151/151/151 149/149/149 152/152/152
f 154/154/154 153/153/153 155/155/155
f 155/155/155 153/153/153 156/156/156
f 158/158/158 157/157/157 159/159/159
f 159/159/159 157/157/157 160/160/160
f 162/162/162 161/161/161 163/163/163
f 163/163/163 161/161/161 164/164/164
f 166/166/166 165/165/165 167/167/167
f 167/167/167 165/165/165 168/168/168
f 170/170/170 169/169/169 171/171/171
f 171/171/171 169/169/169 172/172/172
f 174/174/174 173/173/173 175/175/175
f 175/175/175 173/173/173 176/176/176
f 178/178/178 177/177/177 179/179/179
f 179/179/179 177/177/177 180/180/180
f 182/182/182 181/181/181 183/183/183
f 183/183/183 181/181/181 184/184/184
