mtllib ./tree-square_orange_32.mtl
g tree-square_orange
v 0.1454314 5.245246E-09 -0.03477254
v 0.08988163 -2.085431E-08 0.1361921
v 0.08988163 1.336106 0.1361924
v 0.1454314 1.336106 -0.03477205
v -0.08988144 -2.085431E-08 0.1361922
v -0.1454314 5.245245E-09 -0.03477247
v -0.1454314 1.336106 -0.034772
v -0.08988143 1.336106 0.1361925
v 3.436935E-09 2.103976E-08 -0.1404347
v 0.1454314 5.245246E-09 -0.03477254
v 0.1454314 1.336106 -0.03477205
v 8.093625E-09 1.336106 -0.1404344
v 0.08988163 -2.085431E-08 0.1361921
v -0.08988144 -2.085431E-08 0.1361922
v -0.08988143 1.336106 0.1361925
v 0.08988163 1.336106 0.1361924
v -0.1454314 5.245245E-09 -0.03477247
v 3.436935E-09 2.103976E-08 -0.1404347
v 8.093625E-09 1.336106 -0.1404344
v -0.1454314 1.336106 -0.034772
v -0.841697 4.6843 -0.8416959
v -0.841697 1.336106 -0.841696
v 0.8416964 1.336106 -0.8416966
v 0.8416964 4.6843 -0.8416961
v 0.841697 4.6843 0.8416978
v 0.841697 1.336106 0.8416972
v -0.8416964 1.336106 0.8416976
v -0.8416964 4.6843 0.8416981
v -0.8416964 4.6843 0.8416981
v -0.8416964 1.336106 0.8416976
v -0.841697 1.336106 -0.841696
v -0.841697 4.6843 -0.8416959
v -0.8416964 1.336106 0.8416976
v 0.841697 1.336106 0.8416972
v 0.8416964 1.336106 -0.8416966
v -0.841697 1.336106 -0.841696
v 0.841697 4.6843 0.8416978
v -0.8416964 4.6843 0.8416981
v -0.841697 4.6843 -0.8416959
v 0.8416964 4.6843 -0.8416961
v 0.8416964 4.6843 -0.8416961
v 0.8416964 1.336106 -0.8416966
v 0.841697 1.336106 0.8416972
v 0.841697 4.6843 0.8416978
v 0.1454314 5.245246E-09 -0.03477254
v 3.436935E-09 2.103976E-08 -0.1404347
v -0.1454314 5.245245E-09 -0.03477247
v 0.08988163 -2.085431E-08 0.1361921
v -0.08988144 -2.085431E-08 0.1361922

vn 0.9510565 0 0.3090171
vn 0.9510565 0 0.3090171
vn 0.9510565 0 0.3090171
vn 0.9510565 0 0.3090171
vn -0.9510562 0 0.309018
vn -0.9510562 0 0.309018
vn -0.9510562 0 0.309018
vn -0.9510562 0 0.309018
vn 0.5877859 2.63674E-07 -0.8090165
vn 0.5877859 2.63674E-07 -0.8090165
vn 0.5877859 2.63674E-07 -0.8090165
vn 0.5877859 2.63674E-07 -0.8090165
vn 4.144666E-07 -1.63552E-07 1
vn 4.144666E-07 -1.63552E-07 1
vn 4.144666E-07 -1.63552E-07 1
vn 4.144666E-07 -1.63552E-07 1
vn -0.5877861 2.702743E-07 -0.8090163
vn -0.5877861 2.702743E-07 -0.8090163
vn -0.5877861 2.702743E-07 -0.8090163
vn -0.5877861 2.702743E-07 -0.8090163
vn -2.655558E-07 0 -1
vn -2.655558E-07 0 -1
vn -2.655558E-07 0 -1
vn -2.655558E-07 0 -1
vn 2.124446E-07 -1.480512E-07 1
vn 2.124446E-07 -1.480512E-07 1
vn 2.124446E-07 -1.480512E-07 1
vn 2.124446E-07 -1.480512E-07 1
vn -1 0 2.649077E-07
vn -1 0 2.649077E-07
vn -1 0 2.649077E-07
vn -1 0 2.649077E-07
vn 0 -1 -2.47852E-07
vn 0 -1 -2.47852E-07
vn 0 -1 -2.47852E-07
vn 0 -1 -2.47852E-07
vn 0 1 0
vn 0 1 0
vn 0 1 0
vn 0 1 0
vn 1 0 -2.671945E-07
vn 1 0 -2.671945E-07
vn 1 0 -2.671945E-07
vn 1 0 -2.671945E-07
vn 0 -1 -1.517817E-07
vn 0 -1 -1.517817E-07
vn 0 -1 -1.517817E-07
vn 0 -1 -1.517817E-07
vn 0 -1 -1.517817E-07

vt 0.2044955 0.7982343
vt 0.202562 0.7982343
vt 0.202562 0.8332319
vt 0.2044955 0.8332319
vt 0.2044955 0.8332319
vt 0.2064289 0.8332319
vt 0.2064289 0.7982343
vt 0.2044955 0.7982343
vt 0.2099702 0.8332319
vt 0.2115538 0.8332319
vt 0.2115538 0.7982343
vt 0.2099702 0.7982343
vt 0.2083865 0.7982343
vt 0.2064289 0.7982343
vt 0.2064289 0.8332319
vt 0.2083865 0.8332319
vt 0.2083865 0.8332319
vt 0.2099702 0.8332319
vt 0.2099702 0.7982343
vt 0.2083865 0.7982343
vt 0.4286748 0.5343118
vt 0.4286748 0.5702685
vt 0.446077 0.5702685
vt 0.446077 0.5343118
vt 0.4286748 0.5702685
vt 0.4286748 0.5343118
vt 0.4112726 0.5343118
vt 0.4112726 0.5702685
vt 0.446077 0.5343118
vt 0.446077 0.5702685
vt 0.4632649 0.5702685
vt 0.4632649 0.5343118
vt 0.446077 0.5702685
vt 0.4286748 0.5702685
vt 0.4286748 0.5883467
vt 0.446077 0.5883467
vt 0.4286748 0.5702685
vt 0.4112726 0.5702685
vt 0.4112726 0.5883467
vt 0.4286748 0.5883467
vt 0.4804528 0.5702685
vt 0.4804528 0.5343118
vt 0.4632649 0.5343118
vt 0.4632649 0.5702685
vt 0.2007003 0.8015247
vt 0.202562 0.8008962
vt 0.202562 0.7988627
vt 0.1995498 0.7998794
vt 0.2007003 0.7982343

usemtl LOW-POLY-COLORS
usemap LOW-POLY-COLORS
f 2/2/2 1/1/1 3/3/3
f 3/3/3 1/1/1 4/4/4
f 6/6/6 5/5/5 7/7/7
f 7/7/7 5/5/5 8/8/8
f 10/10/10 9/9/9 11/11/11
f 11/11/11 9/9/9 12/12/12
f 14/14/14 13/13/13 15/15/15
f 15/15/15 13/13/13 16/16/16
f 18/18/18 17/17/17 19/19/19
f 19/19/19 17/17/17 20/20/20
f 22/22/22 21/21/21 23/23/23
f 23/23/23 21/21/21 24/24/24
f 26/26/26 25/25/25 27/27/27
f 27/27/27 25/25/25 28/28/28
f 30/30/30 29/29/29 31/31/31
f 31/31/31 29/29/29 32/32/32
f 34/34/34 33/33/33 35/35/35
f 35/35/35 33/33/33 36/36/36
f 38/38/38 37/37/37 39/39/39
f 39/39/39 37/37/37 40/40/40
f 42/42/42 41/41/41 43/43/43
f 43/43/43 41/41/41 44/44/44
f 46/46/46 45/45/45 47/47/47
f 48/48/48 47/47/47 45/45/45
f 49/49/49 47/47/47 48/48/48
