mtllib ./SM_Env_Rocks_04_27.mtl
g SM_Env_Rocks_04
v -0.01046734 0 -0.6000251
v 0.1203052 0 -0.7437556
v 0.04126949 0.0910528 -0.587067
v 0.1354895 0.08712561 -0.6698221
v 0.2347492 0.07435754 -0.6443352
v 0.2470396 0.08213036 -0.5122751
v 0.1203052 0 -0.7437556
v 0.2347492 0.07435754 -0.6443352
v 0.1354895 0.08712561 -0.6698221
v 0.08541565 0.1077287 -0.4599184
v 0.04126949 0.0910528 -0.587067
v 0.1653992 0.1077287 -0.4619688
v 0.2837978 0 -0.7260888
v 0.2347492 0.07435754 -0.6443352
v 0.1203052 0 -0.7437556
v 0.1203052 0 -0.7437556
v 0.1354895 0.08712561 -0.6698221
v 0.04126949 0.0910528 -0.587067
v 0.04126949 0.0910528 -0.587067
v 0.1354895 0.08712561 -0.6698221
v 0.2470396 0.08213036 -0.5122751
v 0.04126949 0.0910528 -0.587067
v 0.2470396 0.08213036 -0.5122751
v 0.1653992 0.1077287 -0.4619688
v -0.1770683 0.156311 -0.1573175
v -0.3570564 0 -0.1493544
v -0.1198537 0.1564138 -0.3031701
v -0.1551517 0 -0.4804939
v -0.1198537 0.1564138 -0.3031701
v -0.3570564 0 -0.1493544
v -0.1198537 0.1564138 -0.3031701
v -0.1551517 0 -0.4804939
v 0.065317 0.1805112 -0.3152818
v -0.1551517 0 -0.4804939
v 0.1017474 0.08434244 -0.3787487
v 0.065317 0.1805112 -0.3152818
v 0.065317 0.1805112 -0.3152818
v 0.1573287 0.1564138 -0.1943618
v 0.07300895 0.156311 -0.02510845
v 0.1017474 0.08434244 -0.3787487
v 0.1573287 0.1564138 -0.1943618
v 0.065317 0.1805112 -0.3152818
v -0.195498 0 0.1124769
v -0.1272447 0.1382783 0.02086456
v 0.1232855 0 0.1045316
v -0.1272447 0.1382783 0.02086456
v -0.195498 0 0.1124769
v -0.1770683 0.156311 -0.1573175
v -0.195498 0 0.1124769
v -0.3570564 0 -0.1493544
v -0.1770683 0.156311 -0.1573175
v -0.1272447 0.1382783 0.02086456
v -0.1770683 0.156311 -0.1573175
v -0.07310585 0.1982406 -0.04332958
v -0.07310585 0.1982406 -0.04332958
v 0.065317 0.1805112 -0.3152818
v 0.07300895 0.156311 -0.02510845
v -0.1770683 0.156311 -0.1573175
v -0.1198537 0.1564138 -0.3031701
v -0.07310585 0.1982406 -0.04332958
v -0.1198537 0.1564138 -0.3031701
v 0.065317 0.1805112 -0.3152818
v -0.07310585 0.1982406 -0.04332958
v 0.1723282 0 -0.4121989
v 0.1017474 0.08434244 -0.3787487
v -0.1551517 0 -0.4804939
v 0.2579383 0 -0.1562625
v 0.1573287 0.1564138 -0.1943618
v 0.1723282 0 -0.4121989
v 0.1573287 0.1564138 -0.1943618
v 0.1017474 0.08434244 -0.3787487
v 0.1723282 0 -0.4121989
v 0.1171671 0.100797 0.6387953
v 0.06735843 0 0.7437556
v 0.05133373 0.1008637 0.562156
v -0.06036236 0 0.5287275
v 0.05133373 0.1008637 0.562156
v 0.06735843 0 0.7437556
v 0.05133373 0.1008637 0.562156
v -0.06036236 0 0.5287275
v 0.1003437 0.1164026 0.4529893
v -0.06036236 0 0.5287275
v 0.07517559 0.05438826 0.4130676
v 0.1003437 0.1164026 0.4529893
v 0.1003437 0.1164026 0.4529893
v 0.1970224 0.1008637 0.4370704
v 0.2680055 0.1007974 0.5362197
v 0.07517559 0.05438826 0.4130676
v 0.1970224 0.1008637 0.4370704
v 0.1003437 0.1164026 0.4529893
v 0.2653323 0 0.7307559
v 0.2337389 0.08916892 0.664203
v 0.3570564 0 0.5467154
v 0.2337389 0.08916892 0.664203
v 0.2653323 0 0.7307559
v 0.1171671 0.100797 0.6387953
v 0.2653323 0 0.7307559
v 0.06735843 0 0.7437556
v 0.1171671 0.100797 0.6387953
v 0.2337389 0.08916892 0.664203
v 0.1171671 0.100797 0.6387953
v 0.2135031 0.1278356 0.6139738
v 0.2135031 0.1278356 0.6139738
v 0.1003437 0.1164026 0.4529893
v 0.2680055 0.1007974 0.5362197
v 0.1171671 0.100797 0.6387953
v 0.05133373 0.1008637 0.562156
v 0.2135031 0.1278356 0.6139738
v 0.05133373 0.1008637 0.562156
v 0.1003437 0.1164026 0.4529893
v 0.2135031 0.1278356 0.6139738
v 0.0774316 0 0.3627538
v 0.07517559 0.05438826 0.4130676
v -0.06036236 0 0.5287275
v 0.2491109 0 0.3912463
v 0.1970224 0.1008637 0.4370704
v 0.0774316 0 0.3627538
v 0.1970224 0.1008637 0.4370704
v 0.07517559 0.05438826 0.4130676
v 0.0774316 0 0.3627538
v 0.08541565 0.1077287 -0.4599184
v 0.04120396 0 -0.4008264
v 0.04126949 0.0910528 -0.587067
v -0.01046734 0 -0.6000251
v 0.2470396 0.08213036 -0.5122751
v 0.2347492 0.07435754 -0.6443352
v 0.3229208 0 -0.4738897
v 0.2837978 0 -0.7260888
v 0.1906655 0 -0.404188
v 0.04120396 0 -0.4008264
v 0.08541565 0.1077287 -0.4599184
v 0.1653992 0.1077287 -0.4619688
v 0.1653992 0.1077287 -0.4619688
v 0.2470396 0.08213036 -0.5122751
v 0.3229208 0 -0.4738897
v 0.1906655 0 -0.404188
v 0.07300895 0.156311 -0.02510845
v 0.1573287 0.1564138 -0.1943618
v 0.1232855 0 0.1045316
v 0.2579383 0 -0.1562625
v -0.1272447 0.1382783 0.02086456
v -0.07310585 0.1982406 -0.04332958
v 0.1232855 0 0.1045316
v 0.07300895 0.156311 -0.02510845
v 0.2680055 0.1007974 0.5362197
v 0.1970224 0.1008637 0.4370704
v 0.3570564 0 0.5467154
v 0.2491109 0 0.3912463
v 0.2337389 0.08916892 0.664203
v 0.2135031 0.1278356 0.6139738
v 0.3570564 0 0.5467154
v 0.2680055 0.1007974 0.5362197

vn -0.6572994 0.4585692 -0.5980567
vn -0.6572995 0.4585692 -0.5980567
vn -0.6572995 0.4585691 -0.5980568
vn 0.1453165 0.9867905 -0.07160876
vn 0.1453165 0.9867905 -0.07160874
vn 0.1453165 0.9867905 -0.07160874
vn 0.2708267 0.5949715 -0.7567442
vn 0.2708267 0.5949715 -0.7567442
vn 0.2708267 0.5949715 -0.7567442
vn -0.003307606 0.9916518 -0.1289018
vn -0.003307606 0.9916518 -0.1289018
vn -0.003307606 0.9916518 -0.1289018
vn 0.07000936 0.758509 -0.647891
vn 0.07000938 0.758509 -0.647891
vn 0.07000936 0.758509 -0.647891
vn -0.5102782 0.6064165 -0.6098158
vn -0.5102782 0.6064164 -0.6098158
vn -0.5102782 0.6064165 -0.6098158
vn 0.04283225 0.9990814 0.001349085
vn 0.04283225 0.9990814 0.001349085
vn 0.04283226 0.9990814 0.001349085
vn 0.1371269 0.9549065 -0.2633434
vn 0.137127 0.9549065 -0.2633434
vn 0.137127 0.9549065 -0.2633434
vn -0.6410272 0.7253342 -0.2509472
vn -0.6410272 0.7253342 -0.2509472
vn -0.641027 0.7253343 -0.2509472
vn -0.6722986 0.6164271 -0.4099174
vn -0.6722986 0.6164271 -0.4099175
vn -0.6722986 0.6164271 -0.4099175
vn -0.1402021 0.7562131 -0.6391285
vn -0.1402021 0.7562131 -0.6391284
vn -0.1402021 0.7562131 -0.6391284
vn 0.1283645 0.5797026 -0.8046536
vn 0.1283645 0.5797026 -0.8046536
vn 0.1283645 0.5797026 -0.8046536
vn 0.1553853 0.9847689 0.07800977
vn 0.1553853 0.9847689 0.07800978
vn 0.1553853 0.9847689 0.07800977
vn 0.7118873 0.5542952 -0.431246
vn 0.7118872 0.5542953 -0.4312461
vn 0.7118874 0.5542952 -0.4312461
vn 0.02088373 0.5450032 0.8381738
vn 0.02088373 0.5450032 0.8381739
vn 0.02088373 0.5450032 0.8381738
vn -0.7774842 0.5657508 0.274671
vn -0.7774842 0.5657508 0.274671
vn -0.7774842 0.5657509 0.274671
vn -0.5997626 0.7094593 0.3700706
vn -0.5997626 0.7094593 0.3700705
vn -0.5997626 0.7094594 0.3700705
vn -0.5782197 0.7796012 0.2405912
vn -0.5782197 0.7796012 0.2405912
vn -0.5782197 0.7796012 0.2405912
vn 0.2666622 0.9610155 0.07307959
vn 0.2666622 0.9610155 0.07307959
vn 0.2666622 0.9610155 0.07307959
vn -0.2704039 0.9569604 -0.1053963
vn -0.2704039 0.9569604 -0.1053963
vn -0.2704039 0.9569604 -0.1053963
vn -0.1364672 0.9816135 -0.1334607
vn -0.1364672 0.9816135 -0.1334607
vn -0.1364672 0.9816135 -0.1334607
vn 0.1782208 0.4879533 -0.8544816
vn 0.1782208 0.4879533 -0.8544816
vn 0.1782208 0.4879533 -0.8544816
vn 0.8369871 0.4701732 -0.2799817
vn 0.8369871 0.4701732 -0.2799817
vn 0.8369871 0.4701732 -0.2799817
vn 0.5940077 0.6722693 -0.4418242
vn 0.5940077 0.6722695 -0.4418243
vn 0.5940078 0.6722693 -0.4418242
vn -0.5218806 0.725335 0.4489208
vn -0.5218806 0.725335 0.4489208
vn -0.5218806 0.725335 0.4489208
vn -0.6769912 0.6164268 0.4021207
vn -0.6769912 0.6164268 0.4021207
vn -0.6769912 0.6164268 0.4021206
vn -0.6303867 0.7562131 -0.1753691
vn -0.6303867 0.7562131 -0.1753691
vn -0.6303869 0.756213 -0.1753691
vn -0.6508994 0.5797029 -0.490178
vn -0.6508995 0.5797028 -0.4901781
vn -0.6508994 0.5797029 -0.490178
vn 0.1416846 0.984769 -0.1007747
vn 0.1416846 0.984769 -0.1007747
vn 0.1416846 0.984769 -0.1007747
vn -0.04773532 0.554295 -0.8309503
vn -0.0477353 0.554295 -0.8309503
vn -0.04773531 0.554295 -0.8309503
vn 0.7503986 0.5450045 0.3739948
vn 0.7503986 0.5450045 0.3739949
vn 0.7503986 0.5450045 0.3739948
vn -0.1213304 0.5657496 0.8156017
vn -0.1213304 0.5657496 0.8156017
vn -0.1213304 0.5657496 0.8156017
vn 0.04617892 0.7094595 0.7032316
vn 0.04617891 0.7094595 0.7032315
vn 0.04617891 0.7094595 0.7032315
vn -0.058144 0.7796025 0.6235698
vn -0.058144 0.7796025 0.6235698
vn -0.058144 0.7796025 0.6235698
vn 0.1894303 0.9610153 -0.2014089
vn 0.1894303 0.9610153 -0.2014089
vn 0.1894303 0.9610153 -0.2014089
vn -0.2197377 0.9569604 0.1895838
vn -0.2197377 0.9569606 0.1895837
vn -0.2197377 0.9569604 0.1895838
vn -0.181824 0.9816135 0.05809532
vn -0.181824 0.9816135 0.05809532
vn -0.181824 0.9816135 0.05809532
vn -0.6715838 0.4879542 -0.5575625
vn -0.6715838 0.4879541 -0.5575625
vn -0.6715838 0.4879542 -0.5575625
vn 0.1444975 0.4701734 -0.8706649
vn 0.1444975 0.4701734 -0.8706649
vn 0.1444975 0.4701734 -0.8706649
vn -0.112276 0.6722695 -0.7317429
vn -0.1122759 0.6722695 -0.7317429
vn -0.112276 0.6722695 -0.7317429
vn -0.8484727 0.4755837 0.2321942
vn -0.8484727 0.4755837 0.2321942
vn -0.8484727 0.4755837 0.2321941
vn -0.8608047 0.4573451 0.2232729
vn 0.7548978 0.6468338 -0.10833
vn 0.7548978 0.6468338 -0.10833
vn 0.7548977 0.646834 -0.10833
vn 0.7639874 0.6342524 -0.118521
vn 0.01982572 0.4745812 0.8799884
vn 0.01982572 0.4745812 0.8799884
vn 0.01982573 0.4745812 0.8799884
vn 0.0225509 0.476634 0.8788126
vn 0.4496388 0.5825185 0.6771241
vn 0.4496388 0.5825186 0.6771241
vn 0.4496388 0.5825185 0.6771241
vn 0.4496388 0.5825186 0.6771241
vn 0.7476031 0.5496549 0.3727856
vn 0.7476031 0.5496549 0.3727856
vn 0.7476031 0.5496548 0.3727856
vn 0.7336397 0.5641717 0.3787918
vn 0.1254718 0.670036 0.7316478
vn 0.1254718 0.670036 0.7316478
vn 0.1254719 0.670036 0.7316479
vn 0.09376898 0.6532776 0.7512893
vn 0.6794405 0.5496534 -0.4860471
vn 0.6794404 0.5496534 -0.4860471
vn 0.6794404 0.5496535 -0.4860471
vn 0.6782091 0.564172 -0.4708951
vn 0.7052422 0.6700353 0.2317025
vn 0.7052423 0.6700353 0.2317026
vn 0.7052423 0.6700353 0.2317026
vn 0.7077523 0.6532773 0.268915

vt 0.2560074 0.3028205
vt 0.2560073 0.3028205
vt 0.2560074 0.3028205
vt 0.2560074 0.3028205
vt 0.2560074 0.3028205
vt 0.2560073 0.3028205
vt 0.2560074 0.3028205
vt 0.2560074 0.3028205
vt 0.2560074 0.3028205
vt 0.2560073 0.3028205
vt 0.2560074 0.3028205
vt 0.2560074 0.3028205
vt 0.2560074 0.3028205
vt 0.2560074 0.3028205
vt 0.2560074 0.3028205
vt 0.2560074 0.3028205
vt 0.2560074 0.3028205
vt 0.2560074 0.3028205
vt 0.2560074 0.3028205
vt 0.2560074 0.3028205
vt 0.2560073 0.3028205
vt 0.2560074 0.3028205
vt 0.2560073 0.3028205
vt 0.2560074 0.3028205
vt 0.2560073 0.3028205
vt 0.2560073 0.3028205
vt 0.2560074 0.3028205
vt 0.2560074 0.3028205
vt 0.2560074 0.3028205
vt 0.2560073 0.3028205
vt 0.2560074 0.3028205
vt 0.2560074 0.3028205
vt 0.2560074 0.3028205
vt 0.2560074 0.3028205
vt 0.2560073 0.3028205
vt 0.2560074 0.3028205
vt 0.2560074 0.3028205
vt 0.2560074 0.3028205
vt 0.2560073 0.3028205
vt 0.2560074 0.3028205
vt 0.2560074 0.3028205
vt 0.2560074 0.3028205
vt 0.2560073 0.3028205
vt 0.2560074 0.3028205
vt 0.2560073 0.3028205
vt 0.2560074 0.3028205
vt 0.2560073 0.3028205
vt 0.2560073 0.3028205
vt 0.2560073 0.3028205
vt 0.2560073 0.3028205
vt 0.2560073 0.3028205
vt 0.2560074 0.3028205
vt 0.2560073 0.3028205
vt 0.2560073 0.3028205
vt 0.2560073 0.3028205
vt 0.2560074 0.3028205
vt 0.2560073 0.3028205
vt 0.2560073 0.3028205
vt 0.2560074 0.3028205
vt 0.2560073 0.3028205
vt 0.2560074 0.3028205
vt 0.2560074 0.3028205
vt 0.2560073 0.3028205
vt 0.2560074 0.3028205
vt 0.2560074 0.3028205
vt 0.2560074 0.3028205
vt 0.2560074 0.3028205
vt 0.2560074 0.3028205
vt 0.2560074 0.3028205
vt 0.2560074 0.3028205
vt 0.2560074 0.3028205
vt 0.2560074 0.3028205
vt 0.2560073 0.3028205
vt 0.2560073 0.3028205
vt 0.2560074 0.3028205
vt 0.2560074 0.3028205
vt 0.2560074 0.3028205
vt 0.2560073 0.3028205
vt 0.2560074 0.3028205
vt 0.2560074 0.3028205
vt 0.2560074 0.3028205
vt 0.2560074 0.3028205
vt 0.2560073 0.3028205
vt 0.2560074 0.3028205
vt 0.2560074 0.3028205
vt 0.2560074 0.3028205
vt 0.2560073 0.3028205
vt 0.2560074 0.3028205
vt 0.2560074 0.3028205
vt 0.2560074 0.3028205
vt 0.2560073 0.3028205
vt 0.2560074 0.3028205
vt 0.2560073 0.3028205
vt 0.2560074 0.3028205
vt 0.2560073 0.3028205
vt 0.2560073 0.3028205
vt 0.2560073 0.3028205
vt 0.2560073 0.3028205
vt 0.2560073 0.3028205
vt 0.2560074 0.3028205
vt 0.2560073 0.3028205
vt 0.2560073 0.3028205
vt 0.2560073 0.3028205
vt 0.2560074 0.3028205
vt 0.2560073 0.3028205
vt 0.2560073 0.3028205
vt 0.2560074 0.3028205
vt 0.2560073 0.3028205
vt 0.2560074 0.3028205
vt 0.2560074 0.3028205
vt 0.2560073 0.3028205
vt 0.2560074 0.3028205
vt 0.2560074 0.3028205
vt 0.2560074 0.3028205
vt 0.2560074 0.3028205
vt 0.2560074 0.3028205
vt 0.2560074 0.3028205
vt 0.2560074 0.3028205
vt 0.2560074 0.3028205
vt 0.2560074 0.3028205
vt 0.2560073 0.3028205
vt 0.2560073 0.3028205
vt 0.2560074 0.3028205
vt 0.2560074 0.3028205
vt 0.2560073 0.3028205
vt 0.2560074 0.3028205
vt 0.2560073 0.3028205
vt 0.2560074 0.3028205
vt 0.2560073 0.3028205
vt 0.2560073 0.3028205
vt 0.2560073 0.3028205
vt 0.2560074 0.3028205
vt 0.2560074 0.3028205
vt 0.2560073 0.3028205
vt 0.2560073 0.3028205
vt 0.2560073 0.3028205
vt 0.2560073 0.3028205
vt 0.2560074 0.3028205
vt 0.2560073 0.3028205
vt 0.2560074 0.3028205
vt 0.2560074 0.3028205
vt 0.2560073 0.3028205
vt 0.2560073 0.3028205
vt 0.2560073 0.3028205
vt 0.2560073 0.3028205
vt 0.2560074 0.3028205
vt 0.2560073 0.3028205
vt 0.2560074 0.3028205
vt 0.2560074 0.3028205
vt 0.2560073 0.3028205
vt 0.2560073 0.3028205
vt 0.2560073 0.3028205

usemtl PolygonWestern_Material_01_A
usemap PolygonWestern_Material_01_A
f 2/2/2 1/1/1 3/3/3
f 5/5/5 4/4/4 6/6/6
f 8/8/8 7/7/7 9/9/9
f 11/11/11 10/10/10 12/12/12
f 14/14/14 13/13/13 15/15/15
f 17/17/17 16/16/16 18/18/18
f 20/20/20 19/19/19 21/21/21
f 23/23/23 22/22/22 24/24/24
f 26/26/26 25/25/25 27/27/27
f 29/29/29 28/28/28 30/30/30
f 32/32/32 31/31/31 33/33/33
f 35/35/35 34/34/34 36/36/36
f 38/38/38 37/37/37 39/39/39
f 41/41/41 40/40/40 42/42/42
f 44/44/44 43/43/43 45/45/45
f 47/47/47 46/46/46 48/48/48
f 50/50/50 49/49/49 51/51/51
f 53/53/53 52/52/52 54/54/54
f 56/56/56 55/55/55 57/57/57
f 59/59/59 58/58/58 60/60/60
f 62/62/62 61/61/61 63/63/63
f 65/65/65 64/64/64 66/66/66
f 68/68/68 67/67/67 69/69/69
f 71/71/71 70/70/70 72/72/72
f 74/74/74 73/73/73 75/75/75
f 77/77/77 76/76/76 78/78/78
f 80/80/80 79/79/79 81/81/81
f 83/83/83 82/82/82 84/84/84
f 86/86/86 85/85/85 87/87/87
f 89/89/89 88/88/88 90/90/90
f 92/92/92 91/91/91 93/93/93
f 95/95/95 94/94/94 96/96/96
f 98/98/98 97/97/97 99/99/99
f 101/101/101 100/100/100 102/102/102
f 104/104/104 103/103/103 105/105/105
f 107/107/107 106/106/106 108/108/108
f 110/110/110 109/109/109 111/111/111
f 113/113/113 112/112/112 114/114/114
f 116/116/116 115/115/115 117/117/117
f 119/119/119 118/118/118 120/120/120
f 122/122/122 121/121/121 123/123/123
f 123/123/123 124/124/124 122/122/122
f 126/126/126 125/125/125 127/127/127
f 127/127/127 128/128/128 126/126/126
f 130/130/130 129/129/129 131/131/131
f 132/132/132 131/131/131 129/129/129
f 134/134/134 133/133/133 135/135/135
f 135/135/135 133/133/133 136/136/136
f 138/138/138 137/137/137 139/139/139
f 139/139/139 140/140/140 138/138/138
f 142/142/142 141/141/141 143/143/143
f 144/144/144 142/142/142 143/143/143
f 146/146/146 145/145/145 147/147/147
f 147/147/147 148/148/148 146/146/146
f 150/150/150 149/149/149 151/151/151
f 152/152/152 150/150/150 151/151/151
