mtllib ./SM_Env_DustPile_Long_02_73.mtl
g SM_Env_DustPile_Long_02
v -1.949255 0.462413 0.231756
v -2.118556 0.462413 -0.02092065
v -0.9746265 0.6224173 -0.02092065
v 3.64098E-07 0.535942 -0.02092065
v 0.9746273 0.6224173 -0.02092065
v 0.9746273 0.3514332 0.2068102
v 1.949254 0.462413 0.231756
v 1.162534 0.143676 0.3787518
v 2.325067 0.143676 0.5033497
v 1.949254 0.462413 0.231756
v 0.9746273 0.3514332 0.2068102
v 2.118557 0.462413 -0.02092065
v 0.9746273 0.3514332 0.2068102
v 0.9746273 0.6224173 -0.02092065
v 2.118557 0.462413 -0.02092065
v -0.9746265 0.6224173 -0.02092065
v -2.118556 0.462413 -0.02092065
v -0.9746265 0.3514332 -0.2486515
v -1.162533 0.143676 -0.4297695
v 3.64098E-07 0.462413 -0.2735973
v 3.64098E-07 0.143676 -0.5543649
v 3.64098E-07 0.462413 -0.2735973
v 1.23845 0.3514332 -0.3903938
v 1.438123 0.143676 -0.6025925
v 2.325067 0.143676 -0.5543649
v 1.949254 0.462413 -0.2735973
v 2.735199 -0.2739221 -0.9133695
v 1.691801 -0.2739221 -0.9928291
v 4.283232E-07 -0.2739221 -0.9133695
v -1.162533 0.143676 -0.4297695
v -1.367599 -0.2739221 -0.7080864
v -2.118556 0.462413 -0.02092065
v -1.949255 0.462413 -0.2735973
v -0.9746265 0.3514332 -0.2486515
v -0.9746265 0.6224173 -0.02092065
v -0.9746265 0.3514332 -0.2486515
v 3.64098E-07 0.535942 -0.02092065
v -1.949255 0.462413 -0.2735973
v -1.162533 0.143676 -0.4297695
v -2.325067 0.143676 -0.5543649
v -1.367599 -0.2739221 -0.7080864
v -2.735198 -0.2739221 -0.9133695
v 2.118557 0.462413 -0.02092065
v 0.9746273 0.6224173 -0.02092065
v 1.949254 0.462413 -0.2735973
v -2.118556 0.462413 -0.02092065
v -1.949255 0.462413 0.231756
v -2.527011 0.143676 -0.02550648
v -1.949255 0.462413 0.231756
v -2.325067 0.143676 0.5033497
v -2.527011 0.143676 -0.02550648
v 2.118557 0.462413 -0.02092065
v 2.527011 0.143676 -0.02550648
v 1.949254 0.462413 0.231756
v 2.527011 0.143676 -0.02550648
v 2.325067 0.143676 0.5033497
v 1.949254 0.462413 0.231756
v -2.118556 0.462413 -0.02092065
v -2.527011 0.143676 -0.02550648
v -1.949255 0.462413 -0.2735973
v -2.527011 0.143676 -0.02550648
v -2.325067 0.143676 -0.5543649
v -1.949255 0.462413 -0.2735973
v 2.118557 0.462413 -0.02092065
v 1.949254 0.462413 -0.2735973
v 2.527011 0.143676 -0.02550648
v 1.949254 0.462413 -0.2735973
v 2.325067 0.143676 -0.5543649
v 2.527011 0.143676 -0.02550648
v -1.254821 0.3514332 0.3903915
v -1.949255 0.462413 0.231756
v -0.9746265 0.6224173 -0.02092065
v 3.64098E-07 0.462413 0.231756
v -0.9746265 0.6224173 -0.02092065
v 3.64098E-07 0.535942 -0.02092065
v 3.64098E-07 0.462413 0.231756
v 0.9746273 0.3514332 0.2068102
v -0.9746265 0.3514332 -0.2486515
v 3.64098E-07 0.462413 -0.2735973
v 3.64098E-07 0.535942 -0.02092065
v 0.9746273 0.6224173 -0.02092065
v 3.64098E-07 0.462413 -0.2735973
v 1.23845 0.3514332 -0.3903938
v 0.9746273 0.6224173 -0.02092065
v 1.949254 0.462413 -0.2735973
v -1.949255 0.462413 0.231756
v -1.254821 0.3514332 0.3903915
v -2.325067 0.143676 0.5033497
v -1.455224 0.143676 0.6025925
v -2.735198 -0.2739221 0.8293169
v -1.711919 -0.2739221 0.9928291
v 0.9746273 0.3514332 0.2068102
v 1.162534 0.143676 0.3787518
v 3.64098E-07 0.462413 0.231756
v 3.64098E-07 0.143676 0.5033497
v -1.254821 0.3514332 0.3903915
v -1.455224 0.143676 0.6025925
v -1.711919 -0.2739221 0.9928291
v 4.283232E-07 -0.2739221 0.8293169
v 1.162534 0.143676 0.3787518
v 1.3676 -0.2739221 0.6240299
v 3.64098E-07 0.143676 0.5033497
v -2.325067 0.143676 0.5033497
v -2.735198 -0.2739221 0.8293169
v -2.972764 -0.2739221 -0.04202438
v -2.527011 0.143676 -0.02550648
v 2.325067 0.143676 0.5033497
v 2.735199 -0.2739221 0.8293169
v 1.3676 -0.2739221 0.6240299
v 1.162534 0.143676 0.3787518
v 2.527011 0.143676 -0.02550648
v 2.972764 -0.2739221 -0.04202438
v 2.735199 -0.2739221 0.8293169
v 2.325067 0.143676 0.5033497
v -2.527011 0.143676 -0.02550648
v -2.972764 -0.2739221 -0.04202438
v -2.735198 -0.2739221 -0.9133695
v -2.325067 0.143676 -0.5543649
v 2.325067 0.143676 -0.5543649
v 2.735199 -0.2739221 -0.9133695
v 2.972764 -0.2739221 -0.04202438
v 2.527011 0.143676 -0.02550648

vn -0.1379311 0.9861205 0.09241831
vn -0.1379311 0.9861205 0.09241831
vn -0.1379311 0.9861205 0.09241831
vn -0.05699078 0.642319 0.7643155
vn -0.05699078 0.642319 0.7643155
vn -0.07226744 0.6150968 0.7851327
vn -0.08693025 0.5860816 0.8055753
vn -0.08693025 0.5860816 0.8055753
vn -0.086418 0.5851536 0.8063046
vn -0.1109463 0.9910423 -0.07433812
vn -0.1109463 0.9910423 -0.07433812
vn -0.1109463 0.9910423 -0.07433812
vn 0.09309468 0.6631594 0.7426661
vn 0.08962684 0.6407754 0.7624788
vn 0.08962684 0.6407754 0.7624788
vn -0.08962683 0.6407754 -0.7624788
vn -0.08962683 0.6407754 -0.7624788
vn -0.09393328 0.6724402 -0.7341666
vn -0.08916274 0.6812282 -0.726621
vn -0.08916274 0.6812282 -0.726621
vn -0.0495794 0.6616511 -0.7481709
vn -0.04587632 0.6603019 -0.7495977
vn -0.006210165 0.6789498 -0.7341583
vn 0.0076517 0.6969595 -0.7170697
vn 0.03392139 0.6975071 -0.7157745
vn 0.01674697 0.6719511 -0.7404061
vn 0.04790999 0.6878282 -0.7242907
vn 0.008692848 0.675688 -0.7371365
vn -0.06609778 0.6413419 -0.7644027
vn -0.09087917 0.6392405 -0.7636182
vn -0.1015261 0.6191341 -0.7786947
vn 0.1109462 0.9910423 0.07433758
vn 0.1109462 0.9910423 0.07433758
vn 0.1109462 0.9910423 0.07433758
vn 0.05699079 0.642319 -0.7643157
vn 0.07320341 0.625061 -0.7771358
vn 0.05699079 0.642319 -0.7643157
vn 0.08730446 0.6037369 -0.7923886
vn 0.09419214 0.5866675 -0.8043315
vn 0.09658407 0.5761729 -0.811601
vn 0.1078313 0.5516816 -0.8270549
vn 0.1078313 0.5516816 -0.8270549
vn 0.1379311 0.9861205 -0.09241892
vn 0.1379311 0.9861205 -0.09241892
vn 0.1379311 0.9861205 -0.09241892
vn -0.571054 0.7262889 0.3826247
vn -0.571054 0.7262889 0.3826247
vn -0.571054 0.7262889 0.3826247
vn -0.5415979 0.8148015 0.2068094
vn -0.5415979 0.8148015 0.2068094
vn -0.5415979 0.8148015 0.2068094
vn 0.5710542 0.7262876 0.3826272
vn 0.5710542 0.7262876 0.3826272
vn 0.5710542 0.7262876 0.3826272
vn 0.5415976 0.8148019 0.2068089
vn 0.5415976 0.8148019 0.2068089
vn 0.5415976 0.8148019 0.2068089
vn -0.5665079 0.7314293 -0.3795787
vn -0.5665079 0.7314293 -0.3795787
vn -0.5665079 0.7314293 -0.3795787
vn -0.5389811 0.8167876 -0.2058093
vn -0.5389811 0.8167876 -0.2058093
vn -0.5389811 0.8167876 -0.2058093
vn 0.566508 0.731428 -0.3795812
vn 0.566508 0.731428 -0.3795812
vn 0.566508 0.731428 -0.3795812
vn 0.5389808 0.8167878 -0.2058088
vn 0.5389808 0.8167878 -0.2058088
vn 0.5389808 0.8167878 -0.2058088
vn 0.0009973067 0.8347462 0.5506338
vn 0.006711554 0.8329335 0.5533322
vn 0.0009973067 0.8347462 0.5506338
vn -0.004716984 0.8365229 0.5479116
vn 0.08488531 0.9567063 0.2784014
vn 0.1003062 0.9553294 0.2780007
vn 0.1003062 0.9553294 0.2780007
vn 0.1157031 0.9537232 0.2775334
vn -0.1157031 0.9537232 -0.2775334
vn -0.1003063 0.9553294 -0.2780008
vn -0.1003063 0.9553294 -0.2780008
vn -0.08488531 0.9567063 -0.2784015
vn 0.01780375 0.8122589 -0.5830252
vn -0.003808373 0.8050618 -0.5931787
vn -0.003808373 0.8050618 -0.5931787
vn -0.02541813 0.7973638 -0.6029633
vn -0.05637415 0.6852185 0.7261526
vn -0.06592853 0.7169536 0.6939963
vn -0.07705075 0.7088702 0.7011178
vn -0.08735087 0.7202765 0.6881654
vn -0.09921616 0.6922116 0.7148421
vn -0.09921616 0.6922116 0.7148421
vn 0.09309468 0.6631594 0.7426661
vn 0.08892724 0.6659375 0.7406883
vn 0.07225134 0.6602212 0.7475879
vn 0.05828678 0.6560296 0.7524811
vn 0.04405836 0.6693414 0.7416474
vn 0.05648003 0.6645756 0.7450833
vn 0.0636454 0.6382958 0.7671556
vn 0.08460705 0.6091326 0.7885424
vn 0.09345392 0.6132506 0.7843405
vn 0.1054209 0.5789052 0.8085514
vn 0.08352823 0.6217294 0.7787653
vn -0.6454204 0.7364707 0.2025919
vn -0.6454204 0.7364707 0.2025919
vn -0.6454204 0.7364707 0.2025919
vn -0.6454204 0.7364707 0.2025919
vn -0.1116929 0.5036514 0.8566563
vn -0.1116929 0.5036514 0.8566563
vn -0.1116929 0.5036514 0.8566563
vn -0.1116929 0.5036514 0.8566563
vn 0.6454205 0.7364708 0.2025913
vn 0.6454205 0.7364708 0.2025913
vn 0.6454205 0.7364708 0.2025913
vn 0.6454205 0.7364708 0.2025913
vn -0.6378546 0.7436766 -0.2002162
vn -0.6378546 0.7436766 -0.2002162
vn -0.6378546 0.7436766 -0.2002162
vn -0.6378546 0.7436766 -0.2002162
vn 0.6378548 0.7436767 -0.2002156
vn 0.6378548 0.7436767 -0.2002156
vn 0.6378548 0.7436767 -0.2002156
vn 0.6378548 0.7436767 -0.2002156

vt 0.2702693 0.3040437
vt 0.2702693 0.3040437
vt 0.2702693 0.3040437
vt 0.2702693 0.3040437
vt 0.2702693 0.3040437
vt 0.2702693 0.3040437
vt 0.2702694 0.3040437
vt 0.2702693 0.3040437
vt 0.2702694 0.3040437
vt 0.2702694 0.3040437
vt 0.2702693 0.3040437
vt 0.2702694 0.3040437
vt 0.2702693 0.3040437
vt 0.2702693 0.3040437
vt 0.2702694 0.3040437
vt 0.2702693 0.3040437
vt 0.2702693 0.3040437
vt 0.2702693 0.3040437
vt 0.2702694 0.3040437
vt 0.2702693 0.3040437
vt 0.2702693 0.3040437
vt 0.2702694 0.3040437
vt 0.2702693 0.3040437
vt 0.2702693 0.3040437
vt 0.2702693 0.3040437
vt 0.2702693 0.3040437
vt 0.2702693 0.3040437
vt 0.2702693 0.3040437
vt 0.2702693 0.3040437
vt 0.2702694 0.3040437
vt 0.2702694 0.3040437
vt 0.2702693 0.3040437
vt 0.2702693 0.3040437
vt 0.2702693 0.3040437
vt 0.2702693 0.3040437
vt 0.2702693 0.3040437
vt 0.2702693 0.3040437
vt 0.2702694 0.3040437
vt 0.2702693 0.3040437
vt 0.2702694 0.3040437
vt 0.2702693 0.3040437
vt 0.2702694 0.3040437
vt 0.2702694 0.3040437
vt 0.2702693 0.3040437
vt 0.2702694 0.3040437
vt 0.2702693 0.3040437
vt 0.2702694 0.3040437
vt 0.2702693 0.3040437
vt 0.2702694 0.3040437
vt 0.2702694 0.3040437
vt 0.2702693 0.3040437
vt 0.2702694 0.3040437
vt 0.2702694 0.3040437
vt 0.2702693 0.3040437
vt 0.2702694 0.3040437
vt 0.2702693 0.3040437
vt 0.2702693 0.3040437
vt 0.2702694 0.3040437
vt 0.2702694 0.3040437
vt 0.2702693 0.3040437
vt 0.2702694 0.3040437
vt 0.2702693 0.3040437
vt 0.2702693 0.3040437
vt 0.2702693 0.3040437
vt 0.2702694 0.3040437
vt 0.2702693 0.3040437
vt 0.2702694 0.3040437
vt 0.2702694 0.3040437
vt 0.2702693 0.3040437
vt 0.2702693 0.3040437
vt 0.2702693 0.3040437
vt 0.2702693 0.3040437
vt 0.2702693 0.3040437
vt 0.2702693 0.3040437
vt 0.2702693 0.3040437
vt 0.2702693 0.3040437
vt 0.2702693 0.3040437
vt 0.2702693 0.3040437
vt 0.2702693 0.3040437
vt 0.2702693 0.3040437
vt 0.2702693 0.3040437
vt 0.2702693 0.3040437
vt 0.2702693 0.3040437
vt 0.2702693 0.3040437
vt 0.2702694 0.3040437
vt 0.2702693 0.3040437
vt 0.2702694 0.3040437
vt 0.2702693 0.3040437
vt 0.2702694 0.3040437
vt 0.2702693 0.3040437
vt 0.2702694 0.3040437
vt 0.2702694 0.3040437
vt 0.2702694 0.3040437
vt 0.2702694 0.3040437
vt 0.2702694 0.3040437
vt 0.2702693 0.3040437
vt 0.2702693 0.3040437
vt 0.2702693 0.3040437
vt 0.2702694 0.3040437
vt 0.2702694 0.3040437
vt 0.2702694 0.3040437
vt 0.2702693 0.3040437
vt 0.2702694 0.3040437
vt 0.2702694 0.3040437
vt 0.2702693 0.3040437
vt 0.2702693 0.3040437
vt 0.2702694 0.3040437
vt 0.2702694 0.3040437
vt 0.2702693 0.3040437
vt 0.2702693 0.3040437
vt 0.2702694 0.3040437
vt 0.2702694 0.3040437
vt 0.2702693 0.3040437
vt 0.2702693 0.3040437
vt 0.2702694 0.3040437
vt 0.2702694 0.3040437
vt 0.2702693 0.3040437
vt 0.2702693 0.3040437
vt 0.2702694 0.3040437
vt 0.2702694 0.3040437
vt 0.2702693 0.3040437
vt 0.2702693 0.3040437

usemtl PolygonWestern_Material_01_A
usemap PolygonWestern_Material_01_A
f 2/2/2 1/1/1 3/3/3
f 5/5/5 4/4/4 6/6/6
f 7/7/7 6/6/6 8/8/8
f 9/9/9 7/7/7 8/8/8
f 11/11/11 10/10/10 12/12/12
f 14/14/14 13/13/13 15/15/15
f 17/17/17 16/16/16 18/18/18
f 19/19/19 18/18/18 20/20/20
f 21/21/21 19/19/19 20/20/20
f 21/21/21 22/22/22 23/23/23
f 24/24/24 21/21/21 23/23/23
f 24/24/24 23/23/23 25/25/25
f 23/23/23 26/26/26 25/25/25
f 27/27/27 24/24/24 25/25/25
f 28/28/28 24/24/24 27/27/27
f 28/28/28 21/21/21 24/24/24
f 29/29/29 21/21/21 28/28/28
f 29/29/29 30/30/30 21/21/21
f 31/31/31 30/30/30 29/29/29
f 33/33/33 32/32/32 34/34/34
f 36/36/36 35/35/35 37/37/37
f 38/38/38 36/36/36 39/39/39
f 40/40/40 38/38/38 39/39/39
f 41/41/41 40/40/40 39/39/39
f 42/42/42 40/40/40 41/41/41
f 44/44/44 43/43/43 45/45/45
f 47/47/47 46/46/46 48/48/48
f 50/50/50 49/49/49 51/51/51
f 53/53/53 52/52/52 54/54/54
f 56/56/56 55/55/55 57/57/57
f 59/59/59 58/58/58 60/60/60
f 62/62/62 61/61/61 63/63/63
f 65/65/65 64/64/64 66/66/66
f 68/68/68 67/67/67 69/69/69
f 71/71/71 70/70/70 72/72/72
f 72/72/72 70/70/70 73/73/73
f 75/75/75 74/74/74 76/76/76
f 75/75/75 76/76/76 77/77/77
f 79/79/79 78/78/78 80/80/80
f 79/79/79 80/80/80 81/81/81
f 83/83/83 82/82/82 84/84/84
f 83/83/83 84/84/84 85/85/85
f 87/87/87 86/86/86 88/88/88
f 89/89/89 87/87/87 88/88/88
f 90/90/90 89/89/89 88/88/88
f 91/91/91 89/89/89 90/90/90
f 93/93/93 92/92/92 94/94/94
f 95/95/95 93/93/93 94/94/94
f 95/95/95 94/94/94 96/96/96
f 97/97/97 95/95/95 96/96/96
f 98/98/98 95/95/95 97/97/97
f 99/99/99 95/95/95 98/98/98
f 101/101/101 100/100/100 99/99/99
f 99/99/99 100/100/100 102/102/102
f 104/104/104 103/103/103 105/105/105
f 105/105/105 103/103/103 106/106/106
f 108/108/108 107/107/107 109/109/109
f 109/109/109 107/107/107 110/110/110
f 112/112/112 111/111/111 113/113/113
f 113/113/113 111/111/111 114/114/114
f 116/116/116 115/115/115 117/117/117
f 117/117/117 115/115/115 118/118/118
f 120/120/120 119/119/119 121/121/121
f 121/121/121 119/119/119 122/122/122
