mtllib ./SM_Env_DustPile_Large_02_69.mtl
g SM_Env_DustPile_Large_02
v -3.006861 -0.2739221 3.006862
v -3.19933 -0.2739221 2.704422
v -2.64236 0.6165141 2.642359
v -3.006861 -0.2739221 3.006862
v -2.64236 0.6165141 2.642359
v -2.468361 -0.2739221 3.307041
v -0.6771666 -0.2739221 3.385834
v -0.6736007 0.7096481 2.697966
v 0 -0.2739221 3.323593
v 0.6736007 0.5677845 2.697966
v 0.6771663 -0.2739221 3.385834
v 1.322954 0.7232516 2.482971
v 1.329437 -0.2739221 3.323593
v 0 -0.2739221 3.323593
v -0.6736007 0.7096481 2.697966
v 0.6771663 -0.2739221 3.385834
v -1.328141 0.4573385 2.823106
v -0.6771666 -0.2739221 3.385834
v -1.329438 -0.2739221 3.323593
v -2.468361 -0.2739221 3.307041
v -2.64236 0.6165141 2.642359
v 1.329437 -0.2739221 3.323593
v 1.322954 0.7232516 2.482971
v 2.188862 -0.2739221 3.375457
v 2.188862 -0.2739221 3.375457
v 2.340716 0.761332 2.681292
v 2.704422 -0.2739221 3.199329
v 2.188862 -0.2739221 3.375457
v 1.322954 0.7232516 2.482971
v 2.340716 0.761332 2.681292
v 2.704422 -0.2739221 3.199329
v 2.340716 0.761332 2.681292
v 3.006861 -0.2739221 3.006862
v -3.19933 -0.2739221 2.704422
v -3.375459 -0.2739221 2.188862
v -2.64236 0.6165141 2.642359
v -2.64236 0.6165141 2.642359
v -1.315175 0.7844142 2.139591
v -1.328141 0.4573385 2.823106
v -2.64236 0.6165141 2.642359
v -2.311119 0.7717813 1.319063
v -1.315175 0.7844142 2.139591
v -2.64236 0.6165141 2.642359
v -2.533327 0.6235342 1.376526
v -2.311119 0.7717813 1.319063
v -1.328141 0.4573385 2.823106
v -1.315175 0.7844142 2.139591
v -0.6736007 0.7096481 2.697966
v -0.6736007 0.7096481 2.697966
v -1.315175 0.7844142 2.139591
v 0.6736007 0.5677845 2.697966
v 0.6736007 0.5677845 2.697966
v 0.6543455 0.7631515 1.308692
v 1.322954 0.7232516 2.482971
v 2.340716 0.761332 2.681292
v 2.482971 0.7232516 1.322954
v 2.681292 0.6400894 2.340717
v 0.6736007 0.5677845 2.697966
v -1.315175 0.7844142 2.139591
v 0.6543455 0.7631515 1.308692
v -2.533327 0.6235342 1.376526
v -2.697969 0.5677844 0.6735979
v -2.311119 0.7717813 1.319063
v -2.311119 0.7717813 1.319063
v -2.697969 0.5677844 0.6735979
v -1.308692 0.7631515 0.6543465
v -3.385832 -0.2739221 0.6771644
v -3.323593 -0.2739221 -1.560082E-06
v -2.697969 0.7096481 -0.6736012
v -3.385832 -0.2739221 -0.6771674
v -2.82311 0.4573385 -1.328143
v -3.323593 -0.2739221 -1.329437
v -3.375459 -0.2739221 -2.188862
v -2.64236 0.6165141 -2.642362
v -2.697969 0.5677844 0.6735979
v -2.13959 0.7844142 -1.560082E-06
v -1.308692 0.7631515 0.6543465
v -2.697969 0.5677844 0.6735979
v -2.697969 0.7096481 -0.6736012
v -2.13959 0.7844142 -1.560082E-06
v 1.308691 0.7631515 0.6543465
v 1.308691 0.7631515 -0.6543465
v 2.697969 0.5560195 0.6735979
v 3.385832 -0.2739221 0.6771644
v 2.697969 0.5560195 0.6735979
v 3.323593 -0.2739221 -1.560082E-06
v 2.440597 0.7096481 -0.7484792
v 3.385832 -0.2739221 -0.6771674
v 3.323593 -0.2739221 -1.329437
v -3.323593 -0.2739221 -1.560082E-06
v -3.385832 -0.2739221 -0.6771674
v -2.697969 0.7096481 -0.6736012
v -3.385832 -0.2739221 0.6771644
v -2.697969 0.5677844 0.6735979
v -2.533327 0.6235342 1.376526
v -3.323593 -0.2739221 1.329437
v 2.697969 0.5560195 0.6735979
v 3.385832 -0.2739221 -0.6771674
v 3.323593 -0.2739221 -1.560082E-06
v 2.482971 0.7232516 1.322954
v 3.385832 -0.2739221 0.6771644
v 3.323593 -0.2739221 1.329437
v -2.697969 0.7096481 -0.6736012
v -2.13959 0.7844142 -1.315175
v -2.13959 0.7844142 -1.560082E-06
v -2.697969 0.7096481 -0.6736012
v -2.82311 0.4573385 -1.328143
v -2.13959 0.7844142 -1.315175
v -2.13959 0.7844142 -1.560082E-06
v -2.13959 0.7844142 -1.315175
v -1.322954 0.5813881 -2.482971
v -2.13959 0.7844142 -1.560082E-06
v -1.322954 0.5813881 -2.482971
v -0.6543455 0.7631515 -1.308695
v -3.323593 -0.2739221 -1.329437
v -3.375459 -0.2739221 -2.188862
v -2.82311 0.4573385 -1.328143
v -3.375459 -0.2739221 -2.188862
v -3.19933 -0.2739221 -2.704422
v -2.64236 0.6165141 -2.642362
v -2.82311 0.4573385 -1.328143
v -2.64236 0.6165141 -2.642362
v -2.13959 0.7844142 -1.315175
v -2.13959 0.7844142 -1.315175
v -2.64236 0.6165141 -2.642362
v -1.322954 0.5813881 -2.482971
v -0.6543455 0.7631515 -1.308695
v -1.322954 0.5813881 -2.482971
v -0.6736007 0.7096481 -2.697969
v -0.6736007 0.7096481 -2.697969
v 0.6617303 0.5677844 -2.472364
v 0.6543455 0.7631515 -1.308695
v 0.6543455 0.7631515 -1.308695
v 0.6617303 0.5677844 -2.472364
v 1.319064 0.7717813 -2.311119
v 1.319064 0.7717813 -2.311119
v 0.6617303 0.5677844 -2.472364
v 2.340716 0.761332 -2.681295
v 2.139591 0.7844142 -1.315175
v 1.319064 0.7717813 -2.311119
v 2.681293 0.6400894 -2.34072
v 2.139591 0.7844142 -1.315175
v 2.681293 0.6400894 -2.34072
v 2.440597 0.7096481 -0.7484792
v 1.319064 0.7717813 -2.311119
v 2.340716 0.761332 -2.681295
v 2.681293 0.6400894 -2.34072
v 2.681293 0.6400894 -2.34072
v 3.19933 -0.2739221 -2.704422
v 3.375459 -0.2739221 -2.188862
v -3.19933 -0.2739221 -2.704422
v -3.006861 -0.2739221 -3.006862
v -2.64236 0.6165141 -2.642362
v -2.64236 0.6165141 -2.642362
v -3.006861 -0.2739221 -3.006862
v -2.468361 -0.2739221 -3.307044
v -1.322954 0.5813881 -2.482971
v -0.6771666 -0.2739221 -3.385834
v -0.6736007 0.7096481 -2.697969
v -1.322954 0.5813881 -2.482971
v -1.329438 -0.2739221 -3.323593
v -0.6771666 -0.2739221 -3.385834
v -0.6771666 -0.2739221 -3.385834
v 0 -0.2739221 -3.323593
v -0.6736007 0.7096481 -2.697969
v -0.6736007 0.7096481 -2.697969
v 0.6771663 -0.2739221 -3.385834
v 0.6617303 0.5677844 -2.472364
v -0.6736007 0.7096481 -2.697969
v 0 -0.2739221 -3.323593
v 0.6771663 -0.2739221 -3.385834
v 0.6617303 0.5677844 -2.472364
v 0.6771663 -0.2739221 -3.385834
v 2.340716 0.761332 -2.681295
v 2.681293 0.6400894 -2.34072
v 3.006861 -0.2739221 -3.006862
v 3.19933 -0.2739221 -2.704422
v -3.375459 -0.2739221 2.188862
v -2.533327 0.6235342 1.376526
v -2.64236 0.6165141 2.642359
v -3.323593 -0.2739221 1.329437
v 1.322954 0.7232516 2.482971
v 2.482971 0.7232516 1.322954
v 2.340716 0.761332 2.681292
v 1.308691 0.7312574 1.308692
v 0.6543455 0.7631515 1.308692
v 1.308691 0.7631515 0.6543465
v -0.6543455 0.7631515 -1.308695
v -1.308692 0.7631515 0.6543465
v -1.315175 0.7844142 2.139591
v -2.311119 0.7717813 1.319063
v -2.13959 0.7844142 -1.560082E-06
v 0.6543455 0.7631515 -1.308695
v -0.6736007 0.7096481 -2.697969
v 1.308691 0.7631515 -0.6543465
v 1.319064 0.7717813 -2.311119
v 2.139591 0.7844142 -1.315175
v 2.340716 0.761332 2.681292
v 2.681292 0.6400894 2.340717
v 3.30704 -0.2739221 2.468359
v 3.006861 -0.2739221 3.006862
v 2.681292 0.6400894 2.340717
v 2.482971 0.7232516 1.322954
v 3.323593 -0.2739221 1.329437
v 3.30704 -0.2739221 2.468359
v 1.308691 0.7312574 1.308692
v 1.308691 0.7631515 0.6543465
v 2.697969 0.5560195 0.6735979
v 2.482971 0.7232516 1.322954
v 1.308691 0.7631515 -0.6543465
v 2.440597 0.7096481 -0.7484792
v 2.697969 0.5560195 0.6735979
v 2.139591 0.7844142 -1.315175
v 2.440597 0.7096481 -0.7484792
v 3.375459 -0.2739221 -2.188862
v 3.323593 -0.2739221 -1.329437
v 2.681293 0.6400894 -2.34072
v -2.64236 0.6165141 -2.642362
v -2.468361 -0.2739221 -3.307044
v -1.329438 -0.2739221 -3.323593
v -1.322954 0.5813881 -2.482971
v 0.6771663 -0.2739221 -3.385834
v 1.329437 -0.2739221 -3.323593
v 2.340716 0.761332 -2.681295
v 2.468361 -0.2739221 -3.307044
v 2.340716 0.761332 -2.681295
v 2.468361 -0.2739221 -3.307044
v 3.006861 -0.2739221 -3.006862
v 2.681293 0.6400894 -2.34072

vn -0.7344809 0.4919984 0.4674135
vn -0.7344809 0.4919984 0.4674135
vn -0.7344809 0.4919984 0.4674135
vn -0.4253875 0.4865177 0.7631161
vn -0.4253875 0.4865177 0.7631161
vn -0.4253875 0.4865177 0.7631161
vn 0.07511993 0.571307 0.8172915
vn 0.07086322 0.6018656 0.7954472
vn 0.07511993 0.571307 0.8172915
vn 0.08534851 0.6307039 0.7713159
vn 0.08114906 0.6348665 0.7683485
vn 0.08846471 0.6364603 0.7662195
vn 0.07274101 0.6431069 0.7623137
vn -0.07949221 0.4956782 0.8648607
vn -0.07191784 0.5344355 0.8421441
vn -0.07949221 0.4956782 0.8648607
vn -0.05680592 0.5723381 0.8180478
vn -0.07134745 0.5676396 0.8201798
vn -0.05310925 0.5724537 0.8182153
vn -0.02768346 0.5813259 0.8131998
vn -0.02768346 0.5813259 0.8131998
vn -0.04609897 0.6436775 0.7639071
vn -0.04609897 0.6436775 0.7639071
vn -0.04609897 0.6436775 0.7639071
vn 0.2787833 0.5062938 0.8160554
vn 0.2787833 0.5062938 0.8160554
vn 0.2787833 0.5062938 0.8160554
vn -0.1780395 0.5659019 0.8050199
vn -0.1780395 0.5659019 0.8050199
vn -0.1780395 0.5659019 0.8050199
vn 0.4581826 0.5212451 0.7199808
vn 0.4581826 0.5212451 0.7199808
vn 0.4581826 0.5212451 0.7199808
vn -0.8062634 0.5235183 0.2754412
vn -0.8062634 0.5235183 0.2754412
vn -0.8062634 0.5235183 0.2754412
vn 0.04967693 0.9005623 0.4318793
vn 0.04967693 0.9005623 0.4318793
vn 0.04967693 0.9005623 0.4318793
vn -0.08988757 0.9915214 0.0938386
vn -0.08988757 0.9915214 0.0938386
vn -0.08988757 0.9915214 0.0938386
vn -0.5622696 0.8257905 -0.04385167
vn -0.5622696 0.8257905 -0.04385167
vn -0.5622696 0.8257905 -0.04385167
vn -0.257724 0.8734655 0.4130816
vn -0.257724 0.8734655 0.4130816
vn -0.257724 0.8734655 0.4130816
vn 0.1047148 0.9944195 0.01283468
vn 0.1047148 0.9944195 0.01283468
vn 0.1047148 0.9944195 0.01283468
vn -0.1866955 0.9724855 0.1393436
vn -0.1866955 0.9724855 0.1393436
vn -0.1866955 0.9724855 0.1393436
vn 0.3439528 0.9389369 0.009698634
vn 0.3439528 0.9389369 0.009698634
vn 0.3439528 0.9389369 0.009698634
vn 0.06888101 0.9880359 0.137988
vn 0.06888101 0.9880359 0.137988
vn 0.05881616 0.9938893 0.0934064
vn -0.5430334 0.8375095 0.06076756
vn -0.5430334 0.8375095 0.06076756
vn -0.5430334 0.8375095 0.06076756
vn -0.1387986 0.9651524 -0.2218459
vn -0.1387986 0.9651524 -0.2218459
vn -0.1387986 0.9651524 -0.2218459
vn -0.8648612 0.4956777 -0.07948997
vn -0.8648612 0.4956777 -0.07948997
vn -0.8421451 0.534434 -0.0719154
vn -0.8201818 0.5676369 -0.07134517
vn -0.807191 0.5874264 -0.05807708
vn -0.822619 0.563149 -0.07849325
vn -0.7794263 0.6257058 -0.03141357
vn -0.7794263 0.6257058 -0.03141357
vn -0.1336697 0.9703732 0.201267
vn -0.1336697 0.9703732 0.201267
vn -0.1336697 0.9703732 0.201267
vn -0.2511764 0.9626189 0.1013663
vn -0.2511764 0.9626189 0.1013663
vn -0.2511764 0.9626189 0.1013663
vn 0.1474633 0.9890675 0
vn 0.1474633 0.9890675 0
vn 0.1474633 0.9890675 0
vn 0.7681596 0.6363539 -0.07060206
vn 0.7455198 0.6634597 -0.06341437
vn 0.7681596 0.6363539 -0.07060206
vn 0.7218687 0.6892011 -0.06250986
vn 0.7218687 0.6892011 -0.06250986
vn 0.7217963 0.6886702 -0.06887286
vn -0.8172933 0.5713045 0.07511798
vn -0.8172933 0.5713045 0.07511798
vn -0.7954491 0.6018631 0.07086217
vn -0.7638782 0.6391369 0.08941029
vn -0.770367 0.6299793 0.09828977
vn -0.7593927 0.6427693 0.1008474
vn -0.750438 0.6570505 0.07160549
vn 0.7966545 0.5987025 0.08304753
vn 0.8248457 0.5602519 0.0758121
vn 0.8248457 0.5602519 0.0758121
vn 0.7644979 0.6394639 0.08141806
vn 0.7644979 0.6394639 0.08141806
vn 0.7623137 0.6431071 0.07273867
vn -0.132714 0.9911543 0
vn -0.132714 0.9911543 0
vn -0.132714 0.9911543 0
vn -0.413079 0.8734668 -0.2577237
vn -0.413079 0.8734668 -0.2577237
vn -0.413079 0.8734668 -0.2577237
vn 0.2412684 0.9704584 0
vn 0.2412684 0.9704584 0
vn 0.2412684 0.9704584 0
vn -0.08055236 0.9909343 -0.1075194
vn -0.08055236 0.9909343 -0.1075194
vn -0.08055236 0.9909343 -0.1075194
vn -0.8242493 0.5640379 0.04974335
vn -0.8242493 0.5640379 0.04974335
vn -0.8242493 0.5640379 0.04974335
vn -0.8062639 0.5235176 -0.2754414
vn -0.8062639 0.5235176 -0.2754414
vn -0.8062639 0.5235176 -0.2754414
vn -0.431877 0.9005634 0.04967653
vn -0.431877 0.9005634 0.04967653
vn -0.431877 0.9005634 0.04967653
vn 0.04343096 0.9889756 -0.1415663
vn 0.04343096 0.9889756 -0.1415663
vn 0.04343096 0.9889756 -0.1415663
vn -0.2047461 0.9781951 -0.03483419
vn -0.2047461 0.9781951 -0.03483419
vn -0.2047461 0.9781951 -0.03483419
vn 0.1314707 0.9777736 -0.1633228
vn 0.1314707 0.9777736 -0.1633228
vn 0.1314707 0.9777736 -0.1633228
vn -0.2561173 0.9530371 -0.1616296
vn -0.2561173 0.9530371 -0.1616296
vn -0.2561173 0.9530371 -0.1616296
vn -0.158012 0.8733501 -0.4607513
vn -0.158012 0.8733501 -0.4607513
vn -0.158012 0.8733501 -0.4607513
vn 0.09389888 0.991511 -0.08993696
vn 0.09389888 0.991511 -0.08993696
vn 0.09389888 0.991511 -0.08993696
vn 0.2492559 0.9684266 -0.004627304
vn 0.2492559 0.9684266 -0.004627304
vn 0.2492559 0.9684266 -0.004627304
vn 0.0985663 0.9645488 0.2448066
vn 0.0985663 0.9645488 0.2448066
vn 0.0985663 0.9645488 0.2448066
vn 0.7879844 0.5537268 -0.2691975
vn 0.7879844 0.5537268 -0.2691975
vn 0.7879844 0.5537268 -0.2691975
vn -0.7344815 0.4919973 -0.4674139
vn -0.7344815 0.4919973 -0.4674139
vn -0.7344815 0.4919973 -0.4674139
vn -0.4253912 0.4865161 -0.7631149
vn -0.4253912 0.4865161 -0.7631149
vn -0.4253912 0.4865161 -0.7631149
vn -0.3588802 0.5358027 -0.7642778
vn -0.3588802 0.5358027 -0.7642778
vn -0.3588802 0.5358027 -0.7642778
vn -0.0678734 0.6996016 -0.7113022
vn -0.0678734 0.6996016 -0.7113022
vn -0.0678734 0.6996016 -0.7113022
vn 0.07512004 0.5713053 -0.8172927
vn 0.07512004 0.5713053 -0.8172927
vn 0.07512004 0.5713053 -0.8172927
vn 0.1890186 0.7237363 -0.6636849
vn 0.1890186 0.7237363 -0.6636849
vn 0.1890186 0.7237363 -0.6636849
vn -0.07949235 0.4956762 -0.8648619
vn -0.07949235 0.4956762 -0.8648619
vn -0.07949235 0.4956762 -0.8648619
vn -0.1667577 0.7237004 -0.6696638
vn -0.1667577 0.7237004 -0.6696638
vn -0.1667577 0.7237004 -0.6696638
vn 0.6938114 0.5689263 -0.44153
vn 0.6938114 0.5689263 -0.44153
vn 0.6938114 0.5689263 -0.44153
vn -0.7518092 0.6572234 -0.05329554
vn -0.7518092 0.6572234 -0.05329554
vn -0.7549859 0.652859 -0.06141045
vn -0.748561 0.6615252 -0.04517558
vn 0.008050667 0.999949 -0.006114119
vn -0.01227834 0.9998492 -0.01227833
vn -0.03128333 0.9990209 -0.03128331
vn 0.03469531 0.9991869 0.02053478
vn 0.02042492 0.9997584 0.008114227
vn 0.012162 0.9998521 0.01216202
vn 0.004053597 0.9999716 -0.006346711
vn 0.006036118 0.9999669 -0.005464697
vn 0.001938984 0.9998958 -0.01430603
vn -0.0008865633 0.9998971 -0.01431838
vn 0.02026464 0.9997719 0.006754867
vn -0.001294276 0.9999645 -0.008328027
vn 0 0.9992592 -0.03848317
vn -0.00890897 0.9999545 0.003416456
vn -0.0133633 0.9998976 0.005124624
vn -0.02154941 0.999755 0.005072629
vn 0.7015576 0.5657166 0.4333376
vn 0.7015576 0.5657166 0.4333376
vn 0.7015576 0.5657166 0.4333376
vn 0.7015576 0.5657166 0.4333376
vn 0.7941013 0.6062231 -0.04355161
vn 0.7941013 0.6062231 -0.04355161
vn 0.7941013 0.6062231 -0.04355161
vn 0.7941013 0.6062231 -0.04355161
vn 0.08445161 0.9924361 -0.0890983
vn 0.08445161 0.9924361 -0.0890983
vn 0.08445161 0.9924361 -0.0890983
vn 0.08445161 0.9924361 -0.0890983
vn 0.05523622 0.9935029 0.099503
vn 0.05523622 0.9935029 0.099503
vn 0.05507052 0.9937218 0.09738608
vn 0.05540167 0.9932795 0.1016194
vn 0.7715309 0.632452 0.0688804
vn 0.7715309 0.632452 0.0688804
vn 0.7566086 0.6522718 0.04566122
vn 0.7855625 0.6119019 0.09202006
vn 0.0531551 0.6550242 -0.753736
vn 0.0531551 0.6550242 -0.753736
vn 0.0531551 0.6550242 -0.753736
vn 0.0531551 0.6550242 -0.753736
vn 0.08410972 0.4647161 -0.8814559
vn 0.04831988 0.4920786 -0.8692087
vn 0.04831988 0.4920786 -0.8692087
vn 0.01242474 0.5183686 -0.8550671
vn 0.5406107 0.5484701 -0.6379032
vn 0.5406107 0.5484701 -0.6379032
vn 0.5406107 0.5484701 -0.6379032
vn 0.5406107 0.5484701 -0.6379032

vt 0.2703257 0.3014277
vt 0.2703257 0.3014277
vt 0.2703257 0.3014277
vt 0.2703257 0.3014277
vt 0.2703257 0.3014277
vt 0.2703257 0.3014277
vt 0.2703257 0.3014277
vt 0.2703257 0.3014277
vt 0.2703257 0.3014277
vt 0.2703254 0.3014277
vt 0.2703254 0.3014277
vt 0.2703254 0.3014277
vt 0.2703254 0.3014277
vt 0.2703257 0.3014277
vt 0.2703257 0.3014277
vt 0.2703254 0.3014277
vt 0.2703257 0.3014277
vt 0.2703257 0.3014277
vt 0.2703257 0.3014277
vt 0.2703257 0.3014277
vt 0.2703257 0.3014277
vt 0.2703254 0.3014277
vt 0.2703254 0.3014277
vt 0.2703254 0.3014277
vt 0.2703254 0.3014277
vt 0.2703254 0.3014277
vt 0.2703253 0.3014277
vt 0.2703254 0.3014277
vt 0.2703254 0.3014277
vt 0.2703254 0.3014277
vt 0.2703253 0.3014277
vt 0.2703254 0.3014277
vt 0.2703253 0.3014277
vt 0.2703257 0.3014277
vt 0.2703257 0.3014277
vt 0.2703257 0.3014277
vt 0.2703257 0.3014277
vt 0.2703257 0.3014277
vt 0.2703257 0.3014277
vt 0.2703257 0.3014277
vt 0.2703257 0.3014277
vt 0.2703257 0.3014277
vt 0.2703257 0.3014277
vt 0.2703257 0.3014277
vt 0.2703257 0.3014277
vt 0.2703257 0.3014277
vt 0.2703257 0.3014277
vt 0.2703257 0.3014277
vt 0.2703257 0.3014277
vt 0.2703257 0.3014277
vt 0.2703254 0.3014277
vt 0.2703254 0.3014277
vt 0.2703254 0.3014277
vt 0.2703254 0.3014277
vt 0.2703254 0.3014277
vt 0.2703254 0.3014277
vt 0.2703253 0.3014277
vt 0.2703254 0.3014277
vt 0.2703257 0.3014277
vt 0.2703254 0.3014277
vt 0.2703257 0.3014277
vt 0.2703257 0.3014277
vt 0.2703257 0.3014277
vt 0.2703257 0.3014277
vt 0.2703257 0.3014277
vt 0.2703257 0.3014277
vt 0.2703257 0.3014277
vt 0.2703257 0.3014277
vt 0.2703257 0.3014277
vt 0.2703257 0.3014277
vt 0.2703257 0.3014277
vt 0.2703257 0.3014277
vt 0.2703257 0.3014277
vt 0.2703257 0.3014277
vt 0.2703257 0.3014277
vt 0.2703257 0.3014277
vt 0.2703257 0.3014277
vt 0.2703257 0.3014277
vt 0.2703257 0.3014277
vt 0.2703257 0.3014277
vt 0.2703254 0.3014277
vt 0.2703254 0.3014277
vt 0.2703253 0.3014277
vt 0.2703253 0.3014277
vt 0.2703253 0.3014277
vt 0.2703253 0.3014277
vt 0.2703253 0.3014277
vt 0.2703253 0.3014277
vt 0.2703253 0.3014277
vt 0.2703257 0.3014277
vt 0.2703257 0.3014277
vt 0.2703257 0.3014277
vt 0.2703257 0.3014277
vt 0.2703257 0.3014277
vt 0.2703257 0.3014277
vt 0.2703257 0.3014277
vt 0.2703253 0.3014277
vt 0.2703253 0.3014277
vt 0.2703253 0.3014277
vt 0.2703254 0.3014277
vt 0.2703253 0.3014277
vt 0.2703253 0.3014277
vt 0.2703257 0.3014277
vt 0.2703257 0.3014277
vt 0.2703257 0.3014277
vt 0.2703257 0.3014277
vt 0.2703257 0.3014277
vt 0.2703257 0.3014277
vt 0.2703257 0.3014277
vt 0.2703257 0.3014277
vt 0.2703257 0.3014277
vt 0.2703257 0.3014277
vt 0.2703257 0.3014277
vt 0.2703257 0.3014277
vt 0.2703257 0.3014277
vt 0.2703257 0.3014277
vt 0.2703257 0.3014277
vt 0.2703257 0.3014277
vt 0.2703257 0.3014277
vt 0.2703257 0.3014277
vt 0.2703257 0.3014277
vt 0.2703257 0.3014277
vt 0.2703257 0.3014277
vt 0.2703257 0.3014277
vt 0.2703257 0.3014277
vt 0.2703257 0.3014277
vt 0.2703257 0.3014277
vt 0.2703257 0.3014277
vt 0.2703257 0.3014277
vt 0.2703257 0.3014277
vt 0.2703254 0.3014277
vt 0.2703254 0.3014277
vt 0.2703254 0.3014277
vt 0.2703254 0.3014277
vt 0.2703254 0.3014277
vt 0.2703254 0.3014277
vt 0.2703254 0.3014277
vt 0.2703254 0.3014277
vt 0.2703254 0.3014277
vt 0.2703254 0.3014277
vt 0.2703253 0.3014277
vt 0.2703254 0.3014277
vt 0.2703253 0.3014277
vt 0.2703253 0.3014277
vt 0.2703254 0.3014277
vt 0.2703254 0.3014277
vt 0.2703253 0.3014277
vt 0.2703253 0.3014277
vt 0.2703253 0.3014277
vt 0.2703253 0.3014277
vt 0.2703257 0.3014277
vt 0.2703257 0.3014277
vt 0.2703257 0.3014277
vt 0.2703257 0.3014277
vt 0.2703257 0.3014277
vt 0.2703257 0.3014277
vt 0.2703257 0.3014277
vt 0.2703257 0.3014277
vt 0.2703257 0.3014277
vt 0.2703257 0.3014277
vt 0.2703257 0.3014277
vt 0.2703257 0.3014277
vt 0.2703257 0.3014277
vt 0.2703257 0.3014277
vt 0.2703257 0.3014277
vt 0.2703257 0.3014277
vt 0.2703254 0.3014277
vt 0.2703254 0.3014277
vt 0.2703257 0.3014277
vt 0.2703257 0.3014277
vt 0.2703254 0.3014277
vt 0.2703254 0.3014277
vt 0.2703254 0.3014277
vt 0.2703254 0.3014277
vt 0.2703253 0.3014277
vt 0.2703253 0.3014277
vt 0.2703253 0.3014277
vt 0.2703257 0.3014277
vt 0.2703257 0.3014277
vt 0.2703257 0.3014277
vt 0.2703257 0.3014277
vt 0.2703254 0.3014277
vt 0.2703254 0.3014277
vt 0.2703254 0.3014277
vt 0.2703254 0.3014277
vt 0.2703254 0.3014277
vt 0.2703254 0.3014277
vt 0.2703257 0.3014277
vt 0.2703257 0.3014277
vt 0.2703257 0.3014277
vt 0.2703257 0.3014277
vt 0.2703257 0.3014277
vt 0.2703254 0.3014277
vt 0.2703257 0.3014277
vt 0.2703254 0.3014277
vt 0.2703254 0.3014277
vt 0.2703254 0.3014277
vt 0.2703254 0.3014277
vt 0.2703253 0.3014277
vt 0.2703253 0.3014277
vt 0.2703253 0.3014277
vt 0.2703253 0.3014277
vt 0.2703254 0.3014277
vt 0.2703253 0.3014277
vt 0.2703253 0.3014277
vt 0.2703254 0.3014277
vt 0.2703254 0.3014277
vt 0.2703253 0.3014277
vt 0.2703254 0.3014277
vt 0.2703254 0.3014277
vt 0.2703253 0.3014277
vt 0.2703253 0.3014277
vt 0.2703254 0.3014277
vt 0.2703253 0.3014277
vt 0.2703253 0.3014277
vt 0.2703253 0.3014277
vt 0.2703253 0.3014277
vt 0.2703257 0.3014277
vt 0.2703257 0.3014277
vt 0.2703257 0.3014277
vt 0.2703257 0.3014277
vt 0.2703254 0.3014277
vt 0.2703254 0.3014277
vt 0.2703254 0.3014277
vt 0.2703254 0.3014277
vt 0.2703254 0.3014277
vt 0.2703254 0.3014277
vt 0.2703253 0.3014277
vt 0.2703253 0.3014277

usemtl PolygonWestern_Material_01_A
usemap PolygonWestern_Material_01_A
f 2/2/2 1/1/1 3/3/3
f 5/5/5 4/4/4 6/6/6
f 8/8/8 7/7/7 9/9/9
f 10/10/10 8/8/8 11/11/11
f 10/10/10 11/11/11 12/12/12
f 12/12/12 11/11/11 13/13/13
f 15/15/15 14/14/14 16/16/16
f 15/15/15 17/17/17 18/18/18
f 17/17/17 19/19/19 18/18/18
f 17/17/17 20/20/20 19/19/19
f 21/21/21 20/20/20 17/17/17
f 23/23/23 22/22/22 24/24/24
f 26/26/26 25/25/25 27/27/27
f 29/29/29 28/28/28 30/30/30
f 32/32/32 31/31/31 33/33/33
f 35/35/35 34/34/34 36/36/36
f 38/38/38 37/37/37 39/39/39
f 41/41/41 40/40/40 42/42/42
f 44/44/44 43/43/43 45/45/45
f 47/47/47 46/46/46 48/48/48
f 50/50/50 49/49/49 51/51/51
f 53/53/53 52/52/52 54/54/54
f 56/56/56 55/55/55 57/57/57
f 59/59/59 58/58/58 60/60/60
f 62/62/62 61/61/61 63/63/63
f 65/65/65 64/64/64 66/66/66
f 68/68/68 67/67/67 69/69/69
f 71/71/71 70/70/70 69/69/69
f 72/72/72 70/70/70 71/71/71
f 74/74/74 73/73/73 71/71/71
f 76/76/76 75/75/75 77/77/77
f 79/79/79 78/78/78 80/80/80
f 82/82/82 81/81/81 83/83/83
f 85/85/85 84/84/84 86/86/86
f 87/87/87 85/85/85 88/88/88
f 87/87/87 88/88/88 89/89/89
f 91/91/91 90/90/90 92/92/92
f 92/92/92 93/93/93 94/94/94
f 93/93/93 95/95/95 94/94/94
f 93/93/93 96/96/96 95/95/95
f 98/98/98 97/97/97 99/99/99
f 97/97/97 100/100/100 101/101/101
f 101/101/101 100/100/100 102/102/102
f 104/104/104 103/103/103 105/105/105
f 107/107/107 106/106/106 108/108/108
f 110/110/110 109/109/109 111/111/111
f 113/113/113 112/112/112 114/114/114
f 116/116/116 115/115/115 117/117/117
f 119/119/119 118/118/118 120/120/120
f 122/122/122 121/121/121 123/123/123
f 125/125/125 124/124/124 126/126/126
f 128/128/128 127/127/127 129/129/129
f 131/131/131 130/130/130 132/132/132
f 134/134/134 133/133/133 135/135/135
f 137/137/137 136/136/136 138/138/138
f 140/140/140 139/139/139 141/141/141
f 143/143/143 142/142/142 144/144/144
f 146/146/146 145/145/145 147/147/147
f 149/149/149 148/148/148 150/150/150
f 152/152/152 151/151/151 153/153/153
f 155/155/155 154/154/154 156/156/156
f 158/158/158 157/157/157 159/159/159
f 161/161/161 160/160/160 162/162/162
f 164/164/164 163/163/163 165/165/165
f 167/167/167 166/166/166 168/168/168
f 170/170/170 169/169/169 171/171/171
f 173/173/173 172/172/172 174/174/174
f 176/176/176 175/175/175 177/177/177
f 179/179/179 178/178/178 180/180/180
f 181/181/181 178/178/178 179/179/179
f 183/183/183 182/182/182 184/184/184
f 185/185/185 182/182/182 183/183/183
f 186/186/186 182/182/182 185/185/185
f 187/187/187 186/186/186 185/185/185
f 188/188/188 186/186/186 187/187/187
f 188/188/188 189/189/189 186/186/186
f 189/189/189 190/190/190 186/186/186
f 189/189/189 191/191/191 190/190/190
f 192/192/192 189/189/189 188/188/188
f 193/193/193 188/188/188 187/187/187
f 194/194/194 188/188/188 193/193/193
f 193/193/193 187/187/187 195/195/195
f 196/196/196 193/193/193 195/195/195
f 196/196/196 195/195/195 197/197/197
f 199/199/199 198/198/198 200/200/200
f 200/200/200 198/198/198 201/201/201
f 203/203/203 202/202/202 204/204/204
f 204/204/204 202/202/202 205/205/205
f 207/207/207 206/206/206 208/208/208
f 208/208/208 206/206/206 209/209/209
f 211/211/211 210/210/210 212/212/212
f 213/213/213 210/210/210 211/211/211
f 215/215/215 214/214/214 216/216/216
f 217/217/217 214/214/214 215/215/215
f 219/219/219 218/218/218 220/220/220
f 220/220/220 218/218/218 221/221/221
f 223/223/223 222/222/222 224/224/224
f 223/223/223 224/224/224 225/225/225
f 227/227/227 226/226/226 228/228/228
f 228/228/228 226/226/226 229/229/229
