mtllib ./SM_Env_Road_Straight_01_16.mtl
g SM_Env_Road_Straight_01
v -6.490083 1.907349E-08 2.572419
v -5.722993 0.2226455 2.249756
v -5.03709 1.907349E-08 2.885353
v -5.722031 0.4146912 1.79832
v -3.439565 0.4580155 1.936793
v -5.03709 1.907349E-08 2.885353
v -3.606221 1.907349E-08 2.885353
v 0.556167 0.2459537 2.421387
v 2.319429 1.907349E-08 3.105988
v 2.268608 0.2483198 2.42204
v 6.411469 1.907349E-08 2.888358
v 5.693604 0.2391646 2.249952
v 4.551636 0.4689076 1.802904
v 5.694243 0.4320184 1.799971
v 7.089507 1.907349E-08 2.40446
v -3.439565 0.4580155 1.936793
v -0.01416016 0.4503673 1.796079
v 2.267852 0.4192389 1.926029
v 3.241875 0.4534531 1.582363
v 1.127354 0.5282028 1.953325
v -4.936992 0.5531243 1.238481
v -5.989648 0.4624068 0.4487158
v -3.439936 0.4692856 1.005743
v -0.01506348 0.4673396 0.4510571
v -0.01523926 0.4232819 0.003803711
v 1.126582 0.5115506 0.9700097
v 1.126582 0.5115506 0.9700097
v -0.01484863 0.522192 1.351229
v -2.464189 0.5578405 0.5620154
v 1.127002 0.50572 1.453552
v 2.059585 0.5136114 1.083113
v 3.241875 0.4534531 1.582363
v 1.498227 0.5484789 -0.2646265
v -0.01523926 0.4232819 0.003803711
v -0.01449219 0.4777669 -0.9006909
v -0.9836475 0.4902724 -0.7560717
v 1.127002 0.50572 1.453552
v 2.267852 0.4192389 1.926029
v 5.13106 0.5254446 1.349619
v 4.551636 0.4689076 1.802904
v -0.9832422 0.5350643 -0.3049145
v -0.01506348 0.4673396 0.4510571
v -3.361846 0.5194458 -0.1260522
v 1.498227 0.5484789 -0.2646265
v 3.241875 0.4534531 1.582363
v 3.241865 0.4829652 -0.2634277
v 5.13106 0.5254446 1.349619
v 6.036641 0.5134827 0.209126
v 6.036641 0.5134827 0.209126
v 5.872729 0.5188182 1.349719
v 6.026045 0.4633939 -0.2405884
v 3.241865 0.4829652 -0.2634277
v 1.498227 0.5484789 -0.2646265
v 1.127153 0.4774612 -0.9692016
v -0.01449219 0.4777669 -0.9006909
v 1.127153 0.4774612 -0.9692016
v -1.156299 0.5501091 -1.351049
v 1.12688 0.4378676 -1.453519
v 1.12688 0.4378676 -1.453519
v 2.267969 0.5183547 -1.453541
v 0.8919189 0.3834418 -1.850526
v -1.156299 0.5501091 -1.351049
v 0.8919189 0.3834418 -1.850526
v -3.439111 0.4505058 -1.934755
v 0.8919189 0.3834418 -1.850526
v -3.439175 0.5603069 -1.454036
v -2.297998 0.495961 -1.351189
v 2.068999 0.4446531 -1.863408
v 2.267969 0.5183547 -1.453541
v 3.417837 0.4579218 -1.688755
v 5.129736 0.5353073 -1.125355
v 1.363501 0.2480862 -2.465386
v 5.693296 0.4184916 -1.970896
v 2.068999 0.4446531 -1.863408
v -3.439111 0.4505058 -1.934755
v 3.417837 0.4579218 -1.688755
v 5.118623 0.4554432 -1.572024
v 5.693296 0.4184916 -1.970896
v -5.72209 0.4223095 -1.798697
v -5.760058 0.3550847 -2.299318
v -3.439175 0.5603069 -1.454036
v 6.036641 0.5134827 0.209126
v 6.026045 0.4633939 -0.2405884
v 6.595488 0.2523951 -0.01577148
v 5.872182 0.506012 -0.6917358
v 6.595488 0.2523951 -0.01577148
v 7.254458 1.907349E-08 -0.7528711
v 7.109716 1.907349E-08 -1.923572
v 5.686943 0.4100375 -1.346777
v 5.693296 0.4184916 -1.970896
v 7.254458 1.907349E-08 -0.7528711
v 7.089507 1.907349E-08 2.40446
v 5.872729 0.5188182 1.349719
v 6.036641 0.5134827 0.209126
v 6.595488 0.2523951 -0.01577148
v -7.254456 1.907349E-08 -2.096956
v -5.995854 0.4920446 -0.8993604
v -6.801889 0.2783017 0.9590905
v -2.297998 0.495961 -1.351189
v -3.439111 0.4505058 -1.934755
v -1.156299 0.5501091 -1.351049
v -2.132881 0.4573043 -0.69
v -2.297998 0.495961 -1.351189
v -3.439175 0.5603069 -1.454036
v -2.297998 0.495961 -1.351189
v -1.156299 0.5501091 -1.351049
v -0.01449219 0.4777669 -0.9006909
v 1.127153 0.4774612 -0.9692016
v 2.267969 0.5183547 -1.453541
v 6.026045 0.4633939 -0.2405884
v 5.129736 0.5353073 -1.125355
v 5.872182 0.506012 -0.6917358
v 2.068999 0.4446531 -1.863408
v 1.363501 0.2480862 -2.465386
v 3.417837 0.4579218 -1.688755
v 5.82064 1.907349E-08 -2.885355
v 5.693296 0.4184916 -1.970896
v 6.695342 0 -2.687466
v 1.152354 1.907349E-08 -3.105989
v -3.439111 0.4505058 -1.934755
v -5.760058 0.3550847 -2.299318
v -7.254456 1.907349E-08 -2.096956
v -6.583662 1.907349E-08 -2.647915
v -5.760058 0.3550847 -2.299318
v -6.583662 1.907349E-08 -2.647915
v -5.894682 1.907349E-08 -2.831255
v -5.760058 0.3550847 -2.299318
v 6.695342 0 -2.687466
v 7.109716 1.907349E-08 -1.923572
v 5.693296 0.4184916 -1.970896
v 5.693296 0.4184916 -1.970896
v 5.686943 0.4100375 -1.346777
v 5.118623 0.4554432 -1.572024
v 5.686943 0.4100375 -1.346777
v 7.254458 1.907349E-08 -0.7528711
v 5.872182 0.506012 -0.6917358
v -4.581275 0.4974312 -1.34831
v -3.439175 0.5603069 -1.454036
v -2.132881 0.4573043 -0.69
v -7.254456 1.907349E-08 1.480022
v -7.254456 1.907349E-08 -2.096956
v -6.801889 0.2783017 0.9590905
v -5.737885 0.5166032 1.092308
v -5.989648 0.4624068 0.4487158
v -4.936992 0.5531243 1.238481
v -5.995854 0.4920446 -0.8993604
v -4.338086 0.4615558 0.1520459
v -5.158242 0.5331569 -0.8984265
v -5.995854 0.4920446 -0.8993604
v -3.361846 0.5194458 -0.1260522
v -4.338086 0.4615558 0.1520459
v -3.439936 0.4692856 1.005743
v -2.464189 0.5578405 0.5620154
v -3.439936 0.4692856 1.005743
v -0.01484863 0.522192 1.351229
v -3.439565 0.4580155 1.936793
v -4.936992 0.5531243 1.238481
v -0.01416016 0.4503673 1.796079
v 1.127354 0.5282028 1.953325
v -3.439565 0.4580155 1.936793
v 1.127002 0.50572 1.453552
v 1.127354 0.5282028 1.953325
v 2.267852 0.4192389 1.926029
v -5.722031 0.4146912 1.79832
v -4.936992 0.5531243 1.238481
v -5.737885 0.5166032 1.092308
v -5.737885 0.5166032 1.092308
v -5.722031 0.4146912 1.79832
v -6.801889 0.2783017 0.9590905
v -6.801889 0.2783017 0.9590905
v -5.722031 0.4146912 1.79832
v -7.254456 1.907349E-08 1.480022
v 5.872729 0.5188182 1.349719
v 7.089507 1.907349E-08 2.40446
v 5.694243 0.4320184 1.799971
v 5.693604 0.2391646 2.249952
v 6.411469 1.907349E-08 2.888358
v 3.241875 0.4534531 1.582363
v 4.551636 0.4689076 1.802904
v 2.268608 0.2483198 2.42204
v 5.872729 0.5188182 1.349719
v 5.694243 0.4320184 1.799971
v 0.556167 0.2459537 2.421387
v 1.127354 0.5282028 1.953325
v 2.268608 0.2483198 2.42204
v -3.439565 0.4580155 1.936793
v -5.722993 0.2226455 2.249756
v 1.127354 0.5282028 1.953325
v 0.556167 0.2459537 2.421387
v -0.01416016 0.4503673 1.796079
v -5.722031 0.4146912 1.79832
v -5.722993 0.2226455 2.249756
v -7.254456 1.907349E-08 1.480022
v -6.490083 1.907349E-08 2.572419
v -7.254456 1.907349E-08 1.480022
v -5.722993 0.2226455 2.249756
v -3.361846 0.5194458 -0.1260522
v -2.132881 0.4573043 -0.69
v -0.9832422 0.5350643 -0.3049145
v -0.9836475 0.4902724 -0.7560717
v -5.995854 0.4920446 -0.8993604
v -5.72209 0.4223095 -1.798697
v -5.158242 0.5331569 -0.8984265
v -4.581275 0.4974312 -1.34831
v -3.439175 0.5603069 -1.454036
v -2.132881 0.4573043 -0.69
v -4.051528 1.907349E-08 -2.888362
v 1.152354 1.907349E-08 -3.105989
v -5.760058 0.3550847 -2.299318
v -5.894682 1.907349E-08 -2.831255
v -5.760058 0.3550847 -2.299318
v -5.72209 0.4223095 -1.798697
v -7.254456 1.907349E-08 -2.096956
v -5.995854 0.4920446 -0.8993604
v 5.118623 0.4554432 -1.572024
v 5.686943 0.4100375 -1.346777
v 5.129736 0.5353073 -1.125355
v 5.872182 0.506012 -0.6917358
v -0.9832422 0.5350643 -0.3049145
v -0.9836475 0.4902724 -0.7560717
v -0.01523926 0.4232819 0.003803711
v -0.01506348 0.4673396 0.4510571
v -5.995854 0.4920446 -0.8993604
v -5.989648 0.4624068 0.4487158
v -6.801889 0.2783017 0.9590905
v -5.737885 0.5166032 1.092308

vn -0.08906054 0.9061285 0.4135205
vn -0.0479704 0.9187258 0.3919715
vn -0.08906054 0.9061285 0.4135205
vn -0.0411769 0.9194459 0.3910546
vn -0.0411769 0.9194459 0.3910546
vn 0 0.9437719 0.3305972
vn -0.009109984 0.9341089 0.3568719
vn -0.003588977 0.9385319 0.3451739
vn 0.0009689713 0.9366441 0.3502811
vn 0.02808608 0.9363894 0.3498373
vn 0.01863725 0.9417143 0.3358967
vn 0.05565506 0.915383 0.3987187
vn 0.02685067 0.9153298 0.4018089
vn 0.07195752 0.9167219 0.3929923
vn 0.113121 0.9131837 0.3915344
vn 0.01440484 0.954209 0.2987936
vn 0.01440484 0.954209 0.2987936
vn 0.08954474 0.941687 0.3243569
vn 0.08142588 0.9423417 0.3245949
vn 0.09765764 0.9409696 0.3240973
vn 0.03119995 0.9874206 -0.155007
vn 0.03119995 0.9874206 -0.155007
vn 0.03119995 0.9874206 -0.155007
vn 0.009711727 0.9972671 -0.07323901
vn 0.006024184 0.9951649 -0.09803338
vn -0.002491745 0.9968364 -0.07944156
vn -0.01771218 0.9998429 -0.0006472156
vn 0.007649097 0.9995645 -0.02850208
vn 0.00207493 0.999925 -0.01206705
vn 0.01209992 0.9998442 0.01285448
vn 0.01485286 0.9994529 0.02955358
vn -0.006758362 0.9967403 0.08039426
vn -0.05300027 0.9981084 0.03115684
vn -0.04386001 0.9981615 0.04183354
vn -0.02496892 0.9978807 0.06008984
vn -0.005882066 0.9965579 0.08269112
vn 0.01800404 0.9940162 0.1077384
vn 0.01573899 0.9895793 0.1431268
vn -0.009023027 0.9936224 0.1123979
vn -0.009023027 0.9936224 0.1123979
vn -0.001768413 0.9994202 -0.03400392
vn 0.03870206 0.9984546 0.0398818
vn 0.01535936 0.9988734 -0.04489925
vn 0.02678587 0.999503 0.01662143
vn 0.01753934 0.9994684 0.02748238
vn -0.003406898 0.9998562 0.01660684
vn -0.01174868 0.99993 -0.001435384
vn -8.340664E-05 0.9979528 -0.06395447
vn 0.0004362572 0.9999485 -0.01014142
vn 0.00893453 0.9999543 -0.00339363
vn 0.007895445 0.993803 -0.110875
vn 0.02262981 0.9930742 -0.1152888
vn 0.01589553 0.9939629 -0.1085582
vn 0.02570089 0.9947028 -0.09952848
vn -0.005577093 0.9952319 -0.0973773
vn -0.03787426 0.9952792 -0.0893578
vn 0.04334025 0.9917499 -0.1206385
vn 0.04334025 0.9917499 -0.1206385
vn -0.07008947 0.993655 -0.08796214
vn -0.06442021 0.9919212 -0.1092811
vn -0.06154436 0.9904624 -0.1232745
vn 0.03055881 0.9790373 -0.2013753
vn -0.01568832 0.9882483 -0.1520498
vn 0.01995956 0.9700673 -0.2420148
vn 0.006791767 0.9767113 -0.2144502
vn 0.07482705 0.9721617 -0.2220417
vn 0.07482705 0.9721617 -0.2220417
vn -0.01945557 0.9856308 -0.1677899
vn -0.008021127 0.985074 -0.1719437
vn 0.00765938 0.9811777 -0.1929553
vn 0.01418565 0.983884 -0.1782442
vn -0.01526902 0.9733669 -0.2287438
vn -0.0118468 0.9727648 -0.2314914
vn -0.05300334 0.9659362 -0.253294
vn -0.008778758 0.9826558 -0.185231
vn 0.01032362 0.9915437 -0.1293624
vn 0.01032362 0.9915437 -0.1293624
vn 0.00708809 0.9965978 -0.08211294
vn -0.02925546 0.9898952 -0.1387504
vn -0.02008161 0.991104 -0.1315655
vn -0.02530328 0.9745798 -0.2226073
vn 0.3835858 0.9167922 -0.1111492
vn 0.3716828 0.9254988 -0.07282841
vn 0.3716828 0.9254988 -0.07282841
vn 0.3511799 0.9359848 -0.02460011
vn 0.3643651 0.9312527 -0.002529132
vn 0.3041003 0.9523432 -0.02377846
vn 0.2737621 0.9617606 -0.008419815
vn 0.2737621 0.9617606 -0.008419815
vn 0.282825 0.9590402 0.01586954
vn 0.3600506 0.9329296 0.002436095
vn 0.3773002 0.9258848 0.0195417
vn 0.4102909 0.9111032 0.0394015
vn 0.4420298 0.8950357 0.05933594
vn 0.3991751 0.9162868 0.03283099
vn -0.3336584 0.941992 -0.03637234
vn -0.3336584 0.941992 -0.03637234
vn -0.3336584 0.941992 -0.03637234
vn -0.03615268 0.9985573 0.0397044
vn -0.047371 0.9987673 0.01483388
vn -0.047371 0.9987673 0.01483388
vn 0.01364127 0.998395 0.05496492
vn 0.01364127 0.998395 0.05496492
vn 0.05216847 0.9976104 0.04529775
vn -0.03600801 0.9953769 0.08904029
vn -0.003981581 0.9934121 0.1145274
vn 0.01900879 0.9951297 0.09672423
vn -0.004353956 0.9958636 0.09075677
vn -0.009187871 0.9984205 0.05542745
vn -0.009957954 0.9971793 0.07439385
vn -0.01834106 0.9948742 0.09944317
vn -0.0195193 0.994733 0.1006253
vn 0.03583264 0.9368439 -0.3479073
vn 0.01603657 0.9278564 -0.3725926
vn 0.03583264 0.9368439 -0.3479073
vn 0.04011208 0.9176977 -0.3952492
vn 0.05150447 0.9107918 -0.4096409
vn 0.09136423 0.910254 -0.4038442
vn 0.009349672 0.9370388 -0.3491003
vn 0.005372332 0.9402003 -0.3405799
vn 0.01131858 0.9473441 -0.3200173
vn -0.2596262 0.9125119 -0.3160951
vn -0.2596262 0.9125119 -0.3160951
vn -0.2596262 0.9125119 -0.3160951
vn -0.1397174 0.8395251 -0.5250491
vn -0.1397174 0.8395251 -0.5250491
vn -0.1397174 0.8395251 -0.5250491
vn 0.2846911 0.9460983 -0.154431
vn 0.2846911 0.9460983 -0.154431
vn 0.2846911 0.9460983 -0.154431
vn 0.07401531 0.9971552 0.01426048
vn 0.07401531 0.9971552 0.01426048
vn 0.07401531 0.9971552 0.01426048
vn 0.3259605 0.9178116 -0.2266531
vn 0.3259605 0.9178116 -0.2266531
vn 0.3259605 0.9178116 -0.2266531
vn -0.03603451 0.9803833 0.1937785
vn -0.03603451 0.9803833 0.1937785
vn -0.03603451 0.9803833 0.1937785
vn -0.5238237 0.8518266 0
vn -0.5238237 0.8518266 0
vn -0.5238237 0.8518266 0
vn -0.03245566 0.9969301 -0.07125454
vn -0.009652091 0.9997702 -0.0191391
vn -0.03245566 0.9969301 -0.07125454
vn 0.004459662 0.9997489 0.02195923
vn -0.05003305 0.9964104 0.06828595
vn -0.04066859 0.9942043 0.09951781
vn -0.04886603 0.9931809 0.1058482
vn -0.04363498 0.997561 0.05447955
vn -0.02880637 0.9993435 0.02197201
vn -0.005945096 0.9998092 0.01860759
vn -0.04642779 0.9942659 0.09633232
vn -0.04642779 0.9942659 0.09633232
vn -0.03637412 0.9878681 0.1509755
vn 0.02057171 0.9997151 0.01209304
vn 0.05777976 0.9982565 0.01206055
vn -0.04013967 0.9864096 0.159326
vn -0.08893458 0.9832816 0.1588965
vn -0.01096681 0.983724 0.179351
vn 0.05623305 0.9974071 -0.04490901
vn 0.05623305 0.9974071 -0.04490901
vn 0.09394929 0.9945682 -0.04480783
vn -0.05101956 0.983822 0.1717302
vn -0.05101956 0.983822 0.1717302
vn -0.07130255 0.9869949 0.1440728
vn -0.2334134 0.9616479 0.1440544
vn -0.2334134 0.9616479 0.1440544
vn -0.2334134 0.9616479 0.1440544
vn -0.2990076 0.9250116 0.2344102
vn -0.2990076 0.9250116 0.2344102
vn -0.2990076 0.9250116 0.2344102
vn 0.1831795 0.9492661 0.2556152
vn 0.1635483 0.9596758 0.2286356
vn 0.1831795 0.9492661 0.2556152
vn 0.1437173 0.9689133 0.2013766
vn 0.1437173 0.9689133 0.2013766
vn -0.01386428 0.9859732 0.1663264
vn -0.0008308188 0.9845019 0.1753717
vn -0.04344776 0.9809598 0.1892886
vn 0.02049192 0.985527 0.1682757
vn 0.03212334 0.9789698 0.2014606
vn -0.009347395 0.8564162 0.5162014
vn -0.001380745 0.8570943 0.5151576
vn -0.001380745 0.8570943 0.5151576
vn -0.01731344 0.8556823 0.5172117
vn -0.01731344 0.8556823 0.5172117
vn -0.1174823 0.9072955 0.4037484
vn -0.1174823 0.9072955 0.4037484
vn -0.1174823 0.9072955 0.4037484
vn -0.3136083 0.8740136 0.3711468
vn -0.3136083 0.8740136 0.3711468
vn -0.3136083 0.8740136 0.3711468
vn -0.2162912 0.9645275 0.1513433
vn -0.2162912 0.9645275 0.1513433
vn -0.2162912 0.9645275 0.1513433
vn -0.01756652 0.9889429 -0.1472531
vn -0.02589439 0.9920661 -0.1230216
vn -0.02589439 0.9920661 -0.1230216
vn -0.03420501 0.9945284 -0.0987082
vn -0.04871376 0.9945715 -0.0919484
vn -0.03717438 0.9953804 -0.08852082
vn -0.01487445 0.9965462 -0.08169664
vn -0.005981142 0.9984382 -0.05554728
vn -0.05699659 0.9981295 -0.02211127
vn 0.01568322 0.9993151 -0.03351478
vn -0.02037962 0.8290153 -0.5588543
vn -0.02365126 0.8243766 -0.5655474
vn -0.02037962 0.8290153 -0.5588543
vn -0.01710642 0.8335903 -0.5521182
vn -0.2439355 0.9634328 -0.1108719
vn -0.240128 0.9621778 -0.1286568
vn -0.240128 0.9621778 -0.1286568
vn -0.2362406 0.9606028 -0.146399
vn 0.1481321 0.9728833 -0.1776366
vn 0.1468644 0.9725254 -0.1806242
vn 0.1468644 0.9725254 -0.1806242
vn 0.1455951 0.9721571 -0.18361
vn 0.1447902 0.9846498 -0.09747017
vn 0.1449149 0.9845906 -0.09788246
vn 0.1447902 0.9846498 -0.09747017
vn 0.1446655 0.9847089 -0.09705786
vn -0.207558 0.9779649 0.02245635
vn -0.2132758 0.9769059 0.01297462
vn -0.2132758 0.9769059 0.01297462
vn -0.2189673 0.975726 0.003491285

vt 0.2709171 0.2751954
vt 0.2709171 0.2751954
vt 0.2709171 0.2751954
vt 0.2709171 0.2751954
vt 0.2709171 0.2751954
vt 0.2709171 0.2751954
vt 0.2709171 0.2751954
vt 0.2709171 0.2751954
vt 0.2709171 0.2751954
vt 0.2709171 0.2751954
vt 0.2709171 0.2751954
vt 0.2709171 0.2751954
vt 0.2709171 0.2751954
vt 0.2709171 0.2751954
vt 0.2709171 0.2751954
vt 0.2709171 0.2751954
vt 0.2709171 0.2751954
vt 0.2709171 0.2751954
vt 0.2709171 0.2751954
vt 0.2709171 0.2751954
vt 0.2709171 0.2751954
vt 0.2709171 0.2751954
vt 0.2709171 0.2751954
vt 0.2709171 0.2751954
vt 0.2709171 0.2751954
vt 0.2709171 0.2751954
vt 0.2709171 0.2751954
vt 0.2709171 0.2751954
vt 0.2709171 0.2751954
vt 0.2709171 0.2751954
vt 0.2709171 0.2751954
vt 0.2709171 0.2751954
vt 0.2709171 0.2751954
vt 0.2709171 0.2751954
vt 0.2709171 0.2751954
vt 0.2709171 0.2751954
vt 0.2709171 0.2751954
vt 0.2709171 0.2751954
vt 0.2709171 0.2751954
vt 0.2709171 0.2751954
vt 0.2709171 0.2751954
vt 0.2709171 0.2751954
vt 0.2709171 0.2751954
vt 0.2709171 0.2751954
vt 0.2709171 0.2751954
vt 0.2709171 0.2751954
vt 0.2709171 0.2751954
vt 0.2709171 0.2751954
vt 0.2709171 0.2751954
vt 0.2709171 0.2751954
vt 0.2709171 0.2751954
vt 0.2709171 0.2751954
vt 0.2709171 0.2751954
vt 0.2709171 0.2751954
vt 0.2709171 0.2751954
vt 0.2709171 0.2751954
vt 0.2709171 0.2751954
vt 0.2709171 0.2751954
vt 0.2709171 0.2751954
vt 0.2709171 0.2751954
vt 0.2709171 0.2751954
vt 0.2709171 0.2751954
vt 0.2709171 0.2751954
vt 0.2709171 0.2751954
vt 0.2709171 0.2751954
vt 0.2709171 0.2751954
vt 0.2709171 0.2751954
vt 0.2709171 0.2751954
vt 0.2709171 0.2751954
vt 0.2709171 0.2751954
vt 0.2709171 0.2751954
vt 0.2709171 0.2751954
vt 0.2709171 0.2751954
vt 0.2709171 0.2751954
vt 0.2709171 0.2751954
vt 0.2709171 0.2751954
vt 0.2709171 0.2751954
vt 0.2709171 0.2751954
vt 0.2709171 0.2751954
vt 0.2709171 0.2751954
vt 0.2709171 0.2751954
vt 0.2709171 0.2751954
vt 0.2709171 0.2751954
vt 0.2709171 0.2751954
vt 0.2709171 0.2751954
vt 0.2709171 0.2751954
vt 0.2709171 0.2751954
vt 0.2709171 0.2751954
vt 0.2709171 0.2751954
vt 0.2709171 0.2751954
vt 0.2709171 0.2751954
vt 0.2709171 0.2751954
vt 0.2709171 0.2751954
vt 0.2709171 0.2751954
vt 0.2709171 0.2751954
vt 0.2709171 0.2751954
vt 0.2709171 0.2751954
vt 0.2709171 0.2751954
vt 0.2709171 0.2751954
vt 0.2709171 0.2751954
vt 0.2709171 0.2751954
vt 0.2709171 0.2751954
vt 0.2709171 0.2751954
vt 0.2709171 0.2751954
vt 0.2709171 0.2751954
vt 0.2709171 0.2751954
vt 0.2709171 0.2751954
vt 0.2709171 0.2751954
vt 0.2709171 0.2751954
vt 0.2709171 0.2751954
vt 0.2709171 0.2751954
vt 0.2709171 0.2751954
vt 0.2709171 0.2751954
vt 0.2709171 0.2751954
vt 0.2709171 0.2751954
vt 0.2709171 0.2751954
vt 0.2709171 0.2751954
vt 0.2709171 0.2751954
vt 0.2709171 0.2751954
vt 0.2709171 0.2751954
vt 0.2709171 0.2751954
vt 0.2709171 0.2751954
vt 0.2709171 0.2751954
vt 0.2709171 0.2751954
vt 0.2709171 0.2751954
vt 0.2709171 0.2751954
vt 0.2709171 0.2751954
vt 0.2709171 0.2751954
vt 0.2709171 0.2751954
vt 0.2709171 0.2751954
vt 0.2709171 0.2751954
vt 0.2709171 0.2751954
vt 0.2709171 0.2751954
vt 0.2709171 0.2751954
vt 0.2709171 0.2751954
vt 0.2709171 0.2751954
vt 0.2709171 0.2751954
vt 0.2709171 0.2751954
vt 0.2709171 0.2751954
vt 0.2709171 0.2751954
vt 0.2709171 0.2751954
vt 0.2709171 0.2751954
vt 0.2709171 0.2751954
vt 0.2709171 0.2751954
vt 0.2709171 0.2751954
vt 0.2709171 0.2751954
vt 0.2709171 0.2751954
vt 0.2709171 0.2751954
vt 0.2709171 0.2751954
vt 0.2709171 0.2751954
vt 0.2709171 0.2751954
vt 0.2709171 0.2751954
vt 0.2709171 0.2751954
vt 0.2709171 0.2751954
vt 0.2709171 0.2751954
vt 0.2709171 0.2751954
vt 0.2709171 0.2751954
vt 0.2709171 0.2751954
vt 0.2709171 0.2751954
vt 0.2709171 0.2751954
vt 0.2709171 0.2751954
vt 0.2709171 0.2751954
vt 0.2709171 0.2751954
vt 0.2709171 0.2751954
vt 0.2709171 0.2751954
vt 0.2709171 0.2751954
vt 0.2709171 0.2751954
vt 0.2709171 0.2751954
vt 0.2709171 0.2751954
vt 0.2709171 0.2751954
vt 0.2709171 0.2751954
vt 0.2709171 0.2751954
vt 0.2709171 0.2751954
vt 0.2709171 0.2751954
vt 0.2709171 0.2751954
vt 0.2709171 0.2751954
vt 0.2709171 0.2751954
vt 0.2709171 0.2751954
vt 0.2709171 0.2751954
vt 0.2709171 0.2751954
vt 0.2709171 0.2751954
vt 0.2709171 0.2751954
vt 0.2709171 0.2751954
vt 0.2709171 0.2751954
vt 0.2709171 0.2751954
vt 0.2709171 0.2751954
vt 0.2709171 0.2751954
vt 0.2709171 0.2751954
vt 0.2709171 0.2751954
vt 0.2709171 0.2751954
vt 0.2709171 0.2751954
vt 0.2709171 0.2751954
vt 0.2709171 0.2751954
vt 0.2709171 0.2751954
vt 0.2709171 0.2751954
vt 0.2709171 0.2751954
vt 0.2709171 0.2751954
vt 0.2709171 0.2751954
vt 0.2709171 0.2751954
vt 0.2709171 0.2751954
vt 0.2709171 0.2751954
vt 0.2709171 0.2751954
vt 0.2709171 0.2751954
vt 0.2709171 0.2751954
vt 0.2709171 0.2751954
vt 0.2709171 0.2751954
vt 0.2709171 0.2751954
vt 0.2709171 0.2751954
vt 0.2709171 0.2751954
vt 0.2709171 0.2751954
vt 0.2709171 0.2751954
vt 0.2709171 0.2751954
vt 0.2709171 0.2751954
vt 0.2709171 0.2751954
vt 0.2709171 0.2751954
vt 0.2709171 0.2751954
vt 0.2709171 0.2751954
vt 0.2709171 0.2751954
vt 0.2709171 0.2751954
vt 0.2709171 0.2751954
vt 0.2709171 0.2751954
vt 0.2709171 0.2751954
vt 0.2709171 0.2751954
vt 0.2709171 0.2751954
vt 0.2709171 0.2751954
vt 0.2709171 0.2751954

usemtl PolygonWestern_Material_01_A
usemap PolygonWestern_Material_01_A
f 2/2/2 1/1/1 3/3/3
f 5/5/5 4/4/4 2/2/2
f 2/2/2 6/6/6 7/7/7
f 8/8/8 2/2/2 7/7/7
f 8/8/8 7/7/7 9/9/9
f 10/10/10 8/8/8 9/9/9
f 10/10/10 9/9/9 11/11/11
f 11/11/11 12/12/12 10/10/10
f 13/13/13 10/10/10 12/12/12
f 14/14/14 13/13/13 12/12/12
f 15/15/15 14/14/14 12/12/12
f 17/17/17 16/16/16 8/8/8
f 19/19/19 18/18/18 10/10/10
f 10/10/10 18/18/18 20/20/20
f 22/22/22 21/21/21 23/23/23
f 25/25/25 24/24/24 26/26/26
f 27/27/27 24/24/24 28/28/28
f 24/24/24 29/29/29 28/28/28
f 30/30/30 27/27/27 28/28/28
f 31/31/31 27/27/27 30/30/30
f 31/31/31 30/30/30 32/32/32
f 33/33/33 27/27/27 31/31/31
f 33/33/33 34/34/34 27/27/27
f 33/33/33 35/35/35 34/34/34
f 35/35/35 36/36/36 34/34/34
f 32/32/32 37/37/37 38/38/38
f 39/39/39 32/32/32 40/40/40
f 42/42/42 41/41/41 29/29/29
f 43/43/43 29/29/29 41/41/41
f 45/45/45 44/44/44 31/31/31
f 46/46/46 44/44/44 45/45/45
f 46/46/46 45/45/45 47/47/47
f 48/48/48 46/46/46 47/47/47
f 50/50/50 49/49/49 47/47/47
f 48/48/48 51/51/51 52/52/52
f 54/54/54 53/53/53 52/52/52
f 56/56/56 55/55/55 53/53/53
f 58/58/58 57/57/57 54/54/54
f 60/60/60 59/59/59 56/56/56
f 60/60/60 61/61/61 59/59/59
f 63/63/63 62/62/62 58/58/58
f 65/65/65 64/64/64 62/62/62
f 64/64/64 66/66/66 67/67/67
f 68/68/68 63/63/63 69/69/69
f 68/68/68 69/69/69 70/70/70
f 71/71/71 70/70/70 69/69/69
f 72/72/72 70/70/70 73/73/73
f 72/72/72 65/65/65 74/74/74
f 72/72/72 75/75/75 65/65/65
f 76/76/76 71/71/71 77/77/77
f 78/78/78 76/76/76 77/77/77
f 80/80/80 79/79/79 75/75/75
f 81/81/81 75/75/75 79/79/79
f 83/83/83 82/82/82 84/84/84
f 85/85/85 83/83/83 86/86/86
f 87/87/87 85/85/85 86/86/86
f 87/87/87 88/88/88 89/89/89
f 88/88/88 90/90/90 89/89/89
f 91/91/91 86/86/86 92/92/92
f 92/92/92 86/86/86 93/93/93
f 95/95/95 94/94/94 93/93/93
f 97/97/97 96/96/96 98/98/98
f 100/100/100 99/99/99 101/101/101
f 36/36/36 99/99/99 102/102/102
f 102/102/102 103/103/103 104/104/104
f 106/106/106 105/105/105 36/36/36
f 106/106/106 36/36/36 107/107/107
f 108/108/108 106/106/106 107/107/107
f 109/109/109 108/108/108 46/46/46
f 109/109/109 46/46/46 110/110/110
f 111/111/111 109/109/109 110/110/110
f 112/112/112 111/111/111 110/110/110
f 114/114/114 113/113/113 115/115/115
f 117/117/117 116/116/116 114/114/114
f 116/116/116 117/117/117 118/118/118
f 116/116/116 119/119/119 114/114/114
f 114/114/114 119/119/119 120/120/120
f 119/119/119 121/121/121 120/120/120
f 123/123/123 122/122/122 124/124/124
f 126/126/126 125/125/125 127/127/127
f 129/129/129 128/128/128 130/130/130
f 132/132/132 131/131/131 133/133/133
f 135/135/135 134/134/134 136/136/136
f 138/138/138 137/137/137 139/139/139
f 141/141/141 140/140/140 142/142/142
f 144/144/144 143/143/143 145/145/145
f 147/147/147 146/146/146 144/144/144
f 147/147/147 148/148/148 149/149/149
f 150/150/150 148/148/148 151/151/151
f 150/150/150 147/147/147 29/29/29
f 151/151/151 144/144/144 152/152/152
f 152/152/152 153/153/153 147/147/147
f 153/153/153 154/154/154 155/155/155
f 156/156/156 152/152/152 157/157/157
f 28/28/28 152/152/152 156/156/156
f 155/155/155 158/158/158 159/159/159
f 155/155/155 160/160/160 158/158/158
f 162/162/162 161/161/161 28/28/28
f 163/163/163 161/161/161 162/162/162
f 165/165/165 164/164/164 160/160/160
f 166/166/166 164/164/164 165/165/165
f 168/168/168 167/167/167 169/169/169
f 171/171/171 170/170/170 172/172/172
f 174/174/174 173/173/173 175/175/175
f 174/174/174 176/176/176 177/177/177
f 179/179/179 178/178/178 180/180/180
f 182/182/182 181/181/181 179/179/179
f 181/181/181 39/39/39 179/179/179
f 184/184/184 183/183/183 185/185/185
f 183/183/183 186/186/186 187/187/187
f 189/189/189 188/188/188 190/190/190
f 192/192/192 191/191/191 193/193/193
f 195/195/195 194/194/194 196/196/196
f 198/198/198 197/197/197 199/199/199
f 200/200/200 198/198/198 199/199/199
f 202/202/202 201/201/201 203/203/203
f 204/204/204 202/202/202 203/203/203
f 202/202/202 204/204/204 205/205/205
f 204/204/204 203/203/203 43/43/43
f 204/204/204 43/43/43 206/206/206
f 208/208/208 207/207/207 209/209/209
f 209/209/209 207/207/207 210/210/210
f 212/212/212 211/211/211 213/213/213
f 212/212/212 213/213/213 214/214/214
f 216/216/216 215/215/215 217/217/217
f 216/216/216 217/217/217 218/218/218
f 220/220/220 219/219/219 221/221/221
f 221/221/221 219/219/219 222/222/222
f 224/224/224 223/223/223 225/225/225
f 224/224/224 225/225/225 226/226/226
