mtllib ./SM_Env_DustPile_Small_01_35.mtl
g SM_Env_DustPile_Small_01
v -0.6616415 0.3794276 -0.04797554
v -0.5675854 0.438253 0.3019028
v -0.688397 0.3563482 0.3031502
v -0.003006101 0.5420946 0.0861454
v -0.4220423 0.5003189 0.02301979
v -0.1962833 0.4736342 -0.3162079
v 0.02910256 0.4118211 -0.6449623
v -0.1962833 0.4736342 -0.3162079
v -0.260275 0.4325134 -0.3920593
v 0.3944342 0.3200203 0.7997836
v -0.03575516 -0.01457691 1.12104
v -0.2473172 0.3195435 0.8721789
v -0.5006352 0.1094396 0.8780766
v -0.5508307 -0.05851477 1.064617
v -0.7924961 -0.06383383 0.848011
v -0.688397 0.3563482 0.3031502
v -0.5675854 0.438253 0.3019028
v -0.1877258 0.4602982 0.6426487
v -0.2473172 0.3195435 0.8721789
v -1.02907 -0.1985119 1.070825
v -0.5508307 -0.05851477 1.064617
v -0.8941962 -0.1985119 1.232719
v -0.7924961 -0.06383383 0.848011
v -0.5508307 -0.05851477 1.064617
v -0.8941962 -0.1985119 1.232719
v -0.7280523 -0.1985119 1.349817
v -0.688397 0.3563482 0.3031502
v -0.9001117 0.01557189 0.4170246
v -0.8512895 0.1459187 0.04474831
v -1.28917 -0.1985119 0.09573555
v -0.8512895 0.1459187 0.04474831
v -0.9001117 0.01557189 0.4170246
v -0.5006352 0.1094396 0.8780766
v -0.9001117 0.01557189 0.4170246
v -0.688397 0.3563482 0.3031502
v -0.5006352 0.1094396 0.8780766
v -0.7924961 -0.06383383 0.848011
v -0.9001117 0.01557189 0.4170246
v -1.28917 -0.1985119 0.09573555
v -0.9001117 0.01557189 0.4170246
v -1.220225 -0.1985119 0.6269493
v -1.220225 -0.1985119 0.6269493
v -0.9001117 0.01557189 0.4170246
v -0.7924961 -0.06383383 0.848011
v -1.02907 -0.1985119 1.070825
v -1.220225 -0.1985119 0.6269493
v -0.7924961 -0.06383383 0.848011
v 0.409402 -0.01440194 1.030233
v 0.3944342 0.3200203 0.7997836
v 0.7383986 -0.01203933 0.7920341
v 0.3944342 0.3200203 0.7997836
v 0.409402 -0.01440194 1.030233
v -0.03575516 -0.01457691 1.12104
v -0.5246945 -0.1985119 1.420982
v -0.03575516 -0.01457691 1.12104
v 0.01743388 -0.1985119 1.420982
v 0.9023125 -0.003081232 0.4764805
v 0.7131782 0.3291507 0.2367401
v 0.976464 -0.005074799 -0.00661087
v 1.272239 -0.1985119 0.5351353
v 0.9023125 -0.003081232 0.4764805
v 0.976464 -0.005074799 -0.00661087
v -0.688397 0.3563482 0.3031502
v -0.8512895 0.1459187 0.04474831
v -0.6616415 0.3794276 -0.04797554
v -0.460312 0.3490846 -0.3978157
v -0.6616415 0.3794276 -0.04797554
v -0.7631951 0.0879148 -0.3222351
v -0.7631951 0.0879148 -0.3222351
v -0.6616415 0.3794276 -0.04797554
v -0.8512895 0.1459187 0.04474831
v -1.28917 -0.1985119 0.09573555
v -0.7631951 0.0879148 -0.3222351
v -0.8512895 0.1459187 0.04474831
v -0.460312 0.3490846 -0.3978157
v -0.842727 -0.0175055 -0.4202747
v -1.28917 -0.1985119 0.09573555
v -1.215814 -0.1985119 -0.4416866
v -0.7631951 0.0879148 -0.3222351
v -1.215814 -0.1985119 -0.4416866
v -0.842727 -0.0175055 -0.4202747
v -0.7631951 0.0879148 -0.3222351
v -0.98495 -0.1985119 -0.9414462
v -0.842727 -0.0175055 -0.4202747
v -1.215814 -0.1985119 -0.4416866
v 0.6615043 0.312031 -0.407896
v 0.6948593 0.036383 -0.6440372
v 0.9076583 -0.02894014 -0.4735603
v 0.7275702 -0.1985119 -1.182264
v 0.9076583 -0.02894014 -0.4735603
v 0.6948593 0.036383 -0.6440372
v 1.272239 -0.1985119 0.5351353
v 0.976464 -0.005074799 -0.00661087
v 1.28917 -0.1985119 -0.4233837
v 0.7275702 -0.1985119 -1.182264
v 1.121836 -0.1985119 -0.7866859
v 0.9076583 -0.02894014 -0.4735603
v -0.6682439 -0.0335156 -0.6863823
v -0.4898788 0.04953665 -0.6629219
v -0.842727 -0.0175055 -0.4202747
v -0.4898788 0.04953665 -0.6629219
v -0.6682439 -0.0335156 -0.6863823
v -0.1220421 -0.08324321 -1.03656
v 0.7275702 -0.1985119 -1.182264
v 0.6948593 0.036383 -0.6440372
v 0.3442453 0.01515409 -0.9113312
v 0.02910256 0.4118211 -0.6449623
v 0.3442453 0.01515409 -0.9113312
v 0.483445 0.3211378 -0.5193748
v 0.02910256 0.4118211 -0.6449623
v -0.1220421 -0.08324321 -1.03656
v 0.3442453 0.01515409 -0.9113312
v 0.7275702 -0.1985119 -1.182264
v -0.1220421 -0.08324321 -1.03656
v 0.4281811 -0.1985119 -1.42098
v 0.7275702 -0.1985119 -1.182264
v 0.3442453 0.01515409 -0.9113312
v -0.1220421 -0.08324321 -1.03656
v -0.5675854 0.438253 0.3019028
v -0.4399687 0.4939545 0.2127304
v -0.1877258 0.4602982 0.6426487
v 0.564745 0.4120511 -0.3065357
v 0.4031636 0.4773384 -0.2352524
v 0.02910256 0.4118211 -0.6449623
v -0.003006101 0.5420946 0.0861454
v -0.1877258 0.4602982 0.6426487
v -0.4399687 0.4939545 0.2127304
v -0.4220423 0.5003189 0.02301979
v -0.5675854 0.438253 0.3019028
v -0.4220423 0.5003189 0.02301979
v -0.4399687 0.4939545 0.2127304
v -0.6616415 0.3794276 -0.04797554
v -0.003006101 0.5420946 0.0861454
v 0.3119113 0.5080727 -0.1039467
v 0.4887695 0.4614326 0.1967907
v 0.2984207 0.4149259 0.7096367
v -0.1877258 0.4602982 0.6426487
v 0.3944342 0.3200203 0.7997836
v 0.2984207 0.4149259 0.7096367
v 0.4887695 0.4614326 0.1967907
v 0.7131782 0.3291507 0.2367401
v 0.6615043 0.312031 -0.407896
v 0.7131782 0.3291507 0.2367401
v 0.4887695 0.4614326 0.1967907
v 0.564745 0.4120511 -0.3065357
v -0.460312 0.3490846 -0.3978157
v -0.260275 0.4325134 -0.3920593
v -0.6616415 0.3794276 -0.04797554
v -0.1962833 0.4736342 -0.3162079
v -0.4220423 0.5003189 0.02301979
v 0.3119113 0.5080727 -0.1039467
v 0.4031636 0.4773384 -0.2352524
v 0.4887695 0.4614326 0.1967907
v 0.564745 0.4120511 -0.3065357
v 0.483445 0.3211378 -0.5193748
v 0.6615043 0.312031 -0.407896
v 0.564745 0.4120511 -0.3065357
v 0.02910256 0.4118211 -0.6449623
v -0.5006352 0.1094396 0.8780766
v -0.2473172 0.3195435 0.8721789
v -0.03575516 -0.01457691 1.12104
v -0.5508307 -0.05851477 1.064617
v -0.5246945 -0.1985119 1.420982
v -0.5508307 -0.05851477 1.064617
v -0.03575516 -0.01457691 1.12104
v -0.7280523 -0.1985119 1.349817
v 0.8915071 -0.1985119 1.116934
v 0.6330147 -0.1985119 1.251163
v 0.409402 -0.01440194 1.030233
v 0.7383986 -0.01203933 0.7920341
v 1.076152 -0.1985119 0.9574738
v 0.6330147 -0.1985119 1.251163
v -0.03575516 -0.01457691 1.12104
v 0.409402 -0.01440194 1.030233
v 0.01743388 -0.1985119 1.420982
v 0.6615043 0.312031 -0.407896
v 0.976464 -0.005074799 -0.00661087
v 0.7131782 0.3291507 0.2367401
v 0.9076583 -0.02894014 -0.4735603
v 0.3944342 0.3200203 0.7997836
v 0.7131782 0.3291507 0.2367401
v 0.9023125 -0.003081232 0.4764805
v 0.7383986 -0.01203933 0.7920341
v 1.272239 -0.1985119 0.5351353
v 0.7383986 -0.01203933 0.7920341
v 0.9023125 -0.003081232 0.4764805
v 1.199034 -0.1985119 0.765852
v 1.076152 -0.1985119 0.9574738
v -0.98495 -0.1985119 -0.9414462
v -0.6682439 -0.0335156 -0.6863823
v -0.842727 -0.0175055 -0.4202747
v -0.8059562 -0.1985119 -1.165426
v 0.483445 0.3211378 -0.5193748
v 0.6948593 0.036383 -0.6440372
v 0.6615043 0.312031 -0.407896
v 0.3442453 0.01515409 -0.9113312
v 1.28917 -0.1985119 -0.4233837
v 0.976464 -0.005074799 -0.00661087
v 0.9076583 -0.02894014 -0.4735603
v 1.121836 -0.1985119 -0.7866859
v -0.460312 0.3490846 -0.3978157
v -0.842727 -0.0175055 -0.4202747
v -0.4898788 0.04953665 -0.6629219
v -0.260275 0.4325134 -0.3920593
v 0.02910256 0.4118211 -0.6449623
v -0.1220421 -0.08324321 -1.03656
v -0.8059562 -0.1985119 -1.165426
v -0.5637364 -0.1985119 -1.305145
v -0.6682439 -0.0335156 -0.6863823
v -0.230754 -0.1985119 -1.364416
v -0.1220421 -0.08324321 -1.03656
v 0.4281811 -0.1985119 -1.42098
v 0.3944342 0.3200203 0.7997836
v -0.2473172 0.3195435 0.8721789
v -0.1877258 0.4602982 0.6426487
v 0.2984207 0.4149259 0.7096367
v -0.003006101 0.5420946 0.0861454
v 0.4031636 0.4773384 -0.2352524
v 0.3119113 0.5080727 -0.1039467
v -0.1962833 0.4736342 -0.3162079
v 0.02910256 0.4118211 -0.6449623

vn -0.5610312 0.8277126 0.01165513
vn -0.5610312 0.8277126 0.01165513
vn -0.5610312 0.8277126 0.01165513
vn -0.07890853 0.9883349 -0.1302601
vn -0.07890853 0.9883349 -0.1302601
vn -0.07890853 0.9883349 -0.1302601
vn -0.2137207 0.9229757 -0.3200614
vn -0.2137207 0.9229757 -0.3200614
vn -0.2137207 0.9229757 -0.3200614
vn 0.0866119 0.6297892 0.7719222
vn 0.0866119 0.6297892 0.7719222
vn 0.0866119 0.6297892 0.7719222
vn -0.4908445 0.7298754 0.4757662
vn -0.4764259 0.7132978 0.5140278
vn -0.4764259 0.7132978 0.5140278
vn -0.4906913 0.7310036 0.4741897
vn -0.497697 0.737633 0.4562841
vn -0.5044969 0.7439575 0.4381897
vn -0.5044969 0.7439575 0.4381897
vn -0.268993 0.9300051 0.2504663
vn -0.268993 0.9300051 0.2504663
vn -0.2709903 0.9357326 0.2257624
vn -0.2668216 0.9236757 0.2750081
vn -0.2445271 0.9236342 0.2951378
vn -0.222012 0.9227594 0.3150013
vn -0.222012 0.9227594 0.3150013
vn -0.8341336 0.5454925 0.08160315
vn -0.8341336 0.5454925 0.08160315
vn -0.8341336 0.5454925 0.08160315
vn -0.5920423 0.7816957 0.1960552
vn -0.5920423 0.7816957 0.1960552
vn -0.5920423 0.7816957 0.1960552
vn -0.6730918 0.5740039 0.4663336
vn -0.6730918 0.5740039 0.4663336
vn -0.6730918 0.5740039 0.4663336
vn -0.5114209 0.8132776 0.2775396
vn -0.5114209 0.8132776 0.2775396
vn -0.5114209 0.8132776 0.2775396
vn -0.5234616 0.8493363 0.06793813
vn -0.5234616 0.8493363 0.06793813
vn -0.5234616 0.8493363 0.06793813
vn -0.4109474 0.8727747 0.2634136
vn -0.4109474 0.8727747 0.2634136
vn -0.4109474 0.8727747 0.2634136
vn -0.3705802 0.9149871 0.1595903
vn -0.3705802 0.9149871 0.1595903
vn -0.3705802 0.9149871 0.1595903
vn 0.5036625 0.5053677 0.7006622
vn 0.5036625 0.5053677 0.7006622
vn 0.5036625 0.5053677 0.7006622
vn 0.1647465 0.5646579 0.808715
vn 0.1647465 0.5646579 0.808715
vn 0.1647465 0.5646579 0.808715
vn 0 0.8524751 0.5227678
vn 0 0.8524751 0.5227678
vn 0 0.8524751 0.5227678
vn 0.8213212 0.5568775 0.1237697
vn 0.8213212 0.5568775 0.1237697
vn 0.8213212 0.5568775 0.1237697
vn 0.4578021 0.8865553 0.06661122
vn 0.4578021 0.8865553 0.06661122
vn 0.4578021 0.8865553 0.06661122
vn -0.7796484 0.6259511 -0.01826498
vn -0.7796484 0.6259511 -0.01826498
vn -0.7796484 0.6259511 -0.01826498
vn -0.6490699 0.6288553 -0.4280761
vn -0.6490699 0.6288553 -0.4280761
vn -0.6490699 0.6288553 -0.4280761
vn -0.796784 0.5374395 -0.2762136
vn -0.796784 0.5374395 -0.2762136
vn -0.796784 0.5374395 -0.2762136
vn -0.6150146 0.7426471 -0.2650141
vn -0.6419238 0.7270172 -0.2436797
vn -0.6150146 0.7426471 -0.2650141
vn -0.6679192 0.7103525 -0.2219984
vn -0.6679192 0.7103525 -0.2219984
vn -0.5199534 0.8512412 -0.07097168
vn -0.5199534 0.8512412 -0.07097168
vn -0.5199534 0.8512412 -0.07097168
vn -0.3397827 0.7650615 -0.5470179
vn -0.3397827 0.7650615 -0.5470179
vn -0.3397827 0.7650615 -0.5470179
vn -0.4192178 0.8869911 -0.1936574
vn -0.4192178 0.8869911 -0.1936574
vn -0.4192178 0.8869911 -0.1936574
vn 0.6175771 0.5534594 -0.5588213
vn 0.6175771 0.5534594 -0.5588213
vn 0.6175771 0.5534594 -0.5588213
vn 0.5027897 0.8030336 -0.3199055
vn 0.5027897 0.8030336 -0.3199055
vn 0.5027897 0.8030336 -0.3199055
vn 0.5351316 0.8447158 0.009452539
vn 0.5351316 0.8447158 0.009452539
vn 0.5351316 0.8447158 0.009452539
vn 0.2932938 0.9102347 -0.2923208
vn 0.2932938 0.9102347 -0.2923208
vn 0.2932938 0.9102347 -0.2923208
vn -0.3708923 0.8801916 -0.2961449
vn -0.3708923 0.8801916 -0.2961449
vn -0.3708923 0.8801916 -0.2961449
vn -0.2881405 0.7769395 -0.5597678
vn -0.2881405 0.7769395 -0.5597678
vn -0.2881405 0.7769395 -0.5597678
vn 0.2331578 0.8963743 -0.3770285
vn 0.2331578 0.8963743 -0.3770285
vn 0.2331578 0.8963743 -0.3770285
vn 0.3175584 0.6894547 -0.651006
vn 0.3175584 0.6894547 -0.651006
vn 0.3175584 0.6894547 -0.651006
vn 0.08626695 0.6017368 -0.7940219
vn 0.08626695 0.6017368 -0.7940219
vn 0.08626695 0.6017368 -0.7940219
vn 0.1099078 0.9843372 -0.1378424
vn 0.1099078 0.9843372 -0.1378424
vn 0.1099078 0.9843372 -0.1378424
vn 0.0004418125 0.7855086 -0.6188505
vn 0.0004418125 0.7855086 -0.6188505
vn 0.0004418125 0.7855086 -0.6188505
vn -0.2547656 0.9409064 0.223136
vn -0.2547656 0.9409064 0.223136
vn -0.2547656 0.9409064 0.223136
vn 0.2171562 0.9133919 -0.3443232
vn 0.2171562 0.9133919 -0.3443232
vn 0.2171562 0.9133919 -0.3443232
vn -0.08177873 0.9921122 0.09500393
vn -0.08177873 0.9921122 0.09500393
vn -0.08177873 0.9921122 0.09500393
vn -0.08177873 0.9921122 0.09500393
vn -0.423721 0.9055808 -0.01959225
vn -0.423721 0.9055808 -0.01959225
vn -0.4044372 0.9145348 -0.007535703
vn -0.4427517 0.8960859 -0.0316371
vn 0.1022343 0.9846781 0.1412698
vn 0.1355562 0.9840829 0.114915
vn 0.1355562 0.9840829 0.114915
vn 0.1022343 0.9846781 0.1412698
vn 0.06872777 0.9834958 0.1673696
vn 0.4811903 0.8337385 0.2708061
vn 0.4811903 0.8337385 0.2708061
vn 0.4811903 0.8337385 0.2708061
vn 0.4811903 0.8337385 0.2708061
vn 0.5813361 0.8129196 -0.03478578
vn 0.5813361 0.8129196 -0.03478578
vn 0.5813361 0.8129196 -0.03478578
vn 0.5813361 0.8129196 -0.03478578
vn -0.3619316 0.8874855 -0.2852629
vn -0.3405215 0.9042307 -0.2577051
vn -0.3454987 0.8975758 -0.27384
vn -0.3372083 0.9024569 -0.2680708
vn -0.3551044 0.8833899 -0.3058155
vn 0.2901753 0.9567142 -0.02227427
vn 0.3254555 0.945091 -0.02969268
vn 0.3254555 0.945091 -0.02969268
vn 0.3602687 0.9321118 -0.03706848
vn 0.3177403 0.8220567 -0.4725079
vn 0.339615 0.8111137 -0.4761893
vn 0.3177403 0.8220567 -0.4725079
vn 0.2956713 0.8324969 -0.4685374
vn -0.2453433 0.588932 0.7700427
vn -0.2453433 0.588932 0.7700427
vn -0.2453433 0.588932 0.7700427
vn -0.2453433 0.588932 0.7700427
vn -0.1244653 0.9203764 0.370696
vn -0.1244653 0.9203764 0.370696
vn -0.1191713 0.9211162 0.3705983
vn -0.1297557 0.9196105 0.370783
vn 0.2740934 0.8735115 0.4023064
vn 0.2415628 0.8516142 0.4651889
vn 0.2557347 0.8690715 0.4234554
vn 0.2897986 0.8826641 0.3700282
vn 0.3101092 0.8802776 0.3590871
vn 0.1264897 0.836779 0.53273
vn 0.1264897 0.836779 0.53273
vn 0.1148815 0.817226 0.5647513
vn 0.1379027 0.8550413 0.499887
vn 0.7724687 0.6250308 -0.1123778
vn 0.7724687 0.6250308 -0.1123778
vn 0.7548422 0.6512755 -0.07780398
vn 0.7883996 0.5974141 -0.146705
vn 0.6548409 0.6588721 0.3702312
vn 0.6568505 0.6498671 0.3823874
vn 0.6548409 0.6588721 0.3702312
vn 0.6526787 0.6677235 0.3579886
vn 0.4040093 0.8947966 0.1900411
vn 0.3901258 0.8951535 0.2156432
vn 0.4040093 0.8947966 0.1900411
vn 0.3901258 0.8951535 0.2156432
vn 0.3759114 0.8947512 0.2410624
vn -0.2901246 0.9266195 -0.2391737
vn -0.2901246 0.9266195 -0.2391737
vn -0.2865257 0.9265816 -0.2436179
vn -0.293714 0.9266271 -0.2347217
vn 0.4469912 0.6158841 -0.6487569
vn 0.4469912 0.6158841 -0.6487569
vn 0.4411524 0.6140492 -0.6544679
vn 0.4527988 0.6176758 -0.6430007
vn 0.4179947 0.8959 -0.1504783
vn 0.4155722 0.9031975 -0.1073967
vn 0.4179947 0.8959 -0.1504783
vn 0.4196167 0.8868866 -0.1932718
vn -0.4457323 0.6175358 -0.6480526
vn -0.4457323 0.6175358 -0.6480526
vn -0.4415637 0.6457116 -0.622959
vn -0.4506523 0.6493512 -0.612581
vn -0.4392388 0.659463 -0.6100638
vn -0.4231384 0.6380472 -0.6433115
vn -0.1612934 0.9464651 -0.2796218
vn -0.1195475 0.9521092 -0.2814189
vn -0.1195475 0.9521092 -0.2814189
vn -0.05270088 0.9514707 -0.3031932
vn -0.05270088 0.9514707 -0.3031932
vn -0.02775695 0.9458725 -0.3233492
vn 0.03492634 0.8063304 0.5904331
vn 0.03492634 0.8063304 0.5904331
vn 0.03492634 0.8063304 0.5904331
vn 0.03492634 0.8063304 0.5904331
vn 0.01054141 0.9827415 -0.1846838
vn 0.01392912 0.9837532 -0.1789847
vn 0.01054141 0.9827415 -0.1846838
vn 0.01392912 0.9837532 -0.1789847
vn 0.0173162 0.9847208 -0.1732775

vt 0.2696719 0.3016537
vt 0.2696719 0.3016537
vt 0.2696719 0.3016537
vt 0.2696719 0.3016537
vt 0.2696719 0.3016537
vt 0.2696719 0.3016537
vt 0.2696719 0.3016537
vt 0.2696719 0.3016537
vt 0.2696719 0.3016537
vt 0.2696719 0.3016537
vt 0.2696719 0.3016537
vt 0.2696719 0.3016537
vt 0.2696719 0.3016537
vt 0.2696719 0.3016537
vt 0.2696719 0.3016537
vt 0.2696719 0.3016537
vt 0.2696719 0.3016537
vt 0.2696719 0.3016537
vt 0.2696719 0.3016537
vt 0.2696718 0.3016537
vt 0.2696719 0.3016537
vt 0.2696719 0.3016537
vt 0.2696719 0.3016537
vt 0.2696719 0.3016537
vt 0.2696719 0.3016537
vt 0.2696719 0.3016537
vt 0.2696719 0.3016537
vt 0.2696719 0.3016537
vt 0.2696719 0.3016537
vt 0.2696718 0.3016537
vt 0.2696719 0.3016537
vt 0.2696719 0.3016537
vt 0.2696719 0.3016537
vt 0.2696719 0.3016537
vt 0.2696719 0.3016537
vt 0.2696719 0.3016537
vt 0.2696719 0.3016537
vt 0.2696719 0.3016537
vt 0.2696718 0.3016537
vt 0.2696719 0.3016537
vt 0.2696718 0.3016537
vt 0.2696718 0.3016537
vt 0.2696719 0.3016537
vt 0.2696719 0.3016537
vt 0.2696718 0.3016537
vt 0.2696718 0.3016537
vt 0.2696719 0.3016537
vt 0.2696719 0.3016537
vt 0.2696719 0.3016537
vt 0.2696719 0.3016537
vt 0.2696719 0.3016537
vt 0.2696719 0.3016537
vt 0.2696719 0.3016537
vt 0.2696719 0.3016537
vt 0.2696719 0.3016537
vt 0.2696719 0.3016537
vt 0.2696719 0.3016537
vt 0.2696719 0.3016537
vt 0.2696719 0.3016537
vt 0.2696719 0.3016537
vt 0.2696719 0.3016537
vt 0.2696719 0.3016537
vt 0.2696719 0.3016537
vt 0.2696719 0.3016537
vt 0.2696719 0.3016537
vt 0.2696719 0.3016537
vt 0.2696719 0.3016537
vt 0.2696719 0.3016537
vt 0.2696719 0.3016537
vt 0.2696719 0.3016537
vt 0.2696719 0.3016537
vt 0.2696718 0.3016537
vt 0.2696719 0.3016537
vt 0.2696719 0.3016537
vt 0.2696719 0.3016537
vt 0.2696719 0.3016537
vt 0.2696718 0.3016537
vt 0.2696718 0.3016537
vt 0.2696719 0.3016537
vt 0.2696718 0.3016537
vt 0.2696719 0.3016537
vt 0.2696719 0.3016537
vt 0.2696718 0.3016537
vt 0.2696719 0.3016537
vt 0.2696718 0.3016537
vt 0.2696719 0.3016537
vt 0.2696719 0.3016537
vt 0.2696719 0.3016537
vt 0.2696719 0.3016537
vt 0.2696719 0.3016537
vt 0.2696719 0.3016537
vt 0.2696719 0.3016537
vt 0.2696719 0.3016537
vt 0.2696719 0.3016537
vt 0.2696719 0.3016537
vt 0.2696719 0.3016537
vt 0.2696719 0.3016537
vt 0.2696719 0.3016537
vt 0.2696719 0.3016537
vt 0.2696719 0.3016537
vt 0.2696719 0.3016537
vt 0.2696719 0.3016537
vt 0.2696719 0.3016537
vt 0.2696719 0.3016537
vt 0.2696719 0.3016537
vt 0.2696719 0.3016537
vt 0.2696719 0.3016537
vt 0.2696719 0.3016537
vt 0.2696719 0.3016537
vt 0.2696719 0.3016537
vt 0.2696719 0.3016537
vt 0.2696719 0.3016537
vt 0.2696719 0.3016537
vt 0.2696719 0.3016537
vt 0.2696719 0.3016537
vt 0.2696719 0.3016537
vt 0.2696719 0.3016537
vt 0.2696719 0.3016537
vt 0.2696719 0.3016537
vt 0.2696719 0.3016537
vt 0.2696719 0.3016537
vt 0.2696719 0.3016537
vt 0.2696719 0.3016537
vt 0.2696719 0.3016537
vt 0.2696719 0.3016537
vt 0.2696719 0.3016537
vt 0.2696719 0.3016537
vt 0.2696719 0.3016537
vt 0.2696719 0.3016537
vt 0.2696719 0.3016537
vt 0.2696719 0.3016537
vt 0.2696719 0.3016537
vt 0.2696719 0.3016537
vt 0.2696719 0.3016537
vt 0.2696719 0.3016537
vt 0.2696719 0.3016537
vt 0.2696719 0.3016537
vt 0.2696719 0.3016537
vt 0.2696719 0.3016537
vt 0.2696719 0.3016537
vt 0.2696719 0.3016537
vt 0.2696719 0.3016537
vt 0.2696719 0.3016537
vt 0.2696719 0.3016537
vt 0.2696719 0.3016537
vt 0.2696719 0.3016537
vt 0.2696719 0.3016537
vt 0.2696719 0.3016537
vt 0.2696719 0.3016537
vt 0.2696719 0.3016537
vt 0.2696719 0.3016537
vt 0.2696719 0.3016537
vt 0.2696719 0.3016537
vt 0.2696719 0.3016537
vt 0.2696719 0.3016537
vt 0.2696719 0.3016537
vt 0.2696719 0.3016537
vt 0.2696719 0.3016537
vt 0.2696719 0.3016537
vt 0.2696719 0.3016537
vt 0.2696719 0.3016537
vt 0.2696719 0.3016537
vt 0.2696719 0.3016537
vt 0.2696719 0.3016537
vt 0.2696719 0.3016537
vt 0.2696719 0.3016537
vt 0.2696719 0.3016537
vt 0.2696719 0.3016537
vt 0.2696719 0.3016537
vt 0.2696719 0.3016537
vt 0.2696719 0.3016537
vt 0.2696719 0.3016537
vt 0.2696719 0.3016537
vt 0.2696719 0.3016537
vt 0.2696719 0.3016537
vt 0.2696719 0.3016537
vt 0.2696719 0.3016537
vt 0.2696719 0.3016537
vt 0.2696719 0.3016537
vt 0.2696719 0.3016537
vt 0.2696719 0.3016537
vt 0.2696719 0.3016537
vt 0.2696719 0.3016537
vt 0.2696719 0.3016537
vt 0.2696719 0.3016537
vt 0.2696719 0.3016537
vt 0.2696719 0.3016537
vt 0.2696719 0.3016537
vt 0.2696718 0.3016537
vt 0.2696719 0.3016537
vt 0.2696719 0.3016537
vt 0.2696719 0.3016537
vt 0.2696719 0.3016537
vt 0.2696719 0.3016537
vt 0.2696719 0.3016537
vt 0.2696719 0.3016537
vt 0.2696719 0.3016537
vt 0.2696719 0.3016537
vt 0.2696719 0.3016537
vt 0.2696719 0.3016537
vt 0.2696719 0.3016537
vt 0.2696719 0.3016537
vt 0.2696719 0.3016537
vt 0.2696719 0.3016537
vt 0.2696719 0.3016537
vt 0.2696719 0.3016537
vt 0.2696719 0.3016537
vt 0.2696719 0.3016537
vt 0.2696719 0.3016537
vt 0.2696719 0.3016537
vt 0.2696719 0.3016537
vt 0.2696719 0.3016537
vt 0.2696719 0.3016537
vt 0.2696719 0.3016537
vt 0.2696719 0.3016537
vt 0.2696719 0.3016537
vt 0.2696719 0.3016537
vt 0.2696719 0.3016537
vt 0.2696719 0.3016537
vt 0.2696719 0.3016537
vt 0.2696719 0.3016537

usemtl PolygonWestern_Material_01_A
usemap PolygonWestern_Material_01_A
f 2/2/2 1/1/1 3/3/3
f 5/5/5 4/4/4 6/6/6
f 8/8/8 7/7/7 9/9/9
f 11/11/11 10/10/10 12/12/12
f 14/14/14 13/13/13 15/15/15
f 16/16/16 13/13/13 17/17/17
f 17/17/17 13/13/13 18/18/18
f 18/18/18 13/13/13 19/19/19
f 21/21/21 20/20/20 22/22/22
f 23/23/23 20/20/20 24/24/24
f 24/24/24 25/25/25 26/26/26
f 28/28/28 27/27/27 29/29/29
f 31/31/31 30/30/30 32/32/32
f 34/34/34 33/33/33 35/35/35
f 37/37/37 36/36/36 38/38/38
f 40/40/40 39/39/39 41/41/41
f 43/43/43 42/42/42 44/44/44
f 46/46/46 45/45/45 47/47/47
f 49/49/49 48/48/48 50/50/50
f 52/52/52 51/51/51 53/53/53
f 55/55/55 54/54/54 56/56/56
f 58/58/58 57/57/57 59/59/59
f 61/61/61 60/60/60 62/62/62
f 64/64/64 63/63/63 65/65/65
f 67/67/67 66/66/66 68/68/68
f 70/70/70 69/69/69 71/71/71
f 73/73/73 72/72/72 74/74/74
f 73/73/73 75/75/75 76/76/76
f 78/78/78 77/77/77 79/79/79
f 81/81/81 80/80/80 82/82/82
f 84/84/84 83/83/83 85/85/85
f 87/87/87 86/86/86 88/88/88
f 90/90/90 89/89/89 91/91/91
f 93/93/93 92/92/92 94/94/94
f 96/96/96 95/95/95 97/97/97
f 99/99/99 98/98/98 100/100/100
f 102/102/102 101/101/101 103/103/103
f 105/105/105 104/104/104 106/106/106
f 108/108/108 107/107/107 109/109/109
f 111/111/111 110/110/110 112/112/112
f 114/114/114 113/113/113 115/115/115
f 117/117/117 116/116/116 118/118/118
f 120/120/120 119/119/119 121/121/121
f 123/123/123 122/122/122 124/124/124
f 126/126/126 125/125/125 127/127/127
f 127/127/127 125/125/125 128/128/128
f 130/130/130 129/129/129 131/131/131
f 132/132/132 129/129/129 130/130/130
f 134/134/134 133/133/133 135/135/135
f 135/135/135 133/133/133 136/136/136
f 136/136/136 133/133/133 137/137/137
f 139/139/139 138/138/138 140/140/140
f 140/140/140 138/138/138 141/141/141
f 143/143/143 142/142/142 144/144/144
f 144/144/144 142/142/142 145/145/145
f 147/147/147 146/146/146 148/148/148
f 147/147/147 148/148/148 149/149/149
f 149/149/149 148/148/148 150/150/150
f 152/152/152 151/151/151 153/153/153
f 153/153/153 154/154/154 152/152/152
f 156/156/156 155/155/155 157/157/157
f 157/157/157 155/155/155 158/158/158
f 160/160/160 159/159/159 161/161/161
f 161/161/161 159/159/159 162/162/162
f 164/164/164 163/163/163 165/165/165
f 166/166/166 163/163/163 164/164/164
f 168/168/168 167/167/167 169/169/169
f 169/169/169 167/167/167 170/170/170
f 170/170/170 167/167/167 171/171/171
f 173/173/173 172/172/172 174/174/174
f 175/175/175 172/172/172 173/173/173
f 177/177/177 176/176/176 178/178/178
f 179/179/179 176/176/176 177/177/177
f 181/181/181 180/180/180 182/182/182
f 182/182/182 180/180/180 183/183/183
f 185/185/185 184/184/184 186/186/186
f 187/187/187 184/184/184 185/185/185
f 185/185/185 188/188/188 187/187/187
f 190/190/190 189/189/189 191/191/191
f 192/192/192 189/189/189 190/190/190
f 194/194/194 193/193/193 195/195/195
f 196/196/196 193/193/193 194/194/194
f 198/198/198 197/197/197 199/199/199
f 197/197/197 200/200/200 199/199/199
f 202/202/202 201/201/201 203/203/203
f 203/203/203 201/201/201 204/204/204
f 204/204/204 205/205/205 203/203/203
f 203/203/203 205/205/205 206/206/206
f 208/208/208 207/207/207 209/209/209
f 209/209/209 210/210/210 208/208/208
f 211/211/211 210/210/210 209/209/209
f 212/212/212 210/210/210 211/211/211
f 214/214/214 213/213/213 215/215/215
f 215/215/215 213/213/213 216/216/216
f 218/218/218 217/217/217 219/219/219
f 220/220/220 217/217/217 218/218/218
f 218/218/218 221/221/221 220/220/220
