mtllib ./SM_Env_BackgroundCard_02_58.mtl
g SM_Env_BackgroundCard_02
v 2.688029 1.554561 -0.6308144
v 2.650349 2.213305 -0.6365275
v 2.903486 2.295926 -0.5965574
v 3.070444 1.742366 -0.5681457
v 2.834419 -3.780621 -0.6078337
v 2.298984 1.217115 -0.6858439
v 3.569653 1.274998 -0.473388
v 2.450576 -3.780621 -0.6654425
v 3.691459 -3.780621 -0.4480177
v 5.33107 -3.780621 -0.01805489
v 5.211627 1.033842 -0.05507728
v 6.333496 -3.780621 0.3296502
v 6.210047 1.059115 0.2831874
v 6.946648 -3.780621 0.5761427
v 6.821067 0.7720923 0.5234951
v 7.099297 -3.780621 0.6416661
v 6.973224 0.4897891 0.5874292
v 7.524726 -3.780621 0.8333015
v 1.823619 1.325706 -0.7412549
v 1.898527 -3.780621 -0.733382
v 0.7626622 -3.780621 -0.8185486
v 0.8571097 1.664448 -0.8142481
v 1.694545 1.891643 -0.7540698
v 1.487563 2.360636 -0.7726403
v 1.04905 2.39087 -0.8039589
v 0.862619 2.240165 -0.8139818
v 0.6941922 1.463551 -0.8213522
v 0.2603168 -3.780621 -0.8329871
v 0.5081885 1.825445 -0.8276363
v 0.2973889 1.674919 -0.8324063
v 0.2378389 1.11557 -0.8333015
v -0.494104 1.065323 -0.8280329
v -0.4199825 -3.780621 -0.8299362
v -0.9749456 1.253888 -0.8081776
v -0.9576512 -3.780621 -0.8091176
v -1.388804 1.632789 -0.7806437
v -1.191669 2.300541 -0.7949669
v -1.366999 2.195579 -0.7823362
v -1.244474 -3.780621 -0.7913459
v -1.93082 -3.780621 -0.7298892
v -1.639905 1.849561 -0.7592087
v -2.051467 1.944769 -0.7163118
v -3.007673 -3.780621 -0.5790195
v -2.14577 3.004704 -0.7051185
v -1.717433 2.69653 -0.7518666
v -2.881395 1.969231 -0.6001945
v -2.619301 3.004704 -0.6411733
v -2.863406 2.784497 -0.6031351
v -3.063616 1.575676 -0.5693398
v -3.394641 1.765113 -0.5082897
v -3.318979 -3.780621 -0.5228148
v -4.020323 -3.780621 -0.3750637
v -3.438853 2.307883 -0.4996448
v -3.64347 2.396125 -0.4581191
v -3.950417 2.10695 -0.3911185
v -4.062438 1.478761 -0.3652481
v -5.073241 -3.780621 -0.09682556
v -4.504096 1.35688 -0.2557767
v -5.009761 0.9979632 -0.1155666
v -5.795063 0.9735827 0.1345729
v -5.831816 -3.780621 0.1472687
v -6.604625 0.6452725 0.4353886
v -6.614164 -3.780621 0.439202
v -6.767815 0.3538046 0.5015109
v -6.771923 -3.780621 0.5031992
v -7.524726 -3.780621 0.8333015

vn -0.1732813 0.0004036961 0.9848723
vn -0.1597691 0.0008181395 0.9871541
vn -0.1597691 0.0008181395 0.9871541
vn -0.1785017 0.0004847859 0.9839394
vn -0.168923 0.0003312562 0.9856291
vn -0.1314965 5.206363E-05 0.9913166
vn -0.2160056 0.0002301711 0.9763922
vn -0.1304339 5.67655E-05 0.991457
vn -0.2252945 0.0001687917 0.9742907
vn -0.279146 9.900259E-06 0.9602487
vn -0.2767958 9.338224E-06 0.9609287
vn -0.3417589 1.593296E-05 0.9397877
vn -0.3380446 1.69653E-05 0.94113
vn -0.3736755 6.622385E-06 0.9275595
vn -0.3706782 7.732328E-06 0.9287614
vn -0.4026853 -0.0003234496 0.9153384
vn -0.3920011 -2.939595E-05 0.9199647
vn -0.410707 -0.0005451897 0.9117672
vn -0.08292484 0.0005895701 0.9965557
vn -0.08697172 0.0003372752 0.9962107
vn -0.05914101 0.0003672903 0.9982495
vn -0.0725272 0.0009553281 0.997366
vn -0.07129502 0.005492074 0.9974401
vn -0.07129502 0.005492074 0.9974401
vn -0.07129502 0.005492075 0.9974401
vn -0.07129502 0.005492074 0.9974401
vn -0.05809962 0.0003617363 0.9983108
vn -0.008546633 2.648374E-05 0.9999635
vn -0.02748073 0.0001984129 0.9996223
vn -0.02748073 0.0001984129 0.9996223
vn -0.0142646 7.840325E-05 0.9998983
vn 0.02183712 -1.73033E-05 0.9997615
vn 0.02009841 -2.682966E-05 0.999798
vn 0.05452415 -1.014392E-05 0.9985124
vn 0.05019942 -5.233738E-07 0.9987392
vn 0.08794848 0.0002809186 0.9961249
vn 0.06854936 0.001162139 0.997647
vn 0.06854935 0.001162139 0.997647
vn 0.08353466 0.0001594267 0.9965049
vn 0.1222524 0.0004414462 0.9924989
vn 0.09360347 0.0002773017 0.9956096
vn 0.1249718 0.0005876924 0.9921601
vn 0.1497406 0.0004112236 0.9887252
vn 0.1323771 0.002173013 0.9911971
vn 0.1060798 -0.0001064658 0.9943576
vn 0.1408662 0.0007442778 0.9900283
vn 0.1390181 0.002749698 0.9902861
vn 0.1390181 0.002749698 0.9902861
vn 0.1482465 0.0004325779 0.9889503
vn 0.2041576 0.0003172403 0.978938
vn 0.1992275 0.0002502128 0.9799532
vn 0.233855 0.0006841618 0.9722713
vn 0.2076932 0.0003653473 0.9781939
vn 0.2076932 0.0003653473 0.9781939
vn 0.2076932 0.0003653473 0.9781939
vn 0.2246594 0.0005719234 0.9744372
vn 0.2763754 0.0005097626 0.9610496
vn 0.2548184 0.0009407618 0.9669884
vn 0.2719328 0.0005988347 0.962316
vn 0.3238854 -6.899807E-05 0.9460962
vn 0.3272162 -6.971219E-05 0.9449495
vn 0.3503159 -7.079468E-05 0.9366317
vn 0.3532631 -6.300997E-05 0.935524
vn 0.3795604 -6.569572E-06 0.925167
vn 0.3937782 -1.848351E-05 0.9192054
vn 0.4015851 -2.505708E-05 0.9158217

vt 0.301937 0.265206
vt 0.301937 0.265206
vt 0.301937 0.265206
vt 0.301937 0.265206
vt 0.301937 0.265206
vt 0.301937 0.265206
vt 0.301937 0.265206
vt 0.301937 0.265206
vt 0.301937 0.265206
vt 0.301937 0.265206
vt 0.301937 0.265206
vt 0.301937 0.265206
vt 0.301937 0.265206
vt 0.301937 0.265206
vt 0.301937 0.265206
vt 0.301937 0.265206
vt 0.301937 0.265206
vt 0.301937 0.265206
vt 0.301937 0.265206
vt 0.301937 0.265206
vt 0.301937 0.265206
vt 0.301937 0.265206
vt 0.301937 0.265206
vt 0.301937 0.265206
vt 0.301937 0.265206
vt 0.301937 0.265206
vt 0.301937 0.265206
vt 0.301937 0.265206
vt 0.301937 0.265206
vt 0.301937 0.265206
vt 0.301937 0.265206
vt 0.301937 0.265206
vt 0.301937 0.265206
vt 0.301937 0.265206
vt 0.301937 0.265206
vt 0.301937 0.265206
vt 0.301937 0.265206
vt 0.301937 0.265206
vt 0.301937 0.265206
vt 0.301937 0.265206
vt 0.301937 0.265206
vt 0.301937 0.265206
vt 0.301937 0.265206
vt 0.301937 0.265206
vt 0.301937 0.265206
vt 0.301937 0.265206
vt 0.301937 0.265206
vt 0.301937 0.265206
vt 0.301937 0.265206
vt 0.301937 0.265206
vt 0.301937 0.265206
vt 0.301937 0.265206
vt 0.301937 0.265206
vt 0.301937 0.265206
vt 0.301937 0.265206
vt 0.301937 0.265206
vt 0.301937 0.265206
vt 0.301937 0.265206
vt 0.301937 0.265206
vt 0.301937 0.265206
vt 0.301937 0.265206
vt 0.301937 0.265206
vt 0.301937 0.265206
vt 0.301937 0.265206
vt 0.301937 0.265206
vt 0.301937 0.265206

usemtl BackgroundCard_02
usemap BackgroundCard_02
f 2/2/2 1/1/1 3/3/3
f 3/3/3 1/1/1 4/4/4
f 1/1/1 5/5/5 4/4/4
f 1/1/1 6/6/6 5/5/5
f 4/4/4 5/5/5 7/7/7
f 5/5/5 6/6/6 8/8/8
f 9/9/9 7/7/7 5/5/5
f 10/10/10 7/7/7 9/9/9
f 11/11/11 7/7/7 10/10/10
f 12/12/12 11/11/11 10/10/10
f 13/13/13 11/11/11 12/12/12
f 14/14/14 13/13/13 12/12/12
f 15/15/15 13/13/13 14/14/14
f 16/16/16 15/15/15 14/14/14
f 17/17/17 15/15/15 16/16/16
f 18/18/18 17/17/17 16/16/16
f 6/6/6 19/19/19 8/8/8
f 8/8/8 19/19/19 20/20/20
f 20/20/20 19/19/19 21/21/21
f 22/22/22 21/21/21 19/19/19
f 19/19/19 23/23/23 22/22/22
f 24/24/24 22/22/22 23/23/23
f 25/25/25 22/22/22 24/24/24
f 26/26/26 22/22/22 25/25/25
f 27/27/27 21/21/21 22/22/22
f 21/21/21 27/27/27 28/28/28
f 29/29/29 28/28/28 27/27/27
f 30/30/30 28/28/28 29/29/29
f 31/31/31 28/28/28 30/30/30
f 31/31/31 32/32/32 28/28/28
f 28/28/28 32/32/32 33/33/33
f 32/32/32 34/34/34 33/33/33
f 33/33/33 34/34/34 35/35/35
f 34/34/34 36/36/36 35/35/35
f 37/37/37 36/36/36 34/34/34
f 38/38/38 36/36/36 37/37/37
f 35/35/35 36/36/36 39/39/39
f 39/39/39 36/36/36 40/40/40
f 41/41/41 40/40/40 36/36/36
f 42/42/42 40/40/40 41/41/41
f 40/40/40 42/42/42 43/43/43
f 41/41/41 44/44/44 42/42/42
f 45/45/45 44/44/44 41/41/41
f 42/42/42 44/44/44 46/46/46
f 46/46/46 43/43/43 42/42/42
f 47/47/47 46/46/46 44/44/44
f 48/48/48 46/46/46 47/47/47
f 49/49/49 43/43/43 46/46/46
f 49/49/49 50/50/50 43/43/43
f 43/43/43 50/50/50 51/51/51
f 51/51/51 50/50/50 52/52/52
f 53/53/53 52/52/52 50/50/50
f 54/54/54 52/52/52 53/53/53
f 55/55/55 52/52/52 54/54/54
f 56/56/56 52/52/52 55/55/55
f 52/52/52 56/56/56 57/57/57
f 58/58/58 57/57/57 56/56/56
f 59/59/59 57/57/57 58/58/58
f 59/59/59 60/60/60 57/57/57
f 57/57/57 60/60/60 61/61/61
f 60/60/60 62/62/62 61/61/61
f 61/61/61 62/62/62 63/63/63
f 62/62/62 64/64/64 63/63/63
f 63/63/63 64/64/64 65/65/65
f 64/64/64 66/66/66 65/65/65
