mtllib ./SM_Env_DustPile_Long_01_72.mtl
g SM_Env_DustPile_Long_01
v -5.553574 -0.2739221 -1.244222
v -4.314399 0.518534 -1.435925
v -5.657567 -0.2739221 -0.7973776
v -5.640236 -0.2739221 -0.5344343
v -4.097672 0.5550679 -0.6147337
v -4.038174 0.3196952 -0.1537466
v -5.640236 -0.2739221 -0.5344343
v -4.038174 0.3196952 -0.1537466
v -5.345932 -0.2739221 0.3270426
v -3.794586 0.8508775 -1.443851
v -3.009911 0.8850486 -1.460694
v -3.052513 0.8056328 -0.88346
v -4.097672 0.5550679 -0.6147337
v -3.577186 0.4352081 -0.09424877
v -4.038174 0.3196952 -0.1537466
v 0 0.4619708 -0.9221029
v 0 0.302646 -0.1359377
v -1.029427 0.3601851 -0.06876087
v 0.9999962 0.6859003 -1.465649
v 1.010899 0.6142882 -0.7581987
v 0 0.4619708 -0.9221029
v 0 0.4619708 -0.9221029
v 1.029427 0.3588681 -0.06876087
v 0 0.302646 -0.1359377
v 0 0.4619708 -0.9221029
v 1.010899 0.6142882 -0.7581987
v 1.029427 0.3588681 -0.06876087
v 1.010899 0.6142882 -0.7581987
v 0.9999962 0.6859003 -1.465649
v 2.009907 0.4591022 -0.9221029
v 1.010899 0.6142882 -0.7581987
v 2.009907 0.4591022 -0.9221029
v 1.029427 0.3588681 -0.06876087
v 1.029427 0.3588681 -0.06876087
v 2.009907 0.4591022 -0.9221029
v 2.02972 0.1958741 0.1224833
v 0.9999962 0.6859003 -1.465649
v 2.198051 0.6718732 -1.459205
v 2.009907 0.4591022 -0.9221029
v -0.08031082 0.6850181 -1.465649
v 0 0.4619708 -0.9221029
v 2.009907 0.4591022 -0.9221029
v 3.531952 0.8820554 -1.449798
v 3.328272 0.6685141 -0.6049757
v 3.328272 0.6685141 -0.6049757
v 3.577185 0.4058706 -0.09424877
v 2.009907 0.4591022 -0.9221029
v 2.009907 0.4591022 -0.9221029
v 3.577185 0.4058706 -0.09424877
v 2.02972 0.1958741 0.1224833
v 3.328272 0.6685141 -0.6049757
v 4.09767 0.5795411 -0.6147337
v 3.577185 0.4058706 -0.09424877
v 3.577185 0.4058706 -0.09424877
v 4.09767 0.5795411 -0.6147337
v 4.03817 0.3161876 -0.1537466
v 3.577185 0.4058706 -0.09424877
v 4.03817 0.3161876 -0.1537466
v 3.657484 -0.2739221 1.448316
v 4.03817 0.3161876 -0.1537466
v 4.51896 -0.2739221 1.154012
v 3.657484 -0.2739221 1.448316
v 4.055978 0.7868145 -1.438899
v 5.553566 -0.2739221 -1.244222
v 5.657567 -0.2739221 -0.7973776
v 2.198051 0.6718732 -1.459205
v 3.531952 0.8820554 -1.449798
v 2.009907 0.4591022 -0.9221029
v -4.314399 0.518534 -1.435925
v -0.2844353 -0.2739221 -1.419953
v -3.794586 0.8508775 -1.443851
v -1 0.8765112 -1.465649
v -0.2844353 -0.2739221 -1.419953
v -0.08031082 0.6850181 -1.465649
v -3.009911 0.8850486 -1.460694
v -2 0.66541 -1.465649
v 3.531952 0.8820554 -1.449798
v 4.055978 0.7868145 -1.438899
v -2 0.66541 -1.465649
v -0.2844353 -0.2739221 -1.419953
v -1 0.8765112 -1.465649
v 0.9999962 0.6859003 -1.465649
v -0.2844353 -0.2739221 -1.419953
v 2.198051 0.6718732 -1.459205
v -0.08031082 0.6850181 -1.465649
v -0.2844353 -0.2739221 -1.419953
v -3.794586 0.8508775 -1.443851
v -3.009911 0.8850486 -1.460694
v -5.553574 -0.2739221 -1.244222
v -0.2844353 -0.2739221 -1.419953
v -4.314399 0.518534 -1.435925
v 4.055978 0.7868145 -1.438899
v -0.2844353 -0.2739221 -1.419953
v 5.553566 -0.2739221 -1.244222
v 2.198051 0.6718732 -1.459205
v -0.2844353 -0.2739221 -1.419953
v 3.531952 0.8820554 -1.449798
v -5.657567 -0.2739221 -0.7973776
v -4.097672 0.5550679 -0.6147337
v -5.640236 -0.2739221 -0.5344343
v -4.314399 0.518534 -1.435925
v -3.794586 0.8508775 -1.443851
v -5.345932 -0.2739221 0.3270426
v -4.038174 0.3196952 -0.1537466
v -4.694611 -0.2739221 1.051114
v -5.024323 -0.2739221 0.832406
v -3.052513 0.8056328 -0.88346
v -2.021797 0.447907 -0.3973321
v -3.577186 0.4352081 -0.09424877
v -2.029724 0.1958741 0.1224833
v -3.394542 -0.2739221 1.465649
v -3.657486 -0.2739221 1.448316
v -2.221428 -0.2739221 1.361651
v -2.029724 0.1958741 0.1224833
v -1.131516 -0.2739221 1.465649
v -1.029427 0.3601851 -0.06876087
v -2.021797 0.447907 -0.3973321
v -3.794586 0.8508775 -1.443851
v -3.052513 0.8056328 -0.88346
v -4.097672 0.5550679 -0.6147337
v -3.577186 0.4352081 -0.09424877
v -4.038174 0.3196952 -0.1537466
v -3.657486 -0.2739221 1.448316
v -4.694611 -0.2739221 1.051114
v -3.009911 0.8850486 -1.460694
v -2 0.66541 -1.465649
v -3.052513 0.8056328 -0.88346
v -2.021797 0.447907 -0.3973321
v -2 0.66541 -1.465649
v -1 0.8765112 -1.465649
v -1.029427 0.3601851 -0.06876087
v -2.021797 0.447907 -0.3973321
v -1 0.8765112 -1.465649
v 0 0.4619708 -0.9221029
v -1.029427 0.3601851 -0.06876087
v -0.08031082 0.6850181 -1.465649
v -1.029427 0.3601851 -0.06876087
v 0 0.302646 -0.1359377
v -1.131516 -0.2739221 1.465649
v 0 -0.2739221 1.361651
v 0 0.302646 -0.1359377
v 1.131512 -0.2739221 1.465648
v 1.029427 0.3588681 -0.06876087
v 1.029427 0.3588681 -0.06876087
v 2.02972 0.1958741 0.1224833
v 1.131512 -0.2739221 1.465648
v 2.221424 -0.2739221 1.361649
v 3.394538 -0.2739221 1.465648
v 2.02972 0.1958741 0.1224833
v 3.657484 -0.2739221 1.448316
v 3.577185 0.4058706 -0.09424877
v 3.531952 0.8820554 -1.449798
v 4.09767 0.5795411 -0.6147337
v 3.328272 0.6685141 -0.6049757
v 4.055978 0.7868145 -1.438899
v 4.055978 0.7868145 -1.438899
v 5.657567 -0.2739221 -0.7973776
v 5.64023 -0.2739221 -0.5344343
v 4.09767 0.5795411 -0.6147337
v 4.09767 0.5795411 -0.6147337
v 5.64023 -0.2739221 -0.5344343
v 5.24303 -0.2739221 0.5026903
v 4.03817 0.3161876 -0.1537466
v 4.03817 0.3161876 -0.1537466
v 5.24303 -0.2739221 0.5026903
v 5.024321 -0.2739221 0.8324041
v 4.51896 -0.2739221 1.154012

vn -0.5482883 0.8264973 -0.1276018
vn -0.5482883 0.8264973 -0.1276018
vn -0.5482883 0.8264973 -0.1276018
vn -0.4024956 0.7932163 0.456952
vn -0.4024956 0.7932163 0.456952
vn -0.4024956 0.7932163 0.456952
vn -0.3709877 0.9199485 0.1267396
vn -0.3709877 0.9199485 0.1267396
vn -0.3709877 0.9199485 0.1267396
vn -0.04026331 0.9902619 0.1332685
vn -0.04026331 0.9902619 0.1332685
vn -0.04026331 0.9902619 0.1332685
vn -0.2711881 0.8426247 0.4652319
vn -0.2711881 0.8426247 0.4652319
vn -0.2711881 0.8426247 0.4652319
vn 0.06758723 0.9778349 0.1981687
vn 0.06758723 0.9778349 0.1981687
vn 0.06758723 0.9778349 0.1981687
vn -0.1643455 0.9811307 0.1018481
vn -0.1643455 0.9811307 0.1018481
vn -0.1643455 0.9811307 0.1018481
vn -0.06634188 0.9779168 0.1981853
vn -0.06634188 0.9779168 0.1981853
vn -0.06634188 0.9779168 0.1981853
vn -0.1943356 0.9181263 0.3453662
vn -0.1943356 0.9181263 0.3453662
vn -0.1943356 0.9181263 0.3453662
vn 0.1682535 0.9809884 0.0967081
vn 0.1682535 0.9809884 0.0967081
vn 0.1682535 0.9809884 0.0967081
vn 0.1981426 0.9208474 0.3358268
vn 0.1981426 0.9208474 0.3358268
vn 0.1981426 0.9208474 0.3358268
vn 0.1110605 0.9641844 0.2408608
vn 0.1110605 0.9641844 0.2408608
vn 0.1110605 0.9641844 0.2408608
vn 0.004060709 0.9268704 0.3753596
vn 0.008876611 0.9286017 0.3709719
vn 0.008876611 0.9286017 0.3709719
vn -0.0007553758 0.9250969 0.3797303
vn -0.0007553758 0.9250969 0.3797303
vn -0.1993804 0.9603884 0.1946834
vn -0.1993804 0.9603884 0.1946834
vn -0.1993804 0.9603884 0.1946834
vn -0.2569454 0.8027866 0.5380639
vn -0.2569454 0.8027866 0.5380639
vn -0.2569454 0.8027866 0.5380639
vn -0.1233152 0.9514658 0.2819684
vn -0.09661077 0.9647145 0.2449335
vn -0.09661077 0.9647145 0.2449335
vn 0.1098379 0.9046754 0.4117014
vn 0.1098379 0.9046754 0.4117014
vn 0.1098379 0.9046754 0.4117014
vn 0.2271749 0.8326775 0.5050147
vn 0.2271749 0.8326775 0.5050147
vn 0.2271749 0.8326775 0.5050147
vn 0.2238021 0.8961164 0.3832594
vn 0.2238021 0.8961164 0.3832594
vn 0.2238021 0.8961164 0.3832594
vn 0.1261049 0.9207826 0.36913
vn 0.1261049 0.9207826 0.36913
vn 0.1261049 0.9207826 0.36913
vn 0.5843394 0.8000319 -0.1360015
vn 0.5843394 0.8000319 -0.1360015
vn 0.5843394 0.8000319 -0.1360015
vn -0.149741 0.9360666 0.318366
vn -0.149741 0.9360666 0.318366
vn -0.1233152 0.9514658 0.2819684
vn -0.0005549195 -0.0229719 -0.9997359
vn -0.0009284734 -0.05984572 -0.9982072
vn -0.009294302 -0.05022268 -0.9986948
vn -0.001041799 -0.04033656 -0.9991856
vn -0.0009284734 -0.05984572 -0.9982072
vn -0.00472594 -0.0465946 -0.9989027
vn -0.02179719 -0.08627243 -0.9960331
vn -0.009084919 -0.06513467 -0.9978351
vn 0.01655332 -0.08037998 -0.9966269
vn 0.01993772 -0.09935189 -0.9948526
vn -0.009084919 -0.06513467 -0.9978351
vn -0.0009284734 -0.05984572 -0.9982072
vn -0.001041799 -0.04033656 -0.9991856
vn 0.002389855 -0.0507457 -0.9987087
vn 0.002145547 -0.06784546 -0.9976935
vn 0.01390036 -0.07785592 -0.9968677
vn -0.00472594 -0.0465946 -0.9989027
vn 0.002145547 -0.06784546 -0.9976935
vn -0.009294302 -0.05022268 -0.9986948
vn -0.02179719 -0.08627243 -0.9960331
vn -0.03274881 -0.1863323 -0.9819409
vn -0.00951779 -0.1404961 -0.9900355
vn -0.03274881 -0.1863323 -0.9819409
vn 0.01993772 -0.09935189 -0.9948526
vn -0.001085098 -0.09520093 -0.9954575
vn 0.02979312 -0.1395882 -0.9897613
vn 0.01390036 -0.07785592 -0.9968677
vn 0.002145547 -0.06784546 -0.9976935
vn 0.01655332 -0.08037998 -0.9966269
vn -0.4746809 0.8771319 0.07292268
vn -0.5050377 0.8585561 0.08842176
vn -0.4746809 0.8771319 0.07292268
vn -0.5050377 0.8585561 0.08842176
vn -0.5346335 0.8386866 0.1037876
vn -0.2915196 0.9199195 0.2622296
vn -0.2915196 0.9199195 0.2622296
vn -0.2915196 0.9199195 0.2622296
vn -0.2915196 0.9199195 0.2622296
vn 0.0841467 0.8793536 0.4686753
vn 0.08089881 0.8881504 0.4523761
vn 0.07660067 0.8961216 0.437148
vn 0.05916411 0.9143412 0.4005991
vn 0.04988811 0.9225474 0.3826455
vn 0.06793376 0.9112174 0.4062855
vn -0.0007924617 0.9350962 0.3543931
vn -0.05924355 0.920087 0.387208
vn -0.05656507 0.9300242 0.3631189
vn -0.07213243 0.911204 0.4055913
vn -0.06447658 0.8983266 0.4345712
vn -0.1547112 0.9470566 0.2813328
vn -0.1441034 0.9382855 0.3144114
vn -0.1441034 0.9382855 0.3144114
vn -0.1595841 0.9177489 0.3636892
vn -0.1856856 0.906199 0.3799001
vn -0.1856856 0.906199 0.3799001
vn -0.1856856 0.906199 0.3799001
vn 0.210855 0.9661736 0.1484881
vn 0.2237728 0.9590646 0.1735538
vn 0.2237728 0.9590646 0.1735538
vn 0.2365014 0.9511445 0.1984728
vn -0.1055134 0.9536847 0.2816953
vn -0.1055134 0.9536847 0.2816953
vn -0.1055134 0.9536847 0.2816953
vn -0.1055134 0.9536847 0.2816953
vn 0.1925707 0.9182499 0.3460254
vn 0.1925707 0.9182499 0.3460254
vn 0.1940642 0.9188075 0.3437031
vn 0.1910758 0.917685 0.348345
vn 0.07653833 0.9196728 0.3851544
vn 0.02554126 0.9294001 0.3681891
vn 0.02541841 0.930621 0.3651008
vn 0 0.933226 0.3592897
vn -0.05418823 0.9266931 0.3718917
vn -0.05418823 0.9266931 0.3718917
vn -0.07533728 0.9200673 0.3844481
vn 0.07866213 0.9234402 0.3755934
vn 0.0267782 0.9318982 0.3617302
vn 0.02637437 0.9318448 0.3618974
vn 0.0007924618 0.935096 0.3543937
vn -0.04369803 0.9255443 0.3761093
vn -0.04369803 0.9255443 0.3761093
vn -0.05558207 0.9176809 0.3934113
vn -0.05558207 0.9176809 0.3934113
vn 0.1417027 0.9575847 0.2509022
vn 0.1417027 0.9575847 0.2509022
vn 0.1140019 0.9563112 0.2692069
vn 0.169247 0.9578009 0.2323205
vn 0.4880577 0.8593132 0.1529067
vn 0.4880577 0.8593132 0.1529067
vn 0.4880577 0.8593132 0.1529067
vn 0.4880577 0.8593132 0.1529067
vn 0.3889931 0.8797858 0.2732423
vn 0.3889931 0.8797858 0.2732423
vn 0.3889931 0.8797858 0.2732423
vn 0.3889931 0.8797858 0.2732423
vn 0.2609169 0.920754 0.2900596
vn 0.2609169 0.920754 0.2900596
vn 0.2609169 0.920754 0.2900596
vn 0.2609169 0.920754 0.2900596

vt 0.2702694 0.3034461
vt 0.2702694 0.3034462
vt 0.2702694 0.3034461
vt 0.2702694 0.3034461
vt 0.2702694 0.3034461
vt 0.2702694 0.3034462
vt 0.2702694 0.3034461
vt 0.2702694 0.3034462
vt 0.2702694 0.3034461
vt 0.2702694 0.3034461
vt 0.2702694 0.3034462
vt 0.2702694 0.3034462
vt 0.2702694 0.3034461
vt 0.2702694 0.3034461
vt 0.2702694 0.3034462
vt 0.2702694 0.3034462
vt 0.2702694 0.3034462
vt 0.2702694 0.3034461
vt 0.2702694 0.3034461
vt 0.2702694 0.3034462
vt 0.2702694 0.3034462
vt 0.2702694 0.3034462
vt 0.2702694 0.3034461
vt 0.2702694 0.3034462
vt 0.2702694 0.3034462
vt 0.2702694 0.3034462
vt 0.2702694 0.3034461
vt 0.2702694 0.3034462
vt 0.2702694 0.3034461
vt 0.2702694 0.3034462
vt 0.2702694 0.3034462
vt 0.2702694 0.3034462
vt 0.2702694 0.3034461
vt 0.2702694 0.3034461
vt 0.2702694 0.3034462
vt 0.2702694 0.3034462
vt 0.2702694 0.3034461
vt 0.2702694 0.3034461
vt 0.2702694 0.3034462
vt 0.2702694 0.3034461
vt 0.2702694 0.3034462
vt 0.2702694 0.3034462
vt 0.2702694 0.3034462
vt 0.2702694 0.3034462
vt 0.2702694 0.3034462
vt 0.2702694 0.3034461
vt 0.2702694 0.3034462
vt 0.2702694 0.3034462
vt 0.2702694 0.3034461
vt 0.2702694 0.3034462
vt 0.2702694 0.3034462
vt 0.2702694 0.3034461
vt 0.2702694 0.3034461
vt 0.2702694 0.3034461
vt 0.2702694 0.3034461
vt 0.2702694 0.3034462
vt 0.2702694 0.3034461
vt 0.2702694 0.3034462
vt 0.2702694 0.3034461
vt 0.2702694 0.3034462
vt 0.2702694 0.3034461
vt 0.2702694 0.3034461
vt 0.2702694 0.3034462
vt 0.2702694 0.3034461
vt 0.2702694 0.3034461
vt 0.2702694 0.3034461
vt 0.2702694 0.3034462
vt 0.2702694 0.3034462
vt 0.2702694 0.3034462
vt 0.2702694 0.3034461
vt 0.2702693 0.3034462
vt 0.2702694 0.3034462
vt 0.2702694 0.3034461
vt 0.2702693 0.3034462
vt 0.2702694 0.3034462
vt 0.2702693 0.3034462
vt 0.2702694 0.3034462
vt 0.2702693 0.3034462
vt 0.2702694 0.3034462
vt 0.2702694 0.3034461
vt 0.2702693 0.3034462
vt 0.2702694 0.3034462
vt 0.2702694 0.3034461
vt 0.2702693 0.3034462
vt 0.2702694 0.3034462
vt 0.2702694 0.3034461
vt 0.2702694 0.3034462
vt 0.2702693 0.3034462
vt 0.2702694 0.3034462
vt 0.2702694 0.3034461
vt 0.2702693 0.3034462
vt 0.2702694 0.3034462
vt 0.2702694 0.3034461
vt 0.2702693 0.3034462
vt 0.2702694 0.3034462
vt 0.2702694 0.3034461
vt 0.2702693 0.3034462
vt 0.2702694 0.3034461
vt 0.2702694 0.3034461
vt 0.2702694 0.3034461
vt 0.2702694 0.3034462
vt 0.2702694 0.3034461
vt 0.2702694 0.3034461
vt 0.2702694 0.3034462
vt 0.2702694 0.3034461
vt 0.2702694 0.3034461
vt 0.2702694 0.3034462
vt 0.2702694 0.3034461
vt 0.2702694 0.3034461
vt 0.2702694 0.3034462
vt 0.2702694 0.3034461
vt 0.2702694 0.3034461
vt 0.2702694 0.3034461
vt 0.2702694 0.3034462
vt 0.2702694 0.3034461
vt 0.2702694 0.3034461
vt 0.2702694 0.3034461
vt 0.2702694 0.3034461
vt 0.2702694 0.3034462
vt 0.2702694 0.3034461
vt 0.2702694 0.3034461
vt 0.2702694 0.3034462
vt 0.2702694 0.3034461
vt 0.2702694 0.3034461
vt 0.2702694 0.3034462
vt 0.2702694 0.3034461
vt 0.2702694 0.3034462
vt 0.2702694 0.3034461
vt 0.2702694 0.3034461
vt 0.2702694 0.3034461
vt 0.2702694 0.3034461
vt 0.2702694 0.3034461
vt 0.2702694 0.3034461
vt 0.2702694 0.3034462
vt 0.2702694 0.3034461
vt 0.2702694 0.3034461
vt 0.2702694 0.3034461
vt 0.2702694 0.3034462
vt 0.2702694 0.3034461
vt 0.2702694 0.3034461
vt 0.2702694 0.3034462
vt 0.2702694 0.3034461
vt 0.2702694 0.3034461
vt 0.2702694 0.3034461
vt 0.2702694 0.3034462
vt 0.2702694 0.3034461
vt 0.2702694 0.3034461
vt 0.2702694 0.3034461
vt 0.2702694 0.3034462
vt 0.2702694 0.3034461
vt 0.2702694 0.3034461
vt 0.2702694 0.3034462
vt 0.2702694 0.3034461
vt 0.2702694 0.3034462
vt 0.2702694 0.3034462
vt 0.2702694 0.3034462
vt 0.2702694 0.3034461
vt 0.2702694 0.3034461
vt 0.2702694 0.3034461
vt 0.2702694 0.3034461
vt 0.2702694 0.3034461
vt 0.2702694 0.3034461
vt 0.2702694 0.3034462
vt 0.2702694 0.3034462
vt 0.2702694 0.3034461
vt 0.2702694 0.3034461
vt 0.2702694 0.3034461

usemtl PolygonWestern_Material_01_A
usemap PolygonWestern_Material_01_A
f 2/2/2 1/1/1 3/3/3
f 5/5/5 4/4/4 6/6/6
f 8/8/8 7/7/7 9/9/9
f 11/11/11 10/10/10 12/12/12
f 14/14/14 13/13/13 15/15/15
f 17/17/17 16/16/16 18/18/18
f 20/20/20 19/19/19 21/21/21
f 23/23/23 22/22/22 24/24/24
f 26/26/26 25/25/25 27/27/27
f 29/29/29 28/28/28 30/30/30
f 32/32/32 31/31/31 33/33/33
f 35/35/35 34/34/34 36/36/36
f 38/38/38 37/37/37 39/39/39
f 37/37/37 40/40/40 41/41/41
f 43/43/43 42/42/42 44/44/44
f 46/46/46 45/45/45 47/47/47
f 49/49/49 48/48/48 50/50/50
f 52/52/52 51/51/51 53/53/53
f 55/55/55 54/54/54 56/56/56
f 58/58/58 57/57/57 59/59/59
f 61/61/61 60/60/60 62/62/62
f 64/64/64 63/63/63 65/65/65
f 67/67/67 66/66/66 68/68/68
f 70/70/70 69/69/69 71/71/71
f 73/73/73 72/72/72 74/74/74
f 73/73/73 75/75/75 76/76/76
f 73/73/73 77/77/77 78/78/78
f 80/80/80 79/79/79 81/81/81
f 83/83/83 82/82/82 84/84/84
f 86/86/86 85/85/85 82/82/82
f 86/86/86 87/87/87 88/88/88
f 90/90/90 89/89/89 91/91/91
f 93/93/93 92/92/92 94/94/94
f 96/96/96 95/95/95 97/97/97
f 99/99/99 98/98/98 100/100/100
f 101/101/101 98/98/98 99/99/99
f 102/102/102 101/101/101 99/99/99
f 104/104/104 103/103/103 105/105/105
f 105/105/105 103/103/103 106/106/106
f 108/108/108 107/107/107 109/109/109
f 108/108/108 109/109/109 110/110/110
f 110/110/110 109/109/109 111/111/111
f 111/111/111 109/109/109 112/112/112
f 110/110/110 111/111/111 113/113/113
f 115/115/115 114/114/114 113/113/113
f 116/116/116 114/114/114 115/115/115
f 116/116/116 117/117/117 114/114/114
f 119/119/119 118/118/118 120/120/120
f 119/119/119 120/120/120 121/121/121
f 121/121/121 122/122/122 123/123/123
f 123/123/123 122/122/122 124/124/124
f 126/126/126 125/125/125 127/127/127
f 126/126/126 127/127/127 128/128/128
f 130/130/130 129/129/129 131/131/131
f 131/131/131 129/129/129 132/132/132
f 134/134/134 133/133/133 135/135/135
f 136/136/136 133/133/133 134/134/134
f 138/138/138 137/137/137 139/139/139
f 138/138/138 139/139/139 140/140/140
f 142/142/142 141/141/141 140/140/140
f 143/143/143 141/141/141 142/142/142
f 145/145/145 144/144/144 146/146/146
f 145/145/145 146/146/146 147/147/147
f 148/148/148 145/145/145 147/147/147
f 150/150/150 149/149/149 148/148/148
f 151/151/151 149/149/149 150/150/150
f 153/153/153 152/152/152 154/154/154
f 155/155/155 152/152/152 153/153/153
f 157/157/157 156/156/156 158/158/158
f 158/158/158 156/156/156 159/159/159
f 161/161/161 160/160/160 162/162/162
f 162/162/162 160/160/160 163/163/163
f 165/165/165 164/164/164 166/166/166
f 166/166/166 164/164/164 167/167/167
