mtllib ./tent-teepee_11.mtl
g tent-teepee
v 0.3360337 3.445396 -0.1082548
v 0.2190883 3.445504 -0.1082548
v 0.277561 3.445611 -0.2095324
v -0.2508357 3.445396 -0.07895964
v -0.367781 3.445504 -0.07895964
v -0.3093083 3.445611 -0.1802372
v 0.05603782 3.445396 0.3658762
v -0.06090747 3.445504 0.3658762
v -0.002434787 3.445611 0.2645987
v 0.06156317 3.445396 -0.3643226
v 0.003090601 3.445503 -0.2630447
v -0.05538199 3.445611 -0.3643226
v -0.1937994 3.445396 0.1777505
v -0.2522719 3.445503 0.2790281
v -0.3107445 3.445611 0.1777505
v 0.3180889 3.445396 0.1808057
v 0.2596163 3.445503 0.2820835
v 0.2011437 3.445611 0.1808057
v 0.2190883 3.445504 -0.1082548
v -0.02415667 2.933932 0.01642993
v 0.03431603 2.93404 -0.08484764
v 0.277561 3.445611 -0.2095324
v 0.277561 3.445611 -0.2095324
v 0.03431603 2.93404 -0.08484764
v 0.0927886 2.933825 0.01642991
v 0.3360337 3.445396 -0.1082548
v 0.3360337 3.445396 -0.1082548
v 0.0927886 2.933825 0.01642991
v -0.02415667 2.933932 0.01642993
v 0.2190883 3.445504 -0.1082548
v -0.367781 3.445504 -0.07895964
v -0.1201331 2.933932 -0.0004832044
v -0.06166038 2.93404 -0.1017608
v -0.3093083 3.445611 -0.1802372
v -0.3093083 3.445611 -0.1802372
v -0.06166038 2.93404 -0.1017608
v -0.003187812 2.933825 -0.0004834948
v -0.2508357 3.445396 -0.07895964
v -0.2508357 3.445396 -0.07895964
v -0.003187812 2.933825 -0.0004834948
v -0.1201331 2.933932 -0.0004832044
v -0.367781 3.445504 -0.07895964
v -0.06090747 3.445504 0.3658762
v -0.06090751 2.933932 0.1082091
v -0.002434832 2.93404 0.006931581
v -0.002434787 3.445611 0.2645987
v -0.002434787 3.445611 0.2645987
v -0.002434832 2.93404 0.006931581
v 0.05603774 2.933825 0.1082091
v 0.05603782 3.445396 0.3658762
v 0.05603782 3.445396 0.3658762
v 0.05603774 2.933825 0.1082091
v -0.06090751 2.933932 0.1082091
v -0.06090747 3.445504 0.3658762
v 0.003090601 3.445503 -0.2630447
v 0.002150015 2.933932 0.0291355
v -0.05632255 2.934039 -0.0721423
v -0.05538199 3.445611 -0.3643226
v -0.05538199 3.445611 -0.3643226
v -0.05632255 2.934039 -0.0721423
v 0.06062258 2.933824 -0.07214233
v 0.06156317 3.445396 -0.3643226
v 0.06156317 3.445396 -0.3643226
v 0.06062258 2.933824 -0.07214233
v 0.002150015 2.933932 0.0291355
v 0.003090601 3.445503 -0.2630447
v -0.2522719 3.445503 0.2790281
v -0.0604854 2.933932 0.103797
v -0.118958 2.934039 0.002519157
v -0.3107445 3.445611 0.1777505
v -0.3107445 3.445611 0.1777505
v -0.118958 2.934039 0.002519157
v -0.002012848 2.933824 0.002519137
v -0.1937994 3.445396 0.1777505
v -0.1937994 3.445396 0.1777505
v -0.002012848 2.933824 0.002519137
v -0.0604854 2.933932 0.103797
v -0.2522719 3.445503 0.2790281
v 0.2596163 3.445503 0.2820835
v 0.06325778 2.933932 0.1068522
v 0.004785194 2.934039 0.005574672
v 0.2011437 3.445611 0.1808057
v 0.2011437 3.445611 0.1808057
v 0.004785194 2.934039 0.005574672
v 0.1217303 2.933824 0.005574652
v 0.3180889 3.445396 0.1808057
v 0.3180889 3.445396 0.1808057
v 0.1217303 2.933824 0.005574652
v 0.06325778 2.933932 0.1068522
v 0.2596163 3.445503 0.2820835
v -1.811428 -4.791786E-14 6.406286E-07
v -0.9057142 1.206187E-07 -1.568742
v -0.2396802 2.316253 -0.4151376
v -0.4793601 2.316253 4.611795E-07
v 0.9057133 1.206188E-07 -1.568743
v 1.811428 4.692565E-15 -4.246895E-07
v 0.4793601 2.316253 2.935516E-07
v 0.2396799 2.316253 -0.415138
v 1.811428 4.692565E-15 -4.246895E-07
v 0.9057139 -1.206187E-07 1.568742
v 0.2396802 2.316253 0.4151385
v 0.4793601 2.316253 2.935516E-07
v -0.9057133 -1.206188E-07 1.568743
v -1.811428 -4.791786E-14 6.406286E-07
v -0.4793601 2.316253 4.611795E-07
v -0.2396799 2.316253 0.4151386
v -0.9057142 1.206187E-07 -1.568742
v 0.9057133 1.206188E-07 -1.568743
v 0.2396799 2.316253 -0.415138
v -0.2396802 2.316253 -0.4151376
v 0.1680476 2.564218 0.2910672
v 0.06464545 2.933712 0.1119697
v 0.1292909 2.933712 4.553564E-07
v 0.3360952 2.564218 3.589993E-07
v 0.1680474 2.564218 -0.2910668
v 0.06464539 2.933712 -0.1119688
v -0.06464548 2.933712 -0.1119687
v -0.1680477 2.564218 -0.2910668
v -0.1680477 2.564218 -0.2910668
v -0.06464548 2.933712 -0.1119687
v -0.1292909 2.933712 5.005684E-07
v -0.3360952 2.564218 4.765288E-07
v 0.3360952 2.564218 3.589993E-07
v 0.1292909 2.933712 4.553564E-07
v 0.06464539 2.933712 -0.1119688
v 0.1680474 2.564218 -0.2910668
v -0.3360952 2.564218 4.765288E-07
v -0.1292909 2.933712 5.005684E-07
v -0.06464541 2.933712 0.1119697
v -0.1680475 2.564218 0.2910673
v -0.1041728 1.028633 1.054243
v -0.2396799 2.316253 0.4151386
v 0.2396802 2.316253 0.4151385
v 0.1041729 1.028633 1.054243
v 0.1041729 1.028633 1.054243
v 0.2396802 2.316253 0.4151385
v 0.9057139 -1.206187E-07 1.568742
v 0.4195703 -1.206188E-07 1.568743
v -0.4195699 -1.206188E-07 1.568743
v -0.9057133 -1.206188E-07 1.568743
v -0.2396799 2.316253 0.4151386
v -0.1041728 1.028633 1.054243
v 0.4793601 2.316253 2.935516E-07
v 0.2396802 2.316253 0.4151385
v 0.2039896 2.440235 0.3533206
v 0.4079791 2.440235 3.262314E-07
v 0.4079791 2.440235 3.262314E-07
v 0.2039896 2.440235 0.3533206
v 0.1680476 2.564218 0.2910672
v 0.3360952 2.564218 3.589993E-07
v -0.2396799 2.316253 0.4151386
v -0.4793601 2.316253 4.611795E-07
v -0.4079791 2.440235 4.688981E-07
v -0.2039894 2.440235 0.3533207
v -0.2039894 2.440235 0.3533207
v -0.4079791 2.440235 4.688981E-07
v -0.3360952 2.564218 4.765288E-07
v -0.1680475 2.564218 0.2910673
v -0.2396802 2.316253 -0.4151376
v 0.2396799 2.316253 -0.415138
v 0.2039894 2.440235 -0.3533201
v -0.2039897 2.440235 -0.35332
v -0.2039897 2.440235 -0.35332
v 0.2039894 2.440235 -0.3533201
v 0.1680474 2.564218 -0.2910668
v -0.1680477 2.564218 -0.2910668
v 0.2396802 2.316253 0.4151385
v -0.2396799 2.316253 0.4151386
v -0.2039894 2.440235 0.3533207
v 0.2039896 2.440235 0.3533206
v 0.2039896 2.440235 0.3533206
v -0.2039894 2.440235 0.3533207
v -0.1680475 2.564218 0.2910673
v 0.1680476 2.564218 0.2910672
v -0.4793601 2.316253 4.611795E-07
v -0.2396802 2.316253 -0.4151376
v -0.2039897 2.440235 -0.35332
v -0.4079791 2.440235 4.688981E-07
v -0.4079791 2.440235 4.688981E-07
v -0.2039897 2.440235 -0.35332
v -0.1680477 2.564218 -0.2910668
v -0.3360952 2.564218 4.765288E-07
v 0.2396799 2.316253 -0.415138
v 0.4793601 2.316253 2.935516E-07
v 0.4079791 2.440235 3.262314E-07
v 0.2039894 2.440235 -0.3533201
v 0.2039894 2.440235 -0.3533201
v 0.4079791 2.440235 3.262314E-07
v 0.3360952 2.564218 3.589993E-07
v 0.1680474 2.564218 -0.2910668
v -0.1680475 2.564218 0.2910673
v -0.06464541 2.933712 0.1119697
v 0.06464545 2.933712 0.1119697
v 0.1680476 2.564218 0.2910672
v -0.06464548 2.933712 -0.1119687
v 0.06464539 2.933712 -0.1119688
v 0.1292909 2.933712 4.553564E-07
v -0.1292909 2.933712 5.005684E-07
v 0.06464545 2.933712 0.1119697
v -0.06464541 2.933712 0.1119697
v 0.4195703 -2.297176E-07 1.409996
v -0.4195699 -2.297176E-07 1.409996
v -0.1041728 1.028633 0.8954964
v 0.1041729 1.028633 0.8954964
v -0.1041728 1.028633 1.054243
v -0.1041728 1.028633 0.8954964
v -0.4195699 -2.297176E-07 1.409996
v -0.4195699 -1.206188E-07 1.568743
v 0.1041729 1.028633 1.054243
v 0.1041729 1.028633 0.8954964
v -0.1041728 1.028633 0.8954964
v -0.1041728 1.028633 1.054243
v 0.4195703 -1.206188E-07 1.568743
v 0.4195703 -2.297176E-07 1.409996
v 0.1041729 1.028633 0.8954964
v 0.1041729 1.028633 1.054243
v -0.4195699 -1.206188E-07 1.568743
v -1.811428 -4.791786E-14 6.406286E-07
v -0.9057133 -1.206188E-07 1.568743
v -0.4195699 -2.297176E-07 1.409996
v 0.4195703 -2.297176E-07 1.409996
v 1.811428 4.692565E-15 -4.246895E-07
v -0.9057142 1.206187E-07 -1.568742
v 0.9057133 1.206188E-07 -1.568743
v 0.9057139 -1.206187E-07 1.568742
v 0.4195703 -1.206188E-07 1.568743

vn 0.000920946 0.9999983 0.001593731
vn 0.000920946 0.9999983 0.001593731
vn 0.000920946 0.9999983 0.001593731
vn 0.0009209472 0.9999983 0.00159373
vn 0.0009209472 0.9999983 0.00159373
vn 0.0009209472 0.9999983 0.00159373
vn 0.000920947 0.9999983 0.001593731
vn 0.000920947 0.9999983 0.001593731
vn 0.000920947 0.9999983 0.001593731
vn 0.001831824 0.9999983 1.176801E-06
vn 0.001831824 0.9999983 1.176801E-06
vn 0.001831824 0.9999983 1.176801E-06
vn 0.001836863 0.9999983 1.176114E-06
vn 0.001836863 0.9999983 1.176114E-06
vn 0.001836863 0.9999983 1.176114E-06
vn 0.001836858 0.9999983 1.177032E-06
vn 0.001836858 0.9999983 1.177032E-06
vn 0.001836858 0.9999983 1.177032E-06
vn -0.8318753 0.2785579 -0.4799885
vn -0.8318753 0.2785579 -0.4799885
vn -0.8318753 0.2785579 -0.4799885
vn -0.8318753 0.2785579 -0.4799885
vn 0.7636155 -0.4707857 -0.4418733
vn 0.7636155 -0.4707857 -0.4418733
vn 0.7636155 -0.4707857 -0.4418733
vn 0.7636155 -0.4707857 -0.4418733
vn 0.000217783 0.2366993 0.9715829
vn 0.000217783 0.2366993 0.9715829
vn 0.000217783 0.2366993 0.9715829
vn 0.000217783 0.2366993 0.9715829
vn -0.7756639 -0.4442638 -0.4483026
vn -0.7756639 -0.4442638 -0.4483026
vn -0.7756639 -0.4442638 -0.4483026
vn -0.7756639 -0.4442638 -0.4483026
vn 0.8195324 0.3242518 -0.4724696
vn 0.8195324 0.3242518 -0.4724696
vn 0.8195324 0.3242518 -0.4724696
vn 0.8195324 0.3242518 -0.4724696
vn 0.0001405953 0.1516951 0.9884273
vn 0.0001405953 0.1516951 0.9884273
vn 0.0001405953 0.1516951 0.9884273
vn 0.0001405953 0.1516951 0.9884273
vn -0.8399358 0.2441213 -0.484678
vn -0.8399358 0.2441213 -0.484678
vn -0.8399358 0.2441213 -0.484678
vn -0.8399358 0.2441213 -0.484678
vn 0.840068 0.2440291 -0.484495
vn 0.840068 0.2440291 -0.484495
vn 0.840068 0.2440291 -0.484495
vn 0.840068 0.2440291 -0.484495
vn -0.0004118324 -0.449839 0.8931095
vn -0.0004118324 -0.449839 0.8931095
vn -0.0004118324 -0.449839 0.8931095
vn -0.0004118324 -0.449839 0.8931095
vn -0.8322297 0.2761239 0.4807799
vn -0.8322297 0.2761239 0.4807799
vn -0.8322297 0.2761239 0.4807799
vn -0.8322297 0.2761239 0.4807799
vn -0.0009102682 -0.4959501 -0.8683505
vn -0.0009102682 -0.4959501 -0.8683505
vn -0.0009102682 -0.4959501 -0.8683505
vn -0.0009102682 -0.4959501 -0.8683505
vn 0.8332388 0.2730621 0.4807806
vn 0.8332388 0.2730621 0.4807806
vn 0.8332388 0.2730621 0.4807806
vn 0.8332388 0.2730621 0.4807806
vn -0.7760733 -0.4442638 0.4475933
vn -0.7760733 -0.4442638 0.4475933
vn -0.7760733 -0.4442638 0.4475933
vn -0.7760733 -0.4442638 0.4475933
vn 0.0005941755 0.3242516 -0.9459707
vn 0.0005941755 0.3242516 -0.9459707
vn 0.0005941755 0.3242516 -0.9459707
vn 0.0005941755 0.3242516 -0.9459707
vn 0.8560734 0.1516948 0.494092
vn 0.8560734 0.1516948 0.494092
vn 0.8560734 0.1516948 0.494092
vn 0.8560734 0.1516948 0.494092
vn -0.8549325 0.1590207 0.4937639
vn -0.8549325 0.1590207 0.4937639
vn -0.8549325 0.1590207 0.4937639
vn -0.8549325 0.1590207 0.4937639
vn 0.0005943768 0.323847 -0.9461093
vn 0.0005943768 0.323847 -0.9461093
vn 0.0005943768 0.323847 -0.9461093
vn 0.0005943768 0.323847 -0.9461093
vn 0.7732346 -0.4498735 0.4469026
vn 0.7732346 -0.4498735 0.4469026
vn 0.7732346 -0.4498735 0.4469026
vn 0.7732346 -0.4498735 0.4469026
vn -0.7752013 0.4458149 -0.4475623
vn -0.7752013 0.4458149 -0.4475623
vn -0.7752013 0.4458149 -0.4475623
vn -0.7752013 0.4458149 -0.4475623
vn 0.7752011 0.4458149 -0.4475627
vn 0.7752011 0.4458149 -0.4475627
vn 0.7752011 0.4458149 -0.4475627
vn 0.7752011 0.4458149 -0.4475627
vn 0.7752012 0.4458148 0.4475626
vn 0.7752012 0.4458148 0.4475626
vn 0.7752012 0.4458148 0.4475626
vn 0.7752012 0.4458148 0.4475626
vn -0.775201 0.4458148 0.4475628
vn -0.775201 0.4458148 0.4475628
vn -0.775201 0.4458148 0.4475628
vn -0.775201 0.4458148 0.4475628
vn -3.217681E-07 0.445815 -0.8951252
vn -3.217681E-07 0.445815 -0.8951252
vn -3.217681E-07 0.445815 -0.8951252
vn -3.217681E-07 0.445815 -0.8951252
vn 0.7793042 0.4361725 0.4499316
vn 0.7793042 0.4361725 0.4499316
vn 0.7793042 0.4361725 0.4499316
vn 0.7793042 0.4361725 0.4499316
vn -3.743855E-07 0.4361731 -0.8998628
vn -3.743855E-07 0.4361731 -0.8998628
vn -3.743855E-07 0.4361731 -0.8998628
vn -3.743855E-07 0.4361731 -0.8998628
vn -0.7793042 0.4361731 -0.4499312
vn -0.7793042 0.4361731 -0.4499312
vn -0.7793042 0.4361731 -0.4499312
vn -0.7793042 0.4361731 -0.4499312
vn 0.7793042 0.4361726 -0.4499315
vn 0.7793042 0.4361726 -0.4499315
vn 0.7793042 0.4361726 -0.4499315
vn 0.7793042 0.4361726 -0.4499315
vn -0.7793042 0.4361723 0.4499318
vn -0.7793042 0.4361723 0.4499318
vn -0.7793042 0.4361723 0.4499318
vn -0.7793042 0.4361723 0.4499318
vn 1.777901E-07 0.4445929 0.8957328
vn 1.777901E-07 0.4445929 0.8957328
vn 1.777901E-07 0.4445929 0.8957328
vn 1.777901E-07 0.4445929 0.8957328
vn -0.002718214 0.445644 0.8952062
vn -0.002718214 0.445644 0.8952062
vn -0.002718214 0.445644 0.8952062
vn -0.002718214 0.445644 0.8952062
vn 0.002718854 0.445644 0.8952062
vn 0.002718854 0.445644 0.8952062
vn 0.002718854 0.445644 0.8952062
vn 0.002718854 0.445644 0.8952062
vn 0.775029 0.4462132 0.4474636
vn 0.775029 0.4462132 0.4474636
vn 0.775029 0.4462132 0.4474636
vn 0.775029 0.4462132 0.4474636
vn 0.7739412 0.4487246 0.4468347
vn 0.7739412 0.4487246 0.4468347
vn 0.7739412 0.4487246 0.4468347
vn 0.7739412 0.4487246 0.4468347
vn -0.7750285 0.4462133 0.4474645
vn -0.7750285 0.4462133 0.4474645
vn -0.7750285 0.4462133 0.4474645
vn -0.7750285 0.4462133 0.4474645
vn -0.7739409 0.4487246 0.4468351
vn -0.7739409 0.4487246 0.4468351
vn -0.7739409 0.4487246 0.4468351
vn -0.7739409 0.4487246 0.4468351
vn -2.424319E-07 0.4462137 -0.8949264
vn -2.424319E-07 0.4462137 -0.8949264
vn -2.424319E-07 0.4462137 -0.8949264
vn -2.424319E-07 0.4462137 -0.8949264
vn 0 0.4487246 -0.8936701
vn 0 0.4487246 -0.8936701
vn 0 0.4487246 -0.8936701
vn 0 0.4487246 -0.8936701
vn 0 0.4462127 0.894927
vn 0 0.4462127 0.894927
vn 0 0.4462127 0.894927
vn 0 0.4462127 0.894927
vn 2.88703E-07 0.4487251 0.8936698
vn 2.88703E-07 0.4487251 0.8936698
vn 2.88703E-07 0.4487251 0.8936698
vn 2.88703E-07 0.4487251 0.8936698
vn -0.7750297 0.446213 -0.4474627
vn -0.7750297 0.446213 -0.4474627
vn -0.7750297 0.446213 -0.4474627
vn -0.7750297 0.446213 -0.4474627
vn -0.7739419 0.4487242 -0.4468341
vn -0.7739419 0.4487242 -0.4468341
vn -0.7739419 0.4487242 -0.4468341
vn -0.7739419 0.4487242 -0.4468341
vn 0.7750285 0.4462143 -0.4474637
vn 0.7750285 0.4462143 -0.4474637
vn 0.7750285 0.4462143 -0.4474637
vn 0.7750285 0.4462143 -0.4474637
vn 0.7739416 0.4487241 -0.4468344
vn 0.7739416 0.4487241 -0.4468344
vn 0.7739416 0.4487241 -0.4468344
vn 0.7739416 0.4487241 -0.4468344
vn 3.743856E-07 0.4361721 0.8998632
vn 3.743856E-07 0.4361721 0.8998632
vn 3.743856E-07 0.4361721 0.8998632
vn 3.743856E-07 0.4361721 0.8998632
vn 0 1 0
vn 0 1 0
vn 0 1 0
vn 0 1 0
vn 0 1 0
vn 0 1 0
vn 0 0.4473408 0.8943635
vn 0 0.4473408 0.8943635
vn 0 0.4473408 0.8943635
vn 0 0.4473408 0.8943635
vn 0.9560673 -0.2931471 -1.744916E-07
vn 0.9560673 -0.2931471 -1.744916E-07
vn 0.9560673 -0.2931471 -1.744916E-07
vn 0.9560673 -0.2931471 -1.744916E-07
vn 0 -1 -7.509425E-07
vn 0 -1 -7.509425E-07
vn 0 -1 -7.509425E-07
vn 0 -1 -7.509425E-07
vn -0.9560673 -0.2931471 0
vn -0.9560673 -0.2931471 0
vn -0.9560673 -0.2931471 0
vn -0.9560673 -0.2931471 0
vn -1.934713E-07 -1 0
vn -1.934713E-07 -1 0
vn -1.934713E-07 -1 0
vn -1.934713E-07 -1 0
vn 1.934715E-07 -1 0
vn 1.934715E-07 -1 0
vn 0 -1 0
vn 0 -1 0
vn 1.934715E-07 -1 0
vn 1.934715E-07 -1 0

vt 0.2795913 0.8272378
vt 0.2813533 0.8301411
vt 0.2829866 0.8271635
vt 0.3278638 0.8256344
vt 0.3284753 0.828975
vt 0.3310626 0.8267752
vt 0.3184954 0.8269241
vt 0.3212014 0.8289763
vt 0.3216256 0.8256066
vt 0.3020324 0.8294663
vt 0.3023026 0.826081
vt 0.2992357 0.8275397
vt 0.2907562 0.8298665
vt 0.2927303 0.827103
vt 0.28935 0.8267752
vt 0.3088656 0.8290659
vt 0.311671 0.8271519
vt 0.3086109 0.8256792
vt 0.2861041 0.8258164
vt 0.2861041 0.8089725
vt 0.2829865 0.8103197
vt 0.2829866 0.8271635
vt 0.2829866 0.8271635
vt 0.2829865 0.8103197
vt 0.2795913 0.810394
vt 0.2795913 0.8272378
vt 0.2795913 0.8272378
vt 0.2795913 0.810394
vt 0.276507 0.8089725
vt 0.2765069 0.8258164
vt 0.3344429 0.827103
vt 0.3344429 0.8104411
vt 0.3310627 0.8101134
vt 0.3310626 0.8267752
vt 0.3310626 0.8267752
vt 0.3310627 0.8101134
vt 0.3278638 0.8089725
vt 0.3278638 0.8256344
vt 0.3278638 0.8256344
vt 0.3278638 0.8089725
vt 0.3248017 0.8104411
vt 0.3248017 0.827103
vt 0.3247546 0.826927
vt 0.3247546 0.8102927
vt 0.3216256 0.8089725
vt 0.3216256 0.8256066
vt 0.3216256 0.8256066
vt 0.3216256 0.8089725
vt 0.3184954 0.8102899
vt 0.3184954 0.8269241
vt 0.3184954 0.8269241
vt 0.3184954 0.8102899
vt 0.3150993 0.8102927
vt 0.3150993 0.8269269
vt 0.3023026 0.826081
vt 0.3023026 0.8089725
vt 0.2992357 0.8104312
vt 0.2992357 0.8275397
vt 0.2992357 0.8275397
vt 0.2992357 0.8104312
vt 0.2958395 0.8104312
vt 0.2958395 0.8275397
vt 0.3053695 0.8275397
vt 0.3053695 0.8104312
vt 0.3023026 0.8089725
vt 0.3023026 0.826081
vt 0.2927303 0.827103
vt 0.2927303 0.8104411
vt 0.28935 0.8101134
vt 0.28935 0.8267752
vt 0.28935 0.8267752
vt 0.28935 0.8101134
vt 0.2861512 0.8089725
vt 0.2861512 0.8256344
vt 0.2957924 0.8256344
vt 0.2957924 0.8089725
vt 0.2927303 0.8104411
vt 0.2927303 0.827103
vt 0.311671 0.8271519
vt 0.311671 0.8104452
vt 0.3086109 0.8089725
vt 0.3086109 0.8256792
vt 0.3086109 0.8256792
vt 0.3086109 0.8089725
vt 0.3054166 0.8101261
vt 0.3054166 0.8268329
vt 0.3150521 0.8268329
vt 0.3150521 0.8101261
vt 0.311671 0.8104452
vt 0.311671 0.8271519
vt 0.668717 0.7965584
vt 0.6544709 0.8101193
vt 0.6790665 0.8254598
vt 0.6828524 0.8219118
vt 0.7264267 0.8318641
vt 0.7220956 0.8127965
vt 0.6964314 0.8260291
vt 0.6975961 0.8310403
vt 0.7220956 0.8127965
vt 0.7089682 0.7982216
vt 0.6929216 0.8221536
vt 0.6964314 0.8260291
vt 0.6878434 0.7916379
vt 0.668717 0.7965584
vt 0.6828524 0.8219118
vt 0.687938 0.8206426
vt 0.6544709 0.8101193
vt 0.6485599 0.8288578
vt 0.6775018 0.8303934
vt 0.6790665 0.8254598
vt 0.2061997 0.5743256
vt 0.1993155 0.5854248
vt 0.2019542 0.5882412
vt 0.2133407 0.5819911
vt 0.174991 0.5908724
vt 0.1880158 0.5917864
vt 0.1892198 0.588015
vt 0.1782279 0.5809298
vt 0.1782279 0.5809298
vt 0.1892198 0.588015
vt 0.1920227 0.5853108
vt 0.1859271 0.573759
vt 0.2133407 0.5819911
vt 0.2019542 0.5882412
vt 0.202918 0.5920613
vt 0.2158212 0.5920554
vt 0.1859271 0.573759
vt 0.1920227 0.5853108
vt 0.1956995 0.5843573
vt 0.1961643 0.5712982
vt 0.6913449 0.8135915
vt 0.687938 0.8206426
vt 0.6929216 0.8221536
vt 0.6939847 0.8144125
vt 0.6939847 0.8144125
vt 0.6929216 0.8221536
vt 0.7089682 0.7982216
vt 0.7058495 0.7972288
vt 0.6910138 0.7925414
vt 0.6878434 0.7916379
vt 0.687938 0.8206426
vt 0.6913449 0.8135915
vt 0.2211826 0.5778286
vt 0.2109711 0.5665528
vt 0.2085775 0.5704538
vt 0.2172564 0.5799012
vt 0.6950819 0.8267413
vt 0.692099 0.8234943
vt 0.6912818 0.824825
vt 0.6937361 0.8274597
vt 0.1964709 0.5621568
vt 0.1816741 0.5658496
vt 0.1838044 0.5698026
vt 0.1963143 0.566744
vt 0.6878842 0.8222193
vt 0.6835846 0.8232704
vt 0.6843141 0.8246303
vt 0.6878326 0.8237845
vt 0.1706589 0.5761726
vt 0.1661064 0.590527
vt 0.1705717 0.5906951
vt 0.1744454 0.5785484
vt 0.6803679 0.8262763
vt 0.6790365 0.8304511
vt 0.6805555 0.830512
vt 0.6816679 0.8270949
vt 0.2109711 0.5665528
vt 0.1964709 0.5621568
vt 0.1963143 0.566744
vt 0.2085775 0.5704538
vt 0.692099 0.8234943
vt 0.6878842 0.8222193
vt 0.6878326 0.8237845
vt 0.6912818 0.824825
vt 0.1816741 0.5658496
vt 0.1706589 0.5761726
vt 0.1744454 0.5785484
vt 0.1838044 0.5698026
vt 0.6835846 0.8232704
vt 0.6803679 0.8262763
vt 0.6816679 0.8270949
vt 0.6843141 0.8246303
vt 0.2245713 0.5924093
vt 0.2211826 0.5778286
vt 0.2172564 0.5799012
vt 0.2201706 0.5922131
vt 0.6960835 0.8309729
vt 0.6950819 0.8267413
vt 0.6937361 0.8274597
vt 0.6945887 0.8309187
vt 0.1961643 0.5712982
vt 0.1956995 0.5843573
vt 0.1993155 0.5854248
vt 0.2061997 0.5743256
vt 0.06120824 0.7087952
vt 0.06275468 0.7072935
vt 0.0622273 0.7052032
vt 0.05913436 0.708207
vt 0.06015342 0.7046148
vt 0.05860694 0.7061167
vt 0.08499967 0.6534507
vt 0.06654104 0.6475421
vt 0.06583517 0.6792217
vt 0.06816872 0.6799466
vt 0.6913449 0.8135915
vt 0.6920888 0.8132874
vt 0.6925323 0.7933878
vt 0.6910138 0.7925414
vt 0.6939847 0.8144125
vt 0.6935548 0.8137428
vt 0.6920888 0.8132874
vt 0.6913449 0.8135915
vt 0.7058495 0.7972288
vt 0.7041271 0.7970994
vt 0.6935548 0.8137428
vt 0.6939847 0.8144125
vt 0.03215007 0.6682145
vt 0.01738897 0.6632987
vt 0.02902677 0.6700177
vt 0.03156124 0.6671946
vt 0.03695243 0.664082
vt 0.04066456 0.6498604
vt 0.01738897 0.6498604
vt 0.02902677 0.6431414
vt 0.04066456 0.6632987
vt 0.03754126 0.6651019

usemtl LOW-POLY-COLORS
usemap LOW-POLY-COLORS
f 2/2/2 1/1/1 3/3/3
f 5/5/5 4/4/4 6/6/6
f 8/8/8 7/7/7 9/9/9
f 11/11/11 10/10/10 12/12/12
f 14/14/14 13/13/13 15/15/15
f 17/17/17 16/16/16 18/18/18
f 20/20/20 19/19/19 21/21/21
f 21/21/21 19/19/19 22/22/22
f 24/24/24 23/23/23 25/25/25
f 25/25/25 23/23/23 26/26/26
f 28/28/28 27/27/27 29/29/29
f 29/29/29 27/27/27 30/30/30
f 32/32/32 31/31/31 33/33/33
f 33/33/33 31/31/31 34/34/34
f 36/36/36 35/35/35 37/37/37
f 37/37/37 35/35/35 38/38/38
f 40/40/40 39/39/39 41/41/41
f 41/41/41 39/39/39 42/42/42
f 44/44/44 43/43/43 45/45/45
f 45/45/45 43/43/43 46/46/46
f 48/48/48 47/47/47 49/49/49
f 49/49/49 47/47/47 50/50/50
f 52/52/52 51/51/51 53/53/53
f 53/53/53 51/51/51 54/54/54
f 56/56/56 55/55/55 57/57/57
f 57/57/57 55/55/55 58/58/58
f 60/60/60 59/59/59 61/61/61
f 61/61/61 59/59/59 62/62/62
f 64/64/64 63/63/63 65/65/65
f 65/65/65 63/63/63 66/66/66
f 68/68/68 67/67/67 69/69/69
f 69/69/69 67/67/67 70/70/70
f 72/72/72 71/71/71 73/73/73
f 73/73/73 71/71/71 74/74/74
f 76/76/76 75/75/75 77/77/77
f 77/77/77 75/75/75 78/78/78
f 80/80/80 79/79/79 81/81/81
f 81/81/81 79/79/79 82/82/82
f 84/84/84 83/83/83 85/85/85
f 85/85/85 83/83/83 86/86/86
f 88/88/88 87/87/87 89/89/89
f 89/89/89 87/87/87 90/90/90
f 92/92/92 91/91/91 93/93/93
f 93/93/93 91/91/91 94/94/94
f 96/96/96 95/95/95 97/97/97
f 97/97/97 95/95/95 98/98/98
f 100/100/100 99/99/99 101/101/101
f 101/101/101 99/99/99 102/102/102
f 104/104/104 103/103/103 105/105/105
f 105/105/105 103/103/103 106/106/106
f 108/108/108 107/107/107 109/109/109
f 109/109/109 107/107/107 110/110/110
f 112/112/112 111/111/111 113/113/113
f 113/113/113 111/111/111 114/114/114
f 116/116/116 115/115/115 117/117/117
f 117/117/117 115/115/115 118/118/118
f 120/120/120 119/119/119 121/121/121
f 121/121/121 119/119/119 122/122/122
f 124/124/124 123/123/123 125/125/125
f 125/125/125 123/123/123 126/126/126
f 128/128/128 127/127/127 129/129/129
f 129/129/129 127/127/127 130/130/130
f 132/132/132 131/131/131 133/133/133
f 133/133/133 131/131/131 134/134/134
f 136/136/136 135/135/135 137/137/137
f 137/137/137 135/135/135 138/138/138
f 140/140/140 139/139/139 141/141/141
f 141/141/141 139/139/139 142/142/142
f 144/144/144 143/143/143 145/145/145
f 145/145/145 143/143/143 146/146/146
f 148/148/148 147/147/147 149/149/149
f 149/149/149 147/147/147 150/150/150
f 152/152/152 151/151/151 153/153/153
f 153/153/153 151/151/151 154/154/154
f 156/156/156 155/155/155 157/157/157
f 157/157/157 155/155/155 158/158/158
f 160/160/160 159/159/159 161/161/161
f 161/161/161 159/159/159 162/162/162
f 164/164/164 163/163/163 165/165/165
f 165/165/165 163/163/163 166/166/166
f 168/168/168 167/167/167 169/169/169
f 169/169/169 167/167/167 170/170/170
f 172/172/172 171/171/171 173/173/173
f 173/173/173 171/171/171 174/174/174
f 176/176/176 175/175/175 177/177/177
f 177/177/177 175/175/175 178/178/178
f 180/180/180 179/179/179 181/181/181
f 181/181/181 179/179/179 182/182/182
f 184/184/184 183/183/183 185/185/185
f 185/185/185 183/183/183 186/186/186
f 188/188/188 187/187/187 189/189/189
f 189/189/189 187/187/187 190/190/190
f 192/192/192 191/191/191 193/193/193
f 193/193/193 191/191/191 194/194/194
f 196/196/196 195/195/195 197/197/197
f 198/198/198 197/197/197 195/195/195
f 199/199/199 197/197/197 198/198/198
f 200/200/200 199/199/199 198/198/198
f 202/202/202 201/201/201 203/203/203
f 203/203/203 201/201/201 204/204/204
f 206/206/206 205/205/205 207/207/207
f 207/207/207 205/205/205 208/208/208
f 210/210/210 209/209/209 211/211/211
f 211/211/211 209/209/209 212/212/212
f 214/214/214 213/213/213 215/215/215
f 215/215/215 213/213/213 216/216/216
f 218/218/218 217/217/217 219/219/219
f 220/220/220 217/217/217 218/218/218
f 218/218/218 221/221/221 220/220/220
f 222/222/222 221/221/221 218/218/218
f 223/223/223 222/222/222 218/218/218
f 224/224/224 222/222/222 223/223/223
f 225/225/225 221/221/221 222/222/222
f 226/226/226 221/221/221 225/225/225
