mtllib ./barrier-concrete_12.mtl
g barrier-concrete
v 0 0.1030451 -0.4100314
v 0 4.925532E-07 -0.4100314
v 1.012929 0.0001461506 -0.4100314
v 1.011237 0.1031717 -0.4100314
v 0.9871005 1.144855 0.1501551
v 1.005735 0.3470536 0.2055559
v 0 0.346989 0.2055559
v 0 1.1597 0.1501551
v 0 1.1597 -0.1501551
v 0 0.346989 -0.2055559
v 1.005735 0.3470536 -0.2055559
v 0.9871005 1.144855 -0.1501551
v 0.9871005 1.144855 0.1501551
v 0 1.1597 -0.1501551
v 0.9871005 1.144855 -0.1501551
v 0 1.1597 0.1501551
v -0.9871005 1.144855 0.1501551
v -0.9871005 1.144855 -0.1501551
v 0 0.346989 -0.2055559
v -1.005735 0.3470536 -0.2055559
v -1.011237 0.1031717 -0.4100314
v 0 0.1030451 -0.4100314
v 0 0.1030451 -0.4100314
v -1.011237 0.1031717 -0.4100314
v -1.012929 0.0001461506 -0.4100314
v 0 4.925532E-07 -0.4100314
v -1.011237 0.1031717 -0.4100314
v -1.012929 0.0001461506 0.4100314
v -1.012929 0.0001461506 -0.4100314
v -1.011237 0.1031717 0.4100314
v -1.005735 0.3470536 -0.2055559
v -1.005735 0.3470536 0.2055559
v -0.9871005 1.144855 -0.1501551
v -0.9871005 1.144855 0.1501551
v 0 1.1597 -0.1501551
v -0.9871005 1.144855 -0.1501551
v -1.005735 0.3470536 -0.2055559
v 0 0.346989 -0.2055559
v 0.9871005 1.144855 -0.1501551
v 1.005735 0.3470536 0.2055559
v 0.9871005 1.144855 0.1501551
v 1.005735 0.3470536 -0.2055559
v 1.011237 0.1031717 0.4100314
v 1.011237 0.1031717 -0.4100314
v 1.012929 0.0001461506 0.4100314
v 1.012929 0.0001461506 -0.4100314
v 1.005735 0.3470536 0.2055559
v 1.011237 0.1031717 0.4100314
v 0 0.1030451 0.4100314
v 0 0.346989 0.2055559
v -0.9871005 1.144855 0.1501551
v 0 1.1597 0.1501551
v 0 0.346989 0.2055559
v -1.005735 0.3470536 0.2055559
v 1.011237 0.1031717 0.4100314
v 1.012929 0.0001461506 0.4100314
v 0 4.925532E-07 0.4100314
v 0 0.1030451 0.4100314
v -1.011237 0.1031717 0.4100314
v 0 0.1030451 0.4100314
v 0 4.925532E-07 0.4100314
v -1.012929 0.0001461506 0.4100314
v 0 0.346989 -0.2055559
v 0 0.1030451 -0.4100314
v 1.011237 0.1031717 -0.4100314
v 1.005735 0.3470536 -0.2055559
v 1.012929 0.0001461506 0.4100314
v 1.012929 0.0001461506 -0.4100314
v 0 4.925532E-07 -0.4100314
v 0 4.925532E-07 0.4100314
v -1.012929 0.0001461506 0.4100314
v -1.012929 0.0001461506 -0.4100314
v -1.005735 0.3470536 0.2055559
v 0 0.346989 0.2055559
v 0 0.1030451 0.4100314
v -1.011237 0.1031717 0.4100314
v -0.5546532 1.219933 -0.03166696
v -0.5228569 1.122615 -0.03166696
v -0.4493595 1.122615 -0.03166696
v -0.520821 1.283242 -0.03166696
v -0.6326486 1.219933 -0.03166696
v -0.6664806 1.283242 -0.03166696
v -0.6644447 1.122615 -0.03166696
v -0.7379421 1.122615 -0.03166696
v -0.5546532 1.219933 0.03183279
v -0.4493595 1.122615 0.03183279
v -0.5228569 1.122615 0.03183279
v -0.520821 1.283242 0.03183279
v -0.6326486 1.219933 0.03183279
v -0.6664806 1.283242 0.03183279
v -0.6644447 1.122615 0.03183279
v -0.7379421 1.122615 0.03183279
v -0.5228569 1.122615 0.03183279
v -0.4493595 1.122615 0.03183279
v -0.4493595 1.122615 -0.03166696
v -0.5228569 1.122615 -0.03166696
v -0.520821 1.283242 0.03183279
v -0.6664806 1.283242 0.03183279
v -0.6664806 1.283242 -0.03166696
v -0.520821 1.283242 -0.03166696
v -0.6326486 1.219933 0.03183279
v -0.5546532 1.219933 0.03183279
v -0.5546532 1.219933 -0.03166696
v -0.6326486 1.219933 -0.03166696
v -0.6664806 1.283242 0.03183279
v -0.7379421 1.122615 0.03183279
v -0.7379421 1.122615 -0.03166696
v -0.6664806 1.283242 -0.03166696
v -0.4493595 1.122615 0.03183279
v -0.520821 1.283242 0.03183279
v -0.520821 1.283242 -0.03166696
v -0.4493595 1.122615 -0.03166696
v -0.6644447 1.122615 0.03183279
v -0.6326486 1.219933 0.03183279
v -0.6326486 1.219933 -0.03166696
v -0.6644447 1.122615 -0.03166696
v -0.7379421 1.122615 0.03183279
v -0.6644447 1.122615 0.03183279
v -0.6644447 1.122615 -0.03166696
v -0.7379421 1.122615 -0.03166696
v -0.5546532 1.219933 0.03183279
v -0.5228569 1.122615 0.03183279
v -0.5228569 1.122615 -0.03166696
v -0.5546532 1.219933 -0.03166696
v 0.5546532 1.219933 -0.03166696
v 0.4493595 1.122615 -0.03166696
v 0.5228569 1.122615 -0.03166696
v 0.520821 1.283242 -0.03166696
v 0.6326486 1.219933 -0.03166696
v 0.6664806 1.283242 -0.03166696
v 0.6644447 1.122615 -0.03166696
v 0.7379421 1.122615 -0.03166696
v 0.5546532 1.219933 0.0318328
v 0.5228569 1.122615 0.0318328
v 0.4493595 1.122615 0.0318328
v 0.520821 1.283242 0.0318328
v 0.6326486 1.219933 0.0318328
v 0.6664806 1.283242 0.0318328
v 0.6644447 1.122615 0.0318328
v 0.7379421 1.122615 0.0318328
v 0.5228569 1.122615 0.0318328
v 0.5228569 1.122615 -0.03166696
v 0.4493595 1.122615 -0.03166696
v 0.4493595 1.122615 0.0318328
v 0.520821 1.283242 0.0318328
v 0.520821 1.283242 -0.03166696
v 0.6664806 1.283242 -0.03166696
v 0.6664806 1.283242 0.0318328
v 0.6326486 1.219933 0.0318328
v 0.6326486 1.219933 -0.03166696
v 0.5546532 1.219933 -0.03166696
v 0.5546532 1.219933 0.0318328
v 0.6664806 1.283242 0.0318328
v 0.6664806 1.283242 -0.03166696
v 0.7379421 1.122615 -0.03166696
v 0.7379421 1.122615 0.0318328
v 0.4493595 1.122615 0.0318328
v 0.4493595 1.122615 -0.03166696
v 0.520821 1.283242 -0.03166696
v 0.520821 1.283242 0.0318328
v 0.6644447 1.122615 0.0318328
v 0.6644447 1.122615 -0.03166696
v 0.6326486 1.219933 -0.03166696
v 0.6326486 1.219933 0.0318328
v 0.7379421 1.122615 0.0318328
v 0.7379421 1.122615 -0.03166696
v 0.6644447 1.122615 -0.03166696
v 0.6644447 1.122615 0.0318328
v 0.5546532 1.219933 0.0318328
v 0.5546532 1.219933 -0.03166696
v 0.5228569 1.122615 -0.03166696
v 0.5228569 1.122615 0.0318328

vn 0 0 -1
vn 0 0 -1
vn 0 0 -1
vn 0 0 -1
vn 0.0005091096 0.06864249 0.9976412
vn 0.0005091096 0.06864249 0.9976412
vn 0.0005091096 0.06864249 0.9976412
vn 0.0005091096 0.06864249 0.9976412
vn 0.0005091096 0.06864249 -0.9976412
vn 0.0005091096 0.06864249 -0.9976412
vn 0.0005091096 0.06864249 -0.9976412
vn 0.0005091096 0.06864249 -0.9976412
vn 0.01503758 0.999887 0
vn 0.01503758 0.999887 0
vn 0.01503758 0.999887 0
vn 0.01503758 0.999887 0
vn -0.01503758 0.999887 0
vn -0.01503758 0.999887 0
vn 6.088432E-05 0.6424338 -0.7663411
vn 6.088432E-05 0.6424338 -0.7663411
vn 6.088432E-05 0.6424338 -0.7663411
vn 6.088432E-05 0.6424338 -0.7663411
vn 0 0 -1
vn 0 0 -1
vn 0 0 -1
vn 0 0 -1
vn -0.9997455 0.02255772 0
vn -0.9998652 0.01642028 0
vn -0.9998652 0.01642028 0
vn -0.9997455 0.02255772 0
vn -0.9997455 0.02255772 0
vn -0.9997455 0.02255772 0
vn -0.9997273 0.02335035 0
vn -0.9997273 0.02335035 0
vn -0.0005091078 0.0686425 -0.9976412
vn -0.0005091078 0.0686425 -0.9976412
vn -0.0005091078 0.0686425 -0.9976412
vn -0.0005091078 0.0686425 -0.9976412
vn 0.9997273 0.02335035 0
vn 0.9997455 0.02255772 0
vn 0.9997273 0.02335035 0
vn 0.9997455 0.02255772 0
vn 0.9997455 0.02255772 0
vn 0.9997455 0.02255772 0
vn 0.9998652 0.01642028 0
vn 0.9998652 0.01642028 0
vn -6.088432E-05 0.6424338 0.7663411
vn -6.088432E-05 0.6424338 0.7663411
vn -6.088432E-05 0.6424338 0.7663411
vn -6.088432E-05 0.6424338 0.7663411
vn -0.0005091078 0.06864249 0.9976412
vn -0.0005091078 0.06864249 0.9976412
vn -0.0005091078 0.06864249 0.9976412
vn -0.0005091078 0.06864249 0.9976412
vn 0 0 1
vn 0 0 1
vn 0 0 1
vn 0 0 1
vn 0 0 1
vn 0 0 1
vn 0 0 1
vn 0 0 1
vn -6.088432E-05 0.6424338 -0.7663411
vn -6.088432E-05 0.6424338 -0.7663411
vn -6.088432E-05 0.6424338 -0.7663411
vn -6.088432E-05 0.6424338 -0.7663411
vn 0.0001437988 -1 0
vn 0.0001437988 -1 0
vn 0.0001437988 -1 0
vn 0.0001437988 -1 0
vn -0.0001437988 -1 0
vn -0.0001437988 -1 0
vn 6.088432E-05 0.6424338 0.7663411
vn 6.088432E-05 0.6424338 0.7663411
vn 6.088432E-05 0.6424338 0.7663411
vn 6.088432E-05 0.6424338 0.7663411
vn 0 0 -1
vn 0 0 -1
vn 0 0 -1
vn 0 0 -1
vn 0 0 -1
vn 0 0 -1
vn 0 0 -1
vn 0 0 -1
vn 0 0 1
vn 0 0 1
vn 0 0 1
vn 0 0 1
vn 0 0 1
vn 0 0 1
vn 0 0 1
vn 0 0 1
vn 0 -1 0
vn 0 -1 0
vn 0 -1 0
vn 0 -1 0
vn 0 1 0
vn 0 1 0
vn 0 1 0
vn 0 1 0
vn 0 -1 0
vn 0 -1 0
vn 0 -1 0
vn 0 -1 0
vn -0.91366 0.4064792 0
vn -0.91366 0.4064792 0
vn -0.91366 0.4064792 0
vn -0.91366 0.4064792 0
vn 0.9136599 0.4064794 0
vn 0.9136599 0.4064794 0
vn 0.9136599 0.4064794 0
vn 0.9136599 0.4064794 0
vn 0.9505515 -0.3105672 0
vn 0.9505515 -0.3105672 0
vn 0.9505515 -0.3105672 0
vn 0.9505515 -0.3105672 0
vn 0 -1 0
vn 0 -1 0
vn 0 -1 0
vn 0 -1 0
vn -0.9505512 -0.3105683 0
vn -0.9505512 -0.3105683 0
vn -0.9505512 -0.3105683 0
vn -0.9505512 -0.3105683 0
vn 0 0 -1
vn 0 0 -1
vn 0 0 -1
vn 0 0 -1
vn 0 0 -1
vn 0 0 -1
vn 0 0 -1
vn 0 0 -1
vn 0 0 1
vn 0 0 1
vn 0 0 1
vn 0 0 1
vn 0 0 1
vn 0 0 1
vn 0 0 1
vn 0 0 1
vn 0 -1 0
vn 0 -1 0
vn 0 -1 0
vn 0 -1 0
vn 0 1 0
vn 0 1 0
vn 0 1 0
vn 0 1 0
vn 0 -1 0
vn 0 -1 0
vn 0 -1 0
vn 0 -1 0
vn 0.9136599 0.4064792 0
vn 0.9136599 0.4064792 0
vn 0.9136599 0.4064792 0
vn 0.9136599 0.4064792 0
vn -0.9136599 0.4064794 0
vn -0.9136599 0.4064794 0
vn -0.9136599 0.4064794 0
vn -0.9136599 0.4064794 0
vn -0.9505515 -0.3105672 0
vn -0.9505515 -0.3105672 0
vn -0.9505515 -0.3105672 0
vn -0.9505515 -0.3105672 0
vn 0 -1 0
vn 0 -1 0
vn 0 -1 0
vn 0 -1 0
vn 0.9505512 -0.3105683 0
vn 0.9505512 -0.3105683 0
vn 0.9505512 -0.3105683 0
vn 0.9505512 -0.3105683 0

vt 0.4326808 0.6643995
vt 0.4326808 0.6614802
vt 0.3937567 0.6614802
vt 0.3937567 0.6643995
vt 0.3937567 0.7060484
vt 0.3937567 0.6738948
vt 0.4326808 0.6738948
vt 0.4326808 0.7060484
vt 0.4326808 0.7060484
vt 0.4326808 0.6738948
vt 0.3937567 0.6738948
vt 0.3937567 0.7060484
vt 0.3937567 0.7060484
vt 0.4326808 0.7060484
vt 0.3937567 0.7060484
vt 0.4326808 0.7060484
vt 0.3937567 0.7060484
vt 0.3937567 0.7060484
vt 0.4326808 0.6738948
vt 0.3937567 0.6738948
vt 0.3937567 0.6643995
vt 0.4326808 0.6643995
vt 0.4326808 0.6643995
vt 0.3937567 0.6643995
vt 0.3937567 0.6614802
vt 0.4326808 0.6614802
vt 0.3937567 0.6643995
vt 0.3937567 0.6614802
vt 0.3937567 0.6614802
vt 0.3937567 0.6643995
vt 0.3937567 0.6738948
vt 0.3937567 0.6738948
vt 0.3937567 0.7060484
vt 0.3937567 0.7060484
vt 0.4326808 0.7060484
vt 0.3937567 0.7060484
vt 0.3937567 0.6738948
vt 0.4326808 0.6738948
vt 0.3937567 0.7060484
vt 0.3937567 0.6738948
vt 0.3937567 0.7060484
vt 0.3937567 0.6738948
vt 0.3937567 0.6643995
vt 0.3937567 0.6643995
vt 0.3937567 0.6614802
vt 0.3937567 0.6614802
vt 0.3937567 0.6738948
vt 0.3937567 0.6643995
vt 0.4326808 0.6643995
vt 0.4326808 0.6738948
vt 0.3937567 0.7060484
vt 0.4326808 0.7060484
vt 0.4326808 0.6738948
vt 0.3937567 0.6738948
vt 0.3937567 0.6643995
vt 0.3937567 0.6614802
vt 0.4326808 0.6614802
vt 0.4326808 0.6643995
vt 0.3937567 0.6643995
vt 0.4326808 0.6643995
vt 0.4326808 0.6614802
vt 0.3937567 0.6614802
vt 0.4326808 0.6738948
vt 0.4326808 0.6643995
vt 0.3937567 0.6643995
vt 0.3937567 0.6738948
vt 0.3937567 0.6614802
vt 0.3937567 0.6614802
vt 0.4326808 0.6614802
vt 0.4326808 0.6614802
vt 0.3937567 0.6614802
vt 0.3937567 0.6614802
vt 0.3937567 0.6738948
vt 0.4326808 0.6738948
vt 0.4326808 0.6643995
vt 0.3937567 0.6643995
vt 0.3205174 0.6743419
vt 0.3222529 0.6690307
vt 0.3262632 0.6690307
vt 0.3223633 0.677797
vt 0.3146995 0.6743419
vt 0.3128536 0.677797
vt 0.312964 0.6690307
vt 0.3089536 0.6690307
vt 0.3205174 0.6743419
vt 0.3262632 0.6690307
vt 0.3222529 0.6690307
vt 0.3223633 0.677797
vt 0.3146995 0.6743419
vt 0.3128536 0.677797
vt 0.312964 0.6690307
vt 0.3089536 0.6690307
vt 0.3222529 0.6690307
vt 0.3262632 0.6690307
vt 0.3262632 0.6690307
vt 0.3222529 0.6690307
vt 0.3223633 0.677797
vt 0.3128536 0.677797
vt 0.3128536 0.677797
vt 0.3223633 0.677797
vt 0.3146995 0.6743419
vt 0.3205174 0.6743419
vt 0.3205174 0.6743419
vt 0.3146995 0.6743419
vt 0.3128536 0.677797
vt 0.3089536 0.6690307
vt 0.3089536 0.6690307
vt 0.3128536 0.677797
vt 0.3262632 0.6690307
vt 0.3223633 0.677797
vt 0.3223633 0.677797
vt 0.3262632 0.6690307
vt 0.312964 0.6690307
vt 0.3146995 0.6743419
vt 0.3146995 0.6743419
vt 0.312964 0.6690307
vt 0.3089536 0.6690307
vt 0.312964 0.6690307
vt 0.312964 0.6690307
vt 0.3089536 0.6690307
vt 0.3205174 0.6743419
vt 0.3222529 0.6690307
vt 0.3222529 0.6690307
vt 0.3205174 0.6743419
vt 0.3205174 0.6743419
vt 0.3262632 0.6690307
vt 0.3222529 0.6690307
vt 0.3223633 0.677797
vt 0.3146995 0.6743419
vt 0.3128536 0.677797
vt 0.312964 0.6690307
vt 0.3089536 0.6690307
vt 0.3205174 0.6743419
vt 0.3222529 0.6690307
vt 0.3262632 0.6690307
vt 0.3223633 0.677797
vt 0.3146995 0.6743419
vt 0.3128536 0.677797
vt 0.312964 0.6690307
vt 0.3089536 0.6690307
vt 0.3222529 0.6690307
vt 0.3222529 0.6690307
vt 0.3262632 0.6690307
vt 0.3262632 0.6690307
vt 0.3223633 0.677797
vt 0.3223633 0.677797
vt 0.3128536 0.677797
vt 0.3128536 0.677797
vt 0.3146995 0.6743419
vt 0.3146995 0.6743419
vt 0.3205174 0.6743419
vt 0.3205174 0.6743419
vt 0.3128536 0.677797
vt 0.3128536 0.677797
vt 0.3089536 0.6690307
vt 0.3089536 0.6690307
vt 0.3262632 0.6690307
vt 0.3262632 0.6690307
vt 0.3223633 0.677797
vt 0.3223633 0.677797
vt 0.312964 0.6690307
vt 0.312964 0.6690307
vt 0.3146995 0.6743419
vt 0.3146995 0.6743419
vt 0.3089536 0.6690307
vt 0.3089536 0.6690307
vt 0.312964 0.6690307
vt 0.312964 0.6690307
vt 0.3205174 0.6743419
vt 0.3205174 0.6743419
vt 0.3222529 0.6690307
vt 0.3222529 0.6690307

usemtl LOW-POLY-COLORS
usemap LOW-POLY-COLORS
f 2/2/2 1/1/1 3/3/3
f 3/3/3 1/1/1 4/4/4
f 6/6/6 5/5/5 7/7/7
f 7/7/7 5/5/5 8/8/8
f 10/10/10 9/9/9 11/11/11
f 11/11/11 9/9/9 12/12/12
f 14/14/14 13/13/13 15/15/15
f 16/16/16 13/13/13 14/14/14
f 14/14/14 17/17/17 16/16/16
f 18/18/18 17/17/17 14/14/14
f 20/20/20 19/19/19 21/21/21
f 21/21/21 19/19/19 22/22/22
f 24/24/24 23/23/23 25/25/25
f 25/25/25 23/23/23 26/26/26
f 28/28/28 27/27/27 29/29/29
f 30/30/30 27/27/27 28/28/28
f 30/30/30 31/31/31 27/27/27
f 32/32/32 31/31/31 30/30/30
f 32/32/32 33/33/33 31/31/31
f 34/34/34 33/33/33 32/32/32
f 36/36/36 35/35/35 37/37/37
f 37/37/37 35/35/35 38/38/38
f 40/40/40 39/39/39 41/41/41
f 42/42/42 39/39/39 40/40/40
f 43/43/43 42/42/42 40/40/40
f 44/44/44 42/42/42 43/43/43
f 45/45/45 44/44/44 43/43/43
f 46/46/46 44/44/44 45/45/45
f 48/48/48 47/47/47 49/49/49
f 49/49/49 47/47/47 50/50/50
f 52/52/52 51/51/51 53/53/53
f 53/53/53 51/51/51 54/54/54
f 56/56/56 55/55/55 57/57/57
f 57/57/57 55/55/55 58/58/58
f 60/60/60 59/59/59 61/61/61
f 61/61/61 59/59/59 62/62/62
f 64/64/64 63/63/63 65/65/65
f 65/65/65 63/63/63 66/66/66
f 68/68/68 67/67/67 69/69/69
f 69/69/69 67/67/67 70/70/70
f 70/70/70 71/71/71 69/69/69
f 69/69/69 71/71/71 72/72/72
f 74/74/74 73/73/73 75/75/75
f 75/75/75 73/73/73 76/76/76
f 78/78/78 77/77/77 79/79/79
f 79/79/79 77/77/77 80/80/80
f 77/77/77 81/81/81 80/80/80
f 80/80/80 81/81/81 82/82/82
f 81/81/81 83/83/83 82/82/82
f 82/82/82 83/83/83 84/84/84
f 86/86/86 85/85/85 87/87/87
f 88/88/88 85/85/85 86/86/86
f 88/88/88 89/89/89 85/85/85
f 90/90/90 89/89/89 88/88/88
f 90/90/90 91/91/91 89/89/89
f 92/92/92 91/91/91 90/90/90
f 94/94/94 93/93/93 95/95/95
f 95/95/95 93/93/93 96/96/96
f 98/98/98 97/97/97 99/99/99
f 99/99/99 97/97/97 100/100/100
f 102/102/102 101/101/101 103/103/103
f 103/103/103 101/101/101 104/104/104
f 106/106/106 105/105/105 107/107/107
f 107/107/107 105/105/105 108/108/108
f 110/110/110 109/109/109 111/111/111
f 111/111/111 109/109/109 112/112/112
f 114/114/114 113/113/113 115/115/115
f 115/115/115 113/113/113 116/116/116
f 118/118/118 117/117/117 119/119/119
f 119/119/119 117/117/117 120/120/120
f 122/122/122 121/121/121 123/123/123
f 123/123/123 121/121/121 124/124/124
f 126/126/126 125/125/125 127/127/127
f 128/128/128 125/125/125 126/126/126
f 128/128/128 129/129/129 125/125/125
f 130/130/130 129/129/129 128/128/128
f 130/130/130 131/131/131 129/129/129
f 132/132/132 131/131/131 130/130/130
f 134/134/134 133/133/133 135/135/135
f 135/135/135 133/133/133 136/136/136
f 133/133/133 137/137/137 136/136/136
f 136/136/136 137/137/137 138/138/138
f 137/137/137 139/139/139 138/138/138
f 138/138/138 139/139/139 140/140/140
f 142/142/142 141/141/141 143/143/143
f 143/143/143 141/141/141 144/144/144
f 146/146/146 145/145/145 147/147/147
f 147/147/147 145/145/145 148/148/148
f 150/150/150 149/149/149 151/151/151
f 151/151/151 149/149/149 152/152/152
f 154/154/154 153/153/153 155/155/155
f 155/155/155 153/153/153 156/156/156
f 158/158/158 157/157/157 159/159/159
f 159/159/159 157/157/157 160/160/160
f 162/162/162 161/161/161 163/163/163
f 163/163/163 161/161/161 164/164/164
f 166/166/166 165/165/165 167/167/167
f 167/167/167 165/165/165 168/168/168
f 170/170/170 169/169/169 171/171/171
f 171/171/171 169/169/169 172/172/172
