mtllib ./body-bag_11.mtl
g body-bag
v -0.3781319 0.1176407 -0.4231889
v -0.3505439 0.1176407 -0.9898922
v -0.2415046 0.2426407 -0.9276047
v -0.2415046 0.2426407 -0.439771
v 0.008495417 0.1356294 -1.008611
v 0.3569147 0.1176407 -0.9898922
v 0.2584955 0.2426407 -0.9276047
v 0.008495417 0.2786182 -0.9276047
v 0.356835 0.1176407 0.7121534
v 0.3298075 0.1176407 1.051382
v 0.2584955 0.2426407 1.072395
v 0.2584955 0.2426407 0.7332191
v 0.008495417 0.1559437 1.073224
v -0.3507194 0.1176407 1.057932
v -0.2415046 0.2426407 1.072395
v 0.008495417 0.3192467 1.031944
v 0.008495417 -0.05296049 0.815199
v 0.008495417 -0.007359345 1.239281
v 0.4475379 -0.007359345 1.152527
v 0.4551746 -0.007359345 0.7725825
v 0.008495417 0.3562207 0.7133481
v 0.008495417 0.3192467 1.031944
v -0.2415046 0.2426407 1.072395
v -0.2415046 0.2426407 0.7332191
v 0.2584955 0.2426407 0.7332191
v 0.2584955 0.2426407 1.072395
v 0.008495417 0.3192467 1.031944
v 0.008495417 0.3562207 0.7133481
v -0.4406502 -0.007359345 0.7794035
v -0.5063527 -0.007359345 1.166412
v 0.008495417 -0.007359345 1.239281
v 0.008495417 -0.05296049 0.815199
v 0.3298075 0.1176407 1.051382
v 0.008495417 0.1559437 1.073224
v 0.008495417 0.3192467 1.031944
v 0.2584955 0.2426407 1.072395
v -0.3505439 0.1176407 -0.9898922
v 0.008495417 0.1356294 -1.008611
v 0.008495417 0.2786182 -0.9276047
v -0.2415046 0.2426407 -0.9276047
v -0.4962156 -0.007359345 -1.174713
v -0.5147591 -0.01496162 -0.439771
v 0.008495417 -0.01496162 -0.439771
v 0.008495417 -0.007359345 -1.214394
v 0.5133631 -0.01496162 -0.439771
v 0.4919663 -0.007359345 -1.174713
v 0.008495417 -0.01496162 -0.439771
v 0.4842689 -0.01116048 0.1664058
v 0.008495417 -0.03396105 0.1877141
v -0.5147591 -0.01496162 -0.439771
v -0.4777046 -0.01116048 0.1698163
v -0.4777046 -0.01116048 0.1698163
v -0.4406502 -0.007359345 0.7794035
v 0.008495417 -0.05296049 0.815199
v 0.008495417 -0.03396105 0.1877141
v 0.2584955 0.2426407 -0.9276047
v 0.2584955 0.2426407 -0.439771
v 0.008495417 0.314585 -0.439771
v 0.008495417 0.2786182 -0.9276047
v 0.2137666 0.2426407 0.1467241
v 0.2584955 0.2426407 0.7332191
v 0.008495417 0.3562207 0.7133481
v 0.008495417 0.3354029 0.1367886
v 0.008495417 0.2786182 -0.9276047
v 0.008495417 0.314585 -0.439771
v -0.2415046 0.2426407 -0.439771
v -0.2415046 0.2426407 -0.9276047
v 0.008495417 0.3354029 0.1367886
v 0.008495417 0.3562207 0.7133481
v -0.2415046 0.2426407 0.7332191
v -0.1976989 0.2426407 0.146724
v 0.008495417 -0.03396105 0.1877141
v 0.008495417 -0.05296049 0.815199
v 0.4551746 -0.007359345 0.7725825
v 0.4842689 -0.01116048 0.1664058
v 0.3569147 0.1176407 -0.9898922
v 0.3859293 0.1176407 -0.4231889
v 0.2584955 0.2426407 -0.439771
v 0.2584955 0.2426407 -0.9276047
v 0.3066645 0.1176407 0.1444823
v 0.356835 0.1176407 0.7121534
v 0.2584955 0.2426407 0.7332191
v 0.2137666 0.2426407 0.1467241
v -0.3507194 0.1176407 1.057932
v -0.3410774 0.1176407 0.7153711
v -0.2415046 0.2426407 0.7332191
v -0.2415046 0.2426407 1.072395
v -0.294887 0.1176407 0.1460911
v -0.3781319 0.1176407 -0.4231889
v -0.2415046 0.2426407 -0.439771
v -0.1976989 0.2426407 0.146724
v -0.4777046 -0.01116048 0.1698163
v -0.5147591 -0.01496162 -0.439771
v -0.3781319 0.1176407 -0.4231889
v -0.294887 0.1176407 0.1460911
v -0.5063527 -0.007359345 1.166412
v -0.4406502 -0.007359345 0.7794035
v -0.3410774 0.1176407 0.7153711
v -0.3507194 0.1176407 1.057932
v 0.4842689 -0.01116048 0.1664058
v 0.4551746 -0.007359345 0.7725825
v 0.356835 0.1176407 0.7121534
v 0.3066645 0.1176407 0.1444823
v 0.4919663 -0.007359345 -1.174713
v 0.5133631 -0.01496162 -0.439771
v 0.3859293 0.1176407 -0.4231889
v 0.3569147 0.1176407 -0.9898922
v -0.4962156 -0.007359345 -1.174713
v 0.008495417 -0.007359345 -1.214394
v 0.008495417 0.1356294 -1.008611
v -0.3505439 0.1176407 -0.9898922
v 0.4475379 -0.007359345 1.152527
v 0.008495417 -0.007359345 1.239281
v 0.008495417 0.1559437 1.073224
v 0.3298075 0.1176407 1.051382
v 0.008495417 -0.007359345 1.239281
v -0.5063527 -0.007359345 1.166412
v -0.3507194 0.1176407 1.057932
v 0.008495417 0.1559437 1.073224
v 0.4551746 -0.007359345 0.7725825
v 0.4475379 -0.007359345 1.152527
v 0.3298075 0.1176407 1.051382
v 0.356835 0.1176407 0.7121534
v 0.008495417 -0.007359345 -1.214394
v 0.4919663 -0.007359345 -1.174713
v 0.3569147 0.1176407 -0.9898922
v 0.008495417 0.1356294 -1.008611
v -0.5147591 -0.01496162 -0.439771
v -0.4962156 -0.007359345 -1.174713
v -0.3505439 0.1176407 -0.9898922
v -0.3781319 0.1176407 -0.4231889
v 0.5133631 -0.01496162 -0.439771
v 0.4842689 -0.01116048 0.1664058
v 0.3066645 0.1176407 0.1444823
v 0.3859293 0.1176407 -0.4231889
v -0.4406502 -0.007359345 0.7794035
v -0.4777046 -0.01116048 0.1698163
v -0.294887 0.1176407 0.1460911
v -0.3410774 0.1176407 0.7153711
v -0.3410774 0.1176407 0.7153711
v -0.294887 0.1176407 0.1460911
v -0.1976989 0.2426407 0.146724
v -0.2415046 0.2426407 0.7332191
v 0.3859293 0.1176407 -0.4231889
v 0.3066645 0.1176407 0.1444823
v 0.2137666 0.2426407 0.1467241
v 0.2584955 0.2426407 -0.439771
v 0.008495417 0.314585 -0.439771
v 0.008495417 0.3354029 0.1367886
v -0.1976989 0.2426407 0.146724
v -0.2415046 0.2426407 -0.439771
v 0.2584955 0.2426407 -0.439771
v 0.2137666 0.2426407 0.1467241
v 0.008495417 0.3354029 0.1367886
v 0.008495417 0.314585 -0.439771

vn -0.7114349 0.7025055 -0.01861198
vn -0.7114349 0.7025055 -0.01861198
vn -0.7114349 0.7025055 -0.01861198
vn -0.7114349 0.7025055 -0.01861198
vn 0.07140718 0.4905891 -0.8684604
vn 0.07140718 0.4905891 -0.8684604
vn 0.07140718 0.4905891 -0.8684604
vn 0.07140718 0.4905891 -0.8684604
vn 0.8295864 0.5573994 0.03305067
vn 0.8295864 0.5573994 0.03305067
vn 0.8295864 0.5573994 0.03305067
vn 0.8295864 0.5573994 0.03305067
vn 0.02548459 0.08300962 0.9962229
vn 0.02548459 0.08300962 0.9962229
vn 0.02548459 0.08300962 0.9962229
vn 0.02548459 0.08300962 0.9962229
vn 0.05964747 -0.9965857 0.05708889
vn 0.05964747 -0.9965857 0.05708889
vn 0.05964747 -0.9965857 0.05708889
vn 0.05964747 -0.9965857 0.05708889
vn -0.3494815 0.9354666 0.05258347
vn -0.3494815 0.9354666 0.05258347
vn -0.3494815 0.9354666 0.05258347
vn -0.3494815 0.9354666 0.05258347
vn 0.3494815 0.9354666 0.05258347
vn 0.3494815 0.9354666 0.05258347
vn 0.3494815 0.9354666 0.05258347
vn 0.3494815 0.9354666 0.05258347
vn -0.05301038 -0.9972509 0.05177333
vn -0.05301038 -0.9972509 0.05177333
vn -0.05301038 -0.9972509 0.05177333
vn -0.05301038 -0.9972509 0.05177333
vn -0.01935377 0.06534492 0.997675
vn -0.01935377 0.06534492 0.997675
vn -0.01935377 0.06534492 0.997675
vn -0.01935377 0.06534492 0.997675
vn -0.07029741 0.4924526 -0.8674957
vn -0.07029741 0.4924526 -0.8674957
vn -0.07029741 0.4924526 -0.8674957
vn -0.07029741 0.4924526 -0.8674957
vn -0.0003889604 -0.9999492 -0.01007641
vn -0.0003889604 -0.9999492 -0.01007641
vn -0.0003889604 -0.9999492 -0.01007641
vn -0.0003889604 -0.9999492 -0.01007641
vn 0.000404594 -0.9999492 -0.01007736
vn 0.000404594 -0.9999492 -0.01007736
vn 0.0229871 -0.9996665 -0.01177342
vn 0.0229871 -0.9996665 -0.01177342
vn 0.0229871 -0.9996665 -0.01177342
vn -0.02237396 -0.9996822 -0.01161161
vn -0.02237396 -0.9996822 -0.01161161
vn -0.07235549 -0.9973279 -0.01008559
vn -0.07235549 -0.9973279 -0.01008559
vn -0.07235549 -0.9973279 -0.01008559
vn -0.07235549 -0.9973279 -0.01008559
vn 0.210848 0.9768554 -0.03601057
vn 0.210848 0.9768554 -0.03601057
vn 0.210848 0.9768554 -0.03601057
vn 0.210848 0.9768554 -0.03601057
vn 0.4143437 0.9095501 -0.0322152
vn 0.4143437 0.9095501 -0.0322152
vn 0.4143437 0.9095501 -0.0322152
vn 0.4143437 0.9095501 -0.0322152
vn -0.210848 0.9768554 -0.03601058
vn -0.210848 0.9768554 -0.03601058
vn -0.210848 0.9768554 -0.03601058
vn -0.210848 0.9768554 -0.03601058
vn -0.4136342 0.9098853 -0.0318656
vn -0.4136342 0.9098853 -0.0318656
vn -0.4136342 0.9098853 -0.0318656
vn -0.4136342 0.9098853 -0.0318656
vn 0.07321708 -0.9972601 -0.01055919
vn 0.07321708 -0.9972601 -0.01055919
vn 0.07321708 -0.9972601 -0.01055919
vn 0.07321708 -0.9972601 -0.01055919
vn 0.7400256 0.6722704 -0.02036114
vn 0.7400256 0.6722704 -0.02036114
vn 0.7400256 0.6722704 -0.02036114
vn 0.7400256 0.6722704 -0.02036114
vn 0.789658 0.610102 -0.06492832
vn 0.789658 0.610102 -0.06492832
vn 0.789658 0.610102 -0.06492832
vn 0.789658 0.610102 -0.06492832
vn -0.7667999 0.6417946 -0.010845
vn -0.7667999 0.6417946 -0.010845
vn -0.7667999 0.6417946 -0.010845
vn -0.7667999 0.6417946 -0.010845
vn -0.7254831 0.6836039 0.07975001
vn -0.7254831 0.6836039 0.07975001
vn -0.7254831 0.6836039 0.07975001
vn -0.7254831 0.6836039 0.07975001
vn -0.63125 0.7731034 0.06192407
vn -0.63125 0.7731034 0.06192407
vn -0.63125 0.7731034 0.06192407
vn -0.63125 0.7731034 0.06192407
vn -0.7231335 0.6866592 -0.07467978
vn -0.7231335 0.6866592 -0.07467978
vn -0.7231335 0.6866592 -0.07467978
vn -0.7231335 0.6866592 -0.07467978
vn 0.6792399 0.7337716 -0.01457174
vn 0.6792399 0.7337716 -0.01457174
vn 0.6792399 0.7337716 -0.01457174
vn 0.6792399 0.7337716 -0.01457174
vn 0.6913881 0.7221313 -0.02255913
vn 0.6913881 0.7221313 -0.02255913
vn 0.6913881 0.7221313 -0.02255913
vn 0.6913881 0.7221313 -0.02255913
vn -0.05459444 0.8327369 -0.5509706
vn -0.05459444 0.8327369 -0.5509706
vn -0.05459444 0.8327369 -0.5509706
vn -0.05459444 0.8327369 -0.5509706
vn 0.1351694 0.7026481 0.6985807
vn 0.1351694 0.7026481 0.6985807
vn 0.1351694 0.7026481 0.6985807
vn 0.1351694 0.7026481 0.6985807
vn -0.1011565 0.7141648 0.6926298
vn -0.1011565 0.7141648 0.6926298
vn -0.1011565 0.7141648 0.6926298
vn -0.1011565 0.7141648 0.6926298
vn 0.7445042 0.6666527 0.0358853
vn 0.7445042 0.6666527 0.0358853
vn 0.7445042 0.6666527 0.0358853
vn 0.7445042 0.6666527 0.0358853
vn 0.05670749 0.8322968 -0.5514221
vn 0.05670749 0.8322968 -0.5514221
vn 0.05670749 0.8322968 -0.5514221
vn 0.05670749 0.8322968 -0.5514221
vn -0.6663978 0.7453475 -0.01926455
vn -0.6663978 0.7453475 -0.01926455
vn -0.6663978 0.7453475 -0.01926455
vn -0.6663978 0.7453475 -0.01926455
vn 0.6490532 0.7585701 0.05745825
vn 0.6490532 0.7585701 0.05745825
vn 0.6490532 0.7585701 0.05745825
vn 0.6490532 0.7585701 0.05745825
vn -0.6697386 0.7425582 -0.007584646
vn -0.6697386 0.7425582 -0.007584646
vn -0.6697386 0.7425582 -0.007584646
vn -0.6697386 0.7425582 -0.007584646
vn -0.7821589 0.6200954 -0.060904
vn -0.7821589 0.6200954 -0.060904
vn -0.7821589 0.6200954 -0.060904
vn -0.7821589 0.6200954 -0.060904
vn 0.7455262 0.6616462 0.0800929
vn 0.7455262 0.6616462 0.0800929
vn 0.7455262 0.6616462 0.0800929
vn 0.7455262 0.6616462 0.0800929
vn -0.3396642 0.940538 -0.004041707
vn -0.3396642 0.940538 -0.004041707
vn -0.3396642 0.940538 -0.004041707
vn -0.3396642 0.940538 -0.004041707
vn 0.3402678 0.9403211 -0.003745022
vn 0.3402678 0.9403211 -0.003745022
vn 0.3402678 0.9403211 -0.003745022
vn 0.3402678 0.9403211 -0.003745022

vt 0.08170835 0.6795571
vt 0.1003004 0.6777
vt 0.09686748 0.6728883
vt 0.08203671 0.6734167
vt 0.1020612 0.6657426
vt 0.1011922 0.6539531
vt 0.09737333 0.6582697
vt 0.09668457 0.6655594
vt 0.04341433 0.6512144
vt 0.03164534 0.6539597
vt 0.0338927 0.6583372
vt 0.04328202 0.6563815
vt 0.02982707 0.6645177
vt 0.030592 0.6765916
vt 0.0333238 0.6714188
vt 0.03524423 0.664786
vt 0.03834467 0.7015663
vt 0.02264155 0.7015267
vt 0.02573077 0.7174436
vt 0.03949746 0.7179053
vt 0.04432642 0.6649432
vt 0.03524423 0.664786
vt 0.0333238 0.6714188
vt 0.04306483 0.6735972
vt 0.04328202 0.6563815
vt 0.0338927 0.6583372
vt 0.03524423 0.664786
vt 0.04432642 0.6649432
vt 0.03996169 0.6844981
vt 0.02509592 0.682547
vt 0.02264155 0.7015267
vt 0.03834467 0.7015663
vt 0.03164534 0.6539597
vt 0.02982707 0.6645177
vt 0.03524423 0.664786
vt 0.0338927 0.6583372
vt 0.1003004 0.6777
vt 0.1020612 0.6657426
vt 0.09668457 0.6655594
vt 0.09686748 0.6728883
vt 0.1073433 0.6840097
vt 0.08251708 0.6855928
vt 0.08265702 0.703045
vt 0.1096964 0.7018546
vt 0.08280968 0.7206829
vt 0.1089414 0.7191064
vt 0.08265702 0.703045
vt 0.061145 0.7194632
vt 0.06071911 0.7024937
vt 0.08251708 0.6855928
vt 0.06206528 0.6856987
vt 0.06206528 0.6856987
vt 0.03996169 0.6844981
vt 0.03834467 0.7015663
vt 0.06071911 0.7024937
vt 0.09737333 0.6582697
vt 0.08241368 0.6566241
vt 0.08192959 0.6650699
vt 0.09668457 0.6655594
vt 0.06264781 0.6572191
vt 0.04328202 0.6563815
vt 0.04432642 0.6649432
vt 0.06288827 0.6649364
vt 0.09668457 0.6655594
vt 0.08192959 0.6650699
vt 0.08203671 0.6734167
vt 0.09686748 0.6728883
vt 0.06288827 0.6649364
vt 0.04432642 0.6649432
vt 0.04306483 0.6735972
vt 0.06263252 0.6726493
vt 0.06071911 0.7024937
vt 0.03834467 0.7015663
vt 0.03949746 0.7179053
vt 0.061145 0.7194632
vt 0.1011922 0.6539531
vt 0.08233494 0.6504461
vt 0.08241368 0.6566241
vt 0.09737333 0.6582697
vt 0.06272491 0.6519147
vt 0.04341433 0.6512144
vt 0.04328202 0.6563815
vt 0.06264781 0.6572191
vt 0.030592 0.6765916
vt 0.04301397 0.6789628
vt 0.04306483 0.6735972
vt 0.0333238 0.6714188
vt 0.0626914 0.6780019
vt 0.08170835 0.6795571
vt 0.08203671 0.6734167
vt 0.06263252 0.6726493
vt 0.06206528 0.6856987
vt 0.08251708 0.6855928
vt 0.08170835 0.6795571
vt 0.0626914 0.6780019
vt 0.02509592 0.682547
vt 0.03996169 0.6844981
vt 0.04301397 0.6789628
vt 0.030592 0.6765916
vt 0.06198698 0.6442528
vt 0.04073949 0.6459921
vt 0.04341433 0.6512144
vt 0.06272491 0.6519147
vt 0.1087461 0.6487042
vt 0.08342435 0.6442527
vt 0.08233494 0.6504461
vt 0.1011922 0.6539531
vt 0.1073433 0.6840097
vt 0.1106017 0.6660545
vt 0.1020612 0.6657426
vt 0.1003004 0.6777
vt 0.02682798 0.6485866
vt 0.02221089 0.6641318
vt 0.02982707 0.6645177
vt 0.03164534 0.6539597
vt 0.02221089 0.6641318
vt 0.02509592 0.682547
vt 0.030592 0.6765916
vt 0.02982707 0.6645177
vt 0.04073949 0.6459921
vt 0.02682798 0.6485866
vt 0.03164534 0.6539597
vt 0.04341433 0.6512144
vt 0.1106017 0.6660545
vt 0.1087461 0.6487042
vt 0.1011922 0.6539531
vt 0.1020612 0.6657426
vt 0.08251708 0.6855928
vt 0.1073433 0.6840097
vt 0.1003004 0.6777
vt 0.08170835 0.6795571
vt 0.08342435 0.6442527
vt 0.06198698 0.6442528
vt 0.06272491 0.6519147
vt 0.08233494 0.6504461
vt 0.03996169 0.6844981
vt 0.06206528 0.6856987
vt 0.0626914 0.6780019
vt 0.04301397 0.6789628
vt 0.04301397 0.6789628
vt 0.0626914 0.6780019
vt 0.06263252 0.6726493
vt 0.04306483 0.6735972
vt 0.08233494 0.6504461
vt 0.06272491 0.6519147
vt 0.06264781 0.6572191
vt 0.08241368 0.6566241
vt 0.08192959 0.6650699
vt 0.06288827 0.6649364
vt 0.06263252 0.6726493
vt 0.08203671 0.6734167
vt 0.08241368 0.6566241
vt 0.06264781 0.6572191
vt 0.06288827 0.6649364
vt 0.08192959 0.6650699

usemtl LOW-POLY-COLORS
usemap LOW-POLY-COLORS
f 2/2/2 1/1/1 3/3/3
f 3/3/3 1/1/1 4/4/4
f 6/6/6 5/5/5 7/7/7
f 7/7/7 5/5/5 8/8/8
f 10/10/10 9/9/9 11/11/11
f 11/11/11 9/9/9 12/12/12
f 14/14/14 13/13/13 15/15/15
f 15/15/15 13/13/13 16/16/16
f 18/18/18 17/17/17 19/19/19
f 19/19/19 17/17/17 20/20/20
f 22/22/22 21/21/21 23/23/23
f 23/23/23 21/21/21 24/24/24
f 26/26/26 25/25/25 27/27/27
f 27/27/27 25/25/25 28/28/28
f 30/30/30 29/29/29 31/31/31
f 31/31/31 29/29/29 32/32/32
f 34/34/34 33/33/33 35/35/35
f 35/35/35 33/33/33 36/36/36
f 38/38/38 37/37/37 39/39/39
f 39/39/39 37/37/37 40/40/40
f 42/42/42 41/41/41 43/43/43
f 43/43/43 41/41/41 44/44/44
f 43/43/43 44/44/44 45/45/45
f 45/45/45 44/44/44 46/46/46
f 48/48/48 47/47/47 45/45/45
f 49/49/49 47/47/47 48/48/48
f 49/49/49 50/50/50 47/47/47
f 51/51/51 50/50/50 49/49/49
f 53/53/53 52/52/52 54/54/54
f 54/54/54 52/52/52 55/55/55
f 57/57/57 56/56/56 58/58/58
f 58/58/58 56/56/56 59/59/59
f 61/61/61 60/60/60 62/62/62
f 62/62/62 60/60/60 63/63/63
f 65/65/65 64/64/64 66/66/66
f 66/66/66 64/64/64 67/67/67
f 69/69/69 68/68/68 70/70/70
f 70/70/70 68/68/68 71/71/71
f 73/73/73 72/72/72 74/74/74
f 74/74/74 72/72/72 75/75/75
f 77/77/77 76/76/76 78/78/78
f 78/78/78 76/76/76 79/79/79
f 81/81/81 80/80/80 82/82/82
f 82/82/82 80/80/80 83/83/83
f 85/85/85 84/84/84 86/86/86
f 86/86/86 84/84/84 87/87/87
f 89/89/89 88/88/88 90/90/90
f 90/90/90 88/88/88 91/91/91
f 93/93/93 92/92/92 94/94/94
f 94/94/94 92/92/92 95/95/95
f 97/97/97 96/96/96 98/98/98
f 98/98/98 96/96/96 99/99/99
f 101/101/101 100/100/100 102/102/102
f 102/102/102 100/100/100 103/103/103
f 105/105/105 104/104/104 106/106/106
f 106/106/106 104/104/104 107/107/107
f 109/109/109 108/108/108 110/110/110
f 110/110/110 108/108/108 111/111/111
f 113/113/113 112/112/112 114/114/114
f 114/114/114 112/112/112 115/115/115
f 117/117/117 116/116/116 118/118/118
f 118/118/118 116/116/116 119/119/119
f 121/121/121 120/120/120 122/122/122
f 122/122/122 120/120/120 123/123/123
f 125/125/125 124/124/124 126/126/126
f 126/126/126 124/124/124 127/127/127
f 129/129/129 128/128/128 130/130/130
f 130/130/130 128/128/128 131/131/131
f 133/133/133 132/132/132 134/134/134
f 134/134/134 132/132/132 135/135/135
f 137/137/137 136/136/136 138/138/138
f 138/138/138 136/136/136 139/139/139
f 141/141/141 140/140/140 142/142/142
f 142/142/142 140/140/140 143/143/143
f 145/145/145 144/144/144 146/146/146
f 146/146/146 144/144/144 147/147/147
f 149/149/149 148/148/148 150/150/150
f 150/150/150 148/148/148 151/151/151
f 153/153/153 152/152/152 154/154/154
f 154/154/154 152/152/152 155/155/155
