mtllib ./tire_7.mtl
g tire
v 0.3259899 0.1270873 0.0574807
v 0.4763525 0.09163303 0.08399365
v 0.3110069 0.09163292 0.3703809
v 0.2125639 0.1270872 0.2539403
v 0.2125639 0.1270872 0.2539403
v 0.3110069 0.09163292 0.3703809
v 0.0002583202 0.09163295 0.4834842
v -0.0006073274 0.1270872 0.3315283
v -0.0006073274 0.1270872 0.3315283
v 0.0002583202 0.09163295 0.4834842
v -0.3104901 0.09163304 0.370381
v -0.2137784 0.1270873 0.2539404
v -0.2137784 0.1270873 0.2539404
v -0.3104901 0.09163304 0.370381
v -0.4758358 0.09163316 0.08399371
v -0.3272043 0.1270874 0.05748073
v -0.3272043 0.1270874 0.05748073
v -0.4758358 0.09163316 0.08399371
v -0.4184119 0.09163329 -0.2416738
v -0.2878118 0.1270875 -0.1659246
v -0.2878118 0.1270875 -0.1659246
v -0.4184119 0.09163329 -0.2416738
v -0.1650874 0.09163336 -0.4542381
v -0.1140332 0.1270875 -0.3117424
v -0.1140332 0.1270875 -0.3117424
v -0.1650874 0.09163336 -0.4542381
v 0.1656039 0.0916333 -0.4542381
v 0.1128186 0.1270875 -0.3117423
v 0.1128186 0.1270875 -0.3117423
v 0.1656039 0.0916333 -0.4542381
v 0.4189285 0.09163316 -0.2416738
v 0.2865974 0.1270874 -0.1659249
v 0.2865974 0.1270874 -0.1659249
v 0.4189285 0.09163316 -0.2416738
v 0.4763525 0.09163303 0.08399365
v 0.3259899 0.1270873 0.0574807
v 0.1656039 0.0916333 -0.4542381
v 0.1656039 -0.09163301 -0.4542382
v 0.4189285 -0.09163318 -0.2416739
v 0.4189285 0.09163316 -0.2416738
v 0.4189285 0.09163316 -0.2416738
v 0.4189285 -0.09163318 -0.2416739
v 0.4763525 -0.09163327 0.08399361
v 0.4763525 0.09163303 0.08399365
v -0.4758358 0.09163316 0.08399371
v -0.4758359 -0.09163316 0.08399364
v -0.4184119 -0.09163304 -0.2416738
v -0.4184119 0.09163329 -0.2416738
v 0.3110069 0.09163292 0.3703809
v 0.3110068 -0.09163337 0.3703808
v 0.0002582934 -0.09163337 0.4834841
v 0.0002583202 0.09163295 0.4834842
v -0.4184119 0.09163329 -0.2416738
v -0.4184119 -0.09163304 -0.2416738
v -0.1650875 -0.09163298 -0.4542382
v -0.1650874 0.09163336 -0.4542381
v 0.0002583202 0.09163295 0.4834842
v 0.0002582934 -0.09163337 0.4834841
v -0.3104901 -0.09163328 0.3703809
v -0.3104901 0.09163304 0.370381
v -0.3104901 0.09163304 0.370381
v -0.3104901 -0.09163328 0.3703809
v -0.4758359 -0.09163316 0.08399364
v -0.4758358 0.09163316 0.08399371
v 0.4763525 0.09163303 0.08399365
v 0.4763525 -0.09163327 0.08399361
v 0.3110068 -0.09163337 0.3703808
v 0.3110069 0.09163292 0.3703809
v 0.2322008 2.863561E-08 -0.1322246
v 0.2637148 -6.404579E-08 0.04649991
v 0.3259899 -0.1270874 0.05748061
v 0.2865974 -0.1270873 -0.1659249
v 0.2637148 -6.404579E-08 0.04649991
v 0.172974 -9.950673E-08 0.2036676
v 0.2125639 -0.1270875 0.2539402
v 0.3259899 -0.1270874 0.05748061
v -0.08830375 1.261825E-07 -0.2488785
v 0.09317774 9.619479E-08 -0.2488786
v 0.1128186 -0.1270872 -0.3117425
v -0.1140332 -0.1270872 -0.3117424
v -0.2273267 9.649662E-08 -0.1322244
v -0.08830375 1.261825E-07 -0.2488785
v -0.1140332 -0.1270872 -0.3117424
v -0.2878119 -0.1270872 -0.1659247
v -0.2588407 3.290386E-08 0.04649992
v -0.2273267 9.649662E-08 -0.1322244
v -0.2878119 -0.1270872 -0.1659247
v -0.3272044 -0.1270873 0.05748063
v -0.1680998 -5.40025E-08 0.2036677
v -0.2588407 3.290386E-08 0.04649992
v -0.3272044 -0.1270873 0.05748063
v -0.2137784 -0.1270874 0.2539403
v 0.002436999 -9.554032E-08 0.265738
v -0.1680998 -5.40025E-08 0.2036677
v -0.2137784 -0.1270874 0.2539403
v -0.0006073363 -0.1270875 0.3315282
v 0.172974 -9.950673E-08 0.2036676
v 0.002436999 -9.554032E-08 0.265738
v -0.0006073363 -0.1270875 0.3315282
v 0.2125639 -0.1270875 0.2539402
v 0.09317774 9.619479E-08 -0.2488786
v 0.2322008 2.863561E-08 -0.1322246
v 0.2865974 -0.1270873 -0.1659249
v 0.1128186 -0.1270872 -0.3117425
v 0.3259899 -0.1270874 0.05748061
v 0.2125639 -0.1270875 0.2539402
v 0.3110068 -0.09163337 0.3703808
v 0.4763525 -0.09163327 0.08399361
v 0.2125639 -0.1270875 0.2539402
v -0.0006073363 -0.1270875 0.3315282
v 0.0002582934 -0.09163337 0.4834841
v 0.3110068 -0.09163337 0.3703808
v -0.0006073363 -0.1270875 0.3315282
v -0.2137784 -0.1270874 0.2539403
v -0.3104901 -0.09163328 0.3703809
v 0.0002582934 -0.09163337 0.4834841
v -0.2137784 -0.1270874 0.2539403
v -0.3272044 -0.1270873 0.05748063
v -0.4758359 -0.09163316 0.08399364
v -0.3104901 -0.09163328 0.3703809
v -0.3272044 -0.1270873 0.05748063
v -0.2878119 -0.1270872 -0.1659247
v -0.4184119 -0.09163304 -0.2416738
v -0.4758359 -0.09163316 0.08399364
v -0.2878119 -0.1270872 -0.1659247
v -0.1140332 -0.1270872 -0.3117424
v -0.1650875 -0.09163298 -0.4542382
v -0.4184119 -0.09163304 -0.2416738
v -0.1140332 -0.1270872 -0.3117424
v 0.1128186 -0.1270872 -0.3117425
v 0.1656039 -0.09163301 -0.4542382
v -0.1650875 -0.09163298 -0.4542382
v 0.1128186 -0.1270872 -0.3117425
v 0.2865974 -0.1270873 -0.1659249
v 0.4189285 -0.09163318 -0.2416739
v 0.1656039 -0.09163301 -0.4542382
v 0.2865974 -0.1270873 -0.1659249
v 0.3259899 -0.1270874 0.05748061
v 0.4763525 -0.09163327 0.08399361
v 0.4189285 -0.09163318 -0.2416739
v 0.3259899 0.1270873 0.0574807
v 0.2125639 0.1270872 0.2539403
v 0.172974 -9.950673E-08 0.2036676
v 0.2637148 -6.404579E-08 0.04649991
v 0.2865974 0.1270874 -0.1659249
v 0.3259899 0.1270873 0.0574807
v 0.2637148 -6.404579E-08 0.04649991
v 0.2322008 2.863561E-08 -0.1322246
v -0.2878118 0.1270875 -0.1659246
v -0.1140332 0.1270875 -0.3117424
v -0.08830375 1.261825E-07 -0.2488785
v -0.2273267 9.649662E-08 -0.1322244
v -0.3272043 0.1270874 0.05748073
v -0.2878118 0.1270875 -0.1659246
v -0.2273267 9.649662E-08 -0.1322244
v -0.2588407 3.290386E-08 0.04649992
v -0.2137784 0.1270873 0.2539404
v -0.3272043 0.1270874 0.05748073
v -0.2588407 3.290386E-08 0.04649992
v -0.1680998 -5.40025E-08 0.2036677
v -0.0006073274 0.1270872 0.3315283
v -0.2137784 0.1270873 0.2539404
v -0.1680998 -5.40025E-08 0.2036677
v 0.002436999 -9.554032E-08 0.265738
v 0.2125639 0.1270872 0.2539403
v -0.0006073274 0.1270872 0.3315283
v 0.002436999 -9.554032E-08 0.265738
v 0.172974 -9.950673E-08 0.2036676
v 0.1128186 0.1270875 -0.3117423
v 0.2865974 0.1270874 -0.1659249
v 0.2322008 2.863561E-08 -0.1322246
v 0.09317774 9.619479E-08 -0.2488786
v -0.1140332 0.1270875 -0.3117424
v 0.1128186 0.1270875 -0.3117423
v 0.09317774 9.619479E-08 -0.2488786
v -0.08830375 1.261825E-07 -0.2488785
v -0.1650874 0.09163336 -0.4542381
v -0.1650875 -0.09163298 -0.4542382
v 0.1656039 -0.09163301 -0.4542382
v 0.1656039 0.0916333 -0.4542381

vn 0.207756 0.9707986 0.1199482
vn 0.207756 0.9707986 0.1199482
vn 0.207756 0.9707986 0.1199482
vn 0.207756 0.9707986 0.1199482
vn 0.08225825 0.9706475 0.2260025
vn 0.08225825 0.9706475 0.2260025
vn 0.08225825 0.9706475 0.2260025
vn 0.08225825 0.9706475 0.2260025
vn -0.08257981 0.9704138 0.2268869
vn -0.08257981 0.9704138 0.2268869
vn -0.08257981 0.9704138 0.2268869
vn -0.08257981 0.9704138 0.2268869
vn -0.2098215 0.970206 0.1211409
vn -0.2098215 0.970206 0.1211409
vn -0.2098215 0.970206 0.1211409
vn -0.2098215 0.970206 0.1211409
vn -0.2389259 0.9701235 -0.04212884
vn -0.2389259 0.9701235 -0.04212884
vn -0.2389259 0.9701235 -0.04212884
vn -0.2389259 0.9701235 -0.04212884
vn -0.1557352 0.9702061 -0.1855976
vn -0.1557352 0.9702061 -0.1855976
vn -0.1557352 0.9702061 -0.1855976
vn -0.1557352 0.9702061 -0.1855976
vn 1.106746E-07 0.970414 -0.2414472
vn 1.106746E-07 0.970414 -0.2414472
vn 1.106746E-07 0.970414 -0.2414472
vn 1.106746E-07 0.970414 -0.2414472
vn 0.1545947 0.9706476 -0.1842384
vn 0.1545947 0.9706476 -0.1842384
vn 0.1545947 0.9706476 -0.1842384
vn 0.1545947 0.9706476 -0.1842384
vn 0.2362515 0.9707986 -0.04165717
vn 0.2362515 0.9707986 -0.04165717
vn 0.2362515 0.9707986 -0.04165717
vn 0.2362515 0.9707986 -0.04165717
vn 0.6427873 4.917499E-07 -0.7660448
vn 0.6427873 4.917499E-07 -0.7660448
vn 0.6427873 4.917499E-07 -0.7660448
vn 0.6427873 4.917499E-07 -0.7660448
vn 0.9848077 0 -0.1736485
vn 0.9848077 0 -0.1736485
vn 0.9848077 0 -0.1736485
vn 0.9848077 0 -0.1736485
vn -0.9848077 2.919766E-07 -0.1736481
vn -0.9848077 2.919766E-07 -0.1736481
vn -0.9848077 2.919766E-07 -0.1736481
vn -0.9848077 2.919766E-07 -0.1736481
vn 0.3420203 -7.376247E-07 0.9396926
vn 0.3420203 -7.376247E-07 0.9396926
vn 0.3420203 -7.376247E-07 0.9396926
vn 0.3420203 -7.376247E-07 0.9396926
vn -0.6427873 6.146874E-07 -0.7660446
vn -0.6427873 6.146874E-07 -0.7660446
vn -0.6427873 6.146874E-07 -0.7660446
vn -0.6427873 6.146874E-07 -0.7660446
vn -0.3420201 -4.917499E-07 0.9396926
vn -0.3420201 -4.917499E-07 0.9396926
vn -0.3420201 -4.917499E-07 0.9396926
vn -0.3420201 -4.917499E-07 0.9396926
vn -0.8660255 0 0.4999998
vn -0.8660255 0 0.4999998
vn -0.8660255 0 0.4999998
vn -0.8660255 0 0.4999998
vn 0.8660254 -5.532189E-07 0.5
vn 0.8660254 -5.532189E-07 0.5
vn 0.8660254 -5.532189E-07 0.5
vn 0.8660254 -5.532189E-07 0.5
vn -0.8921072 -0.4235573 0.1573025
vn -0.8921072 -0.4235573 0.1573025
vn -0.8921072 -0.4235573 0.1573025
vn -0.8921072 -0.4235573 0.1573025
vn -0.7845059 -0.423557 -0.4529347
vn -0.7845059 -0.423557 -0.4529347
vn -0.7845059 -0.423557 -0.4529347
vn -0.7845059 -0.423557 -0.4529347
vn 0 -0.4433741 0.8963367
vn 0 -0.4433741 0.8963367
vn 0 -0.4433741 0.8963367
vn 0 -0.4433741 0.8963367
vn 0.572836 -0.4536616 0.6826786
vn 0.572836 -0.4536616 0.6826786
vn 0.572836 -0.4536616 0.6826786
vn 0.572836 -0.4536616 0.6826786
vn 0.8756116 -0.4576752 0.1543943
vn 0.8756116 -0.4576752 0.1543943
vn 0.8756116 -0.4576752 0.1543943
vn 0.8756116 -0.4576752 0.1543943
vn 0.7717794 -0.4536613 -0.4455873
vn 0.7717794 -0.4536613 -0.4455873
vn 0.7717794 -0.4536613 -0.4455873
vn 0.7717794 -0.4536613 -0.4455873
vn 0.3065649 -0.4433734 -0.8422814
vn 0.3065649 -0.4433734 -0.8422814
vn 0.3065649 -0.4433734 -0.8422814
vn 0.3065649 -0.4433734 -0.8422814
vn -0.3085477 -0.4314576 -0.8477278
vn -0.3085477 -0.4314576 -0.8477278
vn -0.3085477 -0.4314576 -0.8477278
vn -0.3085477 -0.4314576 -0.8477278
vn -0.5798793 -0.4314588 0.6910741
vn -0.5798793 -0.4314588 0.6910741
vn -0.5798793 -0.4314588 0.6910741
vn -0.5798793 -0.4314588 0.6910741
vn 0.2077556 -0.9707987 0.1199474
vn 0.2077556 -0.9707987 0.1199474
vn 0.2077556 -0.9707987 0.1199474
vn 0.2077556 -0.9707987 0.1199474
vn 0.08225777 -0.9706478 0.2260013
vn 0.08225777 -0.9706478 0.2260013
vn 0.08225777 -0.9706478 0.2260013
vn 0.08225777 -0.9706478 0.2260013
vn -0.08257988 -0.970414 0.2268858
vn -0.08257988 -0.970414 0.2268858
vn -0.08257988 -0.970414 0.2268858
vn -0.08257988 -0.970414 0.2268858
vn -0.2098214 -0.9702061 0.12114
vn -0.2098214 -0.9702061 0.12114
vn -0.2098214 -0.9702061 0.12114
vn -0.2098214 -0.9702061 0.12114
vn -0.2389256 -0.9701236 -0.04212957
vn -0.2389256 -0.9701236 -0.04212957
vn -0.2389256 -0.9701236 -0.04212957
vn -0.2389256 -0.9701236 -0.04212957
vn -0.1557351 -0.9702061 -0.1855981
vn -0.1557351 -0.9702061 -0.1855981
vn -0.1557351 -0.9702061 -0.1855981
vn -0.1557351 -0.9702061 -0.1855981
vn -1.592593E-07 -0.9704139 -0.2414477
vn -1.592593E-07 -0.9704139 -0.2414477
vn -1.592593E-07 -0.9704139 -0.2414477
vn -1.592593E-07 -0.9704139 -0.2414477
vn 0.154594 -0.9706477 -0.1842388
vn 0.154594 -0.9706477 -0.1842388
vn 0.154594 -0.9706477 -0.1842388
vn 0.154594 -0.9706477 -0.1842388
vn 0.2362508 -0.9707987 -0.04165782
vn 0.2362508 -0.9707987 -0.04165782
vn 0.2362508 -0.9707987 -0.04165782
vn 0.2362508 -0.9707987 -0.04165782
vn -0.784506 0.4235574 -0.4529343
vn -0.784506 0.4235574 -0.4529343
vn -0.784506 0.4235574 -0.4529343
vn -0.784506 0.4235574 -0.4529343
vn -0.8921071 0.4235573 0.1573027
vn -0.8921071 0.4235573 0.1573027
vn -0.8921071 0.4235573 0.1573027
vn -0.8921071 0.4235573 0.1573027
vn 0.5728361 0.4536609 0.6826789
vn 0.5728361 0.4536609 0.6826789
vn 0.5728361 0.4536609 0.6826789
vn 0.5728361 0.4536609 0.6826789
vn 0.8756119 0.4576747 0.1543948
vn 0.8756119 0.4576747 0.1543948
vn 0.8756119 0.4576747 0.1543948
vn 0.8756119 0.4576747 0.1543948
vn 0.7717796 0.4536613 -0.445587
vn 0.7717796 0.4536613 -0.445587
vn 0.7717796 0.4536613 -0.445587
vn 0.7717796 0.4536613 -0.445587
vn 0.3065651 0.4433742 -0.842281
vn 0.3065651 0.4433742 -0.842281
vn 0.3065651 0.4433742 -0.842281
vn 0.3065651 0.4433742 -0.842281
vn -0.3085476 0.4314585 -0.8477275
vn -0.3085476 0.4314585 -0.8477275
vn -0.3085476 0.4314585 -0.8477275
vn -0.3085476 0.4314585 -0.8477275
vn -0.5798791 0.4314582 0.6910745
vn -0.5798791 0.4314582 0.6910745
vn -0.5798791 0.4314582 0.6910745
vn -0.5798791 0.4314582 0.6910745
vn 0 0.4433735 0.896337
vn 0 0.4433735 0.896337
vn 0 0.4433735 0.896337
vn 0 0.4433735 0.896337
vn 0 4.917502E-07 -1
vn 0 4.917502E-07 -1
vn 0 4.917502E-07 -1
vn 0 4.917502E-07 -1

vt 0.03999184 0.6906516
vt 0.03999184 0.6839686
vt 0.02764575 0.6839686
vt 0.02764575 0.6906516
vt 0.02764575 0.6906516
vt 0.02764575 0.6839686
vt 0.01653302 0.6839686
vt 0.01653302 0.6906516
vt 0.1153649 0.6906516
vt 0.1153649 0.6839686
vt 0.1045344 0.6839686
vt 0.1045344 0.6906516
vt 0.1045344 0.6906516
vt 0.1045344 0.6839686
vt 0.09495768 0.6839686
vt 0.09495768 0.6906516
vt 0.09495768 0.6906516
vt 0.09495768 0.6839686
vt 0.08419773 0.6839686
vt 0.08419773 0.6906516
vt 0.08419773 0.6906516
vt 0.08419773 0.6839686
vt 0.07309874 0.6839686
vt 0.07309874 0.6906516
vt 0.07309874 0.6906516
vt 0.07309874 0.6839686
vt 0.06241025 0.6839686
vt 0.06241025 0.6906516
vt 0.06241025 0.6906516
vt 0.06241025 0.6839686
vt 0.05152595 0.6839686
vt 0.05152595 0.6906516
vt 0.05152595 0.6906516
vt 0.05152595 0.6839686
vt 0.03999184 0.6839686
vt 0.03999184 0.6906516
vt 0.06241025 0.6839686
vt 0.06241025 0.6744909
vt 0.05152595 0.6744909
vt 0.05152595 0.6839686
vt 0.05152595 0.6839686
vt 0.05152595 0.6744909
vt 0.03999184 0.6744909
vt 0.03999184 0.6839686
vt 0.09495768 0.6839686
vt 0.09495768 0.6744909
vt 0.08419773 0.6744909
vt 0.08419773 0.6839686
vt 0.02764575 0.6839686
vt 0.02764575 0.6744909
vt 0.01653302 0.6744909
vt 0.01653302 0.6839686
vt 0.08419773 0.6839686
vt 0.08419773 0.6744909
vt 0.07309874 0.6744909
vt 0.07309874 0.6839686
vt 0.1153649 0.6839686
vt 0.1153649 0.6744909
vt 0.1045344 0.6744909
vt 0.1045344 0.6839686
vt 0.1045344 0.6839686
vt 0.1045344 0.6744909
vt 0.09495768 0.6744909
vt 0.09495768 0.6839686
vt 0.03999184 0.6839686
vt 0.03999184 0.6744909
vt 0.02764575 0.6744909
vt 0.02764575 0.6839686
vt 0.05152595 0.6607336
vt 0.03999184 0.6607336
vt 0.03999184 0.6674678
vt 0.05152595 0.6674678
vt 0.03999184 0.6607336
vt 0.02764575 0.6607336
vt 0.02764575 0.6674678
vt 0.03999184 0.6674678
vt 0.07309874 0.6607336
vt 0.06241025 0.6607336
vt 0.06241025 0.6674678
vt 0.07309874 0.6674678
vt 0.08419773 0.6607336
vt 0.07309874 0.6607336
vt 0.07309874 0.6674678
vt 0.08419773 0.6674678
vt 0.09495768 0.6607336
vt 0.08419773 0.6607336
vt 0.08419773 0.6674678
vt 0.09495768 0.6674678
vt 0.1045344 0.6607336
vt 0.09495768 0.6607336
vt 0.09495768 0.6674678
vt 0.1045344 0.6674678
vt 0.1153649 0.6607336
vt 0.1045344 0.6607336
vt 0.1045344 0.6674678
vt 0.1153649 0.6674678
vt 0.02764575 0.6607336
vt 0.01653302 0.6607336
vt 0.01653302 0.6674678
vt 0.02764575 0.6674678
vt 0.06241025 0.6607336
vt 0.05152595 0.6607336
vt 0.05152595 0.6674678
vt 0.06241025 0.6674678
vt 0.03999184 0.6674678
vt 0.02764575 0.6674678
vt 0.02764575 0.6744909
vt 0.03999184 0.6744909
vt 0.02764575 0.6674678
vt 0.01653302 0.6674678
vt 0.01653302 0.6744909
vt 0.02764575 0.6744909
vt 0.1153649 0.6674678
vt 0.1045344 0.6674678
vt 0.1045344 0.6744909
vt 0.1153649 0.6744909
vt 0.1045344 0.6674678
vt 0.09495768 0.6674678
vt 0.09495768 0.6744909
vt 0.1045344 0.6744909
vt 0.09495768 0.6674678
vt 0.08419773 0.6674678
vt 0.08419773 0.6744909
vt 0.09495768 0.6744909
vt 0.08419773 0.6674678
vt 0.07309874 0.6674678
vt 0.07309874 0.6744909
vt 0.08419773 0.6744909
vt 0.07309874 0.6674678
vt 0.06241025 0.6674678
vt 0.06241025 0.6744909
vt 0.07309874 0.6744909
vt 0.06241025 0.6674678
vt 0.05152595 0.6674678
vt 0.05152595 0.6744909
vt 0.06241025 0.6744909
vt 0.05152595 0.6674678
vt 0.03999184 0.6674678
vt 0.03999184 0.6744909
vt 0.05152595 0.6744909
vt 0.03999184 0.6906516
vt 0.02764575 0.6906516
vt 0.02764575 0.698252
vt 0.03999184 0.698252
vt 0.05152595 0.6906516
vt 0.03999184 0.6906516
vt 0.03999184 0.698252
vt 0.05152595 0.698252
vt 0.08419773 0.6906516
vt 0.07309874 0.6906516
vt 0.07309874 0.698252
vt 0.08419773 0.698252
vt 0.09495768 0.6906516
vt 0.08419773 0.6906516
vt 0.08419773 0.698252
vt 0.09495768 0.698252
vt 0.1045344 0.6906516
vt 0.09495768 0.6906516
vt 0.09495768 0.698252
vt 0.1045344 0.698252
vt 0.1153649 0.6906516
vt 0.1045344 0.6906516
vt 0.1045344 0.698252
vt 0.1153649 0.698252
vt 0.02764575 0.6906516
vt 0.01653302 0.6906516
vt 0.01653302 0.698252
vt 0.02764575 0.698252
vt 0.06241025 0.6906516
vt 0.05152595 0.6906516
vt 0.05152595 0.698252
vt 0.06241025 0.698252
vt 0.07309874 0.6906516
vt 0.06241025 0.6906516
vt 0.06241025 0.698252
vt 0.07309874 0.698252
vt 0.07309874 0.6839686
vt 0.07309874 0.6744909
vt 0.06241025 0.6744909
vt 0.06241025 0.6839686

usemtl LOW-POLY-COLORS
usemap LOW-POLY-COLORS
f 2/2/2 1/1/1 3/3/3
f 3/3/3 1/1/1 4/4/4
f 6/6/6 5/5/5 7/7/7
f 7/7/7 5/5/5 8/8/8
f 10/10/10 9/9/9 11/11/11
f 11/11/11 9/9/9 12/12/12
f 14/14/14 13/13/13 15/15/15
f 15/15/15 13/13/13 16/16/16
f 18/18/18 17/17/17 19/19/19
f 19/19/19 17/17/17 20/20/20
f 22/22/22 21/21/21 23/23/23
f 23/23/23 21/21/21 24/24/24
f 26/26/26 25/25/25 27/27/27
f 27/27/27 25/25/25 28/28/28
f 30/30/30 29/29/29 31/31/31
f 31/31/31 29/29/29 32/32/32
f 34/34/34 33/33/33 35/35/35
f 35/35/35 33/33/33 36/36/36
f 38/38/38 37/37/37 39/39/39
f 39/39/39 37/37/37 40/40/40
f 42/42/42 41/41/41 43/43/43
f 43/43/43 41/41/41 44/44/44
f 46/46/46 45/45/45 47/47/47
f 47/47/47 45/45/45 48/48/48
f 50/50/50 49/49/49 51/51/51
f 51/51/51 49/49/49 52/52/52
f 54/54/54 53/53/53 55/55/55
f 55/55/55 53/53/53 56/56/56
f 58/58/58 57/57/57 59/59/59
f 59/59/59 57/57/57 60/60/60
f 62/62/62 61/61/61 63/63/63
f 63/63/63 61/61/61 64/64/64
f 66/66/66 65/65/65 67/67/67
f 67/67/67 65/65/65 68/68/68
f 70/70/70 69/69/69 71/71/71
f 71/71/71 69/69/69 72/72/72
f 74/74/74 73/73/73 75/75/75
f 75/75/75 73/73/73 76/76/76
f 78/78/78 77/77/77 79/79/79
f 79/79/79 77/77/77 80/80/80
f 82/82/82 81/81/81 83/83/83
f 83/83/83 81/81/81 84/84/84
f 86/86/86 85/85/85 87/87/87
f 87/87/87 85/85/85 88/88/88
f 90/90/90 89/89/89 91/91/91
f 91/91/91 89/89/89 92/92/92
f 94/94/94 93/93/93 95/95/95
f 95/95/95 93/93/93 96/96/96
f 98/98/98 97/97/97 99/99/99
f 99/99/99 97/97/97 100/100/100
f 102/102/102 101/101/101 103/103/103
f 103/103/103 101/101/101 104/104/104
f 106/106/106 105/105/105 107/107/107
f 107/107/107 105/105/105 108/108/108
f 110/110/110 109/109/109 111/111/111
f 111/111/111 109/109/109 112/112/112
f 114/114/114 113/113/113 115/115/115
f 115/115/115 113/113/113 116/116/116
f 118/118/118 117/117/117 119/119/119
f 119/119/119 117/117/117 120/120/120
f 122/122/122 121/121/121 123/123/123
f 123/123/123 121/121/121 124/124/124
f 126/126/126 125/125/125 127/127/127
f 127/127/127 125/125/125 128/128/128
f 130/130/130 129/129/129 131/131/131
f 131/131/131 129/129/129 132/132/132
f 134/134/134 133/133/133 135/135/135
f 135/135/135 133/133/133 136/136/136
f 138/138/138 137/137/137 139/139/139
f 139/139/139 137/137/137 140/140/140
f 142/142/142 141/141/141 143/143/143
f 143/143/143 141/141/141 144/144/144
f 146/146/146 145/145/145 147/147/147
f 147/147/147 145/145/145 148/148/148
f 150/150/150 149/149/149 151/151/151
f 151/151/151 149/149/149 152/152/152
f 154/154/154 153/153/153 155/155/155
f 155/155/155 153/153/153 156/156/156
f 158/158/158 157/157/157 159/159/159
f 159/159/159 157/157/157 160/160/160
f 162/162/162 161/161/161 163/163/163
f 163/163/163 161/161/161 164/164/164
f 166/166/166 165/165/165 167/167/167
f 167/167/167 165/165/165 168/168/168
f 170/170/170 169/169/169 171/171/171
f 171/171/171 169/169/169 172/172/172
f 174/174/174 173/173/173 175/175/175
f 175/175/175 173/173/173 176/176/176
f 178/178/178 177/177/177 179/179/179
f 179/179/179 177/177/177 180/180/180
