mtllib ./SM_Prop_Church_Pew_01_68.mtl
g SM_Prop_Church_Pew_01
v 0.4597933 1.062725 0.1789951
v 0.6352119 1.10811 0.1820679
v 0.4750056 1.106668 0.2007732
v -0.3181655 0.485025 -0.2403259
v 0.4597933 0.485025 -0.198328
v 0.4597933 0.5528948 -0.198328
v -0.0368371 0.5528948 -0.2170563
v -0.3181655 0.5218371 -0.2403259
v -0.9852061 0.485025 -0.2403259
v -0.5290809 0.5528948 -0.2403259
v -0.9852061 0.5528948 -0.2403259
v -1.046812 0.5528948 -0.2403259
v -1.046812 0 -0.2403259
v -0.9852061 0 -0.2403259
v -1.046812 0.7760507 -0.2403259
v -0.9852061 0.7760507 -0.2403259
v 0.4597933 0.5528948 -0.198328
v -0.0368371 0.5528948 -0.2170563
v -0.3181655 0.485025 -0.2403259
v 0.3662219 1.10811 0.1820679
v 0.4597933 1.062725 0.1789951
v 0.4750056 1.106668 0.2007732
v 0.4750056 1.106668 0.2007732
v 0.6352119 1.10811 0.1820679
v 0.9852057 1.120449 0.1820679
v 0.4885452 1.106886 0.2273731
v -0.1484141 1.120449 0.2403259
v -0.3264334 1.120449 0.2183628
v -0.3264334 1.120449 0.2183628
v -0.1484141 1.120449 0.2403259
v -0.3380606 1.071127 0.2403259
v -0.507004 1.120449 0.2403259
v -0.3264334 1.120449 0.2183628
v -0.3380606 1.071127 0.2403259
v -0.3181655 0.5528948 -0.1820698
v -0.3181655 0.5218371 -0.2403259
v -0.0368371 0.5528948 -0.2170563
v -0.5290809 0.5528948 -0.2403259
v -0.3181655 0.5218371 -0.2403259
v -0.3181655 0.5528948 -0.1820698
v -0.9852061 0.7823567 -0.1453152
v -0.9852061 0.8147938 -0.1254311
v -1.016868 0.814794 -0.1922588
v -0.9852061 0.7913312 -0.2213688
v -0.9852061 0.7823567 -0.1453152
v -1.016868 0.814794 -0.1922588
v 0.9852057 0.5528948 -0.2403259
v 0.9852057 0.5770765 0.1517735
v 0.4597933 0.5528948 0.1686859
v 0.4597933 0.5528948 -0.198328
v -0.3181655 0.5528948 -0.1820698
v -0.0368371 0.5528948 -0.2170563
v -0.3181655 0.5712789 0.1548157
v -0.9852061 0.5770765 0.1517735
v -0.5290809 0.5528948 -0.2403259
v -0.9852061 0.5528948 -0.2403259
v 1.046812 0 -0.2403259
v 1.046812 0 0.2403259
v 1.046812 0.5528948 0.2403259
v 1.046812 0.5528948 -0.2403259
v 1.046812 0.814794 -0.1922588
v 1.046812 0.7760507 -0.2403259
v 1.046812 0.8147936 0
v 1.046812 1.120449 0.1820679
v 1.046812 1.120449 0.2403259
v -1.046812 0.5528948 -0.2403259
v -1.046812 0.5528948 0.2403259
v -1.046812 0 0.2403259
v -1.046812 0 -0.2403259
v 1.046812 1.120449 0.2403259
v 0.9852057 1.120449 0.1820679
v 1.046812 1.120449 0.1820679
v 0.4750056 1.106668 0.2007732
v 0.4885452 1.106886 0.2273731
v -0.3264334 1.120449 0.2183628
v 0.3662219 1.10811 0.1820679
v -0.3181655 1.120449 0.1820679
v -1.046812 1.120449 0.2403259
v -0.507004 1.120449 0.2403259
v -0.9852061 1.120449 0.1820679
v -1.046812 1.120449 0.1820679
v -1.046812 0.8147936 0
v -1.046812 0.814794 -0.1922588
v -1.016868 0.814794 -0.1922588
v -0.9852061 0.8147938 -0.1254311
v -0.9852061 0.8147935 0
v 1.046812 0 0.2403259
v 0.9852057 0 0.2403259
v 0.9852057 0.485025 0.2403259
v 1.046812 0.5528948 0.2403259
v 0.4885452 1.106886 0.2273731
v 1.046812 1.120449 0.2403259
v 0.4885452 0.5528948 0.2273731
v -0.1484141 1.120449 0.2403259
v -0.3380606 0.5528948 0.2403259
v -0.3380606 1.071127 0.2403259
v -0.507004 1.120449 0.2403259
v -1.046812 0.5528948 0.2403259
v -1.046812 1.120449 0.2403259
v -0.9852061 0.485025 0.2403259
v -0.9852061 0 0.2403259
v -1.046812 0 0.2403259
v 1.046812 0.5528948 0.2403259
v 0.9852057 0.485025 0.2403259
v 0.4702973 0.5057114 0.2095699
v 0.4885452 0.5528948 0.2273731
v 1.046812 0.5528948 -0.2403259
v 0.9852057 0 -0.2403259
v 1.046812 0 -0.2403259
v 0.9852057 0.485025 -0.2403259
v 0.9852057 0.5528948 -0.2403259
v 0.4597933 0.485025 -0.198328
v 0.4597933 0.5528948 -0.198328
v 0.9852057 0.7760507 -0.2403259
v 1.046812 0.7760507 -0.2403259
v 0.9852057 0 -0.2403259
v 0.9852057 0 0.2403259
v 1.046812 0 0.2403259
v 1.046812 0 -0.2403259
v -1.046812 0 -0.2403259
v -1.046812 0 0.2403259
v -0.9852061 0 0.2403259
v -0.9852061 0 -0.2403259
v 0.4702973 0.5057114 0.2095699
v 0.9852057 0.485025 0.2403259
v 0.9852057 0.485025 -0.2403259
v 0.4597933 0.485025 -0.198328
v -0.3982632 0.4921448 0.209774
v -0.3181655 0.485025 -0.2403259
v -0.9852061 0.485025 -0.2403259
v -0.9852061 0.485025 0.2403259
v 0.9852057 0.485025 -0.2403259
v 0.9852057 0.485025 0.2403259
v 0.9852057 0 0.2403259
v 0.9852057 0 -0.2403259
v -0.9852061 0 -0.2403259
v -0.9852061 0 0.2403259
v -0.9852061 0.485025 0.2403259
v -0.9852061 0.485025 -0.2403259
v 0.9852057 0.8147935 0
v 0.9852057 0.814794 -0.1922588
v 1.046812 0.814794 -0.1922588
v 1.046812 0.8147936 0
v -1.046812 1.120449 0.1820679
v -1.046812 1.120449 0.2403259
v -1.046812 0.5528948 0.2403259
v -1.046812 0.8147936 0
v -1.046812 0.814794 -0.1922588
v -1.046812 0.7760507 -0.2403259
v -1.046812 0.5528948 -0.2403259
v -0.9852061 0.8147935 0
v -0.9852061 1.120449 0.1820679
v -1.046812 1.120449 0.1820679
v -1.046812 0.8147936 0
v -0.9852061 0.8147935 0
v -0.9852061 0.5770765 0.1517735
v -0.9852061 1.120449 0.1820679
v -0.9852061 0.8147938 -0.1254311
v -0.9852061 0.7823567 -0.1453152
v -0.9852061 0.7760507 -0.2403259
v -0.9852061 0.5528948 -0.2403259
v -0.9852061 0.7913312 -0.2213688
v 0.9852057 1.120449 0.1820679
v 0.9852057 0.8147935 0
v 1.046812 0.8147936 0
v 1.046812 1.120449 0.1820679
v 0.9852057 0.8147935 0
v 0.9852057 1.120449 0.1820679
v 0.9852057 0.5770765 0.1517735
v 0.9852057 0.814794 -0.1922588
v 0.9852057 0.7760507 -0.2403259
v 0.9852057 0.5528948 -0.2403259
v 0.9852057 0.814794 -0.1922588
v 0.9852057 0.7760507 -0.2403259
v 1.046812 0.7760507 -0.2403259
v 1.046812 0.814794 -0.1922588
v -1.046812 0.814794 -0.1922588
v -1.046812 0.7760507 -0.2403259
v -0.9852061 0.7760507 -0.2403259
v -0.9852061 0.7913312 -0.2213688
v -1.016868 0.814794 -0.1922588
v 0.4702973 0.5057114 0.2095699
v -0.3982632 0.4921448 0.209774
v -0.3380606 0.5528948 0.2403259
v 0.4885452 0.5528948 0.2273731
v -0.3181655 1.120449 0.1820679
v -0.9852061 1.120449 0.1820679
v -0.9852061 0.5770765 0.1517735
v -0.3181655 0.5712789 0.1548157
v 0.3662219 1.10811 0.1820679
v 0.4597933 1.062725 0.1789951
v 0.4597933 0.5528948 0.1686859
v 0.6352119 1.10811 0.1820679
v 0.9852057 1.120449 0.1820679
v 0.9852057 0.5770765 0.1517735
v -0.3982632 0.4921448 0.209774
v -0.9852061 0.485025 0.2403259
v -1.046812 0.5528948 0.2403259
v -0.3380606 0.5528948 0.2403259

vn -0.1064882 0.47088 -0.8757466
vn -0.1064882 0.47088 -0.8757466
vn -0.1064882 0.47088 -0.8757466
vn 0.04547268 0 -0.9989655
vn 0.05390623 0 -0.998546
vn 0.05390623 0 -0.998546
vn 0.08243199 0 -0.9965966
vn 0.02749814 0 -0.9996219
vn 0 0 -1
vn 0 0 -1
vn 0 0 -1
vn 0 0 -1
vn 0 0 -1
vn 0 0 -1
vn 0 0 -1
vn 0 0 -1
vn 0.03704569 0.1832531 -0.9823675
vn 0.03704569 0.1832531 -0.9823675
vn 0.03704569 0.1832531 -0.9823675
vn 0.1608848 0.3929954 -0.9053567
vn 0.1608848 0.3929954 -0.9053567
vn 0.1608848 0.3929954 -0.9053567
vn -0.03437533 0.9750611 -0.2192579
vn -0.03437533 0.9750611 -0.2192579
vn -0.03437533 0.9750611 -0.2192579
vn 0.01808002 0.9890387 -0.1465454
vn 0.01808002 0.9890387 -0.1465454
vn 0.01808002 0.9890387 -0.1465454
vn -0.1107824 0.4259634 0.8979324
vn -0.1107824 0.4259634 0.8979324
vn -0.1107824 0.4259634 0.8979324
vn 0.1115761 0.382181 0.9173268
vn 0.1115761 0.382181 0.9173268
vn 0.1115761 0.382181 0.9173268
vn -0.05840546 0.8809231 -0.4696416
vn -0.05840546 0.8809231 -0.4696416
vn -0.05840546 0.8809231 -0.4696416
vn 0.1288565 0.8750729 -0.4665228
vn 0.1288565 0.8750729 -0.4665228
vn 0.1288565 0.8750729 -0.4665228
vn 0.8740985 0.2538643 -0.4141312
vn 0.8740985 0.2538643 -0.4141312
vn 0.8740985 0.2538643 -0.4141312
vn 0.6448408 0.7590504 0.08957
vn 0.6448408 0.7590504 0.08957
vn 0.6448408 0.7590504 0.08957
vn -0.02477778 0.9991861 -0.03182928
vn -0.02477778 0.9991861 -0.03182928
vn -7.25537E-05 0.9995858 -0.02878051
vn -0.008260717 0.9999096 -0.01061152
vn 0.009276219 0.9994724 -0.03112762
vn 0 1 0
vn 0.01674399 0.9983743 -0.05448193
vn 0.00726811 0.9985024 -0.05422293
vn 0.006438721 0.9985153 -0.05409064
vn 0 0.9981036 -0.06155544
vn 1 0 0
vn 1 0 0
vn 1 0 0
vn 1 0 0
vn 1 0 0
vn 1 0 0
vn 1 0 0
vn 1 0 0
vn 1 0 0
vn -1 0 0
vn -1 0 0
vn -1 0 0
vn -1 0 0
vn -0.0167929 0.9998031 0.01057106
vn -0.01299537 0.9998211 0.01374227
vn 0 1 0
vn -0.004202472 0.9999903 -0.001340501
vn -0.003782346 0.9999733 -0.006260393
vn 0.01031919 0.999925 -0.006592941
vn 0.01738599 0.999816 -0.008107151
vn 0.006008816 0.999981 0.001368727
vn 0 1 0
vn 0 1 0
vn 0 1 0
vn 0 1 0
vn 0 1 0
vn 0 1 0
vn 0 1 0
vn 0 1 0
vn 0 1 0
vn 0 0 1
vn 0 0 1
vn 0 0 1
vn -0.01159857 0 0.9999328
vn -0.00143254 0 0.999999
vn -0.02319557 0 0.9997309
vn 0.004268601 -0.001745446 0.9999894
vn 0.01200012 -0.00174518 0.9999264
vn 0.003917032 -0.001308865 0.9999915
vn 0 0 1
vn 0 0 1
vn 0 0 1
vn 0 0 1
vn 0 0 1
vn 0 0 1
vn 0 0 1
vn -0.04276295 -0.1237271 0.9913945
vn -0.04276295 -0.1237271 0.9913945
vn -0.04276295 -0.1237271 0.9913945
vn -0.04276295 -0.1237271 0.9913945
vn 0 0 -1
vn 0 0 -1
vn 0 0 -1
vn -0.02657847 0 -0.9996468
vn -0.02657847 0 -0.9996468
vn -0.07967906 0 -0.9968206
vn -0.07967906 0 -0.9968206
vn 0 0 -1
vn 0 0 -1
vn 0 -1 0
vn 0 -1 0
vn 0 -1 0
vn 0 -1 0
vn 0 -1 0
vn 0 -1 0
vn 0 -1 0
vn 0 -1 0
vn -0.006112577 -0.9995822 0.02824881
vn -0.01962136 -0.9995313 0.02350214
vn -0.01962136 -0.9995313 0.02350214
vn -0.006112577 -0.9995822 0.02824881
vn 0.006637326 -0.9997663 0.02057382
vn 0.006637326 -0.9997663 0.02057382
vn 0.005876161 -0.9999495 0.008154759
vn 0.005876161 -0.9999495 0.008154759
vn -1 0 0
vn -1 0 0
vn -1 0 0
vn -1 0 0
vn 1 0 0
vn 1 0 0
vn 1 0 0
vn 1 0 0
vn 0 1 0
vn 0 1 0
vn 0 1 0
vn 0 1 0
vn -1 0 0
vn -1 0 0
vn -1 0 0
vn -1 0 0
vn -1 0 0
vn -1 0 0
vn -1 0 0
vn 0 0.5117541 -0.859132
vn 0 0.5117541 -0.859132
vn 0 0.5117541 -0.859132
vn 0 0.5117541 -0.859132
vn 1 0 0
vn 1 0 0
vn 1 0 0
vn 1 0 0
vn 1 0 0
vn 1 0 0
vn 1 0 0
vn 1 0 0
vn 0 0.511754 -0.859132
vn 0 0.511754 -0.859132
vn 0 0.511754 -0.859132
vn 0 0.511754 -0.859132
vn -1 0 0
vn -1 0 0
vn -1 0 0
vn -1 0 0
vn -1 0 0
vn -1 0 0
vn 0 0.7785754 -0.6275511
vn 0 0.7785754 -0.6275511
vn 0 0.7785754 -0.6275511
vn 0 0.7785754 -0.6275511
vn -6.495431E-06 0.7785739 -0.6275529
vn 0 0.7785754 -0.6275511
vn -9.743148E-06 0.7785693 -0.6275587
vn -9.743147E-06 0.7785732 -0.6275537
vn 0 0.7785833 -0.6275412
vn 0.01038281 -0.4151064 0.9097136
vn 0.01038281 -0.4151064 0.9097136
vn 0.01038281 -0.4151064 0.9097136
vn 0.01038281 -0.4151064 0.9097136
vn 0.001699699 0.0510813 -0.998693
vn 0.002505802 0.05259912 -0.9986125
vn 0.002505802 0.05259912 -0.9986125
vn 0.00415838 0.04488603 -0.9989834
vn -0.002087377 0.05335365 -0.9985735
vn 0.008506132 0.03253032 -0.9994345
vn -0.001239796 0.03011662 -0.9995456
vn 0.005711379 0.02229142 -0.9997352
vn -0.0177743 0.04001024 -0.9990411
vn -0.03468014 0.05563267 -0.9978489
vn 0.02420409 -0.2307885 0.9727029
vn 0.02420409 -0.2307885 0.9727029
vn 0.02420409 -0.2307885 0.9727029
vn 0.02420409 -0.2307885 0.9727029

vt 0.2114027 0.2788158
vt 0.2114027 0.2788158
vt 0.2114027 0.2788158
vt 0.2114027 0.2788157
vt 0.2114027 0.2788157
vt 0.2114027 0.2788157
vt 0.2114027 0.2788157
vt 0.2114027 0.2788157
vt 0.2114027 0.2788157
vt 0.2114027 0.2788157
vt 0.2114027 0.2788157
vt 0.2114027 0.2788157
vt 0.2114027 0.2788157
vt 0.2114027 0.2788157
vt 0.2114027 0.2788157
vt 0.2114027 0.2788157
vt 0.2114027 0.2788157
vt 0.2114027 0.2788157
vt 0.2114027 0.2788157
vt 0.2114027 0.2788158
vt 0.2114027 0.2788158
vt 0.2114027 0.2788158
vt 0.2114027 0.2788158
vt 0.2114027 0.2788158
vt 0.2114027 0.2788158
vt 0.2114027 0.2788158
vt 0.2114027 0.2788158
vt 0.2114027 0.2788158
vt 0.2114027 0.2788158
vt 0.2114027 0.2788158
vt 0.2114027 0.2788158
vt 0.2114027 0.2788158
vt 0.2114027 0.2788158
vt 0.2114027 0.2788158
vt 0.2114027 0.2788157
vt 0.2114027 0.2788157
vt 0.2114027 0.2788157
vt 0.2114027 0.2788157
vt 0.2114027 0.2788157
vt 0.2114027 0.2788157
vt 0.2114027 0.2788157
vt 0.2114027 0.2788157
vt 0.2114027 0.2788157
vt 0.2114027 0.2788157
vt 0.2114027 0.2788157
vt 0.2114027 0.2788157
vt 0.2114027 0.2788157
vt 0.2114027 0.2788158
vt 0.2114027 0.2788158
vt 0.2114027 0.2788157
vt 0.2114027 0.2788157
vt 0.2114027 0.2788157
vt 0.2114027 0.2788158
vt 0.2114027 0.2788158
vt 0.2114027 0.2788157
vt 0.2114027 0.2788157
vt 0.2114027 0.2788157
vt 0.2114027 0.2788157
vt 0.2114027 0.2788158
vt 0.2114027 0.2788158
vt 0.2114027 0.2788157
vt 0.2114027 0.2788157
vt 0.2114027 0.2788157
vt 0.2114027 0.2788157
vt 0.2114027 0.2788158
vt 0.2114027 0.2788158
vt 0.2114027 0.2788158
vt 0.2114027 0.2788157
vt 0.2114027 0.2788157
vt 0.2114027 0.2788158
vt 0.2114027 0.2788158
vt 0.2114027 0.2788157
vt 0.2114027 0.2788158
vt 0.2114027 0.2788158
vt 0.2114027 0.2788158
vt 0.2114027 0.2788158
vt 0.2114027 0.2788158
vt 0.2114027 0.2788158
vt 0.2114027 0.2788158
vt 0.2114027 0.2788158
vt 0.2114027 0.2788157
vt 0.2114027 0.2788157
vt 0.2114027 0.2788157
vt 0.2114027 0.2788157
vt 0.2114027 0.2788157
vt 0.2114027 0.2788158
vt 0.2114027 0.2788157
vt 0.2114027 0.2788157
vt 0.2114027 0.2788158
vt 0.2114027 0.2788158
vt 0.2114027 0.2788158
vt 0.2114027 0.2788158
vt 0.2114027 0.2788158
vt 0.2114027 0.2788158
vt 0.2114027 0.2788158
vt 0.2114027 0.2788158
vt 0.2114027 0.2788158
vt 0.2114027 0.2788158
vt 0.2114027 0.2788158
vt 0.2114027 0.2788158
vt 0.2114027 0.2788157
vt 0.2114027 0.2788157
vt 0.2114027 0.2788158
vt 0.2114027 0.2788158
vt 0.2114027 0.2788158
vt 0.2114027 0.2788158
vt 0.2114027 0.2788157
vt 0.2114027 0.2788157
vt 0.2114027 0.2788157
vt 0.2114027 0.2788157
vt 0.2114027 0.2788157
vt 0.2114027 0.2788157
vt 0.2114027 0.2788157
vt 0.2114027 0.2788157
vt 0.2114027 0.2788157
vt 0.2114027 0.2788157
vt 0.2114027 0.2788157
vt 0.2114027 0.2788157
vt 0.2114027 0.2788157
vt 0.2114027 0.2788157
vt 0.2114027 0.2788157
vt 0.2114027 0.2788157
vt 0.2114027 0.2788157
vt 0.2114027 0.2788157
vt 0.2114027 0.2788157
vt 0.2114027 0.2788157
vt 0.2114027 0.2788157
vt 0.2114027 0.2788157
vt 0.2114027 0.2788157
vt 0.2114027 0.2788157
vt 0.2114027 0.2788157
vt 0.2114027 0.2788157
vt 0.2114027 0.2788157
vt 0.2114027 0.2788157
vt 0.2114027 0.2788157
vt 0.2114027 0.2788157
vt 0.2114027 0.2788157
vt 0.2114027 0.2788157
vt 0.2114027 0.2788157
vt 0.2114027 0.2788158
vt 0.2114027 0.2788157
vt 0.2114027 0.2788157
vt 0.2114027 0.2788157
vt 0.2114027 0.2788157
vt 0.2114027 0.2788158
vt 0.2114027 0.2788158
vt 0.2114027 0.2788157
vt 0.2114027 0.2788157
vt 0.2114027 0.2788157
vt 0.2114027 0.2788157
vt 0.2114027 0.2788158
vt 0.2114027 0.2788158
vt 0.2114027 0.2788157
vt 0.2114027 0.2788157
vt 0.2114027 0.2788158
vt 0.2114027 0.2788158
vt 0.2114027 0.2788158
vt 0.2114027 0.2788157
vt 0.2114027 0.2788157
vt 0.2114027 0.2788157
vt 0.2114027 0.2788157
vt 0.2114027 0.2788157
vt 0.2114027 0.2788158
vt 0.2114027 0.2788158
vt 0.2114027 0.2788157
vt 0.2114027 0.2788157
vt 0.2114027 0.2788158
vt 0.2114027 0.2788158
vt 0.2114027 0.2788158
vt 0.2114027 0.2788157
vt 0.2114027 0.2788157
vt 0.2114027 0.2788157
vt 0.2114027 0.2788157
vt 0.2114027 0.2788157
vt 0.2114027 0.2788157
vt 0.2114027 0.2788157
vt 0.2114027 0.2788157
vt 0.2114027 0.2788157
vt 0.2114027 0.2788157
vt 0.2114027 0.2788157
vt 0.2114027 0.2788157
vt 0.2114027 0.2788158
vt 0.2114027 0.2788158
vt 0.2114027 0.2788158
vt 0.2114027 0.2788158
vt 0.2114027 0.2788158
vt 0.2114027 0.2788158
vt 0.2114027 0.2788158
vt 0.2114027 0.2788158
vt 0.2114027 0.2788158
vt 0.2114027 0.2788158
vt 0.2114027 0.2788158
vt 0.2114027 0.2788158
vt 0.2114027 0.2788158
vt 0.2114027 0.2788158
vt 0.2114027 0.2788158
vt 0.2114027 0.2788158
vt 0.2114027 0.2788158
vt 0.2114027 0.2788158

usemtl PolygonWestern_Material_01_A
usemap PolygonWestern_Material_01_A
f 2/2/2 1/1/1 3/3/3
f 5/5/5 4/4/4 6/6/6
f 8/8/8 7/7/7 4/4/4
f 4/4/4 9/9/9 8/8/8
f 10/10/10 8/8/8 9/9/9
f 11/11/11 10/10/10 9/9/9
f 11/11/11 9/9/9 12/12/12
f 9/9/9 13/13/13 12/12/12
f 14/14/14 13/13/13 9/9/9
f 15/15/15 11/11/11 12/12/12
f 16/16/16 11/11/11 15/15/15
f 18/18/18 17/17/17 19/19/19
f 21/21/21 20/20/20 22/22/22
f 24/24/24 23/23/23 25/25/25
f 27/27/27 26/26/26 28/28/28
f 30/30/30 29/29/29 31/31/31
f 33/33/33 32/32/32 34/34/34
f 36/36/36 35/35/35 37/37/37
f 39/39/39 38/38/38 40/40/40
f 42/42/42 41/41/41 43/43/43
f 45/45/45 44/44/44 46/46/46
f 48/48/48 47/47/47 49/49/49
f 49/49/49 47/47/47 50/50/50
f 49/49/49 50/50/50 51/51/51
f 52/52/52 51/51/51 50/50/50
f 53/53/53 49/49/49 51/51/51
f 53/53/53 51/51/51 54/54/54
f 51/51/51 55/55/55 54/54/54
f 56/56/56 54/54/54 55/55/55
f 58/58/58 57/57/57 59/59/59
f 59/59/59 57/57/57 60/60/60
f 59/59/59 60/60/60 61/61/61
f 61/61/61 60/60/60 62/62/62
f 63/63/63 59/59/59 61/61/61
f 59/59/59 63/63/63 64/64/64
f 65/65/65 59/59/59 64/64/64
f 67/67/67 66/66/66 68/68/68
f 68/68/68 66/66/66 69/69/69
f 71/71/71 70/70/70 72/72/72
f 70/70/70 71/71/71 73/73/73
f 74/74/74 70/70/70 73/73/73
f 74/74/74 73/73/73 75/75/75
f 73/73/73 76/76/76 75/75/75
f 77/77/77 75/75/75 76/76/76
f 75/75/75 77/77/77 78/78/78
f 79/79/79 75/75/75 78/78/78
f 80/80/80 78/78/78 77/77/77
f 78/78/78 80/80/80 81/81/81
f 83/83/83 82/82/82 84/84/84
f 85/85/85 84/84/84 82/82/82
f 86/86/86 85/85/85 82/82/82
f 88/88/88 87/87/87 89/89/89
f 89/89/89 87/87/87 90/90/90
f 92/92/92 91/91/91 90/90/90
f 90/90/90 91/91/91 93/93/93
f 91/91/91 94/94/94 93/93/93
f 95/95/95 93/93/93 94/94/94
f 96/96/96 95/95/95 94/94/94
f 96/96/96 97/97/97 95/95/95
f 98/98/98 95/95/95 97/97/97
f 99/99/99 98/98/98 97/97/97
f 100/100/100 98/98/98 101/101/101
f 101/101/101 98/98/98 102/102/102
f 104/104/104 103/103/103 105/105/105
f 105/105/105 103/103/103 106/106/106
f 108/108/108 107/107/107 109/109/109
f 110/110/110 107/107/107 108/108/108
f 111/111/111 107/107/107 110/110/110
f 112/112/112 111/111/111 110/110/110
f 113/113/113 111/111/111 112/112/112
f 111/111/111 114/114/114 107/107/107
f 107/107/107 114/114/114 115/115/115
f 117/117/117 116/116/116 118/118/118
f 118/118/118 116/116/116 119/119/119
f 121/121/121 120/120/120 122/122/122
f 122/122/122 120/120/120 123/123/123
f 125/125/125 124/124/124 126/126/126
f 126/126/126 124/124/124 127/127/127
f 124/124/124 128/128/128 127/127/127
f 127/127/127 128/128/128 129/129/129
f 128/128/128 130/130/130 129/129/129
f 131/131/131 130/130/130 128/128/128
f 133/133/133 132/132/132 134/134/134
f 134/134/134 132/132/132 135/135/135
f 137/137/137 136/136/136 138/138/138
f 138/138/138 136/136/136 139/139/139
f 141/141/141 140/140/140 142/142/142
f 142/142/142 140/140/140 143/143/143
f 145/145/145 144/144/144 146/146/146
f 144/144/144 147/147/147 146/146/146
f 147/147/147 148/148/148 146/146/146
f 148/148/148 149/149/149 146/146/146
f 146/146/146 149/149/149 150/150/150
f 152/152/152 151/151/151 153/153/153
f 153/153/153 151/151/151 154/154/154
f 156/156/156 155/155/155 157/157/157
f 155/155/155 156/156/156 158/158/158
f 158/158/158 156/156/156 159/159/159
f 159/159/159 156/156/156 160/160/160
f 161/161/161 160/160/160 156/156/156
f 162/162/162 159/159/159 160/160/160
f 164/164/164 163/163/163 165/165/165
f 165/165/165 163/163/163 166/166/166
f 168/168/168 167/167/167 169/169/169
f 167/167/167 170/170/170 169/169/169
f 170/170/170 171/171/171 169/169/169
f 169/169/169 171/171/171 172/172/172
f 174/174/174 173/173/173 175/175/175
f 175/175/175 173/173/173 176/176/176
f 178/178/178 177/177/177 179/179/179
f 180/180/180 179/179/179 177/177/177
f 181/181/181 180/180/180 177/177/177
f 183/183/183 182/182/182 184/184/184
f 184/184/184 182/182/182 185/185/185
f 187/187/187 186/186/186 188/188/188
f 188/188/188 186/186/186 189/189/189
f 186/186/186 190/190/190 189/189/189
f 190/190/190 191/191/191 189/189/189
f 192/192/192 189/189/189 191/191/191
f 191/191/191 193/193/193 192/192/192
f 193/193/193 194/194/194 192/192/192
f 195/195/195 192/192/192 194/194/194
f 197/197/197 196/196/196 198/198/198
f 198/198/198 196/196/196 199/199/199
