mtllib ./SM_Prop_Church_Podium_01_67.mtl
g SM_Prop_Church_Podium_01
v -0.4592394 1.102592 0.03540421
v -0.4592385 1.097349 -0.08541393
v -0.3770058 1.12985 0.02607727
v 0.4592393 1.064168 -0.1992359
v 0.3660176 1.046356 -0.2603397
v 0.4592393 1.026373 -0.2558031
v -0.4592385 1.158816 0.1254416
v -0.4592394 1.102592 0.03540421
v -0.3770058 1.12985 0.02607727
v 0.3350538 0.7396123 0.1647978
v 0.3350529 0.60703 0.1940327
v 0.2806792 0.727526 0.1940327
v 0.3350529 0.8441637 0.1940327
v 0.3350538 0.7396123 0.1647978
v 0.2806792 0.727526 0.1940327
v -0.3350527 0.3536488 -0.1839428
v -0.2752173 0.4773327 -0.1839428
v -0.3350536 0.4883805 -0.1555071
v -0.2752173 0.4773327 -0.1839428
v -0.3350527 0.5776778 -0.1839428
v -0.3350536 0.4883805 -0.1555071
v -0.3881249 0.1402061 0.2239714
v -0.3350527 0.1861644 0.1940327
v 0.3350529 0.1861644 0.1940327
v 0.388126 0.1402061 0.2239714
v -0.3350527 0.1861645 -0.1839428
v -0.3881249 0.1402061 -0.2138863
v 0.388126 0.1402061 -0.2138863
v 0.3350529 0.1861645 -0.1839428
v -0.3881249 0 -0.2138863
v -0.3881249 0 0.2239714
v 0.388126 0 0.2239714
v 0.388126 0 -0.2138863
v 0.388126 0.1402061 0.2239714
v 0.3350529 0.1861644 0.1940327
v 0.3350529 0.1861645 -0.1839428
v 0.388126 0.1402061 -0.2138863
v -0.3881249 0.1402061 -0.2138863
v -0.3350527 0.1861645 -0.1839428
v -0.3350527 0.1861644 0.1940327
v -0.3881249 0.1402061 0.2239714
v -0.3881249 0 -0.2138863
v -0.3881249 0.1402061 -0.2138863
v -0.3881249 0.1402061 0.2239714
v -0.3881249 0 0.2239714
v -0.3881249 0 0.2239714
v -0.3881249 0.1402061 0.2239714
v 0.388126 0.1402061 0.2239714
v 0.388126 0 0.2239714
v 0.388126 0 0.2239714
v 0.388126 0.1402061 0.2239714
v 0.388126 0.1402061 -0.2138863
v 0.388126 0 -0.2138863
v -0.3881249 0.1402061 -0.2138863
v -0.3881249 0 -0.2138863
v 0.388126 0 -0.2138863
v 0.388126 0.1402061 -0.2138863
v -0.1805217 0.2687463 0.1696024
v -0.1904831 0.9114478 0.1696024
v 0.1904842 0.9114478 0.1696024
v 0.1904842 0.2518377 0.1696024
v -0.2917421 0.2518378 -0.09445763
v -0.2917421 0.9114478 -0.09445763
v -0.2917421 0.9032661 0.1000786
v -0.2917421 0.2518377 0.1045427
v -0.1904833 0.9114478 -0.1595163
v -0.1784196 0.2612591 -0.1595163
v 0.1904842 0.2518378 -0.1595163
v 0.1904842 0.9114478 -0.1595163
v 0.2917427 0.2518377 0.1045427
v 0.2917427 0.9052577 0.09618092
v 0.2917427 0.9114478 -0.09445763
v 0.2917427 0.2518378 -0.09445763
v -0.3350527 0.9771212 0.1940327
v -0.3876459 1.139355 0.2212296
v 0.3876467 1.139355 0.2212296
v 0.3350529 0.9910344 0.1940327
v 0.3350529 0.9910344 0.1940327
v 0.3876467 1.139355 0.2212296
v 0.3876467 1.013314 -0.2111425
v 0.3350529 0.9771212 -0.1839428
v 0.3350529 0.9771212 -0.1839428
v 0.3876467 1.013314 -0.2111425
v -0.3876459 1.013314 -0.2111425
v -0.3350527 0.9771212 -0.1839428
v -0.3350527 0.9771212 -0.1839428
v -0.3876459 1.013314 -0.2111425
v -0.3876459 1.139355 0.2212296
v -0.3350527 0.9771212 0.1940327
v -0.2166997 0.246309 0.1940327
v -0.1805217 0.2687463 0.1696024
v 0.1904842 0.2518377 0.1696024
v 0.2259259 0.2294003 0.1940327
v 0.2259259 0.2294003 0.1940327
v 0.1904842 0.2518377 0.1696024
v 0.1904842 0.9114478 0.1696024
v 0.2259259 0.9338853 0.1940327
v 0.2259259 0.9338853 0.1940327
v 0.1904842 0.9114478 0.1696024
v -0.1904831 0.9114478 0.1696024
v -0.225925 0.9338853 0.1940327
v -0.225925 0.9338853 0.1940327
v -0.1904831 0.9114478 0.1696024
v -0.1805217 0.2687463 0.1696024
v -0.2166997 0.246309 0.1940327
v -0.3350527 0.2294005 -0.1223907
v -0.2917421 0.2518378 -0.09445763
v -0.2917421 0.2518377 0.1045427
v -0.3350527 0.2294003 0.1324749
v -0.3350527 0.2294003 0.1324749
v -0.2917421 0.2518377 0.1045427
v -0.2917421 0.9032661 0.1000786
v -0.3350527 0.9257034 0.1280107
v -0.3350527 0.9257034 0.1280107
v -0.2917421 0.9032661 0.1000786
v -0.2917421 0.9114478 -0.09445763
v -0.3350527 0.9338853 -0.1223907
v -0.3350527 0.9338853 -0.1223907
v -0.2917421 0.9114478 -0.09445763
v -0.2917421 0.2518378 -0.09445763
v -0.3350527 0.2294005 -0.1223907
v -0.225925 0.9338853 -0.1839428
v -0.1904833 0.9114478 -0.1595163
v 0.1904842 0.9114478 -0.1595163
v 0.2259259 0.9338853 -0.1839428
v 0.2259259 0.9338853 -0.1839428
v 0.1904842 0.9114478 -0.1595163
v 0.1904842 0.2518378 -0.1595163
v 0.2259259 0.2294005 -0.1839428
v 0.2259259 0.2294005 -0.1839428
v 0.1904842 0.2518378 -0.1595163
v -0.1784196 0.2612591 -0.1595163
v -0.214753 0.2388218 -0.1839428
v -0.214753 0.2388218 -0.1839428
v -0.1784196 0.2612591 -0.1595163
v -0.1904833 0.9114478 -0.1595163
v -0.225925 0.9338853 -0.1839428
v 0.3350529 0.2294003 0.1324749
v 0.2917427 0.2518377 0.1045427
v 0.2917427 0.2518378 -0.09445763
v 0.3350529 0.2294005 -0.1223907
v 0.3350529 0.2294005 -0.1223907
v 0.2917427 0.2518378 -0.09445763
v 0.2917427 0.9114478 -0.09445763
v 0.3350529 0.9338853 -0.1223907
v 0.3350529 0.9338853 -0.1223907
v 0.2917427 0.9114478 -0.09445763
v 0.2917427 0.9052577 0.09618092
v 0.3350529 0.927695 0.1241131
v 0.3350529 0.927695 0.1241131
v 0.2917427 0.9052577 0.09618092
v 0.2917427 0.2518377 0.1045427
v 0.3350529 0.2294003 0.1324749
v -0.4592385 1.150756 0.2603397
v -0.4592385 1.195199 0.2502518
v 0.4592393 1.195199 0.2502518
v 0.4592393 1.150756 0.2603397
v 0.4592393 1.026373 -0.2558031
v 0.4592393 1.001913 -0.2502527
v 0.4592393 1.150756 0.2603397
v 0.4592393 1.064168 -0.1992359
v 0.4592393 1.195199 0.2502518
v -0.4592385 1.001913 -0.2502527
v 0.4592393 1.001913 -0.2502527
v 0.4592393 1.026373 -0.2558031
v 0.3660176 1.046356 -0.2603397
v -0.4592385 1.046356 -0.2603397
v -0.4592385 1.001913 -0.2502527
v -0.4592385 1.046356 -0.2603397
v -0.4592385 1.097349 -0.08541393
v -0.4592394 1.102592 0.03540421
v -0.4592385 1.150756 0.2603397
v -0.4592385 1.195199 0.2502518
v -0.4592385 1.158816 0.1254416
v 0.3660176 1.046356 -0.2603397
v 0.4592393 1.064168 -0.1992359
v 0.4592393 1.195199 0.2502518
v -0.3770058 1.12985 0.02607727
v -0.4592385 1.046356 -0.2603397
v -0.4592385 1.097349 -0.08541393
v -0.4592385 1.158816 0.1254416
v -0.4592385 1.195199 0.2502518
v 0.3350529 0.9910344 0.1940327
v 0.3350538 0.7396123 0.1647978
v 0.3350529 0.8441637 0.1940327
v 0.3350529 0.927695 0.1241131
v 0.3350529 0.9771212 -0.1839428
v 0.3350529 0.9338853 -0.1223907
v 0.3350529 0.1861645 -0.1839428
v 0.3350529 0.2294005 -0.1223907
v 0.3350529 0.1861644 0.1940327
v 0.3350529 0.2294003 0.1324749
v 0.3350529 0.60703 0.1940327
v 0.3350529 0.1861644 0.1940327
v 0.2806792 0.727526 0.1940327
v 0.3350529 0.60703 0.1940327
v 0.2259259 0.2294003 0.1940327
v -0.3350527 0.1861644 0.1940327
v -0.2166997 0.246309 0.1940327
v -0.3350527 0.9771212 0.1940327
v -0.225925 0.9338853 0.1940327
v 0.3350529 0.9910344 0.1940327
v 0.2259259 0.9338853 0.1940327
v 0.3350529 0.8441637 0.1940327
v -0.3350527 0.1861645 -0.1839428
v -0.2752173 0.4773327 -0.1839428
v -0.3350527 0.3536488 -0.1839428
v -0.214753 0.2388218 -0.1839428
v 0.3350529 0.1861645 -0.1839428
v 0.2259259 0.2294005 -0.1839428
v 0.3350529 0.9771212 -0.1839428
v 0.2259259 0.9338853 -0.1839428
v -0.3350527 0.9771212 -0.1839428
v -0.225925 0.9338853 -0.1839428
v -0.3350527 0.5776778 -0.1839428
v -0.3350527 0.9771212 -0.1839428
v -0.3350536 0.4883805 -0.1555071
v -0.3350527 0.5776778 -0.1839428
v -0.3350527 0.9338853 -0.1223907
v -0.3350527 0.9771212 0.1940327
v -0.3350527 0.9257034 0.1280107
v -0.3350527 0.1861644 0.1940327
v -0.3350527 0.2294003 0.1324749
v -0.3350527 0.1861645 -0.1839428
v -0.3350527 0.2294005 -0.1223907
v -0.3350527 0.3536488 -0.1839428
v -0.3876459 1.139355 0.2212296
v -0.4592385 1.150756 0.2603397
v 0.4592393 1.150756 0.2603397
v 0.3876467 1.139355 0.2212296
v -0.3876459 1.013314 -0.2111425
v 0.4592393 1.001913 -0.2502527
v -0.4592385 1.001913 -0.2502527
v 0.3876467 1.013314 -0.2111425

vn -0.3185728 0.9470071 -0.04109543
vn -0.3185728 0.9470071 -0.04109543
vn -0.3185728 0.9470071 -0.04109543
vn 0.2010812 0.8144938 -0.5442114
vn 0.2010812 0.8144938 -0.5442114
vn 0.2010812 0.8144938 -0.5442114
vn -0.3229514 0.8027573 -0.5012815
vn -0.3229514 0.8027573 -0.5012815
vn -0.3229514 0.8027573 -0.5012815
vn 0.4306629 0.1943364 0.8813415
vn 0.4306629 0.1943364 0.8813415
vn 0.4306629 0.1943364 0.8813415
vn 0.5001968 -0.2331798 0.8339247
vn 0.5001968 -0.2331798 0.8339247
vn 0.5001968 -0.2331798 0.8339247
vn -0.3925851 0.1899236 -0.8998922
vn -0.3925851 0.1899236 -0.8998922
vn -0.3925851 0.1899236 -0.8998922
vn -0.4535079 -0.2704252 -0.8492355
vn -0.4535079 -0.2704252 -0.8492355
vn -0.4535079 -0.2704252 -0.8492355
vn 0 0.5458319 0.8378947
vn 0 0.5458319 0.8378947
vn 0 0.5458319 0.8378947
vn 0 0.5458319 0.8378947
vn 0 0.5458923 -0.8378553
vn 0 0.5458923 -0.8378553
vn 0 0.5458923 -0.8378553
vn 0 0.5458923 -0.8378553
vn 0 -1 0
vn 0 -1 0
vn 0 -1 0
vn 0 -1 0
vn 0.6546183 0.7559596 0
vn 0.6546183 0.7559596 0
vn 0.6546183 0.7559596 0
vn 0.6546183 0.7559596 0
vn -0.6546242 0.7559544 0
vn -0.6546242 0.7559544 0
vn -0.6546242 0.7559544 0
vn -0.6546242 0.7559544 0
vn -1 0 0
vn -1 0 0
vn -1 0 0
vn -1 0 0
vn 0 0 1
vn 0 0 1
vn 0 0 1
vn 0 0 1
vn 1 0 0
vn 1 0 0
vn 1 0 0
vn 1 0 0
vn 0 0 -1
vn 0 0 -1
vn 0 0 -1
vn 0 0 -1
vn 0 0 1
vn 0 0 1
vn 0 0 1
vn 0 0 1
vn -1 0 0
vn -1 0 0
vn -1 0 0
vn -1 0 0
vn 0 0 -1
vn 0 0 -1
vn 0 0 -1
vn 0 0 -1
vn 1 0 0
vn 1 0 0
vn 1 0 0
vn 1 0 0
vn 0.001660694 -0.1725235 0.9850039
vn 0.001660694 -0.1725235 0.9850039
vn 0.001660694 -0.1725235 0.9850039
vn 0.001660694 -0.1725235 0.9850039
vn 0.8655875 -0.4934524 0.08522394
vn 0.8655875 -0.4934524 0.08522394
vn 0.8655875 -0.4934524 0.08522394
vn 0.8655875 -0.4934524 0.08522394
vn 0 -0.6007794 -0.7994148
vn 0 -0.6007794 -0.7994148
vn 0 -0.6007794 -0.7994148
vn 0 -0.6007794 -0.7994148
vn -0.8812011 -0.4671249 0.07265662
vn -0.8812011 -0.4671249 0.07265662
vn -0.8812011 -0.4671249 0.07265662
vn -0.8812011 -0.4671249 0.07265662
vn 0.0305879 0.7359348 0.6763611
vn 0.0305879 0.7359348 0.6763611
vn 0.0305879 0.7359348 0.6763611
vn 0.0305879 0.7359348 0.6763611
vn -0.567539 0 0.8233465
vn -0.567539 0 0.8233465
vn -0.567539 0 0.8233465
vn -0.567539 0 0.8233465
vn 0 -0.7365078 0.676429
vn 0 -0.7365078 0.676429
vn 0 -0.7365078 0.676429
vn 0 -0.7365078 0.676429
vn 0.5635451 0.008128025 0.8260453
vn 0.5635451 0.008128025 0.8260453
vn 0.5635451 0.008128025 0.8260453
vn 0.5635451 0.008128025 0.8260453
vn -0.4599937 0.8879222 0
vn -0.4599937 0.8879222 0
vn -0.4599937 0.8879222 0
vn -0.4599937 0.8879222 0
vn -0.5419791 -0.005567212 -0.8403736
vn -0.5419791 -0.005567212 -0.8403736
vn -0.5419791 -0.005567212 -0.8403736
vn -0.5419791 -0.005567212 -0.8403736
vn -0.4597487 -0.8874491 -0.03263782
vn -0.4597487 -0.8874491 -0.03263782
vn -0.4597487 -0.8874491 -0.03263782
vn -0.4597487 -0.8874491 -0.03263782
vn -0.5420004 0 0.8403782
vn -0.5420004 0 0.8403782
vn -0.5420004 0 0.8403782
vn -0.5420004 0 0.8403782
vn 0 -0.7364551 -0.6764863
vn 0 -0.7364551 -0.6764863
vn 0 -0.7364551 -0.6764863
vn 0 -0.7364551 -0.6764863
vn -0.567479 0 -0.8233879
vn -0.567479 0 -0.8233879
vn -0.567479 0 -0.8233879
vn -0.567479 0 -0.8233879
vn 0.01713449 0.7361928 -0.6765549
vn 0.01713449 0.7361928 -0.6765549
vn 0.01713449 0.7361928 -0.6765549
vn 0.01713449 0.7361928 -0.6765549
vn 0.5626446 0.009718196 -0.8266418
vn 0.5626446 0.009718196 -0.8266418
vn 0.5626446 0.009718196 -0.8266418
vn 0.5626446 0.009718196 -0.8266418
vn 0.4599969 0.8879206 0
vn 0.4599969 0.8879206 0
vn 0.4599969 0.8879206 0
vn 0.4599969 0.8879206 0
vn 0.5420039 0 0.840376
vn 0.5420039 0 0.840376
vn 0.5420039 0 0.840376
vn 0.5420039 0 0.840376
vn 0.4598522 -0.8876395 -0.02513881
vn 0.4598522 -0.8876395 -0.02513881
vn 0.4598522 -0.8876395 -0.02513881
vn 0.4598522 -0.8876395 -0.02513881
vn 0.5419616 -0.01039681 -0.8403389
vn 0.5419616 -0.01039681 -0.8403389
vn 0.5419616 -0.01039681 -0.8403389
vn 0.5419616 -0.01039681 -0.8403389
vn 0 0.221357 0.9751928
vn 0 0.221357 0.9751928
vn 0 0.221357 0.9751928
vn 0 0.221357 0.9751928
vn 1 0 0
vn 1 0 0
vn 1 0 0
vn 1 0 0
vn 1 0 0
vn 0 -0.2213368 -0.9751975
vn 0 -0.2212956 -0.9752068
vn 0 -0.2213366 -0.9751975
vn 0 -0.2213573 -0.9751927
vn 0 -0.2213371 -0.9751974
vn -1 -2.138793E-05 5.138163E-06
vn -1 0 0
vn -1 0 0
vn -1 -1.1485E-05 3.591149E-06
vn -1 -2.104255E-05 7.595499E-06
vn -1 0 0
vn -1 0 0
vn 0 0.9600399 -0.2798633
vn 0 0.96004 -0.2798627
vn 0 0.9600403 -0.2798618
vn 0 0.9600402 -0.2798626
vn 0 0.9600397 -0.279864
vn 0 0.9600397 -0.279864
vn 0 0.9600406 -0.2798609
vn 0 0.9600406 -0.2798609
vn 1 0 0
vn 1 0 -3.769851E-06
vn 1 0 0
vn 1 0 -6.111731E-06
vn 1 0 0
vn 1 0 0
vn 1 0 0
vn 1 0 0
vn 1 0 0
vn 1 0 -4.936976E-06
vn 1 0 0
vn 0 0 1
vn 0 0 1
vn 0 0 1
vn 0 0 1
vn 0 0 1
vn 0 0 1
vn 0 0 1
vn 0 0 1
vn 0 0 1
vn 0 0 1
vn 0 0 1
vn 0 0 -1
vn 0 0 -1
vn 0 0 -1
vn 0 0 -1
vn 0 0 -1
vn 0 0 -1
vn 0 0 -1
vn 0 0 -1
vn 0 0 -1
vn 0 0 -1
vn 0 0 -1
vn -1 0 0
vn -1 0 4.399026E-06
vn -1 0 0
vn -1 0 5.969282E-06
vn -1 0 0
vn -1 0 0
vn -1 0 0
vn -1 0 0
vn -1 0 0
vn -1 0 6.877069E-06
vn -1 0 0
vn 0 -0.9600406 0.2798607
vn 0 -0.9600406 0.2798607
vn 0 -0.9600406 0.2798607
vn 0 -0.9600406 0.2798607
vn 0 -0.9600411 0.2798589
vn 0 -0.9600411 0.2798589
vn 0 -0.9600411 0.2798589
vn 0 -0.9600411 0.2798589

vt 0.2102191 0.2770405
vt 0.2102192 0.2770405
vt 0.2102192 0.2770405
vt 0.2102192 0.2770405
vt 0.2102192 0.2770405
vt 0.2102192 0.2770405
vt 0.2102191 0.2770405
vt 0.2102191 0.2770405
vt 0.2102192 0.2770405
vt 0.2102192 0.2770405
vt 0.2102192 0.2770405
vt 0.2102192 0.2770405
vt 0.2102192 0.2770405
vt 0.2102192 0.2770405
vt 0.2102192 0.2770405
vt 0.2102192 0.2770405
vt 0.2102192 0.2770405
vt 0.2102192 0.2770405
vt 0.2102192 0.2770405
vt 0.2102192 0.2770405
vt 0.2102192 0.2770405
vt 0.2102192 0.2770406
vt 0.2102192 0.2770406
vt 0.2102192 0.2770406
vt 0.2102192 0.2770406
vt 0.2102192 0.2770406
vt 0.2102192 0.2770406
vt 0.2102192 0.2770406
vt 0.2102192 0.2770406
vt 0.2102192 0.2770406
vt 0.2102192 0.2770406
vt 0.2102192 0.2770406
vt 0.2102192 0.2770406
vt 0.2102192 0.2770406
vt 0.2102192 0.2770406
vt 0.2102192 0.2770406
vt 0.2102192 0.2770406
vt 0.2102192 0.2770406
vt 0.2102192 0.2770406
vt 0.2102192 0.2770406
vt 0.2102192 0.2770406
vt 0.2102192 0.2770406
vt 0.2102192 0.2770406
vt 0.2102192 0.2770406
vt 0.2102192 0.2770406
vt 0.2102192 0.2770406
vt 0.2102192 0.2770406
vt 0.2102192 0.2770406
vt 0.2102192 0.2770406
vt 0.2102192 0.2770406
vt 0.2102192 0.2770406
vt 0.2102192 0.2770406
vt 0.2102192 0.2770406
vt 0.2102192 0.2770406
vt 0.2102192 0.2770406
vt 0.2102192 0.2770406
vt 0.2102192 0.2770406
vt 0.2102192 0.2770406
vt 0.2102192 0.2770405
vt 0.2102192 0.2770405
vt 0.2102192 0.2770406
vt 0.2102192 0.2770406
vt 0.2102192 0.2770405
vt 0.2102192 0.2770405
vt 0.2102192 0.2770406
vt 0.2102192 0.2770405
vt 0.2102192 0.2770406
vt 0.2102192 0.2770406
vt 0.2102192 0.2770405
vt 0.2102192 0.2770406
vt 0.2102192 0.2770405
vt 0.2102192 0.2770405
vt 0.2102192 0.2770406
vt 0.2102192 0.2770405
vt 0.2102192 0.2770405
vt 0.2102192 0.2770405
vt 0.2102192 0.2770405
vt 0.2102192 0.2770405
vt 0.2102192 0.2770405
vt 0.2102192 0.2770405
vt 0.2102192 0.2770405
vt 0.2102192 0.2770405
vt 0.2102192 0.2770405
vt 0.2102192 0.2770405
vt 0.2102192 0.2770405
vt 0.2102192 0.2770405
vt 0.2102192 0.2770405
vt 0.2102192 0.2770405
vt 0.2102192 0.2770405
vt 0.2102192 0.2770406
vt 0.2102192 0.2770406
vt 0.2102192 0.2770406
vt 0.2102192 0.2770406
vt 0.2102192 0.2770406
vt 0.2102192 0.2770406
vt 0.2102192 0.2770405
vt 0.2102192 0.2770405
vt 0.2102192 0.2770405
vt 0.2102192 0.2770405
vt 0.2102192 0.2770405
vt 0.2102192 0.2770405
vt 0.2102192 0.2770405
vt 0.2102192 0.2770405
vt 0.2102192 0.2770406
vt 0.2102192 0.2770406
vt 0.2102192 0.2770406
vt 0.2102192 0.2770406
vt 0.2102192 0.2770406
vt 0.2102192 0.2770406
vt 0.2102192 0.2770406
vt 0.2102192 0.2770406
vt 0.2102192 0.2770405
vt 0.2102192 0.2770405
vt 0.2102192 0.2770405
vt 0.2102192 0.2770405
vt 0.2102192 0.2770405
vt 0.2102192 0.2770405
vt 0.2102192 0.2770405
vt 0.2102192 0.2770405
vt 0.2102192 0.2770406
vt 0.2102192 0.2770406
vt 0.2102192 0.2770405
vt 0.2102192 0.2770405
vt 0.2102192 0.2770405
vt 0.2102192 0.2770405
vt 0.2102192 0.2770405
vt 0.2102192 0.2770405
vt 0.2102192 0.2770406
vt 0.2102192 0.2770406
vt 0.2102192 0.2770406
vt 0.2102192 0.2770406
vt 0.2102192 0.2770406
vt 0.2102192 0.2770406
vt 0.2102192 0.2770406
vt 0.2102192 0.2770406
vt 0.2102192 0.2770405
vt 0.2102192 0.2770405
vt 0.2102192 0.2770406
vt 0.2102192 0.2770406
vt 0.2102192 0.2770406
vt 0.2102192 0.2770406
vt 0.2102192 0.2770406
vt 0.2102192 0.2770406
vt 0.2102192 0.2770405
vt 0.2102192 0.2770405
vt 0.2102192 0.2770405
vt 0.2102192 0.2770405
vt 0.2102192 0.2770405
vt 0.2102192 0.2770405
vt 0.2102192 0.2770405
vt 0.2102192 0.2770405
vt 0.2102192 0.2770406
vt 0.2102192 0.2770406
vt 0.2102192 0.2770405
vt 0.2102192 0.2770405
vt 0.2102192 0.2770405
vt 0.2102192 0.2770405
vt 0.2102192 0.2770405
vt 0.2102192 0.2770405
vt 0.2102192 0.2770405
vt 0.2102192 0.2770405
vt 0.2102192 0.2770405
vt 0.2102192 0.2770405
vt 0.2102192 0.2770405
vt 0.2102192 0.2770405
vt 0.2102192 0.2770405
vt 0.2102192 0.2770405
vt 0.2102192 0.2770405
vt 0.2102192 0.2770405
vt 0.2102192 0.2770405
vt 0.2102191 0.2770405
vt 0.2102192 0.2770405
vt 0.2102192 0.2770405
vt 0.2102191 0.2770405
vt 0.2102192 0.2770405
vt 0.2102192 0.2770405
vt 0.2102192 0.2770405
vt 0.2102192 0.2770405
vt 0.2102192 0.2770405
vt 0.2102192 0.2770405
vt 0.2102191 0.2770405
vt 0.2102192 0.2770405
vt 0.2102192 0.2770405
vt 0.2102192 0.2770405
vt 0.2102192 0.2770405
vt 0.2102192 0.2770405
vt 0.2102192 0.2770405
vt 0.2102192 0.2770405
vt 0.2102192 0.2770406
vt 0.2102192 0.2770406
vt 0.2102192 0.2770406
vt 0.2102192 0.2770406
vt 0.2102192 0.2770405
vt 0.2102192 0.2770406
vt 0.2102192 0.2770405
vt 0.2102192 0.2770405
vt 0.2102192 0.2770406
vt 0.2102192 0.2770406
vt 0.2102192 0.2770406
vt 0.2102192 0.2770405
vt 0.2102192 0.2770405
vt 0.2102192 0.2770405
vt 0.2102192 0.2770405
vt 0.2102192 0.2770405
vt 0.2102192 0.2770406
vt 0.2102192 0.2770405
vt 0.2102192 0.2770405
vt 0.2102192 0.2770406
vt 0.2102192 0.2770406
vt 0.2102192 0.2770406
vt 0.2102192 0.2770405
vt 0.2102192 0.2770405
vt 0.2102192 0.2770405
vt 0.2102192 0.2770405
vt 0.2102192 0.2770405
vt 0.2102192 0.2770405
vt 0.2102192 0.2770405
vt 0.2102192 0.2770405
vt 0.2102192 0.2770405
vt 0.2102192 0.2770405
vt 0.2102192 0.2770405
vt 0.2102192 0.2770406
vt 0.2102192 0.2770406
vt 0.2102192 0.2770406
vt 0.2102192 0.2770406
vt 0.2102192 0.2770405
vt 0.2102192 0.2770405
vt 0.2102192 0.2770405
vt 0.2102192 0.2770405
vt 0.2102192 0.2770405
vt 0.2102192 0.2770405
vt 0.2102192 0.2770405
vt 0.2102192 0.2770405
vt 0.2102192 0.2770405

usemtl PolygonWestern_Material_01_A
usemap PolygonWestern_Material_01_A
f 2/2/2 1/1/1 3/3/3
f 5/5/5 4/4/4 6/6/6
f 8/8/8 7/7/7 9/9/9
f 11/11/11 10/10/10 12/12/12
f 14/14/14 13/13/13 15/15/15
f 17/17/17 16/16/16 18/18/18
f 20/20/20 19/19/19 21/21/21
f 23/23/23 22/22/22 24/24/24
f 24/24/24 22/22/22 25/25/25
f 27/27/27 26/26/26 28/28/28
f 28/28/28 26/26/26 29/29/29
f 31/31/31 30/30/30 32/32/32
f 32/32/32 30/30/30 33/33/33
f 35/35/35 34/34/34 36/36/36
f 36/36/36 34/34/34 37/37/37
f 39/39/39 38/38/38 40/40/40
f 40/40/40 38/38/38 41/41/41
f 43/43/43 42/42/42 44/44/44
f 44/44/44 42/42/42 45/45/45
f 47/47/47 46/46/46 48/48/48
f 48/48/48 46/46/46 49/49/49
f 51/51/51 50/50/50 52/52/52
f 52/52/52 50/50/50 53/53/53
f 55/55/55 54/54/54 56/56/56
f 56/56/56 54/54/54 57/57/57
f 59/59/59 58/58/58 60/60/60
f 60/60/60 58/58/58 61/61/61
f 63/63/63 62/62/62 64/64/64
f 64/64/64 62/62/62 65/65/65
f 67/67/67 66/66/66 68/68/68
f 68/68/68 66/66/66 69/69/69
f 71/71/71 70/70/70 72/72/72
f 72/72/72 70/70/70 73/73/73
f 75/75/75 74/74/74 76/76/76
f 76/76/76 74/74/74 77/77/77
f 79/79/79 78/78/78 80/80/80
f 80/80/80 78/78/78 81/81/81
f 83/83/83 82/82/82 84/84/84
f 84/84/84 82/82/82 85/85/85
f 87/87/87 86/86/86 88/88/88
f 88/88/88 86/86/86 89/89/89
f 91/91/91 90/90/90 92/92/92
f 92/92/92 90/90/90 93/93/93
f 95/95/95 94/94/94 96/96/96
f 96/96/96 94/94/94 97/97/97
f 99/99/99 98/98/98 100/100/100
f 100/100/100 98/98/98 101/101/101
f 103/103/103 102/102/102 104/104/104
f 104/104/104 102/102/102 105/105/105
f 107/107/107 106/106/106 108/108/108
f 108/108/108 106/106/106 109/109/109
f 111/111/111 110/110/110 112/112/112
f 112/112/112 110/110/110 113/113/113
f 115/115/115 114/114/114 116/116/116
f 116/116/116 114/114/114 117/117/117
f 119/119/119 118/118/118 120/120/120
f 120/120/120 118/118/118 121/121/121
f 123/123/123 122/122/122 124/124/124
f 124/124/124 122/122/122 125/125/125
f 127/127/127 126/126/126 128/128/128
f 128/128/128 126/126/126 129/129/129
f 131/131/131 130/130/130 132/132/132
f 132/132/132 130/130/130 133/133/133
f 135/135/135 134/134/134 136/136/136
f 136/136/136 134/134/134 137/137/137
f 139/139/139 138/138/138 140/140/140
f 140/140/140 138/138/138 141/141/141
f 143/143/143 142/142/142 144/144/144
f 144/144/144 142/142/142 145/145/145
f 147/147/147 146/146/146 148/148/148
f 148/148/148 146/146/146 149/149/149
f 151/151/151 150/150/150 152/152/152
f 152/152/152 150/150/150 153/153/153
f 155/155/155 154/154/154 156/156/156
f 156/156/156 154/154/154 157/157/157
f 159/159/159 158/158/158 160/160/160
f 161/161/161 160/160/160 158/158/158
f 162/162/162 160/160/160 161/161/161
f 164/164/164 163/163/163 165/165/165
f 166/166/166 165/165/165 163/163/163
f 167/167/167 166/166/166 163/163/163
f 169/169/169 168/168/168 170/170/170
f 170/170/170 168/168/168 171/171/171
f 171/171/171 168/168/168 172/172/172
f 173/173/173 171/171/171 172/172/172
f 174/174/174 171/171/171 173/173/173
f 176/176/176 175/175/175 177/177/177
f 177/177/177 175/175/175 178/178/178
f 175/175/175 179/179/179 178/178/178
f 178/178/178 179/179/179 180/180/180
f 181/181/181 177/177/177 178/178/178
f 182/182/182 177/177/177 181/181/181
f 184/184/184 183/183/183 185/185/185
f 186/186/186 183/183/183 184/184/184
f 186/186/186 187/187/187 183/183/183
f 188/188/188 187/187/187 186/186/186
f 188/188/188 189/189/189 187/187/187
f 190/190/190 189/189/189 188/188/188
f 190/190/190 191/191/191 189/189/189
f 192/192/192 186/186/186 184/184/184
f 192/192/192 191/191/191 190/190/190
f 193/193/193 192/192/192 184/184/184
f 191/191/191 192/192/192 193/193/193
f 195/195/195 194/194/194 196/196/196
f 197/197/197 194/194/194 195/195/195
f 197/197/197 198/198/198 194/194/194
f 199/199/199 198/198/198 197/197/197
f 199/199/199 200/200/200 198/198/198
f 201/201/201 200/200/200 199/199/199
f 201/201/201 202/202/202 200/200/200
f 203/203/203 197/197/197 195/195/195
f 203/203/203 202/202/202 201/201/201
f 204/204/204 203/203/203 195/195/195
f 202/202/202 203/203/203 204/204/204
f 206/206/206 205/205/205 207/207/207
f 208/208/208 205/205/205 206/206/206
f 208/208/208 209/209/209 205/205/205
f 210/210/210 209/209/209 208/208/208
f 210/210/210 211/211/211 209/209/209
f 212/212/212 211/211/211 210/210/210
f 212/212/212 213/213/213 211/211/211
f 214/214/214 208/208/208 206/206/206
f 214/214/214 213/213/213 212/212/212
f 215/215/215 214/214/214 206/206/206
f 213/213/213 214/214/214 215/215/215
f 217/217/217 216/216/216 218/218/218
f 219/219/219 216/216/216 217/217/217
f 219/219/219 220/220/220 216/216/216
f 221/221/221 220/220/220 219/219/219
f 221/221/221 222/222/222 220/220/220
f 223/223/223 222/222/222 221/221/221
f 223/223/223 224/224/224 222/222/222
f 225/225/225 219/219/219 217/217/217
f 225/225/225 224/224/224 223/223/223
f 226/226/226 225/225/225 217/217/217
f 224/224/224 225/225/225 226/226/226
f 228/228/228 227/227/227 229/229/229
f 229/229/229 227/227/227 230/230/230
f 228/228/228 231/231/231 227/227/227
f 229/229/229 230/230/230 232/232/232
f 233/233/233 231/231/231 228/228/228
f 232/232/232 230/230/230 234/234/234
f 233/233/233 234/234/234 231/231/231
f 232/232/232 234/234/234 233/233/233
