mtllib ./SM_Prop_Cup_01_62.mtl
g SM_Prop_Cup_01
v -0.05854964 0 -8.933966E-07
v 0 0 -8.933966E-07
v -0.04140359 0 -0.0414018
v 0.04140001 0 -0.0414018
v 0.04140001 0.1444247 -0.0414018
v 0 0.1444247 -0.05855053
v 0 0 -0.05855053
v 0 0 -0.05855053
v 0 0.1444247 -0.05855053
v -0.04140359 0.1444247 -0.0414018
v -0.04140359 0 -0.0414018
v -0.04140359 0 -0.0414018
v -0.04140359 0.1444247 -0.0414018
v -0.05854964 0.1444247 -8.933966E-07
v -0.05854964 0 -8.933966E-07
v -0.05854964 0 -8.933966E-07
v -0.05854964 0.1444247 -8.933966E-07
v -0.04140359 0.1444247 0.04140001
v -0.04140359 0 0.04140001
v -0.04140359 0 0.04140001
v -0.04140359 0.1444247 0.04140001
v 0 0.1444247 0.05855053
v 0 0 0.05855053
v 0 0 0.05855053
v 0 0.1444247 0.05855053
v 0.04140001 0.1444247 0.04140001
v 0.04140001 0 0.04140001
v 0.04140001 0 0.04140001
v 0.04140001 0.1444247 0.04140001
v 0.05854964 0.1444247 -8.933966E-07
v 0.05854964 0 -8.933966E-07
v 0.05854964 0 -8.933966E-07
v 0.05854964 0.1444247 -8.933966E-07
v 0.04140001 0.1444247 -0.0414018
v 0.04140001 0 -0.0414018
v -0.04140359 0 -0.0414018
v 0 0 -8.933966E-07
v 0 0 -0.05855053
v 0.04140001 0 -0.0414018
v 0.05854964 0 -8.933966E-07
v 0.04140001 0 0.04140001
v 0 0 0.05855053
v -0.04140359 0 0.04140001
v -0.05854964 0 -8.933966E-07
v 0.03385973 0.1444247 -0.03386062
v 0.03385973 0.01339936 -0.03386062
v 0 0.01339936 -0.04788607
v 0 0.1444247 -0.04788607
v 0 0.1444247 -0.04788607
v 0 0.01339936 -0.04788607
v -0.03386331 0.01339936 -0.03386062
v -0.03386331 0.1444247 -0.03386062
v -0.03386331 0.1444247 -0.03386062
v -0.03386331 0.01339936 -0.03386062
v -0.04788607 0.01339936 -8.933966E-07
v -0.04788607 0.1444247 -8.933966E-07
v -0.04788607 0.1444247 -8.933966E-07
v -0.04788607 0.01339936 -8.933966E-07
v -0.03386331 0.01339936 0.03385973
v -0.03386331 0.1444247 0.03385973
v -0.03386331 0.1444247 0.03385973
v -0.03386331 0.01339936 0.03385973
v 0 0.01339936 0.04788607
v 0 0.1444247 0.04788607
v 0 0.1444247 0.04788607
v 0 0.01339936 0.04788607
v 0.03385973 0.01339936 0.03385973
v 0.03385973 0.1444247 0.03385973
v 0.03385973 0.1444247 0.03385973
v 0.03385973 0.01339936 0.03385973
v 0.04788607 0.01339936 -8.933966E-07
v 0.04788607 0.1444247 -8.933966E-07
v 0.04788607 0.1444247 -8.933966E-07
v 0.04788607 0.01339936 -8.933966E-07
v 0.03385973 0.01339936 -0.03386062
v 0.03385973 0.1444247 -0.03386062
v 0.03385973 0.01339936 -0.03386062
v 0 0.01339936 -8.933966E-07
v 0 0.01339936 -0.04788607
v 0.04788607 0.01339936 -8.933966E-07
v -0.03386331 0.01339936 -0.03386062
v 0.03385973 0.01339936 0.03385973
v -0.04788607 0.01339936 -8.933966E-07
v 0 0.01339936 0.04788607
v -0.03386331 0.01339936 0.03385973
v 0.04140001 0.1444247 -0.0414018
v 0.03385973 0.1444247 -0.03386062
v 0 0.1444247 -0.04788607
v 0 0.1444247 -0.05855053
v 0.05854964 0.1444247 -8.933966E-07
v -0.03386331 0.1444247 -0.03386062
v 0.04788607 0.1444247 -8.933966E-07
v -0.04140359 0.1444247 -0.0414018
v 0.04140001 0.1444247 0.04140001
v -0.04788607 0.1444247 -8.933966E-07
v 0.03385973 0.1444247 0.03385973
v -0.05854964 0.1444247 -8.933966E-07
v 0 0.1444247 0.05855053
v -0.03386331 0.1444247 0.03385973
v 0 0.1444247 0.04788607
v -0.04140359 0.1444247 0.04140001

vn 0 -1 0
vn 0 -1 0
vn 0 -1 0
vn 0.3826888 0 -0.9238773
vn 0.3826888 0 -0.9238773
vn 0.3826888 0 -0.9238773
vn 0.3826888 0 -0.9238773
vn -0.3826606 0 -0.923889
vn -0.3826606 0 -0.923889
vn -0.3826606 0 -0.923889
vn -0.3826606 0 -0.923889
vn -0.9239014 0 -0.3826307
vn -0.9239014 0 -0.3826307
vn -0.9239014 0 -0.3826307
vn -0.9239014 0 -0.3826307
vn -0.9239013 0 0.3826309
vn -0.9239013 0 0.3826309
vn -0.9239013 0 0.3826309
vn -0.9239013 0 0.3826309
vn -0.3826947 0 0.9238749
vn -0.3826947 0 0.9238749
vn -0.3826947 0 0.9238749
vn -0.3826947 0 0.9238749
vn 0.3827229 0 0.9238631
vn 0.3827229 0 0.9238631
vn 0.3827229 0 0.9238631
vn 0.3827229 0 0.9238631
vn 0.9238731 0 0.3826989
vn 0.9238731 0 0.3826989
vn 0.9238731 0 0.3826989
vn 0.9238731 0 0.3826989
vn 0.9238732 0 -0.3826988
vn 0.9238732 0 -0.3826988
vn 0.9238732 0 -0.3826988
vn 0.9238732 0 -0.3826988
vn 0 -1 0
vn 0 -1 0
vn 0 -1 0
vn 0 -1 0
vn 0 -1 0
vn 0 -1 0
vn 0 -1 0
vn 0 -1 0
vn 0 -1 0
vn -0.3826902 0 0.9238766
vn -0.3826902 0 0.9238766
vn -0.3826902 0 0.9238766
vn -0.3826902 0 0.9238766
vn 0.3826558 0 0.923891
vn 0.3826558 0 0.923891
vn 0.3826558 0 0.923891
vn 0.3826558 0 0.923891
vn 0.9239026 0 0.3826278
vn 0.9239026 0 0.3826278
vn 0.9239026 0 0.3826278
vn 0.9239026 0 0.3826278
vn 0.9239062 0 -0.3826192
vn 0.9239062 0 -0.3826192
vn 0.9239062 0 -0.3826192
vn 0.9239062 0 -0.3826192
vn 0.3826766 0 -0.9238824
vn 0.3826766 0 -0.9238824
vn 0.3826766 0 -0.9238824
vn 0.3826766 0 -0.9238824
vn -0.3827111 0 -0.9238681
vn -0.3827111 0 -0.9238681
vn -0.3827111 0 -0.9238681
vn -0.3827111 0 -0.9238681
vn -0.9238717 0 -0.3827025
vn -0.9238717 0 -0.3827025
vn -0.9238717 0 -0.3827025
vn -0.9238717 0 -0.3827025
vn -0.9238681 0 0.3827111
vn -0.9238681 0 0.3827111
vn -0.9238681 0 0.3827111
vn -0.9238681 0 0.3827111
vn 0 1 0
vn 0 1 0
vn 0 1 0
vn 0 1 0
vn 0 1 0
vn 0 1 0
vn 0 1 0
vn 0 1 0
vn 0 1 0
vn 0 1 0
vn 0 1 0
vn 0 1 0
vn 0 1 0
vn 0 1 0
vn 0 1 0
vn 0 1 0
vn 0 1 0
vn 0 1 0
vn 0 1 0
vn 0 1 0
vn 0 1 0
vn 0 1 0
vn 0 1 0
vn 0 1 0
vn 0 1 0

vt 0.1020297 0.3547073
vt 0.1020297 0.3547073
vt 0.1020297 0.3547072
vt 0.1020297 0.3547073
vt 0.1020297 0.3547072
vt 0.1020297 0.3547072
vt 0.1020297 0.3547073
vt 0.1020297 0.3547073
vt 0.1020297 0.3547072
vt 0.1020297 0.3547072
vt 0.1020297 0.3547073
vt 0.1020297 0.3547073
vt 0.1020297 0.3547072
vt 0.1020297 0.3547072
vt 0.1020297 0.3547073
vt 0.1020297 0.3547073
vt 0.1020297 0.3547072
vt 0.1020297 0.3547072
vt 0.1020297 0.3547073
vt 0.1020297 0.3547073
vt 0.1020297 0.3547072
vt 0.1020297 0.3547072
vt 0.1020297 0.3547073
vt 0.1020297 0.3547073
vt 0.1020297 0.3547072
vt 0.1020297 0.3547072
vt 0.1020297 0.3547073
vt 0.1020297 0.3547073
vt 0.1020297 0.3547072
vt 0.1020297 0.3547072
vt 0.1020297 0.3547073
vt 0.1020297 0.3547073
vt 0.1020297 0.3547072
vt 0.1020296 0.3547072
vt 0.1020296 0.3547073
vt 0.1020297 0.3547072
vt 0.1020297 0.3547073
vt 0.1020297 0.3547072
vt 0.1020296 0.3547072
vt 0.1020296 0.3547073
vt 0.1020296 0.3547073
vt 0.1020297 0.3547073
vt 0.1020297 0.3547073
vt 0.1020297 0.3547073
vt 0.1020296 0.3547072
vt 0.1020296 0.3547072
vt 0.1020297 0.3547072
vt 0.1020297 0.3547072
vt 0.1020297 0.3547072
vt 0.1020297 0.3547072
vt 0.1020297 0.3547072
vt 0.1020297 0.3547072
vt 0.1020297 0.3547072
vt 0.1020297 0.3547072
vt 0.1020297 0.3547072
vt 0.1020297 0.3547072
vt 0.1020297 0.3547072
vt 0.1020297 0.3547072
vt 0.1020297 0.3547072
vt 0.1020297 0.3547072
vt 0.1020297 0.3547072
vt 0.1020297 0.3547072
vt 0.1020297 0.3547072
vt 0.1020297 0.3547072
vt 0.1020297 0.3547072
vt 0.1020297 0.3547072
vt 0.1020296 0.3547072
vt 0.1020296 0.3547072
vt 0.1020296 0.3547072
vt 0.1020296 0.3547072
vt 0.1020296 0.3547072
vt 0.1020296 0.3547072
vt 0.1020296 0.3547072
vt 0.1020296 0.3547072
vt 0.1020296 0.3547072
vt 0.1020296 0.3547072
vt 0.1020296 0.3547072
vt 0.1020297 0.3547072
vt 0.1020297 0.3547072
vt 0.1020296 0.3547072
vt 0.1020297 0.3547072
vt 0.1020296 0.3547072
vt 0.1020297 0.3547072
vt 0.1020297 0.3547072
vt 0.1020297 0.3547072
vt 0.1020296 0.3547072
vt 0.1020296 0.3547072
vt 0.1020297 0.3547072
vt 0.1020297 0.3547072
vt 0.1020296 0.3547072
vt 0.1020297 0.3547072
vt 0.1020296 0.3547072
vt 0.1020297 0.3547072
vt 0.1020296 0.3547072
vt 0.1020297 0.3547072
vt 0.1020296 0.3547072
vt 0.1020297 0.3547072
vt 0.1020297 0.3547072
vt 0.1020297 0.3547072
vt 0.1020297 0.3547072
vt 0.1020297 0.3547072

usemtl PolygonWestern_Material_01_A
usemap PolygonWestern_Material_01_A
f 2/2/2 1/1/1 3/3/3
f 5/5/5 4/4/4 6/6/6
f 6/6/6 4/4/4 7/7/7
f 9/9/9 8/8/8 10/10/10
f 10/10/10 8/8/8 11/11/11
f 13/13/13 12/12/12 14/14/14
f 14/14/14 12/12/12 15/15/15
f 17/17/17 16/16/16 18/18/18
f 18/18/18 16/16/16 19/19/19
f 21/21/21 20/20/20 22/22/22
f 22/22/22 20/20/20 23/23/23
f 25/25/25 24/24/24 26/26/26
f 26/26/26 24/24/24 27/27/27
f 29/29/29 28/28/28 30/30/30
f 30/30/30 28/28/28 31/31/31
f 33/33/33 32/32/32 34/34/34
f 34/34/34 32/32/32 35/35/35
f 37/37/37 36/36/36 38/38/38
f 37/37/37 38/38/38 39/39/39
f 37/37/37 39/39/39 40/40/40
f 37/37/37 40/40/40 41/41/41
f 37/37/37 41/41/41 42/42/42
f 37/37/37 42/42/42 43/43/43
f 37/37/37 43/43/43 44/44/44
f 46/46/46 45/45/45 47/47/47
f 47/47/47 45/45/45 48/48/48
f 50/50/50 49/49/49 51/51/51
f 51/51/51 49/49/49 52/52/52
f 54/54/54 53/53/53 55/55/55
f 55/55/55 53/53/53 56/56/56
f 58/58/58 57/57/57 59/59/59
f 59/59/59 57/57/57 60/60/60
f 62/62/62 61/61/61 63/63/63
f 63/63/63 61/61/61 64/64/64
f 66/66/66 65/65/65 67/67/67
f 67/67/67 65/65/65 68/68/68
f 70/70/70 69/69/69 71/71/71
f 71/71/71 69/69/69 72/72/72
f 74/74/74 73/73/73 75/75/75
f 75/75/75 73/73/73 76/76/76
f 78/78/78 77/77/77 79/79/79
f 78/78/78 80/80/80 77/77/77
f 78/78/78 79/79/79 81/81/81
f 78/78/78 82/82/82 80/80/80
f 78/78/78 81/81/81 83/83/83
f 78/78/78 84/84/84 82/82/82
f 78/78/78 83/83/83 85/85/85
f 78/78/78 85/85/85 84/84/84
f 87/87/87 86/86/86 88/88/88
f 88/88/88 86/86/86 89/89/89
f 87/87/87 90/90/90 86/86/86
f 88/88/88 89/89/89 91/91/91
f 92/92/92 90/90/90 87/87/87
f 91/91/91 89/89/89 93/93/93
f 92/92/92 94/94/94 90/90/90
f 91/91/91 93/93/93 95/95/95
f 96/96/96 94/94/94 92/92/92
f 95/95/95 93/93/93 97/97/97
f 96/96/96 98/98/98 94/94/94
f 95/95/95 97/97/97 99/99/99
f 100/100/100 98/98/98 96/96/96
f 99/99/99 97/97/97 101/101/101
f 100/100/100 101/101/101 98/98/98
f 99/99/99 101/101/101 100/100/100
