mtllib ./SM_Prop_Shelf_01_101.mtl
g SM_Prop_Shelf_01
v -0.5465775 1.650318 0.1564617
v -1.051937 1.692199 0.1557827
v -0.4713096 1.687054 -0.02575397
v -0.1223602 1.683962 0.1351919
v -0.5465775 1.650318 0.1564617
v -0.4713096 1.687054 -0.02575397
v 0.4220963 1.128876 0.1433115
v 0.6017303 1.130386 0.07470512
v 0.5748177 1.097845 0.1583948
v 0.6017303 1.130386 0.07470512
v 0.7729187 1.131826 0.1506872
v 0.5748177 1.097845 0.1583948
v -1.772106 0 0.2905579
v -1.772106 2.160936 0.1162224
v -1.772108 1.941091 0.2905579
v -1.692856 0 0.2905579
v -1.692858 1.941091 0.2905579
v -1.692856 2.160936 0.1162224
v 1.69286 0 0.2905579
v 1.69286 2.160936 0.1162224
v 1.69286 1.941091 0.2905579
v 1.772106 0 0.2905579
v 1.772106 1.941091 0.2905579
v 1.772106 2.160936 0.1162224
v -0.7287903 1.119199 0.1226912
v 0.4220963 1.128876 0.1433115
v 0.5748177 1.097845 0.1583948
v -0.7287903 1.060645 0.1384058
v -0.7287903 1.060645 -0.2755499
v 1.732483 1.060645 -0.2755499
v 1.732483 1.139894 -0.2755499
v -0.7287903 1.139894 -0.2755499
v -1.732483 1.139894 -0.2755499
v -1.732483 1.060645 -0.2755499
v -0.7287903 1.060645 0.1384058
v 1.732483 1.060645 0.1901474
v 1.732483 1.060645 -0.2755499
v -0.7287903 1.060645 -0.2755499
v -1.732483 1.060645 -0.2755499
v -1.732483 1.060645 0.1901474
v 0.6032181 1.677534 0.1226921
v 1.732483 1.698229 0.1901474
v 1.732483 1.61898 0.1901474
v 0.6032181 1.61898 0.1384068
v 0.6032181 1.698229 -0.2755499
v 1.732483 1.698229 -0.2755499
v 1.732483 1.698229 0.1901474
v 0.6032181 1.677534 0.1226921
v -0.1223602 1.683962 0.1351919
v -0.4713096 1.687054 -0.02575397
v -1.732483 1.698229 -0.2755499
v -1.732483 1.698229 0.1901474
v -1.051937 1.692199 0.1557827
v 0.6032181 1.61898 -0.2755499
v 1.732483 1.61898 -0.2755499
v 1.732483 1.698229 -0.2755499
v 0.6032181 1.698229 -0.2755499
v -1.732483 1.698229 -0.2755499
v -1.732483 1.61898 -0.2755499
v 0.6032181 1.61898 0.1384068
v 1.732483 1.61898 0.1901474
v 1.732483 1.61898 -0.2755499
v 0.6032181 1.61898 -0.2755499
v -1.732483 1.61898 -0.2755499
v -1.732483 1.61898 0.1901474
v -1.732483 1.139894 0.1901474
v -1.732483 1.139894 -0.2755499
v -0.7287903 1.139894 -0.2755499
v -0.7287903 1.119199 0.1226912
v 0.4220963 1.128876 0.1433115
v 0.6017303 1.130386 0.07470512
v 1.732483 1.139894 -0.2755499
v 0.7729187 1.131826 0.1506872
v 1.732483 1.139894 0.1901474
v -1.732483 1.060645 0.1901474
v -1.732483 1.139894 0.1901474
v -0.7287903 1.119199 0.1226912
v -0.7287903 1.060645 0.1384058
v -0.5465775 1.650318 0.1564617
v -0.1223602 1.683962 0.1351919
v 0.6032181 1.677534 0.1226921
v 0.6032181 1.61898 0.1384068
v -1.732483 1.61898 0.1901474
v -1.051937 1.692199 0.1557827
v -1.732483 1.698229 0.1901474
v 0.5748177 1.097845 0.1583948
v 0.7729187 1.131826 0.1506872
v 1.732483 1.139894 0.1901474
v 1.732483 1.060645 0.1901474
v -0.7287903 1.060645 0.1384058
v -1.692856 0 0.2905579
v -1.772106 0 0.2905579
v -1.772108 1.941091 0.2905579
v -1.692858 1.941091 0.2905579
v -1.772106 0 0.2905579
v -1.772108 0 -0.2905578
v -1.772108 2.26766 -0.2905578
v -1.772106 2.160936 0.1162224
v -1.772108 0 -0.2905578
v -1.692858 0 -0.2905578
v -1.692858 2.26766 -0.2905578
v -1.772108 2.26766 -0.2905578
v -1.692858 0 -0.2905578
v -1.692856 0 0.2905579
v -1.692856 2.160936 0.1162224
v -1.692858 2.26766 -0.2905578
v -1.772106 2.160936 0.1162224
v -1.772108 2.26766 -0.2905578
v -1.692858 2.26766 -0.2905578
v -1.692856 2.160936 0.1162224
v -1.692858 0 -0.2905578
v -1.772108 0 -0.2905578
v -1.772106 0 0.2905579
v -1.692856 0 0.2905579
v 1.772106 0 0.2905579
v 1.69286 0 0.2905579
v 1.69286 1.941091 0.2905579
v 1.772106 1.941091 0.2905579
v 1.69286 0 0.2905579
v 1.69286 0 -0.2905578
v 1.69286 2.26766 -0.2905578
v 1.69286 2.160936 0.1162224
v 1.69286 0 -0.2905578
v 1.772106 0 -0.2905578
v 1.772106 2.26766 -0.2905578
v 1.69286 2.26766 -0.2905578
v 1.772106 0 -0.2905578
v 1.772106 0 0.2905579
v 1.772106 2.160936 0.1162224
v 1.772106 2.26766 -0.2905578
v 1.69286 2.160936 0.1162224
v 1.69286 2.26766 -0.2905578
v 1.772106 2.26766 -0.2905578
v 1.772106 2.160936 0.1162224
v 1.772106 0 -0.2905578
v 1.69286 0 -0.2905578
v 1.69286 0 0.2905579
v 1.772106 0 0.2905579
v -1.692858 1.941091 0.2905579
v -1.772108 1.941091 0.2905579
v -1.772106 2.160936 0.1162224
v -1.692856 2.160936 0.1162224
v 1.772106 1.941091 0.2905579
v 1.69286 1.941091 0.2905579
v 1.69286 2.160936 0.1162224
v 1.772106 2.160936 0.1162224

vn 0.08009605 0.9701999 0.2286853
vn 0.08009605 0.9701999 0.2286853
vn 0.08009605 0.9701999 0.2286853
vn -0.06946804 0.9830787 0.1695014
vn -0.06946804 0.9830787 0.1695014
vn -0.06946804 0.9830787 0.1695014
vn 0.144639 0.9056268 0.3986473
vn 0.144639 0.9056268 0.3986473
vn 0.144639 0.9056268 0.3986473
vn -0.1483906 0.9368898 0.3165717
vn -0.1483906 0.9368898 0.3165717
vn -0.1483906 0.9368898 0.3165717
vn -1 0 0
vn -1 0 0
vn -1 0 -1.266699E-05
vn 1 0 0
vn 1 0 1.169261E-05
vn 1 0 0
vn -1 0 0
vn -1 0 0
vn -1 0 0
vn 1 0 0
vn 1 0 0
vn 1 0 0
vn -0.02139964 0.2922183 0.9561122
vn -0.02139964 0.2922183 0.9561122
vn -0.02139964 0.2922183 0.9561122
vn -0.02139964 0.2922183 0.9561122
vn 0 0 -1
vn 0 0 -1
vn 0 0 -1
vn 0 0 -1
vn 0 0 -1
vn 0 0 -1
vn 0 -1 0
vn 0 -1 0
vn 0 -1 0
vn 0 -1 0
vn 0 -1 0
vn 0 -1 0
vn -0.05339798 0.1131419 0.9921429
vn -0.05339798 0.1131419 0.9921429
vn -0.05339798 0.1131419 0.9921429
vn -0.05339798 0.1131419 0.9921429
vn -0.002204389 0.9993359 0.03637018
vn -0.00987533 0.9996644 0.02394659
vn -0.00987533 0.9996644 0.02394659
vn -0.003306583 0.9994757 0.03220918
vn 0.003262533 0.9991755 0.04046817
vn 0.004041709 0.9995887 0.02839196
vn 0.004431176 0.9997403 0.02235072
vn 0.008860053 0.9999608 0
vn 0.008860053 0.9999608 0
vn 0 0 -1
vn 0 0 -1
vn 0 0 -1
vn 0 0 -1
vn 0 0 -1
vn 0 0 -1
vn 0 -1 0
vn 0 -1 0
vn 0 -1 0
vn 0 -1 0
vn 0 -1 0
vn 0 -1 0
vn 0.01111074 0.9996516 0.0239464
vn 0.01111074 0.9996516 0.0239464
vn 0.001443707 0.9994868 0.03199884
vn 0.002165615 0.9994048 0.03443002
vn -0.006779925 0.9989681 0.0449071
vn -0.005063643 0.9996988 0.0240185
vn -0.00420458 0.9998991 0.01356919
vn -0.008408311 0.9999647 0
vn -0.008408311 0.9999647 0
vn 0.0600568 0.1130991 0.991767
vn 0.0600568 0.1130991 0.991767
vn 0.0600568 0.1130991 0.991767
vn 0.0600568 0.1130991 0.991767
vn 0.02569664 0.2216284 0.9747926
vn 0.02136745 0.2859794 0.9579974
vn 0.02136745 0.2859794 0.9579974
vn 0.02146856 0.2582043 0.9658518
vn 0.02782035 0.1890542 0.9815725
vn 0.0340386 0.1475524 0.9884683
vn 0.0340386 0.1475524 0.9884683
vn -0.02615983 0.1593071 0.9868824
vn -0.03167136 0.1229305 0.9919098
vn -0.03167136 0.1229305 0.9919098
vn -0.02615983 0.1593071 0.9868824
vn -0.02061223 0.195464 0.9804941
vn 0 0 1
vn 0 0 1
vn 0 0 1
vn 0 0 1
vn -1 0 0
vn -1 0 0
vn -1 0 0
vn -1 0 0
vn 0 0 -1
vn 0 0 -1
vn 0 0 -1
vn 0 0 -1
vn 1 0 0
vn 1 0 0
vn 1 0 0
vn 1 0 0
vn 0 0.9672637 0.2537735
vn 0 0.9672637 0.2537735
vn 0 0.9672637 0.2537735
vn 0 0.9672637 0.2537735
vn 0 -1 0
vn 0 -1 0
vn 0 -1 0
vn 0 -1 0
vn 0 0 1
vn 0 0 1
vn 0 0 1
vn 0 0 1
vn -1 0 0
vn -1 0 0
vn -1 0 0
vn -1 0 0
vn 0 0 -1
vn 0 0 -1
vn 0 0 -1
vn 0 0 -1
vn 1 0 0
vn 1 0 0
vn 1 0 0
vn 1 0 0
vn 0 0.9672637 0.2537735
vn 0 0.9672637 0.2537735
vn 0 0.9672637 0.2537735
vn 0 0.9672637 0.2537735
vn 0 -1 0
vn 0 -1 0
vn 0 -1 0
vn 0 -1 0
vn 0 0.6213422 0.7835392
vn 0 0.6213422 0.7835392
vn 0 0.6213422 0.7835392
vn 0 0.6213422 0.7835392
vn 0 0.6213422 0.7835392
vn 0 0.6213422 0.7835392
vn 0 0.6213422 0.7835392
vn 0 0.6213422 0.7835392

vt 0.2215906 0.2766065
vt 0.2215906 0.2766065
vt 0.2215906 0.2766065
vt 0.2215906 0.2766065
vt 0.2215906 0.2766065
vt 0.2215906 0.2766065
vt 0.2215906 0.2766065
vt 0.2215906 0.2766065
vt 0.2215906 0.2766065
vt 0.2215906 0.2766065
vt 0.2215906 0.2766065
vt 0.2215906 0.2766065
vt 0.2101704 0.2514565
vt 0.2101704 0.2514565
vt 0.2101704 0.2514566
vt 0.2101704 0.2514565
vt 0.2101704 0.2514565
vt 0.2101704 0.2514564
vt 0.2101704 0.2514565
vt 0.2101704 0.2514565
vt 0.2101704 0.2514566
vt 0.2101704 0.2514565
vt 0.2101704 0.2514565
vt 0.2101704 0.2514564
vt 0.2215906 0.2766065
vt 0.2215906 0.2766065
vt 0.2215906 0.2766065
vt 0.2215906 0.2766065
vt 0.2215906 0.2766065
vt 0.2215906 0.2766065
vt 0.2215906 0.2766065
vt 0.2215906 0.2766065
vt 0.2215906 0.2766065
vt 0.2215906 0.2766065
vt 0.2215906 0.2766065
vt 0.2215906 0.2766065
vt 0.2215906 0.2766065
vt 0.2215906 0.2766065
vt 0.2215906 0.2766065
vt 0.2215906 0.2766065
vt 0.2215906 0.2766065
vt 0.2215906 0.2766065
vt 0.2215906 0.2766065
vt 0.2215906 0.2766065
vt 0.2215906 0.2766065
vt 0.2215906 0.2766065
vt 0.2215906 0.2766065
vt 0.2215906 0.2766065
vt 0.2215906 0.2766065
vt 0.2215906 0.2766065
vt 0.2215906 0.2766065
vt 0.2215906 0.2766065
vt 0.2215906 0.2766065
vt 0.2215906 0.2766065
vt 0.2215906 0.2766065
vt 0.2215906 0.2766065
vt 0.2215906 0.2766065
vt 0.2215906 0.2766065
vt 0.2215906 0.2766065
vt 0.2215906 0.2766065
vt 0.2215906 0.2766065
vt 0.2215906 0.2766065
vt 0.2215906 0.2766065
vt 0.2215906 0.2766065
vt 0.2215906 0.2766065
vt 0.2215906 0.2766065
vt 0.2215906 0.2766065
vt 0.2215906 0.2766065
vt 0.2215906 0.2766065
vt 0.2215906 0.2766065
vt 0.2215906 0.2766065
vt 0.2215906 0.2766065
vt 0.2215906 0.2766065
vt 0.2215906 0.2766065
vt 0.2215906 0.2766065
vt 0.2215906 0.2766065
vt 0.2215906 0.2766065
vt 0.2215906 0.2766065
vt 0.2215906 0.2766065
vt 0.2215906 0.2766065
vt 0.2215906 0.2766065
vt 0.2215906 0.2766065
vt 0.2215906 0.2766065
vt 0.2215906 0.2766065
vt 0.2215906 0.2766065
vt 0.2215906 0.2766065
vt 0.2215906 0.2766065
vt 0.2215906 0.2766065
vt 0.2215906 0.2766065
vt 0.2215906 0.2766065
vt 0.2101704 0.2514565
vt 0.2101704 0.2514565
vt 0.2101704 0.2514566
vt 0.2101704 0.2514565
vt 0.2101704 0.2514565
vt 0.2101704 0.2514565
vt 0.2101704 0.2514565
vt 0.2101704 0.2514565
vt 0.2101704 0.2514565
vt 0.2101704 0.2514565
vt 0.2101704 0.2514565
vt 0.2101704 0.2514565
vt 0.2101704 0.2514565
vt 0.2101704 0.2514565
vt 0.2101704 0.2514564
vt 0.2101704 0.2514565
vt 0.2101704 0.2514566
vt 0.2101704 0.2514566
vt 0.2101704 0.2514565
vt 0.2101704 0.2514565
vt 0.2101704 0.2514565
vt 0.2101704 0.2514566
vt 0.2101704 0.2514565
vt 0.2101704 0.2514565
vt 0.2101704 0.2514565
vt 0.2101704 0.2514565
vt 0.2101704 0.2514566
vt 0.2101704 0.2514565
vt 0.2101704 0.2514565
vt 0.2101704 0.2514565
vt 0.2101704 0.2514565
vt 0.2101704 0.2514565
vt 0.2101704 0.2514565
vt 0.2101704 0.2514565
vt 0.2101704 0.2514565
vt 0.2101704 0.2514565
vt 0.2101704 0.2514565
vt 0.2101704 0.2514565
vt 0.2101704 0.2514564
vt 0.2101704 0.2514565
vt 0.2101704 0.2514566
vt 0.2101704 0.2514566
vt 0.2101704 0.2514565
vt 0.2101704 0.2514565
vt 0.2101704 0.2514565
vt 0.2101704 0.2514566
vt 0.2101704 0.2514565
vt 0.2101704 0.2514565
vt 0.2101704 0.2514565
vt 0.2101704 0.2514566
vt 0.2101704 0.2514566
vt 0.2101704 0.2514565
vt 0.2101704 0.2514565
vt 0.2101704 0.2514566
vt 0.2101704 0.2514566
vt 0.2101704 0.2514565

usemtl PolygonWestern_Material_01_A
usemap PolygonWestern_Material_01_A
f 2/2/2 1/1/1 3/3/3
f 5/5/5 4/4/4 6/6/6
f 8/8/8 7/7/7 9/9/9
f 11/11/11 10/10/10 12/12/12
f 14/14/14 13/13/13 15/15/15
f 17/17/17 16/16/16 18/18/18
f 20/20/20 19/19/19 21/21/21
f 23/23/23 22/22/22 24/24/24
f 26/26/26 25/25/25 27/27/27
f 27/27/27 25/25/25 28/28/28
f 30/30/30 29/29/29 31/31/31
f 31/31/31 29/29/29 32/32/32
f 29/29/29 33/33/33 32/32/32
f 34/34/34 33/33/33 29/29/29
f 36/36/36 35/35/35 37/37/37
f 37/37/37 35/35/35 38/38/38
f 35/35/35 39/39/39 38/38/38
f 40/40/40 39/39/39 35/35/35
f 42/42/42 41/41/41 43/43/43
f 43/43/43 41/41/41 44/44/44
f 46/46/46 45/45/45 47/47/47
f 47/47/47 45/45/45 48/48/48
f 48/48/48 45/45/45 49/49/49
f 49/49/49 45/45/45 50/50/50
f 45/45/45 51/51/51 50/50/50
f 51/51/51 52/52/52 50/50/50
f 50/50/50 52/52/52 53/53/53
f 55/55/55 54/54/54 56/56/56
f 56/56/56 54/54/54 57/57/57
f 54/54/54 58/58/58 57/57/57
f 59/59/59 58/58/58 54/54/54
f 61/61/61 60/60/60 62/62/62
f 62/62/62 60/60/60 63/63/63
f 60/60/60 64/64/64 63/63/63
f 65/65/65 64/64/64 60/60/60
f 67/67/67 66/66/66 68/68/68
f 68/68/68 66/66/66 69/69/69
f 70/70/70 68/68/68 69/69/69
f 71/71/71 68/68/68 70/70/70
f 72/72/72 68/68/68 71/71/71
f 73/73/73 72/72/72 71/71/71
f 74/74/74 72/72/72 73/73/73
f 76/76/76 75/75/75 77/77/77
f 77/77/77 75/75/75 78/78/78
f 80/80/80 79/79/79 81/81/81
f 81/81/81 79/79/79 82/82/82
f 79/79/79 83/83/83 82/82/82
f 84/84/84 83/83/83 79/79/79
f 85/85/85 83/83/83 84/84/84
f 87/87/87 86/86/86 88/88/88
f 88/88/88 86/86/86 89/89/89
f 89/89/89 86/86/86 90/90/90
f 92/92/92 91/91/91 93/93/93
f 93/93/93 91/91/91 94/94/94
f 96/96/96 95/95/95 97/97/97
f 97/97/97 95/95/95 98/98/98
f 100/100/100 99/99/99 101/101/101
f 101/101/101 99/99/99 102/102/102
f 104/104/104 103/103/103 105/105/105
f 105/105/105 103/103/103 106/106/106
f 108/108/108 107/107/107 109/109/109
f 109/109/109 107/107/107 110/110/110
f 112/112/112 111/111/111 113/113/113
f 113/113/113 111/111/111 114/114/114
f 116/116/116 115/115/115 117/117/117
f 117/117/117 115/115/115 118/118/118
f 120/120/120 119/119/119 121/121/121
f 121/121/121 119/119/119 122/122/122
f 124/124/124 123/123/123 125/125/125
f 125/125/125 123/123/123 126/126/126
f 128/128/128 127/127/127 129/129/129
f 129/129/129 127/127/127 130/130/130
f 132/132/132 131/131/131 133/133/133
f 133/133/133 131/131/131 134/134/134
f 136/136/136 135/135/135 137/137/137
f 137/137/137 135/135/135 138/138/138
f 140/140/140 139/139/139 141/141/141
f 141/141/141 139/139/139 142/142/142
f 144/144/144 143/143/143 145/145/145
f 145/145/145 143/143/143 146/146/146
