mtllib ./SM_Prop_Church_Cross_02_69.mtl
g SM_Prop_Church_Cross_02
v 0.05716014 0.5744265 -0.01700306
v 0.05706263 0.600693 0.01690674
v 0.03416181 0.600693 -0.01690578
v 0.1649621 0.3913689 0.01609612
v 0.2157377 0.4120153 0.01609612
v 0.2157377 0.3913689 0.006710052
v -0.1004373 0.4532281 0.01584244
v -0.1771035 0.4261696 0.01584244
v -0.1771035 0.4532281 -0.00374794
v -0.0183773 0.4559734 0.0183773
v -0.1004373 0.4532281 0.01584244
v -0.1771035 0.4532281 -0.00374794
v 0.05853403 0.388898 0.0183773
v 0.1649621 0.3913689 0.01609612
v 0.2157377 0.3913689 0.006710052
v 0.08669006 0.4559734 0.0183773
v 0.1326606 0.4559732 9.632111E-05
v 0.1258634 0.4466527 0.0183773
v -0.01837742 0.2268729 -0.002565384
v -0.0183773 0.388898 0.0183773
v 0.003012419 0.2232105 0.0183773
v 0.05853403 0.2662174 0.01837826
v 0.05853391 0.09383417 -0.005405426
v 0.04284811 0.09467722 0.0183773
v -0.008739233 0.5615144 0.01690674
v -0.01690602 0.4979553 0.01690674
v -0.01690602 0.5601875 -0.001805305
v -0.01690602 0.600693 0.01690674
v -0.008739233 0.5615144 0.01690674
v -0.01690602 0.5601875 -0.001805305
v 0.1326606 0.4559732 9.632111E-05
v 0.2157377 0.4535025 0.01609612
v 0.1258634 0.4466527 0.0183773
v -0.0183773 0.1396435 0.0183773
v -0.01837742 0.2268729 -0.002565384
v 0.003012419 0.2232105 0.0183773
v 0.05853391 0.09383417 -0.005405426
v 0.05853403 0.04242337 0.01837826
v 0.04284811 0.09467722 0.0183773
v 0.2157377 0.4535025 -0.01609612
v 0.2157377 0.4535025 0.01609612
v 0.1326606 0.4559732 9.632111E-05
v -0.0183773 0.4559734 0.0183773
v -0.01690602 0.4979553 0.01690674
v -0.008739233 0.5615144 0.01690674
v 0.05853403 0.4559734 0.0183773
v 0.05706263 0.600693 0.01690674
v -0.01690602 0.600693 0.01690674
v -0.0183773 0.388898 0.0183773
v -0.1004373 0.4532281 0.01584244
v -0.1771035 0.3916434 0.01584244
v -0.1771035 0.4261696 0.01584244
v 0.05853403 0.388898 0.0183773
v 0.003012419 0.2232105 0.0183773
v 0.1258634 0.4466527 0.0183773
v 0.08669006 0.4559734 0.0183773
v 0.1649621 0.3913689 0.01609612
v 0.2157377 0.4120153 0.01609612
v 0.2157377 0.4535025 0.01609612
v 0.05853403 0.2662174 0.01837826
v 0.04284811 0.09467722 0.0183773
v -0.0183773 -1.192093E-07 0.0183773
v -0.0183773 0.1396435 0.0183773
v 0.05853403 0.04242337 0.01837826
v 0.05853403 -1.192093E-07 0.0183773
v -0.0183773 -1.192093E-07 -0.0183773
v -0.0183773 -1.192093E-07 0.0183773
v 0.05853403 -1.192093E-07 0.0183773
v 0.05853403 -1.192093E-07 -0.0183773
v 0.05853403 -1.192093E-07 0.0183773
v 0.05853403 0.04242337 0.01837826
v 0.05853391 0.09383417 -0.005405426
v 0.05853403 -1.192093E-07 -0.0183773
v 0.05853403 0.388898 -0.0183773
v 0.05853403 0.388898 0.0183773
v 0.05853403 0.2662174 0.01837826
v -0.0183773 0.388898 -0.0183773
v -0.0183773 -1.192093E-07 -0.0183773
v 0.05853403 -1.192093E-07 -0.0183773
v 0.05853403 0.388898 -0.0183773
v -0.0183773 0.4559734 -0.0183773
v -0.1771035 0.3916434 -0.01584244
v -0.1771035 0.4532281 -0.01584244
v 0.05853403 0.4559734 -0.0183773
v 0.05716014 0.5744265 -0.01700306
v 0.03416181 0.600693 -0.01690578
v -0.01690602 0.600693 -0.01690578
v 0.05853403 0.388898 -0.0183773
v 0.2157377 0.4535025 -0.01609612
v 0.2157377 0.3913689 -0.01609612
v -0.0183773 0.388898 -0.0183773
v -0.1771035 0.3916434 -0.01584244
v -0.1771035 0.3916434 0.01584244
v -0.0183773 0.388898 0.0183773
v 0.05853403 0.4559734 -0.0183773
v 0.2157377 0.4535025 -0.01609612
v 0.1326606 0.4559732 9.632111E-05
v 0.08669006 0.4559734 0.0183773
v 0.05853403 0.4559734 0.0183773
v -0.1771035 0.4261696 0.01584244
v -0.1771035 0.3916434 0.01584244
v -0.1771035 0.3916434 -0.01584244
v -0.1771035 0.4532281 -0.01584244
v -0.1771035 0.4532281 -0.00374794
v -0.1771035 0.4532281 -0.01584244
v -0.0183773 0.4559734 -0.0183773
v -0.0183773 0.4559734 0.0183773
v -0.1771035 0.4532281 -0.00374794
v 0.2157377 0.3913689 -0.01609612
v 0.05853403 0.388898 -0.0183773
v 0.05853403 0.388898 0.0183773
v 0.2157377 0.3913689 0.006710052
v 0.2157377 0.4535025 -0.01609612
v 0.2157377 0.3913689 -0.01609612
v 0.2157377 0.3913689 0.006710052
v 0.2157377 0.4120153 0.01609612
v 0.2157377 0.4535025 0.01609612
v -0.0183773 -1.192093E-07 -0.0183773
v -0.0183773 0.1396435 0.0183773
v -0.0183773 -1.192093E-07 0.0183773
v -0.01837742 0.2268729 -0.002565384
v -0.0183773 0.388898 -0.0183773
v -0.0183773 0.388898 0.0183773
v -0.0183773 0.4559734 -0.0183773
v -0.01690602 0.4979553 0.01690674
v -0.0183773 0.4559734 0.0183773
v -0.01690602 0.5601875 -0.001805305
v -0.01690602 0.600693 -0.01690578
v -0.01690602 0.600693 0.01690674
v -0.01690602 0.600693 0.01690674
v -0.01690602 0.600693 -0.01690578
v 0.03416181 0.600693 -0.01690578
v 0.05706263 0.600693 0.01690674
v 0.05853403 0.4559734 0.0183773
v 0.05706263 0.600693 0.01690674
v 0.05716014 0.5744265 -0.01700306
v 0.05853403 0.4559734 -0.0183773

vn 0.6696866 0.5880421 -0.4535708
vn 0.6696866 0.5880421 -0.4535708
vn 0.6696866 0.5880421 -0.4535708
vn 0.1659472 -0.4081129 0.8977223
vn 0.1659472 -0.4081129 0.8977223
vn 0.1659472 -0.4081129 0.8977223
vn -0.2026806 0.5742656 0.7931832
vn -0.2026806 0.5742656 0.7931832
vn -0.2026806 0.5742656 0.7931832
vn -0.03761277 0.9883919 0.1471962
vn -0.03761277 0.9883919 0.1471962
vn -0.03761277 0.9883919 0.1471962
vn 0.0259914 -0.9897245 0.1406053
vn 0.0259914 -0.9897245 0.1406053
vn 0.0259914 -0.9897245 0.1406053
vn 0.2000507 0.8407823 0.5030555
vn 0.2000507 0.8407823 0.5030555
vn 0.2000507 0.8407823 0.5030555
vn -0.7046068 -0.09096245 0.7037436
vn -0.7046068 -0.09096245 0.7037436
vn -0.7046068 -0.09096245 0.7037436
vn 0.8311287 -0.07600286 0.5508617
vn 0.8311287 -0.07600286 0.5508617
vn 0.8311287 -0.07600286 0.5508617
vn -0.9132042 0.1173387 0.3902431
vn -0.9132042 0.1173387 0.3902431
vn -0.9132042 0.1173387 0.3902431
vn -0.8954816 -0.1866639 0.4040661
vn -0.8954816 -0.1866639 0.4040661
vn -0.8954816 -0.1866639 0.4040661
vn -0.05735539 0.8978915 0.4364644
vn -0.05735539 0.8978915 0.4364644
vn -0.05735539 0.8978915 0.4364644
vn -0.6738764 0.1724849 0.7184286
vn -0.6738764 0.1724849 0.7184286
vn -0.6738764 0.1724849 0.7184286
vn 0.8134663 0.2442015 0.5278619
vn 0.8134663 0.2442015 0.5278619
vn 0.8134663 0.2442015 0.5278619
vn 0.0232015 0.9991721 -0.03341959
vn 0.02972675 0.999558 0
vn 0.01546796 0.9996321 -0.02227985
vn -0.01401656 0.004984251 0.9998894
vn -0.01116954 0.01495116 0.9998259
vn -0.005727796 0.008350517 0.9999487
vn -0.004295857 0.006262901 0.9999712
vn -0.003006722 0.005049908 0.9999827
vn 0 0 1
vn -0.01162743 0.004864538 0.9999206
vn -0.0155033 0.006486074 0.9998587
vn -0.007814891 0.009728687 0.9999222
vn 0 0 1
vn 0.003722703 -0.005613164 0.9999774
vn -5.972175E-06 0 1
vn 0.01466999 -0.0093561 0.9998486
vn 0 0 1
vn 0.01862974 -0.02806422 0.9994325
vn 0.02200408 -0.01403357 0.9996593
vn 0.02537383 0 0.999678
vn -1.791652E-05 0 1
vn -9.759304E-06 0 1
vn -5.680694E-06 0 1
vn 0 0 1
vn -1.136139E-05 0 1
vn -1.136139E-05 0 1
vn 0 -1 0
vn 0 -1 0
vn 0 -1 0
vn 0 -1 0
vn 1 0 0
vn 1 0 0
vn 1 0 0
vn 1 0 0
vn 1 0 0
vn 1 0 0
vn 1 0 0
vn -0.005322824 0 -0.9999858
vn 0 0 -1
vn 0 0 -1
vn 0.004836618 0 -0.9999883
vn -0.002149881 0.006008475 -0.9999796
vn -0.01596802 0 -0.9998726
vn -0.01596802 0 -0.9998726
vn 0.004836691 0.003867084 -0.9999808
vn 0.002609526 0.009936886 -0.9999472
vn 0.002609524 0.009220242 -0.9999541
vn 0 0.01016755 -0.9999484
vn 0.004836618 0 -0.9999883
vn 0.01450951 0 -0.9998947
vn 0.01450951 0 -0.9998947
vn -0.01729386 -0.9998504 0
vn -0.01729386 -0.9998504 0
vn -0.01729386 -0.9998504 0
vn -0.01729386 -0.9998504 0
vn 0.008330269 0.9994067 -0.03342053
vn 0.0232015 0.9991721 -0.03341959
vn 0.01546796 0.9996321 -0.02227985
vn 0 1 0
vn 0 1 0
vn -1 0 0
vn -1 0 0
vn -1 0 0
vn -1 0 0
vn -1 0 0
vn -0.0172929 0.9998505 0
vn -0.0172929 0.9998505 0
vn -0.0172929 0.9998505 0
vn -0.0172929 0.9998505 0
vn 0.0157156 -0.9998765 0
vn 0.0157156 -0.9998765 0
vn 0.0157156 -0.9998765 0
vn 0.0157156 -0.9998765 0
vn 1 0 0
vn 1 0 0
vn 1 0 0
vn 1 0 0
vn 1 0 0
vn -1 0 0
vn -1 0 0
vn -1 0 0
vn -1 0 0
vn -1 0 0
vn -1 0 0
vn -0.9996291 0.01396168 0.02338302
vn -0.9996327 0.01803046 0.02022973
vn -0.9996327 0.01803046 0.02022973
vn -0.9998351 0.009308512 0.01558989
vn -0.9998997 0.004946761 0.01326917
vn -1 0 0
vn 0 1 0
vn 0 1 0
vn 0 1 0
vn 0 1 0
vn 0.9999381 0.01080985 -0.002638237
vn 0.9999381 0.01080985 -0.002638237
vn 0.9999381 0.01080985 -0.002638237
vn 0.9999381 0.01080985 -0.002638237

vt 0.2096274 0.2776323
vt 0.2096275 0.2776323
vt 0.2096275 0.2776323
vt 0.2096274 0.2776323
vt 0.2096274 0.2776323
vt 0.2096274 0.2776323
vt 0.2096274 0.2776323
vt 0.2096274 0.2776323
vt 0.2096274 0.2776323
vt 0.2096274 0.2776323
vt 0.2096274 0.2776323
vt 0.2096274 0.2776323
vt 0.2096274 0.2776323
vt 0.2096274 0.2776323
vt 0.2096274 0.2776323
vt 0.2096275 0.2776323
vt 0.2096275 0.2776323
vt 0.2096275 0.2776323
vt 0.2096274 0.2776323
vt 0.2096274 0.2776323
vt 0.2096274 0.2776323
vt 0.2096274 0.2776323
vt 0.2096275 0.2776323
vt 0.2096275 0.2776323
vt 0.2096274 0.2776323
vt 0.2096274 0.2776323
vt 0.2096274 0.2776323
vt 0.2096274 0.2776323
vt 0.2096274 0.2776323
vt 0.2096274 0.2776323
vt 0.2096275 0.2776323
vt 0.2096275 0.2776323
vt 0.2096275 0.2776323
vt 0.2096274 0.2776323
vt 0.2096274 0.2776323
vt 0.2096274 0.2776323
vt 0.2096275 0.2776323
vt 0.2096275 0.2776323
vt 0.2096275 0.2776323
vt 0.2096275 0.2776323
vt 0.2096275 0.2776323
vt 0.2096275 0.2776323
vt 0.2096274 0.2776323
vt 0.2096274 0.2776323
vt 0.2096274 0.2776323
vt 0.2096275 0.2776323
vt 0.2096275 0.2776323
vt 0.2096274 0.2776323
vt 0.2096274 0.2776323
vt 0.2096274 0.2776323
vt 0.2096274 0.2776323
vt 0.2096274 0.2776323
vt 0.2096274 0.2776323
vt 0.2096274 0.2776323
vt 0.2096275 0.2776323
vt 0.2096275 0.2776323
vt 0.2096274 0.2776323
vt 0.2096274 0.2776323
vt 0.2096275 0.2776323
vt 0.2096274 0.2776323
vt 0.2096275 0.2776323
vt 0.2096274 0.2776323
vt 0.2096274 0.2776323
vt 0.2096275 0.2776323
vt 0.2096275 0.2776323
vt 0.2096274 0.2776323
vt 0.2096274 0.2776323
vt 0.2096275 0.2776323
vt 0.2096275 0.2776323
vt 0.2096275 0.2776323
vt 0.2096275 0.2776323
vt 0.2096275 0.2776323
vt 0.2096275 0.2776323
vt 0.2096275 0.2776323
vt 0.2096274 0.2776323
vt 0.2096274 0.2776323
vt 0.2096274 0.2776323
vt 0.2096274 0.2776323
vt 0.2096275 0.2776323
vt 0.2096274 0.2776323
vt 0.2096274 0.2776323
vt 0.2096274 0.2776323
vt 0.2096275 0.2776323
vt 0.2096275 0.2776323
vt 0.2096274 0.2776323
vt 0.2096275 0.2776323
vt 0.2096274 0.2776323
vt 0.2096275 0.2776323
vt 0.2096275 0.2776323
vt 0.2096275 0.2776323
vt 0.2096274 0.2776323
vt 0.2096274 0.2776323
vt 0.2096274 0.2776323
vt 0.2096274 0.2776323
vt 0.2096275 0.2776323
vt 0.2096275 0.2776323
vt 0.2096275 0.2776323
vt 0.2096275 0.2776323
vt 0.2096275 0.2776323
vt 0.2096274 0.2776323
vt 0.2096274 0.2776323
vt 0.2096274 0.2776323
vt 0.2096275 0.2776323
vt 0.2096274 0.2776323
vt 0.2096275 0.2776323
vt 0.2096275 0.2776323
vt 0.2096274 0.2776323
vt 0.2096274 0.2776323
vt 0.2096275 0.2776323
vt 0.2096275 0.2776323
vt 0.2096274 0.2776323
vt 0.2096274 0.2776323
vt 0.2096275 0.2776323
vt 0.2096275 0.2776323
vt 0.2096274 0.2776323
vt 0.2096274 0.2776323
vt 0.2096275 0.2776323
vt 0.2096275 0.2776323
vt 0.2096274 0.2776323
vt 0.2096274 0.2776323
vt 0.2096274 0.2776323
vt 0.2096274 0.2776323
vt 0.2096274 0.2776323
vt 0.2096275 0.2776323
vt 0.2096274 0.2776323
vt 0.2096274 0.2776323
vt 0.2096274 0.2776323
vt 0.2096275 0.2776323
vt 0.2096274 0.2776323
vt 0.2096274 0.2776323
vt 0.2096274 0.2776323
vt 0.2096275 0.2776323
vt 0.2096275 0.2776323
vt 0.2096275 0.2776323
vt 0.2096275 0.2776323
vt 0.2096275 0.2776323
vt 0.2096275 0.2776323

usemtl PolygonWestern_Material_01_A
usemap PolygonWestern_Material_01_A
f 2/2/2 1/1/1 3/3/3
f 5/5/5 4/4/4 6/6/6
f 8/8/8 7/7/7 9/9/9
f 11/11/11 10/10/10 12/12/12
f 14/14/14 13/13/13 15/15/15
f 17/17/17 16/16/16 18/18/18
f 20/20/20 19/19/19 21/21/21
f 23/23/23 22/22/22 24/24/24
f 26/26/26 25/25/25 27/27/27
f 29/29/29 28/28/28 30/30/30
f 32/32/32 31/31/31 33/33/33
f 35/35/35 34/34/34 36/36/36
f 38/38/38 37/37/37 39/39/39
f 41/41/41 40/40/40 42/42/42
f 44/44/44 43/43/43 45/45/45
f 45/45/45 43/43/43 46/46/46
f 47/47/47 45/45/45 46/46/46
f 48/48/48 45/45/45 47/47/47
f 43/43/43 49/49/49 46/46/46
f 43/43/43 50/50/50 49/49/49
f 51/51/51 49/49/49 50/50/50
f 52/52/52 51/51/51 50/50/50
f 46/46/46 49/49/49 53/53/53
f 49/49/49 54/54/54 53/53/53
f 55/55/55 46/46/46 53/53/53
f 56/56/56 46/46/46 55/55/55
f 57/57/57 55/55/55 53/53/53
f 58/58/58 55/55/55 57/57/57
f 59/59/59 55/55/55 58/58/58
f 53/53/53 54/54/54 60/60/60
f 60/60/60 54/54/54 61/61/61
f 54/54/54 62/62/62 61/61/61
f 63/63/63 62/62/62 54/54/54
f 61/61/61 62/62/62 64/64/64
f 64/64/64 62/62/62 65/65/65
f 67/67/67 66/66/66 68/68/68
f 68/68/68 66/66/66 69/69/69
f 71/71/71 70/70/70 72/72/72
f 72/72/72 70/70/70 73/73/73
f 74/74/74 72/72/72 73/73/73
f 75/75/75 72/72/72 74/74/74
f 76/76/76 72/72/72 75/75/75
f 78/78/78 77/77/77 79/79/79
f 79/79/79 77/77/77 80/80/80
f 77/77/77 81/81/81 80/80/80
f 82/82/82 81/81/81 77/77/77
f 83/83/83 81/81/81 82/82/82
f 80/80/80 81/81/81 84/84/84
f 84/84/84 81/81/81 85/85/85
f 86/86/86 85/85/85 81/81/81
f 87/87/87 86/86/86 81/81/81
f 89/89/89 88/88/88 84/84/84
f 90/90/90 88/88/88 89/89/89
f 92/92/92 91/91/91 93/93/93
f 93/93/93 91/91/91 94/94/94
f 96/96/96 95/95/95 97/97/97
f 97/97/97 95/95/95 98/98/98
f 98/98/98 95/95/95 99/99/99
f 101/101/101 100/100/100 102/102/102
f 103/103/103 102/102/102 100/100/100
f 104/104/104 103/103/103 100/100/100
f 106/106/106 105/105/105 107/107/107
f 108/108/108 107/107/107 105/105/105
f 110/110/110 109/109/109 111/111/111
f 112/112/112 111/111/111 109/109/109
f 114/114/114 113/113/113 115/115/115
f 116/116/116 115/115/115 113/113/113
f 117/117/117 116/116/116 113/113/113
f 119/119/119 118/118/118 120/120/120
f 121/121/121 118/118/118 119/119/119
f 122/122/122 118/118/118 121/121/121
f 123/123/123 122/122/122 121/121/121
f 125/125/125 124/124/124 126/126/126
f 127/127/127 124/124/124 125/125/125
f 128/128/128 124/124/124 127/127/127
f 129/129/129 128/128/128 127/127/127
f 131/131/131 130/130/130 132/132/132
f 132/132/132 130/130/130 133/133/133
f 135/135/135 134/134/134 136/136/136
f 136/136/136 134/134/134 137/137/137
