mtllib ./SM_Prop_Stick_01_100.mtl
g SM_Prop_Stick_01
v -0.141095 0.8655666 0.01554062
v -0.130688 0.8635614 0.02613174
v -0.1374847 0.8509143 0.0304158
v -0.1478918 0.8529195 0.01982483
v -0.01783722 0.6755837 -0.06418151
v -0.141095 0.8655666 0.01554062
v -0.1478918 0.8529195 0.01982483
v -0.03224014 0.6487834 -0.05510315
v -0.03224014 0.6487834 -0.05510315
v -0.1478918 0.8529195 0.01982483
v -0.1374847 0.8509143 0.0304158
v -0.01018677 0.6445341 -0.03265991
v -0.01018677 0.6445341 -0.03265991
v -0.1374847 0.8509143 0.0304158
v -0.130688 0.8635614 0.02613174
v 0.004216003 0.6713344 -0.04173828
v 0.004216003 0.6713344 -0.04173828
v -0.130688 0.8635614 0.02613174
v -0.141095 0.8655666 0.01554062
v -0.01783722 0.6755837 -0.06418151
v -0.02679474 0 0.02567779
v 0.05857757 0.3512198 0.009168854
v 0.02751419 0 0.02567779
v 0.004268646 0.3512198 0.009168854
v 0.003685455 0.6597009 -0.03044174
v -0.0339061 0.6597009 -0.03044174
v 0.06467773 1.019556 -0.0440947
v 0.02708603 1.019556 -0.0440947
v 0.02060959 1.350746 -0.04344849
v 0.002870026 1.350746 -0.04344849
v 0.002870026 1.350746 -0.04344849
v 0.002870026 1.350746 -0.0611879
v 0.02060959 1.350746 -0.0611879
v 0.02060959 1.350746 -0.04344849
v 0.004268646 0.3512198 -0.04514023
v -0.02679474 0 -0.02863129
v 0.02751419 0 -0.02863129
v 0.05857757 0.3512198 -0.04514023
v -0.0339061 0.6597009 -0.06803329
v 0.003685455 0.6597009 -0.06803329
v 0.02708603 1.019556 -0.08168624
v 0.06467773 1.019556 -0.08168624
v -0.02679474 0 -0.02863129
v -0.02679474 0 0.02567779
v 0.02751419 0 0.02567779
v 0.02751419 0 -0.02863129
v 0.02751419 0 0.02567779
v 0.05857757 0.3512198 0.009168854
v 0.05857757 0.3512198 -0.04514023
v 0.02751419 0 -0.02863129
v -0.02679474 0 -0.02863129
v 0.004268646 0.3512198 -0.04514023
v 0.004268646 0.3512198 0.009168854
v -0.02679474 0 0.02567779
v 0.05857757 0.3512198 0.009168854
v 0.003685455 0.6597009 -0.03044174
v 0.003685455 0.6597009 -0.06803329
v 0.05857757 0.3512198 -0.04514023
v 0.004268646 0.3512198 -0.04514023
v -0.0339061 0.6597009 -0.06803329
v -0.0339061 0.6597009 -0.03044174
v 0.004268646 0.3512198 0.009168854
v 0.003685455 0.6597009 -0.03044174
v 0.06467773 1.019556 -0.0440947
v 0.06467773 1.019556 -0.08168624
v 0.003685455 0.6597009 -0.06803329
v -0.0339061 0.6597009 -0.06803329
v 0.02708603 1.019556 -0.08168624
v 0.02708603 1.019556 -0.0440947
v -0.0339061 0.6597009 -0.03044174
v 0.06467773 1.019556 -0.0440947
v 0.02060959 1.350746 -0.04344849
v 0.02060959 1.350746 -0.0611879
v 0.06467773 1.019556 -0.08168624
v 0.06467773 1.019556 -0.08168624
v 0.02060959 1.350746 -0.0611879
v 0.002870026 1.350746 -0.0611879
v 0.02708603 1.019556 -0.08168624
v 0.02708603 1.019556 -0.08168624
v 0.002870026 1.350746 -0.0611879
v 0.002870026 1.350746 -0.04344849
v 0.02708603 1.019556 -0.0440947
v 0.1895235 0.5794907 -0.1065193
v 0.1808684 0.5744082 -0.1211462
v 0.1901744 0.5593079 -0.1214059
v 0.1988295 0.5643903 -0.106779
v 0.03213608 0.3743941 -0.009016571
v 0.1895235 0.5794907 -0.1065193
v 0.1988295 0.5643903 -0.106779
v 0.05185669 0.3423952 -0.009566955
v 0.05185669 0.3423952 -0.009566955
v 0.1988295 0.5643903 -0.106779
v 0.1901744 0.5593079 -0.1214059
v 0.03351593 0.331625 -0.04056274
v 0.03351593 0.331625 -0.04056274
v 0.1901744 0.5593079 -0.1214059
v 0.1808684 0.5744082 -0.1211462
v 0.01379517 0.363624 -0.04001236
v 0.01379517 0.363624 -0.04001236
v 0.1808684 0.5744082 -0.1211462
v 0.1895235 0.5794907 -0.1065193
v 0.03213608 0.3743941 -0.009016571
v 0.1040474 1.19155 -0.2073468
v 0.1013936 1.181228 -0.2149719
v 0.1121059 1.175158 -0.2104842
v 0.1147597 1.18548 -0.2028592
v 0.03515396 1.038617 -0.05912094
v 0.1040474 1.19155 -0.2073468
v 0.1147597 1.18548 -0.2028592
v 0.05785446 1.025756 -0.04961105
v 0.05785446 1.025756 -0.04961105
v 0.1147597 1.18548 -0.2028592
v 0.1121059 1.175158 -0.2104842
v 0.05223068 1.003882 -0.0657692
v 0.05223068 1.003882 -0.0657692
v 0.1121059 1.175158 -0.2104842
v 0.1013936 1.181228 -0.2149719
v 0.02953033 1.016744 -0.07527908
v 0.02953033 1.016744 -0.07527908
v 0.1013936 1.181228 -0.2149719
v 0.1040474 1.19155 -0.2073468
v 0.03515396 1.038617 -0.05912094

vn -0.5583795 0.5192479 0.6469883
vn -0.5583795 0.5192479 0.6469883
vn -0.5583795 0.5192479 0.6469883
vn -0.5583795 0.5192479 0.6469883
vn -0.5386473 0.004080275 -0.8425215
vn -0.5386473 0.004080275 -0.8425215
vn -0.5386473 0.004080275 -0.8425215
vn -0.5386473 0.004080275 -0.8425215
vn -0.6426185 -0.5571286 0.5259745
vn -0.6426185 -0.5571286 0.5259745
vn -0.6426185 -0.5571286 0.5259745
vn -0.6426185 -0.5571286 0.5259745
vn 0.4871749 0.03378856 0.8726505
vn 0.4871749 0.03378856 0.8726505
vn 0.4871749 0.03378856 0.8726505
vn 0.4871749 0.03378856 0.8726505
vn 0.6200858 0.6095551 -0.4938989
vn 0.6200858 0.6095551 -0.4938989
vn 0.6200858 0.6095551 -0.4938989
vn 0.6200858 0.6095551 -0.4938989
vn 0 0.04695275 0.9988971
vn 0 0.08722726 0.9961885
vn 0 0.04695275 0.9988971
vn 0 0.08722726 0.9961885
vn 0 0.08271958 0.9965729
vn 0 0.08271958 0.9965729
vn 0 0.01798444 0.9998382
vn 0 0.01798444 0.9998382
vn 0 -0.001951171 0.9999981
vn 0 -0.001951171 0.9999981
vn 0 1 0
vn 0 1 0
vn 0 1 0
vn 0 1 0
vn 0 -0.06048627 -0.9981691
vn 0 -0.04695275 -0.9988971
vn 0 -0.04695275 -0.9988971
vn 0 -0.06048627 -0.9981691
vn 0 -0.05596994 -0.9984325
vn 0 -0.05596994 -0.9984325
vn 0 -0.0379129 -0.9992811
vn 0 -0.0379129 -0.9992811
vn 0 -1 0
vn 0 -1 0
vn 0 -1 0
vn 0 -1 0
vn 0.9961116 -0.08810038 0
vn 0.9961116 -0.08810038 0
vn 0.9961116 -0.08810038 0
vn 0.9961116 -0.08810038 0
vn -0.9961116 0.08810038 0
vn -0.9961116 0.08810038 0
vn -0.9961116 0.08810038 0
vn -0.9961116 0.08810038 0
vn 0.9845344 0.1751912 0
vn 0.9845344 0.1751912 0
vn 0.9845344 0.1751912 0
vn 0.9845344 0.1751912 0
vn -0.9924298 -0.1228138 0
vn -0.9924298 -0.1228138 0
vn -0.9924298 -0.1228138 0
vn -0.9924298 -0.1228138 0
vn 0.9859386 -0.1671081 0
vn 0.9859386 -0.1671081 0
vn 0.9859386 -0.1671081 0
vn 0.9859386 -0.1671081 0
vn -0.9859387 0.1671077 0
vn -0.9859387 0.1671077 0
vn -0.9859387 0.1671077 0
vn -0.9859387 0.1671077 0
vn 0.9912634 0.1318975 0
vn 0.9912634 0.1318975 0
vn 0.9912634 0.1318975 0
vn 0.9912634 0.1318975 0
vn 0 0.06177479 -0.9980901
vn 0 0.06177479 -0.9980901
vn 0 0.06177479 -0.9980901
vn 0 0.06177479 -0.9980901
vn -0.9973375 -0.07292346 0
vn -0.9973375 -0.07292346 0
vn -0.9973375 -0.07292346 0
vn -0.9973375 -0.07292346 0
vn 0.6976777 0.4396904 -0.5656131
vn 0.6976777 0.4396904 -0.5656131
vn 0.6976777 0.4396904 -0.5656131
vn 0.6976777 0.4396904 -0.5656131
vn 0.329465 0.1871272 0.9254385
vn 0.329465 0.1871272 0.9254385
vn 0.329465 0.1871272 0.9254385
vn 0.329465 0.1871272 0.9254385
vn 0.7585854 -0.6065009 -0.2381278
vn 0.7585854 -0.6065009 -0.2381278
vn 0.7585854 -0.6065009 -0.2381278
vn 0.7585854 -0.6065009 -0.2381278
vn -0.2713071 -0.1508535 -0.9505975
vn -0.2713071 -0.1508535 -0.9505975
vn -0.2713071 -0.1508535 -0.9505975
vn -0.2713071 -0.1508535 -0.9505975
vn -0.7278044 0.6550348 0.2030522
vn -0.7278044 0.6550348 0.2030522
vn -0.7278044 0.6550348 0.2030522
vn -0.7278044 0.6550348 0.2030522
vn 0.5392283 0.4062928 -0.7376713
vn 0.5392283 0.4062928 -0.7376713
vn 0.5392283 0.4062928 -0.7376713
vn 0.5392283 0.4062928 -0.7376713
vn 0.07602452 0.6760863 0.7328899
vn 0.07602452 0.6760863 0.7328899
vn 0.07602452 0.6760863 0.7328899
vn 0.07602452 0.6760863 0.7328899
vn 0.956268 -0.2871121 0.05584244
vn 0.956268 -0.2871121 0.05584244
vn 0.956268 -0.2871121 0.05584244
vn 0.956268 -0.2871121 0.05584244
vn -0.03841291 -0.6370483 -0.7698662
vn -0.03841291 -0.6370483 -0.7698662
vn -0.03841291 -0.6370483 -0.7698662
vn -0.03841291 -0.6370483 -0.7698662
vn -0.9411688 0.3206949 -0.1065643
vn -0.9411688 0.3206949 -0.1065643
vn -0.9411688 0.3206949 -0.1065643
vn -0.9411688 0.3206949 -0.1065643

vt 0.1996496 0.3261296
vt 0.1996496 0.3261296
vt 0.1996496 0.3261296
vt 0.1996496 0.3261296
vt 0.1996496 0.3261296
vt 0.1996496 0.3261296
vt 0.1996496 0.3261296
vt 0.1996496 0.3261296
vt 0.1996496 0.3261296
vt 0.1996496 0.3261296
vt 0.1996496 0.3261296
vt 0.1996496 0.3261296
vt 0.1996496 0.3261296
vt 0.1996496 0.3261296
vt 0.1996496 0.3261296
vt 0.1996496 0.3261296
vt 0.1996496 0.3261296
vt 0.1996496 0.3261296
vt 0.1996496 0.3261296
vt 0.1996496 0.3261296
vt 0.1996496 0.3261295
vt 0.1996496 0.3261296
vt 0.1996496 0.3261295
vt 0.1996496 0.3261296
vt 0.1996496 0.3261296
vt 0.1996496 0.3261296
vt 0.1996496 0.3261296
vt 0.1996496 0.3261296
vt 0.1996496 0.3261296
vt 0.1996496 0.3261296
vt 0.1996496 0.3261296
vt 0.1996496 0.3261296
vt 0.1996496 0.3261296
vt 0.1996496 0.3261296
vt 0.1996496 0.3261296
vt 0.1996496 0.3261295
vt 0.1996496 0.3261295
vt 0.1996496 0.3261296
vt 0.1996496 0.3261296
vt 0.1996496 0.3261296
vt 0.1996496 0.3261296
vt 0.1996496 0.3261296
vt 0.1996496 0.3261295
vt 0.1996496 0.3261295
vt 0.1996496 0.3261295
vt 0.1996496 0.3261295
vt 0.1996496 0.3261295
vt 0.1996496 0.3261296
vt 0.1996496 0.3261296
vt 0.1996496 0.3261295
vt 0.1996496 0.3261295
vt 0.1996496 0.3261296
vt 0.1996496 0.3261296
vt 0.1996496 0.3261295
vt 0.1996496 0.3261296
vt 0.1996496 0.3261296
vt 0.1996496 0.3261296
vt 0.1996496 0.3261296
vt 0.1996496 0.3261296
vt 0.1996496 0.3261296
vt 0.1996496 0.3261296
vt 0.1996496 0.3261296
vt 0.1996496 0.3261296
vt 0.1996496 0.3261296
vt 0.1996496 0.3261296
vt 0.1996496 0.3261296
vt 0.1996496 0.3261296
vt 0.1996496 0.3261296
vt 0.1996496 0.3261296
vt 0.1996496 0.3261296
vt 0.1996496 0.3261296
vt 0.1996496 0.3261296
vt 0.1996496 0.3261296
vt 0.1996496 0.3261296
vt 0.1996496 0.3261296
vt 0.1996496 0.3261296
vt 0.1996496 0.3261296
vt 0.1996496 0.3261296
vt 0.1996496 0.3261296
vt 0.1996496 0.3261296
vt 0.1996496 0.3261296
vt 0.1996496 0.3261296
vt 0.1996496 0.3261296
vt 0.1996496 0.3261296
vt 0.1996496 0.3261296
vt 0.1996496 0.3261296
vt 0.1996496 0.3261296
vt 0.1996496 0.3261296
vt 0.1996496 0.3261296
vt 0.1996496 0.3261296
vt 0.1996496 0.3261296
vt 0.1996496 0.3261296
vt 0.1996496 0.3261296
vt 0.1996496 0.3261296
vt 0.1996496 0.3261296
vt 0.1996496 0.3261296
vt 0.1996496 0.3261296
vt 0.1996496 0.3261296
vt 0.1996496 0.3261296
vt 0.1996496 0.3261296
vt 0.1996496 0.3261296
vt 0.1996496 0.3261296
vt 0.1996496 0.3261296
vt 0.1996496 0.3261296
vt 0.1996496 0.3261296
vt 0.1996496 0.3261296
vt 0.1996496 0.3261296
vt 0.1996496 0.3261296
vt 0.1996496 0.3261296
vt 0.1996496 0.3261296
vt 0.1996496 0.3261296
vt 0.1996496 0.3261296
vt 0.1996496 0.3261296
vt 0.1996496 0.3261296
vt 0.1996496 0.3261296
vt 0.1996496 0.3261296
vt 0.1996496 0.3261296
vt 0.1996496 0.3261296
vt 0.1996496 0.3261296
vt 0.1996496 0.3261296
vt 0.1996496 0.3261296
vt 0.1996496 0.3261296

usemtl PolygonWestern_Material_01_A
usemap PolygonWestern_Material_01_A
f 2/2/2 1/1/1 3/3/3
f 3/3/3 1/1/1 4/4/4
f 6/6/6 5/5/5 7/7/7
f 7/7/7 5/5/5 8/8/8
f 10/10/10 9/9/9 11/11/11
f 11/11/11 9/9/9 12/12/12
f 14/14/14 13/13/13 15/15/15
f 15/15/15 13/13/13 16/16/16
f 18/18/18 17/17/17 19/19/19
f 19/19/19 17/17/17 20/20/20
f 22/22/22 21/21/21 23/23/23
f 24/24/24 21/21/21 22/22/22
f 25/25/25 24/24/24 22/22/22
f 26/26/26 24/24/24 25/25/25
f 27/27/27 26/26/26 25/25/25
f 28/28/28 26/26/26 27/27/27
f 29/29/29 28/28/28 27/27/27
f 30/30/30 28/28/28 29/29/29
f 32/32/32 31/31/31 33/33/33
f 33/33/33 31/31/31 34/34/34
f 36/36/36 35/35/35 37/37/37
f 37/37/37 35/35/35 38/38/38
f 39/39/39 38/38/38 35/35/35
f 40/40/40 38/38/38 39/39/39
f 41/41/41 40/40/40 39/39/39
f 42/42/42 40/40/40 41/41/41
f 44/44/44 43/43/43 45/45/45
f 45/45/45 43/43/43 46/46/46
f 48/48/48 47/47/47 49/49/49
f 49/49/49 47/47/47 50/50/50
f 52/52/52 51/51/51 53/53/53
f 53/53/53 51/51/51 54/54/54
f 56/56/56 55/55/55 57/57/57
f 57/57/57 55/55/55 58/58/58
f 60/60/60 59/59/59 61/61/61
f 61/61/61 59/59/59 62/62/62
f 64/64/64 63/63/63 65/65/65
f 65/65/65 63/63/63 66/66/66
f 68/68/68 67/67/67 69/69/69
f 69/69/69 67/67/67 70/70/70
f 72/72/72 71/71/71 73/73/73
f 73/73/73 71/71/71 74/74/74
f 76/76/76 75/75/75 77/77/77
f 77/77/77 75/75/75 78/78/78
f 80/80/80 79/79/79 81/81/81
f 81/81/81 79/79/79 82/82/82
f 84/84/84 83/83/83 85/85/85
f 85/85/85 83/83/83 86/86/86
f 88/88/88 87/87/87 89/89/89
f 89/89/89 87/87/87 90/90/90
f 92/92/92 91/91/91 93/93/93
f 93/93/93 91/91/91 94/94/94
f 96/96/96 95/95/95 97/97/97
f 97/97/97 95/95/95 98/98/98
f 100/100/100 99/99/99 101/101/101
f 101/101/101 99/99/99 102/102/102
f 104/104/104 103/103/103 105/105/105
f 105/105/105 103/103/103 106/106/106
f 108/108/108 107/107/107 109/109/109
f 109/109/109 107/107/107 110/110/110
f 112/112/112 111/111/111 113/113/113
f 113/113/113 111/111/111 114/114/114
f 116/116/116 115/115/115 117/117/117
f 117/117/117 115/115/115 118/118/118
f 120/120/120 119/119/119 121/121/121
f 121/121/121 119/119/119 122/122/122
