mtllib ./SM_Prop_Wood_Pile_04_122.mtl
g SM_Prop_Wood_Pile_04
v -0.06816284 0.156904 0.6067874
v 0.1682432 0.008105509 0.6067874
v 0.05281578 -0.1215766 0.6067874
v -0.1207463 -0.1174385 0.6067874
v 0.1943747 -0.02253683 0.6067874
v 0.1943747 -0.02253683 -0.6067874
v 0.06816284 -0.156904 -0.6067874
v 0.06816284 -0.156904 0.6067874
v 0.1682432 0.008105509 -0.6067874
v -0.06816284 0.156904 -0.6067874
v -0.1207463 -0.1174385 -0.6067874
v 0.05281578 -0.1215766 -0.6067874
v -0.06816284 0.156904 0.6067874
v -0.1207463 -0.1174385 0.6067874
v -0.1207463 -0.1174385 -0.6067874
v -0.06816284 0.156904 -0.6067874
v -0.06816284 0.156904 -0.6067874
v 0.1682432 0.008105509 -0.6067874
v 0.1682432 0.008105509 0.6067874
v -0.06816284 0.156904 0.6067874
v 0.1682432 0.008105509 0.6067874
v 0.1943747 -0.02253683 0.6067874
v 0.06816284 -0.156904 0.6067874
v 0.05281578 -0.1215766 0.6067874
v 0.05281578 -0.1215766 0.6067874
v -0.1161837 -0.1574508 0.6067874
v -0.1207463 -0.1174385 0.6067874
v -0.1207463 -0.1174385 0.6067874
v -0.1161837 -0.1574508 0.6067874
v -0.1161837 -0.1574508 -0.6067874
v -0.1207463 -0.1174385 -0.6067874
v 0.05281578 -0.1215766 -0.6067874
v 0.1943747 -0.02253683 -0.6067874
v 0.1682432 0.008105509 -0.6067874
v 0.06816284 -0.156904 -0.6067874
v -0.1207463 -0.1174385 -0.6067874
v -0.1161837 -0.1574508 -0.6067874
v 0.05281578 -0.1215766 -0.6067874
v 0.1682432 0.008105509 -0.6067874
v 0.1943747 -0.02253683 -0.6067874
v 0.1943747 -0.02253683 0.6067874
v 0.1682432 0.008105509 0.6067874
v 0.06816284 -0.156904 -0.6067874
v -0.1161837 -0.1574508 -0.6067874
v -0.1161837 -0.1574508 0.6067874
v 0.06816284 -0.156904 0.6067874

vn 0 0 1
vn 0 0 1
vn 0 0 1
vn 0 0 1
vn 0.72888 -0.6846415 0
vn 0.72888 -0.6846415 0
vn 0.72888 -0.6846415 0
vn 0.72888 -0.6846415 0
vn 0 0 -1
vn 0 0 -1
vn 0 0 -1
vn 0 0 -1
vn -0.9821222 0.1882443 0
vn -0.9821222 0.1882443 0
vn -0.9821222 0.1882443 0
vn -0.9821222 0.1882443 0
vn 0.5326857 0.8463132 0
vn 0.5326857 0.8463132 0
vn 0.5326857 0.8463132 0
vn 0.5326857 0.8463132 0
vn 0 0 1
vn 0 0 1
vn 0 0 1
vn 0 0 1
vn 0 0 1
vn 0 0 1
vn 0 0 1
vn -0.9935614 -0.1132952 0
vn -0.9935614 -0.1132952 0
vn -0.9935614 -0.1132952 0
vn -0.9935614 -0.1132952 0
vn 0 0 -1
vn 0 0 -1
vn 0 0 -1
vn 0 0 -1
vn 0 0 -1
vn 0 0 -1
vn 0 0 -1
vn 0.7608901 0.6488808 0
vn 0.7608901 0.6488808 0
vn 0.7608901 0.6488808 0
vn 0.7608901 0.6488808 0
vn 0.002966598 -0.9999956 0
vn 0.002966598 -0.9999956 0
vn 0.002966598 -0.9999956 0
vn 0.002966598 -0.9999956 0

vt 0.002838999 0.3272595
vt 0.002838984 0.3272596
vt 0.002838999 0.3272596
vt 0.002838969 0.3272596
vt 0.01649094 0.2772036
vt 0.01649094 0.2772036
vt 0.01649076 0.2772036
vt 0.01649076 0.2772036
vt 0.002838984 0.3272596
vt 0.002838999 0.3272595
vt 0.002838969 0.3272596
vt 0.002838999 0.3272596
vt 0.002838999 0.3272595
vt 0.002838969 0.3272596
vt 0.002838969 0.3272596
vt 0.002838969 0.3272595
vt 0.002838954 0.3272595
vt 0.002838954 0.3272596
vt 0.002838984 0.3272596
vt 0.002838999 0.3272595
vt 0.01649094 0.2772026
vt 0.01649094 0.2772036
vt 0.01649076 0.2772036
vt 0.01649076 0.2772036
vt 0.01649076 0.2772036
vt 0.01649094 0.2772036
vt 0.01649094 0.2772026
vt 0.01649094 0.2772026
vt 0.01649094 0.2772036
vt 0.01649094 0.2772036
vt 0.01649094 0.2772026
vt 0.01649076 0.2772036
vt 0.01649094 0.2772036
vt 0.01649094 0.2772026
vt 0.01649076 0.2772036
vt 0.01649094 0.2772026
vt 0.01649094 0.2772036
vt 0.01649076 0.2772036
vt 0.01649094 0.2772026
vt 0.01649094 0.2772036
vt 0.01649094 0.2772036
vt 0.01649094 0.2772026
vt 0.01649076 0.2772036
vt 0.01649094 0.2772036
vt 0.01649094 0.2772036
vt 0.01649076 0.2772036

usemtl PolygonWestern_Material_01_A
usemap PolygonWestern_Material_01_A
f 2/2/2 1/1/1 3/3/3
f 3/3/3 1/1/1 4/4/4
f 6/6/6 5/5/5 7/7/7
f 7/7/7 5/5/5 8/8/8
f 10/10/10 9/9/9 11/11/11
f 11/11/11 9/9/9 12/12/12
f 14/14/14 13/13/13 15/15/15
f 15/15/15 13/13/13 16/16/16
f 18/18/18 17/17/17 19/19/19
f 19/19/19 17/17/17 20/20/20
f 22/22/22 21/21/21 23/23/23
f 23/23/23 21/21/21 24/24/24
f 23/23/23 25/25/25 26/26/26
f 26/26/26 25/25/25 27/27/27
f 29/29/29 28/28/28 30/30/30
f 30/30/30 28/28/28 31/31/31
f 33/33/33 32/32/32 34/34/34
f 35/35/35 32/32/32 33/33/33
f 37/37/37 36/36/36 35/35/35
f 35/35/35 36/36/36 38/38/38
f 40/40/40 39/39/39 41/41/41
f 41/41/41 39/39/39 42/42/42
f 44/44/44 43/43/43 45/45/45
f 45/45/45 43/43/43 46/46/46
