mtllib ./SM_Prop_Map_01_35.mtl
g SM_Prop_Map_01
v -0.02467346 0.01685619 0
v -0.03217316 0.006322503 -0.200943
v -0.06187439 0 -0.200943
v -0.04745483 0.01287282 0
v -0.03217316 0.006322503 0.200943
v -0.06187439 0 0.200943
v -0.04745483 0.01287282 0
v -0.06187439 0 -0.200943
v -0.08734512 0.01653028 -0.200943
v -0.0669899 0.0232873 0
v -0.0669899 0.0232873 0
v -0.08734512 0.01653028 -0.200943
v -0.09366608 0.04623032 -0.200943
v -0.07183838 0.04199982 0
v -0.07183838 0.04199982 0
v -0.09366608 0.04623032 -0.200943
v -0.07713699 0.071702 -0.200943
v -0.05915833 0.05804729 0
v -0.05915833 0.05804729 0
v -0.07713699 0.071702 -0.200943
v -0.04588699 0.07340097 -0.200943
v -0.0349617 0.05778885 0
v -0.0349617 0.05778885 0
v -0.04588699 0.07340097 -0.200943
v -0.02345657 0.05191851 -0.200943
v -0.01821136 0.04283142 0
v -0.04588699 0.07340097 0.200943
v -0.02345657 0.05191851 0.200943
v -0.01821136 0.04283142 0
v -0.02345657 0.05191851 -0.200943
v -0.02938843 0.02008116 -0.200943
v -0.02380753 0.03001213 0
v -0.02345657 0.05191851 0.200943
v -0.02938843 0.02069616 0.200943
v -0.003593445 0.02388978 0
v -0.004684448 0.01748633 -0.200943
v -0.03217316 0.006322503 -0.200943
v -0.02467346 0.01685619 0
v -0.03217316 0.006322503 0.200943
v -0.004684448 0.01748633 0.200943
v -0.02938843 0.02008116 -0.200943
v -0.01386261 0.02771211 -0.200943
v -0.01063156 0.03033209 0
v -0.02380753 0.03001213 0
v -0.02938843 0.02069616 0.200943
v -0.01386261 0.02771211 0.200943
v 0.01730728 0.04342747 0
v 0.02220154 0.05382252 -0.200943
v -0.004684448 0.01748633 -0.200943
v -0.003593445 0.02388978 0
v -0.004684448 0.01748633 0.200943
v 0.02220154 0.05401993 0.200943
v -0.01386261 0.02771211 -0.200943
v 0.01747131 0.06969595 -0.200943
v 0.01625443 0.05772352 0
v -0.01063156 0.03033209 0
v -0.01386261 0.02771211 0.200943
v 0.01747131 0.06969595 0.200943
v 0.01747131 0.06969595 -0.200943
v 0.04368973 0.08275223 -0.200943
v 0.03496933 0.06069279 0
v 0.01625443 0.05772352 0
v 0.04368973 0.08275223 -0.200943
v 0.0736618 0.0816555 -0.200943
v 0.05589294 0.06241798 0
v 0.03496933 0.06069279 0
v 0.0736618 0.0816555 -0.200943
v 0.09366608 0.05412769 -0.200943
v 0.07183838 0.04697466 0
v 0.05589294 0.06241798 0
v 0.07179642 0.02784371 0
v 0.09361267 0.02376246 -0.200943
v 0.07210159 0.002330184 -0.200943
v 0.05529785 0.01434088 0
v 0.05529785 0.01434088 0
v 0.07210159 0.002330184 -0.200943
v 0.0417366 0.002385765 -0.200943
v 0.03200912 0.01437593 0
v 0.03200912 0.01437593 0
v 0.0417366 0.002385765 -0.200943
v 0.02030182 0.02389669 -0.200943
v 0.01557159 0.02792835 0
v 0.0417366 0.002385765 0.200943
v 0.02030182 0.02389669 0.200943
v 0.01557159 0.02792835 0
v 0.02030182 0.02389669 -0.200943
v 0.02220154 0.05382252 -0.200943
v 0.01730728 0.04342747 0
v 0.02030182 0.02389669 0.200943
v 0.02220154 0.05401993 0.200943
v 0.07183838 0.04697466 0
v 0.09366608 0.05412769 -0.200943
v 0.09361267 0.02376246 -0.200943
v 0.07179642 0.02784371 0
v -0.06187439 0 0.200943
v -0.04745483 0.01287282 0
v -0.0669899 0.0232873 0
v -0.08734512 0.01653028 0.200943
v -0.08734512 0.01653028 0.200943
v -0.0669899 0.0232873 0
v -0.07183838 0.04199982 0
v -0.09366608 0.04623032 0.200943
v -0.09366608 0.04623032 0.200943
v -0.07183838 0.04199982 0
v -0.05915833 0.05804729 0
v -0.07713699 0.071702 0.200943
v -0.07713699 0.071702 0.200943
v -0.05915833 0.05804729 0
v -0.0349617 0.05778885 0
v -0.04588699 0.07340097 0.200943
v 0.03496933 0.06069279 0
v 0.04368973 0.08275318 0.200943
v 0.01747131 0.06969595 0.200943
v 0.01625443 0.05772352 0
v 0.05589294 0.06241798 0
v 0.0736618 0.0816555 0.200943
v 0.04368973 0.08275318 0.200943
v 0.03496933 0.06069279 0
v 0.07183838 0.04697466 0
v 0.09366608 0.05412769 0.200943
v 0.0736618 0.0816555 0.200943
v 0.05589294 0.06241798 0
v 0.09366608 0.05412769 0.200943
v 0.07183838 0.04697466 0
v 0.07179642 0.02784371 0
v 0.09361267 0.02376246 0.200943
v 0.09361267 0.02376246 0.200943
v 0.07179642 0.02784371 0
v 0.05529785 0.01434088 0
v 0.07210159 0.002330184 0.200943
v 0.07210159 0.002330184 0.200943
v 0.05529785 0.01434088 0
v 0.03200912 0.01437593 0
v 0.0417366 0.002385765 0.200943
v -0.02938843 0.02069616 0.200943
v -0.004684448 0.01748633 0.200943
v -0.03217316 0.006322503 0.200943
v -0.06187439 0 0.200943
v -0.01386261 0.02771211 0.200943
v 0.02220154 0.05401993 0.200943
v 0.01747131 0.06969595 0.200943
v 0.04368973 0.08275318 0.200943
v -0.05986786 0.0108459 0.200943
v -0.08734512 0.01653028 0.200943
v -0.07825851 0.02278042 0.200943
v -0.09366608 0.04623032 0.200943
v -0.08282089 0.04422379 0.200943
v -0.07713699 0.071702 0.200943
v -0.07084656 0.06224632 0.200943
v -0.04588699 0.07340097 0.200943
v -0.04872513 0.06377459 0.200943
v -0.02345657 0.05191851 0.200943
v -0.03294754 0.04902792 0.200943
v 0.04740906 0.06999588 0.200943
v 0.0736618 0.0816555 0.200943
v 0.06895447 0.0696044 0.200943
v 0.09366608 0.05412769 0.200943
v 0.08356476 0.05065489 0.200943
v 0.09361267 0.02376246 0.200943
v 0.08342743 0.02800202 0.200943
v 0.07210159 0.002330184 0.200943
v 0.0678978 0.01252806 0.200943
v 0.0417366 0.002385765 0.200943
v 0.04597473 0.01256824 0.200943
v 0.02030182 0.02389669 0.200943
v 0.03078079 0.02765751 0.200943
v -0.05986786 0.0108459 0.200943
v -0.05465317 0.03901219 0.200943
v -0.02938843 0.02069616 0.200943
v -0.07825851 0.02278042 0.200943
v -0.03294754 0.04902792 0.200943
v -0.08282089 0.04422379 0.200943
v -0.04872513 0.06377459 0.200943
v -0.07084656 0.06224632 0.200943
v -0.02938843 0.02008116 -0.200943
v -0.05465317 0.03901219 -0.200943
v -0.05986786 0.0108459 -0.200943
v -0.03294754 0.04902792 -0.200943
v -0.07825851 0.02278042 -0.200943
v -0.04872513 0.06377459 -0.200943
v -0.08282089 0.04422379 -0.200943
v -0.07084656 0.06224632 -0.200943
v 0.0678978 0.01252806 0.200943
v 0.05698395 0.03901219 0.200943
v 0.08342743 0.02800202 0.200943
v 0.04597473 0.01256824 0.200943
v 0.08356476 0.05065489 0.200943
v 0.03078079 0.02765751 0.200943
v 0.06895447 0.0696044 0.200943
v 0.02220154 0.05401993 0.200943
v 0.04740906 0.06999588 0.200943
v 0.08343124 0.02800202 -0.200943
v 0.05698395 0.03901219 -0.200943
v 0.0678978 0.01252806 -0.200943
v 0.08356476 0.05065489 -0.200943
v 0.04597473 0.01256824 -0.200943
v 0.06895447 0.0696044 -0.200943
v 0.03078079 0.02765751 -0.200943
v 0.04740906 0.06999588 -0.200943
v 0.02220154 0.05382252 -0.200943
v -0.04588699 0.07340097 -0.200943
v -0.03294754 0.04902792 -0.200943
v -0.02345657 0.05191851 -0.200943
v -0.02938843 0.02008116 -0.200943
v -0.04872513 0.06377459 -0.200943
v -0.07713699 0.071702 -0.200943
v -0.07084656 0.06224632 -0.200943
v -0.09366608 0.04623032 -0.200943
v -0.08282089 0.04422379 -0.200943
v -0.08734512 0.01653028 -0.200943
v -0.07825851 0.02278042 -0.200943
v -0.06187439 0 -0.200943
v -0.05986786 0.0108459 -0.200943
v -0.03217316 0.006322503 -0.200943
v -0.01386261 0.02771211 -0.200943
v -0.004684448 0.01748633 -0.200943
v 0.01747131 0.06969595 -0.200943
v 0.02220154 0.05382252 -0.200943
v 0.04368973 0.08275223 -0.200943
v 0.04740906 0.06999588 -0.200943
v 0.06895447 0.0696044 -0.200943
v 0.0736618 0.0816555 -0.200943
v 0.08356476 0.05065489 -0.200943
v 0.09366608 0.05412769 -0.200943
v 0.08343124 0.02800202 -0.200943
v 0.09361267 0.02376246 -0.200943
v 0.0678978 0.01252806 -0.200943
v 0.07210159 0.002330184 -0.200943
v 0.04597473 0.01256824 -0.200943
v 0.0417366 0.002385765 -0.200943
v 0.03078079 0.02765751 -0.200943
v 0.02030182 0.02389669 -0.200943

vn 0.1926877 -0.9812601 0
vn 0.1924785 -0.9801946 0.04659019
vn 0.1924785 -0.9801946 0.04659019
vn 0.1926877 -0.9812601 0
vn 0.1924785 -0.9801946 -0.04659019
vn 0.1924785 -0.9801946 -0.04659019
vn -0.5117677 -0.8548051 0.08603507
vn -0.5117677 -0.8548051 0.08603507
vn -0.5117677 -0.8548051 0.08603507
vn -0.5117677 -0.8548051 0.08603507
vn -0.9692068 -0.2236091 0.103136
vn -0.9692068 -0.2236091 0.103136
vn -0.9692068 -0.2236091 0.103136
vn -0.9692068 -0.2236091 0.103136
vn -0.8132719 0.5721447 0.106016
vn -0.8132719 0.5721447 0.106016
vn -0.8132719 0.5721447 0.106016
vn -0.8132719 0.5721447 0.106016
vn -0.02589953 0.9968876 0.07445978
vn -0.02589953 0.9968876 0.07445978
vn -0.02589953 0.9968876 0.07445978
vn -0.02589953 0.9968876 0.07445978
vn 0.6810306 0.7322549 0
vn 0.6809251 0.7321415 0.01759807
vn 0.6809251 0.7321415 0.01759807
vn 0.6810306 0.7322549 0
vn 0.6809251 0.7321415 -0.01759807
vn 0.6809251 0.7321415 -0.01759807
vn 0.9678344 -0.251588 0.0001787597
vn 0.9679418 -0.2498721 -0.02554999
vn 0.9679418 -0.2498721 -0.02554999
vn 0.9678344 -0.251588 0.0001787597
vn 0.9670836 -0.2531367 0.02590739
vn 0.9670836 -0.2531367 0.02590739
vn 0.3508555 -0.9364297 0
vn 0.3506763 -0.9359515 0.03194882
vn 0.3506763 -0.9359515 0.03194882
vn 0.3508555 -0.9364297 0
vn 0.3506763 -0.9359515 -0.03194882
vn 0.3506763 -0.9359515 -0.03194882
vn -0.2668853 0.9634234 -0.02423597
vn -0.2668853 0.9634234 -0.02423597
vn -0.2573096 0.9663289 -0.0004487321
vn -0.2573096 0.9663289 -0.0004487321
vn -0.2475625 0.9685907 0.02333881
vn -0.2475625 0.9685907 0.02333881
vn 0.7605287 -0.6493042 0.0001473814
vn 0.7599627 -0.6499661 0.0007363401
vn 0.7599627 -0.6499661 0.0007363401
vn 0.7605287 -0.6493042 0.0001473814
vn 0.7610937 -0.6486416 -0.0004415776
vn 0.7610937 -0.6486416 -0.0004415776
vn -0.7658704 0.6427203 0.01879536
vn -0.7658704 0.6427203 0.01879536
vn -0.7660056 0.6428339 0
vn -0.7660056 0.6428339 0
vn -0.7658704 0.6427203 -0.01879536
vn -0.7658704 0.6427203 -0.01879536
vn -0.3350717 0.9394931 0.07127146
vn -0.3350717 0.9394931 0.07127146
vn -0.3350717 0.9394931 0.07127146
vn -0.3350717 0.9394931 0.07127146
vn -0.01228364 0.9947689 0.1014107
vn -0.01228364 0.9947689 0.1014107
vn -0.01228364 0.9947689 0.1014107
vn -0.01228364 0.9947689 0.1014107
vn 0.7617287 0.6372632 0.1168977
vn 0.7617287 0.6372632 0.1168977
vn 0.7617287 0.6372632 0.1168977
vn 0.7617287 0.6372632 0.1168977
vn 0.6737003 -0.7329904 0.09409022
vn 0.6737003 -0.7329904 0.09409022
vn 0.6737003 -0.7329904 0.09409022
vn 0.6737003 -0.7329904 0.09409022
vn -0.001686143 -0.9982267 0.05950334
vn -0.001686143 -0.9982267 0.05950334
vn -0.001686143 -0.9982267 0.05950334
vn -0.001686143 -0.9982267 0.05950334
vn -0.6793705 -0.7337955 0
vn -0.6793626 -0.7337869 0.004813753
vn -0.6793626 -0.7337869 0.004813753
vn -0.6793705 -0.7337955 0
vn -0.6793626 -0.7337869 -0.004813753
vn -0.6793626 -0.7337869 -0.004813753
vn -0.9968265 0.07960449 -1.645601E-05
vn -0.9965581 0.07975562 -0.02260303
vn -0.9965581 0.07975562 -0.02260303
vn -0.9968265 0.07960449 -1.645601E-05
vn -0.9965863 0.07941275 0.02257012
vn -0.9965863 0.07941275 0.02257012
vn 0.9941548 -0.001915511 0.1079484
vn 0.9941548 -0.001915511 0.1079484
vn 0.9941548 -0.001915511 0.1079484
vn 0.9941548 -0.001915511 0.1079484
vn -0.5117677 -0.8548051 -0.08603507
vn -0.5117677 -0.8548051 -0.08603507
vn -0.5117677 -0.8548051 -0.08603507
vn -0.5117677 -0.8548051 -0.08603507
vn -0.9692068 -0.2236091 -0.103136
vn -0.9692068 -0.2236091 -0.103136
vn -0.9692068 -0.2236091 -0.103136
vn -0.9692068 -0.2236091 -0.103136
vn -0.8132719 0.5721447 -0.106016
vn -0.8132719 0.5721447 -0.106016
vn -0.8132719 0.5721447 -0.106016
vn -0.8132719 0.5721447 -0.106016
vn -0.02589953 0.9968876 -0.07445978
vn -0.02589953 0.9968876 -0.07445978
vn -0.02589953 0.9968876 -0.07445978
vn -0.02589953 0.9968876 -0.07445978
vn -0.3350894 0.9394867 -0.07127271
vn -0.3350894 0.9394867 -0.07127271
vn -0.3350894 0.9394867 -0.07127271
vn -0.3350894 0.9394867 -0.07127271
vn -0.01226498 0.9947686 -0.1014143
vn -0.01226498 0.9947686 -0.1014143
vn -0.01226498 0.9947686 -0.1014143
vn -0.01226498 0.9947686 -0.1014143
vn 0.7617287 0.6372632 -0.1168977
vn 0.7617287 0.6372632 -0.1168977
vn 0.7617287 0.6372632 -0.1168977
vn 0.7617287 0.6372632 -0.1168977
vn 0.9941548 -0.001915511 -0.1079484
vn 0.9941548 -0.001915511 -0.1079484
vn 0.9941548 -0.001915511 -0.1079484
vn 0.9941548 -0.001915511 -0.1079484
vn 0.6737003 -0.7329904 -0.09409022
vn 0.6737003 -0.7329904 -0.09409022
vn 0.6737003 -0.7329904 -0.09409022
vn 0.6737003 -0.7329904 -0.09409022
vn -0.001686143 -0.9982267 -0.05950334
vn -0.001686143 -0.9982267 -0.05950334
vn -0.001686143 -0.9982267 -0.05950334
vn -0.001686143 -0.9982267 -0.05950334
vn 0 0 1
vn 0 0 1
vn 0 0 1
vn 0 0 1
vn 0 0 1
vn 0 0 1
vn 0 0 1
vn 0 0 1
vn 0 0 1
vn 0 0 1
vn 0 0 1
vn 0 0 1
vn 0 0 1
vn 0 0 1
vn 0 0 1
vn 0 0 1
vn 0 0 1
vn 0 0 1
vn 0 0 1
vn 0 0 1
vn 0 0 1
vn 0 0 1
vn 0 0 1
vn 0 0 1
vn 0 0 1
vn 0 0 1
vn 0 0 1
vn 0 0 1
vn 0 0 1
vn 0 0 1
vn 0 0 1
vn 0 0 1
vn 0 0 1
vn 0 0 1
vn 0 0 1
vn 0 0 1
vn 0 0 1
vn 0 0 1
vn 0 0 1
vn 0 0 1
vn 0 0 -1
vn 0 0 -1
vn 0 0 -1
vn 0 0 -1
vn 0 0 -1
vn 0 0 -1
vn 0 0 -1
vn 0 0 -1
vn 0 0 1
vn 0 0 1
vn 0 0 1
vn 0 0 1
vn 0 0 1
vn 0 0 1
vn 0 0 1
vn 0 0 1
vn 0 0 1
vn 0 0 -1
vn 0 0 -1
vn 0 0 -1
vn 0 0 -1
vn 0 0 -1
vn 0 0 -1
vn 0 0 -1
vn 0 0 -1
vn 0 0 -1
vn 0 0 -1
vn 0 0 -1
vn 0 0 -1
vn 0 0 -1
vn 0 0 -1
vn 0 0 -1
vn 0 0 -1
vn 0 0 -1
vn 0 0 -1
vn 0 0 -1
vn 0 0 -1
vn 0 0 -1
vn 0 0 -1
vn 0 0 -1
vn 0 0 -1
vn 0 0 -1
vn 0 0 -1
vn 0 0 -1
vn 0 0 -1
vn 0 0 -1
vn 0 0 -1
vn 0 0 -1
vn 0 0 -1
vn 0 0 -1
vn 0 0 -1
vn 0 0 -1
vn 0 0 -1
vn 0 0 -1
vn 0 0 -1
vn 0 0 -1
vn 0 0 -1
vn 0 0 -1

vt 0.04752165 0.3827537
vt 0.04752165 0.3827537
vt 0.04752165 0.3827537
vt 0.04752165 0.3827537
vt 0.04752165 0.3827537
vt 0.04752165 0.3827537
vt 0.04752165 0.3827537
vt 0.04752165 0.3827537
vt 0.04752168 0.3827537
vt 0.04752168 0.3827537
vt 0.04752168 0.3827537
vt 0.04752168 0.3827537
vt 0.04752168 0.3827537
vt 0.04752168 0.3827537
vt 0.04752168 0.3827537
vt 0.04752168 0.3827537
vt 0.04752168 0.3827537
vt 0.04752168 0.3827537
vt 0.04752168 0.3827537
vt 0.04752168 0.3827537
vt 0.04752171 0.3827537
vt 0.04752171 0.3827537
vt 0.04752171 0.3827537
vt 0.04752171 0.3827537
vt 0.04752168 0.3827537
vt 0.04752168 0.3827537
vt 0.04752171 0.3827537
vt 0.04752168 0.3827537
vt 0.04752168 0.3827537
vt 0.04752168 0.3827537
vt 0.04752168 0.3827537
vt 0.04752168 0.3827537
vt 0.04752168 0.3827537
vt 0.04752168 0.3827537
vt 0.04752168 0.3827537
vt 0.04752168 0.3827537
vt 0.04752168 0.3827537
vt 0.04752168 0.3827537
vt 0.04752168 0.3827537
vt 0.04752168 0.3827537
vt 0.04752168 0.3827537
vt 0.04752168 0.3827537
vt 0.04752168 0.3827537
vt 0.04752168 0.3827537
vt 0.04752168 0.3827537
vt 0.04752168 0.3827537
vt 0.04752168 0.3827537
vt 0.04752168 0.3827537
vt 0.04752168 0.3827537
vt 0.04752168 0.3827537
vt 0.04752168 0.3827537
vt 0.04752168 0.3827537
vt 0.04752168 0.3827537
vt 0.04752168 0.3827537
vt 0.04752168 0.3827537
vt 0.04752168 0.3827537
vt 0.04752168 0.3827537
vt 0.04752168 0.3827537
vt 0.04752168 0.3827537
vt 0.04752168 0.3827537
vt 0.04752168 0.3827537
vt 0.04752168 0.3827537
vt 0.04752168 0.3827537
vt 0.04752168 0.3827537
vt 0.04752168 0.3827537
vt 0.04752168 0.3827537
vt 0.04752168 0.3827537
vt 0.04752168 0.3827537
vt 0.04752168 0.3827537
vt 0.04752168 0.3827537
vt 0.04752165 0.3827537
vt 0.04752165 0.3827537
vt 0.04752165 0.3827537
vt 0.04752165 0.3827537
vt 0.04752165 0.3827537
vt 0.04752165 0.3827537
vt 0.04752168 0.3827537
vt 0.04752168 0.3827537
vt 0.04752168 0.3827537
vt 0.04752168 0.3827537
vt 0.04752168 0.3827537
vt 0.04752168 0.3827537
vt 0.04752168 0.3827537
vt 0.04752168 0.3827537
vt 0.04752168 0.3827537
vt 0.04752168 0.3827537
vt 0.04752168 0.3827537
vt 0.04752168 0.3827537
vt 0.04752168 0.3827537
vt 0.04752168 0.3827537
vt 0.04752168 0.3827537
vt 0.04752168 0.3827537
vt 0.04752168 0.3827537
vt 0.04752168 0.3827537
vt 0.04752165 0.3827537
vt 0.04752165 0.3827537
vt 0.04752168 0.3827537
vt 0.04752168 0.3827537
vt 0.04752168 0.3827537
vt 0.04752168 0.3827537
vt 0.04752168 0.3827537
vt 0.04752168 0.3827537
vt 0.04752168 0.3827537
vt 0.04752168 0.3827537
vt 0.04752168 0.3827537
vt 0.04752168 0.3827537
vt 0.04752168 0.3827537
vt 0.04752168 0.3827537
vt 0.04752171 0.3827537
vt 0.04752171 0.3827537
vt 0.04752168 0.3827537
vt 0.04752168 0.3827537
vt 0.04752168 0.3827537
vt 0.04752168 0.3827537
vt 0.04752168 0.3827537
vt 0.04752168 0.3827537
vt 0.04752168 0.3827537
vt 0.04752168 0.3827537
vt 0.04752168 0.3827537
vt 0.04752168 0.3827537
vt 0.04752168 0.3827537
vt 0.04752168 0.3827537
vt 0.04752168 0.3827537
vt 0.04752168 0.3827537
vt 0.04752168 0.3827537
vt 0.04752168 0.3827537
vt 0.04752165 0.3827537
vt 0.04752165 0.3827537
vt 0.04752165 0.3827537
vt 0.04752165 0.3827537
vt 0.04752165 0.3827537
vt 0.04752165 0.3827537
vt 0.04752168 0.3827537
vt 0.04752168 0.3827537
vt 0.04752168 0.3827537
vt 0.04752168 0.3827537
vt 0.04752168 0.3827537
vt 0.04752168 0.3827537
vt 0.04752168 0.3827537
vt 0.04752168 0.3827537
vt 0.04752168 0.3827537
vt 0.04752168 0.3827537
vt 0.04752168 0.3827537
vt 0.04752165 0.3827537
vt 0.04752165 0.3827537
vt 0.04752165 0.3827537
vt 0.04752165 0.3827537
vt 0.04752165 0.3827537
vt 0.04752165 0.3827537
vt 0.04752168 0.3827537
vt 0.04752168 0.3827537
vt 0.04752168 0.3827537
vt 0.04752168 0.3827537
vt 0.04752168 0.3827537
vt 0.04752168 0.3827537
vt 0.04752168 0.3827537
vt 0.04752168 0.3827537
vt 0.04752168 0.3827537
vt 0.04752168 0.3827537
vt 0.04752168 0.3827537
vt 0.04752168 0.3827537
vt 0.04752168 0.3827537
vt 0.04752165 0.3827537
vt 0.04752165 0.3827537
vt 0.04752165 0.3827537
vt 0.04752165 0.3827537
vt 0.0483279 0.3527429
vt 0.0483279 0.3527429
vt 0.0483279 0.352743
vt 0.0483279 0.3527429
vt 0.0483279 0.3527429
vt 0.0483279 0.3527429
vt 0.0483279 0.3527429
vt 0.0483279 0.3527429
vt 0.0483279 0.352743
vt 0.0483279 0.3527429
vt 0.0483279 0.3527429
vt 0.0483279 0.3527429
vt 0.0483279 0.3527429
vt 0.0483279 0.3527429
vt 0.0483279 0.3527429
vt 0.0483279 0.3527429
vt 0.0483279 0.3527429
vt 0.0483279 0.3527429
vt 0.0483279 0.3527429
vt 0.0483279 0.3527429
vt 0.0483279 0.3527429
vt 0.0483279 0.3527429
vt 0.0483279 0.3527429
vt 0.0483279 0.3527429
vt 0.0483279 0.3527429
vt 0.0483279 0.3527429
vt 0.0483279 0.3527429
vt 0.0483279 0.3527429
vt 0.0483279 0.3527429
vt 0.0483279 0.3527429
vt 0.0483279 0.3527429
vt 0.0483279 0.3527429
vt 0.0483279 0.3527429
vt 0.0483279 0.3527429
vt 0.04752168 0.3827537
vt 0.04752168 0.3827537
vt 0.04752168 0.3827537
vt 0.04752168 0.3827537
vt 0.04752168 0.3827537
vt 0.04752165 0.3827537
vt 0.04752165 0.3827537
vt 0.04752165 0.3827537
vt 0.04752165 0.3827537
vt 0.04752165 0.3827537
vt 0.04752165 0.3827537
vt 0.04752168 0.3827537
vt 0.04752168 0.3827537
vt 0.04752168 0.3827537
vt 0.04752168 0.3827537
vt 0.04752168 0.3827537
vt 0.04752168 0.3827537
vt 0.04752168 0.3827537
vt 0.04752168 0.3827537
vt 0.04752168 0.3827537
vt 0.04752168 0.3827537
vt 0.04752168 0.3827537
vt 0.04752168 0.3827537
vt 0.04752168 0.3827537
vt 0.04752168 0.3827537
vt 0.04752168 0.3827537
vt 0.04752168 0.3827537
vt 0.04752168 0.3827537
vt 0.04752165 0.3827537
vt 0.04752165 0.3827537
vt 0.04752165 0.3827537
vt 0.04752165 0.3827537

usemtl PolygonWestern_Material_01_A
usemap PolygonWestern_Material_01_A
f 2/2/2 1/1/1 3/3/3
f 3/3/3 1/1/1 4/4/4
f 1/1/1 5/5/5 4/4/4
f 4/4/4 5/5/5 6/6/6
f 8/8/8 7/7/7 9/9/9
f 9/9/9 7/7/7 10/10/10
f 12/12/12 11/11/11 13/13/13
f 13/13/13 11/11/11 14/14/14
f 16/16/16 15/15/15 17/17/17
f 17/17/17 15/15/15 18/18/18
f 20/20/20 19/19/19 21/21/21
f 21/21/21 19/19/19 22/22/22
f 24/24/24 23/23/23 25/25/25
f 25/25/25 23/23/23 26/26/26
f 23/23/23 27/27/27 26/26/26
f 26/26/26 27/27/27 28/28/28
f 30/30/30 29/29/29 31/31/31
f 31/31/31 29/29/29 32/32/32
f 29/29/29 33/33/33 32/32/32
f 32/32/32 33/33/33 34/34/34
f 36/36/36 35/35/35 37/37/37
f 37/37/37 35/35/35 38/38/38
f 35/35/35 39/39/39 38/38/38
f 40/40/40 39/39/39 35/35/35
f 42/42/42 41/41/41 43/43/43
f 43/43/43 41/41/41 44/44/44
f 45/45/45 43/43/43 44/44/44
f 46/46/46 43/43/43 45/45/45
f 48/48/48 47/47/47 49/49/49
f 49/49/49 47/47/47 50/50/50
f 47/47/47 51/51/51 50/50/50
f 52/52/52 51/51/51 47/47/47
f 54/54/54 53/53/53 55/55/55
f 55/55/55 53/53/53 56/56/56
f 57/57/57 55/55/55 56/56/56
f 58/58/58 55/55/55 57/57/57
f 60/60/60 59/59/59 61/61/61
f 61/61/61 59/59/59 62/62/62
f 64/64/64 63/63/63 65/65/65
f 65/65/65 63/63/63 66/66/66
f 68/68/68 67/67/67 69/69/69
f 69/69/69 67/67/67 70/70/70
f 72/72/72 71/71/71 73/73/73
f 73/73/73 71/71/71 74/74/74
f 76/76/76 75/75/75 77/77/77
f 77/77/77 75/75/75 78/78/78
f 80/80/80 79/79/79 81/81/81
f 81/81/81 79/79/79 82/82/82
f 79/79/79 83/83/83 82/82/82
f 82/82/82 83/83/83 84/84/84
f 86/86/86 85/85/85 87/87/87
f 87/87/87 85/85/85 88/88/88
f 85/85/85 89/89/89 88/88/88
f 88/88/88 89/89/89 90/90/90
f 92/92/92 91/91/91 93/93/93
f 93/93/93 91/91/91 94/94/94
f 96/96/96 95/95/95 97/97/97
f 97/97/97 95/95/95 98/98/98
f 100/100/100 99/99/99 101/101/101
f 101/101/101 99/99/99 102/102/102
f 104/104/104 103/103/103 105/105/105
f 105/105/105 103/103/103 106/106/106
f 108/108/108 107/107/107 109/109/109
f 109/109/109 107/107/107 110/110/110
f 112/112/112 111/111/111 113/113/113
f 113/113/113 111/111/111 114/114/114
f 116/116/116 115/115/115 117/117/117
f 117/117/117 115/115/115 118/118/118
f 120/120/120 119/119/119 121/121/121
f 121/121/121 119/119/119 122/122/122
f 124/124/124 123/123/123 125/125/125
f 125/125/125 123/123/123 126/126/126
f 128/128/128 127/127/127 129/129/129
f 129/129/129 127/127/127 130/130/130
f 132/132/132 131/131/131 133/133/133
f 133/133/133 131/131/131 134/134/134
f 136/136/136 135/135/135 137/137/137
f 135/135/135 138/138/138 137/137/137
f 139/139/139 135/135/135 136/136/136
f 140/140/140 139/139/139 136/136/136
f 141/141/141 139/139/139 140/140/140
f 142/142/142 141/141/141 140/140/140
f 143/143/143 138/138/138 135/135/135
f 143/143/143 144/144/144 138/138/138
f 145/145/145 144/144/144 143/143/143
f 145/145/145 146/146/146 144/144/144
f 147/147/147 146/146/146 145/145/145
f 147/147/147 148/148/148 146/146/146
f 149/149/149 148/148/148 147/147/147
f 149/149/149 150/150/150 148/148/148
f 151/151/151 150/150/150 149/149/149
f 151/151/151 152/152/152 150/150/150
f 153/153/153 135/135/135 152/152/152
f 153/153/153 152/152/152 151/151/151
f 154/154/154 142/142/142 140/140/140
f 154/154/154 155/155/155 142/142/142
f 156/156/156 155/155/155 154/154/154
f 156/156/156 157/157/157 155/155/155
f 158/158/158 157/157/157 156/156/156
f 158/158/158 159/159/159 157/157/157
f 160/160/160 159/159/159 158/158/158
f 160/160/160 161/161/161 159/159/159
f 162/162/162 161/161/161 160/160/160
f 162/162/162 163/163/163 161/161/161
f 164/164/164 163/163/163 162/162/162
f 164/164/164 165/165/165 163/163/163
f 166/166/166 140/140/140 165/165/165
f 166/166/166 165/165/165 164/164/164
f 168/168/168 167/167/167 169/169/169
f 168/168/168 170/170/170 167/167/167
f 168/168/168 169/169/169 171/171/171
f 168/168/168 172/172/172 170/170/170
f 168/168/168 171/171/171 173/173/173
f 168/168/168 174/174/174 172/172/172
f 168/168/168 173/173/173 174/174/174
f 176/176/176 175/175/175 177/177/177
f 176/176/176 178/178/178 175/175/175
f 176/176/176 177/177/177 179/179/179
f 176/176/176 180/180/180 178/178/178
f 176/176/176 179/179/179 181/181/181
f 176/176/176 182/182/182 180/180/180
f 176/176/176 181/181/181 182/182/182
f 184/184/184 183/183/183 185/185/185
f 184/184/184 186/186/186 183/183/183
f 184/184/184 185/185/185 187/187/187
f 184/184/184 188/188/188 186/186/186
f 184/184/184 187/187/187 189/189/189
f 184/184/184 190/190/190 188/188/188
f 184/184/184 189/189/189 191/191/191
f 184/184/184 191/191/191 190/190/190
f 193/193/193 192/192/192 194/194/194
f 193/193/193 195/195/195 192/192/192
f 193/193/193 194/194/194 196/196/196
f 193/193/193 197/197/197 195/195/195
f 193/193/193 196/196/196 198/198/198
f 193/193/193 199/199/199 197/197/197
f 193/193/193 198/198/198 200/200/200
f 193/193/193 200/200/200 199/199/199
f 202/202/202 201/201/201 203/203/203
f 202/202/202 203/203/203 204/204/204
f 205/205/205 201/201/201 202/202/202
f 205/205/205 206/206/206 201/201/201
f 207/207/207 206/206/206 205/205/205
f 207/207/207 208/208/208 206/206/206
f 209/209/209 208/208/208 207/207/207
f 209/209/209 210/210/210 208/208/208
f 211/211/211 210/210/210 209/209/209
f 211/211/211 212/212/212 210/210/210
f 213/213/213 212/212/212 211/211/211
f 213/213/213 214/214/214 212/212/212
f 204/204/204 214/214/214 213/213/213
f 215/215/215 214/214/214 204/204/204
f 216/216/216 214/214/214 215/215/215
f 217/217/217 216/216/216 215/215/215
f 218/218/218 216/216/216 217/217/217
f 219/219/219 218/218/218 217/217/217
f 220/220/220 218/218/218 219/219/219
f 220/220/220 219/219/219 221/221/221
f 221/221/221 219/219/219 222/222/222
f 221/221/221 222/222/222 223/223/223
f 223/223/223 222/222/222 224/224/224
f 223/223/223 224/224/224 225/225/225
f 225/225/225 224/224/224 226/226/226
f 225/225/225 226/226/226 227/227/227
f 227/227/227 226/226/226 228/228/228
f 227/227/227 228/228/228 229/229/229
f 229/229/229 228/228/228 230/230/230
f 229/229/229 230/230/230 231/231/231
f 231/231/231 232/232/232 218/218/218
f 231/231/231 230/230/230 232/232/232
