mtllib ./SM_Prop_Barrel_Broken_02_17.mtl
g SM_Prop_Barrel_Broken_02
v -0.5625992 0.0320015 0.0082739
v -0.5850372 0.02546668 0.02667308
v -0.5486031 -0.01241803 0.002381891
v -0.5850372 0.02546668 0.02667308
v -0.5850372 -0.01203012 0.03859901
v -0.5486031 -0.01241803 0.002381891
v -0.5850372 -0.01271951 -0.02575827
v -0.5850372 0.02301717 -0.01774967
v -0.5486031 -0.01241803 0.002381891
v -0.5850372 0.02301717 -0.01774967
v -0.5625992 0.0320015 0.0082739
v -0.5486031 -0.01241803 0.002381891
v -0.5850372 -0.01271951 -0.02575827
v -0.5486031 -0.01241803 0.002381891
v -0.2795677 0.08505058 0.1500893
v -0.5486031 -0.01241803 0.002381891
v -0.5850372 -0.01203012 0.03859901
v -0.2795677 0.08505058 0.1500893
v -0.5850372 -0.01203012 0.03859901
v -0.5850372 -0.01124692 0.1117191
v -0.2795677 0.08505058 0.1500893
v -0.2795677 0.08183575 -0.1500893
v -0.5850372 -0.01360965 -0.1088543
v -0.5850372 -0.01271951 -0.02575827
v 0.5850372 0.01938868 -0.0835495
v 0.5850372 0.02871776 0.08563137
v 0.2795658 0.133091 -0.1156502
v 0.2795658 0.133091 0.1145868
v -0.2795677 0.133091 -0.1156502
v -0.2795677 0.133091 0.1145868
v -0.5850372 0.01938868 -0.0835495
v -0.5850372 0.02301717 -0.01774967
v -0.5625992 0.0320015 0.0082739
v -0.5850372 0.02546668 0.02667308
v -0.5850372 0.02871776 0.08563137
v 0.5850372 -0.01360965 -0.1088543
v 0.5850372 -0.01124692 0.1117191
v 0.5850372 0.01938868 -0.0835495
v 0.5850372 0.02871776 0.08563137
v 0.5850372 -0.01360965 -0.1088543
v 0.5850372 0.01938868 -0.0835495
v 0.2795658 0.08183575 -0.1500893
v 0.2795658 0.133091 -0.1156502
v 0.5850372 -0.01124692 0.1117191
v 0.2795658 0.08505058 0.1500893
v 0.5850372 0.02871776 0.08563137
v 0.2795658 0.133091 0.1145868
v 0.2795658 0.08183575 -0.1500893
v 0.2795658 0.133091 -0.1156502
v -0.2795677 0.08183575 -0.1500893
v -0.2795677 0.133091 -0.1156502
v -0.2795677 0.08505058 0.1500893
v -0.2795677 0.133091 0.1145868
v 0.2795658 0.08505058 0.1500893
v 0.2795658 0.133091 0.1145868
v -0.5850372 -0.01360965 -0.1088543
v -0.2795677 0.08183575 -0.1500893
v -0.5850372 0.01938868 -0.0835495
v -0.2795677 0.133091 -0.1156502
v -0.5850372 -0.01360965 -0.1088543
v -0.5850372 0.01938868 -0.0835495
v -0.5850372 -0.01271951 -0.02575827
v -0.5850372 0.02301717 -0.01774967
v -0.5850372 -0.01124692 0.1117191
v -0.5850372 0.02871776 0.08563137
v -0.2795677 0.08505058 0.1500893
v -0.2795677 0.133091 0.1145868
v -0.5850372 0.02546668 0.02667308
v -0.5850372 0.02871776 0.08563137
v -0.5850372 -0.01203012 0.03859901
v -0.5850372 -0.01124692 0.1117191
v 0.03755617 0.133091 0.03820992
v 0.03232741 0.07846689 0.03333044
v 0.03870916 0.07846689 -0.02111506
v 0.04485512 0.133091 -0.02406073
v -0.006970525 0.133091 -0.0599761
v -0.006604135 0.07846689 -0.05251741
v -0.04681873 0.07846689 -0.01331389
v -0.05296469 0.133091 -0.01513827
v -0.05296469 0.133091 -0.01513827
v -0.04681873 0.07846689 -0.01331389
v -0.03334641 0.07846689 0.03333044
v -0.03755641 0.133091 0.03820992
v -0.0002662279 0.133091 0.05873585
v -0.0007422864 0.07846689 0.05127716
v 0.03232741 0.07846689 0.03333044
v 0.03755617 0.133091 0.03820992
v -0.03755641 0.133091 0.03820992
v -0.03334641 0.07846689 0.03333044
v -0.0007422864 0.07846689 0.05127716
v -0.0002662279 0.133091 0.05873585
v 0.04485512 0.133091 -0.02406073
v 0.03870916 0.07846689 -0.02111506
v -0.006604135 0.07846689 -0.05251741
v -0.006970525 0.133091 -0.0599761
v 0.2795658 0.08505058 0.1500893
v 0.5850372 -0.01124692 0.1117191
v 0.5850372 -0.01360965 -0.1088543
v 0.2795658 0.08183575 -0.1500893
v 0.2795658 0.133091 0.1145868
v 0.03755617 0.133091 0.03820992
v 0.04485512 0.133091 -0.02406073
v -0.0002662279 0.133091 0.05873585
v 0.2795658 0.133091 -0.1156502
v -0.006970525 0.133091 -0.0599761
v -0.2795677 0.133091 -0.1156502
v -0.05296469 0.133091 -0.01513827
v -0.2795677 0.133091 0.1145868
v -0.03755641 0.133091 0.03820992
v -0.006604135 0.07846689 -0.05251741
v 0.03870916 0.07846689 -0.02111506
v 0.2795658 0.08183575 -0.1500893
v 0.03232741 0.07846689 0.03333044
v -0.2795677 0.08183575 -0.1500893
v 0.2795658 0.08505058 0.1500893
v -0.04681873 0.07846689 -0.01331389
v -0.0007422864 0.07846689 0.05127716
v -0.2795677 0.08505058 0.1500893
v -0.03334641 0.07846689 0.03333044

vn -0.6156667 -0.09015154 -0.7828328
vn -0.6156667 -0.09015154 -0.7828328
vn -0.6156667 -0.09015154 -0.7828328
vn -0.6889442 -0.219685 -0.6907201
vn -0.6889442 -0.219685 -0.6907201
vn -0.6889442 -0.219685 -0.6907201
vn -0.6009479 -0.1747855 0.7799434
vn -0.6009479 -0.1747855 0.7799434
vn -0.6009479 -0.1747855 0.7799434
vn -0.6684405 -0.3008441 0.6802059
vn -0.6684405 -0.3008441 0.6802059
vn -0.6684405 -0.3008441 0.6802059
vn 0.5494727 -0.4457891 -0.7066481
vn 0.5494727 -0.4457891 -0.7066481
vn 0.5494727 -0.4457891 -0.7066481
vn 0.2178143 -0.9486766 0.2292806
vn 0.2178143 -0.9486766 0.2292806
vn 0.2178143 -0.9486766 0.2292806
vn 0.299475 -0.9540495 0.01021903
vn 0.299475 -0.9540495 0.01021903
vn 0.2994753 -0.9540493 0.01021885
vn 0.2994764 -0.9540489 0.01021762
vn 0.2994755 -0.9540493 0.01021876
vn 0.2994747 -0.9540495 0.01021991
vn 0.3531244 0.9341573 -0.0515119
vn 0.3383816 0.9406562 -0.02576784
vn 0.3383816 0.9406562 -0.02576784
vn 0.3233267 0.9462874 0
vn -0.3488394 0.9371825 0
vn -0.3246282 0.9449191 -0.04176604
vn -0.3338021 0.9422815 -0.02610929
vn -0.3184541 0.9465004 -0.0521919
vn -0.3184546 0.9465003 -0.05219087
vn -0.3184541 0.9465003 -0.05219201
vn -0.3184541 0.9465003 -0.05219188
vn 1 0 0
vn 1 0 0
vn 1 0 0
vn 1 0 0
vn 0.284931 0.5832991 -0.7606422
vn 0.2839847 0.5593756 -0.7787499
vn 0.2839847 0.5593756 -0.7787499
vn 0.2827825 0.5349481 -0.7961561
vn 0.2673956 0.5267141 0.8068902
vn 0.2683062 0.5497834 0.7910436
vn 0.2683062 0.5497834 0.7910436
vn 0.2690062 0.5724216 0.7745767
vn 0 0.5577117 -0.8300347
vn 0 0.5577117 -0.8300347
vn 0 0.5577117 -0.8300347
vn 0 0.5577117 -0.8300347
vn 0 0.5943296 0.8042216
vn 0 0.5943296 0.8042216
vn 0 0.5943296 0.8042216
vn 0 0.5943296 0.8042216
vn -0.2849326 0.5832989 -0.7606418
vn -0.2839863 0.5593754 -0.7787496
vn -0.2839863 0.5593754 -0.7787496
vn -0.2827841 0.5349479 -0.7961558
vn -1 0 0
vn -1 0 0
vn -1 0 0
vn -1 0 0
vn -0.2673972 0.5267139 0.8068898
vn -0.2683077 0.5497831 0.7910433
vn -0.2683077 0.5497831 0.7910433
vn -0.2690078 0.5724213 0.7745764
vn -1 0 0
vn -1 0 0
vn -1 0 0
vn -1 0 0
vn -0.987722 0.1048891 -0.1157743
vn -0.987722 0.1048891 -0.1157743
vn -0.987722 0.1048891 -0.1157743
vn -0.987722 0.1048891 -0.1157743
vn 0.6944131 0.1019219 0.7123218
vn 0.6944131 0.1019219 0.7123218
vn 0.6944131 0.1019219 0.7123218
vn 0.6944131 0.1019219 0.7123218
vn 0.9560721 0.09835103 -0.27614
vn 0.9560721 0.09835103 -0.27614
vn 0.9560721 0.09835103 -0.27614
vn 0.9560721 0.09835103 -0.27614
vn -0.4733455 0.123223 -0.8722157
vn -0.4733455 0.123223 -0.8722157
vn -0.4733455 0.123223 -0.8722157
vn -0.4733455 0.123223 -0.8722157
vn 0.4790347 0.114659 -0.8702753
vn 0.4790347 0.114659 -0.8702753
vn 0.4790347 0.114659 -0.8702753
vn 0.4790347 0.114659 -0.8702753
vn -0.5662791 0.1077787 0.8171363
vn -0.5662791 0.1077787 0.8171363
vn -0.5662791 0.1077787 0.8171363
vn -0.5662791 0.1077787 0.8171363
vn -0.2994741 -0.9540497 0.01021845
vn -0.2994741 -0.9540497 0.01021845
vn -0.2994741 -0.9540497 0.01021845
vn -0.2994741 -0.9540497 0.01021845
vn 0 1 0
vn 0 1 0
vn 0 1 0
vn 0 1 0
vn 0 1 0
vn 0 1 0
vn 0 1 0
vn 0 1 0
vn 0 1 0
vn 0 1 0
vn -0.0003801331 -0.9998308 -0.01838612
vn 0.01425653 -0.999898 -0.0009751697
vn 0.009505515 -0.9998809 -0.01215458
vn 0.01742753 -0.9996891 0.0178304
vn -0.01007698 -0.9998862 -0.01122858
vn 0.01162165 -0.9993523 0.03405782
vn -0.01511337 -0.9998857 0.0004137782
vn -4.18976E-05 -0.9992154 0.03960663
vn -0.01185476 -0.9993437 0.03422943
vn -0.0177771 -0.9996784 0.01808786

vt 0.2208654 0.3045028
vt 0.2208654 0.3045028
vt 0.2208654 0.3045028
vt 0.2208654 0.3045028
vt 0.2208654 0.3045028
vt 0.2208654 0.3045028
vt 0.2208654 0.3045028
vt 0.2208654 0.3045028
vt 0.2208654 0.3045028
vt 0.2208654 0.3045028
vt 0.2208654 0.3045028
vt 0.2208654 0.3045028
vt 0.2209616 0.3032378
vt 0.2208654 0.3045028
vt 0.2209616 0.3032378
vt 0.2208654 0.3045028
vt 0.2208654 0.3045028
vt 0.2209616 0.3032378
vt 0.2208654 0.3045028
vt 0.2209616 0.3032378
vt 0.2209616 0.3032378
vt 0.2209616 0.3032378
vt 0.2209616 0.3032378
vt 0.2209616 0.3032378
vt 0.2209616 0.3032378
vt 0.2209616 0.3032378
vt 0.2209616 0.3032378
vt 0.2209616 0.3032378
vt 0.2209616 0.3032378
vt 0.2209616 0.3032378
vt 0.2209616 0.3032378
vt 0.2209616 0.3032378
vt 0.2209616 0.3032378
vt 0.2209616 0.3032378
vt 0.2209616 0.3032378
vt 0.2209616 0.3032378
vt 0.2209616 0.3032378
vt 0.2209616 0.3032378
vt 0.2209616 0.3032378
vt 0.2209616 0.3032378
vt 0.2209616 0.3032378
vt 0.2209616 0.3032378
vt 0.2209616 0.3032378
vt 0.2209616 0.3032378
vt 0.2209616 0.3032378
vt 0.2209616 0.3032378
vt 0.2209616 0.3032378
vt 0.2209616 0.3032378
vt 0.2209616 0.3032378
vt 0.2209616 0.3032378
vt 0.2209616 0.3032378
vt 0.2209616 0.3032378
vt 0.2209616 0.3032378
vt 0.2209616 0.3032378
vt 0.2209616 0.3032378
vt 0.2209616 0.3032378
vt 0.2209616 0.3032378
vt 0.2209616 0.3032378
vt 0.2209616 0.3032378
vt 0.2209616 0.3032378
vt 0.2209616 0.3032378
vt 0.2209616 0.3032378
vt 0.2209616 0.3032378
vt 0.2209616 0.3032378
vt 0.2209616 0.3032378
vt 0.2209616 0.3032378
vt 0.2209616 0.3032378
vt 0.2209616 0.3032378
vt 0.2209616 0.3032378
vt 0.2209616 0.3032378
vt 0.2209616 0.3032378
vt 0.2199911 0.3035331
vt 0.2199911 0.3043237
vt 0.2207817 0.3043237
vt 0.2207817 0.3035331
vt 0.2199911 0.3035331
vt 0.2199911 0.3043237
vt 0.2207817 0.3043237
vt 0.2207817 0.3035331
vt 0.2199911 0.3035331
vt 0.2199911 0.3043237
vt 0.2207817 0.3043237
vt 0.2207817 0.3035331
vt 0.2199911 0.3035331
vt 0.2199911 0.3043237
vt 0.2207817 0.3043237
vt 0.2207817 0.3035331
vt 0.2199911 0.3035331
vt 0.2199911 0.3043237
vt 0.2207817 0.3043237
vt 0.2207817 0.3035331
vt 0.2199911 0.3035331
vt 0.2199911 0.3043237
vt 0.2207817 0.3043237
vt 0.2207817 0.3035331
vt 0.2209616 0.3032378
vt 0.2209616 0.3032378
vt 0.2209616 0.3032378
vt 0.2209616 0.3032378
vt 0.2209616 0.3032378
vt 0.2209616 0.3032378
vt 0.2209616 0.3032378
vt 0.2209616 0.3032378
vt 0.2209616 0.3032378
vt 0.2209616 0.3032378
vt 0.2209616 0.3032378
vt 0.2209616 0.3032378
vt 0.2209616 0.3032378
vt 0.2209616 0.3032378
vt 0.2209616 0.3032378
vt 0.2209616 0.3032378
vt 0.2209616 0.3032378
vt 0.2209616 0.3032378
vt 0.2209616 0.3032378
vt 0.2209616 0.3032378
vt 0.2209616 0.3032378
vt 0.2209616 0.3032378
vt 0.2209616 0.3032378
vt 0.2209616 0.3032378

usemtl PolygonWestern_Material_01_A
usemap PolygonWestern_Material_01_A
f 2/2/2 1/1/1 3/3/3
f 5/5/5 4/4/4 6/6/6
f 8/8/8 7/7/7 9/9/9
f 11/11/11 10/10/10 12/12/12
f 14/14/14 13/13/13 15/15/15
f 17/17/17 16/16/16 18/18/18
f 20/20/20 19/19/19 21/21/21
f 22/22/22 21/21/21 23/23/23
f 24/24/24 23/23/23 21/21/21
f 26/26/26 25/25/25 27/27/27
f 28/28/28 26/26/26 27/27/27
f 30/30/30 29/29/29 31/31/31
f 30/30/30 31/31/31 32/32/32
f 30/30/30 32/32/32 33/33/33
f 34/34/34 30/30/30 33/33/33
f 34/34/34 35/35/35 30/30/30
f 37/37/37 36/36/36 38/38/38
f 39/39/39 37/37/37 38/38/38
f 41/41/41 40/40/40 42/42/42
f 43/43/43 41/41/41 42/42/42
f 45/45/45 44/44/44 46/46/46
f 47/47/47 45/45/45 46/46/46
f 49/49/49 48/48/48 50/50/50
f 51/51/51 49/49/49 50/50/50
f 53/53/53 52/52/52 54/54/54
f 55/55/55 53/53/53 54/54/54
f 57/57/57 56/56/56 58/58/58
f 59/59/59 57/57/57 58/58/58
f 61/61/61 60/60/60 62/62/62
f 63/63/63 61/61/61 62/62/62
f 65/65/65 64/64/64 66/66/66
f 67/67/67 65/65/65 66/66/66
f 69/69/69 68/68/68 70/70/70
f 71/71/71 69/69/69 70/70/70
f 73/73/73 72/72/72 74/74/74
f 74/74/74 72/72/72 75/75/75
f 77/77/77 76/76/76 78/78/78
f 78/78/78 76/76/76 79/79/79
f 81/81/81 80/80/80 82/82/82
f 82/82/82 80/80/80 83/83/83
f 85/85/85 84/84/84 86/86/86
f 86/86/86 84/84/84 87/87/87
f 89/89/89 88/88/88 90/90/90
f 90/90/90 88/88/88 91/91/91
f 93/93/93 92/92/92 94/94/94
f 94/94/94 92/92/92 95/95/95
f 97/97/97 96/96/96 98/98/98
f 98/98/98 96/96/96 99/99/99
f 101/101/101 100/100/100 102/102/102
f 101/101/101 103/103/103 100/100/100
f 100/100/100 104/104/104 102/102/102
f 102/102/102 104/104/104 105/105/105
f 105/105/105 104/104/104 106/106/106
f 107/107/107 105/105/105 106/106/106
f 103/103/103 108/108/108 100/100/100
f 107/107/107 106/106/106 108/108/108
f 109/109/109 108/108/108 103/103/103
f 109/109/109 107/107/107 108/108/108
f 111/111/111 110/110/110 112/112/112
f 111/111/111 112/112/112 113/113/113
f 110/110/110 114/114/114 112/112/112
f 113/113/113 112/112/112 115/115/115
f 110/110/110 116/116/116 114/114/114
f 113/113/113 115/115/115 117/117/117
f 116/116/116 118/118/118 114/114/114
f 117/117/117 115/115/115 118/118/118
f 119/119/119 118/118/118 116/116/116
f 119/119/119 117/117/117 118/118/118
