mtllib ./SM_Prop_Card_Pile_01_75.mtl
g SM_Prop_Card_Pile_01
v 0.03738976 0.0156315 0.09471512
v 0.03737831 0.005865872 0.09466934
v -0.04808044 0.005993068 0.09569168
v -0.04806137 0.01575857 0.09573936
v 0.03546715 0.006739259 -0.06503487
v 0.03548241 0.01650482 -0.06498528
v -0.04997635 0.01663202 -0.06396198
v -0.04998779 0.006866395 -0.06401157
v -0.05743599 0.01582414 0.08638668
v -0.05744743 0.006058633 0.08633518
v -0.05913353 0.006828487 -0.05443954
v -0.05912209 0.01659399 -0.05439186
v 0.04485321 0.01643926 -0.0556345
v 0.04484177 0.006673753 -0.05568409
v 0.04652786 0.0059039 0.08509445
v 0.04653549 0.01566941 0.08514214
v 0.04653549 0.01566941 0.08514214
v 0.03738976 0.0156315 0.09471512
v -0.04806137 0.01575857 0.09573936
v -0.05743599 0.01582414 0.08638668
v 0.04485321 0.01643926 -0.0556345
v -0.05912209 0.01659399 -0.05439186
v 0.03548241 0.01650482 -0.06498528
v -0.04997635 0.01663202 -0.06396198
v -0.05743599 0.01582414 0.08638668
v -0.04806137 0.01575857 0.09573936
v -0.04808044 0.005993068 0.09569168
v -0.05744743 0.006058633 0.08633518
v -0.05744743 0.006058633 0.08633518
v -0.04808044 0.005993068 0.09569168
v 0.03737831 0.005865872 0.09466934
v 0.04652786 0.0059039 0.08509445
v -0.05913353 0.006828487 -0.05443954
v 0.04484177 0.006673753 -0.05568409
v -0.04998779 0.006866395 -0.06401157
v 0.03546715 0.006739259 -0.06503487
v 0.04652786 0.0059039 0.08509445
v 0.03737831 0.005865872 0.09466934
v 0.03738976 0.0156315 0.09471512
v 0.04653549 0.01566941 0.08514214
v -0.05913353 0.006828487 -0.05443954
v -0.04998779 0.006866395 -0.06401157
v -0.04997635 0.01663202 -0.06396198
v -0.05912209 0.01659399 -0.05439186
v 0.04485321 0.01643926 -0.0556345
v 0.03548241 0.01650482 -0.06498528
v 0.03546715 0.006739259 -0.06503487
v 0.04484177 0.006673753 -0.05568409
v 0.04851151 0.03574008 0.06533909
v 0.04850006 0.02597445 0.0652914
v -0.03695107 0.02610165 0.06395721
v -0.03693962 0.03586715 0.06400871
v 0.05098534 0.02684784 -0.09440422
v 0.05099678 0.0366134 -0.09435463
v -0.03445053 0.0367406 -0.09568787
v -0.03446198 0.02697498 -0.09573936
v -0.04605293 0.03593272 0.0544014
v -0.04606628 0.02616721 0.0543499
v -0.04386902 0.02693707 -0.08641815
v -0.04385757 0.03670257 -0.08637047
v 0.06010818 0.03654784 -0.08474731
v 0.06009674 0.02678233 -0.08479881
v 0.05790329 0.02601248 0.05597115
v 0.05791473 0.03577799 0.05602074
v 0.05791473 0.03577799 0.05602074
v 0.04851151 0.03574008 0.06533909
v -0.03693962 0.03586715 0.06400871
v -0.04605293 0.03593272 0.0544014
v 0.06010818 0.03654784 -0.08474731
v -0.04385757 0.03670257 -0.08637047
v 0.05099678 0.0366134 -0.09435463
v -0.03445053 0.0367406 -0.09568787
v -0.04605293 0.03593272 0.0544014
v -0.03693962 0.03586715 0.06400871
v -0.03695107 0.02610165 0.06395721
v -0.04606628 0.02616721 0.0543499
v -0.04606628 0.02616721 0.0543499
v -0.03695107 0.02610165 0.06395721
v 0.04850006 0.02597445 0.0652914
v 0.05790329 0.02601248 0.05597115
v -0.04386902 0.02693707 -0.08641815
v 0.06009674 0.02678233 -0.08479881
v -0.03446198 0.02697498 -0.09573936
v 0.05098534 0.02684784 -0.09440422
v 0.05790329 0.02601248 0.05597115
v 0.04850006 0.02597445 0.0652914
v 0.04851151 0.03574008 0.06533909
v 0.05791473 0.03577799 0.05602074
v -0.04386902 0.02693707 -0.08641815
v -0.03446198 0.02697498 -0.09573936
v -0.03445053 0.0367406 -0.09568787
v -0.04385757 0.03670257 -0.08637047
v 0.06010818 0.03654784 -0.08474731
v 0.05099678 0.0366134 -0.09435463
v 0.05098534 0.02684784 -0.09440422
v 0.06009674 0.02678233 -0.08479881
v 0.05296326 0.02814054 0.0783186
v 0.05399513 0 0.07981014
v -0.03488541 0 0.09003448
v -0.03421974 0.02814054 0.08834743
v 0.03488922 0 -0.08629322
v 0.03422165 0.02814054 -0.08460617
v -0.05296135 0.02814054 -0.07457829
v -0.05399323 0 -0.07606983
v -0.04477501 0.02814054 0.07977676
v -0.04564857 0 0.08129787
v -0.05200768 0 0.007849693
v -0.05101204 0.02814054 0.007735252
v -0.04564857 0.04690075 0.08129787
v -0.05200768 0.04690075 0.007849693
v -0.06249046 0.04690075 -0.0651226
v -0.06129646 0.02814054 -0.06383896
v -0.06249046 0 -0.0651226
v 0.05200958 0 -0.004114151
v 0.06249046 0 0.06886005
v 0.06129456 0.02814054 0.06757545
v 0.05101395 0.02814054 -0.00399971
v 0.06249046 0.04690075 0.06886005
v 0.05200958 0.04690075 -0.004114151
v 0.04565048 0.04690075 -0.07756233
v 0.04477882 0.02814054 -0.07603931
v 0.04565048 0 -0.07756233
v 0.06249046 0.04690075 0.06886005
v 0.05399513 0.04690075 0.07981014
v -0.03488541 0.04690075 0.09003448
v -0.04564857 0.04690075 0.08129787
v 0.05200958 0.04690075 -0.004114151
v -0.05200768 0.04690075 0.007849693
v 0.04565048 0.04690075 -0.07756233
v -0.06249046 0.04690075 -0.0651226
v 0.03488922 0.04690075 -0.08629322
v -0.05399323 0.04690075 -0.07606983
v -0.03421974 0.02814054 0.08834743
v -0.03488541 0 0.09003448
v -0.04564857 0 0.08129787
v -0.04477501 0.02814054 0.07977676
v -0.04564857 0 0.08129787
v -0.03488541 0 0.09003448
v 0.05399513 0 0.07981014
v 0.06249046 0 0.06886005
v -0.05200768 0 0.007849693
v 0.05200958 0 -0.004114151
v -0.06249046 0 -0.0651226
v 0.04565048 0 -0.07756233
v -0.05399323 0 -0.07606983
v 0.03488922 0 -0.08629322
v 0.06249046 0 0.06886005
v 0.05399513 0 0.07981014
v 0.05296326 0.02814054 0.0783186
v 0.06129456 0.02814054 0.06757545
v -0.06249046 0 -0.0651226
v -0.05399323 0 -0.07606983
v -0.05296135 0.02814054 -0.07457829
v -0.06129646 0.02814054 -0.06383896
v 0.03422165 0.02814054 -0.08460617
v 0.03488922 0 -0.08629322
v 0.04565048 0 -0.07756233
v 0.04477882 0.02814054 -0.07603931
v 0.05296326 0.02814054 0.0783186
v 0.05399513 0.04690075 0.07981014
v 0.06249046 0.04690075 0.06886005
v 0.06129456 0.02814054 0.06757545
v 0.05399513 0.04690075 0.07981014
v 0.05296326 0.02814054 0.0783186
v -0.03421974 0.02814054 0.08834743
v -0.03488541 0.04690075 0.09003448
v -0.04564857 0.04690075 0.08129787
v -0.03488541 0.04690075 0.09003448
v -0.03421974 0.02814054 0.08834743
v -0.04477501 0.02814054 0.07977676
v -0.05296135 0.02814054 -0.07457829
v -0.05399323 0.04690075 -0.07606983
v -0.06249046 0.04690075 -0.0651226
v -0.06129646 0.02814054 -0.06383896
v 0.03422165 0.02814054 -0.08460617
v 0.03488922 0.04690075 -0.08629322
v -0.05399323 0.04690075 -0.07606983
v -0.05296135 0.02814054 -0.07457829
v 0.04565048 0.04690075 -0.07756233
v 0.03488922 0.04690075 -0.08629322
v 0.03422165 0.02814054 -0.08460617
v 0.04477882 0.02814054 -0.07603931

vn 0.0119665 -0.004803483 0.9999169
vn 0.0119665 -0.004803483 0.9999169
vn 0.0119665 -0.004803483 0.9999169
vn 0.0119665 -0.004803483 0.9999169
vn -0.01196578 0.00509407 -0.9999155
vn -0.01196578 0.00509407 -0.9999155
vn -0.01196578 0.00509407 -0.9999155
vn -0.01196578 0.00509407 -0.9999155
vn -0.9999276 0.001110952 0.01198231
vn -0.9999276 0.001110952 0.01198231
vn -0.9999276 0.001110952 0.01198231
vn -0.9999276 0.001110952 0.01198231
vn 0.999928 -0.0009169027 -0.01196763
vn 0.999928 -0.0009169027 -0.01196763
vn 0.999928 -0.0009169027 -0.01196763
vn 0.999928 -0.0009169027 -0.01196763
vn 0.001553168 0.999984 0.005449207
vn 0.001552971 0.999984 0.005448503
vn 0.001552971 0.999984 0.005448503
vn 0.001553168 0.999984 0.005449207
vn 0.001553442 0.9999839 0.005453196
vn 0.001553442 0.9999839 0.005453196
vn 0.001553519 0.9999839 0.005456483
vn 0.001553519 0.9999839 0.005456483
vn -0.7065008 -0.002489959 0.7077078
vn -0.7065008 -0.002489959 0.7077078
vn -0.7065008 -0.002489959 0.7077078
vn -0.7065008 -0.002489959 0.7077078
vn -0.001553348 -0.9999839 -0.005452007
vn -0.001553408 -0.9999839 -0.005454088
vn -0.001553408 -0.9999839 -0.005454088
vn -0.001553348 -0.9999839 -0.005452007
vn -0.001553227 -0.999984 -0.00544805
vn -0.001553227 -0.999984 -0.00544805
vn -0.001553167 -0.999984 -0.005446175
vn -0.001553167 -0.999984 -0.005446175
vn 0.7230224 -0.004011734 0.6908129
vn 0.7230224 -0.004011734 0.6908129
vn 0.7230224 -0.004011734 0.6908129
vn 0.7230224 -0.004011734 0.6908129
vn -0.7229909 0.004288001 -0.6908442
vn -0.7229909 0.004288001 -0.6908442
vn -0.7229909 0.004288001 -0.6908442
vn -0.7229909 0.004288001 -0.6908442
vn 0.7062847 0.002629312 -0.7079229
vn 0.7062847 0.002629312 -0.7079229
vn 0.7062847 0.002629312 -0.7079229
vn 0.7062847 0.002629312 -0.7079229
vn -0.0155966 -0.005059193 0.9998655
vn -0.0155966 -0.005059193 0.9998655
vn -0.0155966 -0.005059193 0.9998655
vn -0.0155966 -0.005059193 0.9998655
vn 0.01561975 0.005156787 -0.9998647
vn 0.01561975 0.005156787 -0.9998647
vn 0.01561975 0.005156787 -0.9998647
vn 0.01561975 0.005156787 -0.9998647
vn -0.9998776 0.001348571 -0.01559285
vn -0.9998776 0.001348571 -0.01559285
vn -0.9998776 0.001348571 -0.01559285
vn -0.9998776 0.001348571 -0.01559285
vn 0.9998779 -0.001252355 0.01557317
vn 0.9998779 -0.001252355 0.01557317
vn 0.9998779 -0.001252355 0.01557317
vn 0.9998779 -0.001252355 0.01557317
vn 0.001402462 0.999984 0.005489711
vn 0.001402268 0.999984 0.005488765
vn 0.001402268 0.999984 0.005488765
vn 0.001402462 0.999984 0.005489711
vn 0.001402646 0.9999839 0.005493212
vn 0.001402646 0.9999839 0.005493212
vn 0.001402637 0.9999839 0.00549577
vn 0.001402637 0.9999839 0.00549577
vn -0.7254841 -0.002708386 0.6882336
vn -0.7254841 -0.002708386 0.6882336
vn -0.7254841 -0.002708386 0.6882336
vn -0.7254841 -0.002708386 0.6882336
vn -0.001402661 -0.9999839 -0.005492538
vn -0.00140263 -0.9999839 -0.005494374
vn -0.00140263 -0.9999839 -0.005494374
vn -0.001402661 -0.9999839 -0.005492538
vn -0.001402613 -0.999984 -0.005488235
vn -0.001402613 -0.999984 -0.005488235
vn -0.001402534 -0.999984 -0.005485767
vn -0.001402534 -0.999984 -0.005485767
vn 0.7039323 -0.004362348 0.7102537
vn 0.7039323 -0.004362348 0.7102537
vn 0.7039323 -0.004362348 0.7102537
vn 0.7039323 -0.004362348 0.7102537
vn -0.7037882 0.004432251 -0.7103961
vn -0.7037882 0.004432251 -0.7103961
vn -0.7037882 0.004432251 -0.7103961
vn -0.7037882 0.004432251 -0.7103961
vn 0.7255578 0.002711506 -0.6881558
vn 0.7255578 0.002711506 -0.6881558
vn 0.7255578 0.002711506 -0.6881558
vn 0.7255578 0.002711506 -0.6881558
vn 0.1140955 0.0567591 0.991847
vn 0.1140955 0.0567591 0.991847
vn 0.1140955 0.0567591 0.991847
vn 0.1140955 0.0567591 0.991847
vn -0.1140837 0.05675526 -0.9918487
vn -0.1140837 0.05675526 -0.9918487
vn -0.1140837 0.05675526 -0.9918487
vn -0.1140837 0.05675526 -0.9918487
vn -0.9962338 -0.008880978 0.0862514
vn -0.9956425 0.0355722 0.08620021
vn -0.9928202 0.03556675 0.1142061
vn -0.9944601 0.00593688 0.104947
vn -0.9948561 -0.0533166 0.08613214
vn -0.9920362 -0.05330846 0.1141159
vn -0.9884316 -0.05325816 0.1420094
vn -0.9897974 -0.008871259 0.1422057
vn -0.9892112 0.03553313 0.1421214
vn 0.9928232 0.03556727 -0.1141795
vn 0.989216 0.0355653 -0.1420802
vn 0.9898032 -0.00887926 -0.1421645
vn 0.9923189 0.005940679 -0.1235642
vn 0.9884349 -0.05330627 -0.141968
vn 0.9920392 -0.05330923 -0.1140893
vn 0.9948596 -0.05327006 -0.08612052
vn 0.996235 -0.008873237 -0.08623957
vn 0.9956447 0.03554109 -0.08618848
vn 0 1 0
vn 0 1 0
vn 0 1 0
vn 0 1 0
vn 0 1 0
vn 0 1 0
vn 0 1 0
vn 0 1 0
vn 0 1 0
vn 0 1 0
vn -0.6290984 0.06137633 0.7748989
vn -0.6290984 0.06137633 0.7748989
vn -0.6290984 0.06137633 0.7748989
vn -0.6290984 0.06137633 0.7748989
vn 0 -1 0
vn 0 -1 0
vn 0 -1 0
vn 0 -1 0
vn 0 -1 0
vn 0 -1 0
vn 0 -1 0
vn 0 -1 0
vn 0 -1 0
vn 0 -1 0
vn 0.788671 0.06139316 0.6117427
vn 0.788671 0.06139316 0.6117427
vn 0.788671 0.06139316 0.6117427
vn 0.788671 0.06139316 0.6117427
vn -0.7884805 0.06136081 -0.6119912
vn -0.7884805 0.06136081 -0.6119912
vn -0.7884805 0.06136081 -0.6119912
vn -0.7884805 0.06136081 -0.6119912
vn 0.6288881 0.06140643 -0.775067
vn 0.6288881 0.06140643 -0.775067
vn 0.6288881 0.06140643 -0.775067
vn 0.6288881 0.06140643 -0.775067
vn 0.7868195 -0.09187434 0.6103066
vn 0.7868195 -0.09187434 0.6103066
vn 0.7868195 -0.09187434 0.6103066
vn 0.7868195 -0.09187434 0.6103066
vn 0.1138665 -0.08496846 0.9898559
vn 0.1138665 -0.08496846 0.9898559
vn 0.1138665 -0.08496846 0.9898559
vn 0.1138665 -0.08496846 0.9898559
vn -0.6276224 -0.09184928 0.7730808
vn -0.6276224 -0.09184928 0.7730808
vn -0.6276224 -0.09184928 0.7730808
vn -0.6276224 -0.09184928 0.7730808
vn -0.7866315 -0.09182615 -0.6105561
vn -0.7866315 -0.09182615 -0.6105561
vn -0.7866315 -0.09182615 -0.6105561
vn -0.7866315 -0.09182615 -0.6105561
vn -0.1138547 -0.08496273 -0.9898577
vn -0.1138547 -0.08496273 -0.9898577
vn -0.1138547 -0.08496273 -0.9898577
vn -0.1138547 -0.08496273 -0.9898577
vn 0.6274112 -0.09189411 -0.7732468
vn 0.6274112 -0.09189411 -0.7732468
vn 0.6274112 -0.09189411 -0.7732468
vn 0.6274112 -0.09189411 -0.7732468

vt 0.05313983 0.04687405
vt 0.05313983 0.04687405
vt 0.05313983 0.04687405
vt 0.05313983 0.04687405
vt 0.05313983 0.04687405
vt 0.05313983 0.04687405
vt 0.05313983 0.04687405
vt 0.05313983 0.04687405
vt 0.05313983 0.04687405
vt 0.05313983 0.04687405
vt 0.05313983 0.04687405
vt 0.05313983 0.04687405
vt 0.05313983 0.04687405
vt 0.05313983 0.04687405
vt 0.05313983 0.04687405
vt 0.05313983 0.04687405
vt 0.1466806 0.4473855
vt 0.1466806 0.4473855
vt 0.1466806 0.4473855
vt 0.1466806 0.4473855
vt 0.1466806 0.4473855
vt 0.1466806 0.4473855
vt 0.1466806 0.4473855
vt 0.1466806 0.4473855
vt 0.05313983 0.04687405
vt 0.05313983 0.04687405
vt 0.05313983 0.04687405
vt 0.05313983 0.04687405
vt 0.06855985 0.02545342
vt 0.06557854 0.0225812
vt 0.03805129 0.0225812
vt 0.03507004 0.02545342
vt 0.06855985 0.06766868
vt 0.03507004 0.06766868
vt 0.06557854 0.07054049
vt 0.03805129 0.07054049
vt 0.05313983 0.04687405
vt 0.05313983 0.04687405
vt 0.05313983 0.04687405
vt 0.05313983 0.04687405
vt 0.05313983 0.04687405
vt 0.05313983 0.04687405
vt 0.05313983 0.04687405
vt 0.05313983 0.04687405
vt 0.05313983 0.04687405
vt 0.05313983 0.04687405
vt 0.05313983 0.04687405
vt 0.05313983 0.04687405
vt 0.05313983 0.04687405
vt 0.05313983 0.04687405
vt 0.05313983 0.04687405
vt 0.05313983 0.04687405
vt 0.05313983 0.04687405
vt 0.05313983 0.04687405
vt 0.05313983 0.04687405
vt 0.05313983 0.04687405
vt 0.05313983 0.04687405
vt 0.05313983 0.04687405
vt 0.05313983 0.04687405
vt 0.05313983 0.04687405
vt 0.05313983 0.04687405
vt 0.05313983 0.04687405
vt 0.05313983 0.04687405
vt 0.05313983 0.04687405
vt 0.1466806 0.4473855
vt 0.1466806 0.4473855
vt 0.1466806 0.4473855
vt 0.1466806 0.4473855
vt 0.1466806 0.4473855
vt 0.1466806 0.4473855
vt 0.1466806 0.4473855
vt 0.1466806 0.4473855
vt 0.05313983 0.04687405
vt 0.05313983 0.04687405
vt 0.05313983 0.04687405
vt 0.05313983 0.04687405
vt 0.06855985 0.02545342
vt 0.06557854 0.0225812
vt 0.03805129 0.0225812
vt 0.03507004 0.02545342
vt 0.06855985 0.06766868
vt 0.03507004 0.06766868
vt 0.06557854 0.07054049
vt 0.03805129 0.07054049
vt 0.05313983 0.04687405
vt 0.05313983 0.04687405
vt 0.05313983 0.04687405
vt 0.05313983 0.04687405
vt 0.05313983 0.04687405
vt 0.05313983 0.04687405
vt 0.05313983 0.04687405
vt 0.05313983 0.04687405
vt 0.05313983 0.04687405
vt 0.05313983 0.04687405
vt 0.05313983 0.04687405
vt 0.05313983 0.04687405
vt 0.01833344 0.04687405
vt 0.01833344 0.04687405
vt 0.01833344 0.04687405
vt 0.01833344 0.04687405
vt 0.01833344 0.04687405
vt 0.01833344 0.04687405
vt 0.01833344 0.04687405
vt 0.01833344 0.04687405
vt 0.01833344 0.04687405
vt 0.01833344 0.04687405
vt 0.01833344 0.04687405
vt 0.01833344 0.04687405
vt 0.01833344 0.04687405
vt 0.01833344 0.04687405
vt 0.01833344 0.04687405
vt 0.01833344 0.04687405
vt 0.01833344 0.04687405
vt 0.01833344 0.04687405
vt 0.01833344 0.04687405
vt 0.01833344 0.04687405
vt 0.01833344 0.04687405
vt 0.01833344 0.04687405
vt 0.01833344 0.04687405
vt 0.01833344 0.04687405
vt 0.01833344 0.04687405
vt 0.01833344 0.04687405
vt 0.1466806 0.4473855
vt 0.1466806 0.4473855
vt 0.1466806 0.4473855
vt 0.1466806 0.4473855
vt 0.1466806 0.4473855
vt 0.1466806 0.4473855
vt 0.1466806 0.4473855
vt 0.1466806 0.4473855
vt 0.1466806 0.4473855
vt 0.1466806 0.4473855
vt 0.01833344 0.04687405
vt 0.01833344 0.04687405
vt 0.01833344 0.04687405
vt 0.01833344 0.04687405
vt 0.03375345 0.02545342
vt 0.03077215 0.0225812
vt 0.003244899 0.0225812
vt 0.00026365 0.02545342
vt 0.03375345 0.04656105
vt 0.00026365 0.04656105
vt 0.03375345 0.06766868
vt 0.00026365 0.06766868
vt 0.03077215 0.07054049
vt 0.003244899 0.07054049
vt 0.01833344 0.04687405
vt 0.01833344 0.04687405
vt 0.01833344 0.04687405
vt 0.01833344 0.04687405
vt 0.01833344 0.04687405
vt 0.01833344 0.04687405
vt 0.01833344 0.04687405
vt 0.01833344 0.04687405
vt 0.01833344 0.04687405
vt 0.01833344 0.04687405
vt 0.01833344 0.04687405
vt 0.01833344 0.04687405
vt 0.01833344 0.04687405
vt 0.01833344 0.04687405
vt 0.01833344 0.04687405
vt 0.01833344 0.04687405
vt 0.01833344 0.04687405
vt 0.01833344 0.04687405
vt 0.01833344 0.04687405
vt 0.01833344 0.04687405
vt 0.01833344 0.04687405
vt 0.01833344 0.04687405
vt 0.01833344 0.04687405
vt 0.01833344 0.04687405
vt 0.01833344 0.04687405
vt 0.01833344 0.04687405
vt 0.01833344 0.04687405
vt 0.01833344 0.04687405
vt 0.01833344 0.04687405
vt 0.01833344 0.04687405
vt 0.01833344 0.04687405
vt 0.01833344 0.04687405
vt 0.01833344 0.04687405
vt 0.01833344 0.04687405
vt 0.01833344 0.04687405
vt 0.01833344 0.04687405

usemtl PolygonWestern_Material_01_A
usemap PolygonWestern_Material_01_A
f 2/2/2 1/1/1 3/3/3
f 3/3/3 1/1/1 4/4/4
f 6/6/6 5/5/5 7/7/7
f 7/7/7 5/5/5 8/8/8
f 10/10/10 9/9/9 11/11/11
f 11/11/11 9/9/9 12/12/12
f 14/14/14 13/13/13 15/15/15
f 15/15/15 13/13/13 16/16/16
f 18/18/18 17/17/17 19/19/19
f 19/19/19 17/17/17 20/20/20
f 17/17/17 21/21/21 20/20/20
f 20/20/20 21/21/21 22/22/22
f 23/23/23 22/22/22 21/21/21
f 24/24/24 22/22/22 23/23/23
f 26/26/26 25/25/25 27/27/27
f 27/27/27 25/25/25 28/28/28
f 30/30/30 29/29/29 31/31/31
f 31/31/31 29/29/29 32/32/32
f 33/33/33 32/32/32 29/29/29
f 34/34/34 32/32/32 33/33/33
f 35/35/35 34/34/34 33/33/33
f 36/36/36 34/34/34 35/35/35
f 38/38/38 37/37/37 39/39/39
f 39/39/39 37/37/37 40/40/40
f 42/42/42 41/41/41 43/43/43
f 43/43/43 41/41/41 44/44/44
f 46/46/46 45/45/45 47/47/47
f 47/47/47 45/45/45 48/48/48
f 50/50/50 49/49/49 51/51/51
f 51/51/51 49/49/49 52/52/52
f 54/54/54 53/53/53 55/55/55
f 55/55/55 53/53/53 56/56/56
f 58/58/58 57/57/57 59/59/59
f 59/59/59 57/57/57 60/60/60
f 62/62/62 61/61/61 63/63/63
f 63/63/63 61/61/61 64/64/64
f 66/66/66 65/65/65 67/67/67
f 67/67/67 65/65/65 68/68/68
f 65/65/65 69/69/69 68/68/68
f 68/68/68 69/69/69 70/70/70
f 71/71/71 70/70/70 69/69/69
f 72/72/72 70/70/70 71/71/71
f 74/74/74 73/73/73 75/75/75
f 75/75/75 73/73/73 76/76/76
f 78/78/78 77/77/77 79/79/79
f 79/79/79 77/77/77 80/80/80
f 81/81/81 80/80/80 77/77/77
f 82/82/82 80/80/80 81/81/81
f 83/83/83 82/82/82 81/81/81
f 84/84/84 82/82/82 83/83/83
f 86/86/86 85/85/85 87/87/87
f 87/87/87 85/85/85 88/88/88
f 90/90/90 89/89/89 91/91/91
f 91/91/91 89/89/89 92/92/92
f 94/94/94 93/93/93 95/95/95
f 95/95/95 93/93/93 96/96/96
f 98/98/98 97/97/97 99/99/99
f 99/99/99 97/97/97 100/100/100
f 102/102/102 101/101/101 103/103/103
f 103/103/103 101/101/101 104/104/104
f 106/106/106 105/105/105 107/107/107
f 107/107/107 105/105/105 108/108/108
f 105/105/105 109/109/109 108/108/108
f 108/108/108 109/109/109 110/110/110
f 111/111/111 108/108/108 110/110/110
f 112/112/112 108/108/108 111/111/111
f 112/112/112 107/107/107 108/108/108
f 113/113/113 107/107/107 112/112/112
f 115/115/115 114/114/114 116/116/116
f 116/116/116 114/114/114 117/117/117
f 116/116/116 117/117/117 118/118/118
f 118/118/118 117/117/117 119/119/119
f 117/117/117 120/120/120 119/119/119
f 121/121/121 120/120/120 117/117/117
f 114/114/114 121/121/121 117/117/117
f 122/122/122 121/121/121 114/114/114
f 124/124/124 123/123/123 125/125/125
f 125/125/125 123/123/123 126/126/126
f 123/123/123 127/127/127 126/126/126
f 126/126/126 127/127/127 128/128/128
f 127/127/127 129/129/129 128/128/128
f 128/128/128 129/129/129 130/130/130
f 131/131/131 130/130/130 129/129/129
f 132/132/132 130/130/130 131/131/131
f 134/134/134 133/133/133 135/135/135
f 135/135/135 133/133/133 136/136/136
f 138/138/138 137/137/137 139/139/139
f 139/139/139 137/137/137 140/140/140
f 141/141/141 140/140/140 137/137/137
f 142/142/142 140/140/140 141/141/141
f 143/143/143 142/142/142 141/141/141
f 144/144/144 142/142/142 143/143/143
f 145/145/145 144/144/144 143/143/143
f 146/146/146 144/144/144 145/145/145
f 148/148/148 147/147/147 149/149/149
f 149/149/149 147/147/147 150/150/150
f 152/152/152 151/151/151 153/153/153
f 153/153/153 151/151/151 154/154/154
f 156/156/156 155/155/155 157/157/157
f 157/157/157 155/155/155 158/158/158
f 160/160/160 159/159/159 161/161/161
f 161/161/161 159/159/159 162/162/162
f 164/164/164 163/163/163 165/165/165
f 165/165/165 163/163/163 166/166/166
f 168/168/168 167/167/167 169/169/169
f 169/169/169 167/167/167 170/170/170
f 172/172/172 171/171/171 173/173/173
f 173/173/173 171/171/171 174/174/174
f 176/176/176 175/175/175 177/177/177
f 177/177/177 175/175/175 178/178/178
f 180/180/180 179/179/179 181/181/181
f 181/181/181 179/179/179 182/182/182
