mtllib ./hexagon-snow_1.mtl
g hexagon-snow
v -12.99038 0 -7.5
v -1.907349E-06 0 -15
v 12.99038 0 -7.5
v -12.99038 0 7.5
v 12.99038 0 7.499998
v -5.96007E-07 0 15
v 12.99038 -6.000002 -7.5
v -1.917137E-06 -6.000001 -15
v -1.926926E-06 -10 -15
v 12.99038 -10 -7.5
v -12.99038 0 7.5
v -5.96007E-07 0 15
v -5.96007E-07 -2.000001 15
v -12.99038 -2.000001 7.5
v -1.907349E-06 0 -15
v -12.99038 0 -7.5
v -12.99038 -2.000001 -7.5
v -1.907349E-06 -2.000001 -15
v 12.99038 0 -7.5
v -1.907349E-06 0 -15
v -1.907349E-06 -2.000001 -15
v 12.99038 -2.000001 -7.5
v -5.96007E-07 0 15
v 12.99038 0 7.499998
v 12.99038 -2.000001 7.499998
v -5.96007E-07 -2.000001 15
v -12.99038 0 -7.5
v -12.99038 0 7.5
v -12.99038 -2.000001 7.5
v -12.99038 -2.000001 -7.5
v 12.99038 0 7.499998
v 12.99038 0 -7.5
v 12.99038 -2.000001 -7.5
v 12.99038 -2.000001 7.499998
v -6.057955E-07 -6.000002 15
v 12.99038 -6.000001 7.499998
v 12.99038 -10 7.499998
v -6.15584E-07 -10 15
v -12.99038 -6.000002 -7.5
v -12.99038 -6.000001 7.5
v -12.99038 -10 7.5
v -12.99038 -10 -7.5
v 12.99038 -6.000001 7.499998
v 12.99038 -6.000002 -7.5
v 12.99038 -10 -7.5
v 12.99038 -10 7.499998
v -12.99038 -6.000001 7.5
v -6.057955E-07 -6.000002 15
v -6.15584E-07 -10 15
v -12.99038 -10 7.5
v -1.917137E-06 -6.000001 -15
v -12.99038 -6.000002 -7.5
v -12.99038 -10 -7.5
v -1.926926E-06 -10 -15
v -1.907349E-06 -2.000001 -15
v -12.99038 -2.000001 -7.5
v -12.99038 -6.000002 -7.5
v -1.917137E-06 -6.000001 -15
v -12.99038 -2.000001 7.5
v -5.96007E-07 -2.000001 15
v -6.057955E-07 -6.000002 15
v -12.99038 -6.000001 7.5
v 12.99038 -2.000001 7.499998
v 12.99038 -2.000001 -7.5
v 12.99038 -6.000002 -7.5
v 12.99038 -6.000001 7.499998
v -12.99038 -2.000001 -7.5
v -12.99038 -2.000001 7.5
v -12.99038 -6.000001 7.5
v -12.99038 -6.000002 -7.5
v -5.96007E-07 -2.000001 15
v 12.99038 -2.000001 7.499998
v 12.99038 -6.000001 7.499998
v -6.057955E-07 -6.000002 15
v 12.99038 -2.000001 -7.5
v -1.907349E-06 -2.000001 -15
v -1.917137E-06 -6.000001 -15
v 12.99038 -6.000002 -7.5

vn 0 1 0
vn 0 1 0
vn 0 1 0
vn 0 1 0
vn 0 1 0
vn 0 1 0
vn 0.5 0 -0.8660254
vn 0.5 0 -0.8660254
vn 0.5 0 -0.8660254
vn 0.5 0 -0.8660254
vn -0.4999999 0 0.8660254
vn -0.4999999 0 0.8660254
vn -0.4999999 0 0.8660254
vn -0.4999999 0 0.8660254
vn -0.5 0 -0.8660254
vn -0.5 0 -0.8660254
vn -0.5 0 -0.8660254
vn -0.5 0 -0.8660254
vn 0.5 0 -0.8660254
vn 0.5 0 -0.8660254
vn 0.5 0 -0.8660254
vn 0.5 0 -0.8660254
vn 0.5000001 0 0.8660253
vn 0.5000001 0 0.8660253
vn 0.5000001 0 0.8660253
vn 0.5000001 0 0.8660253
vn -1 0 0
vn -1 0 0
vn -1 0 0
vn -1 0 0
vn 1 0 0
vn 1 0 0
vn 1 0 0
vn 1 0 0
vn 0.5000001 0 0.8660253
vn 0.5000001 0 0.8660253
vn 0.5000001 0 0.8660253
vn 0.5000001 0 0.8660253
vn -1 0 0
vn -1 0 0
vn -1 0 0
vn -1 0 0
vn 1 0 0
vn 1 0 0
vn 1 0 0
vn 1 0 0
vn -0.5 0 0.8660254
vn -0.5 0 0.8660254
vn -0.5 0 0.8660254
vn -0.5 0 0.8660254
vn -0.5 0 -0.8660254
vn -0.5 0 -0.8660254
vn -0.5 0 -0.8660254
vn -0.5 0 -0.8660254
vn -0.5 0 -0.8660254
vn -0.5 0 -0.8660254
vn -0.5 0 -0.8660254
vn -0.5 0 -0.8660254
vn -0.5 0 0.8660254
vn -0.5 0 0.8660254
vn -0.5 0 0.8660254
vn -0.5 0 0.8660254
vn 1 0 0
vn 1 0 0
vn 1 0 0
vn 1 0 0
vn -1 0 0
vn -1 0 0
vn -1 0 0
vn -1 0 0
vn 0.5000002 0 0.8660253
vn 0.5000002 0 0.8660253
vn 0.5000002 0 0.8660253
vn 0.5000002 0 0.8660253
vn 0.5 0 -0.8660254
vn 0.5 0 -0.8660254
vn 0.5 0 -0.8660254
vn 0.5 0 -0.8660254

vt 0.7743611 0.3281438
vt 0.8117716 0.3497427
vt 0.849182 0.3281438
vt 0.7743611 0.284946
vt 0.849182 0.284946
vt 0.8117716 0.263347
vt 0.1660156 0.7890624
vt 0.1660156 0.7890624
vt 0.1660156 0.7890624
vt 0.1660156 0.7890624
vt 0.7743611 0.284946
vt 0.8117716 0.263347
vt 0.8117716 0.263347
vt 0.7743611 0.284946
vt 0.8117716 0.3497427
vt 0.7743611 0.3281438
vt 0.7743611 0.3281438
vt 0.8117716 0.3497427
vt 0.849182 0.3281438
vt 0.8117716 0.3497427
vt 0.8117716 0.3497427
vt 0.849182 0.3281438
vt 0.8117716 0.263347
vt 0.849182 0.284946
vt 0.849182 0.284946
vt 0.8117716 0.263347
vt 0.7743611 0.3281438
vt 0.7743611 0.284946
vt 0.7743611 0.284946
vt 0.7743611 0.3281438
vt 0.849182 0.284946
vt 0.849182 0.3281438
vt 0.849182 0.3281438
vt 0.849182 0.284946
vt 0.1660156 0.7890624
vt 0.1660156 0.7890624
vt 0.1660156 0.7890624
vt 0.1660156 0.7890624
vt 0.1660156 0.7890624
vt 0.1660156 0.7890624
vt 0.1660156 0.7890624
vt 0.1660156 0.7890624
vt 0.1660156 0.7890624
vt 0.1660156 0.7890624
vt 0.1660156 0.7890624
vt 0.1660156 0.7890624
vt 0.1660156 0.7890624
vt 0.1660156 0.7890624
vt 0.1660156 0.7890624
vt 0.1660156 0.7890624
vt 0.1660156 0.7890624
vt 0.1660156 0.7890624
vt 0.1660156 0.7890624
vt 0.1660156 0.7890624
vt 0.09179685 0.8203124
vt 0.09179685 0.8203124
vt 0.09179685 0.8203124
vt 0.09179685 0.8203124
vt 0.09179685 0.8203124
vt 0.09179685 0.8203124
vt 0.09179685 0.8203124
vt 0.09179685 0.8203124
vt 0.09179685 0.8203124
vt 0.09179685 0.8203124
vt 0.09179685 0.8203124
vt 0.09179685 0.8203124
vt 0.09179685 0.8203124
vt 0.09179685 0.8203124
vt 0.09179685 0.8203124
vt 0.09179685 0.8203124
vt 0.09179685 0.8203124
vt 0.09179685 0.8203124
vt 0.09179685 0.8203124
vt 0.09179685 0.8203124
vt 0.09179685 0.8203124
vt 0.09179685 0.8203124
vt 0.09179685 0.8203124
vt 0.09179685 0.8203124

usemtl LOW-POLY-COLORS
usemap LOW-POLY-COLORS
f 2/2/2 1/1/1 3/3/3
f 4/4/4 3/3/3 1/1/1
f 5/5/5 3/3/3 4/4/4
f 6/6/6 5/5/5 4/4/4
f 8/8/8 7/7/7 9/9/9
f 9/9/9 7/7/7 10/10/10
f 12/12/12 11/11/11 13/13/13
f 13/13/13 11/11/11 14/14/14
f 16/16/16 15/15/15 17/17/17
f 17/17/17 15/15/15 18/18/18
f 20/20/20 19/19/19 21/21/21
f 21/21/21 19/19/19 22/22/22
f 24/24/24 23/23/23 25/25/25
f 25/25/25 23/23/23 26/26/26
f 28/28/28 27/27/27 29/29/29
f 29/29/29 27/27/27 30/30/30
f 32/32/32 31/31/31 33/33/33
f 33/33/33 31/31/31 34/34/34
f 36/36/36 35/35/35 37/37/37
f 37/37/37 35/35/35 38/38/38
f 40/40/40 39/39/39 41/41/41
f 41/41/41 39/39/39 42/42/42
f 44/44/44 43/43/43 45/45/45
f 45/45/45 43/43/43 46/46/46
f 48/48/48 47/47/47 49/49/49
f 49/49/49 47/47/47 50/50/50
f 52/52/52 51/51/51 53/53/53
f 53/53/53 51/51/51 54/54/54
f 56/56/56 55/55/55 57/57/57
f 57/57/57 55/55/55 58/58/58
f 60/60/60 59/59/59 61/61/61
f 61/61/61 59/59/59 62/62/62
f 64/64/64 63/63/63 65/65/65
f 65/65/65 63/63/63 66/66/66
f 68/68/68 67/67/67 69/69/69
f 69/69/69 67/67/67 70/70/70
f 72/72/72 71/71/71 73/73/73
f 73/73/73 71/71/71 74/74/74
f 76/76/76 75/75/75 77/77/77
f 77/77/77 75/75/75 78/78/78
