mtllib ./cabinet-kitchen-top_13.mtl
g cabinet-kitchen-top
v -0.3 0 -0.3000001
v 0.3 0 -0.3000001
v 0.3 0.2999939 -0.3000001
v -0.3 0.2999939 -0.3000001
v -0.3 0 -0.3000001
v -0.3 0.2999939 -0.3000001
v -0.3 0.2999939 0.3000001
v -0.3 0 0.3000001
v -0.3 0 0.3000001
v -0.3 0.2999939 0.3000001
v 0.3 0.2999939 0.3000001
v 0.3 0 0.3000001
v 0.3 0 0.3000001
v 0.3 0.2999939 0.3000001
v 0.3 0.2999939 -0.3000001
v 0.3 0 -0.3000001
v -0.3 0.2999939 -0.3000001
v 0.3 0.2999939 -0.3000001
v 0.3 0.2999939 0.3000001
v -0.3 0.2999939 0.3000001
v 0.1999734 0.1606448 0.3000001
v 2.661347E-05 0.1606448 0.3000001
v 2.661347E-05 0.1606448 0.3400001
v 0.1999734 0.1606448 0.3400001
v 2.661347E-05 0.1906447 0.3000001
v 0.1999734 0.1906447 0.3000001
v 0.1999734 0.1906447 0.3400001
v 2.661347E-05 0.1906447 0.3400001
v 2.661347E-05 0.1906447 0.3400001
v 0.1999734 0.1906447 0.3400001
v 0.1999734 0.1606448 0.3400001
v 2.661347E-05 0.1606448 0.3400001
v 2.661347E-05 0.1606448 0.3000001
v 2.661347E-05 0.1906447 0.3000001
v 2.661347E-05 0.1906447 0.3400001
v 2.661347E-05 0.1606448 0.3400001
v 0.1999734 0.1606448 0.3000001
v 0.1999734 0.1606448 0.3400001
v 0.1999734 0.1906447 0.3400001
v 0.1999734 0.1906447 0.3000001
v 0.3 0 -0.3000001
v -0.3 0 -0.3000001
v -0.3 0 0.3000001
v 0.3 0 0.3000001

vn 0 0 -1
vn 0 0 -1
vn 0 0 -1
vn 0 0 -1
vn -1 0 0
vn -1 0 0
vn -1 0 0
vn -1 0 0
vn 0 0 1
vn 0 0 1
vn 0 0 1
vn 0 0 1
vn 1 0 0
vn 1 0 0
vn 1 0 0
vn 1 0 0
vn 0 1 0
vn 0 1 0
vn 0 1 0
vn 0 1 0
vn 0 -1 0
vn 0 -1 0
vn 0 -1 0
vn 0 -1 0
vn 0 1 0
vn 0 1 0
vn 0 1 0
vn 0 1 0
vn 0 0 1
vn 0 0 1
vn 0 0 1
vn 0 0 1
vn -1 0 0
vn -1 0 0
vn -1 0 0
vn -1 0 0
vn 1 0 0
vn 1 0 0
vn 1 0 0
vn 1 0 0
vn 0 -1 0
vn 0 -1 0
vn 0 -1 0
vn 0 -1 0

vt 0.7378782 0.6897295
vt 0.7378783 0.651262
vt 0.7186449 0.651262
vt 0.7186449 0.6897295
vt 0.7186449 0.7089627
vt 0.7186449 0.6897295
vt 0.6801774 0.6897295
vt 0.6801774 0.7089627
vt 0.660944 0.6897295
vt 0.6801774 0.6897295
vt 0.6801774 0.651262
vt 0.6609441 0.651262
vt 0.6801774 0.6320286
vt 0.6801774 0.651262
vt 0.7186449 0.651262
vt 0.7186449 0.6320286
vt 0.7186449 0.6897295
vt 0.7186449 0.651262
vt 0.6801774 0.651262
vt 0.6801774 0.6897295
vt 0.4580733 0.6686184
vt 0.4396734 0.6686184
vt 0.4396734 0.6722994
vt 0.4580733 0.6722994
vt 0.4396734 0.6787411
vt 0.4580733 0.6787411
vt 0.4580733 0.6750601
vt 0.4396734 0.6750601
vt 0.4396734 0.6750601
vt 0.4580733 0.6750601
vt 0.4580733 0.6722994
vt 0.4396734 0.6722994
vt 0.4359923 0.6722994
vt 0.4359923 0.6750601
vt 0.4396734 0.6750601
vt 0.4396734 0.6722994
vt 0.4617542 0.6722994
vt 0.4580733 0.6722994
vt 0.4580733 0.6750601
vt 0.4617542 0.6750601
vt 0.6994116 0.7476835
vt 0.6994115 0.7092161
vt 0.660944 0.7092161
vt 0.660944 0.7476835

usemtl LOW-POLY-COLORS
usemap LOW-POLY-COLORS
f 2/2/2 1/1/1 3/3/3
f 3/3/3 1/1/1 4/4/4
f 6/6/6 5/5/5 7/7/7
f 7/7/7 5/5/5 8/8/8
f 10/10/10 9/9/9 11/11/11
f 11/11/11 9/9/9 12/12/12
f 14/14/14 13/13/13 15/15/15
f 15/15/15 13/13/13 16/16/16
f 18/18/18 17/17/17 19/19/19
f 19/19/19 17/17/17 20/20/20
f 22/22/22 21/21/21 23/23/23
f 23/23/23 21/21/21 24/24/24
f 26/26/26 25/25/25 27/27/27
f 27/27/27 25/25/25 28/28/28
f 30/30/30 29/29/29 31/31/31
f 31/31/31 29/29/29 32/32/32
f 34/34/34 33/33/33 35/35/35
f 35/35/35 33/33/33 36/36/36
f 38/38/38 37/37/37 39/39/39
f 39/39/39 37/37/37 40/40/40
f 42/42/42 41/41/41 43/43/43
f 43/43/43 41/41/41 44/44/44
