mtllib ./cabinet-kitchen_6.mtl
g cabinet-kitchen
v -0.3 0.5165015 0.250003
v -0.3 0.8700002 0.250003
v -0.3 0.8700002 0.3000001
v -0.3 0.5165015 0.3000001
v -0.3 0.8700002 0.3000001
v -0.3 0.9200002 0.3000001
v 0.3 0.9200002 0.3000001
v 0.3 0.8700002 0.3000001
v -0.3 0.15 0.3000001
v 0.3 0.15 0.3000001
v 0.3 0.15 0.250003
v -0.3 0.15 0.250003
v -0.3 0.15 -0.3000001
v -0.3 0 -0.3000001
v 0.3 0 -0.3000001
v 0.3 0.15 -0.3000001
v -0.3 0.5165015 0.3000001
v -0.3 0.8700002 0.3000001
v 0.3 0.8700002 0.3000001
v 0.3 0.5165015 0.3000001
v -0.3 0.5114987 -0.3000001
v -0.3 0.15 -0.3000001
v 0.3 0.15 -0.3000001
v 0.3 0.5114987 -0.3000001
v -0.3 0.5165015 -0.3000001
v 0.3 0.5165015 -0.3000001
v -0.3 0.8700002 -0.3000001
v 0.3 0.8700002 -0.3000001
v 0.3 0.5114987 0.250003
v 0.3 0.15 0.3000001
v 0.3 0.5114987 0.3000001
v 0.3 0.15 0.250003
v 0.3 0.5114987 -0.3000001
v 0.3 0.15 -0.3000001
v 0.3 0.5165015 0.250003
v 0.3 0.5165015 -0.3000001
v 0.3 0.8700002 -0.3000001
v 0.3 0.5165015 -0.3000001
v 0.3 0.8700002 0.250003
v -0.3 0.15 0.250003
v 0.3 0.15 0.250003
v 0.3 0 0.250003
v -0.3 0 0.250003
v -0.3 0.9200002 0.250003
v 0.3 0.9200002 0.3000001
v -0.3 0.9200002 0.3000001
v 0.3 0.9200002 0.250003
v -0.3 0.9200002 -0.3000001
v 0.3 0.9200002 -0.3000001
v 0.3 0.8700002 0.250003
v 0.3 0.9200002 -0.3000001
v 0.3 0.8700002 -0.3000001
v 0.3 0.9200002 0.250003
v 0.3 0.8700002 0.3000001
v 0.3 0.9200002 0.3000001
v 0.3 0.8700002 -0.3000001
v 0.3 0.9200002 -0.3000001
v -0.3 0.9200002 -0.3000001
v -0.3 0.8700002 -0.3000001
v -0.3 0.8700002 0.250003
v -0.3 0.9200002 0.3000001
v -0.3 0.8700002 0.3000001
v -0.3 0.9200002 0.250003
v -0.3 0.8700002 -0.3000001
v -0.3 0.9200002 -0.3000001
v 0.09997338 0.7806511 0.3000001
v -0.09997338 0.7806511 0.3000001
v -0.09997338 0.7806511 0.3400001
v 0.09997338 0.7806511 0.3400001
v -0.09997338 0.8106511 0.3000001
v 0.09997338 0.8106511 0.3000001
v 0.09997338 0.8106511 0.3400001
v -0.09997338 0.8106511 0.3400001
v -0.09997338 0.8106511 0.3400001
v 0.09997338 0.8106511 0.3400001
v 0.09997338 0.7806511 0.3400001
v -0.09997338 0.7806511 0.3400001
v -0.09997338 0.7806511 0.3000001
v -0.09997338 0.8106511 0.3000001
v -0.09997338 0.8106511 0.3400001
v -0.09997338 0.7806511 0.3400001
v 0.09997338 0.7806511 0.3000001
v 0.09997338 0.7806511 0.3400001
v 0.09997338 0.8106511 0.3400001
v 0.09997338 0.8106511 0.3000001
v 0.09997338 0.4206511 0.3000001
v -0.09997338 0.4206511 0.3000001
v -0.09997338 0.4206511 0.3400001
v 0.09997338 0.4206511 0.3400001
v -0.09997338 0.4506511 0.3000001
v 0.09997338 0.4506511 0.3000001
v 0.09997338 0.4506511 0.3400001
v -0.09997338 0.4506511 0.3400001
v -0.09997338 0.4506511 0.3400001
v 0.09997338 0.4506511 0.3400001
v 0.09997338 0.4206511 0.3400001
v -0.09997338 0.4206511 0.3400001
v -0.09997338 0.4206511 0.3000001
v -0.09997338 0.4506511 0.3000001
v -0.09997338 0.4506511 0.3400001
v -0.09997338 0.4206511 0.3400001
v 0.09997338 0.4206511 0.3000001
v 0.09997338 0.4206511 0.3400001
v 0.09997338 0.4506511 0.3400001
v 0.09997338 0.4506511 0.3000001
v -0.3 0.15 0.3000001
v -0.3 0.5114987 0.3000001
v 0.3 0.5114987 0.3000001
v 0.3 0.15 0.3000001
v -0.3 0.15 0.250003
v -0.3 0.5114987 0.3000001
v -0.3 0.15 0.3000001
v -0.3 0.5114987 0.250003
v -0.3 0.15 -0.3000001
v -0.3 0.5114987 -0.3000001
v -0.3 0.5165015 -0.3000001
v -0.3 0.5165015 0.250003
v -0.3 0.5165015 -0.3000001
v -0.3 0.8700002 0.250003
v -0.3 0.8700002 -0.3000001
v 0.3 0.8700002 0.250003
v 0.3 0.5165015 0.250003
v 0.3 0.5165015 0.3000001
v 0.3 0.8700002 0.3000001
v 0.3 0.5165015 0.3000001
v 0.3 0.5165015 0.250003
v -0.3 0.5165015 0.250003
v -0.3 0.5165015 0.3000001
v -0.3 0.5165015 0.250003
v 0.3 0.5165015 0.250003
v 0.3 0.5114987 0.250003
v -0.3 0.5114987 0.250003
v -0.3 0.5114987 0.3000001
v -0.3 0.5114987 0.250003
v 0.3 0.5114987 0.250003
v 0.3 0.5114987 0.3000001
v -0.3 0 -0.3000001
v -0.3 0.15 -0.3000001
v -0.3 0.15 0.250003
v -0.3 0 0.250003
v -0.3 0 -0.3000001
v -0.3 0 0.250003
v 0.3 0 0.250003
v 0.3 0 -0.3000001
v 0.3 0.15 -0.3000001
v 0.3 0 -0.3000001
v 0.3 0 0.250003
v 0.3 0.15 0.250003

vn -1 0 0
vn -1 0 0
vn -1 0 0
vn -1 0 0
vn 0 0 1
vn 0 0 1
vn 0 0 1
vn 0 0 1
vn 0 -1 0
vn 0 -1 0
vn 0 -1 0
vn 0 -1 0
vn 0 0 -1
vn 0 0 -1
vn 0 0 -1
vn 0 0 -1
vn 0 0 1
vn 0 0 1
vn 0 0 1
vn 0 0 1
vn 0 0 -1
vn 0 0 -1
vn 0 0 -1
vn 0 0 -1
vn 0 0 -1
vn 0 0 -1
vn 0 0 -1
vn 0 0 -1
vn 1 0 0
vn 1 0 0
vn 1 0 0
vn 1 0 0
vn 1 0 0
vn 1 0 0
vn 1 0 0
vn 1 0 0
vn 1 0 0
vn 1 0 0
vn 1 0 0
vn 0 0 1
vn 0 0 1
vn 0 0 1
vn 0 0 1
vn 0 1 0
vn 0 1 0
vn 0 1 0
vn 0 1 0
vn 0 1 0
vn 0 1 0
vn 1 0 0
vn 1 0 0
vn 1 0 0
vn 1 0 0
vn 1 0 0
vn 1 0 0
vn 0 0 -1
vn 0 0 -1
vn 0 0 -1
vn 0 0 -1
vn -1 0 0
vn -1 0 0
vn -1 0 0
vn -1 0 0
vn -1 0 0
vn -1 0 0
vn 0 -1 0
vn 0 -1 0
vn 0 -1 0
vn 0 -1 0
vn 0 1 0
vn 0 1 0
vn 0 1 0
vn 0 1 0
vn 0 0 1
vn 0 0 1
vn 0 0 1
vn 0 0 1
vn -1 0 0
vn -1 0 0
vn -1 0 0
vn -1 0 0
vn 1 0 0
vn 1 0 0
vn 1 0 0
vn 1 0 0
vn 0 -1 0
vn 0 -1 0
vn 0 -1 0
vn 0 -1 0
vn 0 1 0
vn 0 1 0
vn 0 1 0
vn 0 1 0
vn 0 0 1
vn 0 0 1
vn 0 0 1
vn 0 0 1
vn -1 0 0
vn -1 0 0
vn -1 0 0
vn -1 0 0
vn 1 0 0
vn 1 0 0
vn 1 0 0
vn 1 0 0
vn 0 0 1
vn 0 0 1
vn 0 0 1
vn 0 0 1
vn -1 0 0
vn -1 0 0
vn -1 0 0
vn -1 0 0
vn -1 0 0
vn -1 0 0
vn -1 0 0
vn -1 0 0
vn -1 0 0
vn -1 0 0
vn -1 0 0
vn 1 0 0
vn 1 0 0
vn 1 0 0
vn 1 0 0
vn 0 -1 0
vn 0 -1 0
vn 0 -1 0
vn 0 -1 0
vn 0 0 1
vn 0 0 1
vn 0 0 1
vn 0 0 1
vn 0 1 0
vn 0 1 0
vn 0 1 0
vn 0 1 0
vn -1 0 0
vn -1 0 0
vn -1 0 0
vn -1 0 0
vn 0 -1 0
vn 0 -1 0
vn 0 -1 0
vn 0 -1 0
vn 1 0 0
vn 1 0 0
vn 1 0 0
vn 1 0 0

vt 0.6863503 0.6578332
vt 0.6814207 0.6745574
vt 0.6843792 0.6754029
vt 0.6879328 0.6596369
vt 0.1871497 0.6648775
vt 0.1871497 0.6669738
vt 0.212305 0.6669738
vt 0.212305 0.6648775
vt 0.6749154 0.7074676
vt 0.7000707 0.7074676
vt 0.7000707 0.7053714
vt 0.6749154 0.7053714
vt 0.1533145 0.6648775
vt 0.1533145 0.6711663
vt 0.1784699 0.6711663
vt 0.1784699 0.6648775
vt 0.6879328 0.6596369
vt 0.6843792 0.6754029
vt 0.7136458 0.6754342
vt 0.7095426 0.661312
vt 0.6606252 0.6582376
vt 0.6597774 0.6436152
vt 0.6368877 0.6449048
vt 0.6376647 0.6586958
vt 0.6606348 0.6586198
vt 0.6376749 0.659095
vt 0.6602073 0.672048
vt 0.6378863 0.672221
vt 0.7113824 0.6585038
vt 0.7133971 0.640672
vt 0.7098028 0.6567037
vt 0.7163413 0.6415069
vt 0.7365781 0.6573252
vt 0.7374047 0.64408
vt 0.7113848 0.6589001
vt 0.7365934 0.6576762
vt 0.7382598 0.6723557
vt 0.7365934 0.6576762
vt 0.7154201 0.6749485
vt 0.1533145 0.7005143
vt 0.1784699 0.7005143
vt 0.1784699 0.6942255
vt 0.1533145 0.6942255
vt 0.1871497 0.6690699
vt 0.212305 0.6669738
vt 0.1871497 0.6669738
vt 0.212305 0.6690699
vt 0.1871497 0.6921291
vt 0.212305 0.6921291
vt 0.2144013 0.6690699
vt 0.212305 0.6921291
vt 0.2144013 0.6921291
vt 0.212305 0.6690699
vt 0.2144013 0.6669738
vt 0.212305 0.6669738
vt 0.212305 0.6942254
vt 0.212305 0.6921291
vt 0.1871497 0.6921291
vt 0.1871497 0.6942254
vt 0.1850534 0.6690699
vt 0.1871497 0.6669738
vt 0.1850534 0.6669738
vt 0.1871497 0.6690699
vt 0.1850534 0.6921291
vt 0.1871497 0.6921291
vt 0.4348967 0.6822875
vt 0.424072 0.6822875
vt 0.424072 0.6844531
vt 0.4348967 0.6844531
vt 0.424072 0.6882427
vt 0.4348967 0.6882427
vt 0.4348967 0.6860771
vt 0.424072 0.6860771
vt 0.424072 0.6860771
vt 0.4348967 0.6860771
vt 0.4348967 0.6844531
vt 0.424072 0.6844531
vt 0.4219064 0.6844531
vt 0.4219064 0.6860771
vt 0.424072 0.6860771
vt 0.424072 0.6844531
vt 0.4370623 0.6844531
vt 0.4348967 0.6844531
vt 0.4348967 0.6860771
vt 0.4370623 0.6860771
vt 0.4193603 0.6822875
vt 0.4085355 0.6822875
vt 0.4085355 0.6844531
vt 0.4193603 0.6844531
vt 0.4085355 0.6882427
vt 0.4193603 0.6882427
vt 0.4193603 0.6860771
vt 0.4085355 0.6860771
vt 0.4085355 0.6860771
vt 0.4193603 0.6860771
vt 0.4193603 0.6844531
vt 0.4085355 0.6844531
vt 0.40637 0.6844531
vt 0.40637 0.6860771
vt 0.4085355 0.6860771
vt 0.4085355 0.6844531
vt 0.4215259 0.6844531
vt 0.4193603 0.6844531
vt 0.4193603 0.6860771
vt 0.4215259 0.6860771
vt 0.6840675 0.640672
vt 0.6881872 0.6550267
vt 0.7098028 0.6567037
vt 0.7133971 0.640672
vt 0.6823058 0.6411501
vt 0.6881872 0.6550267
vt 0.6840675 0.640672
vt 0.6863515 0.6574343
vt 0.6597774 0.6436152
vt 0.6606252 0.6582376
vt 0.6606348 0.6586198
vt 0.6863503 0.6578332
vt 0.6606348 0.6586198
vt 0.6814207 0.6745574
vt 0.6602073 0.672048
vt 0.7154201 0.6749485
vt 0.7113848 0.6589001
vt 0.7095426 0.661312
vt 0.7136458 0.6754342
vt 0.7095426 0.661312
vt 0.7113848 0.6589001
vt 0.6863503 0.6578332
vt 0.6879328 0.6596369
vt 0.6863503 0.6578332
vt 0.7113848 0.6589001
vt 0.7113824 0.6585038
vt 0.6863515 0.6574343
vt 0.6881872 0.6550267
vt 0.6863515 0.6574343
vt 0.7113824 0.6585038
vt 0.7098028 0.6567037
vt 0.1533145 0.6711663
vt 0.1470257 0.6711663
vt 0.1470257 0.6942255
vt 0.1533145 0.6942255
vt 0.1533145 0.6711663
vt 0.1533145 0.6942255
vt 0.1784699 0.6942255
vt 0.1784699 0.6711663
vt 0.1847587 0.6711663
vt 0.1784699 0.6711663
vt 0.1784699 0.6942255
vt 0.1847587 0.6942255

usemtl LOW-POLY-COLORS
usemap LOW-POLY-COLORS
f 2/2/2 1/1/1 3/3/3
f 3/3/3 1/1/1 4/4/4
f 6/6/6 5/5/5 7/7/7
f 7/7/7 5/5/5 8/8/8
f 10/10/10 9/9/9 11/11/11
f 11/11/11 9/9/9 12/12/12
f 14/14/14 13/13/13 15/15/15
f 15/15/15 13/13/13 16/16/16
f 18/18/18 17/17/17 19/19/19
f 19/19/19 17/17/17 20/20/20
f 22/22/22 21/21/21 23/23/23
f 23/23/23 21/21/21 24/24/24
f 21/21/21 25/25/25 24/24/24
f 24/24/24 25/25/25 26/26/26
f 25/25/25 27/27/27 26/26/26
f 26/26/26 27/27/27 28/28/28
f 30/30/30 29/29/29 31/31/31
f 32/32/32 29/29/29 30/30/30
f 32/32/32 33/33/33 29/29/29
f 34/34/34 33/33/33 32/32/32
f 33/33/33 35/35/35 29/29/29
f 36/36/36 35/35/35 33/33/33
f 38/38/38 37/37/37 35/35/35
f 35/35/35 37/37/37 39/39/39
f 41/41/41 40/40/40 42/42/42
f 42/42/42 40/40/40 43/43/43
f 45/45/45 44/44/44 46/46/46
f 47/47/47 44/44/44 45/45/45
f 47/47/47 48/48/48 44/44/44
f 49/49/49 48/48/48 47/47/47
f 51/51/51 50/50/50 52/52/52
f 53/53/53 50/50/50 51/51/51
f 53/53/53 54/54/54 50/50/50
f 55/55/55 54/54/54 53/53/53
f 57/57/57 56/56/56 58/58/58
f 58/58/58 56/56/56 59/59/59
f 61/61/61 60/60/60 62/62/62
f 63/63/63 60/60/60 61/61/61
f 63/63/63 64/64/64 60/60/60
f 65/65/65 64/64/64 63/63/63
f 67/67/67 66/66/66 68/68/68
f 68/68/68 66/66/66 69/69/69
f 71/71/71 70/70/70 72/72/72
f 72/72/72 70/70/70 73/73/73
f 75/75/75 74/74/74 76/76/76
f 76/76/76 74/74/74 77/77/77
f 79/79/79 78/78/78 80/80/80
f 80/80/80 78/78/78 81/81/81
f 83/83/83 82/82/82 84/84/84
f 84/84/84 82/82/82 85/85/85
f 87/87/87 86/86/86 88/88/88
f 88/88/88 86/86/86 89/89/89
f 91/91/91 90/90/90 92/92/92
f 92/92/92 90/90/90 93/93/93
f 95/95/95 94/94/94 96/96/96
f 96/96/96 94/94/94 97/97/97
f 99/99/99 98/98/98 100/100/100
f 100/100/100 98/98/98 101/101/101
f 103/103/103 102/102/102 104/104/104
f 104/104/104 102/102/102 105/105/105
f 107/107/107 106/106/106 108/108/108
f 108/108/108 106/106/106 109/109/109
f 111/111/111 110/110/110 112/112/112
f 113/113/113 110/110/110 111/111/111
f 113/113/113 114/114/114 110/110/110
f 115/115/115 114/114/114 113/113/113
f 115/115/115 113/113/113 116/116/116
f 116/116/116 113/113/113 117/117/117
f 119/119/119 118/118/118 117/117/117
f 120/120/120 118/118/118 119/119/119
f 122/122/122 121/121/121 123/123/123
f 123/123/123 121/121/121 124/124/124
f 126/126/126 125/125/125 127/127/127
f 127/127/127 125/125/125 128/128/128
f 130/130/130 129/129/129 131/131/131
f 131/131/131 129/129/129 132/132/132
f 134/134/134 133/133/133 135/135/135
f 135/135/135 133/133/133 136/136/136
f 138/138/138 137/137/137 139/139/139
f 139/139/139 137/137/137 140/140/140
f 142/142/142 141/141/141 143/143/143
f 143/143/143 141/141/141 144/144/144
f 146/146/146 145/145/145 147/147/147
f 147/147/147 145/145/145 148/148/148
