mtllib ./cabinet-kitchen-large_7.mtl
g cabinet-kitchen-large
v 0.5006496 0.15 0.250003
v 0.5006496 0.15 0.3000001
v 0.5006496 0.392591 0.3000001
v 0.5006496 0.392591 0.250003
v 0.5006496 0.15 -0.3000001
v 0.5006496 0.392591 -0.3000001
v 0.5006496 0.397591 0.250003
v 0.5006496 0.397591 -0.3000001
v 0.5006496 0.6279275 0.250003
v 0.5006496 0.6279274 -0.3000001
v 0.5006496 0.6279274 0.3000001
v 0.5006496 0.397591 0.3000001
v 0.5006496 0.6329275 0.250003
v 0.5006496 0.6329274 -0.3000001
v 0.5006496 0.8700002 0.250003
v 0.5006496 0.8700002 -0.3000001
v -0.5006496 0.8700002 0.3000001
v -0.5006496 0.9200002 0.3000001
v 0.5006496 0.9200002 0.3000001
v 0.5006496 0.8700002 0.3000001
v -0.5006496 0.15 0.3000001
v 0.5006496 0.15 0.3000001
v 0.5006496 0.15 0.250003
v -0.5006496 0.15 0.250003
v -0.5006496 0.15 -0.3000001
v -0.5006496 0 -0.3000001
v 0.5006496 0 -0.3000001
v 0.5006496 0.15 -0.3000001
v -0.5006496 0.6329274 0.250003
v -0.5006496 0.8700002 -0.3000001
v -0.5006496 0.8700002 0.250003
v -0.5006496 0.6329274 -0.3000001
v -0.5006496 0.6279274 0.250003
v -0.5006496 0.6279274 -0.3000001
v -0.5006496 0.397591 0.250003
v -0.5006496 0.397591 -0.3000001
v -0.5006496 0.397591 0.3000001
v -0.5006496 0.6279274 0.3000001
v -0.5006496 0.392591 0.250003
v -0.5006496 0.392591 -0.3000001
v -0.5006496 0.15 0.250003
v -0.5006496 0.15 -0.3000001
v -0.5006496 0.15 0.3000001
v -0.5006496 0.15 0.250003
v -0.5006496 0.392591 0.250003
v -0.5006496 0.392591 0.3000001
v -0.5006496 0.15 0.250003
v 0.5006496 0.15 0.250003
v 0.5006496 0 0.250003
v -0.5006496 0 0.250003
v -0.5006496 0.9200002 0.250003
v 0.5006496 0.9200002 0.3000001
v -0.5006496 0.9200002 0.3000001
v 0.5006496 0.9200002 0.250003
v -0.5006496 0.9200002 -0.3000001
v 0.5006496 0.9200002 -0.3000001
v 0.5006496 0.8700002 0.250003
v 0.5006496 0.9200002 -0.3000001
v 0.5006496 0.8700002 -0.3000001
v 0.5006496 0.9200002 0.250003
v 0.5006496 0.8700002 0.3000001
v 0.5006496 0.9200002 0.3000001
v 0.5006496 0.8700002 -0.3000001
v 0.5006496 0.9200002 -0.3000001
v -0.5006496 0.9200002 -0.3000001
v -0.5006496 0.8700002 -0.3000001
v -0.5006496 0.8700002 0.250003
v -0.5006496 0.9200002 0.3000001
v -0.5006496 0.8700002 0.3000001
v -0.5006496 0.9200002 0.250003
v -0.5006496 0.8700002 -0.3000001
v -0.5006496 0.9200002 -0.3000001
v 0.09997338 0.7806511 0.3000001
v -0.09997338 0.7806511 0.3000001
v -0.09997338 0.7806511 0.3400001
v 0.09997338 0.7806511 0.3400001
v -0.09997338 0.8106511 0.3000001
v 0.09997338 0.8106511 0.3000001
v 0.09997338 0.8106511 0.3400001
v -0.09997338 0.8106511 0.3400001
v -0.09997338 0.8106511 0.3400001
v 0.09997338 0.8106511 0.3400001
v 0.09997338 0.7806511 0.3400001
v -0.09997338 0.7806511 0.3400001
v -0.09997338 0.7806511 0.3000001
v -0.09997338 0.8106511 0.3000001
v -0.09997338 0.8106511 0.3400001
v -0.09997338 0.7806511 0.3400001
v 0.09997338 0.7806511 0.3000001
v 0.09997338 0.7806511 0.3400001
v 0.09997338 0.8106511 0.3400001
v 0.09997338 0.8106511 0.3000001
v 0.09997338 0.5379274 0.3000001
v -0.09997338 0.5379274 0.3000001
v -0.09997338 0.5379274 0.3400001
v 0.09997338 0.5379274 0.3400001
v -0.09997338 0.5679274 0.3000001
v 0.09997338 0.5679274 0.3000001
v 0.09997338 0.5679274 0.3400001
v -0.09997338 0.5679274 0.3400001
v -0.09997338 0.5679274 0.3400001
v 0.09997338 0.5679274 0.3400001
v 0.09997338 0.5379274 0.3400001
v -0.09997338 0.5379274 0.3400001
v -0.09997338 0.5379274 0.3000001
v -0.09997338 0.5679274 0.3000001
v -0.09997338 0.5679274 0.3400001
v -0.09997338 0.5379274 0.3400001
v 0.09997338 0.5379274 0.3000001
v 0.09997338 0.5379274 0.3400001
v 0.09997338 0.5679274 0.3400001
v 0.09997338 0.5679274 0.3000001
v 0.5006496 0.397591 0.3000001
v -0.5006496 0.397591 0.3000001
v -0.5006496 0.6279274 0.3000001
v 0.5006496 0.6279274 0.3000001
v -0.5006496 0.6329274 -0.3000001
v 0.5006496 0.8700002 -0.3000001
v -0.5006496 0.8700002 -0.3000001
v 0.5006496 0.6329274 -0.3000001
v -0.5006496 0.6279274 -0.3000001
v 0.5006496 0.6279274 -0.3000001
v -0.5006496 0.397591 -0.3000001
v 0.5006496 0.397591 -0.3000001
v -0.5006496 0.392591 -0.3000001
v 0.5006496 0.392591 -0.3000001
v -0.5006496 0.15 -0.3000001
v 0.5006496 0.15 -0.3000001
v -0.5006496 0.6329274 0.3000001
v -0.5006496 0.6329274 0.250003
v -0.5006496 0.8700002 0.250003
v -0.5006496 0.8700002 0.3000001
v 0.5006496 0.6329274 0.3000001
v -0.5006496 0.6329274 0.3000001
v -0.5006496 0.8700002 0.3000001
v 0.5006496 0.8700002 0.3000001
v 0.5006496 0.15 0.3000001
v -0.5006496 0.15 0.3000001
v -0.5006496 0.392591 0.3000001
v 0.5006496 0.392591 0.3000001
v -0.5006496 0 -0.3000001
v -0.5006496 0.15 -0.3000001
v -0.5006496 0.15 0.250003
v -0.5006496 0 0.250003
v -0.5006496 0 -0.3000001
v -0.5006496 0 0.250003
v 0.5006496 0 0.250003
v 0.5006496 0 -0.3000001
v 0.5006496 0.15 -0.3000001
v 0.5006496 0 -0.3000001
v 0.5006496 0 0.250003
v 0.5006496 0.15 0.250003
v 0.5006496 0.6329275 0.250003
v 0.5006496 0.6329274 0.3000001
v 0.5006496 0.8700002 0.3000001
v 0.5006496 0.8700002 0.250003
v 0.09997338 0.302591 0.3000001
v -0.09997338 0.302591 0.3000001
v -0.09997338 0.302591 0.3400001
v 0.09997338 0.302591 0.3400001
v -0.09997338 0.332591 0.3000001
v 0.09997338 0.332591 0.3000001
v 0.09997338 0.332591 0.3400001
v -0.09997338 0.332591 0.3400001
v -0.09997338 0.332591 0.3400001
v 0.09997338 0.332591 0.3400001
v 0.09997338 0.302591 0.3400001
v -0.09997338 0.302591 0.3400001
v -0.09997338 0.302591 0.3000001
v -0.09997338 0.332591 0.3000001
v -0.09997338 0.332591 0.3400001
v -0.09997338 0.302591 0.3400001
v 0.09997338 0.302591 0.3000001
v 0.09997338 0.302591 0.3400001
v 0.09997338 0.332591 0.3400001
v 0.09997338 0.332591 0.3000001
v 0.5006496 0.392591 0.3000001
v -0.5006496 0.392591 0.3000001
v -0.5006496 0.392591 0.250003
v 0.5006496 0.392591 0.250003
v 0.5006496 0.6279274 0.3000001
v -0.5006496 0.6279274 0.3000001
v -0.5006496 0.6279274 0.250003
v 0.5006496 0.6279275 0.250003
v 0.5006496 0.6329275 0.250003
v -0.5006496 0.6329274 0.250003
v -0.5006496 0.6329274 0.3000001
v 0.5006496 0.6329274 0.3000001
v -0.5006496 0.6329274 0.250003
v 0.5006496 0.6329275 0.250003
v 0.5006496 0.6279275 0.250003
v -0.5006496 0.6279274 0.250003
v -0.5006496 0.397591 0.3000001
v 0.5006496 0.397591 0.3000001
v 0.5006496 0.397591 0.250003
v -0.5006496 0.397591 0.250003
v -0.5006496 0.397591 0.250003
v 0.5006496 0.397591 0.250003
v 0.5006496 0.392591 0.250003
v -0.5006496 0.392591 0.250003

vn 1 0 0
vn 1 0 0
vn 1 0 0
vn 1 0 0
vn 1 0 0
vn 1 0 0
vn 1 0 0
vn 1 0 0
vn 1 0 0
vn 1 0 0
vn 1 0 0
vn 1 0 0
vn 1 0 0
vn 1 0 0
vn 1 0 0
vn 1 0 0
vn 0 0 1
vn 0 0 1
vn 0 0 1
vn 0 0 1
vn 0 -1 0
vn 0 -1 0
vn 0 -1 0
vn 0 -1 0
vn 0 0 -1
vn 0 0 -1
vn 0 0 -1
vn 0 0 -1
vn -1 0 0
vn -1 0 0
vn -1 0 0
vn -1 0 0
vn -1 0 0
vn -1 0 0
vn -1 0 0
vn -1 0 0
vn -1 0 0
vn -1 0 0
vn -1 0 0
vn -1 0 0
vn -1 0 0
vn -1 0 0
vn -1 0 0
vn -1 0 0
vn -1 0 0
vn -1 0 0
vn 0 0 1
vn 0 0 1
vn 0 0 1
vn 0 0 1
vn 0 1 0
vn 0 1 0
vn 0 1 0
vn 0 1 0
vn 0 1 0
vn 0 1 0
vn 1 0 0
vn 1 0 0
vn 1 0 0
vn 1 0 0
vn 1 0 0
vn 1 0 0
vn 0 0 -1
vn 0 0 -1
vn 0 0 -1
vn 0 0 -1
vn -1 0 0
vn -1 0 0
vn -1 0 0
vn -1 0 0
vn -1 0 0
vn -1 0 0
vn 0 -1 0
vn 0 -1 0
vn 0 -1 0
vn 0 -1 0
vn 0 1 0
vn 0 1 0
vn 0 1 0
vn 0 1 0
vn 0 0 1
vn 0 0 1
vn 0 0 1
vn 0 0 1
vn -1 0 0
vn -1 0 0
vn -1 0 0
vn -1 0 0
vn 1 0 0
vn 1 0 0
vn 1 0 0
vn 1 0 0
vn 0 -1 0
vn 0 -1 0
vn 0 -1 0
vn 0 -1 0
vn 0 1 0
vn 0 1 0
vn 0 1 0
vn 0 1 0
vn 0 0 1
vn 0 0 1
vn 0 0 1
vn 0 0 1
vn -1 0 0
vn -1 0 0
vn -1 0 0
vn -1 0 0
vn 1 0 0
vn 1 0 0
vn 1 0 0
vn 1 0 0
vn 0 0 1
vn 0 0 1
vn 0 0 1
vn 0 0 1
vn 0 0 -1
vn 0 0 -1
vn 0 0 -1
vn 0 0 -1
vn 0 0 -1
vn 0 0 -1
vn 0 0 -1
vn 0 0 -1
vn 0 0 -1
vn 0 0 -1
vn 0 0 -1
vn 0 0 -1
vn -1 0 0
vn -1 0 0
vn -1 0 0
vn -1 0 0
vn 0 0 1
vn 0 0 1
vn 0 0 1
vn 0 0 1
vn 0 0 1
vn 0 0 1
vn 0 0 1
vn 0 0 1
vn -1 0 0
vn -1 0 0
vn -1 0 0
vn -1 0 0
vn 0 -1 0
vn 0 -1 0
vn 0 -1 0
vn 0 -1 0
vn 1 0 0
vn 1 0 0
vn 1 0 0
vn 1 0 0
vn 1 0 0
vn 1 0 0
vn 1 0 0
vn 1 0 0
vn 0 -1 0
vn 0 -1 0
vn 0 -1 0
vn 0 -1 0
vn 0 1 0
vn 0 1 0
vn 0 1 0
vn 0 1 0
vn 0 0 1
vn 0 0 1
vn 0 0 1
vn 0 0 1
vn -1 0 0
vn -1 0 0
vn -1 0 0
vn -1 0 0
vn 1 0 0
vn 1 0 0
vn 1 0 0
vn 1 0 0
vn 0 1 5.960813E-07
vn 0 1 5.960813E-07
vn 0 1 5.960813E-07
vn 0 1 5.960813E-07
vn 0 1 5.960813E-07
vn 0 1 5.960813E-07
vn 0 1 5.960813E-07
vn 0 1 5.960813E-07
vn 0 -1 -5.960813E-07
vn 0 -1 -5.960813E-07
vn 0 -1 -5.960813E-07
vn 0 -1 -5.960813E-07
vn 0 0 1
vn 0 0 1
vn 0 0 1
vn 0 0 1
vn 0 -1 0
vn 0 -1 0
vn 0 -1 0
vn 0 -1 0
vn 0 0 1
vn 0 0 1
vn 0 0 1
vn 0 0 1

vt 0.8407937 0.6373451
vt 0.8390502 0.636788
vt 0.8357614 0.6460375
vt 0.8374676 0.6483213
vt 0.8659828 0.639195
vt 0.8651668 0.6503052
vt 0.8374542 0.6488184
vt 0.8651386 0.6506906
vt 0.8384098 0.6613394
vt 0.8651446 0.6597703
vt 0.8354179 0.6590694
vt 0.8358369 0.6503124
vt 0.838428 0.661824
vt 0.8651656 0.6601427
vt 0.8428195 0.6728612
vt 0.8662133 0.6689835
vt 0.3136236 0.6558489
vt 0.3136236 0.6579638
vt 0.3559776 0.6579642
vt 0.3559776 0.6558492
vt 0.7990575 0.6367717
vt 0.8390502 0.636788
vt 0.8390509 0.6347911
vt 0.7990583 0.6347748
vt 0.2624095 0.6558489
vt 0.2624095 0.6621938
vt 0.3047632 0.6621938
vt 0.3047632 0.6558489
vt 0.8016144 0.6626036
vt 0.7731058 0.6714989
vt 0.7983577 0.6733451
vt 0.7739015 0.6606144
vt 0.8016278 0.6621063
vt 0.7739297 0.6602288
vt 0.8006722 0.6495885
vt 0.7739283 0.6511402
vt 0.8036635 0.6518581
vt 0.8032447 0.6606126
vt 0.8006541 0.6491039
vt 0.7739074 0.6507676
vt 0.7961826 0.637813
vt 0.7728291 0.641714
vt 0.7990575 0.6367717
vt 0.7961826 0.637813
vt 0.8006541 0.6491039
vt 0.8020779 0.6474427
vt 0.2624094 0.691803
vt 0.3047632 0.691803
vt 0.3047632 0.6854582
vt 0.2624095 0.6854582
vt 0.3136236 0.6600786
vt 0.3559776 0.6579642
vt 0.3136236 0.6579638
vt 0.3559776 0.660079
vt 0.3136235 0.6833432
vt 0.3559773 0.6833433
vt 0.3580925 0.660079
vt 0.3559773 0.6833433
vt 0.3580923 0.6833433
vt 0.3559776 0.660079
vt 0.3580925 0.6579642
vt 0.3559776 0.6579642
vt 0.3559773 0.6854582
vt 0.3559773 0.6833433
vt 0.3136235 0.6833432
vt 0.3136235 0.6854581
vt 0.3115087 0.6600786
vt 0.3136236 0.6579638
vt 0.3115087 0.6579638
vt 0.3136236 0.6600786
vt 0.3115086 0.6833432
vt 0.3136235 0.6833432
vt 0.4064167 0.7168114
vt 0.3979593 0.7168114
vt 0.3979593 0.7185034
vt 0.4064167 0.7185034
vt 0.3979592 0.7214643
vt 0.4064167 0.7214643
vt 0.4064167 0.7197723
vt 0.3979593 0.7197723
vt 0.3979593 0.7197723
vt 0.4064167 0.7197723
vt 0.4064167 0.7185034
vt 0.3979593 0.7185034
vt 0.3962673 0.7185034
vt 0.3962673 0.7197723
vt 0.3979593 0.7197723
vt 0.3979593 0.7185034
vt 0.4081087 0.7185034
vt 0.4064167 0.7185034
vt 0.4064167 0.7197723
vt 0.4081087 0.7197723
vt 0.4186587 0.7168114
vt 0.4102012 0.7168114
vt 0.4102012 0.7185034
vt 0.4186587 0.7185034
vt 0.4102012 0.7214643
vt 0.4186587 0.7214643
vt 0.4186587 0.7197723
vt 0.4102012 0.7197723
vt 0.4102012 0.7197723
vt 0.4186587 0.7197723
vt 0.4186587 0.7185034
vt 0.4102012 0.7185034
vt 0.4085092 0.7185034
vt 0.4085092 0.7197723
vt 0.4102012 0.7197723
vt 0.4102012 0.7185034
vt 0.4203506 0.7185034
vt 0.4186587 0.7185034
vt 0.4186587 0.7197723
vt 0.4203506 0.7197723
vt 0.8358369 0.6503124
vt 0.8036635 0.6518581
vt 0.8032447 0.6606126
vt 0.8354179 0.6590694
vt 0.8282911 0.7141731
vt 0.8699296 0.7043146
vt 0.8282911 0.7043146
vt 0.8699296 0.7141731
vt 0.828282 0.7148997
vt 0.8699206 0.7148997
vt 0.828282 0.7244782
vt 0.8699206 0.7244782
vt 0.828273 0.7252047
vt 0.8699116 0.7252047
vt 0.828273 0.7352928
vt 0.8699116 0.7352928
vt 0.8033206 0.6648871
vt 0.8016144 0.6626036
vt 0.7983577 0.6733451
vt 0.8001028 0.6739042
vt 0.8370056 0.663485
vt 0.8033206 0.6648871
vt 0.8001028 0.6739042
vt 0.83995 0.6739042
vt 0.8390502 0.636788
vt 0.7990575 0.6367717
vt 0.8020779 0.6474427
vt 0.8357614 0.6460375
vt 0.2624095 0.6621938
vt 0.2560647 0.6621938
vt 0.2560647 0.6854582
vt 0.2624095 0.6854582
vt 0.2624095 0.6621938
vt 0.2624095 0.6854582
vt 0.3047632 0.6854582
vt 0.3047632 0.6621938
vt 0.311108 0.6621938
vt 0.3047632 0.6621938
vt 0.3047632 0.6854582
vt 0.311108 0.6854582
vt 0.838428 0.661824
vt 0.8370056 0.663485
vt 0.83995 0.6739042
vt 0.8428195 0.6728612
vt 0.3941748 0.7168114
vt 0.3857173 0.7168114
vt 0.3857173 0.7185034
vt 0.3941748 0.7185034
vt 0.3857173 0.7214643
vt 0.3941748 0.7214643
vt 0.3941748 0.7197723
vt 0.3857173 0.7197723
vt 0.3857173 0.7197723
vt 0.3941748 0.7197723
vt 0.3941748 0.7185034
vt 0.3857173 0.7185034
vt 0.3840254 0.7185034
vt 0.3840254 0.7197723
vt 0.3857173 0.7197723
vt 0.3857173 0.7185034
vt 0.3958668 0.7185034
vt 0.3941748 0.7185034
vt 0.3941748 0.7197723
vt 0.3958668 0.7197723
vt 0.8357614 0.6460375
vt 0.8020779 0.6474427
vt 0.8006541 0.6491039
vt 0.8374676 0.6483213
vt 0.8354179 0.6590694
vt 0.8032447 0.6606126
vt 0.8016278 0.6621063
vt 0.8384098 0.6613394
vt 0.838428 0.661824
vt 0.8016144 0.6626036
vt 0.8033206 0.6648871
vt 0.8370056 0.663485
vt 0.8016144 0.6626036
vt 0.838428 0.661824
vt 0.8384098 0.6613394
vt 0.8016278 0.6621063
vt 0.8036635 0.6518581
vt 0.8358369 0.6503124
vt 0.8374542 0.6488184
vt 0.8006722 0.6495885
vt 0.8006722 0.6495885
vt 0.8374542 0.6488184
vt 0.8374676 0.6483213
vt 0.8006541 0.6491039

usemtl LOW-POLY-COLORS
usemap LOW-POLY-COLORS
f 2/2/2 1/1/1 3/3/3
f 3/3/3 1/1/1 4/4/4
f 1/1/1 5/5/5 4/4/4
f 4/4/4 5/5/5 6/6/6
f 4/4/4 6/6/6 7/7/7
f 7/7/7 6/6/6 8/8/8
f 7/7/7 8/8/8 9/9/9
f 9/9/9 8/8/8 10/10/10
f 11/11/11 7/7/7 9/9/9
f 12/12/12 7/7/7 11/11/11
f 9/9/9 10/10/10 13/13/13
f 13/13/13 10/10/10 14/14/14
f 13/13/13 14/14/14 15/15/15
f 15/15/15 14/14/14 16/16/16
f 18/18/18 17/17/17 19/19/19
f 19/19/19 17/17/17 20/20/20
f 22/22/22 21/21/21 23/23/23
f 23/23/23 21/21/21 24/24/24
f 26/26/26 25/25/25 27/27/27
f 27/27/27 25/25/25 28/28/28
f 30/30/30 29/29/29 31/31/31
f 32/32/32 29/29/29 30/30/30
f 32/32/32 33/33/33 29/29/29
f 34/34/34 33/33/33 32/32/32
f 34/34/34 35/35/35 33/33/33
f 36/36/36 35/35/35 34/34/34
f 35/35/35 37/37/37 33/33/33
f 33/33/33 37/37/37 38/38/38
f 36/36/36 39/39/39 35/35/35
f 40/40/40 39/39/39 36/36/36
f 40/40/40 41/41/41 39/39/39
f 42/42/42 41/41/41 40/40/40
f 44/44/44 43/43/43 45/45/45
f 45/45/45 43/43/43 46/46/46
f 48/48/48 47/47/47 49/49/49
f 49/49/49 47/47/47 50/50/50
f 52/52/52 51/51/51 53/53/53
f 54/54/54 51/51/51 52/52/52
f 54/54/54 55/55/55 51/51/51
f 56/56/56 55/55/55 54/54/54
f 58/58/58 57/57/57 59/59/59
f 60/60/60 57/57/57 58/58/58
f 60/60/60 61/61/61 57/57/57
f 62/62/62 61/61/61 60/60/60
f 64/64/64 63/63/63 65/65/65
f 65/65/65 63/63/63 66/66/66
f 68/68/68 67/67/67 69/69/69
f 70/70/70 67/67/67 68/68/68
f 70/70/70 71/71/71 67/67/67
f 72/72/72 71/71/71 70/70/70
f 74/74/74 73/73/73 75/75/75
f 75/75/75 73/73/73 76/76/76
f 78/78/78 77/77/77 79/79/79
f 79/79/79 77/77/77 80/80/80
f 82/82/82 81/81/81 83/83/83
f 83/83/83 81/81/81 84/84/84
f 86/86/86 85/85/85 87/87/87
f 87/87/87 85/85/85 88/88/88
f 90/90/90 89/89/89 91/91/91
f 91/91/91 89/89/89 92/92/92
f 94/94/94 93/93/93 95/95/95
f 95/95/95 93/93/93 96/96/96
f 98/98/98 97/97/97 99/99/99
f 99/99/99 97/97/97 100/100/100
f 102/102/102 101/101/101 103/103/103
f 103/103/103 101/101/101 104/104/104
f 106/106/106 105/105/105 107/107/107
f 107/107/107 105/105/105 108/108/108
f 110/110/110 109/109/109 111/111/111
f 111/111/111 109/109/109 112/112/112
f 114/114/114 113/113/113 115/115/115
f 115/115/115 113/113/113 116/116/116
f 118/118/118 117/117/117 119/119/119
f 120/120/120 117/117/117 118/118/118
f 120/120/120 121/121/121 117/117/117
f 122/122/122 121/121/121 120/120/120
f 122/122/122 123/123/123 121/121/121
f 124/124/124 123/123/123 122/122/122
f 124/124/124 125/125/125 123/123/123
f 126/126/126 125/125/125 124/124/124
f 126/126/126 127/127/127 125/125/125
f 128/128/128 127/127/127 126/126/126
f 130/130/130 129/129/129 131/131/131
f 131/131/131 129/129/129 132/132/132
f 134/134/134 133/133/133 135/135/135
f 135/135/135 133/133/133 136/136/136
f 138/138/138 137/137/137 139/139/139
f 139/139/139 137/137/137 140/140/140
f 142/142/142 141/141/141 143/143/143
f 143/143/143 141/141/141 144/144/144
f 146/146/146 145/145/145 147/147/147
f 147/147/147 145/145/145 148/148/148
f 150/150/150 149/149/149 151/151/151
f 151/151/151 149/149/149 152/152/152
f 154/154/154 153/153/153 155/155/155
f 155/155/155 153/153/153 156/156/156
f 158/158/158 157/157/157 159/159/159
f 159/159/159 157/157/157 160/160/160
f 162/162/162 161/161/161 163/163/163
f 163/163/163 161/161/161 164/164/164
f 166/166/166 165/165/165 167/167/167
f 167/167/167 165/165/165 168/168/168
f 170/170/170 169/169/169 171/171/171
f 171/171/171 169/169/169 172/172/172
f 174/174/174 173/173/173 175/175/175
f 175/175/175 173/173/173 176/176/176
f 178/178/178 177/177/177 179/179/179
f 179/179/179 177/177/177 180/180/180
f 182/182/182 181/181/181 183/183/183
f 183/183/183 181/181/181 184/184/184
f 186/186/186 185/185/185 187/187/187
f 187/187/187 185/185/185 188/188/188
f 190/190/190 189/189/189 191/191/191
f 191/191/191 189/189/189 192/192/192
f 194/194/194 193/193/193 195/195/195
f 195/195/195 193/193/193 196/196/196
f 198/198/198 197/197/197 199/199/199
f 199/199/199 197/197/197 200/200/200
