mtllib ./lamp-ceiling_3.mtl
g lamp-ceiling
v 0.114161 0.2152436 -1.361357E-09
v 1.98312E-09 0.24 0
v 0.08072407 0.2152436 -0.08072403
v 9.980277E-09 0.2152436 0.114161
v 1.98312E-09 0.24 0
v 0.08072407 0.2152436 0.08072403
v -0.114161 0.2152436 4.990139E-09
v 1.98312E-09 0.24 0
v -0.08072405 0.2152436 0.08072405
v -0.08072405 0.2152436 -0.08072405
v 1.98312E-09 0.24 0
v -0.114161 0.2152436 4.990139E-09
v 0.08072407 0.2152436 -0.08072403
v 1.98312E-09 0.24 0
v 0 0.2152436 -0.114161
v 0.08072407 0.2152436 0.08072403
v 1.98312E-09 0.24 0
v 0.114161 0.2152436 -1.361357E-09
v -0.08072405 0.2152436 0.08072405
v 1.98312E-09 0.24 0
v 9.980277E-09 0.2152436 0.114161
v 0 0.2152436 -0.114161
v 1.98312E-09 0.24 0
v -0.08072405 0.2152436 -0.08072405
v 0.1445382 0.1274007 -0.1445381
v 0.2044078 0.1274007 -2.437539E-09
v 0.114161 0.2152436 -1.361357E-09
v 0.08072407 0.2152436 -0.08072403
v 0.1445382 0.1274007 0.1445381
v 1.78699E-08 0.1274007 0.2044078
v 9.980277E-09 0.2152436 0.114161
v 0.08072407 0.2152436 0.08072403
v -0.1445381 0.1274007 0.1445381
v -0.2044078 0.1274007 8.934951E-09
v -0.114161 0.2152436 4.990139E-09
v -0.08072405 0.2152436 0.08072405
v -0.1445381 0.1274007 -0.1445381
v 0 0.1274007 -0.2044078
v 0 0.2152436 -0.114161
v -0.08072405 0.2152436 -0.08072405
v 0 0.1274007 -0.2044078
v 0.1445382 0.1274007 -0.1445381
v 0.08072407 0.2152436 -0.08072403
v 0 0.2152436 -0.114161
v 0.2044078 0.1274007 -2.437539E-09
v 0.1445382 0.1274007 0.1445381
v 0.08072407 0.2152436 0.08072403
v 0.114161 0.2152436 -1.361357E-09
v 1.78699E-08 0.1274007 0.2044078
v -0.1445381 0.1274007 0.1445381
v -0.08072405 0.2152436 0.08072405
v 9.980277E-09 0.2152436 0.114161
v -0.2044078 0.1274007 8.934951E-09
v -0.1445381 0.1274007 -0.1445381
v -0.08072405 0.2152436 -0.08072405
v -0.114161 0.2152436 4.990139E-09
v 0.1699169 0 -0.1699168
v 0.1344483 0.09258693 -0.1344483
v 0.1901386 0.09258693 -2.267381E-09
v 0.2402986 0 -2.865533E-09
v 0.1699169 0 0.1699168
v 0.1344483 0.09258693 0.1344483
v 1.662245E-08 0.09258693 0.1901386
v 2.100758E-08 0 0.2402986
v -0.1699168 0 0.1699168
v -0.1344483 0.09258693 0.1344483
v -0.1901386 0.09258693 8.311226E-09
v -0.2402986 0 1.050379E-08
v -0.1699168 0 -0.1699168
v -0.1344483 0.09258693 -0.1344483
v 0 0.09258693 -0.1901386
v 0 0 -0.2402986
v 0 0 -0.2402986
v 0 0.09258693 -0.1901386
v 0.1344483 0.09258693 -0.1344483
v 0.1699169 0 -0.1699168
v 0.2402986 0 -2.865533E-09
v 0.1901386 0.09258693 -2.267381E-09
v 0.1344483 0.09258693 0.1344483
v 0.1699169 0 0.1699168
v 2.100758E-08 0 0.2402986
v 1.662245E-08 0.09258693 0.1901386
v -0.1344483 0.09258693 0.1344483
v -0.1699168 0 0.1699168
v -0.2402986 0 1.050379E-08
v -0.1901386 0.09258693 8.311226E-09
v -0.1344483 0.09258693 -0.1344483
v -0.1699168 0 -0.1699168
v -0.1901386 0.09258693 8.311226E-09
v -0.07503846 0.1603576 3.280037E-09
v -0.05306021 0.1603576 -0.05306021
v -0.1344483 0.09258693 -0.1344483
v 0.1344483 0.09258693 -0.1344483
v 0.05306022 0.1603576 -0.0530602
v 0.07503846 0.1603576 -8.948248E-10
v 0.1901386 0.09258693 -2.267381E-09
v 0.1344483 0.09258693 0.1344483
v 0.05306022 0.1603576 0.0530602
v 6.560073E-09 0.1603576 0.07503846
v 1.662245E-08 0.09258693 0.1901386
v -0.1344483 0.09258693 0.1344483
v -0.05306021 0.1603576 0.05306021
v -0.07503846 0.1603576 3.280037E-09
v -0.1901386 0.09258693 8.311226E-09
v -0.1344483 0.09258693 -0.1344483
v -0.05306021 0.1603576 -0.05306021
v 0 0.1603576 -0.07503846
v 0 0.09258693 -0.1901386
v 0 0.09258693 -0.1901386
v 0 0.1603576 -0.07503846
v 0.05306022 0.1603576 -0.0530602
v 0.1344483 0.09258693 -0.1344483
v 0.1901386 0.09258693 -2.267381E-09
v 0.07503846 0.1603576 -8.948248E-10
v 0.05306022 0.1603576 0.0530602
v 0.1344483 0.09258693 0.1344483
v 1.662245E-08 0.09258693 0.1901386
v 6.560073E-09 0.1603576 0.07503846
v -0.05306021 0.1603576 0.05306021
v -0.1344483 0.09258693 0.1344483
v 6.560073E-09 0.1603576 0.07503846
v 0.05306022 0.1603576 0.0530602
v 0.07503846 0.1603576 -8.948248E-10
v 3.280037E-09 0.1603576 0
v -0.05306021 0.1603576 0.05306021
v -0.07503846 0.1603576 3.280037E-09
v 0 0.1603576 -0.07503846
v 0.05306022 0.1603576 -0.0530602
v -0.05306021 0.1603576 -0.05306021
v -0.2402986 0 1.050379E-08
v -0.1699168 0 -0.1699168
v -0.1445381 0.1274007 -0.1445381
v -0.2044078 0.1274007 8.934951E-09
v 2.100758E-08 0 0.2402986
v -0.1699168 0 0.1699168
v -0.1445381 0.1274007 0.1445381
v 1.78699E-08 0.1274007 0.2044078
v 0.2402986 0 -2.865533E-09
v 0.1699169 0 0.1699168
v 0.1445382 0.1274007 0.1445381
v 0.2044078 0.1274007 -2.437539E-09
v 0 0 -0.2402986
v 0.1699169 0 -0.1699168
v 0.1445382 0.1274007 -0.1445381
v 0 0.1274007 -0.2044078
v -0.1699168 0 -0.1699168
v 0 0 -0.2402986
v 0 0.1274007 -0.2044078
v -0.1445381 0.1274007 -0.1445381
v -0.1699168 0 0.1699168
v -0.2402986 0 1.050379E-08
v -0.2044078 0.1274007 8.934951E-09
v -0.1445381 0.1274007 0.1445381
v 0.1699169 0 0.1699168
v 2.100758E-08 0 0.2402986
v 1.78699E-08 0.1274007 0.2044078
v 0.1445382 0.1274007 0.1445381
v 0.1699169 0 -0.1699168
v 0.2402986 0 -2.865533E-09
v 0.2044078 0.1274007 -2.437539E-09
v 0.1445382 0.1274007 -0.1445381
v 0 0.2606029 0.01396996
v 0 0.2242514 0.04022
v -0.0348315 0.2242514 0.02011
v -0.01209833 0.2606029 0.006984978
v -0.01209833 0.2606029 -0.006984978
v -0.0348315 0.2242514 -0.02011
v -3.143441E-09 0.2242514 -0.04022
v -8.979053E-10 0.2606029 -0.01396996
v 0.01209833 0.2606029 -0.006984978
v 0.0348315 0.2242514 -0.02011
v 0.0348315 0.2242514 0.02011
v 0.01209833 0.2606029 0.006984978
v -0.01209833 0.2606029 0.006984978
v -0.0348315 0.2242514 0.02011
v -0.0348315 0.2242514 -0.02011
v -0.01209833 0.2606029 -0.006984978
v -8.979053E-10 0.2606029 -0.01396996
v -3.143441E-09 0.2242514 -0.04022
v 0.0348315 0.2242514 -0.02011
v 0.01209833 0.2606029 -0.006984978
v 0.01209833 0.2606029 0.006984978
v 0.0348315 0.2242514 0.02011
v 0 0.2242514 0.04022
v 0 0.2606029 0.01396996
v -0.01209833 0.2606029 0.006984978
v -0.01231769 1 0.007111627
v 0 1 0.01422326
v 0 0.2606029 0.01396996
v -8.979053E-10 0.2606029 -0.01396996
v -8.351662E-10 1 -0.01422326
v -0.01231769 1 -0.007111627
v -0.01209833 0.2606029 -0.006984978
v 0.01209833 0.2606029 0.006984978
v 0.01231769 1 0.007111627
v 0.01231769 1 -0.007111627
v 0.01209833 0.2606029 -0.006984978
v -0.01209833 0.2606029 -0.006984978
v -0.01231769 1 -0.007111627
v -0.01231769 1 0.007111627
v -0.01209833 0.2606029 0.006984978
v 0.01209833 0.2606029 -0.006984978
v 0.01231769 1 -0.007111627
v -8.351662E-10 1 -0.01422326
v -8.979053E-10 0.2606029 -0.01396996
v 0 0.2606029 0.01396996
v 0 1 0.01422326
v 0.01231769 1 0.007111627
v 0.01209833 0.2606029 0.006984978

vn 0.2111176 0.9735411 -0.08744776
vn 0.2111176 0.9735411 -0.08744776
vn 0.2111176 0.9735411 -0.08744776
vn 0.08744789 0.9735411 0.2111177
vn 0.08744789 0.9735411 0.2111177
vn 0.08744789 0.9735411 0.2111177
vn -0.2111176 0.9735411 0.08744779
vn -0.2111176 0.9735411 0.08744779
vn -0.2111176 0.9735411 0.08744779
vn -0.2111178 0.9735411 -0.08744778
vn -0.2111178 0.9735411 -0.08744778
vn -0.2111178 0.9735411 -0.08744778
vn 0.08744787 0.9735411 -0.2111177
vn 0.08744787 0.9735411 -0.2111177
vn 0.08744787 0.9735411 -0.2111177
vn 0.2111177 0.9735411 0.08744776
vn 0.2111177 0.9735411 0.08744776
vn 0.2111177 0.9735411 0.08744776
vn -0.08744789 0.9735411 0.2111177
vn -0.08744789 0.9735411 0.2111177
vn -0.08744789 0.9735411 0.2111177
vn -0.08744789 0.9735411 -0.2111177
vn -0.08744789 0.9735411 -0.2111177
vn -0.08744789 0.9735411 -0.2111177
vn 0.6700926 0.6884298 -0.2775613
vn 0.6700926 0.6884298 -0.2775613
vn 0.6700926 0.6884298 -0.2775613
vn 0.6700926 0.6884298 -0.2775613
vn 0.2775615 0.6884297 0.6700927
vn 0.2775615 0.6884297 0.6700927
vn 0.2775615 0.6884297 0.6700927
vn 0.2775615 0.6884297 0.6700927
vn -0.6700926 0.6884298 0.2775613
vn -0.6700926 0.6884298 0.2775613
vn -0.6700926 0.6884298 0.2775613
vn -0.6700926 0.6884298 0.2775613
vn -0.2775612 0.6884298 -0.6700926
vn -0.2775612 0.6884298 -0.6700926
vn -0.2775612 0.6884298 -0.6700926
vn -0.2775612 0.6884298 -0.6700926
vn 0.2775615 0.6884297 -0.6700927
vn 0.2775615 0.6884297 -0.6700927
vn 0.2775615 0.6884297 -0.6700927
vn 0.2775615 0.6884297 -0.6700927
vn 0.6700926 0.6884298 0.2775613
vn 0.6700926 0.6884298 0.2775613
vn 0.6700926 0.6884298 0.2775613
vn 0.6700926 0.6884298 0.2775613
vn -0.2775613 0.6884298 0.6700928
vn -0.2775613 0.6884298 0.6700928
vn -0.2775613 0.6884298 0.6700928
vn -0.2775613 0.6884298 0.6700928
vn -0.6700926 0.6884298 -0.2775613
vn -0.6700926 0.6884298 -0.2775613
vn -0.6700926 0.6884298 -0.2775613
vn -0.6700926 0.6884298 -0.2775613
vn -0.8261703 -0.4475871 0.3422108
vn -0.8261703 -0.4475871 0.3422108
vn -0.8261703 -0.4475871 0.3422108
vn -0.8261703 -0.4475871 0.3422108
vn -0.3422109 -0.4475874 -0.8261701
vn -0.3422109 -0.4475874 -0.8261701
vn -0.3422109 -0.4475874 -0.8261701
vn -0.3422109 -0.4475874 -0.8261701
vn 0.8261703 -0.4475873 -0.3422108
vn 0.8261703 -0.4475873 -0.3422108
vn 0.8261703 -0.4475873 -0.3422108
vn 0.8261703 -0.4475873 -0.3422108
vn 0.3422108 -0.4475871 0.8261704
vn 0.3422108 -0.4475871 0.8261704
vn 0.3422108 -0.4475871 0.8261704
vn 0.3422108 -0.4475871 0.8261704
vn -0.3422109 -0.4475871 0.8261703
vn -0.3422109 -0.4475871 0.8261703
vn -0.3422109 -0.4475871 0.8261703
vn -0.3422109 -0.4475871 0.8261703
vn -0.8261703 -0.4475871 -0.3422108
vn -0.8261703 -0.4475871 -0.3422108
vn -0.8261703 -0.4475871 -0.3422108
vn -0.8261703 -0.4475871 -0.3422108
vn 0.3422107 -0.4475872 -0.8261704
vn 0.3422107 -0.4475872 -0.8261704
vn 0.3422107 -0.4475872 -0.8261704
vn 0.3422107 -0.4475872 -0.8261704
vn 0.8261703 -0.4475872 0.3422108
vn 0.8261703 -0.4475872 0.3422108
vn 0.8261703 -0.4475872 0.3422108
vn 0.8261703 -0.4475872 0.3422108
vn 0.4965331 -0.8432999 0.2056706
vn 0.4965331 -0.8432999 0.2056706
vn 0.4965331 -0.8432999 0.2056706
vn 0.4965331 -0.8432999 0.2056706
vn -0.496533 -0.8432999 0.2056705
vn -0.496533 -0.8432999 0.2056705
vn -0.496533 -0.8432999 0.2056705
vn -0.496533 -0.8432999 0.2056705
vn -0.2056707 -0.8432999 -0.496533
vn -0.2056707 -0.8432999 -0.496533
vn -0.2056707 -0.8432999 -0.496533
vn -0.2056707 -0.8432999 -0.496533
vn 0.496533 -0.8432997 -0.2056706
vn 0.496533 -0.8432997 -0.2056706
vn 0.496533 -0.8432997 -0.2056706
vn 0.496533 -0.8432997 -0.2056706
vn 0.2056707 -0.8432999 0.4965329
vn 0.2056707 -0.8432999 0.4965329
vn 0.2056707 -0.8432999 0.4965329
vn 0.2056707 -0.8432999 0.4965329
vn -0.2056707 -0.8432999 0.496533
vn -0.2056707 -0.8432999 0.496533
vn -0.2056707 -0.8432999 0.496533
vn -0.2056707 -0.8432999 0.496533
vn -0.496533 -0.8432999 -0.2056705
vn -0.496533 -0.8432999 -0.2056705
vn -0.496533 -0.8432999 -0.2056705
vn -0.496533 -0.8432999 -0.2056705
vn 0.2056707 -0.8432997 -0.496533
vn 0.2056707 -0.8432997 -0.496533
vn 0.2056707 -0.8432997 -0.496533
vn 0.2056707 -0.8432997 -0.496533
vn -2.339092E-07 -1 0
vn 0 -1 0
vn 0 -1 0
vn -2.339092E-07 -1 0
vn -2.339092E-07 -1 0
vn -2.339092E-07 -1 0
vn 0 -1 0
vn 0 -1 0
vn 0 -1 0
vn -0.8940923 0.2518805 -0.3703448
vn -0.8940923 0.2518805 -0.3703448
vn -0.8940923 0.2518805 -0.3703448
vn -0.8940923 0.2518805 -0.3703448
vn -0.3703449 0.2518805 0.8940922
vn -0.3703449 0.2518805 0.8940922
vn -0.3703449 0.2518805 0.8940922
vn -0.3703449 0.2518805 0.8940922
vn 0.8940923 0.2518806 0.3703448
vn 0.8940923 0.2518806 0.3703448
vn 0.8940923 0.2518806 0.3703448
vn 0.8940923 0.2518806 0.3703448
vn 0.3703451 0.2518806 -0.8940921
vn 0.3703451 0.2518806 -0.8940921
vn 0.3703451 0.2518806 -0.8940921
vn 0.3703451 0.2518806 -0.8940921
vn -0.3703449 0.2518804 -0.8940923
vn -0.3703449 0.2518804 -0.8940923
vn -0.3703449 0.2518804 -0.8940923
vn -0.3703449 0.2518804 -0.8940923
vn -0.8940922 0.2518805 0.3703449
vn -0.8940922 0.2518805 0.3703449
vn -0.8940922 0.2518805 0.3703449
vn -0.8940922 0.2518805 0.3703449
vn 0.3703451 0.2518808 0.8940921
vn 0.3703451 0.2518808 0.8940921
vn 0.3703451 0.2518808 0.8940921
vn 0.3703451 0.2518808 0.8940921
vn 0.8940922 0.2518806 -0.3703448
vn 0.8940922 0.2518806 -0.3703448
vn 0.8940922 0.2518806 -0.3703448
vn 0.8940922 0.2518806 -0.3703448
vn -0.4239285 0.5302266 0.7342646
vn -0.4239285 0.5302266 0.7342646
vn -0.4239285 0.5302266 0.7342646
vn -0.4239285 0.5302266 0.7342646
vn -0.4239285 0.5302265 -0.7342646
vn -0.4239285 0.5302265 -0.7342646
vn -0.4239285 0.5302265 -0.7342646
vn -0.4239285 0.5302265 -0.7342646
vn 0.8478564 0.530226 0
vn 0.8478564 0.530226 0
vn 0.8478564 0.530226 0
vn 0.8478564 0.530226 0
vn -0.8478564 0.530226 0
vn -0.8478564 0.530226 0
vn -0.8478564 0.530226 0
vn -0.8478564 0.530226 0
vn 0.4239285 0.5302266 -0.7342646
vn 0.4239285 0.5302266 -0.7342646
vn 0.4239285 0.5302266 -0.7342646
vn 0.4239285 0.5302266 -0.7342646
vn 0.4239285 0.5302266 0.7342646
vn 0.4239285 0.5302266 0.7342646
vn 0.4239285 0.5302266 0.7342646
vn 0.4239285 0.5302266 0.7342646
vn -0.5000004 -0.0002966818 0.8660251
vn -0.5000004 -0.0002966818 0.8660251
vn -0.5000004 -0.0002966818 0.8660251
vn -0.5000004 -0.0002966818 0.8660251
vn -0.5000005 -0.0002966805 -0.8660251
vn -0.5000005 -0.0002966805 -0.8660251
vn -0.5000005 -0.0002966805 -0.8660251
vn -0.5000005 -0.0002966805 -0.8660251
vn 1 -0.0002966817 0
vn 1 -0.0002966817 0
vn 1 -0.0002966817 0
vn 1 -0.0002966817 0
vn -1 -0.0002966817 0
vn -1 -0.0002966817 0
vn -1 -0.0002966817 0
vn -1 -0.0002966817 0
vn 0.5000003 -0.0002966804 -0.8660251
vn 0.5000003 -0.0002966804 -0.8660251
vn 0.5000003 -0.0002966804 -0.8660251
vn 0.5000003 -0.0002966804 -0.8660251
vn 0.5000004 -0.0002966818 0.8660251
vn 0.5000004 -0.0002966818 0.8660251
vn 0.5000004 -0.0002966818 0.8660251
vn 0.5000004 -0.0002966818 0.8660251

vt 0.07884736 0.6759457
vt 0.07374143 0.6743564
vt 0.07622808 0.6790906
vt 0.07533071 0.6692505
vt 0.07374143 0.6743564
vt 0.07847567 0.6718698
vt 0.06863549 0.6727671
vt 0.07374143 0.6743564
vt 0.07125477 0.6696222
vt 0.0690072 0.676843
vt 0.07374143 0.6743564
vt 0.06863549 0.6727671
vt 0.07622808 0.6790906
vt 0.07374143 0.6743564
vt 0.07215215 0.6794623
vt 0.07847567 0.6718698
vt 0.07374143 0.6743564
vt 0.07884736 0.6759457
vt 0.07125477 0.6696222
vt 0.07374143 0.6743564
vt 0.07533071 0.6692505
vt 0.07215215 0.6794623
vt 0.07374143 0.6743564
vt 0.0690072 0.676843
vt 0.07872044 0.6850899
vt 0.08485185 0.6784254
vt 0.07884736 0.6759457
vt 0.07622808 0.6790906
vt 0.08447491 0.6693774
vt 0.07781046 0.663246
vt 0.07533071 0.6692505
vt 0.07847567 0.6718698
vt 0.06876241 0.6636229
vt 0.06263101 0.6702874
vt 0.06863549 0.6727671
vt 0.07125477 0.6696222
vt 0.06300794 0.6793354
vt 0.0696724 0.6854668
vt 0.07215215 0.6794623
vt 0.0690072 0.676843
vt 0.0696724 0.6854668
vt 0.07872044 0.6850899
vt 0.07622808 0.6790906
vt 0.07215215 0.6794623
vt 0.08485185 0.6784254
vt 0.08447491 0.6693774
vt 0.07847567 0.6718698
vt 0.07884736 0.6759457
vt 0.07781046 0.663246
vt 0.06876241 0.6636229
vt 0.07125477 0.6696222
vt 0.07533071 0.6692505
vt 0.06263101 0.6702874
vt 0.06300794 0.6793354
vt 0.0690072 0.676843
vt 0.06863549 0.6727671
vt 0.07852881 0.6951215
vt 0.07586558 0.7024444
vt 0.08196786 0.7089167
vt 0.08902912 0.7056218
vt 0.08902912 0.7204715
vt 0.08170622 0.7178083
vt 0.0752339 0.7239106
vt 0.0785288 0.7309719
vt 0.0636791 0.7309719
vt 0.06634232 0.723649
vt 0.06024004 0.7171766
vt 0.05317878 0.7204715
vt 0.05317878 0.7056218
vt 0.06050168 0.708285
vt 0.066974 0.7021828
vt 0.0636791 0.6951215
vt 0.0636791 0.6951215
vt 0.066974 0.7021828
vt 0.07586558 0.7024444
vt 0.07852881 0.6951215
vt 0.08902912 0.7056218
vt 0.08196786 0.7089167
vt 0.08170622 0.7178083
vt 0.08902912 0.7204715
vt 0.0785288 0.7309719
vt 0.0752339 0.7239106
vt 0.06634232 0.723649
vt 0.0636791 0.7309719
vt 0.05317878 0.7204715
vt 0.06024004 0.7171766
vt 0.06050168 0.708285
vt 0.05317878 0.7056218
vt 0.06024004 0.7171766
vt 0.06719235 0.7143607
vt 0.06740886 0.71121
vt 0.06050168 0.708285
vt 0.07586558 0.7024444
vt 0.07294068 0.7093516
vt 0.07501554 0.7117326
vt 0.08196786 0.7089167
vt 0.08170622 0.7178083
vt 0.07479903 0.7148834
vt 0.072418 0.7169582
vt 0.0752339 0.7239106
vt 0.06634232 0.723649
vt 0.06926721 0.7167417
vt 0.06719235 0.7143607
vt 0.06024004 0.7171766
vt 0.06050168 0.708285
vt 0.06740886 0.71121
vt 0.0697899 0.7091351
vt 0.066974 0.7021828
vt 0.066974 0.7021828
vt 0.0697899 0.7091351
vt 0.07294068 0.7093516
vt 0.07586558 0.7024444
vt 0.08196786 0.7089167
vt 0.07501554 0.7117326
vt 0.07479903 0.7148834
vt 0.08170622 0.7178083
vt 0.0752339 0.7239106
vt 0.072418 0.7169582
vt 0.06926721 0.7167417
vt 0.06634232 0.723649
vt 0.072418 0.7169582
vt 0.07479903 0.7148834
vt 0.07501554 0.7117326
vt 0.07110395 0.7130467
vt 0.06926721 0.7167417
vt 0.06719235 0.7143607
vt 0.0697899 0.7091351
vt 0.07294068 0.7093516
vt 0.06740886 0.71121
vt 0.05317878 0.6658391
vt 0.05317878 0.6828737
vt 0.06300794 0.6793354
vt 0.06263101 0.6702874
vt 0.08225875 0.6537938
vt 0.0652241 0.6537938
vt 0.06876241 0.6636229
vt 0.07781046 0.663246
vt 0.09430407 0.6828737
vt 0.09430408 0.6658391
vt 0.08447491 0.6693774
vt 0.08485185 0.6784254
vt 0.0652241 0.694919
vt 0.08225876 0.694919
vt 0.07872044 0.6850899
vt 0.0696724 0.6854668
vt 0.05317878 0.6828737
vt 0.0652241 0.694919
vt 0.0696724 0.6854668
vt 0.06300794 0.6793354
vt 0.0652241 0.6537938
vt 0.05317878 0.6658391
vt 0.06263101 0.6702874
vt 0.06876241 0.6636229
vt 0.09430408 0.6658391
vt 0.08225875 0.6537938
vt 0.07781046 0.663246
vt 0.08447491 0.6693774
vt 0.08225876 0.694919
vt 0.09430407 0.6828737
vt 0.08485185 0.6784254
vt 0.07872044 0.6850899
vt 0.1001321 0.6575057
vt 0.1011348 0.6540678
vt 0.09925853 0.6537938
vt 0.09919872 0.6575131
vt 0.09828316 0.6576783
vt 0.09695439 0.6541576
vt 0.09450653 0.6560614
vt 0.09744493 0.6580049
vt 0.1019285 0.6579172
vt 0.1041632 0.6557496
vt 0.1027363 0.6547093
vt 0.1010496 0.6576387
vt 0.09919872 0.6575131
vt 0.09925853 0.6537938
vt 0.09695439 0.6541576
vt 0.09828316 0.6576783
vt 0.1027483 0.6583853
vt 0.1052891 0.6573875
vt 0.1041632 0.6557496
vt 0.1019285 0.6579172
vt 0.1010496 0.6576387
vt 0.1027363 0.6547093
vt 0.1011348 0.6540678
vt 0.1001321 0.6575057
vt 0.09919872 0.6575131
vt 0.09608896 0.7081105
vt 0.09688055 0.7081631
vt 0.1001321 0.6575057
vt 0.09744493 0.6580049
vt 0.09450653 0.7080098
vt 0.09529752 0.7080594
vt 0.09828316 0.6576783
vt 0.1010496 0.6576387
vt 0.09767186 0.7082171
vt 0.09846264 0.7082728
vt 0.1019285 0.6579172
vt 0.09828316 0.6576783
vt 0.09529752 0.7080594
vt 0.09608896 0.7081105
vt 0.09919872 0.6575131
vt 0.1019285 0.6579172
vt 0.09846264 0.7082728
vt 0.09933427 0.7083349
vt 0.1027483 0.6583853
vt 0.1001321 0.6575057
vt 0.09688055 0.7081631
vt 0.09767186 0.7082171
vt 0.1010496 0.6576387

usemtl LOW-POLY-COLORS
usemap LOW-POLY-COLORS
f 2/2/2 1/1/1 3/3/3
f 5/5/5 4/4/4 6/6/6
f 8/8/8 7/7/7 9/9/9
f 11/11/11 10/10/10 12/12/12
f 14/14/14 13/13/13 15/15/15
f 17/17/17 16/16/16 18/18/18
f 20/20/20 19/19/19 21/21/21
f 23/23/23 22/22/22 24/24/24
f 26/26/26 25/25/25 27/27/27
f 27/27/27 25/25/25 28/28/28
f 30/30/30 29/29/29 31/31/31
f 31/31/31 29/29/29 32/32/32
f 34/34/34 33/33/33 35/35/35
f 35/35/35 33/33/33 36/36/36
f 38/38/38 37/37/37 39/39/39
f 39/39/39 37/37/37 40/40/40
f 42/42/42 41/41/41 43/43/43
f 43/43/43 41/41/41 44/44/44
f 46/46/46 45/45/45 47/47/47
f 47/47/47 45/45/45 48/48/48
f 50/50/50 49/49/49 51/51/51
f 51/51/51 49/49/49 52/52/52
f 54/54/54 53/53/53 55/55/55
f 55/55/55 53/53/53 56/56/56
f 58/58/58 57/57/57 59/59/59
f 59/59/59 57/57/57 60/60/60
f 62/62/62 61/61/61 63/63/63
f 63/63/63 61/61/61 64/64/64
f 66/66/66 65/65/65 67/67/67
f 67/67/67 65/65/65 68/68/68
f 70/70/70 69/69/69 71/71/71
f 71/71/71 69/69/69 72/72/72
f 74/74/74 73/73/73 75/75/75
f 75/75/75 73/73/73 76/76/76
f 78/78/78 77/77/77 79/79/79
f 79/79/79 77/77/77 80/80/80
f 82/82/82 81/81/81 83/83/83
f 83/83/83 81/81/81 84/84/84
f 86/86/86 85/85/85 87/87/87
f 87/87/87 85/85/85 88/88/88
f 90/90/90 89/89/89 91/91/91
f 91/91/91 89/89/89 92/92/92
f 94/94/94 93/93/93 95/95/95
f 95/95/95 93/93/93 96/96/96
f 98/98/98 97/97/97 99/99/99
f 99/99/99 97/97/97 100/100/100
f 102/102/102 101/101/101 103/103/103
f 103/103/103 101/101/101 104/104/104
f 106/106/106 105/105/105 107/107/107
f 107/107/107 105/105/105 108/108/108
f 110/110/110 109/109/109 111/111/111
f 111/111/111 109/109/109 112/112/112
f 114/114/114 113/113/113 115/115/115
f 115/115/115 113/113/113 116/116/116
f 118/118/118 117/117/117 119/119/119
f 119/119/119 117/117/117 120/120/120
f 122/122/122 121/121/121 123/123/123
f 123/123/123 121/121/121 124/124/124
f 121/121/121 125/125/125 124/124/124
f 124/124/124 125/125/125 126/126/126
f 127/127/127 123/123/123 124/124/124
f 126/126/126 127/127/127 124/124/124
f 128/128/128 123/123/123 127/127/127
f 129/129/129 127/127/127 126/126/126
f 131/131/131 130/130/130 132/132/132
f 132/132/132 130/130/130 133/133/133
f 135/135/135 134/134/134 136/136/136
f 136/136/136 134/134/134 137/137/137
f 139/139/139 138/138/138 140/140/140
f 140/140/140 138/138/138 141/141/141
f 143/143/143 142/142/142 144/144/144
f 144/144/144 142/142/142 145/145/145
f 147/147/147 146/146/146 148/148/148
f 148/148/148 146/146/146 149/149/149
f 151/151/151 150/150/150 152/152/152
f 152/152/152 150/150/150 153/153/153
f 155/155/155 154/154/154 156/156/156
f 156/156/156 154/154/154 157/157/157
f 159/159/159 158/158/158 160/160/160
f 160/160/160 158/158/158 161/161/161
f 163/163/163 162/162/162 164/164/164
f 164/164/164 162/162/162 165/165/165
f 167/167/167 166/166/166 168/168/168
f 168/168/168 166/166/166 169/169/169
f 171/171/171 170/170/170 172/172/172
f 172/172/172 170/170/170 173/173/173
f 175/175/175 174/174/174 176/176/176
f 176/176/176 174/174/174 177/177/177
f 179/179/179 178/178/178 180/180/180
f 180/180/180 178/178/178 181/181/181
f 183/183/183 182/182/182 184/184/184
f 184/184/184 182/182/182 185/185/185
f 187/187/187 186/186/186 188/188/188
f 188/188/188 186/186/186 189/189/189
f 191/191/191 190/190/190 192/192/192
f 192/192/192 190/190/190 193/193/193
f 195/195/195 194/194/194 196/196/196
f 196/196/196 194/194/194 197/197/197
f 199/199/199 198/198/198 200/200/200
f 200/200/200 198/198/198 201/201/201
f 203/203/203 202/202/202 204/204/204
f 204/204/204 202/202/202 205/205/205
f 207/207/207 206/206/206 208/208/208
f 208/208/208 206/206/206 209/209/209
