mtllib ./table-dining_15.mtl
g table-dining
v -0.8000001 0.7399999 0.4000001
v -0.8000001 0.7399999 -0.4000001
v -0.8000001 0.8000001 -0.4000001
v -0.8000001 0.8000001 0.4000001
v -0.8000001 0.7399999 -0.4000001
v 0.8000001 0.7399999 -0.4000001
v 0.8000001 0.8000001 -0.4000001
v -0.8000001 0.8000001 -0.4000001
v 0.8000001 0.7399999 -0.4000001
v 0.8000001 0.7399999 0.4000001
v 0.8000001 0.8000001 0.4000001
v 0.8000001 0.8000001 -0.4000001
v 0.8000001 0.7399999 0.4000001
v -0.8000001 0.7399999 0.4000001
v -0.8000001 0.8000001 0.4000001
v 0.8000001 0.8000001 0.4000001
v -0.8000001 0.7399999 -0.4000001
v -0.8000001 0.7399999 0.4000001
v 0.8000001 0.7399999 0.4000001
v 0.8000001 0.7399999 -0.4000001
v 0.8000001 0.8000001 -0.4000001
v 0.8000001 0.8000001 0.4000001
v -0.8000001 0.8000001 0.4000001
v -0.8000001 0.8000001 -0.4000001
v 0.7519676 0.001967265 0.3980325
v 0.7519676 0.001967265 0.3519675
v 0.7524098 0.7399999 0.3524097
v 0.7524098 0.7399999 0.3975903
v 0.7519676 0.001967265 0.3519675
v 0.7980326 0.001967265 0.3519675
v 0.7975904 0.7399999 0.3524097
v 0.7524098 0.7399999 0.3524097
v 0.7980326 0.001967265 0.3519675
v 0.7980326 0.001967265 0.3980325
v 0.7975904 0.7399999 0.3975903
v 0.7975904 0.7399999 0.3524097
v 0.7980326 0.001967265 0.3980325
v 0.7519676 0.001967265 0.3980325
v 0.7524098 0.7399999 0.3975903
v 0.7975904 0.7399999 0.3975903
v 0.7519676 0.001967265 0.3519675
v 0.7519676 0.001967265 0.3980325
v 0.7980326 0.001967265 0.3980325
v 0.7980326 0.001967265 0.3519675
v 0.7519676 0.001967265 -0.3519675
v 0.7519676 0.001967265 -0.3980325
v 0.7524098 0.7399999 -0.3975903
v 0.7524098 0.7399999 -0.3524097
v 0.7519676 0.001967265 -0.3980325
v 0.7980326 0.001967265 -0.3980325
v 0.7975904 0.7399999 -0.3975903
v 0.7524098 0.7399999 -0.3975903
v 0.7980326 0.001967265 -0.3980325
v 0.7980326 0.001967265 -0.3519675
v 0.7975904 0.7399999 -0.3524097
v 0.7975904 0.7399999 -0.3975903
v 0.7980326 0.001967265 -0.3519675
v 0.7519676 0.001967265 -0.3519675
v 0.7524098 0.7399999 -0.3524097
v 0.7975904 0.7399999 -0.3524097
v 0.7519676 0.001967265 -0.3980325
v 0.7519676 0.001967265 -0.3519675
v 0.7980326 0.001967265 -0.3519675
v 0.7980326 0.001967265 -0.3980325
v -0.7980326 0.001967265 0.3980325
v -0.7980326 0.001967265 0.3519675
v -0.7975904 0.7399999 0.3524097
v -0.7975904 0.7399999 0.3975903
v -0.7980326 0.001967265 0.3519675
v -0.7519676 0.001967265 0.3519675
v -0.7524098 0.7399999 0.3524097
v -0.7975904 0.7399999 0.3524097
v -0.7519676 0.001967265 0.3519675
v -0.7519676 0.001967265 0.3980325
v -0.7524098 0.7399999 0.3975903
v -0.7524098 0.7399999 0.3524097
v -0.7519676 0.001967265 0.3980325
v -0.7980326 0.001967265 0.3980325
v -0.7975904 0.7399999 0.3975903
v -0.7524098 0.7399999 0.3975903
v -0.7980326 0.001967265 0.3519675
v -0.7980326 0.001967265 0.3980325
v -0.7519676 0.001967265 0.3980325
v -0.7519676 0.001967265 0.3519675
v -0.7980326 0.001967265 -0.3519675
v -0.7980326 0.001967265 -0.3980325
v -0.7975904 0.7399999 -0.3975903
v -0.7975904 0.7399999 -0.3524097
v -0.7980326 0.001967265 -0.3980325
v -0.7519676 0.001967265 -0.3980325
v -0.7524098 0.7399999 -0.3975903
v -0.7975904 0.7399999 -0.3975903
v -0.7519676 0.001967265 -0.3980325
v -0.7519676 0.001967265 -0.3519675
v -0.7524098 0.7399999 -0.3524097
v -0.7524098 0.7399999 -0.3975903
v -0.7519676 0.001967265 -0.3519675
v -0.7980326 0.001967265 -0.3519675
v -0.7975904 0.7399999 -0.3524097
v -0.7524098 0.7399999 -0.3524097
v -0.7980326 0.001967265 -0.3980325
v -0.7980326 0.001967265 -0.3519675
v -0.7519676 0.001967265 -0.3519675
v -0.7519676 0.001967265 -0.3980325

vn -1 0 0
vn -1 0 0
vn -1 0 0
vn -1 0 0
vn 0 0 -1
vn 0 0 -1
vn 0 0 -1
vn 0 0 -1
vn 1 0 0
vn 1 0 0
vn 1 0 0
vn 1 0 0
vn 0 0 1
vn 0 0 1
vn 0 0 1
vn 0 0 1
vn 0 -1 0
vn 0 -1 0
vn 0 -1 0
vn 0 -1 0
vn 0 1 0
vn 0 1 0
vn 0 1 0
vn 0 1 0
vn -0.9999999 0.0005991695 0
vn -0.9999999 0.0005991695 0
vn -0.9999999 0.0005991695 0
vn -0.9999999 0.0005991695 0
vn 0 0.0005991788 -0.9999999
vn 0 0.0005991788 -0.9999999
vn 0 0.0005991788 -0.9999999
vn 0 0.0005991788 -0.9999999
vn 0.9999999 0.0005991695 0
vn 0.9999999 0.0005991695 0
vn 0.9999999 0.0005991695 0
vn 0.9999999 0.0005991695 0
vn 0 0.0005991788 0.9999999
vn 0 0.0005991788 0.9999999
vn 0 0.0005991788 0.9999999
vn 0 0.0005991788 0.9999999
vn 0 -1 0
vn 0 -1 0
vn 0 -1 0
vn 0 -1 0
vn -0.9999999 0.0005991695 0
vn -0.9999999 0.0005991695 0
vn -0.9999999 0.0005991695 0
vn -0.9999999 0.0005991695 0
vn 0 0.0005991788 -0.9999999
vn 0 0.0005991788 -0.9999999
vn 0 0.0005991788 -0.9999999
vn 0 0.0005991788 -0.9999999
vn 0.9999999 0.0005991695 0
vn 0.9999999 0.0005991695 0
vn 0.9999999 0.0005991695 0
vn 0.9999999 0.0005991695 0
vn 0 0.0005991788 0.9999999
vn 0 0.0005991788 0.9999999
vn 0 0.0005991788 0.9999999
vn 0 0.0005991788 0.9999999
vn 0 -1 0
vn 0 -1 0
vn 0 -1 0
vn 0 -1 0
vn -0.9999999 0.0005991695 0
vn -0.9999999 0.0005991695 0
vn -0.9999999 0.0005991695 0
vn -0.9999999 0.0005991695 0
vn 0 0.0005991788 -0.9999999
vn 0 0.0005991788 -0.9999999
vn 0 0.0005991788 -0.9999999
vn 0 0.0005991788 -0.9999999
vn 0.9999999 0.0005991695 0
vn 0.9999999 0.0005991695 0
vn 0.9999999 0.0005991695 0
vn 0.9999999 0.0005991695 0
vn 0 0.0005991788 0.9999999
vn 0 0.0005991788 0.9999999
vn 0 0.0005991788 0.9999999
vn 0 0.0005991788 0.9999999
vn 0 -1 0
vn 0 -1 0
vn 0 -1 0
vn 0 -1 0
vn -0.9999999 0.0005991695 0
vn -0.9999999 0.0005991695 0
vn -0.9999999 0.0005991695 0
vn -0.9999999 0.0005991695 0
vn 0 0.0005991788 -0.9999999
vn 0 0.0005991788 -0.9999999
vn 0 0.0005991788 -0.9999999
vn 0 0.0005991788 -0.9999999
vn 0.9999999 0.0005991695 0
vn 0.9999999 0.0005991695 0
vn 0.9999999 0.0005991695 0
vn 0.9999999 0.0005991695 0
vn 0 0.0005991788 0.9999999
vn 0 0.0005991788 0.9999999
vn 0 0.0005991788 0.9999999
vn 0 0.0005991788 0.9999999
vn 0 -1 0
vn 0 -1 0
vn 0 -1 0
vn 0 -1 0

vt 0.1465014 0.06624944
vt 0.1465014 0.1039192
vt 0.1493266 0.1039192
vt 0.1493267 0.06624944
vt 0.1493266 0.1067445
vt 0.2246661 0.1067446
vt 0.2246661 0.1039193
vt 0.1493266 0.1039192
vt 0.2274914 0.1039193
vt 0.2274914 0.06624953
vt 0.2246662 0.06624953
vt 0.2246661 0.1039193
vt 0.2246662 0.06342427
vt 0.1493267 0.06342407
vt 0.1493267 0.06624944
vt 0.2246662 0.06624953
vt 0.1493268 0.02575432
vt 0.1493267 0.06342407
vt 0.2246662 0.06342427
vt 0.2246663 0.02575451
vt 0.2246661 0.1039193
vt 0.2246662 0.06624953
vt 0.1493267 0.06624944
vt 0.1493266 0.1039192
vt 0.44885 0.6525481
vt 0.4467087 0.6525276
vt 0.4464018 0.6868358
vt 0.4485021 0.6868559
vt 0.4551027 0.6525056
vt 0.4529586 0.6525274
vt 0.453328 0.6868784
vt 0.4554309 0.686857
vt 0.4529586 0.6525274
vt 0.4509329 0.6539038
vt 0.4506023 0.6868784
vt 0.453328 0.6868784
vt 0.4509329 0.6539038
vt 0.44885 0.6525481
vt 0.4485021 0.6868559
vt 0.4506023 0.6868784
vt 0.2416176 0.02575432
vt 0.2395736 0.02781895
vt 0.2416564 0.02917468
vt 0.2436822 0.0277983
vt 0.4457784 0.6527901
vt 0.4436396 0.6528112
vt 0.4439968 0.6870801
vt 0.4460946 0.6870595
vt 0.4436396 0.6528112
vt 0.4415914 0.6538906
vt 0.4412649 0.6870801
vt 0.4439968 0.6870801
vt 0.4415914 0.6538906
vt 0.4395039 0.6528375
vt 0.43917 0.6870584
vt 0.4412649 0.6870801
vt 0.4395039 0.6528375
vt 0.4373681 0.652818
vt 0.437075 0.6870392
vt 0.43917 0.6870584
vt 0.2343631 0.02808205
vt 0.2322843 0.02575432
vt 0.2302275 0.02810845
vt 0.2323149 0.02916144
vt 0.4415916 0.6907943
vt 0.4395042 0.6897414
vt 0.43917 0.7239622
vt 0.4412649 0.7239839
vt 0.4395042 0.6897414
vt 0.4373683 0.6897218
vt 0.437075 0.723943
vt 0.43917 0.7239622
vt 0.4457787 0.689694
vt 0.4436398 0.689715
vt 0.4439968 0.7239839
vt 0.4460946 0.7239633
vt 0.4436398 0.689715
vt 0.4415916 0.6907943
vt 0.4412649 0.7239839
vt 0.4439968 0.7239839
vt 0.4395042 0.6897414
vt 0.4415916 0.6907943
vt 0.4436398 0.689715
vt 0.441561 0.6873872
vt 0.4529587 0.6894313
vt 0.4509329 0.6908076
vt 0.4506023 0.7237823
vt 0.453328 0.7237823
vt 0.4509329 0.6908076
vt 0.4488501 0.6894519
vt 0.4485021 0.7237597
vt 0.4506023 0.7237823
vt 0.4488501 0.6894519
vt 0.4467087 0.6894314
vt 0.4464018 0.7237396
vt 0.4485021 0.7237597
vt 0.4551027 0.6894095
vt 0.4529587 0.6894313
vt 0.453328 0.7237823
vt 0.4554309 0.723761
vt 0.4509329 0.6908076
vt 0.4529587 0.6894313
vt 0.4508941 0.6873872
vt 0.4488501 0.6894519

usemtl LOW-POLY-COLORS
usemap LOW-POLY-COLORS
f 2/2/2 1/1/1 3/3/3
f 3/3/3 1/1/1 4/4/4
f 6/6/6 5/5/5 7/7/7
f 7/7/7 5/5/5 8/8/8
f 10/10/10 9/9/9 11/11/11
f 11/11/11 9/9/9 12/12/12
f 14/14/14 13/13/13 15/15/15
f 15/15/15 13/13/13 16/16/16
f 18/18/18 17/17/17 19/19/19
f 19/19/19 17/17/17 20/20/20
f 22/22/22 21/21/21 23/23/23
f 23/23/23 21/21/21 24/24/24
f 26/26/26 25/25/25 27/27/27
f 27/27/27 25/25/25 28/28/28
f 30/30/30 29/29/29 31/31/31
f 31/31/31 29/29/29 32/32/32
f 34/34/34 33/33/33 35/35/35
f 35/35/35 33/33/33 36/36/36
f 38/38/38 37/37/37 39/39/39
f 39/39/39 37/37/37 40/40/40
f 42/42/42 41/41/41 43/43/43
f 43/43/43 41/41/41 44/44/44
f 46/46/46 45/45/45 47/47/47
f 47/47/47 45/45/45 48/48/48
f 50/50/50 49/49/49 51/51/51
f 51/51/51 49/49/49 52/52/52
f 54/54/54 53/53/53 55/55/55
f 55/55/55 53/53/53 56/56/56
f 58/58/58 57/57/57 59/59/59
f 59/59/59 57/57/57 60/60/60
f 62/62/62 61/61/61 63/63/63
f 63/63/63 61/61/61 64/64/64
f 66/66/66 65/65/65 67/67/67
f 67/67/67 65/65/65 68/68/68
f 70/70/70 69/69/69 71/71/71
f 71/71/71 69/69/69 72/72/72
f 74/74/74 73/73/73 75/75/75
f 75/75/75 73/73/73 76/76/76
f 78/78/78 77/77/77 79/79/79
f 79/79/79 77/77/77 80/80/80
f 82/82/82 81/81/81 83/83/83
f 83/83/83 81/81/81 84/84/84
f 86/86/86 85/85/85 87/87/87
f 87/87/87 85/85/85 88/88/88
f 90/90/90 89/89/89 91/91/91
f 91/91/91 89/89/89 92/92/92
f 94/94/94 93/93/93 95/95/95
f 95/95/95 93/93/93 96/96/96
f 98/98/98 97/97/97 99/99/99
f 99/99/99 97/97/97 100/100/100
f 102/102/102 101/101/101 103/103/103
f 103/103/103 101/101/101 104/104/104
