mtllib ./fence-stone-tower_3.mtl
g fence-stone-tower
v -0.3300003 1.725 -0.3300001
v -8.940697E-08 1.829277 0
v -0.3300003 1.725 0.3300001
v 0.3300001 1.725 0.3300001
v -8.940697E-08 1.829277 0
v 0.3300001 1.725 -0.3300001
v -0.3300003 1.725 0.3300001
v -8.940697E-08 1.829277 0
v 0.3300001 1.725 0.3300001
v 0.3300001 1.725 -0.3300001
v -8.940697E-08 1.829277 0
v -0.3300003 1.725 -0.3300001
v 0.3300001 1.606709 0.3300001
v -0.3300003 1.606709 0.3300001
v -0.3300003 1.725 0.3300001
v 0.3300001 1.725 0.3300001
v 0.2943398 0.75 0.2943399
v 0.3000001 0 0.3000001
v -0.3000003 0 0.3000001
v -0.29434 0.75 0.2943399
v -0.29434 0.75 0.2943399
v -0.29434 0.75 -0.2943399
v -0.3000003 1.5 -0.3000001
v -0.3000003 1.5 0.3000001
v 0.3300001 1.606709 -0.3300001
v 0.3300001 1.606709 0.3300001
v 0.3300001 1.725 0.3300001
v 0.3300001 1.725 -0.3300001
v 0.2943398 0.75 -0.2943399
v 0.3000001 0 -0.3000001
v 0.3000001 0 0.3000001
v 0.2943398 0.75 0.2943399
v 0.3000001 1.5 -0.3000001
v 0.2943398 0.75 0.2943399
v 0.3000001 1.5 0.3000001
v -0.3000003 0 -0.3000001
v -0.3000003 0 0.3000001
v 0.3000001 0 0.3000001
v 0.3000001 0 -0.3000001
v -0.3300003 1.606709 -0.3300001
v 0.3300001 1.606709 -0.3300001
v 0.3300001 1.725 -0.3300001
v -0.3300003 1.725 -0.3300001
v -0.3300003 1.606709 0.3300001
v -0.3300003 1.606709 -0.3300001
v -0.3300003 1.725 -0.3300001
v -0.3300003 1.725 0.3300001
v -0.3000003 1.5 0.3000001
v -0.3000003 1.5 -0.3000001
v -0.3300003 1.606709 -0.3300001
v -0.3300003 1.606709 0.3300001
v -0.3000003 1.5 -0.3000001
v 0.3000001 1.5 -0.3000001
v 0.3300001 1.606709 -0.3300001
v -0.3300003 1.606709 -0.3300001
v 0.3000001 1.5 -0.3000001
v 0.3000001 1.5 0.3000001
v 0.3300001 1.606709 0.3300001
v 0.3300001 1.606709 -0.3300001
v 0.3000001 1.5 0.3000001
v -0.3000003 1.5 0.3000001
v -0.3300003 1.606709 0.3300001
v 0.3300001 1.606709 0.3300001
v -0.29434 0.75 -0.2943399
v -0.3000003 0 -0.3000001
v 0.3000001 0 -0.3000001
v 0.2943398 0.75 -0.2943399
v -0.3000003 1.5 -0.3000001
v 0.3000001 1.5 -0.3000001
v -0.3000003 0 0.3000001
v -0.3000003 0 -0.3000001
v -0.29434 0.75 -0.2943399
v -0.29434 0.75 0.2943399
v 0.3000001 1.5 0.3000001
v 0.2943398 0.75 0.2943399
v -0.29434 0.75 0.2943399
v -0.3000003 1.5 0.3000001

vn -0.301304 0.9535282 0
vn -0.301304 0.9535282 0
vn -0.301304 0.9535282 0
vn 0.301304 0.9535282 0
vn 0.301304 0.9535282 0
vn 0.301304 0.9535282 0
vn 0 0.9535281 0.3013044
vn 0 0.9535281 0.3013044
vn 0 0.9535281 0.3013044
vn 0 0.9535281 -0.3013044
vn 0 0.9535281 -0.3013044
vn 0 0.9535281 -0.3013044
vn 0 0 1
vn 0 0 1
vn 0 0 1
vn 0 0 1
vn 0 0.007546825 0.9999715
vn 0 0.007546825 0.9999715
vn 0 0.007546825 0.9999715
vn 0 0.007546825 0.9999715
vn -0.9999715 -0.007546846 0
vn -0.9999715 -0.007546846 0
vn -0.9999715 -0.007546846 0
vn -0.9999715 -0.007546846 0
vn 1 0 0
vn 1 0 0
vn 1 0 0
vn 1 0 0
vn 0.9999715 0.007546846 0
vn 0.9999715 0.007546846 0
vn 0.9999715 0.007546846 0
vn 0.9999715 0.007546846 0
vn 0.9999715 -0.007546845 0
vn 0.9999715 -0.007546845 0
vn 0.9999715 -0.007546845 0
vn 0 -1 0
vn 0 -1 0
vn 0 -1 0
vn 0 -1 0
vn 0 0 -1
vn 0 0 -1
vn 0 0 -1
vn 0 0 -1
vn -1 0 0
vn -1 0 0
vn -1 0 0
vn -1 0 0
vn -0.9626791 -0.2706452 0
vn -0.9626791 -0.2706452 0
vn -0.9626791 -0.2706452 0
vn -0.9626791 -0.2706452 0
vn 0 -0.2706452 -0.9626791
vn 0 -0.2706452 -0.9626791
vn 0 -0.2706452 -0.9626791
vn 0 -0.2706452 -0.9626791
vn 0.9626791 -0.2706452 0
vn 0.9626791 -0.2706452 0
vn 0.9626791 -0.2706452 0
vn 0.9626791 -0.2706452 0
vn 0 -0.2706452 0.9626791
vn 0 -0.2706452 0.9626791
vn 0 -0.2706452 0.9626791
vn 0 -0.2706452 0.9626791
vn 0 0.007546825 -0.9999715
vn 0 0.007546825 -0.9999715
vn 0 0.007546825 -0.9999715
vn 0 0.007546825 -0.9999715
vn 0 -0.007546825 -0.9999715
vn 0 -0.007546825 -0.9999715
vn -0.9999715 0.007546846 0
vn -0.9999715 0.007546846 0
vn -0.9999715 0.007546846 0
vn -0.9999715 0.007546846 0
vn 0 -0.007546825 0.9999715
vn 0 -0.007546825 0.9999715
vn 0 -0.007546825 0.9999715
vn 0 -0.007546825 0.9999715

vt 0.6694476 0.6714739
vt 0.674985 0.678391
vt 0.679629 0.6734144
vt 0.6808038 0.6811239
vt 0.674985 0.678391
vt 0.6719337 0.6860402
vt 0.679629 0.6734144
vt 0.674985 0.678391
vt 0.6808038 0.6811239
vt 0.6719337 0.6860402
vt 0.674985 0.678391
vt 0.6694476 0.6714739
vt 0.6818123 0.6812223
vt 0.6805397 0.6727346
vt 0.679629 0.6734144
vt 0.6808038 0.6811239
vt 0.6980592 0.6813257
vt 0.7176342 0.6813051
vt 0.7176342 0.6644903
vt 0.6967713 0.6673738
vt 0.6967713 0.6673738
vt 0.6920558 0.6523169
vt 0.6743405 0.6622593
vt 0.68148 0.6720753
vt 0.6750553 0.6894792
vt 0.6818123 0.6812223
vt 0.6808038 0.6811239
vt 0.6719337 0.6860402
vt 0.6966746 0.6953133
vt 0.7163699 0.6970584
vt 0.7176342 0.6813051
vt 0.6980592 0.6813257
vt 0.6791641 0.6918445
vt 0.6980592 0.6813257
vt 0.6828436 0.6813201
vt 0.734449 0.6644903
vt 0.7176342 0.6644903
vt 0.7176342 0.6813051
vt 0.734449 0.6813051
vt 0.6668369 0.6719195
vt 0.669323 0.6864858
vt 0.6719337 0.6860402
vt 0.6694476 0.6714739
vt 0.6805397 0.6727346
vt 0.6711528 0.6664925
vt 0.6694476 0.6714739
vt 0.679629 0.6734144
vt 0.68148 0.6720753
vt 0.6743405 0.6622593
vt 0.6711528 0.6664925
vt 0.6805397 0.6727346
vt 0.6645035 0.6729991
vt 0.6667636 0.6862413
vt 0.669323 0.6864858
vt 0.6668369 0.6719195
vt 0.6791641 0.6918445
vt 0.6828436 0.6813201
vt 0.6818123 0.6812223
vt 0.6750553 0.6894792
vt 0.6828436 0.6813201
vt 0.68148 0.6720753
vt 0.6805397 0.6727346
vt 0.6818123 0.6812223
vt 0.6479716 0.6759493
vt 0.6313972 0.6786495
vt 0.6336573 0.6918917
vt 0.6501891 0.6889415
vt 0.6645035 0.6729991
vt 0.6667636 0.6862413
vt 0.7176342 0.6644903
vt 0.7155619 0.6456654
vt 0.6920558 0.6523169
vt 0.6967713 0.6673738
vt 0.6828436 0.6813201
vt 0.6980592 0.6813257
vt 0.6967713 0.6673738
vt 0.68148 0.6720753

usemtl LOW-POLY-COLORS
usemap LOW-POLY-COLORS
f 2/2/2 1/1/1 3/3/3
f 5/5/5 4/4/4 6/6/6
f 8/8/8 7/7/7 9/9/9
f 11/11/11 10/10/10 12/12/12
f 14/14/14 13/13/13 15/15/15
f 15/15/15 13/13/13 16/16/16
f 18/18/18 17/17/17 19/19/19
f 19/19/19 17/17/17 20/20/20
f 22/22/22 21/21/21 23/23/23
f 23/23/23 21/21/21 24/24/24
f 26/26/26 25/25/25 27/27/27
f 27/27/27 25/25/25 28/28/28
f 30/30/30 29/29/29 31/31/31
f 31/31/31 29/29/29 32/32/32
f 29/29/29 33/33/33 34/34/34
f 34/34/34 33/33/33 35/35/35
f 37/37/37 36/36/36 38/38/38
f 38/38/38 36/36/36 39/39/39
f 41/41/41 40/40/40 42/42/42
f 42/42/42 40/40/40 43/43/43
f 45/45/45 44/44/44 46/46/46
f 46/46/46 44/44/44 47/47/47
f 49/49/49 48/48/48 50/50/50
f 50/50/50 48/48/48 51/51/51
f 53/53/53 52/52/52 54/54/54
f 54/54/54 52/52/52 55/55/55
f 57/57/57 56/56/56 58/58/58
f 58/58/58 56/56/56 59/59/59
f 61/61/61 60/60/60 62/62/62
f 62/62/62 60/60/60 63/63/63
f 65/65/65 64/64/64 66/66/66
f 66/66/66 64/64/64 67/67/67
f 64/64/64 68/68/68 67/67/67
f 67/67/67 68/68/68 69/69/69
f 71/71/71 70/70/70 72/72/72
f 72/72/72 70/70/70 73/73/73
f 75/75/75 74/74/74 76/76/76
f 76/76/76 74/74/74 77/77/77
