mtllib ./fence-stone-metal_4.mtl
g fence-stone-metal
v -2.000001 -1.341105E-07 0.2249717
v 2 -1.341105E-07 0.2249717
v 2 -1.341105E-07 -0.2249717
v -2.000001 -1.341105E-07 -0.2249717
v -1.999998 0.3299999 0.2249717
v 2.000002 0.3299999 0.2249717
v 2 -1.341105E-07 0.2249717
v -2.000001 -1.341105E-07 0.2249717
v 2.000004 0.3999999 0.168965
v -1.999996 0.3999999 0.168965
v -1.999996 0.3999999 -0.168965
v 2.000004 0.3999999 -0.168965
v -1.999998 0.3299999 -0.2249717
v 2.000002 0.3299999 -0.2249717
v 2.000004 0.3999999 -0.168965
v -1.999996 0.3999999 -0.168965
v 2.000002 0.3299999 -0.2249717
v 2.000004 0.3999999 0.168965
v 2.000004 0.3999999 -0.168965
v 2.000002 0.3299999 0.2249717
v 2 -1.341105E-07 -0.2249717
v 2 -1.341105E-07 0.2249717
v -1.999998 0.3299999 -0.2249717
v -1.999996 0.3999999 -0.168965
v -1.999996 0.3999999 0.168965
v -1.999998 0.3299999 0.2249717
v -2.000001 -1.341105E-07 -0.2249717
v -2.000001 -1.341105E-07 0.2249717
v 2.000004 1.495093 0.04999093
v -1.999996 1.495093 0.04999093
v -1.999996 1.495093 -0.04999093
v 2.000004 1.495093 -0.04999093
v 2.000004 0.3999999 -0.04999093
v 2.000004 1.495093 -0.04999093
v -1.999996 1.495093 -0.04999093
v -1.999996 0.3999999 -0.04999093
v 2.000004 0.3999999 0.04999093
v 2.000004 1.495093 0.04999093
v 2.000004 1.495093 -0.04999093
v 2.000004 0.3999999 -0.04999093
v -1.999996 0.3999999 0.04999093
v -1.999996 1.495093 0.04999093
v 2.000004 1.495093 0.04999093
v 2.000004 0.3999999 0.04999093
v -1.999996 0.3999999 -0.04999093
v -1.999996 1.495093 -0.04999093
v -1.999996 1.495093 0.04999093
v -1.999996 0.3999999 0.04999093
v -2.000001 -1.341105E-07 -0.2249717
v 2 -1.341105E-07 -0.2249717
v 2.000002 0.3299999 -0.2249717
v -1.999998 0.3299999 -0.2249717
v -1.999996 0.3999999 0.168965
v 2.000004 0.3999999 0.168965
v 2.000002 0.3299999 0.2249717
v -1.999998 0.3299999 0.2249717

vn 0 -1 0
vn 0 -1 0
vn 0 -1 0
vn 0 -1 0
vn 0 0 1
vn 0 0 1
vn 0 0 1
vn 0 0 1
vn 0 1 0
vn 0 1 0
vn 0 1 0
vn 0 1 0
vn 0 0.6247404 -0.7808325
vn 0 0.6247404 -0.7808325
vn 0 0.6247404 -0.7808325
vn 0 0.6247404 -0.7808325
vn 1 -3.40598E-05 0
vn 1 -3.40598E-05 0
vn 1 -3.40598E-05 0
vn 1 -3.40598E-05 0
vn 1 -7.224805E-06 0
vn 1 -7.224805E-06 0
vn -1 3.576279E-05 0
vn -1 3.576279E-05 0
vn -1 3.576279E-05 0
vn -1 3.576279E-05 0
vn -1 7.586044E-06 0
vn -1 7.586044E-06 0
vn 0 1 0
vn 0 1 0
vn 0 1 0
vn 0 1 0
vn 0 0 -1
vn 0 0 -1
vn 0 0 -1
vn 0 0 -1
vn 1 0 0
vn 1 0 0
vn 1 0 0
vn 1 0 0
vn 0 0 1
vn 0 0 1
vn 0 0 1
vn 0 0 1
vn -1 0 0
vn -1 0 0
vn -1 0 0
vn -1 0 0
vn 0 0 -1
vn 0 0 -1
vn 0 0 -1
vn 0 0 -1
vn 0 0.6247404 0.7808325
vn 0 0.6247404 0.7808325
vn 0 0.6247404 0.7808325
vn 0 0.6247404 0.7808325

vt 0.660801 0.6754202
vt 0.7289931 0.6754201
vt 0.7289931 0.6677495
vt 0.660801 0.6677495
vt 0.6608011 0.681046
vt 0.7289932 0.6810459
vt 0.7289931 0.6754201
vt 0.660801 0.6754202
vt 0.7289932 0.6825745
vt 0.6608011 0.6825744
vt 0.6608011 0.6883354
vt 0.7289932 0.6883355
vt 0.6608011 0.6898638
vt 0.7289932 0.689864
vt 0.7289932 0.6883355
vt 0.6608011 0.6883354
vt 0.7301866 0.6892903
vt 0.7289932 0.6825745
vt 0.7289932 0.6883355
vt 0.7301866 0.6816196
vt 0.7358124 0.6892903
vt 0.7358124 0.6816196
vt 0.6596078 0.6892903
vt 0.6608011 0.6883354
vt 0.6608011 0.6825744
vt 0.6596078 0.6816195
vt 0.6539818 0.6892903
vt 0.6539818 0.6816195
vt 0.2959534 0.3852747
vt 0.2959535 0.453467
vt 0.2976579 0.453467
vt 0.2976579 0.3852747
vt 0.3163272 0.3852747
vt 0.2976579 0.3852747
vt 0.2976579 0.453467
vt 0.3163272 0.4534671
vt 0.2772841 0.3852747
vt 0.2959534 0.3852747
vt 0.2959534 0.3835702
vt 0.2772841 0.3835702
vt 0.2772842 0.453467
vt 0.2959535 0.453467
vt 0.2959534 0.3852747
vt 0.2772841 0.3852747
vt 0.2772842 0.4551716
vt 0.2959535 0.4551716
vt 0.2959535 0.453467
vt 0.2772842 0.453467
vt 0.6608009 0.6954896
vt 0.7289931 0.6954898
vt 0.7289932 0.689864
vt 0.6608011 0.6898638
vt 0.6608011 0.6825744
vt 0.7289932 0.6825745
vt 0.7289932 0.6810459
vt 0.6608011 0.681046

usemtl LOW-POLY-COLORS
usemap LOW-POLY-COLORS
f 2/2/2 1/1/1 3/3/3
f 3/3/3 1/1/1 4/4/4
f 6/6/6 5/5/5 7/7/7
f 7/7/7 5/5/5 8/8/8
f 10/10/10 9/9/9 11/11/11
f 11/11/11 9/9/9 12/12/12
f 14/14/14 13/13/13 15/15/15
f 15/15/15 13/13/13 16/16/16
f 18/18/18 17/17/17 19/19/19
f 20/20/20 17/17/17 18/18/18
f 20/20/20 21/21/21 17/17/17
f 22/22/22 21/21/21 20/20/20
f 24/24/24 23/23/23 25/25/25
f 25/25/25 23/23/23 26/26/26
f 23/23/23 27/27/27 26/26/26
f 26/26/26 27/27/27 28/28/28
f 30/30/30 29/29/29 31/31/31
f 31/31/31 29/29/29 32/32/32
f 34/34/34 33/33/33 35/35/35
f 35/35/35 33/33/33 36/36/36
f 38/38/38 37/37/37 39/39/39
f 39/39/39 37/37/37 40/40/40
f 42/42/42 41/41/41 43/43/43
f 43/43/43 41/41/41 44/44/44
f 46/46/46 45/45/45 47/47/47
f 47/47/47 45/45/45 48/48/48
f 50/50/50 49/49/49 51/51/51
f 51/51/51 49/49/49 52/52/52
f 54/54/54 53/53/53 55/55/55
f 55/55/55 53/53/53 56/56/56
