mtllib ./fence-stone_2.mtl
g fence-stone
v -2.000001 -1.341105E-07 0.2249717
v 2 -1.341105E-07 0.2249717
v 2 -1.341105E-07 -0.2249717
v -2.000001 -1.341105E-07 -0.2249717
v -1.999996 0.7124997 -0.2249717
v 2.000009 1.425 -0.2249717
v -1.999991 1.425 -0.2249717
v 2.000004 0.7124997 -0.2249717
v -2.000001 -1.341105E-07 -0.2249717
v 2 -1.341105E-07 -0.2249717
v -1.999996 0.7124997 0.2249717
v 2 -1.341105E-07 0.2249717
v -2.000001 -1.341105E-07 0.2249717
v 2.000004 0.7124997 0.2249717
v -1.999991 1.425 0.2249717
v 2.000009 1.425 0.2249717
v 2.000009 1.425 -0.2249717
v 2.000009 1.495093 -0.1687288
v -1.999991 1.495093 -0.1687288
v -1.999991 1.425 -0.2249717
v -1.999991 1.495093 -0.1687288
v 2.000009 1.495093 -0.1687288
v 2.000009 1.495093 0.1687288
v -1.999991 1.495093 0.1687288
v 2.000009 1.425 0.2249717
v 2.000009 1.495093 0.1687288
v 2.000009 1.495093 -0.1687288
v 2.000009 1.425 -0.2249717
v 2.000004 0.7124997 -0.2249717
v 2.000004 0.7124997 0.2249717
v 2 -1.341105E-07 -0.2249717
v 2 -1.341105E-07 0.2249717
v -1.999991 1.425 -0.2249717
v -1.999991 1.495093 -0.1687288
v -1.999991 1.495093 0.1687288
v -1.999991 1.425 0.2249717
v -1.999996 0.7124997 -0.2249717
v -1.999996 0.7124997 0.2249717
v -2.000001 -1.341105E-07 -0.2249717
v -2.000001 -1.341105E-07 0.2249717
v -1.999991 1.425 0.2249717
v -1.999991 1.495093 0.1687288
v 2.000009 1.495093 0.1687288
v 2.000009 1.425 0.2249717

vn 0 -1 0
vn 0 -1 0
vn 0 -1 0
vn 0 -1 0
vn 0 0 -1
vn 0 0 -1
vn 0 0 -1
vn 0 0 -1
vn 0 0 -1
vn 0 0 -1
vn 0 0 1
vn 0 0 1
vn 0 0 1
vn 0 0 1
vn 0 0 1
vn 0 0 1
vn 0 0.6258343 -0.7799561
vn 0 0.6258343 -0.7799561
vn 0 0.6258343 -0.7799561
vn 0 0.6258343 -0.7799561
vn 0 1 0
vn 0 1 0
vn 0 1 0
vn 0 1 0
vn 1 -7.027074E-06 0
vn 1 0 0
vn 1 0 0
vn 1 -7.027074E-06 0
vn 1 -7.027074E-06 0
vn 1 -7.027074E-06 0
vn 1 -6.692453E-06 0
vn 1 -6.692453E-06 0
vn -1 7.027074E-06 0
vn -1 0 0
vn -1 0 0
vn -1 7.027074E-06 0
vn -1 7.027074E-06 0
vn -1 7.027074E-06 0
vn -1 7.027074E-06 0
vn -1 7.027074E-06 0
vn 0 0.6258343 0.7799561
vn 0 0.6258343 0.7799561
vn 0 0.6258343 0.7799561
vn 0 0.6258343 0.7799561

vt 0.6554939 0.6480189
vt 0.7130313 0.6480189
vt 0.7130313 0.6415468
vt 0.6554939 0.6415468
vt 0.6554939 0.6862048
vt 0.7130313 0.675956
vt 0.6554942 0.675956
vt 0.7130313 0.6862048
vt 0.6554939 0.6964537
vt 0.7130313 0.6964537
vt 0.6554939 0.6582676
vt 0.7130313 0.6480189
vt 0.6554939 0.6480189
vt 0.7130313 0.6582677
vt 0.6554942 0.6685164
vt 0.7130313 0.6685164
vt 0.7130313 0.675956
vt 0.7130313 0.6746633
vt 0.6554942 0.6746633
vt 0.6554942 0.675956
vt 0.6554942 0.6746633
vt 0.7130313 0.6746633
vt 0.7130313 0.6698092
vt 0.6554942 0.6698092
vt 0.7140396 0.6690001
vt 0.7130313 0.6698092
vt 0.7130313 0.6746633
vt 0.7140396 0.6754723
vt 0.7242887 0.6754723
vt 0.7242887 0.6690001
vt 0.7345374 0.6754723
vt 0.7345374 0.6690001
vt 0.6544859 0.6754723
vt 0.6554942 0.6746633
vt 0.6554942 0.6698092
vt 0.6544859 0.6690001
vt 0.6442372 0.6754723
vt 0.6442372 0.6690001
vt 0.6339881 0.6754723
vt 0.6339881 0.6690001
vt 0.6554942 0.6685164
vt 0.6554942 0.6698092
vt 0.7130313 0.6698092
vt 0.7130313 0.6685164

usemtl LOW-POLY-COLORS
usemap LOW-POLY-COLORS
f 2/2/2 1/1/1 3/3/3
f 3/3/3 1/1/1 4/4/4
f 6/6/6 5/5/5 7/7/7
f 8/8/8 5/5/5 6/6/6
f 8/8/8 9/9/9 5/5/5
f 10/10/10 9/9/9 8/8/8
f 12/12/12 11/11/11 13/13/13
f 14/14/14 11/11/11 12/12/12
f 14/14/14 15/15/15 11/11/11
f 16/16/16 15/15/15 14/14/14
f 18/18/18 17/17/17 19/19/19
f 19/19/19 17/17/17 20/20/20
f 22/22/22 21/21/21 23/23/23
f 23/23/23 21/21/21 24/24/24
f 26/26/26 25/25/25 27/27/27
f 27/27/27 25/25/25 28/28/28
f 25/25/25 29/29/29 28/28/28
f 30/30/30 29/29/29 25/25/25
f 30/30/30 31/31/31 29/29/29
f 32/32/32 31/31/31 30/30/30
f 34/34/34 33/33/33 35/35/35
f 35/35/35 33/33/33 36/36/36
f 33/33/33 37/37/37 36/36/36
f 36/36/36 37/37/37 38/38/38
f 37/37/37 39/39/39 38/38/38
f 38/38/38 39/39/39 40/40/40
f 42/42/42 41/41/41 43/43/43
f 43/43/43 41/41/41 44/44/44
