mtllib ./fence-big_8.mtl
g fence-big
v -0.05000019 -1.899898E-07 0.05000019
v -0.05000019 -1.899898E-07 -0.05000019
v -0.05000019 2.05 -0.05000019
v -0.05000019 2.05 0.05000019
v -0.05000019 -1.899898E-07 -0.05000019
v 0.05000019 -1.899898E-07 -0.05000019
v 0.05000019 2.05 -0.05000019
v -0.05000019 2.05 -0.05000019
v 0.05000019 -1.899898E-07 -0.05000019
v 0.05000019 -1.899898E-07 0.05000019
v 0.05000019 2.05 0.05000019
v 0.05000019 2.05 -0.05000019
v 0.05000019 -1.899898E-07 0.05000019
v -0.05000019 -1.899898E-07 0.05000019
v -0.05000019 2.05 0.05000019
v 0.05000019 2.05 0.05000019
v -0.05000019 -1.899898E-07 -0.05000019
v -0.05000019 -1.899898E-07 0.05000019
v 0.05000019 -1.899898E-07 0.05000019
v 0.05000019 -1.899898E-07 -0.05000019
v 0.05000019 2.05 -0.05000019
v 0.05000019 2.05 0.05000019
v -0.05000019 2.05 0.05000019
v -0.05000019 2.05 -0.05000019
v 0.05000591 1.339368 0.02000008
v 0.05000591 1.339368 -0.02000008
v 0.05000591 2 -0.02000008
v 0.05000591 2 0.02000008
v 0.05000591 1.339368 -0.02000008
v 1.95 1.339368 -0.02000008
v 1.95 2 -0.02000008
v 0.05000591 2 -0.02000008
v 1.95 1.339368 -0.02000008
v 1.95 1.339368 0.02000008
v 1.95 2 0.02000008
v 1.95 2 -0.02000008
v 1.95 1.339368 0.02000008
v 0.05000591 1.339368 0.02000008
v 0.05000591 2 0.02000008
v 1.95 2 0.02000008
v 0.05000591 -1.899898E-07 -0.02000008
v 0.05000591 -1.899898E-07 0.02000008
v 1.95 -1.899898E-07 0.02000008
v 1.95 -1.899898E-07 -0.02000008
v 1.95 2 -0.02000008
v 1.95 2 0.02000008
v 0.05000591 2 0.02000008
v 0.05000591 2 -0.02000008
v 1.95 -1.899898E-07 0.02000008
v 0.05000591 -1.899898E-07 0.02000008
v 0.05000591 0.6571407 0.02000008
v 1.95 0.6571407 0.02000008
v 1.95 0.665567 0.02000008
v 0.05000591 0.665567 0.02000008
v 0.05000591 1.321812 0.02000008
v 1.95 1.321812 0.02000008
v 1.95 -1.899898E-07 -0.02000008
v 1.95 -1.899898E-07 0.02000008
v 1.95 0.6571407 0.02000008
v 1.95 0.6571407 -0.02000008
v 1.95 0.665567 -0.02000008
v 1.95 0.665567 0.02000008
v 1.95 1.321812 0.02000008
v 1.95 1.321812 -0.02000008
v 0.05000591 -1.899898E-07 -0.02000008
v 1.95 -1.899898E-07 -0.02000008
v 1.95 0.6571407 -0.02000008
v 0.05000591 0.6571407 -0.02000008
v 0.05000591 0.665567 -0.02000008
v 1.95 0.665567 -0.02000008
v 1.95 1.321812 -0.02000008
v 0.05000591 1.321812 -0.02000008
v 0.05000591 -1.899898E-07 0.02000008
v 0.05000591 -1.899898E-07 -0.02000008
v 0.05000591 0.6571407 -0.02000008
v 0.05000591 0.6571407 0.02000008
v 0.05000591 0.665567 0.02000008
v 0.05000591 0.665567 -0.02000008
v 0.05000591 1.321812 -0.02000008
v 0.05000591 1.321812 0.02000008
v 1.95 1.321812 -0.02000008
v 1.95 1.321812 0.02000008
v 0.05000591 1.321812 0.02000008
v 0.05000591 1.321812 -0.02000008
v 1.95 1.339368 0.02000008
v 1.95 1.339368 -0.02000008
v 0.05000591 1.339368 -0.02000008
v 0.05000591 1.339368 0.02000008
v 1.95 0.665567 0.02000008
v 1.95 0.665567 -0.02000008
v 0.05000591 0.665567 -0.02000008
v 0.05000591 0.665567 0.02000008
v 1.95 0.6571407 -0.02000008
v 1.95 0.6571407 0.02000008
v 0.05000591 0.6571407 0.02000008
v 0.05000591 0.6571407 -0.02000008

vn -1 0 0
vn -1 0 0
vn -1 0 0
vn -1 0 0
vn 0 0 -1
vn 0 0 -1
vn 0 0 -1
vn 0 0 -1
vn 1 0 0
vn 1 0 0
vn 1 0 0
vn 1 0 0
vn 0 0 1
vn 0 0 1
vn 0 0 1
vn 0 0 1
vn 0 -1 0
vn 0 -1 0
vn 0 -1 0
vn 0 -1 0
vn 0 1 0
vn 0 1 0
vn 0 1 0
vn 0 1 0
vn -1 0 0
vn -1 0 0
vn -1 0 0
vn -1 0 0
vn 0 0 -1
vn 0 0 -1
vn 0 0 -1
vn 0 0 -1
vn 1 0 0
vn 1 0 0
vn 1 0 0
vn 1 0 0
vn 0 0 1
vn 0 0 1
vn 0 0 1
vn 0 0 1
vn 0 -1 0
vn 0 -1 0
vn 0 -1 0
vn 0 -1 0
vn 0 1 0
vn 0 1 0
vn 0 1 0
vn 0 1 0
vn 0 0 1
vn 0 0 1
vn 0 0 1
vn 0 0 1
vn 0 0 1
vn 0 0 1
vn 0 0 1
vn 0 0 1
vn 1 0 0
vn 1 0 0
vn 1 0 0
vn 1 0 0
vn 1 0 0
vn 1 0 0
vn 1 0 0
vn 1 0 0
vn 0 0 -1
vn 0 0 -1
vn 0 0 -1
vn 0 0 -1
vn 0 0 -1
vn 0 0 -1
vn 0 0 -1
vn 0 0 -1
vn -1 0 0
vn -1 0 0
vn -1 0 0
vn -1 0 0
vn -1 0 0
vn -1 0 0
vn -1 0 0
vn -1 0 0
vn 0 1 0
vn 0 1 0
vn 0 1 0
vn 0 1 0
vn 0 -1 0
vn 0 -1 0
vn 0 -1 0
vn 0 -1 0
vn 0 -1 0
vn 0 -1 0
vn 0 -1 0
vn 0 -1 0
vn 0 1 0
vn 0 1 0
vn 0 1 0
vn 0 1 0

vt 0.4554783 0.6557549
vt 0.4525892 0.6557549
vt 0.4525892 0.7092031
vt 0.4554783 0.7092031
vt 0.4641457 0.6557549
vt 0.4612565 0.6557549
vt 0.4612565 0.7092031
vt 0.4641456 0.7092031
vt 0.4612565 0.6557549
vt 0.4583674 0.6557549
vt 0.4583674 0.7092031
vt 0.4612565 0.7092031
vt 0.4583674 0.6557549
vt 0.4554783 0.6557549
vt 0.4554783 0.7092031
vt 0.4583674 0.7092031
vt 0.4554783 0.6528656
vt 0.4554783 0.6557549
vt 0.4583674 0.6557549
vt 0.4583674 0.6528656
vt 0.4583674 0.7120922
vt 0.4583674 0.7092031
vt 0.4554783 0.7092031
vt 0.4554783 0.7120922
vt 0.1353613 0.7634975
vt 0.1342057 0.7634975
vt 0.1342057 0.780832
vt 0.1353613 0.780832
vt 0.1342057 0.8569422
vt 0.1890984 0.8569422
vt 0.1890984 0.8396076
vt 0.1342057 0.8396076
vt 0.1914094 0.7634975
vt 0.1902537 0.7634975
vt 0.1902537 0.780832
vt 0.1914094 0.780832
vt 0.1902537 0.7634975
vt 0.1353613 0.7634975
vt 0.1353613 0.780832
vt 0.1902537 0.780832
vt 0.1353613 0.7824237
vt 0.1353613 0.7835795
vt 0.1902537 0.7835793
vt 0.1902537 0.7824237
vt 0.1902537 0.7819878
vt 0.1902537 0.780832
vt 0.1353613 0.780832
vt 0.1353613 0.7819877
vt 0.1902537 0.7835793
vt 0.1353613 0.7835795
vt 0.1353613 0.800914
vt 0.1902538 0.8009139
vt 0.1902537 0.8036614
vt 0.1353613 0.8036614
vt 0.1353613 0.8202453
vt 0.1902537 0.8202453
vt 0.1914094 0.7835793
vt 0.1902537 0.7835793
vt 0.1902538 0.8009139
vt 0.1914095 0.8009139
vt 0.1914094 0.8036614
vt 0.1902537 0.8036614
vt 0.1902537 0.8202453
vt 0.1914094 0.8202453
vt 0.1342057 0.8391716
vt 0.1890984 0.8391716
vt 0.1890984 0.821837
vt 0.1342057 0.821837
vt 0.1895343 0.838421
vt 0.244427 0.838421
vt 0.244427 0.821837
vt 0.1895343 0.821837
vt 0.1353613 0.7835795
vt 0.1342057 0.7835795
vt 0.1342057 0.800914
vt 0.1353613 0.800914
vt 0.1353613 0.8036614
vt 0.1342057 0.8036614
vt 0.1342057 0.8202453
vt 0.1353613 0.8202453
vt 0.1902537 0.8214012
vt 0.1902537 0.8202453
vt 0.1353613 0.8202453
vt 0.1353613 0.8214009
vt 0.1902537 0.7634975
vt 0.1902537 0.7623416
vt 0.1353613 0.7623418
vt 0.1353613 0.7634975
vt 0.1902537 0.8036614
vt 0.1902537 0.8025056
vt 0.1353613 0.8025059
vt 0.1353613 0.8036614
vt 0.1902538 0.8020697
vt 0.1902538 0.8009139
vt 0.1353613 0.800914
vt 0.1353614 0.8020697

usemtl LOW-POLY-COLORS
usemap LOW-POLY-COLORS
f 2/2/2 1/1/1 3/3/3
f 3/3/3 1/1/1 4/4/4
f 6/6/6 5/5/5 7/7/7
f 7/7/7 5/5/5 8/8/8
f 10/10/10 9/9/9 11/11/11
f 11/11/11 9/9/9 12/12/12
f 14/14/14 13/13/13 15/15/15
f 15/15/15 13/13/13 16/16/16
f 18/18/18 17/17/17 19/19/19
f 19/19/19 17/17/17 20/20/20
f 22/22/22 21/21/21 23/23/23
f 23/23/23 21/21/21 24/24/24
f 26/26/26 25/25/25 27/27/27
f 27/27/27 25/25/25 28/28/28
f 30/30/30 29/29/29 31/31/31
f 31/31/31 29/29/29 32/32/32
f 34/34/34 33/33/33 35/35/35
f 35/35/35 33/33/33 36/36/36
f 38/38/38 37/37/37 39/39/39
f 39/39/39 37/37/37 40/40/40
f 42/42/42 41/41/41 43/43/43
f 43/43/43 41/41/41 44/44/44
f 46/46/46 45/45/45 47/47/47
f 47/47/47 45/45/45 48/48/48
f 50/50/50 49/49/49 51/51/51
f 51/51/51 49/49/49 52/52/52
f 54/54/54 53/53/53 55/55/55
f 55/55/55 53/53/53 56/56/56
f 58/58/58 57/57/57 59/59/59
f 59/59/59 57/57/57 60/60/60
f 62/62/62 61/61/61 63/63/63
f 63/63/63 61/61/61 64/64/64
f 66/66/66 65/65/65 67/67/67
f 67/67/67 65/65/65 68/68/68
f 70/70/70 69/69/69 71/71/71
f 71/71/71 69/69/69 72/72/72
f 74/74/74 73/73/73 75/75/75
f 75/75/75 73/73/73 76/76/76
f 78/78/78 77/77/77 79/79/79
f 79/79/79 77/77/77 80/80/80
f 82/82/82 81/81/81 83/83/83
f 83/83/83 81/81/81 84/84/84
f 86/86/86 85/85/85 87/87/87
f 87/87/87 85/85/85 88/88/88
f 90/90/90 89/89/89 91/91/91
f 91/91/91 89/89/89 92/92/92
f 94/94/94 93/93/93 95/95/95
f 95/95/95 93/93/93 96/96/96
