mtllib ./SM_Env_WoodEdge_Straight_01_3.mtl
g SM_Env_WoodEdge_Straight_01
v -0.6891727 0.1021376 -0.02846527
v -0.8668289 0.09476972 0.03228378
v -0.8868103 0.05699432 -0.008865356
v -0.8868103 0.05699432 -0.008865356
v -0.8668289 0.09476972 0.03228378
v -0.9886951 0.09490782 -0.01488113
v -1.853977 0.1005427 0.03318024
v -1.712721 0.09585679 -0.01372528
v -1.735855 0.05516264 0.02723312
v -1.712721 0.09585679 -0.01372528
v -1.615433 0.0957098 0.03387833
v -1.735855 0.05516264 0.02723312
v -0.1195049 0.1152669 0.05187607
v -0.07570076 0.1152669 0.01398087
v -0.07570076 0.07464153 0.05187607
v -2.418039 0.1152669 -0.0310936
v -2.418039 0.07611871 -0.06339264
v -2.363914 0.1152669 -0.06339264
v -0.8454113 0.09476972 0.0763855
v -0.3369846 -7.450581E-09 0.05187607
v -0.8454113 -7.450581E-09 0.0763855
v -0.3369846 0.1152669 0.05187607
v -0.1195049 0.1152669 0.05187607
v -0.07570076 -7.450581E-09 0.05187607
v -0.07570076 0.07464153 0.05187607
v -0.07570076 0.1152669 -0.06339264
v -0.07570076 -7.450581E-09 -0.06339264
v -0.07570076 -7.450581E-09 0.05187607
v -0.07570076 0.07464153 0.05187607
v -0.07570076 0.1152669 0.01398087
v -2.418039 0.1152669 0.05187607
v -2.418039 -7.450581E-09 0.05187607
v -2.418039 -7.450581E-09 -0.06339264
v -2.418039 0.07611871 -0.06339264
v -2.418039 0.1152669 -0.0310936
v -2.418039 0.1152669 -0.0310936
v -2.363914 0.1152669 -0.06339264
v -2.225153 0.1152669 -0.06339264
v -2.225153 0.1152669 0.05187607
v -2.418039 0.1152669 0.05187607
v -1.688713 0.09585679 -0.05623245
v -1.712721 0.09585679 -0.01372528
v -1.853977 0.1005427 0.03318024
v -0.9886951 0.09490782 -0.01488113
v -0.8668289 0.09476972 0.03228378
v -1.615433 0.0957098 0.03387833
v -0.8454113 0.09476972 0.0763855
v -0.3369846 0.1152669 0.05187607
v -0.6891727 0.1021376 -0.02846527
v -0.3369846 0.1152669 -0.06339264
v -0.07570076 0.1152669 -0.06339264
v -0.07570076 0.1152669 0.01398087
v -0.1195049 0.1152669 0.05187607
v -2.418039 -7.450581E-09 0.05187607
v -2.418039 0.1152669 0.05187607
v -2.225153 0.1152669 0.05187607
v -2.225153 -7.450581E-09 0.05187607
v -1.853977 0.1005427 0.03318024
v -1.735855 -7.450581E-09 0.02723312
v -1.735855 0.05516264 0.02723312
v -2.418039 -7.450581E-09 -0.06339264
v -2.418039 -7.450581E-09 0.05187607
v -2.225153 -7.450581E-09 0.05187607
v -2.225153 -7.450581E-09 -0.06339264
v -1.688713 -7.450581E-09 -0.05623245
v -1.735855 -7.450581E-09 0.02723312
v -0.8868103 -7.450581E-09 -0.008865356
v -0.8454113 -7.450581E-09 0.0763855
v -0.3369846 -7.450581E-09 -0.06339264
v -0.3369846 -7.450581E-09 0.05187607
v -0.07570076 -7.450581E-09 -0.06339264
v -0.07570076 -7.450581E-09 0.05187607
v -2.363914 0.1152669 -0.06339264
v -2.418039 0.07611871 -0.06339264
v -2.418039 -7.450581E-09 -0.06339264
v -2.225153 0.1152669 -0.06339264
v -2.225153 -7.450581E-09 -0.06339264
v -1.688713 0.09585679 -0.05623245
v -1.688713 -7.450581E-09 -0.05623245
v -0.9886951 0.09490782 -0.01488113
v -0.8868103 0.05699432 -0.008865356
v -0.8868103 -7.450581E-09 -0.008865356
v -0.3369846 -7.450581E-09 -0.06339264
v -0.07570076 -7.450581E-09 -0.06339264
v -0.07570076 0.1152669 -0.06339264
v -0.3369846 0.1152669 -0.06339264
v -1.615433 0.0957098 0.03387833
v -0.8454113 0.09476972 0.0763855
v -0.8454113 -7.450581E-09 0.0763855
v -1.735855 -7.450581E-09 0.02723312
v -1.735855 0.05516264 0.02723312
v -0.8868103 -7.450581E-09 -0.008865356
v -0.3369846 -7.450581E-09 -0.06339264
v -0.3369846 0.1152669 -0.06339264
v -0.6891727 0.1021376 -0.02846527
v -0.8868103 0.05699432 -0.008865356

vn -0.2347351 0.770185 -0.5930551
vn -0.2347351 0.770185 -0.5930551
vn -0.2347351 0.770185 -0.5930551
vn 0.2791516 0.6360122 -0.7194184
vn 0.2791516 0.6360122 -0.7194184
vn 0.2791516 0.6360122 -0.7194184
vn 0.2693903 0.6027841 0.7510527
vn 0.2693903 0.6027841 0.7510527
vn 0.2693903 0.6027841 0.7510527
vn -0.2869321 0.7556816 0.5887403
vn -0.2869321 0.7556816 0.5887403
vn -0.2869321 0.7556816 0.5887403
vn 0.5346152 0.5764467 0.6179773
vn 0.5346152 0.5764467 0.6179773
vn 0.5346152 0.5764467 0.6179773
vn -0.4181361 0.5780991 -0.7006879
vn -0.4181361 0.5780991 -0.7006879
vn -0.4181361 0.5780991 -0.7006879
vn 0.04815051 0 0.9988402
vn 0.01605431 0 0.9998711
vn 0.04815051 0 0.9988402
vn 0.02408224 0 0.9997099
vn 0 0 1
vn 0 0 1
vn 0 0 1
vn 1 0 0
vn 1 0 0
vn 1 0 0
vn 1 0 0
vn 1 0 0
vn -1 0 0
vn -1 0 0
vn -1 0 0
vn -1 0 0
vn -1 0 0
vn 0 1 0
vn 0 1 0
vn 0.01205494 0.9999274 0
vn 0.02355219 0.9996802 0.009216771
vn 0 1 0
vn 0.02609132 0.9996282 0.007927203
vn 0.01709438 0.9998099 0.009377468
vn 0.04078602 0.9989023 0.0230367
vn 0.001310905 0.9999992 0.0001421738
vn -0.01489543 0.9998757 0.005184229
vn 0.001255687 0.9999993 -4.513266E-05
vn -0.01905512 0.9997756 0.009253956
vn -0.01925994 0.9998048 0.004411291
vn -0.03809039 0.9992675 0.003674897
vn -0.01862998 0.9998265 0
vn 0 1 0
vn 0 1 0
vn 0 1 0
vn 0 0 1
vn 0 0 1
vn 0.02516069 0 0.9996834
vn 0.03354463 0 0.9994372
vn 0.05029635 0 0.9987343
vn 0.05029181 0 0.9987345
vn 0.05028348 0 0.998735
vn 0 -1 0
vn 0 -1 0
vn 0 -1 0
vn 0 -1 0
vn 0 -1 0
vn 0 -1 0
vn 0 -1 0
vn 0 -1 0
vn 0 -1 0
vn 0 -1 0
vn 0 -1 0
vn 0 -1 0
vn 0 0 -1
vn 0 0 -1
vn 0 0 -1
vn 0.004448893 0 -0.9999901
vn 0.006673356 0 -0.9999777
vn 0.03616713 0 -0.9993457
vn 0.04757001 0 -0.9988679
vn 0.05896543 0 -0.9982601
vn 0.05896372 0 -0.9982601
vn 0.0589656 0 -0.9982601
vn 0 0 -1
vn 0 0 -1
vn 0 0 -1
vn 0 0 -1
vn -0.05511109 0 0.9984803
vn -0.05511866 0 0.9984798
vn -0.05511731 0 0.9984799
vn -0.0551073 0 0.9984805
vn -0.05509864 0 0.998481
vn -0.09868774 0 -0.9951185
vn -0.09868783 0 -0.9951184
vn -0.09868816 0 -0.9951184
vn -0.0986877 0 -0.9951185
vn -0.0986869 0 -0.9951185

vt 0.1522687 0.4738708
vt 0.1522687 0.4738708
vt 0.1522687 0.4738708
vt 0.1522687 0.4738708
vt 0.1522687 0.4738708
vt 0.1522687 0.4738708
vt 0.1522687 0.4738708
vt 0.1522687 0.4738708
vt 0.1522687 0.4738708
vt 0.1522687 0.4738708
vt 0.1522687 0.4738708
vt 0.1522687 0.4738708
vt 0.1522687 0.4738708
vt 0.1522687 0.4738708
vt 0.1522687 0.4738708
vt 0.1522687 0.4738708
vt 0.1522687 0.4738708
vt 0.1522687 0.4738708
vt 0.1522687 0.4738708
vt 0.1522687 0.4738708
vt 0.1522687 0.4738708
vt 0.1522687 0.4738708
vt 0.1522687 0.4738708
vt 0.1522687 0.4738708
vt 0.1522687 0.4738708
vt 0.1522687 0.4738708
vt 0.1522687 0.4738708
vt 0.1522687 0.4738708
vt 0.1522687 0.4738708
vt 0.1522687 0.4738708
vt 0.1522687 0.4738708
vt 0.1522687 0.4738708
vt 0.1522687 0.4738708
vt 0.1522687 0.4738708
vt 0.1522687 0.4738708
vt 0.1522687 0.4738708
vt 0.1522687 0.4738708
vt 0.1522687 0.4738708
vt 0.1522687 0.4738708
vt 0.1522687 0.4738708
vt 0.1522687 0.4738708
vt 0.1522687 0.4738708
vt 0.1522687 0.4738708
vt 0.1522687 0.4738708
vt 0.1522687 0.4738708
vt 0.1522687 0.4738708
vt 0.1522687 0.4738708
vt 0.1522687 0.4738708
vt 0.1522687 0.4738708
vt 0.1522687 0.4738708
vt 0.1522687 0.4738708
vt 0.1522687 0.4738708
vt 0.1522687 0.4738708
vt 0.1522687 0.4738708
vt 0.1522687 0.4738708
vt 0.1522687 0.4738708
vt 0.1522687 0.4738708
vt 0.1522687 0.4738708
vt 0.1522687 0.4738708
vt 0.1522687 0.4738708
vt 0.1522687 0.4738708
vt 0.1522687 0.4738708
vt 0.1522687 0.4738708
vt 0.1522687 0.4738708
vt 0.1522687 0.4738708
vt 0.1522687 0.4738708
vt 0.1522687 0.4738708
vt 0.1522687 0.4738708
vt 0.1522687 0.4738708
vt 0.1522687 0.4738708
vt 0.1522687 0.4738708
vt 0.1522687 0.4738708
vt 0.1522687 0.4738708
vt 0.1522687 0.4738708
vt 0.1522687 0.4738708
vt 0.1522687 0.4738708
vt 0.1522687 0.4738708
vt 0.1522687 0.4738708
vt 0.1522687 0.4738708
vt 0.1522687 0.4738708
vt 0.1522687 0.4738708
vt 0.1522687 0.4738708
vt 0.1522687 0.4738708
vt 0.1522687 0.4738708
vt 0.1522687 0.4738708
vt 0.1522687 0.4738708
vt 0.1522687 0.4738708
vt 0.1522687 0.4738708
vt 0.1522687 0.4738708
vt 0.1522687 0.4738708
vt 0.1522687 0.4738708
vt 0.1522687 0.4738708
vt 0.1522687 0.4738708
vt 0.1522687 0.4738708
vt 0.1522687 0.4738708
vt 0.1522687 0.4738708

usemtl PolygonSamurai_Mat_01
usemap PolygonSamurai_Mat_01
f 2/2/2 1/1/1 3/3/3
f 5/5/5 4/4/4 6/6/6
f 8/8/8 7/7/7 9/9/9
f 11/11/11 10/10/10 12/12/12
f 14/14/14 13/13/13 15/15/15
f 17/17/17 16/16/16 18/18/18
f 20/20/20 19/19/19 21/21/21
f 22/22/22 19/19/19 20/20/20
f 22/22/22 20/20/20 23/23/23
f 20/20/20 24/24/24 23/23/23
f 25/25/25 23/23/23 24/24/24
f 27/27/27 26/26/26 28/28/28
f 29/29/29 28/28/28 26/26/26
f 30/30/30 29/29/29 26/26/26
f 32/32/32 31/31/31 33/33/33
f 34/34/34 33/33/33 31/31/31
f 35/35/35 34/34/34 31/31/31
f 37/37/37 36/36/36 38/38/38
f 39/39/39 38/38/38 36/36/36
f 40/40/40 39/39/39 36/36/36
f 38/38/38 39/39/39 41/41/41
f 42/42/42 41/41/41 39/39/39
f 43/43/43 42/42/42 39/39/39
f 41/41/41 42/42/42 44/44/44
f 45/45/45 44/44/44 42/42/42
f 46/46/46 45/45/45 42/42/42
f 47/47/47 45/45/45 46/46/46
f 47/47/47 48/48/48 45/45/45
f 45/45/45 48/48/48 49/49/49
f 50/50/50 49/49/49 48/48/48
f 50/50/50 48/48/48 51/51/51
f 52/52/52 51/51/51 48/48/48
f 53/53/53 52/52/52 48/48/48
f 55/55/55 54/54/54 56/56/56
f 56/56/56 54/54/54 57/57/57
f 56/56/56 57/57/57 58/58/58
f 57/57/57 59/59/59 58/58/58
f 60/60/60 58/58/58 59/59/59
f 62/62/62 61/61/61 63/63/63
f 63/63/63 61/61/61 64/64/64
f 65/65/65 63/63/63 64/64/64
f 66/66/66 63/63/63 65/65/65
f 67/67/67 66/66/66 65/65/65
f 68/68/68 66/66/66 67/67/67
f 69/69/69 68/68/68 67/67/67
f 70/70/70 68/68/68 69/69/69
f 71/71/71 70/70/70 69/69/69
f 72/72/72 70/70/70 71/71/71
f 74/74/74 73/73/73 75/75/75
f 73/73/73 76/76/76 75/75/75
f 77/77/77 75/75/75 76/76/76
f 78/78/78 77/77/77 76/76/76
f 79/79/79 77/77/77 78/78/78
f 78/78/78 80/80/80 79/79/79
f 80/80/80 81/81/81 79/79/79
f 82/82/82 79/79/79 81/81/81
f 84/84/84 83/83/83 85/85/85
f 85/85/85 83/83/83 86/86/86
f 88/88/88 87/87/87 89/89/89
f 90/90/90 89/89/89 87/87/87
f 91/91/91 90/90/90 87/87/87
f 93/93/93 92/92/92 94/94/94
f 95/95/95 94/94/94 92/92/92
f 96/96/96 95/95/95 92/92/92
