mtllib ./SM_Env_Rock_03_41.mtl
g SM_Env_Rock_03
v -0.005111694 0.9290572 -0.4177399
v -0.02077866 1.119787 -0.2222214
v -0.3528328 1.019711 -0.1444321
v -0.005111694 0.9290572 -0.4177399
v -0.3528328 1.019711 -0.1444321
v -0.5993614 0.797397 -0.299324
v -0.2519188 0.8538668 0.2913971
v 0.3115082 0.6653053 0.1439438
v 0.4210892 0.4372676 0.3810425
v -0.2923164 0.5126649 0.625679
v -0.02077866 1.119787 -0.2222214
v 0.248539 1.022462 -0.0916748
v 0.2788582 0.9871572 0.1111679
v -0.2132339 1.082159 0.1622925
v 0.06104279 0.5063969 -0.629097
v 0.3505707 0.4564494 -0.2005005
v 0.3218498 0.7114949 -0.1464386
v -0.005111694 0.9290572 -0.4177399
v 0.4210892 0.4372676 0.3810425
v 0.3115082 0.6653053 0.1439438
v 0.3218498 0.7114949 -0.1464386
v 0.3505707 0.4564494 -0.2005005
v -0.5909309 0.5562845 -0.399292
v -0.5993614 0.797397 -0.299324
v -0.5883217 0.7383742 0.06536102
v -0.6111298 0.537809 0.2782669
v -0.3600311 0.9742604 0.09672546
v -0.3528328 1.019711 -0.1444321
v -0.02077866 1.119787 -0.2222214
v -0.2132339 1.082159 0.1622925
v -0.6111298 0.537809 0.2782669
v -0.5883217 0.7383742 0.06536102
v -0.2519188 0.8538668 0.2913971
v -0.2923164 0.5126649 0.625679
v -0.5993614 0.797397 -0.299324
v 0.06104279 0.5063969 -0.629097
v -0.005111694 0.9290572 -0.4177399
v -0.5909309 0.5562845 -0.399292
v 0.1761703 0.2518762 -0.7639236
v -0.7118492 0.2605017 -0.480751
v -0.2519188 0.8538668 0.2913971
v -0.2132339 1.082159 0.1622925
v 0.2788582 0.9871572 0.1111679
v 0.3115082 0.6653053 0.1439438
v 0.3115082 0.6653053 0.1439438
v 0.2788582 0.9871572 0.1111679
v 0.248539 1.022462 -0.0916748
v 0.3218498 0.7114949 -0.1464386
v 0.3218498 0.7114949 -0.1464386
v 0.248539 1.022462 -0.0916748
v -0.02077866 1.119787 -0.2222214
v -0.005111694 0.9290572 -0.4177399
v -0.3600311 0.9742604 0.09672546
v -0.2132339 1.082159 0.1622925
v -0.2519188 0.8538668 0.2913971
v -0.5883217 0.7383742 0.06536102
v -0.5993614 0.797397 -0.299324
v -0.3528328 1.019711 -0.1444321
v -0.3600311 0.9742604 0.09672546
v -0.5883217 0.7383742 0.06536102
v -0.2923164 0.5126649 0.625679
v -0.3246536 0.2530939 0.7639313
v -0.7088547 0.2665694 0.4351578
v -0.6111298 0.537809 0.2782669
v -0.6111298 0.537809 0.2782669
v -0.7118492 0.2605017 -0.480751
v -0.5909309 0.5562845 -0.399292
v -0.7088547 0.2665694 0.4351578
v -0.8086014 0.01123649 -0.4593277
v -0.8031731 0.01354563 0.4157715
v 0.3505707 0.4564494 -0.2005005
v 0.7017746 0.2114613 -0.3652878
v 0.7753716 0.2120525 0.4469528
v 0.4210892 0.4372676 0.3810425
v 0.4210892 0.4372676 0.3810425
v 0.7753716 0.2120525 0.4469528
v -0.3246536 0.2530939 0.7639313
v -0.2923164 0.5126649 0.625679
v 0.06104279 0.5063969 -0.629097
v 0.1761703 0.2518762 -0.7639236
v 0.7017746 0.2114613 -0.3652878
v 0.3505707 0.4564494 -0.2005005
v 0.5276833 -0.1561022 -0.2432404
v 0.1160851 -0.1554357 -0.5086899
v -0.5635529 -0.1510077 -0.3201294
v -0.5597687 -0.1493984 0.289772
v 0.563549 -0.1562327 0.2976227
v -0.211525 -0.1554357 0.5086975
v -0.3246536 0.2530939 0.7639313
v -0.3035011 0.004883111 0.7298889
v -0.8031731 0.01354563 0.4157715
v -0.7088547 0.2665694 0.4351578
v -0.7118492 0.2605017 -0.480751
v -0.8086014 0.01123649 -0.4593277
v 0.1665611 0.004883111 -0.7298813
v 0.1761703 0.2518762 -0.7639236
v 0.1761703 0.2518762 -0.7639236
v 0.1665611 0.004883111 -0.7298813
v 0.7571335 0.003926873 -0.3490143
v 0.7017746 0.2114613 -0.3652878
v 0.7017746 0.2114613 -0.3652878
v 0.7571335 0.003926873 -0.3490143
v 0.8085976 0.003739357 0.4270401
v 0.7753716 0.2120525 0.4469528
v 0.7753716 0.2120525 0.4469528
v 0.8085976 0.003739357 0.4270401
v -0.3035011 0.004883111 0.7298889
v -0.3246536 0.2530939 0.7639313
v -0.3035011 0.004883111 0.7298889
v -0.211525 -0.1554357 0.5086975
v -0.5597687 -0.1493984 0.289772
v -0.8031731 0.01354563 0.4157715
v -0.8031731 0.01354563 0.4157715
v -0.5597687 -0.1493984 0.289772
v -0.5635529 -0.1510077 -0.3201294
v -0.8086014 0.01123649 -0.4593277
v -0.8086014 0.01123649 -0.4593277
v -0.5635529 -0.1510077 -0.3201294
v 0.1160851 -0.1554357 -0.5086899
v 0.1665611 0.004883111 -0.7298813
v 0.1665611 0.004883111 -0.7298813
v 0.1160851 -0.1554357 -0.5086899
v 0.5276833 -0.1561022 -0.2432404
v 0.7571335 0.003926873 -0.3490143
v 0.7571335 0.003926873 -0.3490143
v 0.5276833 -0.1561022 -0.2432404
v 0.563549 -0.1562327 0.2976227
v 0.8085976 0.003739357 0.4270401
v 0.8085976 0.003739357 0.4270401
v 0.563549 -0.1562327 0.2976227
v -0.211525 -0.1554357 0.5086975
v -0.3035011 0.004883111 0.7298889

vn -0.3538322 0.6551825 -0.6674868
vn -0.3538322 0.6551825 -0.6674868
vn -0.3538322 0.6551825 -0.6674868
vn -0.2853172 0.7404152 -0.6085882
vn -0.2853172 0.7404152 -0.6085882
vn -0.2853172 0.7404152 -0.6085882
vn 0.3393799 0.6866137 0.6429486
vn 0.3393799 0.6866137 0.6429486
vn 0.3393799 0.6866137 0.6429486
vn 0.3393799 0.6866137 0.6429486
vn 0.2231332 0.9579233 0.1805395
vn 0.2231332 0.9579233 0.1805395
vn 0.2231332 0.9579233 0.1805395
vn 0.2231332 0.9579233 0.1805395
vn 0.767923 0.323927 -0.5525989
vn 0.767923 0.323927 -0.5525989
vn 0.767923 0.323927 -0.5525989
vn 0.767923 0.323927 -0.5525989
vn 0.9648971 0.2583474 -0.04722416
vn 0.9648971 0.2583474 -0.04722416
vn 0.9648971 0.2583474 -0.04722416
vn 0.9648971 0.2583474 -0.04722416
vn -0.9995022 0.03087715 -0.006487542
vn -0.9995022 0.03087715 -0.006487542
vn -0.9995022 0.03087715 -0.006487542
vn -0.9995022 0.03087715 -0.006487542
vn -0.3984791 0.9171618 -0.005373793
vn -0.3984791 0.9171618 -0.005373793
vn -0.3984791 0.9171618 -0.005373793
vn -0.3984791 0.9171618 -0.005373793
vn -0.5641167 0.6184092 0.5471219
vn -0.5641167 0.6184092 0.5471219
vn -0.5641167 0.6184092 0.5471219
vn -0.5641167 0.6184092 0.5471219
vn -0.271795 0.3834495 -0.8826631
vn -0.2777017 0.3684582 -0.887198
vn -0.271795 0.3834495 -0.8826631
vn -0.2777017 0.3684582 -0.887198
vn -0.2835306 0.3533635 -0.8914845
vn -0.2835306 0.3533635 -0.8914845
vn 0.2477889 0.2709782 0.9301459
vn 0.2477889 0.2709782 0.9301459
vn 0.2477889 0.2709782 0.9301459
vn 0.2477889 0.2709782 0.9301459
vn 0.9861201 0.165556 -0.01258748
vn 0.9861201 0.165556 -0.01258748
vn 0.9861201 0.165556 -0.01258748
vn 0.9861201 0.165556 -0.01258748
vn 0.6495557 0.428519 -0.6280518
vn 0.6495557 0.428519 -0.6280518
vn 0.6495557 0.428519 -0.6280518
vn 0.6495557 0.428519 -0.6280518
vn -0.6089809 0.477386 0.6334389
vn -0.6221389 0.4626137 0.6316105
vn -0.6089809 0.477386 0.6334389
vn -0.5955826 0.4919699 0.6350173
vn -0.7137361 0.6894556 0.1234168
vn -0.7137361 0.6894556 0.1234168
vn -0.7137361 0.6894556 0.1234168
vn -0.7137361 0.6894556 0.1234168
vn -0.5865204 0.4986048 0.6382688
vn -0.5865204 0.4986048 0.6382688
vn -0.5865204 0.4986048 0.6382688
vn -0.5865204 0.4986048 0.6382688
vn -0.9333379 0.3589252 -0.007282176
vn -0.9340084 0.3572439 -0.002274839
vn -0.9333379 0.3589252 -0.007282176
vn -0.9340084 0.3572439 -0.002274839
vn -0.9346523 0.3555525 0.002732563
vn -0.9346523 0.3555525 0.002732563
vn 0.5495793 0.8341907 -0.04569919
vn 0.5495793 0.8341907 -0.04569919
vn 0.5495793 0.8341907 -0.04569919
vn 0.5495793 0.8341907 -0.04569919
vn 0.2823046 0.5254851 0.8026018
vn 0.2823046 0.5254851 0.8026018
vn 0.2823046 0.5254851 0.8026018
vn 0.2823046 0.5254851 0.8026018
vn 0.5174507 0.7404056 -0.4290038
vn 0.5174507 0.7404056 -0.4290038
vn 0.5174507 0.7404056 -0.4290038
vn 0.5174507 0.7404056 -0.4290038
vn -0.005328023 -0.9999821 0.002712961
vn -0.005042458 -0.9999732 0.005307922
vn -0.004949508 -0.9999799 0.003988294
vn -0.005632907 -0.9999713 -0.005088933
vn -0.006020975 -0.9999417 -0.008967775
vn -0.005956422 -0.9998185 -0.01809708
vn -0.5882217 -0.0003391468 0.8086997
vn -0.5882217 -0.0003391468 0.8086997
vn -0.5882217 -0.0003391468 0.8086997
vn -0.5882217 -0.0003391468 0.8086997
vn -0.2849177 -0.04594667 -0.9574502
vn -0.2849177 -0.04594667 -0.9574502
vn -0.2849177 -0.04594667 -0.9574502
vn -0.2849177 -0.04594667 -0.9574502
vn 0.5714189 -0.0332565 -0.8199844
vn 0.5714189 -0.0332565 -0.8199844
vn 0.5714189 -0.0332565 -0.8199844
vn 0.5714189 -0.0332565 -0.8199844
vn 0.9750269 0.2083751 -0.07682578
vn 0.9750269 0.2083751 -0.07682578
vn 0.9750269 0.2083751 -0.07682578
vn 0.9750269 0.2083751 -0.07682578
vn 0.2674611 -0.08161339 0.9601062
vn 0.2674611 -0.08161339 0.9601062
vn 0.2674611 -0.08161339 0.9601062
vn 0.2674611 -0.08161339 0.9601062
vn -0.3098726 -0.8264139 0.4701266
vn -0.3098726 -0.8264139 0.4701266
vn -0.3098726 -0.8264139 0.4701266
vn -0.3098726 -0.8264139 0.4701266
vn -0.5542693 -0.8323184 0.005634724
vn -0.5542693 -0.8323184 0.005634724
vn -0.5542693 -0.8323184 0.005634724
vn -0.5542693 -0.8323184 0.005634724
vn -0.1725282 -0.7784202 -0.6035695
vn -0.1725282 -0.7784202 -0.6035695
vn -0.1725282 -0.7784202 -0.6035695
vn -0.1725282 -0.7784202 -0.6035695
vn 0.3246365 -0.7994983 -0.5053847
vn 0.3246365 -0.7994983 -0.5053847
vn 0.3246365 -0.7994983 -0.5053847
vn 0.3246365 -0.7994983 -0.5053847
vn 0.5600182 -0.8276385 -0.03733681
vn 0.5600182 -0.8276385 -0.03733681
vn 0.5600182 -0.8276385 -0.03733681
vn 0.5600182 -0.8276385 -0.03733681
vn 0.1690153 -0.7633181 0.6235216
vn 0.1690153 -0.7633181 0.6235216
vn 0.1690153 -0.7633181 0.6235216
vn 0.1690153 -0.7633181 0.6235216

vt 0.4436915 0.3265522
vt 0.4436915 0.3265522
vt 0.4436915 0.3265522
vt 0.4436915 0.3265522
vt 0.4436915 0.3265522
vt 0.4436915 0.3265522
vt 0.4436915 0.3265522
vt 0.4436915 0.3265522
vt 0.4436915 0.3265522
vt 0.4436915 0.3265522
vt 0.4436915 0.3265522
vt 0.4436915 0.3265522
vt 0.4436915 0.3265522
vt 0.4436915 0.3265522
vt 0.4436915 0.3265522
vt 0.4436915 0.3265522
vt 0.4436915 0.3265522
vt 0.4436915 0.3265522
vt 0.4436915 0.3265522
vt 0.4436915 0.3265522
vt 0.4436915 0.3265522
vt 0.4436915 0.3265522
vt 0.4436915 0.3265522
vt 0.4436915 0.3265522
vt 0.4436915 0.3265522
vt 0.4436915 0.3265522
vt 0.4436915 0.3265522
vt 0.4436915 0.3265522
vt 0.4436915 0.3265522
vt 0.4436915 0.3265522
vt 0.4436915 0.3265522
vt 0.4436915 0.3265522
vt 0.4436915 0.3265522
vt 0.4436915 0.3265522
vt 0.4436915 0.3265522
vt 0.4436915 0.3265522
vt 0.4436915 0.3265522
vt 0.4436915 0.3265522
vt 0.4436915 0.3265522
vt 0.4436915 0.3265522
vt 0.4436915 0.3265522
vt 0.4436915 0.3265522
vt 0.4436915 0.3265522
vt 0.4436915 0.3265522
vt 0.4436915 0.3265522
vt 0.4436915 0.3265522
vt 0.4436915 0.3265522
vt 0.4436915 0.3265522
vt 0.4436915 0.3265522
vt 0.4436915 0.3265522
vt 0.4436915 0.3265522
vt 0.4436915 0.3265522
vt 0.4436915 0.3265522
vt 0.4436915 0.3265522
vt 0.4436915 0.3265522
vt 0.4436915 0.3265522
vt 0.4436915 0.3265522
vt 0.4436915 0.3265522
vt 0.4436915 0.3265522
vt 0.4436915 0.3265522
vt 0.4436915 0.3265522
vt 0.4436915 0.3265522
vt 0.4436915 0.3265522
vt 0.4436915 0.3265522
vt 0.4436915 0.3265522
vt 0.4436915 0.3265522
vt 0.4436915 0.3265522
vt 0.4436915 0.3265522
vt 0.4436915 0.3265522
vt 0.4436915 0.3265522
vt 0.4436915 0.3265522
vt 0.4436915 0.3265522
vt 0.4436915 0.3265522
vt 0.4436915 0.3265522
vt 0.4436915 0.3265522
vt 0.4436915 0.3265522
vt 0.4436915 0.3265522
vt 0.4436915 0.3265522
vt 0.4436915 0.3265522
vt 0.4436915 0.3265522
vt 0.4436915 0.3265522
vt 0.4436915 0.3265522
vt 0.4436915 0.3265522
vt 0.4436915 0.3265522
vt 0.4436915 0.3265522
vt 0.4436915 0.3265522
vt 0.4436915 0.3265522
vt 0.4436915 0.3265522
vt 0.4436915 0.3265522
vt 0.4436915 0.3265522
vt 0.4436915 0.3265522
vt 0.4436915 0.3265522
vt 0.4436915 0.3265522
vt 0.4436915 0.3265522
vt 0.4436915 0.3265522
vt 0.4436915 0.3265522
vt 0.4436915 0.3265522
vt 0.4436915 0.3265522
vt 0.4436915 0.3265522
vt 0.4436915 0.3265522
vt 0.4436915 0.3265522
vt 0.4436915 0.3265522
vt 0.4436915 0.3265522
vt 0.4436915 0.3265522
vt 0.4436915 0.3265522
vt 0.4436915 0.3265522
vt 0.4436915 0.3265522
vt 0.4436915 0.3265522
vt 0.4436915 0.3265522
vt 0.4436915 0.3265522
vt 0.4436915 0.3265522
vt 0.4436915 0.3265522
vt 0.4436915 0.3265522
vt 0.4436915 0.3265522
vt 0.4436915 0.3265522
vt 0.4436915 0.3265522
vt 0.4436915 0.3265522
vt 0.4436915 0.3265522
vt 0.4436915 0.3265522
vt 0.4436915 0.3265522
vt 0.4436915 0.3265522
vt 0.4436915 0.3265522
vt 0.4436915 0.3265522
vt 0.4436915 0.3265522
vt 0.4436915 0.3265522
vt 0.4436915 0.3265522
vt 0.4436915 0.3265522
vt 0.4436915 0.3265522
vt 0.4436915 0.3265522
vt 0.4436915 0.3265522
vt 0.4436915 0.3265522
vt 0.4436915 0.3265522

usemtl PolygonSamurai_Mat_01
usemap PolygonSamurai_Mat_01
f 2/2/2 1/1/1 3/3/3
f 5/5/5 4/4/4 6/6/6
f 8/8/8 7/7/7 9/9/9
f 9/9/9 7/7/7 10/10/10
f 12/12/12 11/11/11 13/13/13
f 13/13/13 11/11/11 14/14/14
f 16/16/16 15/15/15 17/17/17
f 17/17/17 15/15/15 18/18/18
f 20/20/20 19/19/19 21/21/21
f 21/21/21 19/19/19 22/22/22
f 24/24/24 23/23/23 25/25/25
f 25/25/25 23/23/23 26/26/26
f 28/28/28 27/27/27 29/29/29
f 29/29/29 27/27/27 30/30/30
f 32/32/32 31/31/31 33/33/33
f 33/33/33 31/31/31 34/34/34
f 36/36/36 35/35/35 37/37/37
f 38/38/38 35/35/35 36/36/36
f 39/39/39 38/38/38 36/36/36
f 40/40/40 38/38/38 39/39/39
f 42/42/42 41/41/41 43/43/43
f 43/43/43 41/41/41 44/44/44
f 46/46/46 45/45/45 47/47/47
f 47/47/47 45/45/45 48/48/48
f 50/50/50 49/49/49 51/51/51
f 51/51/51 49/49/49 52/52/52
f 54/54/54 53/53/53 55/55/55
f 53/53/53 56/56/56 55/55/55
f 58/58/58 57/57/57 59/59/59
f 59/59/59 57/57/57 60/60/60
f 62/62/62 61/61/61 63/63/63
f 63/63/63 61/61/61 64/64/64
f 66/66/66 65/65/65 67/67/67
f 68/68/68 65/65/65 66/66/66
f 69/69/69 68/68/68 66/66/66
f 70/70/70 68/68/68 69/69/69
f 72/72/72 71/71/71 73/73/73
f 73/73/73 71/71/71 74/74/74
f 76/76/76 75/75/75 77/77/77
f 77/77/77 75/75/75 78/78/78
f 80/80/80 79/79/79 81/81/81
f 81/81/81 79/79/79 82/82/82
f 84/84/84 83/83/83 85/85/85
f 86/86/86 85/85/85 83/83/83
f 87/87/87 86/86/86 83/83/83
f 88/88/88 86/86/86 87/87/87
f 90/90/90 89/89/89 91/91/91
f 91/91/91 89/89/89 92/92/92
f 94/94/94 93/93/93 95/95/95
f 95/95/95 93/93/93 96/96/96
f 98/98/98 97/97/97 99/99/99
f 99/99/99 97/97/97 100/100/100
f 102/102/102 101/101/101 103/103/103
f 103/103/103 101/101/101 104/104/104
f 106/106/106 105/105/105 107/107/107
f 107/107/107 105/105/105 108/108/108
f 110/110/110 109/109/109 111/111/111
f 111/111/111 109/109/109 112/112/112
f 114/114/114 113/113/113 115/115/115
f 115/115/115 113/113/113 116/116/116
f 118/118/118 117/117/117 119/119/119
f 119/119/119 117/117/117 120/120/120
f 122/122/122 121/121/121 123/123/123
f 123/123/123 121/121/121 124/124/124
f 126/126/126 125/125/125 127/127/127
f 127/127/127 125/125/125 128/128/128
f 130/130/130 129/129/129 131/131/131
f 131/131/131 129/129/129 132/132/132
