mtllib ./SM_Env_Rock_02_36.mtl
g SM_Env_Rock_02
v -0.3706436 0.5667347 -0.08298492
v -0.349968 0.816518 0.009140015
v -0.3595009 0.6096698 0.1234436
v -0.1744041 0.8896338 -0.2908554
v -0.1317749 0.5252208 -0.3549423
v 0.06366348 0.7266374 -0.4105301
v -0.7036934 -0.09165692 -0.1559372
v -0.6404991 0.4223938 -0.1498871
v -0.6724815 0.3834908 0.2195358
v 0.2051163 0.5905387 -0.6567841
v -0.1714745 0.4842173 -0.593605
v -0.3290825 -0.1562327 -0.6307983
v 0.3295822 0.681574 -0.07792664
v 0.1861954 0.9811269 -0.08721924
v 0.3468857 0.8390478 -0.3083496
v -0.003196716 0.8710598 0.2263565
v 0.09257889 0.6825009 0.2642593
v -0.1318626 0.5412606 0.3378067
v -0.1317749 0.5252208 -0.3549423
v 0.2051163 0.5905387 -0.6567841
v 0.06366348 0.7266374 -0.4105301
v -0.6724815 0.3834908 0.2195358
v -0.3706436 0.5667347 -0.08298492
v -0.3595009 0.6096698 0.1234436
v -0.1317749 0.5252208 -0.3549423
v -0.1714745 0.4842173 -0.593605
v 0.2051163 0.5905387 -0.6567841
v -0.6724815 0.3834908 0.2195358
v -0.6404991 0.4223938 -0.1498871
v -0.3706436 0.5667347 -0.08298492
v -0.3595009 0.6096698 0.1234436
v -0.349968 0.816518 0.009140015
v -0.2020035 0.9353808 0.1010132
v -0.2929764 0.5183951 0.248642
v 0.1977386 0.8227984 -0.401207
v -0.02460861 1.045268 -0.2249374
v -0.1744041 0.8896338 -0.2908554
v 0.06366348 0.7266374 -0.4105301
v -0.2020035 0.9353808 0.1010132
v -0.349968 0.816518 0.009140015
v -0.1744041 0.8896338 -0.2908554
v -0.02460861 1.045268 -0.2249374
v 0.2504463 -0.145766 -0.6464386
v -0.3290825 -0.1562327 -0.6307983
v -0.7036934 -0.09165692 -0.1559372
v -0.5633736 -0.1466742 0.2974396
v 0.7036972 -0.1359161 -0.263504
v -0.07953262 -0.1036723 0.6567841
v -0.7036934 -0.09165692 -0.1559372
v -0.3290825 -0.1562327 -0.6307983
v -0.1714745 0.4842173 -0.593605
v -0.6404991 0.4223938 -0.1498871
v -0.5633736 -0.1466742 0.2974396
v -0.7036934 -0.09165692 -0.1559372
v -0.6724815 0.3834908 0.2195358
v -0.5744095 0.3686447 0.3547592
v -0.3290825 -0.1562327 -0.6307983
v 0.2504463 -0.145766 -0.6464386
v 0.397728 0.6994674 -0.5825119
v 0.2051163 0.5905387 -0.6567841
v -0.349968 0.816518 0.009140015
v -0.3706436 0.5667347 -0.08298492
v -0.1317749 0.5252208 -0.3549423
v -0.1744041 0.8896338 -0.2908554
v -0.5744095 0.3686447 0.3547592
v -0.3258362 0.389283 0.4693985
v -0.07953262 -0.1036723 0.6567841
v -0.5633736 -0.1466742 0.2974396
v 0.2504463 -0.145766 -0.6464386
v 0.7036972 -0.1359161 -0.263504
v 0.5722351 0.7152697 -0.3933105
v 0.397728 0.6994674 -0.5825119
v -0.02460861 1.045268 -0.2249374
v 0.1861954 0.9811269 -0.08721924
v -0.003196716 0.8710598 0.2263565
v -0.2020035 0.9353808 0.1010132
v -0.2020035 0.9353808 0.1010132
v -0.003196716 0.8710598 0.2263565
v -0.1318626 0.5412606 0.3378067
v -0.2929764 0.5183951 0.248642
v 0.3468857 0.8390478 -0.3083496
v 0.1861954 0.9811269 -0.08721924
v -0.02460861 1.045268 -0.2249374
v 0.1977386 0.8227984 -0.401207
v -0.3258362 0.389283 0.4693985
v 0.08967209 0.3944061 0.4709549
v 0.1924515 0.06305149 0.4971466
v -0.07953262 -0.1036723 0.6567841
v -0.07953262 -0.1036723 0.6567841
v 0.1924515 0.06305149 0.4971466
v 0.5926704 0.07755643 0.01451111
v 0.7036972 -0.1359161 -0.263504
v 0.7036972 -0.1359161 -0.263504
v 0.5926704 0.07755643 0.01451111
v 0.5020447 0.5275391 -0.1204605
v 0.5722351 0.7152697 -0.3933105
v 0.1861954 0.9811269 -0.08721924
v 0.09257889 0.6825009 0.2642593
v -0.003196716 0.8710598 0.2263565
v 0.3295822 0.681574 -0.07792664
v 0.08967209 0.3944061 0.4709549
v 0.5020447 0.5275391 -0.1204605
v 0.08967209 0.3944061 0.4709549
v 0.5020447 0.5275391 -0.1204605
v 0.5926704 0.07755643 0.01451111
v 0.1924515 0.06305149 0.4971466
v 0.397728 0.6994674 -0.5825119
v 0.1977386 0.8227984 -0.401207
v 0.06366348 0.7266374 -0.4105301
v 0.2051163 0.5905387 -0.6567841
v -0.1714745 0.4842173 -0.593605
v -0.1317749 0.5252208 -0.3549423
v -0.3706436 0.5667347 -0.08298492
v -0.6404991 0.4223938 -0.1498871
v -0.6724815 0.3834908 0.2195358
v -0.3595009 0.6096698 0.1234436
v -0.2929764 0.5183951 0.248642
v -0.5744095 0.3686447 0.3547592
v -0.1318626 0.5412606 0.3378067
v -0.3258362 0.389283 0.4693985
v 0.09257889 0.6825009 0.2642593
v 0.08967209 0.3944061 0.4709549
v -0.3258362 0.389283 0.4693985
v -0.1318626 0.5412606 0.3378067
v 0.5722351 0.7152697 -0.3933105
v 0.5020447 0.5275391 -0.1204605
v 0.3295822 0.681574 -0.07792664
v 0.3468857 0.8390478 -0.3083496
v 0.397728 0.6994674 -0.5825119
v 0.5722351 0.7152697 -0.3933105
v 0.3468857 0.8390478 -0.3083496
v 0.1977386 0.8227984 -0.401207

vn -0.9969036 0.06787837 0.03969347
vn -0.9969036 0.06787837 0.03969347
vn -0.9969036 0.06787837 0.03969347
vn -0.3811287 0.1167043 -0.9171264
vn -0.3811287 0.1167043 -0.9171264
vn -0.3811287 0.1167043 -0.9171264
vn -0.9897915 0.1225356 -0.07278632
vn -0.9897915 0.1225356 -0.07278632
vn -0.9897915 0.1225356 -0.07278632
vn -0.1930897 0.1041761 -0.975635
vn -0.1930897 0.1041761 -0.975635
vn -0.1930897 0.1041761 -0.975635
vn 0.8420449 0.4137954 0.3460255
vn 0.8420449 0.4137954 0.3460255
vn 0.8420449 0.4137954 0.3460255
vn 0.1453141 0.2654007 0.9531245
vn 0.1453141 0.2654007 0.9531245
vn 0.1453141 0.2654007 0.9531245
vn -0.642184 0.4523249 -0.6188715
vn -0.642184 0.4523249 -0.6188715
vn -0.642184 0.4523249 -0.6188715
vn -0.6067065 0.7841659 -0.1303495
vn -0.6067065 0.7841659 -0.1303495
vn -0.6067065 0.7841659 -0.1303495
vn -0.2877814 0.9507099 -0.1154667
vn -0.2877814 0.9507099 -0.1154667
vn -0.2877814 0.9507099 -0.1154667
vn -0.480766 0.8753899 0.05056326
vn -0.480766 0.8753899 0.05056326
vn -0.480766 0.8753899 0.05056326
vn -0.6831326 0.373544 0.6275307
vn -0.6831326 0.373544 0.6275307
vn -0.6831326 0.373544 0.6275307
vn -0.6831326 0.373544 0.6275307
vn -0.1759246 0.4586197 -0.8710444
vn -0.1759246 0.4586197 -0.8710444
vn -0.1759246 0.4586197 -0.8710444
vn -0.1759246 0.4586197 -0.8710444
vn -0.6325206 0.7629318 -0.1336137
vn -0.6325206 0.7629318 -0.1336137
vn -0.6325206 0.7629318 -0.1336137
vn -0.6325206 0.7629318 -0.1336137
vn -0.01668862 -0.9997146 0.01709413
vn -0.05897887 -0.9982486 -0.004607142
vn -0.05897887 -0.9982486 -0.004607142
vn -0.01668862 -0.9997146 0.01709413
vn 0.02563937 -0.9989197 0.03875675
vn 0.02563937 -0.9989197 0.03875675
vn -0.7263068 0.1639124 -0.6675411
vn -0.7263068 0.1639124 -0.6675411
vn -0.7263068 0.1639124 -0.6675411
vn -0.7263068 0.1639124 -0.6675411
vn -0.9236319 -0.1375129 0.3577627
vn -0.9236319 -0.1375129 0.3577627
vn -0.9236319 -0.1375129 0.3577627
vn -0.9236319 -0.1375129 0.3577627
vn 0.07713647 -0.009259199 -0.9969776
vn 0.07713647 -0.009259199 -0.9969776
vn 0.07713647 -0.009259199 -0.9969776
vn 0.07713647 -0.009259199 -0.9969776
vn -0.8071794 0.1182415 -0.5783427
vn -0.8071794 0.1182415 -0.5783427
vn -0.8071794 0.1182415 -0.5783427
vn -0.8071794 0.1182415 -0.5783427
vn -0.541244 -0.02973784 0.8403396
vn -0.541244 -0.02973784 0.8403396
vn -0.541244 -0.02973784 0.8403396
vn -0.541244 -0.02973784 0.8403396
vn 0.6739731 -0.03494218 -0.737929
vn 0.6739731 -0.03494218 -0.737929
vn 0.6739731 -0.03494218 -0.737929
vn 0.6739731 -0.03494218 -0.737929
vn 0.06316884 0.9320462 0.3567905
vn 0.06316884 0.9320462 0.3567905
vn 0.06316884 0.9320462 0.3567905
vn 0.06316884 0.9320462 0.3567905
vn -0.4327662 0.4064472 0.8046826
vn -0.4327662 0.4064472 0.8046826
vn -0.4327662 0.4064472 0.8046826
vn -0.4327662 0.4064472 0.8046826
vn 0.3717521 0.8343341 -0.4070467
vn 0.3717521 0.8343341 -0.4070467
vn 0.3717521 0.8343341 -0.4070467
vn 0.3717521 0.8343341 -0.4070467
vn 0.1407446 0.3037511 0.9422983
vn 0.1407446 0.3037511 0.9422983
vn 0.1407446 0.3037511 0.9422983
vn 0.1407446 0.3037511 0.9422983
vn 0.6740946 -0.4642589 0.5745087
vn 0.6740946 -0.4642589 0.5745087
vn 0.6740946 -0.4642589 0.5745087
vn 0.6740946 -0.4642589 0.5745087
vn 0.929876 0.2188814 0.2956714
vn 0.929876 0.2188814 0.2956714
vn 0.929876 0.2188814 0.2956714
vn 0.929876 0.2188814 0.2956714
vn 0.7314925 0.4110164 0.5440444
vn 0.712432 0.4403178 0.5464072
vn 0.7314925 0.4110164 0.5440444
vn 0.712432 0.4403178 0.5464072
vn 0.6924971 0.4690788 0.5480991
vn 0.6924971 0.4690788 0.5480991
vn 0.7382997 0.3066615 0.6007266
vn 0.7382997 0.3066615 0.6007266
vn 0.7382997 0.3066615 0.6007266
vn 0.7382997 0.3066615 0.6007266
vn -0.277396 0.7070177 -0.6505209
vn -0.277396 0.7070177 -0.6505209
vn -0.277396 0.7070177 -0.6505209
vn -0.277396 0.7070177 -0.6505209
vn -0.291694 0.9198099 -0.2624197
vn -0.291694 0.9198099 -0.2624197
vn -0.291694 0.9198099 -0.2624197
vn -0.291694 0.9198099 -0.2624197
vn -0.3206515 0.7889494 0.5241579
vn -0.3206515 0.7889494 0.5241579
vn -0.3159664 0.8153595 0.4851332
vn -0.3159664 0.8153595 0.4851332
vn -0.3105728 0.8399411 0.4450207
vn -0.3105728 0.8399411 0.4450207
vn -0.05498755 0.6238754 0.779587
vn -0.05498755 0.6238754 0.779587
vn -0.05498755 0.6238754 0.779587
vn -0.05498755 0.6238754 0.779587
vn 0.5943576 0.6112527 0.5225986
vn 0.5943576 0.6112527 0.5225986
vn 0.5943576 0.6112527 0.5225986
vn 0.5943576 0.6112527 0.5225986
vn 0.2608052 0.8790097 -0.3991525
vn 0.2608052 0.8790097 -0.3991525
vn 0.2608052 0.8790097 -0.3991525
vn 0.2608052 0.8790097 -0.3991525

vt 0.4436915 0.3265522
vt 0.4436915 0.3265522
vt 0.4436915 0.3265522
vt 0.4436915 0.3265522
vt 0.4436915 0.3265522
vt 0.4436915 0.3265522
vt 0.4436915 0.3265522
vt 0.4436915 0.3265522
vt 0.4436915 0.3265522
vt 0.4436915 0.3265522
vt 0.4436915 0.3265522
vt 0.4436915 0.3265522
vt 0.4436915 0.3265522
vt 0.4436915 0.3265522
vt 0.4436915 0.3265522
vt 0.4436915 0.3265522
vt 0.4436915 0.3265522
vt 0.4436915 0.3265522
vt 0.4436915 0.3265522
vt 0.4436915 0.3265522
vt 0.4436915 0.3265522
vt 0.4436915 0.3265522
vt 0.4436915 0.3265522
vt 0.4436915 0.3265522
vt 0.4436915 0.3265522
vt 0.4436915 0.3265522
vt 0.4436915 0.3265522
vt 0.4436915 0.3265522
vt 0.4436915 0.3265522
vt 0.4436915 0.3265522
vt 0.4436915 0.3265522
vt 0.4436915 0.3265522
vt 0.4436915 0.3265522
vt 0.4436915 0.3265522
vt 0.4436915 0.3265522
vt 0.4436915 0.3265522
vt 0.4436915 0.3265522
vt 0.4436915 0.3265522
vt 0.4436915 0.3265522
vt 0.4436915 0.3265522
vt 0.4436915 0.3265522
vt 0.4436915 0.3265522
vt 0.4436915 0.3265522
vt 0.4436915 0.3265522
vt 0.4436915 0.3265522
vt 0.4436915 0.3265522
vt 0.4436915 0.3265522
vt 0.4436915 0.3265522
vt 0.4436915 0.3265522
vt 0.4436915 0.3265522
vt 0.4436915 0.3265522
vt 0.4436915 0.3265522
vt 0.4436915 0.3265522
vt 0.4436915 0.3265522
vt 0.4436915 0.3265522
vt 0.4436915 0.3265522
vt 0.4436915 0.3265522
vt 0.4436915 0.3265522
vt 0.4436915 0.3265522
vt 0.4436915 0.3265522
vt 0.4436915 0.3265522
vt 0.4436915 0.3265522
vt 0.4436915 0.3265522
vt 0.4436915 0.3265522
vt 0.4436915 0.3265522
vt 0.4436915 0.3265522
vt 0.4436915 0.3265522
vt 0.4436915 0.3265522
vt 0.4436915 0.3265522
vt 0.4436915 0.3265522
vt 0.4436915 0.3265522
vt 0.4436915 0.3265522
vt 0.4436915 0.3265522
vt 0.4436915 0.3265522
vt 0.4436915 0.3265522
vt 0.4436915 0.3265522
vt 0.4436915 0.3265522
vt 0.4436915 0.3265522
vt 0.4436915 0.3265522
vt 0.4436915 0.3265522
vt 0.4436915 0.3265522
vt 0.4436915 0.3265522
vt 0.4436915 0.3265522
vt 0.4436915 0.3265522
vt 0.4436915 0.3265522
vt 0.4436915 0.3265522
vt 0.4436915 0.3265522
vt 0.4436915 0.3265522
vt 0.4436915 0.3265522
vt 0.4436915 0.3265522
vt 0.4436915 0.3265522
vt 0.4436915 0.3265522
vt 0.4436915 0.3265522
vt 0.4436915 0.3265522
vt 0.4436915 0.3265522
vt 0.4436915 0.3265522
vt 0.4436915 0.3265522
vt 0.4436915 0.3265522
vt 0.4436915 0.3265522
vt 0.4436915 0.3265522
vt 0.4436915 0.3265522
vt 0.4436915 0.3265522
vt 0.4436915 0.3265522
vt 0.4436915 0.3265522
vt 0.4436915 0.3265522
vt 0.4436915 0.3265522
vt 0.4436915 0.3265522
vt 0.4436915 0.3265522
vt 0.4436915 0.3265522
vt 0.4436915 0.3265522
vt 0.4436915 0.3265522
vt 0.4436915 0.3265522
vt 0.4436915 0.3265522
vt 0.4436915 0.3265522
vt 0.4436915 0.3265522
vt 0.4436915 0.3265522
vt 0.4436915 0.3265522
vt 0.4436915 0.3265522
vt 0.4436915 0.3265522
vt 0.4436915 0.3265522
vt 0.4436915 0.3265522
vt 0.4436915 0.3265522
vt 0.4436915 0.3265522
vt 0.4436915 0.3265522
vt 0.4436915 0.3265522
vt 0.4436915 0.3265522
vt 0.4436915 0.3265522
vt 0.4436915 0.3265522
vt 0.4436915 0.3265522
vt 0.4436915 0.3265522
vt 0.4436915 0.3265522
vt 0.4436915 0.3265522

usemtl PolygonSamurai_Mat_01
usemap PolygonSamurai_Mat_01
f 2/2/2 1/1/1 3/3/3
f 5/5/5 4/4/4 6/6/6
f 8/8/8 7/7/7 9/9/9
f 11/11/11 10/10/10 12/12/12
f 14/14/14 13/13/13 15/15/15
f 17/17/17 16/16/16 18/18/18
f 20/20/20 19/19/19 21/21/21
f 23/23/23 22/22/22 24/24/24
f 26/26/26 25/25/25 27/27/27
f 29/29/29 28/28/28 30/30/30
f 32/32/32 31/31/31 33/33/33
f 33/33/33 31/31/31 34/34/34
f 36/36/36 35/35/35 37/37/37
f 37/37/37 35/35/35 38/38/38
f 40/40/40 39/39/39 41/41/41
f 41/41/41 39/39/39 42/42/42
f 44/44/44 43/43/43 45/45/45
f 45/45/45 43/43/43 46/46/46
f 47/47/47 46/46/46 43/43/43
f 48/48/48 46/46/46 47/47/47
f 50/50/50 49/49/49 51/51/51
f 51/51/51 49/49/49 52/52/52
f 54/54/54 53/53/53 55/55/55
f 55/55/55 53/53/53 56/56/56
f 58/58/58 57/57/57 59/59/59
f 59/59/59 57/57/57 60/60/60
f 62/62/62 61/61/61 63/63/63
f 63/63/63 61/61/61 64/64/64
f 66/66/66 65/65/65 67/67/67
f 67/67/67 65/65/65 68/68/68
f 70/70/70 69/69/69 71/71/71
f 71/71/71 69/69/69 72/72/72
f 74/74/74 73/73/73 75/75/75
f 75/75/75 73/73/73 76/76/76
f 78/78/78 77/77/77 79/79/79
f 79/79/79 77/77/77 80/80/80
f 82/82/82 81/81/81 83/83/83
f 83/83/83 81/81/81 84/84/84
f 86/86/86 85/85/85 87/87/87
f 87/87/87 85/85/85 88/88/88
f 90/90/90 89/89/89 91/91/91
f 91/91/91 89/89/89 92/92/92
f 94/94/94 93/93/93 95/95/95
f 95/95/95 93/93/93 96/96/96
f 98/98/98 97/97/97 99/99/99
f 100/100/100 97/97/97 98/98/98
f 98/98/98 101/101/101 100/100/100
f 100/100/100 101/101/101 102/102/102
f 104/104/104 103/103/103 105/105/105
f 105/105/105 103/103/103 106/106/106
f 108/108/108 107/107/107 109/109/109
f 109/109/109 107/107/107 110/110/110
f 112/112/112 111/111/111 113/113/113
f 113/113/113 111/111/111 114/114/114
f 116/116/116 115/115/115 117/117/117
f 117/117/117 115/115/115 118/118/118
f 118/118/118 119/119/119 117/117/117
f 120/120/120 119/119/119 118/118/118
f 122/122/122 121/121/121 123/123/123
f 123/123/123 121/121/121 124/124/124
f 126/126/126 125/125/125 127/127/127
f 127/127/127 125/125/125 128/128/128
f 130/130/130 129/129/129 131/131/131
f 131/131/131 129/129/129 132/132/132
