mtllib ./SM_Env_WoodEdge_Corner_01_1.mtl
g SM_Env_WoodEdge_Corner_01
v 0.006086349 0.1215931 0.1364212
v 0.008039474 0.162293 0.1145859
v 0.03464699 0.1533848 0.1261215
v -0.1029453 0.1016394 -0.1029472
v -0.08862495 0.1426817 -0.08862686
v -0.110363 0.1440395 -0.08164215
v -0.08862495 0.1426817 -0.08862686
v -0.1029453 0.1016394 -0.1029472
v -0.07766914 0.1426546 -0.1121635
v 0.008039474 0.162293 0.1145859
v 0.006086349 0.1215931 0.1364212
v -0.01211548 0.156555 0.128994
v -0.1396923 0.1495152 0.002578735
v -0.09623146 0.1467498 0.1030693
v -0.1029453 -7.450581E-09 0.1029472
v -0.1404781 -7.450581E-09 0
v 0.1105804 0.1619427 0
v 0.0812397 0.1630857 0.08055878
v 0.003797531 0.1851348 0.1062164
v -0.006580353 0.1978619 -0.003131866
v 0.1404819 -7.450581E-09 0
v 0.1029453 -7.450581E-09 0.1029472
v 0.1029453 0.1392891 0.1029472
v 0.1404819 0.1392891 0
v 3.814697E-06 -7.450581E-09 0.14048
v 0.1029453 -7.450581E-09 0.1029472
v 0.1404819 -7.450581E-09 0
v 3.814697E-06 -7.450581E-09 0
v 0.1029453 -7.450581E-09 -0.1029472
v 3.814697E-06 -7.450581E-09 -0.14048
v -0.1404781 -7.450581E-09 0
v -0.1029453 -7.450581E-09 0.1029472
v -0.1029453 -7.450581E-09 -0.1029472
v 0.1029453 -7.450581E-09 -0.1029472
v 0.1029453 0.1534647 -0.1029472
v 3.814697E-06 0.1426546 -0.14048
v 3.814697E-06 -7.450581E-09 -0.14048
v 3.814697E-06 0.1648722 -0.1105804
v 0.08103371 0.1740181 -0.08103561
v 0.1105804 0.1619427 0
v -0.006580353 0.1978619 -0.003131866
v 0.1029453 0.1534647 -0.1029472
v 0.1029453 -7.450581E-09 -0.1029472
v 0.1404819 -7.450581E-09 0
v 0.1404819 0.1392891 0
v -0.08134079 0.16554 -0.08102417
v 3.814697E-06 0.1648722 -0.1105804
v -0.006580353 0.1978619 -0.003131866
v -0.1143532 0.1742687 0.004348755
v 0.003797531 0.1851348 0.1062164
v -0.07798195 0.1713812 0.08250427
v -0.1143532 0.1742687 0.004348755
v -0.006580353 0.1978619 -0.003131866
v 0.1029453 0.1392891 0.1029472
v 0.08862114 0.1392891 0.08862305
v 0.1209316 0.1392891 0
v 0.1404819 0.1392891 0
v 0.1404819 0.1392891 0
v 0.1209316 0.1392891 0
v 0.08862114 0.153318 -0.08862305
v 0.1029453 0.1534647 -0.1029472
v 0.1029453 0.1534647 -0.1029472
v 0.08862114 0.153318 -0.08862305
v 3.814697E-06 0.1426546 -0.1209335
v 3.814697E-06 0.1426546 -0.14048
v -0.1396923 0.1495152 0.002578735
v -0.1202927 0.1521011 0.001998901
v -0.08151054 0.1492343 0.08792877
v -0.09623146 0.1467498 0.1030693
v 0.008039474 0.162293 0.1145859
v -0.01211548 0.156555 0.128994
v 0.008039474 0.162293 0.1145859
v 0.003797531 0.1851348 0.1062164
v 0.0812397 0.1630857 0.08055878
v 0.08862114 0.1392891 0.08862305
v 0.08862114 0.1392891 0.08862305
v 0.0812397 0.1630857 0.08055878
v 0.1105804 0.1619427 0
v 0.1209316 0.1392891 0
v 0.1209316 0.1392891 0
v 0.1105804 0.1619427 0
v 0.08103371 0.1740181 -0.08103561
v 0.08862114 0.153318 -0.08862305
v 0.08862114 0.153318 -0.08862305
v 0.08103371 0.1740181 -0.08103561
v 3.814697E-06 0.1648722 -0.1105804
v 3.814697E-06 0.1426546 -0.1209335
v -0.08862495 0.1426817 -0.08862686
v -0.08134079 0.16554 -0.08102417
v -0.1143532 0.1742687 0.004348755
v -0.1202927 0.1521011 0.001998901
v 3.814697E-06 0.1426546 -0.1209335
v 3.814697E-06 0.1648722 -0.1105804
v -0.08134079 0.16554 -0.08102417
v -0.08862495 0.1426817 -0.08862686
v -0.1202927 0.1521011 0.001998901
v -0.1143532 0.1742687 0.004348755
v -0.07798195 0.1713812 0.08250427
v -0.08151054 0.1492343 0.08792877
v -0.08151054 0.1492343 0.08792877
v -0.07798195 0.1713812 0.08250427
v 0.003797531 0.1851348 0.1062164
v 0.008039474 0.162293 0.1145859
v 3.814697E-06 0.1426546 -0.14048
v 3.814697E-06 0.1426546 -0.1209335
v -0.08862495 0.1426817 -0.08862686
v -0.07766914 0.1426546 -0.1121635
v -0.1029453 -7.450581E-09 -0.1029472
v 3.814697E-06 -7.450581E-09 -0.14048
v 3.814697E-06 0.1426546 -0.14048
v -0.07766914 0.1426546 -0.1121635
v -0.1029453 0.1016394 -0.1029472
v -0.1396923 0.1495152 0.002578735
v -0.1404781 -7.450581E-09 0
v -0.1029453 -7.450581E-09 -0.1029472
v -0.1029453 0.1016394 -0.1029472
v -0.110363 0.1440395 -0.08164215
v -0.08862495 0.1426817 -0.08862686
v -0.1202927 0.1521011 0.001998901
v -0.1396923 0.1495152 0.002578735
v -0.110363 0.1440395 -0.08164215
v -0.01211548 0.156555 0.128994
v 0.006086349 0.1215931 0.1364212
v 3.814697E-06 -7.450581E-09 0.14048
v -0.1029453 -7.450581E-09 0.1029472
v -0.09623146 0.1467498 0.1030693
v 0.03464699 0.1533848 0.1261215
v 0.1029453 0.1392891 0.1029472
v 0.1029453 -7.450581E-09 0.1029472
v 3.814697E-06 -7.450581E-09 0.14048
v 0.006086349 0.1215931 0.1364212
v 0.008039474 0.162293 0.1145859
v 0.08862114 0.1392891 0.08862305
v 0.1029453 0.1392891 0.1029472
v 0.03464699 0.1533848 0.1261215

vn -0.2140411 0.4697561 0.8564552
vn -0.2140411 0.4697561 0.8564552
vn -0.2140411 0.4697561 0.8564552
vn -0.2581356 0.397332 -0.880621
vn -0.2855934 0.3961737 -0.8726298
vn -0.2581356 0.397332 -0.880621
vn -0.8223042 0.4206382 -0.3832482
vn -0.8223042 0.4206382 -0.3832482
vn -0.8223042 0.4206382 -0.3832482
vn 0.4190435 0.397879 0.8161463
vn 0.4528237 0.4045388 0.7945433
vn 0.4528237 0.4045388 0.7945433
vn -0.9287937 0.02013817 0.3700496
vn -0.9287937 0.02013817 0.3700496
vn -0.9287937 0.02013817 0.3700496
vn -0.9287937 0.02013817 0.3700496
vn 0.2936684 0.9519045 0.08738852
vn 0.2936684 0.9519045 0.08738852
vn 0.2936684 0.9519045 0.08738852
vn 0.2936684 0.9519045 0.08738852
vn 0.9394963 0 0.3425591
vn 0.9394963 0 0.3425591
vn 0.9394963 0 0.3425591
vn 0.9394963 0 0.3425591
vn 0 -1 0
vn 0 -1 0
vn 0 -1 0
vn 0 -1 0
vn 0 -1 0
vn 0 -1 0
vn 0 -1 0
vn 0 -1 0
vn 0 -1 0
vn 0.3425452 0 -0.9395013
vn 0.3425452 0 -0.9395013
vn 0.3425452 0 -0.9395013
vn 0.3425452 0 -0.9395013
vn 0.153383 0.9799175 -0.1274182
vn 0.153383 0.9799175 -0.1274182
vn 0.153383 0.9799175 -0.1274182
vn 0.153383 0.9799175 -0.1274182
vn 0.9394963 0 -0.3425592
vn 0.9394963 0 -0.3425592
vn 0.9394963 0 -0.3425592
vn 0.9394963 0 -0.3425592
vn -0.1630936 0.9568458 -0.2405128
vn -0.1630936 0.9568458 -0.2405128
vn -0.1630936 0.9568458 -0.2405128
vn -0.1630936 0.9568458 -0.2405128
vn -0.2024468 0.9704526 0.1312899
vn -0.2024468 0.9704526 0.1312899
vn -0.2024468 0.9704526 0.1312899
vn -0.2024468 0.9704526 0.1312899
vn 0 1 0
vn 0 1 0
vn 0 1 0
vn 0 1 0
vn 0.04971512 0.9905645 0.1277125
vn 0.04971512 0.9905645 0.1277125
vn 0.04971512 0.9905645 0.1277125
vn 0.04971512 0.9905645 0.1277125
vn -0.09794959 0.994499 -0.03711668
vn -0.09794959 0.994499 -0.03711668
vn -0.09794959 0.994499 -0.03711668
vn -0.09794959 0.994499 -0.03711668
vn -0.1108917 0.9906994 0.07885319
vn -0.1108917 0.9906994 0.07885319
vn -0.1337156 0.9874555 0.08397432
vn -0.1337156 0.9874555 0.08397432
vn -0.1564649 0.983661 0.08904862
vn -0.1564649 0.983661 0.08904862
vn 0.4190435 0.397879 0.8161463
vn 0.384571 0.3905618 0.8364009
vn 0.384571 0.3905618 0.8364009
vn 0.384571 0.3905618 0.8364009
vn 0.8676993 0.3856924 0.3135909
vn 0.8676993 0.3856924 0.3135909
vn 0.8676993 0.3856924 0.3135909
vn 0.8676993 0.3856924 0.3135909
vn 0.8763322 0.4075469 -0.2568023
vn 0.8763322 0.4075469 -0.2568023
vn 0.8763322 0.4075469 -0.2568023
vn 0.8763322 0.4075469 -0.2568023
vn 0.2693903 0.4115768 -0.8706512
vn 0.2693903 0.4115768 -0.8706512
vn 0.2693903 0.4115768 -0.8706512
vn 0.2693903 0.4115768 -0.8706512
vn -0.8727377 0.334841 -0.3552613
vn -0.8727377 0.334841 -0.3552613
vn -0.8727377 0.334841 -0.3552613
vn -0.8727377 0.334841 -0.3552613
vn -0.3128173 0.3946908 -0.8639238
vn -0.3128173 0.3946908 -0.8639238
vn -0.3128173 0.3946908 -0.8639238
vn -0.2855934 0.3961737 -0.8726298
vn -0.8844756 0.2176101 0.4127333
vn -0.8844756 0.2176101 0.4127333
vn -0.8844756 0.2176101 0.4127333
vn -0.8844756 0.2176101 0.4127333
vn -0.3104891 0.2741477 0.9101866
vn -0.3104891 0.2741477 0.9101866
vn -0.3104891 0.2741477 0.9101866
vn -0.3104891 0.2741477 0.9101866
vn 0 1 0
vn 0 1 0
vn 0 1 0
vn 0 1 0
vn -0.3425318 0 -0.9395062
vn -0.3425228 0 -0.9395095
vn -0.3425163 0 -0.9395118
vn -0.3425362 0 -0.9395046
vn -0.3425626 0 -0.939495
vn -0.9427695 0.003615118 -0.3334256
vn -0.9394522 0.01084496 -0.3425083
vn -0.9419544 0.005422702 -0.3356971
vn -0.9443766 0 -0.328866
vn -0.9443739 0 -0.3288737
vn -0.04832995 0.9936599 -0.1015097
vn -0.04832995 0.9936599 -0.1015097
vn -0.04832995 0.9936599 -0.1015097
vn -0.04832995 0.9936599 -0.1015097
vn -0.3124934 0.03397634 0.9493122
vn -0.2990606 0.04677464 0.953087
vn -0.3207217 0.04458692 0.9461235
vn -0.3191705 0.02756998 0.9472962
vn -0.2958626 0.01274133 0.9551455
vn 0.3293105 0.008649761 0.944182
vn 0.3213166 0 0.9469718
vn 0.331947 0.005290716 0.9432832
vn 0.3332896 0.01297439 0.9427353
vn 0.3240192 0.01536684 0.9459257
vn 0.2317483 0.9722527 -0.03189807
vn 0.2317483 0.9722527 -0.03189807
vn 0.2317483 0.9722527 -0.03189807
vn 0.2317483 0.9722527 -0.03189807

vt 0.1528315 0.47305
vt 0.1528315 0.47305
vt 0.1528315 0.47305
vt 0.1528315 0.47305
vt 0.1528315 0.47305
vt 0.1528315 0.47305
vt 0.1528315 0.47305
vt 0.1528315 0.47305
vt 0.1528315 0.47305
vt 0.1528315 0.47305
vt 0.1528315 0.47305
vt 0.1528315 0.47305
vt 0.1528315 0.47305
vt 0.1528315 0.47305
vt 0.1528315 0.47305
vt 0.1528315 0.47305
vt 0.9930662 0.5007616
vt 0.9930662 0.5007616
vt 0.9930662 0.5007616
vt 0.9930662 0.5007616
vt 0.1528315 0.47305
vt 0.1528315 0.47305
vt 0.1528315 0.47305
vt 0.1528315 0.47305
vt 0.1528315 0.47305
vt 0.1528315 0.47305
vt 0.1528315 0.47305
vt 0.1528315 0.47305
vt 0.1528315 0.47305
vt 0.1528315 0.47305
vt 0.1528315 0.47305
vt 0.1528315 0.47305
vt 0.1528315 0.47305
vt 0.1528315 0.47305
vt 0.1528315 0.47305
vt 0.1528315 0.47305
vt 0.1528315 0.47305
vt 0.9930662 0.5007616
vt 0.9930662 0.5007616
vt 0.9930662 0.5007616
vt 0.9930662 0.5007616
vt 0.1528315 0.47305
vt 0.1528315 0.47305
vt 0.1528315 0.47305
vt 0.1528315 0.47305
vt 0.9930662 0.5007616
vt 0.9930662 0.5007616
vt 0.9930662 0.5007616
vt 0.9930662 0.5007616
vt 0.9930662 0.5007616
vt 0.9930662 0.5007616
vt 0.9930662 0.5007616
vt 0.9930662 0.5007616
vt 0.1528315 0.47305
vt 0.1528315 0.47305
vt 0.1528315 0.47305
vt 0.1528315 0.47305
vt 0.1528315 0.47305
vt 0.1528315 0.47305
vt 0.1528315 0.47305
vt 0.1528315 0.47305
vt 0.1528315 0.47305
vt 0.1528315 0.47305
vt 0.1528315 0.47305
vt 0.1528315 0.47305
vt 0.1528315 0.47305
vt 0.1528315 0.47305
vt 0.1528315 0.47305
vt 0.1528315 0.47305
vt 0.1528315 0.47305
vt 0.1528315 0.47305
vt 0.9930662 0.5007616
vt 0.9930662 0.5007616
vt 0.9930662 0.5007616
vt 0.9930662 0.5007616
vt 0.9930662 0.5007616
vt 0.9930662 0.5007616
vt 0.9930662 0.5007616
vt 0.9930662 0.5007616
vt 0.9930662 0.5007616
vt 0.9930662 0.5007616
vt 0.9930662 0.5007616
vt 0.9930662 0.5007616
vt 0.9930662 0.5007616
vt 0.9930662 0.5007616
vt 0.9930662 0.5007616
vt 0.9930662 0.5007616
vt 0.9930662 0.5007616
vt 0.9930662 0.5007616
vt 0.9930662 0.5007616
vt 0.9930662 0.5007616
vt 0.9930662 0.5007616
vt 0.9930662 0.5007616
vt 0.9930662 0.5007616
vt 0.9930662 0.5007616
vt 0.9930662 0.5007616
vt 0.9930662 0.5007616
vt 0.9930662 0.5007616
vt 0.9930662 0.5007616
vt 0.9930662 0.5007616
vt 0.9930662 0.5007616
vt 0.9930662 0.5007616
vt 0.9930662 0.5007616
vt 0.1528315 0.47305
vt 0.1528315 0.47305
vt 0.1528315 0.47305
vt 0.1528315 0.47305
vt 0.1528315 0.47305
vt 0.1528315 0.47305
vt 0.1528315 0.47305
vt 0.1528315 0.47305
vt 0.1528315 0.47305
vt 0.1528315 0.47305
vt 0.1528315 0.47305
vt 0.1528315 0.47305
vt 0.1528315 0.47305
vt 0.1528315 0.47305
vt 0.1528315 0.47305
vt 0.1528315 0.47305
vt 0.1528315 0.47305
vt 0.1528315 0.47305
vt 0.1528315 0.47305
vt 0.1528315 0.47305
vt 0.1528315 0.47305
vt 0.1528315 0.47305
vt 0.1528315 0.47305
vt 0.1528315 0.47305
vt 0.1528315 0.47305
vt 0.1528315 0.47305
vt 0.1528315 0.47305
vt 0.1528315 0.47305
vt 0.1528315 0.47305
vt 0.1528315 0.47305
vt 0.1528315 0.47305
vt 0.1528315 0.47305

usemtl PolygonSamurai_Mat_01
usemap PolygonSamurai_Mat_01
f 2/2/2 1/1/1 3/3/3
f 5/5/5 4/4/4 6/6/6
f 8/8/8 7/7/7 9/9/9
f 11/11/11 10/10/10 12/12/12
f 14/14/14 13/13/13 15/15/15
f 15/15/15 13/13/13 16/16/16
f 18/18/18 17/17/17 19/19/19
f 19/19/19 17/17/17 20/20/20
f 22/22/22 21/21/21 23/23/23
f 23/23/23 21/21/21 24/24/24
f 26/26/26 25/25/25 27/27/27
f 27/27/27 25/25/25 28/28/28
f 28/28/28 29/29/29 27/27/27
f 30/30/30 29/29/29 28/28/28
f 25/25/25 31/31/31 28/28/28
f 31/31/31 30/30/30 28/28/28
f 32/32/32 31/31/31 25/25/25
f 33/33/33 30/30/30 31/31/31
f 35/35/35 34/34/34 36/36/36
f 36/36/36 34/34/34 37/37/37
f 39/39/39 38/38/38 40/40/40
f 40/40/40 38/38/38 41/41/41
f 43/43/43 42/42/42 44/44/44
f 44/44/44 42/42/42 45/45/45
f 47/47/47 46/46/46 48/48/48
f 48/48/48 46/46/46 49/49/49
f 51/51/51 50/50/50 52/52/52
f 52/52/52 50/50/50 53/53/53
f 55/55/55 54/54/54 56/56/56
f 56/56/56 54/54/54 57/57/57
f 59/59/59 58/58/58 60/60/60
f 60/60/60 58/58/58 61/61/61
f 63/63/63 62/62/62 64/64/64
f 64/64/64 62/62/62 65/65/65
f 67/67/67 66/66/66 68/68/68
f 68/68/68 66/66/66 69/69/69
f 68/68/68 69/69/69 70/70/70
f 70/70/70 69/69/69 71/71/71
f 73/73/73 72/72/72 74/74/74
f 74/74/74 72/72/72 75/75/75
f 77/77/77 76/76/76 78/78/78
f 78/78/78 76/76/76 79/79/79
f 81/81/81 80/80/80 82/82/82
f 82/82/82 80/80/80 83/83/83
f 85/85/85 84/84/84 86/86/86
f 86/86/86 84/84/84 87/87/87
f 89/89/89 88/88/88 90/90/90
f 90/90/90 88/88/88 91/91/91
f 93/93/93 92/92/92 94/94/94
f 94/94/94 92/92/92 95/95/95
f 97/97/97 96/96/96 98/98/98
f 98/98/98 96/96/96 99/99/99
f 101/101/101 100/100/100 102/102/102
f 102/102/102 100/100/100 103/103/103
f 105/105/105 104/104/104 106/106/106
f 106/106/106 104/104/104 107/107/107
f 109/109/109 108/108/108 110/110/110
f 111/111/111 110/110/110 108/108/108
f 112/112/112 111/111/111 108/108/108
f 114/114/114 113/113/113 115/115/115
f 116/116/116 115/115/115 113/113/113
f 117/117/117 116/116/116 113/113/113
f 119/119/119 118/118/118 120/120/120
f 120/120/120 118/118/118 121/121/121
f 123/123/123 122/122/122 124/124/124
f 125/125/125 124/124/124 122/122/122
f 126/126/126 125/125/125 122/122/122
f 128/128/128 127/127/127 129/129/129
f 130/130/130 129/129/129 127/127/127
f 131/131/131 130/130/130 127/127/127
f 133/133/133 132/132/132 134/134/134
f 134/134/134 132/132/132 135/135/135
