mtllib ./SM_Env_SteppingStone_04_71.mtl
g SM_Env_SteppingStone_04
v 0.3605652 0.1572149 -0.3159637
v 0.1506653 0.1572149 -1.057556
v 0.1879807 0 -1.111931
v 0.4215393 0 -0.2867584
v -0.7193146 0.1572149 -0.841156
v -0.45364 0.1572149 -1.128197
v 0.1506653 0.1572149 -1.057556
v 0.3605652 0.1572149 -0.3159637
v 0.1414146 0.1572149 -0.005126953
v -0.6326981 0.1572149 -0.1298523
v -0.7800484 0 -0.8711472
v -0.4844284 0 -1.190529
v -0.45364 0.1572149 -1.128197
v -0.7193146 0.1572149 -0.841156
v 0.1879807 0 -1.111931
v 0.1506653 0.1572149 -1.057556
v -0.45364 0.1572149 -1.128197
v -0.4844284 0 -1.190529
v -0.68367 0 -0.07967377
v -0.6326981 0.1572149 -0.1298523
v 0.1414146 0.1572149 -0.005126953
v 0.1776886 0 0.05910492
v 0.1776886 0 0.05910492
v 0.1414146 0.1572149 -0.005126953
v 0.3605652 0.1572149 -0.3159637
v 0.4215393 0 -0.2867584
v -0.6326981 0.1572149 -0.1298523
v -0.68367 0 -0.07967377
v -0.7800484 0 -0.8711472
v -0.7193146 0.1572149 -0.841156
v -1.189999 0.1572149 0.5420532
v -0.8514748 0.1572149 0.5339508
v -0.8094826 0 0.5778351
v -1.227394 0 0.5983734
v -0.945961 0.1572149 -0.245163
v -0.6243706 0.1572149 0.1053925
v -0.8514748 0.1572149 0.5339508
v -1.189999 0.1572149 0.5420532
v -1.344349 0.1572149 0.3931808
v -1.290493 0.1572149 -0.1118927
v -0.9078217 0 -0.3011398
v -0.5567856 0 0.1009827
v -0.6243706 0.1572149 0.1053925
v -0.945961 0.1572149 -0.245163
v -0.8094826 0 0.5778351
v -0.8514748 0.1572149 0.5339508
v -0.6243706 0.1572149 0.1053925
v -0.5567856 0 0.1009827
v -1.343735 0 -0.1596527
v -1.290493 0.1572149 -0.1118927
v -1.344349 0.1572149 0.3931808
v -1.406212 0 0.4333649
v -1.406212 0 0.4333649
v -1.344349 0.1572149 0.3931808
v -1.189999 0.1572149 0.5420532
v -1.227394 0 0.5983734
v -1.290493 0.1572149 -0.1118927
v -1.343735 0 -0.1596527
v -0.9078217 0 -0.3011398
v -0.945961 0.1572149 -0.245163
v 0.7187805 0.1572149 -0.3829117
v 1.024811 0.1572149 -0.5278625
v 1.081009 0 -0.5048294
v 0.7074966 0 -0.3162537
v 0.6219063 0.1572149 -1.20137
v 1.058193 0.1572149 -1.011719
v 1.024811 0.1572149 -0.5278625
v 0.7187805 0.1572149 -0.3829117
v 0.5172577 0.1572149 -0.4562225
v 0.361248 0.1572149 -0.9396057
v 0.6340103 0 -1.268013
v 1.118153 0 -1.043221
v 1.058193 0.1572149 -1.011719
v 0.6219063 0.1572149 -1.20137
v 1.081009 0 -0.5048294
v 1.024811 0.1572149 -0.5278625
v 1.058193 0.1572149 -1.011719
v 1.118153 0 -1.043221
v 0.29319 0 -0.9616165
v 0.361248 0.1572149 -0.9396057
v 0.5172577 0.1572149 -0.4562225
v 0.4770584 0 -0.3943634
v 0.4770584 0 -0.3943634
v 0.5172577 0.1572149 -0.4562225
v 0.7187805 0.1572149 -0.3829117
v 0.7074966 0 -0.3162537
v 0.361248 0.1572149 -0.9396057
v 0.29319 0 -0.9616165
v 0.6340103 0 -1.268013
v 0.6219063 0.1572149 -1.20137
v 0.565052 0.1572149 0.1255112
v 0.7771683 0.1572149 0.3894653
v 0.7678261 0 0.4494781
v 0.4975967 0 0.1300278
v 1.338585 0.1572149 -0.1589508
v 1.255535 0.1572149 0.3094711
v 0.7771683 0.1572149 0.3894653
v 0.565052 0.1572149 0.1255112
v 0.5895195 0.1572149 -0.08753204
v 1.023403 0.1572149 -0.3516312
v 1.406212 0 -0.1626663
v 1.300106 0 0.360466
v 1.255535 0.1572149 0.3094711
v 1.338585 0.1572149 -0.1589508
v 0.7678261 0 0.4494781
v 0.7771683 0.1572149 0.3894653
v 1.255535 0.1572149 0.3094711
v 1.300106 0 0.360466
v 1.028988 0 -0.4229355
v 1.023403 0.1572149 -0.3516312
v 0.5895195 0.1572149 -0.08753204
v 0.5200119 0 -0.1122513
v 0.5200119 0 -0.1122513
v 0.5895195 0.1572149 -0.08753204
v 0.565052 0.1572149 0.1255112
v 0.4975967 0 0.1300278
v 1.023403 0.1572149 -0.3516312
v 1.028988 0 -0.4229355
v 1.406212 0 -0.1626663
v 1.338585 0.1572149 -0.1589508
v -0.3527832 0.1866534 1.212784
v 0.4134827 0.1866534 1.130043
v 0.4608421 0.02943847 1.175934
v -0.3917847 0.02943847 1.268005
v 0.3458366 0.1866534 0.2361069
v 0.5843277 0.1866534 0.5460968
v 0.4134827 0.1866534 1.130043
v -0.3527832 0.1866534 1.212784
v -0.6225281 0.1866534 0.9446793
v -0.3699265 0.1866534 0.2023849
v 0.3855705 0.02943847 0.1812515
v 0.6509399 0.02943847 0.5261841
v 0.5843277 0.1866534 0.5460968
v 0.3458366 0.1866534 0.2361069
v 0.4608421 0.02943847 1.175934
v 0.4134827 0.1866534 1.130043
v 0.5843277 0.1866534 0.5460968
v 0.6509399 0.02943847 0.5261841
v -0.410862 0.02943847 0.1437302
v -0.3699265 0.1866534 0.2023849
v -0.6225281 0.1866534 0.9446793
v -0.6919327 0.02943847 0.9696808
v -0.6919327 0.02943847 0.9696808
v -0.6225281 0.1866534 0.9446793
v -0.3527832 0.1866534 1.212784
v -0.3917847 0.02943847 1.268005
v -0.3699265 0.1866534 0.2023849
v -0.410862 0.02943847 0.1437302
v 0.3855705 0.02943847 0.1812515
v 0.3458366 0.1866534 0.2361069

vn 0.9157346 0.3070025 -0.2591904
vn 0.9157346 0.3070025 -0.2591904
vn 0.9157346 0.3070025 -0.2591904
vn 0.9157346 0.3070025 -0.2591904
vn 0 1 0
vn 0 1 0
vn 0 1 0
vn 0 1 0
vn 0 1 0
vn 0 1 0
vn -0.6782976 0.3817761 -0.627821
vn -0.6782976 0.3817761 -0.627821
vn -0.6782976 0.3817761 -0.627821
vn -0.6782976 0.3817761 -0.627821
vn 0.1088499 0.3478908 -0.9311947
vn 0.1088499 0.3478908 -0.9311947
vn 0.1088499 0.3478908 -0.9311947
vn 0.1088499 0.3478908 -0.9311947
vn -0.1493439 0.3442566 0.9269217
vn -0.1493439 0.3442566 0.9269217
vn -0.1493439 0.3442566 0.9269217
vn -0.1493439 0.3442566 0.9269217
vn 0.7524468 0.3903671 0.5305067
vn 0.7524468 0.3903671 0.5305067
vn 0.7524468 0.3903671 0.5305067
vn 0.7524468 0.3903671 0.5305067
vn -0.933863 0.3390694 0.1137175
vn -0.933863 0.3390694 0.1137175
vn -0.933863 0.3390694 0.1137175
vn -0.933863 0.3390694 0.1137175
vn 0.03604594 0.303921 0.9520151
vn 0.03604594 0.303921 0.9520151
vn 0.03604594 0.303921 0.9520151
vn 0.03604594 0.303921 0.9520151
vn 0 1 0
vn 0 1 0
vn 0 1 0
vn 0 1 0
vn 0 1 0
vn 0 1 0
vn 0.6973207 0.3541462 -0.6231568
vn 0.6973207 0.3541462 -0.6231568
vn 0.6973207 0.3541462 -0.6231568
vn 0.6973207 0.3541462 -0.6231568
vn 0.829578 0.3442943 0.4396154
vn 0.829578 0.3442943 0.4396154
vn 0.829578 0.3442943 0.4396154
vn 0.829578 0.3442943 0.4396154
vn -0.933679 0.3441791 -0.098915
vn -0.933679 0.3441791 -0.098915
vn -0.933679 0.3441791 -0.098915
vn -0.933679 0.3441791 -0.098915
vn -0.6276863 0.4026324 0.6662559
vn -0.6276863 0.4026324 0.6662559
vn -0.6276863 0.4026324 0.6662559
vn -0.6276863 0.4026324 0.6662559
vn -0.3156141 0.3109324 -0.896498
vn -0.3156141 0.3109324 -0.896498
vn -0.3156141 0.3109324 -0.896498
vn -0.3156141 0.3109324 -0.896498
vn 0.4197607 0.3039173 0.8552399
vn 0.4197607 0.3039173 0.8552399
vn 0.4197607 0.3039173 0.8552399
vn 0.4197607 0.3039173 0.8552399
vn 0 1 0
vn 0 1 0
vn 0 1 0
vn 0 1 0
vn 0 1 0
vn 0 1 0
vn 0.3839593 0.3541644 -0.8527266
vn 0.3839593 0.3541644 -0.8527266
vn 0.3839593 0.3541644 -0.8527266
vn 0.3839593 0.3541644 -0.8527266
vn 0.9366419 0.3442764 0.06462011
vn 0.9366419 0.3442764 0.06462011
vn 0.9366419 0.3442764 0.06462011
vn 0.9366419 0.3442764 0.06462011
vn -0.8933192 0.3441911 0.2889864
vn -0.8933192 0.3441911 0.2889864
vn -0.8933192 0.3441911 0.2889864
vn -0.8933192 0.3441911 0.2889864
vn -0.302805 0.402649 0.8638188
vn -0.302805 0.402649 0.8638188
vn -0.302805 0.402649 0.8638188
vn -0.302805 0.402649 0.8638188
vn -0.6526456 0.310945 -0.6909174
vn -0.6526456 0.310945 -0.6909174
vn -0.6526456 0.310945 -0.6909174
vn -0.6526456 0.310945 -0.6909174
vn -0.7342447 0.3039189 0.6070568
vn -0.7342447 0.3039189 0.6070568
vn -0.7342447 0.3039189 0.6070568
vn -0.7342447 0.3039189 0.6070568
vn 0 1 0
vn 0 1 0
vn 0 1 0
vn 0 1 0
vn 0 1 0
vn 0 1 0
vn 0.9186253 0.3541432 0.1752432
vn 0.9186253 0.3541432 0.1752432
vn 0.9186253 0.3541432 0.1752432
vn 0.9186253 0.3541432 0.1752432
vn 0.1548531 0.3442728 0.9260113
vn 0.1548531 0.3442728 0.9260113
vn 0.1548531 0.3442728 0.9260113
vn 0.1548531 0.3442728 0.9260113
vn -0.4887189 0.3441805 -0.8016818
vn -0.4887189 0.3441805 -0.8016818
vn -0.4887189 0.3441805 -0.8016818
vn -0.4887189 0.3441805 -0.8016818
vn -0.9105411 0.4026476 -0.0937546
vn -0.9105411 0.4026476 -0.0937546
vn -0.9105411 0.4026476 -0.0937546
vn -0.9105411 0.4026476 -0.0937546
vn 0.5203056 0.3109151 -0.7953703
vn 0.5203056 0.3109151 -0.7953703
vn 0.5203056 0.3109151 -0.7953703
vn 0.5203056 0.3109151 -0.7953703
vn 0.1021744 0.3069926 0.9462113
vn 0.1021744 0.3069926 0.9462113
vn 0.1021744 0.3069926 0.9462113
vn 0.1021744 0.3069926 0.9462113
vn 0 1 0
vn 0 1 0
vn 0 1 0
vn 0 1 0
vn 0 1 0
vn 0 1 0
vn 0.732547 0.3817747 -0.5635805
vn 0.732547 0.3817747 -0.5635805
vn 0.732547 0.3817747 -0.5635805
vn 0.732547 0.3817747 -0.5635805
vn 0.8998097 0.3479052 0.2632576
vn 0.8998097 0.3479052 0.2632576
vn 0.8998097 0.3479052 0.2632576
vn 0.8998097 0.3479052 0.2632576
vn -0.888814 0.3442762 -0.3024626
vn -0.888814 0.3442762 -0.3024626
vn -0.888814 0.3442762 -0.3024626
vn -0.888814 0.3442762 -0.3024626
vn -0.649018 0.3903639 0.6529867
vn -0.649018 0.3903639 0.6529867
vn -0.649018 0.3903639 0.6529867
vn -0.649018 0.3903639 0.6529867
vn 0.04427245 0.3390719 -0.9397181
vn 0.04427245 0.3390719 -0.9397181
vn 0.04427245 0.3390719 -0.9397181
vn 0.04427245 0.3390719 -0.9397181

vt 0.4436915 0.3265093
vt 0.4436915 0.3265093
vt 0.4436915 0.3265093
vt 0.4436915 0.3265093
vt 0.4436915 0.3265093
vt 0.4436915 0.3265093
vt 0.4436915 0.3265093
vt 0.4436915 0.3265093
vt 0.4436915 0.3265093
vt 0.4436915 0.3265093
vt 0.4436915 0.3265093
vt 0.4436915 0.3265093
vt 0.4436915 0.3265093
vt 0.4436915 0.3265093
vt 0.4436915 0.3265093
vt 0.4436915 0.3265093
vt 0.4436915 0.3265093
vt 0.4436915 0.3265093
vt 0.4436915 0.3265093
vt 0.4436915 0.3265093
vt 0.4436915 0.3265093
vt 0.4436915 0.3265093
vt 0.4436915 0.3265093
vt 0.4436915 0.3265093
vt 0.4436915 0.3265093
vt 0.4436915 0.3265093
vt 0.4436915 0.3265093
vt 0.4436915 0.3265093
vt 0.4436915 0.3265093
vt 0.4436915 0.3265093
vt 0.4436915 0.3265093
vt 0.4436915 0.3265093
vt 0.4436915 0.3265093
vt 0.4436915 0.3265093
vt 0.4436915 0.3265093
vt 0.4436915 0.3265093
vt 0.4436915 0.3265093
vt 0.4436915 0.3265093
vt 0.4436915 0.3265093
vt 0.4436915 0.3265093
vt 0.4436915 0.3265093
vt 0.4436915 0.3265093
vt 0.4436915 0.3265093
vt 0.4436915 0.3265093
vt 0.4436915 0.3265093
vt 0.4436915 0.3265093
vt 0.4436915 0.3265093
vt 0.4436915 0.3265093
vt 0.4436915 0.3265093
vt 0.4436915 0.3265093
vt 0.4436915 0.3265093
vt 0.4436915 0.3265093
vt 0.4436915 0.3265093
vt 0.4436915 0.3265093
vt 0.4436915 0.3265093
vt 0.4436915 0.3265093
vt 0.4436915 0.3265093
vt 0.4436915 0.3265093
vt 0.4436915 0.3265093
vt 0.4436915 0.3265093
vt 0.4436915 0.3265093
vt 0.4436915 0.3265093
vt 0.4436915 0.3265093
vt 0.4436915 0.3265093
vt 0.4436915 0.3265093
vt 0.4436915 0.3265093
vt 0.4436915 0.3265093
vt 0.4436915 0.3265093
vt 0.4436915 0.3265093
vt 0.4436915 0.3265093
vt 0.4436915 0.3265093
vt 0.4436915 0.3265093
vt 0.4436915 0.3265093
vt 0.4436915 0.3265093
vt 0.4436915 0.3265093
vt 0.4436915 0.3265093
vt 0.4436915 0.3265093
vt 0.4436915 0.3265093
vt 0.4436915 0.3265093
vt 0.4436915 0.3265093
vt 0.4436915 0.3265093
vt 0.4436915 0.3265093
vt 0.4436915 0.3265093
vt 0.4436915 0.3265093
vt 0.4436915 0.3265093
vt 0.4436915 0.3265093
vt 0.4436915 0.3265093
vt 0.4436915 0.3265093
vt 0.4436915 0.3265093
vt 0.4436915 0.3265093
vt 0.4436915 0.3265093
vt 0.4436915 0.3265093
vt 0.4436915 0.3265093
vt 0.4436915 0.3265093
vt 0.4436915 0.3265093
vt 0.4436915 0.3265093
vt 0.4436915 0.3265093
vt 0.4436915 0.3265093
vt 0.4436915 0.3265093
vt 0.4436915 0.3265093
vt 0.4436915 0.3265093
vt 0.4436915 0.3265093
vt 0.4436915 0.3265093
vt 0.4436915 0.3265093
vt 0.4436915 0.3265093
vt 0.4436915 0.3265093
vt 0.4436915 0.3265093
vt 0.4436915 0.3265093
vt 0.4436915 0.3265093
vt 0.4436915 0.3265093
vt 0.4436915 0.3265093
vt 0.4436915 0.3265093
vt 0.4436915 0.3265093
vt 0.4436915 0.3265093
vt 0.4436915 0.3265093
vt 0.4436915 0.3265093
vt 0.4436915 0.3265093
vt 0.4436915 0.3265093
vt 0.4436915 0.3265093
vt 0.4436915 0.3265093
vt 0.4436915 0.3265093
vt 0.4436915 0.3265093
vt 0.4436915 0.3265093
vt 0.4436915 0.3265093
vt 0.4436915 0.3265093
vt 0.4436915 0.3265093
vt 0.4436915 0.3265093
vt 0.4436915 0.3265093
vt 0.4436915 0.3265093
vt 0.4436915 0.3265093
vt 0.4436915 0.3265093
vt 0.4436915 0.3265093
vt 0.4436915 0.3265093
vt 0.4436915 0.3265093
vt 0.4436915 0.3265093
vt 0.4436915 0.3265093
vt 0.4436915 0.3265093
vt 0.4436915 0.3265093
vt 0.4436915 0.3265093
vt 0.4436915 0.3265093
vt 0.4436915 0.3265093
vt 0.4436915 0.3265093
vt 0.4436915 0.3265093
vt 0.4436915 0.3265093
vt 0.4436915 0.3265093
vt 0.4436915 0.3265093
vt 0.4436915 0.3265093
vt 0.4436915 0.3265093
vt 0.4436915 0.3265093
vt 0.4436915 0.3265093

usemtl PolygonSamurai_Mat_01
usemap PolygonSamurai_Mat_01
f 2/2/2 1/1/1 3/3/3
f 3/3/3 1/1/1 4/4/4
f 6/6/6 5/5/5 7/7/7
f 7/7/7 5/5/5 8/8/8
f 5/5/5 9/9/9 8/8/8
f 10/10/10 9/9/9 5/5/5
f 12/12/12 11/11/11 13/13/13
f 13/13/13 11/11/11 14/14/14
f 16/16/16 15/15/15 17/17/17
f 17/17/17 15/15/15 18/18/18
f 20/20/20 19/19/19 21/21/21
f 21/21/21 19/19/19 22/22/22
f 24/24/24 23/23/23 25/25/25
f 25/25/25 23/23/23 26/26/26
f 28/28/28 27/27/27 29/29/29
f 29/29/29 27/27/27 30/30/30
f 32/32/32 31/31/31 33/33/33
f 33/33/33 31/31/31 34/34/34
f 36/36/36 35/35/35 37/37/37
f 37/37/37 35/35/35 38/38/38
f 35/35/35 39/39/39 38/38/38
f 40/40/40 39/39/39 35/35/35
f 42/42/42 41/41/41 43/43/43
f 43/43/43 41/41/41 44/44/44
f 46/46/46 45/45/45 47/47/47
f 47/47/47 45/45/45 48/48/48
f 50/50/50 49/49/49 51/51/51
f 51/51/51 49/49/49 52/52/52
f 54/54/54 53/53/53 55/55/55
f 55/55/55 53/53/53 56/56/56
f 58/58/58 57/57/57 59/59/59
f 59/59/59 57/57/57 60/60/60
f 62/62/62 61/61/61 63/63/63
f 63/63/63 61/61/61 64/64/64
f 66/66/66 65/65/65 67/67/67
f 67/67/67 65/65/65 68/68/68
f 65/65/65 69/69/69 68/68/68
f 70/70/70 69/69/69 65/65/65
f 72/72/72 71/71/71 73/73/73
f 73/73/73 71/71/71 74/74/74
f 76/76/76 75/75/75 77/77/77
f 77/77/77 75/75/75 78/78/78
f 80/80/80 79/79/79 81/81/81
f 81/81/81 79/79/79 82/82/82
f 84/84/84 83/83/83 85/85/85
f 85/85/85 83/83/83 86/86/86
f 88/88/88 87/87/87 89/89/89
f 89/89/89 87/87/87 90/90/90
f 92/92/92 91/91/91 93/93/93
f 93/93/93 91/91/91 94/94/94
f 96/96/96 95/95/95 97/97/97
f 97/97/97 95/95/95 98/98/98
f 95/95/95 99/99/99 98/98/98
f 100/100/100 99/99/99 95/95/95
f 102/102/102 101/101/101 103/103/103
f 103/103/103 101/101/101 104/104/104
f 106/106/106 105/105/105 107/107/107
f 107/107/107 105/105/105 108/108/108
f 110/110/110 109/109/109 111/111/111
f 111/111/111 109/109/109 112/112/112
f 114/114/114 113/113/113 115/115/115
f 115/115/115 113/113/113 116/116/116
f 118/118/118 117/117/117 119/119/119
f 119/119/119 117/117/117 120/120/120
f 122/122/122 121/121/121 123/123/123
f 123/123/123 121/121/121 124/124/124
f 126/126/126 125/125/125 127/127/127
f 127/127/127 125/125/125 128/128/128
f 125/125/125 129/129/129 128/128/128
f 130/130/130 129/129/129 125/125/125
f 132/132/132 131/131/131 133/133/133
f 133/133/133 131/131/131 134/134/134
f 136/136/136 135/135/135 137/137/137
f 137/137/137 135/135/135 138/138/138
f 140/140/140 139/139/139 141/141/141
f 141/141/141 139/139/139 142/142/142
f 144/144/144 143/143/143 145/145/145
f 145/145/145 143/143/143 146/146/146
f 148/148/148 147/147/147 149/149/149
f 149/149/149 147/147/147 150/150/150
