mtllib ./SM_Env_Tile_Zen_01_63.mtl
g SM_Env_Tile_Zen_01
v 2.5 -7.450581E-09 0
v 2.5 -7.450581E-09 0.3125
v 1.763561 -7.450581E-09 0.3169975
v 1.759239 -7.450581E-09 0
v 0.7215271 -7.450581E-09 0
v 0.9043846 -7.450581E-09 0.3100777
v 0 -7.450581E-09 0
v 0 -7.450581E-09 0.3125
v 2.5 -7.450581E-09 1.25
v 2.5 -0.01691085 1.328125
v 1.913006 -0.01691085 1.370632
v 1.758003 -7.450581E-09 1.292236
v 0.9488564 -7.450581E-09 1.280766
v 1.005577 -0.01691085 1.342976
v 0 -7.450581E-09 1.25
v 0 -0.01691085 1.328125
v 2.5 -7.450581E-09 1.875
v 2.5 -0.01691085 1.953125
v 1.762085 -0.01691085 1.937077
v 1.773762 -7.450581E-09 1.864799
v 1.030365 -7.450581E-09 1.817616
v 1.006454 -0.01691085 1.90284
v 0 -7.450581E-09 1.875
v 0 -0.01691085 1.953125
v 2.5 -7.450581E-09 0.625
v 2.5 -7.450581E-09 0.9375
v 1.777752 -7.450581E-09 0.9645538
v 1.920544 -7.450581E-09 0.6047859
v 1.031738 -7.450581E-09 0.6243744
v 0.8089905 -7.450581E-09 1.005173
v 0 -7.450581E-09 0.625
v 0 -7.450581E-09 0.9375
v 2.5 -7.450581E-09 0.3125
v 2.5 -0.01691085 0.390625
v 1.862118 -0.01691085 0.3758965
v 1.763561 -7.450581E-09 0.3169975
v 0.9043846 -7.450581E-09 0.3100777
v 0.9869995 -0.01691085 0.3835182
v 0 -7.450581E-09 0.3125
v 0 -0.01691085 0.390625
v 2.5 -7.450581E-09 0.9375
v 2.5 -0.01691085 1.015625
v 1.80595 -0.01691085 1.052082
v 1.777752 -7.450581E-09 0.9645538
v 0.8089905 -7.450581E-09 1.005173
v 0.7583847 -0.01691085 1.086189
v 0 -7.450581E-09 0.9375
v 0 -0.01691085 1.015625
v 2.5 -7.450581E-09 1.5625
v 2.5 -7.450581E-09 1.875
v 1.773762 -7.450581E-09 1.864799
v 1.862103 -7.450581E-09 1.587585
v 0.9201202 -7.450581E-09 1.528786
v 1.030365 -7.450581E-09 1.817616
v 0 -7.450581E-09 1.5625
v 0 -7.450581E-09 1.875
v 2.5 -7.450581E-09 2.1875
v 2.5 -7.450581E-09 2.5
v 1.773762 -7.450581E-09 2.5
v 1.680664 -7.450581E-09 2.161098
v 0.8264771 -7.450581E-09 2.169983
v 0.7215271 -7.450581E-09 2.5
v 0 -7.450581E-09 2.1875
v 0 -7.450581E-09 2.5
v 2.5 -7.450581E-09 1.09375
v 2.5 -0.01691085 1.171875
v 1.701534 -0.01691085 1.215145
v 1.762405 -7.450581E-09 1.139046
v 0.7552032 -7.450581E-09 1.157532
v 0.8428421 -0.01691085 1.220119
v 0 -7.450581E-09 1.09375
v 0 -0.01691085 1.171875
v 2.5 -7.450581E-09 1.40625
v 2.5 -0.01691085 1.484375
v 1.940022 -0.01691085 1.517235
v 1.991325 -7.450581E-09 1.442085
v 0.9869385 -7.450581E-09 1.40337
v 0.9261169 -0.01691085 1.465141
v 0 -7.450581E-09 1.40625
v 0 -0.01691085 1.484375
v 2.5 -0.01691085 1.015625
v 2.5 -7.450581E-09 1.09375
v 1.762405 -7.450581E-09 1.139046
v 1.80595 -0.01691085 1.052082
v 0.7583847 -0.01691085 1.086189
v 0.7552032 -7.450581E-09 1.157532
v 0 -0.01691085 1.015625
v 0 -7.450581E-09 1.09375
v 2.5 -0.01691085 1.171875
v 2.5 -7.450581E-09 1.25
v 1.758003 -7.450581E-09 1.292236
v 1.701534 -0.01691085 1.215145
v 0.8428421 -0.01691085 1.220119
v 0.9488564 -7.450581E-09 1.280766
v 0 -0.01691085 1.171875
v 0 -7.450581E-09 1.25
v 2.5 -0.01691085 1.328125
v 2.5 -7.450581E-09 1.40625
v 1.991325 -7.450581E-09 1.442085
v 1.913006 -0.01691085 1.370632
v 1.005577 -0.01691085 1.342976
v 0.9869385 -7.450581E-09 1.40337
v 0 -0.01691085 1.328125
v 0 -7.450581E-09 1.40625
v 2.5 -0.01691085 1.484375
v 2.5 -7.450581E-09 1.5625
v 1.862103 -7.450581E-09 1.587585
v 1.940022 -0.01691085 1.517235
v 0.9261169 -0.01691085 1.465141
v 0.9201202 -7.450581E-09 1.528786
v 0 -0.01691085 1.484375
v 0 -7.450581E-09 1.5625
v 2.5 -7.450581E-09 0.46875
v 2.5 -0.01691085 0.546875
v 1.88097 -0.01691085 0.5238228
v 1.868614 -7.450581E-09 0.4478302
v 0.9836464 -7.450581E-09 0.4573479
v 0.9567337 -0.01691085 0.5381012
v 0 -7.450581E-09 0.46875
v 0 -0.01691085 0.546875
v 2.5 -0.01691085 0.390625
v 2.5 -7.450581E-09 0.46875
v 1.868614 -7.450581E-09 0.4478302
v 1.862118 -0.01691085 0.3758965
v 0.9869995 -0.01691085 0.3835182
v 0.9836464 -7.450581E-09 0.4573479
v 0 -0.01691085 0.390625
v 0 -7.450581E-09 0.46875
v 2.5 -0.01691085 0.546875
v 2.5 -7.450581E-09 0.625
v 1.920544 -7.450581E-09 0.6047859
v 1.88097 -0.01691085 0.5238228
v 0.9567337 -0.01691085 0.5381012
v 1.031738 -7.450581E-09 0.6243744
v 0 -0.01691085 0.546875
v 0 -7.450581E-09 0.625
v 2.5 -7.450581E-09 2.03125
v 2.5 -0.01691085 2.109375
v 1.609489 -0.01691085 2.084351
v 1.670506 -7.450581E-09 2.009842
v 0.9586258 -7.450581E-09 1.99115
v 0.893692 -0.01691085 2.080906
v 0 -7.450581E-09 2.03125
v 0 -0.01691085 2.109375
v 2.5 -0.01691085 1.953125
v 2.5 -7.450581E-09 2.03125
v 1.670506 -7.450581E-09 2.009842
v 1.762085 -0.01691085 1.937077
v 1.006454 -0.01691085 1.90284
v 0.9586258 -7.450581E-09 1.99115
v 0 -0.01691085 1.953125
v 0 -7.450581E-09 2.03125
v 2.5 -0.01691085 2.109375
v 2.5 -7.450581E-09 2.1875
v 1.680664 -7.450581E-09 2.161098
v 1.609489 -0.01691085 2.084351
v 0.893692 -0.01691085 2.080906
v 0.8264771 -7.450581E-09 2.169983
v 0 -0.01691085 2.109375
v 0 -7.450581E-09 2.1875

vn 0 1 0
vn 0 1 0
vn 0 1 0
vn 0 1 0
vn 0 1 0
vn 0 1 0
vn 0 1 0
vn 0 1 0
vn 0.01269957 0.9798845 0.1991612
vn 0.01269957 0.9798845 0.1991612
vn 0.003596125 0.9753818 0.2204934
vn 0.003596125 0.9753818 0.2204934
vn -0.005513474 0.9709909 0.239053
vn -0.005513474 0.9709909 0.239053
vn -0.005517577 0.9716398 0.2364017
vn -0.005517577 0.9716398 0.2364017
vn -0.00392804 0.9756935 0.2191042
vn -0.00392804 0.9756935 0.2191042
vn -0.007599596 0.9769551 0.2133096
vn -0.007599596 0.9769551 0.2133096
vn -0.0002367807 0.9785746 0.2058924
vn -0.0002367807 0.9785746 0.2058924
vn 0.01079725 0.9788583 0.2042546
vn 0.01079725 0.9788583 0.2042546
vn 0 1 0
vn 0 1 0
vn 0 1 0
vn 0 1 0
vn 0 1 0
vn 0 1 0
vn 0 1 0
vn 0 1 0
vn -0.001793012 0.9705598 0.2408535
vn -0.001793012 0.9705598 0.2408535
vn -0.0008464314 0.9697325 0.2441686
vn -0.0008464314 0.9697325 0.2441686
vn 0.0005973579 0.9726248 0.2323804
vn 0.0005973579 0.9726248 0.2323804
vn 0.001094411 0.9761212 0.2172238
vn 0.001094411 0.9761212 0.2172238
vn 0.00890496 0.9800439 0.1985813
vn 0.00890496 0.9800439 0.1985813
vn 0.008115499 0.9801422 0.1981295
vn 0.008115499 0.9801422 0.1981295
vn -0.005263566 0.9797689 0.2000627
vn -0.005263566 0.9797689 0.2000627
vn -0.0178523 0.9791371 0.202415
vn -0.0178523 0.9791371 0.202415
vn 0 1 0
vn 0 1 0
vn 0 1 0
vn 0 1 0
vn 0 1 0
vn 0 1 0
vn 0 1 0
vn 0 1 0
vn 0 1 0
vn 0 1 0
vn 0 1 0
vn 0 1 0
vn 0 1 0
vn 0 1 0
vn 0 1 0
vn 0 1 0
vn 0.01262391 0.9756554 0.2189455
vn 0.01262391 0.9756554 0.2189455
vn 0.007798421 0.9737056 0.2276767
vn 0.007798421 0.9737056 0.2276767
vn -0.007056868 0.9707314 0.2400644
vn -0.007056868 0.9707314 0.2400644
vn -0.01708505 0.969696 0.2437169
vn -0.01708505 0.969696 0.2437169
vn 0.01413987 0.9754049 0.2199666
vn 0.01413987 0.9754049 0.2199666
vn 0.001856785 0.9741547 0.2258743
vn 0.001856785 0.9741547 0.2258743
vn -0.003848757 0.9722455 0.2339317
vn -0.003848757 0.9722455 0.2339317
vn 0.002729321 0.9717219 0.2361124
vn 0.002729321 0.9717219 0.2361124
vn -0.01162813 0.9789788 -0.2036303
vn -0.01162813 0.9789788 -0.2036303
vn -0.008507458 0.978295 -0.2070421
vn -0.008507458 0.978295 -0.2070421
vn 0.007082627 0.9765055 -0.2153759
vn 0.007082627 0.9765055 -0.2153759
vn 0.01955057 0.9752446 -0.2202634
vn 0.01955057 0.9752446 -0.2202634
vn -0.0115933 0.9778764 -0.208862
vn -0.0115933 0.9778764 -0.208862
vn -0.005330962 0.9745249 -0.224216
vn -0.005330962 0.9745249 -0.224216
vn 0.005858531 0.9702511 -0.24203
vn 0.005858531 0.9702511 -0.24203
vn 0.01078398 0.9695775 -0.2445467
vn 0.01078398 0.9695775 -0.2445467
vn -0.0152249 0.9769489 -0.2129299
vn -0.0152249 0.9769489 -0.2129299
vn -0.003235856 0.9725621 -0.2326207
vn -0.003235856 0.9725621 -0.2326207
vn 0.005089643 0.9696084 -0.2446092
vn 0.005089643 0.9696084 -0.2446092
vn 0.001423935 0.9715045 -0.2370167
vn 0.001423935 0.9715045 -0.2370167
vn -0.01100874 0.9736974 -0.2275786
vn -0.01100874 0.9736974 -0.2275786
vn 0.001208669 0.9726652 -0.232209
vn 0.001208669 0.9726652 -0.232209
vn 0.003381811 0.9720932 -0.234571
vn 0.003381811 0.9720932 -0.234571
vn -0.006662602 0.9726173 -0.2323174
vn -0.006662602 0.9726173 -0.2323174
vn -0.007558028 0.9766014 0.2149248
vn -0.007558028 0.9766014 0.2149248
vn -0.002390343 0.9770387 0.2130484
vn -0.002390343 0.9770387 0.2130484
vn 0.002473022 0.9777273 0.2098646
vn 0.002473022 0.9777273 0.2098646
vn 0.002168626 0.9780065 0.2085634
vn 0.002168626 0.9780065 0.2085634
vn 0.006182361 0.9754522 -0.2201245
vn 0.006182361 0.9754522 -0.2201245
vn 0.001990923 0.9748037 -0.2230558
vn 0.001990923 0.9748037 -0.2230558
vn -0.002120795 0.9751252 -0.2216444
vn -0.002120795 0.9751252 -0.2216444
vn -0.00204098 0.976102 -0.2173034
vn -0.00204098 0.976102 -0.2173034
vn 0.007571978 0.9777268 -0.2097455
vn 0.007571978 0.9777268 -0.2097455
vn 0.001957185 0.9792205 -0.2027892
vn 0.001957185 0.9792205 -0.2027892
vn -0.002304175 0.9801071 -0.198456
vn -0.002304175 0.9801071 -0.198456
vn -0.0009505609 0.9795716 -0.2010939
vn -0.0009505609 0.9795716 -0.2010939
vn -0.005780637 0.9767875 0.2141329
vn -0.005780637 0.9767875 0.2141329
vn -0.00443627 0.9783799 0.2067683
vn -0.00443627 0.9783799 0.2067683
vn 0.002160516 0.9798301 0.1998202
vn 0.002160516 0.9798301 0.1998202
vn 0.007412617 0.9797182 0.2002433
vn 0.007412617 0.9797182 0.2002433
vn 0.005155486 0.9764379 -0.2157371
vn 0.005155486 0.9764379 -0.2157371
vn 0.006175994 0.9781869 -0.2076351
vn 0.006175994 0.9781869 -0.2076351
vn -0.001040516 0.97967 -0.2006128
vn -0.001040516 0.97967 -0.2006128
vn -0.009277032 0.9794048 -0.201693
vn -0.009277032 0.9794048 -0.201693
vn 0.006502568 0.9763269 -0.2162021
vn 0.006502568 0.9763269 -0.2162021
vn 0.002905214 0.9781193 -0.2080246
vn 0.002905214 0.9781193 -0.2080246
vn -0.003023959 0.9797748 -0.2000804
vn -0.003023959 0.9797748 -0.2000804
vn -0.005355522 0.9797139 -0.2003298
vn -0.005355522 0.9797139 -0.2003298

vt 0.5330938 0.07933158
vt 0.5330938 0.07933158
vt 0.5330938 0.07933158
vt 0.5330938 0.07933155
vt 0.5330938 0.07933158
vt 0.5330938 0.07933158
vt 0.5330938 0.07933158
vt 0.5330938 0.07933158
vt 0.5330938 0.07933158
vt 0.5330938 0.07933158
vt 0.5330938 0.07933158
vt 0.5330938 0.07933158
vt 0.5330938 0.07933158
vt 0.5330938 0.07933158
vt 0.5330938 0.07933158
vt 0.5330938 0.07933158
vt 0.5330938 0.07933158
vt 0.5330938 0.07933158
vt 0.5330938 0.07933158
vt 0.5330938 0.07933158
vt 0.5330938 0.07933158
vt 0.5330938 0.07933158
vt 0.5330938 0.07933158
vt 0.5330938 0.07933158
vt 0.5330938 0.07933158
vt 0.5330938 0.07933158
vt 0.5330938 0.07933158
vt 0.5330938 0.07933158
vt 0.5330938 0.07933158
vt 0.5330938 0.07933158
vt 0.5330938 0.07933158
vt 0.5330938 0.07933158
vt 0.5330938 0.07933158
vt 0.5330938 0.07933158
vt 0.5330938 0.07933158
vt 0.5330938 0.07933158
vt 0.5330938 0.07933158
vt 0.5330938 0.07933158
vt 0.5330938 0.07933158
vt 0.5330938 0.07933158
vt 0.5330938 0.07933158
vt 0.5330938 0.07933158
vt 0.5330938 0.07933158
vt 0.5330938 0.07933158
vt 0.5330938 0.07933158
vt 0.5330938 0.07933158
vt 0.5330938 0.07933158
vt 0.5330938 0.07933158
vt 0.5330938 0.07933158
vt 0.5330938 0.07933158
vt 0.5330938 0.07933158
vt 0.5330938 0.07933158
vt 0.5330938 0.07933158
vt 0.5330938 0.07933158
vt 0.5330938 0.07933158
vt 0.5330938 0.07933158
vt 0.5330938 0.07933158
vt 0.5330938 0.07933158
vt 0.5330938 0.07933155
vt 0.5330938 0.07933158
vt 0.5330938 0.07933158
vt 0.5330938 0.07933158
vt 0.5330938 0.07933158
vt 0.5330938 0.07933158
vt 0.5330938 0.07933158
vt 0.5330938 0.07933158
vt 0.5330938 0.07933158
vt 0.5330938 0.07933158
vt 0.5330938 0.07933158
vt 0.5330938 0.07933158
vt 0.5330938 0.07933158
vt 0.5330938 0.07933158
vt 0.5330938 0.07933158
vt 0.5330938 0.07933158
vt 0.5330938 0.07933158
vt 0.5330938 0.07933158
vt 0.5330938 0.07933158
vt 0.5330938 0.07933158
vt 0.5330938 0.07933158
vt 0.5330938 0.07933158
vt 0.5330938 0.07933158
vt 0.5330938 0.07933158
vt 0.5330938 0.07933158
vt 0.5330938 0.07933158
vt 0.5330938 0.07933158
vt 0.5330938 0.07933158
vt 0.5330938 0.07933158
vt 0.5330938 0.07933158
vt 0.5330938 0.07933158
vt 0.5330938 0.07933158
vt 0.5330938 0.07933158
vt 0.5330938 0.07933158
vt 0.5330938 0.07933158
vt 0.5330938 0.07933158
vt 0.5330938 0.07933158
vt 0.5330938 0.07933158
vt 0.5330938 0.07933158
vt 0.5330938 0.07933158
vt 0.5330938 0.07933158
vt 0.5330938 0.07933158
vt 0.5330938 0.07933158
vt 0.5330938 0.07933158
vt 0.5330938 0.07933158
vt 0.5330938 0.07933158
vt 0.5330938 0.07933158
vt 0.5330938 0.07933158
vt 0.5330938 0.07933158
vt 0.5330938 0.07933158
vt 0.5330938 0.07933158
vt 0.5330938 0.07933158
vt 0.5330938 0.07933158
vt 0.5330938 0.07933158
vt 0.5330938 0.07933158
vt 0.5330938 0.07933158
vt 0.5330938 0.07933158
vt 0.5330938 0.07933158
vt 0.5330938 0.07933158
vt 0.5330938 0.07933158
vt 0.5330938 0.07933158
vt 0.5330938 0.07933158
vt 0.5330938 0.07933158
vt 0.5330938 0.07933158
vt 0.5330938 0.07933158
vt 0.5330938 0.07933158
vt 0.5330938 0.07933158
vt 0.5330938 0.07933158
vt 0.5330938 0.07933158
vt 0.5330938 0.07933158
vt 0.5330938 0.07933158
vt 0.5330938 0.07933158
vt 0.5330938 0.07933158
vt 0.5330938 0.07933158
vt 0.5330938 0.07933158
vt 0.5330938 0.07933158
vt 0.5330938 0.07933158
vt 0.5330938 0.07933158
vt 0.5330938 0.07933158
vt 0.5330938 0.07933158
vt 0.5330938 0.07933158
vt 0.5330938 0.07933158
vt 0.5330938 0.07933158
vt 0.5330938 0.07933158
vt 0.5330938 0.07933158
vt 0.5330938 0.07933158
vt 0.5330938 0.07933158
vt 0.5330938 0.07933158
vt 0.5330938 0.07933158
vt 0.5330938 0.07933158
vt 0.5330938 0.07933158
vt 0.5330938 0.07933158
vt 0.5330938 0.07933158
vt 0.5330938 0.07933158
vt 0.5330938 0.07933158
vt 0.5330938 0.07933158
vt 0.5330938 0.07933158
vt 0.5330938 0.07933158
vt 0.5330938 0.07933158
vt 0.5330938 0.07933158
vt 0.5330938 0.07933158
vt 0.5330938 0.07933158

usemtl PolygonSamurai_Mat_01
usemap PolygonSamurai_Mat_01
f 2/2/2 1/1/1 3/3/3
f 3/3/3 1/1/1 4/4/4
f 5/5/5 3/3/3 4/4/4
f 6/6/6 3/3/3 5/5/5
f 7/7/7 6/6/6 5/5/5
f 8/8/8 6/6/6 7/7/7
f 10/10/10 9/9/9 11/11/11
f 11/11/11 9/9/9 12/12/12
f 13/13/13 11/11/11 12/12/12
f 14/14/14 11/11/11 13/13/13
f 15/15/15 14/14/14 13/13/13
f 16/16/16 14/14/14 15/15/15
f 18/18/18 17/17/17 19/19/19
f 19/19/19 17/17/17 20/20/20
f 21/21/21 19/19/19 20/20/20
f 22/22/22 19/19/19 21/21/21
f 23/23/23 22/22/22 21/21/21
f 24/24/24 22/22/22 23/23/23
f 26/26/26 25/25/25 27/27/27
f 27/27/27 25/25/25 28/28/28
f 29/29/29 27/27/27 28/28/28
f 30/30/30 27/27/27 29/29/29
f 31/31/31 30/30/30 29/29/29
f 32/32/32 30/30/30 31/31/31
f 34/34/34 33/33/33 35/35/35
f 35/35/35 33/33/33 36/36/36
f 37/37/37 35/35/35 36/36/36
f 38/38/38 35/35/35 37/37/37
f 39/39/39 38/38/38 37/37/37
f 40/40/40 38/38/38 39/39/39
f 42/42/42 41/41/41 43/43/43
f 43/43/43 41/41/41 44/44/44
f 45/45/45 43/43/43 44/44/44
f 46/46/46 43/43/43 45/45/45
f 47/47/47 46/46/46 45/45/45
f 48/48/48 46/46/46 47/47/47
f 50/50/50 49/49/49 51/51/51
f 51/51/51 49/49/49 52/52/52
f 53/53/53 51/51/51 52/52/52
f 54/54/54 51/51/51 53/53/53
f 55/55/55 54/54/54 53/53/53
f 56/56/56 54/54/54 55/55/55
f 58/58/58 57/57/57 59/59/59
f 59/59/59 57/57/57 60/60/60
f 61/61/61 59/59/59 60/60/60
f 62/62/62 59/59/59 61/61/61
f 63/63/63 62/62/62 61/61/61
f 64/64/64 62/62/62 63/63/63
f 66/66/66 65/65/65 67/67/67
f 67/67/67 65/65/65 68/68/68
f 69/69/69 67/67/67 68/68/68
f 70/70/70 67/67/67 69/69/69
f 71/71/71 70/70/70 69/69/69
f 72/72/72 70/70/70 71/71/71
f 74/74/74 73/73/73 75/75/75
f 75/75/75 73/73/73 76/76/76
f 77/77/77 75/75/75 76/76/76
f 78/78/78 75/75/75 77/77/77
f 79/79/79 78/78/78 77/77/77
f 80/80/80 78/78/78 79/79/79
f 82/82/82 81/81/81 83/83/83
f 83/83/83 81/81/81 84/84/84
f 85/85/85 83/83/83 84/84/84
f 86/86/86 83/83/83 85/85/85
f 87/87/87 86/86/86 85/85/85
f 88/88/88 86/86/86 87/87/87
f 90/90/90 89/89/89 91/91/91
f 91/91/91 89/89/89 92/92/92
f 93/93/93 91/91/91 92/92/92
f 94/94/94 91/91/91 93/93/93
f 95/95/95 94/94/94 93/93/93
f 96/96/96 94/94/94 95/95/95
f 98/98/98 97/97/97 99/99/99
f 99/99/99 97/97/97 100/100/100
f 101/101/101 99/99/99 100/100/100
f 102/102/102 99/99/99 101/101/101
f 103/103/103 102/102/102 101/101/101
f 104/104/104 102/102/102 103/103/103
f 106/106/106 105/105/105 107/107/107
f 107/107/107 105/105/105 108/108/108
f 109/109/109 107/107/107 108/108/108
f 110/110/110 107/107/107 109/109/109
f 111/111/111 110/110/110 109/109/109
f 112/112/112 110/110/110 111/111/111
f 114/114/114 113/113/113 115/115/115
f 115/115/115 113/113/113 116/116/116
f 117/117/117 115/115/115 116/116/116
f 118/118/118 115/115/115 117/117/117
f 119/119/119 118/118/118 117/117/117
f 120/120/120 118/118/118 119/119/119
f 122/122/122 121/121/121 123/123/123
f 123/123/123 121/121/121 124/124/124
f 125/125/125 123/123/123 124/124/124
f 126/126/126 123/123/123 125/125/125
f 127/127/127 126/126/126 125/125/125
f 128/128/128 126/126/126 127/127/127
f 130/130/130 129/129/129 131/131/131
f 131/131/131 129/129/129 132/132/132
f 133/133/133 131/131/131 132/132/132
f 134/134/134 131/131/131 133/133/133
f 135/135/135 134/134/134 133/133/133
f 136/136/136 134/134/134 135/135/135
f 138/138/138 137/137/137 139/139/139
f 139/139/139 137/137/137 140/140/140
f 141/141/141 139/139/139 140/140/140
f 142/142/142 139/139/139 141/141/141
f 143/143/143 142/142/142 141/141/141
f 144/144/144 142/142/142 143/143/143
f 146/146/146 145/145/145 147/147/147
f 147/147/147 145/145/145 148/148/148
f 149/149/149 147/147/147 148/148/148
f 150/150/150 147/147/147 149/149/149
f 151/151/151 150/150/150 149/149/149
f 152/152/152 150/150/150 151/151/151
f 154/154/154 153/153/153 155/155/155
f 155/155/155 153/153/153 156/156/156
f 157/157/157 155/155/155 156/156/156
f 158/158/158 155/155/155 157/157/157
f 159/159/159 158/158/158 157/157/157
f 160/160/160 158/158/158 159/159/159
