mtllib ./SM_Env_Rock_01_72.mtl
g SM_Env_Rock_01
v -0.257122 0.4492945 0.09877014
v -0.1121902 0.6044528 0.1576538
v -0.1518059 0.3621711 0.2934418
v 0.09980774 0.4548203 -0.4156952
v 0.004665375 0.5663508 -0.2201767
v -0.2317238 0.4492945 -0.1423874
v 0.09980774 0.4548203 -0.4156952
v -0.2317238 0.4492945 -0.1423874
v -0.5929947 0.4393491 -0.2972794
v -0.1518059 0.3621711 0.2934418
v 0.6095581 0.381436 0.1459885
v 0.7323456 0.2194445 0.3777313
v -0.1856728 0.2194445 0.6201019
v 0.004665375 0.5663508 -0.2201767
v 0.2975769 0.5663508 -0.08963013
v 0.3441124 0.5663508 0.1132126
v -0.1121902 0.6044528 0.1576538
v 0.1647186 0.2194445 -0.6200943
v 0.7134171 0.2194445 -0.1973038
v 0.5812531 0.419374 -0.1443939
v 0.09980774 0.4548203 -0.4156952
v 0.7323456 0.2194445 0.3777313
v 0.6095581 0.381436 0.1459885
v 0.5812531 0.419374 -0.1443939
v 0.7134171 0.2194445 -0.1973038
v -0.7010956 0.2194445 -0.3929367
v -0.5929947 0.4393491 -0.2972794
v -0.6282959 0.3917028 0.0674057
v -0.7355423 0.2194445 0.2798691
v -0.257122 0.4492945 0.09877014
v -0.2317238 0.4492945 -0.1423874
v 0.004665375 0.5663508 -0.2201767
v -0.1121902 0.6044528 0.1576538
v -0.7355423 0.2194445 0.2798691
v -0.1518059 0.3621711 0.2934418
v -0.1856728 0.2194445 0.6201019
v -0.6282959 0.3917028 0.0674057
v -0.257122 0.4492945 0.09877014
v -0.5929947 0.4393491 -0.2972794
v -0.7010956 0.2194445 -0.3929367
v 0.1647186 0.2194445 -0.6200943
v 0.09980774 0.4548203 -0.4156952
v -0.1518059 0.3621711 0.2934418
v -0.1121902 0.6044528 0.1576538
v 0.3441124 0.5663508 0.1132126
v 0.6095581 0.381436 0.1459885
v 0.6095581 0.381436 0.1459885
v 0.3441124 0.5663508 0.1132126
v 0.2975769 0.5663508 -0.08963013
v 0.5812531 0.419374 -0.1443939
v 0.5812531 0.419374 -0.1443939
v 0.2975769 0.5663508 -0.08963013
v 0.004665375 0.5663508 -0.2201767
v 0.09980774 0.4548203 -0.4156952
v -0.5929947 0.4393491 -0.2972794
v -0.2317238 0.4492945 -0.1423874
v -0.257122 0.4492945 0.09877014
v -0.6282959 0.3917028 0.0674057
v -0.1856728 0.2194445 0.6201019
v -0.1468735 -0.01023355 0.5959702
v -0.6367378 -0.01023355 0.3403625
v -0.7355423 0.2194445 0.2798691
v -0.7010956 0.2194445 -0.3929367
v -0.6496429 -0.01023355 -0.3717194
v 0.2106209 -0.01023355 -0.5918732
v 0.1647186 0.2194445 -0.6200943
v -0.7355423 0.2194445 0.2798691
v -0.6367378 -0.01023355 0.3403625
v -0.6496429 -0.01023355 -0.3717194
v -0.7010956 0.2194445 -0.3929367
v 0.7134171 0.2194445 -0.1973038
v 0.6936607 -0.01023355 -0.2819519
v 0.7355385 -0.01023355 0.3495331
v 0.7323456 0.2194445 0.3777313
v 0.7323456 0.2194445 0.3777313
v 0.7355385 -0.01023355 0.3495331
v -0.1468735 -0.01023355 0.5959702
v -0.1856728 0.2194445 0.6201019
v 0.1647186 0.2194445 -0.6200943
v 0.2106209 -0.01023355 -0.5918732
v 0.6936607 -0.01023355 -0.2819519
v 0.7134171 0.2194445 -0.1973038
v 0.4258347 -0.1562326 -0.165062
v 0.1416092 -0.1562326 -0.3474197
v -0.3645821 -0.1562326 -0.2178802
v -0.356987 -0.1562326 0.2011185
v 0.4504776 -0.1562326 0.2065125
v -0.06874466 -0.1562326 0.3515167
v -0.1468735 -0.01023355 0.5959702
v -0.06874466 -0.1562326 0.3515167
v -0.356987 -0.1562326 0.2011185
v -0.6367378 -0.01023355 0.3403625
v -0.6367378 -0.01023355 0.3403625
v -0.356987 -0.1562326 0.2011185
v -0.3645821 -0.1562326 -0.2178802
v -0.6496429 -0.01023355 -0.3717194
v -0.6496429 -0.01023355 -0.3717194
v -0.3645821 -0.1562326 -0.2178802
v 0.1416092 -0.1562326 -0.3474197
v 0.2106209 -0.01023355 -0.5918732
v 0.2106209 -0.01023355 -0.5918732
v 0.1416092 -0.1562326 -0.3474197
v 0.4258347 -0.1562326 -0.165062
v 0.6936607 -0.01023355 -0.2819519
v 0.6936607 -0.01023355 -0.2819519
v 0.4258347 -0.1562326 -0.165062
v 0.4504776 -0.1562326 0.2065125
v 0.7355385 -0.01023355 0.3495331
v 0.7355385 -0.01023355 0.3495331
v 0.4504776 -0.1562326 0.2065125
v -0.06874466 -0.1562326 0.3515167
v -0.1468735 -0.01023355 0.5959702

vn -0.6967057 0.434027 0.5711582
vn -0.6967057 0.434027 0.5711582
vn -0.6967057 0.434027 0.5711582
vn -0.5048002 0.6208318 -0.5997873
vn -0.5048002 0.6208318 -0.5997873
vn -0.5048002 0.6208318 -0.5997873
vn -0.02380529 0.9996791 -0.008664767
vn -0.02380529 0.9996791 -0.008664767
vn -0.02380529 0.9996791 -0.008664767
vn 0.09776726 0.8800653 0.4646791
vn 0.09776726 0.8800653 0.4646791
vn 0.09776726 0.8800653 0.4646791
vn 0.09776726 0.8800653 0.4646791
vn 0.05740209 0.9966389 -0.05844509
vn 0.05740209 0.9966389 -0.05844509
vn 0.05740209 0.9966389 -0.05844509
vn 0.05740209 0.9966389 -0.05844509
vn 0.4623408 0.596902 -0.655705
vn 0.4623408 0.596902 -0.655705
vn 0.4623408 0.596902 -0.655705
vn 0.4623408 0.596902 -0.655705
vn 0.8219665 0.5691878 -0.01991011
vn 0.8219665 0.5691878 -0.01991011
vn 0.8219665 0.5691878 -0.01991011
vn 0.8219665 0.5691878 -0.01991011
vn -0.8805932 0.4723865 -0.03750595
vn -0.8805932 0.4723865 -0.03750595
vn -0.8805932 0.4723865 -0.03750595
vn -0.8805932 0.4723865 -0.03750595
vn -0.5772974 0.7960665 -0.1816749
vn -0.5772974 0.7960665 -0.1816749
vn -0.5772974 0.7960665 -0.1816749
vn -0.5772974 0.7960665 -0.1816749
vn -0.2221708 0.8660662 0.44785
vn -0.1981562 0.8635529 0.4636923
vn -0.2221708 0.8660662 0.44785
vn -0.1981562 0.8635529 0.4636923
vn -0.1739764 0.8603194 0.479148
vn -0.1855868 0.5529485 -0.8122841
vn -0.1855868 0.5529485 -0.8122841
vn -0.1855868 0.5529485 -0.8122841
vn -0.1855868 0.5529485 -0.8122841
vn 0.1470696 0.4293506 0.8910829
vn 0.1470696 0.4293506 0.8910829
vn 0.1470696 0.4293506 0.8910829
vn 0.1470696 0.4293506 0.8910829
vn 0.5168545 0.8559808 -0.01258541
vn 0.5168545 0.8559808 -0.01258541
vn 0.5168545 0.8559808 -0.01258541
vn 0.5168545 0.8559808 -0.01258541
vn 0.2756384 0.8459314 -0.4565342
vn 0.2756384 0.8459314 -0.4565342
vn 0.2756384 0.8459314 -0.4565342
vn 0.2756384 0.8459314 -0.4565342
vn -0.1085245 0.9918247 0.06712863
vn -0.1085245 0.9918247 0.06712863
vn -0.1085245 0.9918247 0.06712863
vn -0.1085245 0.9918247 0.06712863
vn -0.4956183 -0.08000682 0.8648475
vn -0.4956183 -0.08000682 0.8648475
vn -0.4956183 -0.08000682 0.8648475
vn -0.4956183 -0.08000682 0.8648475
vn -0.2478131 -0.1554387 -0.956257
vn -0.2478131 -0.1554387 -0.956257
vn -0.2478131 -0.1554387 -0.956257
vn -0.2478131 -0.1554387 -0.956257
vn -0.9495617 -0.3132325 -0.0147702
vn -0.9495617 -0.3132325 -0.0147702
vn -0.9495617 -0.3132325 -0.0147702
vn -0.9495617 -0.3132325 -0.0147702
vn 0.9984534 -0.02364039 -0.05032011
vn 0.9984534 -0.02364039 -0.05032011
vn 0.9984534 -0.02364039 -0.05032011
vn 0.9984534 -0.02364039 -0.05032011
vn 0.261047 -0.08567266 0.9615169
vn 0.261047 -0.08567266 0.9615169
vn 0.261047 -0.08567266 0.9615169
vn 0.261047 -0.08567266 0.9615169
vn 0.5739529 0.1319459 -0.8081884
vn 0.5739529 0.1319459 -0.8081884
vn 0.5739529 0.1319459 -0.8081884
vn 0.5739529 0.1319459 -0.8081884
vn 0 -1 0
vn 0 -1 0
vn 0 -1 0
vn 0 -1 0
vn 0 -1 0
vn 0 -1 0
vn -0.2313089 -0.8660138 0.4433015
vn -0.2313089 -0.8660138 0.4433015
vn -0.2313089 -0.8660138 0.4433015
vn -0.2313089 -0.8660138 0.4433015
vn -0.4593958 -0.8881926 0.008326279
vn -0.4593958 -0.8881926 0.008326279
vn -0.4593958 -0.8881926 0.008326279
vn -0.4593958 -0.8881926 0.008326279
vn -0.137214 -0.8328799 -0.5361748
vn -0.137214 -0.8328799 -0.5361748
vn -0.137214 -0.8328799 -0.5361748
vn -0.137214 -0.8328799 -0.5361748
vn 0.2781017 -0.8571939 -0.4334489
vn 0.2781017 -0.8571939 -0.4334489
vn 0.2781017 -0.8571939 -0.4334489
vn 0.2781017 -0.8571939 -0.4334489
vn 0.4679261 -0.8832226 -0.03103182
vn 0.4679261 -0.8832226 -0.03103182
vn 0.4679261 -0.8832226 -0.03103182
vn 0.4679261 -0.8832226 -0.03103182
vn 0.151385 -0.8265886 0.5420645
vn 0.151385 -0.8265886 0.5420645
vn 0.151385 -0.8265886 0.5420645
vn 0.151385 -0.8265886 0.5420645

vt 0.4436915 0.3265522
vt 0.4436915 0.3265522
vt 0.4436915 0.3265522
vt 0.4436915 0.3265522
vt 0.4436915 0.3265522
vt 0.4436915 0.3265522
vt 0.4436915 0.3265522
vt 0.4436915 0.3265522
vt 0.4436915 0.3265522
vt 0.4436915 0.3265522
vt 0.4436915 0.3265522
vt 0.4436915 0.3265522
vt 0.4436915 0.3265522
vt 0.4436915 0.3265522
vt 0.4436915 0.3265522
vt 0.4436915 0.3265522
vt 0.4436915 0.3265522
vt 0.4436915 0.3265522
vt 0.4436915 0.3265522
vt 0.4436915 0.3265522
vt 0.4436915 0.3265522
vt 0.4436915 0.3265522
vt 0.4436915 0.3265522
vt 0.4436915 0.3265522
vt 0.4436915 0.3265522
vt 0.4436915 0.3265522
vt 0.4436915 0.3265522
vt 0.4436915 0.3265522
vt 0.4436915 0.3265522
vt 0.4436915 0.3265522
vt 0.4436915 0.3265522
vt 0.4436915 0.3265522
vt 0.4436915 0.3265522
vt 0.4436915 0.3265522
vt 0.4436915 0.3265522
vt 0.4436915 0.3265522
vt 0.4436915 0.3265522
vt 0.4436915 0.3265522
vt 0.4436915 0.3265522
vt 0.4436915 0.3265522
vt 0.4436915 0.3265522
vt 0.4436915 0.3265522
vt 0.4436915 0.3265522
vt 0.4436915 0.3265522
vt 0.4436915 0.3265522
vt 0.4436915 0.3265522
vt 0.4436915 0.3265522
vt 0.4436915 0.3265522
vt 0.4436915 0.3265522
vt 0.4436915 0.3265522
vt 0.4436915 0.3265522
vt 0.4436915 0.3265522
vt 0.4436915 0.3265522
vt 0.4436915 0.3265522
vt 0.4436915 0.3265522
vt 0.4436915 0.3265522
vt 0.4436915 0.3265522
vt 0.4436915 0.3265522
vt 0.4436915 0.3265522
vt 0.4436915 0.3265522
vt 0.4436915 0.3265522
vt 0.4436915 0.3265522
vt 0.4436915 0.3265522
vt 0.4436915 0.3265522
vt 0.4436915 0.3265522
vt 0.4436915 0.3265522
vt 0.4436915 0.3265522
vt 0.4436915 0.3265522
vt 0.4436915 0.3265522
vt 0.4436915 0.3265522
vt 0.4436915 0.3265522
vt 0.4436915 0.3265522
vt 0.4436915 0.3265522
vt 0.4436915 0.3265522
vt 0.4436915 0.3265522
vt 0.4436915 0.3265522
vt 0.4436915 0.3265522
vt 0.4436915 0.3265522
vt 0.4436915 0.3265522
vt 0.4436915 0.3265522
vt 0.4436915 0.3265522
vt 0.4436915 0.3265522
vt 0.4436915 0.3265522
vt 0.4436915 0.3265522
vt 0.4436915 0.3265522
vt 0.4436915 0.3265522
vt 0.4436915 0.3265522
vt 0.4436915 0.3265522
vt 0.4436915 0.3265522
vt 0.4436915 0.3265522
vt 0.4436915 0.3265522
vt 0.4436915 0.3265522
vt 0.4436915 0.3265522
vt 0.4436915 0.3265522
vt 0.4436915 0.3265522
vt 0.4436915 0.3265522
vt 0.4436915 0.3265522
vt 0.4436915 0.3265522
vt 0.4436915 0.3265522
vt 0.4436915 0.3265522
vt 0.4436915 0.3265522
vt 0.4436915 0.3265522
vt 0.4436915 0.3265522
vt 0.4436915 0.3265522
vt 0.4436915 0.3265522
vt 0.4436915 0.3265522
vt 0.4436915 0.3265522
vt 0.4436915 0.3265522
vt 0.4436915 0.3265522
vt 0.4436915 0.3265522
vt 0.4436915 0.3265522
vt 0.4436915 0.3265522

usemtl PolygonSamurai_Mat_01
usemap PolygonSamurai_Mat_01
f 2/2/2 1/1/1 3/3/3
f 5/5/5 4/4/4 6/6/6
f 8/8/8 7/7/7 9/9/9
f 11/11/11 10/10/10 12/12/12
f 12/12/12 10/10/10 13/13/13
f 15/15/15 14/14/14 16/16/16
f 16/16/16 14/14/14 17/17/17
f 19/19/19 18/18/18 20/20/20
f 20/20/20 18/18/18 21/21/21
f 23/23/23 22/22/22 24/24/24
f 24/24/24 22/22/22 25/25/25
f 27/27/27 26/26/26 28/28/28
f 28/28/28 26/26/26 29/29/29
f 31/31/31 30/30/30 32/32/32
f 32/32/32 30/30/30 33/33/33
f 35/35/35 34/34/34 36/36/36
f 37/37/37 34/34/34 35/35/35
f 38/38/38 37/37/37 35/35/35
f 40/40/40 39/39/39 41/41/41
f 41/41/41 39/39/39 42/42/42
f 44/44/44 43/43/43 45/45/45
f 45/45/45 43/43/43 46/46/46
f 48/48/48 47/47/47 49/49/49
f 49/49/49 47/47/47 50/50/50
f 52/52/52 51/51/51 53/53/53
f 53/53/53 51/51/51 54/54/54
f 56/56/56 55/55/55 57/57/57
f 57/57/57 55/55/55 58/58/58
f 60/60/60 59/59/59 61/61/61
f 61/61/61 59/59/59 62/62/62
f 64/64/64 63/63/63 65/65/65
f 65/65/65 63/63/63 66/66/66
f 68/68/68 67/67/67 69/69/69
f 69/69/69 67/67/67 70/70/70
f 72/72/72 71/71/71 73/73/73
f 73/73/73 71/71/71 74/74/74
f 76/76/76 75/75/75 77/77/77
f 77/77/77 75/75/75 78/78/78
f 80/80/80 79/79/79 81/81/81
f 81/81/81 79/79/79 82/82/82
f 84/84/84 83/83/83 85/85/85
f 86/86/86 85/85/85 83/83/83
f 87/87/87 86/86/86 83/83/83
f 88/88/88 86/86/86 87/87/87
f 90/90/90 89/89/89 91/91/91
f 91/91/91 89/89/89 92/92/92
f 94/94/94 93/93/93 95/95/95
f 95/95/95 93/93/93 96/96/96
f 98/98/98 97/97/97 99/99/99
f 99/99/99 97/97/97 100/100/100
f 102/102/102 101/101/101 103/103/103
f 103/103/103 101/101/101 104/104/104
f 106/106/106 105/105/105 107/107/107
f 107/107/107 105/105/105 108/108/108
f 110/110/110 109/109/109 111/111/111
f 111/111/111 109/109/109 112/112/112
