mtllib ./ball-beach_6.mtl
g ball-beach
v 0.08039526 -2.353108E-08 -0.2357635
v 0.04019764 0.0696243 -0.2357635
v 3.569294E-08 -4.478016E-08 -0.2566528
v 0.04019764 0.0696243 -0.2357635
v -0.0401976 0.0696243 -0.2357635
v 3.569294E-08 -4.478016E-08 -0.2566528
v -0.0401976 0.0696243 -0.2357635
v -0.08039521 -3.736916E-08 -0.2357635
v 3.569294E-08 -4.478016E-08 -0.2566528
v -0.08039521 -3.736916E-08 -0.2357635
v -0.04019758 -0.06962434 -0.2357635
v 3.569294E-08 -4.478016E-08 -0.2566528
v -0.04019758 -0.06962434 -0.2357635
v 0.04019766 -0.06962431 -0.2357635
v 3.569294E-08 -4.478016E-08 -0.2566528
v 0.04019766 -0.06962431 -0.2357635
v 0.08039526 -2.353108E-08 -0.2357635
v 3.569294E-08 -4.478016E-08 -0.2566528
v 0.0803953 -2.919989E-09 0.2357635
v 8.056754E-08 -2.234286E-08 0.2566528
v 0.04019769 0.06962431 0.2357635
v 0.04019769 0.06962431 0.2357635
v 8.056754E-08 -2.234286E-08 0.2566528
v -0.04019756 0.06962431 0.2357635
v -0.04019756 0.06962431 0.2357635
v 8.056754E-08 -2.234286E-08 0.2566528
v -0.08039517 -1.675806E-08 0.2357635
v -0.08039517 -1.675806E-08 0.2357635
v 8.056754E-08 -2.234286E-08 0.2566528
v -0.04019754 -0.06962433 0.2357635
v -0.04019754 -0.06962433 0.2357635
v 8.056754E-08 -2.234286E-08 0.2566528
v 0.0401977 -0.0696243 0.2357635
v 0.0401977 -0.0696243 0.2357635
v 8.056754E-08 -2.234286E-08 0.2566528
v 0.0803953 -2.919989E-09 0.2357635
v 0.2080206 -9.847543E-09 -0.1456623
v 0.1040104 0.1801512 -0.1456623
v 0.04019764 0.0696243 -0.2357635
v 0.08039526 -2.353108E-08 -0.2357635
v 0.2566528 0 -2.24373E-08
v 0.1283264 0.2222679 -2.093429E-08
v 0.1040104 0.1801512 -0.1456623
v 0.2080206 -9.847543E-09 -0.1456623
v 0.1283264 0.2222679 -2.093429E-08
v -0.1283264 0.2222679 1.503012E-09
v -0.1040103 0.1801511 -0.1456623
v 0.1040104 0.1801512 -0.1456623
v 0.1040104 0.1801512 -0.1456623
v -0.1040103 0.1801511 -0.1456623
v -0.0401976 0.0696243 -0.2357635
v 0.04019764 0.0696243 -0.2357635
v -0.1283264 0.2222679 1.503012E-09
v -0.2566528 -3.356151E-08 2.24373E-08
v -0.2080206 -4.126597E-08 -0.1456622
v -0.1040103 0.1801511 -0.1456623
v -0.1040103 0.1801511 -0.1456623
v -0.2080206 -4.126597E-08 -0.1456622
v -0.08039521 -3.736916E-08 -0.2357635
v -0.0401976 0.0696243 -0.2357635
v -0.2566528 -3.356151E-08 2.24373E-08
v -0.1283263 -0.2222679 2.093428E-08
v -0.1040102 -0.1801512 -0.1456622
v -0.2080206 -4.126597E-08 -0.1456622
v -0.2080206 -4.126597E-08 -0.1456622
v -0.1040102 -0.1801512 -0.1456622
v -0.04019758 -0.06962434 -0.2357635
v -0.08039521 -3.736916E-08 -0.2357635
v -0.1040102 -0.1801512 -0.1456622
v 0.1040104 -0.1801511 -0.1456623
v 0.04019766 -0.06962431 -0.2357635
v -0.04019758 -0.06962434 -0.2357635
v -0.1283263 -0.2222679 2.093428E-08
v 0.1283265 -0.2222679 -1.503022E-09
v 0.1040104 -0.1801511 -0.1456623
v -0.1040102 -0.1801512 -0.1456622
v 0.1040104 -0.1801511 -0.1456623
v 0.2080206 -9.847543E-09 -0.1456623
v 0.08039526 -2.353108E-08 -0.2357635
v 0.04019766 -0.06962431 -0.2357635
v 0.1283265 -0.2222679 -1.503022E-09
v 0.2566528 0 -2.24373E-08
v 0.2080206 -9.847543E-09 -0.1456623
v 0.1040104 -0.1801511 -0.1456623
v 0.2080207 2.886656E-09 0.1456622
v 0.0803953 -2.919989E-09 0.2357635
v 0.04019769 0.06962431 0.2357635
v 0.1040104 0.1801512 0.1456622
v 0.2566528 0 -2.24373E-08
v 0.2080207 2.886656E-09 0.1456622
v 0.1040104 0.1801512 0.1456622
v 0.1283264 0.2222679 -2.093429E-08
v 0.1283264 0.2222679 -2.093429E-08
v 0.1040104 0.1801512 0.1456622
v -0.1040103 0.1801511 0.1456623
v -0.1283264 0.2222679 1.503012E-09
v 0.1040104 0.1801512 0.1456622
v 0.04019769 0.06962431 0.2357635
v -0.04019756 0.06962431 0.2357635
v -0.1040103 0.1801511 0.1456623
v -0.1283264 0.2222679 1.503012E-09
v -0.1040103 0.1801511 0.1456623
v -0.2080206 -2.853178E-08 0.1456623
v -0.2566528 -3.356151E-08 2.24373E-08
v -0.1040103 0.1801511 0.1456623
v -0.04019756 0.06962431 0.2357635
v -0.08039517 -1.675806E-08 0.2357635
v -0.2080206 -2.853178E-08 0.1456623
v -0.2566528 -3.356151E-08 2.24373E-08
v -0.2080206 -2.853178E-08 0.1456623
v -0.1040102 -0.1801512 0.1456623
v -0.1283263 -0.2222679 2.093428E-08
v -0.2080206 -2.853178E-08 0.1456623
v -0.08039517 -1.675806E-08 0.2357635
v -0.04019754 -0.06962433 0.2357635
v -0.1040102 -0.1801512 0.1456623
v -0.1040102 -0.1801512 0.1456623
v -0.04019754 -0.06962433 0.2357635
v 0.0401977 -0.0696243 0.2357635
v 0.1040104 -0.1801511 0.1456623
v -0.1283263 -0.2222679 2.093428E-08
v -0.1040102 -0.1801512 0.1456623
v 0.1040104 -0.1801511 0.1456623
v 0.1283265 -0.2222679 -1.503022E-09
v 0.1040104 -0.1801511 0.1456623
v 0.0401977 -0.0696243 0.2357635
v 0.0803953 -2.919989E-09 0.2357635
v 0.2080207 2.886656E-09 0.1456622
v 0.1283265 -0.2222679 -1.503022E-09
v 0.1040104 -0.1801511 0.1456623
v 0.2080207 2.886656E-09 0.1456622
v 0.2566528 0 -2.24373E-08

vn 0.2488723 0.1436864 -0.9578188
vn 0.2488723 0.1436864 -0.9578188
vn 0.2488723 0.1436864 -0.9578188
vn 0 0.2873724 -0.9578189
vn 0 0.2873724 -0.9578189
vn 0 0.2873724 -0.9578189
vn -0.2488723 0.1436864 -0.9578188
vn -0.2488723 0.1436864 -0.9578188
vn -0.2488723 0.1436864 -0.9578188
vn -0.2488723 -0.1436865 -0.9578188
vn -0.2488723 -0.1436865 -0.9578188
vn -0.2488723 -0.1436865 -0.9578188
vn 1.195236E-07 -0.287373 -0.9578188
vn 1.195236E-07 -0.287373 -0.9578188
vn 1.195236E-07 -0.287373 -0.9578188
vn 0.2488724 -0.1436865 -0.9578187
vn 0.2488724 -0.1436865 -0.9578187
vn 0.2488724 -0.1436865 -0.9578187
vn 0.2488723 0.1436865 0.9578188
vn 0.2488723 0.1436865 0.9578188
vn 0.2488723 0.1436865 0.9578188
vn 0 0.2873725 0.9578188
vn 0 0.2873725 0.9578188
vn 0 0.2873725 0.9578188
vn -0.2488723 0.1436864 0.9578188
vn -0.2488723 0.1436864 0.9578188
vn -0.2488723 0.1436864 0.9578188
vn -0.2488722 -0.1436864 0.9578188
vn -0.2488722 -0.1436864 0.9578188
vn -0.2488722 -0.1436864 0.9578188
vn 0 -0.2873729 0.9578188
vn 0 -0.2873729 0.9578188
vn 0 -0.2873729 0.9578188
vn 0.2488723 -0.1436865 0.9578187
vn 0.2488723 -0.1436865 0.9578187
vn 0.2488723 -0.1436865 0.9578187
vn 0.5471993 0.3159256 -0.7750897
vn 0.5471993 0.3159256 -0.7750897
vn 0.5471993 0.3159256 -0.7750897
vn 0.5471993 0.3159256 -0.7750897
vn 0.8319474 0.480325 -0.2777615
vn 0.8319474 0.480325 -0.2777615
vn 0.8319474 0.480325 -0.2777615
vn 0.8319474 0.480325 -0.2777615
vn -1.586177E-07 0.96065 -0.2777618
vn -1.586177E-07 0.96065 -0.2777618
vn -1.586177E-07 0.96065 -0.2777618
vn -1.586177E-07 0.96065 -0.2777618
vn -1.358678E-07 0.6318512 -0.7750897
vn -1.358678E-07 0.6318512 -0.7750897
vn -1.358678E-07 0.6318512 -0.7750897
vn -1.358678E-07 0.6318512 -0.7750897
vn -0.8319474 0.4803248 -0.2777617
vn -0.8319474 0.4803248 -0.2777617
vn -0.8319474 0.4803248 -0.2777617
vn -0.8319474 0.4803248 -0.2777617
vn -0.5471994 0.3159257 -0.7750896
vn -0.5471994 0.3159257 -0.7750896
vn -0.5471994 0.3159257 -0.7750896
vn -0.5471994 0.3159257 -0.7750896
vn -0.8319471 -0.4803251 -0.2777618
vn -0.8319471 -0.4803251 -0.2777618
vn -0.8319471 -0.4803251 -0.2777618
vn -0.8319471 -0.4803251 -0.2777618
vn -0.5471993 -0.315926 -0.7750894
vn -0.5471993 -0.315926 -0.7750894
vn -0.5471993 -0.315926 -0.7750894
vn -0.5471993 -0.315926 -0.7750894
vn 1.81157E-07 -0.6318514 -0.7750896
vn 1.81157E-07 -0.6318514 -0.7750896
vn 1.81157E-07 -0.6318514 -0.7750896
vn 1.81157E-07 -0.6318514 -0.7750896
vn 0 -0.96065 -0.2777618
vn 0 -0.96065 -0.2777618
vn 0 -0.96065 -0.2777618
vn 0 -0.96065 -0.2777618
vn 0.5471993 -0.3159256 -0.7750897
vn 0.5471993 -0.3159256 -0.7750897
vn 0.5471993 -0.3159256 -0.7750897
vn 0.5471993 -0.3159256 -0.7750897
vn 0.8319475 -0.4803248 -0.2777617
vn 0.8319475 -0.4803248 -0.2777617
vn 0.8319475 -0.4803248 -0.2777617
vn 0.8319475 -0.4803248 -0.2777617
vn 0.5471994 0.3159257 0.7750896
vn 0.5471994 0.3159257 0.7750896
vn 0.5471994 0.3159257 0.7750896
vn 0.5471994 0.3159257 0.7750896
vn 0.8319475 0.480325 0.2777613
vn 0.8319475 0.480325 0.2777613
vn 0.8319475 0.480325 0.2777613
vn 0.8319475 0.480325 0.2777613
vn 0 0.96065 0.2777618
vn 0 0.96065 0.2777618
vn 0 0.96065 0.2777618
vn 0 0.96065 0.2777618
vn 0 0.6318514 0.7750896
vn 0 0.6318514 0.7750896
vn 0 0.6318514 0.7750896
vn 0 0.6318514 0.7750896
vn -0.8319472 0.4803248 0.277762
vn -0.8319472 0.4803248 0.277762
vn -0.8319472 0.4803248 0.277762
vn -0.8319472 0.4803248 0.277762
vn -0.5471993 0.3159256 0.7750896
vn -0.5471993 0.3159256 0.7750896
vn -0.5471993 0.3159256 0.7750896
vn -0.5471993 0.3159256 0.7750896
vn -0.8319471 -0.480325 0.2777619
vn -0.8319471 -0.480325 0.2777619
vn -0.8319471 -0.480325 0.2777619
vn -0.8319471 -0.480325 0.2777619
vn -0.5471992 -0.3159258 0.7750897
vn -0.5471992 -0.3159258 0.7750897
vn -0.5471992 -0.3159258 0.7750897
vn -0.5471992 -0.3159258 0.7750897
vn 1.81157E-07 -0.6318512 0.7750897
vn 1.81157E-07 -0.6318512 0.7750897
vn 1.81157E-07 -0.6318512 0.7750897
vn 1.81157E-07 -0.6318512 0.7750897
vn 1.881624E-07 -0.96065 0.2777618
vn 1.881624E-07 -0.96065 0.2777618
vn 1.881624E-07 -0.96065 0.2777618
vn 1.881624E-07 -0.96065 0.2777618
vn 0.5471994 -0.3159255 0.7750896
vn 0.5471994 -0.3159255 0.7750896
vn 0.5471994 -0.3159255 0.7750896
vn 0.5471994 -0.3159255 0.7750896
vn 0.8319475 -0.4803247 0.2777616
vn 0.8319475 -0.4803247 0.2777616
vn 0.8319475 -0.4803247 0.2777616
vn 0.8319475 -0.4803247 0.2777616

vt 0.4592333 0.5686088
vt 0.4592333 0.5741077
vt 0.4656228 0.5712112
vt 0.4592333 0.5741077
vt 0.4654683 0.5769131
vt 0.4656228 0.5712112
vt 0.4654683 0.5769131
vt 0.4717033 0.5742195
vt 0.4656228 0.5712112
vt 0.4717033 0.5742195
vt 0.4717033 0.5687206
vt 0.4656228 0.5712112
vt 0.4717033 0.5687206
vt 0.4654683 0.5659153
vt 0.4656228 0.5712112
vt 0.4654683 0.5659153
vt 0.4592333 0.5686088
vt 0.4656228 0.5712112
vt 0.4340171 0.5779883
vt 0.4343231 0.5724338
vt 0.4278445 0.5752111
vt 0.4278445 0.5752111
vt 0.4343231 0.5724338
vt 0.4278445 0.5696566
vt 0.4278445 0.5696566
vt 0.4343231 0.5724338
vt 0.4340171 0.5668793
vt 0.4340171 0.5668793
vt 0.4343231 0.5724338
vt 0.4401897 0.5696566
vt 0.4401897 0.5696566
vt 0.4343231 0.5724338
vt 0.4401897 0.5752111
vt 0.4401897 0.5752111
vt 0.4343231 0.5724338
vt 0.4340171 0.5779883
vt 0.4474352 0.3269538
vt 0.4474352 0.341182
vt 0.4579995 0.3360303
vt 0.4579995 0.3305314
vt 0.4285812 0.3111182
vt 0.4285812 0.2933861
vt 0.4154925 0.2950661
vt 0.4154925 0.3094383
vt 0.8011915 0.7862303
vt 0.8011915 0.7773641
vt 0.7881027 0.7807242
vt 0.7881027 0.7879102
vt 0.8200455 0.8340262
vt 0.8361784 0.841285
vt 0.8368449 0.8316798
vt 0.83061 0.8288745
vt 0.4559925 0.5225974
vt 0.4559925 0.5314634
vt 0.4690812 0.5331435
vt 0.4690812 0.5259574
vt 0.4648018 0.5865182
vt 0.4809347 0.5795487
vt 0.4717033 0.5742195
vt 0.4654683 0.5769131
vt 0.8273691 0.7862302
vt 0.8273691 0.8039623
vt 0.8404579 0.8022824
vt 0.8404579 0.7879102
vt 0.8523113 0.8343154
vt 0.8523113 0.8200872
vt 0.84308 0.8234874
vt 0.84308 0.8289863
vt 0.6849055 0.5619695
vt 0.6687726 0.5547107
vt 0.6694391 0.5625643
vt 0.6756741 0.5653697
vt 0.6599633 0.5458446
vt 0.6599633 0.5547107
vt 0.6730521 0.5513507
vt 0.6730521 0.5441646
vt 0.8361784 0.8128284
vt 0.8200455 0.819798
vt 0.83061 0.8233756
vt 0.8368449 0.820682
vt 0.8011915 0.8128284
vt 0.8011915 0.8039623
vt 0.7881027 0.8022824
vt 0.7881027 0.8094685
vt 0.4314638 0.3487286
vt 0.4327834 0.339911
vt 0.4266109 0.3371337
vt 0.4154925 0.3415426
vt 0.4285812 0.3111182
vt 0.44167 0.3094383
vt 0.44167 0.2950661
vt 0.4285812 0.2933861
vt 0.8011915 0.7862303
vt 0.8142803 0.7879102
vt 0.8142803 0.7807242
vt 0.8011915 0.7773641
vt 0.7881027 0.8343867
vt 0.7992212 0.8299779
vt 0.7992212 0.8244233
vt 0.7881027 0.8200146
vt 0.4559925 0.5225974
vt 0.4429037 0.5259574
vt 0.4429037 0.5331435
vt 0.4559925 0.5314634
vt 0.4167261 0.5652478
vt 0.4278445 0.5696566
vt 0.4340171 0.5668793
vt 0.4326975 0.5580617
vt 0.8273691 0.7862302
vt 0.8142803 0.7879102
vt 0.8142803 0.8022824
vt 0.8273691 0.8039623
vt 0.8040741 0.8128284
vt 0.8053938 0.8216461
vt 0.8115664 0.8244233
vt 0.8200455 0.8200145
vt 0.6526396 0.5618967
vt 0.6441605 0.5663056
vt 0.6441605 0.5718601
vt 0.6526396 0.5762689
vt 0.6599633 0.5458446
vt 0.6468745 0.5441646
vt 0.6468745 0.5513507
vt 0.6599633 0.5547107
vt 0.8200455 0.8343867
vt 0.8115664 0.8299779
vt 0.8053938 0.8327551
vt 0.8040741 0.8415728
vt 0.8011915 0.8128284
vt 0.8142803 0.8094685
vt 0.8142803 0.8022824
vt 0.8011915 0.8039623

usemtl LOW-POLY-COLORS
usemap LOW-POLY-COLORS
f 2/2/2 1/1/1 3/3/3
f 5/5/5 4/4/4 6/6/6
f 8/8/8 7/7/7 9/9/9
f 11/11/11 10/10/10 12/12/12
f 14/14/14 13/13/13 15/15/15
f 17/17/17 16/16/16 18/18/18
f 20/20/20 19/19/19 21/21/21
f 23/23/23 22/22/22 24/24/24
f 26/26/26 25/25/25 27/27/27
f 29/29/29 28/28/28 30/30/30
f 32/32/32 31/31/31 33/33/33
f 35/35/35 34/34/34 36/36/36
f 38/38/38 37/37/37 39/39/39
f 39/39/39 37/37/37 40/40/40
f 42/42/42 41/41/41 43/43/43
f 43/43/43 41/41/41 44/44/44
f 46/46/46 45/45/45 47/47/47
f 47/47/47 45/45/45 48/48/48
f 50/50/50 49/49/49 51/51/51
f 51/51/51 49/49/49 52/52/52
f 54/54/54 53/53/53 55/55/55
f 55/55/55 53/53/53 56/56/56
f 58/58/58 57/57/57 59/59/59
f 59/59/59 57/57/57 60/60/60
f 62/62/62 61/61/61 63/63/63
f 63/63/63 61/61/61 64/64/64
f 66/66/66 65/65/65 67/67/67
f 67/67/67 65/65/65 68/68/68
f 70/70/70 69/69/69 71/71/71
f 71/71/71 69/69/69 72/72/72
f 74/74/74 73/73/73 75/75/75
f 75/75/75 73/73/73 76/76/76
f 78/78/78 77/77/77 79/79/79
f 79/79/79 77/77/77 80/80/80
f 82/82/82 81/81/81 83/83/83
f 83/83/83 81/81/81 84/84/84
f 86/86/86 85/85/85 87/87/87
f 87/87/87 85/85/85 88/88/88
f 90/90/90 89/89/89 91/91/91
f 91/91/91 89/89/89 92/92/92
f 94/94/94 93/93/93 95/95/95
f 95/95/95 93/93/93 96/96/96
f 98/98/98 97/97/97 99/99/99
f 99/99/99 97/97/97 100/100/100
f 102/102/102 101/101/101 103/103/103
f 103/103/103 101/101/101 104/104/104
f 106/106/106 105/105/105 107/107/107
f 107/107/107 105/105/105 108/108/108
f 110/110/110 109/109/109 111/111/111
f 111/111/111 109/109/109 112/112/112
f 114/114/114 113/113/113 115/115/115
f 115/115/115 113/113/113 116/116/116
f 118/118/118 117/117/117 119/119/119
f 119/119/119 117/117/117 120/120/120
f 122/122/122 121/121/121 123/123/123
f 123/123/123 121/121/121 124/124/124
f 126/126/126 125/125/125 127/127/127
f 127/127/127 125/125/125 128/128/128
f 130/130/130 129/129/129 131/131/131
f 131/131/131 129/129/129 132/132/132
