mtllib ./buoy_1.mtl
g buoy
v 1.882011E-08 -0.1856586 5.174873E-06
v -0.09229628 -0.1305267 -0.0922911
v -0.1305266 -0.1305268 5.192203E-06
v -0.09184035 0.1589458 5.219891E-06
v -0.06494092 0.1589458 -0.06493573
v 7.409112E-09 0.2470167 5.231041E-06
v 1.882011E-08 -0.1856586 5.174873E-06
v -4.410333E-09 -0.1305267 -0.1305215
v -0.09229628 -0.1305267 -0.0922911
v -0.06494092 0.1589458 -0.06493573
v 1.835598E-10 0.1589458 -0.09183513
v 7.409112E-09 0.2470167 5.231041E-06
v 1.882011E-08 -0.1856586 5.174873E-06
v 0.09229628 -0.1305267 -0.09229113
v -4.410333E-09 -0.1305267 -0.1305215
v 1.835598E-10 0.1589458 -0.09183513
v 0.06494093 0.1589458 -0.06493574
v 7.409112E-09 0.2470167 5.231041E-06
v 1.882011E-08 -0.1856586 5.174873E-06
v 0.1305266 -0.1305268 5.147029E-06
v 0.09229628 -0.1305267 -0.09229113
v 0.06494093 0.1589458 -0.06493574
v 0.09184037 0.1589458 5.185207E-06
v 7.409112E-09 0.2470167 5.231041E-06
v 1.882011E-08 -0.1856586 5.174873E-06
v 0.09229631 -0.1305268 0.09230145
v 0.1305266 -0.1305268 5.147029E-06
v 0.09184037 0.1589458 5.185207E-06
v 0.06494095 0.1589458 0.06494613
v 7.409112E-09 0.2470167 5.231041E-06
v 0.06494095 0.1589458 0.06494613
v 3.229931E-08 0.1589458 0.09184553
v 7.409112E-09 0.2470167 5.231041E-06
v 1.882011E-08 -0.1856586 5.174873E-06
v 4.123368E-08 -0.1305268 0.1305318
v 0.09229631 -0.1305268 0.09230145
v 3.229931E-08 0.1589458 0.09184553
v -0.06494088 0.1589458 0.06494614
v 7.409112E-09 0.2470167 5.231041E-06
v 1.882011E-08 -0.1856586 5.174873E-06
v -0.09229624 -0.1305268 0.09230148
v 4.123368E-08 -0.1305268 0.1305318
v -0.06494088 0.1589458 0.06494614
v -0.09184035 0.1589458 5.219891E-06
v 7.409112E-09 0.2470167 5.231041E-06
v 1.882011E-08 -0.1856586 5.174873E-06
v -0.1305266 -0.1305268 5.192203E-06
v -0.09229624 -0.1305268 0.09230148
v -0.1320025 0.1269637 5.236063E-06
v -0.09333983 0.1269637 -0.09333465
v -0.06494092 0.1589458 -0.06493573
v -0.09184035 0.1589458 5.219891E-06
v -0.1305266 -0.1305268 5.192203E-06
v -0.09229628 -0.1305267 -0.0922911
v -0.1305266 -9.39078E-08 -0.1305214
v -0.1845926 -1.061699E-07 5.22223E-06
v -0.09333983 0.1269637 -0.09333465
v -4.818528E-09 0.1269637 -0.1319973
v 1.835598E-10 0.1589458 -0.09183513
v -0.06494092 0.1589458 -0.06493573
v -0.09229628 -0.1305267 -0.0922911
v -4.410333E-09 -0.1305267 -0.1305215
v -1.93648E-08 -8.408981E-08 -0.1845874
v -0.1305266 -9.39078E-08 -0.1305214
v -4.818528E-09 0.1269637 -0.1319973
v 0.09333982 0.1269637 -0.09333465
v 0.06494093 0.1589458 -0.06493574
v 1.835598E-10 0.1589458 -0.09183513
v -4.410333E-09 -0.1305267 -0.1305215
v 0.09229628 -0.1305267 -0.09229113
v 0.1305266 -9.39078E-08 -0.1305215
v -1.93648E-08 -8.408981E-08 -0.1845874
v 0.09333982 0.1269637 -0.09333465
v 0.1320025 0.1269637 5.183181E-06
v 0.09184037 0.1589458 5.185207E-06
v 0.06494093 0.1589458 -0.06493574
v 0.09229628 -0.1305267 -0.09229113
v 0.1305266 -0.1305268 5.147029E-06
v 0.1845926 -1.061699E-07 5.160153E-06
v 0.1305266 -9.39078E-08 -0.1305215
v 0.1320025 0.1269637 5.183181E-06
v 0.09333984 0.1269636 0.093345
v 0.06494095 0.1589458 0.06494613
v 0.09184037 0.1589458 5.185207E-06
v 0.1305266 -0.1305268 5.147029E-06
v 0.09229631 -0.1305268 0.09230145
v 0.1305266 -1.202947E-07 0.1305318
v 0.1845926 -1.061699E-07 5.160153E-06
v 0.09333984 0.1269636 0.093345
v 4.134156E-08 0.1269636 0.1320077
v 3.229931E-08 0.1589458 0.09184553
v 0.06494095 0.1589458 0.06494613
v 0.09229631 -0.1305268 0.09230145
v 4.123368E-08 -0.1305268 0.1305318
v 4.518558E-08 -1.301127E-07 0.1845978
v 0.1305266 -1.202947E-07 0.1305318
v 4.123368E-08 -0.1305268 0.1305318
v -0.09229624 -0.1305268 0.09230148
v -0.1305266 -1.202947E-07 0.1305319
v 4.518558E-08 -1.301127E-07 0.1845978
v 4.134156E-08 0.1269636 0.1320077
v -0.0933398 0.1269636 0.09334505
v -0.06494088 0.1589458 0.06494614
v 3.229931E-08 0.1589458 0.09184553
v -0.09229624 -0.1305268 0.09230148
v -0.1305266 -0.1305268 5.192203E-06
v -0.1845926 -1.061699E-07 5.22223E-06
v -0.1305266 -1.202947E-07 0.1305319
v -0.0933398 0.1269636 0.09334505
v -0.1320025 0.1269637 5.236063E-06
v -0.09184035 0.1589458 5.219891E-06
v -0.06494088 0.1589458 0.06494614
v -0.1305266 -1.202947E-07 0.1305319
v -0.1845926 -1.061699E-07 5.22223E-06
v -0.1320025 0.1269637 5.236063E-06
v -0.0933398 0.1269636 0.09334505
v 4.518558E-08 -1.301127E-07 0.1845978
v -0.1305266 -1.202947E-07 0.1305319
v -0.0933398 0.1269636 0.09334505
v 4.134156E-08 0.1269636 0.1320077
v 0.1305266 -1.202947E-07 0.1305318
v 4.518558E-08 -1.301127E-07 0.1845978
v 4.134156E-08 0.1269636 0.1320077
v 0.09333984 0.1269636 0.093345
v 0.1845926 -1.061699E-07 5.160153E-06
v 0.1305266 -1.202947E-07 0.1305318
v 0.09333984 0.1269636 0.093345
v 0.1320025 0.1269637 5.183181E-06
v 0.1305266 -9.39078E-08 -0.1305215
v 0.1845926 -1.061699E-07 5.160153E-06
v 0.1320025 0.1269637 5.183181E-06
v 0.09333982 0.1269637 -0.09333465
v -1.93648E-08 -8.408981E-08 -0.1845874
v 0.1305266 -9.39078E-08 -0.1305215
v 0.09333982 0.1269637 -0.09333465
v -4.818528E-09 0.1269637 -0.1319973
v -0.1305266 -9.39078E-08 -0.1305214
v -1.93648E-08 -8.408981E-08 -0.1845874
v -4.818528E-09 0.1269637 -0.1319973
v -0.09333983 0.1269637 -0.09333465
v -0.1845926 -1.061699E-07 5.22223E-06
v -0.1305266 -9.39078E-08 -0.1305214
v -0.09333983 0.1269637 -0.09333465
v -0.1320025 0.1269637 5.236063E-06

vn -0.384138 -0.9094616 -0.1591154
vn -0.384138 -0.9094616 -0.1591154
vn -0.384138 -0.9094616 -0.1591154
vn -0.6653365 0.6938133 -0.2755912
vn -0.6653365 0.6938133 -0.2755912
vn -0.6653365 0.6938133 -0.2755912
vn -0.1591154 -0.9094614 -0.3841383
vn -0.1591154 -0.9094614 -0.3841383
vn -0.1591154 -0.9094614 -0.3841383
vn -0.2755913 0.6938134 -0.6653363
vn -0.2755913 0.6938134 -0.6653363
vn -0.2755913 0.6938134 -0.6653363
vn 0.1591152 -0.9094615 -0.3841383
vn 0.1591152 -0.9094615 -0.3841383
vn 0.1591152 -0.9094615 -0.3841383
vn 0.275591 0.6938134 -0.6653364
vn 0.275591 0.6938134 -0.6653364
vn 0.275591 0.6938134 -0.6653364
vn 0.384138 -0.9094616 -0.1591154
vn 0.384138 -0.9094616 -0.1591154
vn 0.384138 -0.9094616 -0.1591154
vn 0.6653363 0.6938134 -0.2755916
vn 0.6653363 0.6938134 -0.2755916
vn 0.6653363 0.6938134 -0.2755916
vn 0.3841385 -0.9094614 0.159115
vn 0.3841385 -0.9094614 0.159115
vn 0.3841385 -0.9094614 0.159115
vn 0.6653365 0.6938132 0.2755914
vn 0.6653365 0.6938132 0.2755914
vn 0.6653365 0.6938132 0.2755914
vn 0.2755913 0.693813 0.6653366
vn 0.2755913 0.693813 0.6653366
vn 0.2755913 0.693813 0.6653366
vn 0.1591152 -0.9094616 0.384138
vn 0.1591152 -0.9094616 0.384138
vn 0.1591152 -0.9094616 0.384138
vn -0.2755914 0.693813 0.6653368
vn -0.2755914 0.693813 0.6653368
vn -0.2755914 0.693813 0.6653368
vn -0.1591151 -0.9094616 0.384138
vn -0.1591151 -0.9094616 0.384138
vn -0.1591151 -0.9094616 0.384138
vn -0.6653364 0.693813 0.2755919
vn -0.6653364 0.693813 0.2755919
vn -0.6653364 0.693813 0.2755919
vn -0.3841383 -0.9094614 0.1591153
vn -0.3841383 -0.9094614 0.1591153
vn -0.3841383 -0.9094614 0.1591153
vn -0.6031849 0.7574591 -0.2498473
vn -0.6031849 0.7574591 -0.2498473
vn -0.6031849 0.7574591 -0.2498473
vn -0.6031849 0.7574591 -0.2498473
vn -0.8628562 -0.3574068 -0.3574066
vn -0.8628562 -0.3574068 -0.3574066
vn -0.8628562 -0.3574068 -0.3574066
vn -0.8628562 -0.3574068 -0.3574066
vn -0.2498474 0.757459 -0.6031851
vn -0.2498474 0.757459 -0.6031851
vn -0.2498474 0.757459 -0.6031851
vn -0.2498474 0.757459 -0.6031851
vn -0.3574069 -0.3574066 -0.8628561
vn -0.3574069 -0.3574066 -0.8628561
vn -0.3574069 -0.3574066 -0.8628561
vn -0.3574069 -0.3574066 -0.8628561
vn 0.2498474 0.757459 -0.6031851
vn 0.2498474 0.757459 -0.6031851
vn 0.2498474 0.757459 -0.6031851
vn 0.2498474 0.757459 -0.6031851
vn 0.3574067 -0.3574066 -0.8628563
vn 0.3574067 -0.3574066 -0.8628563
vn 0.3574067 -0.3574066 -0.8628563
vn 0.3574067 -0.3574066 -0.8628563
vn 0.6031851 0.7574589 -0.2498475
vn 0.6031851 0.7574589 -0.2498475
vn 0.6031851 0.7574589 -0.2498475
vn 0.6031851 0.7574589 -0.2498475
vn 0.8628561 -0.3574067 -0.3574068
vn 0.8628561 -0.3574067 -0.3574068
vn 0.8628561 -0.3574067 -0.3574068
vn 0.8628561 -0.3574067 -0.3574068
vn 0.6031854 0.7574587 0.2498476
vn 0.6031854 0.7574587 0.2498476
vn 0.6031854 0.7574587 0.2498476
vn 0.6031854 0.7574587 0.2498476
vn 0.8628562 -0.3574068 0.3574067
vn 0.8628562 -0.3574068 0.3574067
vn 0.8628562 -0.3574068 0.3574067
vn 0.8628562 -0.3574068 0.3574067
vn 0.2498476 0.7574589 0.603185
vn 0.2498476 0.7574589 0.603185
vn 0.2498476 0.7574589 0.603185
vn 0.2498476 0.7574589 0.603185
vn 0.3574069 -0.3574069 0.862856
vn 0.3574069 -0.3574069 0.862856
vn 0.3574069 -0.3574069 0.862856
vn 0.3574069 -0.3574069 0.862856
vn -0.3574067 -0.3574068 0.8628561
vn -0.3574067 -0.3574068 0.8628561
vn -0.3574067 -0.3574068 0.8628561
vn -0.3574067 -0.3574068 0.8628561
vn -0.2498474 0.7574591 0.6031849
vn -0.2498474 0.7574591 0.6031849
vn -0.2498474 0.7574591 0.6031849
vn -0.2498474 0.7574591 0.6031849
vn -0.862856 -0.3574069 0.3574069
vn -0.862856 -0.3574069 0.3574069
vn -0.862856 -0.3574069 0.3574069
vn -0.862856 -0.3574069 0.3574069
vn -0.6031848 0.757459 0.2498478
vn -0.6031848 0.757459 0.2498478
vn -0.6031848 0.757459 0.2498478
vn -0.6031848 0.757459 0.2498478
vn -0.8628561 0.3574067 0.357407
vn -0.8628561 0.3574067 0.357407
vn -0.8628561 0.3574067 0.357407
vn -0.8628561 0.3574067 0.357407
vn -0.3574066 0.3574067 0.8628563
vn -0.3574066 0.3574067 0.8628563
vn -0.3574066 0.3574067 0.8628563
vn -0.3574066 0.3574067 0.8628563
vn 0.3574069 0.3574069 0.8628561
vn 0.3574069 0.3574069 0.8628561
vn 0.3574069 0.3574069 0.8628561
vn 0.3574069 0.3574069 0.8628561
vn 0.8628562 0.3574068 0.3574066
vn 0.8628562 0.3574068 0.3574066
vn 0.8628562 0.3574068 0.3574066
vn 0.8628562 0.3574068 0.3574066
vn 0.8628561 0.3574069 -0.3574066
vn 0.8628561 0.3574069 -0.3574066
vn 0.8628561 0.3574069 -0.3574066
vn 0.8628561 0.3574069 -0.3574066
vn 0.3574066 0.3574069 -0.8628561
vn 0.3574066 0.3574069 -0.8628561
vn 0.3574066 0.3574069 -0.8628561
vn 0.3574066 0.3574069 -0.8628561
vn -0.3574069 0.3574069 -0.8628561
vn -0.3574069 0.3574069 -0.8628561
vn -0.3574069 0.3574069 -0.8628561
vn -0.3574069 0.3574069 -0.8628561
vn -0.8628562 0.3574067 -0.3574066
vn -0.8628562 0.3574067 -0.3574066
vn -0.8628562 0.3574067 -0.3574066
vn -0.8628562 0.3574067 -0.3574066

vt 0.1558422 0.5740037
vt 0.1628186 0.5712572
vt 0.1614875 0.5686055
vt 0.0580559 0.690207
vt 0.05670098 0.6874122
vt 0.05251601 0.6911669
vt 0.1558422 0.5740037
vt 0.1632316 0.5738138
vt 0.1628186 0.5712572
vt 0.05670098 0.6874122
vt 0.05406898 0.6857632
vt 0.05251601 0.6911669
vt 0.1558422 0.5740037
vt 0.1629094 0.5762931
vt 0.1632316 0.5738138
vt 0.05406898 0.6857632
vt 0.05096306 0.6857632
vt 0.05251601 0.6911669
vt 0.1558422 0.5740037
vt 0.1618296 0.5787596
vt 0.1629094 0.5762931
vt 0.05096306 0.6857632
vt 0.04833104 0.6874122
vt 0.05251601 0.6911669
vt 0.1558422 0.5740037
vt 0.1596337 0.5813547
vt 0.1618296 0.5787596
vt 0.04833104 0.6874122
vt 0.04697613 0.690207
vt 0.05251601 0.6911669
vt 0.04697613 0.690207
vt 0.04731176 0.6932947
vt 0.05251601 0.6911669
vt 0.1558422 0.5740037
vt 0.1546377 0.5843381
vt 0.1596337 0.5813547
vt 0.05579648 0.6957331
vt 0.05772027 0.6932947
vt 0.05251601 0.6911669
vt 0.1558422 0.5740037
vt 0.1587113 0.5659247
vt 0.1530977 0.5638144
vt 0.05772027 0.6932947
vt 0.0580559 0.690207
vt 0.05251601 0.6911669
vt 0.1558422 0.5740037
vt 0.1614875 0.5686055
vt 0.1587113 0.5659247
vt 0.1709548 0.565538
vt 0.1712814 0.5701917
vt 0.1742195 0.5700673
vt 0.1742287 0.5651188
vt 0.1614875 0.5686055
vt 0.1628186 0.5712572
vt 0.1663965 0.5705718
vt 0.1653764 0.5667537
vt 0.1712814 0.5701917
vt 0.1710559 0.5743288
vt 0.17372 0.5745237
vt 0.1742195 0.5700673
vt 0.1628186 0.5712572
vt 0.1632316 0.5738138
vt 0.166612 0.5739931
vt 0.1663965 0.5705718
vt 0.1710559 0.5743288
vt 0.1703825 0.5781255
vt 0.1728211 0.5785369
vt 0.17372 0.5745237
vt 0.1632316 0.5738138
vt 0.1629094 0.5762931
vt 0.1662058 0.5772412
vt 0.166612 0.5739931
vt 0.1703825 0.5781255
vt 0.1694543 0.5817813
vt 0.1717667 0.5822184
vt 0.1728211 0.5785369
vt 0.1629094 0.5762931
vt 0.1618296 0.5787596
vt 0.1652489 0.5805569
vt 0.1662058 0.5772412
vt 0.1694543 0.5817813
vt 0.1686173 0.5856606
vt 0.1709636 0.5857866
vt 0.1717667 0.5822184
vt 0.1618296 0.5787596
vt 0.1596337 0.5813547
vt 0.1636917 0.5844504
vt 0.1652489 0.5805569
vt 0.1686173 0.5856606
vt 0.1687038 0.5903758
vt 0.1711891 0.5894235
vt 0.1709636 0.5857866
vt 0.1596337 0.5813547
vt 0.1546377 0.5843381
vt 0.1610975 0.5905968
vt 0.1636917 0.5844504
vt 0.1530977 0.5638144
vt 0.1587113 0.5659247
vt 0.163098 0.5620525
vt 0.1579584 0.5545136
vt 0.1696579 0.5520213
vt 0.1701333 0.5599689
vt 0.1739346 0.5596008
vt 0.1742291 0.5533729
vt 0.1587113 0.5659247
vt 0.1614875 0.5686055
vt 0.1653764 0.5667537
vt 0.163098 0.5620525
vt 0.1701333 0.5599689
vt 0.1709548 0.565538
vt 0.1742287 0.5651188
vt 0.1739346 0.5596008
vt 0.163098 0.5620525
vt 0.1653764 0.5667537
vt 0.1709548 0.565538
vt 0.1701333 0.5599689
vt 0.1579584 0.5545136
vt 0.163098 0.5620525
vt 0.1701333 0.5599689
vt 0.1696579 0.5520213
vt 0.1636917 0.5844504
vt 0.1610975 0.5905968
vt 0.1687038 0.5903758
vt 0.1686173 0.5856606
vt 0.1652489 0.5805569
vt 0.1636917 0.5844504
vt 0.1686173 0.5856606
vt 0.1694543 0.5817813
vt 0.1662058 0.5772412
vt 0.1652489 0.5805569
vt 0.1694543 0.5817813
vt 0.1703825 0.5781255
vt 0.166612 0.5739931
vt 0.1662058 0.5772412
vt 0.1703825 0.5781255
vt 0.1710559 0.5743288
vt 0.1663965 0.5705718
vt 0.166612 0.5739931
vt 0.1710559 0.5743288
vt 0.1712814 0.5701917
vt 0.1653764 0.5667537
vt 0.1663965 0.5705718
vt 0.1712814 0.5701917
vt 0.1709548 0.565538

usemtl LOW-POLY-COLORS
usemap LOW-POLY-COLORS
f 2/2/2 1/1/1 3/3/3
f 5/5/5 4/4/4 6/6/6
f 8/8/8 7/7/7 9/9/9
f 11/11/11 10/10/10 12/12/12
f 14/14/14 13/13/13 15/15/15
f 17/17/17 16/16/16 18/18/18
f 20/20/20 19/19/19 21/21/21
f 23/23/23 22/22/22 24/24/24
f 26/26/26 25/25/25 27/27/27
f 29/29/29 28/28/28 30/30/30
f 32/32/32 31/31/31 33/33/33
f 35/35/35 34/34/34 36/36/36
f 38/38/38 37/37/37 39/39/39
f 41/41/41 40/40/40 42/42/42
f 44/44/44 43/43/43 45/45/45
f 47/47/47 46/46/46 48/48/48
f 50/50/50 49/49/49 51/51/51
f 51/51/51 49/49/49 52/52/52
f 54/54/54 53/53/53 55/55/55
f 55/55/55 53/53/53 56/56/56
f 58/58/58 57/57/57 59/59/59
f 59/59/59 57/57/57 60/60/60
f 62/62/62 61/61/61 63/63/63
f 63/63/63 61/61/61 64/64/64
f 66/66/66 65/65/65 67/67/67
f 67/67/67 65/65/65 68/68/68
f 70/70/70 69/69/69 71/71/71
f 71/71/71 69/69/69 72/72/72
f 74/74/74 73/73/73 75/75/75
f 75/75/75 73/73/73 76/76/76
f 78/78/78 77/77/77 79/79/79
f 79/79/79 77/77/77 80/80/80
f 82/82/82 81/81/81 83/83/83
f 83/83/83 81/81/81 84/84/84
f 86/86/86 85/85/85 87/87/87
f 87/87/87 85/85/85 88/88/88
f 90/90/90 89/89/89 91/91/91
f 91/91/91 89/89/89 92/92/92
f 94/94/94 93/93/93 95/95/95
f 95/95/95 93/93/93 96/96/96
f 98/98/98 97/97/97 99/99/99
f 99/99/99 97/97/97 100/100/100
f 102/102/102 101/101/101 103/103/103
f 103/103/103 101/101/101 104/104/104
f 106/106/106 105/105/105 107/107/107
f 107/107/107 105/105/105 108/108/108
f 110/110/110 109/109/109 111/111/111
f 111/111/111 109/109/109 112/112/112
f 114/114/114 113/113/113 115/115/115
f 115/115/115 113/113/113 116/116/116
f 118/118/118 117/117/117 119/119/119
f 119/119/119 117/117/117 120/120/120
f 122/122/122 121/121/121 123/123/123
f 123/123/123 121/121/121 124/124/124
f 126/126/126 125/125/125 127/127/127
f 127/127/127 125/125/125 128/128/128
f 130/130/130 129/129/129 131/131/131
f 131/131/131 129/129/129 132/132/132
f 134/134/134 133/133/133 135/135/135
f 135/135/135 133/133/133 136/136/136
f 138/138/138 137/137/137 139/139/139
f 139/139/139 137/137/137 140/140/140
f 142/142/142 141/141/141 143/143/143
f 143/143/143 141/141/141 144/144/144
