mtllib ./cabin-beach_8.mtl
g cabin-beach
v 0.7475561 1.916538 0.7223634
v 1.227557E-07 2.658272 0.7223634
v 1.094647E-07 2.658272 -0.4523641
v 0.747556 1.916538 -0.452364
v -0.04565178 2.612262 0.7223634
v 0.7019044 1.870528 0.7223634
v 0.7019044 1.870528 -0.452364
v -0.04565183 2.612262 -0.452364
v 1.227557E-07 2.658272 0.7223634
v -0.04565178 2.612262 0.7223634
v -0.04565183 2.612262 -0.452364
v 1.094647E-07 2.658272 -0.4523641
v 0.7475561 1.916538 0.7223634
v 0.7019044 1.870528 0.7223634
v -0.04565178 2.612262 0.7223634
v 1.227557E-07 2.658272 0.7223634
v 1.094647E-07 2.658272 -0.4523641
v -0.04565183 2.612262 -0.452364
v 0.7019044 1.870528 -0.452364
v 0.747556 1.916538 -0.452364
v 0.747556 1.916538 -0.452364
v 0.7019044 1.870528 -0.452364
v 0.7019044 1.870528 0.7223634
v 0.7475561 1.916538 0.7223634
v 0.54 2.047517 0.5549996
v 0.54 0.001765472 0.5549999
v 0.54 0.001765487 0.6749998
v 0.54 2.047517 0.6749995
v 0.5470682 2.047517 -0.4473255
v 8.010285E-08 2.594663 -0.4473255
v 8.010285E-08 2.047517 -0.4473254
v -0.5470685 2.047517 -0.4473254
v 0.5470683 2.047517 0.6950976
v 1.20372E-07 2.594663 0.6950976
v 8.010285E-08 2.594663 -0.4473255
v 0.5470682 2.047517 -0.4473255
v 0.5470683 2.047517 0.6950976
v 1.20372E-07 2.047517 0.6950976
v 1.20372E-07 2.594663 0.6950976
v -0.5470684 2.047517 0.6950977
v 0.45 1.969641 0.6749995
v 0.54 0.001765487 0.6749998
v 0.45 0.00176552 0.6749998
v 0.54 2.047517 0.6749995
v -0.45 1.969641 0.6749996
v -0.54 2.047517 0.6749996
v -0.5399999 0.001765534 0.6749999
v -0.4499999 0.0017655 0.6749999
v 0.3594179 1.891765 0.6888353
v 0.3578053 1.891765 0.7289191
v -0.3616126 1.891765 0.6999749
v -0.36 1.891765 0.6598909
v 0.3578053 1.891765 0.7289191
v 0.3594179 1.891765 0.6888353
v 0.3594179 0.001765543 0.6888354
v 0.3578053 0.001765549 0.7289193
v 0.54 2.047517 -0.4050002
v 0.54 0.001765358 -0.405
v 0.54 0.001765372 -0.285
v 0.54 2.047517 -0.2850003
v 0.54 2.047517 -0.2850003
v 0.54 0.001765372 -0.285
v 0.54 0.001765386 -0.165
v 0.54 2.047517 -0.1650003
v 0.54 2.047517 -0.1650003
v 0.54 0.001765386 -0.165
v 0.54 0.001765401 -0.04500006
v 0.54 2.047517 -0.04500027
v 0.54 2.047517 -0.04500027
v 0.54 0.001765401 -0.04500006
v 0.54 0.001765415 0.07499994
v 0.54 2.047517 0.07499972
v 0.54 2.047517 0.07499972
v 0.54 0.001765415 0.07499994
v 0.54 0.001765429 0.1949999
v 0.54 2.047517 0.1949997
v 0.54 2.047517 0.1949997
v 0.54 0.001765429 0.1949999
v 0.54 0.001765444 0.3149999
v 0.54 2.047517 0.3149996
v 0.54 2.047517 0.3149996
v 0.54 0.001765444 0.3149999
v 0.54 0.001765458 0.4349999
v 0.54 2.047517 0.4349996
v 0.54 2.047517 0.4349996
v 0.54 0.001765458 0.4349999
v 0.54 0.001765472 0.5549999
v 0.54 2.047517 0.5549996
v -0.747556 1.916538 -0.4523639
v -0.7475559 1.916538 0.7223634
v -0.7019041 1.870528 0.7223634
v -0.7019043 1.870528 -0.4523639
v -0.05483118 2.603868 -0.452364
v -0.747556 1.916538 -0.4523639
v -0.7019043 1.870528 -0.4523639
v -0.009179511 2.557858 -0.452364
v -0.7475559 1.916538 0.7223634
v -0.747556 1.916538 -0.4523639
v -0.05483118 2.603868 -0.452364
v -0.05483114 2.603868 0.7223634
v -0.7475559 1.916538 0.7223634
v -0.05483114 2.603868 0.7223634
v -0.009179468 2.557858 0.7223634
v -0.7019041 1.870528 0.7223634
v -0.05483114 2.603868 0.7223634
v -0.05483118 2.603868 -0.452364
v -0.009179511 2.557858 -0.452364
v -0.009179468 2.557858 0.7223634
v -0.009179468 2.557858 0.7223634
v -0.009179511 2.557858 -0.452364
v -0.7019043 1.870528 -0.4523639
v -0.7019041 1.870528 0.7223634
v -0.54 2.047517 0.5549997
v -0.54 2.047517 0.6749996
v -0.5399999 0.001765534 0.6749999
v -0.54 0.00176552 0.5549999
v -0.5470684 2.047517 0.6950977
v -0.5470685 2.047517 -0.4473254
v 8.010285E-08 2.594663 -0.4473255
v 1.20372E-07 2.594663 0.6950976
v -0.3616126 1.891765 0.6999749
v -0.3616125 0.001765485 0.6999752
v -0.3599998 0.001765478 0.6598912
v -0.36 1.891765 0.6598909
v -0.5400001 2.047517 -0.4050002
v -0.54 2.047517 -0.2850002
v -0.54 0.001765419 -0.2849999
v -0.54 0.001765405 -0.4049999
v -0.54 2.047517 -0.2850002
v -0.54 2.047517 -0.1650002
v -0.54 0.001765434 -0.165
v -0.54 0.001765419 -0.2849999
v -0.54 2.047517 -0.1650002
v -0.54 2.047517 -0.04500024
v -0.54 0.001765448 -0.04500002
v -0.54 0.001765434 -0.165
v -0.54 2.047517 -0.04500024
v -0.5400001 2.047517 0.07499976
v -0.54 0.001765462 0.07499997
v -0.54 0.001765448 -0.04500002
v -0.5400001 2.047517 0.07499976
v -0.5400001 2.047517 0.1949997
v -0.54 0.001765477 0.195
v -0.54 0.001765462 0.07499997
v -0.5400001 2.047517 0.1949997
v -0.5400001 2.047517 0.3149997
v -0.54 0.001765491 0.315
v -0.54 0.001765477 0.195
v -0.5400001 2.047517 0.3149997
v -0.5400001 2.047517 0.4349997
v -0.54 0.001765505 0.4349999
v -0.54 0.001765491 0.315
v -0.5400001 2.047517 0.4349997
v -0.54 2.047517 0.5549997
v -0.54 0.00176552 0.5549999
v -0.54 0.001765505 0.4349999
v -0.42 0.00176537 -0.4049999
v -0.42 2.047517 -0.4050002
v -0.5400001 2.047517 -0.4050002
v -0.54 0.001765405 -0.4049999
v 0.54 0.001765358 -0.405
v 0.54 2.047517 -0.4050002
v 0.42 2.047517 -0.4050002
v 0.42 0.001765393 -0.4049999
v 0.42 0.001765393 -0.4049999
v 0.42 2.047517 -0.4050002
v 0.3 2.047517 -0.4050002
v 0.3 0.001765368 -0.405
v 0.3 0.001765368 -0.405
v 0.3 2.047517 -0.4050002
v 0.18 2.047517 -0.4050002
v 0.18 0.001765388 -0.405
v 0.18 0.001765388 -0.405
v 0.18 2.047517 -0.4050002
v 0.06000002 2.047517 -0.4050002
v 0.05999999 0.001765382 -0.4049999
v 0.05999999 0.001765382 -0.4049999
v 0.06000002 2.047517 -0.4050002
v -0.0600001 2.047517 -0.4050002
v -0.06 0.00176538 -0.4049999
v -0.06 0.00176538 -0.4049999
v -0.0600001 2.047517 -0.4050002
v -0.18 2.047517 -0.4050002
v -0.18 0.001765374 -0.4049999
v -0.18 0.001765374 -0.4049999
v -0.18 2.047517 -0.4050002
v -0.3000001 2.047517 -0.4050002
v -0.3 0.001765394 -0.4049999
v -0.3 0.001765394 -0.4049999
v -0.3000001 2.047517 -0.4050002
v -0.42 2.047517 -0.4050002
v -0.42 0.00176537 -0.4049999
v -0.3616126 1.891765 0.6999749
v 0.3578053 1.891765 0.7289191
v 0.3578053 0.001765549 0.7289193
v -0.3616125 0.001765485 0.6999752
v -0.36 1.891765 0.6749996
v -0.3599998 0.001765496 0.6749999
v -0.4499999 0.0017655 0.6749999
v -0.45 1.969641 0.6749996
v 0.36 1.891765 0.6749995
v 0.45 1.969641 0.6749995
v 0.45 0.00176552 0.6749998
v 0.36 0.001765524 0.6749997
v -0.36 1.891765 0.6749996
v -0.36 1.891765 0.5549997
v -0.3599998 0.001765482 0.555
v -0.3599998 0.001765496 0.6749999
v 0.36 1.891765 0.6749995
v 0.36 1.891765 0.5549996
v -0.36 1.891765 0.5549997
v -0.36 1.891765 0.6749996
v 0.36 0.001765524 0.6749997
v 0.36 0.00176551 0.5549998
v 0.36 1.891765 0.5549996
v 0.36 1.891765 0.6749995
v 0.36 1.891765 0.5549996
v 0.36 0.00176551 0.5549998
v -0.3599998 0.001765482 0.555
v -0.36 1.891765 0.5549997

vn 0.7043371 0.7098656 -1.204524E-07
vn 0.7043371 0.7098656 -1.204524E-07
vn 0.7043371 0.7098656 -1.204524E-07
vn 0.7043371 0.7098656 -1.204524E-07
vn -0.7043368 -0.7098659 1.232285E-07
vn -0.7043368 -0.7098659 1.232285E-07
vn -0.7043368 -0.7098659 1.232285E-07
vn -0.7043368 -0.7098659 1.232285E-07
vn -0.709864 0.7043388 0
vn -0.709864 0.7043388 0
vn -0.709864 0.7043388 0
vn -0.709864 0.7043388 0
vn 0 0 1
vn 0 0 1
vn 0 0 1
vn 0 0 1
vn -2.836801E-07 -4.366227E-07 -1
vn -2.836801E-07 -4.366227E-07 -1
vn -2.836801E-07 -4.366227E-07 -1
vn -2.836801E-07 -4.366227E-07 -1
vn 0.7098628 -0.70434 0
vn 0.7098628 -0.70434 0
vn 0.7098628 -0.70434 0
vn 0.7098628 -0.70434 0
vn 1 0 0
vn 1 0 0
vn 1 0 0
vn 1 0 0
vn 0 0 -1
vn 0 0 -1
vn 0 0 -1
vn 0 0 -1
vn 0.7071571 0.7070565 0
vn 0.7071571 0.7070565 0
vn 0.7071571 0.7070565 0
vn 0.7071571 0.7070565 0
vn 1.089528E-07 1.991294E-07 1
vn 1.089528E-07 1.991294E-07 1
vn 1.089528E-07 1.991294E-07 1
vn 1.089528E-07 0 1
vn 0 1.443804E-07 1
vn 0 1.443804E-07 1
vn 0 1.443804E-07 1
vn 0 1.443804E-07 1
vn 0 -7.731138E-07 1
vn 0 -7.731138E-07 1
vn 3.889616E-07 1.443805E-07 1
vn 3.889616E-07 1.443805E-07 1
vn -1.289754E-07 1 0
vn -1.289754E-07 1 0
vn -1.289754E-07 1 0
vn -1.289754E-07 1 0
vn 0.9991917 0 0.04019983
vn 0.9991917 0 0.04019983
vn 0.9991917 0 0.04019983
vn 0.9991917 0 0.04019983
vn 1 0 4.540997E-07
vn 1 0 4.540997E-07
vn 1 0 4.540997E-07
vn 1 0 4.540997E-07
vn 1 0 0
vn 1 0 0
vn 1 0 0
vn 1 0 0
vn 1 0 0
vn 1 0 0
vn 1 0 0
vn 1 0 0
vn 1 0 0
vn 1 0 0
vn 1 0 0
vn 1 0 0
vn 1 0 0
vn 1 0 0
vn 1 0 0
vn 1 0 0
vn 1 0 0
vn 1 0 0
vn 1 0 0
vn 1 0 0
vn 1 0 -5.170945E-07
vn 1 0 -5.170945E-07
vn 1 0 -5.170945E-07
vn 1 0 -5.170945E-07
vn 1 0 0
vn 1 0 0
vn 1 0 0
vn 1 0 0
vn -0.7098628 -0.70434 2.44635E-07
vn -0.7098628 -0.70434 2.44635E-07
vn -0.7098628 -0.70434 2.44635E-07
vn -0.7098628 -0.70434 2.44635E-07
vn 0 1.472448E-07 -1
vn 0 1.472448E-07 -1
vn 0 1.472448E-07 -1
vn 0 1.472448E-07 -1
vn -0.7043372 0.7098655 0
vn -0.7043372 0.7098655 0
vn -0.7043372 0.7098655 0
vn -0.7043372 0.7098655 0
vn 0 1.766938E-07 1
vn 0 1.766938E-07 1
vn 0 1.766938E-07 1
vn 0 1.766938E-07 1
vn 0.7098659 0.7043368 0
vn 0.7098659 0.7043368 0
vn 0.7098659 0.7043368 0
vn 0.7098659 0.7043368 0
vn 0.704337 -0.7098657 0
vn 0.704337 -0.7098657 0
vn 0.704337 -0.7098657 0
vn 0.704337 -0.7098657 0
vn -1 0 0
vn -1 0 0
vn -1 0 0
vn -1 0 0
vn -0.7071568 0.7070566 0
vn -0.7071568 0.7070566 0
vn -0.7071568 0.7070566 0
vn -0.7071568 0.7070566 0
vn -0.9991916 0 -0.04020063
vn -0.9991916 0 -0.04020063
vn -0.9991916 0 -0.04020063
vn -0.9991916 0 -0.04020063
vn -1 0 9.71194E-07
vn -1 0 9.71194E-07
vn -1 0 9.71194E-07
vn -1 0 9.71194E-07
vn -1 0 0
vn -1 0 0
vn -1 0 0
vn -1 0 0
vn -1 0 0
vn -1 0 0
vn -1 0 0
vn -1 0 0
vn -1 0 -9.711941E-07
vn -1 0 -9.711941E-07
vn -1 0 -9.711941E-07
vn -1 0 -9.711941E-07
vn -1 0 0
vn -1 0 0
vn -1 0 0
vn -1 0 0
vn -1 0 0
vn -1 0 0
vn -1 0 0
vn -1 0 0
vn -1 0 4.85597E-07
vn -1 0 4.85597E-07
vn -1 0 4.85597E-07
vn -1 0 4.85597E-07
vn -1 0 4.855971E-07
vn -1 0 4.855971E-07
vn -1 0 4.855971E-07
vn -1 0 4.855971E-07
vn -1.241764E-07 -1.36574E-07 -1
vn -1.241764E-07 -1.36574E-07 -1
vn -1.241764E-07 -1.36574E-07 -1
vn -1.241764E-07 -1.36574E-07 -1
vn -2.483527E-07 -1.062243E-07 -1
vn -2.483527E-07 -1.062243E-07 -1
vn -2.483527E-07 -1.062243E-07 -1
vn -2.483527E-07 -1.062243E-07 -1
vn 2.483528E-07 -1.062244E-07 -1
vn 2.483528E-07 -1.062244E-07 -1
vn 2.483528E-07 -1.062244E-07 -1
vn 2.483528E-07 -1.062244E-07 -1
vn 0 -1.213992E-07 -1
vn 0 -1.213992E-07 -1
vn 0 -1.213992E-07 -1
vn 0 -1.213992E-07 -1
vn -2.483527E-07 -1.062244E-07 -1
vn -2.483527E-07 -1.062244E-07 -1
vn -2.483527E-07 -1.062244E-07 -1
vn -2.483527E-07 -1.062244E-07 -1
vn 0 -1.213992E-07 -1
vn 0 -1.213992E-07 -1
vn 0 -1.213992E-07 -1
vn 0 -1.213992E-07 -1
vn 0 -1.062244E-07 -1
vn 0 -1.062244E-07 -1
vn 0 -1.062244E-07 -1
vn 0 -1.062244E-07 -1
vn -2.483526E-07 -1.213992E-07 -1
vn -2.483526E-07 -1.213992E-07 -1
vn -2.483526E-07 -1.213992E-07 -1
vn -2.483526E-07 -1.213992E-07 -1
vn 3.725293E-07 0 -1
vn 3.725293E-07 0 -1
vn 3.725293E-07 0 -1
vn 3.725293E-07 0 -1
vn -0.04020027 1.314036E-07 0.9991917
vn -0.04020027 1.314036E-07 0.9991917
vn -0.04020027 1.314036E-07 0.9991917
vn -0.04020027 1.314036E-07 0.9991917
vn 0 1.502094E-07 1
vn 0 1.502094E-07 1
vn 0 1.502094E-07 1
vn 0 1.502094E-07 1
vn -3.779277E-07 0 1
vn -3.779277E-07 0 1
vn -3.779277E-07 0 1
vn -3.779277E-07 0 1
vn 1 0 0
vn 1 0 0
vn 1 0 0
vn 1 0 0
vn 0 -1 0
vn 0 -1 0
vn 0 -1 0
vn 0 -1 0
vn -1 0 0
vn -1 0 0
vn -1 0 0
vn -1 0 0
vn 1.655685E-07 1.314036E-07 1
vn 1.655685E-07 1.314036E-07 1
vn 1.655685E-07 1.314036E-07 1
vn 1.655685E-07 1.314036E-07 1

vt 0.7337514 0.3063028
vt 0.7177811 0.3063028
vt 0.7177811 0.3304675
vt 0.7337514 0.3304674
vt 0.701811 0.3336713
vt 0.7177811 0.3336713
vt 0.7177811 0.3095067
vt 0.701811 0.3095067
vt 0.6740044 0.3243209
vt 0.6730214 0.3243174
vt 0.6730214 0.3484818
vt 0.6740044 0.3484852
vt 0.6987133 0.3095067
vt 0.6973287 0.3095067
vt 0.6973287 0.3311692
vt 0.6987133 0.3311692
vt 0.6987133 0.3311693
vt 0.700098 0.3311693
vt 0.700098 0.3095067
vt 0.6987134 0.3095067
vt 0.695944 0.3537483
vt 0.6969269 0.3537448
vt 0.6969269 0.3295804
vt 0.695944 0.3295838
vt 0.6690731 0.3095067
vt 0.6690731 0.3515886
vt 0.6716366 0.3515886
vt 0.6716366 0.3095067
vt 0.3500751 0.2738895
vt 0.3366276 0.2871909
vt 0.3500751 0.2871909
vt 0.3500751 0.3004922
vt 0.3176114 0.3016663
vt 0.3366276 0.3016662
vt 0.3366276 0.2738895
vt 0.3176114 0.2738895
vt 0.2777957 0.3217388
vt 0.2873038 0.3311437
vt 0.296812 0.3217362
vt 0.296812 0.3405485
vt 0.6735595 0.2690268
vt 0.6716368 0.3095067
vt 0.6735595 0.3095067
vt 0.6716368 0.2674248
vt 0.6927863 0.2690268
vt 0.694709 0.2674248
vt 0.694709 0.3095067
vt 0.6927863 0.3095067
vt 0.6987133 0.3311693
vt 0.6978563 0.3311693
vt 0.6978563 0.34598
vt 0.6987133 0.34598
vt 0.7018109 0.3095067
vt 0.7009544 0.3095067
vt 0.7009545 0.3483847
vt 0.701811 0.3483847
vt 0.6485645 0.3095067
vt 0.6485645 0.3515886
vt 0.6511281 0.3515886
vt 0.6511281 0.3095067
vt 0.3559737 0.3442377
vt 0.3559737 0.3090636
vt 0.3530244 0.3090636
vt 0.3530244 0.3442377
vt 0.6536916 0.3095067
vt 0.6536916 0.3515886
vt 0.6562552 0.3515886
vt 0.6562552 0.3095067
vt 0.358923 0.3442377
vt 0.358923 0.3090636
vt 0.3559737 0.3090636
vt 0.3559737 0.3442377
vt 0.6588188 0.3095067
vt 0.6588188 0.3515886
vt 0.6613824 0.3515886
vt 0.6613824 0.3095067
vt 0.3454756 0.3004922
vt 0.3454756 0.3356663
vt 0.3484248 0.3356663
vt 0.3484248 0.3004922
vt 0.6639459 0.3095067
vt 0.6639459 0.3515886
vt 0.6665095 0.3515886
vt 0.6665095 0.3095067
vt 0.3530244 0.2738895
vt 0.3530244 0.3090636
vt 0.3559737 0.3090636
vt 0.3559737 0.2738895
vt 0.6996962 0.3553337
vt 0.6996963 0.3311693
vt 0.6987133 0.3311728
vt 0.6987133 0.3553371
vt 0.695944 0.3095067
vt 0.6959441 0.3295804
vt 0.6973287 0.3295804
vt 0.6973287 0.3095067
vt 0.701811 0.3336713
vt 0.701811 0.3578359
vt 0.7166098 0.3578359
vt 0.7166098 0.3336713
vt 0.6716368 0.3243174
vt 0.6716368 0.344391
vt 0.6730214 0.344391
vt 0.6730214 0.3243174
vt 0.6949611 0.3095067
vt 0.6949611 0.3336712
vt 0.695944 0.3336746
vt 0.695944 0.3095102
vt 0.73258 0.3546321
vt 0.73258 0.3304674
vt 0.7177811 0.3304675
vt 0.7177812 0.3546321
vt 0.7152176 0.3095067
vt 0.7177811 0.3095067
vt 0.7177811 0.2674248
vt 0.7152176 0.2674248
vt 0.3366276 0.329443
vt 0.3366276 0.3016663
vt 0.3176114 0.3016663
vt 0.3176114 0.329443
vt 0.7009544 0.3483847
vt 0.7009544 0.3095067
vt 0.700098 0.3095067
vt 0.700098 0.3483847
vt 0.694709 0.3095067
vt 0.6972726 0.3095067
vt 0.6972726 0.2674249
vt 0.694709 0.2674249
vt 0.358923 0.2738895
vt 0.3559737 0.2738895
vt 0.3559737 0.3090636
vt 0.358923 0.3090636
vt 0.6998361 0.3095067
vt 0.7023997 0.3095067
vt 0.7023997 0.2674249
vt 0.6998361 0.2674249
vt 0.3087634 0.3198427
vt 0.3058141 0.3198427
vt 0.3058141 0.3550168
vt 0.3087634 0.3550168
vt 0.7049633 0.3095067
vt 0.7075269 0.3095067
vt 0.7075269 0.2674249
vt 0.7049633 0.2674249
vt 0.2999155 0.3550168
vt 0.3028648 0.3550168
vt 0.3028648 0.3198427
vt 0.2999155 0.3198427
vt 0.7100905 0.3095067
vt 0.7126541 0.3095067
vt 0.712654 0.2674249
vt 0.7100904 0.2674249
vt 0.3058141 0.3198427
vt 0.3028648 0.3198427
vt 0.3028648 0.3550168
vt 0.3058141 0.3550168
vt 0.6511281 0.3095067
vt 0.6511281 0.2674248
vt 0.6485645 0.2674248
vt 0.6485645 0.3095067
vt 0.6716368 0.3095067
vt 0.6716368 0.2674248
vt 0.6690732 0.2674248
vt 0.6690732 0.3095067
vt 0.3366276 0.3004922
vt 0.3366276 0.3502324
vt 0.3395769 0.3502324
vt 0.3395769 0.3004922
vt 0.6665096 0.3095067
vt 0.6665096 0.2674248
vt 0.663946 0.2674248
vt 0.663946 0.3095067
vt 0.3395769 0.3004922
vt 0.3395769 0.3502324
vt 0.3425262 0.3502324
vt 0.3425262 0.3004922
vt 0.6613824 0.3095067
vt 0.6613824 0.2674248
vt 0.6588189 0.2674248
vt 0.6588189 0.3095067
vt 0.3500751 0.2738895
vt 0.3500751 0.3236296
vt 0.3530244 0.3236296
vt 0.3530244 0.2738895
vt 0.6562552 0.3095067
vt 0.6562552 0.2674248
vt 0.6536916 0.2674248
vt 0.6536916 0.3095067
vt 0.3425262 0.3004922
vt 0.3425262 0.3502324
vt 0.3454756 0.3502324
vt 0.3454756 0.3004922
vt 0.7177811 0.3063028
vt 0.7331522 0.3063028
vt 0.7331523 0.2674248
vt 0.7177812 0.2674249
vt 0.2977035 0.2757829
vt 0.2977035 0.3217362
vt 0.2999155 0.3217362
vt 0.2999155 0.2738895
vt 0.2800076 0.2757829
vt 0.2777957 0.2738895
vt 0.2777957 0.3217362
vt 0.2800077 0.3217362
vt 0.3117128 0.3198427
vt 0.3087634 0.3198427
vt 0.3087634 0.3523389
vt 0.3117128 0.3523389
vt 0.3176114 0.3198427
vt 0.314662 0.3198427
vt 0.314662 0.3373488
vt 0.3176114 0.3373488
vt 0.314662 0.3198427
vt 0.3117128 0.3198427
vt 0.3117128 0.3523388
vt 0.314662 0.3523388
vt 0.2999155 0.2738895
vt 0.2999155 0.3198427
vt 0.3176114 0.3198427
vt 0.3176114 0.2738895

usemtl LOW-POLY-COLORS
usemap LOW-POLY-COLORS
f 2/2/2 1/1/1 3/3/3
f 3/3/3 1/1/1 4/4/4
f 6/6/6 5/5/5 7/7/7
f 7/7/7 5/5/5 8/8/8
f 10/10/10 9/9/9 11/11/11
f 11/11/11 9/9/9 12/12/12
f 14/14/14 13/13/13 15/15/15
f 15/15/15 13/13/13 16/16/16
f 18/18/18 17/17/17 19/19/19
f 19/19/19 17/17/17 20/20/20
f 22/22/22 21/21/21 23/23/23
f 23/23/23 21/21/21 24/24/24
f 26/26/26 25/25/25 27/27/27
f 27/27/27 25/25/25 28/28/28
f 30/30/30 29/29/29 31/31/31
f 31/31/31 32/32/32 30/30/30
f 34/34/34 33/33/33 35/35/35
f 35/35/35 33/33/33 36/36/36
f 38/38/38 37/37/37 39/39/39
f 39/39/39 40/40/40 38/38/38
f 42/42/42 41/41/41 43/43/43
f 44/44/44 41/41/41 42/42/42
f 41/41/41 44/44/44 45/45/45
f 45/45/45 44/44/44 46/46/46
f 47/47/47 45/45/45 46/46/46
f 48/48/48 45/45/45 47/47/47
f 50/50/50 49/49/49 51/51/51
f 51/51/51 49/49/49 52/52/52
f 54/54/54 53/53/53 55/55/55
f 55/55/55 53/53/53 56/56/56
f 58/58/58 57/57/57 59/59/59
f 59/59/59 57/57/57 60/60/60
f 62/62/62 61/61/61 63/63/63
f 63/63/63 61/61/61 64/64/64
f 66/66/66 65/65/65 67/67/67
f 67/67/67 65/65/65 68/68/68
f 70/70/70 69/69/69 71/71/71
f 71/71/71 69/69/69 72/72/72
f 74/74/74 73/73/73 75/75/75
f 75/75/75 73/73/73 76/76/76
f 78/78/78 77/77/77 79/79/79
f 79/79/79 77/77/77 80/80/80
f 82/82/82 81/81/81 83/83/83
f 83/83/83 81/81/81 84/84/84
f 86/86/86 85/85/85 87/87/87
f 87/87/87 85/85/85 88/88/88
f 90/90/90 89/89/89 91/91/91
f 91/91/91 89/89/89 92/92/92
f 94/94/94 93/93/93 95/95/95
f 95/95/95 93/93/93 96/96/96
f 98/98/98 97/97/97 99/99/99
f 99/99/99 97/97/97 100/100/100
f 102/102/102 101/101/101 103/103/103
f 103/103/103 101/101/101 104/104/104
f 106/106/106 105/105/105 107/107/107
f 107/107/107 105/105/105 108/108/108
f 110/110/110 109/109/109 111/111/111
f 111/111/111 109/109/109 112/112/112
f 114/114/114 113/113/113 115/115/115
f 115/115/115 113/113/113 116/116/116
f 118/118/118 117/117/117 119/119/119
f 119/119/119 117/117/117 120/120/120
f 122/122/122 121/121/121 123/123/123
f 123/123/123 121/121/121 124/124/124
f 126/126/126 125/125/125 127/127/127
f 127/127/127 125/125/125 128/128/128
f 130/130/130 129/129/129 131/131/131
f 131/131/131 129/129/129 132/132/132
f 134/134/134 133/133/133 135/135/135
f 135/135/135 133/133/133 136/136/136
f 138/138/138 137/137/137 139/139/139
f 139/139/139 137/137/137 140/140/140
f 142/142/142 141/141/141 143/143/143
f 143/143/143 141/141/141 144/144/144
f 146/146/146 145/145/145 147/147/147
f 147/147/147 145/145/145 148/148/148
f 150/150/150 149/149/149 151/151/151
f 151/151/151 149/149/149 152/152/152
f 154/154/154 153/153/153 155/155/155
f 155/155/155 153/153/153 156/156/156
f 158/158/158 157/157/157 159/159/159
f 159/159/159 157/157/157 160/160/160
f 162/162/162 161/161/161 163/163/163
f 163/163/163 161/161/161 164/164/164
f 166/166/166 165/165/165 167/167/167
f 167/167/167 165/165/165 168/168/168
f 170/170/170 169/169/169 171/171/171
f 171/171/171 169/169/169 172/172/172
f 174/174/174 173/173/173 175/175/175
f 175/175/175 173/173/173 176/176/176
f 178/178/178 177/177/177 179/179/179
f 179/179/179 177/177/177 180/180/180
f 182/182/182 181/181/181 183/183/183
f 183/183/183 181/181/181 184/184/184
f 186/186/186 185/185/185 187/187/187
f 187/187/187 185/185/185 188/188/188
f 190/190/190 189/189/189 191/191/191
f 191/191/191 189/189/189 192/192/192
f 194/194/194 193/193/193 195/195/195
f 195/195/195 193/193/193 196/196/196
f 198/198/198 197/197/197 199/199/199
f 199/199/199 197/197/197 200/200/200
f 197/197/197 201/201/201 200/200/200
f 200/200/200 201/201/201 202/202/202
f 202/202/202 201/201/201 203/203/203
f 203/203/203 201/201/201 204/204/204
f 206/206/206 205/205/205 207/207/207
f 207/207/207 205/205/205 208/208/208
f 210/210/210 209/209/209 211/211/211
f 211/211/211 209/209/209 212/212/212
f 214/214/214 213/213/213 215/215/215
f 215/215/215 213/213/213 216/216/216
f 218/218/218 217/217/217 219/219/219
f 219/219/219 217/217/217 220/220/220
