mtllib ./sunscreen-closed_13.mtl
g sunscreen-closed
v 0.02460766 2.189645 0.01420676
v -2.360968E-09 2.209497 -6.511701E-07
v 0.02460767 2.189645 -0.01420783
v -6.082979E-09 2.189645 -0.02841503
v -2.360968E-09 2.209497 -6.511701E-07
v -0.02460768 2.189645 -0.01420782
v -0.02460766 2.189645 0.01420676
v -2.360968E-09 2.209497 -6.511701E-07
v 1.202572E-09 2.189645 0.02841395
v 1.202572E-09 2.189645 0.02841395
v -2.360968E-09 2.209497 -6.511701E-07
v 0.02460766 2.189645 0.01420676
v 0.02460767 2.189645 -0.01420783
v -2.360968E-09 2.209497 -6.511701E-07
v -6.082979E-09 2.189645 -0.02841503
v -0.02460768 2.189645 -0.01420782
v -2.360968E-09 2.209497 -6.511701E-07
v -0.02460766 2.189645 0.01420676
v -0.03529733 2.160517 -0.0203794
v -0.0352922 -2.417382E-07 -0.02037598
v -8.267838E-09 -2.450579E-07 -0.04075194
v -8.246731E-09 2.160517 -0.04075838
v 0.03529734 2.160517 -0.02037941
v 0.0352922 -2.417382E-07 -0.02037599
v 0.03529219 -2.350989E-07 0.02037592
v 0.03529733 2.160517 0.02037835
v -0.03529733 2.160517 0.02037836
v -0.03529219 -2.350989E-07 0.02037592
v -0.0352922 -2.417382E-07 -0.02037598
v -0.03529733 2.160517 -0.0203794
v -8.246731E-09 2.160517 -0.04075838
v -8.267838E-09 -2.450579E-07 -0.04075194
v 0.0352922 -2.417382E-07 -0.02037599
v 0.03529734 2.160517 -0.02037941
v 0.03529733 2.160517 0.02037835
v 0.03529219 -2.350989E-07 0.02037592
v 2.165664E-09 -2.317792E-07 0.04075194
v 2.166133E-09 2.160517 0.04075732
v 2.166133E-09 2.160517 0.04075732
v 2.165664E-09 -2.317792E-07 0.04075194
v -0.03529219 -2.350989E-07 0.02037592
v -0.03529733 2.160517 0.02037836
v -0.03529733 2.160517 0.02037836
v -0.02460766 2.189645 0.01420676
v 1.202572E-09 2.189645 0.02841395
v 2.166133E-09 2.160517 0.04075732
v 0.03529733 2.160517 0.02037835
v 0.02460766 2.189645 0.01420676
v 0.02460767 2.189645 -0.01420783
v 0.03529734 2.160517 -0.02037941
v -0.03529733 2.160517 -0.0203794
v -0.02460768 2.189645 -0.01420782
v -0.02460766 2.189645 0.01420676
v -0.03529733 2.160517 0.02037836
v -8.246731E-09 2.160517 -0.04075838
v -6.082979E-09 2.189645 -0.02841503
v -0.02460768 2.189645 -0.01420782
v -0.03529733 2.160517 -0.0203794
v 2.166133E-09 2.160517 0.04075732
v 1.202572E-09 2.189645 0.02841395
v 0.02460766 2.189645 0.01420676
v 0.03529733 2.160517 0.02037835
v 0.03529734 2.160517 -0.02037941
v 0.02460767 2.189645 -0.01420783
v -6.082979E-09 2.189645 -0.02841503
v -8.246731E-09 2.160517 -0.04075838
v 0.282061 0.8097652 -0.2839514
v 0.3995408 0.8097652 -0.0003304172
v 0.04549809 2.152426 -0.0009848111
v 0.03217197 2.152426 -0.0331568
v -0.001559973 0.8097652 -0.4014309
v 0.282061 0.8097652 -0.2839514
v 0.03217197 2.152426 -0.0331568
v -4.219197E-08 2.152426 -0.04648294
v -0.4026604 0.8097652 -0.0003303231
v -0.2851809 0.8097652 -0.2839513
v -0.03217204 2.152426 -0.0331568
v -0.04549816 2.152426 -0.0009848032
v -0.2851808 0.8097652 0.2832906
v -0.4026604 0.8097652 -0.0003303231
v -0.04549816 2.152426 -0.0009848032
v -0.03217204 2.152426 0.03118721
v -0.001559868 0.8097652 0.4007702
v -0.2851808 0.8097652 0.2832906
v -0.03217204 2.152426 0.03118721
v -3.033463E-08 2.152426 0.04451332
v 0.2820611 0.8097652 0.2832906
v -3.033463E-08 2.152426 0.04451332
v 0.03217198 2.152426 0.0311872
v -0.001559868 0.8097652 0.4007702
v -0.001559868 0.8097652 0.4007702
v 0.2560661 0.774448 0.2940581
v 0.02443506 0.774448 0.3900028
v 0.2820611 0.8097652 0.2832906
v 0.3995408 0.8097652 -0.0003304172
v 0.2928285 0.7744479 -0.2579564
v 0.3887733 0.7744479 -0.02632534
v 0.282061 0.8097652 -0.2839514
v -0.001559973 0.8097652 -0.4014309
v -0.259186 0.7744479 -0.2947187
v -0.0275549 0.7744479 -0.3906634
v -0.2851809 0.8097652 -0.2839513
v -0.4026604 0.8097652 -0.0003303231
v -0.2959483 0.774448 0.2572957
v -0.391893 0.7744479 0.02566461
v -0.2851808 0.8097652 0.2832906
v -0.2851808 0.8097652 0.2832906
v -0.02755479 0.774448 0.3900028
v -0.2591859 0.774448 0.2940581
v -0.001559868 0.8097652 0.4007702
v -0.2851809 0.8097652 -0.2839513
v -0.391893 0.7744479 -0.02632525
v -0.2959484 0.7744479 -0.2579563
v -0.4026604 0.8097652 -0.0003303231
v 0.282061 0.8097652 -0.2839514
v 0.02443495 0.7744479 -0.3906634
v 0.2560661 0.7744479 -0.2947188
v -0.001559973 0.8097652 -0.4014309
v 0.2820611 0.8097652 0.2832906
v 0.3887733 0.7744479 0.02566452
v 0.2928285 0.774448 0.2572956
v 0.3995408 0.8097652 -0.0003304172
v 0.3995408 0.8097652 -0.0003304172
v 0.2820611 0.8097652 0.2832906
v 0.03217198 2.152426 0.0311872
v 0.04549809 2.152426 -0.0009848111
v -0.2851809 0.8097652 -0.2839513
v -0.001559973 0.8097652 -0.4014309
v -4.219197E-08 2.152426 -0.04648294
v -0.03217204 2.152426 -0.0331568

vn 0.6279067 0.7782886 2.591606E-07
vn 0.6279067 0.7782886 2.591606E-07
vn 0.6279067 0.7782886 2.591606E-07
vn -0.3139501 0.7782955 -0.5437751
vn -0.3139501 0.7782955 -0.5437751
vn -0.3139501 0.7782955 -0.5437751
vn -0.3139563 0.7782958 0.5437712
vn -0.3139563 0.7782958 0.5437712
vn -0.3139563 0.7782958 0.5437712
vn 0.3139487 0.7782978 0.5437725
vn 0.3139487 0.7782978 0.5437725
vn 0.3139487 0.7782978 0.5437725
vn 0.3139426 0.7782975 -0.5437766
vn 0.3139426 0.7782975 -0.5437766
vn 0.3139426 0.7782975 -0.5437766
vn -0.6279017 0.7782926 3.88743E-07
vn -0.6279017 0.7782926 3.88743E-07
vn -0.6279017 0.7782926 3.88743E-07
vn -0.5000006 -2.570213E-06 -0.8660251
vn -0.5000006 -2.570213E-06 -0.8660251
vn -0.5000006 -2.570213E-06 -0.8660251
vn -0.5000006 -2.570213E-06 -0.8660251
vn 1 -2.381202E-06 1.665712E-07
vn 1 -2.381202E-06 1.665712E-07
vn 1 -2.381202E-06 1.665712E-07
vn 1 -2.381202E-06 1.665712E-07
vn -1 -2.379478E-06 0
vn -1 -2.379478E-06 0
vn -1 -2.379478E-06 0
vn -1 -2.379478E-06 0
vn 0.5000001 -2.570212E-06 -0.8660253
vn 0.5000001 -2.570212E-06 -0.8660253
vn 0.5000001 -2.570212E-06 -0.8660253
vn 0.5000001 -2.570212E-06 -0.8660253
vn 0.5000011 -2.162997E-06 0.8660248
vn 0.5000011 -2.162997E-06 0.8660248
vn 0.5000011 -2.162997E-06 0.8660248
vn 0.5000011 -2.162997E-06 0.8660248
vn -0.5000008 -2.162997E-06 0.866025
vn -0.5000008 -2.162997E-06 0.866025
vn -0.5000008 -2.162997E-06 0.866025
vn -0.5000008 -2.162997E-06 0.866025
vn -0.4693917 0.3445173 0.8130064
vn -0.4693917 0.3445173 0.8130064
vn -0.4693917 0.3445173 0.8130064
vn -0.4693917 0.3445173 0.8130064
vn 0.9387792 0.3445194 2.712046E-07
vn 0.9387792 0.3445194 2.712046E-07
vn 0.9387792 0.3445194 2.712046E-07
vn 0.9387792 0.3445194 2.712046E-07
vn -0.9387796 0.3445181 2.712037E-07
vn -0.9387796 0.3445181 2.712037E-07
vn -0.9387796 0.3445181 2.712037E-07
vn -0.9387796 0.3445181 2.712037E-07
vn -0.4693918 0.3445167 -0.8130065
vn -0.4693918 0.3445167 -0.8130065
vn -0.4693918 0.3445167 -0.8130065
vn -0.4693918 0.3445167 -0.8130065
vn 0.4693904 0.3445174 0.8130071
vn 0.4693904 0.3445174 0.8130071
vn 0.4693904 0.3445174 0.8130071
vn 0.4693904 0.3445174 0.8130071
vn 0.469393 0.3445164 -0.813006
vn 0.469393 0.3445164 -0.813006
vn 0.469393 0.3445164 -0.813006
vn 0.469393 0.3445164 -0.813006
vn 0.8976654 0.2365219 -0.3718256
vn 0.8976654 0.2365219 -0.3718256
vn 0.8976654 0.2365219 -0.3718256
vn 0.8976654 0.2365219 -0.3718256
vn 0.3717938 0.2368565 -0.8975903
vn 0.3717938 0.2368565 -0.8975903
vn 0.3717938 0.2368565 -0.8975903
vn 0.3717938 0.2368565 -0.8975903
vn -0.8972211 0.2384894 -0.371641
vn -0.8972211 0.2384894 -0.371641
vn -0.8972211 0.2384894 -0.371641
vn -0.8972211 0.2384894 -0.371641
vn -0.8971435 0.2388311 0.3716091
vn -0.8971435 0.2388311 0.3716091
vn -0.8971435 0.2388311 0.3716091
vn -0.8971435 0.2388311 0.3716091
vn -0.3716405 0.2384968 0.8972194
vn -0.3716405 0.2384968 0.8972194
vn -0.3716405 0.2384968 0.8972194
vn -0.3716405 0.2384968 0.8972194
vn 0.3717171 0.2376822 0.8974038
vn 0.3717171 0.2376822 0.8974038
vn 0.3717171 0.2376822 0.8974038
vn 0.3717171 0.2376822 0.8974038
vn 0.3826838 1.79677E-06 0.9238794
vn 0.3826838 1.79677E-06 0.9238794
vn 0.3826838 1.79677E-06 0.9238794
vn 0.3826838 1.79677E-06 0.9238794
vn 0.9238794 -1.489426E-06 -0.3826839
vn 0.9238794 -1.489426E-06 -0.3826839
vn 0.9238794 -1.489426E-06 -0.3826839
vn 0.9238794 -1.489426E-06 -0.3826839
vn -0.3826832 -7.092504E-07 -0.9238796
vn -0.3826832 -7.092504E-07 -0.9238796
vn -0.3826832 -7.092504E-07 -0.9238796
vn -0.3826832 -7.092504E-07 -0.9238796
vn -0.9238798 0 0.3826827
vn -0.9238798 0 0.3826827
vn -0.9238798 0 0.3826827
vn -0.9238798 0 0.3826827
vn -0.3826834 1.040237E-06 0.9238795
vn -0.3826834 1.040237E-06 0.9238795
vn -0.3826834 1.040237E-06 0.9238795
vn -0.3826834 1.040237E-06 0.9238795
vn -0.9238795 -3.959982E-07 -0.3826833
vn -0.9238795 -3.959982E-07 -0.3826833
vn -0.9238795 -3.959982E-07 -0.3826833
vn -0.9238795 -3.959982E-07 -0.3826833
vn 0.3826824 -1.891335E-07 -0.92388
vn 0.3826824 -1.891335E-07 -0.92388
vn 0.3826824 -1.891335E-07 -0.92388
vn 0.3826824 -1.891335E-07 -0.92388
vn 0.9238797 -1.174694E-06 0.3826829
vn 0.9238797 -1.174694E-06 0.3826829
vn 0.9238797 -1.174694E-06 0.3826829
vn 0.9238797 -1.174694E-06 0.3826829
vn 0.8975885 0.236864 0.3717934
vn 0.8975885 0.236864 0.3717934
vn 0.8975885 0.236864 0.3717934
vn 0.8975885 0.236864 0.3717934
vn -0.3717181 0.2376716 -0.8974062
vn -0.3717181 0.2376716 -0.8974062
vn -0.3717181 0.2376716 -0.8974062
vn -0.3717181 0.2376716 -0.8974062

vt 0.2082386 0.8412383
vt 0.208796 0.8419558
vt 0.2090658 0.8412119
vt 0.2142219 0.7738282
vt 0.2138491 0.7730927
vt 0.2133801 0.7738196
vt 0.2108992 0.773837
vt 0.2111692 0.7730927
vt 0.2103419 0.7737361
vt 0.2121306 0.841231
vt 0.2125033 0.8419667
vt 0.2129724 0.8412398
vt 0.2090658 0.8412119
vt 0.208796 0.8419558
vt 0.2096232 0.8413123
vt 0.2117265 0.7738106
vt 0.2111692 0.7730927
vt 0.2108992 0.773837
vt 0.2131763 0.7747729
vt 0.2131764 0.8419542
vt 0.2143839 0.8419667
vt 0.2143839 0.7747854
vt 0.2091831 0.8402514
vt 0.2091832 0.7730927
vt 0.2079967 0.7731304
vt 0.2079965 0.8402892
vt 0.210782 0.7747977
vt 0.2107822 0.8419502
vt 0.2119686 0.8419122
vt 0.2119686 0.7747598
vt 0.2099826 0.8403955
vt 0.2099826 0.7732368
vt 0.2091832 0.7730927
vt 0.2091831 0.8402514
vt 0.2131763 0.8402864
vt 0.2131763 0.7731051
vt 0.2119688 0.7730927
vt 0.2119686 0.840274
vt 0.2099826 0.774653
vt 0.2099828 0.8418055
vt 0.2107822 0.8419502
vt 0.210782 0.7747977
vt 0.210782 0.7747977
vt 0.2108992 0.773837
vt 0.2103419 0.7737361
vt 0.2099826 0.774653
vt 0.2079965 0.8402892
vt 0.2082386 0.8412383
vt 0.2090658 0.8412119
vt 0.2091831 0.8402514
vt 0.2119686 0.7747598
vt 0.2117265 0.7738106
vt 0.2108992 0.773837
vt 0.210782 0.7747977
vt 0.2143839 0.7747854
vt 0.2142219 0.7738282
vt 0.2133801 0.7738196
vt 0.2131763 0.7747729
vt 0.2119686 0.840274
vt 0.2121306 0.841231
vt 0.2129724 0.8412398
vt 0.2131763 0.8402864
vt 0.2091831 0.8402514
vt 0.2090658 0.8412119
vt 0.2096232 0.8413123
vt 0.2099826 0.8403955
vt 0.8120046 0.7851787
vt 0.8031143 0.7862463
vt 0.8109961 0.8288633
vt 0.8120046 0.8287421
vt 0.4604077 0.5326675
vt 0.4544998 0.5342691
vt 0.4677671 0.5755163
vt 0.4684372 0.5753347
vt 0.414363 0.5328133
vt 0.4069779 0.5347549
vt 0.4214069 0.5756682
vt 0.4222445 0.575448
vt 0.7957281 0.7851782
vt 0.7868382 0.7862487
vt 0.7947197 0.8288834
vt 0.7957281 0.8287619
vt 0.4454409 0.5326465
vt 0.4395294 0.5342329
vt 0.4528017 0.5755045
vt 0.4534723 0.5753247
vt 0.826975 0.7852038
vt 0.8259474 0.82876
vt 0.826975 0.8286605
vt 0.8179161 0.7860819
vt 0.8179161 0.7860819
vt 0.8260601 0.7841898
vt 0.8186617 0.7849069
vt 0.826975 0.7852038
vt 0.8031143 0.7862463
vt 0.8110425 0.7841898
vt 0.8037819 0.7850616
vt 0.8120046 0.7851787
vt 0.8328828 0.7861029
vt 0.8410224 0.7841898
vt 0.8336257 0.7849259
vt 0.8419397 0.7852014
vt 0.7868382 0.7862487
vt 0.7947657 0.7841898
vt 0.7875053 0.785064
vt 0.7957281 0.7851782
vt 0.4395294 0.5342329
vt 0.4448144 0.5316974
vt 0.4399866 0.532993
vt 0.4454409 0.5326465
vt 0.4069779 0.5347549
vt 0.4135385 0.5319047
vt 0.4075071 0.5334904
vt 0.414363 0.5328133
vt 0.4544998 0.5342691
vt 0.459779 0.5317199
vt 0.4549541 0.533028
vt 0.4604077 0.5326675
vt 0.423253 0.534746
vt 0.4298149 0.5319015
vt 0.4237827 0.533482
vt 0.4306391 0.5328109
vt 0.4306391 0.5328109
vt 0.423253 0.534746
vt 0.4376831 0.5756474
vt 0.438521 0.5754278
vt 0.8419397 0.7852014
vt 0.8328828 0.7861029
vt 0.8409123 0.82877
vt 0.8419397 0.8286678

usemtl LOW-POLY-COLORS
usemap LOW-POLY-COLORS
f 2/2/2 1/1/1 3/3/3
f 5/5/5 4/4/4 6/6/6
f 8/8/8 7/7/7 9/9/9
f 11/11/11 10/10/10 12/12/12
f 14/14/14 13/13/13 15/15/15
f 17/17/17 16/16/16 18/18/18
f 20/20/20 19/19/19 21/21/21
f 21/21/21 19/19/19 22/22/22
f 24/24/24 23/23/23 25/25/25
f 25/25/25 23/23/23 26/26/26
f 28/28/28 27/27/27 29/29/29
f 29/29/29 27/27/27 30/30/30
f 32/32/32 31/31/31 33/33/33
f 33/33/33 31/31/31 34/34/34
f 36/36/36 35/35/35 37/37/37
f 37/37/37 35/35/35 38/38/38
f 40/40/40 39/39/39 41/41/41
f 41/41/41 39/39/39 42/42/42
f 44/44/44 43/43/43 45/45/45
f 45/45/45 43/43/43 46/46/46
f 48/48/48 47/47/47 49/49/49
f 49/49/49 47/47/47 50/50/50
f 52/52/52 51/51/51 53/53/53
f 53/53/53 51/51/51 54/54/54
f 56/56/56 55/55/55 57/57/57
f 57/57/57 55/55/55 58/58/58
f 60/60/60 59/59/59 61/61/61
f 61/61/61 59/59/59 62/62/62
f 64/64/64 63/63/63 65/65/65
f 65/65/65 63/63/63 66/66/66
f 68/68/68 67/67/67 69/69/69
f 68/68/68 67/67/67 69/69/69
f 69/69/69 67/67/67 70/70/70
f 69/69/69 67/67/67 70/70/70
f 72/72/72 71/71/71 73/73/73
f 72/72/72 71/71/71 73/73/73
f 73/73/73 71/71/71 74/74/74
f 73/73/73 71/71/71 74/74/74
f 76/76/76 75/75/75 77/77/77
f 76/76/76 75/75/75 77/77/77
f 77/77/77 75/75/75 78/78/78
f 77/77/77 75/75/75 78/78/78
f 80/80/80 79/79/79 81/81/81
f 80/80/80 79/79/79 81/81/81
f 81/81/81 79/79/79 82/82/82
f 81/81/81 79/79/79 82/82/82
f 84/84/84 83/83/83 85/85/85
f 84/84/84 83/83/83 85/85/85
f 85/85/85 83/83/83 86/86/86
f 85/85/85 83/83/83 86/86/86
f 88/88/88 87/87/87 89/89/89
f 88/88/88 87/87/87 89/89/89
f 90/90/90 87/87/87 88/88/88
f 90/90/90 87/87/87 88/88/88
f 92/92/92 91/91/91 93/93/93
f 92/92/92 91/91/91 93/93/93
f 94/94/94 91/91/91 92/92/92
f 94/94/94 91/91/91 92/92/92
f 96/96/96 95/95/95 97/97/97
f 96/96/96 95/95/95 97/97/97
f 98/98/98 95/95/95 96/96/96
f 98/98/98 95/95/95 96/96/96
f 100/100/100 99/99/99 101/101/101
f 100/100/100 99/99/99 101/101/101
f 102/102/102 99/99/99 100/100/100
f 102/102/102 99/99/99 100/100/100
f 104/104/104 103/103/103 105/105/105
f 104/104/104 103/103/103 105/105/105
f 106/106/106 103/103/103 104/104/104
f 106/106/106 103/103/103 104/104/104
f 108/108/108 107/107/107 109/109/109
f 108/108/108 107/107/107 109/109/109
f 110/110/110 107/107/107 108/108/108
f 110/110/110 107/107/107 108/108/108
f 112/112/112 111/111/111 113/113/113
f 112/112/112 111/111/111 113/113/113
f 114/114/114 111/111/111 112/112/112
f 114/114/114 111/111/111 112/112/112
f 116/116/116 115/115/115 117/117/117
f 116/116/116 115/115/115 117/117/117
f 118/118/118 115/115/115 116/116/116
f 118/118/118 115/115/115 116/116/116
f 120/120/120 119/119/119 121/121/121
f 120/120/120 119/119/119 121/121/121
f 122/122/122 119/119/119 120/120/120
f 122/122/122 119/119/119 120/120/120
f 124/124/124 123/123/123 125/125/125
f 124/124/124 123/123/123 125/125/125
f 125/125/125 123/123/123 126/126/126
f 125/125/125 123/123/123 126/126/126
f 128/128/128 127/127/127 129/129/129
f 128/128/128 127/127/127 129/129/129
f 129/129/129 127/127/127 130/130/130
f 129/129/129 127/127/127 130/130/130
