mtllib ./starfish_13.mtl
g starfish
v -0.02631593 0.04214212 -0.02946663
v -0.04261302 3.646172E-09 -0.05536322
v 0.0001220028 1.368886E-08 -0.1583544
v -0.02631593 0.04214212 -0.02946663
v -0.1540491 5.612897E-10 -0.05143241
v -0.04261302 3.646172E-09 -0.05536322
v -0.04216286 0.04214211 0.01589263
v -0.07104077 -3.958614E-09 0.02600667
v -0.1557853 -1.191638E-10 -0.04646274
v -0.04216286 0.04214211 0.01589263
v -0.101738 -1.331613E-08 0.1332035
v -0.07104077 -3.958614E-09 0.02600667
v -0.003920565 0.04214211 0.04498077
v -0.00243803 -5.142984E-09 0.07818779
v -0.09754809 -1.354196E-08 0.1363904
v -0.003920565 0.04214211 0.04498077
v 0.09002611 -9.890846E-09 0.1405083
v -0.00243803 -5.142984E-09 0.07818779
v 0.06838854 2.653611E-10 0.02906757
v 0.09435184 -9.634554E-09 0.1375082
v 0.03556137 0.04214212 0.01759892
v 0.03556137 0.04214212 0.01759892
v 0.1562318 9.192433E-09 -0.03961306
v 0.06838854 2.653611E-10 0.02906757
v 0.0217203 0.04214212 -0.0284121
v 0.04355906 4.699433E-09 -0.05347149
v 0.1547154 1.060631E-08 -0.04465415
v 0.0217203 0.04214212 -0.0284121
v 0.005384964 1.296263E-08 -0.1582389
v 0.04355906 4.699433E-09 -0.05347149
v -0.02631593 -0.02735349 -0.02946664
v 0.0001220028 1.368886E-08 -0.1583544
v -0.04261302 3.646172E-09 -0.05536322
v -0.02631593 -0.02735349 -0.02946664
v -0.04261302 3.646172E-09 -0.05536322
v -0.1540491 5.612897E-10 -0.05143241
v -0.04216285 -0.02735351 0.01589263
v -0.1557853 -1.191638E-10 -0.04646274
v -0.07104077 -3.958614E-09 0.02600667
v -0.04216285 -0.02735351 0.01589263
v -0.07104077 -3.958614E-09 0.02600667
v -0.101738 -1.331613E-08 0.1332035
v -0.003920562 -0.0273535 0.04498076
v -0.09754809 -1.354196E-08 0.1363904
v -0.00243803 -5.142984E-09 0.07818779
v -0.003920562 -0.0273535 0.04498076
v -0.00243803 -5.142984E-09 0.07818779
v 0.09002611 -9.890846E-09 0.1405083
v 0.06838854 2.653611E-10 0.02906757
v 0.03556138 -0.0273535 0.01759891
v 0.09435184 -9.634554E-09 0.1375082
v 0.03556138 -0.0273535 0.01759891
v 0.06838854 2.653611E-10 0.02906757
v 0.1562318 9.192433E-09 -0.03961306
v 0.0217203 -0.0273535 -0.02841211
v 0.1547154 1.060631E-08 -0.04465415
v 0.04355906 4.699433E-09 -0.05347149
v 0.0217203 -0.0273535 -0.02841211
v 0.04355906 4.699433E-09 -0.05347149
v 0.005384964 1.296263E-08 -0.1582389
v -0.04216286 0.04214211 0.01589263
v -0.02631593 0.04214212 -0.02946663
v 0.0217203 0.04214212 -0.0284121
v 0.03556137 0.04214212 0.01759892
v -0.003920565 0.04214211 0.04498077
v -0.02631593 0.04214212 -0.02946663
v -0.04216286 0.04214211 0.01589263
v -0.1557853 -1.191638E-10 -0.04646274
v -0.1540491 5.612897E-10 -0.05143241
v 0.03556137 0.04214212 0.01759892
v 0.0217203 0.04214212 -0.0284121
v 0.1547154 1.060631E-08 -0.04465415
v 0.1562318 9.192433E-09 -0.03961306
v -0.04216286 0.04214211 0.01589263
v -0.003920565 0.04214211 0.04498077
v -0.09754809 -1.354196E-08 0.1363904
v -0.101738 -1.331613E-08 0.1332035
v 0.0217203 0.04214212 -0.0284121
v -0.02631593 0.04214212 -0.02946663
v 0.0001220028 1.368886E-08 -0.1583544
v 0.005384964 1.296263E-08 -0.1582389
v -0.003920565 0.04214211 0.04498077
v 0.03556137 0.04214212 0.01759892
v 0.09435184 -9.634554E-09 0.1375082
v 0.09002611 -9.890846E-09 0.1405083
v 0.0217203 -0.0273535 -0.02841211
v -0.02631593 -0.02735349 -0.02946664
v -0.04216285 -0.02735351 0.01589263
v 0.03556138 -0.0273535 0.01759891
v -0.003920562 -0.0273535 0.04498076
v -0.02631593 -0.02735349 -0.02946664
v -0.1540491 5.612897E-10 -0.05143241
v -0.1557853 -1.191638E-10 -0.04646274
v -0.04216285 -0.02735351 0.01589263
v 0.03556138 -0.0273535 0.01759891
v 0.1562318 9.192433E-09 -0.03961306
v 0.1547154 1.060631E-08 -0.04465415
v 0.0217203 -0.0273535 -0.02841211
v -0.04216285 -0.02735351 0.01589263
v -0.101738 -1.331613E-08 0.1332035
v -0.09754809 -1.354196E-08 0.1363904
v -0.003920562 -0.0273535 0.04498076
v 0.0217203 -0.0273535 -0.02841211
v 0.005384964 1.296263E-08 -0.1582389
v 0.0001220028 1.368886E-08 -0.1583544
v -0.02631593 -0.02735349 -0.02946664
v -0.003920562 -0.0273535 0.04498076
v 0.09002611 -9.890846E-09 0.1405083
v 0.09435184 -9.634554E-09 0.1375082
v 0.03556138 -0.0273535 0.01759891

vn -0.7945641 0.5098715 -0.3296952
vn -0.7945641 0.5098715 -0.3296952
vn -0.7945641 0.5098715 -0.3296952
vn -0.0298567 0.5316767 -0.8464209
vn -0.0298567 0.5316767 -0.8464209
vn -0.0298567 0.5316767 -0.8464209
vn -0.5504465 0.5316769 0.6436834
vn -0.5504465 0.5316769 0.6436834
vn -0.5504465 0.5316769 0.6436834
vn -0.8270097 0.5098714 -0.2368252
vn -0.8270097 0.5098714 -0.2368252
vn -0.8270097 0.5098714 -0.2368252
vn 0.4295281 0.5681917 0.7019001
vn 0.4295281 0.5681917 0.7019001
vn 0.4295281 0.5681917 0.7019001
vn -0.4720798 0.535307 0.7004192
vn -0.4720798 0.535307 0.7004192
vn -0.4720798 0.535307 0.7004192
vn 0.7988905 0.570253 -0.1912736
vn 0.7988905 0.570253 -0.1912736
vn 0.7988905 0.570253 -0.1912736
vn 0.5059754 0.5702528 0.6471481
vn 0.5059754 0.5702528 0.6471481
vn 0.5059754 0.5702528 0.6471481
vn 0.06679161 0.535307 -0.8420126
vn 0.06679161 0.535307 -0.8420126
vn 0.06679161 0.535307 -0.8420126
vn 0.7731699 0.5681919 -0.2817199
vn 0.7731699 0.5681919 -0.2817199
vn 0.7731699 0.5681919 -0.2817199
vn -0.6820624 -0.67431 -0.2830141
vn -0.6820624 -0.67431 -0.2830141
vn -0.6820624 -0.67431 -0.2830141
vn -0.0253397 -0.6952022 -0.7183675
vn -0.0253397 -0.6952022 -0.7183675
vn -0.0253397 -0.6952022 -0.7183675
vn -0.4671703 -0.6952025 0.5463013
vn -0.4671703 -0.6952025 0.5463013
vn -0.4671703 -0.6952025 0.5463013
vn -0.7099144 -0.6743095 -0.2032935
vn -0.7099144 -0.6743095 -0.2032935
vn -0.7099144 -0.6743095 -0.2032935
vn 0.3575114 -0.728613 0.5842162
vn 0.3575114 -0.728613 0.5842162
vn 0.3575114 -0.728613 0.5842162
vn -0.3998941 -0.6986116 0.5933182
vn -0.3998941 -0.6986116 0.5933182
vn -0.3998941 -0.6986116 0.5933182
vn 0.6642039 -0.7304408 -0.1590264
vn 0.6642039 -0.7304408 -0.1590264
vn 0.6642039 -0.7304408 -0.1590264
vn 0.4206721 -0.7304407 0.538044
vn 0.4206721 -0.7304407 0.538044
vn 0.4206721 -0.7304407 0.538044
vn 0.05657858 -0.6986115 -0.7132607
vn 0.05657858 -0.6986115 -0.7132607
vn 0.05657858 -0.6986115 -0.7132607
vn 0.6435368 -0.7286129 -0.2344856
vn 0.6435368 -0.7286129 -0.2344856
vn 0.6435368 -0.7286129 -0.2344856
vn -1.318946E-07 1 1.633828E-07
vn -1.318946E-07 1 1.633828E-07
vn -1.318946E-07 1 1.633828E-07
vn -1.318946E-07 1 1.633828E-07
vn -1.318946E-07 1 1.633828E-07
vn -0.2955771 0.9497214 -0.103264
vn -0.2955771 0.9497214 -0.103264
vn -0.2955771 0.9497214 -0.103264
vn -0.2955771 0.9497214 -0.103264
vn 0.2911701 0.9526531 -0.08758988
vn 0.2911701 0.9526531 -0.08758988
vn 0.2911701 0.9526531 -0.08758988
vn 0.2911701 0.9526531 -0.08758988
vn -0.1874228 0.9508718 0.2464053
vn -0.1874228 0.9508718 0.2464053
vn -0.1874228 0.9508718 0.2464053
vn -0.1874228 0.9508718 0.2464053
vn 0.006794783 0.9508718 -0.3095103
vn 0.006794783 0.9508718 -0.3095103
vn 0.006794783 0.9508718 -0.3095103
vn 0.006794783 0.9508718 -0.3095103
vn 0.1732797 0.9526531 0.2498525
vn 0.1732797 0.9526531 0.2498525
vn 0.1732797 0.9526531 0.2498525
vn 0.1732797 0.9526531 0.2498525
vn 0 -1 -1.611807E-07
vn 0 -1 -1.611807E-07
vn 0 -1 -1.611807E-07
vn 0 -1 -1.611807E-07
vn 0 -1 -1.611807E-07
vn -0.1975372 -0.9778631 -0.06901287
vn -0.1975372 -0.9778631 -0.06901287
vn -0.1975372 -0.9778631 -0.06901287
vn -0.1975372 -0.9778631 -0.06901287
vn 0.1942601 -0.9792079 -0.05843765
vn 0.1942601 -0.9792079 -0.05843765
vn 0.1942601 -0.9792079 -0.05843765
vn 0.1942601 -0.9792079 -0.05843765
vn -0.1251725 -0.9783917 0.1645649
vn -0.1251725 -0.9783917 0.1645649
vn -0.1251725 -0.9783917 0.1645649
vn -0.1251725 -0.9783917 0.1645649
vn 0.004537802 -0.9783916 -0.2067105
vn 0.004537802 -0.9783916 -0.2067105
vn 0.004537802 -0.9783916 -0.2067105
vn 0.004537802 -0.9783916 -0.2067105
vn 0.115607 -0.9792079 0.166694
vn 0.115607 -0.9792079 0.166694
vn 0.115607 -0.9792079 0.166694
vn 0.115607 -0.9792079 0.166694

vt 0.4402949 0.5756788
vt 0.4361896 0.5786023
vt 0.4436366 0.5850033
vt 0.4402949 0.5756788
vt 0.4216609 0.5769298
vt 0.4361896 0.5786023
vt 0.4382659 0.5724251
vt 0.4316015 0.5711983
vt 0.421505 0.5766672
vt 0.4382659 0.5724251
vt 0.430396 0.5639178
vt 0.4316015 0.5711983
vt 0.4437759 0.5704777
vt 0.4441055 0.566854
vt 0.4308409 0.5637856
vt 0.4437759 0.5704777
vt 0.4574984 0.5638722
vt 0.4441055 0.566854
vt 0.4562851 0.5713179
vt 0.4579102 0.5640345
vt 0.4492031 0.5724739
vt 0.4492031 0.5724739
vt 0.4664395 0.5767907
vt 0.4562851 0.5713179
vt 0.4471031 0.5756939
vt 0.4516358 0.5785913
vt 0.4662643 0.5770586
vt 0.4471031 0.5756939
vt 0.4441737 0.5849898
vt 0.4516358 0.5785913
vt 0.4395724 0.5504324
vt 0.443159 0.5414386
vt 0.4364808 0.5480968
vt 0.4395724 0.5504324
vt 0.4364808 0.5480968
vt 0.4216362 0.549028
vt 0.4374471 0.5536038
vt 0.4214449 0.5493221
vt 0.4321764 0.5545272
vt 0.4374471 0.5536038
vt 0.4321764 0.5545272
vt 0.4294276 0.5617972
vt 0.4427913 0.5555841
vt 0.4299267 0.5619684
vt 0.443003 0.5584962
vt 0.4427913 0.5555841
vt 0.443003 0.5584962
vt 0.4559256 0.5621337
vt 0.4539028 0.5546477
vt 0.4482096 0.553669
vt 0.4564165 0.5619533
vt 0.4482096 0.553669
vt 0.4539028 0.5546477
vt 0.4650228 0.5496179
vt 0.4462514 0.5504815
vt 0.4648401 0.5493172
vt 0.4500012 0.5482203
vt 0.4462514 0.5504815
vt 0.4500012 0.5482203
vt 0.4437718 0.5414515
vt 0.4382659 0.5724251
vt 0.4402949 0.5756788
vt 0.4471031 0.5756939
vt 0.4492031 0.5724739
vt 0.4437759 0.5704777
vt 0.4402949 0.5756788
vt 0.4382659 0.5724251
vt 0.421505 0.5766672
vt 0.4216609 0.5769298
vt 0.4492031 0.5724739
vt 0.4471031 0.5756939
vt 0.4662643 0.5770586
vt 0.4664395 0.5767907
vt 0.4382659 0.5724251
vt 0.4437759 0.5704777
vt 0.4308409 0.5637856
vt 0.430396 0.5639178
vt 0.4471031 0.5756939
vt 0.4402949 0.5756788
vt 0.4436366 0.5850033
vt 0.4441737 0.5849898
vt 0.4437759 0.5704777
vt 0.4492031 0.5724739
vt 0.4579102 0.5640345
vt 0.4574984 0.5638722
vt 0.4462514 0.5504815
vt 0.4395724 0.5504324
vt 0.4374471 0.5536038
vt 0.4482096 0.553669
vt 0.4427913 0.5555841
vt 0.4395724 0.5504324
vt 0.4216362 0.549028
vt 0.4214449 0.5493221
vt 0.4374471 0.5536038
vt 0.4482096 0.553669
vt 0.4650228 0.5496179
vt 0.4648401 0.5493172
vt 0.4462514 0.5504815
vt 0.4374471 0.5536038
vt 0.4294276 0.5617972
vt 0.4299267 0.5619684
vt 0.4427913 0.5555841
vt 0.4462514 0.5504815
vt 0.4437718 0.5414515
vt 0.443159 0.5414386
vt 0.4395724 0.5504324
vt 0.4427913 0.5555841
vt 0.4559256 0.5621337
vt 0.4564165 0.5619533
vt 0.4482096 0.553669

usemtl LOW-POLY-COLORS
usemap LOW-POLY-COLORS
f 2/2/2 1/1/1 3/3/3
f 5/5/5 4/4/4 6/6/6
f 8/8/8 7/7/7 9/9/9
f 11/11/11 10/10/10 12/12/12
f 14/14/14 13/13/13 15/15/15
f 17/17/17 16/16/16 18/18/18
f 20/20/20 19/19/19 21/21/21
f 23/23/23 22/22/22 24/24/24
f 26/26/26 25/25/25 27/27/27
f 29/29/29 28/28/28 30/30/30
f 32/32/32 31/31/31 33/33/33
f 35/35/35 34/34/34 36/36/36
f 38/38/38 37/37/37 39/39/39
f 41/41/41 40/40/40 42/42/42
f 44/44/44 43/43/43 45/45/45
f 47/47/47 46/46/46 48/48/48
f 50/50/50 49/49/49 51/51/51
f 53/53/53 52/52/52 54/54/54
f 56/56/56 55/55/55 57/57/57
f 59/59/59 58/58/58 60/60/60
f 62/62/62 61/61/61 63/63/63
f 64/64/64 63/63/63 61/61/61
f 65/65/65 64/64/64 61/61/61
f 67/67/67 66/66/66 68/68/68
f 68/68/68 66/66/66 69/69/69
f 71/71/71 70/70/70 72/72/72
f 72/72/72 70/70/70 73/73/73
f 75/75/75 74/74/74 76/76/76
f 76/76/76 74/74/74 77/77/77
f 79/79/79 78/78/78 80/80/80
f 80/80/80 78/78/78 81/81/81
f 83/83/83 82/82/82 84/84/84
f 84/84/84 82/82/82 85/85/85
f 87/87/87 86/86/86 88/88/88
f 89/89/89 88/88/88 86/86/86
f 90/90/90 88/88/88 89/89/89
f 92/92/92 91/91/91 93/93/93
f 93/93/93 91/91/91 94/94/94
f 96/96/96 95/95/95 97/97/97
f 97/97/97 95/95/95 98/98/98
f 100/100/100 99/99/99 101/101/101
f 101/101/101 99/99/99 102/102/102
f 104/104/104 103/103/103 105/105/105
f 105/105/105 103/103/103 106/106/106
f 108/108/108 107/107/107 109/109/109
f 109/109/109 107/107/107 110/110/110
