mtllib ./banana_5.mtl
g banana
v 0.1399934 0.1194242 -0.0003117232
v 0.130074 0.1130504 0.01185357
v 0.1295024 0.1129255 -0.01216622
v -0.1051799 0.0423184 -0.01884607
v -0.09902227 0.05125544 0.000493161
v -0.1313879 0.06031419 0.0001765587
v -0.1304075 0.05537158 -0.00750852
v -0.1057826 0.04165924 0.01933833
v -0.1187004 0.023126 0.01884423
v -0.1357938 0.04772575 0.007506445
v -0.1306476 0.05510898 0.007703279
v -0.1248581 0.01418897 -0.0004950089
v -0.1180978 0.02378517 -0.01934017
v -0.1355537 0.04798836 -0.007705355
v -0.1406719 0.04699448 -0.0001785368
v -0.1180978 0.02378517 -0.01934017
v -0.1051799 0.0423184 -0.01884607
v -0.1304075 0.05537158 -0.00750852
v -0.1355537 0.04798836 -0.007705355
v -0.09902227 0.05125544 0.000493161
v -0.1057826 0.04165924 0.01933833
v -0.1306476 0.05510898 0.007703279
v -0.1313879 0.06031419 0.0001765587
v -0.1187004 0.023126 0.01884423
v -0.1248581 0.01418897 -0.0004950089
v -0.1406719 0.04699448 -0.0001785368
v -0.1357938 0.04772575 0.007506445
v -0.09902227 0.05125544 0.000493161
v -0.1051799 0.0423184 -0.01884607
v -0.05448213 0.01974972 -0.02609568
v -0.04912806 0.03356114 0.0006832316
v -0.1187004 0.023126 0.01884423
v -0.1057826 0.04165924 0.01933833
v -0.05507753 0.01868901 0.02677801
v -0.06638102 -0.009994523 0.02609384
v -0.1180978 0.02378517 -0.01934017
v -0.1248581 0.01418897 -0.0004950089
v -0.07173505 -0.02380593 -0.0006850817
v -0.06578564 -0.008933814 -0.02677985
v -0.1051799 0.0423184 -0.01884607
v -0.1180978 0.02378517 -0.01934017
v -0.06578564 -0.008933814 -0.02677985
v -0.05448213 0.01974972 -0.02609568
v -0.1057826 0.04165924 0.01933833
v -0.09902227 0.05125544 0.000493161
v -0.04912806 0.03356114 0.0006832316
v -0.05507753 0.01868901 0.02677801
v -0.1248581 0.01418897 -0.0004950089
v -0.1187004 0.023126 0.01884423
v -0.06638102 -0.009994523 0.02609384
v -0.07173505 -0.02380593 -0.0006850817
v -0.07173505 -0.02380593 -0.0006850817
v -0.06638102 -0.009994523 0.02609384
v 0.01839873 -0.02136104 0.02828267
v 0.0213693 -0.03702393 -0.000742469
v -0.04912806 0.03356114 0.0006832316
v -0.05448213 0.01974972 -0.02609568
v 0.01234837 0.01255316 -0.0282845
v 0.009377816 0.02821607 0.0007406183
v -0.06638102 -0.009994523 0.02609384
v -0.05507753 0.01868901 0.02677801
v 0.01240298 0.01125896 0.02902422
v 0.01839873 -0.02136104 0.02828267
v -0.06578564 -0.008933814 -0.02677985
v -0.07173505 -0.02380593 -0.0006850817
v 0.0213693 -0.03702393 -0.000742469
v 0.0183441 -0.02006685 -0.02902606
v -0.05448213 0.01974972 -0.02609568
v -0.06578564 -0.008933814 -0.02677985
v 0.0183441 -0.02006685 -0.02902606
v 0.01234837 0.01255316 -0.0282845
v -0.05507753 0.01868901 0.02677801
v -0.04912806 0.03356114 0.0006832316
v 0.009377816 0.02821607 0.0007406183
v 0.01240298 0.01125896 0.02902422
v 0.0183441 -0.02006685 -0.02902606
v 0.0213693 -0.03702393 -0.000742469
v 0.1079891 0.004607548 -0.0006368845
v 0.09746468 0.01568124 -0.02489338
v 0.01234837 0.01255316 -0.0282845
v 0.0183441 -0.02006685 -0.02902606
v 0.09746468 0.01568124 -0.02489338
v 0.07709073 0.03690961 -0.0242574
v 0.01240298 0.01125896 0.02902422
v 0.009377816 0.02821607 0.0007406183
v 0.06724124 0.04706425 0.0006350349
v 0.07776567 0.03599054 0.02489154
v 0.0213693 -0.03702393 -0.000742469
v 0.01839873 -0.02136104 0.02828267
v 0.09813964 0.01476218 0.02425557
v 0.1079891 0.004607548 -0.0006368845
v 0.009377816 0.02821607 0.0007406183
v 0.01234837 0.01255316 -0.0282845
v 0.07709073 0.03690961 -0.0242574
v 0.06724124 0.04706425 0.0006350349
v 0.01839873 -0.02136104 0.02828267
v 0.01240298 0.01125896 0.02902422
v 0.07776567 0.03599054 0.02489154
v 0.09813964 0.01476218 0.02425557
v 0.06724124 0.04706425 0.0006350349
v 0.07709073 0.03690961 -0.0242574
v 0.1055534 0.07243352 -0.007265238
v 0.10122 0.07323372 0.0001895339
v 0.09813964 0.01476218 0.02425557
v 0.07776567 0.03599054 0.02489154
v 0.1058937 0.07232518 0.007453857
v 0.1149009 0.07061645 0.007263397
v 0.09746468 0.01568124 -0.02489338
v 0.1079891 0.004607548 -0.0006368845
v 0.1192342 0.06981626 -0.0001913785
v 0.1145606 0.07072479 -0.0074557
v 0.07709073 0.03690961 -0.0242574
v 0.09746468 0.01568124 -0.02489338
v 0.1145606 0.07072479 -0.0074557
v 0.1055534 0.07243352 -0.007265238
v 0.07776567 0.03599054 0.02489154
v 0.06724124 0.04706425 0.0006350349
v 0.10122 0.07323372 0.0001895339
v 0.1058937 0.07232518 0.007453857
v 0.1079891 0.004607548 -0.0006368845
v 0.09813964 0.01476218 0.02425557
v 0.1149009 0.07061645 0.007263397
v 0.1192342 0.06981626 -0.0001913785
v 0.1123969 0.09782234 -0.006795257
v 0.12055 0.09622131 -0.006973396
v 0.1295024 0.1129255 -0.01216622
v 0.1154663 0.1080233 -0.01185541
v 0.1127047 0.09772217 0.006971553
v 0.1084742 0.09857276 0.000177212
v 0.108734 0.1056345 0.0003098772
v 0.1160379 0.1081481 0.01216438
v 0.1267429 0.09638932 -0.0001790563
v 0.1208577 0.09612113 0.006793416
v 0.130074 0.1130504 0.01185357
v 0.1399934 0.1194242 -0.0003117232
v 0.1084742 0.09857276 0.000177212
v 0.1123969 0.09782234 -0.006795257
v 0.1154663 0.1080233 -0.01185541
v 0.108734 0.1056345 0.0003098772
v 0.1208577 0.09612113 0.006793416
v 0.1127047 0.09772217 0.006971553
v 0.1160379 0.1081481 0.01216438
v 0.130074 0.1130504 0.01185357
v 0.12055 0.09622131 -0.006973396
v 0.1267429 0.09638932 -0.0001790563
v 0.1399934 0.1194242 -0.0003117232
v 0.1295024 0.1129255 -0.01216622
v 0.1154663 0.1080233 -0.01185541
v 0.1160379 0.1081481 0.01216438
v 0.108734 0.1056345 0.0003098772
v 0.1295024 0.1129255 -0.01216622
v 0.130074 0.1130504 0.01185357
v -0.1406719 0.04699448 -0.0001785368
v -0.1313879 0.06031419 0.0001765587
v -0.1306476 0.05510898 0.007703279
v -0.1357938 0.04772575 0.007506445
v -0.1355537 0.04798836 -0.007705355
v -0.1304075 0.05537158 -0.00750852
v -0.1313879 0.06031419 0.0001765587
v -0.1406719 0.04699448 -0.0001785368
v 0.1145606 0.07072479 -0.0074557
v 0.1192342 0.06981626 -0.0001913785
v 0.1267429 0.09638932 -0.0001790563
v 0.12055 0.09622131 -0.006973396
v 0.1149009 0.07061645 0.007263397
v 0.1058937 0.07232518 0.007453857
v 0.1127047 0.09772217 0.006971553
v 0.1208577 0.09612113 0.006793416
v 0.10122 0.07323372 0.0001895339
v 0.1055534 0.07243352 -0.007265238
v 0.1123969 0.09782234 -0.006795257
v 0.1084742 0.09857276 0.000177212
v 0.1192342 0.06981626 -0.0001913785
v 0.1149009 0.07061645 0.007263397
v 0.1208577 0.09612113 0.006793416
v 0.1267429 0.09638932 -0.0001790563
v 0.1058937 0.07232518 0.007453857
v 0.10122 0.07323372 0.0001895339
v 0.1084742 0.09857276 0.000177212
v 0.1127047 0.09772217 0.006971553
v 0.1055534 0.07243352 -0.007265238
v 0.1145606 0.07072479 -0.0074557
v 0.12055 0.09622131 -0.006973396
v 0.1123969 0.09782234 -0.006795257

vn -0.5333483 0.8458551 0.008296471
vn -0.5333483 0.8458551 0.008296471
vn -0.5333483 0.8458551 0.008296471
vn 0.2331547 0.8461455 -0.4792461
vn 0.2331547 0.8461455 -0.4792461
vn 0.2331547 0.8461455 -0.4792461
vn 0.2331547 0.8461455 -0.4792461
vn -0.3238377 0.2010715 0.9244995
vn -0.3238377 0.2010715 0.9244995
vn -0.3238377 0.2010715 0.9244995
vn -0.3238377 0.2010715 0.9244995
vn -0.7899567 -0.3564152 -0.4989353
vn -0.7899567 -0.3564152 -0.4989353
vn -0.7899567 -0.3564152 -0.4989353
vn -0.7899567 -0.3564152 -0.4989353
vn -0.296629 0.2314553 -0.9265203
vn -0.296629 0.2314553 -0.9265203
vn -0.296629 0.2314553 -0.9265203
vn -0.296629 0.2314553 -0.9265203
vn 0.2184225 0.8288566 0.5150613
vn 0.2184225 0.8288566 0.5150613
vn 0.2184225 0.8288566 0.5150613
vn 0.2184225 0.8288566 0.5150613
vn -0.8048029 -0.3726533 0.461976
vn -0.8048029 -0.3726533 0.461976
vn -0.8048029 -0.3726533 0.461976
vn -0.8048029 -0.3726533 0.461976
vn 0.2964885 0.8250733 -0.4809871
vn 0.2964885 0.8250733 -0.4809871
vn 0.2964885 0.8250733 -0.4809871
vn 0.2964885 0.8250733 -0.4809871
vn -0.121089 0.03736347 0.9919382
vn -0.121089 0.03736347 0.9919382
vn -0.121089 0.03736347 0.9919382
vn -0.121089 0.03736347 0.9919382
vn -0.5017704 -0.6921718 -0.5187724
vn -0.5017704 -0.6921718 -0.5187724
vn -0.5017704 -0.6921718 -0.5187724
vn -0.5017704 -0.6921718 -0.5187724
vn -0.1005028 0.0763112 -0.9920059
vn -0.1005028 0.0763112 -0.9920059
vn -0.1005028 0.0763112 -0.9920059
vn -0.1005028 0.0763112 -0.9920059
vn 0.28611 0.8052455 0.5193465
vn 0.28611 0.8052455 0.5193465
vn 0.28611 0.8052455 0.5193465
vn 0.28611 0.8052455 0.5193465
vn -0.5125662 -0.7123954 0.4793419
vn -0.5125662 -0.7123954 0.4793419
vn -0.5125662 -0.7123954 0.4793419
vn -0.5125662 -0.7123954 0.4793419
vn -0.1265165 -0.8748928 0.4674999
vn -0.1265165 -0.8748928 0.4674999
vn -0.1265165 -0.8748928 0.4674999
vn -0.1265165 -0.8748928 0.4674999
vn 0.08009211 0.8799821 -0.4682059
vn 0.08009211 0.8799821 -0.4682059
vn 0.08009211 0.8799821 -0.4682059
vn 0.08009211 0.8799821 -0.4682059
vn -0.0316381 -0.02050083 0.9992892
vn -0.0316381 -0.02050083 0.9992892
vn -0.0316381 -0.02050083 0.9992892
vn -0.0316381 -0.02050083 0.9992892
vn -0.1238415 -0.8534673 -0.5062183
vn -0.1238415 -0.8534673 -0.5062183
vn -0.1238415 -0.8534673 -0.5062183
vn -0.1238415 -0.8534673 -0.5062183
vn -0.02626106 0.02551503 -0.9993294
vn -0.02626106 0.02551503 -0.9993294
vn -0.02626106 0.02551503 -0.9993294
vn -0.02626106 0.02551503 -0.9993294
vn 0.07779555 0.8585833 0.5067372
vn 0.07779555 0.8585833 0.5067372
vn 0.07779555 0.8585833 0.5067372
vn 0.07779555 0.8585833 0.5067372
vn 0.3746081 -0.7744564 -0.5097901
vn 0.3746081 -0.7744564 -0.5097901
vn 0.3746081 -0.7744564 -0.5097901
vn 0.3746081 -0.7744564 -0.5097901
vn 0.03814792 0.04421932 -0.9982932
vn 0.03814792 0.04421932 -0.9982932
vn 0.03814792 0.04421932 -0.9982932
vn 0.03814792 0.04421932 -0.9982932
vn -0.2719233 0.8181612 0.5066261
vn -0.2719233 0.8181612 0.5066261
vn -0.2719233 0.8181612 0.5066261
vn -0.2719233 0.8181612 0.5066261
vn 0.3825096 -0.7946247 0.4714424
vn 0.3825096 -0.7946247 0.4714424
vn 0.3825096 -0.7946247 0.4714424
vn 0.3825096 -0.7946247 0.4714424
vn -0.2803648 0.8380929 -0.4679699
vn -0.2803648 0.8380929 -0.4679699
vn -0.2803648 0.8380929 -0.4679699
vn -0.2803648 0.8380929 -0.4679699
vn 0.05546781 0.001620634 0.9984591
vn 0.05546781 0.001620634 0.9984591
vn 0.05546781 0.001620634 0.9984591
vn 0.05546781 0.001620634 0.9984591
vn -0.5519562 0.6858565 -0.474284
vn -0.5519562 0.6858565 -0.474284
vn -0.5519562 0.6858565 -0.474284
vn -0.5519562 0.6858565 -0.474284
vn 0.2187177 0.2461437 0.9442329
vn 0.2187177 0.2461437 0.9442329
vn 0.2187177 0.2461437 0.9442329
vn 0.2187177 0.2461437 0.9442329
vn 0.8713983 -0.135242 -0.471566
vn 0.8713983 -0.135242 -0.471566
vn 0.8713983 -0.135242 -0.471566
vn 0.8713983 -0.135242 -0.471566
vn 0.1824867 0.2678404 -0.9460233
vn 0.1824867 0.2678404 -0.9460233
vn 0.1824867 0.2678404 -0.9460233
vn 0.1824867 0.2678404 -0.9460233
vn -0.5312696 0.6745484 0.5125788
vn -0.5312696 0.6745484 0.5125788
vn -0.5312696 0.6745484 0.5125788
vn -0.5312696 0.6745484 0.5125788
vn 0.8870718 -0.1453254 0.4381599
vn 0.8870718 -0.1453254 0.4381599
vn 0.8870718 -0.1453254 0.4381599
vn 0.8870718 -0.1453254 0.4381599
vn 0.03448038 -0.3693024 -0.9286695
vn 0.03448038 -0.3693024 -0.9286695
vn 0.03448038 -0.3693024 -0.9286695
vn 0.03448038 -0.3693024 -0.9286695
vn -0.8509749 0.01496215 0.5249931
vn -0.8509749 0.01496215 0.5249931
vn -0.8509749 0.01496215 0.5249931
vn -0.8509749 0.01496215 0.5249931
vn 0.751377 -0.4784383 0.454455
vn 0.751377 -0.4784383 0.454455
vn 0.751377 -0.4784383 0.454455
vn 0.751377 -0.4784383 0.454455
vn -0.8744135 0.03041008 -0.4842276
vn -0.8744135 0.03041008 -0.4842276
vn -0.8744135 0.03041008 -0.4842276
vn -0.8744135 0.03041008 -0.4842276
vn 0.07694244 -0.3806847 0.9214982
vn 0.07694244 -0.3806847 0.9214982
vn 0.07694244 -0.3806847 0.9214982
vn 0.07694244 -0.3806847 0.9214982
vn 0.7334136 -0.4749463 -0.4863441
vn 0.7334136 -0.4749463 -0.4863441
vn 0.7334136 -0.4749463 -0.4863441
vn 0.7334136 -0.4749463 -0.4863441
vn -0.3296671 0.9440927 0.00293922
vn -0.3296671 0.9440927 0.00293922
vn -0.3296671 0.9440927 0.00293922
vn -0.3296677 0.9440925 0.002938899
vn -0.3296677 0.9440925 0.002938899
vn -0.7475108 0.5096655 0.4259914
vn -0.7475108 0.5096655 0.4259914
vn -0.7475108 0.5096655 0.4259914
vn -0.7475108 0.5096655 0.4259914
vn -0.734993 0.5237784 -0.430629
vn -0.734993 0.5237784 -0.430629
vn -0.734993 0.5237784 -0.430629
vn -0.734993 0.5237784 -0.430629
vn 0.7711722 -0.1941528 -0.6062987
vn 0.7711722 -0.1941528 -0.6062987
vn 0.7711722 -0.1941528 -0.6062987
vn 0.7711722 -0.1941528 -0.6062987
vn 0.02392164 0.01270114 0.9996332
vn 0.02392164 0.01270114 0.9996332
vn 0.02392164 0.01270114 0.9996332
vn 0.02392164 0.01270114 0.9996332
vn -0.8323104 0.2358315 -0.5016403
vn -0.8323104 0.2358315 -0.5016403
vn -0.8323104 0.2358315 -0.5016403
vn -0.8323104 0.2358315 -0.5016403
vn 0.795921 -0.2007785 0.5711374
vn 0.795921 -0.2007785 0.5711374
vn 0.795921 -0.2007785 0.5711374
vn 0.795921 -0.2007785 0.5711374
vn -0.8090124 0.229551 0.5411149
vn -0.8090124 0.229551 0.5411149
vn -0.8090124 0.229551 0.5411149
vn -0.8090124 0.229551 0.5411149
vn -0.0170345 0.02300265 -0.9995903
vn -0.0170345 0.02300265 -0.9995903
vn -0.0170345 0.02300265 -0.9995903
vn -0.0170345 0.02300265 -0.9995903

vt 0.07478309 0.8112135
vt 0.07277828 0.8091195
vt 0.07277828 0.8133374
vt 0.6594927 0.5639717
vt 0.6598318 0.5607646
vt 0.6547782 0.5607668
vt 0.6551632 0.5622689
vt 0.6594912 0.5575658
vt 0.6583394 0.5546083
vt 0.6545603 0.5578879
vt 0.6551641 0.559266
vt 0.6559813 0.5697029
vt 0.6583287 0.5669381
vt 0.6545595 0.5636457
vt 0.6531097 0.5641893
vt 0.6583287 0.5669381
vt 0.6594927 0.5639717
vt 0.6551632 0.5622689
vt 0.6545595 0.5636457
vt 0.6598318 0.5607646
vt 0.6594912 0.5575658
vt 0.6551641 0.559266
vt 0.6547782 0.5607668
vt 0.6583394 0.5546083
vt 0.6560051 0.5518275
vt 0.6531097 0.5573413
vt 0.6545603 0.5578879
vt 0.6598318 0.5607646
vt 0.6594927 0.5639717
vt 0.6674009 0.5660459
vt 0.6679772 0.5607709
vt 0.6583394 0.5546083
vt 0.6594912 0.5575658
vt 0.6673932 0.5554976
vt 0.6661072 0.5507435
vt 0.6583287 0.5669381
vt 0.6559813 0.5697029
vt 0.664336 0.5755296
vt 0.6660932 0.5708427
vt 0.6594927 0.5639717
vt 0.6583287 0.5669381
vt 0.6660932 0.5708427
vt 0.6674009 0.5660459
vt 0.6594912 0.5575658
vt 0.6598318 0.5607646
vt 0.6679772 0.5607709
vt 0.6673932 0.5554976
vt 0.6560051 0.5518275
vt 0.6583394 0.5546083
vt 0.6661072 0.5507435
vt 0.6643976 0.5460217
vt 0.6643976 0.5460217
vt 0.6661072 0.5507435
vt 0.6785074 0.5487234
vt 0.6786941 0.5430216
vt 0.6679772 0.5607709
vt 0.6674009 0.5660459
vt 0.678422 0.5670322
vt 0.6784953 0.5608376
vt 0.6661072 0.5507435
vt 0.6673932 0.5554976
vt 0.6784955 0.5544088
vt 0.6785074 0.5487234
vt 0.6660932 0.5708427
vt 0.664336 0.5755296
vt 0.6785408 0.5785445
vt 0.6785023 0.5730578
vt 0.6674009 0.5660459
vt 0.6660932 0.5708427
vt 0.6785023 0.5730578
vt 0.678422 0.5670322
vt 0.6673932 0.5554976
vt 0.6679772 0.5607709
vt 0.6784953 0.5608376
vt 0.6784955 0.5544088
vt 0.6785023 0.5730578
vt 0.6785408 0.5785445
vt 0.6936437 0.575298
vt 0.6915124 0.5705874
vt 0.678422 0.5670322
vt 0.6785023 0.5730578
vt 0.6915124 0.5705874
vt 0.6903819 0.566028
vt 0.6784955 0.5544088
vt 0.6784953 0.5608376
vt 0.6900592 0.5606411
vt 0.6904047 0.5555579
vt 0.6786941 0.5430216
vt 0.6785074 0.5487234
vt 0.6915309 0.5507387
vt 0.6936873 0.5462753
vt 0.6784953 0.5608376
vt 0.678422 0.5670322
vt 0.6903819 0.566028
vt 0.6900592 0.5606411
vt 0.6785074 0.5487234
vt 0.6784955 0.5544088
vt 0.6904047 0.5555579
vt 0.6915309 0.5507387
vt 0.6900592 0.5606411
vt 0.6903819 0.566028
vt 0.7008155 0.5628755
vt 0.7004086 0.5607404
vt 0.6915309 0.5507387
vt 0.6904047 0.5555579
vt 0.7008375 0.5586181
vt 0.7016162 0.5569055
vt 0.6915124 0.5705874
vt 0.6936437 0.575298
vt 0.7023891 0.5660744
vt 0.7015993 0.5645973
vt 0.6903819 0.566028
vt 0.6915124 0.5705874
vt 0.7015993 0.5645973
vt 0.7008155 0.5628755
vt 0.6904047 0.5555579
vt 0.6900592 0.5606411
vt 0.7004086 0.5607404
vt 0.7008375 0.5586181
vt 0.6936873 0.5462753
vt 0.6915309 0.5507387
vt 0.7016162 0.5569055
vt 0.7024161 0.5554302
vt 0.7068096 0.5623515
vt 0.7068647 0.5638842
vt 0.710222 0.5643399
vt 0.7089121 0.5626125
vt 0.7068135 0.5591726
vt 0.7067591 0.5607628
vt 0.7079669 0.560751
vt 0.7089744 0.5589269
vt 0.7070919 0.5560687
vt 0.7068749 0.557641
vt 0.7102787 0.5571966
vt 0.7110861 0.5546346
vt 0.7067591 0.5607628
vt 0.7068096 0.5623515
vt 0.7089121 0.5626125
vt 0.7079669 0.560751
vt 0.7068749 0.557641
vt 0.7068135 0.5591726
vt 0.7089744 0.5589269
vt 0.7102787 0.5571966
vt 0.7068647 0.5638842
vt 0.707068 0.5654657
vt 0.7110577 0.5669146
vt 0.710222 0.5643399
vt 0.07034302 0.8133374
vt 0.07034302 0.8091195
vt 0.06912541 0.8112285
vt 0.07277828 0.8133374
vt 0.07277828 0.8091195
vt 0.07767165 0.8105841
vt 0.0748893 0.8105841
vt 0.07556272 0.8120477
vt 0.07710499 0.8120477
vt 0.07710499 0.8091195
vt 0.07556272 0.8091195
vt 0.0748893 0.8105841
vt 0.07767165 0.8105841
vt 0.7015993 0.5645973
vt 0.7023891 0.5660744
vt 0.707068 0.5654657
vt 0.7068647 0.5638842
vt 0.7016162 0.5569055
vt 0.7008375 0.5586181
vt 0.7068135 0.5591726
vt 0.7068749 0.557641
vt 0.7004086 0.5607404
vt 0.7008155 0.5628755
vt 0.7068096 0.5623515
vt 0.7067591 0.5607628
vt 0.7024161 0.5554302
vt 0.7016162 0.5569055
vt 0.7068749 0.557641
vt 0.7070919 0.5560687
vt 0.7008375 0.5586181
vt 0.7004086 0.5607404
vt 0.7067591 0.5607628
vt 0.7068135 0.5591726
vt 0.7008155 0.5628755
vt 0.7015993 0.5645973
vt 0.7068647 0.5638842
vt 0.7068096 0.5623515

usemtl LOW-POLY-COLORS
usemap LOW-POLY-COLORS
f 2/2/2 1/1/1 3/3/3
f 5/5/5 4/4/4 6/6/6
f 6/6/6 4/4/4 7/7/7
f 9/9/9 8/8/8 10/10/10
f 10/10/10 8/8/8 11/11/11
f 13/13/13 12/12/12 14/14/14
f 14/14/14 12/12/12 15/15/15
f 17/17/17 16/16/16 18/18/18
f 18/18/18 16/16/16 19/19/19
f 21/21/21 20/20/20 22/22/22
f 22/22/22 20/20/20 23/23/23
f 25/25/25 24/24/24 26/26/26
f 26/26/26 24/24/24 27/27/27
f 29/29/29 28/28/28 30/30/30
f 30/30/30 28/28/28 31/31/31
f 33/33/33 32/32/32 34/34/34
f 34/34/34 32/32/32 35/35/35
f 37/37/37 36/36/36 38/38/38
f 38/38/38 36/36/36 39/39/39
f 41/41/41 40/40/40 42/42/42
f 42/42/42 40/40/40 43/43/43
f 45/45/45 44/44/44 46/46/46
f 46/46/46 44/44/44 47/47/47
f 49/49/49 48/48/48 50/50/50
f 50/50/50 48/48/48 51/51/51
f 53/53/53 52/52/52 54/54/54
f 54/54/54 52/52/52 55/55/55
f 57/57/57 56/56/56 58/58/58
f 58/58/58 56/56/56 59/59/59
f 61/61/61 60/60/60 62/62/62
f 62/62/62 60/60/60 63/63/63
f 65/65/65 64/64/64 66/66/66
f 66/66/66 64/64/64 67/67/67
f 69/69/69 68/68/68 70/70/70
f 70/70/70 68/68/68 71/71/71
f 73/73/73 72/72/72 74/74/74
f 74/74/74 72/72/72 75/75/75
f 77/77/77 76/76/76 78/78/78
f 78/78/78 76/76/76 79/79/79
f 81/81/81 80/80/80 82/82/82
f 82/82/82 80/80/80 83/83/83
f 85/85/85 84/84/84 86/86/86
f 86/86/86 84/84/84 87/87/87
f 89/89/89 88/88/88 90/90/90
f 90/90/90 88/88/88 91/91/91
f 93/93/93 92/92/92 94/94/94
f 94/94/94 92/92/92 95/95/95
f 97/97/97 96/96/96 98/98/98
f 98/98/98 96/96/96 99/99/99
f 101/101/101 100/100/100 102/102/102
f 102/102/102 100/100/100 103/103/103
f 105/105/105 104/104/104 106/106/106
f 106/106/106 104/104/104 107/107/107
f 109/109/109 108/108/108 110/110/110
f 110/110/110 108/108/108 111/111/111
f 113/113/113 112/112/112 114/114/114
f 114/114/114 112/112/112 115/115/115
f 117/117/117 116/116/116 118/118/118
f 118/118/118 116/116/116 119/119/119
f 121/121/121 120/120/120 122/122/122
f 122/122/122 120/120/120 123/123/123
f 125/125/125 124/124/124 126/126/126
f 126/126/126 124/124/124 127/127/127
f 129/129/129 128/128/128 130/130/130
f 130/130/130 128/128/128 131/131/131
f 133/133/133 132/132/132 134/134/134
f 134/134/134 132/132/132 135/135/135
f 137/137/137 136/136/136 138/138/138
f 138/138/138 136/136/136 139/139/139
f 141/141/141 140/140/140 142/142/142
f 142/142/142 140/140/140 143/143/143
f 145/145/145 144/144/144 146/146/146
f 146/146/146 144/144/144 147/147/147
f 149/149/149 148/148/148 150/150/150
f 149/149/149 151/151/151 148/148/148
f 152/152/152 151/151/151 149/149/149
f 154/154/154 153/153/153 155/155/155
f 155/155/155 153/153/153 156/156/156
f 158/158/158 157/157/157 159/159/159
f 159/159/159 157/157/157 160/160/160
f 162/162/162 161/161/161 163/163/163
f 163/163/163 161/161/161 164/164/164
f 166/166/166 165/165/165 167/167/167
f 167/167/167 165/165/165 168/168/168
f 170/170/170 169/169/169 171/171/171
f 171/171/171 169/169/169 172/172/172
f 174/174/174 173/173/173 175/175/175
f 175/175/175 173/173/173 176/176/176
f 178/178/178 177/177/177 179/179/179
f 179/179/179 177/177/177 180/180/180
f 182/182/182 181/181/181 183/183/183
f 183/183/183 181/181/181 184/184/184
