mtllib ./can-beans_22.mtl
g can-beans
v -0.06 0.1683412 2.622683E-09
v -0.0424264 0.1683412 -0.0424264
v -0.04377398 0.1786531 -0.04377398
v -0.06190574 0.1786531 2.705986E-09
v 0.04242641 0.1683412 -0.0424264
v 0.06 0.1683412 -7.154928E-10
v 0.06190574 0.1786531 -7.382187E-10
v 0.04377398 0.1786531 -0.04377396
v 0.04242641 0.1683412 0.0424264
v 5.245367E-09 0.1683412 0.06
v 5.411973E-09 0.1786531 0.06190574
v 0.04377398 0.1786531 0.04377396
v -0.0424264 0.1683412 0.0424264
v -0.06 0.1683412 2.622683E-09
v -0.06190574 0.1786531 2.705986E-09
v -0.04377398 0.1786531 0.04377398
v -0.0424264 0.1683412 -0.0424264
v 0 0.1683412 -0.06
v 0 0.1786531 -0.06190574
v -0.04377398 0.1786531 -0.04377398
v 0 0.1683412 -0.06
v 0.04242641 0.1683412 -0.0424264
v 0.04377398 0.1786531 -0.04377396
v 0 0.1786531 -0.06190574
v 0.06 0.1683412 -7.154928E-10
v 0.04242641 0.1683412 0.0424264
v 0.04377398 0.1786531 0.04377396
v 0.06190574 0.1786531 -7.382187E-10
v 5.245367E-09 0.1683412 0.06
v -0.0424264 0.1683412 0.0424264
v -0.04377398 0.1786531 0.04377398
v 5.411973E-09 0.1786531 0.06190574
v -0.03106544 0.1762277 -0.03106544
v -7.774213E-10 0.1762277 -0.04393316
v 0.03106544 0.1762277 -0.03106543
v -0.04393316 0.1762277 2.104403E-09
v 0.04393316 0.1762277 -7.154928E-10
v 0.03106544 0.1762277 0.03106543
v -0.03106544 0.1762277 0.03106544
v 3.690524E-09 0.1762277 0.04393316
v 5.245367E-09 0.01124647 0.06
v -0.0424264 0.01124647 0.0424264
v -0.0424264 0.07381163 0.0424264
v 5.245367E-09 0.05279979 0.06
v 5.245367E-09 0.05279979 0.06
v -0.0424264 0.07381163 0.0424264
v -0.0424264 0.1193998 0.0424264
v 5.245367E-09 0.1404117 0.06
v 0.06 0.01124647 -7.154928E-10
v 0.04242641 0.01124647 0.0424264
v 0.04242641 0.05279979 0.0424264
v 0.06 0.07381164 -7.154928E-10
v 0.06 0.07381164 -7.154928E-10
v 0.04242641 0.05279979 0.0424264
v 0.04242641 0.1404117 0.0424264
v 0.06 0.1193998 -7.154928E-10
v 0 0.01124647 -0.06
v 0.04242641 0.01124647 -0.0424264
v 0.04242641 0.05279979 -0.0424264
v 0 0.05279979 -0.06
v 0.04242641 0.1404117 -0.0424264
v 0 0.1404117 -0.06
v 0.04242641 0.1683412 -0.0424264
v 0 0.1683412 -0.06
v -0.0424264 0.01124647 -0.0424264
v 0 0.01124647 -0.06
v 0 0.05279979 -0.06
v -0.0424264 0.05279979 -0.0424264
v 0 0.1404117 -0.06
v -0.0424264 0.1404117 -0.0424264
v 0 0.1683412 -0.06
v -0.0424264 0.1683412 -0.0424264
v -0.0424264 0.01124647 0.0424264
v -0.06 0.01124647 2.622683E-09
v -0.06 0.05279979 2.622683E-09
v -0.0424264 0.07381163 0.0424264
v -0.06 0.1404117 2.622683E-09
v -0.0424264 0.1193998 0.0424264
v -0.06 0.1683412 2.622683E-09
v -0.0424264 0.1683412 0.0424264
v 0.04242641 0.01124647 0.0424264
v 5.245367E-09 0.01124647 0.06
v 5.245367E-09 0.05279979 0.06
v 0.04242641 0.05279979 0.0424264
v 0.04242641 0.05279979 0.0424264
v 5.245367E-09 0.05279979 0.06
v 5.245367E-09 0.1404117 0.06
v 0.04242641 0.1404117 0.0424264
v 0.04242641 0.01124647 -0.0424264
v 0.06 0.01124647 -7.154928E-10
v 0.06 0.07381164 -7.154928E-10
v 0.04242641 0.05279979 -0.0424264
v 0.06 0.1193998 -7.154928E-10
v 0.04242641 0.1404117 -0.0424264
v 0.06 0.1683412 -7.154928E-10
v 0.04242641 0.1683412 -0.0424264
v -0.06 0.01124647 2.622683E-09
v -0.0424264 0.01124647 -0.0424264
v -0.0424264 0.05279979 -0.0424264
v -0.06 0.05279979 2.622683E-09
v -0.0424264 0.1404117 -0.0424264
v -0.06 0.1404117 2.622683E-09
v -0.0424264 0.1683412 -0.0424264
v -0.06 0.1683412 2.622683E-09
v -0.03106544 0.1762277 -0.03106544
v -0.04377398 0.1786531 -0.04377398
v 0 0.1786531 -0.06190574
v -7.774213E-10 0.1762277 -0.04393316
v -0.04393316 0.1762277 2.104403E-09
v -0.06190574 0.1786531 2.705986E-09
v -0.04377398 0.1786531 -0.04377398
v -0.03106544 0.1762277 -0.03106544
v -0.03106544 0.1762277 0.03106544
v -0.04377398 0.1786531 0.04377398
v -0.06190574 0.1786531 2.705986E-09
v -0.04393316 0.1762277 2.104403E-09
v 3.690524E-09 0.1762277 0.04393316
v 5.411973E-09 0.1786531 0.06190574
v -0.04377398 0.1786531 0.04377398
v -0.03106544 0.1762277 0.03106544
v 0.03106544 0.1762277 0.03106543
v 0.04377398 0.1786531 0.04377396
v 5.411973E-09 0.1786531 0.06190574
v 3.690524E-09 0.1762277 0.04393316
v 0.04393316 0.1762277 -7.154928E-10
v 0.06190574 0.1786531 -7.382187E-10
v 0.04377398 0.1786531 0.04377396
v 0.03106544 0.1762277 0.03106543
v 0.03106544 0.1762277 -0.03106543
v 0.04377398 0.1786531 -0.04377396
v 0.06190574 0.1786531 -7.382187E-10
v 0.04393316 0.1762277 -7.154928E-10
v -7.774213E-10 0.1762277 -0.04393316
v 0 0.1786531 -0.06190574
v 0.04377398 0.1786531 -0.04377396
v 0.03106544 0.1762277 -0.03106543
v 0 0 -0.06074505
v 0.06074505 0 -7.243774E-10
v 0.04295324 0 -0.04295323
v 0.04295324 0 0.04295323
v -0.04295323 0 -0.04295323
v 5.310501E-09 0 0.06074505
v -0.06074505 0 2.65525E-09
v -0.04295323 0 0.04295323
v 0.009434748 0.1789547 -0.03093233
v -0.01472991 0.1818764 -0.004752661
v -0.009434747 0.1789547 -0.03093234
v 0.01472991 0.1818764 -0.004752654
v -0.009675165 0.1837402 0.01194817
v 0.009675168 0.1837402 0.01194817
v -0.01472991 0.1818764 -0.004752661
v -0.009675165 0.1837402 0.01194817
v -0.009675165 0.17755 0.01263899
v -0.01472991 0.1756862 -0.00406184
v 0.01472991 0.1818764 -0.004752654
v 0.009434748 0.1789547 -0.03093233
v 0.009434748 0.1727645 -0.03024151
v 0.01472991 0.1756862 -0.004061833
v 0.009675168 0.1837402 0.01194817
v 0.01472991 0.1818764 -0.004752654
v 0.01472991 0.1756862 -0.004061833
v 0.009675168 0.17755 0.012639
v -0.009675165 0.1837402 0.01194817
v 0.009675168 0.1837402 0.01194817
v 0.009675168 0.17755 0.012639
v -0.009675165 0.17755 0.01263899
v -0.009434747 0.1789547 -0.03093234
v -0.01472991 0.1818764 -0.004752661
v -0.01472991 0.1756862 -0.00406184
v -0.009434747 0.1727645 -0.03024151
v 0.009434748 0.1789547 -0.03093233
v -0.009434747 0.1789547 -0.03093234
v -0.009434747 0.1727645 -0.03024151
v 0.009434748 0.1727645 -0.03024151
v 5.245367E-09 0.1404117 0.06
v -0.0424264 0.1193998 0.0424264
v -0.0424264 0.1683412 0.0424264
v 5.245367E-09 0.1683412 0.06
v 0.06 0.1193998 -7.154928E-10
v 0.04242641 0.1404117 0.0424264
v 0.04242641 0.1683412 0.0424264
v 0.06 0.1683412 -7.154928E-10
v 0.04242641 0.1404117 0.0424264
v 5.245367E-09 0.1404117 0.06
v 5.245367E-09 0.1683412 0.06
v 0.04242641 0.1683412 0.0424264
v -0.06074505 0 2.65525E-09
v -0.04295323 0 -0.04295323
v -0.0424264 0.01124647 -0.0424264
v -0.06 0.01124647 2.622683E-09
v 0.04295324 0 -0.04295323
v 0.06074505 0 -7.243774E-10
v 0.06 0.01124647 -7.154928E-10
v 0.04242641 0.01124647 -0.0424264
v 0.04295324 0 0.04295323
v 5.310501E-09 0 0.06074505
v 5.245367E-09 0.01124647 0.06
v 0.04242641 0.01124647 0.0424264
v -0.04295323 0 0.04295323
v -0.06074505 0 2.65525E-09
v -0.06 0.01124647 2.622683E-09
v -0.0424264 0.01124647 0.0424264
v -0.04295323 0 -0.04295323
v 0 0 -0.06074505
v 0 0.01124647 -0.06
v -0.0424264 0.01124647 -0.0424264
v 0 0 -0.06074505
v 0.04295324 0 -0.04295323
v 0.04242641 0.01124647 -0.0424264
v 0 0.01124647 -0.06
v 0.06074505 0 -7.243774E-10
v 0.04295324 0 0.04295323
v 0.04242641 0.01124647 0.0424264
v 0.06 0.01124647 -7.154928E-10
v 5.310501E-09 0 0.06074505
v -0.04295323 0 0.04295323
v -0.0424264 0.01124647 0.0424264
v 5.245367E-09 0.01124647 0.06

vn -0.9107004 -0.1683058 -0.3772241
vn -0.9107004 -0.1683058 -0.3772241
vn -0.9107004 -0.1683058 -0.3772241
vn -0.9107004 -0.1683058 -0.3772241
vn 0.9107005 -0.1683055 -0.377224
vn 0.9107005 -0.1683055 -0.377224
vn 0.9107005 -0.1683055 -0.377224
vn 0.9107005 -0.1683055 -0.377224
vn 0.3772247 -0.1683051 0.9107002
vn 0.3772247 -0.1683051 0.9107002
vn 0.3772247 -0.1683051 0.9107002
vn 0.3772247 -0.1683051 0.9107002
vn -0.9107002 -0.168306 0.3772244
vn -0.9107002 -0.168306 0.3772244
vn -0.9107002 -0.168306 0.3772244
vn -0.9107002 -0.168306 0.3772244
vn -0.3772243 -0.1683056 -0.9107003
vn -0.3772243 -0.1683056 -0.9107003
vn -0.3772243 -0.1683056 -0.9107003
vn -0.3772243 -0.1683056 -0.9107003
vn 0.3772249 -0.1683056 -0.9107
vn 0.3772249 -0.1683056 -0.9107
vn 0.3772249 -0.1683056 -0.9107
vn 0.3772249 -0.1683056 -0.9107
vn 0.9107004 -0.1683055 0.377224
vn 0.9107004 -0.1683055 0.377224
vn 0.9107004 -0.1683055 0.377224
vn 0.9107004 -0.1683055 0.377224
vn -0.3772244 -0.1683058 0.9107003
vn -0.3772244 -0.1683058 0.9107003
vn -0.3772244 -0.1683058 0.9107003
vn -0.3772244 -0.1683058 0.9107003
vn 0 1 0
vn 0 1 0
vn 0 1 0
vn 0 1 0
vn 0 1 0
vn 0 1 0
vn 0 1 0
vn 0 1 0
vn -0.3826834 0 0.9238795
vn -0.3826834 0 0.9238795
vn -0.3826834 0 0.9238795
vn -0.3826834 0 0.9238795
vn -0.3826834 0 0.9238795
vn -0.3826834 0 0.9238795
vn -0.3826834 0 0.9238795
vn -0.3826834 0 0.9238795
vn 0.9238795 0 0.3826833
vn 0.9238795 0 0.3826833
vn 0.9238795 0 0.3826833
vn 0.9238795 0 0.3826833
vn 0.9238795 0 0.3826834
vn 0.9238795 0 0.3826834
vn 0.9238795 0 0.3826834
vn 0.9238795 0 0.3826834
vn 0.3826835 0 -0.9238795
vn 0.3826835 0 -0.9238795
vn 0.3826835 0 -0.9238795
vn 0.3826835 0 -0.9238795
vn 0.3826835 0 -0.9238795
vn 0.3826835 0 -0.9238795
vn 0.3826833 0 -0.9238795
vn 0.3826833 0 -0.9238795
vn -0.3826835 0 -0.9238795
vn -0.3826835 0 -0.9238795
vn -0.3826835 0 -0.9238795
vn -0.3826835 0 -0.9238795
vn -0.3826835 0 -0.9238795
vn -0.3826835 0 -0.9238795
vn -0.3826835 0 -0.9238795
vn -0.3826835 0 -0.9238795
vn -0.9238795 0 0.3826835
vn -0.9238795 0 0.3826835
vn -0.9238795 0 0.3826835
vn -0.9238795 0 0.3826835
vn -0.9238795 0 0.3826834
vn -0.9238795 0 0.3826834
vn -0.9238794 0 0.3826836
vn -0.9238794 0 0.3826836
vn 0.3826835 0 0.9238795
vn 0.3826835 0 0.9238795
vn 0.3826835 0 0.9238795
vn 0.3826835 0 0.9238795
vn 0.3826835 0 0.9238794
vn 0.3826835 0 0.9238794
vn 0.3826835 0 0.9238794
vn 0.3826835 0 0.9238794
vn 0.9238795 0 -0.3826834
vn 0.9238795 0 -0.3826834
vn 0.9238795 0 -0.3826834
vn 0.9238795 0 -0.3826834
vn 0.9238795 0 -0.3826834
vn 0.9238795 0 -0.3826834
vn 0.9238795 0 -0.3826833
vn 0.9238795 0 -0.3826833
vn -0.9238795 0 -0.3826835
vn -0.9238795 0 -0.3826835
vn -0.9238795 0 -0.3826835
vn -0.9238795 0 -0.3826835
vn -0.9238795 0 -0.3826835
vn -0.9238795 0 -0.3826835
vn -0.9238795 0 -0.3826835
vn -0.9238795 0 -0.3826835
vn 0.05531114 0.9894997 0.1335323
vn 0.05531114 0.9894997 0.1335323
vn 0.05531114 0.9894997 0.1335323
vn 0.05531114 0.9894997 0.1335323
vn 0.1335331 0.9894996 0.05531089
vn 0.1335331 0.9894996 0.05531089
vn 0.1335331 0.9894996 0.05531089
vn 0.1335331 0.9894996 0.05531089
vn 0.1335318 0.9894999 -0.05531091
vn 0.1335318 0.9894999 -0.05531091
vn 0.1335318 0.9894999 -0.05531091
vn 0.1335318 0.9894999 -0.05531091
vn 0.05531148 0.9894997 -0.1335323
vn 0.05531148 0.9894997 -0.1335323
vn 0.05531148 0.9894997 -0.1335323
vn 0.05531148 0.9894997 -0.1335323
vn -0.05531112 0.9894997 -0.1335323
vn -0.05531112 0.9894997 -0.1335323
vn -0.05531112 0.9894997 -0.1335323
vn -0.05531112 0.9894997 -0.1335323
vn -0.1335325 0.9894997 -0.05531091
vn -0.1335325 0.9894997 -0.05531091
vn -0.1335325 0.9894997 -0.05531091
vn -0.1335325 0.9894997 -0.05531091
vn -0.1335325 0.9894997 0.0553109
vn -0.1335325 0.9894997 0.0553109
vn -0.1335325 0.9894997 0.0553109
vn -0.1335325 0.9894997 0.0553109
vn -0.05531114 0.9894997 0.1335323
vn -0.05531114 0.9894997 0.1335323
vn -0.05531114 0.9894997 0.1335323
vn -0.05531114 0.9894997 0.1335323
vn 0 -1 0
vn 0 -1 0
vn 0 -1 0
vn 0 -1 0
vn 0 -1 0
vn 0 -1 0
vn 0 -1 0
vn 0 -1 0
vn 3.996171E-07 0.9938303 -0.1109116
vn 3.996171E-07 0.9938303 -0.1109116
vn 3.996171E-07 0.9938303 -0.1109116
vn 3.996171E-07 0.9938303 -0.1109116
vn 3.830993E-07 0.9938305 -0.1109103
vn 3.830993E-07 0.9938305 -0.1109103
vn -0.9576163 0.03194768 0.2862697
vn -0.9576163 0.03194768 0.2862697
vn -0.9576163 0.03194768 0.2862697
vn -0.9576163 0.03194768 0.2862697
vn 0.9803889 -0.02185761 -0.1958565
vn 0.9803889 -0.02185761 -0.1958565
vn 0.9803889 -0.02185761 -0.1958565
vn 0.9803889 -0.02185761 -0.1958565
vn 0.9576158 0.03194784 0.2862712
vn 0.9576158 0.03194784 0.2862712
vn 0.9576158 0.03194784 0.2862712
vn 0.9576158 0.03194784 0.2862712
vn -2.414748E-07 0.1109113 0.9938304
vn -2.414748E-07 0.1109113 0.9938304
vn -2.414748E-07 0.1109113 0.9938304
vn -2.414748E-07 0.1109113 0.9938304
vn -0.9803889 -0.02185766 -0.195857
vn -0.9803889 -0.02185766 -0.195857
vn -0.9803889 -0.02185766 -0.195857
vn -0.9803889 -0.02185766 -0.195857
vn 2.476281E-07 -0.1109111 -0.9938304
vn 2.476281E-07 -0.1109111 -0.9938304
vn 2.476281E-07 -0.1109111 -0.9938304
vn 2.476281E-07 -0.1109111 -0.9938304
vn -0.3826835 0 0.9238795
vn -0.3826835 0 0.9238795
vn -0.3826835 0 0.9238795
vn -0.3826835 0 0.9238795
vn 0.9238795 0 0.3826834
vn 0.9238795 0 0.3826834
vn 0.9238795 0 0.3826834
vn 0.9238795 0 0.3826834
vn 0.3826833 0 0.9238795
vn 0.3826833 0 0.9238795
vn 0.3826833 0 0.9238795
vn 0.3826833 0 0.9238795
vn -0.922154 0.06109009 -0.3819686
vn -0.922154 0.06109009 -0.3819686
vn -0.922154 0.06109009 -0.3819686
vn -0.922154 0.06109009 -0.3819686
vn 0.922154 0.06108997 -0.3819686
vn 0.922154 0.06108997 -0.3819686
vn 0.922154 0.06108997 -0.3819686
vn 0.922154 0.06108997 -0.3819686
vn 0.3819688 0.06108995 0.9221539
vn 0.3819688 0.06108995 0.9221539
vn 0.3819688 0.06108995 0.9221539
vn 0.3819688 0.06108995 0.9221539
vn -0.922154 0.06109007 0.3819687
vn -0.922154 0.06109007 0.3819687
vn -0.922154 0.06109007 0.3819687
vn -0.922154 0.06109007 0.3819687
vn -0.3819688 0.06109039 -0.922154
vn -0.3819688 0.06109039 -0.922154
vn -0.3819688 0.06109039 -0.922154
vn -0.3819688 0.06109039 -0.922154
vn 0.3819688 0.06108976 -0.922154
vn 0.3819688 0.06108976 -0.922154
vn 0.3819688 0.06108976 -0.922154
vn 0.3819688 0.06108976 -0.922154
vn 0.922154 0.06108997 0.3819685
vn 0.922154 0.06108997 0.3819685
vn 0.922154 0.06108997 0.3819685
vn 0.922154 0.06108997 0.3819685
vn -0.3819687 0.06108975 0.922154
vn -0.3819687 0.06108975 0.922154
vn -0.3819687 0.06108975 0.922154
vn -0.3819687 0.06108975 0.922154

vt 0.3875515 0.6665831
vt 0.3826197 0.6811464
vt 0.3854175 0.6810727
vt 0.389533 0.6684563
vt 0.4053889 0.7015877
vt 0.4184898 0.6940275
vt 0.4162973 0.6923223
vt 0.4034586 0.6987233
vt 0.422589 0.6792042
vt 0.4158208 0.6658209
vt 0.4139622 0.667871
vt 0.4197904 0.6794358
vt 0.4017433 0.660558
vt 0.3875515 0.6665831
vt 0.389533 0.6684563
vt 0.4018124 0.6633467
vt 0.3826197 0.6811464
vt 0.388644 0.6948196
vt 0.3907101 0.6929243
vt 0.3854175 0.6810727
vt 0.388644 0.6948196
vt 0.4017164 0.7015877
vt 0.4034586 0.6987233
vt 0.3907101 0.6929243
vt 0.4184898 0.6940275
vt 0.422589 0.6792042
vt 0.4197904 0.6794358
vt 0.4162973 0.6923223
vt 0.4158208 0.6658209
vt 0.4017433 0.660558
vt 0.4018124 0.6633467
vt 0.4139622 0.667871
vt 0.3903523 0.6808862
vt 0.3942938 0.6894513
vt 0.4033164 0.6931863
vt 0.3934094 0.6720498
vt 0.4120688 0.6889095
vt 0.4148518 0.679893
vt 0.4019676 0.6682674
vt 0.4107215 0.6715094
vt 0.2022797 0.5113469
vt 0.1893615 0.5113469
vt 0.1893615 0.528947
vt 0.2022797 0.5230362
vt 0.6831138 0.7852322
vt 0.6701955 0.791143
vt 0.6701955 0.8039672
vt 0.6831137 0.8098782
vt 0.2281161 0.5113469
vt 0.2151979 0.5113469
vt 0.215198 0.5230362
vt 0.2281161 0.528947
vt 0.7089502 0.7911431
vt 0.6960319 0.7852322
vt 0.6960319 0.8098782
vt 0.7089502 0.8039674
vt 0.1506069 0.511347
vt 0.1376887 0.511347
vt 0.1376887 0.5230363
vt 0.1506069 0.5230363
vt 0.1376887 0.547682
vt 0.1506069 0.547682
vt 0.1376887 0.5555389
vt 0.1506069 0.5555389
vt 0.1635251 0.5113469
vt 0.1506069 0.511347
vt 0.1506069 0.5230363
vt 0.1635251 0.5230363
vt 0.1506069 0.547682
vt 0.1635251 0.547682
vt 0.1506069 0.5555389
vt 0.1635251 0.5555389
vt 0.1893615 0.5113469
vt 0.1764433 0.5113469
vt 0.1764433 0.5230362
vt 0.1893615 0.528947
vt 0.1764433 0.547682
vt 0.1893615 0.5417713
vt 0.1764433 0.5555389
vt 0.1893615 0.5555389
vt 0.2151979 0.5113469
vt 0.2022797 0.5113469
vt 0.2022797 0.5230362
vt 0.215198 0.5230362
vt 0.6960319 0.7852322
vt 0.6831138 0.7852322
vt 0.6831137 0.8098782
vt 0.6960319 0.8098782
vt 0.2410344 0.5113468
vt 0.2281161 0.5113469
vt 0.2281161 0.528947
vt 0.2410344 0.5230362
vt 0.2281162 0.5417713
vt 0.2410344 0.547682
vt 0.2281162 0.5555388
vt 0.2410344 0.5555388
vt 0.1764433 0.5113469
vt 0.1635251 0.5113469
vt 0.1635251 0.5230363
vt 0.1764433 0.5230362
vt 0.1635251 0.547682
vt 0.1764433 0.547682
vt 0.1635251 0.5555389
vt 0.1764433 0.5555389
vt 0.3903523 0.6808862
vt 0.3854175 0.6810727
vt 0.3907101 0.6929243
vt 0.3942938 0.6894513
vt 0.3934094 0.6720498
vt 0.389533 0.6684563
vt 0.3854175 0.6810727
vt 0.3903523 0.6808862
vt 0.4019676 0.6682674
vt 0.4018124 0.6633467
vt 0.389533 0.6684563
vt 0.3934094 0.6720498
vt 0.4107215 0.6715094
vt 0.4139622 0.667871
vt 0.4018124 0.6633467
vt 0.4019676 0.6682674
vt 0.4148518 0.679893
vt 0.4197904 0.6794358
vt 0.4139622 0.667871
vt 0.4107215 0.6715094
vt 0.4120688 0.6889095
vt 0.4162973 0.6923223
vt 0.4197904 0.6794358
vt 0.4148518 0.679893
vt 0.4033164 0.6931863
vt 0.4034586 0.6987233
vt 0.4162973 0.6923223
vt 0.4120688 0.6889095
vt 0.3942938 0.6894513
vt 0.3907101 0.6929243
vt 0.4034586 0.6987233
vt 0.4033164 0.6931863
vt 0.4482631 0.6634358
vt 0.457972 0.6859809
vt 0.45805 0.6725458
vt 0.4483573 0.6946656
vt 0.4352625 0.6634165
vt 0.4353789 0.6944606
vt 0.4257482 0.6722832
vt 0.4261692 0.6852872
vt 0.466464 0.6617999
vt 0.4723899 0.6698542
vt 0.4715689 0.6619497
vt 0.463912 0.6692192
vt 0.4703262 0.6744007
vt 0.4650064 0.6742624
vt 0.4723899 0.6698542
vt 0.4703262 0.6744007
vt 0.4711119 0.6757829
vt 0.4742369 0.6701672
vt 0.463912 0.6692192
vt 0.466464 0.6617999
vt 0.4657034 0.660558
vt 0.4619696 0.6691659
vt 0.4650064 0.6742624
vt 0.463912 0.6692192
vt 0.4619696 0.6691659
vt 0.4638955 0.6757829
vt 0.4703262 0.6744007
vt 0.4650064 0.6742624
vt 0.4638955 0.6757829
vt 0.4711119 0.6757829
vt 0.4715689 0.6619497
vt 0.4723899 0.6698542
vt 0.4742369 0.6701672
vt 0.4724598 0.6609245
vt 0.466464 0.6617999
vt 0.4715689 0.6619497
vt 0.4724598 0.6609245
vt 0.4657034 0.660558
vt 0.2022797 0.547682
vt 0.1893615 0.5417713
vt 0.1893615 0.5555389
vt 0.2022797 0.5555389
vt 0.2281162 0.5417713
vt 0.215198 0.547682
vt 0.215198 0.5555388
vt 0.2281162 0.5555388
vt 0.215198 0.547682
vt 0.2022797 0.547682
vt 0.2022797 0.5555389
vt 0.215198 0.5555388
vt 0.4257482 0.6722832
vt 0.4352625 0.6634165
vt 0.4341148 0.660558
vt 0.4229699 0.6711189
vt 0.45805 0.6725458
vt 0.457972 0.6859809
vt 0.4606387 0.6873296
vt 0.4615887 0.6728668
vt 0.4483573 0.6946656
vt 0.4353789 0.6944606
vt 0.4341702 0.6972915
vt 0.4494306 0.6975485
vt 0.4261692 0.6852872
vt 0.4257482 0.6722832
vt 0.4229699 0.6711189
vt 0.4233228 0.6864942
vt 0.4352625 0.6634165
vt 0.4482631 0.6634358
vt 0.4492597 0.660558
vt 0.4341148 0.660558
vt 0.4482631 0.6634358
vt 0.45805 0.6725458
vt 0.4602475 0.6697925
vt 0.4492597 0.660558
vt 0.457972 0.6859809
vt 0.4483573 0.6946656
vt 0.4494306 0.6975485
vt 0.4606387 0.6873296
vt 0.4353789 0.6944606
vt 0.4261692 0.6852872
vt 0.4233228 0.6864942
vt 0.4341702 0.6972915

usemtl LOW-POLY-COLORS
usemap LOW-POLY-COLORS
f 2/2/2 1/1/1 3/3/3
f 3/3/3 1/1/1 4/4/4
f 6/6/6 5/5/5 7/7/7
f 7/7/7 5/5/5 8/8/8
f 10/10/10 9/9/9 11/11/11
f 11/11/11 9/9/9 12/12/12
f 14/14/14 13/13/13 15/15/15
f 15/15/15 13/13/13 16/16/16
f 18/18/18 17/17/17 19/19/19
f 19/19/19 17/17/17 20/20/20
f 22/22/22 21/21/21 23/23/23
f 23/23/23 21/21/21 24/24/24
f 26/26/26 25/25/25 27/27/27
f 27/27/27 25/25/25 28/28/28
f 30/30/30 29/29/29 31/31/31
f 31/31/31 29/29/29 32/32/32
f 34/34/34 33/33/33 35/35/35
f 36/36/36 35/35/35 33/33/33
f 37/37/37 35/35/35 36/36/36
f 38/38/38 37/37/37 36/36/36
f 39/39/39 38/38/38 36/36/36
f 40/40/40 38/38/38 39/39/39
f 42/42/42 41/41/41 43/43/43
f 43/43/43 41/41/41 44/44/44
f 46/46/46 45/45/45 47/47/47
f 47/47/47 45/45/45 48/48/48
f 50/50/50 49/49/49 51/51/51
f 51/51/51 49/49/49 52/52/52
f 54/54/54 53/53/53 55/55/55
f 55/55/55 53/53/53 56/56/56
f 58/58/58 57/57/57 59/59/59
f 59/59/59 57/57/57 60/60/60
f 59/59/59 60/60/60 61/61/61
f 61/61/61 60/60/60 62/62/62
f 61/61/61 62/62/62 63/63/63
f 63/63/63 62/62/62 64/64/64
f 66/66/66 65/65/65 67/67/67
f 67/67/67 65/65/65 68/68/68
f 67/67/67 68/68/68 69/69/69
f 69/69/69 68/68/68 70/70/70
f 69/69/69 70/70/70 71/71/71
f 71/71/71 70/70/70 72/72/72
f 74/74/74 73/73/73 75/75/75
f 75/75/75 73/73/73 76/76/76
f 75/75/75 76/76/76 77/77/77
f 77/77/77 76/76/76 78/78/78
f 77/77/77 78/78/78 79/79/79
f 79/79/79 78/78/78 80/80/80
f 82/82/82 81/81/81 83/83/83
f 83/83/83 81/81/81 84/84/84
f 86/86/86 85/85/85 87/87/87
f 87/87/87 85/85/85 88/88/88
f 90/90/90 89/89/89 91/91/91
f 91/91/91 89/89/89 92/92/92
f 91/91/91 92/92/92 93/93/93
f 93/93/93 92/92/92 94/94/94
f 93/93/93 94/94/94 95/95/95
f 95/95/95 94/94/94 96/96/96
f 98/98/98 97/97/97 99/99/99
f 99/99/99 97/97/97 100/100/100
f 99/99/99 100/100/100 101/101/101
f 101/101/101 100/100/100 102/102/102
f 101/101/101 102/102/102 103/103/103
f 103/103/103 102/102/102 104/104/104
f 106/106/106 105/105/105 107/107/107
f 107/107/107 105/105/105 108/108/108
f 110/110/110 109/109/109 111/111/111
f 111/111/111 109/109/109 112/112/112
f 114/114/114 113/113/113 115/115/115
f 115/115/115 113/113/113 116/116/116
f 118/118/118 117/117/117 119/119/119
f 119/119/119 117/117/117 120/120/120
f 122/122/122 121/121/121 123/123/123
f 123/123/123 121/121/121 124/124/124
f 126/126/126 125/125/125 127/127/127
f 127/127/127 125/125/125 128/128/128
f 130/130/130 129/129/129 131/131/131
f 131/131/131 129/129/129 132/132/132
f 134/134/134 133/133/133 135/135/135
f 135/135/135 133/133/133 136/136/136
f 138/138/138 137/137/137 139/139/139
f 140/140/140 137/137/137 138/138/138
f 140/140/140 141/141/141 137/137/137
f 142/142/142 141/141/141 140/140/140
f 142/142/142 143/143/143 141/141/141
f 144/144/144 143/143/143 142/142/142
f 146/146/146 145/145/145 147/147/147
f 148/148/148 145/145/145 146/146/146
f 149/149/149 148/148/148 146/146/146
f 150/150/150 148/148/148 149/149/149
f 152/152/152 151/151/151 153/153/153
f 153/153/153 151/151/151 154/154/154
f 156/156/156 155/155/155 157/157/157
f 157/157/157 155/155/155 158/158/158
f 160/160/160 159/159/159 161/161/161
f 161/161/161 159/159/159 162/162/162
f 164/164/164 163/163/163 165/165/165
f 165/165/165 163/163/163 166/166/166
f 168/168/168 167/167/167 169/169/169
f 169/169/169 167/167/167 170/170/170
f 172/172/172 171/171/171 173/173/173
f 173/173/173 171/171/171 174/174/174
f 176/176/176 175/175/175 177/177/177
f 177/177/177 175/175/175 178/178/178
f 180/180/180 179/179/179 181/181/181
f 181/181/181 179/179/179 182/182/182
f 184/184/184 183/183/183 185/185/185
f 185/185/185 183/183/183 186/186/186
f 188/188/188 187/187/187 189/189/189
f 189/189/189 187/187/187 190/190/190
f 192/192/192 191/191/191 193/193/193
f 193/193/193 191/191/191 194/194/194
f 196/196/196 195/195/195 197/197/197
f 197/197/197 195/195/195 198/198/198
f 200/200/200 199/199/199 201/201/201
f 201/201/201 199/199/199 202/202/202
f 204/204/204 203/203/203 205/205/205
f 205/205/205 203/203/203 206/206/206
f 208/208/208 207/207/207 209/209/209
f 209/209/209 207/207/207 210/210/210
f 212/212/212 211/211/211 213/213/213
f 213/213/213 211/211/211 214/214/214
f 216/216/216 215/215/215 217/217/217
f 217/217/217 215/215/215 218/218/218
