mtllib ./carrot_25.mtl
g carrot
v 0.009828549 -0.15593 -0.005674529
v 0 -0.15593 -0.01134905
v 1.164153E-10 -0.203402 -3.313839E-08
v 9.921641E-10 -0.15593 0.01134902
v 0.009828549 -0.15593 0.0056745
v 1.164153E-10 -0.203402 -3.313839E-08
v -0.009828549 -0.15593 -0.005674529
v -0.009828549 -0.15593 0.0056745
v 1.164153E-10 -0.203402 -3.313839E-08
v 0.009828549 -0.15593 0.0056745
v 0.009828549 -0.15593 -0.005674529
v 1.164153E-10 -0.203402 -3.313839E-08
v -0.009828549 -0.15593 0.0056745
v 9.921641E-10 -0.15593 0.01134902
v 1.164153E-10 -0.203402 -3.313839E-08
v 0 -0.15593 -0.01134905
v -0.009828549 -0.15593 -0.005674529
v 1.164153E-10 -0.203402 -3.313839E-08
v 0 0.08400336 -0.06108903
v 0.05290464 0.08400336 -0.0305445
v 0.04201981 0.113282 -0.02426014
v 0 0.113282 -0.04852028
v 0.05290464 0.08400335 0.03054453
v 5.340573E-09 0.08400335 0.06108904
v 4.241779E-09 0.113282 0.04852032
v 0.04201981 0.1132819 0.02426016
v -0.05290464 0.08400335 0.03054454
v -0.05290464 0.08400336 -0.0305445
v -0.04201981 0.113282 -0.02426014
v -0.04201981 0.113282 0.02426017
v 0.05290464 0.08400336 -0.0305445
v 0.05290464 0.08400335 0.03054453
v 0.04201981 0.1132819 0.02426016
v 0.04201981 0.113282 -0.02426014
v 5.340573E-09 0.08400335 0.06108904
v -0.05290464 0.08400335 0.03054454
v -0.04201981 0.113282 0.02426017
v 4.241779E-09 0.113282 0.04852032
v -0.05290464 0.08400336 -0.0305445
v 0 0.08400336 -0.06108903
v 0 0.113282 -0.04852028
v -0.04201981 0.113282 -0.02426014
v 0.04201981 0.113282 -0.02426014
v 0.04201981 0.1132819 0.02426016
v 0.01370684 0.1260587 0.007913666
v 0.01370684 0.1260587 -0.007913636
v 4.241779E-09 0.113282 0.04852032
v -0.04201981 0.113282 0.02426017
v -0.01370684 0.1260587 0.007913666
v 1.383666E-09 0.1260587 0.01582731
v -0.04201981 0.113282 -0.02426014
v 0 0.113282 -0.04852028
v 0 0.1260587 -0.01582728
v -0.01370684 0.1260587 -0.007913636
v 0 0.113282 -0.04852028
v 0.04201981 0.113282 -0.02426014
v 0.01370684 0.1260587 -0.007913636
v 0 0.1260587 -0.01582728
v 0.04201981 0.1132819 0.02426016
v 4.241779E-09 0.113282 0.04852032
v 1.383666E-09 0.1260587 0.01582731
v 0.01370684 0.1260587 0.007913666
v -0.04201981 0.113282 0.02426017
v -0.04201981 0.113282 -0.02426014
v -0.01370684 0.1260587 -0.007913636
v -0.01370684 0.1260587 0.007913666
v 0.05290464 0.08400336 -0.0305445
v 0 0.08400336 -0.06108903
v 0 -0.08248886 -0.03670065
v 0.03178368 -0.08248886 -0.01835032
v 5.340573E-09 0.08400335 0.06108904
v 0.05290464 0.08400335 0.03054453
v 0.03178368 -0.08248886 0.01835031
v 3.208471E-09 -0.08248887 0.03670062
v -0.05290464 0.08400336 -0.0305445
v -0.05290464 0.08400335 0.03054454
v -0.03178368 -0.08248886 0.01835032
v -0.03178368 -0.08248886 -0.01835032
v 0.05290464 0.08400335 0.03054453
v 0.05290464 0.08400336 -0.0305445
v 0.03178368 -0.08248886 -0.01835032
v 0.03178368 -0.08248886 0.01835031
v -0.05290464 0.08400335 0.03054454
v 5.340573E-09 0.08400335 0.06108904
v 3.208471E-09 -0.08248887 0.03670062
v -0.03178368 -0.08248886 0.01835032
v 0 0.08400336 -0.06108903
v -0.05290464 0.08400336 -0.0305445
v -0.03178368 -0.08248886 -0.01835032
v 0 -0.08248886 -0.03670065
v 0.03178368 -0.08248886 0.01835031
v 0.03178368 -0.08248886 -0.01835032
v 0.009828549 -0.15593 -0.005674529
v 0.009828549 -0.15593 0.0056745
v -0.03178368 -0.08248886 0.01835032
v 3.208471E-09 -0.08248887 0.03670062
v 9.921641E-10 -0.15593 0.01134902
v -0.009828549 -0.15593 0.0056745
v 0 -0.08248886 -0.03670065
v -0.03178368 -0.08248886 -0.01835032
v -0.009828549 -0.15593 -0.005674529
v 0 -0.15593 -0.01134905
v 0.03178368 -0.08248886 -0.01835032
v 0 -0.08248886 -0.03670065
v 0 -0.15593 -0.01134905
v 0.009828549 -0.15593 -0.005674529
v 3.208471E-09 -0.08248887 0.03670062
v 0.03178368 -0.08248886 0.01835031
v 0.009828549 -0.15593 0.0056745
v 9.921641E-10 -0.15593 0.01134902
v -0.03178368 -0.08248886 -0.01835032
v -0.03178368 -0.08248886 0.01835032
v -0.009828549 -0.15593 0.0056745
v -0.009828549 -0.15593 -0.005674529
v 0.01370684 0.1260587 -0.007913636
v 0.01370684 0.1260587 0.007913666
v 0.02533806 0.1858417 0.01787683
v 0.02533806 0.1858417 -0.0178768
v 1.383666E-09 0.1260587 0.01582731
v -0.01370684 0.1260587 0.007913666
v -0.03084781 0.2303706 0.02106418
v -0.001648892 0.2146094 0.03575366
v -0.01370684 0.1260587 -0.007913636
v 0 0.1260587 -0.01582728
v -0.001648899 0.2146094 -0.03575359
v -0.03084781 0.2303706 -0.02106413
v 0 0.1260587 -0.01582728
v 0.01370684 0.1260587 -0.007913636
v 0.02533806 0.1858417 -0.0178768
v -0.001648899 0.2146094 -0.03575359
v 0.01370684 0.1260587 0.007913666
v 1.383666E-09 0.1260587 0.01582731
v -0.001648892 0.2146094 0.03575366
v 0.02533806 0.1858417 0.01787683
v -0.01370684 0.1260587 0.007913666
v -0.01370684 0.1260587 -0.007913636
v -0.03084781 0.2303706 -0.02106413
v -0.03084781 0.2303706 0.02106418
v -0.001648892 0.2146094 0.03575366
v -0.001648899 0.2146094 -0.03575359
v 0.0183874 0.2179579 -0.0153939
v 0.0183874 0.2179579 0.01539395
v -0.03084781 0.2303706 0.02106418
v -0.03084781 0.2303706 -0.02106413
v -0.01876601 0.2462975 -0.01107268
v -0.01876601 0.2462975 0.01107274
v -0.01876601 0.2462975 -0.01107268
v -0.008636295 0.2366398 -0.01647387
v -0.008636292 0.2366398 0.01647392
v -0.01876601 0.2462975 0.01107274
v -0.001648899 0.2146094 -0.03575359
v -0.001648892 0.2146094 0.03575366
v -0.008636292 0.2366398 0.01647392
v -0.008636295 0.2366398 -0.01647387
v -0.001648892 0.2146094 0.03575366
v -0.03084781 0.2303706 0.02106418
v -0.01876601 0.2462975 0.01107274
v -0.008636292 0.2366398 0.01647392
v -0.03084781 0.2303706 -0.02106413
v -0.001648899 0.2146094 -0.03575359
v -0.008636295 0.2366398 -0.01647387
v -0.01876601 0.2462975 -0.01107268
v 0.02456973 0.2066757 0.01142133
v 0.0183874 0.2179579 0.01539395
v 0.0183874 0.2179579 -0.0153939
v 0.02456973 0.2066757 -0.01142128
v 0.02533806 0.1858417 -0.0178768
v 0.02533806 0.1858417 0.01787683
v 0.02456973 0.2066757 0.01142133
v 0.02456973 0.2066757 -0.01142128
v -0.001648899 0.2146094 -0.03575359
v 0.02533806 0.1858417 -0.0178768
v 0.02456973 0.2066757 -0.01142128
v 0.0183874 0.2179579 -0.0153939
v 0.02533806 0.1858417 0.01787683
v -0.001648892 0.2146094 0.03575366
v 0.0183874 0.2179579 0.01539395
v 0.02456973 0.2066757 0.01142133

vn 0.4896166 -0.2027393 -0.8480403
vn 0.4896166 -0.2027393 -0.8480403
vn 0.4896166 -0.2027393 -0.8480403
vn 0.4896162 -0.2027398 0.8480404
vn 0.4896162 -0.2027398 0.8480404
vn 0.4896162 -0.2027398 0.8480404
vn -0.9792327 -0.2027394 0
vn -0.9792327 -0.2027394 0
vn -0.9792327 -0.2027394 0
vn 0.9792327 -0.2027394 0
vn 0.9792327 -0.2027394 0
vn 0.9792327 -0.2027394 0
vn -0.4896165 -0.2027398 0.8480403
vn -0.4896165 -0.2027398 0.8480403
vn -0.4896165 -0.2027398 0.8480403
vn -0.4896166 -0.2027393 -0.8480403
vn -0.4896166 -0.2027393 -0.8480403
vn -0.4896166 -0.2027393 -0.8480403
vn 0.4686608 0.3484659 -0.8117441
vn 0.4686608 0.3484659 -0.8117441
vn 0.4686608 0.3484659 -0.8117441
vn 0.4686608 0.3484659 -0.8117441
vn 0.4686608 0.3484658 0.8117442
vn 0.4686608 0.3484658 0.8117442
vn 0.4686608 0.3484658 0.8117442
vn 0.4686608 0.3484658 0.8117442
vn -0.9373217 0.3484655 0
vn -0.9373217 0.3484655 0
vn -0.9373217 0.3484655 0
vn -0.9373217 0.3484655 0
vn 0.9373215 0.3484657 1.360069E-07
vn 0.9373215 0.3484657 1.360069E-07
vn 0.9373215 0.3484657 1.360069E-07
vn 0.9373215 0.3484657 1.360069E-07
vn -0.4686606 0.3484657 0.8117443
vn -0.4686606 0.3484657 0.8117443
vn -0.4686606 0.3484657 0.8117443
vn -0.4686606 0.3484657 0.8117443
vn -0.4686608 0.348466 -0.8117441
vn -0.4686608 0.348466 -0.8117441
vn -0.4686608 0.348466 -0.8117441
vn -0.4686608 0.348466 -0.8117441
vn 0.4113258 0.9114884 2.912148E-07
vn 0.4113258 0.9114884 2.912148E-07
vn 0.4113258 0.9114884 2.912148E-07
vn 0.4113258 0.9114884 2.912148E-07
vn -0.2056631 0.9114882 0.3562188
vn -0.2056631 0.9114882 0.3562188
vn -0.2056631 0.9114882 0.3562188
vn -0.2056631 0.9114882 0.3562188
vn -0.2056621 0.9114887 -0.3562185
vn -0.2056621 0.9114887 -0.3562185
vn -0.2056621 0.9114887 -0.3562185
vn -0.2056621 0.9114887 -0.3562185
vn 0.2056621 0.9114886 -0.3562185
vn 0.2056621 0.9114886 -0.3562185
vn 0.2056621 0.9114886 -0.3562185
vn 0.2056621 0.9114886 -0.3562185
vn 0.2056641 0.911488 0.3562189
vn 0.2056641 0.911488 0.3562189
vn 0.2056641 0.911488 0.3562189
vn 0.2056641 0.911488 0.3562189
vn -0.4113255 0.9114885 0
vn -0.4113255 0.9114885 0
vn -0.4113255 0.9114885 0
vn -0.4113255 0.9114885 0
vn 0.4960248 -0.1258499 -0.8591397
vn 0.4960248 -0.1258499 -0.8591397
vn 0.4960248 -0.1258499 -0.8591397
vn 0.4960248 -0.1258499 -0.8591397
vn 0.4960245 -0.1258501 0.8591399
vn 0.4960245 -0.1258501 0.8591399
vn 0.4960245 -0.1258501 0.8591399
vn 0.4960245 -0.1258501 0.8591399
vn -0.9920493 -0.12585 -1.134949E-07
vn -0.9920493 -0.12585 -1.134949E-07
vn -0.9920493 -0.12585 -1.134949E-07
vn -0.9920493 -0.12585 -1.134949E-07
vn 0.9920493 -0.12585 -1.134949E-07
vn 0.9920493 -0.12585 -1.134949E-07
vn 0.9920493 -0.12585 -1.134949E-07
vn 0.9920493 -0.12585 -1.134949E-07
vn -0.4960245 -0.1258501 0.85914
vn -0.4960245 -0.1258501 0.85914
vn -0.4960245 -0.1258501 0.85914
vn -0.4960245 -0.1258501 0.85914
vn -0.4960248 -0.1258499 -0.8591397
vn -0.4960248 -0.1258499 -0.8591397
vn -0.4960248 -0.1258499 -0.8591397
vn -0.4960248 -0.1258499 -0.8591397
vn 0.9581031 -0.2864235 0
vn 0.9581031 -0.2864235 0
vn 0.9581031 -0.2864235 0
vn 0.9581031 -0.2864235 0
vn -0.4790513 -0.2864236 0.8297418
vn -0.4790513 -0.2864236 0.8297418
vn -0.4790513 -0.2864236 0.8297418
vn -0.4790513 -0.2864236 0.8297418
vn -0.4790518 -0.2864234 -0.8297415
vn -0.4790518 -0.2864234 -0.8297415
vn -0.4790518 -0.2864234 -0.8297415
vn -0.4790518 -0.2864234 -0.8297415
vn 0.4790519 -0.2864234 -0.8297415
vn 0.4790519 -0.2864234 -0.8297415
vn 0.4790519 -0.2864234 -0.8297415
vn 0.4790519 -0.2864234 -0.8297415
vn 0.4790515 -0.2864235 0.8297416
vn 0.4790515 -0.2864235 0.8297416
vn 0.4790515 -0.2864235 0.8297416
vn 0.4790515 -0.2864235 0.8297416
vn -0.9581031 -0.2864235 0
vn -0.9581031 -0.2864235 0
vn -0.9581031 -0.2864235 0
vn -0.9581031 -0.2864235 0
vn 0.9815946 -0.1909765 0
vn 0.9815946 -0.1909765 0
vn 0.9815946 -0.1909765 0
vn 0.9815946 -0.1909765 0
vn -0.5119628 -0.1934194 0.8369485
vn -0.5119628 -0.1934194 0.8369485
vn -0.5119628 -0.1934194 0.8369485
vn -0.5119628 -0.1934194 0.8369485
vn -0.511963 -0.1934191 -0.8369486
vn -0.511963 -0.1934191 -0.8369486
vn -0.511963 -0.1934191 -0.8369486
vn -0.511963 -0.1934191 -0.8369486
vn 0.4154768 -0.2064628 -0.8858624
vn 0.4154768 -0.2064628 -0.8858624
vn 0.4154768 -0.2064628 -0.8858624
vn 0.4154768 -0.2064628 -0.8858624
vn 0.4154771 -0.206463 0.8858622
vn 0.4154771 -0.206463 0.8858622
vn 0.4154771 -0.206463 0.8858622
vn 0.4154771 -0.206463 0.8858622
vn -0.9867662 -0.1621496 0
vn -0.9867662 -0.1621496 0
vn -0.9867662 -0.1621496 0
vn -0.9867662 -0.1621496 0
vn -0.1648351 0.9863212 0
vn -0.1648351 0.9863212 0
vn -0.1648351 0.9863212 0
vn -0.1648351 0.9863212 0
vn -0.7967086 0.6043635 0
vn -0.7967086 0.6043635 0
vn -0.7967086 0.6043635 0
vn -0.7967086 0.6043635 0
vn 0.6900436 0.7237678 0
vn 0.6900436 0.7237678 0
vn 0.6900436 0.7237678 0
vn 0.6900436 0.7237678 0
vn 0.953204 0.3023279 0
vn 0.953204 0.3023279 0
vn 0.953204 0.3023279 0
vn 0.953204 0.3023279 0
vn -0.009045821 0.6114057 0.7912655
vn -0.009045821 0.6114057 0.7912655
vn -0.009045821 0.6114057 0.7912655
vn -0.009045821 0.6114057 0.7912655
vn -0.009046732 0.6114056 -0.7912657
vn -0.009046732 0.6114056 -0.7912657
vn -0.009046732 0.6114056 -0.7912657
vn -0.009046732 0.6114056 -0.7912657
vn 0.8769646 0.4805549 -1.265466E-07
vn 0.8769646 0.4805549 -1.265466E-07
vn 0.8769646 0.4805549 -1.265466E-07
vn 0.8769646 0.4805549 -1.265466E-07
vn 0.9993206 0.03685354 0
vn 0.9993206 0.03685354 0
vn 0.9993206 0.03685354 0
vn 0.9993206 0.03685354 0
vn 0.6983985 0.2041813 -0.6859661
vn 0.6983985 0.2041813 -0.6859661
vn 0.6983985 0.2041813 -0.6859661
vn 0.6983985 0.2041813 -0.6859661
vn 0.6983981 0.204181 0.6859666
vn 0.6983981 0.204181 0.6859666
vn 0.6983981 0.204181 0.6859666
vn 0.6983981 0.204181 0.6859666

vt 0.2839068 0.5955412
vt 0.2832793 0.598203
vt 0.2723826 0.5945504
vt 0.2830817 0.5902731
vt 0.2838089 0.5928361
vt 0.2723826 0.5945504
vt 0.2800295 0.5859595
vt 0.2818054 0.5879493
vt 0.2723826 0.5945504
vt 0.2838089 0.5928361
vt 0.2839068 0.5955412
vt 0.2723826 0.5945504
vt 0.2818054 0.5879493
vt 0.2830817 0.5902731
vt 0.2723826 0.5945504
vt 0.2777981 0.5844262
vt 0.2800295 0.5859595
vt 0.2723826 0.5945504
vt 0.3403264 0.6035593
vt 0.3298125 0.5913092
vt 0.3342639 0.5868769
vt 0.346646 0.5943345
vt 0.3247056 0.5829536
vt 0.3215427 0.5758517
vt 0.3254261 0.5741747
vt 0.3287009 0.5803332
vt 0.319408 0.5688194
vt 0.3183015 0.5605236
vt 0.323469 0.56075
vt 0.3235992 0.5678858
vt 0.3298125 0.5913092
vt 0.3247056 0.5829536
vt 0.3287009 0.5803332
vt 0.3342639 0.5868769
vt 0.3215427 0.5758517
vt 0.319408 0.5688194
vt 0.3235992 0.5678858
vt 0.3254261 0.5741747
vt 0.3183015 0.5605236
vt 0.3195581 0.5474759
vt 0.3273201 0.5512156
vt 0.323469 0.56075
vt 0.3342639 0.5868769
vt 0.3287009 0.5803332
vt 0.3366919 0.575244
vt 0.3410109 0.578391
vt 0.3254261 0.5741747
vt 0.3235992 0.5678858
vt 0.3314859 0.5673609
vt 0.3335221 0.5714663
vt 0.323469 0.56075
vt 0.3273201 0.5512156
vt 0.3329126 0.5591382
vt 0.3309256 0.5630335
vt 0.346646 0.5943345
vt 0.3342639 0.5868769
vt 0.3410109 0.578391
vt 0.3466459 0.5799689
vt 0.3287009 0.5803332
vt 0.3254261 0.5741747
vt 0.3335221 0.5714663
vt 0.3366919 0.575244
vt 0.3235992 0.5678858
vt 0.323469 0.56075
vt 0.3309256 0.5630335
vt 0.3314859 0.5673609
vt 0.3298125 0.5913092
vt 0.3403264 0.6035593
vt 0.3004775 0.6059491
vt 0.3012008 0.5977637
vt 0.3215427 0.5758517
vt 0.3247056 0.5829536
vt 0.3003916 0.5907968
vt 0.2986029 0.5846313
vt 0.3183015 0.5605236
vt 0.319408 0.5688194
vt 0.2959237 0.5788069
vt 0.2921058 0.5729817
vt 0.3247056 0.5829536
vt 0.3298125 0.5913092
vt 0.3012008 0.5977637
vt 0.3003916 0.5907968
vt 0.319408 0.5688194
vt 0.3215427 0.5758517
vt 0.2986029 0.5846313
vt 0.2959237 0.5788069
vt 0.3195581 0.5474759
vt 0.3183015 0.5605236
vt 0.2921058 0.5729817
vt 0.286388 0.5668541
vt 0.3003916 0.5907968
vt 0.3012008 0.5977637
vt 0.2839068 0.5955412
vt 0.2838089 0.5928361
vt 0.2959237 0.5788069
vt 0.2986029 0.5846313
vt 0.2830817 0.5902731
vt 0.2818054 0.5879493
vt 0.286388 0.5668541
vt 0.2921058 0.5729817
vt 0.2800295 0.5859595
vt 0.2777981 0.5844262
vt 0.3012008 0.5977637
vt 0.3004775 0.6059491
vt 0.2832793 0.598203
vt 0.2839068 0.5955412
vt 0.2986029 0.5846313
vt 0.3003916 0.5907968
vt 0.2838089 0.5928361
vt 0.2830817 0.5902731
vt 0.2921058 0.5729817
vt 0.2959237 0.5788069
vt 0.2818054 0.5879493
vt 0.2800295 0.5859595
vt 0.300553 0.4560925
vt 0.3009989 0.4506685
vt 0.3192941 0.45224
vt 0.3178053 0.4598849
vt 0.3012145 0.4450688
vt 0.3008686 0.4397531
vt 0.3254451 0.4372379
vt 0.3317553 0.4459602
vt 0.2999014 0.4348429
vt 0.2991393 0.4291466
vt 0.3312559 0.4217231
vt 0.3254541 0.4331688
vt 0.2991393 0.4613357
vt 0.300553 0.4560925
vt 0.3178053 0.4598849
vt 0.3278978 0.4692025
vt 0.3009989 0.4506685
vt 0.3012145 0.4450688
vt 0.3317553 0.4459602
vt 0.3192941 0.45224
vt 0.3008686 0.4397531
vt 0.2999014 0.4348429
vt 0.3254541 0.4331688
vt 0.3254451 0.4372379
vt 0.3317553 0.4459602
vt 0.3278978 0.4692025
vt 0.3241976 0.4601498
vt 0.3257458 0.4543638
vt 0.3254451 0.4372379
vt 0.3254541 0.4331688
vt 0.3270319 0.4343549
vt 0.326928 0.435862
vt 0.3270319 0.4343549
vt 0.3285221 0.4333743
vt 0.3279201 0.4368979
vt 0.326928 0.435862
vt 0.3312559 0.4217231
vt 0.3317553 0.4459602
vt 0.3279201 0.4368979
vt 0.3285221 0.4333743
vt 0.3317553 0.4459602
vt 0.3254451 0.4372379
vt 0.326928 0.435862
vt 0.3279201 0.4368979
vt 0.3254541 0.4331688
vt 0.3312559 0.4217231
vt 0.3285221 0.4333743
vt 0.3270319 0.4343549
vt 0.3230048 0.4547603
vt 0.3257458 0.4543638
vt 0.3241976 0.4601498
vt 0.3220283 0.4588317
vt 0.3178053 0.4598849
vt 0.3192941 0.45224
vt 0.3230048 0.4547603
vt 0.3220283 0.4588317
vt 0.3278978 0.4692025
vt 0.3178053 0.4598849
vt 0.3220283 0.4588317
vt 0.3241976 0.4601498
vt 0.3192941 0.45224
vt 0.3317553 0.4459602
vt 0.3257458 0.4543638
vt 0.3230048 0.4547603

usemtl LOW-POLY-COLORS
usemap LOW-POLY-COLORS
f 2/2/2 1/1/1 3/3/3
f 5/5/5 4/4/4 6/6/6
f 8/8/8 7/7/7 9/9/9
f 11/11/11 10/10/10 12/12/12
f 14/14/14 13/13/13 15/15/15
f 17/17/17 16/16/16 18/18/18
f 20/20/20 19/19/19 21/21/21
f 21/21/21 19/19/19 22/22/22
f 24/24/24 23/23/23 25/25/25
f 25/25/25 23/23/23 26/26/26
f 28/28/28 27/27/27 29/29/29
f 29/29/29 27/27/27 30/30/30
f 32/32/32 31/31/31 33/33/33
f 33/33/33 31/31/31 34/34/34
f 36/36/36 35/35/35 37/37/37
f 37/37/37 35/35/35 38/38/38
f 40/40/40 39/39/39 41/41/41
f 41/41/41 39/39/39 42/42/42
f 44/44/44 43/43/43 45/45/45
f 45/45/45 43/43/43 46/46/46
f 48/48/48 47/47/47 49/49/49
f 49/49/49 47/47/47 50/50/50
f 52/52/52 51/51/51 53/53/53
f 53/53/53 51/51/51 54/54/54
f 56/56/56 55/55/55 57/57/57
f 57/57/57 55/55/55 58/58/58
f 60/60/60 59/59/59 61/61/61
f 61/61/61 59/59/59 62/62/62
f 64/64/64 63/63/63 65/65/65
f 65/65/65 63/63/63 66/66/66
f 68/68/68 67/67/67 69/69/69
f 69/69/69 67/67/67 70/70/70
f 72/72/72 71/71/71 73/73/73
f 73/73/73 71/71/71 74/74/74
f 76/76/76 75/75/75 77/77/77
f 77/77/77 75/75/75 78/78/78
f 80/80/80 79/79/79 81/81/81
f 81/81/81 79/79/79 82/82/82
f 84/84/84 83/83/83 85/85/85
f 85/85/85 83/83/83 86/86/86
f 88/88/88 87/87/87 89/89/89
f 89/89/89 87/87/87 90/90/90
f 92/92/92 91/91/91 93/93/93
f 93/93/93 91/91/91 94/94/94
f 96/96/96 95/95/95 97/97/97
f 97/97/97 95/95/95 98/98/98
f 100/100/100 99/99/99 101/101/101
f 101/101/101 99/99/99 102/102/102
f 104/104/104 103/103/103 105/105/105
f 105/105/105 103/103/103 106/106/106
f 108/108/108 107/107/107 109/109/109
f 109/109/109 107/107/107 110/110/110
f 112/112/112 111/111/111 113/113/113
f 113/113/113 111/111/111 114/114/114
f 116/116/116 115/115/115 117/117/117
f 117/117/117 115/115/115 118/118/118
f 120/120/120 119/119/119 121/121/121
f 121/121/121 119/119/119 122/122/122
f 124/124/124 123/123/123 125/125/125
f 125/125/125 123/123/123 126/126/126
f 128/128/128 127/127/127 129/129/129
f 129/129/129 127/127/127 130/130/130
f 132/132/132 131/131/131 133/133/133
f 133/133/133 131/131/131 134/134/134
f 136/136/136 135/135/135 137/137/137
f 137/137/137 135/135/135 138/138/138
f 140/140/140 139/139/139 141/141/141
f 141/141/141 139/139/139 142/142/142
f 144/144/144 143/143/143 145/145/145
f 145/145/145 143/143/143 146/146/146
f 148/148/148 147/147/147 149/149/149
f 149/149/149 147/147/147 150/150/150
f 152/152/152 151/151/151 153/153/153
f 153/153/153 151/151/151 154/154/154
f 156/156/156 155/155/155 157/157/157
f 157/157/157 155/155/155 158/158/158
f 160/160/160 159/159/159 161/161/161
f 161/161/161 159/159/159 162/162/162
f 164/164/164 163/163/163 165/165/165
f 165/165/165 163/163/163 166/166/166
f 168/168/168 167/167/167 169/169/169
f 169/169/169 167/167/167 170/170/170
f 172/172/172 171/171/171 173/173/173
f 173/173/173 171/171/171 174/174/174
f 176/176/176 175/175/175 177/177/177
f 177/177/177 175/175/175 178/178/178
