mtllib ./cereal-box_1.mtl
g cereal-box
v -0.1250074 0.3700317 -0.04654311
v -0.1250074 0.3763825 -0.001122126
v -0.1250074 0.3700317 0.04654325
v 0.1250074 0.3700317 0.04654325
v 0.1250074 0.3763825 -0.001122126
v 0.1250074 0.3700317 -0.04654311
v -0.1230366 0.1603031 0.04654321
v -0.1250074 -7.582846E-09 0.04654318
v -0.1250074 7.582846E-09 -0.04654318
v -0.1230366 0.1603031 -0.04654314
v -0.1250074 0.3239202 0.04654325
v -0.1250074 0.3239202 -0.04654311
v -2.980232E-08 0.3700317 0.04654325
v 0.1250074 0.3763825 -0.001122126
v 0.1250074 0.3700317 0.04654325
v -2.980232E-08 0.3763825 -0.001122126
v -0.1250074 0.3700317 0.04654325
v -0.1250074 0.3763825 -0.001122126
v -2.980232E-08 0.3700317 -0.04654311
v -0.1250074 0.3763825 -0.001122126
v -0.1250074 0.3700317 -0.04654311
v -2.980232E-08 0.3763825 -0.001122126
v 0.1250074 0.3700317 -0.04654311
v 0.1250074 0.3763825 -0.001122126
v -2.980232E-08 0.3239202 -0.04654311
v -0.1250074 0.3239202 -0.04654311
v -0.1230366 0.1603031 -0.04654314
v -2.235174E-08 0.1603031 -0.04654314
v 0.1250074 0.3239202 -0.04654311
v -0.1250074 7.582846E-09 -0.04654318
v 0.1230366 0.1603031 -0.04654314
v -7.420778E-06 7.582845E-09 -0.04654318
v 0.1250074 7.582846E-09 -0.04654318
v 0.1236483 0.2811347 0.03271247
v 0.1236483 0.2811347 -0.03271235
v 0.1230366 0.1603031 -0.03271237
v 0.1230366 0.1603031 0.03271244
v -0.1250074 0.3239202 0.04654325
v -0.1250074 0.3239202 -0.04654311
v -0.1250074 0.3700317 -0.04654311
v -0.1250074 0.3700317 0.04654325
v -2.980232E-08 0.3239202 -0.04654311
v 0.1250074 0.3239202 -0.04654311
v 0.1250074 0.3700317 -0.04654311
v -2.980232E-08 0.3700317 -0.04654311
v -0.1250074 0.3239202 -0.04654311
v -0.1250074 0.3700317 -0.04654311
v 0.1250074 0.3239202 -0.04654311
v 0.1250074 0.3239202 0.04654325
v 0.1250074 0.3700317 0.04654325
v 0.1250074 0.3700317 -0.04654311
v -2.980232E-08 0.3239202 0.04654325
v -0.1250074 0.3239202 0.04654325
v -0.1250074 0.3700317 0.04654325
v -2.980232E-08 0.3700317 0.04654325
v 0.1250074 0.3239202 0.04654325
v 0.1250074 0.3700317 0.04654325
v 0.1250074 -7.582846E-09 0.04654318
v 0.1250074 7.582846E-09 -0.04654318
v -7.420778E-06 7.582845E-09 -0.04654318
v -7.420778E-06 -7.582848E-09 0.04654318
v -0.1250074 -7.582846E-09 0.04654318
v -0.1250074 7.582846E-09 -0.04654318
v -5.914629E-09 0.185542 0.04653931
v -0.07459881 0.1249052 0.04653931
v -0.0736868 0.1677819 0.04653931
v 3.260817E-09 0.1249052 0.04653931
v 0.07368683 0.1677819 0.04653931
v -0.05274932 0.08202855 0.0465393
v 0.07459881 0.1249052 0.04653931
v 6.521635E-09 0.06426844 0.04653931
v 0.05274935 0.08202855 0.0465393
v 0.05274935 0.08202855 0.0465393
v 0.07459881 0.1249052 0.04653931
v 0.1230366 0.1603031 0.04654321
v 0.07368683 0.1677819 0.04653931
v 0.1250074 -7.582846E-09 0.04654318
v 0.1250074 0.3239202 0.04654325
v 6.521635E-09 0.06426844 0.04653931
v -5.914629E-09 0.185542 0.04653931
v -7.420778E-06 -7.582848E-09 0.04654318
v -2.980232E-08 0.3239202 0.04654325
v -0.0736868 0.1677819 0.04653931
v -0.1250074 0.3239202 0.04654325
v -0.07459881 0.1249052 0.04653931
v -0.1230366 0.1603031 0.04654321
v -0.05274932 0.08202855 0.0465393
v -0.1250074 -7.582846E-09 0.04654318
v 0.1230366 0.1603031 0.03271244
v 0.1250074 0.3239202 0.04654325
v 0.1236483 0.2811347 0.03271247
v 0.1250074 0.3239202 -0.04654311
v 0.1236483 0.2811347 -0.03271235
v 0.1230366 0.1603031 -0.04654314
v 0.1230366 0.1603031 -0.03271237
v 0.1250074 7.582846E-09 -0.04654318
v 0.1230366 0.1603031 0.04654321
v 0.1250074 0.01069199 -0.03271241
v 0.1250074 -7.582846E-09 0.04654318
v 0.1250074 0.01069198 0.03271241

vn -1 0 0
vn -1 0 0
vn -1 0 0
vn 1 0 0
vn 1 0 0
vn 1 0 0
vn -0.9999244 0.01229313 0
vn -0.9999244 0.01229313 0
vn -0.9999244 0.01229313 0
vn -0.9999244 0.01229313 0
vn -0.9999275 -0.01204417 0
vn -0.9999275 -0.01204417 0
vn 0 0.9912404 0.1320704
vn 0 0.9912404 0.1320704
vn 0 0.9912404 0.1320704
vn 0 0.9912404 0.1320704
vn 0 0.9912403 0.1320704
vn 0 0.9912403 0.1320704
vn 0 0.990366 -0.1384741
vn 0 0.990366 -0.1384741
vn 0 0.990366 -0.1384741
vn 0 0.990366 -0.1384741
vn 0 0.990366 -0.1384741
vn 0 0.990366 -0.1384741
vn 0 0 -1
vn 0 0 -1
vn 0 0 -1
vn 0 0 -1
vn 0 0 -1
vn 0 0 -1
vn 0 0 -1
vn 0 0 -1
vn 0 0 -1
vn 0.9999872 -0.005062538 0
vn 0.9999872 -0.005062538 0
vn 0.9999872 -0.005062538 0
vn 0.9999872 -0.005062538 0
vn -1 0 0
vn -1 0 0
vn -1 0 0
vn -1 0 0
vn 0 0 -1
vn 0 0 -1
vn 0 0 -1
vn 0 0 -1
vn 0 0 -1
vn 0 0 -1
vn 1 0 0
vn 1 0 0
vn 1 0 0
vn 1 0 0
vn 0 0 1
vn 0 0 1
vn 0 0 1
vn 0 0 1
vn 0 0 1
vn 0 0 1
vn 0 -1 0
vn 0 -1 0
vn 0 -1 0
vn 0 -1 0
vn 0 -1 0
vn 0 -1 0
vn 0 0 1
vn 0 0 1
vn 0 0 1
vn 0 0 1
vn 0 0 1
vn 0 0 1
vn 0 0 1
vn 0 0 1
vn 0 0 1
vn 0 5.041765E-05 1
vn -6.220388E-05 0 1
vn -6.220388E-05 0 1
vn -7.907683E-05 0 1
vn 0 5.041765E-05 1
vn -7.907683E-05 0 1
vn 0 5.041765E-05 1
vn 0 -2.635839E-05 1
vn 0 5.041765E-05 1
vn 0 -2.635839E-05 1
vn 0 -2.634272E-05 1
vn 0 -2.634272E-05 1
vn 7.907667E-05 0 1
vn 7.907667E-05 0 1
vn 0 5.046664E-05 1
vn 0 5.046664E-05 1
vn 0.9999132 0.01317147 0
vn 0.9993438 -0.009072966 -0.03506479
vn 0.9993438 -0.009072966 -0.03506479
vn 0.9994959 -0.03174811 0
vn 0.9994959 -0.03174811 0
vn 0.999907 0.01271697 -0.004916071
vn 0.9999132 0.01317147 0
vn 0.999907 0.01271697 -0.004916071
vn 0.9993438 -0.009072966 -0.03506479
vn 0.9999132 0.01317147 0
vn 1 0 0
vn 0.9999132 0.01317147 0

vt 0.6776493 0.5790815
vt 0.67812 0.575631
vt 0.6776493 0.5720741
vt 0.6971658 0.5722122
vt 0.6966794 0.5758295
vt 0.6971356 0.5792225
vt 0.6848345 0.5592056
vt 0.6847453 0.5469505
vt 0.6776493 0.5469904
vt 0.6777179 0.5592115
vt 0.6847219 0.5717157
vt 0.6776493 0.5716651
vt 0.6874349 0.571953
vt 0.6966794 0.5758295
vt 0.6971658 0.5722122
vt 0.6874012 0.5757362
vt 0.6776493 0.5720741
vt 0.67812 0.575631
vt 0.6873688 0.5793409
vt 0.67812 0.575631
vt 0.6776493 0.5790815
vt 0.6874012 0.5757362
vt 0.6971356 0.5792225
vt 0.6966794 0.5758295
vt 0.7206298 0.564601
vt 0.7301747 0.564601
vt 0.7300242 0.5521081
vt 0.7206298 0.5521081
vt 0.711085 0.564601
vt 0.7301747 0.5398683
vt 0.7112354 0.5521081
vt 0.7206304 0.5398683
vt 0.711085 0.5398683
vt 0.1827578 0.06217831
vt 0.1877533 0.06217831
vt 0.1877533 0.05295217
vt 0.1827578 0.05295217
vt 0.3252466 0.2659542
vt 0.318139 0.2659542
vt 0.318139 0.269475
vt 0.3252465 0.269475
vt 0.3474053 0.2657495
vt 0.3569501 0.2657495
vt 0.3569501 0.2622287
vt 0.3474053 0.2622287
vt 0.3378604 0.2657495
vt 0.3378604 0.2622287
vt 0.3514438 0.2659542
vt 0.3443362 0.2659542
vt 0.3443362 0.269475
vt 0.3514438 0.269475
vt 0.3347914 0.2659542
vt 0.3252466 0.2659542
vt 0.3252465 0.269475
vt 0.3347914 0.269475
vt 0.3443362 0.2659542
vt 0.3443362 0.269475
vt 0.7037755 0.5469471
vt 0.7037662 0.5398683
vt 0.6942598 0.539878
vt 0.694261 0.5469641
vt 0.6847453 0.5469505
vt 0.6847528 0.5398709
vt 0.1827739 0.05119544
vt 0.1771777 0.04644555
vt 0.1771777 0.04972005
vt 0.1828724 0.04656667
vt 0.1884277 0.04995936
vt 0.1789153 0.04320794
vt 0.188567 0.04668772
vt 0.1829708 0.04193783
vt 0.1869687 0.04337919
vt 0.6982942 0.5532215
vt 0.6999713 0.5565015
vt 0.7036965 0.5592206
vt 0.6999017 0.5597857
vt 0.7037755 0.5469471
vt 0.7037538 0.5717483
vt 0.6942619 0.5518664
vt 0.6942568 0.5611414
vt 0.694261 0.5469641
vt 0.6942408 0.571708
vt 0.6886176 0.5597764
vt 0.6847219 0.5717157
vt 0.6885537 0.5564957
vt 0.6848345 0.5592056
vt 0.6902308 0.5532205
vt 0.6847453 0.5469505
vt 0.7047572 0.5592216
vt 0.7037538 0.5717483
vt 0.7047962 0.5684772
vt 0.7108564 0.5717233
vt 0.7097907 0.5684589
vt 0.7108271 0.5592287
vt 0.7097706 0.5592276
vt 0.7108803 0.5469829
vt 0.7036965 0.5592206
vt 0.7098203 0.5477939
vt 0.7037755 0.5469471
vt 0.7048252 0.5477683

usemtl LOW-POLY-COLORS
usemap LOW-POLY-COLORS
f 2/2/2 1/1/1 3/3/3
f 5/5/5 4/4/4 6/6/6
f 8/8/8 7/7/7 9/9/9
f 9/9/9 7/7/7 10/10/10
f 7/7/7 11/11/11 10/10/10
f 10/10/10 11/11/11 12/12/12
f 14/14/14 13/13/13 15/15/15
f 16/16/16 13/13/13 14/14/14
f 16/16/16 17/17/17 13/13/13
f 18/18/18 17/17/17 16/16/16
f 20/20/20 19/19/19 21/21/21
f 22/22/22 19/19/19 20/20/20
f 22/22/22 23/23/23 19/19/19
f 24/24/24 23/23/23 22/22/22
f 26/26/26 25/25/25 27/27/27
f 27/27/27 25/25/25 28/28/28
f 25/25/25 29/29/29 28/28/28
f 27/27/27 28/28/28 30/30/30
f 28/28/28 29/29/29 31/31/31
f 30/30/30 28/28/28 32/32/32
f 28/28/28 31/31/31 32/32/32
f 32/32/32 31/31/31 33/33/33
f 35/35/35 34/34/34 36/36/36
f 36/36/36 34/34/34 37/37/37
f 39/39/39 38/38/38 40/40/40
f 40/40/40 38/38/38 41/41/41
f 43/43/43 42/42/42 44/44/44
f 44/44/44 42/42/42 45/45/45
f 42/42/42 46/46/46 45/45/45
f 45/45/45 46/46/46 47/47/47
f 49/49/49 48/48/48 50/50/50
f 50/50/50 48/48/48 51/51/51
f 53/53/53 52/52/52 54/54/54
f 54/54/54 52/52/52 55/55/55
f 52/52/52 56/56/56 55/55/55
f 55/55/55 56/56/56 57/57/57
f 59/59/59 58/58/58 60/60/60
f 60/60/60 58/58/58 61/61/61
f 61/61/61 62/62/62 60/60/60
f 60/60/60 62/62/62 63/63/63
f 65/65/65 64/64/64 66/66/66
f 67/67/67 64/64/64 65/65/65
f 67/67/67 68/68/68 64/64/64
f 69/69/69 67/67/67 65/65/65
f 70/70/70 68/68/68 67/67/67
f 71/71/71 67/67/67 69/69/69
f 71/71/71 70/70/70 67/67/67
f 72/72/72 70/70/70 71/71/71
f 74/74/74 73/73/73 75/75/75
f 74/74/74 75/75/75 76/76/76
f 75/75/75 73/73/73 77/77/77
f 76/76/76 75/75/75 78/78/78
f 79/79/79 77/77/77 73/73/73
f 78/78/78 80/80/80 76/76/76
f 81/81/81 77/77/77 79/79/79
f 82/82/82 80/80/80 78/78/78
f 80/80/80 82/82/82 83/83/83
f 83/83/83 82/82/82 84/84/84
f 83/83/83 84/84/84 85/85/85
f 85/85/85 84/84/84 86/86/86
f 79/79/79 87/87/87 81/81/81
f 85/85/85 86/86/86 87/87/87
f 81/81/81 87/87/87 88/88/88
f 87/87/87 86/86/86 88/88/88
f 90/90/90 89/89/89 91/91/91
f 90/90/90 91/91/91 92/92/92
f 92/92/92 91/91/91 93/93/93
f 92/92/92 93/93/93 94/94/94
f 94/94/94 93/93/93 95/95/95
f 94/94/94 95/95/95 96/96/96
f 97/97/97 89/89/89 90/90/90
f 96/96/96 95/95/95 98/98/98
f 95/95/95 89/89/89 98/98/98
f 96/96/96 98/98/98 99/99/99
f 99/99/99 100/100/100 97/97/97
f 97/97/97 100/100/100 89/89/89
f 98/98/98 89/89/89 100/100/100
f 99/99/99 98/98/98 100/100/100
