mtllib ./cheese-slice_27.mtl
g cheese-slice
v -1.487589E-09 0.06707041 0.0004066261
v 0.05766627 0.06707041 0.1778851
v -0.05766624 0.06707041 0.1778851
v 1.243204E-18 -0.066511 0.0004066336
v -0.05735015 -0.06651099 0.1769123
v 0.05735017 -0.066511 0.1769123
v -1.487589E-09 0.06707041 0.0004066261
v -0.01097588 0.03972486 0.03418694
v -0.008640786 0.03028611 0.02700024
v 1.243204E-18 -0.066511 0.0004066336
v -0.008640786 0.03028611 0.02700024
v -0.01017265 0.01948502 0.03171483
v -0.02680088 -0.02538028 0.08289128
v -0.01353951 0.01939229 0.04207694
v -0.02544689 -0.04347587 0.07872414
v -0.03377048 -0.0389949 0.1043415
v -0.05735015 -0.06651099 0.1769123
v -0.01353951 0.01939229 0.04207694
v -0.03986796 -0.005326526 0.1231076
v -0.01467046 0.03078361 0.04555766
v -0.04265346 0.01818185 0.1316805
v -0.05766624 0.06707041 0.1778851
v -0.01097588 0.03972486 0.03418694
v -0.04994006 0.02516445 0.1541064
v -0.06180339 -0.04792958 0.1906179
v -0.06180339 0.04848901 0.1906179
v -0.05210597 0.0002066775 0.1607724
v -0.04958811 -0.02010175 0.1530232
v -0.03377048 -0.0389949 0.1043415
v -0.04273364 -0.02171175 0.1319273
v -0.02680088 -0.02538028 0.08289128
v -0.04273364 -0.02171175 0.1319273
v -0.03986796 -0.005326526 0.1231076
v -0.003073031 0.02805907 0.03898994
v -0.008640786 0.03028611 0.02700024
v -0.01097588 0.03972486 0.03418694
v -0.003073031 0.02805907 0.03898994
v -0.01097588 0.03972486 0.03418694
v -0.01467046 0.03078361 0.04555766
v -0.003073031 0.02805907 0.03898994
v -0.01467046 0.03078361 0.04555766
v -0.01353951 0.01939229 0.04207694
v -0.003073031 0.02805907 0.03898994
v -0.01353951 0.01939229 0.04207694
v -0.01017265 0.01948502 0.03171483
v -0.003073031 0.02805907 0.03898994
v -0.01017265 0.01948502 0.03171483
v -0.008640786 0.03028611 0.02700024
v -0.02449021 -0.03824598 0.09168699
v -0.02544689 -0.04347587 0.07872414
v -0.02680088 -0.02538028 0.08289128
v -0.02449021 -0.03824598 0.09168699
v -0.02680088 -0.02538028 0.08289128
v -0.03377048 -0.0389949 0.1043415
v -0.02449021 -0.03824598 0.09168699
v -0.03377048 -0.0389949 0.1043415
v -0.02544689 -0.04347587 0.07872414
v 0.06180342 -0.04792958 0.1906179
v -0.06180339 -0.04792958 0.1906179
v -0.06180339 0.04848901 0.1906179
v 0.06180342 0.04848901 0.1906179
v -0.06180339 0.04848901 0.1906179
v -0.05766624 0.06707041 0.1778851
v 0.05766627 0.06707041 0.1778851
v 0.06180342 0.04848901 0.1906179
v -0.06180339 -0.04792958 0.1906179
v 0.06180342 -0.04792958 0.1906179
v 0.05735017 -0.066511 0.1769123
v -0.05735015 -0.06651099 0.1769123
v 0.04377958 0.005360073 0.1351463
v 0.05766627 0.06707041 0.1778851
v 0.04760274 0.02185722 0.1469128
v 0.05735017 -0.066511 0.1769123
v 0.06180342 -0.04792958 0.1906179
v 0.06180342 0.04848901 0.1906179
v 0.04518463 0.03776494 0.1394706
v 0.04760274 0.02185722 0.1469128
v 0.03870423 0.01096817 0.119526
v 0.05735017 -0.066511 0.1769123
v 0.02302139 -0.01371359 0.07125916
v -1.487589E-09 0.06707041 0.0004066261
v 0.04010929 0.03714543 0.1238503
v 0.05766627 0.06707041 0.1778851
v 0.02302139 -0.01371359 0.07125916
v 0.01607739 -0.03868996 0.04988775
v 1.243204E-18 -0.066511 0.0004066336
v 0.009799697 -0.02409095 0.03056699
v 0.01066639 0.004703654 0.0332344
v -1.487589E-09 0.06707041 0.0004066261
v 0.01874052 0.006199679 0.058084
v 0.03769062 0.02914209 0.1164064
v 0.03870423 0.01096817 0.119526
v 0.04010929 0.03714543 0.1238503
v 0.02819646 0.015734 0.1279738
v 0.03136735 0.01486237 0.1377328
v 0.03375591 0.02253707 0.1450841
v 0.0275632 0.02708838 0.1260248
v 0.03224517 0.03247561 0.1404345
v 0.02907429 0.03208856 0.1306755
v 0.04010929 0.03714543 0.1238503
v 0.02907429 0.03208856 0.1306755
v 0.03224517 0.03247561 0.1404345
v 0.04518463 0.03776494 0.1394706
v 0.03870423 0.01096817 0.119526
v 0.02819646 0.015734 0.1279738
v 0.0275632 0.02708838 0.1260248
v 0.03769062 0.02914209 0.1164064
v 0.04760274 0.02185722 0.1469128
v 0.03375591 0.02253707 0.1450841
v 0.03136735 0.01486237 0.1377328
v 0.04377958 0.005360073 0.1351463
v 0.03769062 0.02914209 0.1164064
v 0.0275632 0.02708838 0.1260248
v 0.02907429 0.03208856 0.1306755
v 0.04010929 0.03714543 0.1238503
v 0.04377958 0.005360073 0.1351463
v 0.03136735 0.01486237 0.1377328
v 0.02819646 0.015734 0.1279738
v 0.03870423 0.01096817 0.119526
v 0.04518463 0.03776494 0.1394706
v 0.03224517 0.03247561 0.1404345
v 0.03375591 0.02253707 0.1450841
v 0.04760274 0.02185722 0.1469128
v 0.007531953 -0.02031867 0.0424609
v 0.01011856 -0.02633393 0.05042168
v 0.01383212 -0.01297691 0.06185083
v 0.009678575 -0.001393238 0.03885979
v 0.01206623 -0.00476254 0.05641596
v 0.01383212 -0.01297691 0.06185083
v 0.02302139 -0.01371359 0.07125916
v 0.01874052 0.006199679 0.058084
v 0.01206623 -0.00476254 0.05641596
v 0.01206623 -0.00476254 0.05641596
v 0.01874052 0.006199679 0.058084
v 0.01066639 0.004703654 0.0332344
v 0.009678575 -0.001393238 0.03885979
v 0.009678575 -0.001393238 0.03885979
v 0.01066639 0.004703654 0.0332344
v 0.009799697 -0.02409095 0.03056699
v 0.007531953 -0.02031867 0.0424609
v 0.007531953 -0.02031867 0.0424609
v 0.009799697 -0.02409095 0.03056699
v 0.01607739 -0.03868996 0.04988775
v 0.01011856 -0.02633393 0.05042168
v 0.01011856 -0.02633393 0.05042168
v 0.01607739 -0.03868996 0.04988775
v 0.02302139 -0.01371359 0.07125916
v 0.01383212 -0.01297691 0.06185083
v -0.03802136 -0.01144002 0.1504527
v -0.03459343 -0.01224519 0.1399026
v -0.03343103 -0.00559883 0.1363251
v -0.04417918 -0.002437772 0.1564307
v -0.03460844 0.008007742 0.1399488
v -0.03836479 0.01007237 0.1515096
v -0.03343103 -0.00559883 0.1363251
v -0.03986796 -0.005326526 0.1231076
v -0.04265346 0.01818185 0.1316805
v -0.03460844 0.008007742 0.1399488
v -0.03460844 0.008007742 0.1399488
v -0.04265346 0.01818185 0.1316805
v -0.04994006 0.02516445 0.1541064
v -0.03836479 0.01007237 0.1515096
v -0.03836479 0.01007237 0.1515096
v -0.04994006 0.02516445 0.1541064
v -0.05210597 0.0002066775 0.1607724
v -0.04417918 -0.002437772 0.1564307
v -0.04417918 -0.002437772 0.1564307
v -0.05210597 0.0002066775 0.1607724
v -0.04958811 -0.02010175 0.1530232
v -0.03802136 -0.01144002 0.1504527
v -0.03802136 -0.01144002 0.1504527
v -0.04958811 -0.02010175 0.1530232
v -0.04273364 -0.02171175 0.1319273
v -0.03459343 -0.01224519 0.1399026
v -0.03459343 -0.01224519 0.1399026
v -0.04273364 -0.02171175 0.1319273
v -0.03986796 -0.005326526 0.1231076
v -0.03343103 -0.00559883 0.1363251

vn 0 1 0
vn 0 1 0
vn 0 1 0
vn 0 -1 0
vn 0 -1 0
vn 0 -1 0
vn -0.9510565 0 -0.3090166
vn -0.9510565 0 -0.3090166
vn -0.9510565 0 -0.3090166
vn -0.9510565 0 -0.3090168
vn -0.9510565 0 -0.3090169
vn -0.9510565 0 -0.3090169
vn -0.9510565 0 -0.3090169
vn -0.9510565 0 -0.3090168
vn -0.9510565 0 -0.3090168
vn -0.9510565 0 -0.309017
vn -0.9510565 0 -0.309017
vn -0.9510565 0 -0.3090169
vn -0.9510565 0 -0.3090169
vn -0.9510565 0 -0.3090169
vn -0.9510565 0 -0.3090169
vn -0.9510567 0 -0.3090163
vn -0.9510565 0 -0.3090169
vn -0.9510565 0 -0.309017
vn -0.9510567 0 -0.3090163
vn -0.9510567 0 -0.3090163
vn -0.9510565 0 -0.309017
vn -0.9510565 0 -0.309017
vn -0.9510565 0 -0.309017
vn -0.9510565 0 -0.309017
vn -0.9510565 0 -0.3090169
vn -0.9510565 0 -0.3090169
vn -0.9510565 0 -0.3090169
vn -0.8416761 -0.4431514 0.3085421
vn -0.8416761 -0.4431514 0.3085421
vn -0.8416761 -0.4431514 0.3085421
vn -0.4970702 -0.5962725 -0.6303812
vn -0.4970702 -0.5962725 -0.6303812
vn -0.4970702 -0.5962725 -0.6303812
vn -0.4404493 0.2220701 -0.8698789
vn -0.4404493 0.2220701 -0.8698789
vn -0.4404493 0.2220701 -0.8698789
vn -0.6594911 0.7224151 -0.207817
vn -0.6594911 0.7224151 -0.207817
vn -0.6594911 0.7224151 -0.207817
vn -0.8374906 0.3139914 0.4472348
vn -0.8374906 0.3139914 0.4472348
vn -0.8374906 0.3139914 0.4472348
vn -0.9885067 -0.1000612 0.1133238
vn -0.9885067 -0.1000612 0.1133238
vn -0.9885067 -0.1000612 0.1133238
vn -0.6892748 -0.4891628 -0.5344342
vn -0.6892748 -0.4891628 -0.5344342
vn -0.6892748 -0.4891628 -0.5344342
vn -0.4745266 0.8279035 -0.2989989
vn -0.4745266 0.8279035 -0.2989989
vn -0.4745266 0.8279035 -0.2989989
vn 0 0 1
vn 0 0 1
vn 0 0 1
vn 0 0 1
vn 0 0.5652657 0.824909
vn 0 0.5652657 0.824909
vn 0 0.5652657 0.824909
vn 0 0.5652657 0.824909
vn 0 -0.5935944 0.8047643
vn 0 -0.5935944 0.8047643
vn 0 -0.5935944 0.8047643
vn 0 -0.5935944 0.8047643
vn 0.9510565 0 -0.3090169
vn 0.9510565 0 -0.3090169
vn 0.9510565 0 -0.3090169
vn 0.9510565 0 -0.3090169
vn 0.9510562 0 -0.3090177
vn 0.9510562 0 -0.3090177
vn 0.9510565 0 -0.3090169
vn 0.9510565 0 -0.3090169
vn 0.9510565 0 -0.3090171
vn 0.9510565 0 -0.3090171
vn 0.9510565 0 -0.309017
vn 0.9510565 0 -0.3090171
vn 0.9510565 0 -0.3090171
vn 0.9510565 0 -0.3090171
vn 0.9510565 0 -0.3090171
vn 0.9510565 0 -0.3090171
vn 0.9510565 0 -0.3090171
vn 0.9510565 0 -0.3090171
vn 0.9510565 0 -0.3090171
vn 0.9510565 0 -0.3090171
vn 0.9510565 0 -0.3090171
vn 0.9510565 0 -0.3090171
vn 0.9510565 0 -0.309017
vn 0.9510565 0 -0.309017
vn 0.9510565 0 -0.3090172
vn 0.9510565 0 -0.3090172
vn 0.9510565 0 -0.3090172
vn 0.9510565 0 -0.3090172
vn 0.9510565 0 -0.3090172
vn 0.9510565 0 -0.3090172
vn 0.3716692 -0.9245487 -0.08409386
vn 0.3716692 -0.9245487 -0.08409386
vn 0.3716692 -0.9245487 -0.08409386
vn 0.3716692 -0.9245487 -0.08409386
vn 0.6619691 0.1625185 0.7316998
vn 0.6619691 0.1625185 0.7316998
vn 0.6619691 0.1625185 0.7316998
vn 0.6619691 0.1625185 0.7316998
vn 0.2003063 0.5755824 -0.7928318
vn 0.2003063 0.5755824 -0.7928318
vn 0.2003063 0.5755824 -0.7928318
vn 0.2003063 0.5755824 -0.7928318
vn 0.5951552 -0.6363372 0.4907804
vn 0.5951552 -0.6363372 0.4907804
vn 0.5951552 -0.6363372 0.4907804
vn 0.5951552 -0.6363372 0.4907804
vn 0.541393 0.8398865 0.03852672
vn 0.541393 0.8398865 0.03852672
vn 0.541393 0.8398865 0.03852672
vn 0.541393 0.8398865 0.03852672
vn 0.09969575 -0.4091687 -0.906996
vn 0.09969575 -0.4091687 -0.906996
vn 0.09969575 -0.4091687 -0.906996
vn 0.09969575 -0.4091687 -0.906996
vn 0.9679805 -0.06452145 -0.2425918
vn 0.9679805 -0.06452145 -0.2425918
vn 0.9679805 -0.06452145 -0.2425918
vn 0.9679805 -0.06452145 -0.2425918
vn 0.9679805 -0.06452145 -0.2425918
vn 0.6694012 -0.3044486 -0.6776528
vn 0.6694012 -0.3044486 -0.6776528
vn 0.6694012 -0.3044486 -0.6776528
vn 0.6694012 -0.3044486 -0.6776528
vn 0.8657163 -0.4429213 -0.2331438
vn 0.8657163 -0.4429213 -0.2331438
vn 0.8657163 -0.4429213 -0.2331438
vn 0.8657163 -0.4429213 -0.2331438
vn 0.9828457 -0.05864121 0.1748583
vn 0.9828457 -0.05864121 0.1748583
vn 0.9828457 -0.05864121 0.1748583
vn 0.9828457 -0.05864121 0.1748583
vn 0.9007745 0.4329196 0.03444038
vn 0.9007745 0.4329196 0.03444038
vn 0.9007745 0.4329196 0.03444038
vn 0.9007745 0.4329196 0.03444038
vn 0.6821671 0.3565674 -0.6383634
vn 0.6821671 0.3565674 -0.6383634
vn 0.6821671 0.3565674 -0.6383634
vn 0.6821671 0.3565674 -0.6383634
vn -0.907088 0.006197994 -0.4208953
vn -0.907088 0.006197994 -0.4208953
vn -0.907088 0.006197994 -0.4208953
vn -0.907088 0.006197994 -0.4208953
vn -0.907088 0.006197994 -0.4208953
vn -0.907088 0.006197994 -0.4208953
vn -0.855029 -0.2420145 0.458644
vn -0.855029 -0.2420145 0.458644
vn -0.855029 -0.2420145 0.458644
vn -0.855029 -0.2420145 0.458644
vn -0.7773287 -0.6230912 -0.08670317
vn -0.7773287 -0.6230912 -0.08670317
vn -0.7773287 -0.6230912 -0.08670317
vn -0.7773287 -0.6230912 -0.08670317
vn -0.4639574 -0.1700421 -0.8693843
vn -0.4639574 -0.1700421 -0.8693843
vn -0.4639574 -0.1700421 -0.8693843
vn -0.4639574 -0.1700421 -0.8693843
vn -0.3980794 0.2897969 -0.8703738
vn -0.3980794 0.2897969 -0.8703738
vn -0.3980794 0.2897969 -0.8703738
vn -0.3980794 0.2897969 -0.8703738
vn -0.6152249 0.7453595 -0.2567829
vn -0.6152249 0.7453595 -0.2567829
vn -0.6152249 0.7453595 -0.2567829
vn -0.6152249 0.7453595 -0.2567829
vn -0.8329211 0.3680954 0.4132171
vn -0.8329211 0.3680954 0.4132171
vn -0.8329211 0.3680954 0.4132171
vn -0.8329211 0.3680954 0.4132171

vt 0.675977 0.6134843
vt 0.6872696 0.5787293
vt 0.6646844 0.5787293
vt 0.675977 0.5163508
vt 0.6647463 0.5509154
vt 0.6872077 0.5509154
vt 0.8321176 0.8123442
vt 0.8272665 0.8058484
vt 0.8252355 0.8073074
vt 0.8054822 0.8129792
vt 0.8252355 0.8073074
vt 0.823032 0.8063122
vt 0.814144 0.7950596
vt 0.8230047 0.8040137
vt 0.8102854 0.7960002
vt 0.8112217 0.7907466
vt 0.8058156 0.7752098
vt 0.8230047 0.8040137
vt 0.8179986 0.7865541
vt 0.8253454 0.8031161
vt 0.8225853 0.7847641
vt 0.8322564 0.7748311
vt 0.8272665 0.8058484
vt 0.8239196 0.7799212
vt 0.8093532 0.7724274
vt 0.8285304 0.7722101
vt 0.8189561 0.7784798
vt 0.8150154 0.7801881
vt 0.8112217 0.7907466
vt 0.8147024 0.7846667
vt 0.814144 0.7950596
vt 0.8147024 0.7846667
vt 0.8179986 0.7865541
vt 0.8248203 0.8052932
vt 0.8252355 0.8073074
vt 0.8272665 0.8058484
vt 0.8248203 0.8052932
vt 0.8272665 0.8058484
vt 0.8253454 0.8031161
vt 0.8248203 0.8052932
vt 0.8253454 0.8031161
vt 0.8230047 0.8040137
vt 0.8248203 0.8052932
vt 0.8230047 0.8040137
vt 0.823032 0.8063122
vt 0.8248203 0.8052932
vt 0.823032 0.8063122
vt 0.8252355 0.8073074
vt 0.8116487 0.7937558
vt 0.8102854 0.7960002
vt 0.814144 0.7950596
vt 0.8116487 0.7937558
vt 0.814144 0.7950596
vt 0.8112217 0.7907466
vt 0.8116487 0.7937558
vt 0.8112217 0.7907466
vt 0.8102854 0.7960002
vt 0.6880798 0.5554368
vt 0.6638742 0.5554368
vt 0.6638742 0.5743182
vt 0.6880798 0.5743182
vt 0.6638742 0.5743182
vt 0.6646844 0.5787293
vt 0.6872696 0.5787293
vt 0.6880798 0.5743182
vt 0.6638742 0.5554368
vt 0.6880798 0.5554368
vt 0.6872077 0.5509154
vt 0.6647463 0.5509154
vt 0.8202906 0.8412728
vt 0.8322564 0.8490179
vt 0.8240505 0.8436021
vt 0.8066127 0.8501678
vt 0.8103236 0.8527459
vt 0.8288257 0.8517742
vt 0.8269677 0.8418256
vt 0.8240505 0.8436021
vt 0.8213478 0.8377777
vt 0.8066127 0.8501678
vt 0.8163231 0.8274879
vt 0.8321176 0.8123442
vt 0.8267779 0.8386606
vt 0.8322564 0.8490179
vt 0.8163231 0.8274879
vt 0.8113433 0.8232332
vt 0.8054822 0.8129792
vt 0.8140948 0.8190575
vt 0.81985 0.8194902
vt 0.8321176 0.8123442
vt 0.8202692 0.8247019
vt 0.8250844 0.8371001
vt 0.8213478 0.8377777
vt 0.8267779 0.8386606
vt 0.6838312 0.8071204
vt 0.6818841 0.8065956
vt 0.6801275 0.8078057
vt 0.6838312 0.8093798
vt 0.680724 0.8098911
vt 0.6827149 0.8101734
vt 0.8267779 0.8386606
vt 0.8249716 0.8397689
vt 0.8251184 0.8408339
vt 0.8269677 0.8418256
vt 0.8213478 0.8377777
vt 0.8231875 0.8393227
vt 0.8244175 0.8392254
vt 0.8250844 0.8371001
vt 0.8240505 0.8436021
vt 0.8240599 0.841285
vt 0.8229523 0.8405952
vt 0.8202906 0.8412728
vt 0.8250844 0.8371001
vt 0.8244175 0.8392254
vt 0.8249716 0.8397689
vt 0.8267779 0.8386606
vt 0.8202906 0.8412728
vt 0.8229523 0.8405952
vt 0.8231875 0.8393227
vt 0.8213478 0.8377777
vt 0.8269677 0.8418256
vt 0.8251184 0.8408339
vt 0.8240599 0.841285
vt 0.8240505 0.8436021
vt 0.6830726 0.8017873
vt 0.685079 0.8015666
vt 0.685079 0.7980481
vt 0.6801275 0.7993923
vt 0.6831712 0.7976007
vt 0.8164743 0.824945
vt 0.8163231 0.8274879
vt 0.8202692 0.8247019
vt 0.8179074 0.8238617
vt 0.8179074 0.8238617
vt 0.8202692 0.8247019
vt 0.81985 0.8194902
vt 0.8186056 0.8205905
vt 0.8186056 0.8205905
vt 0.81985 0.8194902
vt 0.8140948 0.8190575
vt 0.8150618 0.8213514
vt 0.8150618 0.8213514
vt 0.8140948 0.8190575
vt 0.8113433 0.8232332
vt 0.8139753 0.8228817
vt 0.8139753 0.8228817
vt 0.8113433 0.8232332
vt 0.8163231 0.8274879
vt 0.8164743 0.824945
vt 0.682072 0.8020022
vt 0.6801275 0.8029833
vt 0.6801645 0.8044784
vt 0.6844237 0.8026358
vt 0.682174 0.8063806
vt 0.6844237 0.8055041
vt 0.8180982 0.7839274
vt 0.8179986 0.7865541
vt 0.8225853 0.7847641
vt 0.8201908 0.783376
vt 0.8201908 0.783376
vt 0.8225853 0.7847641
vt 0.8239196 0.7799212
vt 0.8206184 0.7814234
vt 0.8206184 0.7814234
vt 0.8239196 0.7799212
vt 0.8189561 0.7784798
vt 0.8185475 0.7801833
vt 0.8185475 0.7801833
vt 0.8189561 0.7784798
vt 0.8150154 0.7801881
vt 0.8172663 0.7816772
vt 0.8172663 0.7816772
vt 0.8150154 0.7801881
vt 0.8147024 0.7846667
vt 0.8170457 0.7833751
vt 0.8170457 0.7833751
vt 0.8147024 0.7846667
vt 0.8179986 0.7865541
vt 0.8180982 0.7839274

usemtl LOW-POLY-COLORS
usemap LOW-POLY-COLORS
f 2/2/2 1/1/1 3/3/3
f 5/5/5 4/4/4 6/6/6
f 8/8/8 7/7/7 9/9/9
f 7/7/7 10/10/10 11/11/11
f 11/11/11 10/10/10 12/12/12
f 10/10/10 13/13/13 12/12/12
f 12/12/12 13/13/13 14/14/14
f 13/13/13 10/10/10 15/15/15
f 15/15/15 10/10/10 16/16/16
f 16/16/16 10/10/10 17/17/17
f 19/19/19 18/18/18 13/13/13
f 19/19/19 20/20/20 14/14/14
f 21/21/21 20/20/20 19/19/19
f 21/21/21 22/22/22 20/20/20
f 23/23/23 22/22/22 7/7/7
f 20/20/20 22/22/22 23/23/23
f 24/24/24 22/22/22 21/21/21
f 24/24/24 25/25/25 22/22/22
f 22/22/22 25/25/25 26/26/26
f 27/27/27 25/25/25 24/24/24
f 27/27/27 17/17/17 25/25/25
f 28/28/28 17/17/17 27/27/27
f 28/28/28 29/29/29 17/17/17
f 30/30/30 29/29/29 28/28/28
f 32/32/32 31/31/31 29/29/29
f 33/33/33 31/31/31 32/32/32
f 35/35/35 34/34/34 36/36/36
f 38/38/38 37/37/37 39/39/39
f 41/41/41 40/40/40 42/42/42
f 44/44/44 43/43/43 45/45/45
f 47/47/47 46/46/46 48/48/48
f 50/50/50 49/49/49 51/51/51
f 53/53/53 52/52/52 54/54/54
f 56/56/56 55/55/55 57/57/57
f 59/59/59 58/58/58 60/60/60
f 60/60/60 58/58/58 61/61/61
f 63/63/63 62/62/62 64/64/64
f 64/64/64 62/62/62 65/65/65
f 67/67/67 66/66/66 68/68/68
f 68/68/68 66/66/66 69/69/69
f 71/71/71 70/70/70 72/72/72
f 73/73/73 70/70/70 71/71/71
f 71/71/71 74/74/74 73/73/73
f 75/75/75 74/74/74 71/71/71
f 76/76/76 71/71/71 77/77/77
f 79/79/79 78/78/78 70/70/70
f 80/80/80 78/78/78 79/79/79
f 82/82/82 81/81/81 76/76/76
f 76/76/76 81/81/81 83/83/83
f 85/85/85 84/84/84 73/73/73
f 73/73/73 86/86/86 85/85/85
f 87/87/87 85/85/85 86/86/86
f 87/87/87 86/86/86 88/88/88
f 88/88/88 86/86/86 89/89/89
f 88/88/88 89/89/89 90/90/90
f 90/90/90 91/91/91 80/80/80
f 90/90/90 89/89/89 91/91/91
f 80/80/80 91/91/91 92/92/92
f 93/93/93 91/91/91 89/89/89
f 95/95/95 94/94/94 96/96/96
f 97/97/97 96/96/96 94/94/94
f 98/98/98 96/96/96 97/97/97
f 99/99/99 98/98/98 97/97/97
f 101/101/101 100/100/100 102/102/102
f 102/102/102 100/100/100 103/103/103
f 105/105/105 104/104/104 106/106/106
f 106/106/106 104/104/104 107/107/107
f 109/109/109 108/108/108 110/110/110
f 110/110/110 108/108/108 111/111/111
f 113/113/113 112/112/112 114/114/114
f 114/114/114 112/112/112 115/115/115
f 117/117/117 116/116/116 118/118/118
f 118/118/118 116/116/116 119/119/119
f 121/121/121 120/120/120 122/122/122
f 122/122/122 120/120/120 123/123/123
f 125/125/125 124/124/124 126/126/126
f 127/127/127 126/126/126 124/124/124
f 128/128/128 126/126/126 127/127/127
f 130/130/130 129/129/129 131/131/131
f 131/131/131 129/129/129 132/132/132
f 134/134/134 133/133/133 135/135/135
f 135/135/135 133/133/133 136/136/136
f 138/138/138 137/137/137 139/139/139
f 139/139/139 137/137/137 140/140/140
f 142/142/142 141/141/141 143/143/143
f 143/143/143 141/141/141 144/144/144
f 146/146/146 145/145/145 147/147/147
f 147/147/147 145/145/145 148/148/148
f 150/150/150 149/149/149 151/151/151
f 152/152/152 151/151/151 149/149/149
f 153/153/153 151/151/151 152/152/152
f 154/154/154 153/153/153 152/152/152
f 156/156/156 155/155/155 157/157/157
f 157/157/157 155/155/155 158/158/158
f 160/160/160 159/159/159 161/161/161
f 161/161/161 159/159/159 162/162/162
f 164/164/164 163/163/163 165/165/165
f 165/165/165 163/163/163 166/166/166
f 168/168/168 167/167/167 169/169/169
f 169/169/169 167/167/167 170/170/170
f 172/172/172 171/171/171 173/173/173
f 173/173/173 171/171/171 174/174/174
f 176/176/176 175/175/175 177/177/177
f 177/177/177 175/175/175 178/178/178
