mtllib ./fries_30.mtl
g fries
v -0.04499996 6.294245E-08 0.02400324
v -0.04499996 6.294245E-08 -0.02400324
v -0.05999995 0.12 -0.02999997
v -0.05999995 0.12 0.02999997
v 0.04499996 6.294245E-08 -0.02400324
v 0.04499996 6.294245E-08 0.02400324
v 0.05999995 0.12 0.02999997
v 0.05999995 0.12 -0.02999997
v -0.04499996 6.294245E-08 -0.02400324
v -0.04499996 6.294245E-08 0.02400324
v 0.04499996 6.294245E-08 0.02400324
v 0.04499996 6.294245E-08 -0.02400324
v -0.02192804 0.09234418 0.0285313
v -0.04499996 6.294245E-08 0.02400324
v -0.05999995 0.12 0.02999997
v -0.04074324 0.1216228 0.03008107
v -0.04074324 0.1216228 0.03008107
v -0.05999995 0.12 0.02999997
v -0.05999995 0.12 -0.02999997
v -0.04074324 0.1216228 -0.03008107
v -0.04074324 0.1216228 -0.03008107
v -0.05999995 0.12 -0.02999997
v -0.04499996 6.294245E-08 -0.02400324
v -0.02192804 0.09234418 -0.0285313
v 0.04499996 6.294245E-08 -0.02400324
v 0.02192804 0.09234418 -0.0285313
v 0.05999995 0.12 -0.02999997
v 0.04074324 0.1216228 -0.03008107
v 0.04074324 0.1216228 -0.03008107
v 0.05999995 0.12 -0.02999997
v 0.05999995 0.12 0.02999997
v 0.04074324 0.1216228 0.03008107
v 0.04074324 0.1216228 0.03008107
v 0.05999995 0.12 0.02999997
v 0.04499996 6.294245E-08 0.02400324
v 0.02192804 0.09234418 0.0285313
v 0.02192804 0.09234418 0.0285313
v 0.04499996 6.294245E-08 0.02400324
v -0.04499996 6.294245E-08 0.02400324
v -0.02192804 0.09234418 0.0285313
v -0.02192804 0.09234418 0.0285313
v -0.04074324 0.1216228 0.03008107
v -0.04074324 0.1216228 -0.03008107
v -0.02192804 0.09234418 -0.0285313
v 0.02192804 0.09234418 -0.0285313
v 0.02192804 0.09234418 0.0285313
v -0.02192804 0.09234418 0.0285313
v -0.02192804 0.09234418 -0.0285313
v 0.02192804 0.09234418 -0.0285313
v 0.04074324 0.1216228 -0.03008107
v 0.04074324 0.1216228 0.03008107
v 0.02192804 0.09234418 0.0285313
v 0.03374215 0.1611092 -0.01315908
v 0.05422643 0.152891 -0.009095376
v 0.05422643 0.152891 0.0101621
v 0.03374215 0.1611092 0.01422581
v -0.02249998 0.08144158 0.02027497
v -0.04499996 0.08144158 0.01059592
v -0.05166783 0.1561103 0.01059592
v -0.03204929 0.1582618 0.02027497
v 0.02249998 0.08144158 -0.01315908
v 0.04499996 0.08144158 -0.009095377
v 0.05422643 0.152891 -0.009095376
v 0.03374215 0.1611092 -0.01315908
v 0.04499996 0.08144158 -0.009095377
v 0.04499996 0.08144158 0.0101621
v 0.05422643 0.152891 0.0101621
v 0.05422643 0.152891 -0.009095376
v -0.04499996 0.08144158 0.01059592
v -0.04499996 0.08144158 -0.009529198
v -0.05166783 0.1561103 -0.009529195
v -0.05166783 0.1561103 0.01059592
v -0.04499996 0.08144158 -0.009529198
v -0.02249998 0.08144158 -0.01920825
v -0.03204929 0.1582618 -0.01920825
v -0.05166783 0.1561103 -0.009529195
v -0.01124999 0.08144158 -0.01202842
v 0 0.08144158 -0.01920825
v 0.004536517 0.1557708 -0.01920825
v -0.01182851 0.154033 -0.01202842
v 0.01124999 0.08144158 -0.008343903
v 0.02249998 0.08144158 -0.01315908
v 0.03374215 0.1611092 -0.01315908
v 0.01913934 0.15844 -0.008343902
v 0.04499996 0.08144158 0.0101621
v 0.02249998 0.08144158 0.01422581
v 0.03374215 0.1611092 0.01422581
v 0.05422643 0.152891 0.0101621
v 0.01124999 0.08144158 0.009410629
v 0 0.08144158 0.02027497
v 0.004536518 0.1557708 0.02027497
v 0.01913934 0.15844 0.00941063
v -0.01124999 0.08144158 0.01309515
v -0.02249998 0.08144158 0.02027497
v -0.03204929 0.1582618 0.02027497
v -0.01182851 0.154033 0.01309515
v -0.05166783 0.1561103 -0.009529195
v -0.03204929 0.1582618 -0.01920825
v -0.03204929 0.1582618 0.02027497
v -0.05166783 0.1561103 0.01059592
v -0.01182851 0.154033 -0.01202842
v 0.004536517 0.1557708 -0.01920825
v 0.004536518 0.1557708 0.02027497
v -0.01182851 0.154033 0.01309515
v 0.01913934 0.15844 -0.008343902
v 0.03374215 0.1611092 -0.01315908
v 0.03374215 0.1611092 0.01422581
v 0.01913934 0.15844 0.00941063
v -0.03204929 0.1582618 -0.01920825
v -0.01182851 0.154033 -0.01202842
v -0.01182851 0.154033 0.01309515
v -0.03204929 0.1582618 0.02027497
v 0 0.08144158 0.02027497
v -0.01124999 0.08144158 0.01309515
v -0.01182851 0.154033 0.01309515
v 0.004536518 0.1557708 0.02027497
v -0.02249998 0.08144158 -0.01920825
v -0.01124999 0.08144158 -0.01202842
v -0.01182851 0.154033 -0.01202842
v -0.03204929 0.1582618 -0.01920825
v 0.004536517 0.1557708 -0.01920825
v 0.01913934 0.15844 -0.008343902
v 0.01913934 0.15844 0.00941063
v 0.004536518 0.1557708 0.02027497
v 0.02249998 0.08144158 0.01422581
v 0.01124999 0.08144158 0.009410629
v 0.01913934 0.15844 0.00941063
v 0.03374215 0.1611092 0.01422581
v 0 0.08144158 -0.01920825
v 0.01124999 0.08144158 -0.008343903
v 0.01913934 0.15844 -0.008343902
v 0.004536517 0.1557708 -0.01920825
v 0.008066718 0.05561971 0.01840415
v 0.008066718 0.05682558 0.006464874
v 0.02736606 0.1579353 0.01700941
v 0.02736606 0.1567295 0.02894869
v 0.008066718 0.05682558 0.006464874
v 0.01996372 0.05526446 0.006307201
v 0.03926306 0.1563742 0.01685174
v 0.02736606 0.1579353 0.01700941
v 0.01996372 0.05526446 0.006307201
v 0.01996372 0.05405859 0.01824648
v 0.03926306 0.1551683 0.02879102
v 0.03926306 0.1563742 0.01685174
v 0.01996372 0.05405859 0.01824648
v 0.008066718 0.05561971 0.01840415
v 0.02736606 0.1567295 0.02894869
v 0.03926306 0.1551683 0.02879102
v 0.03926306 0.1563742 0.01685174
v 0.03926306 0.1551683 0.02879102
v 0.02736606 0.1567295 0.02894869
v 0.02736606 0.1579353 0.01700941
v -0.02428179 0.0494822 0.01840415
v -0.02463968 0.05063374 0.006464866
v -0.036218 0.1529156 0.01700941
v -0.03586012 0.1517641 0.02894869
v -0.02463968 0.05063374 0.006464866
v -0.01281539 0.05267384 0.006307196
v -0.02439371 0.1549557 0.01685174
v -0.036218 0.1529156 0.01700941
v -0.01281539 0.05267384 0.006307196
v -0.01245751 0.0515223 0.01824648
v -0.02403583 0.1538042 0.02879101
v -0.02439371 0.1549557 0.01685174
v -0.01245751 0.0515223 0.01824648
v -0.02428179 0.0494822 0.01840415
v -0.03586012 0.1517641 0.02894869
v -0.02403583 0.1538042 0.02879101
v -0.02439371 0.1549557 0.01685174
v -0.02403583 0.1538042 0.02879101
v -0.03586012 0.1517641 0.02894869
v -0.036218 0.1529156 0.01700941
v -0.002342935 0.03424142 0.02267945
v -0.002518425 0.03414784 0.01068108
v 0.006031909 0.137266 0.01008259
v 0.006207398 0.1373596 0.02208096
v -0.002518425 0.03414784 0.01068108
v 0.009476198 0.03383205 0.01050811
v 0.01802653 0.1369502 0.009909619
v 0.006031909 0.137266 0.01008259
v 0.009476198 0.03383205 0.01050811
v 0.009651689 0.03392562 0.02250648
v 0.01820203 0.1370438 0.02190799
v 0.01802653 0.1369502 0.009909619
v 0.009651689 0.03392562 0.02250648
v -0.002342935 0.03424142 0.02267945
v 0.006207398 0.1373596 0.02208096
v 0.01820203 0.1370438 0.02190799
v 0.01802653 0.1369502 0.009909619
v 0.01820203 0.1370438 0.02190799
v 0.006207398 0.1373596 0.02208096
v 0.006031909 0.137266 0.01008259
v -0.02634532 0.1026604 -0.01354156
v -0.03155671 0.145517 -0.03597431
v -0.03179762 0.1505205 -0.02506983
v -0.02639577 0.1012541 -0.02545878
v -0.02059571 0.05112944 -0.01037036
v -0.02064615 0.04972313 -0.02228758
v -0.02639577 0.1012541 -0.02545878
v -0.01456312 0.1032311 -0.02574217
v -0.01971301 0.1473575 -0.03655718
v -0.03155671 0.145517 -0.03597431
v -0.01456312 0.1032311 -0.02574217
v -0.01995391 0.152361 -0.0256527
v -0.01971301 0.1473575 -0.03655718
v -0.01451267 0.1046375 -0.01382495
v -0.008813504 0.05170017 -0.02257097
v -0.008763059 0.05310648 -0.01065374
v -0.01451267 0.1046375 -0.01382495
v -0.02634532 0.1026604 -0.01354156
v -0.03179762 0.1505205 -0.02506983
v -0.01995391 0.152361 -0.0256527
v -0.01971301 0.1473575 -0.03655718
v -0.01995391 0.152361 -0.0256527
v -0.03179762 0.1505205 -0.02506983
v -0.03155671 0.145517 -0.03597431
v -0.008763059 0.05310648 -0.01065374
v -0.02059571 0.05112944 -0.01037036
v -0.02634532 0.1026604 -0.01354156
v -0.01451267 0.1046375 -0.01382495
v -0.02064615 0.04972313 -0.02228758
v -0.008813504 0.05170017 -0.02257097
v -0.01456312 0.1032311 -0.02574217
v -0.02639577 0.1012541 -0.02545878

vn -0.9922779 -0.1240347 0
vn -0.9922779 -0.1240347 0
vn -0.9922779 -0.1240347 0
vn -0.9922779 -0.1240347 0
vn 0.9922779 -0.1240347 0
vn 0.9922779 -0.1240347 0
vn 0.9922779 -0.1240347 0
vn 0.9922779 -0.1240347 0
vn 0 -1 0
vn 0 -1 0
vn 0 -1 0
vn 0 -1 0
vn 0.002216332 -0.04998782 0.9987473
vn 0.002216332 -0.04998782 0.9987473
vn 0.002216332 -0.04998782 0.9987473
vn 0.002216332 -0.04998782 0.9987473
vn -0.08397684 0.9964677 0
vn -0.08397684 0.9964677 0
vn -0.08397684 0.9964677 0
vn -0.08397684 0.9964677 0
vn 0.002216332 -0.0499878 -0.9987473
vn 0.002216332 -0.0499878 -0.9987473
vn 0.002216332 -0.0499878 -0.9987473
vn 0.002216332 -0.0499878 -0.9987473
vn 0 -0.04897586 -0.9987999
vn 0 -0.04897586 -0.9987999
vn -0.002216332 -0.04998782 -0.9987473
vn -0.002216332 -0.04998782 -0.9987473
vn 0.08397684 0.9964677 0
vn 0.08397684 0.9964677 0
vn 0.08397684 0.9964677 0
vn 0.08397684 0.9964677 0
vn -0.002216332 -0.0499878 0.9987473
vn -0.002216332 -0.0499878 0.9987473
vn -0.002216332 -0.0499878 0.9987473
vn -0.002216332 -0.0499878 0.9987473
vn 0 -0.04897586 0.9987999
vn 0 -0.04897586 0.9987999
vn 0 -0.04897586 0.9987999
vn 0 -0.04897586 0.9987999
vn 0.841267 0.5406199 0
vn 0.841267 0.5406199 0
vn 0.841267 0.5406199 0
vn 0.841267 0.5406199 0
vn 0 1 0
vn 0 1 0
vn 0 1 0
vn 0 1 0
vn -0.841267 0.5406199 0
vn -0.841267 0.5406199 0
vn -0.841267 0.5406199 0
vn -0.841267 0.5406199 0
vn 0.3723491 0.9280927 0
vn 0.3723491 0.9280927 0
vn 0.3723491 0.9280927 0
vn 0.3723491 0.9280927 0
vn -0.4153243 -0.0444613 0.9085863
vn -0.4153243 -0.0444613 0.9085863
vn -0.4153243 -0.0444613 0.9085863
vn -0.4153243 -0.0444613 0.9085863
vn 0.1811985 -0.02454314 -0.9831402
vn 0.1811985 -0.02454314 -0.9831402
vn 0.1811985 -0.02454314 -0.9831402
vn 0.1811985 -0.02454314 -0.9831402
vn 0.9917652 -0.1280696 0
vn 0.9917652 -0.1280696 0
vn 0.9917652 -0.1280696 0
vn 0.9917652 -0.1280696 0
vn -0.9960365 -0.08894554 0
vn -0.9960365 -0.08894554 0
vn -0.9960365 -0.08894554 0
vn -0.9960365 -0.08894554 0
vn -0.4153243 -0.04446127 -0.9085863
vn -0.4153243 -0.04446127 -0.9085863
vn -0.4153243 -0.04446127 -0.9085863
vn -0.4153243 -0.04446127 -0.9085863
vn -0.4619293 0.01244421 -0.8868294
vn -0.4619293 0.01244421 -0.8868294
vn -0.4619293 0.01244421 -0.8868294
vn -0.4619293 0.01244421 -0.8868294
vn -0.3526523 0.04306471 -0.9347629
vn -0.3526523 0.04306471 -0.9347629
vn -0.3526523 0.04306471 -0.9347629
vn -0.3526523 0.04306471 -0.9347629
vn 0.1811986 -0.02454318 0.9831402
vn 0.1811986 -0.02454318 0.9831402
vn 0.1811986 -0.02454318 0.9831402
vn 0.1811986 -0.02454318 0.9831402
vn 0.6457035 -0.05302023 0.7617452
vn 0.6457035 -0.05302023 0.7617452
vn 0.6457035 -0.05302023 0.7617452
vn 0.6457035 -0.05302023 0.7617452
vn 0.4180972 0.02834064 0.9079601
vn 0.4180972 0.02834064 0.9079601
vn 0.4180972 0.02834064 0.9079601
vn 0.4180972 0.02834064 0.9079601
vn -0.1090134 0.9940402 0
vn -0.1090134 0.9940402 0
vn -0.1090134 0.9940402 0
vn -0.1090134 0.9940402 0
vn -0.105591 0.9944096 0
vn -0.105591 0.9944096 0
vn -0.105591 0.9944096 0
vn -0.105591 0.9944096 0
vn -0.1798089 0.9837015 0
vn -0.1798089 0.9837015 0
vn -0.1798089 0.9837015 0
vn -0.1798089 0.9837015 0
vn 0.2047018 0.9788244 0
vn 0.2047018 0.9788244 0
vn 0.2047018 0.9788244 0
vn 0.2047018 0.9788244 0
vn -0.4619294 0.01244421 0.8868294
vn -0.4619294 0.01244421 0.8868294
vn -0.4619294 0.01244421 0.8868294
vn -0.4619294 0.01244421 0.8868294
vn 0.4180971 0.02834065 -0.9079602
vn 0.4180971 0.02834065 -0.9079602
vn 0.4180971 0.02834065 -0.9079602
vn 0.4180971 0.02834065 -0.9079602
vn -0.1798089 0.9837015 0
vn -0.1798089 0.9837015 0
vn -0.1798089 0.9837015 0
vn -0.1798089 0.9837015 0
vn -0.3526523 0.04306469 0.9347629
vn -0.3526523 0.04306469 0.9347629
vn -0.3526523 0.04306469 0.9347629
vn -0.3526523 0.04306469 0.9347629
vn 0.6457034 -0.05302022 -0.7617453
vn 0.6457034 -0.05302022 -0.7617453
vn 0.6457034 -0.05302022 -0.7617453
vn 0.6457034 -0.05302022 -0.7617453
vn -0.982452 0.1855711 0.01874261
vn -0.982452 0.1855711 0.01874261
vn -0.982452 0.1855711 0.01874261
vn -0.982452 0.1855711 0.01874261
vn 0.0004187242 0.1036464 -0.9946141
vn 0.0004187242 0.1036464 -0.9946141
vn 0.0004187242 0.1036464 -0.9946141
vn 0.0004187242 0.1036464 -0.9946141
vn 0.982452 -0.1855711 -0.01874261
vn 0.982452 -0.1855711 -0.01874261
vn 0.982452 -0.1855711 -0.01874261
vn 0.982452 -0.1855711 -0.01874261
vn -0.0004187242 -0.1036465 0.9946141
vn -0.0004187242 -0.1036465 0.9946141
vn -0.0004187242 -0.1036465 0.9946141
vn -0.0004187242 -0.1036465 0.9946141
vn 0.1307548 0.9863964 0.09962557
vn 0.1307548 0.9863964 0.09962557
vn 0.1307548 0.9863964 0.09962557
vn 0.1307548 0.9863964 0.09962557
vn -0.9932615 -0.1143695 0.01874242
vn -0.9932615 -0.1143695 0.01874242
vn -0.9932615 -0.1143695 0.01874242
vn -0.9932615 -0.1143695 0.01874242
vn -0.03036103 0.09910081 -0.9946141
vn -0.03036103 0.09910081 -0.9946141
vn -0.03036103 0.09910081 -0.9946141
vn -0.03036103 0.09910081 -0.9946141
vn 0.9932615 0.1143695 -0.01874251
vn 0.9932615 0.1143695 -0.01874251
vn 0.9932615 0.1143695 -0.01874251
vn 0.9932615 0.1143695 -0.01874251
vn 0.03036121 -0.09910078 0.9946141
vn 0.03036121 -0.09910078 0.9946141
vn 0.03036121 -0.09910078 0.9946141
vn 0.03036121 -0.09910078 0.9946141
vn -0.1678867 0.9807592 0.0996264
vn -0.1678867 0.9807592 0.0996264
vn -0.1678867 0.9807592 0.0996264
vn -0.1678867 0.9807592 0.0996264
vn -0.9964766 0.0827065 0.0139296
vn -0.9964766 0.0827065 0.0139296
vn -0.9964766 0.0827065 0.0139296
vn -0.9964766 0.0827065 0.0139296
vn -0.01454018 -0.004597599 -0.9998838
vn -0.01454018 -0.004597599 -0.9998838
vn -0.01454018 -0.004597599 -0.9998838
vn -0.01454018 -0.004597599 -0.9998838
vn 0.9964766 -0.08270649 -0.01392973
vn 0.9964766 -0.08270649 -0.01392973
vn 0.9964766 -0.08270649 -0.01392973
vn 0.9964766 -0.08270649 -0.01392973
vn 0.01454021 0.004597598 0.9998838
vn 0.01454021 0.004597598 0.9998838
vn 0.01454021 0.004597598 0.9998838
vn 0.01454021 0.004597598 0.9998838
vn 0.02619755 0.9996233 -0.008178963
vn 0.02619755 0.9996233 -0.008178963
vn 0.02619755 0.9996233 -0.008178963
vn 0.02619755 0.9996233 -0.008178963
vn -0.9937749 -0.1091397 0.02235973
vn -0.9937749 -0.1091397 0.02235973
vn -0.9937749 -0.1091397 0.02235973
vn -0.9937749 -0.1091397 0.02235973
vn -0.9938023 -0.1098279 0.01716706
vn -0.9938023 -0.1098279 0.01716706
vn 0.002217286 -0.2343454 -0.9721509
vn 0.002217286 -0.2343454 -0.9721509
vn 0.002217286 -0.2343454 -0.9721509
vn 0.002217286 -0.2343454 -0.9721509
vn 0.9937814 0.1090837 -0.02234432
vn 0.9937814 0.1090837 -0.02234432
vn 0.9937814 0.1090837 -0.02234432
vn 0.9937814 0.1090837 -0.02234432
vn 0.9938023 0.1098279 -0.01716715
vn 0.9938023 0.1098279 -0.01716715
vn -0.002682118 0.2370788 0.9714867
vn -0.002682118 0.2370788 0.9714867
vn -0.002682118 0.2370788 0.9714867
vn -0.002682118 0.2370788 0.9714867
vn -0.1596258 0.8958922 -0.4146042
vn -0.1596258 0.8958922 -0.4146042
vn -0.1596258 0.8958922 -0.4146042
vn -0.1596258 0.8958922 -0.4146042
vn 0.01338962 0.06290627 0.9979297
vn 0.01338962 0.06290627 0.9979297
vn 0.01338962 0.06290627 0.9979297
vn 0.01338962 0.06290627 0.9979297
vn -0.01338955 -0.06290627 -0.9979297
vn -0.01338955 -0.06290627 -0.9979297
vn -0.01338955 -0.06290627 -0.9979297
vn -0.01338955 -0.06290627 -0.9979297

vt 0.1683018 0.5526468
vt 0.176459 0.5636994
vt 0.189095 0.5313903
vt 0.1767783 0.537692
vt 0.1478953 0.5622318
vt 0.1561236 0.5504901
vt 0.1528491 0.5365463
vt 0.1372844 0.5262464
vt 0.176459 0.5636994
vt 0.1683018 0.5526468
vt 0.1561236 0.5504901
vt 0.1478953 0.5622318
vt 0.1690006 0.5364435
vt 0.1683018 0.5526468
vt 0.1767783 0.537692
vt 0.1752937 0.5356895
vt 0.1752937 0.5356895
vt 0.1767783 0.537692
vt 0.189095 0.5313903
vt 0.1851528 0.5256111
vt 0.1731222 0.6022782
vt 0.1792603 0.6020765
vt 0.176459 0.5636994
vt 0.1676288 0.5926661
vt 0.1478953 0.5622318
vt 0.15371 0.5919509
vt 0.1411753 0.6001196
vt 0.1472604 0.6009493
vt 0.144366 0.5207239
vt 0.1372844 0.5262464
vt 0.1528491 0.5365463
vt 0.154056 0.5349993
vt 0.154056 0.5349993
vt 0.1528491 0.5365463
vt 0.1561236 0.5504901
vt 0.1597324 0.5361707
vt 0.1597324 0.5361707
vt 0.1561236 0.5504901
vt 0.1683018 0.5526468
vt 0.1690006 0.5364435
vt 0.1690006 0.5364435
vt 0.1752937 0.5356895
vt 0.1851528 0.5256111
vt 0.172998 0.5189101
vt 0.1571259 0.51891
vt 0.1597324 0.5361707
vt 0.1690006 0.5364435
vt 0.172998 0.5189101
vt 0.1571259 0.51891
vt 0.144366 0.5207239
vt 0.154056 0.5349993
vt 0.1597324 0.5361707
vt 0.5341696 0.5492184
vt 0.5405138 0.5509124
vt 0.5424947 0.5457506
vt 0.537625 0.5435159
vt 0.5348663 0.5194439
vt 0.5287091 0.5162856
vt 0.5213791 0.5305661
vt 0.5247505 0.5326031
vt 0.5245772 0.5513116
vt 0.5189948 0.5513117
vt 0.5167783 0.5687611
vt 0.5218766 0.5707691
vt 0.5550413 0.5316199
vt 0.5506792 0.5294321
vt 0.5424947 0.5457506
vt 0.5468568 0.5479383
vt 0.5287091 0.5162856
vt 0.5235097 0.5139884
vt 0.5167783 0.5315514
vt 0.5213791 0.5305661
vt 0.5438771 0.5516674
vt 0.5378979 0.5515512
vt 0.5396744 0.5703679
vt 0.5450239 0.5699347
vt 0.53464 0.5514961
vt 0.531382 0.5514411
vt 0.5300904 0.5695768
vt 0.5344597 0.5692194
vt 0.5275649 0.551337
vt 0.5245772 0.5513116
vt 0.5218766 0.5707691
vt 0.525634 0.5701361
vt 0.5506792 0.5294321
vt 0.5458689 0.5262026
vt 0.537625 0.5435159
vt 0.5424947 0.5457506
vt 0.543632 0.5247245
vt 0.5398489 0.5224361
vt 0.531949 0.5378252
vt 0.5342306 0.5417254
vt 0.5373369 0.5209649
vt 0.5348663 0.5194439
vt 0.5247505 0.5326031
vt 0.5280128 0.5360351
vt 0.5167783 0.5315514
vt 0.5167783 0.5385389
vt 0.5247505 0.5326031
vt 0.5213791 0.5305661
vt 0.5234557 0.5419359
vt 0.5257707 0.5463011
vt 0.531949 0.5378252
vt 0.5280128 0.5360351
vt 0.5316578 0.5461475
vt 0.5341696 0.5492184
vt 0.537625 0.5435159
vt 0.5342306 0.5417254
vt 0.5167783 0.5385389
vt 0.5234557 0.5419359
vt 0.5280128 0.5360351
vt 0.5247505 0.5326031
vt 0.5398489 0.5224361
vt 0.5373369 0.5209649
vt 0.5280128 0.5360351
vt 0.531949 0.5378252
vt 0.5378979 0.5515512
vt 0.53464 0.5514961
vt 0.5344597 0.5692194
vt 0.5396744 0.5703679
vt 0.5257707 0.5463011
vt 0.5316578 0.5461475
vt 0.5342306 0.5417254
vt 0.531949 0.5378252
vt 0.5458689 0.5262026
vt 0.543632 0.5247245
vt 0.5342306 0.5417254
vt 0.537625 0.5435159
vt 0.531382 0.5514411
vt 0.5275649 0.551337
vt 0.525634 0.5701361
vt 0.5300904 0.5695768
vt 0.5318175 0.5711776
vt 0.5288876 0.5711682
vt 0.5288876 0.596432
vt 0.5318174 0.5964413
vt 0.5405977 0.5711682
vt 0.5376725 0.5713336
vt 0.5376725 0.5965974
vt 0.5405977 0.596432
vt 0.5376725 0.5713336
vt 0.5347427 0.571343
vt 0.5347427 0.5966067
vt 0.5376725 0.5965974
vt 0.5347427 0.571343
vt 0.5318175 0.5711776
vt 0.5318174 0.5964413
vt 0.5347427 0.5966067
vt 0.5345773 0.5995319
vt 0.5347427 0.5966067
vt 0.5318174 0.5964413
vt 0.531652 0.5993665
vt 0.5197082 0.5711776
vt 0.5167783 0.5711682
vt 0.5167783 0.596432
vt 0.5197082 0.5964413
vt 0.5284885 0.5711682
vt 0.5255632 0.5713336
vt 0.5255632 0.5965974
vt 0.5284885 0.596432
vt 0.5255632 0.5713336
vt 0.5226334 0.571343
vt 0.5226334 0.5966067
vt 0.5255632 0.5965974
vt 0.5226334 0.571343
vt 0.5197082 0.5711776
vt 0.5197082 0.5964413
vt 0.5226334 0.5966067
vt 0.522468 0.5995319
vt 0.5226334 0.5966067
vt 0.5197082 0.5964413
vt 0.5195428 0.5993665
vt 0.5439267 0.5711776
vt 0.5409969 0.5711682
vt 0.5409968 0.596432
vt 0.5439267 0.5964413
vt 0.552707 0.5711682
vt 0.5497818 0.5713336
vt 0.5497818 0.5965974
vt 0.552707 0.596432
vt 0.5497818 0.5713336
vt 0.5468519 0.571343
vt 0.5468519 0.5966067
vt 0.5497818 0.5965974
vt 0.5468519 0.571343
vt 0.5439267 0.5711776
vt 0.5439267 0.5964413
vt 0.5468519 0.5966067
vt 0.5466865 0.5995319
vt 0.5468519 0.5966067
vt 0.5439267 0.5964413
vt 0.5437613 0.5993665
vt 0.5561675 0.5837652
vt 0.5531061 0.5951728
vt 0.5560737 0.5957933
vt 0.5532802 0.5838438
vt 0.5560954 0.5713044
vt 0.5531704 0.5711682
vt 0.5648472 0.5838748
vt 0.5619007 0.5840409
vt 0.5620708 0.5953403
vt 0.5649609 0.5951627
vt 0.5619007 0.5840409
vt 0.5591012 0.5959426
vt 0.5620708 0.5953403
vt 0.5590105 0.5839437
vt 0.5619494 0.5713242
vt 0.559086 0.5714662
vt 0.5590105 0.5839437
vt 0.5561675 0.5837652
vt 0.5560737 0.5957933
vt 0.5591012 0.5959426
vt 0.5589519 0.5989701
vt 0.5591012 0.5959426
vt 0.5560737 0.5957933
vt 0.5559244 0.5988207
vt 0.559086 0.5714662
vt 0.5560954 0.5713044
vt 0.5561675 0.5837652
vt 0.5590105 0.5839437
vt 0.5648805 0.5711682
vt 0.5619494 0.5713242
vt 0.5619007 0.5840409
vt 0.5648472 0.5838748

usemtl LOW-POLY-COLORS
usemap LOW-POLY-COLORS
f 2/2/2 1/1/1 3/3/3
f 3/3/3 1/1/1 4/4/4
f 6/6/6 5/5/5 7/7/7
f 7/7/7 5/5/5 8/8/8
f 10/10/10 9/9/9 11/11/11
f 11/11/11 9/9/9 12/12/12
f 14/14/14 13/13/13 15/15/15
f 15/15/15 13/13/13 16/16/16
f 18/18/18 17/17/17 19/19/19
f 19/19/19 17/17/17 20/20/20
f 22/22/22 21/21/21 23/23/23
f 23/23/23 21/21/21 24/24/24
f 23/23/23 24/24/24 25/25/25
f 25/25/25 24/24/24 26/26/26
f 25/25/25 26/26/26 27/27/27
f 27/27/27 26/26/26 28/28/28
f 30/30/30 29/29/29 31/31/31
f 31/31/31 29/29/29 32/32/32
f 34/34/34 33/33/33 35/35/35
f 35/35/35 33/33/33 36/36/36
f 38/38/38 37/37/37 39/39/39
f 39/39/39 37/37/37 40/40/40
f 42/42/42 41/41/41 43/43/43
f 43/43/43 41/41/41 44/44/44
f 46/46/46 45/45/45 47/47/47
f 47/47/47 45/45/45 48/48/48
f 50/50/50 49/49/49 51/51/51
f 51/51/51 49/49/49 52/52/52
f 54/54/54 53/53/53 55/55/55
f 55/55/55 53/53/53 56/56/56
f 58/58/58 57/57/57 59/59/59
f 59/59/59 57/57/57 60/60/60
f 62/62/62 61/61/61 63/63/63
f 63/63/63 61/61/61 64/64/64
f 66/66/66 65/65/65 67/67/67
f 67/67/67 65/65/65 68/68/68
f 70/70/70 69/69/69 71/71/71
f 71/71/71 69/69/69 72/72/72
f 74/74/74 73/73/73 75/75/75
f 75/75/75 73/73/73 76/76/76
f 78/78/78 77/77/77 79/79/79
f 79/79/79 77/77/77 80/80/80
f 82/82/82 81/81/81 83/83/83
f 83/83/83 81/81/81 84/84/84
f 86/86/86 85/85/85 87/87/87
f 87/87/87 85/85/85 88/88/88
f 90/90/90 89/89/89 91/91/91
f 91/91/91 89/89/89 92/92/92
f 94/94/94 93/93/93 95/95/95
f 95/95/95 93/93/93 96/96/96
f 98/98/98 97/97/97 99/99/99
f 99/99/99 97/97/97 100/100/100
f 102/102/102 101/101/101 103/103/103
f 103/103/103 101/101/101 104/104/104
f 106/106/106 105/105/105 107/107/107
f 107/107/107 105/105/105 108/108/108
f 110/110/110 109/109/109 111/111/111
f 111/111/111 109/109/109 112/112/112
f 114/114/114 113/113/113 115/115/115
f 115/115/115 113/113/113 116/116/116
f 118/118/118 117/117/117 119/119/119
f 119/119/119 117/117/117 120/120/120
f 122/122/122 121/121/121 123/123/123
f 123/123/123 121/121/121 124/124/124
f 126/126/126 125/125/125 127/127/127
f 127/127/127 125/125/125 128/128/128
f 130/130/130 129/129/129 131/131/131
f 131/131/131 129/129/129 132/132/132
f 134/134/134 133/133/133 135/135/135
f 135/135/135 133/133/133 136/136/136
f 138/138/138 137/137/137 139/139/139
f 139/139/139 137/137/137 140/140/140
f 142/142/142 141/141/141 143/143/143
f 143/143/143 141/141/141 144/144/144
f 146/146/146 145/145/145 147/147/147
f 147/147/147 145/145/145 148/148/148
f 150/150/150 149/149/149 151/151/151
f 151/151/151 149/149/149 152/152/152
f 154/154/154 153/153/153 155/155/155
f 155/155/155 153/153/153 156/156/156
f 158/158/158 157/157/157 159/159/159
f 159/159/159 157/157/157 160/160/160
f 162/162/162 161/161/161 163/163/163
f 163/163/163 161/161/161 164/164/164
f 166/166/166 165/165/165 167/167/167
f 167/167/167 165/165/165 168/168/168
f 170/170/170 169/169/169 171/171/171
f 171/171/171 169/169/169 172/172/172
f 174/174/174 173/173/173 175/175/175
f 175/175/175 173/173/173 176/176/176
f 178/178/178 177/177/177 179/179/179
f 179/179/179 177/177/177 180/180/180
f 182/182/182 181/181/181 183/183/183
f 183/183/183 181/181/181 184/184/184
f 186/186/186 185/185/185 187/187/187
f 187/187/187 185/185/185 188/188/188
f 190/190/190 189/189/189 191/191/191
f 191/191/191 189/189/189 192/192/192
f 194/194/194 193/193/193 195/195/195
f 196/196/196 193/193/193 194/194/194
f 196/196/196 197/197/197 193/193/193
f 198/198/198 197/197/197 196/196/196
f 200/200/200 199/199/199 201/201/201
f 201/201/201 199/199/199 202/202/202
f 204/204/204 203/203/203 205/205/205
f 206/206/206 203/203/203 204/204/204
f 206/206/206 207/207/207 203/203/203
f 208/208/208 207/207/207 206/206/206
f 210/210/210 209/209/209 211/211/211
f 211/211/211 209/209/209 212/212/212
f 214/214/214 213/213/213 215/215/215
f 215/215/215 213/213/213 216/216/216
f 218/218/218 217/217/217 219/219/219
f 219/219/219 217/217/217 220/220/220
f 222/222/222 221/221/221 223/223/223
f 223/223/223 221/221/221 224/224/224
