mtllib ./milk-box_35.mtl
g milk-box
v -0.05057144 0.27 -0.004063901
v -0.03782855 0.2402052 -0.001433456
v -0.05057075 0.216 -0.05092226
v -0.03782855 0.2402052 -0.001433456
v -0.05057144 0.27 -0.004063901
v -0.05057206 0.27 0.00117157
v 0.03739215 0.2402052 -0.001433459
v 0.05031418 0.27 -0.004038486
v 0.05031287 0.216 -0.05092226
v 0.05031357 0.27 0.001196986
v 0.03739215 0.2402052 -0.001433459
v 0.05031288 0.216 0.04805535
v 0.03739215 0.2402052 -0.001433459
v 0.05031357 0.27 0.001196986
v 0.05031418 0.27 -0.004038486
v -0.03782855 0.2402052 -0.001433456
v -0.05057206 0.27 0.00117157
v -0.05057074 0.216 0.04805535
v -0.05057074 0.216 0.04805535
v -0.05057075 0.216 -0.05092226
v -0.03782855 0.2402052 -0.001433456
v 0.05031288 0.216 0.04805535
v 0.03739215 0.2402052 -0.001433459
v 0.05031287 0.216 -0.05092226
v -9.393496E-05 0.2281219 0.03252036
v -9.723179E-05 0.2401118 0.05134504
v 0.01869486 0.2478568 0.04375142
v 0.01469484 0.234217 0.02654443
v 0.05031287 0.006213766 -0.05092226
v -0.05057075 0.006213766 -0.05092226
v -0.04365812 0.0001985639 -0.04480909
v 0.04341631 0.0001985639 -0.04479137
v 0.01869486 0.2478568 0.04375142
v 0.01869749 0.2633469 0.02855766
v 0.0146969 0.2464071 0.01458742
v 0.01469484 0.234217 0.02654443
v -0.05057075 0.216 -0.05092226
v 0.05031287 0.216 -0.05092226
v 0.05031418 0.27 -0.004038486
v -0.05057144 0.27 -0.004063901
v 0.04969362 0.2896947 -0.004048695
v 0.05031418 0.27 -0.004038486
v 0.05031357 0.27 0.001196986
v 0.0496926 0.2896947 0.001197255
v 0.05031288 0.216 0.04805535
v -0.05057074 0.216 0.04805535
v -0.05057206 0.27 0.00117157
v 0.05031357 0.27 0.001196986
v -0.05057074 0.1772895 0.04805535
v -0.05057074 0.216 0.04805535
v 0.05031288 0.216 0.04805535
v 0.05031288 0.1772895 0.04805535
v -9.723179E-05 0.2401118 0.05134504
v 0.01869749 0.2633469 0.02855766
v 0.01869486 0.2478568 0.04375142
v -9.199708E-05 0.2710918 0.02095752
v -0.01888672 0.2478568 0.0437449
v -0.01888411 0.2633468 0.02855114
v -0.05057144 0.27 -0.004063901
v -0.04995049 0.2896947 -0.00406417
v -0.0499515 0.2896947 0.001181778
v -0.05057206 0.27 0.00117157
v -0.04995049 0.2896947 -0.00406417
v -0.05057144 0.27 -0.004063901
v 0.05031418 0.27 -0.004038486
v 0.04969362 0.2896947 -0.004048695
v -9.723179E-05 0.2401118 0.05134504
v -9.393496E-05 0.2281219 0.03252036
v -0.01488069 0.2342169 0.0265393
v -0.01888672 0.2478568 0.0437449
v 0.0146969 0.2464071 0.01458742
v 0.01869749 0.2633469 0.02855766
v -9.199708E-05 0.2710918 0.02095752
v -8.981733E-05 0.2525022 0.008606339
v -0.01487862 0.2464071 0.01458229
v -8.981733E-05 0.2525022 0.008606339
v -9.199708E-05 0.2710918 0.02095752
v -0.01888411 0.2633468 0.02855114
v -0.05057075 0.04460996 -0.05092226
v -0.05057074 0.04460995 0.04805535
v -0.05057074 0.006213766 0.04805535
v -0.05057075 0.006213766 -0.05092226
v 0.05031288 0.006213766 0.04805535
v 0.04340024 0.0001985639 0.04194218
v -0.04367418 0.0001985639 0.04192446
v -0.05057074 0.006213766 0.04805535
v -0.0499515 0.2896947 0.001181778
v 0.0496926 0.2896947 0.001197255
v 0.05031357 0.27 0.001196986
v -0.05057206 0.27 0.00117157
v -0.05057075 0.1772895 -0.05092226
v 0.05031287 0.1772895 -0.05092226
v 0.05031287 0.216 -0.05092226
v -0.05057075 0.216 -0.05092226
v 0.05031287 0.006213766 -0.05092226
v 0.04341631 0.0001985639 -0.04479137
v 0.04340024 0.0001985639 0.04194218
v 0.05031288 0.006213766 0.04805535
v -0.0499515 0.2896947 0.001181778
v -0.04995049 0.2896947 -0.00406417
v 0.04969362 0.2896947 -0.004048695
v 0.0496926 0.2896947 0.001197255
v -0.01487862 0.2464071 0.01458229
v -0.01888411 0.2633468 0.02855114
v -0.01888672 0.2478568 0.0437449
v -0.01488069 0.2342169 0.0265393
v -0.05057075 0.04460996 -0.05092226
v 0.05031287 0.04460995 -0.05092226
v 0.05031287 0.1772895 -0.05092226
v -0.05057075 0.1772895 -0.05092226
v -0.05057075 0.216 -0.05092226
v -0.05057074 0.216 0.04805535
v -0.05057074 0.1772895 0.04805535
v -0.05057075 0.1772895 -0.05092226
v -0.05057074 0.04460995 0.04805535
v -0.05057074 0.1772895 0.04805535
v 0.05031288 0.1772895 0.04805535
v 0.05031288 0.04460996 0.04805535
v -0.05057074 0.006213766 0.04805535
v -0.05057074 0.04460995 0.04805535
v 0.05031288 0.04460996 0.04805535
v 0.05031288 0.006213766 0.04805535
v -0.05057075 0.006213766 -0.05092226
v 0.05031287 0.006213766 -0.05092226
v 0.05031287 0.04460995 -0.05092226
v -0.05057075 0.04460996 -0.05092226
v -0.05057075 0.1772895 -0.05092226
v -0.05057074 0.1772895 0.04805535
v -0.05057074 0.04460995 0.04805535
v -0.05057075 0.04460996 -0.05092226
v 0.05031288 0.006213766 0.04805535
v 0.05031288 0.04460996 0.04805535
v 0.05031287 0.04460995 -0.05092226
v 0.05031287 0.006213766 -0.05092226
v 0.05031288 0.04460996 0.04805535
v 0.05031288 0.1772895 0.04805535
v 0.05031287 0.1772895 -0.05092226
v 0.05031287 0.04460995 -0.05092226
v 0.05031288 0.1772895 0.04805535
v 0.05031288 0.216 0.04805535
v 0.05031287 0.216 -0.05092226
v 0.05031287 0.1772895 -0.05092226
v -0.04367418 0.0001985639 0.04192446
v -0.04365812 0.0001985639 -0.04480909
v -0.05057075 0.006213766 -0.05092226
v -0.05057074 0.006213766 0.04805535
v -0.04367418 0.0001985639 0.04192446
v 0.04340024 0.0001985639 0.04194218
v 0.04341631 0.0001985639 -0.04479137
v -0.04365812 0.0001985639 -0.04480909

vn -0.8604044 -0.3340043 0.3848966
vn -0.8604044 -0.3340043 0.3848966
vn -0.8604044 -0.3340043 0.3848966
vn -0.9194352 -0.3932415 -0.0001084157
vn -0.9194352 -0.3932415 -0.0001084157
vn -0.9194352 -0.3932415 -0.0001084157
vn 0.8571172 -0.337725 0.3889625
vn 0.8571172 -0.337725 0.3889625
vn 0.8571172 -0.337725 0.3889625
vn 0.8572693 -0.3374491 -0.3888667
vn 0.8572693 -0.3374491 -0.3888667
vn 0.8572693 -0.3374491 -0.3888667
vn 0.9174361 -0.3978831 0.0001068104
vn 0.9174361 -0.3978831 0.0001068104
vn 0.9174361 -0.3978831 0.0001068104
vn -0.8602554 -0.3342782 -0.384992
vn -0.8602554 -0.3342782 -0.384992
vn -0.8602554 -0.3342782 -0.384992
vn -0.8848788 0.4658213 0
vn -0.8848788 0.4658213 0
vn -0.8848788 0.4658213 0
vn 0.8821821 0.4709085 0
vn 0.8821821 0.4709085 0
vn 0.8821821 0.4709085 0
vn 0.4917231 -0.7343945 0.4678388
vn 0.4917231 -0.7343945 0.4678388
vn 0.4917231 -0.7343945 0.4678388
vn 0.4917231 -0.7343945 0.4678388
vn 6.602433E-05 -0.7133035 -0.7008553
vn 6.602433E-05 -0.7133035 -0.7008553
vn 6.602433E-05 -0.7133035 -0.7008553
vn 6.602433E-05 -0.7133035 -0.7008553
vn 0.9836292 -0.1262722 -0.1285649
vn 0.9836292 -0.1262722 -0.1285649
vn 0.9836292 -0.1262722 -0.1285649
vn 0.9836292 -0.1262722 -0.1285649
vn 9.515008E-05 0.655498 -0.7551969
vn 9.515008E-05 0.655498 -0.7551969
vn 9.515008E-05 0.655498 -0.7551969
vn 9.515008E-05 0.655498 -0.7551969
vn 0.9995036 0.03150358 0.0001544458
vn 0.9995036 0.03150358 0.0001544458
vn 0.9995036 0.03150358 0.0001544458
vn 0.9995036 0.03150358 0.0001544458
vn -9.515008E-05 0.6554981 0.7551969
vn -9.515008E-05 0.6554981 0.7551969
vn -9.515008E-05 0.6554981 0.7551969
vn -9.515008E-05 0.6554981 0.7551969
vn 0 0 1
vn 0 0 1
vn 0 0 1
vn 0 0 1
vn -0.0001248715 0.7002462 0.7139014
vn -0.0001248715 0.7002462 0.7139014
vn -0.0001248715 0.7002462 0.7139014
vn -0.0001248715 0.7002462 0.7139014
vn -0.0001256329 0.7002466 0.713901
vn -0.0001256329 0.7002466 0.713901
vn -0.9995036 0.03150333 -0.0001555733
vn -0.9995036 0.03150333 -0.0001555733
vn -0.9995036 0.03150333 -0.0001555733
vn -0.9995036 0.03150333 -0.0001555733
vn 0.0002039132 -0.0002659856 -1
vn 0.0002039132 -0.0002659856 -1
vn 0.0002039132 -0.0002659856 -1
vn 0.0002039132 -0.0002659856 -1
vn -0.4918834 -0.7343958 0.4676682
vn -0.4918834 -0.7343958 0.4676682
vn -0.4918834 -0.7343958 0.4676682
vn -0.4918834 -0.7343958 0.4676682
vn 0.4919291 0.4818489 -0.7251396
vn 0.4919291 0.4818489 -0.7251396
vn 0.4919291 0.4818489 -0.7251396
vn 0.4919291 0.4818489 -0.7251396
vn -0.4916779 0.4818478 -0.7253107
vn -0.4916779 0.4818478 -0.7253107
vn -0.4916779 0.4818478 -0.7253107
vn -0.4916779 0.4818478 -0.7253107
vn -1 0 0
vn -1 0 0
vn -1 0 0
vn -1 0 0
vn -6.605266E-05 -0.7133025 0.7008563
vn -6.605266E-05 -0.7133025 0.7008563
vn -6.605266E-05 -0.7133025 0.7008563
vn -6.605266E-05 -0.7133025 0.7008563
vn -0.000203927 -0.0002659809 1
vn -0.000203927 -0.0002659809 1
vn -0.000203927 -0.0002659809 1
vn -0.000203927 -0.0002659809 1
vn 0 0 -1
vn 0 0 -1
vn 0 0 -1
vn 0 0 -1
vn 0.6568752 -0.7539993 5.681759E-05
vn 0.6568752 -0.7539993 5.681759E-05
vn 0.6568752 -0.7539993 5.681759E-05
vn 0.6568752 -0.7539993 5.681759E-05
vn -1.548512E-07 1 0
vn -1.548512E-07 1 0
vn -1.548512E-07 1 0
vn -1.548512E-07 1 0
vn -0.9835842 -0.1262746 -0.1289064
vn -0.9835842 -0.1262746 -0.1289064
vn -0.9835842 -0.1262746 -0.1289064
vn -0.9835842 -0.1262746 -0.1289064
vn 0 0 -1
vn 0 0 -1
vn 0 0 -1
vn 0 0 -1
vn -1 0 0
vn -1 0 0
vn -1 0 0
vn -1 0 0
vn 0 0 1
vn 0 0 1
vn 0 0 1
vn 0 0 1
vn 0 0 1
vn 0 0 1
vn 0 0 1
vn 0 0 1
vn 0 0 -1
vn 0 0 -1
vn 0 0 -1
vn 0 0 -1
vn -1 0 0
vn -1 0 0
vn -1 0 0
vn -1 0 0
vn 1 0 0
vn 1 0 0
vn 1 0 0
vn 1 0 0
vn 1 0 0
vn 1 0 0
vn 1 0 0
vn 1 0 0
vn 1 0 0
vn 1 0 0
vn 1 0 0
vn 1 0 0
vn -0.6568755 -0.7539991 -5.681762E-05
vn -0.6568755 -0.7539991 -5.681762E-05
vn -0.6568755 -0.7539991 -5.681762E-05
vn -0.6568755 -0.7539991 -5.681762E-05
vn 0 -1 0
vn 0 -1 0
vn 0 -1 0
vn 0 -1 0

vt 0.193206 0.03167209
vt 0.1936311 0.02386284
vt 0.1850372 0.01914334
vt 0.1936311 0.02386284
vt 0.193206 0.03167209
vt 0.1945658 0.03161696
vt 0.2230398 0.03256422
vt 0.2191103 0.03893036
vt 0.2351264 0.03448728
vt 0.2180133 0.03830278
vt 0.2230398 0.03256422
vt 0.2187458 0.023058
vt 0.2230398 0.03256422
vt 0.2180133 0.03830278
vt 0.2191103 0.03893036
vt 0.1936311 0.02386284
vt 0.1945658 0.03161696
vt 0.2018006 0.01872885
vt 0.2018006 0.01872885
vt 0.1850372 0.01914334
vt 0.1936311 0.02386284
vt 0.2187458 0.023058
vt 0.2230398 0.03256422
vt 0.2351264 0.03448728
vt 0.3330542 0.2736436
vt 0.3286451 0.2745717
vt 0.3299864 0.2787417
vt 0.3341098 0.2769253
vt 0.1684043 0.1052181
vt 0.1828014 0.09598076
vt 0.1814983 0.09507823
vt 0.1686139 0.1032963
vt 0.3299864 0.2787417
vt 0.332158 0.282546
vt 0.3358187 0.2799191
vt 0.3341098 0.2769253
vt 0.1850372 0.01914334
vt 0.1670386 0.02512866
vt 0.1712306 0.03768775
vt 0.193206 0.03167209
vt 0.2172518 0.04290652
vt 0.2191103 0.03893036
vt 0.2180133 0.03830278
vt 0.2161935 0.04241121
vt 0.2187458 0.023058
vt 0.2018006 0.01872885
vt 0.1945658 0.03161696
vt 0.2180133 0.03830278
vt 0.2025706 0.01179013
vt 0.2018006 0.01872885
vt 0.2187458 0.023058
vt 0.2216351 0.01584756
vt 0.2930401 0.323665
vt 0.2854531 0.3236649
vt 0.2892466 0.3258551
vt 0.2854531 0.3192845
vt 0.2930401 0.3192845
vt 0.2892466 0.3170943
vt 0.193206 0.03167209
vt 0.193314 0.03636706
vt 0.1944073 0.03638589
vt 0.1945658 0.03161696
vt 0.193314 0.03636706
vt 0.193206 0.03167209
vt 0.1712306 0.03768775
vt 0.1724308 0.04178157
vt 0.3286451 0.2745717
vt 0.3330542 0.2736436
vt 0.3326972 0.2702149
vt 0.3281914 0.2702149
vt 0.3358187 0.2605107
vt 0.3321579 0.2578838
vt 0.3299864 0.2616881
vt 0.3341098 0.2635046
vt 0.3330542 0.2667862
vt 0.3341098 0.2635046
vt 0.3299864 0.2616881
vt 0.3286451 0.2658581
vt 0.1883095 0.1007414
vt 0.1972341 0.08118019
vt 0.1874739 0.08130646
vt 0.1828014 0.09598076
vt 0.1823384 0.06371653
vt 0.1806604 0.06503481
vt 0.1856546 0.08114737
vt 0.1874739 0.08130646
vt 0.1944073 0.03638589
vt 0.2161935 0.04241121
vt 0.2180133 0.03830278
vt 0.1945658 0.03161696
vt 0.1840818 0.0117901
vt 0.164611 0.01725286
vt 0.1670386 0.02512866
vt 0.1850372 0.01914334
vt 0.1646982 0.05113751
vt 0.164611 0.05414033
vt 0.1806604 0.06503481
vt 0.1823384 0.06371653
vt 0.1944073 0.03638589
vt 0.1940901 0.03753287
vt 0.2158763 0.04355818
vt 0.2161935 0.04241121
vt 0.3330542 0.2667862
vt 0.3286451 0.2658581
vt 0.3281914 0.2702149
vt 0.3326972 0.2702149
vt 0.3058197 0.2899802
vt 0.2854531 0.2899802
vt 0.2854531 0.316766
vt 0.3058197 0.316766
vt 0.1850372 0.01914334
vt 0.2018006 0.01872885
vt 0.2025706 0.01179013
vt 0.1840818 0.0117901
vt 0.3258016 0.2899802
vt 0.3258016 0.316766
vt 0.3461683 0.316766
vt 0.3461683 0.2899802
vt 0.1874739 0.08130646
vt 0.1972341 0.08118019
vt 0.1890113 0.05837765
vt 0.1823384 0.06371653
vt 0.1828014 0.09598076
vt 0.1684043 0.1052181
vt 0.1724111 0.1112691
vt 0.1883095 0.1007414
vt 0.3058197 0.316766
vt 0.3258016 0.316766
vt 0.3258016 0.2899802
vt 0.3058197 0.2899802
vt 0.1823384 0.06371653
vt 0.1890113 0.05837765
vt 0.1703197 0.04388651
vt 0.1646982 0.05113751
vt 0.3461683 0.2899802
vt 0.3461683 0.316766
vt 0.3661502 0.316766
vt 0.3661502 0.2899802
vt 0.2216351 0.01584756
vt 0.2187458 0.023058
vt 0.2351264 0.03448728
vt 0.2399725 0.02701834
vt 0.1856546 0.08114737
vt 0.1814983 0.09507823
vt 0.1828014 0.09598076
vt 0.1874739 0.08130646
vt 0.1856546 0.08114737
vt 0.1806604 0.06503481
vt 0.164611 0.07000977
vt 0.1696052 0.0861223

usemtl LOW-POLY-COLORS
usemap LOW-POLY-COLORS
f 2/2/2 1/1/1 3/3/3
f 5/5/5 4/4/4 6/6/6
f 8/8/8 7/7/7 9/9/9
f 11/11/11 10/10/10 12/12/12
f 14/14/14 13/13/13 15/15/15
f 17/17/17 16/16/16 18/18/18
f 20/20/20 19/19/19 21/21/21
f 23/23/23 22/22/22 24/24/24
f 26/26/26 25/25/25 27/27/27
f 27/27/27 25/25/25 28/28/28
f 30/30/30 29/29/29 31/31/31
f 31/31/31 29/29/29 32/32/32
f 34/34/34 33/33/33 35/35/35
f 35/35/35 33/33/33 36/36/36
f 38/38/38 37/37/37 39/39/39
f 39/39/39 37/37/37 40/40/40
f 42/42/42 41/41/41 43/43/43
f 43/43/43 41/41/41 44/44/44
f 46/46/46 45/45/45 47/47/47
f 47/47/47 45/45/45 48/48/48
f 50/50/50 49/49/49 51/51/51
f 51/51/51 49/49/49 52/52/52
f 54/54/54 53/53/53 55/55/55
f 56/56/56 53/53/53 54/54/54
f 56/56/56 57/57/57 53/53/53
f 58/58/58 57/57/57 56/56/56
f 60/60/60 59/59/59 61/61/61
f 61/61/61 59/59/59 62/62/62
f 64/64/64 63/63/63 65/65/65
f 65/65/65 63/63/63 66/66/66
f 68/68/68 67/67/67 69/69/69
f 69/69/69 67/67/67 70/70/70
f 72/72/72 71/71/71 73/73/73
f 73/73/73 71/71/71 74/74/74
f 76/76/76 75/75/75 77/77/77
f 77/77/77 75/75/75 78/78/78
f 80/80/80 79/79/79 81/81/81
f 81/81/81 79/79/79 82/82/82
f 84/84/84 83/83/83 85/85/85
f 85/85/85 83/83/83 86/86/86
f 88/88/88 87/87/87 89/89/89
f 89/89/89 87/87/87 90/90/90
f 92/92/92 91/91/91 93/93/93
f 93/93/93 91/91/91 94/94/94
f 96/96/96 95/95/95 97/97/97
f 97/97/97 95/95/95 98/98/98
f 100/100/100 99/99/99 101/101/101
f 101/101/101 99/99/99 102/102/102
f 104/104/104 103/103/103 105/105/105
f 105/105/105 103/103/103 106/106/106
f 108/108/108 107/107/107 109/109/109
f 109/109/109 107/107/107 110/110/110
f 112/112/112 111/111/111 113/113/113
f 113/113/113 111/111/111 114/114/114
f 116/116/116 115/115/115 117/117/117
f 117/117/117 115/115/115 118/118/118
f 120/120/120 119/119/119 121/121/121
f 121/121/121 119/119/119 122/122/122
f 124/124/124 123/123/123 125/125/125
f 125/125/125 123/123/123 126/126/126
f 128/128/128 127/127/127 129/129/129
f 129/129/129 127/127/127 130/130/130
f 132/132/132 131/131/131 133/133/133
f 133/133/133 131/131/131 134/134/134
f 136/136/136 135/135/135 137/137/137
f 137/137/137 135/135/135 138/138/138
f 140/140/140 139/139/139 141/141/141
f 141/141/141 139/139/139 142/142/142
f 144/144/144 143/143/143 145/145/145
f 145/145/145 143/143/143 146/146/146
f 148/148/148 147/147/147 149/149/149
f 149/149/149 147/147/147 150/150/150
