mtllib ./pasta_8.mtl
g pasta
v -0.04000354 -0.0004821292 -0.1359879
v -0.04000354 0.001403562 -0.15
v -0.03297253 0.008690952 -0.1359879
v -0.03366591 -0.01299467 -0.1359879
v -0.04000354 -0.00236782 -0.15
v -0.04000354 -0.0004821292 -0.1359879
v 0.04000354 -0.00236782 -0.15
v 0.03366591 -0.01299467 -0.1359879
v 0.04000354 -0.0004821292 -0.1359879
v 0.04000354 0.001403562 -0.15
v 0.04000354 -0.0004821292 -0.1359879
v 0.03297253 0.008690952 -0.1359879
v 0.04000354 -0.0004821292 -0.1359879
v 0.04000354 0.001403562 -0.15
v 0.04000354 -0.00236782 -0.15
v -0.04000354 0.001403562 -0.15
v -0.04000354 -0.0004821292 -0.1359879
v -0.04000354 -0.00236782 -0.15
v -0.04000354 -0.0004821292 0.1359879
v -0.03297253 0.007140254 0.1359879
v -0.04000354 0.001403562 0.15
v -0.03366591 -0.01299467 0.1359879
v -0.04000354 -0.0004821292 0.1359879
v -0.04000354 -0.00236782 0.15
v 0.04000354 -0.00236782 0.15
v 0.04000354 -0.0004821292 0.1359879
v 0.03366591 -0.01299467 0.1359879
v 0.04000354 0.001403562 0.15
v 0.03297253 0.007140254 0.1359879
v 0.04000354 -0.0004821292 0.1359879
v 0.04000354 -0.0004821292 0.1359879
v 0.04000354 -0.00236782 0.15
v 0.04000354 0.001403562 0.15
v -0.04000354 0.001403562 0.15
v -0.04000354 -0.00236782 0.15
v -0.04000354 -0.0004821292 0.1359879
v -0.03366591 -0.01299467 0
v -0.03366591 -0.01299467 -0.1359879
v -0.04000354 -0.0004821292 -0.1359879
v -0.04000354 -0.0004821292 0
v -0.04000354 -0.0004821292 0.1359879
v -0.03366591 -0.01299467 0.1359879
v 0.04000354 0.001403562 -0.15
v 0.03297253 0.008690952 -0.1359879
v -0.03297253 0.008690952 -0.1359879
v -0.04000354 0.001403562 -0.15
v -0.04000354 -0.00236782 -0.15
v -0.03366591 -0.01299467 -0.1359879
v 0.03366591 -0.01299467 -0.1359879
v 0.04000354 -0.00236782 -0.15
v -0.04000354 -0.0004821292 0
v -0.04000354 -0.0004821292 -0.1359879
v -0.03297253 0.008690952 -0.1359879
v -0.03297253 0.007140254 0
v 0.04000354 -0.0004821292 -0.1359879
v 0.04000354 -0.0004821292 0
v 0.03297253 0.007140254 0
v 0.03297253 0.008690952 -0.1359879
v -0.03366591 -0.01299467 -0.1359879
v 0.03366591 -0.01299467 0
v 0.03366591 -0.01299467 -0.1359879
v -0.03366591 -0.01299467 0
v -0.03366591 -0.01299467 0.1359879
v 0.03366591 -0.01299467 0.1359879
v 0.02329399 0.01059563 -0.09077981
v -0.02683201 0.008763331 0
v -0.02329399 0.01059563 -0.09077981
v 0.02649656 0.008852001 0
v 0.02329399 0.01059563 0.1174522
v -0.02329399 0.01059563 0.1174522
v 0.03366591 -0.01299467 -0.1359879
v 0.04000354 -0.0004821292 0
v 0.04000354 -0.0004821292 -0.1359879
v 0.03366591 -0.01299467 0
v 0.03366591 -0.01299467 0.1359879
v 0.04000354 -0.0004821292 0.1359879
v 0.04000354 -0.00236782 -0.15
v 0.04317012 0.004233285 -0.1600495
v -0.04317012 0.004233285 -0.1600495
v -0.04000354 -0.00236782 -0.15
v -0.04317012 0.007443713 -0.1580705
v -0.04317012 0.004233285 -0.1600495
v 0.04317012 0.004233285 -0.1600495
v 0.04317012 0.007443713 -0.1580705
v 0.04000354 0.001403562 -0.15
v 0.04317012 0.007443713 -0.1580705
v 0.04317012 0.004233285 -0.1600495
v 0.04000354 -0.00236782 -0.15
v -0.04000354 0.001403562 -0.15
v -0.04317012 0.007443713 -0.1580705
v 0.04317012 0.007443713 -0.1580705
v 0.04000354 0.001403562 -0.15
v -0.04000354 -0.00236782 -0.15
v -0.04317012 0.004233285 -0.1600495
v -0.04317012 0.007443713 -0.1580705
v -0.04000354 0.001403562 -0.15
v -0.02683201 0.008763331 0
v -0.03297253 0.007140254 0
v -0.03297253 0.008690952 -0.1359879
v -0.02329399 0.01059563 -0.09077981
v -0.02329399 0.01059563 -0.09077981
v -0.03297253 0.008690952 -0.1359879
v 0.03297253 0.008690952 -0.1359879
v 0.02329399 0.01059563 -0.09077981
v 0.02329399 0.01059563 -0.09077981
v 0.03297253 0.008690952 -0.1359879
v 0.03297253 0.007140254 0
v 0.02649656 0.008852001 0
v 0.04000354 0.001403562 0.15
v -0.04000354 0.001403562 0.15
v -0.03297253 0.007140254 0.1359879
v 0.03297253 0.007140254 0.1359879
v -0.04000354 -0.00236782 0.15
v 0.04000354 -0.00236782 0.15
v 0.03366591 -0.01299467 0.1359879
v -0.03366591 -0.01299467 0.1359879
v 0.04000354 -0.00236782 0.15
v -0.04317012 0.005362048 0.1601932
v 0.04317012 0.005362048 0.1601932
v -0.04000354 -0.0004821292 0
v -0.03297253 0.007140254 0
v -0.03297253 0.007140254 0.1359879
v -0.04000354 -0.0004821292 0.1359879
v 0.04000354 -0.0004821292 0.1359879
v 0.03297253 0.007140254 0.1359879
v 0.03297253 0.007140254 0
v 0.04000354 -0.0004821292 0
v -0.04317012 0.008843202 0.1587424
v 0.04317012 0.008843202 0.1587424
v 0.04317012 0.005362048 0.1601932
v -0.04317012 0.005362048 0.1601932
v 0.04000354 0.001403562 0.15
v 0.04000354 -0.00236782 0.15
v 0.04317012 0.005362048 0.1601932
v 0.04317012 0.008843202 0.1587424
v -0.04000354 0.001403562 0.15
v 0.04000354 0.001403562 0.15
v 0.04317012 0.008843202 0.1587424
v -0.04317012 0.008843202 0.1587424
v -0.04000354 -0.00236782 0.15
v -0.04000354 0.001403562 0.15
v -0.04317012 0.008843202 0.1587424
v -0.04317012 0.005362048 0.1601932
v -0.02683201 0.008763331 0
v -0.02329399 0.01059563 0.1174522
v -0.03297253 0.007140254 0.1359879
v -0.03297253 0.007140254 0
v -0.02329399 0.01059563 0.1174522
v 0.02329399 0.01059563 0.1174522
v 0.03297253 0.007140254 0.1359879
v -0.03297253 0.007140254 0.1359879
v 0.02329399 0.01059563 0.1174522
v 0.02649656 0.008852001 0
v 0.03297253 0.007140254 0
v 0.03297253 0.007140254 0.1359879

vn -0.79103 0.6063116 0.08159484
vn -0.79103 0.6063116 0.08159484
vn -0.79103 0.6063116 0.08159484
vn -0.8904504 -0.4510147 0.06069524
vn -0.8904504 -0.4510147 0.06069524
vn -0.8904504 -0.4510147 0.06069524
vn 0.8904504 -0.4510148 0.06069539
vn 0.8904504 -0.4510148 0.06069539
vn 0.8904504 -0.4510148 0.06069539
vn 0.79103 0.6063116 0.08159484
vn 0.79103 0.6063116 0.08159484
vn 0.79103 0.6063116 0.08159484
vn 1 0 0
vn 1 0 0
vn 1 0 0
vn -1 0 0
vn -1 0 0
vn -1 0 0
vn -0.7320042 0.6752133 -0.09086714
vn -0.7320042 0.6752133 -0.09086714
vn -0.7320042 0.6752133 -0.09086714
vn -0.8904504 -0.4510147 -0.06069524
vn -0.8904504 -0.4510147 -0.06069524
vn -0.8904504 -0.4510147 -0.06069524
vn 0.8904504 -0.4510148 -0.06069539
vn 0.8904504 -0.4510148 -0.06069539
vn 0.8904504 -0.4510148 -0.06069539
vn 0.7320042 0.6752133 -0.09086695
vn 0.7320042 0.6752133 -0.09086695
vn 0.7320042 0.6752133 -0.09086695
vn 1 0 0
vn 1 0 0
vn 1 0 0
vn -1 0 0
vn -1 0 0
vn -1 0 0
vn -0.8920951 -0.4518477 0
vn -0.8920951 -0.4518477 0
vn -0.8920951 -0.4518477 0
vn -0.8920951 -0.4518477 0
vn -0.8920951 -0.4518477 0
vn -0.8920951 -0.4518477 0
vn 0 0.8871891 -0.461406
vn 0 0.8871891 -0.461406
vn 0 0.8871891 -0.461406
vn 0 0.8871891 -0.461406
vn 0 -0.796775 -0.6042761
vn 0 -0.796775 -0.6042761
vn 0 -0.796775 -0.6042761
vn 0 -0.796775 -0.6042761
vn -0.7667366 0.6419513 0.003660157
vn -0.7667366 0.6419513 0.003660157
vn -0.7667366 0.6419513 0.003660157
vn -0.7667366 0.6419513 0.003660157
vn 0.7667366 0.6419513 0.003660157
vn 0.7667366 0.6419513 0.003660157
vn 0.7667366 0.6419513 0.003660157
vn 0.7667366 0.6419513 0.003660157
vn 0 -1 0
vn 0 -1 0
vn 0 -1 0
vn 0 -1 0
vn 0 -1 0
vn 0 -1 0
vn -0.0008872782 0.9998057 0.01969019
vn -0.0008872782 0.9998057 0.01969019
vn -0.0008872782 0.9998057 0.01969019
vn -0.0008872782 0.9998057 0.01969019
vn -0.0008873401 0.9998838 -0.01521991
vn -0.0008873401 0.9998838 -0.01521991
vn 0.8920951 -0.4518477 0
vn 0.8920951 -0.4518477 0
vn 0.8920951 -0.4518477 0
vn 0.8920951 -0.4518477 0
vn 0.8920951 -0.4518477 0
vn 0.8920951 -0.4518477 0
vn 0 -0.835814 -0.5490127
vn 0 -0.835814 -0.5490127
vn 0 -0.835814 -0.5490127
vn 0 -0.835814 -0.5490127
vn 0 0.5247453 -0.8512593
vn 0 0.5247453 -0.8512593
vn 0 0.5247453 -0.8512593
vn 0 0.5247453 -0.8512593
vn 0.9569518 -0.07915433 0.279245
vn 0.9569518 -0.07915433 0.279245
vn 0.9569518 -0.07915433 0.279245
vn 0.9569518 -0.07915433 0.279245
vn 0 0.8006049 0.5991926
vn 0 0.8006049 0.5991926
vn 0 0.8006049 0.5991926
vn 0 0.8006049 0.5991926
vn -0.9569517 -0.07915432 0.2792453
vn -0.9569517 -0.07915432 0.2792453
vn -0.9569517 -0.07915432 0.2792453
vn -0.9569517 -0.07915432 0.2792453
vn -0.2464442 0.9690989 0.01061235
vn -0.2464442 0.9690989 0.01061235
vn -0.2464442 0.9690989 0.01061235
vn -0.2464442 0.9690989 0.01061235
vn 0 0.9991136 -0.0420941
vn 0 0.9991136 -0.0420941
vn 0 0.9991136 -0.0420941
vn 0 0.9991136 -0.0420941
vn 0.2465901 0.9690619 0.01059538
vn 0.2465901 0.9690619 0.01059538
vn 0.2465901 0.9690619 0.01059538
vn 0.2465901 0.9690619 0.01059538
vn 0 0.9254441 0.3788843
vn 0 0.9254441 0.3788843
vn 0 0.9254441 0.3788843
vn 0 0.9254441 0.3788843
vn 0 -0.796775 0.6042761
vn 0 -0.796775 0.6042761
vn 0 -0.796775 0.6042761
vn 0 -0.796775 0.6042761
vn 0 -0.7967998 0.6042433
vn 0 -0.7967998 0.6042433
vn 0 -0.7967998 0.6042433
vn -0.7350454 0.678018 0
vn -0.7350454 0.678018 0
vn -0.7350454 0.678018 0
vn -0.7350454 0.678018 0
vn 0.7350454 0.678018 0
vn 0.7350454 0.678018 0
vn 0.7350454 0.678018 0
vn 0.7350454 0.678018 0
vn 0 0.384696 0.9230434
vn 0 0.384696 0.9230434
vn 0 0.384696 0.9230434
vn 0 0.384696 0.9230434
vn 0.9594026 -0.05532338 -0.2765608
vn 0.9594026 -0.05532338 -0.2765608
vn 0.9594026 -0.05532338 -0.2765608
vn 0.9594026 -0.05532338 -0.2765608
vn 0 0.7615674 -0.6480858
vn 0 0.7615674 -0.6480858
vn 0 0.7615674 -0.6480858
vn 0 0.7615674 -0.6480858
vn -0.9594029 -0.0553234 -0.2765602
vn -0.9594029 -0.0553234 -0.2765602
vn -0.9594029 -0.0553234 -0.2765602
vn -0.9594029 -0.0553234 -0.2765602
vn -0.3083989 0.9512537 -0.002572056
vn -0.3083989 0.9512537 -0.002572056
vn -0.3083989 0.9512537 -0.002572056
vn -0.3083989 0.9512537 -0.002572056
vn 0 0.9830644 0.1832604
vn 0 0.9830644 0.1832604
vn 0 0.9830644 0.1832604
vn 0 0.9830644 0.1832604
vn 0.3074205 0.9515701 -0.002661984
vn 0.3074205 0.9515701 -0.002661984
vn 0.3074205 0.9515701 -0.002661984
vn 0.3074205 0.9515701 -0.002661984

vt 0.3027766 0.2912439
vt 0.3040249 0.2911716
vt 0.3027681 0.29037
vt 0.3026834 0.2923172
vt 0.303975 0.2915064
vt 0.3027766 0.2912439
vt 0.3043871 0.2980925
vt 0.3029066 0.2974753
vt 0.3031643 0.2986071
vt 0.3041444 0.2847659
vt 0.3029253 0.284573
vt 0.3029073 0.2854527
vt 0.3029253 0.284573
vt 0.3041444 0.2847659
vt 0.3041329 0.2844014
vt 0.3040249 0.2911716
vt 0.3027766 0.2912439
vt 0.303975 0.2915064
vt 0.2819446 0.2912643
vt 0.2819304 0.2904787
vt 0.2807279 0.2912238
vt 0.2820517 0.2923346
vt 0.2819446 0.2912643
vt 0.2807818 0.2915525
vt 0.2802852 0.2981202
vt 0.2815195 0.2986443
vt 0.2817819 0.2975056
vt 0.2805555 0.2848956
vt 0.2817746 0.2855234
vt 0.281766 0.2847295
vt 0.281766 0.2847295
vt 0.280568 0.284528
vt 0.2805555 0.2848956
vt 0.2807279 0.2912238
vt 0.2807818 0.2915525
vt 0.2819446 0.2912643
vt 0.2923619 0.2924384
vt 0.3026834 0.2923172
vt 0.3027766 0.2912439
vt 0.2923612 0.2913005
vt 0.2819446 0.2912643
vt 0.2820517 0.2923346
vt 0.3041444 0.2847659
vt 0.3029073 0.2854527
vt 0.3027681 0.29037
vt 0.3040249 0.2911716
vt 0.303975 0.2915064
vt 0.3026834 0.2923172
vt 0.3029066 0.2974753
vt 0.3043871 0.2980925
vt 0.2923612 0.2913005
vt 0.3027766 0.2912439
vt 0.3027681 0.29037
vt 0.2923607 0.2905109
vt 0.3029253 0.284573
vt 0.2923284 0.2844821
vt 0.2923349 0.2852944
vt 0.3029073 0.2854527
vt 0.3026834 0.2923172
vt 0.2923632 0.2980344
vt 0.3029066 0.2974753
vt 0.2923619 0.2924384
vt 0.2820517 0.2923346
vt 0.2817819 0.2975056
vt 0.5749659 0.8190766
vt 0.5633045 0.8255096
vt 0.574964 0.8250589
vt 0.5633069 0.8186617
vt 0.5482231 0.8190674
vt 0.5482209 0.8250497
vt 0.3029066 0.2974753
vt 0.292365 0.2991455
vt 0.3031643 0.2986071
vt 0.2923632 0.2980344
vt 0.2817819 0.2975056
vt 0.2815195 0.2986443
vt 0.3043871 0.2980925
vt 0.3053934 0.2983077
vt 0.3050395 0.2911184
vt 0.303975 0.2915064
vt 0.3047113 0.2908999
vt 0.3050395 0.2911184
vt 0.3053952 0.2850041
vt 0.3051216 0.2852175
vt 0.3041444 0.2847659
vt 0.3051216 0.2852175
vt 0.3053952 0.2850041
vt 0.3041329 0.2844014
vt 0.3040249 0.2911716
vt 0.3047113 0.2908999
vt 0.3051216 0.2852175
vt 0.3041444 0.2847659
vt 0.303975 0.2915064
vt 0.3050395 0.2911184
vt 0.3047113 0.2908999
vt 0.3040249 0.2911716
vt 0.2923587 0.2900168
vt 0.2923607 0.2905109
vt 0.3027681 0.29037
vt 0.2994041 0.2896518
vt 0.2994041 0.2896518
vt 0.3027681 0.29037
vt 0.3029073 0.2854527
vt 0.2994441 0.2861769
vt 0.2994441 0.2861769
vt 0.3029073 0.2854527
vt 0.2923349 0.2852944
vt 0.2923373 0.2858208
vt 0.2805555 0.2848956
vt 0.2807279 0.2912238
vt 0.2819304 0.2904787
vt 0.2817746 0.2855234
vt 0.2807818 0.2915525
vt 0.2802852 0.2981202
vt 0.2817819 0.2975056
vt 0.2820517 0.2923346
vt 0.2802852 0.2981202
vt 0.2796468 0.2910756
vt 0.2791935 0.2983244
vt 0.2923612 0.2913005
vt 0.2923607 0.2905109
vt 0.2819304 0.2904787
vt 0.2819446 0.2912643
vt 0.281766 0.2847295
vt 0.2817746 0.2855234
vt 0.2923349 0.2852944
vt 0.2923284 0.2844821
vt 0.2799582 0.2908464
vt 0.2794586 0.2855219
vt 0.2791935 0.2852953
vt 0.2796468 0.2910756
vt 0.2805555 0.2848956
vt 0.280568 0.284528
vt 0.2791935 0.2852953
vt 0.2794586 0.2855219
vt 0.2807279 0.2912238
vt 0.2805555 0.2848956
vt 0.2794586 0.2855219
vt 0.2799582 0.2908464
vt 0.2807818 0.2915525
vt 0.2807279 0.2912238
vt 0.2799582 0.2908464
vt 0.2796468 0.2910756
vt 0.2923587 0.2900168
vt 0.28332 0.2897072
vt 0.2819304 0.2904787
vt 0.2923607 0.2905109
vt 0.28332 0.2897072
vt 0.2832231 0.2862775
vt 0.2817746 0.2855234
vt 0.2819304 0.2904787
vt 0.2832231 0.2862775
vt 0.2923373 0.2858208
vt 0.2923349 0.2852944
vt 0.2817746 0.2855234

usemtl LOW-POLY-COLORS
usemap LOW-POLY-COLORS
f 2/2/2 1/1/1 3/3/3
f 5/5/5 4/4/4 6/6/6
f 8/8/8 7/7/7 9/9/9
f 11/11/11 10/10/10 12/12/12
f 14/14/14 13/13/13 15/15/15
f 17/17/17 16/16/16 18/18/18
f 20/20/20 19/19/19 21/21/21
f 23/23/23 22/22/22 24/24/24
f 26/26/26 25/25/25 27/27/27
f 29/29/29 28/28/28 30/30/30
f 32/32/32 31/31/31 33/33/33
f 35/35/35 34/34/34 36/36/36
f 38/38/38 37/37/37 39/39/39
f 39/39/39 37/37/37 40/40/40
f 40/40/40 37/37/37 41/41/41
f 41/41/41 37/37/37 42/42/42
f 44/44/44 43/43/43 45/45/45
f 45/45/45 43/43/43 46/46/46
f 48/48/48 47/47/47 49/49/49
f 49/49/49 47/47/47 50/50/50
f 52/52/52 51/51/51 53/53/53
f 53/53/53 51/51/51 54/54/54
f 56/56/56 55/55/55 57/57/57
f 57/57/57 55/55/55 58/58/58
f 60/60/60 59/59/59 61/61/61
f 62/62/62 59/59/59 60/60/60
f 60/60/60 63/63/63 62/62/62
f 64/64/64 63/63/63 60/60/60
f 66/66/66 65/65/65 67/67/67
f 68/68/68 65/65/65 66/66/66
f 66/66/66 69/69/69 68/68/68
f 70/70/70 69/69/69 66/66/66
f 72/72/72 71/71/71 73/73/73
f 74/74/74 71/71/71 72/72/72
f 72/72/72 75/75/75 74/74/74
f 76/76/76 75/75/75 72/72/72
f 78/78/78 77/77/77 79/79/79
f 79/79/79 77/77/77 80/80/80
f 82/82/82 81/81/81 83/83/83
f 83/83/83 81/81/81 84/84/84
f 86/86/86 85/85/85 87/87/87
f 87/87/87 85/85/85 88/88/88
f 90/90/90 89/89/89 91/91/91
f 91/91/91 89/89/89 92/92/92
f 94/94/94 93/93/93 95/95/95
f 95/95/95 93/93/93 96/96/96
f 98/98/98 97/97/97 99/99/99
f 99/99/99 97/97/97 100/100/100
f 102/102/102 101/101/101 103/103/103
f 103/103/103 101/101/101 104/104/104
f 106/106/106 105/105/105 107/107/107
f 107/107/107 105/105/105 108/108/108
f 110/110/110 109/109/109 111/111/111
f 111/111/111 109/109/109 112/112/112
f 114/114/114 113/113/113 115/115/115
f 115/115/115 113/113/113 116/116/116
f 113/113/113 117/117/117 118/118/118
f 118/118/118 117/117/117 119/119/119
f 121/121/121 120/120/120 122/122/122
f 122/122/122 120/120/120 123/123/123
f 125/125/125 124/124/124 126/126/126
f 126/126/126 124/124/124 127/127/127
f 129/129/129 128/128/128 130/130/130
f 130/130/130 128/128/128 131/131/131
f 133/133/133 132/132/132 134/134/134
f 134/134/134 132/132/132 135/135/135
f 137/137/137 136/136/136 138/138/138
f 138/138/138 136/136/136 139/139/139
f 141/141/141 140/140/140 142/142/142
f 142/142/142 140/140/140 143/143/143
f 145/145/145 144/144/144 146/146/146
f 146/146/146 144/144/144 147/147/147
f 149/149/149 148/148/148 150/150/150
f 150/150/150 148/148/148 151/151/151
f 153/153/153 152/152/152 154/154/154
f 154/154/154 152/152/152 155/155/155
