mtllib ./pizza-frozen_18.mtl
g pizza-frozen
v -0.1999592 0 0.1999592
v 0.1999592 0 0.1999592
v 0.1999592 0 -0.1999592
v -0.1999592 0 -0.1999592
v -0.1999592 0 -0.1999592
v -0.1999592 0.08 -0.1999592
v -0.1999592 0.08 0.1999592
v -0.1999592 0 0.1999592
v 0.1999592 0 -0.1999592
v 0.1999592 0.08 -0.1999592
v -0.1999592 0.08 -0.1999592
v -0.1999592 0 -0.1999592
v -0.1999592 0 0.1999592
v -0.1999592 0.08 0.1999592
v 0.1999592 0.08 0.1999592
v 0.1999592 0 0.1999592
v 0.1999592 0 0.1999592
v 0.1999592 0.08 0.1999592
v 0.1999592 0.08 -0.1999592
v 0.1999592 0 -0.1999592
v -0.0468327 0.08000001 -0.02282085
v -0.03366587 0.08000001 -1.52508E-05
v -0.04683271 0.08000001 0.02279037
v -0.07316635 0.08000001 0.02279037
v -0.07316636 0.08000001 -0.02282085
v -0.08633316 0.08000001 -1.52508E-05
v 0.01753367 0.08000001 -0.07924077
v -0.02196679 0.08000001 -0.05643516
v -0.00879999 0.08000001 -0.07924077
v -0.008799976 0.08000001 -0.03362954
v 0.03070051 0.08000001 -0.05643516
v 0.01753366 0.08000001 -0.03362954
v 0.04733292 0.08000001 0.01770612
v 0.007832452 0.08000001 0.04051172
v 0.02099925 0.08000001 0.01770612
v 0.02099927 0.08000002 0.06331735
v 0.06049975 0.08000001 0.04051172
v 0.04733291 0.08000001 0.06331735
v 0.1999592 0.08 -0.1999592
v 0.04300229 0.08000001 -0.1323475
v -0.04300231 0.08000001 -0.1323474
v 0.1125814 0.08000001 -0.08179526
v 0.1391583 0.08000001 -3.72529E-08
v -0.1999592 0.08 -0.1999592
v -0.1125815 0.08 -0.08179523
v -0.1391584 0.08 -7.450581E-09
v 0.1999592 0.08 0.1999592
v 0.1125814 0.08000001 0.08179522
v 0.04300229 0.08000001 0.1323474
v -0.1999592 0.08 0.1999592
v -0.1125815 0.08000001 0.08179522
v -0.04300229 0.08000001 0.1323474
v -0.0468327 0.08000001 -0.02282085
v -0.07316636 0.08000001 -0.02282085
v -0.09195784 0.08000001 -0.06682653
v -0.08633316 0.08000001 -1.52508E-05
v -0.1136661 0.08000001 -1.52467E-05
v -0.07316635 0.08000001 0.02279037
v -0.09195782 0.08000001 0.06679603
v -0.04683271 0.08000001 0.02279037
v -0.03512474 0.08000001 0.1080877
v -0.02196679 0.08000001 -0.05643516
v -0.03512477 0.08000001 -0.1081182
v -0.008799976 0.08000001 -0.03362954
v -0.00879999 0.08000001 -0.07924077
v 0.03512479 0.08000001 -0.1081182
v 0.01753367 0.08000001 -0.07924077
v 0.09195781 0.08000001 -0.06682655
v -0.03366587 0.08000001 -1.52508E-05
v 0.03070051 0.08000001 -0.05643516
v 0.01753366 0.08000001 -0.03362954
v 0.1136661 0.08000001 -1.527105E-05
v 0.02099925 0.08000001 0.01770612
v 0.007832452 0.08000001 0.04051172
v 0.04733292 0.08000001 0.01770612
v 0.09195782 0.08000001 0.06679603
v 0.06049975 0.08000001 0.04051172
v 0.03512479 0.08000001 0.1080877
v 0.04733291 0.08000001 0.06331735
v 0.02099927 0.08000002 0.06331735
v 0.04300229 0.08000001 -0.1323475
v 0.1125814 0.08000001 -0.08179526
v 0.09195781 0.08000001 -0.06682655
v 0.03512479 0.08000001 -0.1081182
v 0.1136661 0.08000001 -1.527105E-05
v -0.04300231 0.08000001 -0.1323474
v 0.1391583 0.08000001 -3.72529E-08
v -0.03512477 0.08000001 -0.1081182
v 0.09195782 0.08000001 0.06679603
v -0.1125815 0.08 -0.08179523
v 0.1125814 0.08000001 0.08179522
v -0.09195784 0.08000001 -0.06682653
v 0.03512479 0.08000001 0.1080877
v -0.1391584 0.08 -7.450581E-09
v 0.04300229 0.08000001 0.1323474
v -0.1136661 0.08000001 -1.52467E-05
v -0.03512474 0.08000001 0.1080877
v -0.1125815 0.08000001 0.08179522
v -0.04300229 0.08000001 0.1323474
v -0.09195782 0.08000001 0.06679603

vn 0 -1 0
vn 0 -1 0
vn 0 -1 0
vn 0 -1 0
vn -1 0 0
vn -1 0 0
vn -1 0 0
vn -1 0 0
vn 0 0 -1
vn 0 0 -1
vn 0 0 -1
vn 0 0 -1
vn 0 0 1
vn 0 0 1
vn 0 0 1
vn 0 0 1
vn 1 0 0
vn 1 0 0
vn 1 0 0
vn 1 0 0
vn 0 1 -1.633497E-07
vn 0 1 -1.633497E-07
vn 0 1 -1.633497E-07
vn 0 1 -1.633497E-07
vn 0 1 0
vn 0 1 0
vn -1.292308E-07 1 0
vn -1.292308E-07 1 0
vn -1.292308E-07 1 0
vn -1.292308E-07 1 0
vn 2.584616E-07 1 0
vn 2.584616E-07 1 0
vn 0 1 -1.633497E-07
vn 0 1 -1.633497E-07
vn 0 1 -1.633497E-07
vn 0 1 -1.633497E-07
vn 0 1 0
vn 0 1 0
vn 0 1 -1.101966E-07
vn 0 1 -1.101966E-07
vn 0 1 -1.101966E-07
vn 1.473743E-07 1 0
vn 0 1 0
vn 0 1 -1.101966E-07
vn 0 1 0
vn -1.810589E-07 1 0
vn 0 1 1.101966E-07
vn 1.473743E-07 1 0
vn 0 1 1.101966E-07
vn 0 1 1.101966E-07
vn -1.473742E-07 1 0
vn 0 1 1.101966E-07
vn -2.305994E-07 1 0
vn 1.235201E-07 1 0
vn 0 1 0
vn 0 1 0
vn 0 1 0
vn -4.018378E-07 1 0
vn -4.018378E-07 1 0
vn -4.018378E-07 1 0
vn 4.981865E-07 1 -1.712055E-07
vn 0 1 0
vn 0 1 0
vn 0 1 0
vn 0 1 0
vn 0 1 0
vn 0 1 0
vn 0 1 0
vn 0 1 0
vn 0 1 0
vn 0 1 0
vn 0 1 0
vn 0 1 0
vn 4.981865E-07 1 -1.712055E-07
vn 0 1 0
vn 0 1 0
vn 0 1 0
vn 0 1 1.420789E-07
vn 0 1 1.420789E-07
vn 4.981865E-07 1 -1.712055E-07
vn 1.229834E-07 1 -2.487455E-07
vn 1.229834E-07 1 -2.487455E-07
vn 1.229834E-07 1 -2.487455E-07
vn 1.229834E-07 1 -2.487455E-07
vn 2.819084E-07 1 0
vn -4.919327E-07 1 -1.926626E-07
vn 2.819084E-07 1 0
vn -4.919327E-07 1 -1.926626E-07
vn 4.915878E-07 1 0
vn -3.07361E-07 1 0
vn 4.915878E-07 1 0
vn -3.07361E-07 1 0
vn 2.457167E-07 1 2.484927E-07
vn -4.710039E-07 1 0
vn 2.457167E-07 1 2.484927E-07
vn -4.710039E-07 1 0
vn 0 1 3.071168E-07
vn -2.457163E-07 1 2.484925E-07
vn 0 1 3.071168E-07
vn -2.457163E-07 1 2.484925E-07

vt 0.663762 0.811347
vt 0.7078536 0.8113469
vt 0.7078536 0.7672554
vt 0.663762 0.7672554
vt 0.663762 0.7672554
vt 0.6549419 0.7672554
vt 0.6549419 0.8113469
vt 0.663762 0.811347
vt 0.7078536 0.7672554
vt 0.7078536 0.7584353
vt 0.663762 0.7584353
vt 0.663762 0.7672554
vt 0.663762 0.811347
vt 0.663762 0.8201671
vt 0.7078536 0.8201671
vt 0.7078536 0.8113469
vt 0.7078536 0.8113469
vt 0.7166737 0.8113469
vt 0.7166737 0.7672554
vt 0.7078536 0.7672554
vt 0.1923131 0.5354198
vt 0.1937648 0.5329055
vt 0.1923131 0.5303912
vt 0.1894098 0.5303912
vt 0.1894098 0.5354198
vt 0.1879581 0.5329055
vt 0.1923131 0.5408013
vt 0.1879581 0.538287
vt 0.1894098 0.5408013
vt 0.1894098 0.5357727
vt 0.1937648 0.538287
vt 0.1923131 0.5357727
vt 0.1923131 0.5461829
vt 0.1879581 0.5436685
vt 0.1894098 0.5461829
vt 0.1894098 0.5411541
vt 0.1937648 0.5436685
vt 0.1923131 0.5411541
vt 0.6990334 0.8205199
vt 0.6915792 0.8378246
vt 0.6915792 0.8473067
vt 0.6860057 0.8301534
vt 0.6769876 0.8272233
vt 0.6990334 0.8646114
vt 0.6860057 0.854978
vt 0.6769876 0.8579081
vt 0.6549419 0.8205199
vt 0.6679696 0.8301534
vt 0.6623962 0.8378246
vt 0.6549419 0.8646114
vt 0.6679696 0.854978
vt 0.6623962 0.8473067
vt 0.5436202 0.7988314
vt 0.540859 0.7979343
vt 0.5373893 0.8019083
vt 0.5402554 0.7950944
vt 0.5373893 0.7941632
vt 0.5424129 0.7931517
vt 0.5419418 0.7878973
vt 0.5451742 0.7940488
vt 0.5493079 0.7855039
vt 0.5450823 0.8032033
vt 0.5419418 0.8081743
vt 0.5472399 0.8012605
vt 0.5456859 0.8060432
vt 0.5493079 0.8105676
vt 0.5484472 0.8069403
vt 0.5566739 0.8081743
vt 0.5457778 0.7968888
vt 0.5506048 0.8049976
vt 0.5500011 0.8021578
vt 0.5612264 0.8019083
vt 0.5521135 0.796893
vt 0.5515099 0.7940531
vt 0.5548747 0.7977902
vt 0.5612264 0.7941632
vt 0.5570323 0.7958475
vt 0.5566739 0.7878973
vt 0.5564287 0.7930076
vt 0.5536674 0.7921104
vt 0.1809192 0.5962422
vt 0.1904014 0.5962422
vt 0.1895319 0.5935706
vt 0.1817868 0.5935706
vt 0.1957978 0.5890182
vt 0.1732481 0.5906688
vt 0.1980726 0.5906688
vt 0.1755208 0.5890182
vt 0.1981912 0.5816522
vt 0.1703179 0.5816507
vt 0.2010028 0.5816507
vt 0.1731275 0.5816522
vt 0.1957978 0.5742861
vt 0.1732481 0.5726327
vt 0.1980726 0.5726327
vt 0.1755208 0.5742861
vt 0.1895319 0.5697336
vt 0.1809192 0.5670593
vt 0.1904014 0.5670593
vt 0.1817868 0.5697336

usemtl LOW-POLY-COLORS
usemap LOW-POLY-COLORS
f 2/2/2 1/1/1 3/3/3
f 3/3/3 1/1/1 4/4/4
f 6/6/6 5/5/5 7/7/7
f 7/7/7 5/5/5 8/8/8
f 10/10/10 9/9/9 11/11/11
f 11/11/11 9/9/9 12/12/12
f 14/14/14 13/13/13 15/15/15
f 15/15/15 13/13/13 16/16/16
f 18/18/18 17/17/17 19/19/19
f 19/19/19 17/17/17 20/20/20
f 22/22/22 21/21/21 23/23/23
f 23/23/23 21/21/21 24/24/24
f 21/21/21 25/25/25 24/24/24
f 24/24/24 25/25/25 26/26/26
f 28/28/28 27/27/27 29/29/29
f 30/30/30 27/27/27 28/28/28
f 30/30/30 31/31/31 27/27/27
f 32/32/32 31/31/31 30/30/30
f 34/34/34 33/33/33 35/35/35
f 36/36/36 33/33/33 34/34/34
f 36/36/36 37/37/37 33/33/33
f 38/38/38 37/37/37 36/36/36
f 40/40/40 39/39/39 41/41/41
f 39/39/39 40/40/40 42/42/42
f 42/42/42 43/43/43 39/39/39
f 41/41/41 39/39/39 44/44/44
f 45/45/45 41/41/41 44/44/44
f 46/46/46 45/45/45 44/44/44
f 43/43/43 47/47/47 39/39/39
f 43/43/43 48/48/48 47/47/47
f 48/48/48 49/49/49 47/47/47
f 46/46/46 44/44/44 50/50/50
f 49/49/49 50/50/50 47/47/47
f 51/51/51 46/46/46 50/50/50
f 52/52/52 50/50/50 49/49/49
f 50/50/50 52/52/52 51/51/51
f 54/54/54 53/53/53 55/55/55
f 54/54/54 55/55/55 56/56/56
f 56/56/56 55/55/55 57/57/57
f 56/56/56 57/57/57 58/58/58
f 58/58/58 57/57/57 59/59/59
f 59/59/59 60/60/60 58/58/58
f 59/59/59 61/61/61 60/60/60
f 55/55/55 53/53/53 62/62/62
f 62/62/62 63/63/63 55/55/55
f 62/62/62 53/53/53 64/64/64
f 65/65/65 63/63/63 62/62/62
f 65/65/65 66/66/66 63/63/63
f 67/67/67 66/66/66 65/65/65
f 67/67/67 68/68/68 66/66/66
f 64/64/64 53/53/53 69/69/69
f 70/70/70 68/68/68 67/67/67
f 64/64/64 69/69/69 71/71/71
f 70/70/70 72/72/72 68/68/68
f 71/71/71 69/69/69 73/73/73
f 60/60/60 73/73/73 69/69/69
f 73/73/73 70/70/70 71/71/71
f 74/74/74 73/73/73 60/60/60
f 75/75/75 70/70/70 73/73/73
f 75/75/75 72/72/72 70/70/70
f 75/75/75 76/76/76 72/72/72
f 77/77/77 76/76/76 75/75/75
f 77/77/77 78/78/78 76/76/76
f 79/79/79 78/78/78 77/77/77
f 60/60/60 61/61/61 74/74/74
f 79/79/79 61/61/61 78/78/78
f 61/61/61 80/80/80 74/74/74
f 80/80/80 61/61/61 79/79/79
f 82/82/82 81/81/81 83/83/83
f 83/83/83 81/81/81 84/84/84
f 85/85/85 82/82/82 83/83/83
f 81/81/81 86/86/86 84/84/84
f 87/87/87 82/82/82 85/85/85
f 84/84/84 86/86/86 88/88/88
f 89/89/89 87/87/87 85/85/85
f 86/86/86 90/90/90 88/88/88
f 91/91/91 87/87/87 89/89/89
f 88/88/88 90/90/90 92/92/92
f 93/93/93 91/91/91 89/89/89
f 90/90/90 94/94/94 92/92/92
f 95/95/95 91/91/91 93/93/93
f 92/92/92 94/94/94 96/96/96
f 97/97/97 95/95/95 93/93/93
f 94/94/94 98/98/98 96/96/96
f 99/99/99 95/95/95 97/97/97
f 96/96/96 98/98/98 100/100/100
f 98/98/98 99/99/99 100/100/100
f 100/100/100 99/99/99 97/97/97
