mtllib ./pizza-box_0.mtl
g pizza-box
v -0.2000001 0.3230271 0.08284369
v -0.2000001 0.04018423 -0.1999992
v -0.2000001 0.06860034 -0.2284153
v -0.2000001 0.3514432 0.0544275
v -0.2000001 0.04018423 -0.1999992
v 0.2000001 0.04018423 -0.1999992
v 0.1999439 0.06860772 -0.2284079
v -0.2000001 0.06860034 -0.2284153
v 0.2000001 0.04018423 -0.1999992
v 0.2000001 0.3230271 0.08284369
v 0.1999439 0.3513927 0.05437702
v 0.1999439 0.06860772 -0.2284079
v 0.2000001 0.3230271 0.08284369
v -0.2000001 0.3230271 0.08284369
v -0.2000001 0.3514432 0.0544275
v 0.1999439 0.3513927 0.05437702
v -0.2000001 0 -0.2000001
v -0.2000001 0 0.2000001
v 0.2000001 0 0.2000001
v 0.2000001 0 -0.2000001
v 0.2000001 0 0.2000001
v -0.2000001 0 0.2000001
v -0.2000001 0.04018645 0.2000001
v 0.2000001 0.04018645 0.2000001
v 0.2000001 0 -0.2000001
v 0.2000001 0 0.2000001
v 0.2000001 0.04018645 0.2000001
v 0.2000001 0.04018645 -0.2000001
v -0.2000001 0 -0.2000001
v 0.2000001 0 -0.2000001
v 0.2000001 0.04018645 -0.2000001
v -0.2000001 0.04018645 -0.2000001
v -0.2000001 0 0.2000001
v -0.2000001 0 -0.2000001
v -0.2000001 0.04018645 -0.2000001
v -0.2000001 0.04018645 0.2000001
v -0.04684795 0.1938634 -0.1031522
v -0.03368112 0.2099894 -0.08702624
v -0.04684797 0.2261154 -0.07090023
v -0.07318161 0.2261154 -0.07090023
v -0.07318161 0.1938634 -0.1031523
v -0.08634841 0.2099894 -0.08702624
v 0.01751842 0.1539685 -0.1430472
v -0.02198205 0.1700945 -0.1269211
v -0.008815244 0.1539685 -0.1430472
v -0.008815233 0.1862205 -0.1107951
v 0.03068525 0.1700945 -0.1269211
v 0.0175184 0.1862205 -0.1107951
v 0.04731766 0.2225203 -0.07449533
v 0.00781719 0.2386463 -0.05836935
v 0.02098399 0.2225203 -0.07449533
v 0.02098401 0.2547724 -0.04224335
v 0.06048449 0.2386463 -0.05836935
v 0.04731764 0.2547723 -0.04224333
v -0.2000001 0.04018423 -0.1999992
v -0.1860494 0.06721184 -0.2093797
v 0.1860018 0.06721489 -0.209367
v 0.2000001 0.04018423 -0.1999992
v 0.2000001 0.3230271 0.08284369
v 0.1859969 0.3302736 0.05369533
v -0.1860525 0.3303228 0.05373914
v -0.2000001 0.3230271 0.08284369
v -0.2000001 0.3230271 0.08284369
v -0.1860525 0.3303228 0.05373914
v -0.1860494 0.06721184 -0.2093797
v -0.2000001 0.04018423 -0.1999992
v -0.1820964 0.009801961 -0.1820964
v 0.1820964 0.009801961 -0.1820964
v 0.1820964 0.009801961 0.1820964
v -0.1820964 0.009801961 0.1820964
v -0.2000001 0.04018645 -0.2000001
v -0.1820964 0.009801961 -0.1820964
v -0.1820964 0.009801961 0.1820964
v -0.2000001 0.04018645 0.2000001
v 0.2000001 0.04018645 -0.2000001
v 0.1820964 0.009801961 -0.1820964
v -0.1820964 0.009801961 -0.1820964
v -0.2000001 0.04018645 -0.2000001
v -0.2000001 0.04018645 0.2000001
v -0.1820964 0.009801961 0.1820964
v 0.1820964 0.009801961 0.1820964
v 0.2000001 0.04018645 0.2000001
v 0.1860018 0.06721489 -0.209367
v -0.1860494 0.06721184 -0.2093797
v -0.1860525 0.3303228 0.05373914
v 0.1859969 0.3302736 0.05369533
v 0.2000001 0.04018645 0.2000001
v 0.1820964 0.009801961 0.1820964
v 0.1820964 0.009801961 -0.1820964
v 0.2000001 0.04018645 -0.2000001
v 0.2000001 0.04018423 -0.1999992
v 0.1860018 0.06721489 -0.209367
v 0.1859969 0.3302736 0.05369533
v 0.2000001 0.3230271 0.08284369
v 0.1999439 0.06860772 -0.2284079
v 0.04298704 0.1164164 -0.1805992
v -0.04301757 0.1164164 -0.1805992
v 0.1125661 0.1521622 -0.1448534
v 0.139143 0.2100002 -0.08701547
v -0.2000001 0.06860034 -0.2284153
v -0.1125967 0.1521622 -0.1448534
v -0.1391736 0.2100002 -0.08701546
v 0.1999439 0.3513927 0.05437702
v 0.1125661 0.2678382 -0.0291775
v 0.04298703 0.3035839 0.006568283
v -0.2000001 0.3514432 0.0544275
v -0.1125967 0.2678382 -0.0291775
v -0.04301755 0.3035839 0.006568283
v -0.04684795 0.1938634 -0.1031522
v -0.07318161 0.1938634 -0.1031523
v -0.09197308 0.1627467 -0.1342689
v -0.08634841 0.2099894 -0.08702624
v -0.1136814 0.2099894 -0.08702623
v -0.07318161 0.2261154 -0.07090023
v -0.0919731 0.2572321 -0.03978354
v -0.04684797 0.2261154 -0.07090023
v -0.03514001 0.2864297 -0.01058595
v -0.02198205 0.1700945 -0.1269211
v -0.03514002 0.1335491 -0.1634665
v -0.008815233 0.1862205 -0.1107951
v -0.008815244 0.1539685 -0.1430472
v 0.03510953 0.1335491 -0.1634666
v 0.01751842 0.1539685 -0.1430472
v 0.09194256 0.1627467 -0.134269
v -0.03368112 0.2099894 -0.08702624
v 0.03068525 0.1700945 -0.1269211
v 0.0175184 0.1862205 -0.1107951
v 0.1136509 0.2099894 -0.08702626
v 0.02098399 0.2225203 -0.07449533
v 0.00781719 0.2386463 -0.05836935
v 0.04731766 0.2225203 -0.07449533
v 0.09194256 0.2572321 -0.03978354
v 0.06048449 0.2386463 -0.05836935
v 0.03510952 0.2864297 -0.01058595
v 0.04731764 0.2547723 -0.04224333
v 0.02098401 0.2547724 -0.04224335
v 0.04298704 0.1164164 -0.1805992
v 0.1125661 0.1521622 -0.1448534
v 0.09194256 0.1627467 -0.134269
v 0.03510953 0.1335491 -0.1634666
v 0.1136509 0.2099894 -0.08702626
v -0.04301757 0.1164164 -0.1805992
v 0.139143 0.2100002 -0.08701547
v -0.03514002 0.1335491 -0.1634665
v 0.09194256 0.2572321 -0.03978354
v -0.1125967 0.1521622 -0.1448534
v 0.1125661 0.2678382 -0.0291775
v -0.09197308 0.1627467 -0.1342689
v 0.03510952 0.2864297 -0.01058595
v -0.1391736 0.2100002 -0.08701546
v 0.04298703 0.3035839 0.006568283
v -0.1136814 0.2099894 -0.08702623
v -0.03514001 0.2864297 -0.01058595
v -0.1125967 0.2678382 -0.0291775
v -0.04301755 0.3035839 0.006568283
v -0.0919731 0.2572321 -0.03978354

vn -1 0 -1.738126E-07
vn -1 0 -1.738126E-07
vn -1 0 -1.738126E-07
vn -1 0 -1.738126E-07
vn 1.304411E-05 -0.7070154 -0.7071983
vn 1.304411E-05 -0.7070154 -0.7071983
vn 1.304411E-05 -0.7070154 -0.7071983
vn 1.304411E-05 -0.7070154 -0.7071983
vn 0.999999 0.000989027 -0.0009888335
vn 0.999999 0.000989027 -0.0009888335
vn 0.999999 0.000989027 -0.0009888335
vn 0.999999 0.000989027 -0.0009888335
vn 8.928798E-05 0.7077362 0.7064769
vn 8.928798E-05 0.7077362 0.7064769
vn 8.928798E-05 0.7077362 0.7064769
vn 8.928798E-05 0.7077362 0.7064769
vn 0 -1 0
vn 0 -1 0
vn 0 -1 0
vn 0 -1 0
vn 0 0 1
vn 0 0 1
vn 0 0 1
vn 0 0 1
vn 1 0 0
vn 1 0 0
vn 1 0 0
vn 1 0 0
vn 0 0 -1
vn 0 0 -1
vn 0 0 -1
vn 0 0 -1
vn -1 0 0
vn -1 0 0
vn -1 0 0
vn -1 0 0
vn 0 0.7071066 -0.7071069
vn 0 0.7071066 -0.7071069
vn 0 0.7071066 -0.7071069
vn 0 0.7071066 -0.7071069
vn 0 0.7071068 -0.7071068
vn 0 0.7071068 -0.7071068
vn -2.584616E-07 0.7071069 -0.7071066
vn -2.584616E-07 0.7071069 -0.7071066
vn -2.584616E-07 0.7071069 -0.7071066
vn -2.584616E-07 0.7071069 -0.7071066
vn 5.16923E-07 0.7071071 -0.7071064
vn 5.16923E-07 0.7071071 -0.7071064
vn -5.169231E-07 0.7071061 -0.7071074
vn -5.169231E-07 0.7071061 -0.7071074
vn -5.169231E-07 0.7071061 -0.7071074
vn -5.169231E-07 0.7071061 -0.7071074
vn 1.629712E-06 0.7071065 -0.707107
vn 1.629712E-06 0.7071065 -0.707107
vn -1.685173E-05 0.3276703 0.9447921
vn -1.685173E-05 0.3276703 0.9447921
vn -1.685173E-05 0.3276703 0.9447921
vn -1.685173E-05 0.3276703 0.9447921
vn -7.558766E-05 -0.9702248 -0.2422062
vn -7.558766E-05 -0.9702248 -0.2422062
vn -7.558766E-05 -0.9702248 -0.2422062
vn -7.558766E-05 -0.9702248 -0.2422062
vn 0.8792094 -0.3368908 0.3368907
vn 0.8792094 -0.3368908 0.3368907
vn 0.8792094 -0.3368908 0.3368907
vn 0.8792094 -0.3368908 0.3368907
vn 0 1 0
vn 0 1 0
vn 0 1 0
vn 0 1 0
vn 0.8615564 0.5076618 0
vn 0.8615564 0.5076618 0
vn 0.8615564 0.5076618 0
vn 0.8615564 0.5076618 0
vn 0 0.5076616 0.8615565
vn 0 0.5076616 0.8615565
vn 0 0.5076616 0.8615565
vn 0 0.5076616 0.8615565
vn 0 0.5076621 -0.8615564
vn 0 0.5076621 -0.8615564
vn 0 0.5076621 -0.8615564
vn 0 0.5076621 -0.8615564
vn -1.431708E-05 -0.7071144 0.7070991
vn -1.431708E-05 -0.7071144 0.7070991
vn -1.431708E-05 -0.7071144 0.7070991
vn -1.431708E-05 -0.7071144 0.7070991
vn -0.8615564 0.5076618 0
vn -0.8615564 0.5076618 0
vn -0.8615564 0.5076618 0
vn -0.8615564 0.5076618 0
vn -0.8784297 -0.3379115 0.337901
vn -0.8784297 -0.3379115 0.337901
vn -0.8784297 -0.3379115 0.337901
vn -0.8784297 -0.3379115 0.337901
vn 0 0.7071066 -0.7071068
vn 0 0.7071066 -0.7071068
vn 0 0.7071066 -0.7071068
vn 0 0.707107 -0.7071065
vn 7.242352E-07 0.7071068 -0.7071068
vn 0 0.7071066 -0.7071068
vn -2.947012E-07 0.7071068 -0.7071066
vn -7.239544E-07 0.7071066 -0.7071069
vn 0 0.7071068 -0.7071068
vn -2.947484E-07 0.7071066 -0.7071069
vn 0 0.7071068 -0.7071068
vn 0 0.7071068 -0.7071068
vn -2.946023E-07 0.7071066 -0.7071068
vn 0 0.7071068 -0.7071068
vn -2.305994E-07 0.7071068 -0.7071068
vn -2.470405E-07 0.7071066 -0.7071069
vn -2.087607E-07 0.7071075 -0.7071061
vn 6.572223E-07 0.7071065 -0.707107
vn 6.572223E-07 0.7071065 -0.707107
vn 0 0.7071068 -0.7071068
vn 0 0.7071068 -0.7071068
vn 0 0.7071068 -0.7071068
vn -9.963721E-07 0.7071061 -0.7071075
vn -2.087607E-07 0.7071075 -0.7071061
vn 1.669591E-07 0.7071066 -0.7071069
vn 0 0.7071068 -0.7071068
vn 1.669591E-07 0.7071066 -0.7071069
vn 1.193578E-07 0.707107 -0.7071065
vn 1.193578E-07 0.707107 -0.7071065
vn -1.954294E-07 0.7071069 -0.7071066
vn 1.573174E-07 0.707107 -0.7071065
vn 0 0.7071066 -0.7071069
vn 0 0.7071068 -0.7071068
vn -4.215613E-07 0.7071066 -0.7071068
vn 1.573174E-07 0.707107 -0.7071065
vn -9.963721E-07 0.7071061 -0.7071075
vn -4.215613E-07 0.7071066 -0.7071068
vn 0 0.7071068 -0.7071068
vn 0 0.7071068 -0.7071068
vn 3.978713E-07 0.7071074 -0.7071061
vn 3.978713E-07 0.7071074 -0.7071061
vn -9.963721E-07 0.7071061 -0.7071075
vn 3.689501E-07 0.7071061 -0.7071074
vn 3.689501E-07 0.7071061 -0.7071074
vn 3.689501E-07 0.7071061 -0.7071074
vn 3.689501E-07 0.7071061 -0.7071074
vn 9.342118E-07 0.7071066 -0.7071069
vn -2.459663E-07 0.7071064 -0.7071071
vn 9.342118E-07 0.7071066 -0.7071069
vn -2.459663E-07 0.7071064 -0.7071071
vn 1.228969E-07 0.7071069 -0.7071066
vn -3.688332E-07 0.7071066 -0.7071069
vn 1.228969E-07 0.7071069 -0.7071066
vn -3.688332E-07 0.7071066 -0.7071069
vn 0 0.7071068 -0.7071068
vn -5.409135E-07 0.7071068 -0.7071068
vn 0 0.7071068 -0.7071068
vn -5.409135E-07 0.7071068 -0.7071068
vn 0 0.7071065 -0.7071071
vn 1.228582E-07 0.7071068 -0.7071068
vn 0 0.7071065 -0.7071071
vn 1.228582E-07 0.7071068 -0.7071068

vt 0.7667859 0.8068378
vt 0.767735 0.7633289
vt 0.7632032 0.7586255
vt 0.7610709 0.8116388
vt 0.767735 0.7633289
vt 0.8110032 0.7641178
vt 0.8159837 0.7586256
vt 0.7632032 0.7586255
vt 0.8110032 0.7641178
vt 0.8115013 0.808779
vt 0.817656 0.8151823
vt 0.8159837 0.7586256
vt 0.8115013 0.808779
vt 0.7667859 0.8068378
vt 0.7610709 0.8116388
vt 0.817656 0.8151823
vt 0.7608591 0.7584137
vt 0.7608591 0.7584137
vt 0.7608591 0.7584137
vt 0.7608591 0.7584137
vt 0.7608591 0.7584137
vt 0.7608591 0.7584137
vt 0.7608591 0.7584137
vt 0.7608591 0.7584137
vt 0.7608591 0.7584137
vt 0.7608591 0.7584137
vt 0.7608591 0.7584137
vt 0.7608591 0.7584137
vt 0.7608591 0.7584137
vt 0.7608591 0.7584137
vt 0.7608591 0.7584137
vt 0.7608591 0.7584137
vt 0.7608591 0.7584137
vt 0.7608591 0.7584137
vt 0.7608591 0.7584137
vt 0.7608591 0.7584137
vt 0.1905513 0.5699309
vt 0.1919986 0.567424
vt 0.1905513 0.5649171
vt 0.1876566 0.5649171
vt 0.1876566 0.5699309
vt 0.1862092 0.567424
vt 0.1905513 0.5808056
vt 0.1862092 0.5782987
vt 0.1876566 0.5808056
vt 0.1876566 0.5757918
vt 0.1919986 0.5782987
vt 0.1905513 0.5757918
vt 0.1905513 0.5753683
vt 0.1862092 0.5728614
vt 0.1876566 0.5753683
vt 0.1876566 0.5703545
vt 0.1919986 0.5728614
vt 0.1905513 0.5703545
vt 0.767735 0.7633289
vt 0.7710524 0.7667096
vt 0.8075318 0.767369
vt 0.8110032 0.7641178
vt 0.8115013 0.808779
vt 0.8079482 0.8049991
vt 0.7702668 0.803386
vt 0.7667859 0.8068378
vt 0.7667859 0.8068378
vt 0.7702668 0.803386
vt 0.7710524 0.7667096
vt 0.767735 0.7633289
vt 0.7608591 0.7584137
vt 0.7608591 0.7584137
vt 0.7608591 0.7584137
vt 0.7608591 0.7584137
vt 0.7608591 0.7584137
vt 0.7608591 0.7584137
vt 0.7608591 0.7584137
vt 0.7608591 0.7584137
vt 0.7608591 0.7584137
vt 0.7608591 0.7584137
vt 0.7608591 0.7584137
vt 0.7608591 0.7584137
vt 0.7608591 0.7584137
vt 0.7608591 0.7584137
vt 0.7608591 0.7584137
vt 0.7608591 0.7584137
vt 0.846355 0.8156068
vt 0.8054578 0.8156059
vt 0.8054578 0.8565085
vt 0.8463548 0.8565009
vt 0.7608591 0.7584137
vt 0.7608591 0.7584137
vt 0.7608591 0.7584137
vt 0.7608591 0.7584137
vt 0.8110032 0.7641178
vt 0.8075318 0.767369
vt 0.8079482 0.8049991
vt 0.8115013 0.808779
vt 0.8050342 0.8595742
vt 0.7877809 0.852142
vt 0.778327 0.852142
vt 0.7954293 0.8465852
vt 0.7983508 0.837594
vt 0.761071 0.8595753
vt 0.7706786 0.8465852
vt 0.7677572 0.837594
vt 0.8050342 0.8156137
vt 0.7954293 0.8286027
vt 0.7877809 0.8230458
vt 0.7610709 0.8156059
vt 0.7706786 0.8286027
vt 0.778327 0.8230458
vt 0.6843584 0.7963345
vt 0.6814637 0.7963345
vt 0.6793981 0.8011718
vt 0.6800163 0.7938277
vt 0.6770118 0.7938277
vt 0.6814637 0.7913207
vt 0.6793981 0.7864835
vt 0.6843584 0.7913207
vt 0.6856453 0.7819446
vt 0.6870917 0.8000295
vt 0.6856453 0.8057107
vt 0.688539 0.7975226
vt 0.688539 0.8025364
vt 0.6933674 0.8057107
vt 0.6914337 0.8025364
vt 0.6996147 0.8011718
vt 0.6858057 0.7938277
vt 0.6928811 0.8000295
vt 0.6914337 0.7975226
vt 0.702001 0.7938277
vt 0.6918147 0.7918797
vt 0.6903673 0.7893727
vt 0.6947094 0.7918797
vt 0.6996147 0.7864835
vt 0.6961567 0.7893727
vt 0.6933674 0.7819446
vt 0.6947094 0.7868658
vt 0.6918147 0.7868658
vt 0.1713663 0.5644935
vt 0.1808202 0.5644935
vt 0.1799533 0.5618298
vt 0.1722312 0.5618298
vt 0.1862006 0.5572909
vt 0.1637179 0.5589367
vt 0.1884686 0.5589367
vt 0.1659839 0.5572909
vt 0.1885868 0.5499468
vt 0.1607965 0.5499454
vt 0.19139 0.5499455
vt 0.1635977 0.5499468
vt 0.1862006 0.5426027
vt 0.1637179 0.5409542
vt 0.1884686 0.5409542
vt 0.1659839 0.5426027
vt 0.1799533 0.5380638
vt 0.1713663 0.5353973
vt 0.1808202 0.5353974
vt 0.1722312 0.5380638

usemtl LOW-POLY-COLORS
usemap LOW-POLY-COLORS
f 2/2/2 1/1/1 3/3/3
f 3/3/3 1/1/1 4/4/4
f 6/6/6 5/5/5 7/7/7
f 7/7/7 5/5/5 8/8/8
f 10/10/10 9/9/9 11/11/11
f 11/11/11 9/9/9 12/12/12
f 14/14/14 13/13/13 15/15/15
f 15/15/15 13/13/13 16/16/16
f 18/18/18 17/17/17 19/19/19
f 19/19/19 17/17/17 20/20/20
f 22/22/22 21/21/21 23/23/23
f 23/23/23 21/21/21 24/24/24
f 26/26/26 25/25/25 27/27/27
f 27/27/27 25/25/25 28/28/28
f 30/30/30 29/29/29 31/31/31
f 31/31/31 29/29/29 32/32/32
f 34/34/34 33/33/33 35/35/35
f 35/35/35 33/33/33 36/36/36
f 38/38/38 37/37/37 39/39/39
f 39/39/39 37/37/37 40/40/40
f 37/37/37 41/41/41 40/40/40
f 40/40/40 41/41/41 42/42/42
f 44/44/44 43/43/43 45/45/45
f 46/46/46 43/43/43 44/44/44
f 46/46/46 47/47/47 43/43/43
f 48/48/48 47/47/47 46/46/46
f 50/50/50 49/49/49 51/51/51
f 52/52/52 49/49/49 50/50/50
f 52/52/52 53/53/53 49/49/49
f 54/54/54 53/53/53 52/52/52
f 56/56/56 55/55/55 57/57/57
f 57/57/57 55/55/55 58/58/58
f 60/60/60 59/59/59 61/61/61
f 61/61/61 59/59/59 62/62/62
f 64/64/64 63/63/63 65/65/65
f 65/65/65 63/63/63 66/66/66
f 68/68/68 67/67/67 69/69/69
f 69/69/69 67/67/67 70/70/70
f 72/72/72 71/71/71 73/73/73
f 73/73/73 71/71/71 74/74/74
f 76/76/76 75/75/75 77/77/77
f 77/77/77 75/75/75 78/78/78
f 80/80/80 79/79/79 81/81/81
f 81/81/81 79/79/79 82/82/82
f 84/84/84 83/83/83 85/85/85
f 85/85/85 83/83/83 86/86/86
f 88/88/88 87/87/87 89/89/89
f 89/89/89 87/87/87 90/90/90
f 92/92/92 91/91/91 93/93/93
f 93/93/93 91/91/91 94/94/94
f 96/96/96 95/95/95 97/97/97
f 95/95/95 96/96/96 98/98/98
f 98/98/98 99/99/99 95/95/95
f 97/97/97 95/95/95 100/100/100
f 101/101/101 97/97/97 100/100/100
f 102/102/102 101/101/101 100/100/100
f 99/99/99 103/103/103 95/95/95
f 99/99/99 104/104/104 103/103/103
f 104/104/104 105/105/105 103/103/103
f 102/102/102 100/100/100 106/106/106
f 105/105/105 106/106/106 103/103/103
f 107/107/107 102/102/102 106/106/106
f 108/108/108 106/106/106 105/105/105
f 106/106/106 108/108/108 107/107/107
f 110/110/110 109/109/109 111/111/111
f 110/110/110 111/111/111 112/112/112
f 112/112/112 111/111/111 113/113/113
f 112/112/112 113/113/113 114/114/114
f 114/114/114 113/113/113 115/115/115
f 115/115/115 116/116/116 114/114/114
f 115/115/115 117/117/117 116/116/116
f 111/111/111 109/109/109 118/118/118
f 118/118/118 119/119/119 111/111/111
f 118/118/118 109/109/109 120/120/120
f 121/121/121 119/119/119 118/118/118
f 121/121/121 122/122/122 119/119/119
f 123/123/123 122/122/122 121/121/121
f 123/123/123 124/124/124 122/122/122
f 120/120/120 109/109/109 125/125/125
f 126/126/126 124/124/124 123/123/123
f 120/120/120 125/125/125 127/127/127
f 126/126/126 128/128/128 124/124/124
f 127/127/127 125/125/125 129/129/129
f 116/116/116 129/129/129 125/125/125
f 129/129/129 126/126/126 127/127/127
f 130/130/130 129/129/129 116/116/116
f 131/131/131 126/126/126 129/129/129
f 131/131/131 128/128/128 126/126/126
f 131/131/131 132/132/132 128/128/128
f 133/133/133 132/132/132 131/131/131
f 133/133/133 134/134/134 132/132/132
f 135/135/135 134/134/134 133/133/133
f 116/116/116 117/117/117 130/130/130
f 135/135/135 117/117/117 134/134/134
f 117/117/117 136/136/136 130/130/130
f 136/136/136 117/117/117 135/135/135
f 138/138/138 137/137/137 139/139/139
f 139/139/139 137/137/137 140/140/140
f 141/141/141 138/138/138 139/139/139
f 137/137/137 142/142/142 140/140/140
f 143/143/143 138/138/138 141/141/141
f 140/140/140 142/142/142 144/144/144
f 145/145/145 143/143/143 141/141/141
f 142/142/142 146/146/146 144/144/144
f 147/147/147 143/143/143 145/145/145
f 144/144/144 146/146/146 148/148/148
f 149/149/149 147/147/147 145/145/145
f 146/146/146 150/150/150 148/148/148
f 151/151/151 147/147/147 149/149/149
f 148/148/148 150/150/150 152/152/152
f 153/153/153 151/151/151 149/149/149
f 150/150/150 154/154/154 152/152/152
f 155/155/155 151/151/151 153/153/153
f 152/152/152 154/154/154 156/156/156
f 154/154/154 155/155/155 156/156/156
f 156/156/156 155/155/155 153/153/153
