mtllib ./pizza-mozzarella-slice_13.mtl
g pizza-mozzarella-slice
v 0.08524964 0.01784102 0.03722209
v 0.04676409 0.01562532 0.03457814
v 0.02688301 0.01455088 -0.00237133
v -0.07389614 0.01784102 0.0339601
v -0.06110963 0.01333529 0.008594237
v -0.02541748 0.01215857 0.004652647
v 0.01856958 0.01015075 -0.09954695
v 0.04328096 0.01173665 -0.04736107
v 0.005517794 0.01215857 -0.06429491
v 0.04676409 0.01562532 0.03457814
v 0.001259409 0.01622718 0.04762009
v 0.006365455 0.0131361 0.01998489
v 0.003501099 4.656613E-09 0.08246879
v 0.003318455 0.01400932 0.08987533
v 0.09802779 0.01400932 0.06166401
v 0.09470202 4.656613E-09 0.05530252
v -0.08398006 4.656613E-09 0.05164011
v -0.08752801 0.01400932 0.05786069
v 0.003318455 0.01400932 0.08987533
v 0.003501099 4.656613E-09 0.08246879
v 0.00366934 0.02245183 0.07564671
v 0.09163871 0.02245183 0.04944303
v 0.09802779 0.01400932 0.06166401
v 0.003318455 0.01400932 0.08987533
v -0.08071206 0.02245183 0.04591038
v 0.00366934 0.02245183 0.07564671
v 0.003318455 0.01400932 0.08987533
v -0.08752801 0.01400932 0.05786069
v 0.08524964 0.01784102 0.03722209
v 0.02688301 0.01455088 -0.00237133
v 0.02442531 0.01215857 -0.03172714
v 0.04328096 0.01173665 -0.04736107
v 0.007868927 0.0105004 -0.1318714
v -0.006893717 0.01229681 -0.05302892
v -0.02106537 0.01253413 -0.03083788
v -0.04195419 0.01215857 -0.03223616
v 0.02688301 0.01455088 -0.00237133
v 0.0007281145 0.01215857 0.01246897
v -0.02541748 0.01215857 0.004652647
v -0.02106537 0.01253413 -0.03083788
v -0.07389614 0.01784102 0.0339601
v 0.004020222 0.01784102 0.06141811
v 0.00366934 0.02245183 0.07564671
v -0.08071206 0.02245183 0.04591038
v 0.004020222 0.01784102 0.06141811
v 0.08524964 0.01784102 0.03722209
v 0.09163871 0.02245183 0.04944303
v 0.00366934 0.02245183 0.07564671
v 0.09470202 4.656613E-09 0.05530252
v 0.09802779 0.01400932 0.06166401
v 0.09163871 0.02245183 0.04944303
v 0.08524964 0.01784102 0.03722209
v 0.02442531 0.01215857 -0.03172714
v 0.02688301 0.01455088 -0.00237133
v -0.02106537 0.01253413 -0.03083788
v -0.006893717 0.01229681 -0.05302892
v 0.001259409 0.01622718 0.04762009
v 0.0007281145 0.01215857 0.01246897
v 0.006365455 0.0131361 0.01998489
v -0.02541748 0.01215857 0.004652647
v 0.004020222 0.01784102 0.06141811
v -0.07389614 0.01784102 0.0339601
v -0.08398006 4.656613E-09 0.05164011
v -0.07389614 0.01784102 0.0339601
v -0.08071206 0.02245183 0.04591038
v -0.08752801 0.01400932 0.05786069
v 0.007868927 0.0105004 -0.1318714
v 0.01856958 0.01015075 -0.09954695
v 0.005517794 0.01215857 -0.06429491
v -0.006893717 0.01229681 -0.05302892
v 0.04328096 0.01173665 -0.04736107
v 0.02442531 0.01215857 -0.03172714
v -0.006893717 0.01229681 -0.05302892
v 0.005517794 0.01215857 -0.06429491
v -0.02541748 0.01215857 0.004652647
v -0.06110963 0.01333529 0.008594237
v -0.04195419 0.01215857 -0.03223616
v -0.02106537 0.01253413 -0.03083788
v 0.01856958 0.01015075 -0.09954695
v 0.007868927 0.0105004 -0.1318714
v 0.007395267 0.002118913 -0.1318612
v 0.01822515 0.0002795688 -0.1003973
v -0.06110963 0.01333529 0.008594237
v -0.07389614 0.01784102 0.0339601
v -0.08398006 4.656613E-09 0.05164011
v -0.05343455 2.793968E-09 -0.008400582
v -0.04195419 0.01215857 -0.03223616
v -0.06110963 0.01333529 0.008594237
v -0.05343455 2.793968E-09 -0.008400582
v -0.03427911 9.313226E-10 -0.04923097
v 0.04328096 0.01173665 -0.04736107
v 0.01856958 0.01015075 -0.09954695
v 0.01822515 0.0002795688 -0.1003973
v 0.04254938 9.313226E-10 -0.04877768
v 0.007868927 0.0105004 -0.1318714
v -0.04195419 0.01215857 -0.03223616
v -0.03427911 9.313226E-10 -0.04923097
v 0.007395267 0.002118913 -0.1318612
v 0.08524964 0.01784102 0.03722209
v 0.04328096 0.01173665 -0.04736107
v 0.04254938 9.313226E-10 -0.04877768
v 0.09470202 4.656613E-09 0.05530252
v -0.05343455 2.793968E-09 -0.008400582
v -0.08398006 4.656613E-09 0.05164011
v 0.003501099 4.656613E-09 0.08246879
v 0.003054423 9.313226E-09 0.0009850152
v 0.04254938 9.313226E-10 -0.04877768
v 0.003054423 9.313226E-09 0.0009850152
v 0.003501099 4.656613E-09 0.08246879
v 0.09470202 4.656613E-09 0.05530252
v -0.03427911 9.313226E-10 -0.04923097
v -0.05343455 2.793968E-09 -0.008400582
v 0.003054423 9.313226E-09 0.0009850152
v -0.004333459 1.117587E-08 -0.03862417
v 0.01822515 0.0002795688 -0.1003973
v 0.003054423 9.313226E-09 0.0009850152
v 0.04254938 9.313226E-10 -0.04877768
v -0.03427911 9.313226E-10 -0.04923097
v -0.004333459 1.117587E-08 -0.03862417
v 0.01822515 0.0002795688 -0.1003973
v 0.007395267 0.002118913 -0.1318612
v 0.004020222 0.01784102 0.06141811
v 0.001259409 0.01622718 0.04762009
v 0.04676409 0.01562532 0.03457814
v 0.08524964 0.01784102 0.03722209
v 0.0007281145 0.01215857 0.01246897
v 0.02688301 0.01455088 -0.00237133
v 0.04676409 0.01562532 0.03457814
v 0.006365455 0.0131361 0.01998489

vn -0.05761176 0.9983371 0.001968508
vn -0.05761176 0.9983371 0.001968508
vn -0.05761176 0.9983371 0.001968508
vn 0.01393693 0.9856781 -0.1680605
vn 0.01393693 0.9856781 -0.1680605
vn 0.01393693 0.9856781 -0.1680605
vn 0.03143799 0.9984818 -0.04522993
vn 0.03143799 0.9984818 -0.04522993
vn 0.03143799 0.9984818 -0.04522993
vn -0.01974922 0.9931991 -0.1147413
vn -0.01974922 0.9931991 -0.1147413
vn -0.01974922 0.9931991 -0.1147413
vn 0.2550353 -0.4493301 0.8561889
vn 0.2550353 -0.4493301 0.8561889
vn 0.2550353 -0.4493301 0.8561889
vn 0.2550353 -0.4493301 0.8561889
vn -0.2969275 -0.4493295 0.8425776
vn -0.2969275 -0.4493295 0.8425776
vn -0.2969275 -0.4493295 0.8425776
vn -0.2969275 -0.4493295 0.8425776
vn 0.1510746 0.8484967 0.5071782
vn 0.1510746 0.8484967 0.5071782
vn 0.1510746 0.8484967 0.5071782
vn 0.1510746 0.8484967 0.5071782
vn -0.17589 0.8484969 0.4991152
vn -0.17589 0.8484969 0.4991152
vn -0.17589 0.8484969 0.4991152
vn -0.17589 0.8484969 0.4991152
vn -0.01589348 0.9975455 -0.06819208
vn -0.01589348 0.9975455 -0.06819208
vn -0.01589348 0.9975455 -0.06819208
vn -0.01589348 0.9975455 -0.06819208
vn -0.01911964 0.9994895 -0.02559449
vn -0.01911964 0.9994895 -0.02559449
vn -0.01911964 0.9994895 -0.02559449
vn -0.01911964 0.9994895 -0.02559449
vn -0.04170025 0.9986903 0.0296456
vn -0.04170025 0.9986903 0.0296456
vn -0.04170025 0.9986903 0.0296456
vn -0.04170025 0.9986903 0.0296456
vn 0.1071669 0.9465922 -0.3041026
vn 0.1071669 0.9465922 -0.3041026
vn 0.1071669 0.9465922 -0.3041026
vn 0.1071669 0.9465922 -0.3041026
vn -0.09204715 0.9465923 -0.3090152
vn -0.09204715 0.9465923 -0.3090152
vn -0.09204715 0.9465923 -0.3090152
vn -0.09204715 0.9465923 -0.3090152
vn 0.8862003 -5.880559E-07 -0.4633024
vn 0.8862003 -5.880559E-07 -0.4633024
vn 0.8862003 -5.880559E-07 -0.4633024
vn 0.8862003 -5.880559E-07 -0.4633024
vn 0.007281796 0.9987576 -0.04929628
vn 0.007281796 0.9987576 -0.04929628
vn 0.007281796 0.9987576 -0.04929628
vn 0.007281796 0.9987576 -0.04929628
vn 0.02508791 0.9930119 -0.1153164
vn 0.02508791 0.9930119 -0.1153164
vn 0.02508791 0.9930119 -0.1153164
vn 0.02508791 0.9930119 -0.1153164
vn 0.04342826 0.991606 -0.1217849
vn 0.04342826 0.991606 -0.1217849
vn -0.868644 4.912176E-07 -0.4954367
vn -0.868644 4.912176E-07 -0.4954367
vn -0.868644 4.912176E-07 -0.4954367
vn -0.868644 4.912176E-07 -0.4954367
vn 0.04208266 0.9988483 -0.02304523
vn 0.04208266 0.9988483 -0.02304523
vn 0.04208266 0.9988483 -0.02304523
vn 0.04208266 0.9988483 -0.02304523
vn 0.01194657 0.9999046 -0.006935679
vn 0.01194657 0.9999046 -0.006935679
vn 0.01194657 0.9999046 -0.006935679
vn 0.01194657 0.9999046 -0.006935679
vn 0.01387816 0.9998844 -0.006221455
vn 0.01387816 0.9998844 -0.006221455
vn 0.01387816 0.9998844 -0.006221455
vn 0.01387816 0.9998844 -0.006221455
vn 0.9468321 -0.02768338 -0.3205352
vn 0.9468321 -0.02768338 -0.3205352
vn 0.9468321 -0.02768338 -0.3205352
vn 0.9468321 -0.02768338 -0.3205352
vn -0.8889945 0.05870747 -0.4541391
vn -0.8889945 0.05870747 -0.4541391
vn -0.8889945 0.05870747 -0.4541391
vn -0.8889945 0.05870747 -0.4541391
vn -0.9049907 0.02157025 -0.4248841
vn -0.9049907 0.02157025 -0.4248841
vn -0.9049907 0.02157025 -0.4248841
vn -0.9049907 0.02157025 -0.4248841
vn 0.9041947 -0.0002156944 -0.4271206
vn 0.9041947 -0.0002156944 -0.4271206
vn 0.9041947 -0.0002156944 -0.4271206
vn 0.9041947 -0.0002156944 -0.4271206
vn -0.8922935 0.05743485 -0.4477873
vn -0.8922935 0.05743485 -0.4477873
vn -0.8922935 0.05743485 -0.4477873
vn -0.8922935 0.05743485 -0.4477873
vn 0.8946039 0.0121037 -0.446696
vn 0.8946039 0.0121037 -0.446696
vn 0.8946039 0.0121037 -0.446696
vn 0.8946039 0.0121037 -0.446696
vn 0 -1 0
vn 0 -1 0
vn 0 -1 0
vn 0 -1 0
vn 0 -1 0
vn 0 -1 0
vn 0 -1 0
vn 0 -1 0
vn 1.876E-07 -1 0
vn 1.876E-07 -1 0
vn 1.876E-07 -1 0
vn 1.876E-07 -1 0
vn -0.0006174178 -0.9999958 -0.002849856
vn -0.0006174178 -0.9999958 -0.002849856
vn -0.0006174178 -0.9999958 -0.002849856
vn -0.01916296 -0.9995006 -0.02512523
vn -0.01916296 -0.9995006 -0.02512523
vn -0.01916296 -0.9995006 -0.02512523
vn -0.01916296 -0.9995006 -0.02512523
vn -0.0362803 0.9895616 -0.1394687
vn -0.0362803 0.9895616 -0.1394687
vn -0.0362803 0.9895616 -0.1394687
vn -0.0362803 0.9895616 -0.1394687
vn -0.07316519 0.9973117 -0.004034253
vn -0.07316519 0.9973117 -0.004034253
vn -0.07316519 0.9973117 -0.004034253
vn -0.07316519 0.9973117 -0.004034253

vt 0.1705443 0.5266694
vt 0.17634 0.5392256
vt 0.1880455 0.5372474
vt 0.1905039 0.5682406
vt 0.1957373 0.5617653
vt 0.1924986 0.5518827
vt 0.3130482 0.4333557
vt 0.2921612 0.4335305
vt 0.3031189 0.4402383
vt 0.3086489 0.4406121
vt 0.2937903 0.4381899
vt 0.3008252 0.447427
vt 0.5260823 0.8093278
vt 0.5237873 0.8103999
vt 0.5307533 0.8186474
vt 0.5322416 0.8182949
vt 0.5231147 0.7988788
vt 0.5218415 0.7998636
vt 0.5237873 0.8103999
vt 0.5260823 0.8093278
vt 0.5209281 0.8117367
vt 0.530504 0.8205757
vt 0.5307533 0.8186474
vt 0.5237873 0.8103999
vt 0.5201273 0.7988124
vt 0.5209281 0.8117367
vt 0.5237873 0.8103999
vt 0.5218415 0.7998636
vt 0.1705443 0.5266694
vt 0.1880455 0.5372474
vt 0.1986148 0.5318373
vt 0.197949 0.5274954
vt 0.2245159 0.5266694
vt 0.205483 0.5400524
vt 0.2012751 0.5444994
vt 0.2042201 0.551806
vt 0.7929192 0.8147553
vt 0.7860853 0.8201981
vt 0.7853621 0.828068
vt 0.7967517 0.8293361
vt 0.5176961 0.7932618
vt 0.5178885 0.8131605
vt 0.5209281 0.8117367
vt 0.5201273 0.7988124
vt 0.5178885 0.8131605
vt 0.5333108 0.8258809
vt 0.530504 0.8205757
vt 0.5209281 0.8117367
vt 0.5322416 0.8182949
vt 0.5307533 0.8186474
vt 0.530504 0.8205757
vt 0.5333108 0.8258809
vt 0.8041062 0.8187171
vt 0.7929192 0.8147553
vt 0.7967517 0.8293361
vt 0.8028637 0.8293361
vt 0.1779726 0.5503362
vt 0.1873125 0.5459385
vt 0.1835317 0.5433656
vt 0.1924986 0.5518827
vt 0.1739506 0.5509807
vt 0.1905039 0.5682406
vt 0.5231147 0.7988788
vt 0.5176961 0.7932618
vt 0.5201273 0.7988124
vt 0.5218415 0.7998636
vt 0.2245159 0.5266694
vt 0.2147009 0.5277212
vt 0.206616 0.53306
vt 0.205483 0.5400524
vt 0.197949 0.5274954
vt 0.1986148 0.5318373
vt 0.205483 0.5400524
vt 0.206616 0.53306
vt 0.1924986 0.5518827
vt 0.1957373 0.5617653
vt 0.2042201 0.551806
vt 0.2012751 0.5444994
vt 0.5897434 0.7910591
vt 0.5897434 0.7740298
vt 0.5864962 0.7778
vt 0.5841324 0.7893505
vt 0.5265582 0.7874775
vt 0.5176961 0.7932618
vt 0.5231147 0.7988788
vt 0.5344513 0.7868751
vt 0.5424212 0.7779742
vt 0.5265582 0.7874775
vt 0.5344513 0.7868751
vt 0.5515581 0.7816652
vt 0.5704834 0.8178505
vt 0.5897434 0.7910591
vt 0.5841324 0.7893505
vt 0.5676502 0.8138554
vt 0.5897434 0.7740298
vt 0.5424212 0.7779742
vt 0.5515581 0.7816652
vt 0.5864962 0.7778
vt 0.5333108 0.8258809
vt 0.5704834 0.8178505
vt 0.5676502 0.8138554
vt 0.5322416 0.8182949
vt 0.5344513 0.7868751
vt 0.5231147 0.7988788
vt 0.5260823 0.8093278
vt 0.5435378 0.8015284
vt 0.5676502 0.8138554
vt 0.5435378 0.8015284
vt 0.5260823 0.8093278
vt 0.5322416 0.8182949
vt 0.5515581 0.7816652
vt 0.5344513 0.7868751
vt 0.5435378 0.8015284
vt 0.5550539 0.7940203
vt 0.5841324 0.7893505
vt 0.5435378 0.8015284
vt 0.5676502 0.8138554
vt 0.5515581 0.7816652
vt 0.5550539 0.7940203
vt 0.5841324 0.7893505
vt 0.5864962 0.7778
vt 0.1739506 0.5509807
vt 0.1779726 0.5503362
vt 0.17634 0.5392256
vt 0.1705443 0.5266694
vt 0.1873125 0.5459385
vt 0.1880455 0.5372474
vt 0.17634 0.5392256
vt 0.1835317 0.5433656

usemtl LOW-POLY-COLORS
usemap LOW-POLY-COLORS
f 2/2/2 1/1/1 3/3/3
f 5/5/5 4/4/4 6/6/6
f 8/8/8 7/7/7 9/9/9
f 11/11/11 10/10/10 12/12/12
f 14/14/14 13/13/13 15/15/15
f 15/15/15 13/13/13 16/16/16
f 18/18/18 17/17/17 19/19/19
f 19/19/19 17/17/17 20/20/20
f 22/22/22 21/21/21 23/23/23
f 23/23/23 21/21/21 24/24/24
f 26/26/26 25/25/25 27/27/27
f 27/27/27 25/25/25 28/28/28
f 30/30/30 29/29/29 31/31/31
f 31/31/31 29/29/29 32/32/32
f 34/34/34 33/33/33 35/35/35
f 35/35/35 33/33/33 36/36/36
f 38/38/38 37/37/37 39/39/39
f 39/39/39 37/37/37 40/40/40
f 42/42/42 41/41/41 43/43/43
f 43/43/43 41/41/41 44/44/44
f 46/46/46 45/45/45 47/47/47
f 47/47/47 45/45/45 48/48/48
f 50/50/50 49/49/49 51/51/51
f 51/51/51 49/49/49 52/52/52
f 54/54/54 53/53/53 55/55/55
f 55/55/55 53/53/53 56/56/56
f 58/58/58 57/57/57 59/59/59
f 60/60/60 57/57/57 58/58/58
f 60/60/60 61/61/61 57/57/57
f 62/62/62 61/61/61 60/60/60
f 64/64/64 63/63/63 65/65/65
f 65/65/65 63/63/63 66/66/66
f 68/68/68 67/67/67 69/69/69
f 69/69/69 67/67/67 70/70/70
f 72/72/72 71/71/71 73/73/73
f 73/73/73 71/71/71 74/74/74
f 76/76/76 75/75/75 77/77/77
f 77/77/77 75/75/75 78/78/78
f 80/80/80 79/79/79 81/81/81
f 81/81/81 79/79/79 82/82/82
f 84/84/84 83/83/83 85/85/85
f 85/85/85 83/83/83 86/86/86
f 88/88/88 87/87/87 89/89/89
f 89/89/89 87/87/87 90/90/90
f 92/92/92 91/91/91 93/93/93
f 93/93/93 91/91/91 94/94/94
f 96/96/96 95/95/95 97/97/97
f 97/97/97 95/95/95 98/98/98
f 100/100/100 99/99/99 101/101/101
f 101/101/101 99/99/99 102/102/102
f 104/104/104 103/103/103 105/105/105
f 105/105/105 103/103/103 106/106/106
f 108/108/108 107/107/107 109/109/109
f 109/109/109 107/107/107 110/110/110
f 112/112/112 111/111/111 113/113/113
f 113/113/113 111/111/111 114/114/114
f 114/114/114 115/115/115 116/116/116
f 116/116/116 115/115/115 117/117/117
f 119/119/119 118/118/118 120/120/120
f 120/120/120 118/118/118 121/121/121
f 123/123/123 122/122/122 124/124/124
f 124/124/124 122/122/122 125/125/125
f 127/127/127 126/126/126 128/128/128
f 128/128/128 126/126/126 129/129/129
