mtllib ./tray_7.mtl
g tray
v -0.3387123 0.04356206 0.22
v -0.3387123 0.04356206 -0.22
v -0.3300979 0.08084873 -0.22
v -0.3300979 0.08084873 0.22
v -0.0001123458 0.03850872 -0.22
v 0.3384876 0.04356206 -0.22
v 0.3299021 0.08084873 -0.22
v -9.78887E-05 0.0757954 -0.22
v -0.3387123 0.04356206 -0.22
v -0.3300979 0.08084873 -0.22
v 0.3384876 0.04356206 -0.22
v 0.3384876 0.04356206 0.22
v 0.3299021 0.08084873 0.22
v 0.3299021 0.08084873 -0.22
v -0.0001123458 0.03850872 0.22
v -0.3387123 0.04356206 0.22
v -0.3300979 0.08084873 0.22
v -9.78887E-05 0.0757954 0.22
v 0.3384876 0.04356206 0.22
v 0.3299021 0.08084873 0.22
v -0.0001123458 0.03850872 -0.22
v 0.3384876 0.04356206 0.22
v 0.3384876 0.04356206 -0.22
v -0.0001123458 0.03850872 0.22
v -0.3387123 0.04356206 -0.22
v -0.3387123 0.04356206 0.22
v -9.78887E-05 0.0757954 -0.22
v -0.3300979 0.08084873 0.22
v -0.3300979 0.08084873 -0.22
v -9.78887E-05 0.0757954 0.22
v 0.3299021 0.08084873 -0.22
v 0.3299021 0.08084873 0.22
v -0.2352808 -0.00052859 -0.1895407
v -0.2352808 -0.00052859 0.1895407
v -0.1851883 -0.00052859 0.1895407
v -0.1851883 -0.00052859 -0.1895407
v -0.2352808 -0.00052859 -0.1895407
v -0.1851883 -0.00052859 -0.1895407
v -0.181996 0.04356206 -0.2021544
v -0.238473 0.04356206 -0.2021544
v -0.1851883 -0.00052859 -0.1895407
v -0.1851883 -0.00052859 0.1895407
v -0.181996 0.04356206 0.2021544
v -0.181996 0.04356206 -0.2021544
v -0.2352808 -0.00052859 0.1895407
v -0.2352808 -0.00052859 -0.1895407
v -0.238473 0.04356206 -0.2021544
v -0.238473 0.04356206 0.2021544
v -0.1851883 -0.00052859 0.1895407
v -0.2352808 -0.00052859 0.1895407
v -0.238473 0.04356206 0.2021544
v -0.181996 0.04356206 0.2021544
v 0.1864139 -0.00052859 -0.1895407
v 0.1864139 -0.00052859 0.1895407
v 0.2365063 -0.00052859 0.1895407
v 0.2365063 -0.00052859 -0.1895407
v 0.1864139 -0.00052859 -0.1895407
v 0.2365063 -0.00052859 -0.1895407
v 0.2396986 0.04356206 -0.2021544
v 0.1832216 0.04356206 -0.2021544
v 0.2365063 -0.00052859 -0.1895407
v 0.2365063 -0.00052859 0.1895407
v 0.2396986 0.04356206 0.2021544
v 0.2396986 0.04356206 -0.2021544
v 0.1864139 -0.00052859 0.1895407
v 0.1864139 -0.00052859 -0.1895407
v 0.1832216 0.04356206 -0.2021544
v 0.1832216 0.04356206 0.2021544
v 0.2365063 -0.00052859 0.1895407
v 0.1864139 -0.00052859 0.1895407
v 0.1832216 0.04356206 0.2021544
v 0.2396986 0.04356206 0.2021544

vn -0.9743352 0.225102 0
vn -0.9743352 0.225102 0
vn -0.9743352 0.225102 0
vn -0.9743352 0.225102 0
vn 0 -1.771413E-07 -1
vn 0 -1.771413E-07 -1
vn 0 -1.771413E-07 -1
vn 0 -1.771413E-07 -1
vn 0 0 -1
vn 0 0 -1
vn 0.9745007 0.2243847 0
vn 0.9745007 0.2243847 0
vn 0.9745007 0.2243847 0
vn 0.9745007 0.2243847 0
vn 0 0 1
vn 0 0 1
vn 0 0 1
vn 0 0 1
vn 0 0 1
vn 0 0 1
vn 0.01492254 -0.9998887 0
vn 0.01492254 -0.9998887 0
vn 0.01492254 -0.9998887 0
vn 0.01492254 -0.9998887 0
vn -0.01492254 -0.9998887 0
vn -0.01492254 -0.9998887 0
vn 0.01531135 0.9998828 0
vn 0.01531135 0.9998828 0
vn 0.01531135 0.9998828 0
vn 0.01531135 0.9998828 0
vn -0.01531135 0.9998828 0
vn -0.01531135 0.9998828 0
vn 0 -1 0
vn 0 -1 0
vn 0 -1 0
vn 0 -1 0
vn 0 -0.2750506 -0.9614297
vn 0 -0.2750506 -0.9614297
vn 0 -0.2750506 -0.9614297
vn 0 -0.2750506 -0.9614297
vn 0.9973893 -0.0722132 0
vn 0.9973893 -0.0722132 0
vn 0.9973893 -0.0722132 0
vn 0.9973893 -0.0722132 0
vn -0.9973893 -0.0722132 0
vn -0.9973893 -0.0722132 0
vn -0.9973893 -0.0722132 0
vn -0.9973893 -0.0722132 0
vn 0 -0.2750506 0.9614297
vn 0 -0.2750506 0.9614297
vn 0 -0.2750506 0.9614297
vn 0 -0.2750506 0.9614297
vn 0 -1 0
vn 0 -1 0
vn 0 -1 0
vn 0 -1 0
vn 0 -0.2750505 -0.9614297
vn 0 -0.2750505 -0.9614297
vn 0 -0.2750505 -0.9614297
vn 0 -0.2750505 -0.9614297
vn 0.9973893 -0.0722132 0
vn 0.9973893 -0.0722132 0
vn 0.9973893 -0.0722132 0
vn 0.9973893 -0.0722132 0
vn -0.9973893 -0.0722132 0
vn -0.9973893 -0.0722132 0
vn -0.9973893 -0.0722132 0
vn -0.9973893 -0.0722132 0
vn 0 -0.2750505 0.9614297
vn 0 -0.2750505 0.9614297
vn 0 -0.2750505 0.9614297
vn 0 -0.2750505 0.9614297

vt 0.2655706 0.7852044
vt 0.2655538 0.8032622
vt 0.2671244 0.8032637
vt 0.2671412 0.7852059
vt 0.2807027 0.8048865
vt 0.2946595 0.8048069
vt 0.2943198 0.803267
vt 0.2807033 0.8033513
vt 0.2667836 0.8047994
vt 0.2671244 0.8032637
vt 0.2958901 0.803267
vt 0.2958901 0.7852089
vt 0.2943197 0.7852089
vt 0.2943198 0.803267
vt 0.2807428 0.7836094
vt 0.2668022 0.7836599
vt 0.2671412 0.7852059
vt 0.2807434 0.7851431
vt 0.2946579 0.7836659
vt 0.2943197 0.7852089
vt 0.2807151 0.7655142
vt 0.2946579 0.7836659
vt 0.2946899 0.7655237
vt 0.2807428 0.7836094
vt 0.2667692 0.7655396
vt 0.2668022 0.7836599
vt 0.2807033 0.8033513
vt 0.2671412 0.7852059
vt 0.2671244 0.8032637
vt 0.2807434 0.7851431
vt 0.2943198 0.803267
vt 0.2943197 0.7852089
vt 0.2830521 0.8078187
vt 0.2674422 0.8078187
vt 0.2674422 0.8098813
vt 0.2830521 0.8098813
vt 0.2830521 0.8078187
vt 0.2830521 0.8098813
vt 0.2849405 0.8100128
vt 0.2849405 0.8076872
vt 0.2830521 0.8098813
vt 0.2674422 0.8098813
vt 0.2669228 0.8117017
vt 0.2835715 0.8117017
vt 0.2674422 0.8078187
vt 0.2830521 0.8078187
vt 0.2835715 0.8059983
vt 0.2669228 0.8059983
vt 0.2674422 0.8098813
vt 0.2674422 0.8078187
vt 0.2655538 0.8076872
vt 0.2655538 0.8100128
vt 0.3035505 0.8078187
vt 0.2879407 0.8078187
vt 0.2879407 0.8098813
vt 0.3035505 0.8098813
vt 0.3035505 0.8078187
vt 0.3035505 0.8098813
vt 0.305439 0.8100128
vt 0.305439 0.8076872
vt 0.3035505 0.8098813
vt 0.2879407 0.8098813
vt 0.2874213 0.8117017
vt 0.30407 0.8117017
vt 0.2879407 0.8078187
vt 0.3035505 0.8078187
vt 0.3040699 0.8059983
vt 0.2874213 0.8059984
vt 0.2879407 0.8098813
vt 0.2879407 0.8078187
vt 0.2860523 0.8076872
vt 0.2860523 0.8100128

usemtl LOW-POLY-COLORS
usemap LOW-POLY-COLORS
f 2/2/2 1/1/1 3/3/3
f 3/3/3 1/1/1 4/4/4
f 6/6/6 5/5/5 7/7/7
f 7/7/7 5/5/5 8/8/8
f 5/5/5 9/9/9 8/8/8
f 8/8/8 9/9/9 10/10/10
f 12/12/12 11/11/11 13/13/13
f 13/13/13 11/11/11 14/14/14
f 16/16/16 15/15/15 17/17/17
f 17/17/17 15/15/15 18/18/18
f 15/15/15 19/19/19 18/18/18
f 18/18/18 19/19/19 20/20/20
f 22/22/22 21/21/21 23/23/23
f 24/24/24 21/21/21 22/22/22
f 24/24/24 25/25/25 21/21/21
f 26/26/26 25/25/25 24/24/24
f 28/28/28 27/27/27 29/29/29
f 30/30/30 27/27/27 28/28/28
f 30/30/30 31/31/31 27/27/27
f 32/32/32 31/31/31 30/30/30
f 34/34/34 33/33/33 35/35/35
f 35/35/35 33/33/33 36/36/36
f 38/38/38 37/37/37 39/39/39
f 39/39/39 37/37/37 40/40/40
f 42/42/42 41/41/41 43/43/43
f 43/43/43 41/41/41 44/44/44
f 46/46/46 45/45/45 47/47/47
f 47/47/47 45/45/45 48/48/48
f 50/50/50 49/49/49 51/51/51
f 51/51/51 49/49/49 52/52/52
f 54/54/54 53/53/53 55/55/55
f 55/55/55 53/53/53 56/56/56
f 58/58/58 57/57/57 59/59/59
f 59/59/59 57/57/57 60/60/60
f 62/62/62 61/61/61 63/63/63
f 63/63/63 61/61/61 64/64/64
f 66/66/66 65/65/65 67/67/67
f 67/67/67 65/65/65 68/68/68
f 70/70/70 69/69/69 71/71/71
f 71/71/71 69/69/69 72/72/72
