mtllib ./baseball-bat_5.mtl
g baseball-bat
v 2.214653E-10 -0.01014941 -0.03119664
v 0.02701708 -0.01014941 -0.01559832
v 0.02675071 0.01812664 -0.01544453
v 1.640141E-10 0.01812664 -0.03088907
v 0.02701708 -0.01014941 0.01559832
v 2.946718E-09 -0.01014941 0.03119664
v 2.810805E-09 0.01812664 0.03088907
v 0.02675071 0.01812664 0.01544453
v -0.02701708 -0.01014941 0.01559832
v -0.02701708 -0.01014941 -0.01559832
v -0.02675071 0.01812664 -0.01544453
v -0.02675071 0.01812664 0.01544453
v 0.02701708 -0.01014941 -0.01559832
v 0.02701708 -0.01014941 0.01559832
v 0.02675071 0.01812664 0.01544453
v 0.02675071 0.01812664 -0.01544453
v 2.946718E-09 -0.01014941 0.03119664
v -0.02701708 -0.01014941 0.01559832
v -0.02675071 0.01812664 0.01544453
v 2.810805E-09 0.01812664 0.03088907
v -0.02701708 -0.01014941 -0.01559832
v 2.214653E-10 -0.01014941 -0.03119664
v 1.640141E-10 0.01812664 -0.03088907
v -0.02675071 0.01812664 -0.01544453
v -0.02675071 0.01812664 0.01544453
v -0.02675071 0.01812664 -0.01544453
v -0.01573008 0.02865825 -0.009081763
v -0.01573008 0.02865825 0.009081765
v 0.02675071 0.01812664 -0.01544453
v 0.02675071 0.01812664 0.01544453
v 0.01573008 0.02865825 0.009081762
v 0.01573008 0.02865825 -0.009081762
v 2.810805E-09 0.01812664 0.03088907
v -0.02675071 0.01812664 0.01544453
v -0.01573008 0.02865825 0.009081765
v 1.733942E-09 0.02865825 0.01816353
v -0.02675071 0.01812664 -0.01544453
v 1.640141E-10 0.01812664 -0.03088907
v 2.25258E-10 0.02865825 -0.01816353
v -0.01573008 0.02865825 -0.009081763
v 1.640141E-10 0.01812664 -0.03088907
v 0.02675071 0.01812664 -0.01544453
v 0.01573008 0.02865825 -0.009081762
v 2.25258E-10 0.02865825 -0.01816353
v 0.02675071 0.01812664 0.01544453
v 2.810805E-09 0.01812664 0.03088907
v 1.733942E-09 0.02865825 0.01816353
v 0.01573008 0.02865825 0.009081762
v -0.01858644 0.2476034 -0.01073089
v 1.206529E-10 0.2476034 -0.02146178
v 1.007811E-10 0.4821692 -0.03643404
v -0.03155281 0.4821692 -0.01821702
v 1.206529E-10 0.2476034 -0.02146178
v 0.01858644 0.2476034 -0.01073088
v 0.03155281 0.4821692 -0.01821702
v 1.007811E-10 0.4821692 -0.03643404
v 0.01858644 0.2476034 0.01073088
v 1.95808E-09 0.2476034 0.02146178
v 3.351358E-09 0.4821692 0.03643404
v 0.03155281 0.4821692 0.01821702
v -0.01858644 0.2476034 0.01073089
v -0.01858644 0.2476034 -0.01073089
v -0.03155281 0.4821692 -0.01821702
v -0.03155281 0.4821692 0.01821702
v -0.03536258 0.7790379 -0.02041659
v -0.03536258 0.7790379 0.0204166
v 0.01858644 0.2476034 -0.01073088
v 0.01858644 0.2476034 0.01073088
v 0.03155281 0.4821692 0.01821702
v 0.03155281 0.4821692 -0.01821702
v 1.95808E-09 0.2476034 0.02146178
v -0.01858644 0.2476034 0.01073089
v -0.03155281 0.4821692 0.01821702
v 3.351358E-09 0.4821692 0.03643404
v -0.03536258 0.7790379 0.0204166
v 3.73534E-09 0.7790379 0.04083319
v 0.03155281 0.4821692 -0.01821702
v 0.03155281 0.4821692 0.01821702
v 0.03536258 0.7790379 0.02041659
v 0.03536258 0.7790379 -0.02041659
v -0.03155281 0.4821692 -0.01821702
v 1.007811E-10 0.4821692 -0.03643404
v 1.631182E-10 0.7790379 -0.04083319
v -0.03536258 0.7790379 -0.02041659
v 1.007811E-10 0.4821692 -0.03643404
v 0.03155281 0.4821692 -0.01821702
v 0.03536258 0.7790379 -0.02041659
v 1.631182E-10 0.7790379 -0.04083319
v 0.03155281 0.4821692 0.01821702
v 3.351358E-09 0.4821692 0.03643404
v 3.73534E-09 0.7790379 0.04083319
v 0.03536258 0.7790379 0.02041659
v 1.631182E-10 0.7790379 -0.04083319
v 0.03536258 0.7790379 -0.02041659
v 0.02353095 0.8018795 -0.01358559
v 1.161411E-10 0.8018795 -0.0271712
v 0.03536258 0.7790379 0.02041659
v 3.73534E-09 0.7790379 0.04083319
v 2.480375E-09 0.8018795 0.0271712
v 0.02353095 0.8018795 0.01358559
v -0.03536258 0.7790379 0.0204166
v -0.03536258 0.7790379 -0.02041659
v -0.02353095 0.8018795 -0.0135856
v -0.02353095 0.8018795 0.0135856
v 0.03536258 0.7790379 -0.02041659
v 0.03536258 0.7790379 0.02041659
v 0.02353095 0.8018795 0.01358559
v 0.02353095 0.8018795 -0.01358559
v 3.73534E-09 0.7790379 0.04083319
v -0.03536258 0.7790379 0.0204166
v -0.02353095 0.8018795 0.0135856
v 2.480375E-09 0.8018795 0.0271712
v -0.03536258 0.7790379 -0.02041659
v 1.631182E-10 0.7790379 -0.04083319
v 1.161411E-10 0.8018795 -0.0271712
v -0.02353095 0.8018795 -0.0135856
v -0.02353095 0.8018795 -0.0135856
v 2.480375E-09 0.8018795 0.0271712
v -0.02353095 0.8018795 0.0135856
v 1.161411E-10 0.8018795 -0.0271712
v 0.02353095 0.8018795 0.01358559
v 0.02353095 0.8018795 -0.01358559
v 1.733942E-09 0.02865825 0.01816353
v -0.01573008 0.02865825 0.009081765
v -0.01858644 0.2476034 0.01073089
v 1.95808E-09 0.2476034 0.02146178
v 0.01573008 0.02865825 -0.009081762
v 0.01573008 0.02865825 0.009081762
v 0.01858644 0.2476034 0.01073088
v 0.01858644 0.2476034 -0.01073088
v -0.01573008 0.02865825 0.009081765
v -0.01573008 0.02865825 -0.009081763
v -0.01858644 0.2476034 -0.01073089
v -0.01858644 0.2476034 0.01073089
v 0.01573008 0.02865825 0.009081762
v 1.733942E-09 0.02865825 0.01816353
v 1.95808E-09 0.2476034 0.02146178
v 0.01858644 0.2476034 0.01073088
v 2.25258E-10 0.02865825 -0.01816353
v 0.01573008 0.02865825 -0.009081762
v 0.01858644 0.2476034 -0.01073088
v 1.206529E-10 0.2476034 -0.02146178
v -0.01573008 0.02865825 -0.009081763
v 2.25258E-10 0.02865825 -0.01816353
v 1.206529E-10 0.2476034 -0.02146178
v -0.01858644 0.2476034 -0.01073089
v 2.214653E-10 -0.01014941 -0.03119664
v 0.02701708 -0.01014941 0.01559832
v 0.02701708 -0.01014941 -0.01559832
v 2.946718E-09 -0.01014941 0.03119664
v -0.02701708 -0.01014941 -0.01559832
v -0.02701708 -0.01014941 0.01559832

vn 0.499978 0.009419966 -0.8659869
vn 0.499978 0.009419966 -0.8659869
vn 0.499978 0.009419966 -0.8659869
vn 0.499978 0.009419966 -0.8659869
vn 0.4999781 0.009420038 0.8659869
vn 0.4999781 0.009420038 0.8659869
vn 0.4999781 0.009420038 0.8659869
vn 0.4999781 0.009420038 0.8659869
vn -0.9999557 0.009420035 0
vn -0.9999557 0.009420035 0
vn -0.9999557 0.009420035 0
vn -0.9999557 0.009420035 0
vn 0.9999557 0.009420035 0
vn 0.9999557 0.009420035 0
vn 0.9999557 0.009420035 0
vn 0.9999557 0.009420035 0
vn -0.4999779 0.009419898 0.8659869
vn -0.4999779 0.009419898 0.8659869
vn -0.4999779 0.009419898 0.8659869
vn -0.4999779 0.009419898 0.8659869
vn -0.4999779 0.009419964 -0.8659869
vn -0.4999779 0.009419964 -0.8659869
vn -0.4999779 0.009419964 -0.8659869
vn -0.4999779 0.009419964 -0.8659869
vn -0.6908848 0.7229648 0
vn -0.6908848 0.7229648 0
vn -0.6908848 0.7229648 0
vn -0.6908848 0.7229648 0
vn 0.6908848 0.7229648 0
vn 0.6908848 0.7229648 0
vn 0.6908848 0.7229648 0
vn 0.6908848 0.7229648 0
vn -0.3454424 0.7229651 0.5983235
vn -0.3454424 0.7229651 0.5983235
vn -0.3454424 0.7229651 0.5983235
vn -0.3454424 0.7229651 0.5983235
vn -0.3454425 0.7229649 -0.5983236
vn -0.3454425 0.7229649 -0.5983236
vn -0.3454425 0.7229649 -0.5983236
vn -0.3454425 0.7229649 -0.5983236
vn 0.3454425 0.7229649 -0.5983236
vn 0.3454425 0.7229649 -0.5983236
vn 0.3454425 0.7229649 -0.5983236
vn 0.3454425 0.7229649 -0.5983236
vn 0.3454426 0.7229649 0.5983236
vn 0.3454426 0.7229649 0.5983236
vn 0.3454426 0.7229649 0.5983236
vn 0.3454426 0.7229649 0.5983236
vn -0.499238 -0.05519386 -0.8647052
vn -0.499238 -0.05519386 -0.8647052
vn -0.499238 -0.05519386 -0.8647052
vn -0.499238 -0.05519386 -0.8647052
vn 0.499238 -0.05519387 -0.8647052
vn 0.499238 -0.05519387 -0.8647052
vn 0.499238 -0.05519387 -0.8647052
vn 0.499238 -0.05519387 -0.8647052
vn 0.499238 -0.05519386 0.8647052
vn 0.499238 -0.05519386 0.8647052
vn 0.499238 -0.05519386 0.8647052
vn 0.499238 -0.05519386 0.8647052
vn -0.9984756 -0.05519386 0
vn -0.9984756 -0.05519386 0
vn -0.9984756 -0.05519386 0
vn -0.9984756 -0.05519386 0
vn -0.9999176 -0.01283213 0
vn -0.9999176 -0.01283213 0
vn 0.9984756 -0.05519388 0
vn 0.9984756 -0.05519388 0
vn 0.9984756 -0.05519388 0
vn 0.9984756 -0.05519388 0
vn -0.4992379 -0.05519388 0.8647052
vn -0.4992379 -0.05519388 0.8647052
vn -0.4992379 -0.05519388 0.8647052
vn -0.4992379 -0.05519388 0.8647052
vn -0.4999588 -0.01283215 0.8659542
vn -0.4999588 -0.01283215 0.8659542
vn 0.9999176 -0.01283213 0
vn 0.9999176 -0.01283213 0
vn 0.9999176 -0.01283213 0
vn 0.9999176 -0.01283213 0
vn -0.4999589 -0.01283213 -0.8659541
vn -0.4999589 -0.01283213 -0.8659541
vn -0.4999589 -0.01283213 -0.8659541
vn -0.4999589 -0.01283213 -0.8659541
vn 0.499959 -0.01283213 -0.8659541
vn 0.499959 -0.01283213 -0.8659541
vn 0.499959 -0.01283213 -0.8659541
vn 0.499959 -0.01283213 -0.8659541
vn 0.499959 -0.01283214 0.8659541
vn 0.499959 -0.01283214 0.8659541
vn 0.499959 -0.01283214 0.8659541
vn 0.499959 -0.01283214 0.8659541
vn 0.4439732 0.4599452 -0.7689853
vn 0.4439732 0.4599452 -0.7689853
vn 0.4439732 0.4599452 -0.7689853
vn 0.4439732 0.4599452 -0.7689853
vn 0.4439736 0.459945 0.768985
vn 0.4439736 0.459945 0.768985
vn 0.4439736 0.459945 0.768985
vn 0.4439736 0.459945 0.768985
vn -0.8879475 0.4599448 0
vn -0.8879475 0.4599448 0
vn -0.8879475 0.4599448 0
vn -0.8879475 0.4599448 0
vn 0.8879478 0.4599442 0
vn 0.8879478 0.4599442 0
vn 0.8879478 0.4599442 0
vn 0.8879478 0.4599442 0
vn -0.443974 0.4599451 0.7689849
vn -0.443974 0.4599451 0.7689849
vn -0.443974 0.4599451 0.7689849
vn -0.443974 0.4599451 0.7689849
vn -0.4439745 0.4599447 -0.7689847
vn -0.4439745 0.4599447 -0.7689847
vn -0.4439745 0.4599447 -0.7689847
vn -0.4439745 0.4599447 -0.7689847
vn 0 1 0
vn 0 1 0
vn 0 1 0
vn 0 1 0
vn 0 1 0
vn 0 1 0
vn -0.4999575 -0.01304492 0.8659518
vn -0.4999575 -0.01304492 0.8659518
vn -0.4999575 -0.01304492 0.8659518
vn -0.4999575 -0.01304492 0.8659518
vn 0.9999149 -0.01304492 0
vn 0.9999149 -0.01304492 0
vn 0.9999149 -0.01304492 0
vn 0.9999149 -0.01304492 0
vn -0.9999149 -0.01304492 0
vn -0.9999149 -0.01304492 0
vn -0.9999149 -0.01304492 0
vn -0.9999149 -0.01304492 0
vn 0.4999576 -0.01304492 0.8659516
vn 0.4999576 -0.01304492 0.8659516
vn 0.4999576 -0.01304492 0.8659516
vn 0.4999576 -0.01304492 0.8659516
vn 0.4999575 -0.01304492 -0.8659517
vn 0.4999575 -0.01304492 -0.8659517
vn 0.4999575 -0.01304492 -0.8659517
vn 0.4999575 -0.01304492 -0.8659517
vn -0.4999575 -0.01304492 -0.8659517
vn -0.4999575 -0.01304492 -0.8659517
vn -0.4999575 -0.01304492 -0.8659517
vn -0.4999575 -0.01304492 -0.8659517
vn 0 -1 0
vn 0 -1 0
vn 0 -1 0
vn 0 -1 0
vn 0 -1 0
vn 0 -1 0

vt 0.4446638 0.793964
vt 0.4486481 0.7989992
vt 0.4529657 0.7950493
vt 0.4491478 0.7915375
vt 0.4486885 0.7718458
vt 0.4447744 0.7764446
vt 0.4488156 0.779076
vt 0.4517688 0.7755355
vt 0.4426138 0.7821157
vt 0.4425717 0.7881916
vt 0.4474087 0.7875401
vt 0.447324 0.7832114
vt 0.4535674 0.7683144
vt 0.4486885 0.7718458
vt 0.4517688 0.7755355
vt 0.4567443 0.772754
vt 0.4447744 0.7764446
vt 0.4426138 0.7821157
vt 0.447324 0.7832114
vt 0.4488156 0.779076
vt 0.4425717 0.7881916
vt 0.4446638 0.793964
vt 0.4491478 0.7915375
vt 0.4474087 0.7875401
vt 0.447324 0.7832114
vt 0.4474087 0.7875401
vt 0.4499958 0.7869172
vt 0.4500149 0.7835887
vt 0.4567443 0.772754
vt 0.4517688 0.7755355
vt 0.4536499 0.777869
vt 0.4570994 0.7763647
vt 0.4488156 0.779076
vt 0.447324 0.7832114
vt 0.4500149 0.7835887
vt 0.4512638 0.7804352
vt 0.4474087 0.7875401
vt 0.4491478 0.7915375
vt 0.4512268 0.7899603
vt 0.4499958 0.7869172
vt 0.4491478 0.7915375
vt 0.4529657 0.7950493
vt 0.4538454 0.7921015
vt 0.4512268 0.7899603
vt 0.4517688 0.7755355
vt 0.4488156 0.779076
vt 0.4512638 0.7804352
vt 0.4536499 0.777869
vt 0.3877376 0.8299146
vt 0.3873788 0.8338469
vt 0.4299161 0.8390089
vt 0.4302931 0.8324541
vt 0.3873788 0.8338469
vt 0.3867788 0.8377597
vt 0.4292679 0.8456245
vt 0.4299161 0.8390089
vt 0.3873805 0.8180906
vt 0.3877395 0.8220279
vt 0.4302606 0.8194082
vt 0.4298536 0.8128598
vt 0.3878578 0.8259721
vt 0.3877376 0.8299146
vt 0.4302931 0.8324541
vt 0.430407 0.8259302
vt 0.4840302 0.8334375
vt 0.4841052 0.825916
vt 0.3867788 0.8141974
vt 0.3873805 0.8180906
vt 0.4298536 0.8128598
vt 0.4291837 0.806254
vt 0.3877395 0.8220279
vt 0.3878578 0.8259721
vt 0.430407 0.8259302
vt 0.4302606 0.8194082
vt 0.4841052 0.825916
vt 0.484041 0.8183914
vt 0.4291837 0.806254
vt 0.4298536 0.8128598
vt 0.4838378 0.8108658
vt 0.4834999 0.8033416
vt 0.4302931 0.8324541
vt 0.4299161 0.8390089
vt 0.483821 0.8409546
vt 0.4840302 0.8334375
vt 0.4299161 0.8390089
vt 0.4292679 0.8456245
vt 0.4834926 0.8484148
vt 0.483821 0.8409546
vt 0.4298536 0.8128598
vt 0.4302606 0.8194082
vt 0.484041 0.8183914
vt 0.4838378 0.8108658
vt 0.4898272 0.7992546
vt 0.4834999 0.8033416
vt 0.4871629 0.8055553
vt 0.48983 0.8035441
vt 0.4838378 0.8108658
vt 0.4906219 0.8142055
vt 0.4906191 0.8099161
vt 0.4875549 0.8087856
vt 0.4969491 0.8101186
vt 0.4966113 0.8025944
vt 0.4928942 0.8046744
vt 0.4932862 0.8079048
vt 0.4834999 0.8033416
vt 0.4838378 0.8108658
vt 0.4875549 0.8087856
vt 0.4871629 0.8055553
vt 0.4906219 0.8142055
vt 0.4969491 0.8101186
vt 0.4932862 0.8079048
vt 0.4906191 0.8099161
vt 0.4966113 0.8025944
vt 0.4898272 0.7992546
vt 0.48983 0.8035441
vt 0.4928942 0.8046744
vt 0.4928942 0.8046744
vt 0.4906191 0.8099161
vt 0.4932862 0.8079048
vt 0.48983 0.8035441
vt 0.4875549 0.8087856
vt 0.4871629 0.8055553
vt 0.1860672 0.03416008
vt 0.1860918 0.03742599
vt 0.2254648 0.03742599
vt 0.2254357 0.03356707
vt 0.1858704 0.02763128
vt 0.1859934 0.03089499
vt 0.2253485 0.02970904
vt 0.2252032 0.02585268
vt 0.1860918 0.03742599
vt 0.1860672 0.04069185
vt 0.2254357 0.04128498
vt 0.2254648 0.03742599
vt 0.1859934 0.03089499
vt 0.1860672 0.03416008
vt 0.2254357 0.03356707
vt 0.2253485 0.02970904
vt 0.1859934 0.043957
vt 0.1858704 0.04722059
vt 0.2252032 0.04899931
vt 0.2253485 0.04514295
vt 0.1860672 0.04069185
vt 0.1859934 0.043957
vt 0.2253485 0.04514295
vt 0.2254357 0.04128498
vt 0.4529483 0.7623233
vt 0.4486885 0.7718458
vt 0.4535674 0.7683144
vt 0.4431907 0.7693864
vt 0.4474505 0.7598639
vt 0.4425717 0.7633955

usemtl LOW-POLY-COLORS
usemap LOW-POLY-COLORS
f 2/2/2 1/1/1 3/3/3
f 3/3/3 1/1/1 4/4/4
f 6/6/6 5/5/5 7/7/7
f 7/7/7 5/5/5 8/8/8
f 10/10/10 9/9/9 11/11/11
f 11/11/11 9/9/9 12/12/12
f 14/14/14 13/13/13 15/15/15
f 15/15/15 13/13/13 16/16/16
f 18/18/18 17/17/17 19/19/19
f 19/19/19 17/17/17 20/20/20
f 22/22/22 21/21/21 23/23/23
f 23/23/23 21/21/21 24/24/24
f 26/26/26 25/25/25 27/27/27
f 27/27/27 25/25/25 28/28/28
f 30/30/30 29/29/29 31/31/31
f 31/31/31 29/29/29 32/32/32
f 34/34/34 33/33/33 35/35/35
f 35/35/35 33/33/33 36/36/36
f 38/38/38 37/37/37 39/39/39
f 39/39/39 37/37/37 40/40/40
f 42/42/42 41/41/41 43/43/43
f 43/43/43 41/41/41 44/44/44
f 46/46/46 45/45/45 47/47/47
f 47/47/47 45/45/45 48/48/48
f 50/50/50 49/49/49 51/51/51
f 51/51/51 49/49/49 52/52/52
f 54/54/54 53/53/53 55/55/55
f 55/55/55 53/53/53 56/56/56
f 58/58/58 57/57/57 59/59/59
f 59/59/59 57/57/57 60/60/60
f 62/62/62 61/61/61 63/63/63
f 63/63/63 61/61/61 64/64/64
f 63/63/63 64/64/64 65/65/65
f 65/65/65 64/64/64 66/66/66
f 68/68/68 67/67/67 69/69/69
f 69/69/69 67/67/67 70/70/70
f 72/72/72 71/71/71 73/73/73
f 73/73/73 71/71/71 74/74/74
f 73/73/73 74/74/74 75/75/75
f 75/75/75 74/74/74 76/76/76
f 78/78/78 77/77/77 79/79/79
f 79/79/79 77/77/77 80/80/80
f 82/82/82 81/81/81 83/83/83
f 83/83/83 81/81/81 84/84/84
f 86/86/86 85/85/85 87/87/87
f 87/87/87 85/85/85 88/88/88
f 90/90/90 89/89/89 91/91/91
f 91/91/91 89/89/89 92/92/92
f 94/94/94 93/93/93 95/95/95
f 95/95/95 93/93/93 96/96/96
f 98/98/98 97/97/97 99/99/99
f 99/99/99 97/97/97 100/100/100
f 102/102/102 101/101/101 103/103/103
f 103/103/103 101/101/101 104/104/104
f 106/106/106 105/105/105 107/107/107
f 107/107/107 105/105/105 108/108/108
f 110/110/110 109/109/109 111/111/111
f 111/111/111 109/109/109 112/112/112
f 114/114/114 113/113/113 115/115/115
f 115/115/115 113/113/113 116/116/116
f 118/118/118 117/117/117 119/119/119
f 120/120/120 117/117/117 118/118/118
f 118/118/118 121/121/121 120/120/120
f 120/120/120 121/121/121 122/122/122
f 124/124/124 123/123/123 125/125/125
f 125/125/125 123/123/123 126/126/126
f 128/128/128 127/127/127 129/129/129
f 129/129/129 127/127/127 130/130/130
f 132/132/132 131/131/131 133/133/133
f 133/133/133 131/131/131 134/134/134
f 136/136/136 135/135/135 137/137/137
f 137/137/137 135/135/135 138/138/138
f 140/140/140 139/139/139 141/141/141
f 141/141/141 139/139/139 142/142/142
f 144/144/144 143/143/143 145/145/145
f 145/145/145 143/143/143 146/146/146
f 148/148/148 147/147/147 149/149/149
f 150/150/150 147/147/147 148/148/148
f 150/150/150 151/151/151 147/147/147
f 152/152/152 151/151/151 150/150/150
