mtllib ./flag-golf_red_1.mtl
g flag-golf_red
v 7.451854E-06 2.030819 -0.04325721
v 7.448795E-06 2.065809 -9.030003E-08
v -0.03745442 2.030819 -0.02162847
v 0.03746932 2.030819 -0.02162871
v 7.448795E-06 2.065809 -9.030003E-08
v 7.451854E-06 2.030819 -0.04325721
v 7.451854E-06 2.030819 0.04325714
v 7.448795E-06 2.065809 -9.030003E-08
v 0.03746932 2.030819 0.02162877
v -0.03745442 2.030819 -0.02162847
v 7.448795E-06 2.065809 -9.030003E-08
v -0.03745454 2.030819 0.02162877
v 0.03746932 2.030819 0.02162877
v 7.448795E-06 2.065809 -9.030003E-08
v 0.03746932 2.030819 -0.02162871
v -0.03745454 2.030819 0.02162877
v 7.448795E-06 2.065809 -9.030003E-08
v 7.451854E-06 2.030819 0.04325714
v 0.4358385 1.72902 -0.1232127
v 0.6273958 1.796282 -0.2338085
v 0.4358385 1.863544 -0.1232128
v -0.02574005 1.6 0.01486533
v -0.02573993 1.6 -0.01486523
v -0.02573996 2 -0.01486524
v -0.02574008 2 0.01486543
v -0.02573993 1.6 -0.01486523
v 7.489517E-06 1.6 -0.02973063
v 7.454548E-06 2 -0.02973065
v -0.02573996 2 -0.01486524
v 0.02575487 2 0.01486543
v 0.03746932 2.030819 0.02162877
v 0.03746932 2.030819 -0.02162871
v 0.02575487 2 -0.01486537
v 7.454548E-06 2 0.02973059
v 7.451854E-06 2.030819 0.04325714
v 0.03746932 2.030819 0.02162877
v 0.02575487 2 0.01486543
v -0.02573979 -2.512427E-09 -0.01486528
v 7.629393E-06 5.630786E-10 -0.02973062
v 7.594424E-06 0.3999999 -0.0297306
v -0.02573982 0.3999999 -0.01486526
v -0.02573982 0.3999999 -0.01486526
v 7.594424E-06 0.3999999 -0.0297306
v 7.559455E-06 0.7999999 -0.02973059
v -0.02573986 0.7999999 -0.01486525
v -0.02573986 0.7999999 -0.01486525
v 7.559455E-06 0.7999999 -0.02973059
v 7.524486E-06 1.2 -0.02973061
v -0.02573989 1.2 -0.01486533
v -0.02573989 1.2 -0.01486533
v 7.524486E-06 1.2 -0.02973061
v 7.489517E-06 1.6 -0.02973063
v -0.02573993 1.6 -0.01486523
v 7.629394E-06 -5.630786E-10 0.02973062
v -0.0257399 -2.144183E-09 0.01486534
v -0.02573994 0.3999999 0.01486535
v 7.594425E-06 0.3999999 0.02973063
v 7.594425E-06 0.3999999 0.02973063
v -0.02573994 0.3999999 0.01486535
v -0.02573998 0.7999999 0.01486537
v 7.559456E-06 0.7999999 0.02973064
v 7.559456E-06 0.7999999 0.02973064
v -0.02573998 0.7999999 0.01486537
v -0.02574001 1.2 0.01486535
v 7.524487E-06 1.2 0.02973062
v 7.524487E-06 1.2 0.02973062
v -0.02574001 1.2 0.01486535
v -0.02574005 1.6 0.01486533
v 7.489518E-06 1.6 0.0297306
v 0.02575504 2.144183E-09 -0.01486534
v 0.02575504 2.51243E-09 0.01486534
v 0.02575501 0.3999999 0.01486535
v 0.02575501 0.3999999 -0.01486533
v 0.02575501 0.3999999 -0.01486533
v 0.02575501 0.3999999 0.01486535
v 0.02575498 0.7999999 0.01486536
v 0.02575498 0.7999999 -0.01486532
v 0.02575498 0.7999999 -0.01486532
v 0.02575498 0.7999999 0.01486536
v 0.02575494 1.2 0.01486534
v 0.02575494 1.2 -0.01486533
v 0.02575494 1.2 -0.01486533
v 0.02575494 1.2 0.01486534
v 0.02575491 1.6 0.01486533
v 0.02575491 1.6 -0.01486535
v -0.0257399 -2.144183E-09 0.01486534
v -0.02573979 -2.512427E-09 -0.01486528
v -0.02573982 0.3999999 -0.01486526
v -0.02573994 0.3999999 0.01486535
v -0.02573994 0.3999999 0.01486535
v -0.02573982 0.3999999 -0.01486526
v -0.02573986 0.7999999 -0.01486525
v -0.02573998 0.7999999 0.01486537
v -0.02573998 0.7999999 0.01486537
v -0.02573986 0.7999999 -0.01486525
v -0.02573989 1.2 -0.01486533
v -0.02574001 1.2 0.01486535
v -0.02574001 1.2 0.01486535
v -0.02573989 1.2 -0.01486533
v -0.02573993 1.6 -0.01486523
v -0.02574005 1.6 0.01486533
v 0.02575504 2.51243E-09 0.01486534
v 7.629394E-06 -5.630786E-10 0.02973062
v 7.594425E-06 0.3999999 0.02973063
v 0.02575501 0.3999999 0.01486535
v 0.02575501 0.3999999 0.01486535
v 7.594425E-06 0.3999999 0.02973063
v 7.559456E-06 0.7999999 0.02973064
v 0.02575498 0.7999999 0.01486536
v 0.02575498 0.7999999 0.01486536
v 7.559456E-06 0.7999999 0.02973064
v 7.524487E-06 1.2 0.02973062
v 0.02575494 1.2 0.01486534
v 0.02575494 1.2 0.01486534
v 7.524487E-06 1.2 0.02973062
v 7.489518E-06 1.6 0.0297306
v 0.02575491 1.6 0.01486533
v 7.629393E-06 5.630786E-10 -0.02973062
v 0.02575504 2.144183E-09 -0.01486534
v 0.02575501 0.3999999 -0.01486533
v 7.594424E-06 0.3999999 -0.0297306
v 7.594424E-06 0.3999999 -0.0297306
v 0.02575501 0.3999999 -0.01486533
v 0.02575498 0.7999999 -0.01486532
v 7.559455E-06 0.7999999 -0.02973059
v 7.559455E-06 0.7999999 -0.02973059
v 0.02575498 0.7999999 -0.01486532
v 0.02575494 1.2 -0.01486533
v 7.524486E-06 1.2 -0.02973061
v 7.524486E-06 1.2 -0.02973061
v 0.02575494 1.2 -0.01486533
v 0.02575491 1.6 -0.01486535
v 7.489517E-06 1.6 -0.02973063
v 0.02575491 1.6 0.01486533
v 7.489518E-06 1.6 0.0297306
v 7.454548E-06 2 0.02973059
v 0.02575487 2 0.01486543
v 7.489517E-06 1.6 -0.02973063
v 0.02575491 1.6 -0.01486535
v 0.02575487 2 -0.01486537
v 7.454548E-06 2 -0.02973065
v 0.02575491 1.6 -0.01486535
v 0.02575491 1.6 0.01486533
v 0.02575487 2 0.01486543
v 0.02575487 2 -0.01486537
v 7.489518E-06 1.6 0.0297306
v -0.02574005 1.6 0.01486533
v -0.02574008 2 0.01486543
v 7.454548E-06 2 0.02973059
v -0.02573996 2 -0.01486524
v -0.03745442 2.030819 -0.02162847
v -0.03745454 2.030819 0.02162877
v -0.02574008 2 0.01486543
v -0.02574008 2 0.01486543
v -0.03745454 2.030819 0.02162877
v 7.451854E-06 2.030819 0.04325714
v 7.454548E-06 2 0.02973059
v 7.454548E-06 2 -0.02973065
v 7.451854E-06 2.030819 -0.04325721
v -0.03745442 2.030819 -0.02162847
v -0.02573996 2 -0.01486524
v 0.02575487 2 -0.01486537
v 0.03746932 2.030819 -0.02162871
v 7.451854E-06 2.030819 -0.04325721
v 7.454548E-06 2 -0.02973065
v 0.02188924 1.596282 -0.01192895
v 0.2146407 1.664801 -0.123216
v 0.2146407 1.927763 -0.123216
v 0.02307725 1.995655 -0.01261865
v 0.2146407 1.664801 -0.123216
v 0.4358385 1.72902 -0.1232127
v 0.4358385 1.863544 -0.1232128
v 0.2146407 1.927763 -0.123216
v 0.02188924 1.596282 -0.01192895
v 0.2146407 1.927763 -0.123216
v 0.2146407 1.664801 -0.123216
v 0.02307725 1.995655 -0.01261865
v 0.4358385 1.72902 -0.1232127
v 0.4358385 1.863544 -0.1232128
v 0.6273958 1.796282 -0.2338085
v 0.2146407 1.664801 -0.123216
v 0.2146407 1.927763 -0.123216
v 0.4358385 1.863544 -0.1232128
v 0.4358385 1.72902 -0.1232127

vn -0.3412949 0.7308021 -0.5911397
vn -0.3412949 0.7308021 -0.5911397
vn -0.3412949 0.7308021 -0.5911397
vn 0.3412918 0.730803 -0.5911402
vn 0.3412918 0.730803 -0.5911402
vn 0.3412918 0.730803 -0.5911402
vn 0.3412913 0.730804 0.5911393
vn 0.3412913 0.730804 0.5911393
vn 0.3412913 0.730804 0.5911393
vn -0.6825879 0.7308035 -1.837511E-06
vn -0.6825879 0.7308035 -1.837511E-06
vn -0.6825879 0.7308035 -1.837511E-06
vn 0.6825883 0.7308031 0
vn 0.6825883 0.7308031 0
vn 0.6825883 0.7308031 0
vn -0.3412904 0.7308042 0.5911396
vn -0.3412904 0.7308042 0.5911396
vn -0.3412904 0.7308042 0.5911396
vn -0.4999999 0 -0.8660254
vn -0.4999999 0 -0.8660254
vn -0.4999999 0 -0.8660254
vn -1 0 -3.993983E-06
vn -1 0 -3.993983E-06
vn -1 0 -3.993983E-06
vn -1 0 -3.993983E-06
vn -0.500003 0 -0.8660237
vn -0.500003 0 -0.8660237
vn -0.500003 0 -0.8660237
vn -0.500003 0 -0.8660237
vn 0.9347507 -0.3553042 1.161039E-06
vn 0.9347507 -0.3553042 1.161039E-06
vn 0.9347507 -0.3553042 1.161039E-06
vn 0.9347507 -0.3553042 1.161039E-06
vn 0.4673744 -0.3553034 0.8095186
vn 0.4673744 -0.3553034 0.8095186
vn 0.4673744 -0.3553034 0.8095186
vn 0.4673744 -0.3553034 0.8095186
vn -0.5000016 0 -0.8660244
vn -0.5000016 0 -0.8660244
vn -0.5000016 0 -0.8660244
vn -0.5000016 0 -0.8660244
vn -0.5000015 0 -0.8660246
vn -0.5000015 0 -0.8660246
vn -0.5000015 0 -0.8660246
vn -0.5000015 0 -0.8660246
vn -0.500001 -1.461581E-07 -0.8660249
vn -0.500001 -1.461581E-07 -0.8660249
vn -0.500001 -1.461581E-07 -0.8660249
vn -0.500001 -1.461581E-07 -0.8660249
vn -0.5000016 0 -0.8660244
vn -0.5000016 0 -0.8660244
vn -0.5000016 0 -0.8660244
vn -0.5000016 0 -0.8660244
vn -0.4999982 0 0.8660264
vn -0.4999982 0 0.8660264
vn -0.4999982 0 0.8660264
vn -0.4999982 0 0.8660264
vn -0.4999982 0 0.8660264
vn -0.4999982 0 0.8660264
vn -0.4999982 0 0.8660264
vn -0.4999982 0 0.8660264
vn -0.4999982 0 0.8660264
vn -0.4999982 0 0.8660264
vn -0.4999982 0 0.8660264
vn -0.4999982 0 0.8660264
vn -0.4999982 0 0.8660264
vn -0.4999982 0 0.8660264
vn -0.4999982 0 0.8660264
vn -0.4999982 0 0.8660264
vn 1 0 0
vn 1 0 0
vn 1 0 0
vn 1 0 0
vn 1 0 0
vn 1 0 0
vn 1 0 0
vn 1 0 0
vn 1 0 0
vn 1 0 0
vn 1 0 0
vn 1 0 0
vn 1 0 0
vn 1 0 0
vn 1 0 0
vn 1 0 0
vn -1 0 -3.993985E-06
vn -1 0 -3.993985E-06
vn -1 0 -3.993985E-06
vn -1 0 -3.993985E-06
vn -1 0 -3.993985E-06
vn -1 0 -3.993985E-06
vn -1 0 -3.993985E-06
vn -1 0 -3.993985E-06
vn -1 0 -4.072292E-06
vn -1 0 -4.072292E-06
vn -1 0 -4.072292E-06
vn -1 0 -4.072292E-06
vn -1 0 -3.993985E-06
vn -1 0 -3.993985E-06
vn -1 0 -3.993985E-06
vn -1 0 -3.993985E-06
vn 0.5000001 0 0.8660254
vn 0.5000001 0 0.8660254
vn 0.5000001 0 0.8660254
vn 0.5000001 0 0.8660254
vn 0.5000001 0 0.8660253
vn 0.5000001 0 0.8660253
vn 0.5000001 0 0.8660253
vn 0.5000001 0 0.8660253
vn 0.5000001 0 0.8660253
vn 0.5000001 0 0.8660253
vn 0.5000001 0 0.8660253
vn 0.5000001 0 0.8660253
vn 0.5000001 0 0.8660253
vn 0.5000001 0 0.8660253
vn 0.5000001 0 0.8660253
vn 0.5000001 0 0.8660253
vn 0.5 0 -0.8660254
vn 0.5 0 -0.8660254
vn 0.5 0 -0.8660254
vn 0.5 0 -0.8660254
vn 0.5 0 -0.8660254
vn 0.5 0 -0.8660254
vn 0.5 0 -0.8660254
vn 0.5 0 -0.8660254
vn 0.5000001 0 -0.8660254
vn 0.5000001 0 -0.8660254
vn 0.5000001 0 -0.8660254
vn 0.5000001 0 -0.8660254
vn 0.4999999 0 -0.8660255
vn 0.4999999 0 -0.8660255
vn 0.4999999 0 -0.8660255
vn 0.4999999 0 -0.8660255
vn 0.4999986 0 0.8660262
vn 0.4999986 0 0.8660262
vn 0.4999986 0 0.8660262
vn 0.4999986 0 0.8660262
vn 0.5000001 0 -0.8660253
vn 0.5000001 0 -0.8660253
vn 0.5000001 0 -0.8660253
vn 0.5000001 0 -0.8660253
vn 1 0 0
vn 1 0 0
vn 1 0 0
vn 1 0 0
vn -0.4999968 -1.368617E-07 0.8660273
vn -0.4999968 -1.368617E-07 0.8660273
vn -0.4999968 -1.368617E-07 0.8660273
vn -0.4999968 -1.368617E-07 0.8660273
vn -0.9347497 -0.355307 -2.515614E-06
vn -0.9347497 -0.355307 -2.515614E-06
vn -0.9347497 -0.355307 -2.515614E-06
vn -0.9347497 -0.355307 -2.515614E-06
vn -0.4673732 -0.3553034 0.8095195
vn -0.4673732 -0.3553034 0.8095195
vn -0.4673732 -0.3553034 0.8095195
vn -0.4673732 -0.3553034 0.8095195
vn -0.4673772 -0.3553032 -0.8095173
vn -0.4673772 -0.3553032 -0.8095173
vn -0.4673772 -0.3553032 -0.8095173
vn -0.4673772 -0.3553032 -0.8095173
vn 0.4673716 -0.3553041 -0.8095201
vn 0.4673716 -0.3553041 -0.8095201
vn 0.4673716 -0.3553041 -0.8095201
vn 0.4673716 -0.3553041 -0.8095201
vn -0.4999999 -5.044043E-06 -0.8660255
vn -0.4999999 -5.044043E-06 -0.8660255
vn -0.4999999 -5.044043E-06 -0.8660255
vn -0.4999999 -5.044043E-06 -0.8660255
vn 1.463522E-05 -1.694797E-07 -1
vn 1.463522E-05 -1.694797E-07 -1
vn 1.463522E-05 -1.694797E-07 -1
vn 1.463522E-05 -1.694797E-07 -1
vn 0.5 5.044405E-06 0.8660254
vn 0.5 5.044405E-06 0.8660254
vn 0.5 5.044405E-06 0.8660254
vn 0.5 5.044405E-06 0.8660254
vn 0.4999999 0 0.8660254
vn 0.4999999 0 0.8660254
vn 0.4999999 0 0.8660254
vn -1.463522E-05 1.694797E-07 1
vn -1.463522E-05 1.694797E-07 1
vn -1.463522E-05 1.694797E-07 1
vn -1.463522E-05 1.694797E-07 1

vt 0.809739 0.7167138
vt 0.8076615 0.7210085
vt 0.8116352 0.7177446
vt 0.807989 0.716352
vt 0.8076615 0.7210085
vt 0.809739 0.7167138
vt 0.8043103 0.7171461
vt 0.8076615 0.7210085
vt 0.8062416 0.7164835
vt 0.8116352 0.7177446
vt 0.8076615 0.7210085
vt 0.8145003 0.7204863
vt 0.8062416 0.7164835
vt 0.8076615 0.7210085
vt 0.807989 0.716352
vt 0.8015507 0.7192126
vt 0.8076615 0.7210085
vt 0.8043103 0.7171461
vt 0.1912666 0.5523543
vt 0.1954462 0.5387776
vt 0.1995323 0.5523828
vt 0.2136887 0.5498618
vt 0.2121142 0.5498566
vt 0.2118312 0.5710809
vt 0.2136604 0.5717695
vt 0.2121142 0.5498566
vt 0.2105943 0.5498498
vt 0.2102646 0.5706817
vt 0.2118312 0.5710809
vt 0.8058763 0.7145637
vt 0.8062416 0.7164835
vt 0.807989 0.716352
vt 0.8080522 0.7143733
vt 0.803636 0.7150994
vt 0.8043103 0.7171461
vt 0.8062416 0.7164835
vt 0.8058763 0.7145637
vt 0.8084933 0.6622882
vt 0.8059989 0.662289
vt 0.8060075 0.6958488
vt 0.8085019 0.6958482
vt 0.06863409 0.6539962
vt 0.06688225 0.6539966
vt 0.06688827 0.6775659
vt 0.06864011 0.6775655
vt 0.8321102 0.664509
vt 0.8296158 0.6645096
vt 0.8296228 0.6980699
vt 0.8321176 0.6980692
vt 0.0686453 0.701135
vt 0.06689322 0.7011355
vt 0.06684488 0.724711
vt 0.06858999 0.7247188
vt 0.7985157 0.6622909
vt 0.7960213 0.6622915
vt 0.7960299 0.6958514
vt 0.7985243 0.6958507
vt 0.0616268 0.653998
vt 0.05987496 0.6539985
vt 0.05988104 0.6775677
vt 0.06163282 0.6775673
vt 0.8221326 0.6645115
vt 0.8196382 0.6645122
vt 0.8196466 0.6980719
vt 0.8221404 0.6980714
vt 0.0616383 0.7011365
vt 0.05988688 0.7011368
vt 0.05988723 0.7246962
vt 0.06162602 0.7246976
vt 0.8035045 0.6622896
vt 0.8010101 0.6622902
vt 0.8010187 0.6958501
vt 0.8035131 0.6958495
vt 0.06513041 0.6539971
vt 0.06337863 0.6539975
vt 0.06338465 0.6775668
vt 0.06513649 0.6775664
vt 0.8271214 0.6645103
vt 0.824627 0.6645109
vt 0.8246343 0.6980711
vt 0.8271284 0.6980705
vt 0.06514144 0.7011359
vt 0.06338978 0.7011362
vt 0.06336498 0.7246999
vt 0.06510437 0.7247044
vt 0.8109877 0.6622877
vt 0.8084933 0.6622882
vt 0.8085019 0.6958482
vt 0.8109963 0.6958475
vt 0.07038587 0.6539958
vt 0.06863409 0.6539962
vt 0.06864011 0.6775655
vt 0.07039195 0.6775651
vt 0.8346046 0.6645084
vt 0.8321102 0.664509
vt 0.8321176 0.6980692
vt 0.8346131 0.6980689
vt 0.07039791 0.7011347
vt 0.0686453 0.701135
vt 0.06858999 0.7247188
vt 0.07039791 0.7247248
vt 0.8010101 0.6622902
vt 0.7985157 0.6622909
vt 0.7985243 0.6958507
vt 0.8010187 0.6958501
vt 0.06337863 0.6539975
vt 0.0616268 0.653998
vt 0.06163282 0.6775673
vt 0.06338465 0.6775668
vt 0.824627 0.6645109
vt 0.8221326 0.6645115
vt 0.8221404 0.6980714
vt 0.8246343 0.6980711
vt 0.06338978 0.7011362
vt 0.0616383 0.7011365
vt 0.06162602 0.7246976
vt 0.06336498 0.7246999
vt 0.8059989 0.662289
vt 0.8035045 0.6622896
vt 0.8035131 0.6958495
vt 0.8060075 0.6958488
vt 0.06688225 0.6539966
vt 0.06513041 0.6539971
vt 0.06513649 0.6775664
vt 0.06688827 0.6775659
vt 0.8296158 0.6645096
vt 0.8271214 0.6645103
vt 0.8271284 0.6980705
vt 0.8296228 0.6980699
vt 0.06689322 0.7011355
vt 0.06514144 0.7011359
vt 0.06510437 0.7247044
vt 0.06684488 0.724711
vt 0.2075637 0.5498401
vt 0.2060493 0.5498381
vt 0.2061692 0.5710082
vt 0.2075395 0.5706806
vt 0.2105943 0.5498498
vt 0.2090786 0.549844
vt 0.2088704 0.5705642
vt 0.2102646 0.5706817
vt 0.2090786 0.549844
vt 0.2075637 0.5498401
vt 0.2075395 0.5706806
vt 0.2088704 0.5705642
vt 0.2060493 0.5498381
vt 0.2045349 0.5498368
vt 0.2045144 0.5713521
vt 0.2061692 0.5710082
vt 0.812893 0.7152181
vt 0.8116352 0.7177446
vt 0.8145003 0.7204863
vt 0.8158838 0.7163441
vt 0.8009304 0.7156616
vt 0.8015507 0.7192126
vt 0.8043103 0.7171461
vt 0.803636 0.7150994
vt 0.8103318 0.7145656
vt 0.809739 0.7167138
vt 0.8116352 0.7177446
vt 0.812893 0.7152181
vt 0.8080522 0.7143733
vt 0.807989 0.716352
vt 0.809739 0.7167138
vt 0.8103318 0.7145656
vt 0.1830168 0.5796143
vt 0.1872739 0.5659532
vt 0.2034314 0.5660087
vt 0.2075562 0.5796143
vt 0.1872739 0.5659532
vt 0.1912666 0.5523543
vt 0.1995323 0.5523828
vt 0.2034314 0.5660087
vt 0.1830168 0.5796143
vt 0.2034314 0.5660087
vt 0.1872739 0.5659532
vt 0.2075562 0.5796143
vt 0.1912666 0.5523543
vt 0.1995323 0.5523828
vt 0.1954462 0.5387776
vt 0.1872739 0.5659532
vt 0.2034314 0.5660087
vt 0.1995323 0.5523828
vt 0.1912666 0.5523543

usemtl LOW-POLY-COLORS
usemap LOW-POLY-COLORS
f 2/2/2 1/1/1 3/3/3
f 5/5/5 4/4/4 6/6/6
f 8/8/8 7/7/7 9/9/9
f 11/11/11 10/10/10 12/12/12
f 14/14/14 13/13/13 15/15/15
f 17/17/17 16/16/16 18/18/18
f 20/20/20 19/19/19 21/21/21
f 23/23/23 22/22/22 24/24/24
f 24/24/24 22/22/22 25/25/25
f 27/27/27 26/26/26 28/28/28
f 28/28/28 26/26/26 29/29/29
f 31/31/31 30/30/30 32/32/32
f 32/32/32 30/30/30 33/33/33
f 35/35/35 34/34/34 36/36/36
f 36/36/36 34/34/34 37/37/37
f 39/39/39 38/38/38 40/40/40
f 40/40/40 38/38/38 41/41/41
f 43/43/43 42/42/42 44/44/44
f 44/44/44 42/42/42 45/45/45
f 47/47/47 46/46/46 48/48/48
f 48/48/48 46/46/46 49/49/49
f 51/51/51 50/50/50 52/52/52
f 52/52/52 50/50/50 53/53/53
f 55/55/55 54/54/54 56/56/56
f 56/56/56 54/54/54 57/57/57
f 59/59/59 58/58/58 60/60/60
f 60/60/60 58/58/58 61/61/61
f 63/63/63 62/62/62 64/64/64
f 64/64/64 62/62/62 65/65/65
f 67/67/67 66/66/66 68/68/68
f 68/68/68 66/66/66 69/69/69
f 71/71/71 70/70/70 72/72/72
f 72/72/72 70/70/70 73/73/73
f 75/75/75 74/74/74 76/76/76
f 76/76/76 74/74/74 77/77/77
f 79/79/79 78/78/78 80/80/80
f 80/80/80 78/78/78 81/81/81
f 83/83/83 82/82/82 84/84/84
f 84/84/84 82/82/82 85/85/85
f 87/87/87 86/86/86 88/88/88
f 88/88/88 86/86/86 89/89/89
f 91/91/91 90/90/90 92/92/92
f 92/92/92 90/90/90 93/93/93
f 95/95/95 94/94/94 96/96/96
f 96/96/96 94/94/94 97/97/97
f 99/99/99 98/98/98 100/100/100
f 100/100/100 98/98/98 101/101/101
f 103/103/103 102/102/102 104/104/104
f 104/104/104 102/102/102 105/105/105
f 107/107/107 106/106/106 108/108/108
f 108/108/108 106/106/106 109/109/109
f 111/111/111 110/110/110 112/112/112
f 112/112/112 110/110/110 113/113/113
f 115/115/115 114/114/114 116/116/116
f 116/116/116 114/114/114 117/117/117
f 119/119/119 118/118/118 120/120/120
f 120/120/120 118/118/118 121/121/121
f 123/123/123 122/122/122 124/124/124
f 124/124/124 122/122/122 125/125/125
f 127/127/127 126/126/126 128/128/128
f 128/128/128 126/126/126 129/129/129
f 131/131/131 130/130/130 132/132/132
f 132/132/132 130/130/130 133/133/133
f 135/135/135 134/134/134 136/136/136
f 136/136/136 134/134/134 137/137/137
f 139/139/139 138/138/138 140/140/140
f 140/140/140 138/138/138 141/141/141
f 143/143/143 142/142/142 144/144/144
f 144/144/144 142/142/142 145/145/145
f 147/147/147 146/146/146 148/148/148
f 148/148/148 146/146/146 149/149/149
f 151/151/151 150/150/150 152/152/152
f 152/152/152 150/150/150 153/153/153
f 155/155/155 154/154/154 156/156/156
f 156/156/156 154/154/154 157/157/157
f 159/159/159 158/158/158 160/160/160
f 160/160/160 158/158/158 161/161/161
f 163/163/163 162/162/162 164/164/164
f 164/164/164 162/162/162 165/165/165
f 167/167/167 166/166/166 168/168/168
f 168/168/168 166/166/166 169/169/169
f 171/171/171 170/170/170 172/172/172
f 172/172/172 170/170/170 173/173/173
f 175/175/175 174/174/174 176/176/176
f 175/175/175 174/174/174 176/176/176
f 175/175/175 174/174/174 176/176/176
f 177/177/177 174/174/174 175/175/175
f 177/177/177 174/174/174 175/175/175
f 177/177/177 174/174/174 175/175/175
f 179/179/179 178/178/178 180/180/180
f 179/179/179 178/178/178 180/180/180
f 179/179/179 178/178/178 180/180/180
f 182/182/182 181/181/181 183/183/183
f 182/182/182 181/181/181 183/183/183
f 182/182/182 181/181/181 183/183/183
f 183/183/183 181/181/181 184/184/184
f 183/183/183 181/181/181 184/184/184
f 183/183/183 181/181/181 184/184/184
