mtllib ./pc-keyboard_1.mtl
g pc-keyboard
v -0.2550285 0.01771886 0.08188195
v -0.2552503 0.02143508 -0.08967724
v -0.2473477 0.03231452 -0.08061387
v -0.2473477 0.02137792 0.06525652
v 0.08122445 0.02072682 -0.0916504
v 0.2552503 0.02143508 -0.08967724
v 0.2473477 0.03231452 -0.08061387
v 0.07994888 0.03231452 -0.08061387
v -0.08122446 0.02072682 -0.0916504
v -0.07994888 0.03231452 -0.08061387
v -0.2552503 0.02143508 -0.08967724
v -0.2473477 0.03231452 -0.08061387
v 0.2552503 0.02143508 -0.08967724
v 0.2550285 0.01771886 0.08188195
v 0.2473477 0.02137792 0.06525652
v 0.2473477 0.03231452 -0.08061387
v -0.08131912 0.01852231 0.09357849
v -0.2550285 0.01771886 0.08188195
v -0.2473477 0.02137792 0.06525652
v -0.07994888 0.02137792 0.07578675
v 0.08131913 0.01852231 0.09357849
v 0.07994888 0.02137792 0.07578675
v 0.2550285 0.01771886 0.08188195
v 0.2473477 0.02137792 0.06525652
v 0.08250002 -4.830612E-05 -0.0916504
v 0.2552405 -4.830612E-05 0.09469859
v 0.2552405 -4.830612E-05 -0.09094825
v 0.08250003 -4.830612E-05 0.1052288
v -0.08250003 -4.830612E-05 -0.0916504
v -0.08250002 -4.830612E-05 0.1052288
v -0.2552405 -4.830612E-05 -0.09094825
v -0.2552405 -4.830612E-05 0.09469859
v -0.07994888 0.03231452 -0.08061387
v -0.2473477 0.02137792 0.06525652
v -0.2473477 0.03231452 -0.08061387
v -0.07994888 0.02137792 0.07578675
v 0.07994888 0.03231452 -0.08061387
v 0.07994888 0.02137792 0.07578675
v 0.2473477 0.03231452 -0.08061387
v 0.2473477 0.02137792 0.06525652
v 0.07315053 0.02986306 0.0590313
v -0.2332795 0.02986306 0.0590313
v -0.2332795 0.03800654 -0.05742591
v 0.07315053 0.03800654 -0.05742591
v -0.2361372 0.03008295 -0.06020509
v -0.2332795 0.03800654 -0.05742591
v -0.2332795 0.02986306 0.0590313
v -0.2361372 0.0216298 0.06068067
v 0.07600822 0.03008295 -0.06020509
v 0.07315053 0.03800654 -0.05742591
v -0.2332795 0.03800654 -0.05742591
v -0.2361372 0.03008295 -0.06020509
v 0.07600822 0.0216298 0.06068067
v 0.07315053 0.02986306 0.0590313
v 0.07315053 0.03800654 -0.05742591
v 0.07600822 0.03008295 -0.06020509
v -0.2361372 0.0216298 0.06068067
v -0.2332795 0.02986306 0.0590313
v 0.07315053 0.02986306 0.0590313
v 0.07600822 0.0216298 0.06068067
v 0.1431429 0.03417465 -0.00262737
v 0.08743209 0.03417465 -0.00262737
v 0.08743209 0.03800654 -0.05742591
v 0.1431429 0.03800654 -0.05742591
v 0.08457439 0.03008295 -0.06020509
v 0.08743209 0.03800654 -0.05742591
v 0.08743209 0.03417465 -0.00262737
v 0.08457439 0.02594139 -0.0009779892
v 0.1460006 0.03008295 -0.06020509
v 0.1431429 0.03800654 -0.05742591
v 0.08743209 0.03800654 -0.05742591
v 0.08457439 0.03008295 -0.06020509
v 0.1460006 0.02594139 -0.0009779892
v 0.1431429 0.03417465 -0.00262737
v 0.1431429 0.03800654 -0.05742591
v 0.1460006 0.03008295 -0.06020509
v 0.08457439 0.02594139 -0.0009779892
v 0.08743209 0.03417465 -0.00262737
v 0.1431429 0.03417465 -0.00262737
v 0.1460006 0.02594139 -0.0009779892
v 0.2332451 0.02986306 0.0590313
v 0.156641 0.02986306 0.0590313
v 0.156641 0.03800654 -0.05742591
v 0.2332451 0.03800654 -0.05742591
v 0.1537833 0.03008295 -0.06020509
v 0.156641 0.03800654 -0.05742591
v 0.156641 0.02986306 0.0590313
v 0.1537833 0.0216298 0.06068067
v 0.2361027 0.03008295 -0.06020509
v 0.2332451 0.03800654 -0.05742591
v 0.156641 0.03800654 -0.05742591
v 0.1537833 0.03008295 -0.06020509
v 0.2361027 0.0216298 0.06068067
v 0.2332451 0.02986306 0.0590313
v 0.2332451 0.03800654 -0.05742591
v 0.2361027 0.03008295 -0.06020509
v 0.1537833 0.0216298 0.06068067
v 0.156641 0.02986306 0.0590313
v 0.2332451 0.02986306 0.0590313
v 0.2361027 0.0216298 0.06068067
v 0.08457439 0.02323539 0.03771962
v 0.08743209 0.03112316 0.04101111
v 0.08743209 0.02986306 0.0590313
v 0.08457439 0.0216298 0.06068067
v 0.1250489 0.0216298 0.06068067
v 0.1250489 0.02986306 0.0590313
v 0.1431429 0.02986306 0.0590313
v 0.1460006 0.0216298 0.06068067
v 0.1460006 0.0216298 0.06068067
v 0.1431429 0.02986306 0.0590313
v 0.1431429 0.03112316 0.04101111
v 0.1460006 0.02323539 0.03771962
v 0.1055261 0.02986306 0.0590313
v 0.08743209 0.02986306 0.0590313
v 0.08743209 0.03112316 0.04101111
v 0.1055261 0.03112316 0.04101111
v 0.1431429 0.02986306 0.0590313
v 0.1250489 0.02986306 0.0590313
v 0.1250489 0.03112316 0.04101111
v 0.1431429 0.03112316 0.04101111
v 0.1250489 0.02986306 0.0590313
v 0.1055261 0.02986306 0.0590313
v 0.1055261 0.03112316 0.04101111
v 0.1250489 0.03112316 0.04101111
v 0.08457439 0.0216298 0.06068067
v 0.08743209 0.02986306 0.0590313
v 0.1055261 0.02986306 0.0590313
v 0.1055261 0.0216298 0.06068067
v 0.1055261 0.0216298 0.06068067
v 0.1055261 0.02986306 0.0590313
v 0.1250489 0.02986306 0.0590313
v 0.1250489 0.0216298 0.06068067
v 0.1284582 0.02445966 0.02021174
v 0.1250489 0.03238325 0.02299092
v 0.1055261 0.03238325 0.02299092
v 0.1021168 0.02445966 0.02021174
v 0.1250489 0.03112316 0.04101111
v 0.1055261 0.03112316 0.04101111
v 0.1055261 0.03238325 0.02299092
v 0.1250489 0.03238325 0.02299092
v 0.1431429 0.03112316 0.04101111
v 0.1250489 0.03112316 0.04101111
v 0.1284582 0.02323539 0.03771962
v 0.1460006 0.02323539 0.03771962
v 0.1250489 0.03238325 0.02299092
v 0.1284582 0.02445966 0.02021174
v 0.1284582 0.02323539 0.03771962
v 0.1250489 0.03112316 0.04101111
v 0.1055261 0.03238325 0.02299092
v 0.1055261 0.03112316 0.04101111
v 0.1021168 0.02323539 0.03771962
v 0.1021168 0.02445966 0.02021174
v 0.08743209 0.03112316 0.04101111
v 0.08457439 0.02323539 0.03771962
v 0.1021168 0.02323539 0.03771962
v 0.1055261 0.03112316 0.04101111
v -0.2552405 -4.830612E-05 -0.09094825
v -0.08122446 0.02072682 -0.0916504
v -0.2552503 0.02143508 -0.08967724
v -0.08250003 -4.830612E-05 -0.0916504
v 0.08122445 0.02072682 -0.0916504
v 0.08250002 -4.830612E-05 -0.0916504
v 0.2552503 0.02143508 -0.08967724
v 0.2552405 -4.830612E-05 -0.09094825
v 0.08250003 -4.830612E-05 0.1052288
v -0.08250002 -4.830612E-05 0.1052288
v -0.08131912 0.01852231 0.09357849
v 0.08131913 0.01852231 0.09357849
v 0.2552405 -4.830612E-05 0.09469859
v 0.08250003 -4.830612E-05 0.1052288
v 0.08131913 0.01852231 0.09357849
v 0.2550285 0.01771886 0.08188195
v -0.08250002 -4.830612E-05 0.1052288
v -0.2552405 -4.830612E-05 0.09469859
v -0.2550285 0.01771886 0.08188195
v -0.08131912 0.01852231 0.09357849
v 0.2552405 -4.830612E-05 -0.09094825
v 0.2552405 -4.830612E-05 0.09469859
v 0.2550285 0.01771886 0.08188195
v 0.2552503 0.02143508 -0.08967724
v -0.2552405 -4.830612E-05 0.09469859
v -0.2552405 -4.830612E-05 -0.09094825
v -0.2552503 0.02143508 -0.08967724
v -0.2550285 0.01771886 0.08188195

vn -0.672737 0.7390729 0.0345863
vn -0.672737 0.7390729 0.0345863
vn -0.672737 0.7390729 0.0345863
vn -0.672737 0.7390729 0.0345863
vn 0.002919154 0.6674126 -0.7446823
vn 0.002919154 0.6674126 -0.7446823
vn 0.002919154 0.6674126 -0.7446823
vn 0.002919154 0.6674126 -0.7446823
vn -0.00291915 0.6674125 -0.7446826
vn -0.00291915 0.6674125 -0.7446826
vn -0.00291915 0.6674125 -0.7446826
vn -0.00291915 0.6674125 -0.7446826
vn 0.672737 0.7390729 0.03458634
vn 0.672737 0.7390729 0.03458634
vn 0.672737 0.7390729 0.03458634
vn 0.672737 0.7390729 0.03458634
vn -0.01419824 0.9831297 0.1823584
vn -0.01419824 0.9831297 0.1823584
vn -0.01419824 0.9831297 0.1823584
vn -0.01419824 0.9831297 0.1823584
vn 0.01419823 0.9831297 0.1823583
vn 0.01419823 0.9831297 0.1823583
vn 0.01419823 0.9831297 0.1823583
vn 0.01419823 0.9831297 0.1823583
vn 0 -1 0
vn 0 -1 0
vn 0 -1 0
vn 0 -1 0
vn 0 -1 0
vn 0 -1 0
vn 0 -1 0
vn 0 -1 0
vn -0.002270055 0.9973895 0.07217397
vn -0.002270055 0.9973895 0.07217397
vn -0.002270055 0.9973895 0.07217397
vn -0.002270055 0.9973895 0.07217397
vn 0.002270055 0.9973895 0.07217397
vn 0.002270055 0.9973895 0.07217397
vn 0.002270055 0.9973895 0.07217397
vn 0.002270055 0.9973895 0.07217397
vn 0 0.9975641 0.06975646
vn 0 0.9975641 0.06975646
vn 0 0.9975641 0.06975646
vn 0 0.9975641 0.06975646
vn -0.9430081 0.3319592 0.02321278
vn -0.9430081 0.3319592 0.02321278
vn -0.9430081 0.3319592 0.02321278
vn -0.9430081 0.3319592 0.02321278
vn 0 0.3309795 -0.9436379
vn 0 0.3309795 -0.9436379
vn 0 0.3309795 -0.9436379
vn 0 0.3309795 -0.9436379
vn 0.9430081 0.3319592 0.02321284
vn 0.9430081 0.3319592 0.02321284
vn 0.9430081 0.3319592 0.02321284
vn 0.9430081 0.3319592 0.02321284
vn 0 0.1964274 0.9805183
vn 0 0.1964274 0.9805183
vn 0 0.1964274 0.9805183
vn 0 0.1964274 0.9805183
vn 0 0.9975641 0.06975645
vn 0 0.9975641 0.06975645
vn 0 0.9975641 0.06975645
vn 0 0.9975641 0.06975645
vn -0.9430078 0.3319599 0.02321292
vn -0.9430078 0.3319599 0.02321292
vn -0.9430078 0.3319599 0.02321292
vn -0.9430078 0.3319599 0.02321292
vn 0 0.3309789 -0.9436381
vn 0 0.3309789 -0.9436381
vn 0 0.3309789 -0.9436381
vn 0 0.3309789 -0.9436381
vn 0.9430081 0.3319592 0.02321298
vn 0.9430081 0.3319592 0.02321298
vn 0.9430081 0.3319592 0.02321298
vn 0.9430081 0.3319592 0.02321298
vn 0 0.1964286 0.9805181
vn 0 0.1964286 0.9805181
vn 0 0.1964286 0.9805181
vn 0 0.1964286 0.9805181
vn 0 0.9975641 0.06975646
vn 0 0.9975641 0.06975646
vn 0 0.9975641 0.06975646
vn 0 0.9975641 0.06975646
vn -0.9430076 0.3319607 0.02321288
vn -0.9430076 0.3319607 0.02321288
vn -0.9430076 0.3319607 0.02321288
vn -0.9430076 0.3319607 0.02321288
vn 0 0.330979 -0.9436381
vn 0 0.330979 -0.9436381
vn 0 0.330979 -0.9436381
vn 0 0.330979 -0.9436381
vn 0.9430081 0.3319592 0.02321278
vn 0.9430081 0.3319592 0.02321278
vn 0.9430081 0.3319592 0.02321278
vn 0.9430081 0.3319592 0.02321278
vn 0 0.1964286 0.9805181
vn 0 0.1964286 0.9805181
vn 0 0.1964286 0.9805181
vn 0 0.1964286 0.9805181
vn -0.9430078 0.3319599 0.02321284
vn -0.9430078 0.3319599 0.02321284
vn -0.9430078 0.3319599 0.02321284
vn -0.9430078 0.3319599 0.02321284
vn 0 0.1964273 0.9805183
vn 0 0.1964273 0.9805183
vn 0 0.1964273 0.9805183
vn 0 0.1964273 0.9805183
vn 0.9430081 0.3319592 0.02321268
vn 0.9430081 0.3319592 0.02321268
vn 0.9430081 0.3319592 0.02321268
vn 0.9430081 0.3319592 0.02321268
vn 0 0.9975641 0.0697566
vn 0 0.9975641 0.0697566
vn 0 0.9975641 0.0697566
vn 0 0.9975641 0.0697566
vn 0 0.9975641 0.06975657
vn 0 0.9975641 0.06975657
vn 0 0.9975641 0.06975657
vn 0 0.9975641 0.06975657
vn 0 0.9975641 0.06975657
vn 0 0.9975641 0.06975657
vn 0 0.9975641 0.06975657
vn 0 0.9975641 0.06975657
vn 0 0.1964287 0.9805181
vn 0 0.1964287 0.9805181
vn 0 0.1964287 0.9805181
vn 0 0.1964287 0.9805181
vn 0 0.1964277 0.9805183
vn 0 0.1964277 0.9805183
vn 0 0.1964277 0.9805183
vn 0 0.1964277 0.9805183
vn 0 0.3309787 -0.9436383
vn 0 0.3309787 -0.9436383
vn 0 0.3309787 -0.9436383
vn 0 0.3309787 -0.9436383
vn 0 0.9975641 0.06975625
vn 0 0.9975641 0.06975625
vn 0 0.9975641 0.06975625
vn 0 0.9975641 0.06975625
vn 0 0.3851063 -0.9228722
vn 0 0.3851063 -0.9228722
vn 0 0.3851063 -0.9228722
vn 0 0.3851063 -0.9228722
vn 0.9216544 0.3870666 0.02706592
vn 0.9216544 0.3870666 0.02706592
vn 0.9216544 0.3870666 0.02706592
vn 0.9216544 0.3870666 0.02706592
vn -0.9216544 0.3870666 0.02706601
vn -0.9216544 0.3870666 0.02706601
vn -0.9216544 0.3870666 0.02706601
vn -0.9216544 0.3870666 0.02706601
vn 0 0.3851061 -0.9228722
vn 0 0.3851061 -0.9228722
vn 0 0.3851061 -0.9228722
vn 0 0.3851061 -0.9228722
vn -0.007649386 0.03029142 -0.9995118
vn 0 0 -1
vn -0.007649386 0.03029142 -0.9995118
vn 0 0 -1
vn 0 0 -1
vn 0 0 -1
vn 0.007649384 0.03029138 -0.9995118
vn 0.007649384 0.03029138 -0.9995118
vn 0 0.5314305 0.8471018
vn 0 0.5314305 0.8471018
vn 0 0.5314305 0.8471018
vn 0 0.5314305 0.8471018
vn 0.05437278 0.5591223 0.8273004
vn 0.05437278 0.5591223 0.8273004
vn 0.05437278 0.5591223 0.8273004
vn 0.05437278 0.5591223 0.8273004
vn -0.05437276 0.5591225 0.8273002
vn -0.05437276 0.5591225 0.8273002
vn -0.05437276 0.5591225 0.8273002
vn -0.05437276 0.5591225 0.8273002
vn 0.9999855 0.005353012 0.0006768126
vn 0.9999855 0.005353012 0.0006768126
vn 0.9999855 0.005353012 0.0006768126
vn 0.9999855 0.005353012 0.0006768126
vn -0.9999855 0.005353012 0.0006768126
vn -0.9999855 0.005353012 0.0006768126
vn -0.9999855 0.005353012 0.0006768126
vn -0.9999855 0.005353012 0.0006768126

vt 0.01402336 0.6366641
vt 0.01018142 0.6677009
vt 0.01314059 0.6671365
vt 0.01525794 0.6397637
vt 0.0783868 0.6707397
vt 0.1122327 0.6702194
vt 0.111401 0.6672931
vt 0.07811338 0.6678186
vt 0.04618094 0.6706877
vt 0.04646409 0.6677681
vt 0.01229908 0.670064
vt 0.01314059 0.6671365
vt 0.1143532 0.6678658
vt 0.1106166 0.6368695
vt 0.1093741 0.6399587
vt 0.111401 0.6672931
vt 0.04626843 0.6333972
vt 0.01402336 0.6366641
vt 0.01525794 0.6397637
vt 0.04659182 0.6367505
vt 0.07844611 0.633482
vt 0.07810539 0.6368225
vt 0.1106166 0.6368695
vt 0.1093741 0.6399587
vt 0.07866019 0.6736609
vt 0.1134411 0.7103926
vt 0.1130645 0.6731458
vt 0.07879485 0.7127698
vt 0.0458978 0.6736073
vt 0.04567557 0.7127697
vt 0.01145756 0.6729913
vt 0.01097877 0.710299
vt 0.04646409 0.6677681
vt 0.01525794 0.6397637
vt 0.01314059 0.6671365
vt 0.04659182 0.6367505
vt 0.07811338 0.6678186
vt 0.07810539 0.6368225
vt 0.111401 0.6672931
vt 0.1093741 0.6399587
vt 0.06735374 0.7150118
vt 0.01009282 0.7148306
vt 0.009120289 0.7385667
vt 0.06638122 0.738748
vt 0.007222269 0.7404354
vt 0.009120289 0.7385667
vt 0.01009282 0.7148306
vt 0.008075193 0.7131431
vt 0.06839885 0.7404354
vt 0.06638122 0.738748
vt 0.009120289 0.7385667
vt 0.007222269 0.7404354
vt 0.06925178 0.7131431
vt 0.06735374 0.7150118
vt 0.06638122 0.738748
vt 0.06839885 0.7404354
vt 0.008075193 0.7131431
vt 0.01009282 0.7148306
vt 0.06735374 0.7150118
vt 0.06925178 0.7131431
vt 0.1094902 0.7151042
vt 0.09921769 0.7148749
vt 0.09844998 0.725031
vt 0.1087225 0.7252602
vt 0.09658602 0.726992
vt 0.09844998 0.725031
vt 0.09921769 0.7148749
vt 0.09726717 0.7131431
vt 0.110673 0.726992
vt 0.1087225 0.7252602
vt 0.09844998 0.725031
vt 0.09658602 0.726992
vt 0.1113541 0.7131431
vt 0.1094902 0.7151042
vt 0.1087225 0.7252602
vt 0.110673 0.726992
vt 0.09726717 0.7131431
vt 0.09921769 0.7148749
vt 0.1094902 0.7151042
vt 0.1113541 0.7131431
vt 0.07171085 0.714892
vt 0.07224134 0.7298191
vt 0.09412692 0.7300473
vt 0.09359646 0.7151203
vt 0.09621268 0.7317963
vt 0.09412692 0.7300473
vt 0.07224134 0.7298191
vt 0.07057202 0.7317963
vt 0.09526576 0.7131431
vt 0.09359646 0.7151203
vt 0.09412692 0.7300473
vt 0.09621268 0.7317963
vt 0.0696251 0.7131431
vt 0.07171085 0.714892
vt 0.09359646 0.7151203
vt 0.09526576 0.7131431
vt 0.07057202 0.7317963
vt 0.07224134 0.7298191
vt 0.07171085 0.714892
vt 0.0696251 0.7131431
vt 0.09875387 0.7399377
vt 0.09947034 0.7383732
vt 0.09836053 0.7360803
vt 0.09658602 0.7361003
vt 0.1025195 0.7296804
vt 0.1036811 0.7312674
vt 0.1062853 0.7292398
vt 0.1066923 0.7273653
vt 0.1066923 0.7273653
vt 0.1062853 0.7292398
vt 0.1083001 0.7309939
vt 0.1099484 0.7305882
vt 0.1005016 0.733968
vt 0.09836053 0.7360803
vt 0.09947034 0.7383732
vt 0.1030033 0.7370827
vt 0.1062853 0.7292398
vt 0.1036811 0.7312674
vt 0.106686 0.7340979
vt 0.1083001 0.7309939
vt 0.1036811 0.7312674
vt 0.1005016 0.733968
vt 0.1030033 0.7370827
vt 0.106686 0.7340979
vt 0.09658602 0.7361003
vt 0.09836053 0.7360803
vt 0.1005016 0.733968
vt 0.09920208 0.732661
vt 0.09920208 0.732661
vt 0.1005016 0.733968
vt 0.1036811 0.7312674
vt 0.1025195 0.7296804
vt 0.1099484 0.7374216
vt 0.1082889 0.7371666
vt 0.1061798 0.7391621
vt 0.1065433 0.7410498
vt 0.106686 0.7340979
vt 0.1030033 0.7370827
vt 0.1061798 0.7391621
vt 0.1082889 0.7371666
vt 0.1083001 0.7309939
vt 0.106686 0.7340979
vt 0.1088465 0.7340155
vt 0.1099484 0.7305882
vt 0.1082889 0.7371666
vt 0.1099484 0.7374216
vt 0.1088465 0.7340155
vt 0.106686 0.7340979
vt 0.1061798 0.7391621
vt 0.1030033 0.7370827
vt 0.102619 0.7394704
vt 0.1065433 0.7410498
vt 0.09947034 0.7383732
vt 0.09875387 0.7399377
vt 0.102619 0.7394704
vt 0.1030033 0.7370827
vt 0.01145756 0.6729913
vt 0.04618094 0.6706877
vt 0.01229908 0.670064
vt 0.0458978 0.6736073
vt 0.0783868 0.6707397
vt 0.07866019 0.6736609
vt 0.1122327 0.6702194
vt 0.1130645 0.6731458
vt 0.07878684 0.6301414
vt 0.04594506 0.6300439
vt 0.04626843 0.6333972
vt 0.07844611 0.633482
vt 0.1118591 0.6337804
vt 0.07878684 0.6301414
vt 0.07844611 0.633482
vt 0.1106166 0.6368695
vt 0.04594506 0.6300439
vt 0.01278877 0.6335646
vt 0.01402336 0.6366641
vt 0.04626843 0.6333972
vt 0.1173054 0.6684387
vt 0.1118591 0.6337804
vt 0.1106166 0.6368695
vt 0.1143532 0.6678658
vt 0.01278877 0.6335646
vt 0.007222269 0.6682653
vt 0.01018142 0.6677009
vt 0.01402336 0.6366641

usemtl LOW-POLY-COLORS
usemap LOW-POLY-COLORS
f 2/2/2 1/1/1 3/3/3
f 3/3/3 1/1/1 4/4/4
f 6/6/6 5/5/5 7/7/7
f 7/7/7 5/5/5 8/8/8
f 5/5/5 9/9/9 8/8/8
f 8/8/8 9/9/9 10/10/10
f 9/9/9 11/11/11 10/10/10
f 10/10/10 11/11/11 12/12/12
f 14/14/14 13/13/13 15/15/15
f 15/15/15 13/13/13 16/16/16
f 18/18/18 17/17/17 19/19/19
f 19/19/19 17/17/17 20/20/20
f 17/17/17 21/21/21 20/20/20
f 20/20/20 21/21/21 22/22/22
f 21/21/21 23/23/23 22/22/22
f 22/22/22 23/23/23 24/24/24
f 26/26/26 25/25/25 27/27/27
f 28/28/28 25/25/25 26/26/26
f 28/28/28 29/29/29 25/25/25
f 30/30/30 29/29/29 28/28/28
f 30/30/30 31/31/31 29/29/29
f 32/32/32 31/31/31 30/30/30
f 34/34/34 33/33/33 35/35/35
f 36/36/36 33/33/33 34/34/34
f 36/36/36 37/37/37 33/33/33
f 38/38/38 37/37/37 36/36/36
f 38/38/38 39/39/39 37/37/37
f 40/40/40 39/39/39 38/38/38
f 42/42/42 41/41/41 43/43/43
f 43/43/43 41/41/41 44/44/44
f 46/46/46 45/45/45 47/47/47
f 47/47/47 45/45/45 48/48/48
f 50/50/50 49/49/49 51/51/51
f 51/51/51 49/49/49 52/52/52
f 54/54/54 53/53/53 55/55/55
f 55/55/55 53/53/53 56/56/56
f 58/58/58 57/57/57 59/59/59
f 59/59/59 57/57/57 60/60/60
f 62/62/62 61/61/61 63/63/63
f 63/63/63 61/61/61 64/64/64
f 66/66/66 65/65/65 67/67/67
f 67/67/67 65/65/65 68/68/68
f 70/70/70 69/69/69 71/71/71
f 71/71/71 69/69/69 72/72/72
f 74/74/74 73/73/73 75/75/75
f 75/75/75 73/73/73 76/76/76
f 78/78/78 77/77/77 79/79/79
f 79/79/79 77/77/77 80/80/80
f 82/82/82 81/81/81 83/83/83
f 83/83/83 81/81/81 84/84/84
f 86/86/86 85/85/85 87/87/87
f 87/87/87 85/85/85 88/88/88
f 90/90/90 89/89/89 91/91/91
f 91/91/91 89/89/89 92/92/92
f 94/94/94 93/93/93 95/95/95
f 95/95/95 93/93/93 96/96/96
f 98/98/98 97/97/97 99/99/99
f 99/99/99 97/97/97 100/100/100
f 102/102/102 101/101/101 103/103/103
f 103/103/103 101/101/101 104/104/104
f 106/106/106 105/105/105 107/107/107
f 107/107/107 105/105/105 108/108/108
f 110/110/110 109/109/109 111/111/111
f 111/111/111 109/109/109 112/112/112
f 114/114/114 113/113/113 115/115/115
f 115/115/115 113/113/113 116/116/116
f 118/118/118 117/117/117 119/119/119
f 119/119/119 117/117/117 120/120/120
f 122/122/122 121/121/121 123/123/123
f 123/123/123 121/121/121 124/124/124
f 126/126/126 125/125/125 127/127/127
f 127/127/127 125/125/125 128/128/128
f 130/130/130 129/129/129 131/131/131
f 131/131/131 129/129/129 132/132/132
f 134/134/134 133/133/133 135/135/135
f 135/135/135 133/133/133 136/136/136
f 138/138/138 137/137/137 139/139/139
f 139/139/139 137/137/137 140/140/140
f 142/142/142 141/141/141 143/143/143
f 143/143/143 141/141/141 144/144/144
f 146/146/146 145/145/145 147/147/147
f 147/147/147 145/145/145 148/148/148
f 150/150/150 149/149/149 151/151/151
f 151/151/151 149/149/149 152/152/152
f 154/154/154 153/153/153 155/155/155
f 155/155/155 153/153/153 156/156/156
f 158/158/158 157/157/157 159/159/159
f 160/160/160 157/157/157 158/158/158
f 161/161/161 160/160/160 158/158/158
f 162/162/162 160/160/160 161/161/161
f 163/163/163 162/162/162 161/161/161
f 164/164/164 162/162/162 163/163/163
f 166/166/166 165/165/165 167/167/167
f 167/167/167 165/165/165 168/168/168
f 170/170/170 169/169/169 171/171/171
f 171/171/171 169/169/169 172/172/172
f 174/174/174 173/173/173 175/175/175
f 175/175/175 173/173/173 176/176/176
f 178/178/178 177/177/177 179/179/179
f 179/179/179 177/177/177 180/180/180
f 182/182/182 181/181/181 183/183/183
f 183/183/183 181/181/181 184/184/184
