mtllib ./pc-monitor_0.mtl
g pc-monitor
v 0.07347316 0 0.1011271
v 7.202557E-09 0 0.125
v 5.923085E-09 0.02841171 0.1140853
v 0.06705768 0.02841171 0.09229698
v -0.07347315 0 0.1011271
v -0.1188821 0 0.03862713
v -0.1085016 0.02841171 0.03525431
v -0.06705768 0.02841171 0.09229699
v 0.07347312 0 -0.1011272
v 0.1188821 0 -0.03862714
v 0.1085016 0.02841171 -0.03525432
v 0.06705764 0.02841171 -0.092297
v -0.07347316 0 -0.1011271
v -3.72529E-09 0 -0.125
v -4.050573E-09 0.02841171 -0.1140853
v -0.06705769 0.02841171 -0.09229698
v 7.202557E-09 0 0.125
v -0.07347315 0 0.1011271
v -0.06705768 0.02841171 0.09229699
v 5.923085E-09 0.02841171 0.1140853
v 0.1188821 0 -0.03862714
v 0.1188821 0 0.03862714
v 0.1085016 0.02841171 0.03525432
v 0.1085016 0.02841171 -0.03525432
v -3.72529E-09 0 -0.125
v 0.07347312 0 -0.1011272
v 0.06705764 0.02841171 -0.092297
v -4.050573E-09 0.02841171 -0.1140853
v -0.1188821 0 0.03862713
v -0.1188821 0 -0.03862712
v -0.1085016 0.02841171 -0.03525431
v -0.1085016 0.02841171 0.03525431
v 0.1188821 0 0.03862714
v 0.07347316 0 0.1011271
v 0.06705768 0.02841171 0.09229698
v 0.1085016 0.02841171 0.03525432
v -0.1188821 0 -0.03862712
v -0.07347316 0 -0.1011271
v -0.06705769 0.02841171 -0.09229698
v -0.1085016 0.02841171 -0.03525431
v 0.07347312 0 -0.1011272
v -3.72529E-09 0 -0.125
v -0.07347316 0 -0.1011271
v 0.1188821 0 -0.03862714
v -0.1188821 0 -0.03862712
v 0.1188821 0 0.03862714
v -0.1188821 0 0.03862713
v -0.07347315 0 0.1011271
v 0.07347316 0 0.1011271
v 7.202557E-09 0 0.125
v -0.3 0.09715432 0.03335757
v -0.15 0.1970543 -0.01108562
v -0.15 0.3968543 -0.01108562
v -0.3 0.4967543 0.03335757
v -0.15 0.1970543 -0.01108562
v 0.15 0.1970543 -0.01108562
v 0.15 0.3968543 -0.01108562
v -0.15 0.3968543 -0.01108562
v 0.3 0.09715432 0.03335757
v 0.3 0.09715432 0.06629025
v 0.3 0.4967543 0.06629025
v 0.3 0.4967543 0.03335757
v 0.2742737 0.4747991 0.06629025
v 0.2742737 0.4747991 0.06112607
v -0.2742737 0.4747991 0.06112607
v -0.2742737 0.4747991 0.06629025
v -0.3 0.09715432 0.03335757
v -0.3 0.09715432 0.06629025
v 0.3 0.09715432 0.06629025
v 0.3 0.09715432 0.03335757
v 0.3 0.4967543 0.03335757
v 0.3 0.4967543 0.06629025
v -0.3 0.4967543 0.06629025
v -0.3 0.4967543 0.03335757
v 0.15 0.3968543 -0.01108562
v 0.3 0.4967543 0.03335757
v -0.3 0.4967543 0.03335757
v -0.15 0.3968543 -0.01108562
v -0.15 0.1970543 -0.01108562
v -0.3 0.09715432 0.03335757
v 0.3 0.09715432 0.03335757
v 0.15 0.1970543 -0.01108562
v 0.15 0.1970543 -0.01108562
v 0.3 0.09715432 0.03335757
v 0.3 0.4967543 0.03335757
v 0.15 0.3968543 -0.01108562
v -0.3 0.09715432 0.06629025
v -0.3 0.09715432 0.03335757
v -0.3 0.4967543 0.03335757
v -0.3 0.4967543 0.06629025
v -0.04858201 0.2619865 -0.02531427
v -0.04858201 0.2969543 -0.05616075
v 0.04858201 0.2969543 -0.05616075
v 0.04858201 0.2619865 -0.02531427
v 0.04858201 0.2969543 -0.05616075
v 0.04858201 0.02841171 -0.08054357
v 0.04858201 0.02841171 -0.04785322
v 0.04858201 0.2619865 -0.02531427
v 0.04858201 0.2619865 -0.02531427
v 0.04858201 0.02841171 -0.04785322
v -0.04858201 0.02841171 -0.04785322
v -0.04858201 0.2619865 -0.02531427
v -0.04858201 0.2969543 -0.05616075
v -0.04858201 0.02841171 -0.08054357
v 0.04858201 0.02841171 -0.08054357
v 0.04858201 0.2969543 -0.05616075
v -0.04858201 0.2619865 -0.02531427
v -0.04858201 0.02841171 -0.04785322
v -0.04858201 0.02841171 -0.08054357
v -0.04858201 0.2969543 -0.05616075
v 0.04858201 0.2969543 -0.05616075
v 0.04858201 0.2969543 0.01377733
v -0.04858201 0.2969543 0.01377733
v -0.04858201 0.2969543 -0.05616075
v 0.04858201 0.2619865 -0.02531427
v -0.04858201 0.2619865 -0.02531427
v -0.04858201 0.2619865 0.01377733
v 0.04858201 0.2619865 0.01377733
v -0.04858201 0.2969543 -0.05616075
v -0.04858201 0.2969543 0.01377733
v -0.04858201 0.2619865 0.01377733
v -0.04858201 0.2619865 -0.02531427
v 0.04858201 0.2969543 0.01377733
v 0.04858201 0.2969543 -0.05616075
v 0.04858201 0.2619865 -0.02531427
v 0.04858201 0.2619865 0.01377733
v 0.1085016 0.02841171 0.03525432
v 0.06705768 0.02841171 0.09229698
v 5.923085E-09 0.02841171 0.1140853
v 2.477272E-09 0.02841171 0.03525432
v -0.06705768 0.02841171 0.09229699
v 0.1085016 0.02841171 -0.03525432
v -0.1085016 0.02841171 0.03525431
v -6.047593E-10 0.02841171 -0.03525431
v 0.06705764 0.02841171 -0.092297
v -0.1085016 0.02841171 -0.03525431
v -4.050573E-09 0.02841171 -0.1140853
v -0.06705769 0.02841171 -0.09229698
v -0.2742737 0.1191095 0.06629025
v -0.3 0.09715432 0.06629025
v -0.3 0.4967543 0.06629025
v -0.2742737 0.4747991 0.06629025
v 0.2742737 0.4747991 0.06629025
v 0.3 0.4967543 0.06629025
v 0.3 0.09715432 0.06629025
v 0.2742737 0.1191095 0.06629025
v 0.2742737 0.1191095 0.06629025
v 0.3 0.09715432 0.06629025
v -0.3 0.09715432 0.06629025
v -0.2742737 0.1191095 0.06629025
v -0.2742737 0.4747991 0.06629025
v -0.3 0.4967543 0.06629025
v 0.3 0.4967543 0.06629025
v 0.2742737 0.4747991 0.06629025
v 0.2742737 0.1191095 0.06112607
v -0.2742737 0.1191095 0.06112607
v -0.2742737 0.4747991 0.06112607
v 0.2742737 0.4747991 0.06112607
v 0.2742737 0.1191095 0.06629025
v 0.2742737 0.1191095 0.06112607
v 0.2742737 0.4747991 0.06112607
v 0.2742737 0.4747991 0.06629025
v -0.2742737 0.1191095 0.06629025
v -0.2742737 0.1191095 0.06112607
v 0.2742737 0.1191095 0.06112607
v 0.2742737 0.1191095 0.06629025
v -0.2742737 0.4747991 0.06629025
v -0.2742737 0.4747991 0.06112607
v -0.2742737 0.1191095 0.06112607
v -0.2742737 0.1191095 0.06629025

vn 0.2902513 0.3431711 0.8933015
vn 0.2902513 0.3431711 0.8933015
vn 0.2902513 0.3431711 0.8933015
vn 0.2902513 0.3431711 0.8933015
vn -0.7598876 0.3431712 0.5520907
vn -0.7598876 0.3431712 0.5520907
vn -0.7598876 0.3431712 0.5520907
vn -0.7598876 0.3431712 0.5520907
vn 0.7598876 0.3431714 -0.5520909
vn 0.7598876 0.3431714 -0.5520909
vn 0.7598876 0.3431714 -0.5520909
vn 0.7598876 0.3431714 -0.5520909
vn -0.2902513 0.3431709 -0.8933017
vn -0.2902513 0.3431709 -0.8933017
vn -0.2902513 0.3431709 -0.8933017
vn -0.2902513 0.3431709 -0.8933017
vn -0.2902512 0.343171 0.8933017
vn -0.2902512 0.343171 0.8933017
vn -0.2902512 0.343171 0.8933017
vn -0.2902512 0.343171 0.8933017
vn 0.9392728 0.3431711 0
vn 0.9392728 0.3431711 0
vn 0.9392728 0.3431711 0
vn 0.9392728 0.3431711 0
vn 0.2902511 0.343171 -0.8933017
vn 0.2902511 0.343171 -0.8933017
vn 0.2902511 0.343171 -0.8933017
vn 0.2902511 0.343171 -0.8933017
vn -0.9392728 0.3431712 0
vn -0.9392728 0.3431712 0
vn -0.9392728 0.3431712 0
vn -0.9392728 0.3431712 0
vn 0.7598878 0.3431713 0.5520906
vn 0.7598878 0.3431713 0.5520906
vn 0.7598878 0.3431713 0.5520906
vn 0.7598878 0.3431713 0.5520906
vn -0.7598878 0.3431712 -0.5520907
vn -0.7598878 0.3431712 -0.5520907
vn -0.7598878 0.3431712 -0.5520907
vn -0.7598878 0.3431712 -0.5520907
vn 0 -1 0
vn 0 -1 0
vn 0 -1 0
vn 0 -1 0
vn 0 -1 0
vn 0 -1 0
vn 0 -1 0
vn 0 -1 0
vn 0 -1 0
vn 0 -1 0
vn -0.2840809 0 -0.9588003
vn -0.2840809 0 -0.9588003
vn -0.2840809 0 -0.9588003
vn -0.2840809 0 -0.9588003
vn 0 0 -1
vn 0 0 -1
vn 0 0 -1
vn 0 0 -1
vn 1 0 0
vn 1 0 0
vn 1 0 0
vn 1 0 0
vn 0 -1 0
vn 0 -1 0
vn 0 -1 0
vn 0 -1 0
vn 0 -1 0
vn 0 -1 0
vn 0 -1 0
vn 0 -1 0
vn 0 1 0
vn 0 1 0
vn 0 1 0
vn 0 1 0
vn 0 0.4064683 -0.9136649
vn 0 0.4064683 -0.9136649
vn 0 0.4064683 -0.9136649
vn 0 0.4064683 -0.9136649
vn 0 -0.4064683 -0.9136649
vn 0 -0.4064683 -0.9136649
vn 0 -0.4064683 -0.9136649
vn 0 -0.4064683 -0.9136649
vn 0.2840809 0 -0.9588003
vn 0.2840809 0 -0.9588003
vn 0.2840809 0 -0.9588003
vn 0.2840809 0 -0.9588003
vn -1 0 0
vn -1 0 0
vn -1 0 0
vn -1 0 0
vn 0 0.6615309 0.7499179
vn 0 0.6615309 0.7499179
vn 0 0.6615309 0.7499179
vn 0 0.6615309 0.7499179
vn 1 0 1.110578E-07
vn 1 0 1.110578E-07
vn 1 0 1.110578E-07
vn 1 0 1.110578E-07
vn 0 -0.09604953 0.9953765
vn 0 -0.09604953 0.9953765
vn 0 -0.09604953 0.9953765
vn 0 -0.09604953 0.9953765
vn 0 0.0904249 -0.9959033
vn 0 0.0904249 -0.9959033
vn 0 0.0904249 -0.9959033
vn 0 0.0904249 -0.9959033
vn -1 0 0
vn -1 0 0
vn -1 0 0
vn -1 0 0
vn 0 1 0
vn 0 1 0
vn 0 1 0
vn 0 1 0
vn 0 -1 0
vn 0 -1 0
vn 0 -1 0
vn 0 -1 0
vn -1 0 0
vn -1 0 0
vn -1 0 0
vn -1 0 0
vn 1 0 -1.221395E-07
vn 1 0 -1.221395E-07
vn 1 0 -1.221395E-07
vn 1 0 -1.221395E-07
vn 0 1 0
vn 0 1 0
vn 0 1 0
vn 0 1 0
vn 0 1 0
vn 0 1 0
vn 0 1 0
vn 0 1 0
vn 0 1 0
vn 0 1 0
vn 0 1 0
vn 0 1 0
vn 0 0 1
vn 0 0 1
vn 0 0 1
vn 0 0 1
vn 0 0 1
vn 0 0 1
vn 0 0 1
vn 0 0 1
vn 0 2.954634E-07 1
vn 0 2.954634E-07 1
vn 0 2.954634E-07 1
vn 0 2.954634E-07 1
vn 0 -2.954632E-07 1
vn 0 -2.954632E-07 1
vn 0 -2.954632E-07 1
vn 0 -2.954632E-07 1
vn 0 0 1
vn 0 0 1
vn 0 0 1
vn 0 0 1
vn -1 0 0
vn -1 0 0
vn -1 0 0
vn -1 0 0
vn 0 1 0
vn 0 1 0
vn 0 1 0
vn 0 1 0
vn 1 0 0
vn 1 0 0
vn 1 0 0
vn 1 0 0

vt 0.07988989 0.6382448
vt 0.07483549 0.6450791
vt 0.07779139 0.6461512
vt 0.08163431 0.6408516
vt 0.07483549 0.6535956
vt 0.07987689 0.6604359
vt 0.08177906 0.6579414
vt 0.07785024 0.6527056
vt 0.1010825 0.6451207
vt 0.09604105 0.6382804
vt 0.09413891 0.6407749
vt 0.09806768 0.6460108
vt 0.09602807 0.6604715
vt 0.1010825 0.6536372
vt 0.09812655 0.6525651
vt 0.09428363 0.6578647
vt 0.07483549 0.6450791
vt 0.07483549 0.6535956
vt 0.07785024 0.6527056
vt 0.07779139 0.6461512
vt 0.09604105 0.6382804
vt 0.08796423 0.6357168
vt 0.08786986 0.6388497
vt 0.09413891 0.6407749
vt 0.1010825 0.6536372
vt 0.1010825 0.6451207
vt 0.09806768 0.6460108
vt 0.09812655 0.6525651
vt 0.07987689 0.6604359
vt 0.08795371 0.6629996
vt 0.08804807 0.6598666
vt 0.08177906 0.6579414
vt 0.08796423 0.6357168
vt 0.07988989 0.6382448
vt 0.08163431 0.6408516
vt 0.08786986 0.6388497
vt 0.08795371 0.6629996
vt 0.09602807 0.6604715
vt 0.09428363 0.6578647
vt 0.08804807 0.6598666
vt 0.1089874 0.7421297
vt 0.1151383 0.7376608
vt 0.1174878 0.7304299
vt 0.1013845 0.7421297
vt 0.1151383 0.7231991
vt 0.0952336 0.7376608
vt 0.1089874 0.7187303
vt 0.1013845 0.7187303
vt 0.09288418 0.7304299
vt 0.0952336 0.7231991
vt 0.0132094 0.678544
vt 0.02741878 0.6680748
vt 0.02864852 0.6499494
vt 0.0143246 0.6392289
vt 0.02741878 0.6680748
vt 0.05520823 0.6684977
vt 0.05643797 0.6503723
vt 0.02864852 0.6499494
vt 0.06953217 0.6792182
vt 0.07389757 0.6827304
vt 0.074338 0.6357168
vt 0.07064734 0.6399031
vt 0.0639772 0.7244809
vt 0.06309368 0.7237338
vt 0.01363529 0.7235665
vt 0.01301063 0.7246031
vt 0.0132094 0.678544
vt 0.009518699 0.6827304
vt 0.07389757 0.6827304
vt 0.06953217 0.6792182
vt 0.07064734 0.6399031
vt 0.074338 0.6357168
vt 0.009959248 0.6357168
vt 0.0143246 0.6392289
vt 0.05643797 0.6503723
vt 0.07064734 0.6399031
vt 0.0143246 0.6392289
vt 0.02864852 0.6499494
vt 0.02741878 0.6680748
vt 0.0132094 0.678544
vt 0.06953217 0.6792182
vt 0.05520823 0.6684977
vt 0.05520823 0.6684977
vt 0.06953217 0.6792182
vt 0.07064734 0.6399031
vt 0.05643797 0.6503723
vt 0.009518699 0.6827304
vt 0.0132094 0.678544
vt 0.0143246 0.6392289
vt 0.009959248 0.6357168
vt 0.07483549 0.6708775
vt 0.07483549 0.6754664
vt 0.08439779 0.6754664
vt 0.08439779 0.6708775
vt 0.07004918 0.7460232
vt 0.07004918 0.7187303
vt 0.06683632 0.718897
vt 0.06683913 0.7427439
vt 0.09238391 0.742745
vt 0.09238669 0.7188982
vt 0.08282439 0.718897
vt 0.08282157 0.7427439
vt 0.07961152 0.7460232
vt 0.07961149 0.7187303
vt 0.07004918 0.7187303
vt 0.07004918 0.7460232
vt 0.08282157 0.7427439
vt 0.08282439 0.718897
vt 0.07961149 0.7187303
vt 0.07961152 0.7460232
vt 0.08783913 0.6703799
vt 0.08783913 0.663497
vt 0.07827683 0.663497
vt 0.07827683 0.6703799
vt 0.08439779 0.6759638
vt 0.07483549 0.6759638
vt 0.07483549 0.679811
vt 0.08439779 0.679811
vt 0.07827683 0.6703799
vt 0.07827683 0.663497
vt 0.07483549 0.663497
vt 0.07483549 0.6673442
vt 0.08783913 0.663497
vt 0.08783913 0.6703799
vt 0.0912805 0.6673442
vt 0.0912805 0.663497
vt 0.08786986 0.6388497
vt 0.08163431 0.6408516
vt 0.07779139 0.6461512
vt 0.08480372 0.648376
vt 0.07785024 0.6527056
vt 0.09413891 0.6407749
vt 0.08177906 0.6579414
vt 0.09111422 0.6503403
vt 0.09806768 0.6460108
vt 0.08804807 0.6598666
vt 0.09812655 0.6525651
vt 0.09428363 0.6578647
vt 0.01188034 0.6852331
vt 0.009518699 0.6832278
vt 0.01056641 0.7264861
vt 0.01301063 0.7246031
vt 0.0639772 0.7244809
vt 0.06633882 0.7264861
vt 0.06529108 0.6832279
vt 0.06284688 0.6851108
vt 0.06284688 0.6851108
vt 0.06529108 0.6832279
vt 0.009518699 0.6832278
vt 0.01188034 0.6852331
vt 0.01301063 0.7246031
vt 0.01056641 0.7264861
vt 0.06633882 0.7264861
vt 0.0639772 0.7244809
vt 0.09867414 0.04588503
vt 0.04468928 0.04588503
vt 0.04468928 0.08089
vt 0.09867417 0.08089
vt 0.06284688 0.6851108
vt 0.06222222 0.6861475
vt 0.06309368 0.7237338
vt 0.0639772 0.7244809
vt 0.01188034 0.6852331
vt 0.01276384 0.6859802
vt 0.06222222 0.6861475
vt 0.06284688 0.6851108
vt 0.01301063 0.7246031
vt 0.01363529 0.7235665
vt 0.01276384 0.6859802
vt 0.01188034 0.6852331

usemtl LOW-POLY-COLORS
usemap LOW-POLY-COLORS
f 2/2/2 1/1/1 3/3/3
f 3/3/3 1/1/1 4/4/4
f 6/6/6 5/5/5 7/7/7
f 7/7/7 5/5/5 8/8/8
f 10/10/10 9/9/9 11/11/11
f 11/11/11 9/9/9 12/12/12
f 14/14/14 13/13/13 15/15/15
f 15/15/15 13/13/13 16/16/16
f 18/18/18 17/17/17 19/19/19
f 19/19/19 17/17/17 20/20/20
f 22/22/22 21/21/21 23/23/23
f 23/23/23 21/21/21 24/24/24
f 26/26/26 25/25/25 27/27/27
f 27/27/27 25/25/25 28/28/28
f 30/30/30 29/29/29 31/31/31
f 31/31/31 29/29/29 32/32/32
f 34/34/34 33/33/33 35/35/35
f 35/35/35 33/33/33 36/36/36
f 38/38/38 37/37/37 39/39/39
f 39/39/39 37/37/37 40/40/40
f 42/42/42 41/41/41 43/43/43
f 44/44/44 43/43/43 41/41/41
f 45/45/45 43/43/43 44/44/44
f 46/46/46 45/45/45 44/44/44
f 47/47/47 45/45/45 46/46/46
f 48/48/48 47/47/47 46/46/46
f 49/49/49 48/48/48 46/46/46
f 50/50/50 48/48/48 49/49/49
f 52/52/52 51/51/51 53/53/53
f 53/53/53 51/51/51 54/54/54
f 56/56/56 55/55/55 57/57/57
f 57/57/57 55/55/55 58/58/58
f 60/60/60 59/59/59 61/61/61
f 61/61/61 59/59/59 62/62/62
f 64/64/64 63/63/63 65/65/65
f 65/65/65 63/63/63 66/66/66
f 68/68/68 67/67/67 69/69/69
f 69/69/69 67/67/67 70/70/70
f 72/72/72 71/71/71 73/73/73
f 73/73/73 71/71/71 74/74/74
f 76/76/76 75/75/75 77/77/77
f 77/77/77 75/75/75 78/78/78
f 80/80/80 79/79/79 81/81/81
f 81/81/81 79/79/79 82/82/82
f 84/84/84 83/83/83 85/85/85
f 85/85/85 83/83/83 86/86/86
f 88/88/88 87/87/87 89/89/89
f 89/89/89 87/87/87 90/90/90
f 92/92/92 91/91/91 93/93/93
f 93/93/93 91/91/91 94/94/94
f 96/96/96 95/95/95 97/97/97
f 97/97/97 95/95/95 98/98/98
f 100/100/100 99/99/99 101/101/101
f 101/101/101 99/99/99 102/102/102
f 104/104/104 103/103/103 105/105/105
f 105/105/105 103/103/103 106/106/106
f 108/108/108 107/107/107 109/109/109
f 109/109/109 107/107/107 110/110/110
f 112/112/112 111/111/111 113/113/113
f 113/113/113 111/111/111 114/114/114
f 116/116/116 115/115/115 117/117/117
f 117/117/117 115/115/115 118/118/118
f 120/120/120 119/119/119 121/121/121
f 121/121/121 119/119/119 122/122/122
f 124/124/124 123/123/123 125/125/125
f 125/125/125 123/123/123 126/126/126
f 128/128/128 127/127/127 129/129/129
f 129/129/129 127/127/127 130/130/130
f 129/129/129 130/130/130 131/131/131
f 127/127/127 132/132/132 130/130/130
f 131/131/131 130/130/130 133/133/133
f 130/130/130 132/132/132 134/134/134
f 130/130/130 134/134/134 133/133/133
f 132/132/132 135/135/135 134/134/134
f 133/133/133 134/134/134 136/136/136
f 134/134/134 135/135/135 137/137/137
f 134/134/134 137/137/137 136/136/136
f 136/136/136 137/137/137 138/138/138
f 140/140/140 139/139/139 141/141/141
f 141/141/141 139/139/139 142/142/142
f 144/144/144 143/143/143 145/145/145
f 145/145/145 143/143/143 146/146/146
f 148/148/148 147/147/147 149/149/149
f 149/149/149 147/147/147 150/150/150
f 152/152/152 151/151/151 153/153/153
f 153/153/153 151/151/151 154/154/154
f 156/156/156 155/155/155 157/157/157
f 157/157/157 155/155/155 158/158/158
f 160/160/160 159/159/159 161/161/161
f 161/161/161 159/159/159 162/162/162
f 164/164/164 163/163/163 165/165/165
f 165/165/165 163/163/163 166/166/166
f 168/168/168 167/167/167 169/169/169
f 169/169/169 167/167/167 170/170/170
