mtllib ./altar_4.mtl
g altar
v -1 0.15 0.5
v -1 0.15 -0.5
v -1 0.8999999 -0.5
v -1 0.8999999 0.5
v 0.5012625 0.15 -0.5
v 1 0.15 -0.5
v 1 0.8999999 -0.5
v 0.5012625 0.8999999 -0.5
v 1 0.15 -0.5
v 1 0.15 0.5
v 1 0.8999999 0.5
v 1 0.8999999 -0.5
v -0.5012625 0.15 0.5
v -1 0.15 0.5
v -1 0.8999999 0.5
v -0.5012625 0.8999999 0.5
v 1.040906 1.05 0.5573798
v 1 1.1 0.5
v 1 1.1 -0.5
v 1.040906 1.05 -0.5573798
v -0.5012625 1.1 -0.5
v -0.5012625 1.1 0.5
v -1 1.1 0.5
v -1 1.1 -0.5
v -1.040906 1.05 -0.5573798
v -1 1.1 -0.5
v -1 1.1 0.5
v -1.040906 1.05 0.5573798
v 0.5217671 1.05 0.5573798
v 0.5012625 1.1 0.5
v 1 1.1 0.5
v 1.040906 1.05 0.5573798
v -0.5217671 1.05 -0.5573798
v -0.5012625 1.1 -0.5
v -1 1.1 -0.5
v -1.040906 1.05 -0.5573798
v -0.5012625 0.8999999 -0.5
v -0.5217671 1.05 -0.5573798
v -1.040906 1.05 -0.5573798
v -1 0.8999999 -0.5
v 0.5012625 0.8999999 0.5
v 0.5217671 1.05 0.5573798
v 1.040906 1.05 0.5573798
v 1 0.8999999 0.5
v -1 0.8999999 -0.5
v -1.040906 1.05 -0.5573798
v -1.040906 1.05 0.5573798
v -1 0.8999999 0.5
v 1 0.8999999 0.5
v 1.040906 1.05 0.5573798
v 1.040906 1.05 -0.5573798
v 1 0.8999999 -0.5
v -1 0.8999999 0.5
v -1.040906 1.05 0.5573798
v -0.5217671 1.05 0.5573798
v -0.5012625 0.8999999 0.5
v -0.5012625 0.8999999 0.5
v -0.5217671 1.05 0.5573798
v 0.5217671 1.05 0.5573798
v 0.5012625 0.8999999 0.5
v 1 0.8999999 -0.5
v 1.040906 1.05 -0.5573798
v 0.5217671 1.05 -0.5573798
v 0.5012625 0.8999999 -0.5
v 0.5012625 0.8999999 -0.5
v 0.5217671 1.05 -0.5573798
v -0.5217671 1.05 -0.5573798
v -0.5012625 0.8999999 -0.5
v 1.040906 1.05 -0.5573798
v 1 1.1 -0.5
v 0.5012625 1.1 -0.5
v 0.5217671 1.05 -0.5573798
v 0.5217671 1.05 -0.5573798
v 0.5012625 1.1 -0.5
v -0.5012625 1.1 -0.5
v -0.5217671 1.05 -0.5573798
v -1.040906 1.05 0.5573798
v -1 1.1 0.5
v -0.5012625 1.1 0.5
v -0.5217671 1.05 0.5573798
v -0.5217671 1.05 0.5573798
v -0.5012625 1.1 0.5
v 0.5012625 1.1 0.5
v 0.5217671 1.05 0.5573798
v 1 1.1 -0.5
v 1 1.1 0.5
v 0.5012625 1.1 0.5
v 0.5012625 1.1 -0.5
v 0.5012625 1.1 -0.5
v 0.5012625 1.1 0.5
v -0.5012625 1.1 0.5
v -0.5012625 1.1 -0.5
v 1 0.15 0.5
v 0.5012625 0.15 0.5
v 0.5012625 0.8999999 0.5
v 1 0.8999999 0.5
v 0.5012625 0.15 0.5
v -0.5012625 0.15 0.5
v -0.5012625 0.8999999 0.5
v 0.5012625 0.8999999 0.5
v -1 0.15 -0.5
v -0.5012625 0.15 -0.5
v -0.5012625 0.8999999 -0.5
v -1 0.8999999 -0.5
v -0.5012625 0.15 -0.5
v 0.5012625 0.15 -0.5
v 0.5012625 0.8999999 -0.5
v -0.5012625 0.8999999 -0.5
v -0.9549279 0 0.4073799
v -0.889976 0 0.4448799
v -0.889976 1.05 0.4448799
v -0.9549279 1.05 0.4073799
v -0.889976 0 0.5198799
v -0.9549279 0 0.5573799
v -0.9549279 1.05 0.5573799
v -0.889976 1.05 0.5198799
v -1.01988 0 0.5198799
v -1.01988 0 0.4448798
v -1.01988 1.05 0.4448798
v -1.01988 1.05 0.5198799
v -0.889976 0 0.4448799
v -0.889976 0 0.5198799
v -0.889976 1.05 0.5198799
v -0.889976 1.05 0.4448799
v -0.9549279 0 0.5573799
v -1.01988 0 0.5198799
v -1.01988 1.05 0.5198799
v -0.9549279 1.05 0.5573799
v -1.01988 0 0.4448798
v -0.9549279 0 0.4073799
v -0.9549279 1.05 0.4073799
v -1.01988 1.05 0.4448798
v 0.9759539 0 0.4073799
v 1.040906 0 0.4448799
v 1.040906 1.05 0.4448799
v 0.9759539 1.05 0.4073799
v 1.040906 0 0.5198799
v 0.9759539 0 0.5573799
v 0.9759539 1.05 0.5573799
v 1.040906 1.05 0.5198799
v 0.911002 0 0.5198799
v 0.911002 0 0.4448798
v 0.911002 1.05 0.4448798
v 0.911002 1.05 0.5198799
v 1.040906 0 0.4448799
v 1.040906 0 0.5198799
v 1.040906 1.05 0.5198799
v 1.040906 1.05 0.4448799
v 0.9759539 0 0.5573799
v 0.911002 0 0.5198799
v 0.911002 1.05 0.5198799
v 0.9759539 1.05 0.5573799
v 0.911002 0 0.4448798
v 0.9759539 0 0.4073799
v 0.9759539 1.05 0.4073799
v 0.911002 1.05 0.4448798
v -0.9549279 0 -0.5573798
v -0.889976 0 -0.5198798
v -0.889976 1.05 -0.5198798
v -0.9549279 1.05 -0.5573798
v -0.889976 0 -0.4448798
v -0.9549279 0 -0.4073798
v -0.9549279 1.05 -0.4073798
v -0.889976 1.05 -0.4448798
v -1.01988 0 -0.4448798
v -1.01988 0 -0.5198799
v -1.01988 1.05 -0.5198799
v -1.01988 1.05 -0.4448798
v -0.889976 0 -0.5198798
v -0.889976 0 -0.4448798
v -0.889976 1.05 -0.4448798
v -0.889976 1.05 -0.5198798
v -0.9549279 0 -0.4073798
v -1.01988 0 -0.4448798
v -1.01988 1.05 -0.4448798
v -0.9549279 1.05 -0.4073798
v -1.01988 0 -0.5198799
v -0.9549279 0 -0.5573798
v -0.9549279 1.05 -0.5573798
v -1.01988 1.05 -0.5198799
v 0.9759539 0 -0.5573798
v 1.040906 0 -0.5198798
v 1.040906 1.05 -0.5198798
v 0.9759539 1.05 -0.5573798
v 1.040906 0 -0.4448798
v 0.9759539 0 -0.4073798
v 0.9759539 1.05 -0.4073798
v 1.040906 1.05 -0.4448798
v 0.911002 0 -0.4448798
v 0.911002 0 -0.5198799
v 0.911002 1.05 -0.5198799
v 0.911002 1.05 -0.4448798
v 1.040906 0 -0.5198798
v 1.040906 0 -0.4448798
v 1.040906 1.05 -0.4448798
v 1.040906 1.05 -0.5198798
v 0.9759539 0 -0.4073798
v 0.911002 0 -0.4448798
v 0.911002 1.05 -0.4448798
v 0.9759539 1.05 -0.4073798
v 0.911002 0 -0.5198799
v 0.9759539 0 -0.5573798
v 0.9759539 1.05 -0.5573798
v 0.911002 1.05 -0.5198799
v 0.5012625 0.15 0.5
v 0.5012625 0.1 0.65
v -0.5012625 0.1 0.65
v -0.5012625 0.15 0.5
v -0.5012625 0.15 0.5
v -0.5012625 0.1 0.65
v -1.15 0.1 0.65
v -1 0.15 0.5
v 1 0.15 0.5
v 1.15 0.1 0.65
v 0.5012625 0.1 0.65
v 0.5012625 0.15 0.5
v 0.5012625 0.1 -0.65
v 0.5012625 0 -0.65
v 1.15 0 -0.65
v 1.15 0.1 -0.65
v -0.5012625 0.1 -0.65
v -0.5012625 0 -0.65
v 0.5012625 0 -0.65
v 0.5012625 0.1 -0.65
v 0.5012625 0.1 0.65
v 0.5012625 0 0.65
v -0.5012625 0 0.65
v -0.5012625 0.1 0.65
v 1 0.15 -0.5
v 1.15 0.1 -0.65
v 1.15 0.1 0.65
v 1 0.15 0.5
v -1 0.15 0.5
v -1.15 0.1 0.65
v -1.15 0.1 -0.65
v -1 0.15 -0.5
v -0.5012625 0.15 -0.5
v -0.5012625 0.1 -0.65
v 0.5012625 0.1 -0.65
v 0.5012625 0.15 -0.5
v 0.5012625 0.15 -0.5
v 0.5012625 0.1 -0.65
v 1.15 0.1 -0.65
v 1 0.15 -0.5
v -1 0.15 -0.5
v -1.15 0.1 -0.65
v -0.5012625 0.1 -0.65
v -0.5012625 0.15 -0.5
v 1.15 0.1 0.65
v 1.15 0 0.65
v 0.5012625 0 0.65
v 0.5012625 0.1 0.65
v -1.15 0.1 -0.65
v -1.15 0 -0.65
v -0.5012625 0 -0.65
v -0.5012625 0.1 -0.65
v -1.15 0.1 0.65
v -1.15 0 0.65
v -1.15 0 -0.65
v -1.15 0.1 -0.65
v -0.5012625 0.1 0.65
v -0.5012625 0 0.65
v -1.15 0 0.65
v -1.15 0.1 0.65
v 1.15 0.1 -0.65
v 1.15 0 -0.65
v 1.15 0 0.65
v 1.15 0.1 0.65

vn -1 0 0
vn -1 0 0
vn -1 0 0
vn -1 0 0
vn 0 0 -1
vn 0 0 -1
vn 0 0 -1
vn 0 0 -1
vn 1 0 0
vn 1 0 0
vn 1 0 0
vn 1 0 0
vn 0 0 1
vn 0 0 1
vn 0 0 1
vn 0 0 1
vn 0.7739819 0.6332079 0
vn 0.7739819 0.6332079 0
vn 0.7739819 0.6332079 0
vn 0.7739819 0.6332079 0
vn 0 1 0
vn 0 1 0
vn 0 1 0
vn 0 1 0
vn -0.7739819 0.6332079 0
vn -0.7739819 0.6332079 0
vn -0.7739819 0.6332079 0
vn -0.7739819 0.6332079 0
vn 0 0.7539248 0.6569607
vn 0 0.7539248 0.6569607
vn 0 0.7539248 0.6569607
vn 0 0.7539248 0.6569607
vn 0 0.7539248 -0.6569607
vn 0 0.7539248 -0.6569607
vn 0 0.7539248 -0.6569607
vn 0 0.7539248 -0.6569607
vn 0 -0.3572837 -0.933996
vn 0 -0.3572837 -0.933996
vn 0 -0.3572837 -0.933996
vn 0 -0.3572837 -0.933996
vn 0 -0.3572837 0.933996
vn 0 -0.3572837 0.933996
vn 0 -0.3572837 0.933996
vn 0 -0.3572837 0.933996
vn -0.9647692 -0.2630979 0
vn -0.9647692 -0.2630979 0
vn -0.9647692 -0.2630979 0
vn -0.9647692 -0.2630979 0
vn 0.9647692 -0.2630979 0
vn 0.9647692 -0.2630979 0
vn 0.9647692 -0.2630979 0
vn 0.9647692 -0.2630979 0
vn 0 -0.3572837 0.933996
vn 0 -0.3572837 0.933996
vn 0 -0.3572837 0.933996
vn 0 -0.3572837 0.933996
vn 0 -0.3572834 0.933996
vn 0 -0.3572834 0.933996
vn 0 -0.3572834 0.933996
vn 0 -0.3572834 0.933996
vn 0 -0.3572837 -0.933996
vn 0 -0.3572837 -0.933996
vn 0 -0.3572837 -0.933996
vn 0 -0.3572837 -0.933996
vn 0 -0.3572834 -0.933996
vn 0 -0.3572834 -0.933996
vn 0 -0.3572834 -0.933996
vn 0 -0.3572834 -0.933996
vn 0 0.7539248 -0.6569607
vn 0 0.7539248 -0.6569607
vn 0 0.7539248 -0.6569607
vn 0 0.7539248 -0.6569607
vn 0 0.7539245 -0.656961
vn 0 0.7539245 -0.656961
vn 0 0.7539245 -0.656961
vn 0 0.7539245 -0.656961
vn 0 0.7539248 0.6569607
vn 0 0.7539248 0.6569607
vn 0 0.7539248 0.6569607
vn 0 0.7539248 0.6569607
vn 0 0.7539245 0.656961
vn 0 0.7539245 0.656961
vn 0 0.7539245 0.656961
vn 0 0.7539245 0.656961
vn 0 1 0
vn 0 1 0
vn 0 1 0
vn 0 1 0
vn 0 1 0
vn 0 1 0
vn 0 1 0
vn 0 1 0
vn 0 0 1
vn 0 0 1
vn 0 0 1
vn 0 0 1
vn 0 0 1
vn 0 0 1
vn 0 0 1
vn 0 0 1
vn 0 0 -1
vn 0 0 -1
vn 0 0 -1
vn 0 0 -1
vn 0 0 -1
vn 0 0 -1
vn 0 0 -1
vn 0 0 -1
vn 0.4999998 0 -0.8660255
vn 0.4999998 0 -0.8660255
vn 0.4999998 0 -0.8660255
vn 0.4999998 0 -0.8660255
vn 0.5000001 0 0.8660253
vn 0.5000001 0 0.8660253
vn 0.5000001 0 0.8660253
vn 0.5000001 0 0.8660253
vn -1 0 0
vn -1 0 0
vn -1 0 0
vn -1 0 0
vn 1 0 0
vn 1 0 0
vn 1 0 0
vn 1 0 0
vn -0.5000001 0 0.8660253
vn -0.5000001 0 0.8660253
vn -0.5000001 0 0.8660253
vn -0.5000001 0 0.8660253
vn -0.4999995 0 -0.8660257
vn -0.4999995 0 -0.8660257
vn -0.4999995 0 -0.8660257
vn -0.4999995 0 -0.8660257
vn 0.4999998 0 -0.8660255
vn 0.4999998 0 -0.8660255
vn 0.4999998 0 -0.8660255
vn 0.4999998 0 -0.8660255
vn 0.5000001 0 0.8660253
vn 0.5000001 0 0.8660253
vn 0.5000001 0 0.8660253
vn 0.5000001 0 0.8660253
vn -1 0 0
vn -1 0 0
vn -1 0 0
vn -1 0 0
vn 1 0 0
vn 1 0 0
vn 1 0 0
vn 1 0 0
vn -0.5000004 0 0.8660251
vn -0.5000004 0 0.8660251
vn -0.5000004 0 0.8660251
vn -0.5000004 0 0.8660251
vn -0.4999998 0 -0.8660255
vn -0.4999998 0 -0.8660255
vn -0.4999998 0 -0.8660255
vn -0.4999998 0 -0.8660255
vn 0.5000001 0 -0.8660253
vn 0.5000001 0 -0.8660253
vn 0.5000001 0 -0.8660253
vn 0.5000001 0 -0.8660253
vn 0.5000001 0 0.8660253
vn 0.5000001 0 0.8660253
vn 0.5000001 0 0.8660253
vn 0.5000001 0 0.8660253
vn -1 0 0
vn -1 0 0
vn -1 0 0
vn -1 0 0
vn 1 0 0
vn 1 0 0
vn 1 0 0
vn 1 0 0
vn -0.5000001 0 0.8660253
vn -0.5000001 0 0.8660253
vn -0.5000001 0 0.8660253
vn -0.5000001 0 0.8660253
vn -0.4999995 0 -0.8660257
vn -0.4999995 0 -0.8660257
vn -0.4999995 0 -0.8660257
vn -0.4999995 0 -0.8660257
vn 0.5000001 0 -0.8660253
vn 0.5000001 0 -0.8660253
vn 0.5000001 0 -0.8660253
vn 0.5000001 0 -0.8660253
vn 0.5000001 0 0.8660253
vn 0.5000001 0 0.8660253
vn 0.5000001 0 0.8660253
vn 0.5000001 0 0.8660253
vn -1 0 0
vn -1 0 0
vn -1 0 0
vn -1 0 0
vn 1 0 0
vn 1 0 0
vn 1 0 0
vn 1 0 0
vn -0.5000004 0 0.8660251
vn -0.5000004 0 0.8660251
vn -0.5000004 0 0.8660251
vn -0.5000004 0 0.8660251
vn -0.4999998 0 -0.8660255
vn -0.4999998 0 -0.8660255
vn -0.4999998 0 -0.8660255
vn -0.4999998 0 -0.8660255
vn 0 0.9486832 0.3162279
vn 0 0.9486832 0.3162279
vn 0 0.9486832 0.3162279
vn 0 0.9486832 0.3162279
vn 0 0.9486833 0.3162279
vn 0 0.9486833 0.3162279
vn 0 0.9486833 0.3162279
vn 0 0.9486833 0.3162279
vn 0 0.9486833 0.3162279
vn 0 0.9486833 0.3162279
vn 0 0.9486833 0.3162279
vn 0 0.9486833 0.3162279
vn 0 0 -1
vn 0 0 -1
vn 0 0 -1
vn 0 0 -1
vn 0 0 -1
vn 0 0 -1
vn 0 0 -1
vn 0 0 -1
vn 0 0 1
vn 0 0 1
vn 0 0 1
vn 0 0 1
vn 0.3162279 0.9486833 0
vn 0.3162279 0.9486833 0
vn 0.3162279 0.9486833 0
vn 0.3162279 0.9486833 0
vn -0.3162279 0.9486833 0
vn -0.3162279 0.9486833 0
vn -0.3162279 0.9486833 0
vn -0.3162279 0.9486833 0
vn 0 0.9486832 -0.3162279
vn 0 0.9486832 -0.3162279
vn 0 0.9486832 -0.3162279
vn 0 0.9486832 -0.3162279
vn 0 0.9486833 -0.3162279
vn 0 0.9486833 -0.3162279
vn 0 0.9486833 -0.3162279
vn 0 0.9486833 -0.3162279
vn 0 0.9486833 -0.3162279
vn 0 0.9486833 -0.3162279
vn 0 0.9486833 -0.3162279
vn 0 0.9486833 -0.3162279
vn 0 0 1
vn 0 0 1
vn 0 0 1
vn 0 0 1
vn 0 0 -1
vn 0 0 -1
vn 0 0 -1
vn 0 0 -1
vn -1 0 0
vn -1 0 0
vn -1 0 0
vn -1 0 0
vn 0 0 1
vn 0 0 1
vn 0 0 1
vn 0 0 1
vn 1 0 0
vn 1 0 0
vn 1 0 0
vn 1 0 0

vt 0.43739 0.6795044
vt 0.4063914 0.6803293
vt 0.4148646 0.6991261
vt 0.4317513 0.6973748
vt 0.4493111 0.6507108
vt 0.43739 0.6402849
vt 0.4317513 0.6581553
vt 0.4406731 0.6664713
vt 0.43739 0.6402849
vt 0.4063914 0.6411098
vt 0.4148646 0.6599066
vt 0.4317513 0.6581553
vt 0.4493111 0.6899303
vt 0.43739 0.6795044
vt 0.4317513 0.6973748
vt 0.4406731 0.7056908
vt 0.4159954 0.6622124
vt 0.4167545 0.6633639
vt 0.4299328 0.6625446
vt 0.4305192 0.6615431
vt 0.4108073 0.710692
vt 0.4363851 0.7100922
vt 0.4299328 0.7017641
vt 0.4167545 0.7025834
vt 0.4159954 0.7014319
vt 0.4167545 0.7025834
vt 0.4299328 0.7017641
vt 0.4305192 0.7007626
vt 0.4096544 0.6699823
vt 0.4108073 0.6714725
vt 0.4167545 0.6633639
vt 0.4159954 0.6622124
vt 0.4096545 0.7092018
vt 0.4108073 0.710692
vt 0.4167545 0.7025834
vt 0.4159954 0.7014319
vt 0.4066705 0.706935
vt 0.4096545 0.7092018
vt 0.4159954 0.7014319
vt 0.4148646 0.6991261
vt 0.4066705 0.6677155
vt 0.4096544 0.6699823
vt 0.4159954 0.6622124
vt 0.4148646 0.6599066
vt 0.4148646 0.6991261
vt 0.4159954 0.7014319
vt 0.4305192 0.7007626
vt 0.4317513 0.6973748
vt 0.4148646 0.6599066
vt 0.4159954 0.6622124
vt 0.4305192 0.6615431
vt 0.4317513 0.6581553
vt 0.4317513 0.6973748
vt 0.4305192 0.7007626
vt 0.4375272 0.7084268
vt 0.4406731 0.7056908
vt 0.1638364 0.5738305
vt 0.1677329 0.574328
vt 0.1677329 0.5490097
vt 0.1638364 0.5495073
vt 0.4317513 0.6581553
vt 0.4305192 0.6615431
vt 0.4375272 0.6692073
vt 0.4406731 0.6664713
vt 0.1995845 0.5495072
vt 0.195688 0.5490097
vt 0.195688 0.574328
vt 0.1995845 0.5738305
vt 0.4305192 0.6615431
vt 0.4299328 0.6625446
vt 0.4363851 0.6708727
vt 0.4375272 0.6692073
vt 0.195688 0.5490097
vt 0.1938415 0.5495072
vt 0.1938415 0.5738305
vt 0.195688 0.574328
vt 0.4305192 0.7007626
vt 0.4299328 0.7017641
vt 0.4363851 0.7100922
vt 0.4375272 0.7084268
vt 0.1677329 0.574328
vt 0.1695795 0.5738305
vt 0.1695795 0.5495073
vt 0.1677329 0.5490097
vt 0.4299328 0.6625446
vt 0.4167545 0.6633639
vt 0.4108073 0.6714725
vt 0.4363851 0.6708727
vt 0.1938415 0.5495072
vt 0.1695795 0.5495073
vt 0.1695795 0.5738305
vt 0.1938415 0.5738305
vt 0.4063914 0.6411098
vt 0.3939728 0.6506311
vt 0.4066705 0.6677155
vt 0.4148646 0.6599066
vt 0.1456399 0.5495073
vt 0.1456399 0.5738305
vt 0.1638364 0.5738305
vt 0.1638364 0.5495073
vt 0.4063914 0.6803293
vt 0.3939728 0.6898506
vt 0.4066705 0.706935
vt 0.4148646 0.6991261
vt 0.2177811 0.5738305
vt 0.2177811 0.5495073
vt 0.1995845 0.5495072
vt 0.1995845 0.5738305
vt 0.4658363 0.6585823
vt 0.4640166 0.6585823
vt 0.4640165 0.6840573
vt 0.4658361 0.6840573
vt 0.4621969 0.6585822
vt 0.4603772 0.6585822
vt 0.4603772 0.6840573
vt 0.4621968 0.6840573
vt 0.4585576 0.6585822
vt 0.4567379 0.6585822
vt 0.4567379 0.6840573
vt 0.4585575 0.6840573
vt 0.4640166 0.6585823
vt 0.4621969 0.6585822
vt 0.4621968 0.6840573
vt 0.4640165 0.6840573
vt 0.4603772 0.6585822
vt 0.4585576 0.6585822
vt 0.4585575 0.6840573
vt 0.4603772 0.6840573
vt 0.4567379 0.6585822
vt 0.4549182 0.6585822
vt 0.4549182 0.6840573
vt 0.4567379 0.6840573
vt 0.4658363 0.6326801
vt 0.4640166 0.6326801
vt 0.4640166 0.6581551
vt 0.4658363 0.6581551
vt 0.4621969 0.6326801
vt 0.4603772 0.6326801
vt 0.4603773 0.6581551
vt 0.462197 0.6581551
vt 0.4585576 0.6326801
vt 0.4567379 0.6326801
vt 0.456738 0.6581551
vt 0.4585577 0.6581551
vt 0.4640166 0.6326801
vt 0.4621969 0.6326801
vt 0.462197 0.6581551
vt 0.4640166 0.6581551
vt 0.4603772 0.6326801
vt 0.4585576 0.6326801
vt 0.4585577 0.6581551
vt 0.4603773 0.6581551
vt 0.4567379 0.6326801
vt 0.4549182 0.6326801
vt 0.4549184 0.6581551
vt 0.456738 0.6581551
vt 0.4717223 0.6326801
vt 0.4699027 0.6326801
vt 0.4699028 0.6581551
vt 0.4717224 0.6581551
vt 0.468083 0.6326801
vt 0.4662633 0.6326801
vt 0.4662634 0.6581551
vt 0.4680831 0.6581551
vt 0.4753617 0.6326801
vt 0.473542 0.6326801
vt 0.4735421 0.6581551
vt 0.4753617 0.6581551
vt 0.4699027 0.6326801
vt 0.468083 0.6326801
vt 0.4680831 0.6581551
vt 0.4699028 0.6581551
vt 0.4771813 0.6326801
vt 0.4753617 0.6326801
vt 0.4753617 0.6581551
vt 0.4771813 0.6581551
vt 0.473542 0.6326801
vt 0.4717223 0.6326801
vt 0.4717224 0.6581551
vt 0.4735421 0.6581551
vt 0.4603772 0.6844844
vt 0.4585576 0.6844844
vt 0.4585575 0.7099594
vt 0.4603772 0.7099594
vt 0.4567379 0.6844844
vt 0.4549182 0.6844844
vt 0.4549182 0.7099594
vt 0.4567379 0.7099594
vt 0.4640166 0.6844844
vt 0.4621969 0.6844844
vt 0.4621968 0.7099594
vt 0.4640165 0.7099594
vt 0.4585576 0.6844844
vt 0.4567379 0.6844844
vt 0.4567379 0.7099594
vt 0.4585575 0.7099594
vt 0.4658363 0.6844844
vt 0.4640166 0.6844844
vt 0.4640165 0.7099594
vt 0.4658361 0.7099594
vt 0.4621969 0.6844844
vt 0.4603772 0.6844844
vt 0.4603772 0.7099594
vt 0.4621968 0.7099594
vt 0.1456399 0.5495073
vt 0.1418037 0.5495073
vt 0.1418037 0.5738305
vt 0.1456399 0.5738305
vt 0.4493111 0.6899303
vt 0.4519792 0.687165
vt 0.4393483 0.675142
vt 0.43739 0.6795044
vt 0.4063914 0.6411098
vt 0.4044264 0.6354357
vt 0.3913501 0.6476195
vt 0.3939728 0.6506311
vt 0.4519792 0.6479455
vt 0.4544912 0.6453491
vt 0.4402945 0.6326801
vt 0.4393483 0.6359225
vt 0.2216172 0.5738305
vt 0.2240434 0.5738305
vt 0.2240434 0.5495073
vt 0.2216172 0.5495073
vt 0.1418037 0.5495073
vt 0.1393775 0.5495073
vt 0.1393775 0.5738305
vt 0.1418037 0.5738305
vt 0.43739 0.6402849
vt 0.4393483 0.6359225
vt 0.4044264 0.6354357
vt 0.4063914 0.6411098
vt 0.43739 0.6795044
vt 0.4393483 0.675142
vt 0.4044264 0.6746552
vt 0.4063914 0.6803293
vt 0.2177811 0.5738305
vt 0.2216172 0.5738305
vt 0.2216172 0.5495073
vt 0.2177811 0.5495073
vt 0.4493111 0.6507108
vt 0.4519792 0.6479455
vt 0.4393483 0.6359225
vt 0.43739 0.6402849
vt 0.4063914 0.6803293
vt 0.4044264 0.6746552
vt 0.3913502 0.6868391
vt 0.3939728 0.6898506
vt 0.4044264 0.6354357
vt 0.4032751 0.6326801
vt 0.3893775 0.6454773
vt 0.3913501 0.6476195
vt 0.4044264 0.6746552
vt 0.4032751 0.6718996
vt 0.3893775 0.6846968
vt 0.3913502 0.6868391
vt 0.4393483 0.675142
vt 0.4402945 0.6718996
vt 0.4032751 0.6718996
vt 0.4044264 0.6746552
vt 0.4519792 0.687165
vt 0.4544912 0.6845687
vt 0.4402945 0.6718996
vt 0.4393483 0.675142
vt 0.4393483 0.6359225
vt 0.4402945 0.6326801
vt 0.4032751 0.6326801
vt 0.4044264 0.6354357

usemtl LOW-POLY-COLORS
usemap LOW-POLY-COLORS
f 2/2/2 1/1/1 3/3/3
f 3/3/3 1/1/1 4/4/4
f 6/6/6 5/5/5 7/7/7
f 7/7/7 5/5/5 8/8/8
f 10/10/10 9/9/9 11/11/11
f 11/11/11 9/9/9 12/12/12
f 14/14/14 13/13/13 15/15/15
f 15/15/15 13/13/13 16/16/16
f 18/18/18 17/17/17 19/19/19
f 19/19/19 17/17/17 20/20/20
f 22/22/22 21/21/21 23/23/23
f 23/23/23 21/21/21 24/24/24
f 26/26/26 25/25/25 27/27/27
f 27/27/27 25/25/25 28/28/28
f 30/30/30 29/29/29 31/31/31
f 31/31/31 29/29/29 32/32/32
f 34/34/34 33/33/33 35/35/35
f 35/35/35 33/33/33 36/36/36
f 38/38/38 37/37/37 39/39/39
f 39/39/39 37/37/37 40/40/40
f 42/42/42 41/41/41 43/43/43
f 43/43/43 41/41/41 44/44/44
f 46/46/46 45/45/45 47/47/47
f 47/47/47 45/45/45 48/48/48
f 50/50/50 49/49/49 51/51/51
f 51/51/51 49/49/49 52/52/52
f 54/54/54 53/53/53 55/55/55
f 55/55/55 53/53/53 56/56/56
f 58/58/58 57/57/57 59/59/59
f 59/59/59 57/57/57 60/60/60
f 62/62/62 61/61/61 63/63/63
f 63/63/63 61/61/61 64/64/64
f 66/66/66 65/65/65 67/67/67
f 67/67/67 65/65/65 68/68/68
f 70/70/70 69/69/69 71/71/71
f 71/71/71 69/69/69 72/72/72
f 74/74/74 73/73/73 75/75/75
f 75/75/75 73/73/73 76/76/76
f 78/78/78 77/77/77 79/79/79
f 79/79/79 77/77/77 80/80/80
f 82/82/82 81/81/81 83/83/83
f 83/83/83 81/81/81 84/84/84
f 86/86/86 85/85/85 87/87/87
f 87/87/87 85/85/85 88/88/88
f 90/90/90 89/89/89 91/91/91
f 91/91/91 89/89/89 92/92/92
f 94/94/94 93/93/93 95/95/95
f 95/95/95 93/93/93 96/96/96
f 98/98/98 97/97/97 99/99/99
f 99/99/99 97/97/97 100/100/100
f 102/102/102 101/101/101 103/103/103
f 103/103/103 101/101/101 104/104/104
f 106/106/106 105/105/105 107/107/107
f 107/107/107 105/105/105 108/108/108
f 110/110/110 109/109/109 111/111/111
f 111/111/111 109/109/109 112/112/112
f 114/114/114 113/113/113 115/115/115
f 115/115/115 113/113/113 116/116/116
f 118/118/118 117/117/117 119/119/119
f 119/119/119 117/117/117 120/120/120
f 122/122/122 121/121/121 123/123/123
f 123/123/123 121/121/121 124/124/124
f 126/126/126 125/125/125 127/127/127
f 127/127/127 125/125/125 128/128/128
f 130/130/130 129/129/129 131/131/131
f 131/131/131 129/129/129 132/132/132
f 134/134/134 133/133/133 135/135/135
f 135/135/135 133/133/133 136/136/136
f 138/138/138 137/137/137 139/139/139
f 139/139/139 137/137/137 140/140/140
f 142/142/142 141/141/141 143/143/143
f 143/143/143 141/141/141 144/144/144
f 146/146/146 145/145/145 147/147/147
f 147/147/147 145/145/145 148/148/148
f 150/150/150 149/149/149 151/151/151
f 151/151/151 149/149/149 152/152/152
f 154/154/154 153/153/153 155/155/155
f 155/155/155 153/153/153 156/156/156
f 158/158/158 157/157/157 159/159/159
f 159/159/159 157/157/157 160/160/160
f 162/162/162 161/161/161 163/163/163
f 163/163/163 161/161/161 164/164/164
f 166/166/166 165/165/165 167/167/167
f 167/167/167 165/165/165 168/168/168
f 170/170/170 169/169/169 171/171/171
f 171/171/171 169/169/169 172/172/172
f 174/174/174 173/173/173 175/175/175
f 175/175/175 173/173/173 176/176/176
f 178/178/178 177/177/177 179/179/179
f 179/179/179 177/177/177 180/180/180
f 182/182/182 181/181/181 183/183/183
f 183/183/183 181/181/181 184/184/184
f 186/186/186 185/185/185 187/187/187
f 187/187/187 185/185/185 188/188/188
f 190/190/190 189/189/189 191/191/191
f 191/191/191 189/189/189 192/192/192
f 194/194/194 193/193/193 195/195/195
f 195/195/195 193/193/193 196/196/196
f 198/198/198 197/197/197 199/199/199
f 199/199/199 197/197/197 200/200/200
f 202/202/202 201/201/201 203/203/203
f 203/203/203 201/201/201 204/204/204
f 206/206/206 205/205/205 207/207/207
f 207/207/207 205/205/205 208/208/208
f 210/210/210 209/209/209 211/211/211
f 211/211/211 209/209/209 212/212/212
f 214/214/214 213/213/213 215/215/215
f 215/215/215 213/213/213 216/216/216
f 218/218/218 217/217/217 219/219/219
f 219/219/219 217/217/217 220/220/220
f 222/222/222 221/221/221 223/223/223
f 223/223/223 221/221/221 224/224/224
f 226/226/226 225/225/225 227/227/227
f 227/227/227 225/225/225 228/228/228
f 230/230/230 229/229/229 231/231/231
f 231/231/231 229/229/229 232/232/232
f 234/234/234 233/233/233 235/235/235
f 235/235/235 233/233/233 236/236/236
f 238/238/238 237/237/237 239/239/239
f 239/239/239 237/237/237 240/240/240
f 242/242/242 241/241/241 243/243/243
f 243/243/243 241/241/241 244/244/244
f 246/246/246 245/245/245 247/247/247
f 247/247/247 245/245/245 248/248/248
f 250/250/250 249/249/249 251/251/251
f 251/251/251 249/249/249 252/252/252
f 254/254/254 253/253/253 255/255/255
f 255/255/255 253/253/253 256/256/256
f 258/258/258 257/257/257 259/259/259
f 259/259/259 257/257/257 260/260/260
f 262/262/262 261/261/261 263/263/263
f 263/263/263 261/261/261 264/264/264
f 266/266/266 265/265/265 267/267/267
f 267/267/267 265/265/265 268/268/268
