mtllib ./bed-prison_11.mtl
g bed-prison
v -1.062045 -0.05214228 -0.2680959
v -1.050006 -0.05214228 -0.5
v -1.050006 0.04785775 -0.5
v -1.062045 0.04785775 -0.2680959
v 0.40257 -0.05214228 -0.4873695
v 1.026647 -0.05214228 -0.5
v 1.026647 0.04785775 -0.5
v 0.40257 0.0478578 -0.4873695
v -1.050006 -0.05214228 -0.5
v -1.050006 0.04785775 -0.5
v 0.40257 0.0478578 -0.4873695
v -1.062045 0.04785775 -0.2680959
v -1.050006 0.04785775 -0.5
v 0.9263945 0.04785775 -0.2680959
v 1.026647 0.04785775 -0.5
v 1.074564 0.04785775 -0.2680959
v 0.9263945 0.04785775 -0.25
v -1.0311 0.04785775 0
v -1.062045 0.04785775 -0.25
v 0.9974303 0.04785775 0
v 1.074564 0.04785775 -0.25
v 1.062491 0.04785775 -0.02299881
v -1.055774 0.04785775 0.2333292
v 0.9206266 0.04785775 0.2333292
v 1.074103 0.04785775 0.01511002
v 1.046469 0.04785775 0.2333292
v 0.40257 -0.05214228 -0.4873695
v 1.074564 -0.05214228 -0.2680959
v 1.026647 -0.05214228 -0.5
v 0.9263945 -0.05214228 -0.2680959
v -1.050006 -0.05214228 -0.5
v -1.062045 -0.05214228 -0.2680959
v 0.9263945 -0.05214228 -0.25
v 1.062491 -0.05214228 -0.02299881
v 1.074564 -0.05214228 -0.25
v 0.9974303 -0.05214228 0
v -1.062045 -0.05214228 -0.25
v -1.0311 -0.05214228 0
v 0.9206266 -0.05214228 0.2333292
v -1.055774 -0.05214228 0.2333292
v 1.046469 -0.05214228 0.2333292
v 1.074103 -0.05214228 0.01511002
v 1.026647 -0.05214228 -0.5
v 1.074564 -0.05214228 -0.2680959
v 1.074564 0.04785775 -0.2680959
v 1.026647 0.04785775 -0.5
v 1.074564 -0.05214228 -0.25
v 1.062491 -0.05214228 -0.02299881
v 1.062491 0.04785775 -0.02299881
v 1.074564 0.04785775 -0.25
v 0.9206266 -0.05214228 0.2333292
v 1.046469 0.04785775 0.2333292
v 1.046469 -0.05214228 0.2333292
v 0.9206266 0.04785775 0.2333292
v -1.055774 -0.05214228 0.2333292
v -1.055774 0.04785775 0.2333292
v -1.055774 -0.05214228 0.2333292
v -1.0311 -0.05214228 0
v -1.0311 0.04785775 0
v -1.055774 0.04785775 0.2333292
v -1.0311 -0.05214228 0
v -1.062045 -0.05214228 -0.25
v -1.062045 0.04785775 -0.25
v -1.0311 0.04785775 0
v 1.074103 -0.05214228 0.01511002
v 1.046469 -0.05214228 0.2333292
v 1.046469 0.04785775 0.2333292
v 1.074103 0.04785775 0.01511002
v 0.9974303 0.04785775 0
v 0.9974303 -0.05214228 0
v 1.074103 -0.05214228 0.01511002
v 1.074103 0.04785775 0.01511002
v 1.062491 -0.05214228 -0.02299881
v 0.9974303 -0.05214228 0
v 0.9974303 0.04785775 0
v 1.062491 0.04785775 -0.02299881
v -1.062045 -0.05214228 -0.2680959
v -1.062045 0.04785775 -0.2680959
v 0.9263945 0.04785775 -0.2680959
v 0.9263945 -0.05214228 -0.2680959
v 1.074564 -0.05214228 -0.2680959
v 1.074564 0.04785775 -0.2680959
v 0.9571311 0.5549924 -0.3340377
v 0.9233582 0.5309756 -0.3580544
v 0.9169767 0.7228342 -0.524404
v 0.9571311 0.7510886 -0.4959416
v 0.9233582 0.5309756 -0.3580544
v 0.9571311 0.5072257 -0.3818042
v 0.9571311 0.6945246 -0.5529372
v 0.9169767 0.7228342 -0.524404
v 0.9571311 0.5072257 -0.3818042
v 0.990904 0.5309756 -0.3580543
v 0.9972854 0.7228342 -0.5244039
v 0.9571311 0.6945246 -0.5529372
v 0.990904 0.5309756 -0.3580543
v 0.9571311 0.5549924 -0.3340377
v 0.9571311 0.7510886 -0.4959416
v 0.9972854 0.7228342 -0.5244039
v 0.9571311 0.6945246 -0.5529372
v 0.9972854 0.7228342 -0.5244039
v 0.9571311 0.7510886 -0.4959416
v 0.9169767 0.7228342 -0.524404
v -0.9772354 0.5549924 -0.3340377
v -1.011008 0.5309756 -0.3580544
v -1.01739 0.7228342 -0.524404
v -0.9772354 0.7510886 -0.4959416
v -1.011008 0.5309756 -0.3580544
v -0.9772354 0.5072257 -0.3818042
v -0.9772354 0.6945245 -0.5529372
v -1.01739 0.7228342 -0.524404
v -0.9772354 0.5072257 -0.3818042
v -0.9434625 0.5309756 -0.3580543
v -0.937081 0.7228342 -0.5244039
v -0.9772354 0.6945245 -0.5529372
v -0.9434625 0.5309756 -0.3580543
v -0.9772354 0.5549924 -0.3340377
v -0.9772354 0.7510886 -0.4959416
v -0.937081 0.7228342 -0.5244039
v -0.9772354 0.6945245 -0.5529372
v -0.937081 0.7228342 -0.5244039
v -0.9772354 0.7510886 -0.4959416
v -1.01739 0.7228342 -0.524404
v -0.9360644 0.01355378 0.1849214
v -0.9772354 0.04280163 0.2136084
v -0.9772354 0.2014392 0.01951534
v -0.9434625 0.1774226 -0.004501245
v -0.9434625 0.1774226 -0.004501245
v -0.9772354 0.2014392 0.01951534
v -0.9772354 0.3959641 -0.1395128
v -0.9360616 0.3669761 -0.1685008
v -0.9360616 0.3669761 -0.1685008
v -0.9772354 0.3959641 -0.1395128
v -0.9772354 0.5549924 -0.3340377
v -0.9434625 0.5309756 -0.3580543
v -0.9772354 -0.01598747 0.1559805
v -0.9360644 0.01355378 0.1849214
v -0.9434625 0.1774226 -0.004501245
v -0.9772354 0.1536726 -0.02825113
v -0.9772354 0.1536726 -0.02825113
v -0.9434625 0.1774226 -0.004501245
v -0.9360616 0.3669761 -0.1685008
v -0.9772354 0.3377314 -0.1977454
v -0.9772354 0.3377314 -0.1977454
v -0.9360616 0.3669761 -0.1685008
v -0.9434625 0.5309756 -0.3580543
v -0.9772354 0.5072257 -0.3818042
v -1.018406 0.01355378 0.1849213
v -0.9772354 -0.01598747 0.1559805
v -0.9772354 0.1536726 -0.02825113
v -1.011008 0.1774226 -0.004501319
v -1.011008 0.1774226 -0.004501319
v -0.9772354 0.1536726 -0.02825113
v -0.9772354 0.3377314 -0.1977454
v -1.018409 0.3669761 -0.1685009
v -1.018409 0.3669761 -0.1685009
v -0.9772354 0.3377314 -0.1977454
v -0.9772354 0.5072257 -0.3818042
v -1.011008 0.5309756 -0.3580544
v -0.9772354 0.04280163 0.2136084
v -1.018406 0.01355378 0.1849213
v -1.011008 0.1774226 -0.004501319
v -0.9772354 0.2014392 0.01951534
v -0.9772354 0.2014392 0.01951534
v -1.011008 0.1774226 -0.004501319
v -1.018409 0.3669761 -0.1685009
v -0.9772354 0.3959641 -0.1395128
v -0.9772354 0.3959641 -0.1395128
v -1.018409 0.3669761 -0.1685009
v -1.011008 0.5309756 -0.3580544
v -0.9772354 0.5549924 -0.3340377
v 0.998302 0.01355378 0.1849214
v 0.9571311 0.04280163 0.2136084
v 0.9571311 0.2014392 0.01951534
v 0.990904 0.1774226 -0.004501245
v 0.990904 0.1774226 -0.004501245
v 0.9571311 0.2014392 0.01951534
v 0.9571311 0.3959641 -0.1395128
v 0.9983049 0.3669761 -0.1685008
v 0.9983049 0.3669761 -0.1685008
v 0.9571311 0.3959641 -0.1395128
v 0.9571311 0.5549924 -0.3340377
v 0.990904 0.5309756 -0.3580543
v 0.9571311 -0.01598747 0.1559805
v 0.998302 0.01355378 0.1849214
v 0.990904 0.1774226 -0.004501245
v 0.9571311 0.1536726 -0.02825113
v 0.9571311 0.1536726 -0.02825113
v 0.990904 0.1774226 -0.004501245
v 0.9983049 0.3669761 -0.1685008
v 0.9571311 0.3377314 -0.1977454
v 0.9571311 0.3377314 -0.1977454
v 0.9983049 0.3669761 -0.1685008
v 0.990904 0.5309756 -0.3580543
v 0.9571311 0.5072257 -0.3818042
v 0.9159601 0.01355378 0.1849213
v 0.9571311 -0.01598747 0.1559805
v 0.9571311 0.1536726 -0.02825113
v 0.9233582 0.1774226 -0.004501319
v 0.9233582 0.1774226 -0.004501319
v 0.9571311 0.1536726 -0.02825113
v 0.9571311 0.3377314 -0.1977454
v 0.9159572 0.3669761 -0.1685009
v 0.9159572 0.3669761 -0.1685009
v 0.9571311 0.3377314 -0.1977454
v 0.9571311 0.5072257 -0.3818042
v 0.9233582 0.5309756 -0.3580544
v 0.9571311 0.04280163 0.2136084
v 0.9159601 0.01355378 0.1849213
v 0.9233582 0.1774226 -0.004501319
v 0.9571311 0.2014392 0.01951534
v 0.9571311 0.2014392 0.01951534
v 0.9233582 0.1774226 -0.004501319
v 0.9159572 0.3669761 -0.1685009
v 0.9571311 0.3959641 -0.1395128
v 0.9571311 0.3959641 -0.1395128
v 0.9159572 0.3669761 -0.1685009
v 0.9233582 0.5309756 -0.3580544
v 0.9571311 0.5549924 -0.3340377

vn -0.9986552 0 -0.05184459
vn -0.9986552 0 -0.05184459
vn -0.9986552 0 -0.05184459
vn -0.9986552 0 -0.05184459
vn -0.02023449 0 -0.9997953
vn -0.02023449 0 -0.9997953
vn -0.02023449 0 -0.9997953
vn -0.02023449 0 -0.9997953
vn 0.008694887 0 -0.9999622
vn 0.008694887 0 -0.9999622
vn 0 1 1.523921E-07
vn 0 1 1.523921E-07
vn 0 1 1.523921E-07
vn 0 1 1.523921E-07
vn 0 1 0
vn 0 1 0
vn 0 1 0
vn 0 1 0
vn 0 1 0
vn 0 1 0
vn 0 1 0
vn 0 1 0
vn 0 1 0
vn 0 1 0
vn 0 1 0
vn 0 1 0
vn 0 -1 0
vn 0 -1 0
vn 0 -1 0
vn 0 -1 0
vn 0 -1 0
vn 0 -1 0
vn 0 -1 0
vn 0 -1 0
vn 0 -1 0
vn 0 -1 0
vn 0 -1 0
vn 0 -1 0
vn 0 -1 0
vn 0 -1 0
vn 0 -1 0
vn 0 -1 0
vn 0.9793134 0 -0.2023495
vn 0.9793134 0 -0.2023495
vn 0.9793134 0 -0.2023495
vn 0.9793134 0 -0.2023495
vn 0.9985886 0 0.05310899
vn 0.9985886 0 0.05310899
vn 0.9985886 0 0.05310899
vn 0.9985886 0 0.05310899
vn 0 0 1
vn 0 0 1
vn 0 0 1
vn 0 0 1
vn 0 0 1
vn 0 0 1
vn -0.9944554 0 -0.1051591
vn -0.9944554 0 -0.1051591
vn -0.9944554 0 -0.1051591
vn -0.9944554 0 -0.1051591
vn -0.9924263 0 0.122842
vn -0.9924263 0 0.122842
vn -0.9924263 0 0.122842
vn -0.9924263 0 0.122842
vn 0.9920772 0 0.1256294
vn 0.9920772 0 0.1256294
vn 0.9920772 0 0.1256294
vn 0.9920772 0 0.1256294
vn 0.1933531 0 -0.9811292
vn 0.1933531 0 -0.9811292
vn 0.1933531 0 -0.9811292
vn 0.1933531 0 -0.9811292
vn 0.333287 0 0.9428254
vn 0.333287 0 0.9428254
vn 0.333287 0 0.9428254
vn 0.333287 0 0.9428254
vn 0 0 1
vn 0 0 1
vn 0 0 1
vn 0 0 1
vn 0 0 1
vn 0 0 1
vn -0.706232 0.4504957 0.5461594
vn -0.706232 0.4504957 0.5461594
vn -0.706232 0.4504957 0.5461594
vn -0.706232 0.4504957 0.5461594
vn -0.7060753 -0.4774074 -0.5230104
vn -0.7060753 -0.4774074 -0.5230104
vn -0.7060753 -0.4774074 -0.5230104
vn -0.7060753 -0.4774074 -0.5230104
vn 0.7060769 -0.4774069 -0.5230088
vn 0.7060769 -0.4774069 -0.5230088
vn 0.7060769 -0.4774069 -0.5230088
vn 0.7060769 -0.4774069 -0.5230088
vn 0.7062311 0.4504962 0.54616
vn 0.7062311 0.4504962 0.54616
vn 0.7062311 0.4504962 0.54616
vn 0.7062311 0.4504962 0.54616
vn 1.155357E-06 0.7097881 -0.7044151
vn 1.155357E-06 0.7097881 -0.7044151
vn 1.155357E-06 0.7097881 -0.7044151
vn 1.155357E-06 0.7097881 -0.7044151
vn -0.7062321 0.4504955 0.5461594
vn -0.7062321 0.4504955 0.5461594
vn -0.7062321 0.4504955 0.5461594
vn -0.7062321 0.4504955 0.5461594
vn -0.7060754 -0.4774071 -0.5230106
vn -0.7060754 -0.4774071 -0.5230106
vn -0.7060754 -0.4774071 -0.5230106
vn -0.7060754 -0.4774071 -0.5230106
vn 0.7060761 -0.4774068 -0.5230098
vn 0.7060761 -0.4774068 -0.5230098
vn 0.7060761 -0.4774068 -0.5230098
vn 0.7060761 -0.4774068 -0.5230098
vn 0.7062311 0.4504962 0.54616
vn 0.7062311 0.4504962 0.54616
vn 0.7062311 0.4504962 0.54616
vn 0.7062311 0.4504962 0.54616
vn 1.155357E-06 0.7097881 -0.7044151
vn 1.155357E-06 0.7097881 -0.7044151
vn 1.155357E-06 0.7097881 -0.7044151
vn 1.155357E-06 0.7097881 -0.7044151
vn 0.70543 0.5491141 0.4481542
vn 0.70543 0.5491141 0.4481542
vn 0.70543 0.5491141 0.4481542
vn 0.70543 0.5491141 0.4481542
vn 0.7053668 0.4482442 0.5491217
vn 0.7053668 0.4482442 0.5491217
vn 0.7053668 0.4482442 0.5491217
vn 0.7053668 0.4482442 0.5491217
vn 0.7053677 0.5491205 0.4482443
vn 0.7053677 0.5491205 0.4482443
vn 0.7053677 0.5491205 0.4482443
vn 0.7053677 0.5491205 0.4482443
vn 0.7068645 -0.5206916 -0.4787724
vn 0.7068645 -0.5206916 -0.4787724
vn 0.7068645 -0.5206916 -0.4787724
vn 0.7068645 -0.5206916 -0.4787724
vn 0.7067913 -0.4788255 -0.520742
vn 0.7067913 -0.4788255 -0.520742
vn 0.7067913 -0.4788255 -0.520742
vn 0.7067913 -0.4788255 -0.520742
vn 0.7067908 -0.5207419 -0.4788263
vn 0.7067908 -0.5207419 -0.4788263
vn 0.7067908 -0.5207419 -0.4788263
vn 0.7067908 -0.5207419 -0.4788263
vn -0.7068651 -0.5206919 -0.4787711
vn -0.7068651 -0.5206919 -0.4787711
vn -0.7068651 -0.5206919 -0.4787711
vn -0.7068651 -0.5206919 -0.4787711
vn -0.7067908 -0.4788257 -0.5207426
vn -0.7067908 -0.4788257 -0.5207426
vn -0.7067908 -0.4788257 -0.5207426
vn -0.7067908 -0.4788257 -0.5207426
vn -0.7067904 -0.5207421 -0.4788267
vn -0.7067904 -0.5207421 -0.4788267
vn -0.7067904 -0.5207421 -0.4788267
vn -0.7067904 -0.5207421 -0.4788267
vn -0.7054312 0.5491133 0.4481532
vn -0.7054312 0.5491133 0.4481532
vn -0.7054312 0.5491133 0.4481532
vn -0.7054312 0.5491133 0.4481532
vn -0.7053679 0.4482435 0.5491211
vn -0.7053679 0.4482435 0.5491211
vn -0.7053679 0.4482435 0.5491211
vn -0.7053679 0.4482435 0.5491211
vn -0.7053685 0.5491198 0.448244
vn -0.7053685 0.5491198 0.448244
vn -0.7053685 0.5491198 0.448244
vn -0.7053685 0.5491198 0.448244
vn 0.70543 0.5491141 0.4481542
vn 0.70543 0.5491141 0.4481542
vn 0.70543 0.5491141 0.4481542
vn 0.70543 0.5491141 0.4481542
vn 0.7053663 0.448244 0.5491225
vn 0.7053663 0.448244 0.5491225
vn 0.7053663 0.448244 0.5491225
vn 0.7053663 0.448244 0.5491225
vn 0.7053677 0.5491205 0.4482443
vn 0.7053677 0.5491205 0.4482443
vn 0.7053677 0.5491205 0.4482443
vn 0.7053677 0.5491205 0.4482443
vn 0.7068648 -0.5206918 -0.4787716
vn 0.7068648 -0.5206918 -0.4787716
vn 0.7068648 -0.5206918 -0.4787716
vn 0.7068648 -0.5206918 -0.4787716
vn 0.7067913 -0.4788255 -0.520742
vn 0.7067913 -0.4788255 -0.520742
vn 0.7067913 -0.4788255 -0.520742
vn 0.7067913 -0.4788255 -0.520742
vn 0.7067908 -0.5207419 -0.4788263
vn 0.7067908 -0.5207419 -0.4788263
vn 0.7067908 -0.5207419 -0.4788263
vn 0.7067908 -0.5207419 -0.4788263
vn -0.7068641 -0.5206918 -0.4787726
vn -0.7068641 -0.5206918 -0.4787726
vn -0.7068641 -0.5206918 -0.4787726
vn -0.7068641 -0.5206918 -0.4787726
vn -0.7067906 -0.478826 -0.5207425
vn -0.7067906 -0.478826 -0.5207425
vn -0.7067906 -0.478826 -0.5207425
vn -0.7067906 -0.478826 -0.5207425
vn -0.7067903 -0.5207423 -0.4788267
vn -0.7067903 -0.5207423 -0.4788267
vn -0.7067903 -0.5207423 -0.4788267
vn -0.7067903 -0.5207423 -0.4788267
vn -0.7054308 0.549114 0.4481529
vn -0.7054308 0.549114 0.4481529
vn -0.7054308 0.549114 0.4481529
vn -0.7054308 0.549114 0.4481529
vn -0.7053677 0.4482437 0.549121
vn -0.7053677 0.4482437 0.549121
vn -0.7053677 0.4482437 0.549121
vn -0.7053677 0.4482437 0.549121
vn -0.7053683 0.5491201 0.4482439
vn -0.7053683 0.5491201 0.4482439
vn -0.7053683 0.5491201 0.4482439
vn -0.7053683 0.5491201 0.4482439

vt 0.3946028 0.7977654
vt 0.3848941 0.7977637
vt 0.3848934 0.8019446
vt 0.3946021 0.8019463
vt 0.3282312 0.8436238
vt 0.3521807 0.8440374
vt 0.352255 0.8398834
vt 0.3282526 0.8394415
vt 0.2696247 0.8440629
vt 0.2695934 0.8398845
vt 0.3282526 0.8394415
vt 0.2691022 0.8302453
vt 0.2695934 0.8398845
vt 0.348062 0.8302487
vt 0.352255 0.8398834
vt 0.3542361 0.8302401
vt 0.3382999 0.8160053
vt 0.2606865 0.8055593
vt 0.2593935 0.8160053
vt 0.3412681 0.8055593
vt 0.344491 0.8160053
vt 0.3439866 0.8065203
vt 0.2596555 0.7958099
vt 0.3380589 0.7958099
vt 0.3444718 0.8049279
vt 0.3433172 0.7958099
vt 0.3282662 0.8169069
vt 0.3542365 0.826072
vt 0.352241 0.8163952
vt 0.3480575 0.8260733
vt 0.2696085 0.8163659
vt 0.2691029 0.8260643
vt 0.3383 0.771436
vt 0.3439866 0.780921
vt 0.344491 0.771436
vt 0.3412681 0.781882
vt 0.2593935 0.771436
vt 0.2606865 0.781882
vt 0.3380589 0.7916315
vt 0.2596555 0.7916315
vt 0.3433172 0.7916315
vt 0.3444718 0.7825134
vt 0.4896066 0.797774
vt 0.4797364 0.797773
vt 0.479736 0.8019412
vt 0.4896062 0.8019421
vt 0.4150819 0.8246498
vt 0.4055835 0.8246498
vt 0.4055835 0.8288282
vt 0.4150819 0.8288282
vt 0.3380589 0.7916315
vt 0.3433172 0.7958099
vt 0.3433172 0.7916315
vt 0.3380589 0.7958099
vt 0.2596555 0.7916315
vt 0.2596555 0.7958099
vt 0.3848934 0.8288282
vt 0.3946972 0.8288282
vt 0.3946972 0.8246498
vt 0.3848934 0.8246498
vt 0.3946972 0.8288282
vt 0.4052229 0.8288283
vt 0.4052229 0.8246499
vt 0.3946972 0.8246498
vt 0.4246334 0.8246498
vt 0.4154425 0.8246498
vt 0.4154425 0.8288282
vt 0.4246334 0.8288282
vt 0.3027593 0.8571272
vt 0.3027593 0.8529488
vt 0.299494 0.8529488
vt 0.299494 0.8571272
vt 0.3056427 0.8529488
vt 0.3027593 0.8529488
vt 0.3027593 0.8571272
vt 0.3056427 0.8571272
vt 0.2691029 0.8260643
vt 0.2691022 0.8302453
vt 0.348062 0.8302487
vt 0.3480575 0.8260733
vt 0.3542365 0.826072
vt 0.3542361 0.8302401
vt 0.1020957 0.6911066
vt 0.1020964 0.6928324
vt 0.1127808 0.6930301
vt 0.1116096 0.6911341
vt 0.1020964 0.6928324
vt 0.1020934 0.6945246
vt 0.1126002 0.6950981
vt 0.1127808 0.6930301
vt 0.1021131 0.6876885
vt 0.1021064 0.6893808
vt 0.1127917 0.6892449
vt 0.1126231 0.6871759
vt 0.1021064 0.6893808
vt 0.1020957 0.6911066
vt 0.1116096 0.6911341
vt 0.1127917 0.6892449
vt 0.1146788 0.691143
vt 0.1127917 0.6892449
vt 0.1116096 0.6911341
vt 0.1127808 0.6930301
vt 0.05738555 0.6911066
vt 0.05738623 0.6928324
vt 0.06807064 0.6930301
vt 0.06689943 0.6911341
vt 0.05738623 0.6928324
vt 0.05738319 0.6945246
vt 0.06789003 0.6950981
vt 0.06807064 0.6930301
vt 0.05740295 0.6876885
vt 0.05739622 0.6893808
vt 0.06808157 0.6892449
vt 0.06791295 0.6871759
vt 0.05739622 0.6893808
vt 0.05738555 0.6911066
vt 0.06689943 0.6911341
vt 0.06808157 0.6892449
vt 0.06996872 0.691143
vt 0.06808157 0.6892449
vt 0.06689943 0.6911341
vt 0.06807064 0.6930301
vt 0.02575476 0.6889993
vt 0.0256191 0.6910148
vt 0.0364375 0.691046
vt 0.03644679 0.689315
vt 0.03644679 0.689315
vt 0.0364375 0.691046
vt 0.04692166 0.6910763
vt 0.04692741 0.6891456
vt 0.04692741 0.6891456
vt 0.04692166 0.6910763
vt 0.05738555 0.6911066
vt 0.05739622 0.6893808
vt 0.02595793 0.6869333
vt 0.02575476 0.6889993
vt 0.03644679 0.689315
vt 0.03645964 0.6876201
vt 0.03645964 0.6876201
vt 0.03644679 0.689315
vt 0.04692741 0.6891456
vt 0.04693393 0.6870984
vt 0.04693393 0.6870984
vt 0.04692741 0.6891456
vt 0.05739622 0.6893808
vt 0.05740295 0.6876885
vt 0.02574311 0.6930309
vt 0.02593432 0.6950981
vt 0.03643982 0.694472
vt 0.03643678 0.692777
vt 0.03643678 0.692777
vt 0.03643982 0.694472
vt 0.04691096 0.6950543
vt 0.04691623 0.6930071
vt 0.04691623 0.6930071
vt 0.04691096 0.6950543
vt 0.05738319 0.6945246
vt 0.05738623 0.6928324
vt 0.0256191 0.6910148
vt 0.02574311 0.6930309
vt 0.03643678 0.692777
vt 0.0364375 0.691046
vt 0.0364375 0.691046
vt 0.03643678 0.692777
vt 0.04691623 0.6930071
vt 0.04692166 0.6910763
vt 0.04692166 0.6910763
vt 0.04691623 0.6930071
vt 0.05738623 0.6928324
vt 0.05738555 0.6911066
vt 0.07046492 0.6889993
vt 0.07032926 0.6910148
vt 0.08114766 0.691046
vt 0.08115695 0.689315
vt 0.08115695 0.689315
vt 0.08114766 0.691046
vt 0.09163181 0.6910763
vt 0.09163757 0.6891456
vt 0.09163757 0.6891456
vt 0.09163181 0.6910763
vt 0.1020957 0.6911066
vt 0.1021064 0.6893808
vt 0.07066809 0.6869333
vt 0.07046492 0.6889993
vt 0.08115695 0.689315
vt 0.0811698 0.6876201
vt 0.0811698 0.6876201
vt 0.08115695 0.689315
vt 0.09163757 0.6891456
vt 0.09164409 0.6870984
vt 0.09164409 0.6870984
vt 0.09163757 0.6891456
vt 0.1021064 0.6893808
vt 0.1021131 0.6876885
vt 0.07045327 0.6930309
vt 0.07064448 0.6950981
vt 0.08114998 0.694472
vt 0.08114694 0.692777
vt 0.08114694 0.692777
vt 0.08114998 0.694472
vt 0.09162109 0.6950543
vt 0.09162639 0.6930071
vt 0.09162639 0.6930071
vt 0.09162109 0.6950543
vt 0.1020934 0.6945246
vt 0.1020964 0.6928324
vt 0.07032926 0.6910148
vt 0.07045327 0.6930309
vt 0.08114694 0.692777
vt 0.08114766 0.691046
vt 0.08114766 0.691046
vt 0.08114694 0.692777
vt 0.09162639 0.6930071
vt 0.09163181 0.6910763
vt 0.09163181 0.6910763
vt 0.09162639 0.6930071
vt 0.1020964 0.6928324
vt 0.1020957 0.6911066

usemtl LOW-POLY-COLORS
usemap LOW-POLY-COLORS
f 2/2/2 1/1/1 3/3/3
f 3/3/3 1/1/1 4/4/4
f 6/6/6 5/5/5 7/7/7
f 7/7/7 5/5/5 8/8/8
f 5/5/5 9/9/9 8/8/8
f 8/8/8 9/9/9 10/10/10
f 12/12/12 11/11/11 13/13/13
f 14/14/14 11/11/11 12/12/12
f 14/14/14 15/15/15 11/11/11
f 16/16/16 15/15/15 14/14/14
f 18/18/18 17/17/17 19/19/19
f 20/20/20 17/17/17 18/18/18
f 20/20/20 21/21/21 17/17/17
f 22/22/22 21/21/21 20/20/20
f 23/23/23 20/20/20 18/18/18
f 24/24/24 20/20/20 23/23/23
f 24/24/24 25/25/25 20/20/20
f 26/26/26 25/25/25 24/24/24
f 28/28/28 27/27/27 29/29/29
f 30/30/30 27/27/27 28/28/28
f 30/30/30 31/31/31 27/27/27
f 32/32/32 31/31/31 30/30/30
f 34/34/34 33/33/33 35/35/35
f 36/36/36 33/33/33 34/34/34
f 36/36/36 37/37/37 33/33/33
f 38/38/38 37/37/37 36/36/36
f 39/39/39 38/38/38 36/36/36
f 40/40/40 38/38/38 39/39/39
f 39/39/39 36/36/36 41/41/41
f 41/41/41 36/36/36 42/42/42
f 44/44/44 43/43/43 45/45/45
f 45/45/45 43/43/43 46/46/46
f 48/48/48 47/47/47 49/49/49
f 49/49/49 47/47/47 50/50/50
f 52/52/52 51/51/51 53/53/53
f 54/54/54 51/51/51 52/52/52
f 54/54/54 55/55/55 51/51/51
f 56/56/56 55/55/55 54/54/54
f 58/58/58 57/57/57 59/59/59
f 59/59/59 57/57/57 60/60/60
f 62/62/62 61/61/61 63/63/63
f 63/63/63 61/61/61 64/64/64
f 66/66/66 65/65/65 67/67/67
f 67/67/67 65/65/65 68/68/68
f 70/70/70 69/69/69 71/71/71
f 71/71/71 69/69/69 72/72/72
f 74/74/74 73/73/73 75/75/75
f 75/75/75 73/73/73 76/76/76
f 78/78/78 77/77/77 79/79/79
f 79/79/79 77/77/77 80/80/80
f 80/80/80 81/81/81 79/79/79
f 79/79/79 81/81/81 82/82/82
f 84/84/84 83/83/83 85/85/85
f 85/85/85 83/83/83 86/86/86
f 88/88/88 87/87/87 89/89/89
f 89/89/89 87/87/87 90/90/90
f 92/92/92 91/91/91 93/93/93
f 93/93/93 91/91/91 94/94/94
f 96/96/96 95/95/95 97/97/97
f 97/97/97 95/95/95 98/98/98
f 100/100/100 99/99/99 101/101/101
f 101/101/101 99/99/99 102/102/102
f 104/104/104 103/103/103 105/105/105
f 105/105/105 103/103/103 106/106/106
f 108/108/108 107/107/107 109/109/109
f 109/109/109 107/107/107 110/110/110
f 112/112/112 111/111/111 113/113/113
f 113/113/113 111/111/111 114/114/114
f 116/116/116 115/115/115 117/117/117
f 117/117/117 115/115/115 118/118/118
f 120/120/120 119/119/119 121/121/121
f 121/121/121 119/119/119 122/122/122
f 124/124/124 123/123/123 125/125/125
f 125/125/125 123/123/123 126/126/126
f 128/128/128 127/127/127 129/129/129
f 129/129/129 127/127/127 130/130/130
f 132/132/132 131/131/131 133/133/133
f 133/133/133 131/131/131 134/134/134
f 136/136/136 135/135/135 137/137/137
f 137/137/137 135/135/135 138/138/138
f 140/140/140 139/139/139 141/141/141
f 141/141/141 139/139/139 142/142/142
f 144/144/144 143/143/143 145/145/145
f 145/145/145 143/143/143 146/146/146
f 148/148/148 147/147/147 149/149/149
f 149/149/149 147/147/147 150/150/150
f 152/152/152 151/151/151 153/153/153
f 153/153/153 151/151/151 154/154/154
f 156/156/156 155/155/155 157/157/157
f 157/157/157 155/155/155 158/158/158
f 160/160/160 159/159/159 161/161/161
f 161/161/161 159/159/159 162/162/162
f 164/164/164 163/163/163 165/165/165
f 165/165/165 163/163/163 166/166/166
f 168/168/168 167/167/167 169/169/169
f 169/169/169 167/167/167 170/170/170
f 172/172/172 171/171/171 173/173/173
f 173/173/173 171/171/171 174/174/174
f 176/176/176 175/175/175 177/177/177
f 177/177/177 175/175/175 178/178/178
f 180/180/180 179/179/179 181/181/181
f 181/181/181 179/179/179 182/182/182
f 184/184/184 183/183/183 185/185/185
f 185/185/185 183/183/183 186/186/186
f 188/188/188 187/187/187 189/189/189
f 189/189/189 187/187/187 190/190/190
f 192/192/192 191/191/191 193/193/193
f 193/193/193 191/191/191 194/194/194
f 196/196/196 195/195/195 197/197/197
f 197/197/197 195/195/195 198/198/198
f 200/200/200 199/199/199 201/201/201
f 201/201/201 199/199/199 202/202/202
f 204/204/204 203/203/203 205/205/205
f 205/205/205 203/203/203 206/206/206
f 208/208/208 207/207/207 209/209/209
f 209/209/209 207/207/207 210/210/210
f 212/212/212 211/211/211 213/213/213
f 213/213/213 211/211/211 214/214/214
f 216/216/216 215/215/215 217/217/217
f 217/217/217 215/215/215 218/218/218
