mtllib ./bench-wood_13.mtl
g bench-wood
v 1.012045 0.7877808 -0.199465
v 1.000006 1.033967 -0.2429684
v 1.000006 1.016565 -0.3414427
v 1.012045 0.7703795 -0.2979393
v -0.40257 1.049292 -0.2456764
v -1.002237 1.033967 -0.2429682
v -1.002237 1.016565 -0.3414424
v -0.40257 1.031891 -0.3441508
v -1.002237 0.7635167 -0.2002981
v -1.002237 0.5173309 -0.1567948
v -1.002237 0.4999295 -0.2552692
v -1.002237 0.7461153 -0.2987725
v -1.002237 0.5173309 -0.1567948
v 1.000006 0.5173309 -0.156795
v 1.000006 0.4999295 -0.2552693
v -1.002237 0.4999295 -0.2552692
v 1.000006 0.7635167 -0.2002983
v 1.000006 0.5173309 -0.156795
v -1.002237 0.5173309 -0.1567948
v -1.002237 0.7635167 -0.2002981
v -1.002237 0.7461153 -0.2987725
v -1.002237 0.4999295 -0.2552692
v 1.000006 0.4999295 -0.2552693
v 1.000006 0.7461153 -0.2987727
v -0.40257 1.031891 -0.3441508
v -0.8763944 0.7703795 -0.2979392
v 1.012045 0.7703795 -0.2979393
v 1.000006 1.016565 -0.3414427
v -0.9901979 0.5000004 0.272855
v 0.9811004 0.5000004 0.004669312
v 1.012045 0.5000004 0.2728547
v -0.9474303 0.5000004 0.004669481
v -1.012491 0.5000004 0.02934128
v 1.005774 0.5000004 -0.2456327
v -0.9964693 0.5000004 -0.2456325
v -1.024103 0.5000004 -0.01153967
v -0.40257 1.049292 -0.2456764
v -0.8763944 0.7877808 -0.1994648
v -0.9901978 0.7877808 -0.1994648
v -1.002237 1.033967 -0.2429682
v 1.000006 1.033967 -0.2429684
v -0.8763944 0.7877808 -0.1994648
v 1.012045 0.7877808 -0.199465
v -0.9901979 0.4000004 0.272855
v -0.9474303 0.4000004 0.004669481
v -1.012491 0.4000004 0.02934128
v 1.012045 0.4000004 0.2728547
v 0.9811004 0.4000004 0.004669312
v -0.9964693 0.4000004 -0.2456325
v 1.005774 0.4000004 -0.2456327
v -1.024103 0.4000004 -0.01153967
v -1.002237 1.033967 -0.2429682
v -0.9901978 0.7877808 -0.1994648
v -0.9901978 0.7703795 -0.2979392
v -1.002237 1.016565 -0.3414424
v -0.9901979 0.4000004 0.272855
v -1.012491 0.4000004 0.02934128
v -1.012491 0.5000004 0.02934128
v -0.9901979 0.5000004 0.272855
v -0.9901979 0.4000004 0.272855
v -0.9901979 0.5000004 0.272855
v 1.012045 0.5000004 0.2728547
v 1.012045 0.4000004 0.2728547
v 1.000006 0.5173309 -0.156795
v 1.000006 0.7635167 -0.2002983
v 1.000006 0.7461153 -0.2987727
v 1.000006 0.4999295 -0.2552693
v 1.005774 0.4000004 -0.2456327
v 0.9811004 0.4000004 0.004669312
v 0.9811004 0.5000004 0.004669312
v 1.005774 0.5000004 -0.2456327
v 0.9811004 0.4000004 0.004669312
v 1.012045 0.4000004 0.2728547
v 1.012045 0.5000004 0.2728547
v 0.9811004 0.5000004 0.004669312
v -1.024103 0.4000004 -0.01153967
v -0.9964693 0.4000004 -0.2456325
v -0.9964693 0.5000004 -0.2456325
v -1.024103 0.5000004 -0.01153967
v 1.000006 0.7461153 -0.2987727
v 1.000006 0.7635167 -0.2002983
v -1.002237 0.7635167 -0.2002981
v -1.002237 0.7461153 -0.2987725
v -0.8174303 0 0.1449978
v -0.8174303 0 0.255
v -0.8224303 0.4000004 0.2499999
v -0.8224303 0.4000004 0.1499979
v -0.8174303 0 0.255
v -0.9274309 0 0.2550001
v -0.9224308 0.4000004 0.2499999
v -0.8224303 0.4000004 0.2499999
v -0.9274309 0 0.2550001
v -0.9274309 0 0.1449978
v -0.9224308 0.4000004 0.1499979
v -0.9224308 0.4000004 0.2499999
v -0.9274309 0 0.1449978
v -0.8174303 0 0.1449978
v -0.8224303 0.4000004 0.1499979
v -0.9224308 0.4000004 0.1499979
v -0.8174303 0 0.255
v -0.8174303 0 0.1449978
v -0.9274309 0 0.1449978
v -0.9274309 0 0.2550001
v 0.9147934 0 0.1449977
v 0.9147934 0 0.2549998
v 0.9097934 0.4000004 0.2499998
v 0.9097934 0.4000004 0.1499978
v 0.9147934 0 0.2549998
v 0.8047928 0 0.2549999
v 0.8097928 0.4000004 0.2499998
v 0.9097934 0.4000004 0.2499998
v 0.8047928 0 0.2549999
v 0.8047928 0 0.1449977
v 0.8097928 0.4000004 0.1499978
v 0.8097928 0.4000004 0.2499998
v 0.8047928 0 0.1449977
v 0.9147934 0 0.1449977
v 0.9097934 0.4000004 0.1499978
v 0.8097928 0.4000004 0.1499978
v 0.9147934 0 0.2549998
v 0.9147934 0 0.1449977
v 0.8047928 0 0.1449977
v 0.8047928 0 0.2549999
v -0.8174303 0 -0.2383296
v -0.8174303 0 -0.1283275
v -0.8224303 0.4000004 -0.1333276
v -0.8224303 0.4000004 -0.2333295
v -0.8174303 0 -0.1283275
v -0.9274309 0 -0.1283275
v -0.9224308 0.4000004 -0.1333276
v -0.8224303 0.4000004 -0.1333276
v -0.9274309 0 -0.1283275
v -0.9274309 0 -0.2383296
v -0.9224308 0.4000004 -0.2333295
v -0.9224308 0.4000004 -0.1333276
v -0.9274309 0 -0.2383296
v -0.8174303 0 -0.2383296
v -0.8224303 0.4000004 -0.2333295
v -0.9224308 0.4000004 -0.2333295
v -0.8174303 0 -0.1283275
v -0.8174303 0 -0.2383296
v -0.9274309 0 -0.2383296
v -0.9274309 0 -0.1283275
v 0.9147934 0 -0.2383298
v 0.9147934 0 -0.1283276
v 0.9097934 0.4000004 -0.1333277
v 0.9097934 0.4000004 -0.2333297
v 0.9147934 0 -0.1283276
v 0.8047928 0 -0.1283276
v 0.8097928 0.4000004 -0.1333277
v 0.9097934 0.4000004 -0.1333277
v 0.8047928 0 -0.1283276
v 0.8047928 0 -0.2383298
v 0.8097928 0.4000004 -0.2333297
v 0.8097928 0.4000004 -0.1333277
v 0.8047928 0 -0.2383298
v 0.9147934 0 -0.2383298
v 0.9097934 0.4000004 -0.2333297
v 0.8097928 0.4000004 -0.2333297
v 0.9147934 0 -0.1283276
v 0.9147934 0 -0.2383298
v 0.8047928 0 -0.2383298
v 0.8047928 0 -0.1283276
v -0.836654 0.3000003 -0.1333272
v -0.836654 0.3000003 0.1499976
v -0.826654 0.4000004 0.1499976
v -0.826654 0.4000004 -0.1333272
v -0.9166543 0.3000003 0.1499976
v -0.9166543 0.3000003 -0.1333272
v -0.9166543 0.4000004 -0.1333272
v -0.9166543 0.4000004 0.1499976
v -0.836654 0.3000003 0.1499976
v -0.836654 0.3000003 -0.1333272
v -0.9166543 0.3000003 -0.1333272
v -0.9166543 0.3000003 0.1499976
v 0.8965341 0.3000003 -0.1333274
v 0.8965341 0.3000003 0.1499975
v 0.9065341 0.4000004 0.1499975
v 0.9065341 0.4000004 -0.1333274
v 0.8165338 0.3000003 0.1499975
v 0.8165338 0.3000003 -0.1333274
v 0.8165338 0.4000004 -0.1333274
v 0.8165338 0.4000004 0.1499975
v 0.8965341 0.3000003 0.1499975
v 0.8965341 0.3000003 -0.1333274
v 0.8165338 0.3000003 -0.1333274
v 0.8165338 0.3000003 0.1499975
v 1.005774 0.4000004 -0.2456327
v 1.005774 0.5000004 -0.2456327
v -0.9964693 0.5000004 -0.2456325
v -0.9964693 0.4000004 -0.2456325
v -1.002237 1.016565 -0.3414424
v -0.9901978 0.7703795 -0.2979392
v -0.8763944 0.7703795 -0.2979392
v -0.40257 1.031891 -0.3441508
v 1.000006 1.033967 -0.2429684
v -0.40257 1.049292 -0.2456764
v -0.40257 1.031891 -0.3441508
v 1.000006 1.016565 -0.3414427
v -0.9474303 0.5000004 0.004669481
v -0.9474303 0.4000004 0.004669481
v -1.024103 0.4000004 -0.01153967
v -1.024103 0.5000004 -0.01153967
v -1.012491 0.4000004 0.02934128
v -0.9474303 0.4000004 0.004669481
v -0.9474303 0.5000004 0.004669481
v -1.012491 0.5000004 0.02934128
v 1.012045 0.7877808 -0.199465
v 1.012045 0.7703795 -0.2979393
v -0.8763944 0.7703795 -0.2979392
v -0.9901978 0.7703795 -0.2979392
v -0.9901978 0.7877808 -0.1994648
v -0.8763944 0.7877808 -0.1994648

vn 0.9988425 0.04736714 -0.00837012
vn 0.9988425 0.04736714 -0.00837012
vn 0.9988425 0.04736714 -0.00837012
vn 0.9988425 0.04736714 -0.00837012
vn -0.025944 0.9844118 -0.1739548
vn -0.025944 0.9844118 -0.1739548
vn -0.025944 0.9844118 -0.1739548
vn -0.025944 0.9844118 -0.1739548
vn -1 0 0
vn -1 0 0
vn -1 0 0
vn -1 0 0
vn 0 -0.9847432 0.1740137
vn 0 -0.9847432 0.1740137
vn 0 -0.9847432 0.1740137
vn 0 -0.9847432 0.1740137
vn 0 0.1740132 0.9847434
vn 0 0.1740132 0.9847434
vn 0 0.1740132 0.9847434
vn 0 0.1740132 0.9847434
vn 0 -0.1740133 -0.9847434
vn 0 -0.1740133 -0.9847434
vn 0 -0.1740133 -0.9847434
vn 0 -0.1740133 -0.9847434
vn 0 -0.1740135 -0.9847432
vn 0 -0.1740135 -0.9847432
vn 0 -0.1740135 -0.9847432
vn 0 -0.1740135 -0.9847432
vn 0 1 0
vn 0 1 0
vn 0 1 0
vn 0 1 0
vn 1.4771E-06 1 0
vn 0 1 0
vn 0 1 0
vn 0 1 0
vn 0 0.1740135 0.9847432
vn 0 0.1740135 0.9847432
vn 0 0.1740135 0.9847432
vn 0 0.1740135 0.9847432
vn 0 0.1740133 0.9847434
vn 0 0.1740133 0.9847434
vn 0 0.1740133 0.9847434
vn -3.408693E-07 -1 0
vn -3.408693E-07 -1 0
vn -3.408693E-07 -1 0
vn 0 -1 0
vn 0 -1 0
vn 0 -1 0
vn 0 -1 0
vn 0 -1 0
vn -0.9988425 -0.04736645 0.008369976
vn -0.9988425 -0.04736645 0.008369976
vn -0.9988425 -0.04736645 0.008369976
vn -0.9988425 -0.04736645 0.008369976
vn -0.9958357 0 0.0911664
vn -0.9958357 0 0.0911664
vn -0.9958357 0 0.0911664
vn -0.9958357 0 0.0911664
vn 1.190758E-07 0 1
vn 1.190758E-07 0 1
vn 1.190758E-07 0 1
vn 1.190758E-07 0 1
vn 1 0 -5.960465E-07
vn 1 0 -5.960465E-07
vn 1 0 -5.960465E-07
vn 1 0 -5.960465E-07
vn 0.9951767 0 0.09809884
vn 0.9951767 0 0.09809884
vn 0.9951767 0 0.09809884
vn 0.9951767 0 0.09809884
vn 0.9934089 0 -0.114625
vn 0.9934089 0 -0.114625
vn 0.9934089 0 -0.114625
vn 0.9934089 0 -0.114625
vn -0.9931045 0 -0.1172319
vn -0.9931045 0 -0.1172319
vn -0.9931045 0 -0.1172319
vn -0.9931045 0 -0.1172319
vn 0 0.9847434 -0.1740134
vn 0 0.9847434 -0.1740134
vn 0 0.9847434 -0.1740134
vn 0 0.9847434 -0.1740134
vn 0.9999219 0.012499 0
vn 0.9999219 0.012499 0
vn 0.9999219 0.012499 0
vn 0.9999219 0.012499 0
vn 2.826994E-07 0.01249936 0.9999219
vn 2.826994E-07 0.01249936 0.9999219
vn 2.826994E-07 0.01249936 0.9999219
vn 2.826994E-07 0.01249936 0.9999219
vn -0.9999219 0.01249915 0
vn -0.9999219 0.01249915 0
vn -0.9999219 0.01249915 0
vn -0.9999219 0.01249915 0
vn 0 0.01249932 -0.9999219
vn 0 0.01249932 -0.9999219
vn 0 0.01249932 -0.9999219
vn 0 0.01249932 -0.9999219
vn 0 -1 0
vn 0 -1 0
vn 0 -1 0
vn 0 -1 0
vn 0.9999219 0.012499 0
vn 0.9999219 0.012499 0
vn 0.9999219 0.012499 0
vn 0.9999219 0.012499 0
vn 2.826991E-07 0.01249923 0.9999219
vn 2.826991E-07 0.01249923 0.9999219
vn 2.826991E-07 0.01249923 0.9999219
vn 2.826991E-07 0.01249923 0.9999219
vn -0.9999219 0.012499 0
vn -0.9999219 0.012499 0
vn -0.9999219 0.012499 0
vn -0.9999219 0.012499 0
vn 0 0.01249931 -0.9999219
vn 0 0.01249931 -0.9999219
vn 0 0.01249931 -0.9999219
vn 0 0.01249931 -0.9999219
vn 0 -1 0
vn 0 -1 0
vn 0 -1 0
vn 0 -1 0
vn 0.9999219 0.012499 0
vn 0.9999219 0.012499 0
vn 0.9999219 0.012499 0
vn 0.9999219 0.012499 0
vn 0 0.0124993 0.9999219
vn 0 0.0124993 0.9999219
vn 0 0.0124993 0.9999219
vn 0 0.0124993 0.9999219
vn -0.9999219 0.01249915 0
vn -0.9999219 0.01249915 0
vn -0.9999219 0.01249915 0
vn -0.9999219 0.01249915 0
vn 0 0.01249932 -0.9999219
vn 0 0.01249932 -0.9999219
vn 0 0.01249932 -0.9999219
vn 0 0.01249932 -0.9999219
vn 0 -1 0
vn 0 -1 0
vn 0 -1 0
vn 0 -1 0
vn 0.9999219 0.012499 0
vn 0.9999219 0.012499 0
vn 0.9999219 0.012499 0
vn 0.9999219 0.012499 0
vn 0 0.01249929 0.9999219
vn 0 0.01249929 0.9999219
vn 0 0.01249929 0.9999219
vn 0 0.01249929 0.9999219
vn -0.9999219 0.012499 0
vn -0.9999219 0.012499 0
vn -0.9999219 0.012499 0
vn -0.9999219 0.012499 0
vn 0 0.01249929 -0.9999219
vn 0 0.01249929 -0.9999219
vn 0 0.01249929 -0.9999219
vn 0 0.01249929 -0.9999219
vn 0 -1 0
vn 0 -1 0
vn 0 -1 0
vn 0 -1 0
vn 0.9950371 -0.0995042 0
vn 0.9950371 -0.0995042 0
vn 0.9950371 -0.0995042 0
vn 0.9950371 -0.0995042 0
vn -1 0 0
vn -1 0 0
vn -1 0 0
vn -1 0 0
vn 0 -1 0
vn 0 -1 0
vn 0 -1 0
vn 0 -1 0
vn 0.9950371 -0.0995042 0
vn 0.9950371 -0.0995042 0
vn 0.9950371 -0.0995042 0
vn 0.9950371 -0.0995042 0
vn -1 0 0
vn -1 0 0
vn -1 0 0
vn -1 0 0
vn 0 -1 0
vn 0 -1 0
vn 0 -1 0
vn 0 -1 0
vn 0 0 -1
vn 0 0 -1
vn 0 0 -1
vn 0 0 -1
vn -2.479038E-07 -0.1740132 -0.9847434
vn -2.479038E-07 -0.1740132 -0.9847434
vn -2.479038E-07 -0.1740132 -0.9847434
vn -2.479038E-07 -0.1740132 -0.9847434
vn 0.01109532 0.9846827 -0.1740026
vn 0.01109532 0.9846827 -0.1740026
vn 0.01109532 0.9846827 -0.1740026
vn 0.01109532 0.9846827 -0.1740026
vn -0.2068356 0 0.9783757
vn -0.2068356 0 0.9783757
vn -0.2068356 0 0.9783757
vn -0.2068356 0 0.9783757
vn -0.3545738 0 -0.9350281
vn -0.3545738 0 -0.9350281
vn -0.3545738 0 -0.9350281
vn -0.3545738 0 -0.9350281
vn 0 -0.9847434 0.1740129
vn 0 -0.9847434 0.1740129
vn 0 -0.9847434 0.1740129
vn 0 -0.9847434 0.1740129
vn 0 -0.9847434 0.1740129
vn 0 -0.9847434 0.1740129

vt 0.3947904 0.8137679
vt 0.3876643 0.8225279
vt 0.3920106 0.8255123
vt 0.396582 0.8173258
vt 0.3192747 0.8391999
vt 0.3439477 0.8354833
vt 0.3433161 0.8313579
vt 0.3191027 0.835229
vt 0.4686331 0.8562038
vt 0.4686331 0.8470121
vt 0.4649564 0.8470121
vt 0.4649564 0.8562038
vt 0.3407344 0.8492219
vt 0.2648896 0.8492223
vt 0.2648896 0.8530101
vt 0.3407344 0.8530099
vt 0.2648895 0.8397523
vt 0.2648896 0.8492223
vt 0.3407344 0.8492219
vt 0.3407344 0.8397519
vt 0.3407345 0.8624799
vt 0.3407344 0.8530099
vt 0.2648896 0.8530101
vt 0.2648896 0.86248
vt 0.3191027 0.835229
vt 0.3370965 0.8239123
vt 0.2702894 0.8224246
vt 0.2655796 0.8308589
vt 0.3369462 0.7856227
vt 0.2622738 0.7754638
vt 0.2611016 0.7856227
vt 0.3353262 0.7754638
vt 0.3377907 0.7763984
vt 0.2613392 0.7659824
vt 0.3371837 0.7659824
vt 0.3382305 0.7748498
vt 0.3203876 0.8096033
vt 0.3377877 0.8200904
vt 0.3424843 0.8213096
vt 0.3444978 0.8107355
vt 0.2689864 0.8096029
vt 0.3377877 0.8200904
vt 0.2684435 0.8187588
vt 0.3369462 0.7894107
vt 0.3353262 0.7995695
vt 0.3377907 0.7986349
vt 0.2611016 0.7894107
vt 0.2622738 0.7995695
vt 0.3371837 0.8090509
vt 0.2613392 0.8090509
vt 0.3382305 0.8001835
vt 0.4707114 0.8243758
vt 0.4666549 0.8162436
vt 0.4645972 0.8188273
vt 0.4674622 0.8259966
vt 0.4718092 0.7724025
vt 0.4634028 0.7692147
vt 0.4620992 0.7726525
vt 0.4705056 0.7758403
vt 0.3369462 0.7894107
vt 0.3369462 0.7856227
vt 0.2611016 0.7856227
vt 0.2611016 0.7894107
vt 0.3876643 0.8470124
vt 0.3876643 0.8562039
vt 0.3913409 0.8562039
vt 0.3913409 0.8470123
vt 0.4691689 0.857294
vt 0.4784162 0.857294
vt 0.4784162 0.8536174
vt 0.4691689 0.8536174
vt 0.4784162 0.857294
vt 0.4883418 0.857294
vt 0.4883418 0.8536174
vt 0.4784162 0.8536174
vt 0.4908663 0.8243545
vt 0.4821998 0.8243545
vt 0.4821998 0.8280312
vt 0.4908663 0.8280312
vt 0.2648896 0.86248
vt 0.2648896 0.8662679
vt 0.3407345 0.8662679
vt 0.3407345 0.8624799
vt 0.4845569 0.8379779
vt 0.4804327 0.8380886
vt 0.481023 0.8530815
vt 0.4847722 0.8529809
vt 0.4804327 0.8380886
vt 0.4769812 0.8399774
vt 0.4764839 0.8530815
vt 0.481023 0.8530815
vt 0.4769812 0.8399774
vt 0.473321 0.8382794
vt 0.4728279 0.8529125
vt 0.4764839 0.8530815
vt 0.473321 0.8382794
vt 0.469296 0.8381941
vt 0.4691689 0.8528351
vt 0.4728279 0.8529125
vt 0.4804327 0.8380886
vt 0.4767868 0.8341438
vt 0.473321 0.8382794
vt 0.4769812 0.8399774
vt 0.4833304 0.7621909
vt 0.4800577 0.7645704
vt 0.4797427 0.7773938
vt 0.4842637 0.7773183
vt 0.4800577 0.7645704
vt 0.4764151 0.7624564
vt 0.4760451 0.7772551
vt 0.4797427 0.7773938
vt 0.4764151 0.7624564
vt 0.4723451 0.7624056
vt 0.4723451 0.7772089
vt 0.4760451 0.7772551
vt 0.4874927 0.7619863
vt 0.4833304 0.7621909
vt 0.4842637 0.7773183
vt 0.4880476 0.7771323
vt 0.4800577 0.7645704
vt 0.4833304 0.7621909
vt 0.4797401 0.7588661
vt 0.4764151 0.7624564
vt 0.4764151 0.78152
vt 0.4723451 0.781469
vt 0.4723451 0.7962725
vt 0.4760451 0.7963187
vt 0.4874927 0.7810499
vt 0.4833304 0.7812545
vt 0.4842637 0.7963818
vt 0.4880476 0.7961959
vt 0.4833304 0.7812545
vt 0.4800577 0.7836339
vt 0.4797427 0.7964574
vt 0.4842637 0.7963818
vt 0.4800577 0.7836339
vt 0.4764151 0.78152
vt 0.4760451 0.7963187
vt 0.4797427 0.7964574
vt 0.4797401 0.7779297
vt 0.4764151 0.78152
vt 0.4800577 0.7836339
vt 0.4833304 0.7812545
vt 0.4790594 0.8107147
vt 0.4753992 0.8090166
vt 0.4749061 0.8236498
vt 0.4785621 0.8238187
vt 0.4753992 0.8090166
vt 0.4713743 0.8089314
vt 0.4712472 0.8235723
vt 0.4749061 0.8236498
vt 0.4866351 0.8087151
vt 0.4825109 0.8088259
vt 0.4831012 0.8238187
vt 0.4868505 0.823718
vt 0.4825109 0.8088259
vt 0.4790594 0.8107147
vt 0.4785621 0.8238187
vt 0.4831012 0.8238187
vt 0.4753992 0.8090166
vt 0.4790594 0.8107147
vt 0.4825109 0.8088259
vt 0.478865 0.804881
vt 0.4801215 0.8615248
vt 0.4905384 0.8615248
vt 0.4905384 0.8578298
vt 0.4801215 0.8578298
vt 0.481664 0.8272959
vt 0.4712472 0.8272959
vt 0.4712472 0.8309726
vt 0.481664 0.8309726
vt 0.481664 0.8243545
vt 0.4712472 0.8243545
vt 0.4712472 0.8272959
vt 0.481664 0.8272959
vt 0.4691689 0.8615248
vt 0.4795857 0.8615248
vt 0.4795857 0.8578298
vt 0.4691689 0.8578298
vt 0.4827619 0.7999345
vt 0.4723451 0.7999345
vt 0.4723451 0.8036111
vt 0.4827619 0.8036111
vt 0.4827619 0.7969932
vt 0.4723451 0.7969932
vt 0.4723451 0.7999345
vt 0.4827619 0.7999345
vt 0.2613392 0.7621944
vt 0.2613392 0.7659824
vt 0.3371837 0.7659824
vt 0.3371837 0.7621944
vt 0.3433161 0.8313579
vt 0.3403644 0.8239716
vt 0.3370965 0.8239123
vt 0.3191027 0.835229
vt 0.2652594 0.8347098
vt 0.3192747 0.8391999
vt 0.3191027 0.835229
vt 0.2655796 0.8308589
vt 0.3353262 0.7754638
vt 0.3361097 0.7791699
vt 0.339014 0.7785559
vt 0.3382305 0.7748498
vt 0.3391338 0.7728565
vt 0.3366693 0.7719219
vt 0.3353262 0.7754638
vt 0.3377907 0.7763984
vt 0.2684435 0.8187588
vt 0.2702894 0.8224246
vt 0.3370965 0.8239123
vt 0.3403644 0.8239716
vt 0.3424843 0.8213096
vt 0.3377877 0.8200904

usemtl LOW-POLY-COLORS
usemap LOW-POLY-COLORS
f 2/2/2 1/1/1 3/3/3
f 3/3/3 1/1/1 4/4/4
f 6/6/6 5/5/5 7/7/7
f 7/7/7 5/5/5 8/8/8
f 10/10/10 9/9/9 11/11/11
f 11/11/11 9/9/9 12/12/12
f 14/14/14 13/13/13 15/15/15
f 15/15/15 13/13/13 16/16/16
f 18/18/18 17/17/17 19/19/19
f 19/19/19 17/17/17 20/20/20
f 22/22/22 21/21/21 23/23/23
f 23/23/23 21/21/21 24/24/24
f 26/26/26 25/25/25 27/27/27
f 27/27/27 25/25/25 28/28/28
f 30/30/30 29/29/29 31/31/31
f 32/32/32 29/29/29 30/30/30
f 33/33/33 29/29/29 32/32/32
f 34/34/34 32/32/32 30/30/30
f 35/35/35 32/32/32 34/34/34
f 35/35/35 36/36/36 32/32/32
f 38/38/38 37/37/37 39/39/39
f 39/39/39 37/37/37 40/40/40
f 42/42/42 41/41/41 37/37/37
f 43/43/43 41/41/41 42/42/42
f 45/45/45 44/44/44 46/46/46
f 45/45/45 47/47/47 44/44/44
f 48/48/48 47/47/47 45/45/45
f 49/49/49 48/48/48 45/45/45
f 50/50/50 48/48/48 49/49/49
f 49/49/49 45/45/45 51/51/51
f 53/53/53 52/52/52 54/54/54
f 54/54/54 52/52/52 55/55/55
f 57/57/57 56/56/56 58/58/58
f 58/58/58 56/56/56 59/59/59
f 61/61/61 60/60/60 62/62/62
f 62/62/62 60/60/60 63/63/63
f 65/65/65 64/64/64 66/66/66
f 66/66/66 64/64/64 67/67/67
f 69/69/69 68/68/68 70/70/70
f 70/70/70 68/68/68 71/71/71
f 73/73/73 72/72/72 74/74/74
f 74/74/74 72/72/72 75/75/75
f 77/77/77 76/76/76 78/78/78
f 78/78/78 76/76/76 79/79/79
f 81/81/81 80/80/80 82/82/82
f 82/82/82 80/80/80 83/83/83
f 85/85/85 84/84/84 86/86/86
f 86/86/86 84/84/84 87/87/87
f 89/89/89 88/88/88 90/90/90
f 90/90/90 88/88/88 91/91/91
f 93/93/93 92/92/92 94/94/94
f 94/94/94 92/92/92 95/95/95
f 97/97/97 96/96/96 98/98/98
f 98/98/98 96/96/96 99/99/99
f 101/101/101 100/100/100 102/102/102
f 102/102/102 100/100/100 103/103/103
f 105/105/105 104/104/104 106/106/106
f 106/106/106 104/104/104 107/107/107
f 109/109/109 108/108/108 110/110/110
f 110/110/110 108/108/108 111/111/111
f 113/113/113 112/112/112 114/114/114
f 114/114/114 112/112/112 115/115/115
f 117/117/117 116/116/116 118/118/118
f 118/118/118 116/116/116 119/119/119
f 121/121/121 120/120/120 122/122/122
f 122/122/122 120/120/120 123/123/123
f 125/125/125 124/124/124 126/126/126
f 126/126/126 124/124/124 127/127/127
f 129/129/129 128/128/128 130/130/130
f 130/130/130 128/128/128 131/131/131
f 133/133/133 132/132/132 134/134/134
f 134/134/134 132/132/132 135/135/135
f 137/137/137 136/136/136 138/138/138
f 138/138/138 136/136/136 139/139/139
f 141/141/141 140/140/140 142/142/142
f 142/142/142 140/140/140 143/143/143
f 145/145/145 144/144/144 146/146/146
f 146/146/146 144/144/144 147/147/147
f 149/149/149 148/148/148 150/150/150
f 150/150/150 148/148/148 151/151/151
f 153/153/153 152/152/152 154/154/154
f 154/154/154 152/152/152 155/155/155
f 157/157/157 156/156/156 158/158/158
f 158/158/158 156/156/156 159/159/159
f 161/161/161 160/160/160 162/162/162
f 162/162/162 160/160/160 163/163/163
f 165/165/165 164/164/164 166/166/166
f 166/166/166 164/164/164 167/167/167
f 169/169/169 168/168/168 170/170/170
f 170/170/170 168/168/168 171/171/171
f 173/173/173 172/172/172 174/174/174
f 174/174/174 172/172/172 175/175/175
f 177/177/177 176/176/176 178/178/178
f 178/178/178 176/176/176 179/179/179
f 181/181/181 180/180/180 182/182/182
f 182/182/182 180/180/180 183/183/183
f 185/185/185 184/184/184 186/186/186
f 186/186/186 184/184/184 187/187/187
f 189/189/189 188/188/188 190/190/190
f 190/190/190 188/188/188 191/191/191
f 193/193/193 192/192/192 194/194/194
f 194/194/194 192/192/192 195/195/195
f 197/197/197 196/196/196 198/198/198
f 198/198/198 196/196/196 199/199/199
f 201/201/201 200/200/200 202/202/202
f 202/202/202 200/200/200 203/203/203
f 205/205/205 204/204/204 206/206/206
f 206/206/206 204/204/204 207/207/207
f 209/209/209 208/208/208 210/210/210
f 211/211/211 210/210/210 208/208/208
f 212/212/212 211/211/211 208/208/208
f 213/213/213 212/212/212 208/208/208
