mtllib ./candle-big_37.mtl
g candle-big
v -0.04047602 1.862372 0.02336886
v 3.443292E-08 1.901606 -1.498031E-09
v 1.028165E-08 1.862372 0.04673773
v 2.163055E-09 1.862372 -0.04673773
v 3.443292E-08 1.901606 -1.498031E-09
v -0.04047606 1.862372 -0.02336886
v 0.04047607 1.862372 -0.02336884
v 3.443292E-08 1.901606 -1.498031E-09
v 2.163055E-09 1.862372 -0.04673773
v 1.028165E-08 1.862372 0.04673773
v 3.443292E-08 1.901606 -1.498031E-09
v 0.04047607 1.862372 0.02336884
v -0.04047606 1.862372 -0.02336886
v 3.443292E-08 1.901606 -1.498031E-09
v -0.04047602 1.862372 0.02336886
v 0.04047607 1.862372 0.02336884
v 3.443292E-08 1.901606 -1.498031E-09
v 0.04047607 1.862372 -0.02336884
v 0.01990039 1.92896 -0.02528336
v -1.299911E-05 1.901606 -6.653354E-07
v 0.007566448 1.931385 0.007578781
v 0.02549335 1.987957 -0.02444992
v 0.01242504 1.977852 0.004404002
v -0.004376316 2.038077 0.001335141
v 0.01242504 1.977852 0.004404002
v -0.01712864 1.971337 0.01817215
v -0.004376316 2.038077 0.001335141
v -1.299911E-05 1.901606 -6.653354E-07
v -0.02529569 1.92896 0.01991269
v 0.007566448 1.931385 0.007578781
v 0.01990039 1.92896 -0.02528336
v -0.01304087 1.92734 -0.01302856
v -1.299911E-05 1.901606 -6.653354E-07
v 0.02549335 1.987957 -0.02444992
v -0.004376316 2.038077 0.001335141
v -0.004060351 1.981442 -0.01068166
v -0.004060351 1.981442 -0.01068166
v -0.004376316 2.038077 0.001335141
v -0.01712864 1.971337 0.01817215
v -1.299911E-05 1.901606 -6.653354E-07
v -0.01304087 1.92734 -0.01302856
v -0.02529569 1.92896 0.01991269
v 0.04843638 1.583602 -0.02796473
v 0.04047607 1.862372 0.02336884
v 0.04047607 1.862372 -0.02336884
v 0.04843638 1.583602 0.02796473
v 0.0579582 1.451164 -0.03346215
v 0.0579582 1.451164 0.03346215
v 1.15376E-08 1.583602 0.05592952
v -0.04843633 1.583602 0.02796475
v -0.04047602 1.862372 0.02336886
v 1.028165E-08 1.862372 0.04673773
v -0.04843638 1.583602 -0.02796474
v 1.831091E-09 1.583602 -0.05592952
v 2.163055E-09 1.862372 -0.04673773
v -0.04047606 1.862372 -0.02336886
v 1.831091E-09 1.583602 -0.05592952
v 0.04843638 1.583602 -0.02796473
v 0.04047607 1.862372 -0.02336884
v 2.163055E-09 1.862372 -0.04673773
v 0.03822153 1.580455 0.05640187
v 0.02086437 1.580455 0.06642305
v 0.02085634 1.8418 0.05779188
v 0.03075073 1.8418 0.05207935
v -0.04843633 1.583602 0.02796475
v -0.04843638 1.583602 -0.02796474
v -0.04047606 1.862372 -0.02336886
v -0.04047602 1.862372 0.02336886
v -0.02529569 1.92896 0.01991269
v -0.01712864 1.971337 0.01817215
v 0.01242504 1.977852 0.004404002
v 0.007566448 1.931385 0.007578781
v 0.02549335 1.987957 -0.02444992
v 0.01990039 1.92896 -0.02528336
v 0.007566448 1.931385 0.007578781
v 0.01242504 1.977852 0.004404002
v -0.02529569 1.92896 0.01991269
v -0.01304087 1.92734 -0.01302856
v -0.004060351 1.981442 -0.01068166
v -0.01712864 1.971337 0.01817215
v 0.02549335 1.987957 -0.02444992
v -0.004060351 1.981442 -0.01068166
v -0.01304087 1.92734 -0.01302856
v 0.01990039 1.92896 -0.02528336
v -0.06794835 0.6497946 0.002714636
v -0.06794835 0.6497946 -0.01336837
v -0.06728526 1.446127 -0.01296367
v -0.06728524 1.446127 0.002309938
v 0.05868236 0.6284667 0.03388024
v 1.303584E-08 0.6284667 0.06776056
v 1.295677E-08 1.451164 0.06692436
v 0.0579582 1.451164 0.03346215
v 1.294996E-09 0.6284667 -0.06776056
v 0.05868236 0.6284667 -0.03388024
v 0.0579582 1.451164 -0.03346215
v 1.35754E-09 1.451164 -0.06692436
v -0.05868234 0.6284667 -0.03388026
v 1.294996E-09 0.6284667 -0.06776056
v 1.35754E-09 1.451164 -0.06692436
v -0.0579582 1.451164 -0.03346217
v 1.303584E-08 0.6284667 0.06776056
v -0.0586823 0.6284667 0.03388027
v -0.05795813 1.451164 0.03346217
v 1.295677E-08 1.451164 0.06692436
v 0.05868236 0.6284667 -0.03388024
v 0.05868236 0.6284667 0.03388024
v 0.0579582 1.451164 0.03346215
v 0.0579582 1.451164 -0.03346215
v 0.08415692 0 -0.04858796
v 0.08415692 0 0.04858796
v 0.05868236 0.6284667 0.03388024
v 0.05868236 0.6284667 -0.03388024
v 1.352503E-08 0 0.09717602
v -0.0841568 0 0.04858799
v -0.0586823 0.6284667 0.03388027
v 1.303584E-08 0.6284667 0.06776056
v -0.08415689 0 -0.04858799
v -3.013262E-09 0 -0.09717602
v 1.294996E-09 0.6284667 -0.06776056
v -0.05868234 0.6284667 -0.03388026
v -3.013262E-09 0 -0.09717602
v 0.08415692 0 -0.04858796
v 0.05868236 0.6284667 -0.03388024
v 1.294996E-09 0.6284667 -0.06776056
v 0.08415692 0 0.04858796
v 1.352503E-08 0 0.09717602
v 1.303584E-08 0.6284667 0.06776056
v 0.05868236 0.6284667 0.03388024
v -0.0841568 0 0.04858799
v -0.08415689 0 -0.04858799
v -0.05868234 0.6284667 -0.03388026
v -0.0586823 0.6284667 0.03388027
v -0.06728524 1.446127 0.002309938
v -0.06728526 1.446127 -0.01296367
v -0.0595771 1.553346 -0.008513097
v -0.0595771 1.553346 -0.002140637
v 0.04642211 1.466438 0.06114016
v 0.02086756 1.466438 0.07589412
v 0.02086437 1.580455 0.06642305
v 0.03822153 1.580455 0.05640187
v 1.35754E-09 1.451164 -0.06692436
v 0.0579582 1.451164 -0.03346215
v 0.04843638 1.583602 -0.02796473
v 1.831091E-09 1.583602 -0.05592952
v -0.0579582 1.451164 -0.03346217
v 1.35754E-09 1.451164 -0.06692436
v 1.831091E-09 1.583602 -0.05592952
v -0.04843638 1.583602 -0.02796474
v 1.295677E-08 1.451164 0.06692436
v -0.05795813 1.451164 0.03346217
v -0.04843633 1.583602 0.02796475
v 1.15376E-08 1.583602 0.05592952
v -0.08415689 0 -0.04858799
v 0.08415692 0 -0.04858796
v -3.013262E-09 0 -0.09717602
v 0.08415692 0 0.04858796
v -0.0841568 0 0.04858799
v 1.352503E-08 0 0.09717602
v 0.02085634 1.8418 0.05779188
v 1.028165E-08 1.862372 0.04673773
v 0.04047607 1.862372 0.02336884
v 0.03075073 1.8418 0.05207935
v 0.03075073 1.8418 0.05207935
v 0.04047607 1.862372 0.02336884
v 0.04843638 1.583602 0.02796473
v 0.03822153 1.580455 0.05640187
v 0.02086756 1.466438 0.07589412
v 1.295677E-08 1.451164 0.06692436
v 1.15376E-08 1.583602 0.05592952
v 0.02086437 1.580455 0.06642305
v 0.04642211 1.466438 0.06114016
v 0.0579582 1.451164 0.03346215
v 1.295677E-08 1.451164 0.06692436
v 0.02086756 1.466438 0.07589412
v 0.03822153 1.580455 0.05640187
v 0.04843638 1.583602 0.02796473
v 0.0579582 1.451164 0.03346215
v 0.04642211 1.466438 0.06114016
v 0.02086437 1.580455 0.06642305
v 1.15376E-08 1.583602 0.05592952
v 1.028165E-08 1.862372 0.04673773
v 0.02085634 1.8418 0.05779188
v -0.06728524 1.446127 0.002309938
v -0.05795813 1.451164 0.03346217
v -0.0586823 0.6284667 0.03388027
v -0.06794835 0.6497946 0.002714636
v -0.06728526 1.446127 -0.01296367
v -0.0579582 1.451164 -0.03346217
v -0.04843638 1.583602 -0.02796474
v -0.0595771 1.553346 -0.008513097
v -0.06794835 0.6497946 -0.01336837
v -0.05868234 0.6284667 -0.03388026
v -0.0579582 1.451164 -0.03346217
v -0.06728526 1.446127 -0.01296367
v -0.06794835 0.6497946 0.002714636
v -0.0586823 0.6284667 0.03388027
v -0.05868234 0.6284667 -0.03388026
v -0.06794835 0.6497946 -0.01336837
v -0.0595771 1.553346 -0.002140637
v -0.04843633 1.583602 0.02796475
v -0.05795813 1.451164 0.03346217
v -0.06728524 1.446127 0.002309938
v -0.0595771 1.553346 -0.008513097
v -0.04843638 1.583602 -0.02796474
v -0.04843633 1.583602 0.02796475
v -0.0595771 1.553346 -0.002140637

vn -0.3480019 0.7180377 0.6027574
vn -0.3480019 0.7180377 0.6027574
vn -0.3480019 0.7180377 0.6027574
vn -0.3480066 0.7180364 -0.6027564
vn -0.3480066 0.7180364 -0.6027564
vn -0.3480066 0.7180364 -0.6027564
vn 0.3480068 0.7180361 -0.6027566
vn 0.3480068 0.7180361 -0.6027566
vn 0.3480068 0.7180361 -0.6027566
vn 0.3480018 0.7180375 0.6027576
vn 0.3480018 0.7180375 0.6027576
vn 0.3480018 0.7180375 0.6027576
vn -0.6960067 0.7180353 6.186117E-07
vn -0.6960067 0.7180353 6.186117E-07
vn -0.6960067 0.7180353 6.186117E-07
vn 0.6960043 0.7180375 0
vn 0.6960043 0.7180375 0
vn 0.6960043 0.7180375 0
vn 0.8809276 -0.314276 0.3538324
vn 0.8809276 -0.314276 0.3538324
vn 0.8809276 -0.314276 0.3538324
vn 0.8424886 0.2591036 0.4723116
vn 0.8424886 0.2591036 0.4723116
vn 0.8424886 0.2591036 0.4723116
vn 0.3889588 0.1547883 0.9081584
vn 0.3889588 0.1547883 0.9081584
vn 0.3889588 0.1547883 0.9081584
vn 0.3538344 -0.3142733 0.8809276
vn 0.3538344 -0.3142733 0.8809276
vn 0.3538344 -0.3142733 0.8809276
vn -0.2699602 -0.5401912 -0.7970665
vn -0.2699602 -0.5401912 -0.7970665
vn -0.2699602 -0.5401912 -0.7970665
vn -0.4480391 0.1831679 -0.8750489
vn -0.4480391 0.1831679 -0.8750489
vn -0.4480391 0.1831679 -0.8750489
vn -0.9181006 0.07735756 -0.3887251
vn -0.9181006 0.07735756 -0.3887251
vn -0.9181006 0.07735756 -0.3887251
vn -0.7970641 -0.5401931 -0.2699634
vn -0.7970641 -0.5401931 -0.2699634
vn -0.7970641 -0.5401931 -0.2699634
vn 0.9995926 0.02854354 0
vn 0.9995926 0.02854354 0
vn 0.9995926 0.02854354 0
vn 0.9995926 0.02854354 0
vn 0.9974254 0.07171117 0
vn 0.9974254 0.07171117 0
vn -0.4997967 0.02854353 0.8656723
vn -0.4997967 0.02854353 0.8656723
vn -0.4997967 0.02854353 0.8656723
vn -0.4997967 0.02854353 0.8656723
vn -0.4997965 0.02854354 -0.8656724
vn -0.4997965 0.02854354 -0.8656724
vn -0.4997965 0.02854354 -0.8656724
vn -0.4997965 0.02854354 -0.8656724
vn 0.4997967 0.02854355 -0.8656722
vn 0.4997967 0.02854355 -0.8656722
vn 0.4997967 0.02854355 -0.8656722
vn 0.4997967 0.02854355 -0.8656722
vn 0.4997957 0.02860486 0.8656708
vn 0.4997957 0.02860486 0.8656708
vn 0.4997957 0.02860486 0.8656708
vn 0.4997957 0.02860486 0.8656708
vn -0.9995926 0.02854354 9.758144E-07
vn -0.9995926 0.02854354 9.758144E-07
vn -0.9995926 0.02854354 9.758144E-07
vn -0.9995926 0.02854354 9.758144E-07
vn 0.3864982 -0.005640601 0.922273
vn 0.3864982 -0.005640601 0.922273
vn 0.3864982 -0.005640601 0.922273
vn 0.3864982 -0.005640601 0.922273
vn 0.9251181 -0.08345716 0.3703935
vn 0.9251181 -0.08345716 0.3703935
vn 0.9251181 -0.08345716 0.3703935
vn 0.9251181 -0.08345716 0.3703935
vn -0.9202925 0.1657947 -0.3543639
vn -0.9202925 0.1657947 -0.3543639
vn -0.9202925 0.1657947 -0.3543639
vn -0.9202925 0.1657947 -0.3543639
vn -0.3917321 0.07626073 -0.9169134
vn -0.3917321 0.07626073 -0.9169134
vn -0.3917321 0.07626073 -0.9169134
vn -0.3917321 0.07626073 -0.9169134
vn -0.9999996 0.0008326897 8.951333E-07
vn -0.9999996 0.0008326897 8.951333E-07
vn -0.9999996 0.0008326897 8.951333E-07
vn -0.9999996 0.0008326897 8.951333E-07
vn 0.5000002 0.0008802324 0.8660248
vn 0.5000002 0.0008802324 0.8660248
vn 0.5000002 0.0008802324 0.8660248
vn 0.5000002 0.0008802324 0.8660248
vn 0.5000002 0.0008802321 -0.8660249
vn 0.5000002 0.0008802321 -0.8660249
vn 0.5000002 0.0008802321 -0.8660249
vn 0.5000002 0.0008802321 -0.8660249
vn -0.5 0.0008802282 -0.866025
vn -0.5 0.0008802282 -0.866025
vn -0.5 0.0008802282 -0.866025
vn -0.5 0.0008802282 -0.866025
vn -0.5000002 0.0008802344 0.8660248
vn -0.5000002 0.0008802344 0.8660248
vn -0.5000002 0.0008802344 0.8660248
vn -0.5000002 0.0008802344 0.8660248
vn 0.9999996 0.0008802293 0
vn 0.9999996 0.0008802293 0
vn 0.9999996 0.0008802293 0
vn 0.9999996 0.0008802293 0
vn 0.9991794 0.04050119 0
vn 0.9991794 0.04050119 0
vn 0.9991794 0.04050119 0
vn 0.9991794 0.04050119 0
vn -0.4995902 0.04050115 0.8653145
vn -0.4995902 0.04050115 0.8653145
vn -0.4995902 0.04050115 0.8653145
vn -0.4995902 0.04050115 0.8653145
vn -0.4995899 0.04050116 -0.8653147
vn -0.4995899 0.04050116 -0.8653147
vn -0.4995899 0.04050116 -0.8653147
vn -0.4995899 0.04050116 -0.8653147
vn 0.4995901 0.04050114 -0.8653146
vn 0.4995901 0.04050114 -0.8653146
vn 0.4995901 0.04050114 -0.8653146
vn 0.4995901 0.04050114 -0.8653146
vn 0.4995901 0.04050114 0.8653146
vn 0.4995901 0.04050114 0.8653146
vn 0.4995901 0.04050114 0.8653146
vn 0.4995901 0.04050114 0.8653146
vn -0.9991794 0.04050114 8.618185E-07
vn -0.9991794 0.04050114 8.618185E-07
vn -0.9991794 0.04050114 8.618185E-07
vn -0.9991794 0.04050114 8.618185E-07
vn -0.9974257 0.07170679 1.600999E-06
vn -0.9974257 0.07170679 1.600999E-06
vn -0.9974257 0.07170679 1.600999E-06
vn -0.9974257 0.07170679 1.600999E-06
vn 0.498711 0.07176719 0.8637922
vn 0.498711 0.07176719 0.8637922
vn 0.498711 0.07176719 0.8637922
vn 0.498711 0.07176719 0.8637922
vn 0.498713 0.0717112 -0.8637956
vn 0.498713 0.0717112 -0.8637956
vn 0.498713 0.0717112 -0.8637956
vn 0.498713 0.0717112 -0.8637956
vn -0.4987128 0.07171122 -0.8637956
vn -0.4987128 0.07171122 -0.8637956
vn -0.4987128 0.07171122 -0.8637956
vn -0.4987128 0.07171122 -0.8637956
vn -0.4987133 0.07171115 0.8637954
vn -0.4987133 0.07171115 0.8637954
vn -0.4987133 0.07171115 0.8637954
vn -0.4987133 0.07171115 0.8637954
vn 0 -1 0
vn 0 -1 0
vn 0 -1 0
vn 0 -1 0
vn 0 -1 0
vn 0 -1 0
vn 0.3584932 0.6970928 0.6209222
vn 0.3584932 0.6970928 0.6209222
vn 0.3584932 0.6970928 0.6209222
vn 0.3584932 0.6970928 0.6209222
vn 0.9394076 0.03247384 0.3412605
vn 0.9394076 0.03247384 0.3412605
vn 0.9394076 0.03247384 0.3412605
vn 0.9394076 0.03247384 0.3412605
vn -0.4391711 0.0743431 0.8953223
vn -0.4391711 0.0743431 0.8953223
vn -0.4391711 0.0743431 0.8953223
vn -0.4391711 0.0743431 0.8953223
vn 0.3214033 -0.766024 0.5566931
vn 0.3214033 -0.766024 0.5566931
vn 0.3214033 -0.766024 0.5566931
vn 0.3214033 -0.766024 0.5566931
vn 0.9351128 0.08156504 0.3448351
vn 0.9351128 0.08156504 0.3448351
vn 0.9351128 0.08156504 0.3448351
vn 0.9351128 0.08156504 0.3448351
vn -0.4453845 0.02952214 0.8948526
vn -0.4453845 0.02952214 0.8948526
vn -0.4453845 0.02952214 0.8948526
vn -0.4453845 0.02952214 0.8948526
vn -0.9581881 0.0009664455 0.2861377
vn -0.9581881 0.0009664455 0.2861377
vn -0.9581881 0.0009664455 0.2861377
vn -0.9581881 0.0009664455 0.2861377
vn -0.9145822 0.0821893 -0.39596
vn -0.9145822 0.0821893 -0.39596
vn -0.9145822 0.0821893 -0.39596
vn -0.9145822 0.0821893 -0.39596
vn -0.9106193 0.0009902575 -0.413245
vn -0.9106193 0.0009902575 -0.413245
vn -0.9106193 0.0009902575 -0.413245
vn -0.9106193 0.0009902575 -0.413245
vn -0.9171803 -0.3984724 4.776782E-07
vn -0.9171803 -0.3984724 4.776782E-07
vn -0.9171803 -0.3984724 4.776782E-07
vn -0.9171803 -0.3984724 4.776782E-07
vn -0.9583818 0.08027443 0.2739712
vn -0.9583818 0.08027443 0.2739712
vn -0.9583818 0.08027443 0.2739712
vn -0.9583818 0.08027443 0.2739712
vn -0.9384084 0.345528 8.113452E-07
vn -0.9384084 0.345528 8.113452E-07
vn -0.9384084 0.345528 8.113452E-07
vn -0.9384084 0.345528 8.113452E-07

vt 0.802891 0.8378285
vt 0.8049409 0.8382731
vt 0.8036206 0.8370842
vt 0.805687 0.8367972
vt 0.8049409 0.8382731
vt 0.8063867 0.8371958
vt 0.8050062 0.8366657
vt 0.8049409 0.8382731
vt 0.805687 0.8367972
vt 0.8036206 0.8370842
vt 0.8049409 0.8382731
vt 0.8043244 0.8367494
vt 0.8063867 0.8371958
vt 0.8049409 0.8382731
vt 0.8070995 0.838073
vt 0.8043244 0.8367494
vt 0.8049409 0.8382731
vt 0.8050062 0.8366657
vt 0.5577849 0.04054382
vt 0.558264 0.03709158
vt 0.5596152 0.04084989
vt 0.5583558 0.04798964
vt 0.5597672 0.04671434
vt 0.5579944 0.05431518
vt 0.5597672 0.04671434
vt 0.5583558 0.04589209
vt 0.5579944 0.05431518
vt 0.558264 0.03709158
vt 0.5577849 0.04054382
vt 0.5596152 0.04084989
vt 0.5577849 0.04054382
vt 0.5559375 0.04033944
vt 0.558264 0.03709158
vt 0.5583558 0.04798964
vt 0.5579944 0.05431518
vt 0.5569502 0.04716739
vt 0.5569502 0.04716739
vt 0.5579944 0.05431518
vt 0.5583558 0.04589209
vt 0.558264 0.03709158
vt 0.5559375 0.04033944
vt 0.5577849 0.04054382
vt 0.8054122 0.8305144
vt 0.8043244 0.8367494
vt 0.8050062 0.8366657
vt 0.803909 0.8304878
vt 0.8069965 0.8058722
vt 0.8048906 0.8057292
vt 0.8023818 0.8305748
vt 0.8008754 0.8307711
vt 0.802891 0.8378285
vt 0.8036206 0.8370842
vt 0.8083987 0.8309022
vt 0.806904 0.8306527
vt 0.805687 0.8367972
vt 0.8063867 0.8371958
vt 0.806904 0.8306527
vt 0.8054122 0.8305144
vt 0.8050062 0.8366657
vt 0.805687 0.8367972
vt 0.8034218 0.8304185
vt 0.8028702 0.830535
vt 0.8038297 0.8365451
vt 0.8040088 0.8364664
vt 0.8098556 0.8312448
vt 0.8083987 0.8309022
vt 0.8063867 0.8371958
vt 0.8070995 0.838073
vt 0.5577849 0.04054382
vt 0.5583558 0.04589209
vt 0.5597672 0.04671434
vt 0.5596152 0.04084989
vt 0.5583558 0.04798964
vt 0.5577849 0.04054382
vt 0.5596152 0.04084989
vt 0.5597672 0.04671434
vt 0.5577849 0.04054382
vt 0.5559375 0.04033944
vt 0.5569502 0.04716739
vt 0.5583558 0.04589209
vt 0.5583558 0.04798964
vt 0.5569502 0.04716739
vt 0.5559375 0.04033944
vt 0.5577849 0.04054382
vt 0.8123463 0.8052969
vt 0.8118885 0.8052837
vt 0.8119665 0.8061734
vt 0.8124675 0.8060738
vt 0.8049414 0.804703
vt 0.8028284 0.8045233
vt 0.8027251 0.8055837
vt 0.8048906 0.8057292
vt 0.8091282 0.8050443
vt 0.8070463 0.804863
vt 0.8069965 0.8058722
vt 0.8090776 0.8060326
vt 0.8111522 0.8052332
vt 0.8091282 0.8050443
vt 0.8090776 0.8060326
vt 0.8111411 0.806172
vt 0.8028284 0.8045233
vt 0.8007946 0.8042299
vt 0.800405 0.8052729
vt 0.8027251 0.8055837
vt 0.8070463 0.804863
vt 0.8049414 0.804703
vt 0.8048906 0.8057292
vt 0.8069965 0.8058722
vt 0.8084472 0.7860042
vt 0.8057956 0.7858303
vt 0.8049414 0.804703
vt 0.8070463 0.804863
vt 0.8031416 0.7857419
vt 0.8004882 0.7857419
vt 0.8007946 0.8042299
vt 0.8028284 0.8045233
vt 0.8137304 0.7866032
vt 0.8110929 0.7862623
vt 0.8091282 0.8050443
vt 0.8111522 0.8052332
vt 0.8110929 0.7862623
vt 0.8084472 0.7860042
vt 0.8070463 0.804863
vt 0.8091282 0.8050443
vt 0.8057956 0.7858303
vt 0.8031416 0.7857419
vt 0.8028284 0.8045233
vt 0.8049414 0.804703
vt 0.8165556 0.7870746
vt 0.8137304 0.7866032
vt 0.8111522 0.8052332
vt 0.8130765 0.8052899
vt 0.8124675 0.8060738
vt 0.8119665 0.8061734
vt 0.8096406 0.8262146
vt 0.8098132 0.8262468
vt 0.8041897 0.8090467
vt 0.8032469 0.8089914
vt 0.8028702 0.830535
vt 0.8034218 0.8304185
vt 0.8090776 0.8060326
vt 0.8069965 0.8058722
vt 0.8054122 0.8305144
vt 0.806904 0.8306527
vt 0.8111411 0.806172
vt 0.8090776 0.8060326
vt 0.806904 0.8306527
vt 0.8083987 0.8309022
vt 0.8027251 0.8055837
vt 0.800405 0.8052729
vt 0.8008754 0.8307711
vt 0.8023818 0.8305748
vt 0.7991616 0.783444
vt 0.8031416 0.7811462
vt 0.8004882 0.7811462
vt 0.8044683 0.783444
vt 0.8004882 0.7857419
vt 0.8031416 0.7857419
vt 0.8038297 0.8365451
vt 0.8036206 0.8370842
vt 0.8043244 0.8367494
vt 0.8040088 0.8364664
vt 0.8040088 0.8364664
vt 0.8043244 0.8367494
vt 0.803909 0.8304878
vt 0.8034218 0.8304185
vt 0.8032469 0.8089914
vt 0.8027251 0.8055837
vt 0.8023818 0.8305748
vt 0.8028702 0.830535
vt 0.8041897 0.8090467
vt 0.8048906 0.8057292
vt 0.8027251 0.8055837
vt 0.8032469 0.8089914
vt 0.8034218 0.8304185
vt 0.803909 0.8304878
vt 0.8048906 0.8057292
vt 0.8041897 0.8090467
vt 0.8028702 0.830535
vt 0.8023818 0.8305748
vt 0.8036206 0.8370842
vt 0.8038297 0.8365451
vt 0.8124675 0.8060738
vt 0.8132803 0.8061773
vt 0.8130765 0.8052899
vt 0.8123463 0.8052969
vt 0.8119665 0.8061734
vt 0.8111411 0.806172
vt 0.8083987 0.8309022
vt 0.8096406 0.8262146
vt 0.8118885 0.8052837
vt 0.8111522 0.8052332
vt 0.8111411 0.806172
vt 0.8119665 0.8061734
vt 0.8123463 0.8052969
vt 0.8130765 0.8052899
vt 0.8111522 0.8052332
vt 0.8118885 0.8052837
vt 0.8098132 0.8262468
vt 0.8098556 0.8312448
vt 0.8132803 0.8061773
vt 0.8124675 0.8060738
vt 0.8096406 0.8262146
vt 0.8083987 0.8309022
vt 0.8098556 0.8312448
vt 0.8098132 0.8262468

usemtl LOW-POLY-COLORS
usemap LOW-POLY-COLORS
f 2/2/2 1/1/1 3/3/3
f 5/5/5 4/4/4 6/6/6
f 8/8/8 7/7/7 9/9/9
f 11/11/11 10/10/10 12/12/12
f 14/14/14 13/13/13 15/15/15
f 17/17/17 16/16/16 18/18/18
f 20/20/20 19/19/19 21/21/21
f 23/23/23 22/22/22 24/24/24
f 26/26/26 25/25/25 27/27/27
f 29/29/29 28/28/28 30/30/30
f 32/32/32 31/31/31 33/33/33
f 35/35/35 34/34/34 36/36/36
f 38/38/38 37/37/37 39/39/39
f 41/41/41 40/40/40 42/42/42
f 44/44/44 43/43/43 45/45/45
f 46/46/46 43/43/43 44/44/44
f 46/46/46 47/47/47 43/43/43
f 48/48/48 47/47/47 46/46/46
f 50/50/50 49/49/49 51/51/51
f 51/51/51 49/49/49 52/52/52
f 54/54/54 53/53/53 55/55/55
f 55/55/55 53/53/53 56/56/56
f 58/58/58 57/57/57 59/59/59
f 59/59/59 57/57/57 60/60/60
f 62/62/62 61/61/61 63/63/63
f 63/63/63 61/61/61 64/64/64
f 66/66/66 65/65/65 67/67/67
f 67/67/67 65/65/65 68/68/68
f 70/70/70 69/69/69 71/71/71
f 71/71/71 69/69/69 72/72/72
f 74/74/74 73/73/73 75/75/75
f 75/75/75 73/73/73 76/76/76
f 78/78/78 77/77/77 79/79/79
f 79/79/79 77/77/77 80/80/80
f 82/82/82 81/81/81 83/83/83
f 83/83/83 81/81/81 84/84/84
f 86/86/86 85/85/85 87/87/87
f 87/87/87 85/85/85 88/88/88
f 90/90/90 89/89/89 91/91/91
f 91/91/91 89/89/89 92/92/92
f 94/94/94 93/93/93 95/95/95
f 95/95/95 93/93/93 96/96/96
f 98/98/98 97/97/97 99/99/99
f 99/99/99 97/97/97 100/100/100
f 102/102/102 101/101/101 103/103/103
f 103/103/103 101/101/101 104/104/104
f 106/106/106 105/105/105 107/107/107
f 107/107/107 105/105/105 108/108/108
f 110/110/110 109/109/109 111/111/111
f 111/111/111 109/109/109 112/112/112
f 114/114/114 113/113/113 115/115/115
f 115/115/115 113/113/113 116/116/116
f 118/118/118 117/117/117 119/119/119
f 119/119/119 117/117/117 120/120/120
f 122/122/122 121/121/121 123/123/123
f 123/123/123 121/121/121 124/124/124
f 126/126/126 125/125/125 127/127/127
f 127/127/127 125/125/125 128/128/128
f 130/130/130 129/129/129 131/131/131
f 131/131/131 129/129/129 132/132/132
f 134/134/134 133/133/133 135/135/135
f 135/135/135 133/133/133 136/136/136
f 138/138/138 137/137/137 139/139/139
f 139/139/139 137/137/137 140/140/140
f 142/142/142 141/141/141 143/143/143
f 143/143/143 141/141/141 144/144/144
f 146/146/146 145/145/145 147/147/147
f 147/147/147 145/145/145 148/148/148
f 150/150/150 149/149/149 151/151/151
f 151/151/151 149/149/149 152/152/152
f 154/154/154 153/153/153 155/155/155
f 156/156/156 153/153/153 154/154/154
f 156/156/156 157/157/157 153/153/153
f 158/158/158 157/157/157 156/156/156
f 160/160/160 159/159/159 161/161/161
f 161/161/161 159/159/159 162/162/162
f 164/164/164 163/163/163 165/165/165
f 165/165/165 163/163/163 166/166/166
f 168/168/168 167/167/167 169/169/169
f 169/169/169 167/167/167 170/170/170
f 172/172/172 171/171/171 173/173/173
f 173/173/173 171/171/171 174/174/174
f 176/176/176 175/175/175 177/177/177
f 177/177/177 175/175/175 178/178/178
f 180/180/180 179/179/179 181/181/181
f 181/181/181 179/179/179 182/182/182
f 184/184/184 183/183/183 185/185/185
f 185/185/185 183/183/183 186/186/186
f 188/188/188 187/187/187 189/189/189
f 189/189/189 187/187/187 190/190/190
f 192/192/192 191/191/191 193/193/193
f 193/193/193 191/191/191 194/194/194
f 196/196/196 195/195/195 197/197/197
f 197/197/197 195/195/195 198/198/198
f 200/200/200 199/199/199 201/201/201
f 201/201/201 199/199/199 202/202/202
f 204/204/204 203/203/203 205/205/205
f 205/205/205 203/203/203 206/206/206
