mtllib ./carpet-corner_16.mtl
g carpet-corner
v 1 -9.49949E-08 0.7963284
v 1 -9.49949E-08 1
v 1 0.05000011 1
v 1 0.05000011 0.7963285
v -1.799851 -9.49949E-08 -0.7998547
v -2 -9.49949E-08 -1
v -2 0.05000011 -1
v -1.799851 0.05000011 -0.7998549
v -2.8213E-07 -9.49949E-08 1
v -0.2036718 -9.49949E-08 0.7963274
v -0.2036746 0.05000011 0.7963282
v -2.8213E-07 0.05000011 1
v 1 -9.49949E-08 -1
v 1 -9.49949E-08 -0.7998548
v 1 0.05000011 -0.7998546
v 1 0.05000011 -1
v 1 -9.49949E-08 -0.7998548
v 1 -9.49949E-08 0.7963284
v 1 0.05000011 0.7963285
v 1 0.05000011 -0.7998546
v 1 -9.49949E-08 -0.7998548
v -1.799851 -9.49949E-08 -0.7998547
v -0.2036718 -9.49949E-08 0.7963274
v 1 -9.49949E-08 0.7963284
v 1 -9.49949E-08 -1
v -2 -9.49949E-08 -1
v -1.799851 -9.49949E-08 -0.7998547
v 1 -9.49949E-08 -0.7998548
v 1 0.05000011 1
v -2.8213E-07 0.05000011 1
v -0.2036746 0.05000011 0.7963282
v 1 0.05000011 0.7963285
v 1 0.05000011 -0.7998546
v -1.799851 0.05000011 -0.7998549
v -2 0.05000011 -1
v 1 0.05000011 -1
v 1 -9.49949E-08 0.7963284
v -0.2036718 -9.49949E-08 0.7963274
v -2.8213E-07 -9.49949E-08 1
v 1 -9.49949E-08 1
v 1 -9.49949E-08 1
v -2.8213E-07 -9.49949E-08 1
v -2.8213E-07 0.05000011 1
v 1 0.05000011 1
v -2 -9.49949E-08 -1
v 1 -9.49949E-08 -1
v 1 0.05000011 -1
v -2 0.05000011 -1
v 1 0.05000011 -0.7998546
v 1 0.05000011 0.7963285
v -0.2036746 0.05000011 0.7963282
v -1.799851 0.05000011 -0.7998549
v -1.799855 -9.49949E-08 2
v -2 -9.49949E-08 2
v -2 0.05000011 2
v -1.799855 0.05000011 2
v 1.509958E-07 -9.49949E-08 2
v -0.2036716 -9.49949E-08 2
v -0.2036717 0.05000011 2
v 1.509958E-07 0.05000011 2
v -0.2036716 -9.49949E-08 2
v -1.799855 -9.49949E-08 2
v -1.799855 0.05000011 2
v -0.2036717 0.05000011 2
v -1.799851 -9.49949E-08 -0.7998547
v -1.799855 -9.49949E-08 2
v -0.2036716 -9.49949E-08 2
v -0.2036718 -9.49949E-08 0.7963274
v -2 -9.49949E-08 -1
v -2 -9.49949E-08 2
v -1.799855 -9.49949E-08 2
v -1.799851 -9.49949E-08 -0.7998547
v -2.8213E-07 0.05000011 1
v 1.509958E-07 0.05000011 2
v -0.2036717 0.05000011 2
v -0.2036746 0.05000011 0.7963282
v -1.799851 0.05000011 -0.7998549
v -1.799855 0.05000011 2
v -2 0.05000011 2
v -2 0.05000011 -1
v -0.2036718 -9.49949E-08 0.7963274
v -0.2036716 -9.49949E-08 2
v 1.509958E-07 -9.49949E-08 2
v -2.8213E-07 -9.49949E-08 1
v -2.8213E-07 -9.49949E-08 1
v 1.509958E-07 -9.49949E-08 2
v 1.509958E-07 0.05000011 2
v -2.8213E-07 0.05000011 1
v -2 -9.49949E-08 2
v -2 -9.49949E-08 -1
v -2 0.05000011 -1
v -2 0.05000011 2
v -1.799851 0.05000011 -0.7998549
v -0.2036746 0.05000011 0.7963282
v -0.2036717 0.05000011 2
v -1.799855 0.05000011 2

vn 1 0 0
vn 1 0 0
vn 1 0 0
vn 1 0 0
vn -0.7070995 1.05289E-06 0.707114
vn -0.7070995 1.05289E-06 0.707114
vn -0.7070995 1.05289E-06 0.707114
vn -0.7070995 1.05289E-06 0.707114
vn -0.7071059 -2.762323E-05 0.7071075
vn -0.7071059 -2.762323E-05 0.7071075
vn -0.7071059 -2.762323E-05 0.7071075
vn -0.7071059 -2.762323E-05 0.7071075
vn 1 0 0
vn 1 0 0
vn 1 0 0
vn 1 0 0
vn 1 0 0
vn 1 0 0
vn 1 0 0
vn 1 0 0
vn 0 -1 0
vn 0 -1 0
vn 0 -1 0
vn 0 -1 0
vn 0 -1 0
vn 0 -1 0
vn 0 -1 0
vn 0 -1 0
vn 0 1 0
vn 0 1 0
vn 0 1 0
vn 0 1 0
vn 0 1 0
vn 0 1 0
vn 0 1 0
vn 0 1 0
vn 0 -1 0
vn 0 -1 0
vn 0 -1 0
vn 0 -1 0
vn 0 0 1
vn 0 0 1
vn 0 0 1
vn 0 0 1
vn 0 0 -1
vn 0 0 -1
vn 0 0 -1
vn 0 0 -1
vn 0 1 0
vn 0 1 0
vn 0 1 0
vn 0 1 0
vn 0 0 1
vn 0 0 1
vn 0 0 1
vn 0 0 1
vn 0 0 1
vn 0 0 1
vn 0 0 1
vn 0 0 1
vn 0 0 1
vn 0 0 1
vn 0 0 1
vn 0 0 1
vn 0 -1 0
vn 0 -1 0
vn 0 -1 0
vn 0 -1 0
vn 0 -1 0
vn 0 -1 0
vn 0 -1 0
vn 0 -1 0
vn 0 1 0
vn 0 1 0
vn 0 1 0
vn 0 1 0
vn 0 1 0
vn 0 1 0
vn 0 1 0
vn 0 1 0
vn 0 -1 0
vn 0 -1 0
vn 0 -1 0
vn 0 -1 0
vn 1 0 -4.331258E-07
vn 1 0 -4.331258E-07
vn 1 0 -4.331258E-07
vn 1 0 -4.331258E-07
vn -1 0 0
vn -1 0 0
vn -1 0 0
vn -1 0 0
vn 0 1 0
vn 0 1 0
vn 0 1 0
vn 0 1 0

vt 0.3091092 0.5384951
vt 0.3127018 0.5384951
vt 0.3127018 0.5376131
vt 0.3091092 0.5376131
vt 0.314102 0.5362221
vt 0.3091092 0.5362221
vt 0.3091092 0.5371041
vt 0.314102 0.5371041
vt 0.31419 0.5348311
vt 0.3091092 0.5348311
vt 0.3091092 0.5357131
vt 0.31419 0.5357131
vt 0.3091713 0.5398862
vt 0.3127018 0.5398862
vt 0.3127018 0.5390042
vt 0.3091713 0.5390042
vt 0.1873004 0.5341614
vt 0.2154562 0.5341614
vt 0.2154562 0.5332794
vt 0.1873004 0.5332794
vt 0.3372652 0.568204
vt 0.2878768 0.568204
vt 0.3160328 0.59636
vt 0.3372652 0.5963601
vt 0.3620281 0.5108566
vt 0.3091092 0.5108566
vt 0.3126397 0.5143871
vt 0.3620281 0.5143871
vt 0.3303416 0.5279473
vt 0.3127019 0.5279473
vt 0.3091092 0.53154
vt 0.3303416 0.53154
vt 0.3405414 0.601811
vt 0.291391 0.601811
vt 0.2878775 0.6053245
vt 0.3405414 0.6053245
vt 0.3303415 0.5234726
vt 0.3091092 0.5234726
vt 0.3127019 0.5270653
vt 0.3303415 0.5270653
vt 0.3303415 0.5270653
vt 0.3127019 0.5270653
vt 0.3127019 0.5279473
vt 0.3303416 0.5279473
vt 0.2878768 0.6062437
vt 0.3405406 0.6062437
vt 0.3405414 0.6053245
vt 0.2878775 0.6053245
vt 0.1374029 0.6188228
vt 0.165559 0.6188228
vt 0.165559 0.5975903
vt 0.1374029 0.5694344
vt 0.3167417 0.5390054
vt 0.3132111 0.5390042
vt 0.3132109 0.5398862
vt 0.3167413 0.5398874
vt 0.3168036 0.5376131
vt 0.3132109 0.5376131
vt 0.3132109 0.5384951
vt 0.3168036 0.5384951
vt 0.2154562 0.5346705
vt 0.1873004 0.5346705
vt 0.1873004 0.5355524
vt 0.2154562 0.5355524
vt 0.2592117 0.5676949
vt 0.3086001 0.5676949
vt 0.3086 0.5395387
vt 0.2873676 0.5395387
vt 0.2878768 0.6102833
vt 0.3407955 0.6102833
vt 0.3407955 0.6067528
vt 0.2914073 0.6067528
vt 0.3127018 0.5184889
vt 0.3303415 0.5184889
vt 0.3303415 0.5148962
vt 0.3091092 0.5148962
vt 0.2913902 0.6013018
vt 0.3405405 0.601302
vt 0.3405405 0.5977884
vt 0.2878768 0.5977883
vt 0.3091092 0.5229635
vt 0.3303415 0.5229635
vt 0.3303415 0.5193709
vt 0.3127018 0.5193709
vt 0.3127018 0.5193709
vt 0.3303415 0.5193709
vt 0.3303415 0.5184889
vt 0.3127018 0.5184889
vt 0.3405412 0.5968692
vt 0.2878775 0.5968691
vt 0.2878768 0.5977883
vt 0.3405405 0.5977884
vt 0.1374029 0.512087
vt 0.1655493 0.5402527
vt 0.1867816 0.5402601
vt 0.1867913 0.512104

usemtl LOW-POLY-COLORS
usemap LOW-POLY-COLORS
f 2/2/2 1/1/1 3/3/3
f 3/3/3 1/1/1 4/4/4
f 6/6/6 5/5/5 7/7/7
f 7/7/7 5/5/5 8/8/8
f 10/10/10 9/9/9 11/11/11
f 11/11/11 9/9/9 12/12/12
f 14/14/14 13/13/13 15/15/15
f 15/15/15 13/13/13 16/16/16
f 18/18/18 17/17/17 19/19/19
f 19/19/19 17/17/17 20/20/20
f 22/22/22 21/21/21 23/23/23
f 23/23/23 21/21/21 24/24/24
f 26/26/26 25/25/25 27/27/27
f 27/27/27 25/25/25 28/28/28
f 30/30/30 29/29/29 31/31/31
f 31/31/31 29/29/29 32/32/32
f 34/34/34 33/33/33 35/35/35
f 35/35/35 33/33/33 36/36/36
f 38/38/38 37/37/37 39/39/39
f 39/39/39 37/37/37 40/40/40
f 42/42/42 41/41/41 43/43/43
f 43/43/43 41/41/41 44/44/44
f 46/46/46 45/45/45 47/47/47
f 47/47/47 45/45/45 48/48/48
f 50/50/50 49/49/49 51/51/51
f 51/51/51 49/49/49 52/52/52
f 54/54/54 53/53/53 55/55/55
f 55/55/55 53/53/53 56/56/56
f 58/58/58 57/57/57 59/59/59
f 59/59/59 57/57/57 60/60/60
f 62/62/62 61/61/61 63/63/63
f 63/63/63 61/61/61 64/64/64
f 66/66/66 65/65/65 67/67/67
f 67/67/67 65/65/65 68/68/68
f 70/70/70 69/69/69 71/71/71
f 71/71/71 69/69/69 72/72/72
f 74/74/74 73/73/73 75/75/75
f 75/75/75 73/73/73 76/76/76
f 78/78/78 77/77/77 79/79/79
f 79/79/79 77/77/77 80/80/80
f 82/82/82 81/81/81 83/83/83
f 83/83/83 81/81/81 84/84/84
f 86/86/86 85/85/85 87/87/87
f 87/87/87 85/85/85 88/88/88
f 90/90/90 89/89/89 91/91/91
f 91/91/91 89/89/89 92/92/92
f 94/94/94 93/93/93 95/95/95
f 95/95/95 93/93/93 96/96/96
