mtllib ./carpet_15.mtl
g carpet
v 0.7963282 -9.49949E-08 -1
v 1 -9.49949E-08 -1
v 1 0.05000011 -1
v 0.7963284 0.05000011 -1
v -0.7998547 -9.49949E-08 1
v -1 -9.49949E-08 1
v -1 0.05000011 1
v -0.7998549 0.05000011 1
v 1 -9.49949E-08 1
v 0.7963284 -9.49949E-08 1
v 0.7963282 0.05000011 1
v 1 0.05000011 1
v 0.7963284 -9.49949E-08 1
v -0.7998547 -9.49949E-08 1
v -0.7998549 0.05000011 1
v 0.7963282 0.05000011 1
v -1 -9.49949E-08 -1
v -0.7998549 -9.49949E-08 -1
v -0.7998547 0.05000011 -1
v -1 0.05000011 -1
v -0.7998549 -9.49949E-08 -1
v 0.7963282 -9.49949E-08 -1
v 0.7963284 0.05000011 -1
v -0.7998547 0.05000011 -1
v -0.7998549 -9.49949E-08 -1
v -0.7998547 -9.49949E-08 1
v 0.7963284 -9.49949E-08 1
v 0.7963282 -9.49949E-08 -1
v -1 -9.49949E-08 -1
v -1 -9.49949E-08 1
v -0.7998547 -9.49949E-08 1
v -0.7998549 -9.49949E-08 -1
v 1 0.05000011 -1
v 1 0.05000011 1
v 0.7963282 0.05000011 1
v 0.7963284 0.05000011 -1
v -0.7998547 0.05000011 -1
v -0.7998549 0.05000011 1
v -1 0.05000011 1
v -1 0.05000011 -1
v 0.7963282 -9.49949E-08 -1
v 0.7963284 -9.49949E-08 1
v 1 -9.49949E-08 1
v 1 -9.49949E-08 -1
v 1 -9.49949E-08 -1
v 1 -9.49949E-08 1
v 1 0.05000011 1
v 1 0.05000011 -1
v -1 -9.49949E-08 1
v -1 -9.49949E-08 -1
v -1 0.05000011 -1
v -1 0.05000011 1
v -0.7998549 0.05000011 1
v -0.7998547 0.05000011 -1
v 0.7963284 0.05000011 -1
v 0.7963282 0.05000011 1

vn 0 0 -1
vn 0 0 -1
vn 0 0 -1
vn 0 0 -1
vn 0 0 1
vn 0 0 1
vn 0 0 1
vn 0 0 1
vn 0 0 1
vn 0 0 1
vn 0 0 1
vn 0 0 1
vn 0 0 1
vn 0 0 1
vn 0 0 1
vn 0 0 1
vn 0 0 -1
vn 0 0 -1
vn 0 0 -1
vn 0 0 -1
vn 0 0 -1
vn 0 0 -1
vn 0 0 -1
vn 0 0 -1
vn 0 -1 0
vn 0 -1 0
vn 0 -1 0
vn 0 -1 0
vn 0 -1 0
vn 0 -1 0
vn 0 -1 0
vn 0 -1 0
vn 0 1 0
vn 0 1 0
vn 0 1 0
vn 0 1 0
vn 0 1 0
vn 0 1 0
vn 0 1 0
vn 0 1 0
vn 0 -1 0
vn 0 -1 0
vn 0 -1 0
vn 0 -1 0
vn 1 0 0
vn 1 0 0
vn 1 0 0
vn 1 0 0
vn -1 0 0
vn -1 0 0
vn -1 0 0
vn -1 0 0
vn 0 1 0
vn 0 1 0
vn 0 1 0
vn 0 1 0

vt 0.3171339 0.5248591
vt 0.3217292 0.5248591
vt 0.3217292 0.5237311
vt 0.3171339 0.5237311
vt 0.3216497 0.5280409
vt 0.3171339 0.5280409
vt 0.3171339 0.529169
vt 0.3216497 0.529169
vt 0.3217292 0.5251676
vt 0.3171339 0.5251676
vt 0.3171339 0.5262957
vt 0.3217292 0.5262957
vt 0.2281472 0.5247639
vt 0.1921339 0.5247639
vt 0.1921339 0.5258921
vt 0.2281472 0.5258921
vt 0.3171339 0.5277324
vt 0.3216497 0.5277324
vt 0.3216497 0.5266043
vt 0.3171339 0.5266043
vt 0.1921339 0.5273286
vt 0.2281472 0.5273287
vt 0.2281472 0.5262005
vt 0.1921339 0.5262005
vt 0.1918254 0.5562618
vt 0.1467006 0.5562618
vt 0.1467006 0.5922756
vt 0.1918254 0.5922756
vt 0.3622588 0.5160334
vt 0.3171339 0.5160334
vt 0.3171339 0.5205491
vt 0.3622588 0.5205491
vt 0.3168254 0.5944012
vt 0.2717006 0.5944012
vt 0.2717006 0.5989967
vt 0.3168254 0.5989967
vt 0.3168255 0.5993051
vt 0.2717006 0.5993051
vt 0.2717006 0.6038209
vt 0.3168255 0.6038209
vt 0.3168254 0.5886778
vt 0.2717006 0.5886779
vt 0.2717006 0.5932732
vt 0.3168254 0.5932732
vt 0.3168254 0.5932732
vt 0.2717006 0.5932732
vt 0.2717006 0.5944012
vt 0.3168254 0.5944012
vt 0.2717006 0.604949
vt 0.3168255 0.604949
vt 0.3168255 0.6038209
vt 0.2717006 0.6038209
vt 0.1467006 0.5559534
vt 0.1918254 0.5559534
vt 0.1918254 0.5199397
vt 0.1467006 0.5199397

usemtl LOW-POLY-COLORS
usemap LOW-POLY-COLORS
f 2/2/2 1/1/1 3/3/3
f 3/3/3 1/1/1 4/4/4
f 6/6/6 5/5/5 7/7/7
f 7/7/7 5/5/5 8/8/8
f 10/10/10 9/9/9 11/11/11
f 11/11/11 9/9/9 12/12/12
f 14/14/14 13/13/13 15/15/15
f 15/15/15 13/13/13 16/16/16
f 18/18/18 17/17/17 19/19/19
f 19/19/19 17/17/17 20/20/20
f 22/22/22 21/21/21 23/23/23
f 23/23/23 21/21/21 24/24/24
f 26/26/26 25/25/25 27/27/27
f 27/27/27 25/25/25 28/28/28
f 30/30/30 29/29/29 31/31/31
f 31/31/31 29/29/29 32/32/32
f 34/34/34 33/33/33 35/35/35
f 35/35/35 33/33/33 36/36/36
f 38/38/38 37/37/37 39/39/39
f 39/39/39 37/37/37 40/40/40
f 42/42/42 41/41/41 43/43/43
f 43/43/43 41/41/41 44/44/44
f 46/46/46 45/45/45 47/47/47
f 47/47/47 45/45/45 48/48/48
f 50/50/50 49/49/49 51/51/51
f 51/51/51 49/49/49 52/52/52
f 54/54/54 53/53/53 55/55/55
f 55/55/55 53/53/53 56/56/56
