mtllib ./dungeon-wall-dirt_24.mtl
g dungeon-wall-dirt
v -2 1.0125 0
v -2 2.0125 0.06159973
v -0.6666666 2.0125 0
v -0.6666666 3 0.06863403
v 0.6666666 3 0
v -0.6666666 2.0125 0
v -0.09914581 1.010938 0.06558878
v -2 1.0125 0
v -2 1.0125 0
v -0.6666666 0 0.06863403
v -2 0 0
v 0.6666666 0.50625 0.06952667
v 0.3415478 0 0.0764433
v -0.6666666 0 0.06863403
v 0.6666666 1.0125 0
v -0.09914581 1.010938 0.06558878
v 0.6666666 0.50625 0.06952667
v 2 1.0125 0
v 2 0 0
v -0.6666666 2.0125 0
v -2 2.0125 0.06159973
v -2 3 0
v 0.6666666 1.0125 0
v -0.09914581 1.010938 0.06558878
v 0.3425446 1.5125 0
v 2 1.0125 0
v 1.458761 1.60657 0.1031801
v 2 2.0125 0.06159973
v 0.6666666 2.0125 0.08800888
v 0.3425446 1.5125 0
v -0.6666666 2.0125 0
v 0.6666666 1.0125 0
v 1.458761 1.60657 0.1031801
v -0.6666666 2.0125 0
v -2 3 0
v -0.6666666 3 0.06863403
v -0.6666666 2.0125 0
v 0.6666666 3 0
v 0.6666666 2.0125 0.08800888
v 0.6666666 1.0125 0
v 0.3425446 1.5125 0
v 0.6666666 2.0125 0.08800888
v 0.6666666 0.50625 0.06952667
v 2 0 0
v 0.3415478 0 0.0764433
v 0.6666666 1.0125 0
v 1.458761 1.60657 0.1031801
v 2 1.0125 0
v 1.458761 1.60657 0.1031801
v 0.6666666 2.0125 0.08800888
v 2 2.0125 0.06159973
v 0.6666666 3 0
v 2 3 0
v 0.6666666 3 0
v 2 3 -0.1999992
v 2 3 0
v 0.6666666 3 -0.1999992
v -0.6666666 3 0.06863403
v -0.6666666 3 -0.1313652
v -2 3 0
v -2 3 -0.1999992
v -0.6666666 3 -0.1313652
v -0.6666666 0 -0.1313652
v 0.6666666 0 -0.1999992
v 0.6666666 3 -0.1999992
v 0.6666666 3 -0.1999992
v 0.6666666 0 -0.1999992
v 2 0 -0.1999992
v 2 3 -0.1999992
v -2 3 -0.1999992
v -2 0 -0.1999992
v -0.6666666 0 -0.1313652
v -0.6666666 3 -0.1313652
v 2 3 0
v 2 3 -0.1999992
v 2 2.0125 0.06159973
v 2 1.0125 0
v 2 0 -0.1999992
v 2 0 0
v -2 3 0
v -2 2.0125 0.06159973
v -2 3 -0.1999992
v -2 0 -0.1999992
v -2 1.0125 0
v -2 0 0
v -2 0 0
v -0.6666666 0 -0.1313652
v -2 0 -0.1999992
v -0.6666666 0 0.06863403
v 0.6666666 0 -0.1999992
v 0.3415478 0 0.0764433
v 2 0 0
v 2 0 -0.1999992

vn 0.04606345 -0.06141793 0.9970487
vn 0.04606345 -0.06141793 0.9970487
vn 0.04606345 -0.06141793 0.9970487
vn 0.05128408 -0.06924433 0.9962806
vn 0.05128408 -0.06924433 0.9962806
vn -0.0344104 0.04588053 0.9983541
vn -0.0344104 0.04588053 0.9983541
vn -0.0344104 0.04588053 0.9983541
vn -0.05140745 0 0.9986777
vn -0.05140745 0 0.9986777
vn -0.05140745 0 0.9986777
vn -0.007744072 0.01863305 0.9997965
vn -0.007744072 0.01863305 0.9997965
vn 0.02114226 0.03987595 0.9989809
vn 0.02114226 0.03987595 0.9989809
vn 0.02114226 0.03987595 0.9989809
vn 0.03470604 0.04570343 0.9983519
vn 0.03470604 0.04570343 0.9983519
vn 0.03470604 0.04570343 0.9983519
vn 0.0460612 0.06219237 0.9970006
vn 0.0460612 0.06219237 0.9970006
vn 0.0460612 0.06219237 0.9970006
vn 0.05878143 0.07837522 0.9951894
vn 0.05878143 0.07837522 0.9951894
vn 0.05878143 0.07837522 0.9951894
vn 0.1218762 -0.06102488 0.9906675
vn 0.1218762 -0.06102488 0.9906675
vn 0.1218762 -0.06102488 0.9906675
vn -0.06528895 -0.1317807 0.9891265
vn -0.06528895 -0.1317807 0.9891265
vn -0.06528895 -0.1317807 0.9891265
vn -0.06387768 -0.08749097 0.9941151
vn -0.06387768 -0.08749097 0.9941151
vn -0.05128408 -0.06924433 0.9962806
vn -0.05128408 -0.06924433 0.9962806
vn -0.05128408 -0.06924433 0.9962806
vn -0.06560443 0.08857983 0.9939063
vn -0.06560443 0.08857983 0.9939063
vn -0.06560443 0.08857983 0.9939063
vn -0.1340221 -0.08687908 0.9871626
vn -0.1340221 -0.08687908 0.9871626
vn -0.1340221 -0.08687908 0.9871626
vn 0.04603844 -0.01592009 0.9988128
vn 0.04603844 -0.01592009 0.9988128
vn 0.04603844 -0.01592009 0.9988128
vn 0 -0.1711214 0.9852499
vn 0 -0.1711214 0.9852499
vn 0 -0.1711214 0.9852499
vn 0.01974603 0.07578989 0.9969283
vn 0.01972483 0.0887538 0.9958583
vn 0.01972483 0.0887538 0.9958583
vn 0.01972483 0.0887538 0.9958583
vn 0 0.06225846 0.99806
vn 0 1 0
vn 0 1 0
vn 0 1 0
vn 0 1 0
vn 0 1 0
vn 0 1 0
vn 0 1 0
vn 0 1 0
vn -0.05140746 0 -0.9986777
vn -0.05140746 0 -0.9986777
vn -0.05140746 0 -0.9986777
vn -0.05140746 0 -0.9986777
vn 0 0 -1
vn 0 0 -1
vn 0 0 -1
vn 0 0 -1
vn 0.05140746 0 -0.9986777
vn 0.05140746 0 -0.9986777
vn 0.05140746 0 -0.9986777
vn 0.05140746 0 -0.9986777
vn 1 0 0
vn 1 0 0
vn 1 0 0
vn 1 0 0
vn 1 0 0
vn 1 0 0
vn -1 0 0
vn -1 0 0
vn -1 0 0
vn -1 0 0
vn -1 0 0
vn -1 0 0
vn 0 -1 0
vn 0 -1 0
vn 0 -1 0
vn 0 -1 0
vn 0 -1 0
vn 0 -1 0
vn 0 -1 0
vn 0 -1 0

vt 0.01890209 0.7946943
vt 0.01890416 0.8151131
vt 0.04604137 0.8150154
vt 0.04594743 0.8349181
vt 0.07306828 0.8356087
vt 0.04604137 0.8150154
vt 0.0576515 0.7946508
vt 0.01890209 0.7946943
vt 0.01890209 0.7946943
vt 0.04614409 0.7740338
vt 0.01890167 0.7740344
vt 0.07328062 0.7844442
vt 0.06669848 0.7741046
vt 0.04614409 0.7740338
vt 0.07328168 0.7948427
vt 0.0576515 0.7946508
vt 0.07328062 0.7844442
vt 0.1004031 0.7948989
vt 0.1005138 0.7742736
vt 0.04604137 0.8150154
vt 0.01890416 0.8151131
vt 0.01906068 0.835262
vt 0.07328168 0.7948427
vt 0.0576515 0.7946508
vt 0.06660582 0.8049567
vt 0.1004031 0.7948989
vt 0.08931924 0.807074
vt 0.10034 0.8153448
vt 0.0732308 0.8152725
vt 0.06660582 0.8049567
vt 0.04604137 0.8150154
vt 0.07328168 0.7948427
vt 0.08931924 0.807074
vt 0.04604137 0.8150154
vt 0.01906068 0.835262
vt 0.04594743 0.8349181
vt 0.04604137 0.8150154
vt 0.07306828 0.8356087
vt 0.0732308 0.8152725
vt 0.07328168 0.7948427
vt 0.06660582 0.8049567
vt 0.0732308 0.8152725
vt 0.07328062 0.7844442
vt 0.1005138 0.7742736
vt 0.06669848 0.7741046
vt 0.07328168 0.7948427
vt 0.08931924 0.807074
vt 0.1004031 0.7948989
vt 0.08931924 0.807074
vt 0.0732308 0.8152725
vt 0.10034 0.8153448
vt 0.07306828 0.8356087
vt 0.1003703 0.8354351
vt 0.07306828 0.8356087
vt 0.1003961 0.8395249
vt 0.1003703 0.8354351
vt 0.07313016 0.8396964
vt 0.04594743 0.8349181
vt 0.04592015 0.8389513
vt 0.01906068 0.835262
vt 0.01890572 0.8393062
vt 0.03194851 0.07034851
vt 0.08197741 0.06917337
vt 0.08051787 0.04878677
vt 0.03194856 0.04749936
vt 0.03194856 0.04749936
vt 0.08051787 0.04878677
vt 0.07781722 0.031572
vt 0.03322181 0.02421725
vt 0.03486244 0.09728152
vt 0.07703753 0.0864411
vt 0.08197741 0.06917337
vt 0.03194851 0.07034851
vt 0.03374717 0.02096361
vt 0.03322181 0.02421725
vt 0.04997401 0.02255537
vt 0.06608059 0.02618431
vt 0.07781722 0.031572
vt 0.0802094 0.02955826
vt 0.03563957 0.1003526
vt 0.05104225 0.09746141
vt 0.03486244 0.09728152
vt 0.07703753 0.0864411
vt 0.06615803 0.09262984
vt 0.07922969 0.08831258
vt 0.07922969 0.08831258
vt 0.08197741 0.06917337
vt 0.07703753 0.0864411
vt 0.08497606 0.06949773
vt 0.08051787 0.04878677
vt 0.08504897 0.05325478
vt 0.0802094 0.02955826
vt 0.07781722 0.031572

usemtl LOW-POLY-COLORS
usemap LOW-POLY-COLORS
f 2/2/2 1/1/1 3/3/3
f 4/4/4 3/3/3 5/5/5
f 7/7/7 6/6/6 8/8/8
f 7/7/7 9/9/9 10/10/10
f 11/11/11 10/10/10 9/9/9
f 12/12/12 10/10/10 13/13/13
f 15/15/15 14/14/14 12/12/12
f 16/16/16 14/14/14 15/15/15
f 15/15/15 17/17/17 18/18/18
f 18/18/18 17/17/17 19/19/19
f 21/21/21 20/20/20 22/22/22
f 24/24/24 23/23/23 20/20/20
f 20/20/20 23/23/23 25/25/25
f 27/27/27 26/26/26 28/28/28
f 30/30/30 29/29/29 31/31/31
f 29/29/29 32/32/32 33/33/33
f 35/35/35 34/34/34 36/36/36
f 38/38/38 37/37/37 39/39/39
f 41/41/41 40/40/40 42/42/42
f 44/44/44 43/43/43 45/45/45
f 47/47/47 46/46/46 48/48/48
f 50/50/50 49/49/49 51/51/51
f 50/50/50 51/51/51 52/52/52
f 52/52/52 51/51/51 53/53/53
f 55/55/55 54/54/54 56/56/56
f 57/57/57 54/54/54 55/55/55
f 57/57/57 58/58/58 54/54/54
f 59/59/59 58/58/58 57/57/57
f 59/59/59 60/60/60 58/58/58
f 61/61/61 60/60/60 59/59/59
f 63/63/63 62/62/62 64/64/64
f 64/64/64 62/62/62 65/65/65
f 67/67/67 66/66/66 68/68/68
f 68/68/68 66/66/66 69/69/69
f 71/71/71 70/70/70 72/72/72
f 72/72/72 70/70/70 73/73/73
f 75/75/75 74/74/74 76/76/76
f 76/76/76 77/77/77 75/75/75
f 75/75/75 77/77/77 78/78/78
f 77/77/77 79/79/79 78/78/78
f 81/81/81 80/80/80 82/82/82
f 83/83/83 81/81/81 82/82/82
f 84/84/84 81/81/81 83/83/83
f 83/83/83 85/85/85 84/84/84
f 87/87/87 86/86/86 88/88/88
f 89/89/89 86/86/86 87/87/87
f 90/90/90 89/89/89 87/87/87
f 91/91/91 89/89/89 90/90/90
f 91/91/91 90/90/90 92/92/92
f 92/92/92 90/90/90 93/93/93
