mtllib ./dungeon-pillar-stone-round-tall_1.mtl
g dungeon-pillar-stone-round-tall
v 0.4242641 0 0.424264
v 5.245367E-08 0 0.6
v 5.245367E-08 0.3489091 0.6
v 0.4242641 0.3489091 0.424264
v -0.4242641 0 0.4242641
v -0.6 0 2.622683E-08
v -0.6 0.3489091 2.622683E-08
v -0.4242641 0.3489091 0.4242641
v -0.4242641 0 -0.4242641
v 0 0 -0.6
v 0 0.3489091 -0.6
v -0.4242641 0.3489091 -0.4242641
v 0 0 -0.6
v 0.4242641 0 -0.424264
v 0.4242641 0.3489091 -0.424264
v 0 0.3489091 -0.6
v 0.6 0 -7.154929E-09
v 0.4242641 0 0.424264
v 0.4242641 0.3489091 0.424264
v 0.6 0.3489091 -7.154929E-09
v 5.245367E-08 0 0.6
v -0.4242641 0 0.4242641
v -0.4242641 0.3489091 0.4242641
v 5.245367E-08 0.3489091 0.6
v -0.6 0 2.622683E-08
v -0.4242641 0 -0.4242641
v -0.4242641 0.3489091 -0.4242641
v -0.6 0.3489091 2.622683E-08
v 0.4242641 0 -0.424264
v 0.6 0 -7.154929E-09
v 0.6 0.3489091 -7.154929E-09
v 0.4242641 0.3489091 -0.424264
v 0 0.3489091 -0.6
v 0.4242641 0.3489091 -0.424264
v 0.336831 0.4388106 -0.3368309
v 0 0.4388106 -0.4763508
v 0.6 0.3489091 -7.154929E-09
v 0.4242641 0.3489091 0.424264
v 0.336831 0.4388106 0.3368309
v 0.4763508 0.4388106 -5.680426E-09
v 5.245367E-08 0.3489091 0.6
v -0.4242641 0.3489091 0.4242641
v -0.3368309 0.4388106 0.3368309
v 4.164391E-08 0.4388106 0.4763508
v -0.6 0.3489091 2.622683E-08
v -0.4242641 0.3489091 -0.4242641
v -0.3368309 0.4388106 -0.3368309
v -0.4763508 0.4388106 2.082196E-08
v 0.4242641 0.3489091 -0.424264
v 0.6 0.3489091 -7.154929E-09
v 0.4763508 0.4388106 -5.680426E-09
v 0.336831 0.4388106 -0.3368309
v 0.4242641 0.3489091 0.424264
v 5.245367E-08 0.3489091 0.6
v 4.164391E-08 0.4388106 0.4763508
v 0.336831 0.4388106 0.3368309
v -0.4242641 0.3489091 0.4242641
v -0.6 0.3489091 2.622683E-08
v -0.4763508 0.4388106 2.082196E-08
v -0.3368309 0.4388106 0.3368309
v -0.4242641 0.3489091 -0.4242641
v 0 0.3489091 -0.6
v 0 0.4388106 -0.4763508
v -0.3368309 0.4388106 -0.3368309
v -0.3368309 0.4388106 0.3368309
v -0.4763508 0.4388106 2.082196E-08
v -0.4763508 8.910302 2.082196E-08
v -0.3368309 8.910302 0.3368309
v -0.3368309 0.4388106 -0.3368309
v 0 0.4388106 -0.4763508
v 0 8.910302 -0.4763508
v -0.3368309 8.910302 -0.3368309
v 0 0.4388106 -0.4763508
v 0.336831 0.4388106 -0.3368309
v 0.336831 8.910302 -0.3368309
v 0 8.910302 -0.4763508
v 0.4763508 0.4388106 -5.680426E-09
v 0.336831 0.4388106 0.3368309
v 0.336831 8.910302 0.3368309
v 0.4763508 8.910302 -5.680426E-09
v 4.164391E-08 0.4388106 0.4763508
v -0.3368309 0.4388106 0.3368309
v -0.3368309 8.910302 0.3368309
v 4.164391E-08 8.910302 0.4763508
v -0.4763508 0.4388106 2.082196E-08
v -0.3368309 0.4388106 -0.3368309
v -0.3368309 8.910302 -0.3368309
v -0.4763508 8.910302 2.082196E-08
v 0.336831 0.4388106 -0.3368309
v 0.4763508 0.4388106 -5.680426E-09
v 0.4763508 8.910302 -5.680426E-09
v 0.336831 8.910302 -0.3368309
v 0.336831 0.4388106 0.3368309
v 4.164391E-08 0.4388106 0.4763508
v 4.164391E-08 8.910302 0.4763508
v 0.336831 8.910302 0.3368309
v 5.245367E-08 9.109001 0.6
v 5.245367E-08 9.001821 0.6
v -0.4242641 9.001821 0.4242641
v -0.4242641 9.109001 0.4242641
v -0.6 9.109001 2.622683E-08
v -0.6 9.001821 2.622683E-08
v -0.4242641 9.001821 -0.4242641
v -0.4242641 9.109001 -0.4242641
v 0.4242641 9.109001 -0.424264
v 0.4242641 9.001821 -0.424264
v 0.6 9.001821 -7.154929E-09
v 0.6 9.109001 -7.154929E-09
v 0.4242641 9.109001 0.424264
v 0.4242641 9.001821 0.424264
v 5.245367E-08 9.001821 0.6
v 5.245367E-08 9.109001 0.6
v -0.4242641 9.109001 0.4242641
v -0.4242641 9.001821 0.4242641
v -0.6 9.001821 2.622683E-08
v -0.6 9.109001 2.622683E-08
v -0.4242641 9.109001 -0.4242641
v -0.4242641 9.001821 -0.4242641
v 0 9.001821 -0.6
v 0 9.109001 -0.6
v 0 9.109001 -0.6
v 0 9.001821 -0.6
v 0.4242641 9.001821 -0.424264
v 0.4242641 9.109001 -0.424264
v 0.6 9.109001 -7.154929E-09
v 0.6 9.001821 -7.154929E-09
v 0.4242641 9.001821 0.424264
v 0.4242641 9.109001 0.424264
v 0 8.910302 -0.4763508
v 0.336831 8.910302 -0.3368309
v 0.4242641 9.001821 -0.424264
v 0 9.001821 -0.6
v 0.336831 8.910302 -0.3368309
v 0.4763508 8.910302 -5.680426E-09
v 0.6 9.001821 -7.154929E-09
v 0.4242641 9.001821 -0.424264
v 0.4763508 8.910302 -5.680426E-09
v 0.336831 8.910302 0.3368309
v 0.4242641 9.001821 0.424264
v 0.6 9.001821 -7.154929E-09
v 0.336831 8.910302 0.3368309
v 4.164391E-08 8.910302 0.4763508
v 5.245367E-08 9.001821 0.6
v 0.4242641 9.001821 0.424264
v 4.164391E-08 8.910302 0.4763508
v -0.3368309 8.910302 0.3368309
v -0.4242641 9.001821 0.4242641
v 5.245367E-08 9.001821 0.6
v -0.3368309 8.910302 0.3368309
v -0.4763508 8.910302 2.082196E-08
v -0.6 9.001821 2.622683E-08
v -0.4242641 9.001821 0.4242641
v -0.4763508 8.910302 2.082196E-08
v -0.3368309 8.910302 -0.3368309
v -0.4242641 9.001821 -0.4242641
v -0.6 9.001821 2.622683E-08
v -0.3368309 8.910302 -0.3368309
v 0 8.910302 -0.4763508
v 0 9.001821 -0.6
v -0.4242641 9.001821 -0.4242641
v -0.6 9.109001 2.622683E-08
v 5.245367E-08 9.109001 0.6
v -0.4242641 9.109001 0.4242641
v 2.622684E-08 9.109001 5.960464E-08
v -0.4242641 9.109001 -0.4242641
v 0.4242641 9.109001 0.424264
v 0 9.109001 -0.6
v 0.6 9.109001 -7.154929E-09
v 0.4242641 9.109001 -0.424264
v -0.6 0 2.622683E-08
v -0.4242641 0 0.4242641
v 5.245367E-08 0 0.6
v 2.622683E-08 0 0
v -0.4242641 0 -0.4242641
v 0.4242641 0 0.424264
v 0 0 -0.6
v 0.6 0 -7.154929E-09
v 0.4242641 0 -0.424264

vn 0.3826835 0 0.9238794
vn 0.3826835 0 0.9238794
vn 0.3826835 0 0.9238794
vn 0.3826835 0 0.9238794
vn -0.9238795 0 0.3826835
vn -0.9238795 0 0.3826835
vn -0.9238795 0 0.3826835
vn -0.9238795 0 0.3826835
vn -0.3826835 0 -0.9238795
vn -0.3826835 0 -0.9238795
vn -0.3826835 0 -0.9238795
vn -0.3826835 0 -0.9238795
vn 0.3826835 0 -0.9238795
vn 0.3826835 0 -0.9238795
vn 0.3826835 0 -0.9238795
vn 0.3826835 0 -0.9238795
vn 0.9238795 0 0.3826833
vn 0.9238795 0 0.3826833
vn 0.9238795 0 0.3826833
vn 0.9238795 0 0.3826833
vn -0.3826834 0 0.9238795
vn -0.3826834 0 0.9238795
vn -0.3826834 0 0.9238795
vn -0.3826834 0 0.9238795
vn -0.9238795 0 -0.3826834
vn -0.9238795 0 -0.3826834
vn -0.9238795 0 -0.3826834
vn -0.9238795 0 -0.3826834
vn 0.9238795 0 -0.3826833
vn 0.9238795 0 -0.3826833
vn 0.9238795 0 -0.3826833
vn 0.9238795 0 -0.3826833
vn 0.2366641 0.7858373 -0.5713579
vn 0.2366641 0.7858373 -0.5713579
vn 0.2366641 0.7858373 -0.5713579
vn 0.2366641 0.7858373 -0.5713579
vn 0.5713579 0.7858373 0.2366641
vn 0.5713579 0.7858373 0.2366641
vn 0.5713579 0.7858373 0.2366641
vn 0.5713579 0.7858373 0.2366641
vn -0.2366641 0.7858373 0.5713579
vn -0.2366641 0.7858373 0.5713579
vn -0.2366641 0.7858373 0.5713579
vn -0.2366641 0.7858373 0.5713579
vn -0.571358 0.7858373 -0.2366642
vn -0.571358 0.7858373 -0.2366642
vn -0.571358 0.7858373 -0.2366642
vn -0.571358 0.7858373 -0.2366642
vn 0.5713579 0.7858373 -0.2366641
vn 0.5713579 0.7858373 -0.2366641
vn 0.5713579 0.7858373 -0.2366641
vn 0.5713579 0.7858373 -0.2366641
vn 0.2366642 0.7858373 0.5713579
vn 0.2366642 0.7858373 0.5713579
vn 0.2366642 0.7858373 0.5713579
vn 0.2366642 0.7858373 0.5713579
vn -0.5713579 0.7858373 0.2366642
vn -0.5713579 0.7858373 0.2366642
vn -0.5713579 0.7858373 0.2366642
vn -0.5713579 0.7858373 0.2366642
vn -0.2366641 0.7858373 -0.571358
vn -0.2366641 0.7858373 -0.571358
vn -0.2366641 0.7858373 -0.571358
vn -0.2366641 0.7858373 -0.571358
vn -0.9238795 0 0.3826834
vn -0.9238795 0 0.3826834
vn -0.9238795 0 0.3826834
vn -0.9238795 0 0.3826834
vn -0.3826835 0 -0.9238795
vn -0.3826835 0 -0.9238795
vn -0.3826835 0 -0.9238795
vn -0.3826835 0 -0.9238795
vn 0.3826835 0 -0.9238795
vn 0.3826835 0 -0.9238795
vn 0.3826835 0 -0.9238795
vn 0.3826835 0 -0.9238795
vn 0.9238796 0 0.3826832
vn 0.9238796 0 0.3826832
vn 0.9238796 0 0.3826832
vn 0.9238796 0 0.3826832
vn -0.3826834 0 0.9238795
vn -0.3826834 0 0.9238795
vn -0.3826834 0 0.9238795
vn -0.3826834 0 0.9238795
vn -0.9238795 0 -0.3826834
vn -0.9238795 0 -0.3826834
vn -0.9238795 0 -0.3826834
vn -0.9238795 0 -0.3826834
vn 0.9238796 0 -0.3826832
vn 0.9238796 0 -0.3826832
vn 0.9238796 0 -0.3826832
vn 0.9238796 0 -0.3826832
vn 0.3826835 0 0.9238795
vn 0.3826835 0 0.9238795
vn 0.3826835 0 0.9238795
vn 0.3826835 0 0.9238795
vn -0.3826824 0 0.92388
vn -0.3826824 0 0.92388
vn -0.3826824 0 0.92388
vn -0.3826824 0 0.92388
vn -0.9238794 0 -0.3826836
vn -0.9238794 0 -0.3826836
vn -0.9238794 0 -0.3826836
vn -0.9238794 0 -0.3826836
vn 0.9238795 0 -0.3826834
vn 0.9238795 0 -0.3826834
vn 0.9238795 0 -0.3826834
vn 0.9238795 0 -0.3826834
vn 0.3826845 0 0.9238791
vn 0.3826845 0 0.9238791
vn 0.3826845 0 0.9238791
vn 0.3826845 0 0.9238791
vn -0.9238794 0 0.3826836
vn -0.9238794 0 0.3826836
vn -0.9238794 0 0.3826836
vn -0.9238794 0 0.3826836
vn -0.3826824 0 -0.9238799
vn -0.3826824 0 -0.9238799
vn -0.3826824 0 -0.9238799
vn -0.3826824 0 -0.9238799
vn 0.3826844 0 -0.9238791
vn 0.3826844 0 -0.9238791
vn 0.3826844 0 -0.9238791
vn 0.3826844 0 -0.9238791
vn 0.9238795 0 0.3826834
vn 0.9238795 0 0.3826834
vn 0.9238795 0 0.3826834
vn 0.9238795 0 0.3826834
vn 0.2392641 -0.7804397 -0.5776388
vn 0.2392641 -0.7804397 -0.5776388
vn 0.2392641 -0.7804397 -0.5776388
vn 0.2392641 -0.7804397 -0.5776388
vn 0.5776404 -0.7804381 -0.2392653
vn 0.5776404 -0.7804381 -0.2392653
vn 0.5776404 -0.7804381 -0.2392653
vn 0.5776404 -0.7804381 -0.2392653
vn 0.5776402 -0.7804382 0.2392653
vn 0.5776402 -0.7804382 0.2392653
vn 0.5776402 -0.7804382 0.2392653
vn 0.5776402 -0.7804382 0.2392653
vn 0.2392642 -0.7804397 0.5776389
vn 0.2392642 -0.7804397 0.5776389
vn 0.2392642 -0.7804397 0.5776389
vn 0.2392642 -0.7804397 0.5776389
vn -0.239265 -0.7804394 0.5776386
vn -0.239265 -0.7804394 0.5776386
vn -0.239265 -0.7804394 0.5776386
vn -0.239265 -0.7804394 0.5776386
vn -0.5776407 -0.7804378 0.2392654
vn -0.5776407 -0.7804378 0.2392654
vn -0.5776407 -0.7804378 0.2392654
vn -0.5776407 -0.7804378 0.2392654
vn -0.5776368 -0.7804405 -0.2392662
vn -0.5776368 -0.7804405 -0.2392662
vn -0.5776368 -0.7804405 -0.2392662
vn -0.5776368 -0.7804405 -0.2392662
vn -0.2392642 -0.7804397 -0.5776389
vn -0.2392642 -0.7804397 -0.5776389
vn -0.2392642 -0.7804397 -0.5776389
vn -0.2392642 -0.7804397 -0.5776389
vn 0 1 0
vn -9.365968E-07 1 0
vn 0 1 0
vn -9.365968E-07 1 0
vn 0 1 0
vn -9.365968E-07 1 0
vn 0 1 0
vn -9.365968E-07 1 0
vn 0 1 0
vn 0 -1 0
vn 0 -1 0
vn 0 -1 0
vn 0 -1 0
vn 0 -1 0
vn 0 -1 0
vn 0 -1 0
vn 0 -1 0
vn 0 -1 0

vt 0.5799695 0.7003519
vt 0.5712236 0.7003964
vt 0.5718775 0.7065062
vt 0.5789809 0.7064142
vt 0.562808 0.7027623
vt 0.5553191 0.7072759
vt 0.5590308 0.7122098
vt 0.5650631 0.70848
vt 0.5492395 0.7136251
vt 0.544736 0.7215238
vt 0.5510264 0.7247309
vt 0.5542754 0.7174974
vt 0.6024263 0.7127067
vt 0.5959324 0.7069896
vt 0.5922399 0.7117627
vt 0.5980826 0.7176407
vt 0.5884103 0.7026273
vt 0.5799695 0.7003519
vt 0.5789809 0.7064142
vt 0.5858859 0.7082004
vt 0.5712236 0.7003964
vt 0.562808 0.7027623
vt 0.5650631 0.70848
vt 0.5718775 0.7065062
vt 0.5553191 0.7072759
vt 0.5492395 0.7136251
vt 0.5542754 0.7174974
vt 0.5590308 0.7122098
vt 0.5959324 0.7069896
vt 0.5884103 0.7026273
vt 0.5858859 0.7082004
vt 0.5922399 0.7117627
vt 0.5980826 0.7176407
vt 0.5922399 0.7117627
vt 0.5905885 0.713908
vt 0.5952888 0.7190335
vt 0.5858859 0.7082004
vt 0.5789809 0.7064142
vt 0.5787031 0.7089584
vt 0.5849349 0.7106062
vt 0.5718775 0.7065062
vt 0.5650631 0.70848
vt 0.5661249 0.710795
vt 0.572284 0.7090251
vt 0.5590308 0.7122098
vt 0.5542754 0.7174974
vt 0.5563814 0.7188431
vt 0.5606747 0.7141435
vt 0.5922399 0.7117627
vt 0.5858859 0.7082004
vt 0.5849349 0.7106062
vt 0.5905885 0.713908
vt 0.5789809 0.7064142
vt 0.5718775 0.7065062
vt 0.572284 0.7090251
vt 0.5787031 0.7089584
vt 0.5650631 0.70848
vt 0.5590308 0.7122098
vt 0.5606747 0.7141435
vt 0.5661249 0.710795
vt 0.5542754 0.7174974
vt 0.5510264 0.7247309
vt 0.5538021 0.7249649
vt 0.5563814 0.7188431
vt 0.4359139 0.6293148
vt 0.4295534 0.6293148
vt 0.4295534 0.7247714
vt 0.435914 0.7247714
vt 0.4231929 0.6293148
vt 0.4168324 0.6293148
vt 0.4168322 0.7247714
vt 0.4231928 0.7247714
vt 0.4677165 0.6293147
vt 0.461356 0.6293147
vt 0.4613563 0.7247714
vt 0.4677169 0.7247714
vt 0.4549955 0.6293147
vt 0.448635 0.6293148
vt 0.4486351 0.7247714
vt 0.4549957 0.7247714
vt 0.4422744 0.6293148
vt 0.4359139 0.6293148
vt 0.435914 0.7247714
vt 0.4422745 0.7247714
vt 0.4295534 0.6293148
vt 0.4231929 0.6293148
vt 0.4231928 0.7247714
vt 0.4295534 0.7247714
vt 0.461356 0.6293147
vt 0.4549955 0.6293147
vt 0.4549957 0.7247714
vt 0.4613563 0.7247714
vt 0.448635 0.6293148
vt 0.4422744 0.6293148
vt 0.4422745 0.7247714
vt 0.4486351 0.7247714
vt 0.587517 0.6721418
vt 0.5890449 0.6722724
vt 0.5907385 0.6661883
vt 0.5891646 0.6655135
vt 0.5932373 0.6590649
vt 0.5946695 0.6603331
vt 0.600903 0.6555102
vt 0.5998223 0.6536553
vt 0.5933075 0.6869999
vt 0.5940245 0.6861603
vt 0.5911391 0.6826472
vt 0.5900928 0.6832942
vt 0.5879816 0.6782404
vt 0.5893174 0.6779214
vt 0.5890449 0.6722724
vt 0.587517 0.6721418
vt 0.5891646 0.6655135
vt 0.5907385 0.6661883
vt 0.5946695 0.6603331
vt 0.5932373 0.6590649
vt 0.5998223 0.6536553
vt 0.600903 0.6555102
vt 0.6096205 0.6524275
vt 0.6087704 0.6501535
vt 0.5973231 0.6895745
vt 0.597924 0.6886372
vt 0.5940245 0.6861603
vt 0.5933075 0.6869999
vt 0.5900928 0.6832942
vt 0.5911391 0.6826472
vt 0.5893174 0.6779214
vt 0.5879816 0.6782404
vt 0.598321 0.6870604
vt 0.5950544 0.6850156
vt 0.5940245 0.6861603
vt 0.597924 0.6886372
vt 0.5950544 0.6850156
vt 0.5926331 0.6818086
vt 0.5911391 0.6826472
vt 0.5940245 0.6861603
vt 0.5926331 0.6818086
vt 0.5911958 0.6775569
vt 0.5893174 0.6779214
vt 0.5911391 0.6826472
vt 0.5911958 0.6775569
vt 0.5911642 0.6725452
vt 0.5890449 0.6722724
vt 0.5893174 0.6779214
vt 0.5911642 0.6725452
vt 0.5928894 0.6672211
vt 0.5907385 0.6661883
vt 0.5890449 0.6722724
vt 0.5928894 0.6672211
vt 0.5965868 0.6621826
vt 0.5946695 0.6603331
vt 0.5907385 0.6661883
vt 0.5965868 0.6621826
vt 0.602272 0.6581403
vt 0.600903 0.6555102
vt 0.5946695 0.6603331
vt 0.602272 0.6581403
vt 0.6096592 0.6559127
vt 0.6096205 0.6524275
vt 0.600903 0.6555102
vt 0.5910189 0.6498042
vt 0.5913681 0.6320526
vt 0.587517 0.6408561
vt 0.6000693 0.641103
vt 0.5998223 0.6536553
vt 0.6003162 0.6285508
vt 0.6087704 0.6501535
vt 0.6091197 0.6324019
vt 0.6126215 0.64135
vt 0.5468387 0.7048554
vt 0.53894 0.7003519
vt 0.5301703 0.7027526
vt 0.5374532 0.7121382
vt 0.5492395 0.7136251
vt 0.5256668 0.7106514
vt 0.544736 0.7215238
vt 0.5280676 0.7194211
vt 0.5359663 0.7239246

usemtl LOW-POLY-COLORS
usemap LOW-POLY-COLORS
f 2/2/2 1/1/1 3/3/3
f 3/3/3 1/1/1 4/4/4
f 6/6/6 5/5/5 7/7/7
f 7/7/7 5/5/5 8/8/8
f 10/10/10 9/9/9 11/11/11
f 11/11/11 9/9/9 12/12/12
f 14/14/14 13/13/13 15/15/15
f 15/15/15 13/13/13 16/16/16
f 18/18/18 17/17/17 19/19/19
f 19/19/19 17/17/17 20/20/20
f 22/22/22 21/21/21 23/23/23
f 23/23/23 21/21/21 24/24/24
f 26/26/26 25/25/25 27/27/27
f 27/27/27 25/25/25 28/28/28
f 30/30/30 29/29/29 31/31/31
f 31/31/31 29/29/29 32/32/32
f 34/34/34 33/33/33 35/35/35
f 35/35/35 33/33/33 36/36/36
f 38/38/38 37/37/37 39/39/39
f 39/39/39 37/37/37 40/40/40
f 42/42/42 41/41/41 43/43/43
f 43/43/43 41/41/41 44/44/44
f 46/46/46 45/45/45 47/47/47
f 47/47/47 45/45/45 48/48/48
f 50/50/50 49/49/49 51/51/51
f 51/51/51 49/49/49 52/52/52
f 54/54/54 53/53/53 55/55/55
f 55/55/55 53/53/53 56/56/56
f 58/58/58 57/57/57 59/59/59
f 59/59/59 57/57/57 60/60/60
f 62/62/62 61/61/61 63/63/63
f 63/63/63 61/61/61 64/64/64
f 66/66/66 65/65/65 67/67/67
f 67/67/67 65/65/65 68/68/68
f 70/70/70 69/69/69 71/71/71
f 71/71/71 69/69/69 72/72/72
f 74/74/74 73/73/73 75/75/75
f 75/75/75 73/73/73 76/76/76
f 78/78/78 77/77/77 79/79/79
f 79/79/79 77/77/77 80/80/80
f 82/82/82 81/81/81 83/83/83
f 83/83/83 81/81/81 84/84/84
f 86/86/86 85/85/85 87/87/87
f 87/87/87 85/85/85 88/88/88
f 90/90/90 89/89/89 91/91/91
f 91/91/91 89/89/89 92/92/92
f 94/94/94 93/93/93 95/95/95
f 95/95/95 93/93/93 96/96/96
f 98/98/98 97/97/97 99/99/99
f 99/99/99 97/97/97 100/100/100
f 102/102/102 101/101/101 103/103/103
f 103/103/103 101/101/101 104/104/104
f 106/106/106 105/105/105 107/107/107
f 107/107/107 105/105/105 108/108/108
f 110/110/110 109/109/109 111/111/111
f 111/111/111 109/109/109 112/112/112
f 114/114/114 113/113/113 115/115/115
f 115/115/115 113/113/113 116/116/116
f 118/118/118 117/117/117 119/119/119
f 119/119/119 117/117/117 120/120/120
f 122/122/122 121/121/121 123/123/123
f 123/123/123 121/121/121 124/124/124
f 126/126/126 125/125/125 127/127/127
f 127/127/127 125/125/125 128/128/128
f 130/130/130 129/129/129 131/131/131
f 131/131/131 129/129/129 132/132/132
f 134/134/134 133/133/133 135/135/135
f 135/135/135 133/133/133 136/136/136
f 138/138/138 137/137/137 139/139/139
f 139/139/139 137/137/137 140/140/140
f 142/142/142 141/141/141 143/143/143
f 143/143/143 141/141/141 144/144/144
f 146/146/146 145/145/145 147/147/147
f 147/147/147 145/145/145 148/148/148
f 150/150/150 149/149/149 151/151/151
f 151/151/151 149/149/149 152/152/152
f 154/154/154 153/153/153 155/155/155
f 155/155/155 153/153/153 156/156/156
f 158/158/158 157/157/157 159/159/159
f 159/159/159 157/157/157 160/160/160
f 162/162/162 161/161/161 163/163/163
f 164/164/164 161/161/161 162/162/162
f 164/164/164 165/165/165 161/161/161
f 166/166/166 164/164/164 162/162/162
f 167/167/167 165/165/165 164/164/164
f 168/168/168 164/164/164 166/166/166
f 168/168/168 167/167/167 164/164/164
f 169/169/169 167/167/167 168/168/168
f 171/171/171 170/170/170 172/172/172
f 172/172/172 170/170/170 173/173/173
f 170/170/170 174/174/174 173/173/173
f 172/172/172 173/173/173 175/175/175
f 173/173/173 174/174/174 176/176/176
f 175/175/175 173/173/173 177/177/177
f 173/173/173 176/176/176 177/177/177
f 177/177/177 176/176/176 178/178/178
