mtllib ./dungeon-floor-stone_44.mtl
g dungeon-floor-stone
v -2 0 2.000015
v -2 0 -1.999985
v 2 0 -1.999985
v 2 0 2.000015
v -0.7797043 0.004753363 0.7900625
v -0.5643158 0.004753363 1.040761
v -0.5643158 0.03524665 1.040761
v -0.7797043 0.03524665 0.7900625
v -0.5643158 0.004753363 1.040761
v -0.7832354 0.004753341 1.4786
v -0.7832354 0.0352466 1.4786
v -0.5643158 0.03524665 1.040761
v -1.178703 0.004753363 0.9630796
v -0.7797043 0.004753363 0.7900625
v -0.7797043 0.03524665 0.7900625
v -1.178703 0.03524663 0.9630796
v -1.270508 0.004753363 1.266537
v -1.178703 0.004753363 0.9630796
v -1.178703 0.03524663 0.9630796
v -1.270508 0.03524663 1.266537
v -1.270508 0.004753363 1.266537
v -1.270508 0.03524663 1.266537
v -0.7832354 0.0352466 1.4786
v -0.7832354 0.004753341 1.4786
v -0.7832354 0.0352466 1.4786
v -0.7797043 0.03524665 0.7900625
v -0.5643158 0.03524665 1.040761
v -1.178703 0.03524663 0.9630796
v -1.270508 0.03524663 1.266537
v 0.9562216 0.002716815 -1.345696
v 1.280047 0.002716815 -1.199806
v 1.280047 0.03728346 -1.199806
v 0.9562216 0.03728346 -1.345696
v 1.280047 0.002716815 -1.199806
v 1.454705 0.002716789 -0.8735763
v 1.454705 0.03728341 -0.8735763
v 1.280047 0.03728346 -1.199806
v 0.5890644 0.002716815 -0.8951392
v 0.9562216 0.002716815 -1.345696
v 0.9562216 0.03728346 -1.345696
v 0.5890644 0.03728344 -0.8951392
v 1.005342 0.002716815 -0.5047132
v 0.5890644 0.002716815 -0.8951392
v 0.5890644 0.03728344 -0.8951392
v 1.005342 0.03728344 -0.5047132
v 1.005342 0.002716815 -0.5047132
v 1.005342 0.03728344 -0.5047132
v 1.454705 0.03728341 -0.8735763
v 1.454705 0.002716789 -0.8735763
v 0.5890644 0.03728344 -0.8951392
v 0.9562216 0.03728346 -1.345696
v 1.280047 0.03728346 -1.199806
v 1.005342 0.03728344 -0.5047132
v 1.454705 0.03728341 -0.8735763
v 0.1121273 0.003935879 0.5160828
v -0.1045962 0.003935879 0.8851475
v -0.1045962 0.0360644 0.8851475
v 0.1121273 0.0360644 0.5160828
v -0.1045962 0.003935879 0.8851475
v -0.405592 0.003935854 1.051574
v -0.405592 0.03606435 1.051574
v -0.1045962 0.0360644 0.8851475
v -0.330997 0.003935879 0.08319263
v 0.1121273 0.003935879 0.5160828
v 0.1121273 0.0360644 0.5160828
v -0.330997 0.03606438 0.08319263
v -0.6466706 0.003935873 0.2520103
v -0.330997 0.003935879 0.08319263
v -0.330997 0.03606438 0.08319263
v -0.6466706 0.03606437 0.2520103
v -0.7540568 0.003935879 0.6385828
v -0.7540568 0.03606438 0.6385828
v -0.405592 0.03606435 1.051574
v -0.405592 0.003935854 1.051574
v -0.405592 0.03606435 1.051574
v 0.1121273 0.0360644 0.5160828
v -0.1045962 0.0360644 0.8851475
v -0.330997 0.03606438 0.08319263
v -0.7540568 0.03606438 0.6385828
v -0.6466706 0.03606437 0.2520103
v -0.7540568 0.003935879 0.6385828
v -0.6466706 0.003935873 0.2520103
v -0.6466706 0.03606437 0.2520103
v -0.7540568 0.03606438 0.6385828

vn 0 1 0
vn 0 1 0
vn 0 1 0
vn 0 1 0
vn 0.7585018 0 -0.6516709
vn 0.7585018 0 -0.6516709
vn 0.7585018 0 -0.6516709
vn 0.7585018 0 -0.6516709
vn 0.8944271 0 0.4472137
vn 0.8944271 0 0.4472137
vn 0.8944271 0 0.4472137
vn 0.8944271 0 0.4472137
vn -0.3978353 0 -0.9174569
vn -0.3978353 0 -0.9174569
vn -0.3978353 0 -0.9174569
vn -0.3978353 0 -0.9174569
vn -0.9571572 0 -0.2895689
vn -0.9571572 0 -0.2895689
vn -0.9571572 0 -0.2895689
vn -0.9571572 0 -0.2895689
vn -0.3990506 0 0.9169289
vn -0.3990506 0 0.9169289
vn -0.3990506 0 0.9169289
vn -0.3990506 0 0.9169289
vn 0 1 0
vn 0 1 0
vn 0 1 0
vn 0 1 0
vn 0 1 0
vn 0.410759 0 -0.911744
vn 0.410759 0 -0.911744
vn 0.410759 0 -0.911744
vn 0.410759 0 -0.911744
vn 0.8816013 0 -0.471995
vn 0.8816013 0 -0.471995
vn 0.8816013 0 -0.471995
vn 0.8816013 0 -0.471995
vn -0.7752041 0 -0.6317109
vn -0.7752041 0 -0.6317109
vn -0.7752041 0 -0.6317109
vn -0.7752041 0 -0.6317109
vn -0.6840957 0 0.7293922
vn -0.6840957 0 0.7293922
vn -0.6840957 0 0.7293922
vn -0.6840957 0 0.7293922
vn 0.6344756 0 0.7729428
vn 0.6344756 0 0.7729428
vn 0.6344756 0 0.7729428
vn 0.6344756 0 0.7729428
vn 0 1 0
vn 0 1 0
vn 0 1 0
vn 0 1 0
vn 0 1 0
vn 0.8623152 0 0.5063719
vn 0.8623152 0 0.5063719
vn 0.8623152 0 0.5063719
vn 0.8623152 0 0.5063719
vn 0.4838801 0 0.8751342
vn 0.4838801 0 0.8751342
vn 0.4838801 0 0.8751342
vn 0.4838801 0 0.8751342
vn 0.6987982 0 -0.7153188
vn 0.6987982 0 -0.7153188
vn 0.6987982 0 -0.7153188
vn 0.6987982 0 -0.7153188
vn -0.4715848 0 -0.8818207
vn -0.4715848 0 -0.8818207
vn -0.4715848 0 -0.8818207
vn -0.4715848 0 -0.8818207
vn -0.7642885 0 0.6448746
vn -0.7642885 0 0.6448746
vn -0.7642885 0 0.6448746
vn -0.7642885 0 0.6448746
vn 0 1 0
vn 0 1 0
vn 0 1 0
vn 0 1 0
vn 0 1 0
vn 0 1 0
vn -0.9635146 0 -0.2676556
vn -0.9635146 0 -0.2676556
vn -0.9635146 0 -0.2676556
vn -0.9635146 0 -0.2676556

vt 0.1327231 0.6362339
vt 0.1327231 0.7421256
vt 0.238615 0.7421256
vt 0.238615 0.6362339
vt 0.1650279 0.6682649
vt 0.17073 0.6616283
vt 0.17073 0.6616283
vt 0.1650279 0.6682649
vt 0.17073 0.6616283
vt 0.1649346 0.6500374
vt 0.1649346 0.6500374
vt 0.17073 0.6616283
vt 0.1544652 0.6636846
vt 0.1650279 0.6682649
vt 0.1650279 0.6682649
vt 0.1544652 0.6636846
vt 0.152035 0.6556513
vt 0.1544652 0.6636846
vt 0.1544652 0.6636846
vt 0.152035 0.6556513
vt 0.152035 0.6556513
vt 0.152035 0.6556513
vt 0.1649346 0.6500374
vt 0.1649346 0.6500374
vt 0.1649346 0.6500374
vt 0.1650279 0.6682649
vt 0.17073 0.6616283
vt 0.1544652 0.6636846
vt 0.152035 0.6556513
vt 0.2109829 0.7248046
vt 0.2195557 0.7209427
vt 0.2195557 0.7209427
vt 0.2109829 0.7248046
vt 0.2195557 0.7209427
vt 0.2241793 0.7123063
vt 0.2241793 0.7123063
vt 0.2195557 0.7209427
vt 0.2012632 0.7128771
vt 0.2109829 0.7248046
vt 0.2109829 0.7248046
vt 0.2012632 0.7128771
vt 0.2122834 0.7025415
vt 0.2012632 0.7128771
vt 0.2012632 0.7128771
vt 0.2122834 0.7025415
vt 0.2122834 0.7025415
vt 0.2122834 0.7025415
vt 0.2241793 0.7123063
vt 0.2241793 0.7123063
vt 0.2012632 0.7128771
vt 0.2109829 0.7248046
vt 0.2195557 0.7209427
vt 0.2122834 0.7025415
vt 0.2241793 0.7123063
vt 0.1886375 0.6755179
vt 0.1828998 0.6657478
vt 0.1828998 0.6657478
vt 0.1886375 0.6755179
vt 0.1828998 0.6657478
vt 0.1749316 0.6613419
vt 0.1749316 0.6613419
vt 0.1828998 0.6657478
vt 0.1769067 0.6869778
vt 0.1886375 0.6755179
vt 0.1886375 0.6755179
vt 0.1769067 0.6869778
vt 0.1685497 0.6825087
vt 0.1769067 0.6869778
vt 0.1769067 0.6869778
vt 0.1685497 0.6825087
vt 0.1657069 0.6722749
vt 0.1657069 0.6722749
vt 0.1749316 0.6613419
vt 0.1749316 0.6613419
vt 0.1749316 0.6613419
vt 0.1886375 0.6755179
vt 0.1828998 0.6657478
vt 0.1769067 0.6869778
vt 0.1657069 0.6722749
vt 0.1685497 0.6825087
vt 0.1657069 0.6722749
vt 0.1685497 0.6825087
vt 0.1685497 0.6825087
vt 0.1657069 0.6722749

usemtl LOW-POLY-COLORS
usemap LOW-POLY-COLORS
f 2/2/2 1/1/1 3/3/3
f 3/3/3 1/1/1 4/4/4
f 6/6/6 5/5/5 7/7/7
f 7/7/7 5/5/5 8/8/8
f 10/10/10 9/9/9 11/11/11
f 11/11/11 9/9/9 12/12/12
f 14/14/14 13/13/13 15/15/15
f 15/15/15 13/13/13 16/16/16
f 18/18/18 17/17/17 19/19/19
f 19/19/19 17/17/17 20/20/20
f 22/22/22 21/21/21 23/23/23
f 23/23/23 21/21/21 24/24/24
f 26/26/26 25/25/25 27/27/27
f 28/28/28 25/25/25 26/26/26
f 28/28/28 29/29/29 25/25/25
f 31/31/31 30/30/30 32/32/32
f 32/32/32 30/30/30 33/33/33
f 35/35/35 34/34/34 36/36/36
f 36/36/36 34/34/34 37/37/37
f 39/39/39 38/38/38 40/40/40
f 40/40/40 38/38/38 41/41/41
f 43/43/43 42/42/42 44/44/44
f 44/44/44 42/42/42 45/45/45
f 47/47/47 46/46/46 48/48/48
f 48/48/48 46/46/46 49/49/49
f 51/51/51 50/50/50 52/52/52
f 50/50/50 53/53/53 52/52/52
f 52/52/52 53/53/53 54/54/54
f 56/56/56 55/55/55 57/57/57
f 57/57/57 55/55/55 58/58/58
f 60/60/60 59/59/59 61/61/61
f 61/61/61 59/59/59 62/62/62
f 64/64/64 63/63/63 65/65/65
f 65/65/65 63/63/63 66/66/66
f 68/68/68 67/67/67 69/69/69
f 69/69/69 67/67/67 70/70/70
f 72/72/72 71/71/71 73/73/73
f 73/73/73 71/71/71 74/74/74
f 76/76/76 75/75/75 77/77/77
f 78/78/78 75/75/75 76/76/76
f 78/78/78 79/79/79 75/75/75
f 80/80/80 79/79/79 78/78/78
f 82/82/82 81/81/81 83/83/83
f 83/83/83 81/81/81 84/84/84
