mtllib ./goblet_27.mtl
g goblet
v 0.05063165 0.1793975 -0.0292322
v 0.05063165 0.1793975 0.02923219
v -1.596897E-09 0.1653953 -7.984484E-10
v -0.05063165 0.1793975 0.02923219
v -0.05063165 0.1793975 -0.02923219
v -1.596897E-09 0.1653953 -7.984484E-10
v -5.111119E-09 0.1793975 -0.05846438
v 0.05063165 0.1793975 -0.0292322
v -1.596897E-09 0.1653953 -7.984484E-10
v 0.05063165 0.1793975 0.02923219
v 0 0.1793975 0.05846438
v -1.596897E-09 0.1653953 -7.984484E-10
v 0 0.1793975 0.05846438
v -0.05063165 0.1793975 0.02923219
v -1.596897E-09 0.1653953 -7.984484E-10
v -0.05063165 0.1793975 -0.02923219
v -5.111119E-09 0.1793975 -0.05846438
v -1.596897E-09 0.1653953 -7.984484E-10
v -0.07551721 0 -0.04359987
v -7.623245E-09 0 -0.08719976
v -6.847301E-09 0.02110525 -0.078324
v -0.06783057 0.02110525 -0.03916199
v 0.07551721 0 -0.04359988
v 0.07551721 0 0.04359988
v 0.06783057 0.02110525 0.039162
v 0.06783057 0.02110525 -0.039162
v -0.07551721 0 0.04359987
v -0.07551721 0 -0.04359987
v -0.06783057 0.02110525 -0.03916199
v -0.06783057 0.02110525 0.03916199
v -7.623245E-09 0 -0.08719976
v 0.07551721 0 -0.04359988
v 0.06783057 0.02110525 -0.039162
v -6.847301E-09 0.02110525 -0.078324
v 0.07551721 0 0.04359988
v 0 0 0.08719976
v 0 0.02110525 0.078324
v 0.06783057 0.02110525 0.039162
v 0 0 0.08719976
v -0.07551721 0 0.04359987
v -0.06783057 0.02110525 0.03916199
v 0 0.02110525 0.078324
v -0.06783057 0.02110525 0.03916199
v -0.06783057 0.02110525 -0.03916199
v -0.02017862 0.03607624 -0.01165013
v -0.02017862 0.03607624 0.01165013
v -6.847301E-09 0.02110525 -0.078324
v 0.06783057 0.02110525 -0.039162
v 0.02017862 0.03607624 -0.01165013
v -2.093736E-09 0.03607624 -0.02330026
v 0.06783057 0.02110525 0.039162
v 0 0.02110525 0.078324
v 0 0.03607624 0.02330026
v 0.02017862 0.03607624 0.01165013
v 0 0.02110525 0.078324
v -0.06783057 0.02110525 0.03916199
v -0.02017862 0.03607624 0.01165013
v 0 0.03607624 0.02330026
v -0.06783057 0.02110525 -0.03916199
v -6.847301E-09 0.02110525 -0.078324
v -2.093736E-09 0.03607624 -0.02330026
v -0.02017862 0.03607624 -0.01165013
v 0.06783057 0.02110525 -0.039162
v 0.06783057 0.02110525 0.039162
v 0.02017862 0.03607624 0.01165013
v 0.02017862 0.03607624 -0.01165013
v 0 0.03607624 0.02330026
v -0.02017862 0.03607624 0.01165013
v -0.02498193 0.0570078 0.01442333
v 0 0.0570078 0.02884665
v -0.02017862 0.03607624 -0.01165013
v -2.093736E-09 0.03607624 -0.02330026
v -2.506113E-09 0.0570078 -0.02884665
v -0.02498193 0.0570078 -0.01442333
v 0.02017862 0.03607624 -0.01165013
v 0.02017862 0.03607624 0.01165013
v 0.02498193 0.0570078 0.01442333
v 0.02498193 0.0570078 -0.01442333
v -0.02017862 0.03607624 0.01165013
v -0.02017862 0.03607624 -0.01165013
v -0.02498193 0.0570078 -0.01442333
v -0.02498193 0.0570078 0.01442333
v -2.093736E-09 0.03607624 -0.02330026
v 0.02017862 0.03607624 -0.01165013
v 0.02498193 0.0570078 -0.01442333
v -2.506113E-09 0.0570078 -0.02884665
v 0.02017862 0.03607624 0.01165013
v 0 0.03607624 0.02330026
v 0 0.0570078 0.02884665
v 0.02498193 0.0570078 0.01442333
v -0.02498193 0.0570078 0.01442333
v -0.02498193 0.0570078 -0.01442333
v -0.01561873 0.1424756 -0.00901748
v -0.01561873 0.1424756 0.00901748
v -2.506113E-09 0.0570078 -0.02884665
v 0.02498193 0.0570078 -0.01442333
v 0.01561873 0.1424756 -0.009017481
v -1.642335E-09 0.1424756 -0.01803496
v 0.02498193 0.0570078 0.01442333
v 0 0.0570078 0.02884665
v 0 0.1424756 0.01803496
v 0.01561873 0.1424756 0.00901748
v 0 0.0570078 0.02884665
v -0.02498193 0.0570078 0.01442333
v -0.01561873 0.1424756 0.00901748
v 0 0.1424756 0.01803496
v -0.02498193 0.0570078 -0.01442333
v -2.506113E-09 0.0570078 -0.02884665
v -1.642335E-09 0.1424756 -0.01803496
v -0.01561873 0.1424756 -0.00901748
v 0.02498193 0.0570078 -0.01442333
v 0.02498193 0.0570078 0.01442333
v 0.01561873 0.1424756 0.00901748
v 0.01561873 0.1424756 -0.009017481
v 0 0.1424756 0.01803496
v -0.01561873 0.1424756 0.00901748
v -0.06818356 0.165359 0.03936579
v 0 0.165359 0.07873159
v -0.01561873 0.1424756 -0.00901748
v -1.642335E-09 0.1424756 -0.01803496
v -6.882934E-09 0.165359 -0.07873159
v -0.06818356 0.165359 -0.03936579
v 0.01561873 0.1424756 -0.009017481
v 0.01561873 0.1424756 0.00901748
v 0.06818356 0.165359 0.03936579
v 0.06818356 0.165359 -0.03936581
v -0.01561873 0.1424756 0.00901748
v -0.01561873 0.1424756 -0.00901748
v -0.06818356 0.165359 -0.03936579
v -0.06818356 0.165359 0.03936579
v -1.642335E-09 0.1424756 -0.01803496
v 0.01561873 0.1424756 -0.009017481
v 0.06818356 0.165359 -0.03936581
v -6.882934E-09 0.165359 -0.07873159
v 0.01561873 0.1424756 0.00901748
v 0 0.1424756 0.01803496
v 0 0.165359 0.07873159
v 0.06818356 0.165359 0.03936579
v -0.06818356 0.165359 0.03936579
v -0.06818356 0.165359 -0.03936579
v -0.08478646 0.347211 -0.04895148
v -0.08478646 0.347211 0.04895148
v -6.882934E-09 0.165359 -0.07873159
v 0.06818356 0.165359 -0.03936581
v 0.08478646 0.347211 -0.04895149
v -8.558948E-09 0.347211 -0.09790296
v 0.06818356 0.165359 0.03936579
v 0 0.165359 0.07873159
v 0 0.347211 0.09790296
v 0.08478646 0.347211 0.04895148
v 0 0.165359 0.07873159
v -0.06818356 0.165359 0.03936579
v -0.08478646 0.347211 0.04895148
v 0 0.347211 0.09790296
v -0.06818356 0.165359 -0.03936579
v -6.882934E-09 0.165359 -0.07873159
v -8.558948E-09 0.347211 -0.09790296
v -0.08478646 0.347211 -0.04895148
v 0.06818356 0.165359 -0.03936581
v 0.06818356 0.165359 0.03936579
v 0.08478646 0.347211 0.04895148
v 0.08478646 0.347211 -0.04895149
v -0.08478646 0.347211 -0.04895148
v -8.558948E-09 0.347211 -0.09790296
v -6.572265E-09 0.3409364 -0.07517795
v -0.06510602 0.3409364 -0.03758897
v 0.08478646 0.347211 -0.04895149
v 0.08478646 0.347211 0.04895148
v 0.06510602 0.3409364 0.03758897
v 0.06510602 0.3409364 -0.03758898
v -0.08478646 0.347211 0.04895148
v -0.08478646 0.347211 -0.04895148
v -0.06510602 0.3409364 -0.03758897
v -0.06510602 0.3409364 0.03758897
v -8.558948E-09 0.347211 -0.09790296
v 0.08478646 0.347211 -0.04895149
v 0.06510602 0.3409364 -0.03758898
v -6.572265E-09 0.3409364 -0.07517795
v 0.08478646 0.347211 0.04895148
v 0 0.347211 0.09790296
v 0 0.3409364 0.07517795
v 0.06510602 0.3409364 0.03758897
v 0 0.347211 0.09790296
v -0.08478646 0.347211 0.04895148
v -0.06510602 0.3409364 0.03758897
v 0 0.3409364 0.07517795
v -6.572265E-09 0.3409364 -0.07517795
v 0.06510602 0.3409364 -0.03758898
v 0.05063165 0.1793975 -0.0292322
v -5.111119E-09 0.1793975 -0.05846438
v 0.06510602 0.3409364 0.03758897
v 0 0.3409364 0.07517795
v 0 0.1793975 0.05846438
v 0.05063165 0.1793975 0.02923219
v 0 0.3409364 0.07517795
v -0.06510602 0.3409364 0.03758897
v -0.05063165 0.1793975 0.02923219
v 0 0.1793975 0.05846438
v -0.06510602 0.3409364 -0.03758897
v -6.572265E-09 0.3409364 -0.07517795
v -5.111119E-09 0.1793975 -0.05846438
v -0.05063165 0.1793975 -0.02923219
v 0.06510602 0.3409364 -0.03758898
v 0.06510602 0.3409364 0.03758897
v 0.05063165 0.1793975 0.02923219
v 0.05063165 0.1793975 -0.0292322
v -0.06510602 0.3409364 0.03758897
v -0.06510602 0.3409364 -0.03758897
v -0.05063165 0.1793975 -0.02923219
v -0.05063165 0.1793975 0.02923219
v 0 0 0.08719976
v -0.07551721 0 -0.04359987
v -0.07551721 0 0.04359987
v -7.623245E-09 0 -0.08719976
v 0.07551721 0 0.04359988
v 0.07551721 0 -0.04359988

vn -0.2665442 0.9638227 0
vn -0.2665442 0.9638227 0
vn -0.2665442 0.9638227 0
vn 0.2665445 0.9638226 0
vn 0.2665445 0.9638226 0
vn 0.2665445 0.9638226 0
vn -0.1332722 0.9638226 0.230834
vn -0.1332722 0.9638226 0.230834
vn -0.1332722 0.9638226 0.230834
vn -0.1332726 0.9638226 -0.230834
vn -0.1332726 0.9638226 -0.230834
vn -0.1332726 0.9638226 -0.230834
vn 0.1332723 0.9638226 -0.2308341
vn 0.1332723 0.9638226 -0.2308341
vn 0.1332723 0.9638226 -0.2308341
vn 0.1332726 0.9638226 0.230834
vn 0.1332726 0.9638226 0.230834
vn 0.1332726 0.9638226 0.230834
vn -0.469811 0.3422151 -0.8137361
vn -0.469811 0.3422151 -0.8137361
vn -0.469811 0.3422151 -0.8137361
vn -0.469811 0.3422151 -0.8137361
vn 0.9396217 0.342215 0
vn 0.9396217 0.342215 0
vn 0.9396217 0.342215 0
vn 0.9396217 0.342215 0
vn -0.9396216 0.3422152 0
vn -0.9396216 0.3422152 0
vn -0.9396216 0.3422152 0
vn -0.9396216 0.3422152 0
vn 0.4698108 0.3422149 -0.8137363
vn 0.4698108 0.3422149 -0.8137363
vn 0.4698108 0.3422149 -0.8137363
vn 0.4698108 0.3422149 -0.8137363
vn 0.4698109 0.3422148 0.8137364
vn 0.4698109 0.3422148 0.8137364
vn 0.4698109 0.3422148 0.8137364
vn 0.4698109 0.3422148 0.8137364
vn -0.469811 0.3422151 0.8137362
vn -0.469811 0.3422151 0.8137362
vn -0.469811 0.3422151 0.8137362
vn -0.469811 0.3422151 0.8137362
vn -0.2997292 0.9540243 0
vn -0.2997292 0.9540243 0
vn -0.2997292 0.9540243 0
vn -0.2997292 0.9540243 0
vn 0.1498646 0.9540243 -0.2595732
vn 0.1498646 0.9540243 -0.2595732
vn 0.1498646 0.9540243 -0.2595732
vn 0.1498646 0.9540243 -0.2595732
vn 0.1498646 0.9540243 0.2595732
vn 0.1498646 0.9540243 0.2595732
vn 0.1498646 0.9540243 0.2595732
vn 0.1498646 0.9540243 0.2595732
vn -0.1498647 0.9540243 0.2595732
vn -0.1498647 0.9540243 0.2595732
vn -0.1498647 0.9540243 0.2595732
vn -0.1498647 0.9540243 0.2595732
vn -0.1498647 0.9540243 -0.2595732
vn -0.1498647 0.9540243 -0.2595732
vn -0.1498647 0.9540243 -0.2595732
vn -0.1498647 0.9540243 -0.2595732
vn 0.2997293 0.9540243 0
vn 0.2997293 0.9540243 0
vn 0.2997293 0.9540243 0
vn 0.2997293 0.9540243 0
vn -0.487333 -0.2236638 0.8440859
vn -0.487333 -0.2236638 0.8440859
vn -0.487333 -0.2236638 0.8440859
vn -0.487333 -0.2236638 0.8440859
vn -0.4873332 -0.2236639 -0.8440859
vn -0.4873332 -0.2236639 -0.8440859
vn -0.4873332 -0.2236639 -0.8440859
vn -0.4873332 -0.2236639 -0.8440859
vn 0.9746664 -0.2236638 0
vn 0.9746664 -0.2236638 0
vn 0.9746664 -0.2236638 0
vn 0.9746664 -0.2236638 0
vn -0.9746664 -0.2236638 0
vn -0.9746664 -0.2236638 0
vn -0.9746664 -0.2236638 0
vn -0.9746664 -0.2236638 0
vn 0.487333 -0.2236638 -0.8440859
vn 0.487333 -0.2236638 -0.8440859
vn 0.487333 -0.2236638 -0.8440859
vn 0.487333 -0.2236638 -0.8440859
vn 0.4873331 -0.2236638 0.8440859
vn 0.4873331 -0.2236638 0.8440859
vn 0.4873331 -0.2236638 0.8440859
vn 0.4873331 -0.2236638 0.8440859
vn -0.9940526 0.1089008 0
vn -0.9940526 0.1089008 0
vn -0.9940526 0.1089008 0
vn -0.9940526 0.1089008 0
vn 0.4970262 0.1089008 -0.860875
vn 0.4970262 0.1089008 -0.860875
vn 0.4970262 0.1089008 -0.860875
vn 0.4970262 0.1089008 -0.860875
vn 0.4970263 0.1089008 0.8608748
vn 0.4970263 0.1089008 0.8608748
vn 0.4970263 0.1089008 0.8608748
vn 0.4970263 0.1089008 0.8608748
vn -0.4970263 0.1089008 0.8608748
vn -0.4970263 0.1089008 0.8608748
vn -0.4970263 0.1089008 0.8608748
vn -0.4970263 0.1089008 0.8608748
vn -0.4970264 0.1089008 -0.8608748
vn -0.4970264 0.1089008 -0.8608748
vn -0.4970264 0.1089008 -0.8608748
vn -0.4970264 0.1089008 -0.8608748
vn 0.9940526 0.1089008 0
vn 0.9940526 0.1089008 0
vn 0.9940526 0.1089008 0
vn 0.9940526 0.1089008 0
vn -0.1995765 -0.9168842 0.3456767
vn -0.1995765 -0.9168842 0.3456767
vn -0.1995765 -0.9168842 0.3456767
vn -0.1995765 -0.9168842 0.3456767
vn -0.1995765 -0.9168842 -0.3456767
vn -0.1995765 -0.9168842 -0.3456767
vn -0.1995765 -0.9168842 -0.3456767
vn -0.1995765 -0.9168842 -0.3456767
vn 0.3991534 -0.9168842 0
vn 0.3991534 -0.9168842 0
vn 0.3991534 -0.9168842 0
vn 0.3991534 -0.9168842 0
vn -0.3991529 -0.9168844 0
vn -0.3991529 -0.9168844 0
vn -0.3991529 -0.9168844 0
vn -0.3991529 -0.9168844 0
vn 0.1995763 -0.9168842 -0.3456767
vn 0.1995763 -0.9168842 -0.3456767
vn 0.1995763 -0.9168842 -0.3456767
vn 0.1995763 -0.9168842 -0.3456767
vn 0.1995765 -0.9168842 0.3456767
vn 0.1995765 -0.9168842 0.3456767
vn 0.1995765 -0.9168842 0.3456767
vn 0.1995765 -0.9168842 0.3456767
vn -0.9958581 -0.09092081 0
vn -0.9958581 -0.09092081 0
vn -0.9958581 -0.09092081 0
vn -0.9958581 -0.09092081 0
vn 0.497929 -0.09092078 -0.8624385
vn 0.497929 -0.09092078 -0.8624385
vn 0.497929 -0.09092078 -0.8624385
vn 0.497929 -0.09092078 -0.8624385
vn 0.4979291 -0.09092078 0.8624384
vn 0.4979291 -0.09092078 0.8624384
vn 0.4979291 -0.09092078 0.8624384
vn 0.4979291 -0.09092078 0.8624384
vn -0.497929 -0.09092078 0.8624384
vn -0.497929 -0.09092078 0.8624384
vn -0.497929 -0.09092078 0.8624384
vn -0.497929 -0.09092078 0.8624384
vn -0.4979291 -0.09092078 -0.8624384
vn -0.4979291 -0.09092078 -0.8624384
vn -0.4979291 -0.09092078 -0.8624384
vn -0.4979291 -0.09092078 -0.8624384
vn 0.9958581 -0.0909208 0
vn 0.9958581 -0.0909208 0
vn 0.9958581 -0.0909208 0
vn 0.9958581 -0.0909208 0
vn 0.1518803 0.9527484 0.2630647
vn 0.1518803 0.9527484 0.2630647
vn 0.1518803 0.9527484 0.2630647
vn 0.1518803 0.9527484 0.2630647
vn -0.3037622 0.9527479 0
vn -0.3037622 0.9527479 0
vn -0.3037622 0.9527479 0
vn -0.3037622 0.9527479 0
vn 0.3037613 0.9527481 0
vn 0.3037613 0.9527481 0
vn 0.3037613 0.9527481 0
vn 0.3037613 0.9527481 0
vn -0.1518808 0.9527482 0.2630648
vn -0.1518808 0.9527482 0.2630648
vn -0.1518808 0.9527482 0.2630648
vn -0.1518808 0.9527482 0.2630648
vn -0.1518803 0.9527484 -0.2630648
vn -0.1518803 0.9527484 -0.2630648
vn -0.1518803 0.9527484 -0.2630648
vn -0.1518803 0.9527484 -0.2630648
vn 0.1518805 0.9527482 -0.2630647
vn 0.1518805 0.9527482 -0.2630647
vn 0.1518805 0.9527482 -0.2630647
vn 0.1518805 0.9527482 -0.2630647
vn -0.4980046 0.0892455 0.8625698
vn -0.4980046 0.0892455 0.8625698
vn -0.4980046 0.0892455 0.8625698
vn -0.4980046 0.0892455 0.8625698
vn -0.4980048 0.08924551 -0.8625697
vn -0.4980048 0.08924551 -0.8625697
vn -0.4980048 0.08924551 -0.8625697
vn -0.4980048 0.08924551 -0.8625697
vn 0.4980047 0.08924551 -0.8625697
vn 0.4980047 0.08924551 -0.8625697
vn 0.4980047 0.08924551 -0.8625697
vn 0.4980047 0.08924551 -0.8625697
vn 0.4980047 0.08924549 0.8625696
vn 0.4980047 0.08924549 0.8625696
vn 0.4980047 0.08924549 0.8625696
vn 0.4980047 0.08924549 0.8625696
vn -0.9960096 0.08924546 0
vn -0.9960096 0.08924546 0
vn -0.9960096 0.08924546 0
vn -0.9960096 0.08924546 0
vn 0.9960096 0.08924548 0
vn 0.9960096 0.08924548 0
vn 0.9960096 0.08924548 0
vn 0.9960096 0.08924548 0
vn 0 -1 0
vn 0 -1 0
vn 0 -1 0
vn 0 -1 0
vn 0 -1 0
vn 0 -1 0

vt 0.442364 0.6827148
vt 0.4424283 0.6820766
vt 0.4428947 0.6824751
vt 0.4435773 0.6821552
vt 0.4434894 0.682843
vt 0.4428947 0.6824751
vt 0.4428757 0.6831013
vt 0.442364 0.6827148
vt 0.4428947 0.6824751
vt 0.4424283 0.6820766
vt 0.443014 0.6817418
vt 0.4428947 0.6824751
vt 0.443014 0.6817418
vt 0.4435773 0.6821552
vt 0.4428947 0.6824751
vt 0.4434894 0.682843
vt 0.4428757 0.6831013
vt 0.4428947 0.6824751
vt 0.3998642 0.7085892
vt 0.3968312 0.7035139
vt 0.3984212 0.7029609
vt 0.4010445 0.7074838
vt 0.4252847 0.7111051
vt 0.4177331 0.7141429
vt 0.4172462 0.7121451
vt 0.4238164 0.7093143
vt 0.4045832 0.7121392
vt 0.3998642 0.7085892
vt 0.4010445 0.7074838
vt 0.4053133 0.7106311
vt 0.4317659 0.7033908
vt 0.4252847 0.7111051
vt 0.4238164 0.7093143
vt 0.4294489 0.7021139
vt 0.4177331 0.7141429
vt 0.410614 0.7141429
vt 0.4108357 0.712325
vt 0.4172462 0.7121451
vt 0.410614 0.7141429
vt 0.4045832 0.7121392
vt 0.4053133 0.7106311
vt 0.4108357 0.712325
vt 0.4053133 0.7106311
vt 0.4010445 0.7074838
vt 0.405261 0.7038319
vt 0.4088106 0.7047026
vt 0.4294489 0.7021139
vt 0.4238164 0.7093143
vt 0.4199415 0.7026106
vt 0.4222474 0.7006658
vt 0.4172462 0.7121451
vt 0.4108357 0.712325
vt 0.4127038 0.7048438
vt 0.4165913 0.7041517
vt 0.4108357 0.712325
vt 0.4053133 0.7106311
vt 0.4088106 0.7047026
vt 0.4127038 0.7048438
vt 0.4010445 0.7074838
vt 0.3984212 0.7029609
vt 0.4027967 0.702232
vt 0.405261 0.7038319
vt 0.4238164 0.7093143
vt 0.4172462 0.7121451
vt 0.4165913 0.7041517
vt 0.4199415 0.7026106
vt 0.4127038 0.7048438
vt 0.4088106 0.7047026
vt 0.4093097 0.7016035
vt 0.412618 0.7016264
vt 0.405261 0.7038319
vt 0.4027967 0.702232
vt 0.4033143 0.7001686
vt 0.4062153 0.7010584
vt 0.4199415 0.7026106
vt 0.4165913 0.7041517
vt 0.4159181 0.7011094
vt 0.4189332 0.7001631
vt 0.4088106 0.7047026
vt 0.405261 0.7038319
vt 0.4062153 0.7010584
vt 0.4093097 0.7016035
vt 0.4222474 0.7006658
vt 0.4199415 0.7026106
vt 0.4189332 0.7001631
vt 0.421652 0.6990702
vt 0.4165913 0.7041517
vt 0.4127038 0.7048438
vt 0.412618 0.7016264
vt 0.4159181 0.7011094
vt 0.4093097 0.7016035
vt 0.4062153 0.7010584
vt 0.4068467 0.6906005
vt 0.4094189 0.6900892
vt 0.421652 0.6990702
vt 0.4189332 0.7001631
vt 0.4172806 0.6896761
vt 0.4195375 0.6902979
vt 0.4159181 0.7011094
vt 0.412618 0.7016264
vt 0.4120803 0.6897618
vt 0.4147259 0.6895873
vt 0.412618 0.7016264
vt 0.4093097 0.7016035
vt 0.4094189 0.6900892
vt 0.4120803 0.6897618
vt 0.4062153 0.7010584
vt 0.4033143 0.7001686
vt 0.404559 0.6913342
vt 0.4068467 0.6906005
vt 0.4189332 0.7001631
vt 0.4159181 0.7011094
vt 0.4147259 0.6895873
vt 0.4172806 0.6896761
vt 0.4120803 0.6897618
vt 0.4094189 0.6900892
vt 0.4102678 0.6822135
vt 0.4139644 0.6825887
vt 0.4068467 0.6906005
vt 0.404559 0.6913342
vt 0.3985209 0.6846261
vt 0.4058485 0.6823753
vt 0.4172806 0.6896761
vt 0.4147259 0.6895873
vt 0.4174044 0.6834146
vt 0.4208438 0.6849142
vt 0.4094189 0.6900892
vt 0.4068467 0.6906005
vt 0.4058485 0.6823753
vt 0.4102678 0.6822135
vt 0.4195375 0.6902979
vt 0.4172806 0.6896761
vt 0.4208438 0.6849142
vt 0.4244264 0.6877106
vt 0.4147259 0.6895873
vt 0.4120803 0.6897618
vt 0.4139644 0.6825887
vt 0.4174044 0.6834146
vt 0.4102678 0.6822135
vt 0.4058485 0.6823753
vt 0.4063934 0.6732206
vt 0.410596 0.674413
vt 0.4244264 0.6877106
vt 0.4208438 0.6849142
vt 0.4232301 0.6769341
vt 0.4298384 0.677003
vt 0.4174044 0.6834146
vt 0.4139644 0.6825887
vt 0.4146384 0.6752365
vt 0.4186951 0.6760586
vt 0.4139644 0.6825887
vt 0.4102678 0.6822135
vt 0.410596 0.674413
vt 0.4146384 0.6752365
vt 0.4058485 0.6823753
vt 0.3985209 0.6846261
vt 0.4014939 0.6702555
vt 0.4063934 0.6732206
vt 0.4208438 0.6849142
vt 0.4174044 0.6834146
vt 0.4186951 0.6760586
vt 0.4232301 0.6769341
vt 0.4063934 0.6732206
vt 0.4014939 0.6702555
vt 0.4028356 0.6695418
vt 0.4068916 0.6721938
vt 0.4232301 0.6769341
vt 0.4186951 0.6760586
vt 0.4189668 0.6748984
vt 0.4233973 0.675554
vt 0.410596 0.674413
vt 0.4063934 0.6732206
vt 0.4068916 0.6721938
vt 0.4109103 0.6733261
vt 0.4298384 0.677003
vt 0.4232301 0.6769341
vt 0.4233973 0.675554
vt 0.4288763 0.6752543
vt 0.4186951 0.6760586
vt 0.4146384 0.6752365
vt 0.4149112 0.6741405
vt 0.4189668 0.6748984
vt 0.4146384 0.6752365
vt 0.410596 0.674413
vt 0.4109103 0.6733261
vt 0.4149112 0.6741405
vt 0.4319175 0.6887627
vt 0.4319175 0.6760348
vt 0.442364 0.6827148
vt 0.4428757 0.6831013
vt 0.4429888 0.6695418
vt 0.4543501 0.6759136
vt 0.443014 0.6817418
vt 0.4424283 0.6820766
vt 0.4543501 0.6759136
vt 0.4540982 0.6889372
vt 0.4435773 0.6821552
vt 0.443014 0.6817418
vt 0.4428962 0.6952021
vt 0.4319175 0.6887627
vt 0.4428757 0.6831013
vt 0.4434894 0.682843
vt 0.4319175 0.6760348
vt 0.4429888 0.6695418
vt 0.4424283 0.6820766
vt 0.442364 0.6827148
vt 0.4540982 0.6889372
vt 0.4428962 0.6952021
vt 0.4434894 0.682843
vt 0.4435773 0.6821552
vt 0.443415 0.7053108
vt 0.4376662 0.6953537
vt 0.443415 0.6986728
vt 0.4319175 0.6986728
vt 0.4376662 0.7086299
vt 0.4319175 0.7053108

usemtl LOW-POLY-COLORS
usemap LOW-POLY-COLORS
f 2/2/2 1/1/1 3/3/3
f 5/5/5 4/4/4 6/6/6
f 8/8/8 7/7/7 9/9/9
f 11/11/11 10/10/10 12/12/12
f 14/14/14 13/13/13 15/15/15
f 17/17/17 16/16/16 18/18/18
f 20/20/20 19/19/19 21/21/21
f 21/21/21 19/19/19 22/22/22
f 24/24/24 23/23/23 25/25/25
f 25/25/25 23/23/23 26/26/26
f 28/28/28 27/27/27 29/29/29
f 29/29/29 27/27/27 30/30/30
f 32/32/32 31/31/31 33/33/33
f 33/33/33 31/31/31 34/34/34
f 36/36/36 35/35/35 37/37/37
f 37/37/37 35/35/35 38/38/38
f 40/40/40 39/39/39 41/41/41
f 41/41/41 39/39/39 42/42/42
f 44/44/44 43/43/43 45/45/45
f 45/45/45 43/43/43 46/46/46
f 48/48/48 47/47/47 49/49/49
f 49/49/49 47/47/47 50/50/50
f 52/52/52 51/51/51 53/53/53
f 53/53/53 51/51/51 54/54/54
f 56/56/56 55/55/55 57/57/57
f 57/57/57 55/55/55 58/58/58
f 60/60/60 59/59/59 61/61/61
f 61/61/61 59/59/59 62/62/62
f 64/64/64 63/63/63 65/65/65
f 65/65/65 63/63/63 66/66/66
f 68/68/68 67/67/67 69/69/69
f 69/69/69 67/67/67 70/70/70
f 72/72/72 71/71/71 73/73/73
f 73/73/73 71/71/71 74/74/74
f 76/76/76 75/75/75 77/77/77
f 77/77/77 75/75/75 78/78/78
f 80/80/80 79/79/79 81/81/81
f 81/81/81 79/79/79 82/82/82
f 84/84/84 83/83/83 85/85/85
f 85/85/85 83/83/83 86/86/86
f 88/88/88 87/87/87 89/89/89
f 89/89/89 87/87/87 90/90/90
f 92/92/92 91/91/91 93/93/93
f 93/93/93 91/91/91 94/94/94
f 96/96/96 95/95/95 97/97/97
f 97/97/97 95/95/95 98/98/98
f 100/100/100 99/99/99 101/101/101
f 101/101/101 99/99/99 102/102/102
f 104/104/104 103/103/103 105/105/105
f 105/105/105 103/103/103 106/106/106
f 108/108/108 107/107/107 109/109/109
f 109/109/109 107/107/107 110/110/110
f 112/112/112 111/111/111 113/113/113
f 113/113/113 111/111/111 114/114/114
f 116/116/116 115/115/115 117/117/117
f 117/117/117 115/115/115 118/118/118
f 120/120/120 119/119/119 121/121/121
f 121/121/121 119/119/119 122/122/122
f 124/124/124 123/123/123 125/125/125
f 125/125/125 123/123/123 126/126/126
f 128/128/128 127/127/127 129/129/129
f 129/129/129 127/127/127 130/130/130
f 132/132/132 131/131/131 133/133/133
f 133/133/133 131/131/131 134/134/134
f 136/136/136 135/135/135 137/137/137
f 137/137/137 135/135/135 138/138/138
f 140/140/140 139/139/139 141/141/141
f 141/141/141 139/139/139 142/142/142
f 144/144/144 143/143/143 145/145/145
f 145/145/145 143/143/143 146/146/146
f 148/148/148 147/147/147 149/149/149
f 149/149/149 147/147/147 150/150/150
f 152/152/152 151/151/151 153/153/153
f 153/153/153 151/151/151 154/154/154
f 156/156/156 155/155/155 157/157/157
f 157/157/157 155/155/155 158/158/158
f 160/160/160 159/159/159 161/161/161
f 161/161/161 159/159/159 162/162/162
f 164/164/164 163/163/163 165/165/165
f 165/165/165 163/163/163 166/166/166
f 168/168/168 167/167/167 169/169/169
f 169/169/169 167/167/167 170/170/170
f 172/172/172 171/171/171 173/173/173
f 173/173/173 171/171/171 174/174/174
f 176/176/176 175/175/175 177/177/177
f 177/177/177 175/175/175 178/178/178
f 180/180/180 179/179/179 181/181/181
f 181/181/181 179/179/179 182/182/182
f 184/184/184 183/183/183 185/185/185
f 185/185/185 183/183/183 186/186/186
f 188/188/188 187/187/187 189/189/189
f 189/189/189 187/187/187 190/190/190
f 192/192/192 191/191/191 193/193/193
f 193/193/193 191/191/191 194/194/194
f 196/196/196 195/195/195 197/197/197
f 197/197/197 195/195/195 198/198/198
f 200/200/200 199/199/199 201/201/201
f 201/201/201 199/199/199 202/202/202
f 204/204/204 203/203/203 205/205/205
f 205/205/205 203/203/203 206/206/206
f 208/208/208 207/207/207 209/209/209
f 209/209/209 207/207/207 210/210/210
f 212/212/212 211/211/211 213/213/213
f 214/214/214 211/211/211 212/212/212
f 214/214/214 215/215/215 211/211/211
f 216/216/216 215/215/215 214/214/214
