mtllib ./gravestone-round_60.mtl
g gravestone-round
v 0.4820843 0.2052786 0.2155773
v 0.1635876 0.2052786 0.2324214
v 0.3983099 0.2922541 0.09920703
v -0.4820842 0.2052786 0.2155775
v -0.3993782 0.3086299 0.09947312
v -0.1578019 0.2052786 0.2155775
v 0.4620001 3.699515E-08 0.2082228
v 0.4619999 -3.699516E-08 -0.1961839
v 0.1567723 3.739886E-08 0.2244923
v -0.4619999 3.699516E-08 0.2082229
v -0.1512277 3.699516E-08 0.2082228
v -0.4620001 -3.933773E-08 -0.2158347
v 0.4619999 -3.699516E-08 -0.1961839
v -0.1512277 3.699516E-08 0.2082228
v 0.1567723 3.739886E-08 0.2244923
v -0.1512277 3.699516E-08 0.2082228
v -0.4619999 3.699516E-08 0.2082229
v -0.4730636 0.1392092 0.2048953
v -0.1548492 0.1392092 0.2048952
v 0.4619999 -3.699516E-08 -0.1961839
v 0.4620001 3.699515E-08 0.2082228
v 0.4730639 0.1392092 0.2048952
v 0.4730636 0.1392091 -0.192566
v -0.4619999 3.699516E-08 0.2082229
v -0.4620001 -3.933773E-08 -0.2158347
v -0.4730639 0.1392091 -0.2126874
v -0.4730636 0.1392092 0.2048953
v -0.4620001 -3.933773E-08 -0.2158347
v 0.4619999 -3.699516E-08 -0.1961839
v 0.4730636 0.1392091 -0.192566
v -0.4730639 0.1392091 -0.2126874
v -0.1548492 0.1392092 0.2048952
v -0.4730636 0.1392092 0.2048953
v -0.4820842 0.2052786 0.2155775
v -0.1578019 0.2052786 0.2155775
v 0.4730636 0.1392091 -0.192566
v 0.4730639 0.1392092 0.2048952
v 0.4820843 0.2052786 0.2155773
v 0.4820842 0.2052785 -0.2031115
v -0.4730639 0.1392091 -0.2126874
v 0.4730636 0.1392091 -0.192566
v 0.4820842 0.2052785 -0.2031115
v -0.4820843 0.2052785 -0.2234562
v 0.3983099 0.2922541 0.09920703
v -0.3993782 0.3086299 0.09947312
v -0.406323 1.02517 0.1111163
v 0.4068726 1.03442 0.1112667
v 0.3054501 1.208676 0.1140982
v -0.3056111 1.212376 0.1141583
v 0.1383182 1.306559 0.1156887
v -0.1383901 1.310259 0.1157488
v -0.3993782 0.3086299 0.09947312
v -0.3993782 0.3086299 -0.1006745
v -0.406323 1.02517 -0.1124583
v -0.406323 1.02517 0.1111163
v 0.3983099 0.292254 -0.1004052
v 0.3983099 0.2922541 0.09920703
v 0.4068726 1.03442 0.1112667
v 0.4068726 1.03442 -0.1126105
v -0.406323 1.02517 -0.1124583
v -0.3993782 0.3086299 -0.1006745
v 0.3983099 0.292254 -0.1004052
v 0.4068726 1.03442 -0.1126105
v -0.3056111 1.212376 -0.115537
v 0.3054501 1.208676 -0.1154762
v -0.1383901 1.310259 -0.1171468
v 0.1383182 1.306559 -0.1170859
v 0.4068726 1.03442 0.1112667
v 0.3054501 1.208676 0.1140982
v 0.3054501 1.208676 -0.1154762
v 0.4068726 1.03442 -0.1126105
v 0.3054501 1.208676 0.1140982
v 0.1383182 1.306559 0.1156887
v 0.1383182 1.306559 -0.1170859
v 0.3054501 1.208676 -0.1154762
v -0.406323 1.02517 -0.1124583
v -0.3056111 1.212376 -0.115537
v -0.3056111 1.212376 0.1141583
v -0.406323 1.02517 0.1111163
v -0.4730639 0.1392091 -0.2126874
v -0.4820843 0.2052785 -0.2234562
v -0.4820842 0.2052786 0.2155775
v -0.4730636 0.1392092 0.2048953
v 0.4730639 0.1392092 0.2048952
v 0.1605266 0.1392092 0.2215543
v 0.1635876 0.2052786 0.2324214
v 0.4820843 0.2052786 0.2155773
v -0.1383901 1.310259 -0.1171468
v 0.1383182 1.306559 -0.1170859
v 0.1383182 1.306559 0.1156887
v -0.1383901 1.310259 0.1157488
v -0.3056111 1.212376 -0.115537
v -0.1383901 1.310259 -0.1171468
v -0.1383901 1.310259 0.1157488
v -0.3056111 1.212376 0.1141583
v 0.1605266 0.1392092 0.2215543
v -0.1548492 0.1392092 0.2048952
v -0.1578019 0.2052786 0.2155775
v 0.1635876 0.2052786 0.2324214
v 0.4620001 3.699515E-08 0.2082228
v 0.1567723 3.739886E-08 0.2244923
v 0.1605266 0.1392092 0.2215543
v 0.4730639 0.1392092 0.2048952
v 0.1567723 3.739886E-08 0.2244923
v -0.1512277 3.699516E-08 0.2082228
v -0.1548492 0.1392092 0.2048952
v 0.1605266 0.1392092 0.2215543
v 0.3983099 0.2922541 0.09920703
v 0.1635876 0.2052786 0.2324214
v -0.1578019 0.2052786 0.2155775
v -0.3993782 0.3086299 0.09947312
v -0.4820842 0.2052786 0.2155775
v -0.4820843 0.2052785 -0.2234562
v -0.3993782 0.3086299 -0.1006745
v -0.3993782 0.3086299 0.09947312
v -0.4820843 0.2052785 -0.2234562
v 0.4820842 0.2052785 -0.2031115
v 0.3983099 0.292254 -0.1004052
v -0.3993782 0.3086299 -0.1006745
v 0.4820842 0.2052785 -0.2031115
v 0.4820843 0.2052786 0.2155773
v 0.3983099 0.2922541 0.09920703
v 0.3983099 0.292254 -0.1004052

vn 0.03088683 0.8111506 0.5840212
vn 0.03088683 0.8111506 0.5840212
vn 0.03088683 0.8111506 0.5840212
vn 0 0.7469382 0.6648933
vn 0 0.7469382 0.6648933
vn 0 0.7469382 0.6648933
vn 0 -1 1.829602E-07
vn 0 -1 1.829602E-07
vn 0 -1 1.829602E-07
vn 0 -1 1.800059E-07
vn 0 -1 1.800059E-07
vn 0 -1 1.800059E-07
vn 0 -1 1.784508E-07
vn 0 -1 1.784508E-07
vn 0 -1 1.784508E-07
vn 3.077003E-07 0.02389669 0.9997144
vn 3.077003E-07 0.02389669 0.9997144
vn 3.077003E-07 0.02389669 0.9997144
vn 3.077003E-07 0.02389669 0.9997144
vn 0.9968567 -0.07922607 -7.98424E-07
vn 0.9968567 -0.07922607 -7.98424E-07
vn 0.9968567 -0.07922607 -7.98424E-07
vn 0.9968567 -0.07922607 -7.98424E-07
vn -0.9968567 -0.07922594 5.07129E-07
vn -0.9968567 -0.07922594 5.07129E-07
vn -0.9968567 -0.07922594 5.07129E-07
vn -0.9968567 -0.07922594 5.07129E-07
vn 0.02125606 0.02428591 -0.9994791
vn 0.02125606 0.02428591 -0.9994791
vn 0.02125606 0.02428591 -0.9994791
vn 0.02125606 0.02428591 -0.9994791
vn 2.003398E-07 -0.1596094 0.9871803
vn 2.003398E-07 -0.1596094 0.9871803
vn 2.003398E-07 -0.1596094 0.9871803
vn 2.003398E-07 -0.1596094 0.9871803
vn 0.9908081 -0.1352749 -5.476074E-07
vn 0.9908081 -0.1352749 -5.476074E-07
vn 0.9908081 -0.1352749 -5.476074E-07
vn 0.9908081 -0.1352749 -5.476074E-07
vn 0.02090832 -0.1592083 -0.9870236
vn 0.02090832 -0.1592083 -0.9870236
vn 0.02090832 -0.1592083 -0.9870236
vn 0.02090832 -0.1592083 -0.9870236
vn 0 -0.01624708 0.999868
vn 0 -0.01624708 0.999868
vn 0 -0.01624708 0.999868
vn 0 -0.01624708 0.999868
vn 0 -0.01624712 0.999868
vn 0 -0.01624712 0.999868
vn 0 -0.01624697 0.999868
vn 0 -0.01624697 0.999868
vn -0.999953 -0.009691601 0
vn -0.999953 -0.009691601 0
vn -0.999953 -0.009691601 0
vn -0.999953 -0.009691601 0
vn 0.9999335 -0.01153673 0
vn 0.9999335 -0.01153673 0
vn 0.9999335 -0.01153673 0
vn 0.9999335 -0.01153673 0
vn 0 -0.01644325 -0.9998648
vn 0 -0.01644325 -0.9998648
vn 0 -0.01644325 -0.9998648
vn 0 -0.01644325 -0.9998648
vn 0 -0.01644334 -0.9998648
vn 0 -0.01644334 -0.9998648
vn 0 -0.01644298 -0.9998648
vn 0 -0.01644298 -0.9998648
vn 0.8642678 0.503032 0
vn 0.8642678 0.503032 0
vn 0.8642678 0.503032 0
vn 0.8642678 0.503032 0
vn 0.5053695 0.862903 0
vn 0.5053695 0.862903 0
vn 0.5053695 0.862903 0
vn 0.5053695 0.862903 0
vn -0.8806506 0.4737662 0
vn -0.8806506 0.4737662 0
vn -0.8806506 0.4737662 0
vn -0.8806506 0.4737662 0
vn -0.9908081 -0.1352752 3.632618E-07
vn -0.9908081 -0.1352752 3.632618E-07
vn -0.9908081 -0.1352752 3.632618E-07
vn -0.9908081 -0.1352752 3.632618E-07
vn 0.05228784 -0.1653891 0.9848413
vn 0.05228784 -0.1653891 0.9848413
vn 0.05228784 -0.1653891 0.9848413
vn 0.05228784 -0.1653891 0.9848413
vn 0.01337084 0.9999106 0
vn 0.01337084 0.9999106 0
vn 0.01337084 0.9999106 0
vn 0.01337084 0.9999106 0
vn -0.5051688 0.8630205 0
vn -0.5051688 0.8630205 0
vn -0.5051688 0.8630205 0
vn -0.5051688 0.8630205 0
vn -0.05185895 -0.1606971 0.9856404
vn -0.05185895 -0.1606971 0.9856404
vn -0.05185895 -0.1606971 0.9856404
vn -0.05185895 -0.1606971 0.9856404
vn 0.05321717 0.01963575 0.9983898
vn 0.05321717 0.01963575 0.9983898
vn 0.05321717 0.01963575 0.9983898
vn 0.05321717 0.01963575 0.9983898
vn -0.05273614 0.0224925 0.9983551
vn -0.05273614 0.0224925 0.9983551
vn -0.05273614 0.0224925 0.9983551
vn -0.05273614 0.0224925 0.9983551
vn 0.002643763 0.7948956 0.6067405
vn 0.002643763 0.7948956 0.6067405
vn 0.002643763 0.7948956 0.6067405
vn 0.002643763 0.7948956 0.6067405
vn -0.7807769 0.6248099 0
vn -0.7807769 0.6248099 0
vn -0.7807769 0.6248099 0
vn -0.7807769 0.6248099 0
vn 0.01464774 0.7641244 -0.6449026
vn 0.01464774 0.7641244 -0.6449026
vn 0.01464774 0.7641244 -0.6449026
vn 0.01464774 0.7641244 -0.6449026
vn 0.7202367 0.6937283 -1.995715E-07
vn 0.7202367 0.6937283 -1.995715E-07
vn 0.7202367 0.6937283 -1.995715E-07
vn 0.7202367 0.6937283 -1.995715E-07

vt 0.555421 0.6587868
vt 0.5493062 0.6597645
vt 0.5581319 0.6641066
vt 0.5343626 0.6591421
vt 0.5320186 0.663826
vt 0.5414726 0.6601567
vt 0.4253004 0.6546171
vt 0.4328528 0.6441135
vt 0.4203902 0.6544635
vt 0.4071125 0.654685
vt 0.412953 0.6538933
vt 0.3958972 0.6451885
vt 0.4328528 0.6441135
vt 0.412953 0.6538933
vt 0.4203902 0.6544635
vt 0.412953 0.6538933
vt 0.4071125 0.654685
vt 0.406093 0.6569196
vt 0.4129402 0.6577491
vt 0.4328528 0.6441135
vt 0.4253004 0.6546171
vt 0.4263229 0.6566728
vt 0.4379088 0.6495171
vt 0.4071125 0.654685
vt 0.3958972 0.6451885
vt 0.3928474 0.6508554
vt 0.406093 0.6569196
vt 0.3958972 0.6451885
vt 0.4328528 0.6441135
vt 0.4331363 0.6385325
vt 0.3952957 0.6396331
vt 0.4129402 0.6577491
vt 0.406093 0.6569196
vt 0.4056963 0.658367
vt 0.4128063 0.6593816
vt 0.4379088 0.6495171
vt 0.4263229 0.6566728
vt 0.4267547 0.6580117
vt 0.4396156 0.6515867
vt 0.3952957 0.6396331
vt 0.4331363 0.6385325
vt 0.43341 0.6358457
vt 0.3948481 0.6369684
vt 0.4613062 0.6752095
vt 0.4386192 0.6636001
vt 0.4275802 0.6836542
vt 0.4503157 0.6962192
vt 0.4448255 0.699587
vt 0.4275802 0.690445
vt 0.4386428 0.699812
vt 0.4308029 0.6957291
vt 0.5907611 0.7454168
vt 0.5971541 0.7454168
vt 0.5975306 0.7225282
vt 0.5903893 0.7225282
vt 0.5971456 0.6643752
vt 0.5907696 0.6643752
vt 0.5903844 0.6880829
vt 0.5975354 0.6880829
vt 0.4072574 0.6973262
vt 0.4273115 0.6862872
vt 0.4157022 0.6636001
vt 0.3946924 0.6745908
vt 0.4004666 0.6973262
vt 0.3913245 0.6800809
vt 0.3951824 0.6941036
vt 0.3910996 0.6862637
vt 0.5903844 0.6880829
vt 0.590294 0.694523
vt 0.5976269 0.694523
vt 0.5975354 0.6880829
vt 0.590294 0.694523
vt 0.5902432 0.7007097
vt 0.5976783 0.7007097
vt 0.5976269 0.694523
vt 0.5975306 0.7225282
vt 0.5976289 0.7157381
vt 0.590292 0.7157381
vt 0.5903893 0.7225282
vt 0.3928474 0.6508554
vt 0.3910996 0.6537866
vt 0.4056963 0.658367
vt 0.406093 0.6569196
vt 0.4263229 0.6566728
vt 0.4204459 0.6576077
vt 0.4206399 0.6589894
vt 0.4267547 0.6580117
vt 0.5976803 0.7095491
vt 0.5976783 0.7007097
vt 0.5902432 0.7007097
vt 0.5902413 0.7095491
vt 0.5976289 0.7157381
vt 0.5976803 0.7095491
vt 0.5902413 0.7095491
vt 0.590292 0.7157381
vt 0.4204459 0.6576077
vt 0.4129402 0.6577491
vt 0.4128063 0.6593816
vt 0.4206399 0.6589894
vt 0.4253004 0.6546171
vt 0.4203902 0.6544635
vt 0.4204459 0.6576077
vt 0.4263229 0.6566728
vt 0.4203902 0.6544635
vt 0.412953 0.6538933
vt 0.4129402 0.6577491
vt 0.4204459 0.6576077
vt 0.5581319 0.6641066
vt 0.5493062 0.6597645
vt 0.5414726 0.6601567
vt 0.5320186 0.663826
vt 0.5343626 0.6591421
vt 0.5197659 0.6545617
vt 0.5234427 0.6630934
vt 0.5320186 0.663826
vt 0.5235144 0.6377435
vt 0.5620763 0.6366208
vt 0.5586557 0.6312808
vt 0.526739 0.6312808
vt 0.5682819 0.6523618
vt 0.555421 0.6587868
vt 0.5581319 0.6641066
vt 0.5665828 0.6597275

usemtl LOW-POLY-COLORS
usemap LOW-POLY-COLORS
f 2/2/2 1/1/1 3/3/3
f 5/5/5 4/4/4 6/6/6
f 8/8/8 7/7/7 9/9/9
f 11/11/11 10/10/10 12/12/12
f 12/12/12 13/13/13 14/14/14
f 14/14/14 13/13/13 15/15/15
f 17/17/17 16/16/16 18/18/18
f 18/18/18 16/16/16 19/19/19
f 21/21/21 20/20/20 22/22/22
f 22/22/22 20/20/20 23/23/23
f 25/25/25 24/24/24 26/26/26
f 26/26/26 24/24/24 27/27/27
f 29/29/29 28/28/28 30/30/30
f 30/30/30 28/28/28 31/31/31
f 33/33/33 32/32/32 34/34/34
f 34/34/34 32/32/32 35/35/35
f 37/37/37 36/36/36 38/38/38
f 38/38/38 36/36/36 39/39/39
f 41/41/41 40/40/40 42/42/42
f 42/42/42 40/40/40 43/43/43
f 45/45/45 44/44/44 46/46/46
f 46/46/46 44/44/44 47/47/47
f 48/48/48 46/46/46 47/47/47
f 49/49/49 46/46/46 48/48/48
f 50/50/50 49/49/49 48/48/48
f 51/51/51 49/49/49 50/50/50
f 53/53/53 52/52/52 54/54/54
f 54/54/54 52/52/52 55/55/55
f 57/57/57 56/56/56 58/58/58
f 58/58/58 56/56/56 59/59/59
f 61/61/61 60/60/60 62/62/62
f 62/62/62 60/60/60 63/63/63
f 64/64/64 63/63/63 60/60/60
f 65/65/65 63/63/63 64/64/64
f 66/66/66 65/65/65 64/64/64
f 67/67/67 65/65/65 66/66/66
f 69/69/69 68/68/68 70/70/70
f 70/70/70 68/68/68 71/71/71
f 73/73/73 72/72/72 74/74/74
f 74/74/74 72/72/72 75/75/75
f 77/77/77 76/76/76 78/78/78
f 78/78/78 76/76/76 79/79/79
f 81/81/81 80/80/80 82/82/82
f 82/82/82 80/80/80 83/83/83
f 85/85/85 84/84/84 86/86/86
f 86/86/86 84/84/84 87/87/87
f 89/89/89 88/88/88 90/90/90
f 90/90/90 88/88/88 91/91/91
f 93/93/93 92/92/92 94/94/94
f 94/94/94 92/92/92 95/95/95
f 97/97/97 96/96/96 98/98/98
f 98/98/98 96/96/96 99/99/99
f 101/101/101 100/100/100 102/102/102
f 102/102/102 100/100/100 103/103/103
f 105/105/105 104/104/104 106/106/106
f 106/106/106 104/104/104 107/107/107
f 109/109/109 108/108/108 110/110/110
f 110/110/110 108/108/108 111/111/111
f 113/113/113 112/112/112 114/114/114
f 114/114/114 112/112/112 115/115/115
f 117/117/117 116/116/116 118/118/118
f 118/118/118 116/116/116 119/119/119
f 121/121/121 120/120/120 122/122/122
f 122/122/122 120/120/120 123/123/123
