mtllib ./grave-dirt_57.mtl
g grave-dirt
v 0 0.2226802 -0.2969715
v 0 0.1759318 -0.7872482
v 0.3952492 0.1678165 -0.7547539
v 0.4126343 0.1936731 -0.2877746
v 0 0.00438542 -0.9527823
v 0 0.1759318 -0.7872482
v -0.3952492 0.1680038 -0.7547539
v -0.4624527 0.00438542 -0.8914367
v 0 0.00438542 1.047218
v 0 0.1563543 0.9326478
v 0.406084 0.1160001 0.8593858
v 0.4805744 0.00438542 1.008367
v 0.4919876 0.00438542 -0.3492241
v 0.4126343 0.1936731 -0.2877746
v 0.3952492 0.1678165 -0.7547539
v 0.4624527 0.00438542 -0.8914367
v -0.5101085 0.00438542 0.3295714
v -0.4294176 0.1530602 0.2858057
v -0.406084 0.1160001 0.8593858
v -0.4805744 0.00438542 1.008367
v -0.4624527 0.00438542 -0.8914367
v -0.3952492 0.1680038 -0.7547539
v -0.4126343 0.1992916 -0.2877744
v -0.4919876 0.00438542 -0.3492241
v 0.5101085 0.00438542 0.3295714
v 0.4294176 0.1530602 0.2858056
v 0.4126343 0.1936731 -0.2877746
v 0.4919876 0.00438542 -0.3492241
v 0 0.1727051 0.2923559
v 0 0.2226802 -0.2969715
v 0.4126343 0.1936731 -0.2877746
v 0.4294176 0.1530602 0.2858056
v 0 0.1563543 0.9326478
v 0.4294176 0.1530602 0.2858056
v 0.406084 0.1160001 0.8593858
v -0.4294176 0.1530602 0.2858057
v -0.4126343 0.1992916 -0.2877744
v 0 0.2226802 -0.2969715
v 0 0.1727051 0.2923559
v -0.4805744 0.00438542 1.008367
v -0.406084 0.1160001 0.8593858
v 0 0.1563543 0.9326478
v 0 0.00438542 1.047218
v 0.4624527 0.00438542 -0.8914367
v 0.3952492 0.1678165 -0.7547539
v 0 0.1759318 -0.7872482
v 0 0.00438542 -0.9527823
v -0.4126343 0.1992916 -0.2877744
v -0.3952492 0.1680038 -0.7547539
v 0 0.1759318 -0.7872482
v 0 0.2226802 -0.2969715
v -0.4919876 0.00438542 -0.3492241
v 0 0.00438542 -0.9527823
v -0.4624527 0.00438542 -0.8914367
v 0 0.00438542 -0.3652489
v 0.4624527 0.00438542 -0.8914367
v -0.5101085 0.00438542 0.3295714
v 0.4919876 0.00438542 -0.3492241
v 0 0.00438542 0.3409845
v -0.4805744 0.00438542 1.008367
v 0.5101085 0.00438542 0.3295714
v 0 0.00438542 1.047218
v 0.4805744 0.00438542 1.008367
v -0.406084 0.1160001 0.8593858
v -0.4294176 0.1530602 0.2858057
v 0 0.1727051 0.2923559
v 0 0.1563543 0.9326478
v 0.4805744 0.00438542 1.008367
v 0.406084 0.1160001 0.8593858
v 0.4294176 0.1530602 0.2858056
v 0.5101085 0.00438542 0.3295714
v -0.4919876 0.00438542 -0.3492241
v -0.4126343 0.1992916 -0.2877744
v -0.4294176 0.1530602 0.2858057
v -0.5101085 0.00438542 0.3295714
v 0.1531809 0.1807014 0.7535015
v 0.2092766 0.1701341 0.755854
v 0.2249125 0.1726267 0.7189522
v 0.1299808 0.1942945 0.6637353
v 0.1299808 0.1942945 0.6637353
v 0.1243314 0.1435291 0.637387
v 0.07205291 0.1396867 0.7670057
v 0.1531809 0.1807014 0.7535015
v 0.1531809 0.1807014 0.7535015
v 0.07205291 0.1396867 0.7670057
v 0.201805 0.1152439 0.7724473
v 0.2092766 0.1701341 0.755854
v 0.2249125 0.1726267 0.7189522
v 0.2512617 0.1231279 0.6557264
v 0.1243314 0.1435291 0.637387
v 0.1299808 0.1942945 0.6637353
v 0.2092766 0.1701341 0.755854
v 0.201805 0.1152439 0.7724473
v 0.2512617 0.1231279 0.6557264
v 0.2249125 0.1726267 0.7189522
v -0.1711233 0.2043463 -0.5694033
v -0.2408907 0.1906245 -0.5905608
v -0.2652507 0.1931171 -0.558736
v -0.1871261 0.2147849 -0.4815513
v -0.1871261 0.2147849 -0.4815513
v -0.1882391 0.1640195 -0.4546271
v -0.1052329 0.1601771 -0.567073
v -0.1711233 0.2043463 -0.5694033
v -0.1711233 0.2043463 -0.5694033
v -0.1052329 0.1601771 -0.567073
v -0.2295102 0.1357343 -0.604761
v -0.2408907 0.1906245 -0.5905608
v -0.2652507 0.1931171 -0.558736
v -0.2856131 0.1687188 -0.531805
v -0.1882391 0.1640195 -0.4546271
v -0.1871261 0.2147849 -0.4815513
v -0.2408907 0.1906245 -0.5905608
v -0.2295102 0.1357343 -0.604761
v -0.2856131 0.1687188 -0.531805
v -0.2652507 0.1931171 -0.558736

vn 0.0497033 0.9958351 -0.07643378
vn 0.0497033 0.9958351 -0.07643378
vn 0.0497033 0.9958351 -0.07643378
vn 0.0497033 0.9958351 -0.07643378
vn -0.08625803 0.6766488 -0.7312358
vn -0.08625803 0.6766488 -0.7312358
vn -0.08625803 0.6766488 -0.7312358
vn -0.08625803 0.6766488 -0.7312358
vn 0.1193274 0.7186717 0.6850343
vn 0.1193274 0.7186717 0.6850343
vn 0.1193274 0.7186717 0.6850343
vn 0.1193274 0.7186717 0.6850343
vn 0.9113048 0.408329 -0.05283083
vn 0.9113048 0.408329 -0.05283083
vn 0.9113048 0.408329 -0.05283083
vn 0.9113048 0.408329 -0.05283083
vn -0.8405817 0.5392368 0.05144121
vn -0.8405817 0.5392368 0.05144121
vn -0.8405817 0.5392368 0.05144121
vn -0.8405817 0.5392368 0.05144121
vn -0.9132413 0.403693 -0.05497469
vn -0.9132413 0.403693 -0.05497469
vn -0.9132413 0.403693 -0.05497469
vn -0.9132413 0.403693 -0.05497469
vn 0.9034966 0.4284467 -0.01128681
vn 0.9034966 0.4284467 -0.01128681
vn 0.9034966 0.4284467 -0.01128681
vn 0.9034966 0.4284467 -0.01128681
vn 0.05727151 0.995407 0.07671346
vn 0.05727151 0.995407 0.07671346
vn 0.05727151 0.995407 0.07671346
vn 0.05727151 0.995407 0.07671346
vn 0.07585733 0.9960898 0.04528658
vn 0.07585733 0.9960898 0.04528658
vn 0.07585733 0.9960898 0.04528658
vn -0.0506128 0.9953779 0.08161642
vn -0.0506128 0.9953779 0.08161642
vn -0.0506128 0.9953779 0.08161642
vn -0.0506128 0.9953779 0.08161642
vn -0.1193274 0.7186717 0.6850343
vn -0.1193274 0.7186717 0.6850343
vn -0.1193274 0.7186717 0.6850343
vn -0.1193274 0.7186717 0.6850343
vn 0.0863846 0.6768613 -0.7310243
vn 0.0863846 0.6768613 -0.7310243
vn 0.0863846 0.6768613 -0.7310243
vn 0.0863846 0.6768613 -0.7310243
vn -0.04282676 0.9957159 -0.08194932
vn -0.04282676 0.9957159 -0.08194932
vn -0.04282676 0.9957159 -0.08194932
vn -0.04282676 0.9957159 -0.08194932
vn 0 -1 0
vn 0 -1 0
vn 0 -1 0
vn 0 -1 0
vn 0 -1 0
vn 0 -1 0
vn 0 -1 0
vn 0 -1 0
vn 0 -1 0
vn 0 -1 0
vn 0 -1 0
vn 0 -1 0
vn -0.07585731 0.9960898 0.04528658
vn -0.07585731 0.9960898 0.04528658
vn -0.07585731 0.9960898 0.04528658
vn -0.07585731 0.9960898 0.04528658
vn 0.8405817 0.5392368 0.0514412
vn 0.8405817 0.5392368 0.0514412
vn 0.8405817 0.5392368 0.0514412
vn 0.8405817 0.5392368 0.0514412
vn -0.9062473 0.4226377 -0.00965572
vn -0.9062473 0.4226377 -0.00965572
vn -0.9062473 0.4226377 -0.00965572
vn -0.9062473 0.4226377 -0.00965572
vn -0.165423 -0.9795517 -0.1145156
vn -0.165423 -0.9795517 -0.1145156
vn -0.165423 -0.9795517 -0.1145156
vn -0.165423 -0.9795517 -0.1145156
vn 0.7231454 -0.6894746 0.04105365
vn 0.7231454 -0.6894746 0.04105365
vn 0.7231454 -0.6894746 0.04105365
vn 0.7231454 -0.6894746 0.04105365
vn -0.01401431 -0.287591 -0.9576508
vn -0.01401431 -0.287591 -0.9576508
vn -0.01401431 -0.287591 -0.9576508
vn -0.01401431 -0.287591 -0.9576508
vn -0.3457411 -0.6638361 0.6631628
vn -0.3457411 -0.6638361 0.6631628
vn -0.3457411 -0.6638361 0.6631628
vn -0.3457411 -0.6638361 0.6631628
vn -0.9209123 0.007547275 -0.3896966
vn -0.9209123 0.007547275 -0.3896966
vn -0.9209123 0.007547275 -0.3896966
vn -0.9209123 0.007547275 -0.3896966
vn 0.1339555 -0.9794148 0.1510053
vn 0.1339555 -0.9794148 0.1510053
vn 0.1339555 -0.9794148 0.1510053
vn 0.1339555 -0.9794148 0.1510053
vn -0.7337898 -0.599299 -0.3199896
vn -0.7337898 -0.599299 -0.3199896
vn -0.7337898 -0.599299 -0.3199896
vn -0.7337898 -0.599299 -0.3199896
vn -0.2257029 -0.2875899 0.9307793
vn -0.2257029 -0.2875899 0.9307793
vn -0.2257029 -0.2875899 0.9307793
vn -0.2257029 -0.2875899 0.9307793
vn 0.5688248 -0.5801964 -0.5829327
vn 0.5688248 -0.5801964 -0.5829327
vn 0.5688248 -0.5801964 -0.5829327
vn 0.5688248 -0.5801964 -0.5829327
vn 0.7943369 0.007546852 0.6074306
vn 0.7943369 0.007546852 0.6074306
vn 0.7943369 0.007546852 0.6074306
vn 0.7943369 0.007546852 0.6074306

vt 0.2045148 0.7919479
vt 0.2190822 0.7919934
vt 0.2178619 0.7808207
vt 0.2044867 0.7793049
vt 0.2269757 0.79201
vt 0.2190822 0.7919934
vt 0.2178001 0.8031753
vt 0.2235638 0.8070306
vt 0.160374 0.7918646
vt 0.1666996 0.7918785
vt 0.1684902 0.7794195
vt 0.1629556 0.775897
vt 0.2070478 0.7728608
vt 0.2044867 0.7793049
vt 0.2178619 0.7808207
vt 0.2236232 0.7769839
vt 0.1846704 0.8111509
vt 0.1864448 0.8056561
vt 0.1684359 0.8043478
vt 0.162884 0.8078455
vt 0.2235638 0.8070306
vt 0.2178001 0.8031753
vt 0.2044141 0.8045452
vt 0.2069639 0.8111512
vt 0.1847506 0.7726955
vt 0.1864892 0.7781956
vt 0.2044867 0.7793049
vt 0.2070478 0.7728608
vt 0.1862768 0.7919179
vt 0.2045148 0.7919479
vt 0.2044867 0.7793049
vt 0.1864892 0.7781956
vt 0.1666996 0.7918785
vt 0.1864892 0.7781956
vt 0.1684902 0.7794195
vt 0.1864448 0.8056561
vt 0.2044141 0.8045452
vt 0.2045148 0.7919479
vt 0.1862768 0.7919179
vt 0.162884 0.8078455
vt 0.1684359 0.8043478
vt 0.1666996 0.7918785
vt 0.160374 0.7918646
vt 0.2236232 0.7769839
vt 0.2178619 0.7808207
vt 0.2190822 0.7919934
vt 0.2269757 0.79201
vt 0.2044141 0.8045452
vt 0.2178001 0.8031753
vt 0.2190822 0.7919934
vt 0.2045148 0.7919479
vt 0.2040358 0.8124866
vt 0.2223243 0.828225
vt 0.2208065 0.8138497
vt 0.2041253 0.8277392
vt 0.2200417 0.8424988
vt 0.183025 0.811364
vt 0.2032222 0.8429653
vt 0.1822497 0.8271552
vt 0.1619748 0.8117175
vt 0.1821814 0.8429653
vt 0.160374 0.8265712
vt 0.1611801 0.8414892
vt 0.1684359 0.8043478
vt 0.1864448 0.8056561
vt 0.1862768 0.7919179
vt 0.1666996 0.7918785
vt 0.1629556 0.775897
vt 0.1684902 0.7794195
vt 0.1864892 0.7781956
vt 0.1847506 0.7726955
vt 0.2069639 0.8111512
vt 0.2044141 0.8045452
vt 0.1864448 0.8056561
vt 0.1846704 0.8111509
vt 0.2248496 0.813795
vt 0.225298 0.8151692
vt 0.2263304 0.8153486
vt 0.2265488 0.8134303
vt 0.2265488 0.8134303
vt 0.2285492 0.811364
vt 0.222537 0.811364
vt 0.2248496 0.813795
vt 0.2248496 0.813795
vt 0.222537 0.811364
vt 0.223799 0.8166849
vt 0.225298 0.8151692
vt 0.2263304 0.8153486
vt 0.2288518 0.816957
vt 0.2285492 0.811364
vt 0.2265488 0.8134303
vt 0.225298 0.8151692
vt 0.223799 0.8166849
vt 0.2288518 0.816957
vt 0.2263304 0.8153486
vt 0.2261237 0.8205605
vt 0.225512 0.8186057
vt 0.2244212 0.8186169
vt 0.223979 0.8207816
vt 0.223979 0.8207816
vt 0.222537 0.8226194
vt 0.2282429 0.8226194
vt 0.2261237 0.8205605
vt 0.2261237 0.8205605
vt 0.2282429 0.8226194
vt 0.2273018 0.8171697
vt 0.225512 0.8186057
vt 0.2244212 0.8186169
vt 0.2230437 0.8175886
vt 0.222537 0.8226194
vt 0.223979 0.8207816
vt 0.225512 0.8186057
vt 0.2273018 0.8171697
vt 0.2230437 0.8175886
vt 0.2244212 0.8186169

usemtl LOW-POLY-COLORS
usemap LOW-POLY-COLORS
f 2/2/2 1/1/1 3/3/3
f 3/3/3 1/1/1 4/4/4
f 6/6/6 5/5/5 7/7/7
f 7/7/7 5/5/5 8/8/8
f 10/10/10 9/9/9 11/11/11
f 11/11/11 9/9/9 12/12/12
f 14/14/14 13/13/13 15/15/15
f 15/15/15 13/13/13 16/16/16
f 18/18/18 17/17/17 19/19/19
f 19/19/19 17/17/17 20/20/20
f 22/22/22 21/21/21 23/23/23
f 23/23/23 21/21/21 24/24/24
f 26/26/26 25/25/25 27/27/27
f 27/27/27 25/25/25 28/28/28
f 30/30/30 29/29/29 31/31/31
f 31/31/31 29/29/29 32/32/32
f 29/29/29 33/33/33 34/34/34
f 34/34/34 33/33/33 35/35/35
f 37/37/37 36/36/36 38/38/38
f 38/38/38 36/36/36 39/39/39
f 41/41/41 40/40/40 42/42/42
f 42/42/42 40/40/40 43/43/43
f 45/45/45 44/44/44 46/46/46
f 46/46/46 44/44/44 47/47/47
f 49/49/49 48/48/48 50/50/50
f 50/50/50 48/48/48 51/51/51
f 53/53/53 52/52/52 54/54/54
f 55/55/55 52/52/52 53/53/53
f 56/56/56 55/55/55 53/53/53
f 55/55/55 57/57/57 52/52/52
f 58/58/58 55/55/55 56/56/56
f 59/59/59 57/57/57 55/55/55
f 58/58/58 59/59/59 55/55/55
f 59/59/59 60/60/60 57/57/57
f 61/61/61 59/59/59 58/58/58
f 62/62/62 60/60/60 59/59/59
f 61/61/61 62/62/62 59/59/59
f 63/63/63 62/62/62 61/61/61
f 65/65/65 64/64/64 66/66/66
f 66/66/66 64/64/64 67/67/67
f 69/69/69 68/68/68 70/70/70
f 70/70/70 68/68/68 71/71/71
f 73/73/73 72/72/72 74/74/74
f 74/74/74 72/72/72 75/75/75
f 77/77/77 76/76/76 78/78/78
f 78/78/78 76/76/76 79/79/79
f 81/81/81 80/80/80 82/82/82
f 82/82/82 80/80/80 83/83/83
f 85/85/85 84/84/84 86/86/86
f 86/86/86 84/84/84 87/87/87
f 89/89/89 88/88/88 90/90/90
f 90/90/90 88/88/88 91/91/91
f 93/93/93 92/92/92 94/94/94
f 94/94/94 92/92/92 95/95/95
f 97/97/97 96/96/96 98/98/98
f 98/98/98 96/96/96 99/99/99
f 101/101/101 100/100/100 102/102/102
f 102/102/102 100/100/100 103/103/103
f 105/105/105 104/104/104 106/106/106
f 106/106/106 104/104/104 107/107/107
f 109/109/109 108/108/108 110/110/110
f 110/110/110 108/108/108 111/111/111
f 113/113/113 112/112/112 114/114/114
f 114/114/114 112/112/112 115/115/115
