mtllib ./jar-medium_63.mtl
g jar-medium
v 0.10484 0.01728041 0.10484
v 0 0 0
v 1.296184E-08 0.01728042 0.1482662
v 1.296184E-08 0.01728042 0.1482662
v 0 0 0
v -0.10484 0.01728041 0.10484
v -0.1482662 0.01728041 1.431791E-08
v 0 0 0
v -0.10484 0.0172804 -0.10484
v -1.296184E-08 0.01728042 -0.1482662
v 0 0 0
v 0.10484 0.0172804 -0.1048401
v 0.1482662 0.01728041 -1.893587E-08
v 0 0 0
v 0.10484 0.01728041 0.10484
v -0.10484 0.01728041 0.10484
v 0 0 0
v -0.1482662 0.01728041 1.431791E-08
v -0.10484 0.0172804 -0.10484
v 0 0 0
v -1.296184E-08 0.01728042 -0.1482662
v 0.10484 0.0172804 -0.1048401
v 0 0 0
v 0.1482662 0.01728041 -1.893587E-08
v -0.2412827 0.5149676 -3.064039E-08
v -0.1706127 0.5149676 0.1706126
v -0.1426583 0.129737 0.1426584
v -0.2017494 0.129737 8.667684E-09
v -2.109361E-08 0.5149676 -0.2412828
v -0.1706127 0.5149676 -0.1706126
v -0.1426583 0.1297369 -0.1426583
v -1.76375E-08 0.129737 -0.2017494
v 0.2412827 0.5149676 -8.475631E-08
v 0.1706127 0.5149676 -0.1706128
v 0.1426583 0.1297369 -0.1426584
v 0.2017494 0.129737 -3.658155E-08
v 2.10936E-08 0.5149677 0.2412826
v 0.1706127 0.5149676 0.1706126
v 0.1426583 0.129737 0.1426584
v 1.763749E-08 0.129737 0.2017494
v -0.1706127 0.5149676 0.1706126
v 2.10936E-08 0.5149677 0.2412826
v 1.763749E-08 0.129737 0.2017494
v -0.1426583 0.129737 0.1426584
v -0.1706127 0.5149676 -0.1706126
v -0.2412827 0.5149676 -3.064039E-08
v -0.2017494 0.129737 8.667684E-09
v -0.1426583 0.1297369 -0.1426583
v 0.1706127 0.5149676 -0.1706128
v -2.109361E-08 0.5149676 -0.2412828
v -1.76375E-08 0.129737 -0.2017494
v 0.1426583 0.1297369 -0.1426584
v 0.1706127 0.5149676 0.1706126
v 0.2412827 0.5149676 -8.475631E-08
v 0.2017494 0.129737 -3.658155E-08
v 0.1426583 0.129737 0.1426584
v -0.1426583 0.129737 0.1426584
v 1.763749E-08 0.129737 0.2017494
v 1.296184E-08 0.01728042 0.1482662
v -0.10484 0.01728041 0.10484
v -0.1426583 0.1297369 -0.1426583
v -0.2017494 0.129737 8.667684E-09
v -0.1482662 0.01728041 1.431791E-08
v -0.10484 0.0172804 -0.10484
v 0.1426583 0.1297369 -0.1426584
v -1.76375E-08 0.129737 -0.2017494
v -1.296184E-08 0.01728042 -0.1482662
v 0.10484 0.0172804 -0.1048401
v 0.1426583 0.129737 0.1426584
v 0.2017494 0.129737 -3.658155E-08
v 0.1482662 0.01728041 -1.893587E-08
v 0.10484 0.01728041 0.10484
v -0.2017494 0.129737 8.667684E-09
v -0.1426583 0.129737 0.1426584
v -0.10484 0.01728041 0.10484
v -0.1482662 0.01728041 1.431791E-08
v -1.76375E-08 0.129737 -0.2017494
v -0.1426583 0.1297369 -0.1426583
v -0.10484 0.0172804 -0.10484
v -1.296184E-08 0.01728042 -0.1482662
v 0.2017494 0.129737 -3.658155E-08
v 0.1426583 0.1297369 -0.1426584
v 0.10484 0.0172804 -0.1048401
v 0.1482662 0.01728041 -1.893587E-08
v 1.763749E-08 0.129737 0.2017494
v 0.1426583 0.129737 0.1426584
v 0.10484 0.01728041 0.10484
v 1.296184E-08 0.01728042 0.1482662
v 2.10936E-08 0.5149677 0.2412826
v -0.1706127 0.5149676 0.1706126
v -0.07930611 0.6137018 0.0793061
v 9.804968E-09 0.6137018 0.1121558
v -0.2412827 0.5149676 -3.064039E-08
v -0.1706127 0.5149676 -0.1706126
v -0.07930613 0.6137018 -0.07930619
v -0.1121558 0.6137018 -5.970474E-08
v -2.109361E-08 0.5149676 -0.2412828
v 0.1706127 0.5149676 -0.1706128
v 0.07930611 0.6137018 -0.07930623
v -9.804982E-09 0.6137018 -0.1121559
v 0.2412827 0.5149676 -8.475631E-08
v 0.1706127 0.5149676 0.1706126
v 0.07930613 0.6137018 0.07930608
v 0.1121558 0.6137018 -8.485954E-08
v -0.1706127 0.5149676 0.1706126
v -0.2412827 0.5149676 -3.064039E-08
v -0.1121558 0.6137018 -5.970474E-08
v -0.07930611 0.6137018 0.0793061
v -0.1706127 0.5149676 -0.1706126
v -2.109361E-08 0.5149676 -0.2412828
v -9.804982E-09 0.6137018 -0.1121559
v -0.07930613 0.6137018 -0.07930619
v 0.1706127 0.5149676 -0.1706128
v 0.2412827 0.5149676 -8.475631E-08
v 0.1121558 0.6137018 -8.485954E-08
v 0.07930611 0.6137018 -0.07930623
v -0.1121558 0.6137018 -5.970474E-08
v -0.07930613 0.6137018 -0.07930619
v -0.09068561 0.6964266 -0.09068566
v -0.1282488 0.6964266 -6.783782E-08
v -9.804982E-09 0.6137018 -0.1121559
v 0.07930611 0.6137018 -0.07930623
v 0.09068558 0.6964266 -0.09068571
v -1.121187E-08 0.6964266 -0.1282489
v 0.1121558 0.6137018 -8.485954E-08
v 0.07930613 0.6137018 0.07930608
v 0.09068561 0.6964266 0.09068554
v 0.1282488 0.6964266 -9.660202E-08
v -0.07930611 0.6137018 0.0793061
v -0.1121558 0.6137018 -5.970474E-08
v -0.1282488 0.6964266 -6.783782E-08
v -0.09068558 0.6964266 0.09068555
v -0.07930613 0.6137018 -0.07930619
v -9.804982E-09 0.6137018 -0.1121559
v -1.121187E-08 0.6964266 -0.1282489
v -0.09068561 0.6964266 -0.09068566
v 0.07930611 0.6137018 -0.07930623
v 0.1121558 0.6137018 -8.485954E-08
v 0.1282488 0.6964266 -9.660202E-08
v 0.09068558 0.6964266 -0.09068571
v 0.07930613 0.6137018 0.07930608
v 9.804968E-09 0.6137018 0.1121558
v 1.121186E-08 0.6964266 0.1282488
v 0.09068561 0.6964266 0.09068554
v 9.804968E-09 0.6137018 0.1121558
v -0.07930611 0.6137018 0.0793061
v -0.09068558 0.6964266 0.09068555
v 1.121186E-08 0.6964266 0.1282488
v 0.1706127 0.5149676 0.1706126
v 2.10936E-08 0.5149677 0.2412826
v 9.804968E-09 0.6137018 0.1121558
v 0.07930613 0.6137018 0.07930608
v 1.121186E-08 0.6964266 0.1282488
v 9.790172E-09 0.7343323 0.1119865
v 0.07918656 0.7343323 0.07918639
v 0.09068561 0.6964266 0.09068554
v -0.09068558 0.6964266 0.09068555
v -0.07918654 0.7343323 0.07918641
v 9.790172E-09 0.7343323 0.1119865
v 1.121186E-08 0.6964266 0.1282488
v -0.09068561 0.6964266 -0.09068566
v -0.07918656 0.7343323 -0.07918654
v -0.1119866 0.7343323 -7.3102E-08
v -0.1282488 0.6964266 -6.783782E-08
v 0.09068558 0.6964266 -0.09068571
v 0.07918654 0.7343323 -0.07918657
v -9.790186E-09 0.7343323 -0.1119867
v -1.121187E-08 0.6964266 -0.1282489
v 0.09068561 0.6964266 0.09068554
v 0.07918656 0.7343323 0.07918639
v 0.1119866 0.7343323 -9.821886E-08
v 0.1282488 0.6964266 -9.660202E-08
v -0.1282488 0.6964266 -6.783782E-08
v -0.1119866 0.7343323 -7.3102E-08
v -0.07918654 0.7343323 0.07918641
v -0.09068558 0.6964266 0.09068555
v -1.121187E-08 0.6964266 -0.1282489
v -9.790186E-09 0.7343323 -0.1119867
v -0.07918656 0.7343323 -0.07918654
v -0.09068561 0.6964266 -0.09068566
v 0.1282488 0.6964266 -9.660202E-08
v 0.1119866 0.7343323 -9.821886E-08
v 0.07918654 0.7343323 -0.07918657
v 0.09068558 0.6964266 -0.09068571
v -0.1119866 0.7343323 -7.3102E-08
v -0.08592045 0.6964266 -7.002627E-08
v -0.060755 0.6964266 0.06075484
v -0.07918654 0.7343323 0.07918641
v -9.790186E-09 0.7343323 -0.1119867
v -7.511407E-09 0.6964266 -0.08592048
v -0.06075501 0.6964266 -0.06075496
v -0.07918656 0.7343323 -0.07918654
v 0.1119866 0.7343323 -9.821886E-08
v 0.08592045 0.6964266 -8.929689E-08
v 0.060755 0.6964266 -0.06075499
v 0.07918654 0.7343323 -0.07918657
v 9.790172E-09 0.7343323 0.1119865
v 7.511395E-09 0.6964266 0.08592034
v 0.06075501 0.6964266 0.06075483
v 0.07918656 0.7343323 0.07918639
v -0.07918654 0.7343323 0.07918641
v -0.060755 0.6964266 0.06075484
v 7.511395E-09 0.6964266 0.08592034
v 9.790172E-09 0.7343323 0.1119865
v -0.07918656 0.7343323 -0.07918654
v -0.06075501 0.6964266 -0.06075496
v -0.08592045 0.6964266 -7.002627E-08
v -0.1119866 0.7343323 -7.3102E-08
v 0.07918654 0.7343323 -0.07918657
v 0.060755 0.6964266 -0.06075499
v -7.511407E-09 0.6964266 -0.08592048
v -9.790186E-09 0.7343323 -0.1119867
v 0.07918656 0.7343323 0.07918639
v 0.06075501 0.6964266 0.06075483
v 0.08592045 0.6964266 -8.929689E-08
v 0.1119866 0.7343323 -9.821886E-08
v -0.06075501 0.6964266 -0.06075496
v -7.511407E-09 0.6964266 -0.08592048
v 0.060755 0.6964266 -0.06075499
v 0.08592045 0.6964266 -8.929689E-08
v -0.08592045 0.6964266 -7.002627E-08
v 0.06075501 0.6964266 0.06075483
v -0.060755 0.6964266 0.06075484
v 7.511395E-09 0.6964266 0.08592034

vn 0.04789691 -0.9921365 0.1156335
vn 0.04789691 -0.9921365 0.1156335
vn 0.04789691 -0.9921365 0.1156335
vn -0.04789687 -0.9921365 0.1156335
vn -0.04789687 -0.9921365 0.1156335
vn -0.04789687 -0.9921365 0.1156335
vn -0.1156334 -0.9921365 -0.04789684
vn -0.1156334 -0.9921365 -0.04789684
vn -0.1156334 -0.9921365 -0.04789684
vn 0.04789677 -0.9921365 -0.1156335
vn 0.04789677 -0.9921365 -0.1156335
vn 0.04789677 -0.9921365 -0.1156335
vn 0.1156335 -0.9921365 0.04789693
vn 0.1156335 -0.9921365 0.04789693
vn 0.1156335 -0.9921365 0.04789693
vn -0.1156334 -0.9921365 0.04789694
vn -0.1156334 -0.9921365 0.04789694
vn -0.1156334 -0.9921365 0.04789694
vn -0.04789685 -0.9921365 -0.1156335
vn -0.04789685 -0.9921365 -0.1156335
vn -0.04789685 -0.9921365 -0.1156335
vn 0.1156334 -0.9921365 -0.04789684
vn 0.1156334 -0.9921365 -0.04789684
vn 0.1156334 -0.9921365 -0.04789684
vn -0.9197549 -0.09438749 0.3809751
vn -0.9197549 -0.09438749 0.3809751
vn -0.9197549 -0.09438749 0.3809751
vn -0.9197549 -0.09438749 0.3809751
vn -0.3809753 -0.09438763 -0.9197548
vn -0.3809753 -0.09438763 -0.9197548
vn -0.3809753 -0.09438763 -0.9197548
vn -0.3809753 -0.09438763 -0.9197548
vn 0.9197549 -0.09438758 -0.3809751
vn 0.9197549 -0.09438758 -0.3809751
vn 0.9197549 -0.09438758 -0.3809751
vn 0.9197549 -0.09438758 -0.3809751
vn 0.3809749 -0.09438741 0.9197549
vn 0.3809749 -0.09438741 0.9197549
vn 0.3809749 -0.09438741 0.9197549
vn 0.3809749 -0.09438741 0.9197549
vn -0.3809748 -0.09438735 0.919755
vn -0.3809748 -0.09438735 0.919755
vn -0.3809748 -0.09438735 0.919755
vn -0.3809748 -0.09438735 0.919755
vn -0.9197549 -0.09438756 -0.3809749
vn -0.9197549 -0.09438756 -0.3809749
vn -0.9197549 -0.09438756 -0.3809749
vn -0.9197549 -0.09438756 -0.3809749
vn 0.3809748 -0.09438766 -0.919755
vn 0.3809748 -0.09438766 -0.919755
vn 0.3809748 -0.09438766 -0.919755
vn 0.3809748 -0.09438766 -0.919755
vn 0.919755 -0.09438747 0.3809749
vn 0.919755 -0.09438747 0.3809749
vn 0.919755 -0.09438747 0.3809749
vn 0.919755 -0.09438747 0.3809749
vn -0.3503549 -0.4022689 0.8458318
vn -0.3503549 -0.4022689 0.8458318
vn -0.3503549 -0.4022689 0.8458318
vn -0.3503549 -0.4022689 0.8458318
vn -0.8458316 -0.402269 -0.3503549
vn -0.8458316 -0.402269 -0.3503549
vn -0.8458316 -0.402269 -0.3503549
vn -0.8458316 -0.402269 -0.3503549
vn 0.3503547 -0.4022691 -0.8458316
vn 0.3503547 -0.4022691 -0.8458316
vn 0.3503547 -0.4022691 -0.8458316
vn 0.3503547 -0.4022691 -0.8458316
vn 0.8458316 -0.402269 0.350355
vn 0.8458316 -0.402269 0.350355
vn 0.8458316 -0.402269 0.350355
vn 0.8458316 -0.402269 0.350355
vn -0.8458316 -0.4022689 0.3503551
vn -0.8458316 -0.4022689 0.3503551
vn -0.8458316 -0.4022689 0.3503551
vn -0.8458316 -0.4022689 0.3503551
vn -0.3503552 -0.4022692 -0.8458315
vn -0.3503552 -0.4022692 -0.8458315
vn -0.3503552 -0.4022692 -0.8458315
vn -0.3503552 -0.4022692 -0.8458315
vn 0.8458316 -0.402269 -0.3503549
vn 0.8458316 -0.402269 -0.3503549
vn 0.8458316 -0.402269 -0.3503549
vn 0.8458316 -0.402269 -0.3503549
vn 0.350355 -0.4022689 0.8458316
vn 0.350355 -0.4022689 0.8458316
vn 0.350355 -0.4022689 0.8458316
vn 0.350355 -0.4022689 0.8458316
vn -0.2439937 0.7703784 0.5890538
vn -0.2439937 0.7703784 0.5890538
vn -0.2439937 0.7703784 0.5890538
vn -0.2439937 0.7703784 0.5890538
vn -0.5890538 0.7703782 -0.2439938
vn -0.5890538 0.7703782 -0.2439938
vn -0.5890538 0.7703782 -0.2439938
vn -0.5890538 0.7703782 -0.2439938
vn 0.2439938 0.7703782 -0.5890538
vn 0.2439938 0.7703782 -0.5890538
vn 0.2439938 0.7703782 -0.5890538
vn 0.2439938 0.7703782 -0.5890538
vn 0.5890538 0.7703782 0.2439937
vn 0.5890538 0.7703782 0.2439937
vn 0.5890538 0.7703782 0.2439937
vn 0.5890538 0.7703782 0.2439937
vn -0.5890538 0.7703782 0.2439938
vn -0.5890538 0.7703782 0.2439938
vn -0.5890538 0.7703782 0.2439938
vn -0.5890538 0.7703782 0.2439938
vn -0.2439941 0.7703782 -0.5890537
vn -0.2439941 0.7703782 -0.5890537
vn -0.2439941 0.7703782 -0.5890537
vn -0.2439941 0.7703782 -0.5890537
vn 0.589054 0.7703781 -0.2439938
vn 0.589054 0.7703781 -0.2439938
vn 0.589054 0.7703781 -0.2439938
vn 0.589054 0.7703781 -0.2439938
vn -0.9093099 -0.1768941 -0.3766483
vn -0.9093099 -0.1768941 -0.3766483
vn -0.9093099 -0.1768941 -0.3766483
vn -0.9093099 -0.1768941 -0.3766483
vn 0.3766484 -0.1768941 -0.9093099
vn 0.3766484 -0.1768941 -0.9093099
vn 0.3766484 -0.1768941 -0.9093099
vn 0.3766484 -0.1768941 -0.9093099
vn 0.90931 -0.1768941 0.3766482
vn 0.90931 -0.1768941 0.3766482
vn 0.90931 -0.1768941 0.3766482
vn 0.90931 -0.1768941 0.3766482
vn -0.9093099 -0.1768941 0.3766484
vn -0.9093099 -0.1768941 0.3766484
vn -0.9093099 -0.1768941 0.3766484
vn -0.9093099 -0.1768941 0.3766484
vn -0.3766489 -0.176894 -0.9093097
vn -0.3766489 -0.176894 -0.9093097
vn -0.3766489 -0.176894 -0.9093097
vn -0.3766489 -0.176894 -0.9093097
vn 0.9093097 -0.1768942 -0.3766486
vn 0.9093097 -0.1768942 -0.3766486
vn 0.9093097 -0.1768942 -0.3766486
vn 0.9093097 -0.1768942 -0.3766486
vn 0.3766485 -0.1768939 0.9093099
vn 0.3766485 -0.1768939 0.9093099
vn 0.3766485 -0.1768939 0.9093099
vn 0.3766485 -0.1768939 0.9093099
vn -0.3766483 -0.176894 0.9093099
vn -0.3766483 -0.176894 0.9093099
vn -0.3766483 -0.176894 0.9093099
vn -0.3766483 -0.176894 0.9093099
vn 0.2439942 0.7703784 0.5890535
vn 0.2439942 0.7703784 0.5890535
vn 0.2439942 0.7703784 0.5890535
vn 0.2439942 0.7703784 0.5890535
vn 0.3557572 0.3684728 0.8588741
vn 0.3557572 0.3684728 0.8588741
vn 0.3557572 0.3684728 0.8588741
vn 0.3557572 0.3684728 0.8588741
vn -0.3557571 0.368473 0.858874
vn -0.3557571 0.368473 0.858874
vn -0.3557571 0.368473 0.858874
vn -0.3557571 0.368473 0.858874
vn -0.8588744 0.3684717 -0.3557573
vn -0.8588744 0.3684717 -0.3557573
vn -0.8588744 0.3684717 -0.3557573
vn -0.8588744 0.3684717 -0.3557573
vn 0.3557571 0.3684728 -0.858874
vn 0.3557571 0.3684728 -0.858874
vn 0.3557571 0.3684728 -0.858874
vn 0.3557571 0.3684728 -0.858874
vn 0.8588749 0.3684712 0.3557567
vn 0.8588749 0.3684712 0.3557567
vn 0.8588749 0.3684712 0.3557567
vn 0.8588749 0.3684712 0.3557567
vn -0.8588743 0.3684719 0.3557574
vn -0.8588743 0.3684719 0.3557574
vn -0.8588743 0.3684719 0.3557574
vn -0.8588743 0.3684719 0.3557574
vn -0.3557577 0.3684722 -0.8588741
vn -0.3557577 0.3684722 -0.8588741
vn -0.3557577 0.3684722 -0.8588741
vn -0.3557577 0.3684722 -0.8588741
vn 0.8588746 0.3684715 -0.3557572
vn 0.8588746 0.3684715 -0.3557572
vn 0.8588746 0.3684715 -0.3557572
vn 0.8588746 0.3684715 -0.3557572
vn 0.7798117 0.5362453 -0.3230086
vn 0.7798117 0.5362453 -0.3230086
vn 0.7798117 0.5362453 -0.3230086
vn 0.7798117 0.5362453 -0.3230086
vn 0.3230089 0.5362452 0.7798117
vn 0.3230089 0.5362452 0.7798117
vn 0.3230089 0.5362452 0.7798117
vn 0.3230089 0.5362452 0.7798117
vn -0.7798122 0.5362449 0.3230083
vn -0.7798122 0.5362449 0.3230083
vn -0.7798122 0.5362449 0.3230083
vn -0.7798122 0.5362449 0.3230083
vn -0.3230085 0.536245 -0.779812
vn -0.3230085 0.536245 -0.779812
vn -0.3230085 0.536245 -0.779812
vn -0.3230085 0.536245 -0.779812
vn 0.3230085 0.536245 -0.779812
vn 0.3230085 0.536245 -0.779812
vn 0.3230085 0.536245 -0.779812
vn 0.3230085 0.536245 -0.779812
vn 0.7798123 0.5362449 0.3230081
vn 0.7798123 0.5362449 0.3230081
vn 0.7798123 0.5362449 0.3230081
vn 0.7798123 0.5362449 0.3230081
vn -0.3230075 0.5362454 0.7798121
vn -0.3230075 0.5362454 0.7798121
vn -0.3230075 0.5362454 0.7798121
vn -0.3230075 0.5362454 0.7798121
vn -0.7798122 0.536245 -0.323008
vn -0.7798122 0.536245 -0.323008
vn -0.7798122 0.536245 -0.323008
vn -0.7798122 0.536245 -0.323008
vn -1.784111E-07 1 0
vn -1.784111E-07 1 0
vn -1.784111E-07 1 0
vn -1.784111E-07 1 0
vn -1.784111E-07 1 0
vn -1.784111E-07 1 0
vn -1.784111E-07 1 0
vn -1.784111E-07 1 0

vt 0.4044772 0.5881588
vt 0.3973007 0.5699756
vt 0.3907922 0.5939329
vt 0.3907922 0.547933
vt 0.3973007 0.5699756
vt 0.4032767 0.5517471
vt 0.409856 0.5574564
vt 0.3973007 0.5699756
vt 0.4131631 0.563518
vt 0.414271 0.5695999
vt 0.3973007 0.5699756
vt 0.4135045 0.5756998
vt 0.4106185 0.5818828
vt 0.3973007 0.5699756
vt 0.4044772 0.5881588
vt 0.4032767 0.5517471
vt 0.3973007 0.5699756
vt 0.409856 0.5574564
vt 0.4131631 0.563518
vt 0.3973007 0.5699756
vt 0.414271 0.5695999
vt 0.4135045 0.5756998
vt 0.3973007 0.5699756
vt 0.4106185 0.5818828
vt 0.4394365 0.5490298
vt 0.4390981 0.5350354
vt 0.4103541 0.5436283
vt 0.4167668 0.5533496
vt 0.4399142 0.5702339
vt 0.4397984 0.5601762
vt 0.4197852 0.5617856
vt 0.4207646 0.5696439
vt 0.4395347 0.5908202
vt 0.4397759 0.5801587
vt 0.4200807 0.5774985
vt 0.4175056 0.5859679
vt 0.4421037 0.6210302
vt 0.4397425 0.6035195
vt 0.4119859 0.5960117
vt 0.4006107 0.609716
vt 0.4390981 0.5350354
vt 0.4410056 0.5117823
vt 0.3969958 0.5317052
vt 0.4103541 0.5436283
vt 0.4397984 0.5601762
vt 0.4394365 0.5490298
vt 0.4167668 0.5533496
vt 0.4197852 0.5617856
vt 0.4397759 0.5801587
vt 0.4399142 0.5702339
vt 0.4207646 0.5696439
vt 0.4200807 0.5774985
vt 0.4397425 0.6035195
vt 0.4395347 0.5908202
vt 0.4175056 0.5859679
vt 0.4119859 0.5960117
vt 0.4103541 0.5436283
vt 0.3969958 0.5317052
vt 0.3907922 0.547933
vt 0.4032767 0.5517471
vt 0.4197852 0.5617856
vt 0.4167668 0.5533496
vt 0.409856 0.5574564
vt 0.4131631 0.563518
vt 0.4200807 0.5774985
vt 0.4207646 0.5696439
vt 0.414271 0.5695999
vt 0.4135045 0.5756998
vt 0.4119859 0.5960117
vt 0.4175056 0.5859679
vt 0.4106185 0.5818828
vt 0.4044772 0.5881588
vt 0.4167668 0.5533496
vt 0.4103541 0.5436283
vt 0.4032767 0.5517471
vt 0.409856 0.5574564
vt 0.4207646 0.5696439
vt 0.4197852 0.5617856
vt 0.4131631 0.563518
vt 0.414271 0.5695999
vt 0.4175056 0.5859679
vt 0.4200807 0.5774985
vt 0.4135045 0.5756998
vt 0.4106185 0.5818828
vt 0.4006107 0.609716
vt 0.4119859 0.5960117
vt 0.4044772 0.5881588
vt 0.3907922 0.5939329
vt 0.4410056 0.5117823
vt 0.4390981 0.5350354
vt 0.4594974 0.5377267
vt 0.4640164 0.5262735
vt 0.4394365 0.5490298
vt 0.4397984 0.5601762
vt 0.4555426 0.5592617
vt 0.4568729 0.5488753
vt 0.4399142 0.5702339
vt 0.4397759 0.5801587
vt 0.4545019 0.5788571
vt 0.4548387 0.5691227
vt 0.4395347 0.5908202
vt 0.4397425 0.6035195
vt 0.4552563 0.5996683
vt 0.4545367 0.5889004
vt 0.4390981 0.5350354
vt 0.4394365 0.5490298
vt 0.4568729 0.5488753
vt 0.4594974 0.5377267
vt 0.4397984 0.5601762
vt 0.4399142 0.5702339
vt 0.4548387 0.5691227
vt 0.4555426 0.5592617
vt 0.4397759 0.5801587
vt 0.4395347 0.5908202
vt 0.4545367 0.5889004
vt 0.4545019 0.5788571
vt 0.4568729 0.5488753
vt 0.4555426 0.5592617
vt 0.4643953 0.5602341
vt 0.4661317 0.5507439
vt 0.4548387 0.5691227
vt 0.4545019 0.5788571
vt 0.4632804 0.5786726
vt 0.4634978 0.5694896
vt 0.4545367 0.5889004
vt 0.4552563 0.5996683
vt 0.4654815 0.5977776
vt 0.463828 0.5880029
vt 0.4594974 0.5377267
vt 0.4568729 0.5488753
vt 0.4661317 0.5507439
vt 0.4691688 0.5409046
vt 0.4555426 0.5592617
vt 0.4548387 0.5691227
vt 0.4634978 0.5694896
vt 0.4643953 0.5602341
vt 0.4545019 0.5788571
vt 0.4545367 0.5889004
vt 0.463828 0.5880029
vt 0.4632804 0.5786726
vt 0.4552563 0.5996683
vt 0.4577801 0.6106006
vt 0.469057 0.6089113
vt 0.4654815 0.5977776
vt 0.4640164 0.5262735
vt 0.4594974 0.5377267
vt 0.4691688 0.5409046
vt 0.4746441 0.5300161
vt 0.4397425 0.6035195
vt 0.4421037 0.6210302
vt 0.4577801 0.6106006
vt 0.4552563 0.5996683
vt 0.469057 0.6089113
vt 0.4739659 0.606331
vt 0.4699433 0.5965152
vt 0.4654815 0.5977776
vt 0.4691688 0.5409046
vt 0.4734837 0.5426925
vt 0.478999 0.5335245
vt 0.4746441 0.5300161
vt 0.4643953 0.5602341
vt 0.468592 0.5607942
vt 0.4704047 0.5517802
vt 0.4661317 0.5507439
vt 0.4632804 0.5786726
vt 0.467438 0.5785282
vt 0.4676431 0.5696948
vt 0.4634978 0.5694896
vt 0.4654815 0.5977776
vt 0.4699433 0.5965152
vt 0.4680869 0.5874088
vt 0.463828 0.5880029
vt 0.4661317 0.5507439
vt 0.4704047 0.5517802
vt 0.4734837 0.5426925
vt 0.4691688 0.5409046
vt 0.4634978 0.5694896
vt 0.4676431 0.5696948
vt 0.468592 0.5607942
vt 0.4643953 0.5602341
vt 0.463828 0.5880029
vt 0.4680869 0.5874088
vt 0.467438 0.5785282
vt 0.4632804 0.5786726
vt 0.4704047 0.5517802
vt 0.4756671 0.5533525
vt 0.4785142 0.5452021
vt 0.4734837 0.5426925
vt 0.4676431 0.5696948
vt 0.472959 0.5701781
vt 0.4739147 0.5617639
vt 0.468592 0.5607942
vt 0.4680869 0.5874088
vt 0.473426 0.5867274
vt 0.4727492 0.5785028
vt 0.467438 0.5785282
vt 0.4739659 0.606331
vt 0.4789686 0.6027143
vt 0.4753082 0.5948542
vt 0.4699433 0.5965152
vt 0.4734837 0.5426925
vt 0.4785142 0.5452021
vt 0.483274 0.5378849
vt 0.478999 0.5335245
vt 0.468592 0.5607942
vt 0.4739147 0.5617639
vt 0.4756671 0.5533525
vt 0.4704047 0.5517802
vt 0.467438 0.5785282
vt 0.4727492 0.5785028
vt 0.472959 0.5701781
vt 0.4676431 0.5696948
vt 0.4699433 0.5965152
vt 0.4753082 0.5948542
vt 0.473426 0.5867274
vt 0.4680869 0.5874088
vt 0.07033246 0.6848279
vt 0.06424718 0.6787426
vt 0.05564135 0.6787426
vt 0.04955604 0.6848279
vt 0.07033246 0.6934338
vt 0.04955604 0.6934338
vt 0.06424718 0.699519
vt 0.05564135 0.699519

usemtl LOW-POLY-COLORS
usemap LOW-POLY-COLORS
f 2/2/2 1/1/1 3/3/3
f 5/5/5 4/4/4 6/6/6
f 8/8/8 7/7/7 9/9/9
f 11/11/11 10/10/10 12/12/12
f 14/14/14 13/13/13 15/15/15
f 17/17/17 16/16/16 18/18/18
f 20/20/20 19/19/19 21/21/21
f 23/23/23 22/22/22 24/24/24
f 26/26/26 25/25/25 27/27/27
f 27/27/27 25/25/25 28/28/28
f 30/30/30 29/29/29 31/31/31
f 31/31/31 29/29/29 32/32/32
f 34/34/34 33/33/33 35/35/35
f 35/35/35 33/33/33 36/36/36
f 38/38/38 37/37/37 39/39/39
f 39/39/39 37/37/37 40/40/40
f 42/42/42 41/41/41 43/43/43
f 43/43/43 41/41/41 44/44/44
f 46/46/46 45/45/45 47/47/47
f 47/47/47 45/45/45 48/48/48
f 50/50/50 49/49/49 51/51/51
f 51/51/51 49/49/49 52/52/52
f 54/54/54 53/53/53 55/55/55
f 55/55/55 53/53/53 56/56/56
f 58/58/58 57/57/57 59/59/59
f 59/59/59 57/57/57 60/60/60
f 62/62/62 61/61/61 63/63/63
f 63/63/63 61/61/61 64/64/64
f 66/66/66 65/65/65 67/67/67
f 67/67/67 65/65/65 68/68/68
f 70/70/70 69/69/69 71/71/71
f 71/71/71 69/69/69 72/72/72
f 74/74/74 73/73/73 75/75/75
f 75/75/75 73/73/73 76/76/76
f 78/78/78 77/77/77 79/79/79
f 79/79/79 77/77/77 80/80/80
f 82/82/82 81/81/81 83/83/83
f 83/83/83 81/81/81 84/84/84
f 86/86/86 85/85/85 87/87/87
f 87/87/87 85/85/85 88/88/88
f 90/90/90 89/89/89 91/91/91
f 91/91/91 89/89/89 92/92/92
f 94/94/94 93/93/93 95/95/95
f 95/95/95 93/93/93 96/96/96
f 98/98/98 97/97/97 99/99/99
f 99/99/99 97/97/97 100/100/100
f 102/102/102 101/101/101 103/103/103
f 103/103/103 101/101/101 104/104/104
f 106/106/106 105/105/105 107/107/107
f 107/107/107 105/105/105 108/108/108
f 110/110/110 109/109/109 111/111/111
f 111/111/111 109/109/109 112/112/112
f 114/114/114 113/113/113 115/115/115
f 115/115/115 113/113/113 116/116/116
f 118/118/118 117/117/117 119/119/119
f 119/119/119 117/117/117 120/120/120
f 122/122/122 121/121/121 123/123/123
f 123/123/123 121/121/121 124/124/124
f 126/126/126 125/125/125 127/127/127
f 127/127/127 125/125/125 128/128/128
f 130/130/130 129/129/129 131/131/131
f 131/131/131 129/129/129 132/132/132
f 134/134/134 133/133/133 135/135/135
f 135/135/135 133/133/133 136/136/136
f 138/138/138 137/137/137 139/139/139
f 139/139/139 137/137/137 140/140/140
f 142/142/142 141/141/141 143/143/143
f 143/143/143 141/141/141 144/144/144
f 146/146/146 145/145/145 147/147/147
f 147/147/147 145/145/145 148/148/148
f 150/150/150 149/149/149 151/151/151
f 151/151/151 149/149/149 152/152/152
f 154/154/154 153/153/153 155/155/155
f 155/155/155 153/153/153 156/156/156
f 158/158/158 157/157/157 159/159/159
f 159/159/159 157/157/157 160/160/160
f 162/162/162 161/161/161 163/163/163
f 163/163/163 161/161/161 164/164/164
f 166/166/166 165/165/165 167/167/167
f 167/167/167 165/165/165 168/168/168
f 170/170/170 169/169/169 171/171/171
f 171/171/171 169/169/169 172/172/172
f 174/174/174 173/173/173 175/175/175
f 175/175/175 173/173/173 176/176/176
f 178/178/178 177/177/177 179/179/179
f 179/179/179 177/177/177 180/180/180
f 182/182/182 181/181/181 183/183/183
f 183/183/183 181/181/181 184/184/184
f 186/186/186 185/185/185 187/187/187
f 187/187/187 185/185/185 188/188/188
f 190/190/190 189/189/189 191/191/191
f 191/191/191 189/189/189 192/192/192
f 194/194/194 193/193/193 195/195/195
f 195/195/195 193/193/193 196/196/196
f 198/198/198 197/197/197 199/199/199
f 199/199/199 197/197/197 200/200/200
f 202/202/202 201/201/201 203/203/203
f 203/203/203 201/201/201 204/204/204
f 206/206/206 205/205/205 207/207/207
f 207/207/207 205/205/205 208/208/208
f 210/210/210 209/209/209 211/211/211
f 211/211/211 209/209/209 212/212/212
f 214/214/214 213/213/213 215/215/215
f 215/215/215 213/213/213 216/216/216
f 218/218/218 217/217/217 219/219/219
f 220/220/220 219/219/219 217/217/217
f 221/221/221 220/220/220 217/217/217
f 222/222/222 220/220/220 221/221/221
f 223/223/223 222/222/222 221/221/221
f 224/224/224 222/222/222 223/223/223
