mtllib ./plate-round_29.mtl
g plate-round
v 0.1923318 0.09370743 0.1923318
v 1.992892E-08 0.09370743 0.2279603
v 0.1611923 0.09370743 0.1611922
v 2.377884E-08 0.09370743 0.2719983
v -0.1611923 0.09370743 0.1611923
v -0.1923318 0.09370743 0.1923318
v -0.1923318 0.09370743 0.1923318
v -0.2719983 0.09370743 1.188942E-08
v -0.2279603 0.09370743 9.964458E-09
v -0.1611923 0.09370743 0.1611923
v -0.1923318 0.09370743 -0.1923318
v 0 0.09370743 -0.2719983
v 0 0.09370743 -0.2279603
v -0.1611923 0.09370743 -0.1611923
v 0 0.09370743 -0.2719983
v 0.1923318 0.09370743 -0.1923318
v 0.1611923 0.09370743 -0.1611922
v 0 0.09370743 -0.2279603
v 0.2719983 0.09370743 -3.243547E-09
v 0.1923318 0.09370743 0.1923318
v 0.1611923 0.09370743 0.1611922
v 0.2279603 0.09370743 -2.718399E-09
v -0.2719983 0.09370743 1.188942E-08
v -0.1923318 0.09370743 -0.1923318
v -0.1611923 0.09370743 -0.1611923
v -0.2279603 0.09370743 9.964458E-09
v 0.1923318 0.09370743 -0.1923318
v 0.2719983 0.09370743 -3.243547E-09
v 0.2279603 0.09370743 -2.718399E-09
v 0.1611923 0.09370743 -0.1611922
v 0 0.09370743 -0.2279603
v 0.1611923 0.09370743 -0.1611922
v 0.126631 0.03949998 -0.1266309
v 0 0.03949998 -0.1790832
v 0.2279603 0.09370743 -2.718399E-09
v 0.1611923 0.09370743 0.1611922
v 0.126631 0.03949998 0.1266309
v 0.1790832 0.03949998 -2.135546E-09
v 1.992892E-08 0.09370743 0.2279603
v -0.1611923 0.09370743 0.1611923
v -0.1266309 0.03949998 0.1266309
v 1.565595E-08 0.03949998 0.1790832
v -0.2279603 0.09370743 9.964458E-09
v -0.1611923 0.09370743 -0.1611923
v -0.1266309 0.03949998 -0.1266309
v -0.1790832 0.03949998 7.827975E-09
v 0.1611923 0.09370743 -0.1611922
v 0.2279603 0.09370743 -2.718399E-09
v 0.1790832 0.03949998 -2.135546E-09
v 0.126631 0.03949998 -0.1266309
v 0.1611923 0.09370743 0.1611922
v 1.992892E-08 0.09370743 0.2279603
v 1.565595E-08 0.03949998 0.1790832
v 0.126631 0.03949998 0.1266309
v -0.1611923 0.09370743 0.1611923
v -0.2279603 0.09370743 9.964458E-09
v -0.1790832 0.03949998 7.827975E-09
v -0.1266309 0.03949998 0.1266309
v -0.1611923 0.09370743 -0.1611923
v 0 0.09370743 -0.2279603
v 0 0.03949998 -0.1790832
v -0.1266309 0.03949998 -0.1266309
v 2.377884E-08 0.09370743 0.2719983
v 0.1923318 0.09370743 0.1923318
v 0.2074508 0.06489222 0.2074508
v 2.564807E-08 0.06489222 0.2933797
v -0.2719983 0.09370743 1.188942E-08
v -0.1923318 0.09370743 0.1923318
v -0.2074508 0.06489222 0.2074508
v -0.2933797 0.06489222 1.282403E-08
v 0 0.09370743 -0.2719983
v -0.1923318 0.09370743 -0.1923318
v -0.2074508 0.06489222 -0.2074508
v 0 0.06489222 -0.2933797
v 0.1923318 0.09370743 -0.1923318
v 0 0.09370743 -0.2719983
v 0 0.06489222 -0.2933797
v 0.2074508 0.06489222 -0.2074508
v 0.1923318 0.09370743 0.1923318
v 0.2719983 0.09370743 -3.243547E-09
v 0.2933797 0.06489222 -3.498517E-09
v 0.2074508 0.06489222 0.2074508
v -0.1923318 0.09370743 0.1923318
v 2.377884E-08 0.09370743 0.2719983
v 2.564807E-08 0.06489222 0.2933797
v -0.2074508 0.06489222 0.2074508
v -0.1923318 0.09370743 -0.1923318
v -0.2719983 0.09370743 1.188942E-08
v -0.2933797 0.06489222 1.282403E-08
v -0.2074508 0.06489222 -0.2074508
v 0.2719983 0.09370743 -3.243547E-09
v 0.1923318 0.09370743 -0.1923318
v 0.2074508 0.06489222 -0.2074508
v 0.2933797 0.06489222 -3.498517E-09
v 0.2933797 0.06489222 -3.498517E-09
v 0.2074508 0.06489222 -0.2074508
v 0.1098626 -0.001779356 -0.1098626
v 0.1553692 -0.001779356 -1.852759E-09
v 2.564807E-08 0.06489222 0.2933797
v 0.2074508 0.06489222 0.2074508
v 0.1098626 -0.001779356 0.1098626
v 1.358281E-08 -0.001779356 0.1553692
v -0.2933797 0.06489222 1.282403E-08
v -0.2074508 0.06489222 0.2074508
v -0.1098626 -0.001779356 0.1098626
v -0.1553692 -0.001779356 6.791403E-09
v 0 0.06489222 -0.2933797
v -0.2074508 0.06489222 -0.2074508
v -0.1098626 -0.001779356 -0.1098626
v 0 -0.001779356 -0.1553692
v 0.2074508 0.06489222 -0.2074508
v 0 0.06489222 -0.2933797
v 0 -0.001779356 -0.1553692
v 0.1098626 -0.001779356 -0.1098626
v 0.2074508 0.06489222 0.2074508
v 0.2933797 0.06489222 -3.498517E-09
v 0.1553692 -0.001779356 -1.852759E-09
v 0.1098626 -0.001779356 0.1098626
v -0.2074508 0.06489222 0.2074508
v 2.564807E-08 0.06489222 0.2933797
v 1.358281E-08 -0.001779356 0.1553692
v -0.1098626 -0.001779356 0.1098626
v -0.2074508 0.06489222 -0.2074508
v -0.2933797 0.06489222 1.282403E-08
v -0.1553692 -0.001779356 6.791403E-09
v -0.1098626 -0.001779356 -0.1098626
v -0.1553692 -0.001779356 6.791403E-09
v -0.1098626 -0.001779356 0.1098626
v 1.358281E-08 -0.001779356 0.1553692
v 6.791403E-09 -0.001779356 0
v -0.1098626 -0.001779356 -0.1098626
v 0.1098626 -0.001779356 0.1098626
v 0 -0.001779356 -0.1553692
v 0.1553692 -0.001779356 -1.852759E-09
v 0.1098626 -0.001779356 -0.1098626
v -0.1790832 0.03949998 7.827975E-09
v 1.565595E-08 0.03949998 0.1790832
v -0.1266309 0.03949998 0.1266309
v 7.827975E-09 0.03949998 0
v -0.1266309 0.03949998 -0.1266309
v 0.126631 0.03949998 0.1266309
v 0 0.03949998 -0.1790832
v 0.1790832 0.03949998 -2.135546E-09
v 0.126631 0.03949998 -0.1266309

vn 0 1 0
vn 0 1 0
vn 0 1 0
vn 0 1 0
vn 0 1 0
vn 0 1 0
vn 1.428148E-07 1 0
vn 1.428148E-07 1 0
vn 1.428148E-07 1 0
vn 1.428148E-07 1 0
vn 0 1 0
vn 0 1 0
vn 0 1 0
vn 0 1 0
vn 0 1 0
vn 0 1 0
vn 0 1 0
vn 0 1 0
vn 0 1 0
vn 0 1 0
vn 0 1 0
vn 0 1 0
vn 0 1 0
vn 0 1 0
vn 0 1 0
vn 0 1 0
vn 1.133202E-07 1 0
vn 1.133202E-07 1 0
vn 1.133202E-07 1 0
vn 1.133202E-07 1 0
vn -0.2940292 0.6400477 0.7098491
vn -0.2940292 0.6400477 0.7098491
vn -0.2940292 0.6400477 0.7098491
vn -0.2940292 0.6400477 0.7098491
vn -0.7098491 0.6400477 -0.2940291
vn -0.7098491 0.6400477 -0.2940291
vn -0.7098491 0.6400477 -0.2940291
vn -0.7098491 0.6400477 -0.2940291
vn 0.294029 0.6400477 -0.7098491
vn 0.294029 0.6400477 -0.7098491
vn 0.294029 0.6400477 -0.7098491
vn 0.294029 0.6400477 -0.7098491
vn 0.7098491 0.6400477 0.2940291
vn 0.7098491 0.6400477 0.2940291
vn 0.7098491 0.6400477 0.2940291
vn 0.7098491 0.6400477 0.2940291
vn -0.7098491 0.6400477 0.2940291
vn -0.7098491 0.6400477 0.2940291
vn -0.7098491 0.6400477 0.2940291
vn -0.7098491 0.6400477 0.2940291
vn -0.2940293 0.6400477 -0.7098491
vn -0.2940293 0.6400477 -0.7098491
vn -0.2940293 0.6400477 -0.7098491
vn -0.2940293 0.6400477 -0.7098491
vn 0.7098491 0.6400477 -0.2940291
vn 0.7098491 0.6400477 -0.2940291
vn 0.7098491 0.6400477 -0.2940291
vn 0.7098491 0.6400477 -0.2940291
vn 0.2940291 0.6400477 0.7098492
vn 0.2940291 0.6400477 0.7098492
vn 0.2940291 0.6400477 0.7098492
vn 0.2940291 0.6400477 0.7098492
vn 0.3156365 0.565428 0.7620137
vn 0.3156365 0.565428 0.7620137
vn 0.3156365 0.565428 0.7620137
vn 0.3156365 0.565428 0.7620137
vn -0.7620139 0.5654277 0.3156365
vn -0.7620139 0.5654277 0.3156365
vn -0.7620139 0.5654277 0.3156365
vn -0.7620139 0.5654277 0.3156365
vn -0.3156365 0.5654278 -0.7620138
vn -0.3156365 0.5654278 -0.7620138
vn -0.3156365 0.5654278 -0.7620138
vn -0.3156365 0.5654278 -0.7620138
vn 0.3156363 0.5654284 -0.7620134
vn 0.3156363 0.5654284 -0.7620134
vn 0.3156363 0.5654284 -0.7620134
vn 0.3156363 0.5654284 -0.7620134
vn 0.7620137 0.5654281 0.3156362
vn 0.7620137 0.5654281 0.3156362
vn 0.7620137 0.5654281 0.3156362
vn 0.7620137 0.5654281 0.3156362
vn -0.3156365 0.5654276 0.7620139
vn -0.3156365 0.5654276 0.7620139
vn -0.3156365 0.5654276 0.7620139
vn -0.3156365 0.5654276 0.7620139
vn -0.7620138 0.5654278 -0.3156365
vn -0.7620138 0.5654278 -0.3156365
vn -0.7620138 0.5654278 -0.3156365
vn -0.7620138 0.5654278 -0.3156365
vn 0.7620136 0.5654281 -0.3156362
vn 0.7620136 0.5654281 -0.3156362
vn 0.7620136 0.5654281 -0.3156362
vn 0.7620136 0.5654281 -0.3156362
vn 0.4280979 -0.886165 -0.1773239
vn 0.4280979 -0.886165 -0.1773239
vn 0.4280979 -0.886165 -0.1773239
vn 0.4280979 -0.886165 -0.1773239
vn 0.177324 -0.886165 0.4280979
vn 0.177324 -0.886165 0.4280979
vn 0.177324 -0.886165 0.4280979
vn 0.177324 -0.886165 0.4280979
vn -0.4280979 -0.886165 0.177324
vn -0.4280979 -0.886165 0.177324
vn -0.4280979 -0.886165 0.177324
vn -0.4280979 -0.886165 0.177324
vn -0.177324 -0.886165 -0.428098
vn -0.177324 -0.886165 -0.428098
vn -0.177324 -0.886165 -0.428098
vn -0.177324 -0.886165 -0.428098
vn 0.177324 -0.886165 -0.428098
vn 0.177324 -0.886165 -0.428098
vn 0.177324 -0.886165 -0.428098
vn 0.177324 -0.886165 -0.428098
vn 0.428098 -0.886165 0.1773239
vn 0.428098 -0.886165 0.1773239
vn 0.428098 -0.886165 0.1773239
vn 0.428098 -0.886165 0.1773239
vn -0.177324 -0.886165 0.428098
vn -0.177324 -0.886165 0.428098
vn -0.177324 -0.886165 0.428098
vn -0.177324 -0.886165 0.428098
vn -0.4280979 -0.886165 -0.177324
vn -0.4280979 -0.886165 -0.177324
vn -0.4280979 -0.886165 -0.177324
vn -0.4280979 -0.886165 -0.177324
vn 0 -1 0
vn 0 -1 0
vn 0 -1 0
vn 0 -1 0
vn 0 -1 0
vn 0 -1 0
vn 0 -1 0
vn 0 -1 0
vn 0 -1 0
vn 0 1 0
vn 0 1 0
vn 0 1 0
vn 0 1 0
vn 0 1 0
vn 0 1 0
vn 0 1 0
vn 0 1 0
vn 0 1 0

vt 0.5688141 0.7988748
vt 0.562037 0.8008053
vt 0.5688609 0.8003896
vt 0.5617828 0.7992762
vt 0.5551184 0.8022224
vt 0.5546283 0.8006886
vt 0.5546283 0.8006886
vt 0.5474163 0.8032645
vt 0.5481827 0.8047785
vt 0.5551184 0.8022224
vt 0.5401921 0.8072556
vt 0.5324877 0.8147498
vt 0.5347807 0.8155999
vt 0.5413417 0.8087046
vt 0.5915757 0.8037384
vt 0.5828999 0.8005756
vt 0.5824931 0.8022316
vt 0.5900356 0.8053698
vt 0.5757406 0.7993343
vt 0.5688141 0.7988748
vt 0.5688609 0.8003896
vt 0.5756004 0.8008612
vt 0.5474163 0.8032645
vt 0.5401921 0.8072556
vt 0.5413417 0.8087046
vt 0.5481827 0.8047785
vt 0.5828999 0.8005756
vt 0.5757406 0.7993343
vt 0.5756004 0.8008612
vt 0.5824931 0.8022316
vt 0.5900356 0.8053698
vt 0.5824931 0.8022316
vt 0.5816075 0.8053556
vt 0.5878056 0.8081847
vt 0.5756004 0.8008612
vt 0.5688609 0.8003896
vt 0.5689665 0.8034545
vt 0.5752847 0.8039355
vt 0.562037 0.8008053
vt 0.5551184 0.8022224
vt 0.5561458 0.8052846
vt 0.5625815 0.8038828
vt 0.5481827 0.8047785
vt 0.5413417 0.8087046
vt 0.5437384 0.8114995
vt 0.5497712 0.8077556
vt 0.5824931 0.8022316
vt 0.5756004 0.8008612
vt 0.5752847 0.8039355
vt 0.5816075 0.8053556
vt 0.5688609 0.8003896
vt 0.562037 0.8008053
vt 0.5625815 0.8038828
vt 0.5689665 0.8034545
vt 0.5551184 0.8022224
vt 0.5481827 0.8047785
vt 0.5497712 0.8077556
vt 0.5561458 0.8052846
vt 0.5413417 0.8087046
vt 0.5347807 0.8155999
vt 0.5385541 0.8174556
vt 0.5437384 0.8114995
vt 0.5617828 0.7992762
vt 0.5688141 0.7988748
vt 0.5688367 0.7975876
vt 0.5616338 0.7979635
vt 0.5474163 0.8032645
vt 0.5546283 0.8006886
vt 0.5542802 0.7993569
vt 0.5468357 0.801929
vt 0.5324877 0.8147498
vt 0.5401921 0.8072556
vt 0.5393345 0.8059856
vt 0.5306701 0.8136336
vt 0.5828999 0.8005756
vt 0.5915757 0.8037384
vt 0.5926132 0.8020037
vt 0.583245 0.7991838
vt 0.5688141 0.7988748
vt 0.5757406 0.7993343
vt 0.5759087 0.7980452
vt 0.5688367 0.7975876
vt 0.5546283 0.8006886
vt 0.5617828 0.7992762
vt 0.5616338 0.7979635
vt 0.5542802 0.7993569
vt 0.5401921 0.8072556
vt 0.5474163 0.8032645
vt 0.5468357 0.801929
vt 0.5393345 0.8059856
vt 0.5757406 0.7993343
vt 0.5828999 0.8005756
vt 0.583245 0.7991838
vt 0.5759087 0.7980452
vt 0.5759087 0.7980452
vt 0.583245 0.7991838
vt 0.5839314 0.7922124
vt 0.5765321 0.7903769
vt 0.5616338 0.7979635
vt 0.5688367 0.7975876
vt 0.5685905 0.7892597
vt 0.5601661 0.7892597
vt 0.5468357 0.801929
vt 0.5542802 0.7993569
vt 0.5514645 0.7905535
vt 0.5427127 0.7931946
vt 0.5306701 0.8136336
vt 0.5393345 0.8059856
vt 0.5340694 0.7970282
vt 0.5252017 0.8014194
vt 0.583245 0.7991838
vt 0.5926132 0.8020037
vt 0.5908012 0.7932366
vt 0.5839314 0.7922124
vt 0.5688367 0.7975876
vt 0.5759087 0.7980452
vt 0.5765321 0.7903769
vt 0.5685905 0.7892597
vt 0.5542802 0.7993569
vt 0.5616338 0.7979635
vt 0.5601661 0.7892597
vt 0.5514645 0.7905535
vt 0.5393345 0.8059856
vt 0.5468357 0.801929
vt 0.5427127 0.7931946
vt 0.5340694 0.7970282
vt 0.5418047 0.8276985
vt 0.5459858 0.8318797
vt 0.5518989 0.8318797
vt 0.5489424 0.824742
vt 0.5418047 0.8217854
vt 0.55608 0.8276985
vt 0.5459858 0.8176042
vt 0.55608 0.8217854
vt 0.5518989 0.8176042
vt 0.5252017 0.8292392
vt 0.5300211 0.8176042
vt 0.5252017 0.8224236
vt 0.5334289 0.8258314
vt 0.5300211 0.8340585
vt 0.5368367 0.8176042
vt 0.5368367 0.8340585
vt 0.541656 0.8224236
vt 0.541656 0.8292392

usemtl LOW-POLY-COLORS
usemap LOW-POLY-COLORS
f 2/2/2 1/1/1 3/3/3
f 4/4/4 1/1/1 2/2/2
f 5/5/5 4/4/4 2/2/2
f 6/6/6 4/4/4 5/5/5
f 8/8/8 7/7/7 9/9/9
f 9/9/9 7/7/7 10/10/10
f 12/12/12 11/11/11 13/13/13
f 13/13/13 11/11/11 14/14/14
f 16/16/16 15/15/15 17/17/17
f 17/17/17 15/15/15 18/18/18
f 20/20/20 19/19/19 21/21/21
f 21/21/21 19/19/19 22/22/22
f 24/24/24 23/23/23 25/25/25
f 25/25/25 23/23/23 26/26/26
f 28/28/28 27/27/27 29/29/29
f 29/29/29 27/27/27 30/30/30
f 32/32/32 31/31/31 33/33/33
f 33/33/33 31/31/31 34/34/34
f 36/36/36 35/35/35 37/37/37
f 37/37/37 35/35/35 38/38/38
f 40/40/40 39/39/39 41/41/41
f 41/41/41 39/39/39 42/42/42
f 44/44/44 43/43/43 45/45/45
f 45/45/45 43/43/43 46/46/46
f 48/48/48 47/47/47 49/49/49
f 49/49/49 47/47/47 50/50/50
f 52/52/52 51/51/51 53/53/53
f 53/53/53 51/51/51 54/54/54
f 56/56/56 55/55/55 57/57/57
f 57/57/57 55/55/55 58/58/58
f 60/60/60 59/59/59 61/61/61
f 61/61/61 59/59/59 62/62/62
f 64/64/64 63/63/63 65/65/65
f 65/65/65 63/63/63 66/66/66
f 68/68/68 67/67/67 69/69/69
f 69/69/69 67/67/67 70/70/70
f 72/72/72 71/71/71 73/73/73
f 73/73/73 71/71/71 74/74/74
f 76/76/76 75/75/75 77/77/77
f 77/77/77 75/75/75 78/78/78
f 80/80/80 79/79/79 81/81/81
f 81/81/81 79/79/79 82/82/82
f 84/84/84 83/83/83 85/85/85
f 85/85/85 83/83/83 86/86/86
f 88/88/88 87/87/87 89/89/89
f 89/89/89 87/87/87 90/90/90
f 92/92/92 91/91/91 93/93/93
f 93/93/93 91/91/91 94/94/94
f 96/96/96 95/95/95 97/97/97
f 97/97/97 95/95/95 98/98/98
f 100/100/100 99/99/99 101/101/101
f 101/101/101 99/99/99 102/102/102
f 104/104/104 103/103/103 105/105/105
f 105/105/105 103/103/103 106/106/106
f 108/108/108 107/107/107 109/109/109
f 109/109/109 107/107/107 110/110/110
f 112/112/112 111/111/111 113/113/113
f 113/113/113 111/111/111 114/114/114
f 116/116/116 115/115/115 117/117/117
f 117/117/117 115/115/115 118/118/118
f 120/120/120 119/119/119 121/121/121
f 121/121/121 119/119/119 122/122/122
f 124/124/124 123/123/123 125/125/125
f 125/125/125 123/123/123 126/126/126
f 128/128/128 127/127/127 129/129/129
f 129/129/129 127/127/127 130/130/130
f 127/127/127 131/131/131 130/130/130
f 129/129/129 130/130/130 132/132/132
f 130/130/130 131/131/131 133/133/133
f 132/132/132 130/130/130 134/134/134
f 130/130/130 133/133/133 134/134/134
f 134/134/134 133/133/133 135/135/135
f 137/137/137 136/136/136 138/138/138
f 139/139/139 136/136/136 137/137/137
f 139/139/139 140/140/140 136/136/136
f 141/141/141 139/139/139 137/137/137
f 142/142/142 140/140/140 139/139/139
f 143/143/143 139/139/139 141/141/141
f 143/143/143 142/142/142 139/139/139
f 144/144/144 142/142/142 143/143/143
