mtllib ./potion_red_68.mtl
g potion_red
v -0.04514813 0.4385762 0
v -0.038379 0.4028358 1.862645E-09
v -0.0191895 0.4028358 -0.03323719
v -0.02257406 0.4385762 -0.03909944
v 0.02257406 0.4385762 -0.03909944
v 0.01918949 0.4028358 -0.03323719
v 0.038379 0.4028358 -5.587935E-09
v 0.04514813 0.4385762 -5.587935E-09
v 0.02257407 0.4385762 0.03909944
v 0.0191895 0.4028358 0.03323719
v -0.0191895 0.4028358 0.03323719
v -0.02257406 0.4385762 0.03909944
v -0.02257406 0.4385762 -0.03909944
v -0.0191895 0.4028358 -0.03323719
v 0.01918949 0.4028358 -0.03323719
v 0.02257406 0.4385762 -0.03909944
v 0.04514813 0.4385762 -5.587935E-09
v 0.038379 0.4028358 -5.587935E-09
v 0.0191895 0.4028358 0.03323719
v 0.02257407 0.4385762 0.03909944
v -0.02257406 0.4385762 0.03909944
v -0.0191895 0.4028358 0.03323719
v -0.038379 0.4028358 1.862645E-09
v -0.04514813 0.4385762 0
v 0.01918949 0.4028358 -0.03323719
v 0.0322484 0.4004329 -0.05585589
v 0.06449681 0.4004329 -1.117587E-08
v 0.038379 0.4028358 -5.587935E-09
v 0.0191895 0.4028358 0.03323719
v 0.03224842 0.4004329 0.05585589
v -0.0322484 0.4004329 0.05585589
v -0.0191895 0.4028358 0.03323719
v -0.0191895 0.4028358 -0.03323719
v -0.0322484 0.4004329 -0.05585589
v 0.0322484 0.4004329 -0.05585589
v 0.01918949 0.4028358 -0.03323719
v 0.038379 0.4028358 -5.587935E-09
v 0.06449681 0.4004329 -1.117587E-08
v 0.03224842 0.4004329 0.05585589
v 0.0191895 0.4028358 0.03323719
v -0.0191895 0.4028358 0.03323719
v -0.0322484 0.4004329 0.05585589
v -0.06449681 0.4004329 3.72529E-09
v -0.038379 0.4028358 1.862645E-09
v -0.038379 0.4028358 1.862645E-09
v -0.06449681 0.4004329 3.72529E-09
v -0.0322484 0.4004329 -0.05585589
v -0.0191895 0.4028358 -0.03323719
v 0.06449681 0.4004329 -1.117587E-08
v 0.0626208 0.3735877 -7.450581E-09
v 0.0313104 0.3735877 0.0542312
v 0.03224842 0.4004329 0.05585589
v -0.0322484 0.4004329 0.05585589
v -0.03131039 0.3735877 0.0542312
v -0.0626208 0.3735877 7.450581E-09
v -0.06449681 0.4004329 3.72529E-09
v -0.06449681 0.4004329 3.72529E-09
v -0.0626208 0.3735877 7.450581E-09
v -0.03131039 0.3735877 -0.0542312
v -0.0322484 0.4004329 -0.05585589
v 0.0322484 0.4004329 -0.05585589
v 0.03131039 0.3735877 -0.0542312
v 0.0626208 0.3735877 -7.450581E-09
v 0.06449681 0.4004329 -1.117587E-08
v 0.03224842 0.4004329 0.05585589
v 0.0313104 0.3735877 0.0542312
v -0.03131039 0.3735877 0.0542312
v -0.0322484 0.4004329 0.05585589
v -0.0322484 0.4004329 -0.05585589
v -0.03131039 0.3735877 -0.0542312
v 0.03131039 0.3735877 -0.0542312
v 0.0322484 0.4004329 -0.05585589
v 0.0313104 0.3735877 0.0542312
v 0.03770101 0.3653488 0.04397457
v -0.037701 0.3653488 0.04397457
v -0.03131039 0.3735877 0.0542312
v -0.03131039 0.3735877 -0.0542312
v -0.037701 0.3653488 -0.04397457
v 0.03770099 0.3653488 -0.04397457
v 0.03131039 0.3735877 -0.0542312
v 0.0626208 0.3735877 -7.450581E-09
v 0.05152724 0.3653488 -7.450581E-09
v 0.03770101 0.3653488 0.04397457
v 0.0313104 0.3735877 0.0542312
v -0.03131039 0.3735877 0.0542312
v -0.037701 0.3653488 0.04397457
v -0.05152724 0.3653488 3.72529E-09
v -0.0626208 0.3735877 7.450581E-09
v -0.0626208 0.3735877 7.450581E-09
v -0.05152724 0.3653488 3.72529E-09
v -0.037701 0.3653488 -0.04397457
v -0.03131039 0.3735877 -0.0542312
v 0.03131039 0.3735877 -0.0542312
v 0.03770099 0.3653488 -0.04397457
v 0.05152724 0.3653488 -7.450581E-09
v 0.0626208 0.3735877 -7.450581E-09
v -0.05851558 0.3205665 0.07254072
v -0.05173311 -0.003393947 0.06424584
v -0.07687184 -0.003377536 7.450581E-09
v -0.08679298 0.320583 3.72529E-09
v -0.08679298 0.320583 3.72529E-09
v -0.07687184 -0.003377536 7.450581E-09
v -0.05173312 -0.003393947 -0.06424583
v -0.05851559 0.3205665 -0.07254072
v 0.05851557 0.3205665 -0.07254074
v 0.0517331 -0.003393947 -0.06424584
v 0.07687184 -0.003377536 -1.490116E-08
v 0.08679298 0.320583 -1.490116E-08
v 0.0585156 0.3205665 0.07254072
v 0.05173314 -0.003393947 0.06424584
v -0.05173311 -0.003393947 0.06424584
v -0.05851558 0.3205665 0.07254072
v -0.05851559 0.3205665 -0.07254072
v -0.05173312 -0.003393947 -0.06424583
v 0.0517331 -0.003393947 -0.06424584
v 0.05851557 0.3205665 -0.07254074
v 0.08679298 0.320583 -1.490116E-08
v 0.07687184 -0.003377536 -1.490116E-08
v 0.05173314 -0.003393947 0.06424584
v 0.0585156 0.3205665 0.07254072
v -0.04514813 0.4385762 0
v -0.02257406 0.4385762 -0.03909944
v 0.02257406 0.4385762 -0.03909944
v 0.04514813 0.4385762 -5.587935E-09
v -0.02257406 0.4385762 0.03909944
v 0.02257407 0.4385762 0.03909944
v 0.05152724 0.3653488 -7.450581E-09
v 0.08679298 0.320583 -1.490116E-08
v 0.0585156 0.3205665 0.07254072
v 0.03770101 0.3653488 0.04397457
v -0.037701 0.3653488 -0.04397457
v -0.05851559 0.3205665 -0.07254072
v 0.05851557 0.3205665 -0.07254074
v 0.03770099 0.3653488 -0.04397457
v 0.03770101 0.3653488 0.04397457
v 0.0585156 0.3205665 0.07254072
v -0.05851558 0.3205665 0.07254072
v -0.037701 0.3653488 0.04397457
v 0.03770099 0.3653488 -0.04397457
v 0.05851557 0.3205665 -0.07254074
v 0.08679298 0.320583 -1.490116E-08
v 0.05152724 0.3653488 -7.450581E-09
v -0.05152724 0.3653488 3.72529E-09
v -0.08679298 0.320583 3.72529E-09
v -0.05851559 0.3205665 -0.07254072
v -0.037701 0.3653488 -0.04397457
v -0.037701 0.3653488 0.04397457
v -0.05851558 0.3205665 0.07254072
v -0.08679298 0.320583 3.72529E-09
v -0.05152724 0.3653488 3.72529E-09
v -0.07687184 -0.003377536 7.450581E-09
v 0.07687184 -0.003377536 -1.490116E-08
v 0.0517331 -0.003393947 -0.06424584
v -0.05173312 -0.003393947 -0.06424583
v -0.05173311 -0.003393947 0.06424584
v 0.05173314 -0.003393947 0.06424584
v 0.07687184 -0.003377536 -1.490116E-08
v -0.07687184 -0.003377536 7.450581E-09

vn -0.8546054 -0.1618603 -0.4934073
vn -0.8546054 -0.1618603 -0.4934073
vn -0.8546054 -0.1618603 -0.4934073
vn -0.8546054 -0.1618603 -0.4934073
vn 0.8546056 -0.1618603 -0.4934072
vn 0.8546056 -0.1618603 -0.4934072
vn 0.8546056 -0.1618603 -0.4934072
vn 0.8546056 -0.1618603 -0.4934072
vn 0 -0.1618602 0.9868137
vn 0 -0.1618602 0.9868137
vn 0 -0.1618602 0.9868137
vn 0 -0.1618602 0.9868137
vn 0 -0.1618603 -0.9868137
vn 0 -0.1618603 -0.9868137
vn 0 -0.1618603 -0.9868137
vn 0 -0.1618603 -0.9868137
vn 0.8546062 -0.16186 0.4934061
vn 0.8546062 -0.16186 0.4934061
vn 0.8546062 -0.16186 0.4934061
vn 0.8546062 -0.16186 0.4934061
vn -0.8546058 -0.1618601 0.4934068
vn -0.8546058 -0.1618601 0.4934068
vn -0.8546058 -0.1618601 0.4934068
vn -0.8546058 -0.1618601 0.4934068
vn 0.09148889 0.9944042 -0.0528217
vn 0.09148889 0.9944042 -0.0528217
vn 0.09148889 0.9944042 -0.0528217
vn 0.09148889 0.9944042 -0.0528217
vn -4.78977E-07 0.9944041 0.1056433
vn -4.78977E-07 0.9944041 0.1056433
vn -4.78977E-07 0.9944041 0.1056433
vn -4.78977E-07 0.9944041 0.1056433
vn 3.170211E-07 0.9944041 -0.1056433
vn 3.170211E-07 0.9944041 -0.1056433
vn 3.170211E-07 0.9944041 -0.1056433
vn 3.170211E-07 0.9944041 -0.1056433
vn 0.09149045 0.994404 0.05282165
vn 0.09149045 0.994404 0.05282165
vn 0.09149045 0.994404 0.05282165
vn 0.09149045 0.994404 0.05282165
vn -0.09149045 0.994404 0.05282166
vn -0.09149045 0.994404 0.05282166
vn -0.09149045 0.994404 0.05282166
vn -0.09149045 0.994404 0.05282166
vn -0.09149045 0.994404 -0.05282166
vn -0.09149045 0.994404 -0.05282166
vn -0.09149045 0.994404 -0.05282166
vn -0.09149045 0.994404 -0.05282166
vn 0.8644436 -0.06041006 0.499087
vn 0.8644436 -0.06041006 0.499087
vn 0.8644436 -0.06041006 0.499087
vn 0.8644436 -0.06041006 0.499087
vn -0.8644436 -0.06041003 0.4990872
vn -0.8644436 -0.06041003 0.4990872
vn -0.8644436 -0.06041003 0.4990872
vn -0.8644436 -0.06041003 0.4990872
vn -0.8644438 -0.06041003 -0.4990866
vn -0.8644438 -0.06041003 -0.4990866
vn -0.8644438 -0.06041003 -0.4990866
vn -0.8644438 -0.06041003 -0.4990866
vn 0.8644438 -0.06040996 -0.4990867
vn 0.8644438 -0.06040996 -0.4990867
vn 0.8644438 -0.06040996 -0.4990867
vn 0.8644438 -0.06040996 -0.4990867
vn 0 -0.06041028 0.9981736
vn 0 -0.06041028 0.9981736
vn 0 -0.06041028 0.9981736
vn 0 -0.06041028 0.9981736
vn 0 -0.06041003 -0.9981737
vn 0 -0.06041003 -0.9981737
vn 0 -0.06041003 -0.9981737
vn 0 -0.06041003 -0.9981737
vn 0 -0.7796221 0.6262501
vn 0 -0.7796221 0.6262501
vn 0 -0.7796221 0.6262501
vn 0 -0.7796221 0.6262501
vn 0 -0.7796224 -0.62625
vn 0 -0.7796224 -0.62625
vn 0 -0.7796224 -0.62625
vn 0 -0.7796224 -0.62625
vn 0.8063852 -0.4608476 0.3706244
vn 0.8063852 -0.4608476 0.3706244
vn 0.8063852 -0.4608476 0.3706244
vn 0.8063852 -0.4608476 0.3706244
vn -0.8063849 -0.460848 0.3706244
vn -0.8063849 -0.460848 0.3706244
vn -0.8063849 -0.460848 0.3706244
vn -0.8063849 -0.460848 0.3706244
vn -0.8063851 -0.4608478 -0.3706245
vn -0.8063851 -0.4608478 -0.3706245
vn -0.8063851 -0.4608478 -0.3706245
vn -0.8063851 -0.4608478 -0.3706245
vn 0.806385 -0.4608478 -0.3706245
vn 0.806385 -0.4608478 -0.3706245
vn 0.806385 -0.4608478 -0.3706245
vn 0.806385 -0.4608478 -0.3706245
vn -0.9311143 -0.02865933 0.3635998
vn -0.9311143 -0.02865933 0.3635998
vn -0.9311143 -0.02865933 0.3635998
vn -0.9311143 -0.02865933 0.3635998
vn -0.9311143 -0.02865933 -0.3635998
vn -0.9311143 -0.02865933 -0.3635998
vn -0.9311143 -0.02865933 -0.3635998
vn -0.9311143 -0.02865933 -0.3635998
vn 0.9311142 -0.02865933 -0.3635999
vn 0.9311142 -0.02865933 -0.3635999
vn 0.9311142 -0.02865933 -0.3635999
vn 0.9311142 -0.02865933 -0.3635999
vn 0 -0.02559622 0.9996723
vn 0 -0.02559622 0.9996723
vn 0 -0.02559622 0.9996723
vn 0 -0.02559622 0.9996723
vn -1.017177E-07 -0.02559627 -0.9996723
vn -1.017177E-07 -0.02559627 -0.9996723
vn -1.017177E-07 -0.02559627 -0.9996723
vn -1.017177E-07 -0.02559627 -0.9996723
vn 0.9311144 -0.02865932 0.3635994
vn 0.9311144 -0.02865932 0.3635994
vn 0.9311144 -0.02865932 0.3635994
vn 0.9311144 -0.02865932 0.3635994
vn 7.034425E-07 1 0
vn 7.034425E-07 1 0
vn 7.034425E-07 1 0
vn 7.034425E-07 1 0
vn -4.813455E-07 1 0
vn -4.813455E-07 1 0
vn 0.7713844 0.5720333 0.2788261
vn 0.7713844 0.5720333 0.2788261
vn 0.7713844 0.5720333 0.2788261
vn 0.7713844 0.5720333 0.2788261
vn 0 0.537791 -0.8430781
vn 0 0.537791 -0.8430781
vn 0 0.537791 -0.8430781
vn 0 0.537791 -0.8430781
vn 0 0.5377909 0.8430782
vn 0 0.5377909 0.8430782
vn 0 0.5377909 0.8430782
vn 0 0.5377909 0.8430782
vn 0.7713845 0.572033 -0.2788262
vn 0.7713845 0.572033 -0.2788262
vn 0.7713845 0.572033 -0.2788262
vn 0.7713845 0.572033 -0.2788262
vn -0.7713844 0.5720332 -0.2788262
vn -0.7713844 0.5720332 -0.2788262
vn -0.7713844 0.5720332 -0.2788262
vn -0.7713844 0.5720332 -0.2788262
vn -0.7713846 0.572033 0.2788261
vn -0.7713846 0.572033 0.2788261
vn -0.7713846 0.572033 0.2788261
vn -0.7713846 0.572033 0.2788261
vn 0 -1 0.0002554526
vn 0 -1 0.0002554526
vn 0 -1 0.0002554526
vn 0 -1 0.0002554526
vn 0 -1 -0.0002554526
vn 0 -1 -0.0002554526
vn 0 -1 -0.0002554526
vn 0 -1 -0.0002554526

vt 0.2948187 0.822911
vt 0.2977381 0.8074911
vt 0.3060118 0.8074911
vt 0.304558 0.822911
vt 0.3240307 0.822911
vt 0.3225769 0.8074911
vt 0.3308506 0.8074911
vt 0.3337759 0.822911
vt 0.3240307 0.822911
vt 0.3225769 0.8074911
vt 0.3060118 0.8074911
vt 0.304558 0.822911
vt 0.304558 0.822911
vt 0.3060118 0.8074911
vt 0.3225769 0.8074911
vt 0.3240307 0.822911
vt 0.3337759 0.822911
vt 0.3308506 0.8074911
vt 0.3225769 0.8074911
vt 0.3240307 0.822911
vt 0.304558 0.822911
vt 0.3060118 0.8074911
vt 0.2977381 0.8074911
vt 0.2948187 0.822911
vt 0.8037025 0.6887703
vt 0.8068322 0.6881937
vt 0.8145725 0.6881937
vt 0.8083034 0.6887703
vt 0.8037025 0.6887703
vt 0.8068322 0.6881937
vt 0.7913594 0.6881937
vt 0.7944891 0.6887703
vt 0.7944891 0.6887703
vt 0.7913594 0.6881937
vt 0.8068322 0.6881937
vt 0.8037025 0.6887703
vt 0.8083034 0.6887703
vt 0.8145725 0.6881937
vt 0.8068322 0.6881937
vt 0.8037025 0.6887703
vt 0.7944891 0.6887703
vt 0.7913594 0.6881937
vt 0.7836192 0.6881937
vt 0.7898883 0.6887703
vt 0.7898883 0.6887703
vt 0.7836192 0.6881937
vt 0.7913594 0.6881937
vt 0.7944891 0.6887703
vt 0.8145725 0.6881937
vt 0.8141209 0.6817523
vt 0.8066093 0.6817523
vt 0.8068322 0.6881937
vt 0.7913594 0.6881937
vt 0.7915823 0.6817523
vt 0.7840688 0.6817523
vt 0.7836192 0.6881937
vt 0.7836192 0.6881937
vt 0.7840688 0.6817523
vt 0.7915823 0.6817523
vt 0.7913594 0.6881937
vt 0.8068322 0.6881937
vt 0.8066093 0.6817523
vt 0.8141209 0.6817523
vt 0.8145725 0.6881937
vt 0.8068322 0.6881937
vt 0.8066093 0.6817523
vt 0.7915823 0.6817523
vt 0.7913594 0.6881937
vt 0.7913594 0.6881937
vt 0.7915823 0.6817523
vt 0.8066093 0.6817523
vt 0.8068322 0.6881937
vt 0.8066093 0.6817523
vt 0.804162 0.6797754
vt 0.7940276 0.6797754
vt 0.7915823 0.6817523
vt 0.7915823 0.6817523
vt 0.7940276 0.6797754
vt 0.804162 0.6797754
vt 0.8066093 0.6817523
vt 0.8141209 0.6817523
vt 0.8092302 0.6797754
vt 0.804162 0.6797754
vt 0.8066093 0.6817523
vt 0.7915823 0.6817523
vt 0.7940276 0.6797754
vt 0.7889614 0.6797754
vt 0.7840688 0.6817523
vt 0.7840688 0.6817523
vt 0.7889614 0.6797754
vt 0.7940276 0.6797754
vt 0.7915823 0.6817523
vt 0.8066093 0.6817523
vt 0.804162 0.6797754
vt 0.8092302 0.6797754
vt 0.8141209 0.6817523
vt 0.1835006 0.5976916
vt 0.1852687 0.5134928
vt 0.1787317 0.5134971
vt 0.1761553 0.5976958
vt 0.1761553 0.5976958
vt 0.1787317 0.5134971
vt 0.1852687 0.5134928
vt 0.1835006 0.5976915
vt 0.2139194 0.5976915
vt 0.212155 0.5134928
vt 0.218692 0.5134971
vt 0.2212684 0.5976958
vt 0.2139194 0.5976916
vt 0.212155 0.5134928
vt 0.1852687 0.5134928
vt 0.1835006 0.5976916
vt 0.1835006 0.5976915
vt 0.1852687 0.5134928
vt 0.212155 0.5134928
vt 0.2139194 0.5976915
vt 0.2212684 0.5976958
vt 0.218692 0.5134971
vt 0.212155 0.5134928
vt 0.2139194 0.5976916
vt 0.2948187 0.822911
vt 0.304558 0.822911
vt 0.3240307 0.822911
vt 0.3337759 0.822911
vt 0.304558 0.822911
vt 0.3240307 0.822911
vt 0.8092302 0.6797754
vt 0.8092302 0.6752799
vt 0.804162 0.6752799
vt 0.804162 0.6797754
vt 0.7940276 0.6797754
vt 0.7940276 0.6752799
vt 0.804162 0.6752799
vt 0.804162 0.6797754
vt 0.804162 0.6797754
vt 0.804162 0.6752799
vt 0.7940276 0.6752799
vt 0.7940276 0.6797754
vt 0.804162 0.6797754
vt 0.804162 0.6752799
vt 0.8092302 0.6752799
vt 0.8092302 0.6797754
vt 0.7889614 0.6797754
vt 0.7889614 0.6752799
vt 0.7940276 0.6752799
vt 0.7940276 0.6797754
vt 0.7940276 0.6797754
vt 0.7940276 0.6752799
vt 0.7889614 0.6752799
vt 0.7889614 0.6797754
vt 0.1787317 0.5134971
vt 0.218692 0.5134971
vt 0.212155 0.5134928
vt 0.1852687 0.5134928
vt 0.1852687 0.5134928
vt 0.212155 0.5134928
vt 0.218692 0.5134971
vt 0.1787317 0.5134971

usemtl LOW-POLY-COLORS
usemap LOW-POLY-COLORS
f 2/2/2 1/1/1 3/3/3
f 3/3/3 1/1/1 4/4/4
f 6/6/6 5/5/5 7/7/7
f 7/7/7 5/5/5 8/8/8
f 10/10/10 9/9/9 11/11/11
f 11/11/11 9/9/9 12/12/12
f 14/14/14 13/13/13 15/15/15
f 15/15/15 13/13/13 16/16/16
f 18/18/18 17/17/17 19/19/19
f 19/19/19 17/17/17 20/20/20
f 22/22/22 21/21/21 23/23/23
f 23/23/23 21/21/21 24/24/24
f 26/26/26 25/25/25 27/27/27
f 27/27/27 25/25/25 28/28/28
f 30/30/30 29/29/29 31/31/31
f 31/31/31 29/29/29 32/32/32
f 34/34/34 33/33/33 35/35/35
f 35/35/35 33/33/33 36/36/36
f 38/38/38 37/37/37 39/39/39
f 39/39/39 37/37/37 40/40/40
f 42/42/42 41/41/41 43/43/43
f 43/43/43 41/41/41 44/44/44
f 46/46/46 45/45/45 47/47/47
f 47/47/47 45/45/45 48/48/48
f 50/50/50 49/49/49 51/51/51
f 51/51/51 49/49/49 52/52/52
f 54/54/54 53/53/53 55/55/55
f 55/55/55 53/53/53 56/56/56
f 58/58/58 57/57/57 59/59/59
f 59/59/59 57/57/57 60/60/60
f 62/62/62 61/61/61 63/63/63
f 63/63/63 61/61/61 64/64/64
f 66/66/66 65/65/65 67/67/67
f 67/67/67 65/65/65 68/68/68
f 70/70/70 69/69/69 71/71/71
f 71/71/71 69/69/69 72/72/72
f 74/74/74 73/73/73 75/75/75
f 75/75/75 73/73/73 76/76/76
f 78/78/78 77/77/77 79/79/79
f 79/79/79 77/77/77 80/80/80
f 82/82/82 81/81/81 83/83/83
f 83/83/83 81/81/81 84/84/84
f 86/86/86 85/85/85 87/87/87
f 87/87/87 85/85/85 88/88/88
f 90/90/90 89/89/89 91/91/91
f 91/91/91 89/89/89 92/92/92
f 94/94/94 93/93/93 95/95/95
f 95/95/95 93/93/93 96/96/96
f 98/98/98 97/97/97 99/99/99
f 99/99/99 97/97/97 100/100/100
f 102/102/102 101/101/101 103/103/103
f 103/103/103 101/101/101 104/104/104
f 106/106/106 105/105/105 107/107/107
f 107/107/107 105/105/105 108/108/108
f 110/110/110 109/109/109 111/111/111
f 111/111/111 109/109/109 112/112/112
f 114/114/114 113/113/113 115/115/115
f 115/115/115 113/113/113 116/116/116
f 118/118/118 117/117/117 119/119/119
f 119/119/119 117/117/117 120/120/120
f 122/122/122 121/121/121 123/123/123
f 123/123/123 121/121/121 124/124/124
f 121/121/121 125/125/125 124/124/124
f 124/124/124 125/125/125 126/126/126
f 128/128/128 127/127/127 129/129/129
f 129/129/129 127/127/127 130/130/130
f 132/132/132 131/131/131 133/133/133
f 133/133/133 131/131/131 134/134/134
f 136/136/136 135/135/135 137/137/137
f 137/137/137 135/135/135 138/138/138
f 140/140/140 139/139/139 141/141/141
f 141/141/141 139/139/139 142/142/142
f 144/144/144 143/143/143 145/145/145
f 145/145/145 143/143/143 146/146/146
f 148/148/148 147/147/147 149/149/149
f 149/149/149 147/147/147 150/150/150
f 152/152/152 151/151/151 153/153/153
f 153/153/153 151/151/151 154/154/154
f 156/156/156 155/155/155 157/157/157
f 157/157/157 155/155/155 158/158/158
