mtllib ./bench-forest_22.mtl
g bench-forest
v 1.007523 -2.919546E-09 -0.289624
v 1.030187 -3.227332E-09 -0.259116
v 1.016098 0.09723835 -0.289624
v 1.464079 0.3275183 -0.00570775
v 1.270832 0.4012683 -0.001928387
v 1.46149 0.3954256 -0.02451521
v 1.464079 0.3275183 -0.00570775
v 1.460902 0.3947167 -0.001138853
v 1.270832 0.4012683 -0.001928387
v 1.016098 0.09723835 -0.289624
v 1.030187 -3.227332E-09 -0.259116
v 1.0616 -4.474487E-09 -0.289624
v -1.007523 -2.919546E-09 0.289624
v -1.030187 -3.227332E-09 0.259116
v -1.016098 0.09723837 0.289624
v -1.464079 0.3275183 -0.005707494
v -1.461491 0.3954246 -0.02451562
v -1.270835 0.4012679 -0.001928162
v -1.464079 0.3275183 -0.005707494
v -1.270835 0.4012679 -0.001928162
v -1.460904 0.3947156 -0.001137762
v -1.016098 0.09723837 0.289624
v -1.030187 -3.227332E-09 0.259116
v -1.0616 -4.474487E-09 0.289624
v 0.74591 6.905554E-09 0.2896239
v 1.146145 -4.603067E-09 0.2896239
v 1.030187 -3.227332E-09 -0.259116
v -0.74591 6.905554E-09 -0.2896239
v -1.146145 -4.603067E-09 -0.2896239
v -1.030187 -3.227332E-09 0.259116
v -0.7103657 0.3781309 -0.2211456
v -0.7103657 0.3781308 0.2211457
v -1.270835 0.4012679 -0.001928162
v 0.6919978 0.3775401 -0.2211541
v 1.270832 0.4012683 -0.001928387
v 0.6919978 0.37754 0.2211539
v 1.134863 0.08753104 -0.289624
v 1.016098 0.09723835 -0.289624
v 1.0616 -4.474487E-09 -0.289624
v 1.146145 -6.905554E-09 -0.289624
v 0.7571914 0.08753103 -0.289624
v 0.8094974 0.1750621 -0.289624
v 0.8094974 0.1750621 0.2896239
v 0.7571914 0.08753104 0.2896239
v 0.8094974 0.1750621 -0.289624
v 0.9460273 0.2316147 -0.289624
v 0.9460273 0.2316147 0.2896239
v 0.8094974 0.1750621 0.2896239
v 1.134863 0.08753104 -0.289624
v 1.146145 -6.905554E-09 -0.289624
v 1.146145 -4.603067E-09 0.2896239
v 1.134863 0.08753104 0.2896239
v 1.146145 -6.905554E-09 -0.289624
v 1.0616 -4.474487E-09 -0.289624
v 1.030187 -3.227332E-09 -0.259116
v 1.146145 -4.603067E-09 0.2896239
v 1.134863 0.08753104 0.2896239
v 1.146145 -4.603067E-09 0.2896239
v 0.74591 6.905554E-09 0.2896239
v 1.082558 0.1750621 0.2896239
v 0.9460273 0.2316147 0.2896239
v 0.8094974 0.1750621 0.2896239
v 0.7571914 0.08753104 0.2896239
v 1.461635 0.2363792 -0.1463649
v 1.461661 0.1758948 -2.301078E-07
v 1.461635 0.2363792 0.1463646
v 1.460441 0.3914715 -0.2057025
v 1.464079 0.3275183 -0.00570775
v 1.46149 0.3954256 -0.02451521
v 1.460441 0.3914714 0.2057021
v 1.460902 0.3947167 -0.001138853
v 0.6919978 0.37754 0.2211539
v 0.7255543 0.2221119 0.148993
v 4.783079E-06 0.2114543 0.1486981
v 6.988726E-06 0.3709122 0.233557
v -0.7103657 0.3781308 0.2211457
v -0.7404898 0.2218812 0.1490021
v 0.7255543 0.2221119 -0.1489933
v 0.6919978 0.3775401 -0.2211541
v 6.947941E-06 0.3709122 -0.233557
v 4.757068E-06 0.2114543 -0.1486982
v -0.7404898 0.2218812 -0.1490021
v -0.7103657 0.3781309 -0.2211456
v 0.9460273 0.2316147 -0.289624
v 1.082558 0.1750621 -0.289624
v 1.082558 0.1750621 0.2896239
v 0.9460273 0.2316147 0.2896239
v 0.6919978 0.3775401 -0.2211541
v 0.6919978 0.37754 0.2211539
v 6.988726E-06 0.3709122 0.233557
v 6.947941E-06 0.3709122 -0.233557
v -0.7103657 0.3781309 -0.2211456
v -0.7103657 0.3781308 0.2211457
v 1.082558 0.1750621 -0.289624
v 1.134863 0.08753104 -0.289624
v 1.134863 0.08753104 0.2896239
v 1.082558 0.1750621 0.2896239
v 0.74591 4.603067E-09 -0.289624
v 0.7571914 0.08753103 -0.289624
v 0.7571914 0.08753104 0.2896239
v 0.74591 6.905554E-09 0.2896239
v 1.016098 0.09723835 -0.289624
v 0.7571914 0.08753103 -0.289624
v 0.74591 4.603067E-09 -0.289624
v 1.007523 -2.919546E-09 -0.289624
v 1.082558 0.1750621 -0.289624
v 1.134863 0.08753104 -0.289624
v 0.9460273 0.2316147 -0.289624
v 0.7571914 0.08753103 -0.289624
v 0.8094974 0.1750621 -0.289624
v 1.461661 0.1758948 -2.301078E-07
v 1.461635 0.2363792 -0.1463649
v 0.7255543 0.2221119 -0.1489933
v 0.739333 0.1623872 -1.439459E-07
v 4.757068E-06 0.2114543 -0.1486982
v 7.723003E-06 0.1502921 -5.608335E-08
v -0.7528468 0.1618102 -1.360805E-08
v -0.7404898 0.2218812 -0.1490021
v -1.461669 0.1759018 2.60375E-08
v -1.461639 0.2363926 -0.146374
v 1.270832 0.4012683 -0.001928387
v 1.460902 0.3947167 -0.001138853
v 1.460441 0.3914714 0.2057021
v 0.6919978 0.37754 0.2211539
v 1.461635 0.2363792 -0.1463649
v 1.460441 0.3914715 -0.2057025
v 0.6919978 0.3775401 -0.2211541
v 0.7255543 0.2221119 -0.1489933
v 1.461635 0.2363792 0.1463646
v 1.461661 0.1758948 -2.301078E-07
v 0.739333 0.1623872 -1.439459E-07
v 0.7255543 0.2221119 0.148993
v 7.723003E-06 0.1502921 -5.608335E-08
v 4.783079E-06 0.2114543 0.1486981
v -0.7404898 0.2218812 0.1490021
v -0.7528468 0.1618102 -1.360805E-08
v -1.461639 0.2363926 0.1463741
v -1.461669 0.1759018 2.60375E-08
v 1.460441 0.3914714 0.2057021
v 1.461635 0.2363792 0.1463646
v 0.7255543 0.2221119 0.148993
v 0.6919978 0.37754 0.2211539
v -1.134863 0.08753105 0.289624
v -1.016098 0.09723837 0.289624
v -1.0616 -4.474487E-09 0.289624
v -1.146145 -6.905554E-09 0.289624
v -0.7571914 0.08753104 0.289624
v -0.8094974 0.1750621 0.2896241
v -0.8094974 0.1750621 -0.2896238
v -0.7571914 0.08753104 -0.2896239
v -0.8094974 0.1750621 0.2896241
v -0.9460273 0.2316147 0.2896241
v -0.9460273 0.2316147 -0.2896238
v -0.8094974 0.1750621 -0.2896238
v -1.134863 0.08753105 0.289624
v -1.146145 -6.905554E-09 0.289624
v -1.146145 -4.603067E-09 -0.2896239
v -1.134863 0.08753104 -0.2896239
v 1.007523 -2.919546E-09 -0.289624
v 0.74591 4.603067E-09 -0.289624
v 0.74591 6.905554E-09 0.2896239
v 1.030187 -3.227332E-09 -0.259116
v -1.146145 -4.603067E-09 -0.2896239
v -0.74591 6.905554E-09 -0.2896239
v -0.7571914 0.08753104 -0.2896239
v -0.8094974 0.1750621 -0.2896238
v -0.9460273 0.2316147 -0.2896238
v -1.082558 0.1750621 -0.2896238
v -1.134863 0.08753104 -0.2896239
v -1.461639 0.2363926 0.1463741
v -1.461669 0.1759018 2.60375E-08
v -1.461639 0.2363926 -0.146374
v -1.460439 0.3914785 0.2056997
v -1.464079 0.3275183 -0.005707494
v -1.460904 0.3947156 -0.001137762
v -1.460439 0.3914786 -0.2056996
v -1.461491 0.3954246 -0.02451562
v -0.9460273 0.2316147 0.2896241
v -1.082558 0.1750621 0.2896241
v -1.082558 0.1750621 -0.2896238
v -0.9460273 0.2316147 -0.2896238
v -1.082558 0.1750621 0.2896241
v -1.134863 0.08753105 0.289624
v -1.134863 0.08753104 -0.2896239
v -1.082558 0.1750621 -0.2896238
v -0.74591 4.603067E-09 0.289624
v -0.7571914 0.08753104 0.289624
v -0.7571914 0.08753104 -0.2896239
v -0.74591 6.905554E-09 -0.2896239
v -1.016098 0.09723837 0.289624
v -0.7571914 0.08753104 0.289624
v -0.74591 4.603067E-09 0.289624
v -1.007523 -2.919546E-09 0.289624
v -1.082558 0.1750621 0.2896241
v -1.134863 0.08753105 0.289624
v -0.9460273 0.2316147 0.2896241
v -0.7571914 0.08753104 0.289624
v -0.8094974 0.1750621 0.2896241
v -0.7103657 0.3781308 0.2211457
v -1.460439 0.3914785 0.2056997
v -1.460904 0.3947156 -0.001137762
v -1.270835 0.4012679 -0.001928162
v -1.461639 0.2363926 -0.146374
v -0.7404898 0.2218812 -0.1490021
v -0.7103657 0.3781309 -0.2211456
v -1.460439 0.3914786 -0.2056996
v -1.460439 0.3914785 0.2056997
v -0.7103657 0.3781308 0.2211457
v -0.7404898 0.2218812 0.1490021
v -1.461639 0.2363926 0.1463741
v -1.146145 -6.905554E-09 0.289624
v -1.0616 -4.474487E-09 0.289624
v -1.030187 -3.227332E-09 0.259116
v -1.146145 -4.603067E-09 -0.2896239
v -1.007523 -2.919546E-09 0.289624
v -0.74591 4.603067E-09 0.289624
v -0.74591 6.905554E-09 -0.2896239
v -1.030187 -3.227332E-09 0.259116
v -1.460439 0.3914786 -0.2056996
v -0.7103657 0.3781309 -0.2211456
v -1.270835 0.4012679 -0.001928162
v -1.461491 0.3954246 -0.02451562
v 1.460441 0.3914715 -0.2057025
v 1.46149 0.3954256 -0.02451521
v 1.270832 0.4012683 -0.001928387
v 0.6919978 0.3775401 -0.2211541

vn 0.800741 -0.07061042 -0.5948344
vn 0.800741 -0.07061042 -0.5948344
vn 0.800741 -0.07061042 -0.5948344
vn 0.1214336 0.2692319 0.955389
vn 0.1214336 0.2692319 0.955389
vn 0.1214336 0.2692319 0.955389
vn 0.006492887 0.06813872 -0.9976547
vn 0.006492887 0.06813872 -0.9976547
vn 0.006492887 0.06813872 -0.9976547
vn -0.6623842 -0.3099547 -0.6820375
vn -0.6623842 -0.3099547 -0.6820375
vn -0.6623842 -0.3099547 -0.6820375
vn -0.800741 -0.07061041 0.5948343
vn -0.800741 -0.07061041 0.5948343
vn -0.800741 -0.07061041 0.5948343
vn -0.121438 0.2692418 0.9553856
vn -0.121438 0.2692418 0.9553856
vn -0.121438 0.2692418 0.9553856
vn -0.00649813 0.06815206 -0.9976538
vn -0.00649813 0.06815206 -0.9976538
vn -0.00649813 0.06815206 -0.9976538
vn 0.6623843 -0.3099547 0.6820375
vn 0.6623843 -0.3099547 0.6820375
vn 0.6623843 -0.3099547 0.6820375
vn 0 -1 0
vn 0 -1 0
vn 0 -1 0
vn 0 -1 0
vn 0 -1 0
vn 0 -1 0
vn 0.04124639 0.999149 2.102125E-07
vn 0.04124639 0.999149 2.102125E-07
vn 0.04124639 0.999149 2.102125E-07
vn -0.04095897 0.9991608 1.308456E-07
vn -0.04095897 0.9991608 1.308456E-07
vn -0.04095897 0.9991608 1.308456E-07
vn 0 1.006444E-07 -1
vn 0 1.006444E-07 -1
vn 0 1.006444E-07 -1
vn 0 1.006444E-07 -1
vn -0.8584112 0.5129622 0
vn -0.8584112 0.5129622 0
vn -0.8584112 0.5129622 0
vn -0.8584112 0.5129622 0
vn -0.3826839 0.9238793 0
vn -0.3826839 0.9238793 0
vn -0.3826839 0.9238793 0
vn -0.3826839 0.9238793 0
vn 0.9917966 0.1278256 0
vn 0.9917966 0.1278256 0
vn 0.9917966 0.1278256 0
vn 0.9917966 0.1278256 0
vn 0 -1 0
vn 0 -1 0
vn 0 -1 0
vn 0 -1 0
vn 0 0 1
vn 0 0 1
vn 0 0 1
vn 0 0 1
vn 0 0 1
vn 0 0 1
vn 0 0 1
vn 0.9999936 0.003591391 -0.000316239
vn 0.9999936 0.003591391 -0.000316239
vn 0.9999936 0.003591391 -0.000316239
vn 0.9999936 0.003591391 -0.000316239
vn 0.9999936 0.003591391 -0.000316239
vn 0.9999936 0.003591391 -0.000316239
vn 0.9999936 0.003591391 -0.000316239
vn 0.9999936 0.003591391 -0.000316239
vn 0.01307558 -0.4450968 0.8953871
vn 0.01307558 -0.4450968 0.8953871
vn 0.01307558 -0.4450968 0.8953871
vn 0.01307558 -0.4450968 0.8953871
vn -0.01287849 -0.4442586 0.895806
vn -0.01287849 -0.4442586 0.895806
vn 0.01307539 -0.4450964 -0.8953871
vn 0.01307539 -0.4450964 -0.8953871
vn 0.01307539 -0.4450964 -0.8953871
vn 0.01307539 -0.4450964 -0.8953871
vn -0.01287861 -0.4442582 -0.8958062
vn -0.01287861 -0.4442582 -0.8958062
vn 0.3826831 0.9238796 0
vn 0.3826831 0.9238796 0
vn 0.3826831 0.9238796 0
vn 0.3826831 0.9238796 0
vn -0.009577484 0.9999541 1.309657E-07
vn -0.009577484 0.9999541 1.309657E-07
vn -0.009577484 0.9999541 1.309657E-07
vn -0.009577484 0.9999541 1.309657E-07
vn 0.0101613 0.9999484 1.643396E-07
vn 0.0101613 0.9999484 1.643396E-07
vn 0.8584117 0.5129613 0
vn 0.8584117 0.5129613 0
vn 0.8584117 0.5129613 0
vn 0.8584117 0.5129613 0
vn -0.9917965 0.1278269 0
vn -0.9917965 0.1278269 0
vn -0.9917965 0.1278269 0
vn -0.9917965 0.1278269 0
vn -1.147398E-07 0 -1
vn -1.147398E-07 0 -1
vn -1.147398E-07 0 -1
vn -1.147398E-07 0 -1
vn 0 -3.069665E-07 -1
vn 0 -3.069665E-07 -1
vn 0 -3.069665E-07 -1
vn 0 0 -1
vn 0 0 -1
vn 0.01831152 -0.9257715 -0.3776398
vn 0.01831152 -0.9257715 -0.3776398
vn 0.01430998 -0.926195 -0.3767731
vn 0.01430998 -0.926195 -0.3767731
vn 0.01430998 -0.926195 -0.3767731
vn 0.01430998 -0.926195 -0.3767731
vn -0.01352895 -0.9258679 -0.3776049
vn -0.01352895 -0.9258679 -0.3776049
vn -0.01920588 -0.9253947 -0.3785177
vn -0.01920588 -0.9253947 -0.3785177
vn -0.006871173 0.99855 0.05339096
vn -0.006871173 0.99855 0.05339096
vn -0.006871173 0.99855 0.05339096
vn -0.006871173 0.99855 0.05339096
vn 0.01834759 -0.3881452 -0.9214156
vn 0.01834759 -0.3881452 -0.9214156
vn 0.01834759 -0.3881452 -0.9214156
vn 0.01834759 -0.3881452 -0.9214156
vn 0.01831157 -0.9257716 0.3776397
vn 0.01831157 -0.9257716 0.3776397
vn 0.01431007 -0.9261951 0.3767731
vn 0.01431007 -0.9261951 0.3767731
vn 0.01431007 -0.9261951 0.3767731
vn 0.01431007 -0.9261951 0.3767731
vn -0.01352893 -0.9258679 0.3776048
vn -0.01352893 -0.9258679 0.3776048
vn -0.01920583 -0.9253948 0.3785177
vn -0.01920583 -0.9253948 0.3785177
vn 0.0183478 -0.3881458 0.9214154
vn 0.0183478 -0.3881458 0.9214154
vn 0.0183478 -0.3881458 0.9214154
vn 0.0183478 -0.3881458 0.9214154
vn 0 1.006445E-07 1
vn 0 1.006445E-07 1
vn 0 1.006445E-07 1
vn 0 1.006445E-07 1
vn 0.8584112 0.5129622 0
vn 0.8584112 0.5129622 0
vn 0.8584112 0.5129622 0
vn 0.8584112 0.5129622 0
vn 0.3826839 0.9238793 0
vn 0.3826839 0.9238793 0
vn 0.3826839 0.9238793 0
vn 0.3826839 0.9238793 0
vn -0.9917966 0.1278256 0
vn -0.9917966 0.1278256 0
vn -0.9917966 0.1278256 0
vn -0.9917966 0.1278256 0
vn 0 -1 0
vn 0 -1 0
vn 0 -1 0
vn 0 -1 0
vn 0 1.889261E-07 -1
vn 0 1.889261E-07 -1
vn 0 1.889261E-07 -1
vn 0 1.889261E-07 -1
vn 0 1.889261E-07 -1
vn 0 1.889261E-07 -1
vn 0 1.889261E-07 -1
vn -0.9999934 0.003623765 -0.0003162243
vn -0.9999934 0.003623765 -0.0003162243
vn -0.9999934 0.003623765 -0.0003162243
vn -0.9999934 0.003623765 -0.0003162243
vn -0.9999934 0.003623765 -0.0003162243
vn -0.9999934 0.003623765 -0.0003162243
vn -0.9999934 0.003623765 -0.0003162243
vn -0.9999934 0.003623765 -0.0003162243
vn -0.3826831 0.9238796 0
vn -0.3826831 0.9238796 0
vn -0.3826831 0.9238796 0
vn -0.3826831 0.9238796 0
vn -0.8584118 0.5129612 0
vn -0.8584118 0.5129612 0
vn -0.8584118 0.5129612 0
vn -0.8584118 0.5129612 0
vn 0.9917965 0.1278269 0
vn 0.9917965 0.1278269 0
vn 0.9917965 0.1278269 0
vn 0.9917965 0.1278269 0
vn 1.147397E-07 0 1
vn 1.147397E-07 0 1
vn 1.147397E-07 0 1
vn 1.147397E-07 0 1
vn 2.582734E-07 -9.208985E-07 1
vn 2.582734E-07 -9.208985E-07 1
vn 2.582734E-07 -9.208985E-07 1
vn 0 -2.094569E-07 1
vn 0 -2.094569E-07 1
vn 0.006392993 0.9985783 0.05291972
vn 0.006392993 0.9985783 0.05291972
vn 0.006392993 0.9985783 0.05291972
vn 0.006392993 0.9985783 0.05291972
vn -0.0186586 -0.3873514 -0.9217433
vn -0.0186586 -0.3873514 -0.9217433
vn -0.0186586 -0.3873514 -0.9217433
vn -0.0186586 -0.3873514 -0.9217433
vn -0.01865851 -0.3873516 0.9217432
vn -0.01865851 -0.3873516 0.9217432
vn -0.01865851 -0.3873516 0.9217432
vn -0.01865851 -0.3873516 0.9217432
vn 0 -1 0
vn 0 -1 0
vn 0 -1 0
vn 0 -1 0
vn 0 -1 0
vn 0 -1 0
vn 0 -1 0
vn 0 -1 0
vn 0.008387933 0.9984085 -0.05576893
vn 0.008387933 0.9984085 -0.05576893
vn 0.008387933 0.9984085 -0.05576893
vn 0.008387933 0.9984085 -0.05576893
vn -0.008838227 0.9983791 -0.05622289
vn -0.008838227 0.9983791 -0.05622289
vn -0.008838227 0.9983791 -0.05622289
vn -0.008838227 0.9983791 -0.05622289

vt 0.3982092 0.8174905
vt 0.3970137 0.8166656
vt 0.3973283 0.8204679
vt 0.3850008 0.7831704
vt 0.3863173 0.7850996
vt 0.3871765 0.7830027
vt 0.3850008 0.7831704
vt 0.3859057 0.7850448
vt 0.3863173 0.7850996
vt 0.3973283 0.8204679
vt 0.3970137 0.8166656
vt 0.3956258 0.8173684
vt 0.3878825 0.7996521
vt 0.389078 0.800477
vt 0.3887635 0.7966748
vt 0.4839882 0.7849
vt 0.4818197 0.784656
vt 0.4826052 0.7867819
vt 0.4839882 0.7849
vt 0.4826052 0.7867819
vt 0.4830185 0.7867416
vt 0.3887635 0.7966748
vt 0.389078 0.800477
vt 0.390466 0.7997742
vt 0.4063691 0.7988818
vt 0.3950835 0.7983168
vt 0.3970137 0.8166656
vt 0.3797226 0.818261
vt 0.3910081 0.8188258
vt 0.389078 0.800477
vt 0.4575634 0.7777454
vt 0.4573138 0.792035
vt 0.4826052 0.7867819
vt 0.4122533 0.7769537
vt 0.3863173 0.7850996
vt 0.4120036 0.7912438
vt 0.3931087 0.8200327
vt 0.3973283 0.8204679
vt 0.3956258 0.8173684
vt 0.3930625 0.8168753
vt 0.1849369 0.8315485
vt 0.1887286 0.8315485
vt 0.1887286 0.8100088
vt 0.1849368 0.8100088
vt 0.1887286 0.8315485
vt 0.1942238 0.8315485
vt 0.1942238 0.8100088
vt 0.1887286 0.8100088
vt 0.2035108 0.8315485
vt 0.2067927 0.8315485
vt 0.2067927 0.8100088
vt 0.2035108 0.8100088
vt 0.3930625 0.8168753
vt 0.3956258 0.8173684
vt 0.3970137 0.8166656
vt 0.3950835 0.7983168
vt 0.3955252 0.7958646
vt 0.3950835 0.7983168
vt 0.4063691 0.7988818
vt 0.3971236 0.7934703
vt 0.4010532 0.7920683
vt 0.4048232 0.7938556
vt 0.4061746 0.7963976
vt 0.38265 0.778138
vt 0.3797226 0.7821072
vt 0.3798897 0.787489
vt 0.3874134 0.7770191
vt 0.3850008 0.7831704
vt 0.3871765 0.7830027
vt 0.3871812 0.7903109
vt 0.3859057 0.7850448
vt 0.1570847 0.7670058
vt 0.1559308 0.7734059
vt 0.1828399 0.7734372
vt 0.1828378 0.7667406
vt 0.2092719 0.7669793
vt 0.2102968 0.7734036
vt 0.1559308 0.7853651
vt 0.1570847 0.7917652
vt 0.1828378 0.7920305
vt 0.1828399 0.7853338
vt 0.2102968 0.7853674
vt 0.2092718 0.7917917
vt 0.1942238 0.8315485
vt 0.1997191 0.8315485
vt 0.1997191 0.8100088
vt 0.1942238 0.8100088
vt 0.4122533 0.7769537
vt 0.4120036 0.7912438
vt 0.4343547 0.7920351
vt 0.4346183 0.7769435
vt 0.4575634 0.7777454
vt 0.4573138 0.792035
vt 0.1997191 0.8315485
vt 0.2035108 0.8315485
vt 0.2035108 0.8100088
vt 0.1997191 0.8100088
vt 0.181655 0.8315485
vt 0.1849369 0.8315485
vt 0.1849368 0.8100088
vt 0.181655 0.8100088
vt 0.3973283 0.8204679
vt 0.4061959 0.8199794
vt 0.4063691 0.8166357
vt 0.3982092 0.8174905
vt 0.3949757 0.8231925
vt 0.3931087 0.8200327
vt 0.3998559 0.8250744
vt 0.4061959 0.8199794
vt 0.4045045 0.8229766
vt 0.1285481 0.7793854
vt 0.1285077 0.7852893
vt 0.1559308 0.7853651
vt 0.1554544 0.7793854
vt 0.1828399 0.7853338
vt 0.1828408 0.7793854
vt 0.21072 0.7793855
vt 0.2102968 0.7853674
vt 0.2371163 0.7793856
vt 0.2371589 0.7852907
vt 0.3863173 0.7850996
vt 0.3859057 0.7850448
vt 0.3871812 0.7903109
vt 0.4120036 0.7912438
vt 0.1285077 0.7852893
vt 0.1284323 0.7914816
vt 0.1570847 0.7917652
vt 0.1559308 0.7853651
vt 0.1285077 0.7734817
vt 0.1285481 0.7793854
vt 0.1554544 0.7793854
vt 0.1559308 0.7734059
vt 0.1828408 0.7793854
vt 0.1828399 0.7734372
vt 0.2102968 0.7734036
vt 0.21072 0.7793855
vt 0.237159 0.7734804
vt 0.2371163 0.7793856
vt 0.1284323 0.7672895
vt 0.1285077 0.7734817
vt 0.1559308 0.7734059
vt 0.1570847 0.7670058
vt 0.3929831 0.7971098
vt 0.3887635 0.7966748
vt 0.390466 0.7997742
vt 0.3930293 0.8002672
vt 0.160076 0.8132906
vt 0.160076 0.8170823
vt 0.1816157 0.8170823
vt 0.1816157 0.8132906
vt 0.160076 0.8170823
vt 0.160076 0.8225776
vt 0.1816157 0.8225776
vt 0.1816157 0.8170823
vt 0.160076 0.8318646
vt 0.160076 0.8351464
vt 0.1816157 0.8351464
vt 0.1816157 0.8318646
vt 0.3982092 0.8174905
vt 0.4063691 0.8166357
vt 0.4063691 0.7988818
vt 0.3970137 0.8166656
vt 0.3910081 0.8188258
vt 0.3797226 0.818261
vt 0.3799172 0.8207451
vt 0.3812686 0.823287
vt 0.3850384 0.8250744
vt 0.3889681 0.8236724
vt 0.3905665 0.821278
vt 0.4889448 0.7893949
vt 0.4893001 0.784022
vt 0.4865132 0.7799523
vt 0.4815598 0.7919594
vt 0.4839882 0.7849
vt 0.4830185 0.7867416
vt 0.481792 0.7786678
vt 0.4818197 0.784656
vt 0.160076 0.8225776
vt 0.160076 0.8280728
vt 0.1816157 0.8280728
vt 0.1816157 0.8225776
vt 0.160076 0.8280728
vt 0.160076 0.8318646
vt 0.1816157 0.8318646
vt 0.1816157 0.8280728
vt 0.160076 0.8100088
vt 0.160076 0.8132906
vt 0.1816157 0.8132906
vt 0.1816157 0.8100088
vt 0.3887635 0.7966748
vt 0.3798959 0.7971632
vt 0.3797226 0.8005068
vt 0.3878825 0.7996521
vt 0.391116 0.7939502
vt 0.3929831 0.7971098
vt 0.3862358 0.7920683
vt 0.3798959 0.7971632
vt 0.3815872 0.7941659
vt 0.4573138 0.792035
vt 0.4815598 0.7919594
vt 0.4830185 0.7867416
vt 0.4826052 0.7867819
vt 0.2371589 0.7852907
vt 0.2102968 0.7853674
vt 0.2092718 0.7917917
vt 0.2372385 0.7914828
vt 0.2372385 0.7672882
vt 0.2092719 0.7669793
vt 0.2102968 0.7734036
vt 0.237159 0.7734804
vt 0.3930293 0.8002672
vt 0.390466 0.7997742
vt 0.389078 0.800477
vt 0.3910081 0.8188258
vt 0.3878825 0.7996521
vt 0.3797226 0.8005068
vt 0.3797226 0.818261
vt 0.389078 0.800477
vt 0.481792 0.7786678
vt 0.4575634 0.7777454
vt 0.4826052 0.7867819
vt 0.4818197 0.784656
vt 0.3874134 0.7770191
vt 0.3871765 0.7830027
vt 0.3863173 0.7850996
vt 0.4122533 0.7769537

usemtl LOW-POLY-COLORS
usemap LOW-POLY-COLORS
f 2/2/2 1/1/1 3/3/3
f 5/5/5 4/4/4 6/6/6
f 8/8/8 7/7/7 9/9/9
f 11/11/11 10/10/10 12/12/12
f 14/14/14 13/13/13 15/15/15
f 17/17/17 16/16/16 18/18/18
f 20/20/20 19/19/19 21/21/21
f 23/23/23 22/22/22 24/24/24
f 26/26/26 25/25/25 27/27/27
f 29/29/29 28/28/28 30/30/30
f 32/32/32 31/31/31 33/33/33
f 35/35/35 34/34/34 36/36/36
f 38/38/38 37/37/37 39/39/39
f 39/39/39 37/37/37 40/40/40
f 42/42/42 41/41/41 43/43/43
f 43/43/43 41/41/41 44/44/44
f 46/46/46 45/45/45 47/47/47
f 47/47/47 45/45/45 48/48/48
f 50/50/50 49/49/49 51/51/51
f 51/51/51 49/49/49 52/52/52
f 54/54/54 53/53/53 55/55/55
f 55/55/55 53/53/53 56/56/56
f 58/58/58 57/57/57 59/59/59
f 60/60/60 59/59/59 57/57/57
f 61/61/61 59/59/59 60/60/60
f 62/62/62 59/59/59 61/61/61
f 63/63/63 59/59/59 62/62/62
f 65/65/65 64/64/64 66/66/66
f 67/67/67 66/66/66 64/64/64
f 68/68/68 66/66/66 67/67/67
f 69/69/69 68/68/68 67/67/67
f 66/66/66 68/68/68 70/70/70
f 71/71/71 70/70/70 68/68/68
f 73/73/73 72/72/72 74/74/74
f 74/74/74 72/72/72 75/75/75
f 75/75/75 76/76/76 74/74/74
f 74/74/74 76/76/76 77/77/77
f 79/79/79 78/78/78 80/80/80
f 80/80/80 78/78/78 81/81/81
f 81/81/81 82/82/82 80/80/80
f 80/80/80 82/82/82 83/83/83
f 85/85/85 84/84/84 86/86/86
f 86/86/86 84/84/84 87/87/87
f 89/89/89 88/88/88 90/90/90
f 90/90/90 88/88/88 91/91/91
f 91/91/91 92/92/92 90/90/90
f 90/90/90 92/92/92 93/93/93
f 95/95/95 94/94/94 96/96/96
f 96/96/96 94/94/94 97/97/97
f 99/99/99 98/98/98 100/100/100
f 100/100/100 98/98/98 101/101/101
f 103/103/103 102/102/102 104/104/104
f 104/104/104 102/102/102 105/105/105
f 102/102/102 106/106/106 107/107/107
f 108/108/108 106/106/106 102/102/102
f 109/109/109 108/108/108 102/102/102
f 110/110/110 108/108/108 109/109/109
f 112/112/112 111/111/111 113/113/113
f 113/113/113 111/111/111 114/114/114
f 113/113/113 114/114/114 115/115/115
f 115/115/115 114/114/114 116/116/116
f 116/116/116 117/117/117 115/115/115
f 115/115/115 117/117/117 118/118/118
f 117/117/117 119/119/119 118/118/118
f 118/118/118 119/119/119 120/120/120
f 122/122/122 121/121/121 123/123/123
f 123/123/123 121/121/121 124/124/124
f 126/126/126 125/125/125 127/127/127
f 127/127/127 125/125/125 128/128/128
f 130/130/130 129/129/129 131/131/131
f 131/131/131 129/129/129 132/132/132
f 131/131/131 132/132/132 133/133/133
f 133/133/133 132/132/132 134/134/134
f 134/134/134 135/135/135 133/133/133
f 133/133/133 135/135/135 136/136/136
f 135/135/135 137/137/137 136/136/136
f 136/136/136 137/137/137 138/138/138
f 140/140/140 139/139/139 141/141/141
f 141/141/141 139/139/139 142/142/142
f 144/144/144 143/143/143 145/145/145
f 145/145/145 143/143/143 146/146/146
f 148/148/148 147/147/147 149/149/149
f 149/149/149 147/147/147 150/150/150
f 152/152/152 151/151/151 153/153/153
f 153/153/153 151/151/151 154/154/154
f 156/156/156 155/155/155 157/157/157
f 157/157/157 155/155/155 158/158/158
f 160/160/160 159/159/159 161/161/161
f 161/161/161 159/159/159 162/162/162
f 164/164/164 163/163/163 165/165/165
f 166/166/166 165/165/165 163/163/163
f 167/167/167 166/166/166 163/163/163
f 168/168/168 167/167/167 163/163/163
f 169/169/169 168/168/168 163/163/163
f 171/171/171 170/170/170 172/172/172
f 173/173/173 172/172/172 170/170/170
f 174/174/174 172/172/172 173/173/173
f 175/175/175 174/174/174 173/173/173
f 172/172/172 174/174/174 176/176/176
f 177/177/177 176/176/176 174/174/174
f 179/179/179 178/178/178 180/180/180
f 180/180/180 178/178/178 181/181/181
f 183/183/183 182/182/182 184/184/184
f 184/184/184 182/182/182 185/185/185
f 187/187/187 186/186/186 188/188/188
f 188/188/188 186/186/186 189/189/189
f 191/191/191 190/190/190 192/192/192
f 192/192/192 190/190/190 193/193/193
f 190/190/190 194/194/194 195/195/195
f 196/196/196 194/194/194 190/190/190
f 197/197/197 196/196/196 190/190/190
f 198/198/198 196/196/196 197/197/197
f 200/200/200 199/199/199 201/201/201
f 201/201/201 199/199/199 202/202/202
f 204/204/204 203/203/203 205/205/205
f 205/205/205 203/203/203 206/206/206
f 208/208/208 207/207/207 209/209/209
f 209/209/209 207/207/207 210/210/210
f 212/212/212 211/211/211 213/213/213
f 213/213/213 211/211/211 214/214/214
f 216/216/216 215/215/215 217/217/217
f 217/217/217 215/215/215 218/218/218
f 220/220/220 219/219/219 221/221/221
f 221/221/221 219/219/219 222/222/222
f 224/224/224 223/223/223 225/225/225
f 225/225/225 223/223/223 226/226/226
