mtllib ./cargo-smple_21.mtl
g cargo-smple
v -1.25 2.4 2.9
v -1.25 0.09999967 2.9
v -1.25 0.1000001 -2.9
v -1.25 2.4 -2.9
v -1.150001 2.4 -3
v -1.150001 0.1000001 -3
v 1.15 0.1000001 -3
v 1.15 2.4 -3
v 1.25 2.4 -2.9
v 1.25 0.1000001 -2.900001
v 1.25 0.09999967 2.9
v 1.25 2.4 2.9
v 1.15 2.4 2.999999
v 1.15 0.09999968 2.999999
v -1.15 0.09999968 3
v -1.15 2.4 3
v -1.15 -2.225226E-07 2.9
v 1.15 -2.225227E-07 2.9
v 1.15 2.225226E-07 -2.9
v -1.150001 2.225227E-07 -2.9
v 1.15 2.5 2.9
v -1.15 2.5 2.9
v -1.150001 2.5 -2.9
v 1.15 2.5 -2.9
v -1.25 2.5 3
v -1.25 2.4 2.9
v -1.25 2.4 -2.9
v -1.25 2.5 -3
v -1.25 2.5 -3
v -1.25 2.4 -2.9
v -1.25 0.1000001 -2.9
v -1.25 2.062307E-07 -3
v -1.25 2.062307E-07 -3
v -1.25 0.1000001 -2.9
v -1.25 0.09999967 2.9
v -1.25 -2.062306E-07 3
v -1.25 -2.062306E-07 3
v -1.25 0.09999967 2.9
v -1.25 2.4 2.9
v -1.25 2.5 3
v 1.25 2.5 -3
v 1.25 2.4 -2.9
v 1.25 2.4 2.9
v 1.25 2.5 2.999999
v 1.25 2.5 2.999999
v 1.25 2.4 2.9
v 1.25 0.09999967 2.9
v 1.25 -2.062307E-07 2.999999
v 1.25 -2.062307E-07 2.999999
v 1.25 0.09999967 2.9
v 1.25 0.1000001 -2.900001
v 1.25 2.062306E-07 -3
v 1.25 2.062306E-07 -3
v 1.25 0.1000001 -2.900001
v 1.25 2.4 -2.9
v 1.25 2.5 -3
v 1.25 2.5 2.999999
v 1.15 2.4 2.999999
v -1.15 2.4 3
v -1.25 2.5 3
v -1.25 2.5 3
v -1.15 2.4 3
v -1.15 0.09999968 3
v -1.25 -2.062306E-07 3
v -1.25 -2.062306E-07 3
v -1.15 0.09999968 3
v 1.15 0.09999968 2.999999
v 1.25 -2.062307E-07 2.999999
v 1.25 -2.062307E-07 2.999999
v 1.15 0.09999968 2.999999
v 1.15 2.4 2.999999
v 1.25 2.5 2.999999
v -1.25 -2.062306E-07 3
v -1.15 -2.225226E-07 2.9
v -1.150001 2.225227E-07 -2.9
v -1.25 2.062307E-07 -3
v -1.25 2.062307E-07 -3
v -1.150001 2.225227E-07 -2.9
v 1.15 2.225226E-07 -2.9
v 1.25 2.062306E-07 -3
v 1.25 2.062306E-07 -3
v 1.15 2.225226E-07 -2.9
v 1.15 -2.225227E-07 2.9
v 1.25 -2.062307E-07 2.999999
v 1.25 -2.062307E-07 2.999999
v 1.15 -2.225227E-07 2.9
v -1.15 -2.225226E-07 2.9
v -1.25 -2.062306E-07 3
v 1.25 2.5 2.999999
v 1.15 2.5 2.9
v 1.15 2.5 -2.9
v 1.25 2.5 -3
v 1.25 2.5 -3
v 1.15 2.5 -2.9
v -1.150001 2.5 -2.9
v -1.25 2.5 -3
v -1.25 2.5 -3
v -1.150001 2.5 -2.9
v -1.15 2.5 2.9
v -1.25 2.5 3
v -1.25 2.5 3
v -1.15 2.5 2.9
v 1.15 2.5 2.9
v 1.25 2.5 2.999999
v 1.25 2.5 -3
v 1.15 0.1000001 -3
v 1.25 2.062306E-07 -3
v 1.15 2.4 -3
v -1.150001 0.1000001 -3
v -1.25 2.5 -3
v -1.25 2.062307E-07 -3
v -1.150001 2.4 -3

vn -1 0 1.133784E-07
vn -1 0 1.133784E-07
vn -1 0 1.133784E-07
vn -1 0 1.133784E-07
vn 0 0 -1
vn 0 0 -1
vn 0 0 -1
vn 0 0 -1
vn 1 0 0
vn 1 0 0
vn 1 0 0
vn 1 0 0
vn 2.073205E-07 0 1
vn 2.073205E-07 0 1
vn 2.073205E-07 0 1
vn 2.073205E-07 0 1
vn 0 -1 0
vn 0 -1 0
vn 0 -1 0
vn 0 -1 0
vn 0 1 0
vn 0 1 0
vn 0 1 0
vn 0 1 0
vn -1 0 1.010251E-07
vn -1 0 1.010251E-07
vn -1 0 1.010251E-07
vn -1 0 1.010251E-07
vn -1 0 -9.934093E-07
vn -1 0 -9.934093E-07
vn -1 0 -9.934093E-07
vn -1 0 -9.934093E-07
vn -1 0 1.262811E-07
vn -1 0 1.262811E-07
vn -1 0 1.262811E-07
vn -1 0 1.262811E-07
vn -1 0 -9.934116E-07
vn -1 0 -9.934116E-07
vn -1 0 -9.934116E-07
vn -1 0 -9.934116E-07
vn 1 0 0
vn 1 0 0
vn 1 0 0
vn 1 0 0
vn 1 0 0
vn 1 0 0
vn 1 0 0
vn 1 0 0
vn 1 0 0
vn 1 0 0
vn 1 0 0
vn 1 0 0
vn 1 0 9.934141E-07
vn 1 0 9.934141E-07
vn 1 0 9.934141E-07
vn 1 0 9.934141E-07
vn 1.986822E-07 0 1
vn 1.986822E-07 0 1
vn 1.986822E-07 0 1
vn 1.986822E-07 0 1
vn 0 0 1
vn 0 0 1
vn 0 0 1
vn 0 0 1
vn 1.986822E-07 0 1
vn 1.986822E-07 0 1
vn 1.986822E-07 0 1
vn 1.986822E-07 0 1
vn 0 0 1
vn 0 0 1
vn 0 0 1
vn 0 0 1
vn 0 -1 0
vn 0 -1 0
vn 0 -1 0
vn 0 -1 0
vn 0 -1 1.629203E-07
vn 0 -1 1.629203E-07
vn 0 -1 1.629203E-07
vn 0 -1 1.629203E-07
vn 0 -1 0
vn 0 -1 0
vn 0 -1 0
vn 0 -1 0
vn 0 -1 1.629206E-07
vn 0 -1 1.629206E-07
vn 0 -1 1.629206E-07
vn 0 -1 1.629206E-07
vn 0 1 0
vn 0 1 0
vn 0 1 0
vn 0 1 0
vn 0 1 0
vn 0 1 0
vn 0 1 0
vn 0 1 0
vn 0 1 0
vn 0 1 0
vn 0 1 0
vn 0 1 0
vn 0 1 0
vn 0 1 0
vn 0 1 0
vn 0 1 0
vn 0 0 -1
vn 0 0 -1
vn 0 0 -1
vn 0 0 -1
vn 0 0 -1
vn 0 0 -1
vn 0 0 -1
vn 0 0 -1

vt 0.7972958 0.6923296
vt 0.7972958 0.7107037
vt 0.8373996 0.7107036
vt 0.8373995 0.6923295
vt 0.8407551 0.6923295
vt 0.8407551 0.7107036
vt 0.8591292 0.7107036
vt 0.8591292 0.6923295
vt 0.8373995 0.6672443
vt 0.8373995 0.6488702
vt 0.7972958 0.6488703
vt 0.7972958 0.6672443
vt 0.7755661 0.6923296
vt 0.7755661 0.7107037
vt 0.7939402 0.7107037
vt 0.7939402 0.6923296
vt 0.7972958 0.7140592
vt 0.7972958 0.7324333
vt 0.8373996 0.7324333
vt 0.8373995 0.7140592
vt 0.7972958 0.6705999
vt 0.7972958 0.688974
vt 0.8373995 0.6889739
vt 0.8373995 0.6705999
vt 0.1568318 0.06257796
vt 0.1585096 0.06425571
vt 0.1986133 0.06425571
vt 0.2002912 0.06257784
vt 0.2002912 0.06257784
vt 0.1986133 0.06425571
vt 0.1986134 0.08262968
vt 0.2002912 0.08430755
vt 0.2002912 0.08430755
vt 0.1986134 0.08262968
vt 0.1585096 0.0826298
vt 0.1568318 0.08430755
vt 0.1568318 0.08430755
vt 0.1585096 0.0826298
vt 0.1585096 0.06425571
vt 0.1568318 0.06257796
vt 0.2002912 0.04084826
vt 0.1986133 0.03917038
vt 0.1585096 0.0391705
vt 0.1568318 0.04084826
vt 0.1568318 0.04084826
vt 0.1585096 0.0391705
vt 0.1585096 0.02079642
vt 0.1568318 0.01911867
vt 0.1568318 0.01911867
vt 0.1585096 0.02079642
vt 0.1986133 0.02079642
vt 0.2002912 0.01911855
vt 0.2002912 0.01911855
vt 0.1986133 0.02079642
vt 0.1986133 0.03917038
vt 0.2002912 0.04084826
vt 0.1351022 0.06257796
vt 0.13678 0.06425571
vt 0.155154 0.06425583
vt 0.1568318 0.06257796
vt 0.1568318 0.06257796
vt 0.155154 0.06425583
vt 0.155154 0.0826298
vt 0.1568318 0.08430755
vt 0.1568318 0.08430755
vt 0.155154 0.0826298
vt 0.1367799 0.0826298
vt 0.1351022 0.08430755
vt 0.1351022 0.08430755
vt 0.1367799 0.0826298
vt 0.13678 0.06425571
vt 0.1351022 0.06257796
vt 0.1568318 0.08430755
vt 0.1585096 0.08598542
vt 0.1986133 0.0859853
vt 0.2002912 0.08430755
vt 0.2002912 0.08430755
vt 0.1986133 0.0859853
vt 0.1986134 0.1043594
vt 0.2002912 0.1060371
vt 0.2002912 0.1060371
vt 0.1986134 0.1043594
vt 0.1585096 0.1043595
vt 0.1568318 0.1060373
vt 0.1568318 0.1060373
vt 0.1585096 0.1043595
vt 0.1585096 0.08598542
vt 0.1568318 0.08430755
vt 0.1568318 0.04084826
vt 0.1585096 0.04252601
vt 0.1986133 0.04252601
vt 0.2002912 0.04084826
vt 0.2002912 0.04084826
vt 0.1986133 0.04252601
vt 0.1986133 0.06090009
vt 0.2002912 0.06257784
vt 0.2002912 0.06257784
vt 0.1986133 0.06090009
vt 0.1585096 0.06090009
vt 0.1568318 0.06257796
vt 0.1568318 0.06257796
vt 0.1585096 0.06090009
vt 0.1585096 0.04252601
vt 0.1568318 0.04084826
vt 0.2220207 0.06257784
vt 0.220343 0.08262968
vt 0.2220207 0.08430755
vt 0.220343 0.06425571
vt 0.2019689 0.08262968
vt 0.2002912 0.06257784
vt 0.2002912 0.08430755
vt 0.2019689 0.06425571

usemtl LOW-POLY-COLORS
usemap LOW-POLY-COLORS
f 2/2/2 1/1/1 3/3/3
f 3/3/3 1/1/1 4/4/4
f 6/6/6 5/5/5 7/7/7
f 7/7/7 5/5/5 8/8/8
f 10/10/10 9/9/9 11/11/11
f 11/11/11 9/9/9 12/12/12
f 14/14/14 13/13/13 15/15/15
f 15/15/15 13/13/13 16/16/16
f 18/18/18 17/17/17 19/19/19
f 19/19/19 17/17/17 20/20/20
f 22/22/22 21/21/21 23/23/23
f 23/23/23 21/21/21 24/24/24
f 26/26/26 25/25/25 27/27/27
f 27/27/27 25/25/25 28/28/28
f 30/30/30 29/29/29 31/31/31
f 31/31/31 29/29/29 32/32/32
f 34/34/34 33/33/33 35/35/35
f 35/35/35 33/33/33 36/36/36
f 38/38/38 37/37/37 39/39/39
f 39/39/39 37/37/37 40/40/40
f 42/42/42 41/41/41 43/43/43
f 43/43/43 41/41/41 44/44/44
f 46/46/46 45/45/45 47/47/47
f 47/47/47 45/45/45 48/48/48
f 50/50/50 49/49/49 51/51/51
f 51/51/51 49/49/49 52/52/52
f 54/54/54 53/53/53 55/55/55
f 55/55/55 53/53/53 56/56/56
f 58/58/58 57/57/57 59/59/59
f 59/59/59 57/57/57 60/60/60
f 62/62/62 61/61/61 63/63/63
f 63/63/63 61/61/61 64/64/64
f 66/66/66 65/65/65 67/67/67
f 67/67/67 65/65/65 68/68/68
f 70/70/70 69/69/69 71/71/71
f 71/71/71 69/69/69 72/72/72
f 74/74/74 73/73/73 75/75/75
f 75/75/75 73/73/73 76/76/76
f 78/78/78 77/77/77 79/79/79
f 79/79/79 77/77/77 80/80/80
f 82/82/82 81/81/81 83/83/83
f 83/83/83 81/81/81 84/84/84
f 86/86/86 85/85/85 87/87/87
f 87/87/87 85/85/85 88/88/88
f 90/90/90 89/89/89 91/91/91
f 91/91/91 89/89/89 92/92/92
f 94/94/94 93/93/93 95/95/95
f 95/95/95 93/93/93 96/96/96
f 98/98/98 97/97/97 99/99/99
f 99/99/99 97/97/97 100/100/100
f 102/102/102 101/101/101 103/103/103
f 103/103/103 101/101/101 104/104/104
f 106/106/106 105/105/105 107/107/107
f 108/108/108 105/105/105 106/106/106
f 106/106/106 107/107/107 109/109/109
f 108/108/108 110/110/110 105/105/105
f 109/109/109 107/107/107 111/111/111
f 112/112/112 110/110/110 108/108/108
f 109/109/109 111/111/111 112/112/112
f 112/112/112 111/111/111 110/110/110
