mtllib ./cat-ball_2.mtl
g cat-ball
v 0.04119107 0.02161492 -0.04119107
v 0.05044856 0.06280599 -0.05044856
v 4.12836E-09 0.06280599 -0.07134503
v -1.669394E-10 0.008883568 -0.05044855
v -1.669394E-10 0.008883568 -0.05044855
v 4.12836E-09 0.06280599 -0.07134503
v -0.05044854 0.062806 -0.05044856
v -0.04119106 0.02161493 -0.04119107
v 0.05044856 0.06280599 -0.05044856
v 0.04119107 0.1039971 -0.04119108
v 1.473422E-08 0.1132546 -0.05044856
v 4.12836E-09 0.06280599 -0.07134503
v 4.12836E-09 0.06280599 -0.07134503
v 1.473422E-08 0.1132546 -0.05044856
v -0.04119105 0.1039971 -0.04119107
v -0.05044854 0.062806 -0.05044856
v -0.04119106 0.02161493 -0.04119107
v -0.05044854 0.062806 -0.05044856
v -0.071345 0.06280601 5.403979E-10
v -0.05044855 0.01235745 5.604234E-09
v -0.05044855 0.01235745 5.604234E-09
v -0.071345 0.06280601 5.403979E-10
v -0.05044853 0.06280602 0.05044854
v -0.04119105 0.02161494 0.04119107
v -0.05044854 0.062806 -0.05044856
v -0.04119105 0.1039971 -0.04119107
v -0.05044853 0.1132546 -1.0834E-08
v -0.071345 0.06280601 5.403979E-10
v -0.071345 0.06280601 5.403979E-10
v -0.05044853 0.1132546 -1.0834E-08
v -0.04119104 0.1039971 0.04119106
v -0.05044853 0.06280602 0.05044854
v -0.04119105 0.02161494 0.04119107
v -0.05044853 0.06280602 0.05044854
v 1.822338E-08 0.06280602 0.07134502
v 7.61752E-09 0.008883585 0.05044855
v 7.61752E-09 0.008883585 0.05044855
v 1.822338E-08 0.06280602 0.07134502
v 0.05044856 0.06280601 0.05044854
v 0.04119107 0.02161493 0.04119106
v -0.05044853 0.06280602 0.05044854
v -0.04119104 0.1039971 0.04119106
v 2.251868E-08 0.1132546 0.05044854
v 1.822338E-08 0.06280602 0.07134502
v 1.822338E-08 0.06280602 0.07134502
v 2.251868E-08 0.1132546 0.05044854
v 0.04119109 0.1039971 0.04119106
v 0.05044856 0.06280601 0.05044854
v 0.04119107 0.02161493 0.04119106
v 0.05044856 0.06280601 0.05044854
v 0.07134505 0.062806 -1.355462E-08
v 0.05044855 0.01235744 -2.180222E-09
v 0.05044855 0.01235744 -2.180222E-09
v 0.07134505 0.062806 -1.355462E-08
v 0.05044856 0.06280599 -0.05044856
v 0.04119107 0.02161492 -0.04119107
v 0.05044856 0.06280601 0.05044854
v 0.04119109 0.1039971 0.04119106
v 0.05044858 0.1132545 -1.861845E-08
v 0.07134505 0.062806 -1.355462E-08
v 0.07134505 0.062806 -1.355462E-08
v 0.05044858 0.1132545 -1.861845E-08
v 0.04119107 0.1039971 -0.04119108
v 0.05044856 0.06280599 -0.05044856
v 0.04119107 0.02161493 0.04119106
v 0.05044855 0.01235744 -2.180222E-09
v 8.22011E-17 -0.00374989 6.109346E-10
v 7.61752E-09 0.008883585 0.05044855
v -0.0438813 0.01152163 0.008120467
v -0.0457072 0.01447323 0.006545086
v -0.0457442 -0.00200759 0.008326209
v -0.02413945 -0.003151698 0.009693425
v 0.05044855 0.01235744 -2.180222E-09
v 0.04119107 0.02161492 -0.04119107
v -1.669394E-10 0.008883568 -0.05044855
v 8.22011E-17 -0.00374989 6.109346E-10
v 8.22011E-17 -0.00374989 6.109346E-10
v -1.669394E-10 0.008883568 -0.05044855
v -0.04119106 0.02161493 -0.04119107
v -0.05044855 0.01235745 5.604234E-09
v 0.04119107 0.1039971 -0.04119108
v 0.05044858 0.1132545 -1.861845E-08
v 2.235174E-08 0.134151 -2.185598E-08
v 1.473422E-08 0.1132546 -0.05044856
v 1.473422E-08 0.1132546 -0.05044856
v 2.235174E-08 0.134151 -2.185598E-08
v -0.05044853 0.1132546 -1.0834E-08
v -0.04119105 0.1039971 -0.04119107
v 0.05044858 0.1132545 -1.861845E-08
v 0.04119109 0.1039971 0.04119106
v 2.251868E-08 0.1132546 0.05044854
v 2.235174E-08 0.134151 -2.185598E-08
v 2.235174E-08 0.134151 -2.185598E-08
v 2.251868E-08 0.1132546 0.05044854
v -0.04119104 0.1039971 0.04119106
v -0.05044853 0.1132546 -1.0834E-08
v -0.04229899 0.01605521 0.02750075
v -0.04119105 0.02161494 0.04119107
v 7.61752E-09 0.008883585 0.05044855
v -0.0285325 0.004381569 0.03507181
v -0.0285325 0.004381569 0.03507181
v 7.61752E-09 0.008883585 0.05044855
v 8.22011E-17 -0.00374989 6.109346E-10
v -0.02413945 -0.003151698 0.009693425
v -0.0438813 0.01152163 0.008120467
v -0.05044855 0.01235745 5.604234E-09
v -0.04119105 0.02161494 0.04119107
v -0.04229899 0.01605521 0.02750075
v -0.02413945 -0.003151698 0.009693425
v 8.22011E-17 -0.00374989 6.109346E-10
v -0.05044855 0.01235745 5.604234E-09
v -0.0438813 0.01152163 0.008120467
v -0.0457072 0.01447323 0.006545086
v -0.05572471 0.01392397 0.01688713
v -0.07622278 0.01361425 -0.008305689
v -0.06255304 0.01370551 -0.0136042
v -0.06893191 0.01461161 -0.04123874
v -0.0556268 0.01498836 -0.04421465
v -0.08462428 0.01560898 -0.0802942
v -0.07090049 0.0162712 -0.07766569
v -0.02413945 -0.003151698 0.009693425
v -0.0457442 -0.00200759 0.008326209
v -0.05581724 0.0006177355 0.01956417
v -0.0285325 0.004381569 0.03507181
v -0.04229899 0.01605521 0.02750075
v -0.05572471 0.01392397 0.01688713
v -0.0457072 0.01447323 0.006545086
v -0.0438813 0.01152163 0.008120467
v -0.0285325 0.004381569 0.03507181
v -0.05581724 0.0006177355 0.01956417
v -0.05572471 0.01392397 0.01688713
v -0.04229899 0.01605521 0.02750075
v -0.05572471 0.01392397 0.01688713
v -0.05581724 0.0006177355 0.01956417
v -0.07800885 -0.0002099266 -0.005657371
v -0.07622278 0.01361425 -0.008305689
v -0.0457442 -0.00200759 0.008326209
v -0.0457072 0.01447323 0.006545086
v -0.06255304 0.01370551 -0.0136042
v -0.06342556 -0.002448098 -0.01190305
v -0.05581724 0.0006177355 0.01956417
v -0.0457442 -0.00200759 0.008326209
v -0.06342556 -0.002448098 -0.01190305
v -0.07800885 -0.0002099266 -0.005657371
v -0.08628104 0.002336271 -0.08251705
v -0.07114092 0.00156831 -0.08073126
v -0.07090049 0.0162712 -0.07766569
v -0.08462428 0.01560898 -0.0802942
v -0.06893191 0.01461161 -0.04123874
v -0.07056355 0.001063173 -0.0407594
v -0.08628104 0.002336271 -0.08251705
v -0.08462428 0.01560898 -0.0802942
v -0.05596427 -0.0004398942 -0.04476631
v -0.0556268 0.01498836 -0.04421465
v -0.07090049 0.0162712 -0.07766569
v -0.07114092 0.00156831 -0.08073126
v -0.07056355 0.001063173 -0.0407594
v -0.05596427 -0.0004398942 -0.04476631
v -0.07114092 0.00156831 -0.08073126
v -0.08628104 0.002336271 -0.08251705
v -0.07800885 -0.0002099266 -0.005657371
v -0.06342556 -0.002448098 -0.01190305
v -0.05596427 -0.0004398942 -0.04476631
v -0.07056355 0.001063173 -0.0407594
v -0.06342556 -0.002448098 -0.01190305
v -0.06255304 0.01370551 -0.0136042
v -0.0556268 0.01498836 -0.04421465
v -0.05596427 -0.0004398942 -0.04476631
v -0.07622278 0.01361425 -0.008305689
v -0.07800885 -0.0002099266 -0.005657371
v -0.07056355 0.001063173 -0.0407594
v -0.06893191 0.01461161 -0.04123874

vn 0.3358373 -0.3142019 -0.8879699
vn 0.3358373 -0.3142019 -0.8879699
vn 0.3358373 -0.3142019 -0.8879699
vn 0.3358373 -0.3142019 -0.8879699
vn -0.3358377 -0.3142018 -0.8879698
vn -0.3358377 -0.3142018 -0.8879698
vn -0.3358377 -0.3142018 -0.8879698
vn -0.3358377 -0.3142018 -0.8879698
vn 0.3250575 0.3250575 -0.8880739
vn 0.3250575 0.3250575 -0.8880739
vn 0.3250575 0.3250575 -0.8880739
vn 0.3250575 0.3250575 -0.8880739
vn -0.3250577 0.3250576 -0.8880739
vn -0.3250577 0.3250576 -0.8880739
vn -0.3250577 0.3250576 -0.8880739
vn -0.3250577 0.3250576 -0.8880739
vn -0.8880739 -0.3250574 -0.3250576
vn -0.8880739 -0.3250574 -0.3250576
vn -0.8880739 -0.3250574 -0.3250576
vn -0.8880739 -0.3250574 -0.3250576
vn -0.8880739 -0.3250573 0.3250578
vn -0.8880739 -0.3250573 0.3250578
vn -0.8880739 -0.3250573 0.3250578
vn -0.8880739 -0.3250573 0.3250578
vn -0.8880739 0.3250577 -0.3250576
vn -0.8880739 0.3250577 -0.3250576
vn -0.8880739 0.3250577 -0.3250576
vn -0.8880739 0.3250577 -0.3250576
vn -0.8880739 0.3250577 0.3250576
vn -0.8880739 0.3250577 0.3250576
vn -0.8880739 0.3250577 0.3250576
vn -0.8880739 0.3250577 0.3250576
vn -0.3358375 -0.3142014 0.8879699
vn -0.3358375 -0.3142014 0.8879699
vn -0.3358375 -0.3142014 0.8879699
vn -0.3358375 -0.3142014 0.8879699
vn 0.3358375 -0.3142017 0.8879699
vn 0.3358375 -0.3142017 0.8879699
vn 0.3358375 -0.3142017 0.8879699
vn 0.3358375 -0.3142017 0.8879699
vn -0.3250576 0.3250576 0.8880737
vn -0.3250576 0.3250576 0.8880737
vn -0.3250576 0.3250576 0.8880737
vn -0.3250576 0.3250576 0.8880737
vn 0.3250578 0.3250575 0.8880737
vn 0.3250578 0.3250575 0.8880737
vn 0.3250578 0.3250575 0.8880737
vn 0.3250578 0.3250575 0.8880737
vn 0.8880737 -0.3250577 0.3250577
vn 0.8880737 -0.3250577 0.3250577
vn 0.8880737 -0.3250577 0.3250577
vn 0.8880737 -0.3250577 0.3250577
vn 0.8880737 -0.3250578 -0.3250576
vn 0.8880737 -0.3250578 -0.3250576
vn 0.8880737 -0.3250578 -0.3250576
vn 0.8880737 -0.3250578 -0.3250576
vn 0.8880739 0.3250575 0.3250576
vn 0.8880739 0.3250575 0.3250576
vn 0.8880739 0.3250575 0.3250576
vn 0.8880739 0.3250575 0.3250576
vn 0.8880737 0.3250575 -0.3250579
vn 0.8880737 0.3250575 -0.3250579
vn 0.8880737 0.3250575 -0.3250579
vn 0.8880737 0.3250575 -0.3250579
vn 0.3135471 -0.9159422 0.2504759
vn 0.3135471 -0.9159422 0.2504759
vn 0.3135471 -0.9159422 0.2504759
vn 0.3135471 -0.9159422 0.2504759
vn 0.1191251 -0.03149443 -0.9923797
vn 0.1191251 -0.03149443 -0.9923797
vn 0.1191251 -0.03149443 -0.9923797
vn 0.1191251 -0.03149443 -0.9923797
vn 0.3135471 -0.9159423 -0.2504756
vn 0.3135471 -0.9159423 -0.2504756
vn 0.3135471 -0.9159423 -0.2504756
vn 0.3135471 -0.9159423 -0.2504756
vn -0.3135474 -0.9159421 -0.2504756
vn -0.3135474 -0.9159421 -0.2504756
vn -0.3135474 -0.9159421 -0.2504756
vn -0.3135474 -0.9159421 -0.2504756
vn 0.3250583 0.8880736 -0.3250576
vn 0.3250583 0.8880736 -0.3250576
vn 0.3250583 0.8880736 -0.3250576
vn 0.3250583 0.8880736 -0.3250576
vn -0.325058 0.8880736 -0.3250578
vn -0.325058 0.8880736 -0.3250578
vn -0.325058 0.8880736 -0.3250578
vn -0.325058 0.8880736 -0.3250578
vn 0.3250576 0.8880739 0.3250574
vn 0.3250576 0.8880739 0.3250574
vn 0.3250576 0.8880739 0.3250574
vn 0.3250576 0.8880739 0.3250574
vn -0.3250575 0.8880739 0.3250577
vn -0.3250575 0.8880739 0.3250577
vn -0.3250575 0.8880739 0.3250577
vn -0.3250575 0.8880739 0.3250577
vn -0.4625916 -0.57838 0.6719267
vn -0.4625916 -0.57838 0.6719267
vn -0.4625916 -0.57838 0.6719267
vn -0.4625916 -0.57838 0.6719267
vn 0.0435506 -0.9648588 0.2591346
vn 0.0435506 -0.9648588 0.2591346
vn 0.0435506 -0.9648588 0.2591346
vn 0.0435506 -0.9648588 0.2591346
vn -0.5973743 -0.7521764 0.2781633
vn -0.5973743 -0.7521764 0.2781633
vn -0.5973743 -0.7521764 0.2781633
vn -0.5973743 -0.7521764 0.2781633
vn -0.3657536 -0.8530611 -0.3721706
vn -0.3657536 -0.8530611 -0.3721706
vn -0.3657536 -0.8530611 -0.3721706
vn -0.3657536 -0.8530611 -0.3721706
vn -0.02766787 0.9996167 -0.0009660747
vn -0.02766787 0.9996167 -0.0009660747
vn -0.02766787 0.9996167 -0.0009660747
vn -0.02766787 0.9996167 -0.0009660747
vn -0.03775746 0.9981566 0.04751586
vn -0.03775746 0.9981566 0.04751586
vn -0.03775746 0.9981566 0.04751586
vn -0.03775746 0.9981566 0.04751586
vn -0.03587239 -0.9665442 0.2539794
vn -0.03587239 -0.9665442 0.2539794
vn -0.03587239 -0.9665442 0.2539794
vn -0.03587239 -0.9665442 0.2539794
vn 0.1294609 0.9869689 -0.09556357
vn 0.1294609 0.9869689 -0.09556357
vn 0.1294609 0.9869689 -0.09556357
vn 0.1294609 0.9869689 -0.09556357
vn -0.5441536 0.0458145 0.8377338
vn -0.5441536 0.0458145 0.8377338
vn -0.5441536 0.0458145 0.8377338
vn -0.5441536 0.0458145 0.8377338
vn -0.7531255 0.1765453 0.6337457
vn -0.7531255 0.1765453 0.6337457
vn -0.7531255 0.1765453 0.6337457
vn -0.7531255 0.1765453 0.6337457
vn 0.7582704 -0.09003235 -0.6456935
vn 0.7582704 -0.09003235 -0.6456935
vn 0.7582704 -0.09003235 -0.6456935
vn 0.7582704 -0.09003235 -0.6456935
vn -0.1079428 -0.9866152 0.1222244
vn -0.1079428 -0.9866152 0.1222244
vn -0.1079428 -0.9866152 0.1222244
vn -0.1079428 -0.9866152 0.1222244
vn 0.1494973 0.173862 -0.9733564
vn 0.1494973 0.173862 -0.9733564
vn 0.1494973 0.173862 -0.9733564
vn 0.1494973 0.173862 -0.9733564
vn -0.9274234 0.09010957 0.3629958
vn -0.9274234 0.09010957 0.3629958
vn -0.9274234 0.09010957 0.3629958
vn -0.9274234 0.09010957 0.3629958
vn 0.9158705 0.03049171 -0.4003142
vn 0.9158705 0.03049171 -0.4003142
vn 0.9158705 0.03049171 -0.4003142
vn 0.9158705 0.03049171 -0.4003142
vn -0.07699051 -0.9969656 -0.0114869
vn -0.07699051 -0.9969656 -0.0114869
vn -0.07699051 -0.9969656 -0.0114869
vn -0.07699051 -0.9969656 -0.0114869
vn -0.1548554 -0.9845698 -0.08149808
vn -0.1548554 -0.9845698 -0.08149808
vn -0.1548554 -0.9845698 -0.08149808
vn -0.1548554 -0.9845698 -0.08149808
vn 0.9751664 -0.02937181 0.2195172
vn 0.9751664 -0.02937181 0.2195172
vn 0.9751664 -0.02937181 0.2195172
vn 0.9751664 -0.02937181 0.2195172
vn -0.9733213 0.09781197 -0.2075539
vn -0.9733213 0.09781197 -0.2075539
vn -0.9733213 0.09781197 -0.2075539
vn -0.9733213 0.09781197 -0.2075539

vt 0.1753167 0.5665357
vt 0.1753167 0.5630884
vt 0.171252 0.563637
vt 0.1723322 0.5680239
vt 0.1723322 0.5680239
vt 0.171252 0.563637
vt 0.1683416 0.5642506
vt 0.1696216 0.5674847
vt 0.1753167 0.5630884
vt 0.1745481 0.5598832
vt 0.1713585 0.5595957
vt 0.171252 0.563637
vt 0.171252 0.563637
vt 0.1713585 0.5595957
vt 0.168853 0.5608322
vt 0.1683416 0.5642506
vt 0.1898712 0.564386
vt 0.1898712 0.5609007
vt 0.1858382 0.5615006
vt 0.1868499 0.5656621
vt 0.1868499 0.5656621
vt 0.1858382 0.5615006
vt 0.1827105 0.5623388
vt 0.1840245 0.5655602
vt 0.1898712 0.5609007
vt 0.1889582 0.557785
vt 0.1857318 0.5575775
vt 0.1858382 0.5615006
vt 0.1800384 0.5569475
vt 0.1838858 0.5555509
vt 0.1830856 0.5531554
vt 0.1799393 0.5533602
vt 0.1769172 0.5530534
vt 0.1799393 0.5533602
vt 0.1800384 0.5489564
vt 0.176071 0.5497712
vt 0.176071 0.5497712
vt 0.1800384 0.5489564
vt 0.1802777 0.5463157
vt 0.1771935 0.5473017
vt 0.1799393 0.5533602
vt 0.1830856 0.5531554
vt 0.1838858 0.5499004
vt 0.1800384 0.5489564
vt 0.1800384 0.5489564
vt 0.1838858 0.5499004
vt 0.1833619 0.5474036
vt 0.1802777 0.5463157
vt 0.190131 0.5541632
vt 0.1910264 0.5510916
vt 0.1869878 0.5505143
vt 0.1869078 0.5543656
vt 0.1869078 0.5543656
vt 0.1869878 0.5505143
vt 0.1838858 0.5495898
vt 0.1843008 0.5529369
vt 0.1910264 0.5510916
vt 0.1910264 0.5475905
vt 0.1880044 0.5463157
vt 0.1869878 0.5505143
vt 0.1869878 0.5505143
vt 0.1880044 0.5463157
vt 0.1851962 0.5463642
vt 0.1838858 0.5495898
vt 0.1695292 0.5595957
vt 0.1727131 0.5590972
vt 0.1715054 0.5551003
vt 0.1678904 0.5565883
vt 0.1768115 0.5671945
vt 0.1765908 0.567386
vt 0.1778315 0.5673024
vt 0.1778442 0.5656186
vt 0.1727131 0.5590972
vt 0.1753167 0.5573501
vt 0.1749786 0.553838
vt 0.1715054 0.5551003
vt 0.1715054 0.5551003
vt 0.1749786 0.553838
vt 0.173197 0.5510582
vt 0.170117 0.5513912
vt 0.1827105 0.5590482
vt 0.1797962 0.5575775
vt 0.1789246 0.5614824
vt 0.1827105 0.5624329
vt 0.1827105 0.5624329
vt 0.1789246 0.5614824
vt 0.178231 0.5656186
vt 0.1814325 0.5656137
vt 0.1797962 0.5575775
vt 0.1766735 0.5576848
vt 0.1753167 0.5607632
vt 0.1789246 0.5614824
vt 0.1789246 0.5614824
vt 0.1753167 0.5607632
vt 0.1753955 0.5642504
vt 0.178231 0.5656186
vt 0.1765431 0.5537015
vt 0.1769172 0.5530534
vt 0.176071 0.5497712
vt 0.1756898 0.5524064
vt 0.1682618 0.5539498
vt 0.1678904 0.5565883
vt 0.1715054 0.5551003
vt 0.1702 0.5535262
vt 0.1697202 0.5521067
vt 0.170117 0.5513912
vt 0.1674095 0.5533038
vt 0.168374 0.5527963
vt 0.1702 0.5535262
vt 0.1715054 0.5551003
vt 0.170117 0.5513912
vt 0.1697202 0.5521067
vt 0.1918661 0.5593119
vt 0.1909634 0.5586678
vt 0.1898712 0.5610273
vt 0.190958 0.5612103
vt 0.1909424 0.5635107
vt 0.1919656 0.5635136
vt 0.1904308 0.5668797
vt 0.1913945 0.5664282
vt 0.1702 0.5535262
vt 0.1697337 0.5518491
vt 0.1686704 0.5514095
vt 0.1682618 0.5539498
vt 0.1917799 0.5575775
vt 0.1909634 0.5586678
vt 0.1918661 0.5593119
vt 0.1919656 0.5591742
vt 0.1756898 0.5524064
vt 0.1753685 0.554961
vt 0.1763741 0.5550839
vt 0.1765431 0.5537015
vt 0.1763741 0.5550839
vt 0.1753685 0.554961
vt 0.1753167 0.5575734
vt 0.1763666 0.5575775
vt 0.1778315 0.5673024
vt 0.1765908 0.567386
vt 0.1766253 0.5692629
vt 0.1778442 0.5692458
vt 0.1686704 0.5514095
vt 0.1697337 0.5518491
vt 0.1707024 0.5499433
vt 0.1698759 0.5490198
vt 0.1827105 0.5668922
vt 0.1827105 0.5656876
vt 0.1816217 0.5656186
vt 0.1817194 0.5667368
vt 0.1848983 0.5572331
vt 0.1859223 0.5572331
vt 0.1859218 0.5543656
vt 0.18492 0.5544837
vt 0.1753167 0.5681235
vt 0.1764524 0.5680245
vt 0.1765908 0.5657247
vt 0.1754956 0.5656186
vt 0.1725263 0.548643
vt 0.1731918 0.5496354
vt 0.1753167 0.5475138
vt 0.1750483 0.5463157
vt 0.1698759 0.5490198
vt 0.1707024 0.5499433
vt 0.1731918 0.5496354
vt 0.1725263 0.548643
vt 0.175419 0.5708718
vt 0.1765908 0.5705788
vt 0.1764524 0.5680245
vt 0.1753167 0.5681235
vt 0.1848983 0.5546538
vt 0.1838858 0.5543656
vt 0.1839045 0.5572886
vt 0.1848983 0.5574024

usemtl LOW-POLY-COLORS
usemap LOW-POLY-COLORS
f 2/2/2 1/1/1 3/3/3
f 3/3/3 1/1/1 4/4/4
f 6/6/6 5/5/5 7/7/7
f 7/7/7 5/5/5 8/8/8
f 10/10/10 9/9/9 11/11/11
f 11/11/11 9/9/9 12/12/12
f 14/14/14 13/13/13 15/15/15
f 15/15/15 13/13/13 16/16/16
f 18/18/18 17/17/17 19/19/19
f 19/19/19 17/17/17 20/20/20
f 22/22/22 21/21/21 23/23/23
f 23/23/23 21/21/21 24/24/24
f 26/26/26 25/25/25 27/27/27
f 27/27/27 25/25/25 28/28/28
f 30/30/30 29/29/29 31/31/31
f 31/31/31 29/29/29 32/32/32
f 34/34/34 33/33/33 35/35/35
f 35/35/35 33/33/33 36/36/36
f 38/38/38 37/37/37 39/39/39
f 39/39/39 37/37/37 40/40/40
f 42/42/42 41/41/41 43/43/43
f 43/43/43 41/41/41 44/44/44
f 46/46/46 45/45/45 47/47/47
f 47/47/47 45/45/45 48/48/48
f 50/50/50 49/49/49 51/51/51
f 51/51/51 49/49/49 52/52/52
f 54/54/54 53/53/53 55/55/55
f 55/55/55 53/53/53 56/56/56
f 58/58/58 57/57/57 59/59/59
f 59/59/59 57/57/57 60/60/60
f 62/62/62 61/61/61 63/63/63
f 63/63/63 61/61/61 64/64/64
f 66/66/66 65/65/65 67/67/67
f 67/67/67 65/65/65 68/68/68
f 70/70/70 69/69/69 71/71/71
f 71/71/71 69/69/69 72/72/72
f 74/74/74 73/73/73 75/75/75
f 75/75/75 73/73/73 76/76/76
f 78/78/78 77/77/77 79/79/79
f 79/79/79 77/77/77 80/80/80
f 82/82/82 81/81/81 83/83/83
f 83/83/83 81/81/81 84/84/84
f 86/86/86 85/85/85 87/87/87
f 87/87/87 85/85/85 88/88/88
f 90/90/90 89/89/89 91/91/91
f 91/91/91 89/89/89 92/92/92
f 94/94/94 93/93/93 95/95/95
f 95/95/95 93/93/93 96/96/96
f 98/98/98 97/97/97 99/99/99
f 99/99/99 97/97/97 100/100/100
f 102/102/102 101/101/101 103/103/103
f 103/103/103 101/101/101 104/104/104
f 106/106/106 105/105/105 107/107/107
f 107/107/107 105/105/105 108/108/108
f 110/110/110 109/109/109 111/111/111
f 111/111/111 109/109/109 112/112/112
f 114/114/114 113/113/113 115/115/115
f 115/115/115 113/113/113 116/116/116
f 115/115/115 116/116/116 117/117/117
f 117/117/117 116/116/116 118/118/118
f 117/117/117 118/118/118 119/119/119
f 119/119/119 118/118/118 120/120/120
f 122/122/122 121/121/121 123/123/123
f 123/123/123 121/121/121 124/124/124
f 126/126/126 125/125/125 127/127/127
f 127/127/127 125/125/125 128/128/128
f 130/130/130 129/129/129 131/131/131
f 131/131/131 129/129/129 132/132/132
f 134/134/134 133/133/133 135/135/135
f 135/135/135 133/133/133 136/136/136
f 138/138/138 137/137/137 139/139/139
f 139/139/139 137/137/137 140/140/140
f 142/142/142 141/141/141 143/143/143
f 143/143/143 141/141/141 144/144/144
f 146/146/146 145/145/145 147/147/147
f 147/147/147 145/145/145 148/148/148
f 150/150/150 149/149/149 151/151/151
f 151/151/151 149/149/149 152/152/152
f 154/154/154 153/153/153 155/155/155
f 155/155/155 153/153/153 156/156/156
f 158/158/158 157/157/157 159/159/159
f 159/159/159 157/157/157 160/160/160
f 162/162/162 161/161/161 163/163/163
f 163/163/163 161/161/161 164/164/164
f 166/166/166 165/165/165 167/167/167
f 167/167/167 165/165/165 168/168/168
f 170/170/170 169/169/169 171/171/171
f 171/171/171 169/169/169 172/172/172
