mtllib ./guidepost_32.mtl
g guidepost
v 0.3760111 2.296402 0.1742428
v -0.6367446 2.010724 0.01709326
v -0.6367447 2.266729 0.01709318
v 0.3760111 1.981052 0.1742426
v 0.6066727 2.138727 0.2100346
v 0.3813942 1.981052 0.1395509
v -0.6313615 2.266729 -0.01759839
v -0.6313617 2.010724 -0.01759748
v 0.3813942 2.296402 0.139551
v 0.6120558 2.138727 0.1753428
v -0.6367447 2.266729 0.01709318
v -0.6313615 2.266729 -0.01759839
v 0.3813942 2.296402 0.139551
v 0.3760111 2.296402 0.1742428
v -0.6367446 2.010724 0.01709326
v -0.6313617 2.010724 -0.01759748
v -0.6313615 2.266729 -0.01759839
v -0.6367447 2.266729 0.01709318
v 0.3760111 1.981052 0.1742426
v 0.3813942 1.981052 0.1395509
v -0.6313617 2.010724 -0.01759748
v -0.6367446 2.010724 0.01709326
v 0.3760111 2.296402 0.1742428
v 0.3813942 2.296402 0.139551
v 0.6120558 2.138727 0.1753428
v 0.6066727 2.138727 0.2100346
v 0.6066727 2.138727 0.2100346
v 0.6120558 2.138727 0.1753428
v 0.3813942 1.981052 0.1395509
v 0.3760111 1.981052 0.1742426
v 0.1891201 1.930484 -0.4538375
v 0.03197065 1.662707 0.5589182
v 0.03197063 1.914499 0.5589186
v 0.1891201 1.646722 -0.4538375
v 0.2230284 1.788603 -0.6723607
v -1.640111E-08 1.117187 -0.0617594
v 0.08199172 2.705986 -0.02676325
v -3.82363E-08 2.706326 -0.08618572
v 0.08231222 1.084798 -0.009314492
v -2.92961E-08 -0.0007247388 -0.09985724
v 0.079483 -0.0002217746 -0.04186536
v 0.05106115 1.032678 0.07567337
v -0.05070494 2.70608 0.0693092
v 0.05070494 2.70608 0.06930918
v -0.05106115 1.032678 0.07567345
v 0.04909071 0.0004936671 0.05112677
v -0.04909072 0.0004936671 0.05112684
v -0.08231226 1.084798 -0.009314463
v -3.82363E-08 2.706326 -0.08618572
v -0.08199175 2.705986 -0.02676322
v -1.640111E-08 1.117187 -0.0617594
v -0.07948305 -0.0002217746 -0.04186532
v -2.92961E-08 -0.0007247388 -0.09985724
v 0.08231222 1.084798 -0.009314492
v 0.05070494 2.70608 0.06930918
v 0.08199172 2.705986 -0.02676325
v 0.05106115 1.032678 0.07567337
v 0.079483 -0.0002217746 -0.04186536
v 0.04909071 0.0004936671 0.05112677
v -0.05106115 1.032678 0.07567345
v -0.08199175 2.705986 -0.02676322
v -0.05070494 2.70608 0.0693092
v -0.08231226 1.084798 -0.009314463
v -0.04909072 0.0004936671 0.05112684
v -0.07948305 -0.0002217746 -0.04186532
v -0.08199175 2.705986 -0.02676322
v -3.82363E-08 2.706326 -0.08618572
v 0.08199172 2.705986 -0.02676325
v 0.05070494 2.70608 0.06930918
v -0.05070494 2.70608 0.0693092
v 0.1552955 1.930484 -0.459086
v -0.001853958 1.914499 0.5536699
v -0.001853937 1.662707 0.5536697
v 0.1552955 1.646722 -0.459086
v 0.1892038 1.788603 -0.6776091
v 0.2230284 1.788603 -0.6723607
v 0.1891201 1.930484 -0.4538375
v 0.1552955 1.930484 -0.459086
v 0.1892038 1.788603 -0.6776091
v 0.03197063 1.914499 0.5589186
v 0.03197065 1.662707 0.5589182
v -0.001853937 1.662707 0.5536697
v -0.001853958 1.914499 0.5536699
v 0.1891201 1.646722 -0.4538375
v 0.2230284 1.788603 -0.6723607
v 0.1892038 1.788603 -0.6776091
v 0.1552955 1.646722 -0.459086
v 0.03197065 1.662707 0.5589182
v 0.1891201 1.646722 -0.4538375
v 0.1552955 1.646722 -0.459086
v -0.001853937 1.662707 0.5536697
v 0.1891201 1.930484 -0.4538375
v 0.03197063 1.914499 0.5589186
v -0.001853958 1.914499 0.5536699
v 0.1552955 1.930484 -0.459086
v 0.079483 -0.0002217746 -0.04186536
v -2.92961E-08 -0.0007247388 -0.09985724
v -0.07948305 -0.0002217746 -0.04186532
v 0.04909071 0.0004936671 0.05112677
v -0.04909072 0.0004936671 0.05112684

vn -0.1533351 -2.799209E-07 0.9881742
vn -0.1533351 -2.799209E-07 0.9881742
vn -0.1533351 -2.799209E-07 0.9881742
vn -0.1533351 -2.799209E-07 0.9881742
vn -0.1533354 -6.07305E-07 0.9881742
vn 0.1533347 -1.48867E-06 -0.9881743
vn 0.1533347 -1.48867E-06 -0.9881743
vn 0.1533347 -1.48867E-06 -0.9881743
vn 0.1533347 -1.48867E-06 -0.9881743
vn 0.153335 2.024349E-07 -0.9881742
vn -0.02859744 0.9995812 -0.004437516
vn -0.02859744 0.9995812 -0.004437516
vn -0.02859744 0.9995812 -0.004437516
vn -0.02859744 0.9995812 -0.004437516
vn -0.9881744 -2.962053E-07 -0.1533339
vn -0.9881744 -2.962053E-07 -0.1533339
vn -0.9881744 -2.962053E-07 -0.1533339
vn -0.9881744 -2.962053E-07 -0.1533339
vn -0.02859786 -0.9995812 -0.004435795
vn -0.02859786 -0.9995812 -0.004435795
vn -0.02859786 -0.9995812 -0.004435795
vn -0.02859786 -0.9995812 -0.004435795
vn 0.5531335 0.8286595 0.08582915
vn 0.5531335 0.8286595 0.08582915
vn 0.5531335 0.8286595 0.08582915
vn 0.5531335 0.8286595 0.08582915
vn 0.5531342 -0.8286589 0.08583076
vn 0.5531342 -0.8286589 0.08583076
vn 0.5531342 -0.8286589 0.08583076
vn 0.5531342 -0.8286589 0.08583076
vn 0.9881742 0 0.153335
vn 0.9881742 0 0.153335
vn 0.9881742 0 0.153335
vn 0.9881742 0 0.153335
vn 0.9881742 -1.18733E-07 0.153335
vn 0.5612991 -0.01073832 -0.8275434
vn 0.5612991 -0.01073832 -0.8275434
vn 0.5612991 -0.01073832 -0.8275434
vn 0.5612991 -0.01073832 -0.8275434
vn 0.5670224 0.02567533 -0.8233022
vn 0.5670224 0.02567533 -0.8233022
vn 5.086003E-07 0.003803141 0.9999928
vn 5.086003E-07 0.003803141 0.9999928
vn 5.086003E-07 0.003803141 0.9999928
vn 5.086003E-07 0.003803141 0.9999928
vn 7.475481E-07 -0.02377451 0.9997173
vn 7.475481E-07 -0.02377451 0.9997173
vn -0.5612991 -0.01073833 -0.8275433
vn -0.5612991 -0.01073833 -0.8275433
vn -0.5612991 -0.01073833 -0.8275433
vn -0.5612991 -0.01073833 -0.8275433
vn -0.5670226 0.02567532 -0.823302
vn -0.5670226 0.02567532 -0.823302
vn 0.9449766 0.002558547 0.3271281
vn 0.9449766 0.002558547 0.3271281
vn 0.9449766 0.002558547 0.3271281
vn 0.9449766 0.002558547 0.3271281
vn 0.9458416 -0.01089396 0.3244457
vn 0.9458416 -0.01089396 0.3244457
vn -0.9449764 0.002558554 0.3271284
vn -0.9449764 0.002558554 0.3271284
vn -0.9449764 0.002558554 0.3271284
vn -0.9449764 0.002558554 0.3271284
vn -0.9458416 -0.01089397 0.324446
vn -0.9458416 -0.01089397 0.324446
vn -2.536994E-06 0.9999996 0.0008799757
vn -2.536994E-06 0.9999996 0.0008799757
vn -2.536994E-06 0.9999996 0.0008799757
vn -2.536994E-06 0.9999996 0.0008799757
vn -2.536994E-06 0.9999996 0.0008799757
vn -0.9881742 0 -0.1533352
vn -0.9881742 0 -0.1533352
vn -0.9881742 0 -0.1533352
vn -0.9881742 0 -0.1533352
vn -0.9881742 0 -0.1533353
vn 0.08279968 0.8416621 -0.5336189
vn 0.08279968 0.8416621 -0.5336189
vn 0.08279968 0.8416621 -0.5336189
vn 0.08279968 0.8416621 -0.5336189
vn -0.1533363 -1.296706E-06 0.9881741
vn -0.1533363 -1.296706E-06 0.9881741
vn -0.1533363 -1.296706E-06 0.9881741
vn -0.1533363 -1.296706E-06 0.9881741
vn 0.08279623 -0.8416622 -0.5336193
vn 0.08279623 -0.8416622 -0.5336193
vn 0.08279623 -0.8416622 -0.5336193
vn 0.08279623 -0.8416622 -0.5336193
vn -0.002393161 -0.9998784 0.01541092
vn -0.002393161 -0.9998784 0.01541092
vn -0.002393161 -0.9998784 0.01541092
vn -0.002393161 -0.9998784 0.01541092
vn -0.002397194 0.9998784 0.01541104
vn -0.002397194 0.9998784 0.01541104
vn -0.002397194 0.9998784 0.01541104
vn -0.002397194 0.9998784 0.01541104
vn 0 -0.9999683 0.007965845
vn 0 -0.9999683 0.007965845
vn 0 -0.9999683 0.007965845
vn 0 -0.9999683 0.007965845
vn 0 -0.9999683 0.007965845

vt 0.2813051 0.7901089
vt 0.3040129 0.7966014
vt 0.3040288 0.7906734
vt 0.2812837 0.7969775
vt 0.276347 0.7935276
vt 0.3340411 0.7985623
vt 0.3045125 0.7901299
vt 0.3044597 0.797153
vt 0.3341613 0.7894073
vt 0.340952 0.7940806
vt 0.3040288 0.7906734
vt 0.3045125 0.7901299
vt 0.2810681 0.7894073
vt 0.2813051 0.7901089
vt 0.3040129 0.7966014
vt 0.3044597 0.797153
vt 0.3045125 0.7901299
vt 0.3040288 0.7906734
vt 0.2812837 0.7969775
vt 0.2810414 0.7976772
vt 0.3044597 0.797153
vt 0.3040129 0.7966014
vt 0.2813051 0.7901089
vt 0.2810681 0.7894073
vt 0.2759115 0.7935262
vt 0.276347 0.7935276
vt 0.276347 0.7935276
vt 0.2759115 0.7935262
vt 0.2810414 0.7976772
vt 0.2812837 0.7969775
vt 0.3485471 0.7951497
vt 0.3420546 0.8200624
vt 0.3480624 0.8201241
vt 0.3417292 0.7951314
vt 0.3451441 0.7899022
vt 0.187173 0.7985401
vt 0.1828006 0.8625759
vt 0.1868416 0.8626443
vt 0.1832487 0.7972346
vt 0.1873215 0.7538741
vt 0.183416 0.7539587
vt 0.1988508 0.7952365
vt 0.1949403 0.8625919
vt 0.1990385 0.8625798
vt 0.1947628 0.7952272
vt 0.1990389 0.7541537
vt 0.1951322 0.7541284
vt 0.1911085 0.7972709
vt 0.1868416 0.8626443
vt 0.190883 0.8626155
vt 0.187173 0.7985401
vt 0.1912265 0.7539819
vt 0.1873215 0.7538741
vt 0.1832487 0.7972346
vt 0.1787432 0.8625124
vt 0.1828006 0.8625759
vt 0.1796127 0.795154
vt 0.183416 0.7539587
vt 0.1795259 0.754081
vt 0.1947628 0.7952272
vt 0.190883 0.8626155
vt 0.1949403 0.8625919
vt 0.1911085 0.7972709
vt 0.1951322 0.7541284
vt 0.1912265 0.7539819
vt 0.4328974 0.8065567
vt 0.436185 0.8089395
vt 0.4394726 0.8065567
vt 0.4382181 0.8027043
vt 0.4341519 0.8027043
vt 0.3486221 0.8482108
vt 0.3484505 0.8205616
vt 0.3416587 0.8204979
vt 0.3409678 0.8481389
vt 0.344739 0.8541399
vt 0.3451441 0.7899022
vt 0.3485471 0.7951497
vt 0.3493103 0.7948993
vt 0.3451412 0.7894073
vt 0.3480624 0.8201241
vt 0.3420546 0.8200624
vt 0.3416587 0.8204979
vt 0.3484505 0.8205616
vt 0.3417292 0.7951314
vt 0.3451441 0.7899022
vt 0.3451412 0.7894073
vt 0.3409678 0.7948781
vt 0.3420546 0.8200624
vt 0.3417292 0.7951314
vt 0.3409678 0.7948781
vt 0.3416587 0.8204979
vt 0.3485471 0.7951497
vt 0.3480624 0.8201241
vt 0.3484505 0.8205616
vt 0.3493103 0.7948993
vt 0.4458587 0.8050299
vt 0.4426717 0.8027043
vt 0.4394846 0.8050299
vt 0.4446401 0.8087586
vt 0.4407032 0.8087586

usemtl LOW-POLY-COLORS
usemap LOW-POLY-COLORS
f 2/2/2 1/1/1 3/3/3
f 4/4/4 1/1/1 2/2/2
f 5/5/5 1/1/1 4/4/4
f 7/7/7 6/6/6 8/8/8
f 9/9/9 6/6/6 7/7/7
f 9/9/9 10/10/10 6/6/6
f 12/12/12 11/11/11 13/13/13
f 13/13/13 11/11/11 14/14/14
f 16/16/16 15/15/15 17/17/17
f 17/17/17 15/15/15 18/18/18
f 20/20/20 19/19/19 21/21/21
f 21/21/21 19/19/19 22/22/22
f 24/24/24 23/23/23 25/25/25
f 25/25/25 23/23/23 26/26/26
f 28/28/28 27/27/27 29/29/29
f 29/29/29 27/27/27 30/30/30
f 32/32/32 31/31/31 33/33/33
f 34/34/34 31/31/31 32/32/32
f 35/35/35 31/31/31 34/34/34
f 37/37/37 36/36/36 38/38/38
f 39/39/39 36/36/36 37/37/37
f 39/39/39 40/40/40 36/36/36
f 41/41/41 40/40/40 39/39/39
f 43/43/43 42/42/42 44/44/44
f 45/45/45 42/42/42 43/43/43
f 45/45/45 46/46/46 42/42/42
f 47/47/47 46/46/46 45/45/45
f 49/49/49 48/48/48 50/50/50
f 51/51/51 48/48/48 49/49/49
f 51/51/51 52/52/52 48/48/48
f 53/53/53 52/52/52 51/51/51
f 55/55/55 54/54/54 56/56/56
f 57/57/57 54/54/54 55/55/55
f 57/57/57 58/58/58 54/54/54
f 59/59/59 58/58/58 57/57/57
f 61/61/61 60/60/60 62/62/62
f 63/63/63 60/60/60 61/61/61
f 63/63/63 64/64/64 60/60/60
f 65/65/65 64/64/64 63/63/63
f 67/67/67 66/66/66 68/68/68
f 69/69/69 68/68/68 66/66/66
f 70/70/70 69/69/69 66/66/66
f 72/72/72 71/71/71 73/73/73
f 73/73/73 71/71/71 74/74/74
f 74/74/74 71/71/71 75/75/75
f 77/77/77 76/76/76 78/78/78
f 78/78/78 76/76/76 79/79/79
f 81/81/81 80/80/80 82/82/82
f 82/82/82 80/80/80 83/83/83
f 85/85/85 84/84/84 86/86/86
f 86/86/86 84/84/84 87/87/87
f 89/89/89 88/88/88 90/90/90
f 90/90/90 88/88/88 91/91/91
f 93/93/93 92/92/92 94/94/94
f 94/94/94 92/92/92 95/95/95
f 97/97/97 96/96/96 98/98/98
f 99/99/99 98/98/98 96/96/96
f 100/100/100 98/98/98 99/99/99
