mtllib ./package-box_27.mtl
g package-box
v -0.07508238 0.5239719 0.375
v -0.3749942 0.75 0.375
v -0.07508238 0.75 0.375
v -0.3749942 2.235174E-08 0.375
v 0.3750057 2.235174E-08 0.3749999
v 0.07509385 0.5239719 0.375
v 0.07509385 0.75 0.375
v 0.3750057 0.75 0.3749999
v -0.3749942 2.235174E-08 0.375
v -0.3749943 2.235174E-08 -0.3749999
v -0.3749943 0.75 -0.3749999
v -0.3749942 0.75 0.375
v 0.07509383 0.5239719 -0.375
v 0.3750057 0.75 -0.375
v 0.07509383 0.75 -0.375
v 0.3750057 2.235174E-08 -0.375
v -0.3749943 2.235174E-08 -0.3749999
v -0.07508241 0.5239719 -0.375
v -0.07508241 0.75 -0.375
v -0.3749943 0.75 -0.3749999
v 0.3750057 0.4499999 -0.3000006
v 0.3750057 0.4499999 -0.07500002
v 0.3750057 0.6749999 -0.07500002
v 0.3750057 0.6749999 -0.3000006
v 0.07509383 0.75 -0.375
v 0.3750057 0.75 -0.375
v 0.3750057 0.75 0.3749999
v 0.07509385 0.75 0.375
v -0.3749943 0.75 -0.3749999
v -0.07508241 0.75 -0.375
v -0.07508238 0.75 0.375
v -0.3749942 0.75 0.375
v -0.07508241 0.75 -0.375
v 0.07509383 0.75 -0.375
v 0.07509385 0.75 0.375
v -0.07508238 0.75 0.375
v -0.3749942 2.235174E-08 0.375
v 0.3750057 2.235174E-08 0.3749999
v 0.3750057 2.235174E-08 -0.375
v -0.3749943 2.235174E-08 -0.3749999
v -0.07508241 0.5239719 -0.375
v 0.07509383 0.5239719 -0.375
v 0.07509383 0.75 -0.375
v -0.07508241 0.75 -0.375
v 0.07509385 0.5239719 0.375
v -0.07508238 0.5239719 0.375
v -0.07508238 0.75 0.375
v 0.07509385 0.75 0.375
v 0.3750057 0.4499999 -0.07500002
v 0.3750057 2.235174E-08 0.3749999
v 0.3750057 0.75 0.3749999
v 0.3750057 0.6749999 -0.07500002
v 0.3750057 0.4499999 -0.3000006
v 0.3750057 0.75 -0.375
v 0.3750057 2.235174E-08 -0.375
v 0.3750057 0.6749999 -0.3000006

vn 0 0 1
vn 0 0 1
vn 0 0 1
vn 0 0 1
vn 0 0 1
vn 0 0 1
vn 0 0 1
vn 0 0 1
vn -1 0 0
vn -1 0 0
vn -1 0 0
vn -1 0 0
vn 0 0 -1
vn 0 0 -1
vn 0 0 -1
vn 0 0 -1
vn 0 0 -1
vn 0 0 -1
vn 0 0 -1
vn 0 0 -1
vn 1 0 0
vn 1 0 0
vn 1 0 0
vn 1 0 0
vn 0 1 0
vn 0 1 0
vn 0 1 0
vn 0 1 0
vn 0 1 0
vn 0 1 0
vn 0 1 0
vn 0 1 0
vn 0 1 0
vn 0 1 0
vn 0 1 0
vn 0 1 0
vn 0 -1 0
vn 0 -1 0
vn 0 -1 0
vn 0 -1 0
vn 0 0 -1
vn 0 0 -1
vn 0 0 -1
vn 0 0 -1
vn 0 0 1
vn 0 0 1
vn 0 0 1
vn 0 0 1
vn 1 0 -1.358511E-07
vn 1 0 -1.358511E-07
vn 1 0 -1.358511E-07
vn 1 0 -1.358511E-07
vn 1 0 0
vn 1 0 0
vn 1 0 0
vn 1 0 0

vt 0.7051574 0.8145626
vt 0.6981047 0.8052046
vt 0.6981047 0.8145626
vt 0.7215068 0.8052046
vt 0.7215068 0.8286067
vt 0.7051574 0.8192486
vt 0.6981047 0.8192486
vt 0.6981047 0.8286067
vt 0.6981047 0.7818025
vt 0.6747025 0.7818025
vt 0.6747025 0.8052046
vt 0.6981047 0.8052046
vt 0.6676498 0.8192486
vt 0.6747025 0.8286067
vt 0.6747025 0.8192486
vt 0.6513005 0.8286067
vt 0.6513005 0.8052046
vt 0.6676498 0.8145626
vt 0.6747025 0.8145626
vt 0.6747025 0.8052046
vt 0.2080225 0.03961677
vt 0.1697771 0.03961677
vt 0.1697771 0.07786214
vt 0.2080225 0.07786214
vt 0.6747025 0.8192486
vt 0.6747025 0.8286067
vt 0.6981047 0.8286067
vt 0.6981047 0.8192486
vt 0.6747025 0.8052046
vt 0.6747025 0.8145626
vt 0.6981047 0.8145626
vt 0.6981047 0.8052046
vt 0.3222872 0.8061028
vt 0.3222872 0.7998573
vt 0.2910964 0.7998573
vt 0.2910964 0.8061028
vt 0.6981047 0.7818025
vt 0.6981047 0.7584004
vt 0.6747025 0.7584004
vt 0.6747025 0.7818025
vt 0.3316871 0.8061028
vt 0.3316871 0.7998573
vt 0.3222872 0.7998573
vt 0.3222872 0.8061028
vt 0.2816965 0.7998573
vt 0.2816965 0.8061028
vt 0.2910964 0.8061028
vt 0.2910964 0.7998573
vt 0.6840634 0.8379675
vt 0.6981047 0.8520088
vt 0.6981047 0.8286067
vt 0.6840634 0.8309469
vt 0.6770427 0.8379675
vt 0.6747025 0.8286067
vt 0.6747025 0.8520088
vt 0.6770427 0.8309469

usemtl LOW-POLY-COLORS
usemap LOW-POLY-COLORS
f 2/2/2 1/1/1 3/3/3
f 4/4/4 1/1/1 2/2/2
f 4/4/4 5/5/5 1/1/1
f 1/1/1 5/5/5 6/6/6
f 6/6/6 5/5/5 7/7/7
f 7/7/7 5/5/5 8/8/8
f 10/10/10 9/9/9 11/11/11
f 11/11/11 9/9/9 12/12/12
f 14/14/14 13/13/13 15/15/15
f 16/16/16 13/13/13 14/14/14
f 16/16/16 17/17/17 13/13/13
f 13/13/13 17/17/17 18/18/18
f 18/18/18 17/17/17 19/19/19
f 19/19/19 17/17/17 20/20/20
f 22/22/22 21/21/21 23/23/23
f 23/23/23 21/21/21 24/24/24
f 26/26/26 25/25/25 27/27/27
f 27/27/27 25/25/25 28/28/28
f 30/30/30 29/29/29 31/31/31
f 31/31/31 29/29/29 32/32/32
f 34/34/34 33/33/33 35/35/35
f 35/35/35 33/33/33 36/36/36
f 38/38/38 37/37/37 39/39/39
f 39/39/39 37/37/37 40/40/40
f 42/42/42 41/41/41 43/43/43
f 43/43/43 41/41/41 44/44/44
f 46/46/46 45/45/45 47/47/47
f 47/47/47 45/45/45 48/48/48
f 50/50/50 49/49/49 51/51/51
f 51/51/51 49/49/49 52/52/52
f 50/50/50 53/53/53 49/49/49
f 51/51/51 52/52/52 54/54/54
f 55/55/55 53/53/53 50/50/50
f 54/54/54 52/52/52 56/56/56
f 55/55/55 56/56/56 53/53/53
f 54/54/54 56/56/56 55/55/55
