mtllib ./palette_35.mtl
g palette
v -0.5223064 0.055 -0.3959965
v 0.5223132 0.055 -0.3959965
v 0.5223132 0.055 -0.6599964
v -0.5223064 0.055 -0.6599964
v -0.5223064 0.055 0.3960021
v -0.5223064 0.165 0.3960021
v -0.5223064 0.165 0.6600023
v -0.5223064 0.055 0.6600023
v 0.5223132 0.055 -0.3959965
v 0.5223132 0.165 -0.3959965
v 0.5223132 0.165 -0.6599964
v 0.5223132 0.055 -0.6599964
v -0.5223064 0.055 0.6600023
v -0.5223064 0.165 0.6600023
v 0.5223132 0.165 0.6600023
v 0.5223132 0.055 0.6600023
v 0.5223132 0.055 -0.6599964
v 0.5223132 0.165 -0.6599964
v -0.5223064 0.165 -0.6599964
v -0.5223064 0.055 -0.6599964
v -0.5223064 0.165 -0.3959965
v -0.5223064 0.165 -0.6599964
v 0.5223132 0.165 -0.6599964
v 0.5223132 0.165 -0.3959965
v -0.5223064 0.165 0.6600023
v -0.5223064 0.165 0.3960021
v 0.5223132 0.165 0.3960021
v 0.5223132 0.165 0.6600023
v -0.5223064 0.165 0.1320017
v -0.5223064 0.165 -0.1319983
v 0.5223132 0.165 -0.1319983
v 0.5223132 0.165 0.1320017
v 0.5223132 0.055 0.6600023
v 0.5223132 0.165 0.6600023
v 0.5223132 0.165 0.3960021
v 0.5223132 0.055 0.3960021
v 0.5223132 0.055 0.1320017
v 0.5223132 0.165 0.1320017
v 0.5223132 0.165 -0.1319983
v 0.5223132 0.055 -0.1319983
v -0.5223064 0.055 -0.6599964
v -0.5223064 0.165 -0.6599964
v -0.5223064 0.165 -0.3959965
v -0.5223064 0.055 -0.3959965
v -0.5223064 0.055 -0.1319983
v -0.5223064 0.165 -0.1319983
v -0.5223064 0.165 0.1320017
v -0.5223064 0.055 0.1320017
v -0.5223064 0.055 0.6600023
v 0.5223132 0.055 0.6600023
v 0.5223132 0.055 0.3960021
v -0.5223064 0.055 0.3960021
v -0.5223064 0.055 0.1320017
v 0.5223132 0.055 0.1320017
v 0.5223132 0.055 -0.1319983
v -0.5223064 0.055 -0.1319983
v 0.5223132 0.165 0.3960021
v -0.5223064 0.165 0.3960021
v -0.5223064 0.055 0.3960021
v 0.5223132 0.055 0.3960021
v 0.5223132 0.165 -0.1319983
v -0.5223064 0.165 -0.1319983
v -0.5223064 0.055 -0.1319983
v 0.5223132 0.055 -0.1319983
v 0.5223132 0.165 0.1320017
v 0.5223132 0.055 0.1320017
v -0.5223064 0.055 0.1320017
v -0.5223064 0.165 0.1320017
v 0.5223132 0.165 -0.3959965
v 0.5223132 0.055 -0.3959965
v -0.5223064 0.055 -0.3959965
v -0.5223064 0.165 -0.3959965
v 0.3519985 0.22 0.6600016
v 0.3519985 0.22 -0.6599983
v 0.5500033 0.22 -0.6599983
v 0.5500033 0.22 0.6600016
v -0.3520002 0.165 -0.6599983
v -0.3520002 0.22 -0.6599983
v -0.5499966 0.22 -0.6599983
v -0.5499966 0.165 -0.6599983
v 0.3519985 0.165 0.6600016
v 0.3519985 0.22 0.6600016
v 0.5500033 0.22 0.6600016
v 0.5500033 0.165 0.6600016
v 0.5500033 0.165 0.6600016
v 0.5500033 0.22 0.6600016
v 0.5500033 0.22 -0.6599983
v 0.5500033 0.165 -0.6599983
v -0.5499966 0.165 -0.6599983
v -0.5499966 0.22 -0.6599983
v -0.5499966 0.22 0.6600016
v -0.5499966 0.165 0.6600016
v 0.3519985 0.165 0.6600016
v 0.5500033 0.165 0.6600016
v 0.5500033 0.165 -0.6599983
v 0.3519985 0.165 -0.6599983
v -0.5499966 0.165 0.6600016
v -0.3520002 0.165 0.6600016
v -0.3520002 0.165 -0.6599983
v -0.5499966 0.165 -0.6599983
v -0.3245035 0.165 0.6600016
v -0.1264987 0.165 0.6600016
v -0.1264987 0.165 -0.6599983
v -0.3245035 0.165 -0.6599983
v 0.126497 0.165 0.6600016
v 0.3244978 0.165 0.6600016
v 0.3244978 0.165 -0.6599983
v 0.126497 0.165 -0.6599983
v -0.5499966 0.165 0.6600016
v -0.5499966 0.22 0.6600016
v -0.3520002 0.22 0.6600016
v -0.3520002 0.165 0.6600016
v -0.3245035 0.165 0.6600016
v -0.3245035 0.22 0.6600016
v -0.1264987 0.22 0.6600016
v -0.1264987 0.165 0.6600016
v 0.126497 0.165 0.6600016
v 0.126497 0.22 0.6600016
v 0.3244978 0.22 0.6600016
v 0.3244978 0.165 0.6600016
v 0.5500033 0.165 -0.6599983
v 0.5500033 0.22 -0.6599983
v 0.3519985 0.22 -0.6599983
v 0.3519985 0.165 -0.6599983
v 0.3244978 0.165 -0.6599983
v 0.3244978 0.22 -0.6599983
v 0.126497 0.22 -0.6599983
v 0.126497 0.165 -0.6599983
v -0.1264987 0.165 -0.6599983
v -0.1264987 0.22 -0.6599983
v -0.3245035 0.22 -0.6599983
v -0.3245035 0.165 -0.6599983
v -0.5499966 0.22 0.6600016
v -0.5499966 0.22 -0.6599983
v -0.3520002 0.22 -0.6599983
v -0.3520002 0.22 0.6600016
v -0.3245035 0.22 0.6600016
v -0.3245035 0.22 -0.6599983
v -0.1264987 0.22 -0.6599983
v -0.1264987 0.22 0.6600016
v 0.126497 0.22 0.6600016
v 0.126497 0.22 -0.6599983
v 0.3244978 0.22 -0.6599983
v 0.3244978 0.22 0.6600016
v 0.3244978 0.165 -0.6599983
v 0.3244978 0.165 0.6600016
v 0.3244978 0.22 0.6600016
v 0.3244978 0.22 -0.6599983
v 0.3519985 0.165 -0.6599983
v 0.3519985 0.22 -0.6599983
v 0.3519985 0.22 0.6600016
v 0.3519985 0.165 0.6600016
v 0.126497 0.165 -0.6599983
v 0.126497 0.22 -0.6599983
v 0.126497 0.22 0.6600016
v 0.126497 0.165 0.6600016
v -0.1264987 0.165 -0.6599983
v -0.1264987 0.165 0.6600016
v -0.1264987 0.22 0.6600016
v -0.1264987 0.22 -0.6599983
v -0.3245035 0.165 -0.6599983
v -0.3245035 0.22 -0.6599983
v -0.3245035 0.22 0.6600016
v -0.3245035 0.165 0.6600016
v -0.3520002 0.165 -0.6599983
v -0.3520002 0.165 0.6600016
v -0.3520002 0.22 0.6600016
v -0.3520002 0.22 -0.6599983
v -0.0990048 0.165 0.6600016
v 0.09899999 0.165 0.6600016
v 0.09899999 0.165 -0.6599983
v -0.0990048 0.165 -0.6599983
v -0.0990048 0.165 0.6600016
v -0.0990048 0.22 0.6600016
v 0.09899999 0.22 0.6600016
v 0.09899999 0.165 0.6600016
v 0.09899999 0.165 -0.6599983
v 0.09899999 0.22 -0.6599983
v -0.0990048 0.22 -0.6599983
v -0.0990048 0.165 -0.6599983
v -0.0990048 0.22 0.6600016
v -0.0990048 0.22 -0.6599983
v 0.09899999 0.22 -0.6599983
v 0.09899999 0.22 0.6600016
v 0.09899999 0.165 -0.6599983
v 0.09899999 0.165 0.6600016
v 0.09899999 0.22 0.6600016
v 0.09899999 0.22 -0.6599983
v -0.0990048 0.165 -0.6599983
v -0.0990048 0.22 -0.6599983
v -0.0990048 0.22 0.6600016
v -0.0990048 0.165 0.6600016
v 0.3519985 0.055 0.6600016
v 0.3519985 0.055 -0.6599983
v 0.5500033 0.055 -0.6599983
v 0.5500033 0.055 0.6600016
v -0.3520002 0 -0.6599983
v -0.3520002 0.055 -0.6599983
v -0.5499966 0.055 -0.6599983
v -0.5499966 0 -0.6599983
v 0.3519985 0 0.6600016
v 0.3519985 0.055 0.6600016
v 0.5500033 0.055 0.6600016
v 0.5500033 0 0.6600016
v 0.5500033 0 0.6600016
v 0.5500033 0.055 0.6600016
v 0.5500033 0.055 -0.6599983
v 0.5500033 0 -0.6599983
v -0.5499966 0 -0.6599983
v -0.5499966 0.055 -0.6599983
v -0.5499966 0.055 0.6600016
v -0.5499966 0 0.6600016
v 0.3519985 0 0.6600016
v 0.5500033 0 0.6600016
v 0.5500033 0 -0.6599983
v 0.3519985 0 -0.6599983
v -0.5499966 0 0.6600016
v -0.3520002 0 0.6600016
v -0.3520002 0 -0.6599983
v -0.5499966 0 -0.6599983
v -0.5499966 0 0.6600016
v -0.5499966 0.055 0.6600016
v -0.3520002 0.055 0.6600016
v -0.3520002 0 0.6600016
v 0.5500033 0 -0.6599983
v 0.5500033 0.055 -0.6599983
v 0.3519985 0.055 -0.6599983
v 0.3519985 0 -0.6599983
v -0.5499966 0.055 0.6600016
v -0.5499966 0.055 -0.6599983
v -0.3520002 0.055 -0.6599983
v -0.3520002 0.055 0.6600016
v 0.3519985 0 -0.6599983
v 0.3519985 0.055 -0.6599983
v 0.3519985 0.055 0.6600016
v 0.3519985 0 0.6600016
v -0.3520002 0 -0.6599983
v -0.3520002 0 0.6600016
v -0.3520002 0.055 0.6600016
v -0.3520002 0.055 -0.6599983
v -0.0990048 0 0.6600016
v 0.09899999 0 0.6600016
v 0.09899999 0 -0.6599983
v -0.0990048 0 -0.6599983
v -0.0990048 0 0.6600016
v -0.0990048 0.055 0.6600016
v 0.09899999 0.055 0.6600016
v 0.09899999 0 0.6600016
v 0.09899999 0 -0.6599983
v 0.09899999 0.055 -0.6599983
v -0.0990048 0.055 -0.6599983
v -0.0990048 0 -0.6599983
v -0.0990048 0.055 0.6600016
v -0.0990048 0.055 -0.6599983
v 0.09899999 0.055 -0.6599983
v 0.09899999 0.055 0.6600016
v 0.09899999 0 -0.6599983
v 0.09899999 0 0.6600016
v 0.09899999 0.055 0.6600016
v 0.09899999 0.055 -0.6599983
v -0.0990048 0 -0.6599983
v -0.0990048 0.055 -0.6599983
v -0.0990048 0.055 0.6600016
v -0.0990048 0 0.6600016

vn 0 -1 0
vn 0 -1 0
vn 0 -1 0
vn 0 -1 0
vn -1 0 0
vn -1 0 0
vn -1 0 0
vn -1 0 0
vn 1 0 0
vn 1 0 0
vn 1 0 0
vn 1 0 0
vn 0 0 1
vn 0 0 1
vn 0 0 1
vn 0 0 1
vn 0 0 -1
vn 0 0 -1
vn 0 0 -1
vn 0 0 -1
vn 0 1 0
vn 0 1 0
vn 0 1 0
vn 0 1 0
vn 0 1 0
vn 0 1 0
vn 0 1 0
vn 0 1 0
vn 0 1 0
vn 0 1 0
vn 0 1 0
vn 0 1 0
vn 1 0 0
vn 1 0 0
vn 1 0 0
vn 1 0 0
vn 1 0 0
vn 1 0 0
vn 1 0 0
vn 1 0 0
vn -1 0 0
vn -1 0 0
vn -1 0 0
vn -1 0 0
vn -1 0 0
vn -1 0 0
vn -1 0 0
vn -1 0 0
vn 0 -1 0
vn 0 -1 0
vn 0 -1 0
vn 0 -1 0
vn 0 -1 0
vn 0 -1 0
vn 0 -1 0
vn 0 -1 0
vn 0 0 -1
vn 0 0 -1
vn 0 0 -1
vn 0 0 -1
vn 0 0 -1
vn 0 0 -1
vn 0 0 -1
vn 0 0 -1
vn 0 0 1
vn 0 0 1
vn 0 0 1
vn 0 0 1
vn 0 0 1
vn 0 0 1
vn 0 0 1
vn 0 0 1
vn 0 1 0
vn 0 1 0
vn 0 1 0
vn 0 1 0
vn 0 0 -1
vn 0 0 -1
vn 0 0 -1
vn 0 0 -1
vn 0 0 1
vn 0 0 1
vn 0 0 1
vn 0 0 1
vn 1 0 0
vn 1 0 0
vn 1 0 0
vn 1 0 0
vn -1 0 0
vn -1 0 0
vn -1 0 0
vn -1 0 0
vn 0 -1 0
vn 0 -1 0
vn 0 -1 0
vn 0 -1 0
vn 0 -1 0
vn 0 -1 0
vn 0 -1 0
vn 0 -1 0
vn 0 -1 0
vn 0 -1 0
vn 0 -1 0
vn 0 -1 0
vn 0 -1 0
vn 0 -1 0
vn 0 -1 0
vn 0 -1 0
vn 0 0 1
vn 0 0 1
vn 0 0 1
vn 0 0 1
vn 0 0 1
vn 0 0 1
vn 0 0 1
vn 0 0 1
vn 0 0 1
vn 0 0 1
vn 0 0 1
vn 0 0 1
vn 0 0 -1
vn 0 0 -1
vn 0 0 -1
vn 0 0 -1
vn 0 0 -1
vn 0 0 -1
vn 0 0 -1
vn 0 0 -1
vn 0 0 -1
vn 0 0 -1
vn 0 0 -1
vn 0 0 -1
vn 0 1 0
vn 0 1 0
vn 0 1 0
vn 0 1 0
vn 0 1 0
vn 0 1 0
vn 0 1 0
vn 0 1 0
vn 0 1 0
vn 0 1 0
vn 0 1 0
vn 0 1 0
vn 1 0 0
vn 1 0 0
vn 1 0 0
vn 1 0 0
vn -1 0 0
vn -1 0 0
vn -1 0 0
vn -1 0 0
vn -1 0 0
vn -1 0 0
vn -1 0 0
vn -1 0 0
vn 1 0 0
vn 1 0 0
vn 1 0 0
vn 1 0 0
vn -1 0 0
vn -1 0 0
vn -1 0 0
vn -1 0 0
vn 1 0 0
vn 1 0 0
vn 1 0 0
vn 1 0 0
vn 0 -1 0
vn 0 -1 0
vn 0 -1 0
vn 0 -1 0
vn 0 0 1
vn 0 0 1
vn 0 0 1
vn 0 0 1
vn 0 0 -1
vn 0 0 -1
vn 0 0 -1
vn 0 0 -1
vn 0 1 0
vn 0 1 0
vn 0 1 0
vn 0 1 0
vn 1 0 0
vn 1 0 0
vn 1 0 0
vn 1 0 0
vn -1 0 0
vn -1 0 0
vn -1 0 0
vn -1 0 0
vn 0 1 0
vn 0 1 0
vn 0 1 0
vn 0 1 0
vn 0 0 -1
vn 0 0 -1
vn 0 0 -1
vn 0 0 -1
vn 0 0 1
vn 0 0 1
vn 0 0 1
vn 0 0 1
vn 1 0 0
vn 1 0 0
vn 1 0 0
vn 1 0 0
vn -1 0 0
vn -1 0 0
vn -1 0 0
vn -1 0 0
vn 0 -1 0
vn 0 -1 0
vn 0 -1 0
vn 0 -1 0
vn 0 -1 0
vn 0 -1 0
vn 0 -1 0
vn 0 -1 0
vn 0 0 1
vn 0 0 1
vn 0 0 1
vn 0 0 1
vn 0 0 -1
vn 0 0 -1
vn 0 0 -1
vn 0 0 -1
vn 0 1 0
vn 0 1 0
vn 0 1 0
vn 0 1 0
vn -1 0 0
vn -1 0 0
vn -1 0 0
vn -1 0 0
vn 1 0 0
vn 1 0 0
vn 1 0 0
vn 1 0 0
vn 0 -1 0
vn 0 -1 0
vn 0 -1 0
vn 0 -1 0
vn 0 0 1
vn 0 0 1
vn 0 0 1
vn 0 0 1
vn 0 0 -1
vn 0 0 -1
vn 0 0 -1
vn 0 0 -1
vn 0 1 0
vn 0 1 0
vn 0 1 0
vn 0 1 0
vn 1 0 0
vn 1 0 0
vn 1 0 0
vn 1 0 0
vn -1 0 0
vn -1 0 0
vn -1 0 0
vn -1 0 0

vt 0.2983924 0.8290941
vt 0.3393459 0.8290941
vt 0.3393459 0.8192652
vt 0.2983924 0.8192652
vt 0.3964782 0.8096992
vt 0.3993451 0.8096992
vt 0.3993451 0.8028187
vt 0.3964782 0.8028187
vt 0.4308809 0.7759332
vt 0.428014 0.7759332
vt 0.428014 0.7828137
vt 0.4308808 0.7828137
vt 0.2983924 0.8396516
vt 0.2983924 0.843747
vt 0.3393459 0.843747
vt 0.3393459 0.8396516
vt 0.3393459 0.8192652
vt 0.3393459 0.8151699
vt 0.2983924 0.8151699
vt 0.2983924 0.8192652
vt 0.2983924 0.805341
vt 0.2983924 0.8151699
vt 0.3393459 0.8151699
vt 0.3393459 0.8053411
vt 0.2983924 0.843747
vt 0.2983924 0.8535758
vt 0.3393459 0.8535758
vt 0.3393459 0.843747
vt 0.2983924 0.776764
vt 0.2983924 0.7865928
vt 0.3393459 0.7865928
vt 0.3393459 0.776764
vt 0.4308809 0.8028187
vt 0.428014 0.8028187
vt 0.428014 0.8096992
vt 0.4308809 0.8096992
vt 0.4308809 0.7559283
vt 0.428014 0.7559283
vt 0.428014 0.7628088
vt 0.4308809 0.7628088
vt 0.3964782 0.7828137
vt 0.3993451 0.7828137
vt 0.3993451 0.7759332
vt 0.3964782 0.7759332
vt 0.3964782 0.7628088
vt 0.3993451 0.7628088
vt 0.3993451 0.7559283
vt 0.3964782 0.7559283
vt 0.2983924 0.8396516
vt 0.3393459 0.8396516
vt 0.3393459 0.8298227
vt 0.2983924 0.8298227
vt 0.2983924 0.800517
vt 0.3393459 0.800517
vt 0.3393459 0.7906882
vt 0.2983924 0.7906882
vt 0.3393459 0.8535758
vt 0.2983924 0.8535758
vt 0.2983924 0.8576711
vt 0.3393459 0.8576711
vt 0.3393459 0.7865928
vt 0.2983924 0.7865928
vt 0.2983924 0.7906882
vt 0.3393459 0.7906882
vt 0.3393459 0.776764
vt 0.3393459 0.7726687
vt 0.2983924 0.7726686
vt 0.2983924 0.776764
vt 0.3393459 0.8053411
vt 0.3393459 0.8012457
vt 0.2983924 0.8012457
vt 0.2983924 0.805341
vt 0.4328244 0.8059099
vt 0.4672271 0.8059099
vt 0.4672271 0.8007494
vt 0.4328244 0.8007494
vt 0.4686605 0.8503803
vt 0.4672271 0.8503803
vt 0.4672271 0.8555406
vt 0.4686605 0.8555406
vt 0.431391 0.8059099
vt 0.4328244 0.8059099
vt 0.4328244 0.8007494
vt 0.431391 0.8007494
vt 0.4328244 0.7993159
vt 0.4328244 0.8007494
vt 0.4672271 0.8007494
vt 0.4672271 0.7993159
vt 0.4672271 0.8569741
vt 0.4672271 0.8555406
vt 0.4328244 0.8555406
vt 0.4328244 0.8569741
vt 0.4328244 0.7941554
vt 0.4328244 0.7993159
vt 0.4672271 0.7993159
vt 0.4672271 0.7941554
vt 0.4328244 0.8569741
vt 0.4328244 0.8621343
vt 0.4672271 0.8621343
vt 0.4672271 0.8569741
vt 0.4328244 0.7530614
vt 0.4328244 0.7582219
vt 0.4672271 0.7582219
vt 0.4672271 0.7530614
vt 0.4328244 0.8215515
vt 0.4328244 0.8267119
vt 0.4672271 0.8267118
vt 0.4672271 0.8215514
vt 0.431391 0.8555406
vt 0.4328244 0.8555406
vt 0.4328244 0.8503803
vt 0.431391 0.8503803
vt 0.431391 0.7648159
vt 0.4328244 0.7648159
vt 0.4328244 0.7596553
vt 0.431391 0.7596553
vt 0.431391 0.8333057
vt 0.4328244 0.8333057
vt 0.4328244 0.8281453
vt 0.431391 0.8281453
vt 0.4686605 0.8007494
vt 0.4672271 0.8007494
vt 0.4672271 0.8059099
vt 0.4686605 0.8059099
vt 0.4686605 0.8281453
vt 0.4672271 0.8281453
vt 0.4672271 0.8333057
vt 0.4686605 0.8333057
vt 0.4686605 0.7596554
vt 0.4672271 0.7596554
vt 0.4672271 0.7648159
vt 0.4686605 0.7648159
vt 0.4328244 0.8555406
vt 0.4672271 0.8555406
vt 0.4672271 0.8503803
vt 0.4328244 0.8503803
vt 0.4328244 0.7648159
vt 0.4672271 0.7648159
vt 0.4672271 0.7596554
vt 0.4328244 0.7596553
vt 0.4328244 0.8333057
vt 0.4672271 0.8333057
vt 0.4672271 0.8281453
vt 0.4328244 0.8281453
vt 0.4672271 0.8267118
vt 0.4328244 0.8267119
vt 0.4328244 0.8281453
vt 0.4672271 0.8281453
vt 0.4672271 0.8073433
vt 0.4672271 0.8059099
vt 0.4328244 0.8059099
vt 0.4328244 0.8073433
vt 0.4672271 0.8347391
vt 0.4672271 0.8333057
vt 0.4328244 0.8333057
vt 0.4328244 0.8347392
vt 0.4672271 0.7582219
vt 0.4328244 0.7582219
vt 0.4328244 0.7596553
vt 0.4672271 0.7596554
vt 0.4672271 0.7662493
vt 0.4672271 0.7648159
vt 0.4328244 0.7648159
vt 0.4328244 0.7662493
vt 0.4672271 0.8489469
vt 0.4328244 0.8489469
vt 0.4328244 0.8503803
vt 0.4672271 0.8503803
vt 0.4328244 0.7667594
vt 0.4328244 0.7719199
vt 0.4672271 0.7719199
vt 0.4672271 0.7667594
vt 0.431391 0.7785138
vt 0.4328244 0.7785138
vt 0.4328244 0.7733533
vt 0.431391 0.7733533
vt 0.4686605 0.7733534
vt 0.4672271 0.7733534
vt 0.4672271 0.7785139
vt 0.4686605 0.7785139
vt 0.4328244 0.7785138
vt 0.4672271 0.7785139
vt 0.4672271 0.7733534
vt 0.4328244 0.7733533
vt 0.4672271 0.7719199
vt 0.4328244 0.7719199
vt 0.4328244 0.7733533
vt 0.4672271 0.7733534
vt 0.4672271 0.7799473
vt 0.4672271 0.7785139
vt 0.4328244 0.7785138
vt 0.4328244 0.7799473
vt 0.4328244 0.8196079
vt 0.4672271 0.8196079
vt 0.4672271 0.8144474
vt 0.4328244 0.8144473
vt 0.4686605 0.8366827
vt 0.4672271 0.8366827
vt 0.4672271 0.841843
vt 0.4686605 0.841843
vt 0.431391 0.8196079
vt 0.4328244 0.8196079
vt 0.4328244 0.8144473
vt 0.431391 0.8144473
vt 0.4328244 0.813014
vt 0.4328244 0.8144473
vt 0.4672271 0.8144474
vt 0.4672271 0.813014
vt 0.4672271 0.8432764
vt 0.4672271 0.841843
vt 0.4328244 0.841843
vt 0.4328244 0.8432764
vt 0.4328244 0.8078535
vt 0.4328244 0.813014
vt 0.4672271 0.813014
vt 0.4672271 0.8078535
vt 0.4328244 0.8432764
vt 0.4328244 0.8484368
vt 0.4672271 0.8484368
vt 0.4672271 0.8432764
vt 0.431391 0.841843
vt 0.4328244 0.841843
vt 0.4328244 0.8366827
vt 0.431391 0.8366827
vt 0.4686605 0.8144474
vt 0.4672271 0.8144474
vt 0.4672271 0.8196079
vt 0.4686605 0.8196079
vt 0.4328244 0.841843
vt 0.4672271 0.841843
vt 0.4672271 0.8366827
vt 0.4328244 0.8366827
vt 0.4672271 0.8210413
vt 0.4672271 0.8196079
vt 0.4328244 0.8196079
vt 0.4328244 0.8210413
vt 0.4672271 0.8352493
vt 0.4328244 0.8352493
vt 0.4328244 0.8366827
vt 0.4672271 0.8366827
vt 0.4328244 0.7804574
vt 0.4328244 0.7856179
vt 0.4672271 0.7856179
vt 0.4672271 0.7804574
vt 0.431391 0.7922119
vt 0.4328244 0.7922119
vt 0.4328244 0.7870513
vt 0.431391 0.7870513
vt 0.4686605 0.7870514
vt 0.4672271 0.7870514
vt 0.4672271 0.7922119
vt 0.4686605 0.7922119
vt 0.4328244 0.7922119
vt 0.4672271 0.7922119
vt 0.4672271 0.7870514
vt 0.4328244 0.7870513
vt 0.4672271 0.7856179
vt 0.4328244 0.7856179
vt 0.4328244 0.7870513
vt 0.4672271 0.7870514
vt 0.4672271 0.7936453
vt 0.4672271 0.7922119
vt 0.4328244 0.7922119
vt 0.4328244 0.7936453

usemtl LOW-POLY-COLORS
usemap LOW-POLY-COLORS
f 2/2/2 1/1/1 3/3/3
f 3/3/3 1/1/1 4/4/4
f 6/6/6 5/5/5 7/7/7
f 7/7/7 5/5/5 8/8/8
f 10/10/10 9/9/9 11/11/11
f 11/11/11 9/9/9 12/12/12
f 14/14/14 13/13/13 15/15/15
f 15/15/15 13/13/13 16/16/16
f 18/18/18 17/17/17 19/19/19
f 19/19/19 17/17/17 20/20/20
f 22/22/22 21/21/21 23/23/23
f 23/23/23 21/21/21 24/24/24
f 26/26/26 25/25/25 27/27/27
f 27/27/27 25/25/25 28/28/28
f 30/30/30 29/29/29 31/31/31
f 31/31/31 29/29/29 32/32/32
f 34/34/34 33/33/33 35/35/35
f 35/35/35 33/33/33 36/36/36
f 38/38/38 37/37/37 39/39/39
f 39/39/39 37/37/37 40/40/40
f 42/42/42 41/41/41 43/43/43
f 43/43/43 41/41/41 44/44/44
f 46/46/46 45/45/45 47/47/47
f 47/47/47 45/45/45 48/48/48
f 50/50/50 49/49/49 51/51/51
f 51/51/51 49/49/49 52/52/52
f 54/54/54 53/53/53 55/55/55
f 55/55/55 53/53/53 56/56/56
f 58/58/58 57/57/57 59/59/59
f 59/59/59 57/57/57 60/60/60
f 62/62/62 61/61/61 63/63/63
f 63/63/63 61/61/61 64/64/64
f 66/66/66 65/65/65 67/67/67
f 67/67/67 65/65/65 68/68/68
f 70/70/70 69/69/69 71/71/71
f 71/71/71 69/69/69 72/72/72
f 74/74/74 73/73/73 75/75/75
f 75/75/75 73/73/73 76/76/76
f 78/78/78 77/77/77 79/79/79
f 79/79/79 77/77/77 80/80/80
f 82/82/82 81/81/81 83/83/83
f 83/83/83 81/81/81 84/84/84
f 86/86/86 85/85/85 87/87/87
f 87/87/87 85/85/85 88/88/88
f 90/90/90 89/89/89 91/91/91
f 91/91/91 89/89/89 92/92/92
f 94/94/94 93/93/93 95/95/95
f 95/95/95 93/93/93 96/96/96
f 98/98/98 97/97/97 99/99/99
f 99/99/99 97/97/97 100/100/100
f 102/102/102 101/101/101 103/103/103
f 103/103/103 101/101/101 104/104/104
f 106/106/106 105/105/105 107/107/107
f 107/107/107 105/105/105 108/108/108
f 110/110/110 109/109/109 111/111/111
f 111/111/111 109/109/109 112/112/112
f 114/114/114 113/113/113 115/115/115
f 115/115/115 113/113/113 116/116/116
f 118/118/118 117/117/117 119/119/119
f 119/119/119 117/117/117 120/120/120
f 122/122/122 121/121/121 123/123/123
f 123/123/123 121/121/121 124/124/124
f 126/126/126 125/125/125 127/127/127
f 127/127/127 125/125/125 128/128/128
f 130/130/130 129/129/129 131/131/131
f 131/131/131 129/129/129 132/132/132
f 134/134/134 133/133/133 135/135/135
f 135/135/135 133/133/133 136/136/136
f 138/138/138 137/137/137 139/139/139
f 139/139/139 137/137/137 140/140/140
f 142/142/142 141/141/141 143/143/143
f 143/143/143 141/141/141 144/144/144
f 146/146/146 145/145/145 147/147/147
f 147/147/147 145/145/145 148/148/148
f 150/150/150 149/149/149 151/151/151
f 151/151/151 149/149/149 152/152/152
f 154/154/154 153/153/153 155/155/155
f 155/155/155 153/153/153 156/156/156
f 158/158/158 157/157/157 159/159/159
f 159/159/159 157/157/157 160/160/160
f 162/162/162 161/161/161 163/163/163
f 163/163/163 161/161/161 164/164/164
f 166/166/166 165/165/165 167/167/167
f 167/167/167 165/165/165 168/168/168
f 170/170/170 169/169/169 171/171/171
f 171/171/171 169/169/169 172/172/172
f 174/174/174 173/173/173 175/175/175
f 175/175/175 173/173/173 176/176/176
f 178/178/178 177/177/177 179/179/179
f 179/179/179 177/177/177 180/180/180
f 182/182/182 181/181/181 183/183/183
f 183/183/183 181/181/181 184/184/184
f 186/186/186 185/185/185 187/187/187
f 187/187/187 185/185/185 188/188/188
f 190/190/190 189/189/189 191/191/191
f 191/191/191 189/189/189 192/192/192
f 194/194/194 193/193/193 195/195/195
f 195/195/195 193/193/193 196/196/196
f 198/198/198 197/197/197 199/199/199
f 199/199/199 197/197/197 200/200/200
f 202/202/202 201/201/201 203/203/203
f 203/203/203 201/201/201 204/204/204
f 206/206/206 205/205/205 207/207/207
f 207/207/207 205/205/205 208/208/208
f 210/210/210 209/209/209 211/211/211
f 211/211/211 209/209/209 212/212/212
f 214/214/214 213/213/213 215/215/215
f 215/215/215 213/213/213 216/216/216
f 218/218/218 217/217/217 219/219/219
f 219/219/219 217/217/217 220/220/220
f 222/222/222 221/221/221 223/223/223
f 223/223/223 221/221/221 224/224/224
f 226/226/226 225/225/225 227/227/227
f 227/227/227 225/225/225 228/228/228
f 230/230/230 229/229/229 231/231/231
f 231/231/231 229/229/229 232/232/232
f 234/234/234 233/233/233 235/235/235
f 235/235/235 233/233/233 236/236/236
f 238/238/238 237/237/237 239/239/239
f 239/239/239 237/237/237 240/240/240
f 242/242/242 241/241/241 243/243/243
f 243/243/243 241/241/241 244/244/244
f 246/246/246 245/245/245 247/247/247
f 247/247/247 245/245/245 248/248/248
f 250/250/250 249/249/249 251/251/251
f 251/251/251 249/249/249 252/252/252
f 254/254/254 253/253/253 255/255/255
f 255/255/255 253/253/253 256/256/256
f 258/258/258 257/257/257 259/259/259
f 259/259/259 257/257/257 260/260/260
f 262/262/262 261/261/261 263/263/263
f 263/263/263 261/261/261 264/264/264
