mtllib ./sunscreen-tropic_14.mtl
g sunscreen-tropic
v 0.4024036 1.704281 -1.105596
v 1.018922 1.704281 -0.5882754
v -1.211374E-07 2.418056 -3.939513E-07
v 0.7562719 1.704281 0.9012893
v 5.084972E-08 1.704281 1.17655
v -1.211374E-07 2.418056 -3.939513E-07
v -0.756272 1.704281 0.9012893
v -1.158676 1.704281 0.2043056
v -1.211374E-07 2.418056 -3.939513E-07
v -0.4024043 1.704281 -1.105595
v 0.4024036 1.704281 -1.105596
v -1.211374E-07 2.418056 -3.939513E-07
v 1.158676 1.704281 0.2043054
v 0.7562719 1.704281 0.9012893
v -1.211374E-07 2.418056 -3.939513E-07
v 5.084972E-08 1.704281 1.17655
v -0.756272 1.704281 0.9012893
v -1.211374E-07 2.418056 -3.939513E-07
v -1.018922 1.704281 -0.5882751
v -0.4024043 1.704281 -1.105595
v -1.211374E-07 2.418056 -3.939513E-07
v 1.018922 1.704281 -0.5882754
v 1.158676 1.704281 0.2043054
v -1.211374E-07 2.418056 -3.939513E-07
v -1.158676 1.704281 0.2043056
v -1.018922 1.704281 -0.5882751
v -1.211374E-07 2.418056 -3.939513E-07
v 1.018922 1.704281 -0.5882754
v -5.960467E-08 2.183446 -3.557285E-07
v 1.158676 1.704281 0.2043054
v -1.158676 1.704281 0.2043056
v -5.960467E-08 2.183446 -3.557285E-07
v -1.018922 1.704281 -0.5882751
v 0.4024036 1.704281 -1.105596
v -5.960467E-08 2.183446 -3.557285E-07
v 1.018922 1.704281 -0.5882754
v 0.7562719 1.704281 0.9012893
v -5.960467E-08 2.183446 -3.557285E-07
v 5.084972E-08 1.704281 1.17655
v -0.756272 1.704281 0.9012893
v -5.960467E-08 2.183446 -3.557285E-07
v -1.158676 1.704281 0.2043056
v -0.4024043 1.704281 -1.105595
v -5.960467E-08 2.183446 -3.557285E-07
v 0.4024036 1.704281 -1.105596
v 1.158676 1.704281 0.2043054
v -5.960467E-08 2.183446 -3.557285E-07
v 0.7562719 1.704281 0.9012893
v 5.084972E-08 1.704281 1.17655
v -5.960467E-08 2.183446 -3.557285E-07
v -0.756272 1.704281 0.9012893
v -1.018922 1.704281 -0.5882751
v -5.960467E-08 2.183446 -3.557285E-07
v -0.4024043 1.704281 -1.105595
v -0.05063687 2.900369E-09 0.02923518
v -0.05063688 -2.900376E-09 -0.02923521
v -0.05063688 2.172039 -0.02923547
v -0.05063687 2.172039 0.02923501
v -4.349355E-08 -5.80075E-09 -0.05847041
v 0.05063679 -2.900376E-09 -0.02923522
v 0.05063679 2.172039 -0.02923548
v -4.349357E-08 2.172039 -0.0584706
v 0.05063679 2.90037E-09 0.02923517
v -2.33543E-08 5.80075E-09 0.05847041
v -2.335433E-08 2.172039 0.05847013
v 0.05063679 2.172039 0.029235
v -2.33543E-08 5.80075E-09 0.05847041
v -0.05063687 2.900369E-09 0.02923518
v -0.05063687 2.172039 0.02923501
v -2.335433E-08 2.172039 0.05847013
v -0.05063688 -2.900376E-09 -0.02923521
v -4.349355E-08 -5.80075E-09 -0.05847041
v -4.349357E-08 2.172039 -0.0584706
v -0.05063688 2.172039 -0.02923547
v 0.05063679 -2.900376E-09 -0.02923522
v 0.05063679 2.90037E-09 0.02923517
v 0.05063679 2.172039 0.029235
v 0.05063679 2.172039 -0.02923548
v 0.05063679 -2.900376E-09 -0.02923522
v -4.349355E-08 -5.80075E-09 -0.05847041
v -0.05063688 -2.900376E-09 -0.02923521
v 0.05063679 2.90037E-09 0.02923517
v -0.05063687 2.900369E-09 0.02923518
v -2.33543E-08 5.80075E-09 0.05847041

vn 0.3486407 0.8401278 -0.4154936
vn 0.3486407 0.8401278 -0.4154936
vn 0.3486407 0.8401278 -0.4154936
vn 0.1855078 0.8401282 0.5096779
vn 0.1855078 0.8401282 0.5096779
vn 0.1855078 0.8401282 0.5096779
vn -0.4697224 0.8401278 0.2711938
vn -0.4697224 0.8401278 0.2711938
vn -0.4697224 0.8401278 0.2711938
vn 0 0.8401279 -0.5423883
vn 0 0.8401279 -0.5423883
vn 0 0.8401279 -0.5423883
vn 0.469722 0.8401281 0.2711939
vn 0.469722 0.8401281 0.2711939
vn 0.469722 0.8401281 0.2711939
vn -0.1855078 0.8401281 0.5096779
vn -0.1855078 0.8401281 0.5096779
vn -0.1855078 0.8401281 0.5096779
vn -0.3486407 0.8401279 -0.4154935
vn -0.3486407 0.8401279 -0.4154935
vn -0.3486407 0.8401279 -0.4154935
vn 0.5341482 0.8401279 -0.09418497
vn 0.5341482 0.8401279 -0.09418497
vn 0.5341482 0.8401279 -0.09418497
vn -0.5341479 0.8401281 -0.09418467
vn -0.5341479 0.8401281 -0.09418467
vn -0.5341479 0.8401281 -0.09418467
vn -0.3916179 -0.9175331 0.06905299
vn -0.3916179 -0.9175331 0.06905299
vn -0.3916179 -0.9175331 0.06905299
vn 0.3916177 -0.9175332 0.06905273
vn 0.3916177 -0.9175332 0.06905273
vn 0.3916177 -0.9175332 0.06905273
vn -0.2556106 -0.9175331 0.3046245
vn -0.2556106 -0.9175331 0.3046245
vn -0.2556106 -0.9175331 0.3046245
vn -0.1360077 -0.9175334 -0.3736769
vn -0.1360077 -0.9175334 -0.3736769
vn -0.1360077 -0.9175334 -0.3736769
vn 0.3443829 -0.9175332 -0.1988293
vn 0.3443829 -0.9175332 -0.1988293
vn 0.3443829 -0.9175332 -0.1988293
vn 0 -0.9175332 0.3976591
vn 0 -0.9175332 0.3976591
vn 0 -0.9175332 0.3976591
vn -0.3443824 -0.9175335 -0.1988292
vn -0.3443824 -0.9175335 -0.1988292
vn -0.3443824 -0.9175335 -0.1988292
vn 0.1360077 -0.9175333 -0.3736769
vn 0.1360077 -0.9175333 -0.3736769
vn 0.1360077 -0.9175333 -0.3736769
vn 0.2556103 -0.9175332 0.3046244
vn 0.2556103 -0.9175332 0.3046244
vn 0.2556103 -0.9175332 0.3046244
vn -1 0 2.346638E-07
vn -1 0 2.346638E-07
vn -1 0 2.346638E-07
vn -1 0 2.346638E-07
vn 0.4999995 0 -0.8660257
vn 0.4999995 0 -0.8660257
vn 0.4999995 0 -0.8660257
vn 0.4999995 0 -0.8660257
vn 0.5000001 0 0.8660253
vn 0.5000001 0 0.8660253
vn 0.5000001 0 0.8660253
vn 0.5000001 0 0.8660253
vn -0.4999997 0 0.8660255
vn -0.4999997 0 0.8660255
vn -0.4999997 0 0.8660255
vn -0.4999997 0 0.8660255
vn -0.4999997 0 -0.8660256
vn -0.4999997 0 -0.8660256
vn -0.4999997 0 -0.8660256
vn -0.4999997 0 -0.8660256
vn 1 0 0
vn 1 0 0
vn 1 0 0
vn 1 0 0
vn 0 -1 0
vn 0 -1 0
vn 0 -1 0
vn 0 -1 0
vn 0 -1 0
vn 0 -1 0

vt 0.4212209 0.5336341
vt 0.405182 0.5466545
vt 0.4315099 0.5619502
vt 0.4117588 0.5852362
vt 0.4315099 0.5923001
vt 0.4315099 0.5619502
vt 0.451261 0.5852361
vt 0.4621609 0.5671012
vt 0.4315099 0.5619502
vt 0.4417989 0.5336341
vt 0.4212209 0.5336341
vt 0.4315099 0.5619502
vt 0.400859 0.5671012
vt 0.4117588 0.5852362
vt 0.4315099 0.5619502
vt 0.4315099 0.5923001
vt 0.451261 0.5852361
vt 0.4315099 0.5619502
vt 0.4578378 0.5466545
vt 0.4417989 0.5336341
vt 0.4315099 0.5619502
vt 0.405182 0.5466545
vt 0.400859 0.5671012
vt 0.4315099 0.5619502
vt 0.4621609 0.5671012
vt 0.4578378 0.5466545
vt 0.4315099 0.5619502
vt 0.3016331 0.8330268
vt 0.3268937 0.8184061
vt 0.2979795 0.8133761
vt 0.3558079 0.8133761
vt 0.3268937 0.8184061
vt 0.3521543 0.8330268
vt 0.3169476 0.8457593
vt 0.3268937 0.8184061
vt 0.3016331 0.8330268
vt 0.3080839 0.7960491
vt 0.3268937 0.8184061
vt 0.3268937 0.7892328
vt 0.3457035 0.7960491
vt 0.3268937 0.8184061
vt 0.3558079 0.8133761
vt 0.3368398 0.8457593
vt 0.3268937 0.8184061
vt 0.3169476 0.8457593
vt 0.2979795 0.8133761
vt 0.3268937 0.8184061
vt 0.3080839 0.7960491
vt 0.3268937 0.7892328
vt 0.3268937 0.8184061
vt 0.3457035 0.7960491
vt 0.3521543 0.8330268
vt 0.3268937 0.8184061
vt 0.3368398 0.8457593
vt 0.2927604 0.7634134
vt 0.292742 0.7648039
vt 0.3443907 0.7654833
vt 0.3444091 0.764093
vt 0.2927238 0.7661943
vt 0.2927055 0.7675845
vt 0.3443542 0.7682641
vt 0.3443725 0.7668738
vt 0.292797 0.7606328
vt 0.2927786 0.7620232
vt 0.3444274 0.7627026
vt 0.3444456 0.7613123
vt 0.2927786 0.7620232
vt 0.2927604 0.7634134
vt 0.3444091 0.764093
vt 0.3444274 0.7627026
vt 0.292742 0.7648039
vt 0.2927238 0.7661943
vt 0.3443725 0.7668738
vt 0.3443907 0.7654833
vt 0.2927055 0.7675845
vt 0.2926872 0.7689751
vt 0.3443359 0.7696545
vt 0.3443542 0.7682641
vt 0.2927055 0.7675845
vt 0.2915104 0.7668734
vt 0.2902971 0.7675528
vt 0.2926872 0.7689751
vt 0.2902788 0.7689434
vt 0.2914738 0.7696545

usemtl LOW-POLY-COLORS
usemap LOW-POLY-COLORS
f 2/2/2 1/1/1 3/3/3
f 5/5/5 4/4/4 6/6/6
f 8/8/8 7/7/7 9/9/9
f 11/11/11 10/10/10 12/12/12
f 14/14/14 13/13/13 15/15/15
f 17/17/17 16/16/16 18/18/18
f 20/20/20 19/19/19 21/21/21
f 23/23/23 22/22/22 24/24/24
f 26/26/26 25/25/25 27/27/27
f 29/29/29 28/28/28 30/30/30
f 32/32/32 31/31/31 33/33/33
f 35/35/35 34/34/34 36/36/36
f 38/38/38 37/37/37 39/39/39
f 41/41/41 40/40/40 42/42/42
f 44/44/44 43/43/43 45/45/45
f 47/47/47 46/46/46 48/48/48
f 50/50/50 49/49/49 51/51/51
f 53/53/53 52/52/52 54/54/54
f 56/56/56 55/55/55 57/57/57
f 57/57/57 55/55/55 58/58/58
f 60/60/60 59/59/59 61/61/61
f 61/61/61 59/59/59 62/62/62
f 64/64/64 63/63/63 65/65/65
f 65/65/65 63/63/63 66/66/66
f 68/68/68 67/67/67 69/69/69
f 69/69/69 67/67/67 70/70/70
f 72/72/72 71/71/71 73/73/73
f 73/73/73 71/71/71 74/74/74
f 76/76/76 75/75/75 77/77/77
f 77/77/77 75/75/75 78/78/78
f 80/80/80 79/79/79 81/81/81
f 82/82/82 81/81/81 79/79/79
f 83/83/83 81/81/81 82/82/82
f 84/84/84 83/83/83 82/82/82
