mtllib ./tent-pyramid_orange_29.mtl
g tent-pyramid_orange
v 5.726179E-14 2.190492 3.568764E-07
v -1.314673 0.002251887 1.314673
v -1.314673 0.002252197 -1.314672
v 5.726179E-14 2.190492 3.568764E-07
v -1.314673 0.002252197 -1.314672
v 1.314673 0.002252197 -1.314673
v 5.726179E-14 2.190492 3.568764E-07
v 1.314673 0.002252197 -1.314673
v 1.314673 0.002251887 1.314672
v 7.329037E-08 1.240371 0.419172
v 0.6014245 0.002251912 1.163021
v -0.601424 0.002251912 1.163021
v 9.980594E-08 1.240371 0.5708235
v 7.329037E-08 1.240371 0.419172
v -0.601424 0.002251912 1.163021
v -0.601424 0.002251887 1.314673
v -0.601424 0.002251887 1.314673
v -1.314673 0.002251887 1.314673
v 5.726179E-14 2.190492 3.568764E-07
v 9.980594E-08 1.240371 0.5708235
v 1.314673 0.002251887 1.314672
v 0.6014245 0.002251887 1.314673
v 0.6014245 0.002251887 1.314673
v 0.6014245 0.002251912 1.163021
v 7.329037E-08 1.240371 0.419172
v 9.980594E-08 1.240371 0.5708235
v -1.314673 0.002252197 -1.314672
v -1.314673 0.002251887 1.314673
v -0.601424 0.002251887 1.314673
v -0.601424 0.002251912 1.163021
v 0.6014245 0.002251912 1.163021
v 1.314673 0.002252197 -1.314673
v 1.314673 0.002251887 1.314672
v 0.6014245 0.002251887 1.314673

vn -0.8571939 0.5149937 1.566421E-07
vn -0.8571939 0.5149937 1.566421E-07
vn -0.8571939 0.5149937 1.566421E-07
vn -2.126418E-07 0.5149939 -0.8571939
vn -2.126418E-07 0.5149939 -0.8571939
vn -2.126418E-07 0.5149939 -0.8571939
vn 0.8571939 0.5149937 0
vn 0.8571939 0.5149937 0
vn 0.8571939 0.5149937 0
vn 0 0.5149936 0.8571941
vn 0 0.5149936 0.8571941
vn 0 0.5149936 0.8571941
vn 0.8994931 -0.4369349 -4.283121E-07
vn 0.8994931 -0.4369349 -4.283121E-07
vn 0.8994931 -0.4369349 -4.283121E-07
vn 0.8994931 -0.4369349 -4.283121E-07
vn 3.83402E-07 0.5149936 0.8571941
vn 3.83402E-07 0.5149936 0.8571941
vn 3.83402E-07 0.5149936 0.8571941
vn 3.83402E-07 0.5149936 0.8571941
vn 1.91701E-07 0.5149936 0.8571941
vn 1.91701E-07 0.5149936 0.8571941
vn -0.8994933 -0.4369345 0
vn -0.8994933 -0.4369345 0
vn -0.8994933 -0.4369345 0
vn -0.8994933 -0.4369345 0
vn 0 -1 -1.200573E-07
vn 0 -1 -1.200573E-07
vn 0 -1 -1.200573E-07
vn 0 -1 -1.200573E-07
vn 0 -1 -1.148322E-07
vn 0 -1 -1.148322E-07
vn 0 -1 -1.200574E-07
vn 0 -1 -1.200574E-07

vt 0.4012818 0.5864402
vt 0.4317158 0.5915925
vt 0.4231509 0.5646568
vt 0.4523002 0.5265595
vt 0.4471479 0.5569935
vt 0.4740836 0.5484287
vt 0.442047 0.5410551
vt 0.411613 0.5359028
vt 0.4201779 0.5628386
vt 0.1674612 0.8238572
vt 0.2033579 0.7917385
vt 0.1315653 0.7917382
vt 0.1674612 0.8299465
vt 0.1674612 0.8238572
vt 0.1315653 0.7917382
vt 0.1265774 0.793547
vt 0.4299518 0.5634472
vt 0.4223922 0.5621673
vt 0.4317456 0.591583
vt 0.4337345 0.5798352
vt 0.4502603 0.5668852
vt 0.4427007 0.5656055
vt 0.2083457 0.7935475
vt 0.2033579 0.7917385
vt 0.1674612 0.8238572
vt 0.1674612 0.8299465
vt 0.2067634 0.8592112
vt 0.2067634 0.8309466
vt 0.1990962 0.8309466
vt 0.1990962 0.8325768
vt 0.1861659 0.8325768
vt 0.1784988 0.8592112
vt 0.1784988 0.8309466
vt 0.1861659 0.8309466

usemtl LOW-POLY-COLORS
usemap LOW-POLY-COLORS
f 2/2/2 1/1/1 3/3/3
f 5/5/5 4/4/4 6/6/6
f 8/8/8 7/7/7 9/9/9
f 11/11/11 10/10/10 12/12/12
f 14/14/14 13/13/13 15/15/15
f 15/15/15 13/13/13 16/16/16
f 18/18/18 17/17/17 19/19/19
f 19/19/19 17/17/17 20/20/20
f 19/19/19 20/20/20 21/21/21
f 21/21/21 20/20/20 22/22/22
f 24/24/24 23/23/23 25/25/25
f 25/25/25 23/23/23 26/26/26
f 28/28/28 27/27/27 29/29/29
f 29/29/29 27/27/27 30/30/30
f 30/30/30 27/27/27 31/31/31
f 31/31/31 27/27/27 32/32/32
f 32/32/32 33/33/33 31/31/31
f 31/31/31 33/33/33 34/34/34
