mtllib ./tent_orange_26.mtl
g tent_orange
v -2.035343E-07 2.249281 -1.16408
v -0.4060795 1.403477 -1.12464
v 0.4060791 1.403477 -1.12464
v -1.404685 -1.896528E-07 1.164081
v -0.8172204 0.7550455 1.14589
v -0.1141853 -1.832272E-07 1.12464
v 1.987502E-07 1.409278 1.136719
v -0.4060791 1.403477 1.124641
v 2.035344E-07 2.249281 1.164081
v 0.4060795 1.403477 1.124641
v -2.035343E-07 2.249281 -1.16408
v 0.4060795 1.403477 1.124641
v 2.035344E-07 2.249281 1.164081
v 0.4060791 1.403477 -1.12464
v -0.8172204 0.7550455 1.14589
v -1.404685 -1.896528E-07 1.164081
v -1.404685 -3.293838E-15 2.45603E-07
v -0.4060791 1.403477 1.124641
v -0.4060795 1.403477 -1.12464
v -0.8172208 0.7550458 -1.145889
v -1.404685 1.896528E-07 -1.16408
v 1.404685 -1.896528E-07 1.16408
v 0.1141857 -1.832272E-07 1.12464
v 0.8172208 0.7550455 1.145889
v 1.987502E-07 1.409278 1.136719
v 0.4060795 1.403477 1.124641
v 0.8172208 0.7550455 1.145889
v 1.404685 3.293838E-15 -2.45603E-07
v 1.404685 -1.896528E-07 1.16408
v 0.4060795 1.403477 1.124641
v 0.4060791 1.403477 -1.12464
v 0.8172204 0.7550458 -1.14589
v 1.404685 1.896528E-07 -1.164081
v 1.404685 1.896528E-07 -1.164081
v 0.8172204 0.7550458 -1.14589
v -0.04400437 1.832272E-07 -1.12464
v -0.8172208 0.7550458 -1.145889
v -1.404685 1.896528E-07 -1.16408
v -2.035343E-07 2.249281 -1.16408
v 2.035344E-07 2.249281 1.164081
v -0.4060791 1.403477 1.124641
v -0.4060795 1.403477 -1.12464
v 1.987502E-07 1.409278 1.136719
v 1.667802E-07 1.038495 0.9538719
v 8.449081E-08 -4.489306E-08 0.4832311
v -0.1141853 -1.832272E-07 1.12464
v 1.987502E-07 1.409278 1.136719
v 0.1141857 -1.832272E-07 1.12464
v 8.449081E-08 -4.489306E-08 0.4832311
v 1.667802E-07 1.038495 0.9538719
v -0.4060795 1.403477 -1.12464
v -0.8172208 0.7550458 -1.145889
v 0.8172204 0.7550458 -1.14589
v 0.4060791 1.403477 -1.12464
v 1.404685 3.293838E-15 -2.45603E-07
v 8.449081E-08 -4.489306E-08 0.4832311
v 0.1141857 -1.832272E-07 1.12464
v 1.404685 -1.896528E-07 1.16408
v 1.404685 1.896528E-07 -1.164081
v -0.04400437 1.832272E-07 -1.12464
v 8.449081E-08 -4.489306E-08 0.4832311
v -1.404685 -3.293838E-15 2.45603E-07
v -1.404685 1.896528E-07 -1.16408
v -1.404685 -1.896528E-07 1.164081
v -0.1141853 -1.832272E-07 1.12464
v 8.449081E-08 -4.489306E-08 0.4832311

vn 0 -0.04657958 -0.9989146
vn 0 -0.04657958 -0.9989146
vn 0 -0.04657958 -0.9989146
vn 0.03054794 0.0003132964 0.9995333
vn 0.03054794 0.0003132964 0.9995333
vn 0.03054794 0.0003132964 0.9995333
vn 0 -0.03255677 0.9994699
vn 0 -0.03255677 0.9994699
vn 0 -0.03255677 0.9994699
vn 0 -0.03255677 0.9994699
vn 0.9014841 0.4328122 -1.227915E-07
vn 0.9014841 0.4328122 -1.227915E-07
vn 0.9014841 0.4328122 -1.227915E-07
vn 0.9014842 0.4328119 -1.270976E-07
vn -0.8138316 0.580044 0.03502756
vn -0.8138316 0.580044 0.03502756
vn -0.8147969 0.5797465 1.846127E-07
vn -0.8147969 0.5797465 1.846127E-07
vn -0.8147969 0.5797465 1.846127E-07
vn -0.8138317 0.580044 -0.03502709
vn -0.8138317 0.580044 -0.03502709
vn -0.03054738 0.0003139078 0.9995333
vn -0.03054738 0.0003139078 0.9995333
vn -0.03054738 0.0003139078 0.9995333
vn -0.009619872 0.00200048 0.9999517
vn -0.009619872 0.00200048 0.9999517
vn 0.8138318 0.5800439 0.03502732
vn 0.8147968 0.5797465 -1.230752E-07
vn 0.8138318 0.5800439 0.03502732
vn 0.8147968 0.5797465 -1.230752E-07
vn 0.8147968 0.5797465 -1.230752E-07
vn 0.8138316 0.580044 -0.03502739
vn 0.8138316 0.580044 -0.03502739
vn -0.02721476 0.002909429 -0.9996253
vn -4.375359E-07 -0.02813169 -0.9996043
vn -4.375359E-07 -0.02813169 -0.9996043
vn -4.375359E-07 -0.02813169 -0.9996043
vn 0.02897313 0.001539802 -0.999579
vn -0.9014842 0.4328121 2.08179E-07
vn -0.9014842 0.4328121 2.08179E-07
vn -0.9014842 0.4328121 2.08179E-07
vn -0.9014842 0.4328121 2.08179E-07
vn 0.9818896 -0.07969883 0.1718743
vn 0.9818896 -0.07969883 0.1718743
vn 0.9818896 -0.07969883 0.1718743
vn 0.9818896 -0.07969883 0.1718743
vn -0.9818896 -0.07969879 0.1718746
vn -0.9818896 -0.07969879 0.1718746
vn -0.9818896 -0.07969879 0.1718746
vn -0.9818896 -0.07969879 0.1718746
vn -2.935127E-07 0.03275247 -0.9994635
vn -2.935127E-07 0.03275247 -0.9994635
vn -2.935127E-07 0.03275247 -0.9994635
vn -2.935127E-07 0.03275247 -0.9994635
vn 0 -1 -1.80682E-07
vn 0 -1 -1.80682E-07
vn 0 -1 -1.80682E-07
vn 0 -1 -1.80682E-07
vn 0 -1 -1.505621E-07
vn 0 -1 -1.508725E-07
vn 0 -1 -1.508725E-07
vn 0 -1 -1.80682E-07
vn 0 -1 -1.508725E-07
vn 0 -1 -1.80682E-07
vn 0 -1 -1.80682E-07
vn 0 -1 -1.80682E-07

vt 0.1890451 0.7742654
vt 0.179213 0.7909664
vt 0.1959137 0.7923876
vt 0.3928142 0.5919265
vt 0.4005066 0.6013522
vt 0.4092263 0.5915482
vt 0.4110865 0.6094302
vt 0.4059206 0.6094805
vt 0.4108322 0.6203634
vt 0.416244 0.6097205
vt 0.4485818 0.5649777
vt 0.4923298 0.5829116
vt 0.4930835 0.5649777
vt 0.4493358 0.5829116
vt 0.4927665 0.5323687
vt 0.4930835 0.514082
vt 0.4708328 0.5141193
vt 0.4923298 0.5470438
vt 0.4493358 0.5470438
vt 0.448899 0.5323688
vt 0.4485818 0.514082
vt 0.430151 0.5927958
vt 0.4137754 0.5916554
vt 0.4220295 0.6018531
vt 0.4110865 0.6094302
vt 0.416244 0.6097205
vt 0.4927665 0.5975866
vt 0.4708326 0.615836
vt 0.4930835 0.6158733
vt 0.4923298 0.5829116
vt 0.4493358 0.5829116
vt 0.448899 0.5975866
vt 0.4485818 0.6158733
vt 0.2139616 0.8229997
vt 0.2032328 0.8064482
vt 0.1842277 0.820447
vt 0.1696231 0.803588
vt 0.1562143 0.818126
vt 0.4485818 0.5649777
vt 0.4930835 0.5649777
vt 0.4923298 0.5470438
vt 0.4493358 0.5470438
vt 0.1812123 0.8666917
vt 0.1814304 0.8640933
vt 0.1824455 0.8520371
vt 0.1774847 0.8586768
vt 0.1812123 0.8666917
vt 0.186223 0.859411
vt 0.1824455 0.8520371
vt 0.1814304 0.8640933
vt 0.179213 0.7909664
vt 0.1696231 0.803588
vt 0.2032328 0.8064482
vt 0.1959137 0.7923876
vt 0.102048 0.4478298
vt 0.07487676 0.4546206
vt 0.07865426 0.4619945
vt 0.09924045 0.467755
vt 0.1063928 0.4255833
vt 0.07665887 0.4230305
vt 0.07487676 0.4546206
vt 0.04922006 0.4433644
vt 0.04864559 0.4207095
vt 0.04864559 0.4634865
vt 0.06991598 0.4612603
vt 0.07487676 0.4546206

usemtl LOW-POLY-COLORS
usemap LOW-POLY-COLORS
f 2/2/2 1/1/1 3/3/3
f 5/5/5 4/4/4 6/6/6
f 6/6/6 7/7/7 5/5/5
f 5/5/5 7/7/7 8/8/8
f 7/7/7 9/9/9 8/8/8
f 10/10/10 9/9/9 7/7/7
f 12/12/12 11/11/11 13/13/13
f 12/12/12 14/14/14 11/11/11
f 16/16/16 15/15/15 17/17/17
f 17/17/17 15/15/15 18/18/18
f 18/18/18 19/19/19 17/17/17
f 19/19/19 20/20/20 17/17/17
f 17/17/17 20/20/20 21/21/21
f 23/23/23 22/22/22 24/24/24
f 24/24/24 25/25/25 23/23/23
f 26/26/26 25/25/25 24/24/24
f 28/28/28 27/27/27 29/29/29
f 30/30/30 27/27/27 28/28/28
f 28/28/28 31/31/31 30/30/30
f 28/28/28 32/32/32 31/31/31
f 33/33/33 32/32/32 28/28/28
f 35/35/35 34/34/34 36/36/36
f 36/36/36 37/37/37 35/35/35
f 36/36/36 38/38/38 37/37/37
f 40/40/40 39/39/39 41/41/41
f 41/41/41 39/39/39 42/42/42
f 44/44/44 43/43/43 45/45/45
f 45/45/45 43/43/43 46/46/46
f 48/48/48 47/47/47 49/49/49
f 49/49/49 47/47/47 50/50/50
f 52/52/52 51/51/51 53/53/53
f 53/53/53 51/51/51 54/54/54
f 56/56/56 55/55/55 57/57/57
f 57/57/57 55/55/55 58/58/58
f 59/59/59 55/55/55 60/60/60
f 60/60/60 55/55/55 61/61/61
f 61/61/61 62/62/62 60/60/60
f 60/60/60 62/62/62 63/63/63
f 64/64/64 62/62/62 65/65/65
f 65/65/65 62/62/62 66/66/66
