mtllib ./wall-concrete_17.mtl
g wall-concrete
v -2.5 0 0.1500793
v -2.5 0 -0.1500793
v -2.5 1.4 -0.1500793
v -2.5 1.4 0.1500793
v -2.5 1.45 0.1087109
v -2.5 1.45 -0.1087109
v -2.5 0 -0.1500793
v 2.5 0 -0.1500793
v 2.5 1.4 -0.1500793
v -2.5 1.4 -0.1500793
v 2.5 0 -0.1500793
v 2.5 0 0.1500793
v 2.5 1.4 0.1500793
v 2.5 1.4 -0.1500793
v 2.5 1.45 -0.1087109
v 2.5 1.45 0.1087109
v 2.5 0 0.1500793
v -2.5 0 0.1500793
v -2.5 1.4 0.1500793
v 2.5 1.4 0.1500793
v -2.5 0 -0.1500793
v -2.5 0 0.1500793
v 2.5 0 0.1500793
v 2.5 0 -0.1500793
v 2.5 1.45 -0.1087109
v 2.5 1.45 0.1087109
v -2.5 1.45 0.1087109
v -2.5 1.45 -0.1087109
v -2.5 1.4 0.1500793
v -2.5 1.45 0.1087109
v 2.5 1.45 0.1087109
v 2.5 1.4 0.1500793
v 2.5 1.4 -0.1500793
v 2.5 1.45 -0.1087109
v -2.5 1.45 -0.1087109
v -2.5 1.4 -0.1500793

vn -1 0 0
vn -1 0 0
vn -1 0 0
vn -1 0 0
vn -1 0 0
vn -1 0 0
vn 0 0 -1
vn 0 0 -1
vn 0 0 -1
vn 0 0 -1
vn 1 0 0
vn 1 0 0
vn 1 0 0
vn 1 0 0
vn 1 0 0
vn 1 0 0
vn 0 0 1
vn 0 0 1
vn 0 0 1
vn 0 0 1
vn 0 -1 0
vn 0 -1 0
vn 0 -1 0
vn 0 -1 0
vn 0 1 0
vn 0 1 0
vn 0 1 0
vn 0 1 0
vn 0 0.6374676 0.7704772
vn 0 0.6374676 0.7704772
vn 0 0.6374676 0.7704772
vn 0 0.6374676 0.7704772
vn 0 0.6374676 -0.7704772
vn 0 0.6374676 -0.7704772
vn 0 0.6374676 -0.7704772
vn 0 0.6374676 -0.7704772

vt 0.3873176 0.6534665
vt 0.3821005 0.6557128
vt 0.3933367 0.6803483
vt 0.3971595 0.6762157
vt 0.3975759 0.6777453
vt 0.3951085 0.6808072
vt 0.3951133 0.7004282
vt 0.4853439 0.7004282
vt 0.4853439 0.682382
vt 0.3951133 0.682382
vt 0.4969006 0.6585836
vt 0.4925327 0.6566282
vt 0.4834951 0.6764869
vt 0.4871201 0.680431
vt 0.4853391 0.6808072
vt 0.4832391 0.678093
vt 0.4925327 0.6566282
vt 0.3873176 0.6534665
vt 0.3971595 0.6762157
vt 0.4834951 0.6764869
vt 0.387444 0.6492594
vt 0.3873176 0.6534665
vt 0.4925327 0.6566282
vt 0.4926591 0.6524211
vt 0.4853391 0.6808072
vt 0.4832391 0.678093
vt 0.3975759 0.6777453
vt 0.3951085 0.6808072
vt 0.3971595 0.6762157
vt 0.3975759 0.6777453
vt 0.4832391 0.678093
vt 0.4834951 0.6764869
vt 0.4853439 0.682382
vt 0.4853391 0.6808072
vt 0.3951085 0.6808072
vt 0.3951133 0.682382

usemtl LOW-POLY-COLORS
usemap LOW-POLY-COLORS
f 2/2/2 1/1/1 3/3/3
f 3/3/3 1/1/1 4/4/4
f 5/5/5 3/3/3 4/4/4
f 6/6/6 3/3/3 5/5/5
f 8/8/8 7/7/7 9/9/9
f 9/9/9 7/7/7 10/10/10
f 12/12/12 11/11/11 13/13/13
f 13/13/13 11/11/11 14/14/14
f 15/15/15 13/13/13 14/14/14
f 16/16/16 13/13/13 15/15/15
f 18/18/18 17/17/17 19/19/19
f 19/19/19 17/17/17 20/20/20
f 22/22/22 21/21/21 23/23/23
f 23/23/23 21/21/21 24/24/24
f 26/26/26 25/25/25 27/27/27
f 27/27/27 25/25/25 28/28/28
f 30/30/30 29/29/29 31/31/31
f 31/31/31 29/29/29 32/32/32
f 34/34/34 33/33/33 35/35/35
f 35/35/35 33/33/33 36/36/36
