mtllib ./barricade-tank_6.mtl
g barricade-tank
v -0.1756536 0.4926423 -0.1071854
v 0.01431248 0.7402472 -0.2422791
v -0.152064 0.7935498 0.04947983
v 0.8628435 1.278294 0.3414873
v 0.8541855 1.167854 0.5549139
v 0.7051253 1.442037 0.41982
v -0.6807826 0.1104983 -0.3254212
v -0.8385011 0.274241 -0.2470888
v -0.6894405 5.835349E-05 -0.1119948
v 0.005654636 0.6298069 -0.02885294
v 0.1869627 0.7669717 0.04947981
v -0.003003456 0.519367 0.1845736
v 0.1869627 0.7669717 0.04947981
v 0.1633732 0.4660642 -0.1071852
v -0.003003456 0.519367 0.1845736
v 0.04251096 1.09994 -0.9373903
v -0.1387973 0.9627754 -1.015723
v 0.2002295 0.9361972 -1.015723
v -0.03120169 0.1596738 0.8796846
v 0.1265169 -0.00406888 0.801352
v -0.2125099 0.02250922 0.801352
v 0.6031759 0.009462927 -0.3256175
v 0.7844841 0.1466276 -0.2472851
v 0.6118338 0.1199029 -0.5390438
v -0.7396115 1.403539 0.3412917
v -0.7309536 1.513979 0.1278654
v -0.5583032 1.540703 0.4196241
v 0.8541855 1.167854 0.5549139
v -0.6894405 5.835349E-05 -0.1119948
v -0.8385011 0.274241 -0.2470888
v 0.7051253 1.442037 0.41982
v 0.8628435 1.278294 0.3414873
v -0.6807826 0.1104983 -0.3254212
v -0.6894405 5.835349E-05 -0.1119948
v 0.8541855 1.167854 0.5549139
v 0.7051253 1.442037 0.41982
v -0.8385011 0.274241 -0.2470888
v -0.6807826 0.1104983 -0.3254212
v 0.8628435 1.278294 0.3414873
v -0.1387973 0.9627754 -1.015723
v -0.2125099 0.02250922 0.801352
v 0.1265169 -0.00406888 0.801352
v 0.2002295 0.9361972 -1.015723
v 0.04251096 1.09994 -0.9373903
v -0.03120169 0.1596738 0.8796846
v -0.2125099 0.02250922 0.801352
v -0.1387973 0.9627754 -1.015723
v 0.2002295 0.9361972 -1.015723
v 0.1265169 -0.00406888 0.801352
v -0.03120169 0.1596738 0.8796846
v 0.04251096 1.09994 -0.9373903
v 0.7844841 0.1466276 -0.2472851
v -0.5583032 1.540703 0.4196241
v -0.7309536 1.513979 0.1278654
v 0.6118338 0.1199029 -0.5390438
v 0.6031759 0.009462927 -0.3256175
v -0.7396115 1.403539 0.3412917
v -0.5583032 1.540703 0.4196241
v 0.7844841 0.1466276 -0.2472851
v 0.6118338 0.1199029 -0.5390438
v -0.7309536 1.513979 0.1278654
v -0.7396115 1.403539 0.3412917
v 0.6031759 0.009462927 -0.3256175

vn -0.7932116 0.3289787 -0.5124338
vn -0.7932116 0.3289787 -0.5124338
vn -0.7932116 0.3289787 -0.5124338
vn 0.7539954 0.5704161 0.3257551
vn 0.7539954 0.5704161 0.3257551
vn 0.7539954 0.5704161 0.3257551
vn -0.7539943 -0.5704171 -0.325756
vn -0.7539943 -0.5704171 -0.325756
vn -0.7539943 -0.5704171 -0.325756
vn -0.6558946 0.6809451 0.3257547
vn -0.6558946 0.6809451 0.3257547
vn -0.6558946 0.6809451 0.3257547
vn 0.7932113 -0.3289783 0.5124346
vn 0.7932113 -0.3289783 0.5124346
vn 0.7932113 -0.3289783 0.5124346
vn 0.03600538 0.4592791 -0.8875619
vn 0.03600538 0.4592791 -0.8875619
vn 0.03600538 0.4592791 -0.8875619
vn -0.03600536 -0.4592799 0.8875616
vn -0.03600536 -0.4592799 0.8875616
vn -0.03600536 -0.4592799 0.8875616
vn 0.6558934 -0.6809453 -0.3257561
vn 0.6558934 -0.6809453 -0.3257561
vn 0.6558934 -0.6809453 -0.3257561
vn -0.6558925 0.6809461 0.3257567
vn -0.6558925 0.6809461 0.3257567
vn -0.6558925 0.6809461 0.3257567
vn -0.4892464 0.156742 0.8579452
vn -0.4892464 0.156742 0.8579452
vn -0.4892464 0.156742 0.8579452
vn -0.4892464 0.156742 0.8579452
vn 0.6558934 -0.6809456 -0.3257559
vn 0.6558934 -0.6809456 -0.3257559
vn 0.6558934 -0.6809456 -0.3257559
vn 0.6558934 -0.6809456 -0.3257559
vn 0.03600512 0.4592792 -0.8875619
vn 0.03600512 0.4592792 -0.8875619
vn 0.03600512 0.4592792 -0.8875619
vn 0.03600512 0.4592792 -0.8875619
vn -0.06936798 -0.8848471 -0.4606883
vn -0.06936798 -0.8848471 -0.4606883
vn -0.06936798 -0.8848471 -0.4606883
vn -0.06936798 -0.8848471 -0.4606883
vn -0.6558935 0.6809456 0.3257557
vn -0.6558935 0.6809456 0.3257557
vn -0.6558935 0.6809456 0.3257557
vn -0.6558935 0.6809456 0.3257557
vn 0.7539944 0.570417 0.3257557
vn 0.7539944 0.570417 0.3257557
vn 0.7539944 0.570417 0.3257557
vn 0.7539944 0.570417 0.3257557
vn 0.5586142 0.7281052 -0.3972568
vn 0.5586142 0.7281052 -0.3972568
vn 0.5586142 0.7281052 -0.3972568
vn 0.5586142 0.7281052 -0.3972568
vn -0.03600532 -0.4592794 0.8875619
vn -0.03600532 -0.4592794 0.8875619
vn -0.03600532 -0.4592794 0.8875619
vn -0.03600532 -0.4592794 0.8875619
vn -0.7539944 -0.5704169 -0.3257559
vn -0.7539944 -0.5704169 -0.3257559
vn -0.7539944 -0.5704169 -0.3257559
vn -0.7539944 -0.5704169 -0.3257559

vt 0.3326629 0.8271063
vt 0.3369131 0.8313956
vt 0.3369131 0.8228169
vt 0.3386736 0.8313956
vt 0.3326629 0.8313956
vt 0.3386736 0.8374617
vt 0.3369131 0.8271063
vt 0.3411632 0.8313956
vt 0.3411632 0.8228169
vt 0.288099 0.8361306
vt 0.2915692 0.8410836
vt 0.2915692 0.8336542
vt 0.3326629 0.828883
vt 0.3326629 0.8228169
vt 0.3266523 0.828883
vt 0.3326629 0.8349491
vt 0.3326629 0.828883
vt 0.3266523 0.8349491
vt 0.3266523 0.8185276
vt 0.3266523 0.8228169
vt 0.3326629 0.8185276
vt 0.288099 0.8336542
vt 0.2820884 0.8336542
vt 0.288099 0.8397202
vt 0.3326629 0.8185276
vt 0.332663 0.8228169
vt 0.3386736 0.8185276
vt 0.2905886 0.8336542
vt 0.2905886 0.7820086
vt 0.2820884 0.7820086
vt 0.2820884 0.8336542
vt 0.2965993 0.8336542
vt 0.2965993 0.7820086
vt 0.2905886 0.7820086
vt 0.2905886 0.8336542
vt 0.3026099 0.7820086
vt 0.3026099 0.8336542
vt 0.3086205 0.8336542
vt 0.3086205 0.7820086
vt 0.2965993 0.7820086
vt 0.2965993 0.8336542
vt 0.3026099 0.8336542
vt 0.3026099 0.7820086
vt 0.3266523 0.7820086
vt 0.3266523 0.8185276
vt 0.3326629 0.8185276
vt 0.3326629 0.7820086
vt 0.3146311 0.7820086
vt 0.3146311 0.8336542
vt 0.3206417 0.8336542
vt 0.3206417 0.7820086
vt 0.3146311 0.8336541
vt 0.3146311 0.7820086
vt 0.3086205 0.7820086
vt 0.3086205 0.8336542
vt 0.332663 0.7820086
vt 0.3326629 0.8185276
vt 0.3386736 0.8185276
vt 0.3386736 0.7820086
vt 0.3266523 0.8336542
vt 0.3266523 0.7820086
vt 0.3206417 0.7820086
vt 0.3206417 0.8336542

usemtl LOW-POLY-COLORS
usemap LOW-POLY-COLORS
f 2/2/2 1/1/1 3/3/3
f 5/5/5 4/4/4 6/6/6
f 8/8/8 7/7/7 9/9/9
f 11/11/11 10/10/10 12/12/12
f 14/14/14 13/13/13 15/15/15
f 17/17/17 16/16/16 18/18/18
f 20/20/20 19/19/19 21/21/21
f 23/23/23 22/22/22 24/24/24
f 26/26/26 25/25/25 27/27/27
f 29/29/29 28/28/28 30/30/30
f 30/30/30 28/28/28 31/31/31
f 33/33/33 32/32/32 34/34/34
f 34/34/34 32/32/32 35/35/35
f 37/37/37 36/36/36 38/38/38
f 38/38/38 36/36/36 39/39/39
f 41/41/41 40/40/40 42/42/42
f 42/42/42 40/40/40 43/43/43
f 45/45/45 44/44/44 46/46/46
f 46/46/46 44/44/44 47/47/47
f 49/49/49 48/48/48 50/50/50
f 50/50/50 48/48/48 51/51/51
f 53/53/53 52/52/52 54/54/54
f 54/54/54 52/52/52 55/55/55
f 57/57/57 56/56/56 58/58/58
f 58/58/58 56/56/56 59/59/59
f 61/61/61 60/60/60 62/62/62
f 62/62/62 60/60/60 63/63/63
