mtllib ./log-ramp_10.mtl
g log-ramp
v -0.1153959 0.7408153 0.8286124
v -6.576505E-08 0.214301 2.401162
v -0.1153961 0.1518541 2.377942
v 6.673409E-08 0.8032619 0.8518324
v -0.1153959 1.221538 -0.3618672
v 1.736726E-07 1.283985 -0.3386472
v -0.1153958 1.677041 -1.586876
v 2.767478E-07 1.739488 -1.563656
v 6.673409E-08 0.8032619 0.8518324
v 0.115396 0.1518541 2.377942
v -6.576505E-08 0.214301 2.401162
v 0.1153961 0.7408151 0.8286123
v 1.736726E-07 1.283985 -0.3386472
v 0.1153962 1.221538 -0.3618674
v 2.767478E-07 1.739488 -1.563656
v 0.1153963 1.677041 -1.586876
v 0.1153962 0.615922 0.7821725
v -8.820697E-08 -0.03548564 2.308282
v 0.1153961 0.02696095 2.331502
v 4.481172E-08 0.5534754 0.7589524
v 0.1153963 1.096645 -0.4083071
v 1.521529E-07 1.034198 -0.4315274
v 0.1153963 1.552148 -1.633316
v 2.556405E-07 1.489702 -1.656536
v -0.115396 0.6159221 0.7821726
v -0.1153961 0.1518541 2.377942
v -0.115396 0.02696095 2.331502
v -0.1153959 0.7408153 0.8286124
v -0.1153959 1.096645 -0.4083071
v -0.1153959 1.221538 -0.3618672
v -0.1153959 1.552148 -1.633316
v -0.1153958 1.677041 -1.586876
v 0.1153961 0.7408151 0.8286123
v 0.1153961 0.02696095 2.331502
v 0.115396 0.1518541 2.377942
v 0.1153962 0.615922 0.7821725
v 0.1153962 1.221538 -0.3618674
v 0.1153963 1.096645 -0.4083071
v 0.1153963 1.677041 -1.586876
v 0.1153963 1.552148 -1.633316
v 4.481172E-08 0.5534754 0.7589524
v -0.115396 0.02696095 2.331502
v -8.820697E-08 -0.03548564 2.308282
v -0.115396 0.6159221 0.7821726
v 1.521529E-07 1.034198 -0.4315274
v -0.1153959 1.096645 -0.4083071
v 2.556405E-07 1.489702 -1.656536
v -0.1153959 1.552148 -1.633316
v 0.115396 0.1518541 2.377942
v 0.1153961 0.02696095 2.331502
v -8.820697E-08 -0.03548564 2.308282
v -6.576505E-08 0.214301 2.401162
v -0.1153961 0.1518541 2.377942
v -0.115396 0.02696095 2.331502
v 2.556405E-07 1.489702 -1.656536
v 0.1153963 1.552148 -1.633316
v 0.1153963 1.677041 -1.586876
v 2.767478E-07 1.739488 -1.563656
v -0.1153958 1.677041 -1.586876
v -0.1153959 1.552148 -1.633316
v -0.7051578 0.02122456 -1.353272
v -0.6309838 -0.002720298 -1.402851
v -0.05363451 1.415008 -1.223804
v -0.1278085 1.438952 -1.174225
v -0.6309838 -0.002720298 -1.402851
v -0.5568098 -0.03823954 -1.360782
v 0.02053957 1.379488 -1.181735
v -0.05363451 1.415008 -1.223804
v -0.5568098 -0.0498138 -1.269135
v -0.6309838 -0.02586883 -1.219557
v -0.05363448 1.391859 -1.040509
v 0.02053962 1.367914 -1.090088
v -0.7051578 0.009650414 -1.261625
v -0.7051578 0.02122456 -1.353272
v -0.1278085 1.438952 -1.174225
v -0.1278084 1.427378 -1.082578
v -0.5568098 -0.03823954 -1.360782
v -0.5568098 -0.0498138 -1.269135
v 0.02053962 1.367914 -1.090088
v 0.02053957 1.379488 -1.181735
v -0.6309838 -0.02586883 -1.219557
v -0.7051578 0.009650414 -1.261625
v -0.1278084 1.427378 -1.082578
v -0.05363448 1.391859 -1.040509
v -0.1278085 1.438952 -1.174225
v -0.05363451 1.415008 -1.223804
v 0.02053957 1.379488 -1.181735
v 0.02053962 1.367914 -1.090088
v -0.1278084 1.427378 -1.082578
v -0.05363448 1.391859 -1.040509
v 0.7051578 0.02122432 -1.353272
v 0.127809 1.438952 -1.174225
v 0.05363499 1.415008 -1.223804
v 0.6309838 -0.002720536 -1.402851
v 0.6309838 -0.002720536 -1.402851
v 0.05363499 1.415008 -1.223804
v -0.02053908 1.379488 -1.181735
v 0.5568098 -0.03823966 -1.360782
v 0.5568098 -0.04981404 -1.269135
v -0.02053914 1.367914 -1.090088
v 0.05363496 1.391859 -1.040509
v 0.6309838 -0.02586907 -1.219557
v 0.7051578 0.009650175 -1.261625
v 0.1278089 1.427378 -1.082578
v 0.127809 1.438952 -1.174225
v 0.7051578 0.02122432 -1.353272
v 0.5568098 -0.03823966 -1.360782
v -0.02053908 1.379488 -1.181735
v -0.02053914 1.367914 -1.090088
v 0.5568098 -0.04981404 -1.269135
v 0.6309838 -0.02586907 -1.219557
v 0.05363496 1.391859 -1.040509
v 0.1278089 1.427378 -1.082578
v 0.7051578 0.009650175 -1.261625
v -0.02053908 1.379488 -1.181735
v 0.05363499 1.415008 -1.223804
v 0.127809 1.438952 -1.174225
v -0.02053914 1.367914 -1.090088
v 0.1278089 1.427378 -1.082578
v 0.05363496 1.391859 -1.040509
v -0.5568098 -0.03823954 -1.360782
v -0.6309838 -0.002720298 -1.402851
v -0.7051578 0.02122456 -1.353272
v -0.5568098 -0.0498138 -1.269135
v -0.7051578 0.009650414 -1.261625
v -0.6309838 -0.02586883 -1.219557
v 0.7051578 0.02122432 -1.353272
v 0.6309838 -0.002720536 -1.402851
v 0.5568098 -0.03823966 -1.360782
v 0.5568098 -0.04981404 -1.269135
v 0.7051578 0.009650175 -1.261625
v 0.6309838 -0.02586907 -1.219557

vn -0.499991 0.8095137 0.3077279
vn -0.499991 0.8095137 0.3077279
vn -0.499991 0.8095137 0.3077279
vn -0.499991 0.8095137 0.3077279
vn -0.4999984 0.8117268 0.3018299
vn -0.4999984 0.8117268 0.3018299
vn -0.4999984 0.8117268 0.3018299
vn -0.4999984 0.8117268 0.3018299
vn 0.4999911 0.8095137 0.3077279
vn 0.4999911 0.8095137 0.3077279
vn 0.4999911 0.8095137 0.3077279
vn 0.4999911 0.8095137 0.3077279
vn 0.4999993 0.8117262 0.3018296
vn 0.4999993 0.8117262 0.3018296
vn 0.4999993 0.8117262 0.3018296
vn 0.4999993 0.8117262 0.3018296
vn 0.4999895 -0.8095146 -0.3077282
vn 0.4999895 -0.8095146 -0.3077282
vn 0.4999895 -0.8095146 -0.3077282
vn 0.4999895 -0.8095146 -0.3077282
vn 0.5000017 -0.811725 -0.3018293
vn 0.5000017 -0.811725 -0.3018293
vn 0.5000017 -0.811725 -0.3018293
vn 0.5000017 -0.811725 -0.3018293
vn -1 0 0
vn -1 0 0
vn -1 0 0
vn -1 0 0
vn -1 5.187505E-07 1.283485E-07
vn -1 5.187505E-07 1.283485E-07
vn -1 5.187505E-07 1.283485E-07
vn -1 5.187505E-07 1.283485E-07
vn 1 3.439397E-07 2.024137E-07
vn 1 3.439397E-07 2.024137E-07
vn 1 3.439397E-07 2.024137E-07
vn 1 3.439397E-07 2.024137E-07
vn 1 4.518154E-07 2.353055E-07
vn 1 4.518154E-07 2.353055E-07
vn 1 4.518154E-07 2.353055E-07
vn 1 4.518154E-07 2.353055E-07
vn -0.4999906 -0.809514 -0.3077281
vn -0.4999906 -0.809514 -0.3077281
vn -0.4999906 -0.809514 -0.3077281
vn -0.4999906 -0.809514 -0.3077281
vn -0.5000022 -0.8117247 -0.3018292
vn -0.5000022 -0.8117247 -0.3018292
vn -0.5000022 -0.8117247 -0.3018292
vn -0.5000022 -0.8117247 -0.3018292
vn 0 -0.3485228 0.9373003
vn 0 -0.3485228 0.9373003
vn 0 -0.3485228 0.9373003
vn 0 -0.3485228 0.9373003
vn 0 -0.3485228 0.9373003
vn 0 -0.3485228 0.9373003
vn -2.422753E-07 0.3485243 -0.9372998
vn -2.422753E-07 0.3485243 -0.9372998
vn -2.422753E-07 0.3485243 -0.9372998
vn -2.422753E-07 0.3485243 -0.9372998
vn -2.422753E-07 0.3485243 -0.9372998
vn -2.422753E-07 0.3485243 -0.9372998
vn -0.4635938 0.2943384 -0.8357307
vn -0.4635938 0.2943384 -0.8357307
vn -0.4635938 0.2943384 -0.8357307
vn -0.4635938 0.2943384 -0.8357307
vn 0.4635931 -0.0773176 -0.8826684
vn 0.4635931 -0.0773176 -0.8826684
vn 0.4635931 -0.0773176 -0.8826684
vn 0.4635931 -0.0773176 -0.8826684
vn 0.463592 -0.2943366 0.8357323
vn 0.463592 -0.2943366 0.8357323
vn 0.463592 -0.2943366 0.8357323
vn 0.463592 -0.2943366 0.8357323
vn -0.9271837 0.3716546 0.04693729
vn -0.9271837 0.3716546 0.04693729
vn -0.9271837 0.3716546 0.04693729
vn -0.9271837 0.3716546 0.04693729
vn 0.9271837 -0.3716547 -0.04693777
vn 0.9271837 -0.3716547 -0.04693777
vn 0.9271837 -0.3716547 -0.04693777
vn 0.9271837 -0.3716547 -0.04693777
vn -0.4635912 0.07731614 0.8826694
vn -0.4635912 0.07731614 0.8826694
vn -0.4635912 0.07731614 0.8826694
vn -0.4635912 0.07731614 0.8826694
vn 0.3746063 0.9198771 0.1161735
vn 0.3746063 0.9198771 0.1161735
vn 0.3746063 0.9198771 0.1161735
vn 0.3746063 0.9198771 0.1161735
vn 0.3746063 0.9198771 0.1161735
vn 0.3746063 0.9198771 0.1161735
vn 0.4635936 0.2943377 -0.835731
vn 0.4635936 0.2943377 -0.835731
vn 0.4635936 0.2943377 -0.835731
vn 0.4635936 0.2943377 -0.835731
vn -0.4635942 -0.07731815 -0.8826678
vn -0.4635942 -0.07731815 -0.8826678
vn -0.4635942 -0.07731815 -0.8826678
vn -0.4635942 -0.07731815 -0.8826678
vn -0.4635913 -0.2943364 0.8357328
vn -0.4635913 -0.2943364 0.8357328
vn -0.4635913 -0.2943364 0.8357328
vn -0.4635913 -0.2943364 0.8357328
vn 0.9271837 0.3716547 0.04693675
vn 0.9271837 0.3716547 0.04693675
vn 0.9271837 0.3716547 0.04693675
vn 0.9271837 0.3716547 0.04693675
vn -0.9271837 -0.3716544 -0.04693796
vn -0.9271837 -0.3716544 -0.04693796
vn -0.9271837 -0.3716544 -0.04693796
vn -0.9271837 -0.3716544 -0.04693796
vn 0.4635912 0.07731672 0.8826694
vn 0.4635912 0.07731672 0.8826694
vn 0.4635912 0.07731672 0.8826694
vn 0.4635912 0.07731672 0.8826694
vn -0.3746049 0.9198776 0.1161733
vn -0.3746049 0.9198776 0.1161733
vn -0.3746049 0.9198776 0.1161733
vn -0.3746049 0.9198776 0.1161733
vn -0.3746049 0.9198776 0.1161733
vn -0.3746049 0.9198776 0.1161733
vn -0.3746065 -0.9198771 -0.1161725
vn -0.3746065 -0.9198771 -0.1161725
vn -0.3746065 -0.9198771 -0.1161725
vn -0.3746065 -0.9198771 -0.1161725
vn -0.3746065 -0.9198771 -0.1161725
vn -0.3746065 -0.9198771 -0.1161725
vn 0.3746062 -0.9198772 -0.1161727
vn 0.3746062 -0.9198772 -0.1161727
vn 0.3746062 -0.9198772 -0.1161727
vn 0.3746062 -0.9198772 -0.1161727
vn 0.3746062 -0.9198772 -0.1161727
vn 0.3746062 -0.9198772 -0.1161727

vt 0.1795309 0.8002224
vt 0.1829136 0.7582476
vt 0.1795464 0.7582347
vt 0.1829136 0.8002507
vt 0.1795648 0.8326725
vt 0.1829155 0.8326957
vt 0.1795327 0.8656367
vt 0.1829058 0.8656391
vt 0.1829136 0.8002507
vt 0.1862806 0.7582347
vt 0.1829136 0.7582476
vt 0.1862964 0.8002224
vt 0.1829155 0.8326957
vt 0.1862652 0.8326712
vt 0.1829058 0.8656391
vt 0.1862859 0.8656392
vt 0.189668 0.8001648
vt 0.1930293 0.7581961
vt 0.1896576 0.7582092
vt 0.1930397 0.800137
vt 0.1896231 0.8326244
vt 0.1929922 0.8326019
vt 0.1896596 0.8656368
vt 0.1930201 0.865634
vt 0.1761591 0.8001648
vt 0.1795464 0.7582347
vt 0.1761695 0.7582092
vt 0.1795309 0.8002224
vt 0.176205 0.832626
vt 0.1795648 0.8326725
vt 0.1761728 0.8656336
vt 0.1795327 0.8656367
vt 0.1862964 0.8002224
vt 0.1896576 0.7582092
vt 0.1862806 0.7582347
vt 0.189668 0.8001648
vt 0.1862652 0.8326712
vt 0.1896231 0.8326244
vt 0.1862859 0.8656392
vt 0.1896596 0.8656368
vt 0.1727874 0.800137
vt 0.1761695 0.7582092
vt 0.1727979 0.7581961
vt 0.1761591 0.8001648
vt 0.172835 0.832603
vt 0.176205 0.832626
vt 0.1728055 0.8656306
vt 0.1761728 0.8656336
vt 0.4315677 0.8064852
vt 0.4257039 0.8098707
vt 0.4257039 0.8166417
vt 0.4374317 0.8098707
vt 0.4374316 0.8166417
vt 0.4315677 0.8200271
vt 0.4374812 0.8166416
vt 0.4433451 0.8200271
vt 0.4492089 0.8166417
vt 0.4492089 0.8098707
vt 0.4433451 0.8064852
vt 0.4374812 0.8098707
vt 0.1930644 0.765203
vt 0.1930644 0.7675387
vt 0.2320328 0.7675387
vt 0.2320328 0.7652031
vt 0.1930644 0.7675387
vt 0.1930644 0.7698743
vt 0.2320328 0.7698743
vt 0.2320328 0.7675387
vt 0.1930644 0.7581961
vt 0.1930644 0.7605318
vt 0.2320328 0.7605318
vt 0.2320328 0.7581961
vt 0.1930644 0.7628674
vt 0.1930644 0.765203
vt 0.2320328 0.7652031
vt 0.2320328 0.7628674
vt 0.1930644 0.7698743
vt 0.1930644 0.77221
vt 0.2320328 0.7722099
vt 0.2320328 0.7698743
vt 0.1930644 0.7605318
vt 0.1930644 0.7628674
vt 0.2320328 0.7628674
vt 0.2320328 0.7605318
vt 0.4257039 0.8271177
vt 0.429769 0.8294648
vt 0.4338343 0.8271177
vt 0.4338343 0.8224238
vt 0.4257039 0.8224238
vt 0.429769 0.8200767
vt 0.1930644 0.7792416
vt 0.2320328 0.7792417
vt 0.2320328 0.776906
vt 0.1930644 0.776906
vt 0.1930644 0.776906
vt 0.2320328 0.776906
vt 0.2320328 0.7745703
vt 0.1930644 0.7745703
vt 0.1930644 0.7862485
vt 0.2320328 0.7862486
vt 0.2320328 0.783913
vt 0.1930644 0.7839129
vt 0.1930644 0.7815772
vt 0.2320328 0.7815773
vt 0.2320328 0.7792417
vt 0.1930644 0.7792416
vt 0.1930644 0.7745703
vt 0.2320328 0.7745703
vt 0.2320328 0.7722347
vt 0.1930644 0.7722347
vt 0.1930644 0.7839129
vt 0.2320328 0.783913
vt 0.2320328 0.7815773
vt 0.1930644 0.7815772
vt 0.4362308 0.828207
vt 0.4409249 0.828207
vt 0.443272 0.8241419
vt 0.4338839 0.8241419
vt 0.4409249 0.8200767
vt 0.4362309 0.8200767
vt 0.4516056 0.8227954
vt 0.4562997 0.8227954
vt 0.4586466 0.8187303
vt 0.4492586 0.8187303
vt 0.4562997 0.8146651
vt 0.4516056 0.8146651
vt 0.4516056 0.8146155
vt 0.4562997 0.8146155
vt 0.4586466 0.8105503
vt 0.4562997 0.8064852
vt 0.4492586 0.8105503
vt 0.4516056 0.8064852

usemtl LOW-POLY-COLORS
usemap LOW-POLY-COLORS
f 2/2/2 1/1/1 3/3/3
f 4/4/4 1/1/1 2/2/2
f 4/4/4 5/5/5 1/1/1
f 6/6/6 5/5/5 4/4/4
f 6/6/6 7/7/7 5/5/5
f 8/8/8 7/7/7 6/6/6
f 10/10/10 9/9/9 11/11/11
f 12/12/12 9/9/9 10/10/10
f 12/12/12 13/13/13 9/9/9
f 14/14/14 13/13/13 12/12/12
f 14/14/14 15/15/15 13/13/13
f 16/16/16 15/15/15 14/14/14
f 18/18/18 17/17/17 19/19/19
f 20/20/20 17/17/17 18/18/18
f 20/20/20 21/21/21 17/17/17
f 22/22/22 21/21/21 20/20/20
f 22/22/22 23/23/23 21/21/21
f 24/24/24 23/23/23 22/22/22
f 26/26/26 25/25/25 27/27/27
f 28/28/28 25/25/25 26/26/26
f 28/28/28 29/29/29 25/25/25
f 30/30/30 29/29/29 28/28/28
f 30/30/30 31/31/31 29/29/29
f 32/32/32 31/31/31 30/30/30
f 34/34/34 33/33/33 35/35/35
f 36/36/36 33/33/33 34/34/34
f 36/36/36 37/37/37 33/33/33
f 38/38/38 37/37/37 36/36/36
f 38/38/38 39/39/39 37/37/37
f 40/40/40 39/39/39 38/38/38
f 42/42/42 41/41/41 43/43/43
f 44/44/44 41/41/41 42/42/42
f 44/44/44 45/45/45 41/41/41
f 46/46/46 45/45/45 44/44/44
f 46/46/46 47/47/47 45/45/45
f 48/48/48 47/47/47 46/46/46
f 50/50/50 49/49/49 51/51/51
f 52/52/52 51/51/51 49/49/49
f 53/53/53 51/51/51 52/52/52
f 54/54/54 51/51/51 53/53/53
f 56/56/56 55/55/55 57/57/57
f 58/58/58 57/57/57 55/55/55
f 59/59/59 58/58/58 55/55/55
f 60/60/60 59/59/59 55/55/55
f 62/62/62 61/61/61 63/63/63
f 63/63/63 61/61/61 64/64/64
f 66/66/66 65/65/65 67/67/67
f 67/67/67 65/65/65 68/68/68
f 70/70/70 69/69/69 71/71/71
f 71/71/71 69/69/69 72/72/72
f 74/74/74 73/73/73 75/75/75
f 75/75/75 73/73/73 76/76/76
f 78/78/78 77/77/77 79/79/79
f 79/79/79 77/77/77 80/80/80
f 82/82/82 81/81/81 83/83/83
f 83/83/83 81/81/81 84/84/84
f 86/86/86 85/85/85 87/87/87
f 88/88/88 87/87/87 85/85/85
f 89/89/89 88/88/88 85/85/85
f 90/90/90 88/88/88 89/89/89
f 92/92/92 91/91/91 93/93/93
f 93/93/93 91/91/91 94/94/94
f 96/96/96 95/95/95 97/97/97
f 97/97/97 95/95/95 98/98/98
f 100/100/100 99/99/99 101/101/101
f 101/101/101 99/99/99 102/102/102
f 104/104/104 103/103/103 105/105/105
f 105/105/105 103/103/103 106/106/106
f 108/108/108 107/107/107 109/109/109
f 109/109/109 107/107/107 110/110/110
f 112/112/112 111/111/111 113/113/113
f 113/113/113 111/111/111 114/114/114
f 116/116/116 115/115/115 117/117/117
f 118/118/118 117/117/117 115/115/115
f 119/119/119 117/117/117 118/118/118
f 120/120/120 119/119/119 118/118/118
f 122/122/122 121/121/121 123/123/123
f 124/124/124 123/123/123 121/121/121
f 125/125/125 123/123/123 124/124/124
f 126/126/126 125/125/125 124/124/124
f 128/128/128 127/127/127 129/129/129
f 130/130/130 129/129/129 127/127/127
f 131/131/131 130/130/130 127/127/127
f 132/132/132 130/130/130 131/131/131
