mtllib ./grass-clumb_white_0.mtl
g grass-clumb_white
v -0.07974684 0.2472316 0.1152153
v 0.07974694 0.2472316 0.1152153
v 6.686562E-08 0.3824269 0.3478142
v -0.1122216 0.2472317 -0.1298236
v -0.1718452 0.2472317 0.01810657
v -0.3577684 0.382427 -0.142811
v 0.1257967 0.2472316 0.04280529
v 0.1004052 0.2472316 -0.1146544
v 0.3427334 0.3824268 -0.0729544
v 0.112234 0.2472316 -0.1054871
v -0.01966189 0.2472316 -0.1951629
v 0.1770655 0.3824268 -0.3426763
v -0.2494529 0.19786 0.0897982
v -0.1546638 0.1978601 0.2180687
v -0.4269629 0.1903208 0.3201742
v -0.02318127 0.19786 -0.264108
v -0.1713909 0.19786 -0.2051829
v -0.2006433 0.1903209 -0.4945211
v 0.1887738 0.1978599 0.1861583
v 0.263491 0.1978599 0.04524845
v 0.4732358 0.1903206 0.2466917
v -0.07974684 0.2472316 0.1152153
v 6.686562E-08 0.3824269 0.3478142
v 0.07974694 0.2472316 0.1152153
v -0.1122216 0.2472317 -0.1298236
v -0.3577684 0.382427 -0.142811
v -0.1718452 0.2472317 0.01810657
v 0.1257967 0.2472316 0.04280529
v 0.3427334 0.3824268 -0.0729544
v 0.1004052 0.2472316 -0.1146544
v 0.112234 0.2472316 -0.1054871
v 0.1770655 0.3824268 -0.3426763
v -0.01966189 0.2472316 -0.1951629
v -0.2494529 0.19786 0.0897982
v -0.4269629 0.1903208 0.3201742
v -0.1546638 0.1978601 0.2180687
v -0.02318127 0.19786 -0.264108
v -0.2006433 0.1903209 -0.4945211
v -0.1713909 0.19786 -0.2051829
v 0.1887738 0.1978599 0.1861583
v 0.4732358 0.1903206 0.2466917
v 0.263491 0.1978599 0.04524845
v 0.04168414 -7.288288E-09 2.220446E-16
v 0.07974694 0.2472316 0.1152153
v -0.07974684 0.2472316 0.1152153
v -0.04168412 7.288286E-09 0
v -0.05075438 6.718938E-09 0.02587434
v -0.1718452 0.2472317 0.01810657
v -0.1122216 0.2472317 -0.1298236
v -0.01958883 8.926942E-09 -0.05144949
v -0.007281042 2.350965E-08 -0.05873474
v 0.1004052 0.2472316 -0.1146544
v 0.1257967 0.2472316 0.04280529
v 0.005991236 1.220616E-08 0.02357025
v -0.05296536 3.38223E-08 -0.07848296
v -0.01966189 0.2472316 -0.1951629
v 0.112234 0.2472316 -0.1054871
v 0.01597732 1.724478E-08 -0.03160895
v 0.0434352 -1.011836E-08 0.02419293
v -0.1546638 0.1978601 0.2180687
v -0.2494529 0.19786 0.0897982
v -0.006111501 5.577339E-09 -0.04285477
v -0.03447423 1.565967E-09 0.03582516
v -0.1713909 0.19786 -0.2051829
v -0.02318127 0.19786 -0.264108
v 0.04299574 -8.162268E-09 0.005024649
v 0.003048695 5.281412E-09 -0.04962479
v 0.263491 0.1978599 0.04524845
v 0.1887738 0.1978599 0.1861583
v -0.03600638 4.775658E-09 0.02402961
v 0.04168414 -7.288288E-09 2.220446E-16
v -0.04168412 7.288286E-09 0
v -0.07974684 0.2472316 0.1152153
v 0.07974694 0.2472316 0.1152153
v -0.05075438 6.718938E-09 0.02587434
v -0.01958883 8.926942E-09 -0.05144949
v -0.1122216 0.2472317 -0.1298236
v -0.1718452 0.2472317 0.01810657
v -0.007281042 2.350965E-08 -0.05873474
v 0.005991236 1.220616E-08 0.02357025
v 0.1257967 0.2472316 0.04280529
v 0.1004052 0.2472316 -0.1146544
v -0.05296536 3.38223E-08 -0.07848296
v 0.01597732 1.724478E-08 -0.03160895
v 0.112234 0.2472316 -0.1054871
v -0.01966189 0.2472316 -0.1951629
v 0.0434352 -1.011836E-08 0.02419293
v -0.006111501 5.577339E-09 -0.04285477
v -0.2494529 0.19786 0.0897982
v -0.1546638 0.1978601 0.2180687
v -0.03447423 1.565967E-09 0.03582516
v 0.04299574 -8.162268E-09 0.005024649
v -0.02318127 0.19786 -0.264108
v -0.1713909 0.19786 -0.2051829
v 0.003048695 5.281412E-09 -0.04962479
v -0.03600638 4.775658E-09 0.02402961
v 0.1887738 0.1978599 0.1861583
v 0.263491 0.1978599 0.04524845

vn 0 0.8645665 -0.5025185
vn 0 0.8645665 -0.5025185
vn 0 0.8645665 -0.5025185
vn 0.4660845 0.8645666 0.1878563
vn 0.4660845 0.8645666 0.1878563
vn 0.4660845 0.8645666 0.1878563
vn -0.4961093 0.8645666 0.08000121
vn -0.4961093 0.8645666 0.08000121
vn -0.4961093 0.8645666 0.08000121
vn -0.2825424 0.8645666 0.4155653
vn -0.2825424 0.8645666 0.4155653
vn -0.2825424 0.8645666 0.4155653
vn -0.02167229 0.9996369 0.01601492
vn -0.02167229 0.9996369 0.01601492
vn -0.02167229 0.9996369 0.01601492
vn -0.009955341 0.9996369 -0.0250405
vn -0.009955341 0.9996369 -0.0250405
vn -0.009955341 0.9996369 -0.0250405
vn 0.02380791 0.9996369 0.012624
vn 0.02380791 0.9996369 0.012624
vn 0.02380791 0.9996369 0.012624
vn 0 -0.8645665 0.5025185
vn 0 -0.8645665 0.5025185
vn 0 -0.8645665 0.5025185
vn -0.4660845 -0.8645666 -0.1878563
vn -0.4660845 -0.8645666 -0.1878563
vn -0.4660845 -0.8645666 -0.1878563
vn 0.4961093 -0.8645666 -0.08000121
vn 0.4961093 -0.8645666 -0.08000121
vn 0.4961093 -0.8645666 -0.08000121
vn 0.2825424 -0.8645666 -0.4155653
vn 0.2825424 -0.8645666 -0.4155653
vn 0.2825424 -0.8645666 -0.4155653
vn 0.02167229 -0.9996369 -0.01601492
vn 0.02167229 -0.9996369 -0.01601492
vn 0.02167229 -0.9996369 -0.01601492
vn 0.009955341 -0.9996369 0.0250405
vn 0.009955341 -0.9996369 0.0250405
vn 0.009955341 -0.9996369 0.0250405
vn -0.02380791 -0.9996369 -0.012624
vn -0.02380791 -0.9996369 -0.012624
vn -0.02380791 -0.9996369 -0.012624
vn 0 0.4224052 -0.9064071
vn 0 0.4224052 -0.9064071
vn 0 0.4224052 -0.9064071
vn 0 0.4224052 -0.9064071
vn 0.8406903 0.4224049 0.3388422
vn 0.8406903 0.4224049 0.3388422
vn 0.8406903 0.4224049 0.3388422
vn 0.8406903 0.4224049 0.3388422
vn -0.894847 0.4224052 0.1443006
vn -0.894847 0.4224052 0.1443006
vn -0.894847 0.4224052 0.1443006
vn -0.894847 0.4224052 0.1443006
vn -0.5096298 0.4224052 0.7495674
vn -0.5096298 0.4224052 0.7495674
vn -0.5096298 0.4224052 0.7495674
vn -0.5096298 0.4224052 0.7495674
vn 0.4702167 0.811267 -0.3474795
vn 0.4702167 0.811267 -0.3474795
vn 0.4702167 0.811267 -0.3474795
vn 0.4702167 0.811267 -0.3474795
vn 0.2160091 0.8112671 0.54331
vn 0.2160091 0.8112671 0.54331
vn 0.2160091 0.8112671 0.54331
vn 0.2160091 0.8112671 0.54331
vn -0.5165504 0.8112673 -0.2738998
vn -0.5165504 0.8112673 -0.2738998
vn -0.5165504 0.8112673 -0.2738998
vn -0.5165504 0.8112673 -0.2738998
vn 0 -0.4224052 0.9064071
vn 0 -0.4224052 0.9064071
vn 0 -0.4224052 0.9064071
vn 0 -0.4224052 0.9064071
vn -0.8406903 -0.422405 -0.3388422
vn -0.8406903 -0.422405 -0.3388422
vn -0.8406903 -0.422405 -0.3388422
vn -0.8406903 -0.422405 -0.3388422
vn 0.894847 -0.4224052 -0.1443006
vn 0.894847 -0.4224052 -0.1443006
vn 0.894847 -0.4224052 -0.1443006
vn 0.894847 -0.4224052 -0.1443006
vn 0.5096298 -0.4224052 -0.7495674
vn 0.5096298 -0.4224052 -0.7495674
vn 0.5096298 -0.4224052 -0.7495674
vn 0.5096298 -0.4224052 -0.7495674
vn -0.4702167 -0.8112671 0.3474795
vn -0.4702167 -0.8112671 0.3474795
vn -0.4702167 -0.8112671 0.3474795
vn -0.4702167 -0.8112671 0.3474795
vn -0.2160092 -0.8112671 -0.54331
vn -0.2160092 -0.8112671 -0.54331
vn -0.2160092 -0.8112671 -0.54331
vn -0.2160092 -0.8112671 -0.54331
vn 0.5165504 -0.8112673 0.2738998
vn 0.5165504 -0.8112673 0.2738998
vn 0.5165504 -0.8112673 0.2738998
vn 0.5165504 -0.8112673 0.2738998

vt 0.867851 0.2893001
vt 0.861001 0.2893001
vt 0.864426 0.3008547
vt 0.8540783 0.2893001
vt 0.8472283 0.2893001
vt 0.8506533 0.3008547
vt 0.8609647 0.2893001
vt 0.8541147 0.2893001
vt 0.8575397 0.3008547
vt 0.8471919 0.3126057
vt 0.8403419 0.3126057
vt 0.8437669 0.3241603
vt 0.8257715 0.2844356
vt 0.8257715 0.2775856
vt 0.8137556 0.2810091
vt 0.8282897 0.3120174
vt 0.8282897 0.3188673
vt 0.8403056 0.3154438
vt 0.8282897 0.2982447
vt 0.8282897 0.3050947
vt 0.8403056 0.301671
vt 0.8472283 0.3126057
vt 0.8506533 0.3241603
vt 0.8540783 0.3126057
vt 0.861001 0.3126057
vt 0.864426 0.3241603
vt 0.867851 0.3126057
vt 0.8403419 0.2893001
vt 0.8437669 0.3008547
vt 0.8471919 0.2893001
vt 0.8541147 0.3126057
vt 0.8575397 0.3241603
vt 0.8609647 0.3126057
vt 0.8257715 0.2844719
vt 0.8137556 0.2878984
vt 0.8257715 0.2913219
vt 0.8282897 0.311981
vt 0.8403056 0.3085546
vt 0.8282897 0.305131
vt 0.8282897 0.2982083
vt 0.8403056 0.2947819
vt 0.8282897 0.2913583
vt 0.8626357 0.2775856
vt 0.861001 0.2893001
vt 0.867851 0.2893001
vt 0.8662163 0.2775856
vt 0.8488631 0.2775856
vt 0.8472283 0.2893001
vt 0.8540783 0.2893001
vt 0.8524436 0.2775856
vt 0.8557494 0.2775856
vt 0.8541147 0.2893001
vt 0.8609647 0.2893001
vt 0.8593299 0.2775856
vt 0.8419767 0.3008911
vt 0.8403419 0.3126057
vt 0.8471919 0.3126057
vt 0.8455572 0.3008911
vt 0.8403056 0.2792258
vt 0.8257715 0.2775856
vt 0.8257715 0.2844356
vt 0.8403056 0.2828063
vt 0.8137556 0.3172272
vt 0.8282897 0.3188673
vt 0.8282897 0.3120174
vt 0.8137556 0.3136467
vt 0.8137556 0.3034545
vt 0.8282897 0.3050947
vt 0.8282897 0.2982447
vt 0.8137556 0.2998739
vt 0.8524436 0.3008911
vt 0.8488631 0.3008911
vt 0.8472283 0.3126057
vt 0.8540783 0.3126057
vt 0.8662163 0.3008911
vt 0.8626357 0.3008911
vt 0.861001 0.3126057
vt 0.867851 0.3126057
vt 0.8455572 0.2775856
vt 0.8419767 0.2775856
vt 0.8403419 0.2893001
vt 0.8471919 0.2893001
vt 0.8593299 0.3008911
vt 0.8557494 0.3008911
vt 0.8541147 0.3126057
vt 0.8609647 0.3126057
vt 0.8403056 0.2896818
vt 0.8403056 0.2861012
vt 0.8257715 0.2844719
vt 0.8257715 0.2913219
vt 0.8137556 0.3067712
vt 0.8137556 0.3103517
vt 0.8282897 0.311981
vt 0.8282897 0.305131
vt 0.8137556 0.2929984
vt 0.8137556 0.2965789
vt 0.8282897 0.2982083
vt 0.8282897 0.2913583

usemtl LOW-POLY-COLORS
usemap LOW-POLY-COLORS
f 2/2/2 1/1/1 3/3/3
f 5/5/5 4/4/4 6/6/6
f 8/8/8 7/7/7 9/9/9
f 11/11/11 10/10/10 12/12/12
f 14/14/14 13/13/13 15/15/15
f 17/17/17 16/16/16 18/18/18
f 20/20/20 19/19/19 21/21/21
f 23/23/23 22/22/22 24/24/24
f 26/26/26 25/25/25 27/27/27
f 29/29/29 28/28/28 30/30/30
f 32/32/32 31/31/31 33/33/33
f 35/35/35 34/34/34 36/36/36
f 38/38/38 37/37/37 39/39/39
f 41/41/41 40/40/40 42/42/42
f 44/44/44 43/43/43 45/45/45
f 45/45/45 43/43/43 46/46/46
f 48/48/48 47/47/47 49/49/49
f 49/49/49 47/47/47 50/50/50
f 52/52/52 51/51/51 53/53/53
f 53/53/53 51/51/51 54/54/54
f 56/56/56 55/55/55 57/57/57
f 57/57/57 55/55/55 58/58/58
f 60/60/60 59/59/59 61/61/61
f 61/61/61 59/59/59 62/62/62
f 64/64/64 63/63/63 65/65/65
f 65/65/65 63/63/63 66/66/66
f 68/68/68 67/67/67 69/69/69
f 69/69/69 67/67/67 70/70/70
f 72/72/72 71/71/71 73/73/73
f 73/73/73 71/71/71 74/74/74
f 76/76/76 75/75/75 77/77/77
f 77/77/77 75/75/75 78/78/78
f 80/80/80 79/79/79 81/81/81
f 81/81/81 79/79/79 82/82/82
f 84/84/84 83/83/83 85/85/85
f 85/85/85 83/83/83 86/86/86
f 88/88/88 87/87/87 89/89/89
f 89/89/89 87/87/87 90/90/90
f 92/92/92 91/91/91 93/93/93
f 93/93/93 91/91/91 94/94/94
f 96/96/96 95/95/95 97/97/97
f 97/97/97 95/95/95 98/98/98
