mtllib ./grass_white_13.mtl
g grass_white
v 0.3801042 0.361343 -0.1484408
v 0.289482 0.1583814 -0.02604242
v 0.3817835 0.1374277 -0.02604242
v 0.1987417 0.3982232 -0.03836975
v 0.3112537 0.4140289 -0.03836973
v 0.2675924 0.7512193 -0.2146444
v 0.1185544 0.7159591 0.01299866
v 0.1407123 0.8842676 -0.01477008
v 0.05091413 0.7086414 0.01299872
v -0.08017201 0.5295476 0.06820996
v -0.1242452 0.7613968 0.1954478
v -0.2037968 0.5139965 0.06820997
v -0.398334 0.8575889 -0.0369547
v -0.3689435 0.4997262 0.0312464
v -0.25558 0.5194854 0.03124645
v -0.5116969 0.3712908 0.01680708
v -0.3983337 0.4184935 0.01680713
v -0.5802748 0.64353 -0.04985449
v -0.4067312 0.1671114 0.05963156
v -0.5914714 0.3636066 0.04129688
v -0.5648801 0.1418635 0.05963156
v 0.6999665 0.5681544 0.3571268
v 0.5273769 0.3660119 0.1102264
v 0.619473 0.302874 0.1119095
v 0.3801042 0.361343 -0.1484408
v 0.3817835 0.1374277 -0.02604244
v 0.289482 0.1583814 -0.02604243
v 0.1987417 0.3982232 -0.03836975
v 0.2675924 0.7512193 -0.2146444
v 0.3112537 0.4140289 -0.03836973
v 0.1185544 0.7159591 0.01299866
v 0.05091413 0.7086414 0.01299866
v 0.1407123 0.8842676 -0.01477008
v -0.08017201 0.5295476 0.06820993
v -0.2037968 0.5139965 0.06820994
v -0.1242452 0.7613968 0.1954478
v -0.398334 0.8575889 -0.0369547
v -0.25558 0.5194854 0.03124648
v -0.3689435 0.4997262 0.03124646
v -0.5116969 0.3712908 0.01680711
v -0.5802748 0.64353 -0.04985444
v -0.3983337 0.4184935 0.01680713
v -0.4067312 0.1671114 0.0596316
v -0.5648801 0.1418635 0.0596316
v -0.5914714 0.3636066 0.04129688
v 0.6999665 0.5681543 0.3571267
v 0.619473 0.302874 0.1119095
v 0.5273769 0.3660119 0.1102264
v 0.3112537 0.4140289 -0.03836973
v 0.1987417 0.3982232 -0.03836975
v 0.1735525 0.1808936 -0.01203027
v 0.2885831 0.166405 -0.006642747
v 0.1584388 0.003078513 0.01459981
v 0.2558371 0.003078495 0.01586674
v 0.289482 0.1583814 -0.02604242
v 0.2390441 0.004395668 -0.02604246
v 0.3263669 0.004395653 -0.02604246
v 0.3817835 0.1374277 -0.02604242
v -0.0003991469 0.5229533 0.02146009
v -0.02558882 0.005309554 0.002897718
v 0.08287121 0.004395667 0.002897717
v 0.09756543 0.534845 0.02146008
v 0.09756543 0.534845 0.02146008
v 0.1185544 0.7159591 0.01299866
v 0.05091413 0.7086414 0.01299872
v -0.0003991469 0.5229533 0.02146009
v -0.1464166 0.2582298 0.01265893
v -0.08903657 0.002462896 0.01680699
v -0.02838913 0.005207484 0.016807
v -0.05428058 0.2673776 0.01265895
v -0.1758059 0.2626146 0.06368179
v -0.25558 0.5194854 0.03124645
v -0.3689435 0.4997262 0.0312464
v -0.2758735 0.2521861 0.0636818
v -0.3983337 0.4184935 0.01680713
v -0.5116969 0.3712908 0.01680708
v -0.3087628 0.002450703 0.016807
v -0.171607 0.003548403 0.016807
v -0.6068665 0.2637124 -0.0470178
v -0.7802813 0.456564 -0.07226478
v -0.7034352 0.194555 -0.0470178
v -0.5102975 0.0035485 -0.02004191
v -0.4137287 0.00135297 -0.02004192
v -0.5648801 0.1418635 0.05963156
v -0.4221261 0.001353006 0.009879774
v -0.3073632 0.003548441 0.003496412
v -0.4067312 0.1671114 0.05963156
v 0.4587916 0.08923433 -0.01433142
v 0.3908045 0.1122312 -0.01647734
v 0.3163034 0.005631147 0.002511674
v 0.4092504 0.003945566 -0.005966504
v 0.171701 0.5498611 -0.00483028
v 0.08890412 0.346804 -0.004830324
v 0.2031869 0.3449745 -0.004830334
v 0.1637362 0.004937357 -0.004830419
v 0.07704385 0.006325088 -0.00483042
v -0.2037968 0.5139965 0.06820997
v -0.1464166 0.2582298 0.01265893
v -0.05428058 0.2673776 0.01265895
v -0.08017201 0.5295476 0.06820996
v -0.09603172 0.00574384 0.016807
v -0.1758059 0.2626146 0.06368179
v -0.2758735 0.2521861 0.0636818
v -0.1828036 0.004646131 0.016807
v 0.619473 0.302874 0.1119095
v 0.5273769 0.3660119 0.1102264
v 0.3908045 0.1122312 -0.01647734
v 0.4587916 0.08923433 -0.01433142
v 0.3112537 0.4140289 -0.03836973
v 0.1735525 0.1808936 -0.01203021
v 0.1987417 0.3982232 -0.03836975
v 0.2885831 0.166405 -0.006642806
v 0.1584388 0.003078513 0.0145998
v 0.2558371 0.003078495 0.01586675
v 0.289482 0.1583814 -0.02604243
v 0.3817835 0.1374277 -0.02604244
v 0.3263669 0.004395653 -0.02604246
v 0.2390441 0.004395668 -0.02604246
v -0.0003991469 0.5229533 0.02146015
v 0.09756543 0.534845 0.02146014
v 0.08287121 0.004395667 0.00289774
v -0.02558882 0.005309553 0.00289774
v 0.09756543 0.534845 0.02146014
v -0.0003991469 0.5229533 0.02146015
v 0.05091413 0.7086414 0.01299866
v 0.1185544 0.7159591 0.01299866
v -0.1464166 0.2582298 0.01265887
v -0.05428058 0.2673776 0.01265901
v -0.02838913 0.005207486 0.01680696
v -0.08903657 0.002462896 0.01680696
v -0.1758059 0.2626146 0.06368174
v -0.2758735 0.2521861 0.06368177
v -0.3689435 0.4997262 0.03124646
v -0.25558 0.5194854 0.03124648
v -0.3983337 0.4184935 0.01680713
v -0.171607 0.003548403 0.01680696
v -0.3087628 0.002450703 0.01680696
v -0.5116969 0.3712908 0.01680711
v -0.6068665 0.2637124 -0.04701777
v -0.7034352 0.194555 -0.04701777
v -0.7802813 0.456564 -0.07226472
v -0.5102975 0.0035485 -0.02004194
v -0.4137287 0.00135297 -0.02004194
v -0.5648801 0.1418635 0.0596316
v -0.4067312 0.1671114 0.0596316
v -0.3073632 0.003548441 0.003496408
v -0.4221261 0.001353006 0.009879826
v 0.4587916 0.08923433 -0.01433145
v 0.4092504 0.003945566 -0.005966543
v 0.3163034 0.005631147 0.002511621
v 0.3908045 0.1122312 -0.01647734
v 0.171701 0.5498611 -0.00483028
v 0.2031869 0.3449745 -0.004830334
v 0.08890412 0.346804 -0.004830324
v 0.1637362 0.004937357 -0.004830477
v 0.07704385 0.006325088 -0.00483036
v -0.2037968 0.5139965 0.06820994
v -0.08017201 0.5295476 0.06820993
v -0.05428058 0.2673776 0.01265901
v -0.1464166 0.2582298 0.01265887
v -0.09603172 0.00574384 0.01680696
v -0.1828036 0.004646131 0.01680696
v -0.2758735 0.2521861 0.06368177
v -0.1758059 0.2626146 0.06368174
v 0.619473 0.302874 0.1119095
v 0.4587916 0.08923433 -0.01433145
v 0.3908045 0.1122312 -0.01647734
v 0.5273769 0.3660119 0.1102264

vn -0.108387 -0.4774454 -0.8719507
vn -0.108387 -0.4774454 -0.8719507
vn -0.108387 -0.4774454 -0.8719507
vn 0.06403261 -0.4558124 -0.8877696
vn 0.06403261 -0.4558124 -0.8877696
vn 0.06403261 -0.4558124 -0.8877696
vn 0.01785522 -0.1650484 -0.9861238
vn 0.01785522 -0.1650484 -0.9861238
vn 0.01785522 -0.1650484 -0.9861238
vn -0.05932042 0.4715708 -0.8798307
vn -0.05932042 0.4715708 -0.8798307
vn -0.05932042 0.4715708 -0.8798307
vn 0.03216945 -0.1845626 -0.9822941
vn 0.03216945 -0.1845626 -0.9822941
vn 0.03216945 -0.1845626 -0.9822941
vn 0.08972972 -0.2154962 -0.9723734
vn 0.08972972 -0.2154962 -0.9723734
vn 0.08972972 -0.2154962 -0.9723734
vn 0.01290885 -0.08085865 -0.996642
vn 0.01290885 -0.08085865 -0.996642
vn 0.01290885 -0.08085865 -0.996642
vn 0.3947022 0.5562358 -0.7313083
vn 0.3947022 0.5562358 -0.7313083
vn 0.3947022 0.5562358 -0.7313083
vn 0.1083868 0.4774452 0.8719508
vn 0.1083868 0.4774452 0.8719508
vn 0.1083868 0.4774452 0.8719508
vn -0.06403261 0.4558124 0.8877696
vn -0.06403261 0.4558124 0.8877696
vn -0.06403261 0.4558124 0.8877696
vn -0.0178562 0.1650486 0.9861238
vn -0.0178562 0.1650486 0.9861238
vn -0.0178562 0.1650486 0.9861238
vn 0.05932042 -0.4715709 0.8798307
vn 0.05932042 -0.4715709 0.8798307
vn 0.05932042 -0.4715709 0.8798307
vn -0.03216911 0.1845627 0.9822941
vn -0.03216911 0.1845627 0.9822941
vn -0.03216911 0.1845627 0.9822941
vn -0.08972951 0.2154962 0.9723734
vn -0.08972951 0.2154962 0.9723734
vn -0.08972951 0.2154962 0.9723734
vn -0.01290888 0.08085879 0.996642
vn -0.01290888 0.08085879 0.996642
vn -0.01290888 0.08085879 0.996642
vn -0.3947016 -0.556236 0.7313085
vn -0.3947016 -0.556236 0.7313085
vn -0.3947016 -0.556236 0.7313085
vn 0.02421162 -0.1263411 -0.9916914
vn 0.02421162 -0.1263411 -0.9916914
vn 0.02421162 -0.1263411 -0.9916914
vn 0.02421162 -0.1263411 -0.9916914
vn 0.02106603 -0.145436 -0.9891433
vn 0.02106603 -0.145436 -0.9891433
vn 0 2.597909E-07 -1
vn 0 2.597909E-07 -1
vn 0 2.597909E-07 -1
vn 0 2.597909E-07 -1
vn -0.001886399 0.03547066 -0.999369
vn -0.001886399 0.03547066 -0.999369
vn -0.001886399 0.03547066 -0.999369
vn -0.001886399 0.03547066 -0.999369
vn 0.005470226 -0.04716226 -0.9988722
vn 0.005470226 -0.04716226 -0.9988722
vn 0.005470226 -0.04716226 -0.9988722
vn 0.005470226 -0.04716226 -0.9988722
vn 0.001231404 -0.01581764 -0.9998741
vn 0.001231404 -0.01581764 -0.9998741
vn 0.001231404 -0.01581764 -0.9998741
vn 0.001231404 -0.01581764 -0.9998741
vn 0.01721788 -0.1217313 -0.9924138
vn 0.01721788 -0.1217313 -0.9924138
vn 0.01721788 -0.1217313 -0.9924138
vn 0.01721788 -0.1217313 -0.9924138
vn 1.355624E-07 3.34598E-07 -1
vn 1.355624E-07 3.34598E-07 -1
vn 1.355624E-07 3.34598E-07 -1
vn 1.355624E-07 3.34598E-07 -1
vn 0.05675727 -0.07925367 -0.9952374
vn 0.05675727 -0.07925367 -0.9952374
vn 0.05675727 -0.07925367 -0.9952374
vn 0.03170085 -0.09143446 -0.9953063
vn 0.03170085 -0.09143446 -0.9953063
vn -0.05165301 0.2914906 -0.9551781
vn -0.05165301 0.2914906 -0.9551781
vn -0.05165301 0.2914906 -0.9551781
vn -0.05165301 0.2914906 -0.9551781
vn -0.05529064 -0.1057904 -0.9928502
vn -0.05529064 -0.1057904 -0.9928502
vn -0.05529064 -0.1057904 -0.9928502
vn -0.05529064 -0.1057904 -0.9928502
vn 0 2.492043E-07 -1
vn 0 2.492043E-07 -1
vn 0 2.492043E-07 -1
vn 0 2.729044E-07 -1
vn 0 2.729044E-07 -1
vn -0.02358738 0.2060524 -0.9782567
vn -0.02358738 0.2060524 -0.9782567
vn -0.02358738 0.2060524 -0.9782567
vn -0.02358738 0.2060524 -0.9782567
vn -0.01104626 0.1790591 -0.9837763
vn -0.01104626 0.1790591 -0.9837763
vn -0.01104626 0.1790591 -0.9837763
vn -0.01104626 0.1790591 -0.9837763
vn 0.2135377 0.3564284 -0.9095936
vn 0.2135377 0.3564284 -0.9095936
vn 0.2135377 0.3564284 -0.9095936
vn 0.2135377 0.3564284 -0.9095936
vn -0.02421113 0.1263411 0.9916914
vn -0.02421113 0.1263411 0.9916914
vn -0.02421113 0.1263411 0.9916914
vn -0.02421113 0.1263411 0.9916914
vn -0.02106557 0.1454359 0.9891433
vn -0.02106557 0.1454359 0.9891433
vn 0 -1.645342E-07 1
vn 0 -1.645342E-07 1
vn 0 -1.645342E-07 1
vn 0 -1.645342E-07 1
vn 0.001886408 -0.03547074 0.999369
vn 0.001886408 -0.03547074 0.999369
vn 0.001886408 -0.03547074 0.999369
vn 0.001886408 -0.03547074 0.999369
vn -0.005470638 0.04716283 0.9988722
vn -0.005470638 0.04716283 0.9988722
vn -0.005470638 0.04716283 0.9988722
vn -0.005470638 0.04716283 0.9988722
vn -0.001232115 0.01581737 0.9998741
vn -0.001232115 0.01581737 0.9998741
vn -0.001232115 0.01581737 0.9998741
vn -0.001232115 0.01581737 0.9998741
vn -0.0172176 0.1217311 0.9924138
vn -0.0172176 0.1217311 0.9924138
vn -0.0172176 0.1217311 0.9924138
vn -0.0172176 0.1217311 0.9924138
vn 0 -4.032335E-07 1
vn 0 -4.032335E-07 1
vn 0 -4.032335E-07 1
vn 0 -4.032335E-07 1
vn -0.05675727 0.07925352 0.9952374
vn -0.05675727 0.07925352 0.9952374
vn -0.05675727 0.07925352 0.9952374
vn -0.03170082 0.09143428 0.9953064
vn -0.03170082 0.09143428 0.9953064
vn 0.0516533 -0.2914906 0.9551781
vn 0.0516533 -0.2914906 0.9551781
vn 0.0516533 -0.2914906 0.9551781
vn 0.0516533 -0.2914906 0.9551781
vn 0.05529067 0.10579 0.9928502
vn 0.05529067 0.10579 0.9928502
vn 0.05529067 0.10579 0.9928502
vn 0.05529067 0.10579 0.9928502
vn 0 -2.492043E-07 1
vn 0 -2.492043E-07 1
vn 0 -2.492043E-07 1
vn 6.275471E-07 -3.132875E-07 1
vn 6.275471E-07 -3.132875E-07 1
vn 0.02358687 -0.2060524 0.9782567
vn 0.02358687 -0.2060524 0.9782567
vn 0.02358687 -0.2060524 0.9782567
vn 0.02358687 -0.2060524 0.9782567
vn 0.01104634 -0.1790591 0.9837763
vn 0.01104634 -0.1790591 0.9837763
vn 0.01104634 -0.1790591 0.9837763
vn 0.01104634 -0.1790591 0.9837763
vn -0.2135373 -0.3564286 0.9095936
vn -0.2135373 -0.3564286 0.9095936
vn -0.2135373 -0.3564286 0.9095936
vn -0.2135373 -0.3564286 0.9095936

vt 0.8139291 0.3355424
vt 0.8150105 0.3218353
vt 0.8099041 0.3223132
vt 0.8407787 0.2914071
vt 0.8347828 0.2928044
vt 0.8392993 0.3130597
vt 0.7830249 0.308563
vt 0.7822876 0.3178549
vt 0.7866665 0.3079892
vt 0.8082693 0.2984638
vt 0.8082694 0.3129921
vt 0.8150107 0.2988362
vt 0.7960422 0.3193311
vt 0.8013941 0.3002633
vt 0.7952646 0.2991187
vt 0.8283685 0.2960351
vt 0.8217535 0.2953149
vt 0.8244668 0.311176
vt 0.7703947 0.3287475
vt 0.7703947 0.3433956
vt 0.7775829 0.3336095
vt 0.8504399 0.3132925
vt 0.8532842 0.2938415
vt 0.8472431 0.2934935
vt 0.835043 0.3356541
vt 0.8400886 0.3227796
vt 0.8350351 0.3219044
vt 0.8284315 0.2914059
vt 0.8293874 0.313088
vt 0.8343918 0.2929478
vt 0.7738223 0.3089182
vt 0.7703947 0.3075611
vt 0.7725075 0.3181461
vt 0.8082063 0.2985591
vt 0.801457 0.2983828
vt 0.8070263 0.3130395
vt 0.7932743 0.3193031
vt 0.7952017 0.2991677
vt 0.789017 0.2999615
vt 0.8150735 0.2960159
vt 0.818931 0.3111682
vt 0.8216906 0.295315
vt 0.809544 0.3239097
vt 0.801457 0.3270577
vt 0.8062975 0.3381934
vt 0.8424671 0.3133821
vt 0.8471801 0.2938883
vt 0.84113 0.2937697
vt 0.8347828 0.2928044
vt 0.8407787 0.2914071
vt 0.8410671 0.2794697
vt 0.8347828 0.2792211
vt 0.8409959 0.2696929
vt 0.8357388 0.2701631
vt 0.8150105 0.3218353
vt 0.8150107 0.3130551
vt 0.810514 0.314528
vt 0.8099041 0.3223132
vt 0.788954 0.2977936
vt 0.788954 0.2696929
vt 0.7830814 0.269929
vt 0.7836831 0.2986946
vt 0.7836831 0.2986946
vt 0.7830249 0.308563
vt 0.7866665 0.3079892
vt 0.788954 0.2977936
vt 0.8144548 0.2843277
vt 0.8138736 0.2701341
vt 0.8106138 0.2696929
vt 0.8094541 0.2839228
vt 0.7961005 0.2844621
vt 0.7952646 0.2991187
vt 0.8013941 0.3002633
vt 0.801379 0.2858258
vt 0.8217535 0.2953149
vt 0.8283685 0.2960351
vt 0.8283685 0.2732234
vt 0.8218282 0.2696929
vt 0.8217535 0.3288697
vt 0.8217535 0.3429898
vt 0.8281506 0.3295788
vt 0.8272895 0.3148123
vt 0.8234649 0.311239
vt 0.7775829 0.3336095
vt 0.7773732 0.3224278
vt 0.7727898 0.318209
vt 0.7703947 0.3287475
vt 0.8489003 0.2775603
vt 0.8527145 0.276792
vt 0.8532842 0.2696929
vt 0.848889 0.2721964
vt 0.8432217 0.3430583
vt 0.8473223 0.3319056
vt 0.84113 0.3320222
vt 0.842625 0.3135334
vt 0.8473223 0.313445
vt 0.8150107 0.2988362
vt 0.8144548 0.2843277
vt 0.8094541 0.2839228
vt 0.8082693 0.2984638
vt 0.7969649 0.2696929
vt 0.7961005 0.2844621
vt 0.801379 0.2858258
vt 0.801394 0.2712722
vt 0.8472431 0.2934935
vt 0.8532842 0.2938415
vt 0.8527145 0.276792
vt 0.8489003 0.2775603
vt 0.8343918 0.2929478
vt 0.8284315 0.2794651
vt 0.8284315 0.2914059
vt 0.8347199 0.2793684
vt 0.8287387 0.2696929
vt 0.8339831 0.27029
vt 0.8350351 0.3219044
vt 0.8400886 0.3227796
vt 0.8400886 0.3149705
vt 0.8357207 0.313151
vt 0.7703947 0.297112
vt 0.7753404 0.2991451
vt 0.7822247 0.2712088
vt 0.7765462 0.2696929
vt 0.7753404 0.2991451
vt 0.7703947 0.297112
vt 0.7703947 0.3075611
vt 0.7738223 0.3089182
vt 0.8031892 0.2839673
vt 0.8082063 0.28397
vt 0.8082062 0.2696929
vt 0.8049212 0.2698679
vt 0.7952017 0.2844874
vt 0.7898542 0.2855482
vt 0.789017 0.2999615
vt 0.7952017 0.2991677
vt 0.8216906 0.295315
vt 0.8216906 0.2696929
vt 0.8151401 0.2732043
vt 0.8150735 0.2960159
vt 0.8215092 0.3289447
vt 0.8150735 0.3290323
vt 0.820145 0.3429987
vt 0.8173573 0.3144182
vt 0.8215092 0.3112311
vt 0.801457 0.3270577
vt 0.809544 0.3239097
vt 0.809544 0.3131025
vt 0.8041396 0.3162005
vt 0.8467555 0.2778747
vt 0.8471801 0.2725277
vt 0.8429909 0.2696929
vt 0.8430119 0.2768148
vt 0.8330885 0.3426819
vt 0.8349721 0.3316084
vt 0.8287786 0.3316084
vt 0.8331296 0.313151
vt 0.8284315 0.313151
vt 0.801457 0.2983828
vt 0.8082063 0.2985591
vt 0.8082063 0.28397
vt 0.8031892 0.2839673
vt 0.7951796 0.2696929
vt 0.7906678 0.2710175
vt 0.7898542 0.2855482
vt 0.7952017 0.2844874
vt 0.8471801 0.2938883
vt 0.8467555 0.2778747
vt 0.8430119 0.2768148
vt 0.84113 0.2937697

usemtl LOW-POLY-COLORS
usemap LOW-POLY-COLORS
f 2/2/2 1/1/1 3/3/3
f 5/5/5 4/4/4 6/6/6
f 8/8/8 7/7/7 9/9/9
f 11/11/11 10/10/10 12/12/12
f 14/14/14 13/13/13 15/15/15
f 17/17/17 16/16/16 18/18/18
f 20/20/20 19/19/19 21/21/21
f 23/23/23 22/22/22 24/24/24
f 26/26/26 25/25/25 27/27/27
f 29/29/29 28/28/28 30/30/30
f 32/32/32 31/31/31 33/33/33
f 35/35/35 34/34/34 36/36/36
f 38/38/38 37/37/37 39/39/39
f 41/41/41 40/40/40 42/42/42
f 44/44/44 43/43/43 45/45/45
f 47/47/47 46/46/46 48/48/48
f 50/50/50 49/49/49 51/51/51
f 51/51/51 49/49/49 52/52/52
f 51/51/51 52/52/52 53/53/53
f 53/53/53 52/52/52 54/54/54
f 56/56/56 55/55/55 57/57/57
f 57/57/57 55/55/55 58/58/58
f 60/60/60 59/59/59 61/61/61
f 61/61/61 59/59/59 62/62/62
f 64/64/64 63/63/63 65/65/65
f 65/65/65 63/63/63 66/66/66
f 68/68/68 67/67/67 69/69/69
f 69/69/69 67/67/67 70/70/70
f 72/72/72 71/71/71 73/73/73
f 73/73/73 71/71/71 74/74/74
f 76/76/76 75/75/75 77/77/77
f 77/77/77 75/75/75 78/78/78
f 80/80/80 79/79/79 81/81/81
f 81/81/81 79/79/79 82/82/82
f 82/82/82 79/79/79 83/83/83
f 85/85/85 84/84/84 86/86/86
f 86/86/86 84/84/84 87/87/87
f 89/89/89 88/88/88 90/90/90
f 90/90/90 88/88/88 91/91/91
f 93/93/93 92/92/92 94/94/94
f 95/95/95 93/93/93 94/94/94
f 96/96/96 93/93/93 95/95/95
f 98/98/98 97/97/97 99/99/99
f 99/99/99 97/97/97 100/100/100
f 102/102/102 101/101/101 103/103/103
f 103/103/103 101/101/101 104/104/104
f 106/106/106 105/105/105 107/107/107
f 107/107/107 105/105/105 108/108/108
f 110/110/110 109/109/109 111/111/111
f 112/112/112 109/109/109 110/110/110
f 113/113/113 112/112/112 110/110/110
f 114/114/114 112/112/112 113/113/113
f 116/116/116 115/115/115 117/117/117
f 117/117/117 115/115/115 118/118/118
f 120/120/120 119/119/119 121/121/121
f 121/121/121 119/119/119 122/122/122
f 124/124/124 123/123/123 125/125/125
f 125/125/125 123/123/123 126/126/126
f 128/128/128 127/127/127 129/129/129
f 129/129/129 127/127/127 130/130/130
f 132/132/132 131/131/131 133/133/133
f 133/133/133 131/131/131 134/134/134
f 136/136/136 135/135/135 137/137/137
f 137/137/137 135/135/135 138/138/138
f 140/140/140 139/139/139 141/141/141
f 142/142/142 139/139/139 140/140/140
f 143/143/143 139/139/139 142/142/142
f 145/145/145 144/144/144 146/146/146
f 146/146/146 144/144/144 147/147/147
f 149/149/149 148/148/148 150/150/150
f 150/150/150 148/148/148 151/151/151
f 153/153/153 152/152/152 154/154/154
f 153/153/153 154/154/154 155/155/155
f 155/155/155 154/154/154 156/156/156
f 158/158/158 157/157/157 159/159/159
f 159/159/159 157/157/157 160/160/160
f 162/162/162 161/161/161 163/163/163
f 163/163/163 161/161/161 164/164/164
f 166/166/166 165/165/165 167/167/167
f 167/167/167 165/165/165 168/168/168
