mtllib ./grass-tall_10.mtl
g grass-tall
v -0.5813828 0.3369777 -0.1753438
v -0.3359237 -0.01044947 -0.08102783
v -0.2314731 0.1495273 -0.08102779
v -0.3440813 0.127735 -0.01010278
v -0.2087274 0.2403947 -0.01010274
v -0.4611497 0.7225784 0.1435388
v -0.2366388 0.8542419 -0.3692211
v -0.1249356 0.9180819 -0.3703811
v -0.2525964 1.100214 -0.5269125
v -0.04659837 0.6251692 0.1106705
v 0.1173298 0.6439456 0.1106705
v 0.02303491 0.8824066 0.3437933
v -0.1699071 0.4261385 -0.03996587
v -0.2424417 0.6965197 0.009686401
v -0.3135258 0.4205057 -0.03996589
v 0.2648127 0.7884157 -0.07918304
v 0.1439252 0.5719708 0.006157897
v 0.26582 0.501561 0.006157859
v 0.3818218 0.003201013 -0.01010281
v 0.6707756 0.4402804 0.1355247
v 0.3113089 0.201378 -0.01010275
v 0.3010776 0.4181158 -0.1384238
v 0.4280044 0.3894314 -0.1687353
v 0.4622547 0.7518971 -0.4520094
v -0.5813828 0.3369777 -0.1753437
v -0.2314731 0.1495273 -0.08102772
v -0.3359237 -0.01044947 -0.08102773
v -0.3440813 0.127735 -0.01010272
v -0.4611497 0.7225783 0.1435387
v -0.2087274 0.2403947 -0.01010271
v -0.2366388 0.8542419 -0.3692212
v -0.2525964 1.100214 -0.5269125
v -0.1249356 0.9180819 -0.3703812
v -0.04659837 0.6251693 0.1106704
v 0.02303491 0.8824066 0.3437933
v 0.1173298 0.6439456 0.1106704
v -0.1699071 0.4261385 -0.03996581
v -0.3135258 0.4205057 -0.03996583
v -0.2424417 0.6965197 0.009686282
v 0.2648127 0.7884157 -0.07918304
v 0.26582 0.501561 0.00615768
v 0.1439252 0.5719708 0.006157957
v 0.3818218 0.003201013 -0.01010298
v 0.3113089 0.201378 -0.01010272
v 0.6707756 0.4402804 0.1355246
v 0.3010776 0.4181158 -0.1384239
v 0.4622547 0.7518971 -0.4520095
v 0.4280044 0.3894314 -0.1687352
v -0.1496536 -0.03072824 -0.01010426
v -0.05962795 -0.03072826 -0.01010426
v -0.2087274 0.2403947 -0.01010274
v -0.3440813 0.127735 -0.01010278
v -0.1658192 -0.03072829 -0.08102784
v -0.1014076 -0.0307283 -0.08102784
v -0.2314731 0.1495273 -0.08102779
v -0.3359237 -0.01044947 -0.08102783
v -0.1249356 0.9180819 -0.3703811
v -0.2366388 0.8542419 -0.3692211
v -0.1292877 0.3585433 -0.1626241
v -0.0001783199 0.3529104 -0.162624
v -0.004528387 -0.03200722 -0.05578594
v -0.0001783199 0.3529104 -0.162624
v -0.1292877 0.3585433 -0.1626241
v -0.0277394 -0.03200721 -0.05578594
v 0.1173298 0.6439456 0.1106705
v -0.04659837 0.6251692 0.1106705
v -0.01323257 -0.03200717 -0.04574223
v 0.01868264 -0.03200717 -0.04574224
v -0.01903532 -0.03012959 -0.03996601
v -0.1699071 0.4261385 -0.03996587
v -0.3135258 0.4205057 -0.03996589
v -0.06835897 -0.03012958 -0.03996601
v 0.1439252 0.5719708 0.006157897
v 0.06031122 0.2349166 -0.01934434
v 0.1449323 0.1925404 -0.01934432
v 0.26582 0.501561 0.006157859
v 0.06031122 0.2349166 -0.01934434
v -0.007184425 -0.03172778 -0.07918325
v 0.02102254 -0.03172778 -0.07918325
v 0.1449323 0.1925404 -0.01934432
v 0.155173 -0.0320015 -0.01010282
v 0.3818218 0.003201013 -0.01010281
v 0.3113089 0.201378 -0.01010275
v 0.1058139 -0.0320015 -0.01010281
v -0.002133138 -0.03039937 -0.05636819
v 0.1721379 -0.03039939 -0.05636819
v 0.4280044 0.3894314 -0.1687353
v 0.3010776 0.4181158 -0.1384238
v -0.1496536 -0.03072824 -0.01010442
v -0.3440813 0.127735 -0.01010272
v -0.2087274 0.2403947 -0.01010271
v -0.05962795 -0.03072826 -0.01010442
v -0.1658192 -0.03072828 -0.08102775
v -0.3359237 -0.01044947 -0.08102773
v -0.2314731 0.1495273 -0.08102772
v -0.1014076 -0.03072829 -0.08102775
v -0.1249356 0.9180819 -0.3703812
v -0.0001783199 0.3529104 -0.162624
v -0.1292877 0.3585433 -0.162624
v -0.2366388 0.8542419 -0.3692212
v -0.004528387 -0.03200722 -0.0557859
v -0.0277394 -0.03200721 -0.0557859
v -0.1292877 0.3585433 -0.162624
v -0.0001783199 0.3529104 -0.162624
v 0.1173298 0.6439456 0.1106704
v 0.01868264 -0.03200716 -0.04574228
v -0.01323257 -0.03200716 -0.04574227
v -0.04659837 0.6251693 0.1106704
v -0.01903532 -0.03012958 -0.03996587
v -0.06835897 -0.03012958 -0.03996587
v -0.3135258 0.4205057 -0.03996583
v -0.1699071 0.4261385 -0.03996581
v 0.1439252 0.5719708 0.006157957
v 0.26582 0.501561 0.00615768
v 0.1449323 0.1925404 -0.01934431
v 0.06031122 0.2349166 -0.01934431
v 0.06031122 0.2349166 -0.01934431
v 0.1449323 0.1925404 -0.01934431
v 0.02102254 -0.03172778 -0.07918334
v -0.007184425 -0.03172778 -0.07918334
v 0.155173 -0.03200151 -0.01010299
v 0.1058139 -0.0320015 -0.01010299
v 0.3113089 0.201378 -0.01010272
v 0.3818218 0.003201013 -0.01010298
v -0.002133138 -0.03039937 -0.05636812
v 0.3010776 0.4181158 -0.1384239
v 0.4280044 0.3894314 -0.1687352
v 0.1721379 -0.03039939 -0.05636812

vn 0.1942481 -0.1268266 -0.9727192
vn 0.1942481 -0.1268266 -0.9727192
vn 0.1942481 -0.1268266 -0.9727192
vn -0.1774728 0.2132234 -0.9607493
vn -0.1774728 0.2132234 -0.9607493
vn -0.1774728 0.2132234 -0.9607493
vn 0.2802156 -0.5051355 -0.8162826
vn 0.2802156 -0.5051355 -0.8162826
vn 0.2802156 -0.5051355 -0.8162826
vn -0.07800008 0.6809864 -0.7281301
vn -0.07800008 0.6809864 -0.7281301
vn -0.07800008 0.6809864 -0.7281301
vn -0.007012236 0.1787933 -0.9838616
vn -0.007012236 0.1787933 -0.9838616
vn -0.007012236 0.1787933 -0.9838616
vn -0.1628181 -0.2818739 -0.9455354
vn -0.1628181 -0.2818739 -0.9455354
vn -0.1628181 -0.2818739 -0.9455354
vn 0.3094635 0.1101097 -0.9445148
vn 0.3094635 0.1101097 -0.9445148
vn 0.3094635 0.1101097 -0.9445148
vn -0.3103517 -0.5669912 -0.7630221
vn -0.3103517 -0.5669912 -0.7630221
vn -0.3103517 -0.5669912 -0.7630221
vn -0.194248 0.1268265 0.9727192
vn -0.194248 0.1268265 0.9727192
vn -0.194248 0.1268265 0.9727192
vn 0.1774727 -0.2132232 0.9607493
vn 0.1774727 -0.2132232 0.9607493
vn 0.1774727 -0.2132232 0.9607493
vn -0.2802157 0.5051352 0.8162827
vn -0.2802157 0.5051352 0.8162827
vn -0.2802157 0.5051352 0.8162827
vn 0.07799955 -0.6809866 0.72813
vn 0.07799955 -0.6809866 0.72813
vn 0.07799955 -0.6809866 0.72813
vn 0.007012144 -0.1787927 0.9838617
vn 0.007012144 -0.1787927 0.9838617
vn 0.007012144 -0.1787927 0.9838617
vn 0.1628197 0.2818733 0.9455354
vn 0.1628197 0.2818733 0.9455354
vn 0.1628197 0.2818733 0.9455354
vn -0.3094626 -0.1101105 0.944515
vn -0.3094626 -0.1101105 0.944515
vn -0.3094626 -0.1101105 0.944515
vn 0.3103522 0.5669912 0.7630219
vn 0.3103522 0.5669912 0.7630219
vn 0.3103522 0.5669912 0.7630219
vn -2.357163E-06 5.099122E-06 -1
vn -2.357163E-06 5.099122E-06 -1
vn -2.357163E-06 5.099122E-06 -1
vn -2.357163E-06 5.099122E-06 -1
vn 0 2.72972E-07 -1
vn 0 2.72972E-07 -1
vn 0 2.72972E-07 -1
vn 0 2.72972E-07 -1
vn 0.07950013 -0.3475226 -0.9342954
vn 0.07950013 -0.3475226 -0.9342954
vn 0.07950013 -0.3475226 -0.9342954
vn 0.07950013 -0.3475226 -0.9342954
vn -0.009865356 -0.266781 -0.9637067
vn -0.009865356 -0.266781 -0.9637067
vn -0.009865356 -0.266781 -0.9637067
vn -0.009865356 -0.266781 -0.9637067
vn -0.02199532 0.2294152 -0.9730801
vn -0.02199532 0.2294152 -0.9730801
vn -0.02199532 0.2294152 -0.9730801
vn -0.02199532 0.2294152 -0.9730801
vn 1.060995E-07 3.153269E-07 -1
vn 1.060995E-07 3.153269E-07 -1
vn 1.060995E-07 3.153269E-07 -1
vn 1.060995E-07 3.153269E-07 -1
vn 0.03665247 0.06711234 -0.997072
vn 0.03665247 0.06711234 -0.997072
vn 0.03665247 0.06711234 -0.997072
vn 0.03665247 0.06711234 -0.997072
vn 0.07788261 0.2073643 -0.9751586
vn 0.07788261 0.2073643 -0.9751586
vn 0.07788261 0.2073643 -0.9751586
vn 0.07788261 0.2073643 -0.9751586
vn 0 2.904543E-07 -1
vn 0 2.904543E-07 -1
vn 0 2.904543E-07 -1
vn 0 2.904543E-07 -1
vn -0.1129164 -0.1473093 -0.982624
vn -0.1129164 -0.1473093 -0.982624
vn -0.1129164 -0.1473093 -0.982624
vn -0.1129164 -0.1473093 -0.982624
vn 2.792286E-06 -5.703869E-06 1
vn 2.792286E-06 -5.703869E-06 1
vn 2.792286E-06 -5.703869E-06 1
vn 2.792286E-06 -5.703869E-06 1
vn 0 -2.274767E-07 1
vn 0 -2.274767E-07 1
vn 0 -2.274767E-07 1
vn 0 -2.274767E-07 1
vn -0.07950004 0.3475228 0.9342954
vn -0.07950004 0.3475228 0.9342954
vn -0.07950004 0.3475228 0.9342954
vn -0.07950004 0.3475228 0.9342954
vn 0.009865737 0.2667811 0.9637067
vn 0.009865737 0.2667811 0.9637067
vn 0.009865737 0.2667811 0.9637067
vn 0.009865737 0.2667811 0.9637067
vn 0.02199516 -0.2294152 0.9730802
vn 0.02199516 -0.2294152 0.9730802
vn 0.02199516 -0.2294152 0.9730802
vn 0.02199516 -0.2294152 0.9730802
vn -1.113097E-07 -1.681744E-07 1
vn -1.113097E-07 -1.681744E-07 1
vn -1.113097E-07 -1.681744E-07 1
vn -1.113097E-07 -1.681744E-07 1
vn -0.03665129 -0.06711247 0.997072
vn -0.03665129 -0.06711247 0.997072
vn -0.03665129 -0.06711247 0.997072
vn -0.03665129 -0.06711247 0.997072
vn -0.07788262 -0.2073646 0.9751585
vn -0.07788262 -0.2073646 0.9751585
vn -0.07788262 -0.2073646 0.9751585
vn -0.07788262 -0.2073646 0.9751585
vn 1.42162E-07 -1.225045E-06 1
vn 1.42162E-07 -1.225045E-06 1
vn 1.42162E-07 -1.225045E-06 1
vn 1.42162E-07 -1.225045E-06 1
vn 0.1129162 0.1473096 0.982624
vn 0.1129162 0.1473096 0.982624
vn 0.1129162 0.1473096 0.982624
vn 0.1129162 0.1473096 0.982624

vt 0.450482 0.4378768
vt 0.4500264 0.4594257
vt 0.4593407 0.456079
vt 0.4418689 0.4204931
vt 0.4508926 0.4188089
vt 0.4510086 0.392794
vt 0.4196753 0.4057664
vt 0.4260993 0.4038699
vt 0.421632 0.392794
vt 0.4676052 0.4046088
vt 0.4759154 0.4024014
vt 0.4696617 0.392794
vt 0.4748692 0.4490826
vt 0.475383 0.4355589
vt 0.4676052 0.4472516
vt 0.4459104 0.476765
vt 0.4489511 0.4644325
vt 0.4418689 0.4626076
vt 0.4759154 0.439436
vt 0.4789233 0.4646608
vt 0.4854864 0.4444425
vt 0.4172797 0.419887
vt 0.4108838 0.4218413
vt 0.4195699 0.4396203
vt 0.4857282 0.4645532
vt 0.4948549 0.4467261
vt 0.4855302 0.4433122
vt 0.4260993 0.4063938
vt 0.4353468 0.435132
vt 0.4351143 0.4081843
vt 0.4354381 0.4385602
vt 0.4373545 0.4507828
vt 0.4418689 0.4404407
vt 0.4510086 0.4248121
vt 0.4528095 0.4378768
vt 0.4593407 0.4269435
vt 0.4333657 0.4590327
vt 0.4260993 0.4608588
vt 0.4339119 0.4729134
vt 0.489329 0.392794
vt 0.4855302 0.4066491
vt 0.4926116 0.4047395
vt 0.4759154 0.4186211
vt 0.4855302 0.4135395
vt 0.479542 0.392794
vt 0.465801 0.4112195
vt 0.4676052 0.392794
vt 0.4593407 0.4092667
vt 0.4468694 0.4319699
vt 0.4510086 0.4341007
vt 0.4508926 0.4188089
vt 0.4418689 0.4204931
vt 0.4566122 0.4651936
vt 0.4593407 0.4670709
vt 0.4593407 0.456079
vt 0.4500264 0.4594257
vt 0.4260993 0.4038699
vt 0.4196753 0.4057664
vt 0.4195699 0.4320482
vt 0.4260993 0.433695
vt 0.4215378 0.4528502
vt 0.4260993 0.433695
vt 0.4195699 0.4320482
vt 0.4203525 0.4526029
vt 0.4759154 0.4024014
vt 0.4676052 0.4046088
vt 0.474268 0.4355589
vt 0.4759154 0.4353075
vt 0.475383 0.4728166
vt 0.4748692 0.4490826
vt 0.4676052 0.4472516
vt 0.4729181 0.4720965
vt 0.4489511 0.4644325
vt 0.4488496 0.4473901
vt 0.444018 0.4464343
vt 0.4418689 0.4626076
vt 0.4488496 0.4473901
vt 0.4489511 0.4341007
vt 0.447525 0.4344576
vt 0.444018 0.4464343
vt 0.4835583 0.4306416
vt 0.4759154 0.439436
vt 0.4854864 0.4444425
vt 0.4854864 0.4290102
vt 0.4195699 0.392794
vt 0.4116021 0.3969967
vt 0.4108838 0.4218413
vt 0.4172797 0.419887
vt 0.4311895 0.3948949
vt 0.4260993 0.4063938
vt 0.4351143 0.4081843
vt 0.4353468 0.392794
vt 0.4921234 0.4375434
vt 0.4855302 0.4433122
vt 0.4948549 0.4467261
vt 0.4948549 0.4356688
vt 0.4418689 0.4404407
vt 0.4418689 0.4115034
vt 0.4353468 0.4131855
vt 0.4354381 0.4385602
vt 0.4372918 0.392794
vt 0.4361077 0.3930473
vt 0.4353468 0.4131855
vt 0.4418689 0.4115034
vt 0.4593407 0.4269435
vt 0.4593407 0.393029
vt 0.4576903 0.392794
vt 0.4510086 0.4248121
vt 0.4339119 0.435132
vt 0.431446 0.4358511
vt 0.4260993 0.4608588
vt 0.4333657 0.4590327
vt 0.4926116 0.4047395
vt 0.4855302 0.4066491
vt 0.4877218 0.4230189
vt 0.4925545 0.4220068
vt 0.4925545 0.4220068
vt 0.4877218 0.4230189
vt 0.4911816 0.4353248
vt 0.4926116 0.4356688
vt 0.4835932 0.4273873
vt 0.4855302 0.4290102
vt 0.4855302 0.4135395
vt 0.4759154 0.4186211
vt 0.4676052 0.4381058
vt 0.465801 0.4112195
vt 0.4593407 0.4092667
vt 0.4597339 0.4337375

usemtl LOW-POLY-COLORS
usemap LOW-POLY-COLORS
f 2/2/2 1/1/1 3/3/3
f 5/5/5 4/4/4 6/6/6
f 8/8/8 7/7/7 9/9/9
f 11/11/11 10/10/10 12/12/12
f 14/14/14 13/13/13 15/15/15
f 17/17/17 16/16/16 18/18/18
f 20/20/20 19/19/19 21/21/21
f 23/23/23 22/22/22 24/24/24
f 26/26/26 25/25/25 27/27/27
f 29/29/29 28/28/28 30/30/30
f 32/32/32 31/31/31 33/33/33
f 35/35/35 34/34/34 36/36/36
f 38/38/38 37/37/37 39/39/39
f 41/41/41 40/40/40 42/42/42
f 44/44/44 43/43/43 45/45/45
f 47/47/47 46/46/46 48/48/48
f 50/50/50 49/49/49 51/51/51
f 51/51/51 49/49/49 52/52/52
f 54/54/54 53/53/53 55/55/55
f 55/55/55 53/53/53 56/56/56
f 58/58/58 57/57/57 59/59/59
f 59/59/59 57/57/57 60/60/60
f 62/62/62 61/61/61 63/63/63
f 63/63/63 61/61/61 64/64/64
f 66/66/66 65/65/65 67/67/67
f 67/67/67 65/65/65 68/68/68
f 70/70/70 69/69/69 71/71/71
f 71/71/71 69/69/69 72/72/72
f 74/74/74 73/73/73 75/75/75
f 75/75/75 73/73/73 76/76/76
f 78/78/78 77/77/77 79/79/79
f 79/79/79 77/77/77 80/80/80
f 82/82/82 81/81/81 83/83/83
f 83/83/83 81/81/81 84/84/84
f 86/86/86 85/85/85 87/87/87
f 87/87/87 85/85/85 88/88/88
f 90/90/90 89/89/89 91/91/91
f 91/91/91 89/89/89 92/92/92
f 94/94/94 93/93/93 95/95/95
f 95/95/95 93/93/93 96/96/96
f 98/98/98 97/97/97 99/99/99
f 99/99/99 97/97/97 100/100/100
f 102/102/102 101/101/101 103/103/103
f 103/103/103 101/101/101 104/104/104
f 106/106/106 105/105/105 107/107/107
f 107/107/107 105/105/105 108/108/108
f 110/110/110 109/109/109 111/111/111
f 111/111/111 109/109/109 112/112/112
f 114/114/114 113/113/113 115/115/115
f 115/115/115 113/113/113 116/116/116
f 118/118/118 117/117/117 119/119/119
f 119/119/119 117/117/117 120/120/120
f 122/122/122 121/121/121 123/123/123
f 123/123/123 121/121/121 124/124/124
f 126/126/126 125/125/125 127/127/127
f 127/127/127 125/125/125 128/128/128
