mtllib ./grass_orange_12.mtl
g grass_orange
v 0.3801042 0.361343 -0.1484408
v 0.289482 0.1583814 -0.02604242
v 0.3817835 0.1374277 -0.02604242
v 0.1987417 0.3982232 -0.03836975
v 0.3112537 0.4140289 -0.03836973
v 0.2675924 0.7512193 -0.2146444
v 0.1185544 0.7159591 0.01299866
v 0.1407123 0.8842676 -0.01477008
v 0.05091413 0.7086414 0.01299872
v -0.08017201 0.5295476 0.06820996
v -0.1242452 0.7613968 0.1954478
v -0.2037968 0.5139965 0.06820997
v -0.398334 0.8575889 -0.0369547
v -0.3689435 0.4997262 0.0312464
v -0.25558 0.5194854 0.03124645
v -0.5116969 0.3712908 0.01680708
v -0.3983337 0.4184935 0.01680713
v -0.5802748 0.64353 -0.04985449
v -0.4067312 0.1671114 0.05963156
v -0.5914714 0.3636066 0.04129688
v -0.5648801 0.1418635 0.05963156
v 0.6999665 0.5681544 0.3571268
v 0.5273769 0.3660119 0.1102264
v 0.619473 0.302874 0.1119095
v 0.3801042 0.361343 -0.1484408
v 0.3817835 0.1374277 -0.02604244
v 0.289482 0.1583814 -0.02604243
v 0.1987417 0.3982232 -0.03836975
v 0.2675924 0.7512193 -0.2146444
v 0.3112537 0.4140289 -0.03836973
v 0.1185544 0.7159591 0.01299866
v 0.05091413 0.7086414 0.01299866
v 0.1407123 0.8842676 -0.01477008
v -0.08017201 0.5295476 0.06820993
v -0.2037968 0.5139965 0.06820994
v -0.1242452 0.7613968 0.1954478
v -0.398334 0.8575889 -0.0369547
v -0.25558 0.5194854 0.03124648
v -0.3689435 0.4997262 0.03124646
v -0.5116969 0.3712908 0.01680711
v -0.5802748 0.64353 -0.04985444
v -0.3983337 0.4184935 0.01680713
v -0.4067312 0.1671114 0.0596316
v -0.5648801 0.1418635 0.0596316
v -0.5914714 0.3636066 0.04129688
v 0.6999665 0.5681543 0.3571267
v 0.619473 0.302874 0.1119095
v 0.5273769 0.3660119 0.1102264
v 0.3112537 0.4140289 -0.03836973
v 0.1987417 0.3982232 -0.03836975
v 0.1735525 0.1808936 -0.01203027
v 0.2885831 0.166405 -0.006642747
v 0.1584388 0.003078513 0.01459981
v 0.2558371 0.003078495 0.01586674
v 0.289482 0.1583814 -0.02604242
v 0.2390441 0.004395668 -0.02604246
v 0.3263669 0.004395653 -0.02604246
v 0.3817835 0.1374277 -0.02604242
v -0.0003991469 0.5229533 0.02146009
v -0.02558882 0.005309554 0.002897718
v 0.08287121 0.004395667 0.002897717
v 0.09756543 0.534845 0.02146008
v 0.09756543 0.534845 0.02146008
v 0.1185544 0.7159591 0.01299866
v 0.05091413 0.7086414 0.01299872
v -0.0003991469 0.5229533 0.02146009
v -0.1464166 0.2582298 0.01265893
v -0.08903657 0.002462896 0.01680699
v -0.02838913 0.005207484 0.016807
v -0.05428058 0.2673776 0.01265895
v -0.1758059 0.2626146 0.06368179
v -0.25558 0.5194854 0.03124645
v -0.3689435 0.4997262 0.0312464
v -0.2758735 0.2521861 0.0636818
v -0.3983337 0.4184935 0.01680713
v -0.5116969 0.3712908 0.01680708
v -0.3087628 0.002450703 0.016807
v -0.171607 0.003548403 0.016807
v -0.6068665 0.2637124 -0.0470178
v -0.7802813 0.456564 -0.07226478
v -0.7034352 0.194555 -0.0470178
v -0.5102975 0.0035485 -0.02004191
v -0.4137287 0.00135297 -0.02004192
v -0.5648801 0.1418635 0.05963156
v -0.4221261 0.001353006 0.009879774
v -0.3073632 0.003548441 0.003496412
v -0.4067312 0.1671114 0.05963156
v 0.4587916 0.08923433 -0.01433142
v 0.3908045 0.1122312 -0.01647734
v 0.3163034 0.005631147 0.002511674
v 0.4092504 0.003945566 -0.005966504
v 0.171701 0.5498611 -0.00483028
v 0.08890412 0.346804 -0.004830324
v 0.2031869 0.3449745 -0.004830334
v 0.1637362 0.004937357 -0.004830419
v 0.07704385 0.006325088 -0.00483042
v -0.2037968 0.5139965 0.06820997
v -0.1464166 0.2582298 0.01265893
v -0.05428058 0.2673776 0.01265895
v -0.08017201 0.5295476 0.06820996
v -0.09603172 0.00574384 0.016807
v -0.1758059 0.2626146 0.06368179
v -0.2758735 0.2521861 0.0636818
v -0.1828036 0.004646131 0.016807
v 0.619473 0.302874 0.1119095
v 0.5273769 0.3660119 0.1102264
v 0.3908045 0.1122312 -0.01647734
v 0.4587916 0.08923433 -0.01433142
v 0.3112537 0.4140289 -0.03836973
v 0.1735525 0.1808936 -0.01203021
v 0.1987417 0.3982232 -0.03836975
v 0.2885831 0.166405 -0.006642806
v 0.1584388 0.003078513 0.0145998
v 0.2558371 0.003078495 0.01586675
v 0.289482 0.1583814 -0.02604243
v 0.3817835 0.1374277 -0.02604244
v 0.3263669 0.004395653 -0.02604246
v 0.2390441 0.004395668 -0.02604246
v -0.0003991469 0.5229533 0.02146015
v 0.09756543 0.534845 0.02146014
v 0.08287121 0.004395667 0.00289774
v -0.02558882 0.005309553 0.00289774
v 0.09756543 0.534845 0.02146014
v -0.0003991469 0.5229533 0.02146015
v 0.05091413 0.7086414 0.01299866
v 0.1185544 0.7159591 0.01299866
v -0.1464166 0.2582298 0.01265887
v -0.05428058 0.2673776 0.01265901
v -0.02838913 0.005207486 0.01680696
v -0.08903657 0.002462896 0.01680696
v -0.1758059 0.2626146 0.06368174
v -0.2758735 0.2521861 0.06368177
v -0.3689435 0.4997262 0.03124646
v -0.25558 0.5194854 0.03124648
v -0.3983337 0.4184935 0.01680713
v -0.171607 0.003548403 0.01680696
v -0.3087628 0.002450703 0.01680696
v -0.5116969 0.3712908 0.01680711
v -0.6068665 0.2637124 -0.04701777
v -0.7034352 0.194555 -0.04701777
v -0.7802813 0.456564 -0.07226472
v -0.5102975 0.0035485 -0.02004194
v -0.4137287 0.00135297 -0.02004194
v -0.5648801 0.1418635 0.0596316
v -0.4067312 0.1671114 0.0596316
v -0.3073632 0.003548441 0.003496408
v -0.4221261 0.001353006 0.009879826
v 0.4587916 0.08923433 -0.01433145
v 0.4092504 0.003945566 -0.005966543
v 0.3163034 0.005631147 0.002511621
v 0.3908045 0.1122312 -0.01647734
v 0.171701 0.5498611 -0.00483028
v 0.2031869 0.3449745 -0.004830334
v 0.08890412 0.346804 -0.004830324
v 0.1637362 0.004937357 -0.004830477
v 0.07704385 0.006325088 -0.00483036
v -0.2037968 0.5139965 0.06820994
v -0.08017201 0.5295476 0.06820993
v -0.05428058 0.2673776 0.01265901
v -0.1464166 0.2582298 0.01265887
v -0.09603172 0.00574384 0.01680696
v -0.1828036 0.004646131 0.01680696
v -0.2758735 0.2521861 0.06368177
v -0.1758059 0.2626146 0.06368174
v 0.619473 0.302874 0.1119095
v 0.4587916 0.08923433 -0.01433145
v 0.3908045 0.1122312 -0.01647734
v 0.5273769 0.3660119 0.1102264

vn -0.108387 -0.4774454 -0.8719507
vn -0.108387 -0.4774454 -0.8719507
vn -0.108387 -0.4774454 -0.8719507
vn 0.06403261 -0.4558124 -0.8877696
vn 0.06403261 -0.4558124 -0.8877696
vn 0.06403261 -0.4558124 -0.8877696
vn 0.01785522 -0.1650484 -0.9861238
vn 0.01785522 -0.1650484 -0.9861238
vn 0.01785522 -0.1650484 -0.9861238
vn -0.05932042 0.4715708 -0.8798307
vn -0.05932042 0.4715708 -0.8798307
vn -0.05932042 0.4715708 -0.8798307
vn 0.03216945 -0.1845626 -0.9822941
vn 0.03216945 -0.1845626 -0.9822941
vn 0.03216945 -0.1845626 -0.9822941
vn 0.08972972 -0.2154962 -0.9723734
vn 0.08972972 -0.2154962 -0.9723734
vn 0.08972972 -0.2154962 -0.9723734
vn 0.01290885 -0.08085865 -0.996642
vn 0.01290885 -0.08085865 -0.996642
vn 0.01290885 -0.08085865 -0.996642
vn 0.3947022 0.5562358 -0.7313083
vn 0.3947022 0.5562358 -0.7313083
vn 0.3947022 0.5562358 -0.7313083
vn 0.1083868 0.4774452 0.8719508
vn 0.1083868 0.4774452 0.8719508
vn 0.1083868 0.4774452 0.8719508
vn -0.06403261 0.4558124 0.8877696
vn -0.06403261 0.4558124 0.8877696
vn -0.06403261 0.4558124 0.8877696
vn -0.0178562 0.1650486 0.9861238
vn -0.0178562 0.1650486 0.9861238
vn -0.0178562 0.1650486 0.9861238
vn 0.05932042 -0.4715709 0.8798307
vn 0.05932042 -0.4715709 0.8798307
vn 0.05932042 -0.4715709 0.8798307
vn -0.03216911 0.1845627 0.9822941
vn -0.03216911 0.1845627 0.9822941
vn -0.03216911 0.1845627 0.9822941
vn -0.08972951 0.2154962 0.9723734
vn -0.08972951 0.2154962 0.9723734
vn -0.08972951 0.2154962 0.9723734
vn -0.01290888 0.08085879 0.996642
vn -0.01290888 0.08085879 0.996642
vn -0.01290888 0.08085879 0.996642
vn -0.3947016 -0.556236 0.7313085
vn -0.3947016 -0.556236 0.7313085
vn -0.3947016 -0.556236 0.7313085
vn 0.02421162 -0.1263411 -0.9916914
vn 0.02421162 -0.1263411 -0.9916914
vn 0.02421162 -0.1263411 -0.9916914
vn 0.02421162 -0.1263411 -0.9916914
vn 0.02106603 -0.145436 -0.9891433
vn 0.02106603 -0.145436 -0.9891433
vn 0 2.597909E-07 -1
vn 0 2.597909E-07 -1
vn 0 2.597909E-07 -1
vn 0 2.597909E-07 -1
vn -0.001886399 0.03547066 -0.999369
vn -0.001886399 0.03547066 -0.999369
vn -0.001886399 0.03547066 -0.999369
vn -0.001886399 0.03547066 -0.999369
vn 0.005470226 -0.04716226 -0.9988722
vn 0.005470226 -0.04716226 -0.9988722
vn 0.005470226 -0.04716226 -0.9988722
vn 0.005470226 -0.04716226 -0.9988722
vn 0.001231404 -0.01581764 -0.9998741
vn 0.001231404 -0.01581764 -0.9998741
vn 0.001231404 -0.01581764 -0.9998741
vn 0.001231404 -0.01581764 -0.9998741
vn 0.01721788 -0.1217313 -0.9924138
vn 0.01721788 -0.1217313 -0.9924138
vn 0.01721788 -0.1217313 -0.9924138
vn 0.01721788 -0.1217313 -0.9924138
vn 1.355624E-07 3.34598E-07 -1
vn 1.355624E-07 3.34598E-07 -1
vn 1.355624E-07 3.34598E-07 -1
vn 1.355624E-07 3.34598E-07 -1
vn 0.05675727 -0.07925367 -0.9952374
vn 0.05675727 -0.07925367 -0.9952374
vn 0.05675727 -0.07925367 -0.9952374
vn 0.03170085 -0.09143446 -0.9953063
vn 0.03170085 -0.09143446 -0.9953063
vn -0.05165301 0.2914906 -0.9551781
vn -0.05165301 0.2914906 -0.9551781
vn -0.05165301 0.2914906 -0.9551781
vn -0.05165301 0.2914906 -0.9551781
vn -0.05529064 -0.1057904 -0.9928502
vn -0.05529064 -0.1057904 -0.9928502
vn -0.05529064 -0.1057904 -0.9928502
vn -0.05529064 -0.1057904 -0.9928502
vn 0 2.492043E-07 -1
vn 0 2.492043E-07 -1
vn 0 2.492043E-07 -1
vn 0 2.729044E-07 -1
vn 0 2.729044E-07 -1
vn -0.02358738 0.2060524 -0.9782567
vn -0.02358738 0.2060524 -0.9782567
vn -0.02358738 0.2060524 -0.9782567
vn -0.02358738 0.2060524 -0.9782567
vn -0.01104626 0.1790591 -0.9837763
vn -0.01104626 0.1790591 -0.9837763
vn -0.01104626 0.1790591 -0.9837763
vn -0.01104626 0.1790591 -0.9837763
vn 0.2135377 0.3564284 -0.9095936
vn 0.2135377 0.3564284 -0.9095936
vn 0.2135377 0.3564284 -0.9095936
vn 0.2135377 0.3564284 -0.9095936
vn -0.02421113 0.1263411 0.9916914
vn -0.02421113 0.1263411 0.9916914
vn -0.02421113 0.1263411 0.9916914
vn -0.02421113 0.1263411 0.9916914
vn -0.02106557 0.1454359 0.9891433
vn -0.02106557 0.1454359 0.9891433
vn 0 -1.645342E-07 1
vn 0 -1.645342E-07 1
vn 0 -1.645342E-07 1
vn 0 -1.645342E-07 1
vn 0.001886408 -0.03547074 0.999369
vn 0.001886408 -0.03547074 0.999369
vn 0.001886408 -0.03547074 0.999369
vn 0.001886408 -0.03547074 0.999369
vn -0.005470638 0.04716283 0.9988722
vn -0.005470638 0.04716283 0.9988722
vn -0.005470638 0.04716283 0.9988722
vn -0.005470638 0.04716283 0.9988722
vn -0.001232115 0.01581737 0.9998741
vn -0.001232115 0.01581737 0.9998741
vn -0.001232115 0.01581737 0.9998741
vn -0.001232115 0.01581737 0.9998741
vn -0.0172176 0.1217311 0.9924138
vn -0.0172176 0.1217311 0.9924138
vn -0.0172176 0.1217311 0.9924138
vn -0.0172176 0.1217311 0.9924138
vn 0 -4.032335E-07 1
vn 0 -4.032335E-07 1
vn 0 -4.032335E-07 1
vn 0 -4.032335E-07 1
vn -0.05675727 0.07925352 0.9952374
vn -0.05675727 0.07925352 0.9952374
vn -0.05675727 0.07925352 0.9952374
vn -0.03170082 0.09143428 0.9953064
vn -0.03170082 0.09143428 0.9953064
vn 0.0516533 -0.2914906 0.9551781
vn 0.0516533 -0.2914906 0.9551781
vn 0.0516533 -0.2914906 0.9551781
vn 0.0516533 -0.2914906 0.9551781
vn 0.05529067 0.10579 0.9928502
vn 0.05529067 0.10579 0.9928502
vn 0.05529067 0.10579 0.9928502
vn 0.05529067 0.10579 0.9928502
vn 0 -2.492043E-07 1
vn 0 -2.492043E-07 1
vn 0 -2.492043E-07 1
vn 6.275471E-07 -3.132875E-07 1
vn 6.275471E-07 -3.132875E-07 1
vn 0.02358687 -0.2060524 0.9782567
vn 0.02358687 -0.2060524 0.9782567
vn 0.02358687 -0.2060524 0.9782567
vn 0.02358687 -0.2060524 0.9782567
vn 0.01104634 -0.1790591 0.9837763
vn 0.01104634 -0.1790591 0.9837763
vn 0.01104634 -0.1790591 0.9837763
vn 0.01104634 -0.1790591 0.9837763
vn -0.2135373 -0.3564286 0.9095936
vn -0.2135373 -0.3564286 0.9095936
vn -0.2135373 -0.3564286 0.9095936
vn -0.2135373 -0.3564286 0.9095936

vt 0.4438041 0.5988461
vt 0.4448856 0.585139
vt 0.4397791 0.5856169
vt 0.4706537 0.5547108
vt 0.4646578 0.5561082
vt 0.4691743 0.5763634
vt 0.4128999 0.5718668
vt 0.4121626 0.5811586
vt 0.4165415 0.5712929
vt 0.4381443 0.5617675
vt 0.4381444 0.5762959
vt 0.4448856 0.5621399
vt 0.4259172 0.5826348
vt 0.4312691 0.563567
vt 0.4251396 0.5624224
vt 0.4582435 0.5593388
vt 0.4516285 0.5586187
vt 0.4543419 0.5744798
vt 0.4002697 0.5920513
vt 0.4002697 0.6066993
vt 0.4074579 0.5969132
vt 0.4803149 0.5765963
vt 0.4831593 0.5571452
vt 0.477118 0.5567973
vt 0.4649179 0.5989578
vt 0.4699636 0.5860833
vt 0.4649101 0.5852081
vt 0.4583065 0.5547097
vt 0.4592624 0.5763918
vt 0.4642668 0.5562515
vt 0.4036973 0.5722219
vt 0.4002697 0.5708648
vt 0.4023826 0.5814498
vt 0.4380814 0.5618628
vt 0.431332 0.5616866
vt 0.4369012 0.5763432
vt 0.4231493 0.5826068
vt 0.4250766 0.5624714
vt 0.4188919 0.5632652
vt 0.4449485 0.5593196
vt 0.448806 0.574472
vt 0.4515656 0.5586187
vt 0.439419 0.5872134
vt 0.431332 0.5903614
vt 0.4361726 0.6014972
vt 0.4723421 0.5766858
vt 0.4770551 0.557192
vt 0.4710051 0.5570734
vt 0.4646578 0.5561082
vt 0.4706537 0.5547108
vt 0.4709421 0.5427734
vt 0.4646578 0.5425249
vt 0.4708709 0.5329966
vt 0.4656138 0.5334668
vt 0.4448856 0.585139
vt 0.4448856 0.5763588
vt 0.4403889 0.5778317
vt 0.4397791 0.5856169
vt 0.418829 0.5610973
vt 0.418829 0.5329966
vt 0.4129564 0.5332327
vt 0.4135581 0.5619984
vt 0.4135581 0.5619984
vt 0.4128999 0.5718668
vt 0.4165415 0.5712929
vt 0.418829 0.5610973
vt 0.4443298 0.5476314
vt 0.4437487 0.5334378
vt 0.4404887 0.5329966
vt 0.4393291 0.5472265
vt 0.4259755 0.5477658
vt 0.4251396 0.5624224
vt 0.4312691 0.563567
vt 0.4312539 0.5491295
vt 0.4516285 0.5586187
vt 0.4582435 0.5593388
vt 0.4582435 0.5365272
vt 0.4517033 0.5329966
vt 0.4516285 0.5921735
vt 0.4516285 0.6062935
vt 0.4580256 0.5928825
vt 0.4571645 0.5781161
vt 0.4533399 0.5745427
vt 0.4074579 0.5969132
vt 0.4072482 0.5857315
vt 0.4026649 0.5815127
vt 0.4002697 0.5920513
vt 0.4787753 0.540864
vt 0.4825895 0.5400957
vt 0.4831593 0.5329966
vt 0.478764 0.5355001
vt 0.4730966 0.606362
vt 0.4771974 0.5952094
vt 0.4710051 0.5953259
vt 0.4725 0.5768371
vt 0.4771974 0.5767487
vt 0.4448856 0.5621399
vt 0.4443298 0.5476314
vt 0.4393291 0.5472265
vt 0.4381443 0.5617675
vt 0.4268399 0.5329966
vt 0.4259755 0.5477658
vt 0.4312539 0.5491295
vt 0.431269 0.5345759
vt 0.477118 0.5567973
vt 0.4831593 0.5571452
vt 0.4825895 0.5400957
vt 0.4787753 0.540864
vt 0.4642668 0.5562515
vt 0.4583065 0.5427688
vt 0.4583065 0.5547097
vt 0.4645949 0.5426722
vt 0.4586137 0.5329966
vt 0.463858 0.5335937
vt 0.4649101 0.5852081
vt 0.4699636 0.5860833
vt 0.4699636 0.5782743
vt 0.4655957 0.5764547
vt 0.4002697 0.5604157
vt 0.4052154 0.5624488
vt 0.4120997 0.5345125
vt 0.4064212 0.5329966
vt 0.4052154 0.5624488
vt 0.4002697 0.5604157
vt 0.4002697 0.5708648
vt 0.4036973 0.5722219
vt 0.4330642 0.5472711
vt 0.4380814 0.5472737
vt 0.4380812 0.5329966
vt 0.4347962 0.5331717
vt 0.4250766 0.5477911
vt 0.4197291 0.5488519
vt 0.4188919 0.5632652
vt 0.4250766 0.5624714
vt 0.4515656 0.5586187
vt 0.4515656 0.5329966
vt 0.4450152 0.536508
vt 0.4449485 0.5593196
vt 0.4513842 0.5922484
vt 0.4449485 0.5923361
vt 0.45002 0.6063024
vt 0.4472323 0.577722
vt 0.4513842 0.5745348
vt 0.431332 0.5903614
vt 0.439419 0.5872134
vt 0.439419 0.5764062
vt 0.4340146 0.5795043
vt 0.4766305 0.5411784
vt 0.4770551 0.5358314
vt 0.4728658 0.5329966
vt 0.4728869 0.5401185
vt 0.4629635 0.6059856
vt 0.4648471 0.5949122
vt 0.4586537 0.5949121
vt 0.4630046 0.5764547
vt 0.4583065 0.5764547
vt 0.431332 0.5616866
vt 0.4380814 0.5618628
vt 0.4380814 0.5472737
vt 0.4330642 0.5472711
vt 0.4250546 0.5329966
vt 0.4205427 0.5343212
vt 0.4197291 0.5488519
vt 0.4250766 0.5477911
vt 0.4770551 0.557192
vt 0.4766305 0.5411784
vt 0.4728869 0.5401185
vt 0.4710051 0.5570734

usemtl LOW-POLY-COLORS
usemap LOW-POLY-COLORS
f 2/2/2 1/1/1 3/3/3
f 5/5/5 4/4/4 6/6/6
f 8/8/8 7/7/7 9/9/9
f 11/11/11 10/10/10 12/12/12
f 14/14/14 13/13/13 15/15/15
f 17/17/17 16/16/16 18/18/18
f 20/20/20 19/19/19 21/21/21
f 23/23/23 22/22/22 24/24/24
f 26/26/26 25/25/25 27/27/27
f 29/29/29 28/28/28 30/30/30
f 32/32/32 31/31/31 33/33/33
f 35/35/35 34/34/34 36/36/36
f 38/38/38 37/37/37 39/39/39
f 41/41/41 40/40/40 42/42/42
f 44/44/44 43/43/43 45/45/45
f 47/47/47 46/46/46 48/48/48
f 50/50/50 49/49/49 51/51/51
f 51/51/51 49/49/49 52/52/52
f 51/51/51 52/52/52 53/53/53
f 53/53/53 52/52/52 54/54/54
f 56/56/56 55/55/55 57/57/57
f 57/57/57 55/55/55 58/58/58
f 60/60/60 59/59/59 61/61/61
f 61/61/61 59/59/59 62/62/62
f 64/64/64 63/63/63 65/65/65
f 65/65/65 63/63/63 66/66/66
f 68/68/68 67/67/67 69/69/69
f 69/69/69 67/67/67 70/70/70
f 72/72/72 71/71/71 73/73/73
f 73/73/73 71/71/71 74/74/74
f 76/76/76 75/75/75 77/77/77
f 77/77/77 75/75/75 78/78/78
f 80/80/80 79/79/79 81/81/81
f 81/81/81 79/79/79 82/82/82
f 82/82/82 79/79/79 83/83/83
f 85/85/85 84/84/84 86/86/86
f 86/86/86 84/84/84 87/87/87
f 89/89/89 88/88/88 90/90/90
f 90/90/90 88/88/88 91/91/91
f 93/93/93 92/92/92 94/94/94
f 95/95/95 93/93/93 94/94/94
f 96/96/96 93/93/93 95/95/95
f 98/98/98 97/97/97 99/99/99
f 99/99/99 97/97/97 100/100/100
f 102/102/102 101/101/101 103/103/103
f 103/103/103 101/101/101 104/104/104
f 106/106/106 105/105/105 107/107/107
f 107/107/107 105/105/105 108/108/108
f 110/110/110 109/109/109 111/111/111
f 112/112/112 109/109/109 110/110/110
f 113/113/113 112/112/112 110/110/110
f 114/114/114 112/112/112 113/113/113
f 116/116/116 115/115/115 117/117/117
f 117/117/117 115/115/115 118/118/118
f 120/120/120 119/119/119 121/121/121
f 121/121/121 119/119/119 122/122/122
f 124/124/124 123/123/123 125/125/125
f 125/125/125 123/123/123 126/126/126
f 128/128/128 127/127/127 129/129/129
f 129/129/129 127/127/127 130/130/130
f 132/132/132 131/131/131 133/133/133
f 133/133/133 131/131/131 134/134/134
f 136/136/136 135/135/135 137/137/137
f 137/137/137 135/135/135 138/138/138
f 140/140/140 139/139/139 141/141/141
f 142/142/142 139/139/139 140/140/140
f 143/143/143 139/139/139 142/142/142
f 145/145/145 144/144/144 146/146/146
f 146/146/146 144/144/144 147/147/147
f 149/149/149 148/148/148 150/150/150
f 150/150/150 148/148/148 151/151/151
f 153/153/153 152/152/152 154/154/154
f 153/153/153 154/154/154 155/155/155
f 155/155/155 154/154/154 156/156/156
f 158/158/158 157/157/157 159/159/159
f 159/159/159 157/157/157 160/160/160
f 162/162/162 161/161/161 163/163/163
f 163/163/163 161/161/161 164/164/164
f 166/166/166 165/165/165 167/167/167
f 167/167/167 165/165/165 168/168/168
