mtllib ./grass-long_orange_8.mtl
g grass-long_orange
v -0.8693182 0.1980958 0.03831287
v -0.8230278 0.2830088 0.02966274
v -0.9440954 0.363604 -0.03736512
v -0.6321388 0.4101182 0.1171659
v -0.7666441 0.6163816 0.2369332
v -0.7349963 0.3045879 0.08944036
v -0.2488077 0.5338733 0.03221554
v -0.3247623 0.7209446 -0.08474033
v -0.3805412 0.5238001 0.03216148
v 0.08348344 0.4907033 -0.007999414
v 0.02770689 0.3223462 0.007900881
v 0.2614931 0.3655147 0.01612688
v 0.5332547 0.5626507 0.1519817
v 0.4573041 0.3640758 0.06335299
v 0.6056457 0.3799041 0.07195069
v 0.62226 0.4748747 -0.03150969
v 0.7207586 0.4259505 -0.02594652
v 0.7207586 0.6461099 -0.1170703
v 0.8219651 0.01233804 -9.190026E-05
v 1.070845 0.3640757 -0.04282695
v 0.7560361 0.1652239 -9.18517E-05
v 0.4691632 0.2623941 0.01753796
v 0.3257719 0.5153995 -0.08781244
v 0.3168717 0.2647923 0.0005787786
v 0.1807488 0.3326489 0.2841003
v 0.07751539 0.2923632 0.1874453
v 0.1487108 0.2017206 0.181589
v -0.2037057 -0.01841134 0.05991469
v 0.009880522 -0.009778796 0.05991463
v -0.1396298 0.1082006 0.05991472
v -0.01266495 -0.01409509 0.02518979
v 0.2602497 -0.01409509 0.02220248
v 0.09175444 0.1686288 0.03473054
v -0.8693182 0.1980958 0.03831284
v -0.9440954 0.363604 -0.03736512
v -0.8230278 0.2830088 0.0296628
v -0.6321388 0.4101182 0.1171659
v -0.7349963 0.3045879 0.08944038
v -0.7666441 0.6163816 0.2369332
v -0.2488077 0.5338733 0.0322156
v -0.3805412 0.5238001 0.03216148
v -0.3247623 0.7209446 -0.08474039
v 0.08348344 0.4907033 -0.007999384
v 0.2614931 0.3655147 0.01612685
v 0.02770689 0.3223462 0.007900881
v 0.5332547 0.5626507 0.1519818
v 0.6056457 0.3799041 0.07195075
v 0.4573041 0.3640758 0.06335305
v 0.62226 0.4748747 -0.03150969
v 0.7207586 0.6461099 -0.1170703
v 0.7207586 0.4259505 -0.02594658
v 0.8219651 0.01233804 -9.193378E-05
v 0.7560361 0.1652239 -9.189641E-05
v 1.070845 0.3640757 -0.04282692
v 0.4691632 0.2623941 0.01753801
v 0.3168717 0.2647923 0.0005787488
v 0.3257719 0.5153995 -0.08781237
v 0.1807488 0.3326489 0.2841003
v 0.1487108 0.2017206 0.181589
v 0.07751539 0.2923632 0.1874453
v -0.2037057 -0.01841134 0.05991474
v -0.1396298 0.1082006 0.05991475
v 0.009880522 -0.009778796 0.05991458
v -0.01266495 -0.01409509 0.02518975
v 0.09175444 0.1686289 0.03473054
v 0.2602497 -0.01409509 0.02220244
v -0.8230278 0.2830088 0.02966274
v -0.8693182 0.1980958 0.03831287
v -0.694254 0.01220937 0.04819099
v -0.6400512 0.1582848 0.04819102
v -0.694254 0.01220937 0.04819099
v -0.5095014 -0.0179985 0.04819095
v -0.4234574 -0.0179985 0.04819094
v -0.6400512 0.1582848 0.04819102
v -0.5198866 0.2308369 0.05991477
v -0.6252159 0.144494 0.05991477
v -0.514447 -0.01560002 0.05991472
v -0.4175239 -0.01560002 0.05991469
v -0.6321388 0.4101182 0.1171659
v -0.7349963 0.3045879 0.08944036
v -0.6252159 0.144494 0.05991477
v -0.5198866 0.2308369 0.05991477
v -0.447001 0.4748736 0.05991483
v -0.594162 0.6504332 0.05991492
v -0.5965357 0.4216302 0.05991482
v -0.4268253 -0.01582962 0.05991469
v -0.2950917 -0.01439064 0.05991467
v -0.2488077 0.5338733 0.03221554
v -0.3805412 0.5238001 0.03216148
v -0.3674866 -0.01151281 0.05991468
v -0.3069603 -0.01151281 0.05991467
v -0.06960238 0.6720184 0.05991482
v -0.1396227 0.4964589 0.05991478
v 0.008725131 0.4835078 0.05991475
v -0.2332763 -0.003325043 0.05991464
v -0.1610883 -0.009627162 0.05991466
v 0.2614931 0.3655147 0.01612688
v 0.02770689 0.3223462 0.007900881
v 0.231825 -0.01436808 0.02220246
v 0.4015276 -0.01436808 0.02220243
v 0.6056457 0.3799041 0.07195069
v 0.4573041 0.3640758 0.06335299
v 0.4525575 -0.01292898 0.02220242
v 0.5035866 -0.01292898 0.02220241
v 0.8655404 0.3295409 0.02220245
v 0.8726608 0.4921423 0.0222025
v 0.7884029 0.3856601 0.0222025
v 0.6412481 -0.01436808 0.02220242
v 0.4964671 -0.008612058 0.02220245
v 0.62226 0.4748747 -0.03150969
v 0.4886059 -0.007083298 0.0008883076
v 0.5470487 -0.01014137 0.000888294
v 0.7207586 0.4259505 -0.02594652
v 0.7560361 0.1652239 -9.18517E-05
v 0.5903912 -0.009645579 -9.185217E-05
v 0.6266519 -0.01264334 -9.186086E-05
v 0.8219651 0.01233804 -9.190026E-05
v 0.3168717 0.2647923 0.0005787786
v 0.3545073 -0.01386168 0.02220244
v 0.4473508 -0.01532366 0.02220242
v 0.4691632 0.2623941 0.01753796
v -0.1780716 0.2383258 0.04788386
v -0.3062311 -0.01808076 0.04788383
v -0.2179432 -0.01808076 0.04788382
v -0.2805978 0.2616333 0.04788389
v -0.1381992 0.4947323 0.04788394
v -0.2193668 0.4722859 0.04788394
v 0.009880522 -0.009778796 0.05991463
v 0.1487108 0.2017206 0.181589
v 0.07751539 0.2923632 0.1874453
v -0.1396298 0.1082006 0.05991472
v -0.1277637 0.1197106 0.04691944
v -0.01266495 -0.01409509 0.02518979
v 0.09175444 0.1686288 0.03473054
v -0.07674079 0.2707816 0.06703876
v -0.8230278 0.2830088 0.0296628
v -0.6400512 0.1582848 0.04819107
v -0.694254 0.01220937 0.04819094
v -0.8693182 0.1980958 0.03831284
v -0.694254 0.01220937 0.04819094
v -0.6400512 0.1582848 0.04819107
v -0.4234574 -0.0179985 0.0481909
v -0.5095014 -0.0179985 0.04819091
v -0.5198866 0.2308369 0.05991482
v -0.4175239 -0.01560002 0.05991465
v -0.514447 -0.01560002 0.05991468
v -0.6252159 0.144494 0.05991471
v -0.6321388 0.4101182 0.1171659
v -0.5198866 0.2308369 0.05991482
v -0.6252159 0.144494 0.05991471
v -0.7349963 0.3045879 0.08944038
v -0.447001 0.4748736 0.05991483
v -0.5965357 0.4216302 0.05991485
v -0.594162 0.6504332 0.05991485
v -0.4268253 -0.01582962 0.05991466
v -0.2950917 -0.01439064 0.05991463
v -0.2488077 0.5338733 0.0322156
v -0.3069603 -0.01151281 0.05991463
v -0.3674866 -0.01151281 0.05991464
v -0.3805412 0.5238001 0.03216148
v -0.06960238 0.6720184 0.05991476
v 0.008725131 0.4835078 0.05991475
v -0.1396227 0.4964589 0.05991478
v -0.2332763 -0.003325043 0.05991462
v -0.1610883 -0.009627162 0.05991461
v 0.2614931 0.3655147 0.01612685
v 0.4015276 -0.01436808 0.02220242
v 0.231825 -0.01436808 0.02220245
v 0.02770689 0.3223462 0.007900881
v 0.6056457 0.3799041 0.07195075
v 0.5035866 -0.01292898 0.0222024
v 0.4525575 -0.01292898 0.02220241
v 0.4573041 0.3640758 0.06335305
v 0.8655404 0.3295409 0.02220248
v 0.7884029 0.3856601 0.0222025
v 0.8726608 0.4921424 0.0222025
v 0.6412481 -0.01436808 0.02220238
v 0.4964671 -0.008612058 0.0222024
v 0.62226 0.4748747 -0.03150969
v 0.7207586 0.4259505 -0.02594658
v 0.5470487 -0.01014137 0.0008882512
v 0.4886059 -0.007083298 0.000888261
v 0.7560361 0.1652239 -9.189641E-05
v 0.8219651 0.01233804 -9.193378E-05
v 0.6266519 -0.01264334 -9.190184E-05
v 0.5903912 -0.009645579 -9.189594E-05
v 0.3168717 0.2647923 0.0005787488
v 0.4691632 0.2623941 0.01753801
v 0.4473508 -0.01532366 0.02220241
v 0.3545073 -0.01386168 0.02220242
v -0.1780716 0.2383258 0.0478838
v -0.2179432 -0.01808076 0.04788378
v -0.3062311 -0.01808076 0.0478838
v -0.2805978 0.2616333 0.04788394
v -0.1381992 0.4947323 0.04788394
v -0.2193668 0.4722859 0.04788394
v 0.009880522 -0.009778796 0.05991458
v -0.1396298 0.1082006 0.05991475
v 0.07751539 0.2923632 0.1874453
v 0.1487108 0.2017206 0.181589
v -0.1277637 0.1197106 0.0469195
v -0.07674079 0.2707816 0.0670388
v 0.09175444 0.1686289 0.03473054
v -0.01266495 -0.01409509 0.02518975

vn 0.3234149 -0.2687368 -0.9072945
vn 0.3234149 -0.2687368 -0.9072945
vn 0.3234149 -0.2687368 -0.9072945
vn -0.1752501 0.4064055 -0.8967285
vn -0.1752501 0.4064055 -0.8967285
vn -0.1752501 0.4064055 -0.8967285
vn 0.03995869 -0.5179788 -0.8544596
vn 0.03995869 -0.5179788 -0.8544596
vn 0.03995869 -0.5179788 -0.8544596
vn 0.0556133 -0.1121258 -0.9921366
vn 0.0556133 -0.1121258 -0.9921366
vn 0.0556133 -0.1121258 -0.9921366
vn 0.009853785 0.404406 -0.9145264
vn 0.009853785 0.404406 -0.9145264
vn 0.009853785 0.404406 -0.9145264
vn -0.1364804 -0.3788567 -0.9153363
vn -0.1364804 -0.3788567 -0.9153363
vn -0.1364804 -0.3788567 -0.9153363
vn -0.1059757 -0.04569957 -0.993318
vn -0.1059757 -0.04569957 -0.993318
vn -0.1059757 -0.04569957 -0.993318
vn 0.09911703 -0.3341156 -0.937306
vn 0.09911703 -0.3341156 -0.937306
vn 0.09911703 -0.3341156 -0.937306
vn 0.5111378 0.4488322 -0.7329991
vn 0.5111378 0.4488322 -0.7329991
vn 0.5111378 0.4488322 -0.7329991
vn -2.946055E-07 3.515828E-07 -1
vn -2.946055E-07 3.515828E-07 -1
vn -2.946055E-07 3.515828E-07 -1
vn -0.01092665 0.05836602 -0.9982355
vn -0.01092665 0.05836602 -0.9982355
vn -0.01092665 0.05836602 -0.9982355
vn -0.3234155 0.268736 0.9072946
vn -0.3234155 0.268736 0.9072946
vn -0.3234155 0.268736 0.9072946
vn 0.1752504 -0.4064055 0.8967284
vn 0.1752504 -0.4064055 0.8967284
vn 0.1752504 -0.4064055 0.8967284
vn -0.03995918 0.5179791 0.8544594
vn -0.03995918 0.5179791 0.8544594
vn -0.03995918 0.5179791 0.8544594
vn -0.05561315 0.1121256 0.9921366
vn -0.05561315 0.1121256 0.9921366
vn -0.05561315 0.1121256 0.9921366
vn -0.009853787 -0.4044059 0.9145265
vn -0.009853787 -0.4044059 0.9145265
vn -0.009853787 -0.4044059 0.9145265
vn 0.1364807 0.3788565 0.9153364
vn 0.1364807 0.3788565 0.9153364
vn 0.1364807 0.3788565 0.9153364
vn 0.1059755 0.04569956 0.9933181
vn 0.1059755 0.04569956 0.9933181
vn 0.1059755 0.04569956 0.9933181
vn -0.09911738 0.3341153 0.937306
vn -0.09911738 0.3341153 0.937306
vn -0.09911738 0.3341153 0.937306
vn -0.5111378 -0.4488324 0.7329991
vn -0.5111378 -0.4488324 0.7329991
vn -0.5111378 -0.4488324 0.7329991
vn 7.502729E-07 -4.218994E-07 1
vn 7.502729E-07 -4.218994E-07 1
vn 7.502729E-07 -4.218994E-07 1
vn 0.01092666 -0.05836621 0.9982355
vn 0.01092666 -0.05836621 0.9982355
vn 0.01092666 -0.05836621 0.9982355
vn 0.03394767 -0.05214483 -0.9980623
vn 0.03394767 -0.05214483 -0.9980623
vn 0.03394767 -0.05214483 -0.9980623
vn 0.03394767 -0.05214483 -0.9980623
vn -1.611151E-07 2.764622E-07 -1
vn -1.611151E-07 2.764622E-07 -1
vn -1.611151E-07 2.764622E-07 -1
vn -1.611151E-07 2.764622E-07 -1
vn -2.236265E-07 2.221307E-07 -1
vn -2.236265E-07 2.221307E-07 -1
vn -2.236265E-07 2.221307E-07 -1
vn -2.236265E-07 2.221307E-07 -1
vn -0.06239732 0.2087311 -0.9759805
vn -0.06239732 0.2087311 -0.9759805
vn -0.06239732 0.2087311 -0.9759805
vn -0.06239732 0.2087311 -0.9759805
vn 0 3.92746E-07 -1
vn 0 3.92746E-07 -1
vn 0 3.92746E-07 -1
vn 0 2.811591E-07 -1
vn 0 2.811591E-07 -1
vn 0.002972093 -0.0513676 -0.9986754
vn 0.002972093 -0.0513676 -0.9986754
vn 0.002972093 -0.0513676 -0.9986754
vn 0.002972093 -0.0513676 -0.9986754
vn -2.005003E-07 2.76452E-07 -1
vn -2.005003E-07 2.76452E-07 -1
vn -2.005003E-07 2.76452E-07 -1
vn 0 2.327819E-07 -1
vn 0 2.327819E-07 -1
vn 0.02227538 -0.01772647 -0.9995947
vn 0.02227538 -0.01772647 -0.9995947
vn 0.02227538 -0.01772647 -0.9995947
vn 0.02227538 -0.01772647 -0.9995947
vn 0.03388925 0.1125549 -0.9930674
vn 0.03388925 0.1125549 -0.9930674
vn 0.03388925 0.1125549 -0.9930674
vn 0.03388925 0.1125549 -0.9930674
vn -4.210208E-07 3.418097E-07 -1
vn -4.210208E-07 3.418097E-07 -1
vn -4.210208E-07 3.418097E-07 -1
vn -2.807888E-07 3.282693E-07 -1
vn -2.807888E-07 3.282693E-07 -1
vn 0.01264081 -0.06859528 -0.9975646
vn 0.01264081 -0.06859528 -0.9975646
vn 0.01264081 -0.06859528 -0.9975646
vn 0.01264081 -0.06859528 -0.9975646
vn -2.282691E-07 2.17536E-07 -1
vn -2.282691E-07 2.17536E-07 -1
vn -2.282691E-07 2.17536E-07 -1
vn -2.282691E-07 2.17536E-07 -1
vn 0.06824 -0.04515004 -0.9966467
vn 0.06824 -0.04515004 -0.9966467
vn 0.06824 -0.04515004 -0.9966467
vn 0.06824 -0.04515004 -0.9966467
vn -2.291616E-07 2.152804E-07 -1
vn -2.291616E-07 2.152804E-07 -1
vn -2.291616E-07 2.152804E-07 -1
vn -2.291616E-07 2.152804E-07 -1
vn -1.808771E-07 3.470109E-07 -1
vn -1.808771E-07 3.470109E-07 -1
vn 0.2783866 0.3199336 -0.9056177
vn 0.2783866 0.3199336 -0.9056177
vn 0.2783866 0.3199336 -0.9056177
vn 0.2783866 0.3199336 -0.9056177
vn -0.08308072 0.1265225 -0.9884785
vn -0.08308072 0.1265225 -0.9884785
vn -0.08308072 0.1265225 -0.9884785
vn -0.08308072 0.1265225 -0.9884785
vn -0.03394812 0.05214427 0.9980623
vn -0.03394812 0.05214427 0.9980623
vn -0.03394812 0.05214427 0.9980623
vn -0.03394812 0.05214427 0.9980623
vn 0 -8.931856E-07 1
vn 0 -8.931856E-07 1
vn 0 -8.931856E-07 1
vn 0 -8.931856E-07 1
vn -1.466423E-07 -5.553267E-07 1
vn -1.466423E-07 -5.553267E-07 1
vn -1.466423E-07 -5.553267E-07 1
vn -1.466423E-07 -5.553267E-07 1
vn 0.06239717 -0.2087314 0.9759804
vn 0.06239717 -0.2087314 0.9759804
vn 0.06239717 -0.2087314 0.9759804
vn 0.06239717 -0.2087314 0.9759804
vn 1.558482E-07 0 1
vn 1.558482E-07 0 1
vn 1.558482E-07 0 1
vn 2.133543E-07 -3.614902E-07 1
vn 2.133543E-07 -3.614902E-07 1
vn -0.002972404 0.05136749 0.9986754
vn -0.002972404 0.05136749 0.9986754
vn -0.002972404 0.05136749 0.9986754
vn -0.002972404 0.05136749 0.9986754
vn 2.291429E-07 0 1
vn 2.291429E-07 0 1
vn 2.291429E-07 0 1
vn 1.556745E-07 -3.24232E-07 1
vn 1.556745E-07 -3.24232E-07 1
vn -0.02227531 0.01772651 0.9995947
vn -0.02227531 0.01772651 0.9995947
vn -0.02227531 0.01772651 0.9995947
vn -0.02227531 0.01772651 0.9995947
vn -0.03388921 -0.1125551 0.9930674
vn -0.03388921 -0.1125551 0.9930674
vn -0.03388921 -0.1125551 0.9930674
vn -0.03388921 -0.1125551 0.9930674
vn 1.75822E-07 -1.439197E-07 1
vn 1.75822E-07 -1.439197E-07 1
vn 1.75822E-07 -1.439197E-07 1
vn 1.178576E-07 -3.71087E-07 1
vn 1.178576E-07 -3.71087E-07 1
vn -0.0126405 0.06859516 0.9975646
vn -0.0126405 0.06859516 0.9975646
vn -0.0126405 0.06859516 0.9975646
vn -0.0126405 0.06859516 0.9975646
vn 1.78613E-07 -1.604332E-07 1
vn 1.78613E-07 -1.604332E-07 1
vn 1.78613E-07 -1.604332E-07 1
vn 1.78613E-07 -1.604332E-07 1
vn -0.06824037 0.04514993 0.9966467
vn -0.06824037 0.04514993 0.9966467
vn -0.06824037 0.04514993 0.9966467
vn -0.06824037 0.04514993 0.9966467
vn 7.543903E-07 -3.767407E-07 1
vn 7.543903E-07 -3.767407E-07 1
vn 7.543903E-07 -3.767407E-07 1
vn 7.543903E-07 -3.767407E-07 1
vn 7.479886E-07 -5.205162E-07 1
vn 7.479886E-07 -5.205162E-07 1
vn -0.2783865 -0.3199338 0.9056177
vn -0.2783865 -0.3199338 0.9056177
vn -0.2783865 -0.3199338 0.9056177
vn -0.2783865 -0.3199338 0.9056177
vn 0.08308104 -0.1265227 0.9884784
vn 0.08308104 -0.1265227 0.9884784
vn 0.08308104 -0.1265227 0.9884784
vn 0.08308104 -0.1265227 0.9884784

vt 0.4243422 0.562592
vt 0.4275486 0.561977
vt 0.4271599 0.5566064
vt 0.4387384 0.5414255
vt 0.4387441 0.5322183
vt 0.4338887 0.5428042
vt 0.4475966 0.5626057
vt 0.4441905 0.5555382
vt 0.4432279 0.5634111
vt 0.4060673 0.5523329
vt 0.4106037 0.5484252
vt 0.4031271 0.5455832
vt 0.410645 0.5716605
vt 0.409934 0.5793727
vt 0.4146283 0.5775813
vt 0.4378116 0.5745608
vt 0.4341778 0.5738501
vt 0.436169 0.5816104
vt 0.4289756 0.5635999
vt 0.4310008 0.5780175
vt 0.4341203 0.5658075
vt 0.4554397 0.5415589
vt 0.4605918 0.5505934
vt 0.4605918 0.5416531
vt 0.4081934 0.5523903
vt 0.4058213 0.5567284
vt 0.4095111 0.5579298
vt 0.403703 0.571603
vt 0.4095111 0.5673692
vt 0.4031271 0.5668666
vt 0.4031271 0.5802733
vt 0.4098765 0.5864912
vt 0.4098765 0.5781232
vt 0.4193249 0.5728271
vt 0.4221425 0.5788128
vt 0.4225312 0.5734421
vt 0.4338254 0.5484439
vt 0.4289756 0.5470652
vt 0.4338312 0.557651
vt 0.4431704 0.5742192
vt 0.4388016 0.573414
vt 0.4397642 0.5812868
vt 0.4136015 0.5322183
vt 0.4106612 0.5389679
vt 0.4181378 0.536126
vt 0.4587768 0.5756372
vt 0.4627601 0.5697164
vt 0.4580657 0.567925
vt 0.4664514 0.5625878
vt 0.4648088 0.5555382
vt 0.4628175 0.5632985
vt 0.4476541 0.5699558
vt 0.4527987 0.5677482
vt 0.4496792 0.5555382
vt 0.4528562 0.5645726
vt 0.4580083 0.5644784
vt 0.4580083 0.5555382
vt 0.4146349 0.571603
vt 0.4159527 0.5660636
vt 0.4122629 0.567265
vt 0.4101446 0.5523903
vt 0.4095687 0.5571268
vt 0.4159527 0.5566242
vt 0.4486327 0.5384363
vt 0.4553822 0.5405864
vt 0.4553822 0.5322183
vt 0.4275486 0.561977
vt 0.4243422 0.562592
vt 0.4232126 0.5711097
vt 0.4281725 0.5694227
vt 0.4232126 0.5711097
vt 0.4263462 0.5765689
vt 0.4281725 0.5788128
vt 0.4281725 0.5694227
vt 0.4387441 0.5487937
vt 0.4342048 0.5493988
vt 0.4345393 0.5559361
vt 0.4373105 0.557651
vt 0.4387384 0.5414255
vt 0.4338887 0.5428042
vt 0.4342048 0.5493988
vt 0.4387441 0.5487937
vt 0.4289182 0.5393231
vt 0.425943 0.5322183
vt 0.4235855 0.539542
vt 0.4246736 0.5552817
vt 0.4289182 0.5565489
vt 0.4475966 0.5626057
vt 0.4432279 0.5634111
vt 0.4455729 0.5812868
vt 0.4475966 0.5810714
vt 0.4440213 0.5322183
vt 0.4437172 0.5385663
vt 0.4485753 0.5373539
vt 0.4462112 0.5554807
vt 0.4485753 0.5548908
vt 0.4031271 0.5455832
vt 0.4106037 0.5484252
vt 0.4106037 0.5351769
vt 0.4057245 0.5322183
vt 0.4146283 0.5775813
vt 0.409934 0.5793727
vt 0.412967 0.5917595
vt 0.4146283 0.5913306
vt 0.4614695 0.5487409
vt 0.4645305 0.5532773
vt 0.4646769 0.5487139
vt 0.4606493 0.5349597
vt 0.4646769 0.5322183
vt 0.4378116 0.5745608
vt 0.4378116 0.5577086
vt 0.4358903 0.5581337
vt 0.4341778 0.5738501
vt 0.4341203 0.5658075
vt 0.4341203 0.5577086
vt 0.4331658 0.5584738
vt 0.4289756 0.5635999
vt 0.4605918 0.5416531
vt 0.4592785 0.532262
vt 0.4561567 0.5322183
vt 0.4554397 0.5415589
vt 0.4511809 0.5846297
vt 0.4482476 0.593811
vt 0.4511809 0.5933548
vt 0.4476541 0.5843851
vt 0.4511809 0.5759047
vt 0.4486002 0.5770698
vt 0.4095111 0.5673692
vt 0.4095111 0.5579298
vt 0.4058213 0.5567284
vt 0.4031271 0.5668666
vt 0.4033406 0.5742977
vt 0.4031271 0.5802733
vt 0.4098765 0.5781232
vt 0.4080575 0.5716605
vt 0.4225312 0.5734421
vt 0.4231552 0.5659964
vt 0.4181953 0.5643095
vt 0.4193249 0.5728271
vt 0.4181953 0.5643095
vt 0.4231552 0.5659964
vt 0.4231552 0.5566064
vt 0.4213289 0.5588503
vt 0.4338312 0.5410757
vt 0.4323976 0.5322183
vt 0.4296263 0.5339332
vt 0.4292918 0.5404706
vt 0.4338254 0.5484439
vt 0.4338312 0.5410757
vt 0.4292918 0.5404706
vt 0.4289756 0.5470652
vt 0.423528 0.5494441
vt 0.4181953 0.5492253
vt 0.4205527 0.5565489
vt 0.4192834 0.5334855
vt 0.423528 0.5322183
vt 0.4431704 0.5742192
vt 0.4431704 0.5557537
vt 0.4411467 0.5555382
vt 0.4388016 0.573414
vt 0.4391057 0.5554807
vt 0.4436597 0.5503451
vt 0.4388016 0.5491327
vt 0.4412957 0.5322183
vt 0.4436597 0.5328082
vt 0.4106612 0.5389679
vt 0.4132586 0.5523329
vt 0.4181378 0.5493743
vt 0.4181378 0.536126
vt 0.4627601 0.5697164
vt 0.4627601 0.5559671
vt 0.4610987 0.5555382
vt 0.4580657 0.567925
vt 0.4536764 0.5785071
vt 0.4568837 0.578534
vt 0.4567375 0.5739706
vt 0.4528562 0.5922883
vt 0.4568837 0.5950296
vt 0.4664514 0.5625878
vt 0.4628175 0.5632985
vt 0.4645301 0.5790149
vt 0.4664514 0.5794401
vt 0.4527987 0.5677482
vt 0.4476541 0.5699558
vt 0.4518442 0.5750819
vt 0.4527987 0.5758472
vt 0.4580083 0.5644784
vt 0.4528562 0.5645726
vt 0.4535732 0.5739132
vt 0.4566951 0.5738695
vt 0.4615926 0.5848759
vt 0.4615926 0.5761508
vt 0.4586593 0.5756947
vt 0.4580657 0.5851206
vt 0.4615926 0.5936009
vt 0.4590118 0.5924358
vt 0.4159527 0.5566242
vt 0.4095687 0.5571268
vt 0.4122629 0.567265
vt 0.4159527 0.5660636
vt 0.4488462 0.5444119
vt 0.4535631 0.547049
vt 0.4553822 0.5405864
vt 0.4486327 0.5384363

usemtl LOW-POLY-COLORS
usemap LOW-POLY-COLORS
f 2/2/2 1/1/1 3/3/3
f 5/5/5 4/4/4 6/6/6
f 8/8/8 7/7/7 9/9/9
f 11/11/11 10/10/10 12/12/12
f 14/14/14 13/13/13 15/15/15
f 17/17/17 16/16/16 18/18/18
f 20/20/20 19/19/19 21/21/21
f 23/23/23 22/22/22 24/24/24
f 26/26/26 25/25/25 27/27/27
f 29/29/29 28/28/28 30/30/30
f 32/32/32 31/31/31 33/33/33
f 35/35/35 34/34/34 36/36/36
f 38/38/38 37/37/37 39/39/39
f 41/41/41 40/40/40 42/42/42
f 44/44/44 43/43/43 45/45/45
f 47/47/47 46/46/46 48/48/48
f 50/50/50 49/49/49 51/51/51
f 53/53/53 52/52/52 54/54/54
f 56/56/56 55/55/55 57/57/57
f 59/59/59 58/58/58 60/60/60
f 62/62/62 61/61/61 63/63/63
f 65/65/65 64/64/64 66/66/66
f 68/68/68 67/67/67 69/69/69
f 69/69/69 67/67/67 70/70/70
f 72/72/72 71/71/71 73/73/73
f 73/73/73 71/71/71 74/74/74
f 76/76/76 75/75/75 77/77/77
f 77/77/77 75/75/75 78/78/78
f 80/80/80 79/79/79 81/81/81
f 81/81/81 79/79/79 82/82/82
f 84/84/84 83/83/83 85/85/85
f 85/85/85 83/83/83 86/86/86
f 86/86/86 83/83/83 87/87/87
f 89/89/89 88/88/88 90/90/90
f 90/90/90 88/88/88 91/91/91
f 93/93/93 92/92/92 94/94/94
f 93/93/93 94/94/94 95/95/95
f 95/95/95 94/94/94 96/96/96
f 98/98/98 97/97/97 99/99/99
f 99/99/99 97/97/97 100/100/100
f 102/102/102 101/101/101 103/103/103
f 103/103/103 101/101/101 104/104/104
f 106/106/106 105/105/105 107/107/107
f 108/108/108 107/107/107 105/105/105
f 109/109/109 107/107/107 108/108/108
f 111/111/111 110/110/110 112/112/112
f 112/112/112 110/110/110 113/113/113
f 115/115/115 114/114/114 116/116/116
f 116/116/116 114/114/114 117/117/117
f 119/119/119 118/118/118 120/120/120
f 120/120/120 118/118/118 121/121/121
f 123/123/123 122/122/122 124/124/124
f 125/125/125 122/122/122 123/123/123
f 125/125/125 126/126/126 122/122/122
f 127/127/127 126/126/126 125/125/125
f 129/129/129 128/128/128 130/130/130
f 130/130/130 128/128/128 131/131/131
f 133/133/133 132/132/132 134/134/134
f 134/134/134 132/132/132 135/135/135
f 137/137/137 136/136/136 138/138/138
f 138/138/138 136/136/136 139/139/139
f 141/141/141 140/140/140 142/142/142
f 142/142/142 140/140/140 143/143/143
f 145/145/145 144/144/144 146/146/146
f 146/146/146 144/144/144 147/147/147
f 149/149/149 148/148/148 150/150/150
f 150/150/150 148/148/148 151/151/151
f 153/153/153 152/152/152 154/154/154
f 155/155/155 152/152/152 153/153/153
f 156/156/156 152/152/152 155/155/155
f 158/158/158 157/157/157 159/159/159
f 159/159/159 157/157/157 160/160/160
f 162/162/162 161/161/161 163/163/163
f 164/164/164 162/162/162 163/163/163
f 165/165/165 162/162/162 164/164/164
f 167/167/167 166/166/166 168/168/168
f 168/168/168 166/166/166 169/169/169
f 171/171/171 170/170/170 172/172/172
f 172/172/172 170/170/170 173/173/173
f 175/175/175 174/174/174 176/176/176
f 174/174/174 175/175/175 177/177/177
f 177/177/177 175/175/175 178/178/178
f 180/180/180 179/179/179 181/181/181
f 181/181/181 179/179/179 182/182/182
f 184/184/184 183/183/183 185/185/185
f 185/185/185 183/183/183 186/186/186
f 188/188/188 187/187/187 189/189/189
f 189/189/189 187/187/187 190/190/190
f 192/192/192 191/191/191 193/193/193
f 193/193/193 191/191/191 194/194/194
f 191/191/191 195/195/195 194/194/194
f 194/194/194 195/195/195 196/196/196
f 198/198/198 197/197/197 199/199/199
f 199/199/199 197/197/197 200/200/200
f 202/202/202 201/201/201 203/203/203
f 203/203/203 201/201/201 204/204/204
