mtllib ./lotus-leaf_7.mtl
g lotus-leaf
v 0.01471044 0.02494737 0.1923114
v 0.04094674 0.01530155 -0.1224441
v 0.4152831 0.05286356 -0.04749531
v 0.4152831 0.05286356 -0.04749531
v 0.04094674 0.01530155 -0.1224441
v 0.1368079 0.03972651 -0.3758771
v -0.2964576 0.03773101 0.3549181
v -0.3566159 0.02494733 0.08067541
v 0.01471044 0.02494737 0.1923114
v -0.09645705 0.03773102 0.4196286
v 0.3411243 0.04040525 0.3220373
v 0.2389422 0.03897456 0.3970996
v 0.01471044 0.02494737 0.1923114
v 0.4152831 0.05286356 -0.04749531
v 0.1368079 0.03972651 -0.3758771
v 0.04094674 0.01530155 -0.1224441
v -0.3192132 0.04019558 -0.1945545
v -0.1250239 0.03972651 -0.3552544
v -0.2812434 0.01011334 0.3994775
v -0.0722234 0.01011335 0.4630222
v 0.03238691 0.01011339 0.2335565
v -0.393923 0.01011334 0.06945939
v 0.4152831 0.01011334 -0.04749531
v -0.3464102 0.01339761 -0.1999998
v 0.364406 0.01011334 0.332653
v 0.2226786 0.01011334 0.4367846
v 0.1368079 0.01011334 -0.3758771
v -0.1368083 0.01011334 -0.375877
v 0.3411243 0.04040525 0.3220373
v 0.364406 0.01011334 0.332653
v 0.2226786 0.01011334 0.4367846
v 0.2389422 0.03897456 0.3970996
v 0.4152831 0.05286356 -0.04749531
v 0.4152831 0.01011334 -0.04749531
v 0.364406 0.01011334 0.332653
v 0.3411243 0.04040525 0.3220373
v 0.1368079 0.03972651 -0.3758771
v 0.1368079 0.01011334 -0.3758771
v 0.4152831 0.01011334 -0.04749531
v 0.4152831 0.05286356 -0.04749531
v -0.1250239 0.03972651 -0.3552544
v -0.1368083 0.01011334 -0.375877
v 0.1368079 0.01011334 -0.3758771
v 0.1368079 0.03972651 -0.3758771
v -0.3192132 0.04019558 -0.1945545
v -0.3464102 0.01339761 -0.1999998
v -0.1368083 0.01011334 -0.375877
v -0.1250239 0.03972651 -0.3552544
v -0.3566159 0.02494733 0.08067541
v -0.393923 0.01011334 0.06945939
v -0.3464102 0.01339761 -0.1999998
v -0.3192132 0.04019558 -0.1945545
v -0.2964576 0.03773101 0.3549181
v -0.2812434 0.01011334 0.3994775
v -0.393923 0.01011334 0.06945939
v -0.3566159 0.02494733 0.08067541
v 0.01471044 0.02494737 0.1923114
v 0.03238691 0.01011339 0.2335565
v -0.0722234 0.01011335 0.4630222
v -0.09645705 0.03773102 0.4196286
v -0.09645705 0.03773102 0.4196286
v -0.0722234 0.01011335 0.4630222
v -0.2812434 0.01011334 0.3994775
v -0.2964576 0.03773101 0.3549181
v 0.2389422 0.03897456 0.3970996
v 0.2226786 0.01011334 0.4367846
v 0.03238691 0.01011339 0.2335565
v 0.01471044 0.02494737 0.1923114
v -0.3566159 0.02494733 0.08067541
v -0.3192132 0.04019558 -0.1945545
v 0.04094674 0.01530155 -0.1224441
v 0.01471044 0.02494737 0.1923114

vn -0.09219825 0.9950086 -0.03817763
vn -0.09219825 0.9950086 -0.03817763
vn -0.09219825 0.9950086 -0.03817763
vn -0.1103744 0.9924276 0.05389748
vn -0.1103744 0.9924276 0.05389748
vn -0.1103744 0.9924276 0.05389748
vn 0.01523486 0.998665 -0.04935817
vn 0.01523486 0.998665 -0.04935817
vn 0.01523486 0.998665 -0.04935817
vn 0.01523486 0.998665 -0.04935817
vn -0.05156148 0.998612 0.01074534
vn -0.05156148 0.998612 0.01074534
vn -0.05156148 0.998612 0.01074534
vn -0.05156148 0.998612 0.01074534
vn 0.03317639 0.9961731 0.08086061
vn 0.03317639 0.9961731 0.08086061
vn 0.03317639 0.9961731 0.08086061
vn 0.03317639 0.9961731 0.08086061
vn 1.211494E-07 -1 0
vn 1.211494E-07 -1 0
vn 1.211494E-07 -1 0
vn 1.211494E-07 -1 0
vn -1.268503E-07 -1 0
vn -0.004216337 -0.999966 0.007088712
vn -1.268503E-07 -1 0
vn -1.268503E-07 -1 0
vn -0.004216337 -0.999966 0.007088712
vn -0.004216337 -0.999966 0.007088712
vn 0.4697633 0.603558 0.6442361
vn 0.4697633 0.603558 0.6442361
vn 0.4697633 0.603558 0.6442361
vn 0.4697633 0.603558 0.6442361
vn 0.9333311 0.3208933 0.1609989
vn 0.9333311 0.3208933 0.1609989
vn 0.9333311 0.3208933 0.1609989
vn 0.9333311 0.3208933 0.1609989
vn 0.762683 0 -0.6467726
vn 0.762683 0 -0.6467726
vn 0.762683 0 -0.6467726
vn 0.762683 0 -0.6467726
vn -0.03626208 0.3350468 -0.9415034
vn -0.03626208 0.3350468 -0.9415034
vn -0.03626208 0.3350468 -0.9415034
vn -0.03626208 0.3350468 -0.9415034
vn -0.4975109 0.6228142 -0.603809
vn -0.4975109 0.6228142 -0.603809
vn -0.4975109 0.6228142 -0.603809
vn -0.4975109 0.6228142 -0.603809
vn -0.531579 0.8452784 -0.05411183
vn -0.531579 0.8452784 -0.05411183
vn -0.531579 0.8452784 -0.05411183
vn -0.531579 0.8452784 -0.05411183
vn -0.7880272 0.5775522 0.2131824
vn -0.7880272 0.5775522 0.2131824
vn -0.7880272 0.5775522 0.2131824
vn -0.7880272 0.5775522 0.2131824
vn 0.4705775 0.8598028 0.1982317
vn 0.4705775 0.8598028 0.1982317
vn 0.4705775 0.8598028 0.1982317
vn 0.4705775 0.8598028 0.1982317
vn -0.1819247 0.7939118 0.5801789
vn -0.1819247 0.7939118 0.5801789
vn -0.1819247 0.7939118 0.5801789
vn -0.1819247 0.7939118 0.5801789
vn -0.4500504 0.782479 0.4303271
vn -0.4500504 0.782479 0.4303271
vn -0.4500504 0.782479 0.4303271
vn -0.4500504 0.782479 0.4303271
vn 0.03079474 0.9994436 0.01281227
vn 0.03079474 0.9994436 0.01281227
vn 0.03079474 0.9994436 0.01281227
vn 0.03079474 0.9994436 0.01281227

vt 0.3059277 0.4188285
vt 0.3224085 0.4211334
vt 0.3229758 0.4062544
vt 0.3229758 0.4062544
vt 0.3224085 0.4211334
vt 0.3338842 0.4204793
vt 0.2970577 0.4331316
vt 0.3082267 0.438942
vt 0.3059277 0.4188285
vt 0.2942449 0.4242761
vt 0.3075298 0.4014041
vt 0.3025425 0.4039025
vt 0.3059277 0.4188285
vt 0.3229758 0.4062544
vt 0.3338842 0.4204793
vt 0.3224085 0.4211334
vt 0.3217252 0.4390561
vt 0.3312725 0.4316579
vt 0.2951031 0.4457971
vt 0.2912432 0.4553539
vt 0.3015892 0.4612291
vt 0.3110827 0.4418815
vt 0.3131956 0.4803978
vt 0.3235477 0.4452411
vt 0.295544 0.4764173
vt 0.2912432 0.4693217
vt 0.3297919 0.4686849
vt 0.3309369 0.4558269
vt 0.3075298 0.4014041
vt 0.3072398 0.3988855
vt 0.2995115 0.4031503
vt 0.3025425 0.4039025
vt 0.3229758 0.4062544
vt 0.3246951 0.4038912
vt 0.3072398 0.3988855
vt 0.3075298 0.4014041
vt 0.3338842 0.4204793
vt 0.3359876 0.4201606
vt 0.3246951 0.4038912
vt 0.3229758 0.4062544
vt 0.3312725 0.4316579
vt 0.3332495 0.4332106
vt 0.3359876 0.4201606
vt 0.3338842 0.4204793
vt 0.3217252 0.4390561
vt 0.3221176 0.4414614
vt 0.3332495 0.4332106
vt 0.3312725 0.4316579
vt 0.3082267 0.438942
vt 0.3082257 0.4414614
vt 0.3221176 0.4414614
vt 0.3217252 0.4390561
vt 0.2970577 0.4331316
vt 0.2940476 0.4334264
vt 0.3082257 0.4414614
vt 0.3082267 0.438942
vt 0.3059277 0.4188285
vt 0.3035741 0.4171623
vt 0.2912432 0.4226035
vt 0.2942449 0.4242761
vt 0.2942449 0.4242761
vt 0.2912432 0.4226035
vt 0.2940476 0.4334264
vt 0.2970577 0.4331316
vt 0.3025425 0.4039025
vt 0.2995115 0.4031503
vt 0.3035741 0.4171623
vt 0.3059277 0.4188285
vt 0.3082267 0.438942
vt 0.3217252 0.4390561
vt 0.3224085 0.4211334
vt 0.3059277 0.4188285

usemtl LOW-POLY-COLORS
usemap LOW-POLY-COLORS
f 2/2/2 1/1/1 3/3/3
f 5/5/5 4/4/4 6/6/6
f 8/8/8 7/7/7 9/9/9
f 9/9/9 7/7/7 10/10/10
f 12/12/12 11/11/11 13/13/13
f 13/13/13 11/11/11 14/14/14
f 16/16/16 15/15/15 17/17/17
f 17/17/17 15/15/15 18/18/18
f 20/20/20 19/19/19 21/21/21
f 21/21/21 19/19/19 22/22/22
f 21/21/21 22/22/22 23/23/23
f 23/23/23 22/22/22 24/24/24
f 23/23/23 25/25/25 21/21/21
f 21/21/21 25/25/25 26/26/26
f 24/24/24 27/27/27 23/23/23
f 28/28/28 27/27/27 24/24/24
f 30/30/30 29/29/29 31/31/31
f 31/31/31 29/29/29 32/32/32
f 34/34/34 33/33/33 35/35/35
f 35/35/35 33/33/33 36/36/36
f 38/38/38 37/37/37 39/39/39
f 39/39/39 37/37/37 40/40/40
f 42/42/42 41/41/41 43/43/43
f 43/43/43 41/41/41 44/44/44
f 46/46/46 45/45/45 47/47/47
f 47/47/47 45/45/45 48/48/48
f 50/50/50 49/49/49 51/51/51
f 51/51/51 49/49/49 52/52/52
f 54/54/54 53/53/53 55/55/55
f 55/55/55 53/53/53 56/56/56
f 58/58/58 57/57/57 59/59/59
f 59/59/59 57/57/57 60/60/60
f 62/62/62 61/61/61 63/63/63
f 63/63/63 61/61/61 64/64/64
f 66/66/66 65/65/65 67/67/67
f 67/67/67 65/65/65 68/68/68
f 70/70/70 69/69/69 71/71/71
f 71/71/71 69/69/69 72/72/72
