mtllib ./tile-hill-valley_3.mtl
g tile-hill-valley
v -15 6.000001 15.00001
v -15 5.999999 -15
v 14.99999 5.999999 -15
v 15 1.490136E-06 15.00001
v -15 5.999999 -15
v -15 3.999998 -15
v 14.99999 3.999998 -15
v 14.99999 5.999999 -15
v 15 1.490136E-06 15.00001
v 15 -1.999997 15.00001
v -15 4.000003 15.00001
v -15 6.000001 15.00001
v -15 6.000001 15.00001
v -15 4.000003 15.00001
v -15 3.999998 -15
v -15 5.999999 -15
v 14.99999 5.999999 -15
v 14.99999 3.999998 -15
v 15 -1.999997 15.00001
v 15 1.490136E-06 15.00001
v 14.99999 3.999998 -15
v 14.99999 5.722046E-06 -15
v 15 -5.999991 15.00001
v 15 -1.999997 15.00001
v -15 4.000003 15.00001
v 15 -1.999997 15.00001
v 15 -5.999991 15.00001
v -14.99999 9.536743E-06 15.00001
v -15 3.999998 -15
v -15 5.722046E-06 -15
v 14.99999 5.722046E-06 -15
v 14.99999 3.999998 -15
v -15 4.000003 15.00001
v -14.99999 9.536743E-06 15.00001
v -15 5.722046E-06 -15
v -15 3.999998 -15

vn 0.09901477 0.9901475 0.09901461
vn 0.09901477 0.9901475 0.09901461
vn 0.09901477 0.9901475 0.09901461
vn 0.09901477 0.9901475 0.09901461
vn -1.11262E-07 0 -1
vn -1.11262E-07 0 -1
vn -1.11262E-07 0 -1
vn -1.11262E-07 0 -1
vn 0 0 1
vn 0 0 1
vn 0 0 1
vn 0 0 1
vn -1 0 1.668929E-07
vn -1 0 1.668929E-07
vn -1 0 1.668929E-07
vn -1 0 1.668929E-07
vn 1 0 -1.271566E-07
vn 1 0 -1.271566E-07
vn 1 0 -1.271566E-07
vn 1 0 -1.271566E-07
vn 1 4.76838E-07 -1.907351E-07
vn 1 4.76838E-07 -1.907351E-07
vn 1 4.76838E-07 -1.907351E-07
vn 1 4.76838E-07 -1.907351E-07
vn 0 -4.768385E-07 1
vn 0 -4.768385E-07 1
vn 0 -4.768385E-07 1
vn 0 -4.768385E-07 1
vn 0 0 -1
vn 0 0 -1
vn 0 0 -1
vn 0 0 -1
vn -1 -7.152569E-07 2.543135E-07
vn -1 -7.152569E-07 2.543135E-07
vn -1 -7.152569E-07 2.543135E-07
vn -1 -7.152569E-07 2.543135E-07

vt 0.3899119 0.3952839
vt 0.3899112 0.4809229
vt 0.4755501 0.4809235
vt 0.4772306 0.3936048
vt 0.3899112 0.4809229
vt 0.3899111 0.4866322
vt 0.47555 0.4866328
vt 0.4755501 0.4809235
vt 0.4772306 0.3936048
vt 0.4782424 0.3879859
vt 0.3909237 0.3896651
vt 0.3899119 0.3952839
vt 0.3899119 0.3952839
vt 0.3842026 0.3952839
vt 0.3842019 0.4809228
vt 0.3899112 0.4809229
vt 0.4755501 0.4809235
vt 0.481169 0.4799118
vt 0.4828495 0.3925931
vt 0.4772306 0.3936048
vt 0.109068 0.7895804
vt 0.1068287 0.7783836
vt 0.01949382 0.7783836
vt 0.02173319 0.7895804
vt 0.01949382 0.7778705
vt 0.1068287 0.7778705
vt 0.1090681 0.7666737
vt 0.02173319 0.7666737
vt 0.01949385 0.7900935
vt 0.01949382 0.8015121
vt 0.1051326 0.801512
vt 0.1051326 0.7900935
vt 0.0293615 0.8097798
vt 0.02936153 0.8211983
vt 0.1150004 0.8211983
vt 0.1150004 0.8097798

usemtl LOW-POLY-COLORS
usemap LOW-POLY-COLORS
f 2/2/2 1/1/1 3/3/3
f 3/3/3 1/1/1 4/4/4
f 6/6/6 5/5/5 7/7/7
f 7/7/7 5/5/5 8/8/8
f 10/10/10 9/9/9 11/11/11
f 11/11/11 9/9/9 12/12/12
f 14/14/14 13/13/13 15/15/15
f 15/15/15 13/13/13 16/16/16
f 18/18/18 17/17/17 19/19/19
f 19/19/19 17/17/17 20/20/20
f 22/22/22 21/21/21 23/23/23
f 23/23/23 21/21/21 24/24/24
f 26/26/26 25/25/25 27/27/27
f 27/27/27 25/25/25 28/28/28
f 30/30/30 29/29/29 31/31/31
f 31/31/31 29/29/29 32/32/32
f 34/34/34 33/33/33 35/35/35
f 35/35/35 33/33/33 36/36/36
