mtllib ./tile-plain_grass_8.mtl
g tile-plain_grass
v 15 1.490136E-06 -15
v 15 -1.490138E-06 15.00001
v -14.99999 -1.490138E-06 15.00001
v -15 1.490136E-06 -15
v 15 -1.490138E-06 15.00001
v 15 -2.000001 15.00001
v -14.99999 -2.000001 15.00001
v -14.99999 -1.490138E-06 15.00001
v -15 1.490136E-06 -15
v -15 -1.999997 -15
v 15 -1.999997 -15
v 15 1.490136E-06 -15
v 15 1.490136E-06 -15
v 15 -1.999997 -15
v 15 -2.000001 15.00001
v 15 -1.490138E-06 15.00001
v -14.99999 -1.490138E-06 15.00001
v -14.99999 -2.000001 15.00001
v -15 -1.999997 -15
v -15 1.490136E-06 -15
v -14.99999 -2.000001 15.00001
v -14.99999 -5.999994 15.00001
v -15 -5.999991 -15
v -15 -1.999997 -15
v 15 -1.999997 -15
v -15 -1.999997 -15
v -15 -5.999991 -15
v 14.99999 -5.99999 -15
v 15 -2.000001 15.00001
v 15 -5.999994 15.00001
v -14.99999 -5.999994 15.00001
v -14.99999 -2.000001 15.00001
v 15 -1.999997 -15
v 14.99999 -5.99999 -15
v 15 -5.999994 15.00001
v 15 -2.000001 15.00001

vn 0 1 0
vn 0 1 0
vn 0 1 0
vn 0 1 0
vn 0 -5.086264E-07 1
vn 0 -5.086264E-07 1
vn 0 -5.086264E-07 1
vn 0 -5.086264E-07 1
vn 0 5.086266E-07 -1
vn 0 5.086266E-07 -1
vn 0 5.086266E-07 -1
vn 0 5.086266E-07 -1
vn 1 0 0
vn 1 0 0
vn 1 0 0
vn 1 0 0
vn -1 0 2.185501E-07
vn -1 0 2.185501E-07
vn -1 0 2.185501E-07
vn -1 0 2.185501E-07
vn -1 4.768381E-07 2.264979E-07
vn -1 4.768381E-07 2.264979E-07
vn -1 4.768381E-07 2.264979E-07
vn -1 4.768381E-07 2.264979E-07
vn 0 -4.768379E-07 -1
vn 0 -4.768379E-07 -1
vn 0 -4.768379E-07 -1
vn 0 -4.768379E-07 -1
vn 0 0 1
vn 0 0 1
vn 0 0 1
vn 0 0 1
vn 1 -7.152571E-07 -2.543136E-07
vn 1 -7.152571E-07 -2.543136E-07
vn 1 -7.152571E-07 -2.543136E-07
vn 1 -7.152571E-07 -2.543136E-07

vt 0.4899317 0.4902793
vt 0.489931 0.3864579
vt 0.3861097 0.3864585
vt 0.3861104 0.49028
vt 0.489931 0.3864579
vt 0.489931 0.3795363
vt 0.3861097 0.3795371
vt 0.3861097 0.3864585
vt 0.3861104 0.49028
vt 0.3861104 0.4972015
vt 0.4899318 0.4972007
vt 0.4899317 0.4902793
vt 0.4899317 0.4902793
vt 0.4968532 0.4902793
vt 0.4968525 0.3864578
vt 0.489931 0.3864579
vt 0.3861097 0.3864585
vt 0.3791882 0.3864586
vt 0.3791889 0.4902801
vt 0.3861104 0.49028
vt 0.00522086 0.7730749
vt 0.00522086 0.7869177
vt 0.1090423 0.7869177
vt 0.1090423 0.7730748
vt 0.1109413 0.8228795
vt 0.007119782 0.8228795
vt 0.007119752 0.8367224
vt 0.1109412 0.8367224
vt 0.1090422 0.8013771
vt 0.1090422 0.7875342
vt 0.00522086 0.7875343
vt 0.00522086 0.8013772
vt 0.1090424 0.8158365
vt 0.1090424 0.8019936
vt 0.00522086 0.8019937
vt 0.00522086 0.8158365

usemtl LOW-POLY-COLORS
usemap LOW-POLY-COLORS
f 2/2/2 1/1/1 3/3/3
f 3/3/3 1/1/1 4/4/4
f 6/6/6 5/5/5 7/7/7
f 7/7/7 5/5/5 8/8/8
f 10/10/10 9/9/9 11/11/11
f 11/11/11 9/9/9 12/12/12
f 14/14/14 13/13/13 15/15/15
f 15/15/15 13/13/13 16/16/16
f 18/18/18 17/17/17 19/19/19
f 19/19/19 17/17/17 20/20/20
f 22/22/22 21/21/21 23/23/23
f 23/23/23 21/21/21 24/24/24
f 26/26/26 25/25/25 27/27/27
f 27/27/27 25/25/25 28/28/28
f 30/30/30 29/29/29 31/31/31
f 31/31/31 29/29/29 32/32/32
f 34/34/34 33/33/33 35/35/35
f 35/35/35 33/33/33 36/36/36
