mtllib ./tile-plain_sand_1.mtl
g tile-plain_sand
v 15 1.490136E-06 -15
v 15 -1.490138E-06 15.00001
v -14.99999 -1.490138E-06 15.00001
v -15 1.490136E-06 -15
v 15 -1.490138E-06 15.00001
v 15 -2.000001 15.00001
v -14.99999 -2.000001 15.00001
v -14.99999 -1.490138E-06 15.00001
v -15 1.490136E-06 -15
v -15 -1.999997 -15
v 15 -1.999997 -15
v 15 1.490136E-06 -15
v 15 1.490136E-06 -15
v 15 -1.999997 -15
v 15 -2.000001 15.00001
v 15 -1.490138E-06 15.00001
v 15 -1.999997 -15
v -15 -1.999997 -15
v -15 -5.999991 -15
v 14.99999 -5.99999 -15
v 15 -2.000001 15.00001
v 15 -5.999994 15.00001
v -14.99999 -5.999994 15.00001
v -14.99999 -2.000001 15.00001
v 15 -1.999997 -15
v 14.99999 -5.99999 -15
v 15 -5.999994 15.00001
v 15 -2.000001 15.00001
v -14.99999 -2.000001 15.00001
v -14.99999 -5.999994 15.00001
v -15 -5.999991 -15
v -15 -1.999997 -15
v -14.99999 -1.490138E-06 15.00001
v -14.99999 -2.000001 15.00001
v -15 -1.999997 -15
v -15 1.490136E-06 -15

vn 0 1 0
vn 0 1 0
vn 0 1 0
vn 0 1 0
vn 0 -5.086264E-07 1
vn 0 -5.086264E-07 1
vn 0 -5.086264E-07 1
vn 0 -5.086264E-07 1
vn 0 5.086266E-07 -1
vn 0 5.086266E-07 -1
vn 0 5.086266E-07 -1
vn 0 5.086266E-07 -1
vn 1 0 0
vn 1 0 0
vn 1 0 0
vn 1 0 0
vn 0 -4.768379E-07 -1
vn 0 -4.768379E-07 -1
vn 0 -4.768379E-07 -1
vn 0 -4.768379E-07 -1
vn 0 0 1
vn 0 0 1
vn 0 0 1
vn 0 0 1
vn 1 -7.152571E-07 -2.543136E-07
vn 1 -7.152571E-07 -2.543136E-07
vn 1 -7.152571E-07 -2.543136E-07
vn 1 -7.152571E-07 -2.543136E-07
vn -1 4.768381E-07 2.264979E-07
vn -1 4.768381E-07 2.264979E-07
vn -1 4.768381E-07 2.264979E-07
vn -1 4.768381E-07 2.264979E-07
vn -1 0 2.185501E-07
vn -1 0 2.185501E-07
vn -1 0 2.185501E-07
vn -1 0 2.185501E-07

vt 0.6101403 0.6070492
vt 0.6101403 0.5132115
vt 0.5163026 0.5132115
vt 0.5163026 0.6070493
vt 0.6101403 0.5132115
vt 0.6101403 0.5069555
vt 0.5163026 0.5069557
vt 0.5163026 0.5132115
vt 0.5163026 0.6070493
vt 0.5163026 0.6133053
vt 0.6101403 0.6133051
vt 0.6101403 0.6070492
vt 0.6101403 0.6070492
vt 0.6163962 0.6070492
vt 0.6163962 0.5132115
vt 0.6101403 0.5132115
vt 0.1136501 0.8285689
vt 0.01981232 0.8285689
vt 0.01981232 0.8410806
vt 0.1136501 0.8410806
vt 0.11365 0.8150836
vt 0.11365 0.8025718
vt 0.01981232 0.8025719
vt 0.01981232 0.8150836
vt 0.1136501 0.8280821
vt 0.1136501 0.8155704
vt 0.01981232 0.8155705
vt 0.01981232 0.8280821
vt 0.01981232 0.7895733
vt 0.01981232 0.802085
vt 0.1136501 0.802085
vt 0.1136501 0.7895733
vt 0.5163026 0.5132115
vt 0.5100466 0.5132115
vt 0.5100468 0.6070493
vt 0.5163026 0.6070493

usemtl LOW-POLY-COLORS
usemap LOW-POLY-COLORS
f 2/2/2 1/1/1 3/3/3
f 3/3/3 1/1/1 4/4/4
f 6/6/6 5/5/5 7/7/7
f 7/7/7 5/5/5 8/8/8
f 10/10/10 9/9/9 11/11/11
f 11/11/11 9/9/9 12/12/12
f 14/14/14 13/13/13 15/15/15
f 15/15/15 13/13/13 16/16/16
f 18/18/18 17/17/17 19/19/19
f 19/19/19 17/17/17 20/20/20
f 22/22/22 21/21/21 23/23/23
f 23/23/23 21/21/21 24/24/24
f 26/26/26 25/25/25 27/27/27
f 27/27/27 25/25/25 28/28/28
f 30/30/30 29/29/29 31/31/31
f 31/31/31 29/29/29 32/32/32
f 34/34/34 33/33/33 35/35/35
f 35/35/35 33/33/33 36/36/36
