mtllib ./tile-plain_asphalt_5.mtl
g tile-plain_asphalt
v 15 1.490136E-06 -15
v 15 -1.490138E-06 15.00001
v -14.99999 -1.490138E-06 15.00001
v -15 1.490136E-06 -15
v 15 -1.490138E-06 15.00001
v 15 -2.000001 15.00001
v -14.99999 -2.000001 15.00001
v -14.99999 -1.490138E-06 15.00001
v -15 1.490136E-06 -15
v -15 -1.999997 -15
v 15 -1.999997 -15
v 15 1.490136E-06 -15
v 15 1.490136E-06 -15
v 15 -1.999997 -15
v 15 -2.000001 15.00001
v 15 -1.490138E-06 15.00001
v 15 -1.999997 -15
v -15 -1.999997 -15
v -15 -5.999991 -15
v 14.99999 -5.99999 -15
v 15 -2.000001 15.00001
v 15 -5.999994 15.00001
v -14.99999 -5.999994 15.00001
v -14.99999 -2.000001 15.00001
v 15 -1.999997 -15
v 14.99999 -5.99999 -15
v 15 -5.999994 15.00001
v 15 -2.000001 15.00001
v -14.99999 -2.000001 15.00001
v -14.99999 -5.999994 15.00001
v -15 -5.999991 -15
v -15 -1.999997 -15
v -14.99999 -1.490138E-06 15.00001
v -14.99999 -2.000001 15.00001
v -15 -1.999997 -15
v -15 1.490136E-06 -15

vn 0 1 0
vn 0 1 0
vn 0 1 0
vn 0 1 0
vn 0 -5.086264E-07 1
vn 0 -5.086264E-07 1
vn 0 -5.086264E-07 1
vn 0 -5.086264E-07 1
vn 0 5.086266E-07 -1
vn 0 5.086266E-07 -1
vn 0 5.086266E-07 -1
vn 0 5.086266E-07 -1
vn 1 0 0
vn 1 0 0
vn 1 0 0
vn 1 0 0
vn 0 -4.768379E-07 -1
vn 0 -4.768379E-07 -1
vn 0 -4.768379E-07 -1
vn 0 -4.768379E-07 -1
vn 0 0 1
vn 0 0 1
vn 0 0 1
vn 0 0 1
vn 1 -7.152571E-07 -2.543136E-07
vn 1 -7.152571E-07 -2.543136E-07
vn 1 -7.152571E-07 -2.543136E-07
vn 1 -7.152571E-07 -2.543136E-07
vn -1 4.768381E-07 2.264979E-07
vn -1 4.768381E-07 2.264979E-07
vn -1 4.768381E-07 2.264979E-07
vn -1 4.768381E-07 2.264979E-07
vn -1 0 2.185501E-07
vn -1 0 2.185501E-07
vn -1 0 2.185501E-07
vn -1 0 2.185501E-07

vt 0.2329298 0.731778
vt 0.2329298 0.6363598
vt 0.1375115 0.6363598
vt 0.1375115 0.731778
vt 0.2329298 0.6363598
vt 0.2329298 0.6299984
vt 0.1375115 0.6299986
vt 0.1375115 0.6363598
vt 0.1375115 0.731778
vt 0.1375115 0.7381394
vt 0.2329298 0.7381393
vt 0.2329298 0.731778
vt 0.2329298 0.731778
vt 0.239291 0.731778
vt 0.239291 0.6363598
vt 0.2329298 0.6363598
vt 0.1074279 0.8017244
vt 0.01200958 0.8017244
vt 0.01200955 0.8144468
vt 0.1074279 0.8144468
vt 0.1074278 0.7880119
vt 0.1074278 0.7752894
vt 0.01200955 0.7752895
vt 0.01200955 0.7880119
vt 0.1074279 0.8012293
vt 0.1074279 0.7885069
vt 0.01200955 0.7885069
vt 0.01200955 0.8012293
vt 0.01200955 0.7620719
vt 0.01200955 0.7747943
vt 0.1074278 0.7747943
vt 0.1074278 0.7620719
vt 0.1375115 0.6363598
vt 0.1311502 0.6363598
vt 0.1311503 0.731778
vt 0.1375115 0.731778

usemtl LOW-POLY-COLORS
usemap LOW-POLY-COLORS
f 2/2/2 1/1/1 3/3/3
f 3/3/3 1/1/1 4/4/4
f 6/6/6 5/5/5 7/7/7
f 7/7/7 5/5/5 8/8/8
f 10/10/10 9/9/9 11/11/11
f 11/11/11 9/9/9 12/12/12
f 14/14/14 13/13/13 15/15/15
f 15/15/15 13/13/13 16/16/16
f 18/18/18 17/17/17 19/19/19
f 19/19/19 17/17/17 20/20/20
f 22/22/22 21/21/21 23/23/23
f 23/23/23 21/21/21 24/24/24
f 26/26/26 25/25/25 27/27/27
f 27/27/27 25/25/25 28/28/28
f 30/30/30 29/29/29 31/31/31
f 31/31/31 29/29/29 32/32/32
f 34/34/34 33/33/33 35/35/35
f 35/35/35 33/33/33 36/36/36
