mtllib ./tile-plain_dirt_7.mtl
g tile-plain_dirt
v 15 1.490136E-06 -15
v 15 -1.490138E-06 15.00001
v -14.99999 -1.490138E-06 15.00001
v -15 1.490136E-06 -15
v 15 -1.490138E-06 15.00001
v 15 -2.000001 15.00001
v -14.99999 -2.000001 15.00001
v -14.99999 -1.490138E-06 15.00001
v -15 1.490136E-06 -15
v -15 -1.999997 -15
v 15 -1.999997 -15
v 15 1.490136E-06 -15
v 15 1.490136E-06 -15
v 15 -1.999997 -15
v 15 -2.000001 15.00001
v 15 -1.490138E-06 15.00001
v 15 -1.999997 -15
v -15 -1.999997 -15
v -15 -5.999991 -15
v 14.99999 -5.99999 -15
v 15 -2.000001 15.00001
v 15 -5.999994 15.00001
v -14.99999 -5.999994 15.00001
v -14.99999 -2.000001 15.00001
v 15 -1.999997 -15
v 14.99999 -5.99999 -15
v 15 -5.999994 15.00001
v 15 -2.000001 15.00001
v -14.99999 -2.000001 15.00001
v -14.99999 -5.999994 15.00001
v -15 -5.999991 -15
v -15 -1.999997 -15
v -14.99999 -1.490138E-06 15.00001
v -14.99999 -2.000001 15.00001
v -15 -1.999997 -15
v -15 1.490136E-06 -15

vn 0 1 0
vn 0 1 0
vn 0 1 0
vn 0 1 0
vn 0 -5.086264E-07 1
vn 0 -5.086264E-07 1
vn 0 -5.086264E-07 1
vn 0 -5.086264E-07 1
vn 0 5.086266E-07 -1
vn 0 5.086266E-07 -1
vn 0 5.086266E-07 -1
vn 0 5.086266E-07 -1
vn 1 0 0
vn 1 0 0
vn 1 0 0
vn 1 0 0
vn 0 -4.768379E-07 -1
vn 0 -4.768379E-07 -1
vn 0 -4.768379E-07 -1
vn 0 -4.768379E-07 -1
vn 0 0 1
vn 0 0 1
vn 0 0 1
vn 0 0 1
vn 1 -7.152571E-07 -2.543136E-07
vn 1 -7.152571E-07 -2.543136E-07
vn 1 -7.152571E-07 -2.543136E-07
vn 1 -7.152571E-07 -2.543136E-07
vn -1 4.768381E-07 2.264979E-07
vn -1 4.768381E-07 2.264979E-07
vn -1 4.768381E-07 2.264979E-07
vn -1 4.768381E-07 2.264979E-07
vn -1 0 2.185501E-07
vn -1 0 2.185501E-07
vn -1 0 2.185501E-07
vn -1 0 2.185501E-07

vt 0.0976063 0.8279024
vt 0.09760626 0.7602549
vt 0.02995884 0.760255
vt 0.02995888 0.8279024
vt 0.09760626 0.7602549
vt 0.09760626 0.755745
vt 0.02995884 0.7557451
vt 0.02995884 0.760255
vt 0.02995888 0.8279024
vt 0.02995888 0.8324123
vt 0.09760632 0.8324122
vt 0.0976063 0.8279024
vt 0.0976063 0.8279024
vt 0.1021161 0.8279024
vt 0.1021161 0.7602549
vt 0.09760626 0.7602549
vt 0.09309643 0.8608751
vt 0.02544895 0.8608751
vt 0.02544894 0.8698947
vt 0.09309641 0.8698948
vt 0.09309635 0.8511536
vt 0.09309635 0.8421339
vt 0.02544894 0.8421339
vt 0.02544895 0.8511536
vt 0.09309644 0.8605242
vt 0.09309644 0.8515045
vt 0.02544894 0.8515045
vt 0.02544894 0.8605242
vt 0.02544894 0.8327633
vt 0.02544895 0.8417829
vt 0.09309637 0.8417829
vt 0.09309637 0.8327633
vt 0.02995884 0.760255
vt 0.02544894 0.760255
vt 0.02544905 0.8279024
vt 0.02995888 0.8279024

usemtl LOW-POLY-COLORS
usemap LOW-POLY-COLORS
f 2/2/2 1/1/1 3/3/3
f 3/3/3 1/1/1 4/4/4
f 6/6/6 5/5/5 7/7/7
f 7/7/7 5/5/5 8/8/8
f 10/10/10 9/9/9 11/11/11
f 11/11/11 9/9/9 12/12/12
f 14/14/14 13/13/13 15/15/15
f 15/15/15 13/13/13 16/16/16
f 18/18/18 17/17/17 19/19/19
f 19/19/19 17/17/17 20/20/20
f 22/22/22 21/21/21 23/23/23
f 23/23/23 21/21/21 24/24/24
f 26/26/26 25/25/25 27/27/27
f 27/27/27 25/25/25 28/28/28
f 30/30/30 29/29/29 31/31/31
f 31/31/31 29/29/29 32/32/32
f 34/34/34 33/33/33 35/35/35
f 35/35/35 33/33/33 36/36/36
