mtllib ./tile-road-tunnel_8.mtl
g tile-road-tunnel
v 15 5.999999 15.00001
v 7.000004 5.999999 -15.00001
v 15 5.999999 -15.00001
v 7.000004 5.999999 15.00001
v -7.000004 5.999999 15.00001
v -7.000004 5.999999 -15.00001
v -15 5.999999 15.00001
v -15 5.999999 -15.00001
v 15 5.999999 15.00001
v 15 3.999999 15.00001
v 7.000004 3.999999 15.00001
v 7.000004 5.999999 15.00001
v -7.000004 3.999999 15.00001
v -7.000004 5.999999 15.00001
v -5.00001 4.999999 15.00001
v -5.00001 3.999998 15.00001
v -5.00001 3.999998 15.00001
v -5.000003 -1.430511E-06 15.00002
v -7.000004 -1.999995 15.00001
v -5.000003 -2.000002 15.00001
v 7.000004 3.999999 15.00001
v 5.000003 -1.430511E-06 15.00002
v 5.00001 3.999999 15.00001
v 7.000004 -1.999995 15.00001
v 5.000003 -2.000002 15.00001
v 5.00001 4.999999 15.00001
v 7.000004 5.999999 15.00001
v 5.00001 3.999999 15.00001
v 3 -1.430511E-06 -15.00001
v 3 -1.430511E-06 15.00001
v 3 -0.2000022 15.00001
v 3 -0.2000022 -15.00001
v 3 -0.2000022 15.00001
v 3 -1.430511E-06 15.00001
v 5.000003 -1.430511E-06 15.00002
v 5.000003 -2.000002 15.00001
v 3 -2.000002 15.00001
v -3 -0.2000022 15.00001
v 3 -0.2000022 15.00001
v 3 -2.000002 15.00001
v -3 -2.000002 15.00001
v -5.00001 4.999999 -15.00001
v -5.00001 4.999999 15.00001
v 5.00001 4.999999 15.00001
v 5.00001 4.999999 -15.00001
v -5.000003 -1.430511E-06 -15.00002
v -5.000003 -1.430511E-06 15.00002
v -5.00001 3.999998 15.00001
v -5.00001 3.999998 -15.00001
v 3 -0.2000022 15.00001
v -3 -0.2000022 15.00001
v -3 -0.2000022 -15.00001
v 3 -0.2000022 -15.00001
v 15 3.999999 15.00001
v 7.000004 -1.999995 15.00001
v 7.000004 3.999999 15.00001
v 15 -6.000004 15.00001
v 5.000003 -2.000002 15.00001
v 3 -2.000002 15.00001
v -3 -2.000002 15.00001
v -14.99999 -6.000004 15.00002
v -5.000003 -2.000002 15.00001
v -7.000004 -1.999995 15.00001
v -15 3.999999 15.00001
v -7.000004 3.999999 15.00001
v -3 -1.430511E-06 -15.00001
v -3 -1.430511E-06 15.00001
v -5.000003 -1.430511E-06 15.00002
v -5.000003 -1.430511E-06 -15.00002
v 15 -6.000004 15.00001
v 15 3.999999 15.00001
v 15 3.999999 -15.00001
v 15 -6.000004 -15.00001
v -15 5.999999 15.00001
v -7.000004 5.999999 15.00001
v -7.000004 3.999999 15.00001
v -15 3.999999 15.00001
v -3 -1.430511E-06 -15.00001
v -3 -0.2000022 -15.00001
v -3 -0.2000022 15.00001
v -3 -1.430511E-06 15.00001
v -3 -0.2000022 15.00001
v -5.000003 -1.430511E-06 15.00002
v -3 -1.430511E-06 15.00001
v -5.000003 -2.000002 15.00001
v -3 -2.000002 15.00001
v 5.000003 -1.430511E-06 -15.00002
v 5.00001 3.999999 -15.00001
v 5.00001 3.999999 15.00001
v 5.000003 -1.430511E-06 15.00002
v 15 5.999999 -15.00001
v 7.000004 5.999999 -15.00001
v 7.000004 3.999999 -15.00001
v 15 3.999999 -15.00001
v 7.000004 3.999999 -15.00001
v 5.00001 3.999999 -15.00001
v 5.000003 -1.430511E-06 -15.00002
v 7.000004 -1.999995 -15.00001
v 5.000003 -2.000002 -15.00001
v 5.00001 4.999999 -15.00001
v 5.00001 3.999999 -15.00001
v 7.000004 5.999999 -15.00001
v -7.000004 5.999999 -15.00001
v -5.00001 4.999999 -15.00001
v -5.00001 3.999998 -15.00001
v -7.000004 3.999999 -15.00001
v -5.000003 -1.430511E-06 -15.00002
v -5.00001 3.999998 -15.00001
v -7.000004 -1.999995 -15.00001
v -5.000003 -2.000002 -15.00001
v 3 -0.2000022 -15.00001
v 5.000003 -1.430511E-06 -15.00002
v 3 -1.430511E-06 -15.00001
v 5.000003 -2.000002 -15.00001
v 3 -2.000002 -15.00001
v 3 -0.2000022 -15.00001
v -3 -0.2000022 -15.00001
v -3 -2.000002 -15.00001
v 3 -2.000002 -15.00001
v 15 3.999999 -15.00001
v 7.000004 3.999999 -15.00001
v 7.000004 -1.999995 -15.00001
v 15 -6.000004 -15.00001
v 5.000003 -2.000002 -15.00001
v 3 -2.000002 -15.00001
v -15 -6.000004 -15.00001
v -3 -2.000002 -15.00001
v -5.000003 -2.000002 -15.00001
v -7.000004 -1.999995 -15.00001
v -15 3.999999 -15.00001
v -7.000004 3.999999 -15.00001
v 15 3.999999 15.00001
v 15 5.999999 15.00001
v 15 5.999999 -15.00001
v 15 3.999999 -15.00001
v -15 5.999999 -15.00001
v -15 3.999999 -15.00001
v -7.000004 3.999999 -15.00001
v -7.000004 5.999999 -15.00001
v -3 -0.2000022 -15.00001
v -3 -1.430511E-06 -15.00001
v -5.000003 -1.430511E-06 -15.00002
v -5.000003 -2.000002 -15.00001
v -3 -2.000002 -15.00001
v -7.000004 5.999999 15.00001
v 7.000004 5.999999 15.00001
v 5.00001 4.999999 15.00001
v -5.00001 4.999999 15.00001
v 5.000003 -1.430511E-06 15.00002
v 3 -1.430511E-06 15.00001
v 3 -1.430511E-06 -15.00001
v 5.000003 -1.430511E-06 -15.00002
v -5.00001 4.999999 15.00001
v -5.00001 4.999999 -15.00001
v -5.00001 3.999998 -15.00001
v -5.00001 3.999998 15.00001
v 5.00001 4.999999 15.00001
v 5.00001 3.999999 15.00001
v 5.00001 3.999999 -15.00001
v 5.00001 4.999999 -15.00001
v -15 3.999999 -15.00001
v -15 3.999999 15.00001
v -14.99999 -6.000004 15.00002
v -15 -6.000004 -15.00001
v -15 5.999999 15.00001
v -15 3.999999 15.00001
v -15 3.999999 -15.00001
v -15 5.999999 -15.00001

vn 0 1 0
vn 0 1 0
vn 0 1 0
vn 0 1 0
vn 0 1 0
vn 0 1 0
vn 0 1 0
vn 0 1 0
vn 0 0 1
vn 0 0 1
vn 0 0 1
vn 0 0 1
vn 0 0 1
vn 0 0 1
vn 0 0 1
vn 0 0 1
vn 0 0 1
vn 0 0 1
vn 0 0 1
vn 0 0 1
vn 0 0 1
vn 0 0 1
vn 0 0 1
vn 0 0 1
vn 0 0 1
vn 0 0 1
vn 0 0 1
vn 0 0 1
vn -1 0 0
vn -1 0 0
vn -1 0 0
vn -1 0 0
vn 0 0 1
vn 0 0 1
vn 0 0 1
vn 0 0 1
vn 0 0 1
vn 0 0 1
vn 0 0 1
vn 0 0 1
vn 0 0 1
vn 0 -1 0
vn 0 -1 0
vn 0 -1 0
vn 0 -1 0
vn 1 0 0
vn 1 0 0
vn 1 0 0
vn 1 0 0
vn 0 1 0
vn 0 1 0
vn 0 1 0
vn 0 1 0
vn 0 0 1
vn 0 0 1
vn 0 0 1
vn 0 0 1
vn 0 0 1
vn 0 0 1
vn 0 0 1
vn 0 0 1
vn 0 0 1
vn 0 0 1
vn 0 0 1
vn 0 0 1
vn 0 1 0
vn 0 1 0
vn 0 1 0
vn 0 1 0
vn 1 0 0
vn 1 0 0
vn 1 0 0
vn 1 0 0
vn 0 0 1
vn 0 0 1
vn 0 0 1
vn 0 0 1
vn 1 0 0
vn 1 0 0
vn 1 0 0
vn 1 0 0
vn 0 0 1
vn 0 0 1
vn 0 0 1
vn 0 0 1
vn 0 0 1
vn -1 0 0
vn -1 0 0
vn -1 0 0
vn -1 0 0
vn 0 0 -1
vn 0 0 -1
vn 0 0 -1
vn 0 0 -1
vn 0 0 -1
vn 0 0 -1
vn 0 0 -1
vn 0 0 -1
vn 0 0 -1
vn 0 0 -1
vn 0 0 -1
vn 0 0 -1
vn 0 0 -1
vn 0 0 -1
vn 0 0 -1
vn 0 0 -1
vn 0 0 -1
vn 0 0 -1
vn 0 0 -1
vn 0 0 -1
vn 0 0 -1
vn 0 0 -1
vn 0 0 -1
vn 0 0 -1
vn 0 0 -1
vn 0 0 -1
vn 0 0 -1
vn 0 0 -1
vn 0 0 -1
vn 0 0 -1
vn 0 0 -1
vn 0 0 -1
vn 0 0 -1
vn 0 0 -1
vn 0 0 -1
vn 0 0 -1
vn 0 0 -1
vn 0 0 -1
vn 0 0 -1
vn 0 0 -1
vn 0 0 -1
vn 1 0 0
vn 1 0 0
vn 1 0 0
vn 1 0 0
vn 0 0 -1
vn 0 0 -1
vn 0 0 -1
vn 0 0 -1
vn 0 0 -1
vn 0 0 -1
vn 0 0 -1
vn 0 0 -1
vn 0 0 -1
vn 0 0 1
vn 0 0 1
vn 0 0 1
vn 0 0 1
vn 0 1 0
vn 0 1 0
vn 0 1 0
vn 0 1 0
vn 1 0 0
vn 1 0 0
vn 1 0 0
vn 1 0 0
vn -1 0 0
vn -1 0 0
vn -1 0 0
vn -1 0 0
vn -1 0 0
vn -1 0 0
vn -1 0 0
vn -1 0 0
vn -1 0 0
vn -1 0 0
vn -1 0 0
vn -1 0 0

vt 0.4347036 0.4325035
vt 0.3846247 0.4191491
vt 0.3846247 0.4325035
vt 0.4347036 0.4191491
vt 0.4347036 0.3957789
vt 0.3846247 0.3957789
vt 0.4347036 0.3824246
vt 0.3846247 0.3824246
vt 0.4347036 0.4325035
vt 0.4380422 0.4325035
vt 0.4380422 0.4191491
vt 0.4347036 0.4191491
vt 0.4620169 0.6595104
vt 0.461477 0.6583828
vt 0.4586485 0.6603906
vt 0.4601912 0.6613585
vt 0.4601912 0.6613585
vt 0.4654401 0.6637721
vt 0.4686818 0.6625705
vt 0.4676618 0.6647922
vt 0.4366972 0.6595767
vt 0.4332832 0.6634884
vt 0.438397 0.6613133
vt 0.4302533 0.6622223
vt 0.4311352 0.6643703
vt 0.4399449 0.660366
vt 0.4371028 0.6586537
vt 0.438397 0.6613133
vt 0.5635274 0.71935
vt 0.5635273 0.6722641
vt 0.5627056 0.6722553
vt 0.5627057 0.7193412
vt 0.5635273 0.6719502
vt 0.5635273 0.6722641
vt 0.5666664 0.6722641
vt 0.5666664 0.669125
vt 0.5635273 0.669125
vt 0.1776232 0.6970958
vt 0.1776232 0.68708
vt 0.1746185 0.68708
vt 0.1746185 0.6970958
vt 0.4577111 0.7132666
vt 0.4586485 0.6603906
vt 0.4399449 0.660366
vt 0.4381023 0.7141182
vt 0.4652278 0.709666
vt 0.4654401 0.6637721
vt 0.4601912 0.6613585
vt 0.4595352 0.7121719
vt 0.1776232 0.68708
vt 0.1776232 0.6970958
vt 0.2277022 0.6970958
vt 0.2277022 0.68708
vt 0.02164057 0.8410256
vt 0.03165638 0.8276712
vt 0.02164057 0.8276712
vt 0.03833359 0.8410256
vt 0.03165638 0.8243326
vt 0.03165638 0.820994
vt 0.03165638 0.8109782
vt 0.03833359 0.7909467
vt 0.03165638 0.8076396
vt 0.03165638 0.804301
vt 0.02164069 0.7909466
vt 0.02164066 0.804301
vt 0.5594569 0.672264
vt 0.5594569 0.7193494
vt 0.562596 0.7193494
vt 0.562596 0.672264
vt 0.03844321 0.8410256
vt 0.0551362 0.8410256
vt 0.0551362 0.7909466
vt 0.03844321 0.7909466
vt 0.4347036 0.3824246
vt 0.4347036 0.3957789
vt 0.4380422 0.3957789
vt 0.4380422 0.3824246
vt 0.5594569 0.672264
vt 0.5586352 0.6722701
vt 0.5586351 0.7193555
vt 0.5594569 0.7193494
vt 0.5594569 0.7196633
vt 0.562596 0.7193494
vt 0.5594569 0.7193494
vt 0.562596 0.7224885
vt 0.5594569 0.7224885
vt 0.4308611 0.7103606
vt 0.4363651 0.7130155
vt 0.438397 0.6613133
vt 0.4332832 0.6634884
vt 0.3846247 0.4325035
vt 0.3846247 0.4191491
vt 0.3812861 0.4191491
vt 0.3812861 0.4325035
vt 0.4344355 0.7149215
vt 0.4363651 0.7130155
vt 0.4308611 0.7103606
vt 0.4274096 0.7115932
vt 0.4285191 0.7092512
vt 0.4381023 0.7141182
vt 0.4363651 0.7130155
vt 0.4349663 0.7161035
vt 0.4609747 0.7153612
vt 0.4577111 0.7132666
vt 0.4595352 0.7121719
vt 0.4615067 0.7141824
vt 0.4652278 0.709666
vt 0.4595352 0.7121719
vt 0.4686818 0.7109954
vt 0.4676194 0.7086036
vt 0.5635274 0.719664
vt 0.5666664 0.71935
vt 0.5635274 0.71935
vt 0.5666664 0.7224891
vt 0.5635274 0.7224891
vt 0.2277022 0.68708
vt 0.2277022 0.6970958
vt 0.230707 0.6970958
vt 0.230707 0.68708
vt 0.09519938 0.84199
vt 0.09519935 0.8286356
vt 0.08518353 0.8286356
vt 0.07850632 0.84199
vt 0.08518353 0.825297
vt 0.08518353 0.8219584
vt 0.07850635 0.7919111
vt 0.08518353 0.8119427
vt 0.08518353 0.8086041
vt 0.08518356 0.8052655
vt 0.09519938 0.7919111
vt 0.09519935 0.8052655
vt 0.4347036 0.4358421
vt 0.4347036 0.4325035
vt 0.3846247 0.4325035
vt 0.3846247 0.4358421
vt 0.3846247 0.3824246
vt 0.3812861 0.3824246
vt 0.3812861 0.3957789
vt 0.3846247 0.3957789
vt 0.5594569 0.6719501
vt 0.5594569 0.672264
vt 0.562596 0.672264
vt 0.562596 0.669125
vt 0.5594569 0.669125
vt 0.461477 0.6583828
vt 0.4371028 0.6586537
vt 0.4399449 0.660366
vt 0.4586485 0.6603906
vt 0.5666664 0.6722641
vt 0.5635273 0.6722641
vt 0.5635274 0.71935
vt 0.5666664 0.71935
vt 0.4586485 0.6603906
vt 0.4577111 0.7132666
vt 0.4595352 0.7121719
vt 0.4601912 0.6613585
vt 0.4399449 0.660366
vt 0.438397 0.6613133
vt 0.4363651 0.7130155
vt 0.4381023 0.7141182
vt 0.05524579 0.7909466
vt 0.05524579 0.8410256
vt 0.07193878 0.8410256
vt 0.07193878 0.7909466
vt 0.4347036 0.3824246
vt 0.4347036 0.3790859
vt 0.3846247 0.379086
vt 0.3846247 0.3824246

usemtl LOW-POLY-COLORS
usemap LOW-POLY-COLORS
f 2/2/2 1/1/1 3/3/3
f 4/4/4 1/1/1 2/2/2
f 4/4/4 2/2/2 5/5/5
f 5/5/5 2/2/2 6/6/6
f 5/5/5 6/6/6 7/7/7
f 7/7/7 6/6/6 8/8/8
f 10/10/10 9/9/9 11/11/11
f 11/11/11 9/9/9 12/12/12
f 14/14/14 13/13/13 15/15/15
f 15/15/15 13/13/13 16/16/16
f 17/17/17 13/13/13 18/18/18
f 18/18/18 13/13/13 19/19/19
f 19/19/19 20/20/20 18/18/18
f 22/22/22 21/21/21 23/23/23
f 24/24/24 21/21/21 22/22/22
f 22/22/22 25/25/25 24/24/24
f 27/27/27 26/26/26 21/21/21
f 21/21/21 26/26/26 28/28/28
f 30/30/30 29/29/29 31/31/31
f 31/31/31 29/29/29 32/32/32
f 34/34/34 33/33/33 35/35/35
f 35/35/35 33/33/33 36/36/36
f 36/36/36 33/33/33 37/37/37
f 39/39/39 38/38/38 40/40/40
f 40/40/40 38/38/38 41/41/41
f 43/43/43 42/42/42 44/44/44
f 44/44/44 42/42/42 45/45/45
f 47/47/47 46/46/46 48/48/48
f 48/48/48 46/46/46 49/49/49
f 51/51/51 50/50/50 52/52/52
f 52/52/52 50/50/50 53/53/53
f 55/55/55 54/54/54 56/56/56
f 57/57/57 54/54/54 55/55/55
f 58/58/58 57/57/57 55/55/55
f 57/57/57 58/58/58 59/59/59
f 59/59/59 60/60/60 57/57/57
f 57/57/57 60/60/60 61/61/61
f 60/60/60 62/62/62 61/61/61
f 63/63/63 61/61/61 62/62/62
f 63/63/63 64/64/64 61/61/61
f 65/65/65 64/64/64 63/63/63
f 67/67/67 66/66/66 68/68/68
f 68/68/68 66/66/66 69/69/69
f 71/71/71 70/70/70 72/72/72
f 72/72/72 70/70/70 73/73/73
f 75/75/75 74/74/74 76/76/76
f 76/76/76 74/74/74 77/77/77
f 79/79/79 78/78/78 80/80/80
f 80/80/80 78/78/78 81/81/81
f 83/83/83 82/82/82 84/84/84
f 85/85/85 82/82/82 83/83/83
f 86/86/86 82/82/82 85/85/85
f 88/88/88 87/87/87 89/89/89
f 89/89/89 87/87/87 90/90/90
f 92/92/92 91/91/91 93/93/93
f 93/93/93 91/91/91 94/94/94
f 96/96/96 95/95/95 97/97/97
f 97/97/97 95/95/95 98/98/98
f 98/98/98 99/99/99 97/97/97
f 100/100/100 95/95/95 101/101/101
f 102/102/102 95/95/95 100/100/100
f 100/100/100 103/103/103 102/102/102
f 104/104/104 103/103/103 100/100/100
f 105/105/105 103/103/103 104/104/104
f 106/106/106 103/103/103 105/105/105
f 107/107/107 106/106/106 108/108/108
f 109/109/109 106/106/106 107/107/107
f 107/107/107 110/110/110 109/109/109
f 112/112/112 111/111/111 113/113/113
f 114/114/114 111/111/111 112/112/112
f 115/115/115 111/111/111 114/114/114
f 117/117/117 116/116/116 118/118/118
f 118/118/118 116/116/116 119/119/119
f 121/121/121 120/120/120 122/122/122
f 122/122/122 120/120/120 123/123/123
f 122/122/122 123/123/123 124/124/124
f 125/125/125 124/124/124 123/123/123
f 126/126/126 125/125/125 123/123/123
f 127/127/127 125/125/125 126/126/126
f 126/126/126 128/128/128 127/127/127
f 128/128/128 126/126/126 129/129/129
f 126/126/126 130/130/130 129/129/129
f 129/129/129 130/130/130 131/131/131
f 133/133/133 132/132/132 134/134/134
f 134/134/134 132/132/132 135/135/135
f 137/137/137 136/136/136 138/138/138
f 138/138/138 136/136/136 139/139/139
f 141/141/141 140/140/140 142/142/142
f 142/142/142 140/140/140 143/143/143
f 143/143/143 140/140/140 144/144/144
f 146/146/146 145/145/145 147/147/147
f 147/147/147 145/145/145 148/148/148
f 150/150/150 149/149/149 151/151/151
f 151/151/151 149/149/149 152/152/152
f 154/154/154 153/153/153 155/155/155
f 155/155/155 153/153/153 156/156/156
f 158/158/158 157/157/157 159/159/159
f 159/159/159 157/157/157 160/160/160
f 162/162/162 161/161/161 163/163/163
f 163/163/163 161/161/161 164/164/164
f 166/166/166 165/165/165 167/167/167
f 167/167/167 165/165/165 168/168/168
