mtllib ./leaf-maple_6.mtl
g leaf-maple
v 0.01297887 -0.01977333 0.04708902
v -0.0002883376 -0.01039359 -0.08276975
v -0.01303019 -0.01977332 0.04708903
v -0.02597547 0.003150387 0.2923195
v -0.003725313 0.02239616 0.2778462
v 0.02592426 0.003150357 0.2923195
v -0.01303019 -0.01977332 0.04708903
v -0.0002883376 -0.01039359 -0.08276975
v -0.00160515 -0.008365011 0.04408555
v -0.00160515 -0.008365011 0.04408555
v -0.0002883376 -0.01039359 -0.08276975
v 0.01297887 -0.01977333 0.04708902
v -0.1864909 0.01827868 -0.1178105
v -0.1009511 -0.01029363 0.02124034
v -0.2462153 0.004688915 -0.02872907
v -0.1421912 -0.002107137 0.1524729
v -0.1353753 -0.014468 0.09893298
v -2.563715E-05 -0.01454517 0.1386458
v -0.2761858 0.05239802 -0.1270578
v -0.1864909 0.01827868 -0.1178105
v -0.2462153 0.004688915 -0.02872907
v -2.573445E-05 0.05710621 -0.3220252
v -2.571993E-05 0.01357255 -0.2291693
v -0.06652098 0.0163067 -0.227025
v -0.06652098 0.0163067 -0.227025
v -2.571993E-05 0.01357255 -0.2291693
v -2.568919E-05 -0.0133673 -0.08052401
v 0.1864395 0.01827861 -0.1178105
v 0.2461639 0.004688828 -0.02872919
v 0.1008998 -0.01029367 0.02124029
v 0.1421399 -0.002107181 0.1524729
v -2.563715E-05 -0.01454517 0.1386458
v 0.135324 -0.01446805 0.09893293
v 0.2761344 0.05239793 -0.1270579
v 0.2461639 0.004688828 -0.02872919
v 0.1864395 0.01827861 -0.1178105
v -2.573445E-05 0.05710621 -0.3220252
v 0.06646954 0.01630667 -0.227025
v -2.571993E-05 0.01357255 -0.2291693
v 0.06646954 0.01630667 -0.227025
v -2.568919E-05 -0.0133673 -0.08052401
v -2.571993E-05 0.01357255 -0.2291693
v -0.1864909 0.01827868 -0.1178105
v -0.1009511 -0.01029363 0.02124034
v -0.2462153 0.004688915 -0.02872907
v -0.1421912 -0.002107137 0.1524729
v -0.1353753 -0.014468 0.09893298
v -2.563715E-05 -0.01454517 0.1386458
v -0.2761858 0.05239802 -0.1270578
v -0.1864909 0.01827868 -0.1178105
v -0.2462153 0.004688915 -0.02872907
v -2.573445E-05 0.05710621 -0.3220252
v -2.571993E-05 0.01357255 -0.2291693
v -0.06652098 0.0163067 -0.227025
v -0.06652098 0.0163067 -0.227025
v -2.571993E-05 0.01357255 -0.2291693
v -2.568919E-05 -0.0133673 -0.08052401
v 0.1864395 0.01827861 -0.1178105
v 0.2461639 0.004688828 -0.02872919
v 0.1008998 -0.01029367 0.02124029
v 0.1421399 -0.002107181 0.1524729
v -2.563715E-05 -0.01454517 0.1386458
v 0.135324 -0.01446805 0.09893293
v 0.2761344 0.05239793 -0.1270579
v 0.2461639 0.004688828 -0.02872919
v 0.1864395 0.01827861 -0.1178105
v -2.573445E-05 0.05710621 -0.3220252
v 0.06646954 0.01630667 -0.227025
v -2.571993E-05 0.01357255 -0.2291693
v 0.06646954 0.01630667 -0.227025
v -2.568919E-05 -0.0133673 -0.08052401
v -2.571993E-05 0.01357255 -0.2291693
v -0.01303019 -0.01977332 0.04708903
v -0.00160515 -0.008365011 0.04408555
v -0.003725313 0.02239616 0.2778462
v -0.02597547 0.003150387 0.2923195
v 0.01297887 -0.01977333 0.04708902
v 0.02592426 0.003150357 0.2923195
v -0.003725313 0.02239616 0.2778462
v -0.00160515 -0.008365011 0.04408555
v 0.02592426 0.003150357 0.2923195
v 0.01297887 -0.01977333 0.04708902
v -0.01303019 -0.01977332 0.04708903
v -0.02597547 0.003150387 0.2923195
v -0.1864909 0.01827868 -0.1178105
v -0.169176 0.0382178 -0.1539068
v -0.08809946 -0.0009745099 -0.08537873
v -0.1009511 -0.01029363 0.02124034
v -0.2462153 0.004688915 -0.02872907
v -0.1009511 -0.01029363 0.02124034
v -0.1353753 -0.014468 0.09893298
v -0.2699791 0.02032703 -0.001278076
v -2.568919E-05 -0.0133673 -0.08052401
v -0.08809946 -0.0009745099 -0.08537873
v -0.1236839 0.02653136 -0.2463772
v -0.06652098 0.0163067 -0.227025
v -2.568919E-05 -0.0133673 -0.08052401
v -2.565993E-05 -0.02038285 0.04739227
v -0.1009511 -0.01029363 0.02124034
v -0.08809946 -0.0009745099 -0.08537873
v -2.565993E-05 -0.02038285 0.04739227
v -2.563715E-05 -0.01454517 0.1386458
v -0.1353753 -0.014468 0.09893298
v -0.1009511 -0.01029363 0.02124034
v 0.1864395 0.01827861 -0.1178105
v 0.1008998 -0.01029367 0.02124029
v 0.08804806 -0.0009745397 -0.08537876
v 0.1691246 0.03821774 -0.1539069
v 0.2461639 0.004688828 -0.02872919
v 0.2699278 0.02032694 -0.001278205
v 0.135324 -0.01446805 0.09893293
v 0.1008998 -0.01029367 0.02124029
v -2.568919E-05 -0.0133673 -0.08052401
v 0.06646954 0.01630667 -0.227025
v 0.1236325 0.02653131 -0.2463773
v 0.08804806 -0.0009745397 -0.08537876
v -2.568919E-05 -0.0133673 -0.08052401
v 0.08804806 -0.0009745397 -0.08537876
v 0.1008998 -0.01029367 0.02124029
v -2.565993E-05 -0.02038285 0.04739227
v -2.565993E-05 -0.02038285 0.04739227
v 0.1008998 -0.01029367 0.02124029
v 0.135324 -0.01446805 0.09893293
v -2.563715E-05 -0.01454517 0.1386458
v -0.1864909 0.01827868 -0.1178105
v -0.169176 0.0382178 -0.1539068
v -0.08809946 -0.0009745099 -0.08537873
v -0.1009511 -0.01029363 0.02124034
v -0.2462153 0.004688915 -0.02872907
v -0.1009511 -0.01029363 0.02124034
v -0.1353753 -0.014468 0.09893298
v -0.2699791 0.02032703 -0.001278076
v -2.568919E-05 -0.0133673 -0.08052401
v -0.08809946 -0.0009745099 -0.08537873
v -0.1236839 0.02653136 -0.2463772
v -0.06652098 0.0163067 -0.227025
v -2.568919E-05 -0.0133673 -0.08052401
v -2.565993E-05 -0.02038285 0.04739227
v -0.1009511 -0.01029363 0.02124034
v -0.08809946 -0.0009745099 -0.08537873
v -2.565993E-05 -0.02038285 0.04739227
v -2.563715E-05 -0.01454517 0.1386458
v -0.1353753 -0.014468 0.09893298
v -0.1009511 -0.01029363 0.02124034
v 0.1864395 0.01827861 -0.1178105
v 0.1008998 -0.01029367 0.02124029
v 0.08804806 -0.0009745397 -0.08537876
v 0.1691246 0.03821774 -0.1539069
v 0.2461639 0.004688828 -0.02872919
v 0.2699278 0.02032694 -0.001278205
v 0.135324 -0.01446805 0.09893293
v 0.1008998 -0.01029367 0.02124029
v -2.568919E-05 -0.0133673 -0.08052401
v 0.06646954 0.01630667 -0.227025
v 0.1236325 0.02653131 -0.2463773
v 0.08804806 -0.0009745397 -0.08537876
v -2.568919E-05 -0.0133673 -0.08052401
v 0.08804806 -0.0009745397 -0.08537876
v 0.1008998 -0.01029367 0.02124029
v -2.565993E-05 -0.02038285 0.04739227
v -2.565993E-05 -0.02038285 0.04739227
v 0.1008998 -0.01029367 0.02124029
v 0.135324 -0.01446805 0.09893293
v -2.563715E-05 -0.01454517 0.1386458

vn -5.500526E-07 -0.9974016 -0.07204258
vn -5.500526E-07 -0.9974016 -0.07204258
vn -5.500526E-07 -0.9974016 -0.07204258
vn 3.493083E-07 0.6010338 0.7992235
vn 3.493083E-07 0.6010338 0.7992235
vn 3.493083E-07 0.6010338 0.7992235
vn -0.7089145 0.7050483 -0.01863348
vn -0.7089145 0.7050483 -0.01863348
vn -0.7089145 0.7050483 -0.01863348
vn 0.6169098 0.7870095 -0.006181529
vn 0.6169098 0.7870095 -0.006181529
vn 0.6169098 0.7870095 -0.006181529
vn 0.04048282 0.9833498 0.177156
vn 0.04048282 0.9833498 0.177156
vn 0.04048282 0.9833498 0.177156
vn 0.06414621 0.9741217 -0.2167309
vn 0.06414621 0.9741217 -0.2167309
vn 0.06414621 0.9741217 -0.2167309
vn 0.3036634 0.8902764 0.3394061
vn 0.3036634 0.8902764 0.3394061
vn 0.3036634 0.8902764 0.3394061
vn 0.05085252 0.9042596 0.4239441
vn 0.05085252 0.9042596 0.4239441
vn 0.05085252 0.9042596 0.4239441
vn 0.04616042 0.9829217 0.1781406
vn 0.04616042 0.9829217 0.1781406
vn 0.04616042 0.9829217 0.1781406
vn -0.04048238 0.9833498 0.177156
vn -0.04048238 0.9833498 0.177156
vn -0.04048238 0.9833498 0.177156
vn -0.06414603 0.9741216 -0.2167313
vn -0.06414603 0.9741216 -0.2167313
vn -0.06414603 0.9741216 -0.2167313
vn -0.3036629 0.8902765 0.3394062
vn -0.3036629 0.8902765 0.3394062
vn -0.3036629 0.8902765 0.3394062
vn -0.05085198 0.9042596 0.4239441
vn -0.05085198 0.9042596 0.4239441
vn -0.05085198 0.9042596 0.4239441
vn -0.04615994 0.9829217 0.1781407
vn -0.04615994 0.9829217 0.1781407
vn -0.04615994 0.9829217 0.1781407
vn 0.04048282 0.9833498 0.177156
vn 0.04048282 0.9833498 0.177156
vn 0.04048282 0.9833498 0.177156
vn 0.06414621 0.9741217 -0.2167309
vn 0.06414621 0.9741217 -0.2167309
vn 0.06414621 0.9741217 -0.2167309
vn 0.3036634 0.8902764 0.3394061
vn 0.3036634 0.8902764 0.3394061
vn 0.3036634 0.8902764 0.3394061
vn 0.05085252 0.9042596 0.4239441
vn 0.05085252 0.9042596 0.4239441
vn 0.05085252 0.9042596 0.4239441
vn 0.04616042 0.9829217 0.1781406
vn 0.04616042 0.9829217 0.1781406
vn 0.04616042 0.9829217 0.1781406
vn -0.04048238 0.9833498 0.177156
vn -0.04048238 0.9833498 0.177156
vn -0.04048238 0.9833498 0.177156
vn -0.06414603 0.9741216 -0.2167313
vn -0.06414603 0.9741216 -0.2167313
vn -0.06414603 0.9741216 -0.2167313
vn -0.3036629 0.8902765 0.3394062
vn -0.3036629 0.8902765 0.3394062
vn -0.3036629 0.8902765 0.3394062
vn -0.05085198 0.9042596 0.4239441
vn -0.05085198 0.9042596 0.4239441
vn -0.05085198 0.9042596 0.4239441
vn -0.04615994 0.9829217 0.1781407
vn -0.04615994 0.9829217 0.1781407
vn -0.04615994 0.9829217 0.1781407
vn -0.6979547 0.7089258 -0.1014081
vn -0.6979547 0.7089258 -0.1014081
vn -0.6979547 0.7089258 -0.1014081
vn -0.6979547 0.7089258 -0.1014081
vn 0.5937127 0.7980751 -0.1028654
vn 0.5937127 0.7980751 -0.1028654
vn 0.5937127 0.7980751 -0.1028654
vn 0.5937127 0.7980751 -0.1028654
vn -4.699895E-07 -0.9956593 0.09307244
vn -4.699895E-07 -0.9956593 0.09307244
vn -4.699895E-07 -0.9956593 0.09307244
vn -4.699895E-07 -0.9956593 0.09307244
vn 0.1159174 0.9679167 0.2229358
vn 0.1159174 0.9679167 0.2229358
vn 0.1159174 0.9679167 0.2229358
vn 0.1159174 0.9679167 0.2229358
vn 0.179287 0.9837639 -0.008039249
vn 0.179287 0.9837639 -0.008039249
vn 0.179287 0.9837639 -0.008039249
vn 0.179287 0.9837639 -0.008039249
vn 0.1296245 0.9816988 0.1395169
vn 0.1296245 0.9816988 0.1395169
vn 0.1296245 0.9816988 0.1395169
vn 0.1296245 0.9816988 0.1395169
vn 0.1056715 0.99158 0.07485092
vn 0.1056715 0.99158 0.07485092
vn 0.1056715 0.99158 0.07485092
vn 0.1056715 0.99158 0.07485092
vn 0.04327149 0.9990628 -0.001019113
vn 0.04327149 0.9990628 -0.001019113
vn 0.04327149 0.9990628 -0.001019113
vn 0.04327149 0.9990628 -0.001019113
vn -0.115917 0.9679167 0.2229359
vn -0.115917 0.9679167 0.2229359
vn -0.115917 0.9679167 0.2229359
vn -0.115917 0.9679167 0.2229359
vn -0.1792867 0.9837641 -0.008039133
vn -0.1792867 0.9837641 -0.008039133
vn -0.1792867 0.9837641 -0.008039133
vn -0.1792867 0.9837641 -0.008039133
vn -0.1296241 0.9816989 0.1395169
vn -0.1296241 0.9816989 0.1395169
vn -0.1296241 0.9816989 0.1395169
vn -0.1296241 0.9816989 0.1395169
vn -0.1056712 0.99158 0.07485098
vn -0.1056712 0.99158 0.07485098
vn -0.1056712 0.99158 0.07485098
vn -0.1056712 0.99158 0.07485098
vn -0.04327112 0.9990628 -0.001019048
vn -0.04327112 0.9990628 -0.001019048
vn -0.04327112 0.9990628 -0.001019048
vn -0.04327112 0.9990628 -0.001019048
vn 0.1159174 0.9679167 0.2229358
vn 0.1159174 0.9679167 0.2229358
vn 0.1159174 0.9679167 0.2229358
vn 0.1159174 0.9679167 0.2229358
vn 0.179287 0.9837639 -0.008039249
vn 0.179287 0.9837639 -0.008039249
vn 0.179287 0.9837639 -0.008039249
vn 0.179287 0.9837639 -0.008039249
vn 0.1296245 0.9816988 0.1395169
vn 0.1296245 0.9816988 0.1395169
vn 0.1296245 0.9816988 0.1395169
vn 0.1296245 0.9816988 0.1395169
vn 0.1056715 0.99158 0.07485092
vn 0.1056715 0.99158 0.07485092
vn 0.1056715 0.99158 0.07485092
vn 0.1056715 0.99158 0.07485092
vn 0.04327149 0.9990628 -0.001019113
vn 0.04327149 0.9990628 -0.001019113
vn 0.04327149 0.9990628 -0.001019113
vn 0.04327149 0.9990628 -0.001019113
vn -0.115917 0.9679167 0.2229359
vn -0.115917 0.9679167 0.2229359
vn -0.115917 0.9679167 0.2229359
vn -0.115917 0.9679167 0.2229359
vn -0.1792867 0.9837641 -0.008039133
vn -0.1792867 0.9837641 -0.008039133
vn -0.1792867 0.9837641 -0.008039133
vn -0.1792867 0.9837641 -0.008039133
vn -0.1296241 0.9816989 0.1395169
vn -0.1296241 0.9816989 0.1395169
vn -0.1296241 0.9816989 0.1395169
vn -0.1296241 0.9816989 0.1395169
vn -0.1056712 0.99158 0.07485098
vn -0.1056712 0.99158 0.07485098
vn -0.1056712 0.99158 0.07485098
vn -0.1056712 0.99158 0.07485098
vn -0.04327112 0.9990628 -0.001019048
vn -0.04327112 0.9990628 -0.001019048
vn -0.04327112 0.9990628 -0.001019048
vn -0.04327112 0.9990628 -0.001019048

vt 0.1742501 0.581087
vt 0.1737176 0.5753294
vt 0.1732061 0.581087
vt 0.1768519 0.5917581
vt 0.1759799 0.5910115
vt 0.1747697 0.5917581
vt 0.1762675 0.5810974
vt 0.1757475 0.5753294
vt 0.1758223 0.5809002
vt 0.1758223 0.5809002
vt 0.1757475 0.5753294
vt 0.1752241 0.5810974
vt 0.2089274 0.5692018
vt 0.202351 0.5702521
vt 0.2076556 0.5737852
vt 0.1994196 0.5753294
vt 0.2008279 0.5736243
vt 0.1961608 0.5701039
vt 0.2116586 0.5719254
vt 0.2089274 0.5692018
vt 0.2076556 0.5737852
vt 0.2106163 0.5569775
vt 0.2075648 0.5596992
vt 0.2092068 0.56203
vt 0.2092068 0.56203
vt 0.2075648 0.5596992
vt 0.2028823 0.5639447
vt 0.1994221 0.5564278
vt 0.1951058 0.5569197
vt 0.1972061 0.563338
vt 0.1921726 0.5655901
vt 0.1961608 0.5701039
vt 0.1939283 0.564352
vt 0.1975809 0.5530068
vt 0.1951058 0.5569197
vt 0.1994221 0.5564278
vt 0.2106163 0.5569775
vt 0.2058172 0.5574746
vt 0.2075648 0.5596992
vt 0.2058172 0.5574746
vt 0.2028823 0.5639447
vt 0.2075648 0.5596992
vt 0.1894414 0.5692018
vt 0.1828649 0.5702521
vt 0.1881696 0.5737852
vt 0.1799336 0.5753294
vt 0.1813419 0.5736243
vt 0.1766748 0.5701039
vt 0.1921726 0.5719254
vt 0.1894414 0.5692018
vt 0.1881696 0.5737852
vt 0.1911303 0.5569775
vt 0.1880787 0.5596992
vt 0.1897208 0.56203
vt 0.1897208 0.56203
vt 0.1880787 0.5596992
vt 0.1833963 0.5639447
vt 0.1799361 0.5564278
vt 0.1756198 0.5569197
vt 0.1777201 0.563338
vt 0.1726865 0.5655901
vt 0.1766748 0.5701039
vt 0.1744423 0.564352
vt 0.1780949 0.5530068
vt 0.1756198 0.5569197
vt 0.1799361 0.5564278
vt 0.1911303 0.5569775
vt 0.1863311 0.5574746
vt 0.1880787 0.5596992
vt 0.1863311 0.5574746
vt 0.1833963 0.5639447
vt 0.1880787 0.5596992
vt 0.1762675 0.5810974
vt 0.1758223 0.5809002
vt 0.1759799 0.5910115
vt 0.1768519 0.5917581
vt 0.1752241 0.5810974
vt 0.1747697 0.5917581
vt 0.1759799 0.5910115
vt 0.1758223 0.5809002
vt 0.1747697 0.5919788
vt 0.1742501 0.581087
vt 0.1732061 0.581087
vt 0.1726865 0.5919788
vt 0.2089274 0.5692018
vt 0.2096866 0.5675428
vt 0.2053346 0.5667928
vt 0.202351 0.5702521
vt 0.2076556 0.5737852
vt 0.202351 0.5702521
vt 0.2008279 0.5736243
vt 0.2074943 0.5753294
vt 0.2028823 0.5639447
vt 0.2053346 0.5667928
vt 0.2113053 0.5634178
vt 0.2092068 0.56203
vt 0.2028823 0.5639447
vt 0.1989294 0.5675559
vt 0.202351 0.5702521
vt 0.2053346 0.5667928
vt 0.1989294 0.5675559
vt 0.1961608 0.5701039
vt 0.2008279 0.5736243
vt 0.202351 0.5702521
vt 0.1994221 0.5564278
vt 0.1972061 0.563338
vt 0.2008449 0.5607592
vt 0.201064 0.5559551
vt 0.1951058 0.5569197
vt 0.193733 0.556836
vt 0.1939283 0.564352
vt 0.1972061 0.563338
vt 0.2028823 0.5639447
vt 0.2058172 0.5574746
vt 0.2050016 0.5549464
vt 0.2008449 0.5607592
vt 0.2028823 0.5639447
vt 0.2008449 0.5607592
vt 0.1972061 0.563338
vt 0.1989294 0.5675559
vt 0.1989294 0.5675559
vt 0.1972061 0.563338
vt 0.1939283 0.564352
vt 0.1961608 0.5701039
vt 0.1894414 0.5692018
vt 0.1902006 0.5675428
vt 0.1858486 0.5667928
vt 0.1828649 0.5702521
vt 0.1881696 0.5737852
vt 0.1828649 0.5702521
vt 0.1813419 0.5736243
vt 0.1880082 0.5753294
vt 0.1833963 0.5639447
vt 0.1858486 0.5667928
vt 0.1918192 0.5634178
vt 0.1897208 0.56203
vt 0.1833963 0.5639447
vt 0.1794434 0.5675559
vt 0.1828649 0.5702521
vt 0.1858486 0.5667928
vt 0.1794434 0.5675559
vt 0.1766748 0.5701039
vt 0.1813419 0.5736243
vt 0.1828649 0.5702521
vt 0.1799361 0.5564278
vt 0.1777201 0.563338
vt 0.1813589 0.5607592
vt 0.181578 0.5559551
vt 0.1756198 0.5569197
vt 0.174247 0.556836
vt 0.1744423 0.564352
vt 0.1777201 0.563338
vt 0.1833963 0.5639447
vt 0.1863311 0.5574746
vt 0.1855156 0.5549464
vt 0.1813589 0.5607592
vt 0.1833963 0.5639447
vt 0.1813589 0.5607592
vt 0.1777201 0.563338
vt 0.1794434 0.5675559
vt 0.1794434 0.5675559
vt 0.1777201 0.563338
vt 0.1744423 0.564352
vt 0.1766748 0.5701039

usemtl LOW-POLY-COLORS
usemap LOW-POLY-COLORS
f 2/2/2 1/1/1 3/3/3
f 5/5/5 4/4/4 6/6/6
f 8/8/8 7/7/7 9/9/9
f 11/11/11 10/10/10 12/12/12
f 14/14/14 13/13/13 15/15/15
f 17/17/17 16/16/16 18/18/18
f 20/20/20 19/19/19 21/21/21
f 23/23/23 22/22/22 24/24/24
f 26/26/26 25/25/25 27/27/27
f 29/29/29 28/28/28 30/30/30
f 32/32/32 31/31/31 33/33/33
f 35/35/35 34/34/34 36/36/36
f 38/38/38 37/37/37 39/39/39
f 41/41/41 40/40/40 42/42/42
f 44/44/44 43/43/43 45/45/45
f 47/47/47 46/46/46 48/48/48
f 50/50/50 49/49/49 51/51/51
f 53/53/53 52/52/52 54/54/54
f 56/56/56 55/55/55 57/57/57
f 59/59/59 58/58/58 60/60/60
f 62/62/62 61/61/61 63/63/63
f 65/65/65 64/64/64 66/66/66
f 68/68/68 67/67/67 69/69/69
f 71/71/71 70/70/70 72/72/72
f 74/74/74 73/73/73 75/75/75
f 75/75/75 73/73/73 76/76/76
f 78/78/78 77/77/77 79/79/79
f 79/79/79 77/77/77 80/80/80
f 82/82/82 81/81/81 83/83/83
f 83/83/83 81/81/81 84/84/84
f 86/86/86 85/85/85 87/87/87
f 87/87/87 85/85/85 88/88/88
f 90/90/90 89/89/89 91/91/91
f 91/91/91 89/89/89 92/92/92
f 94/94/94 93/93/93 95/95/95
f 95/95/95 93/93/93 96/96/96
f 98/98/98 97/97/97 99/99/99
f 99/99/99 97/97/97 100/100/100
f 102/102/102 101/101/101 103/103/103
f 103/103/103 101/101/101 104/104/104
f 106/106/106 105/105/105 107/107/107
f 107/107/107 105/105/105 108/108/108
f 110/110/110 109/109/109 111/111/111
f 111/111/111 109/109/109 112/112/112
f 114/114/114 113/113/113 115/115/115
f 115/115/115 113/113/113 116/116/116
f 118/118/118 117/117/117 119/119/119
f 119/119/119 117/117/117 120/120/120
f 122/122/122 121/121/121 123/123/123
f 123/123/123 121/121/121 124/124/124
f 126/126/126 125/125/125 127/127/127
f 127/127/127 125/125/125 128/128/128
f 130/130/130 129/129/129 131/131/131
f 131/131/131 129/129/129 132/132/132
f 134/134/134 133/133/133 135/135/135
f 135/135/135 133/133/133 136/136/136
f 138/138/138 137/137/137 139/139/139
f 139/139/139 137/137/137 140/140/140
f 142/142/142 141/141/141 143/143/143
f 143/143/143 141/141/141 144/144/144
f 146/146/146 145/145/145 147/147/147
f 147/147/147 145/145/145 148/148/148
f 150/150/150 149/149/149 151/151/151
f 151/151/151 149/149/149 152/152/152
f 154/154/154 153/153/153 155/155/155
f 155/155/155 153/153/153 156/156/156
f 158/158/158 157/157/157 159/159/159
f 159/159/159 157/157/157 160/160/160
f 162/162/162 161/161/161 163/163/163
f 163/163/163 161/161/161 164/164/164
