mtllib ./leaf-long_0.mtl
g leaf-long
v 2.860036E-08 -0.0004012159 0.2902837
v 1.226999E-08 0.02803009 0.1353707
v 0.1355653 -6.782417E-05 0.1353707
v 0.1307968 -5.154941E-05 -0.1440892
v -9.4652E-08 0.02848976 -0.1440891
v -1.525092E-07 -0.000401306 -0.4063928
v -0.1355652 -6.777947E-05 0.1353707
v 1.226999E-08 0.02803009 0.1353707
v 2.860036E-08 -0.0004012159 0.2902837
v -0.1307968 -5.150471E-05 -0.1440891
v -1.043967E-07 -0.02724331 -0.1440891
v -1.525092E-07 -0.000401306 -0.4063928
v 0.1355653 -6.782417E-05 0.1353707
v 2.083167E-09 -0.03023178 0.1353707
v 2.860036E-08 -0.0004012159 0.2902837
v 2.860036E-08 -0.0004012159 0.2902837
v 2.083167E-09 -0.03023178 0.1353707
v -0.1355652 -6.777947E-05 0.1353707
v -1.525092E-07 -0.000401306 -0.4063928
v -9.4652E-08 0.02848976 -0.1440891
v -0.1307968 -5.150471E-05 -0.1440891
v -1.525092E-07 -0.000401306 -0.4063928
v -1.043967E-07 -0.02724331 -0.1440891
v 0.1307968 -5.154941E-05 -0.1440892
v -0.1307968 -5.150471E-05 -0.1440891
v -9.4652E-08 0.02848976 -0.1440891
v 1.226999E-08 0.02803009 0.1353707
v -0.1355652 -6.777947E-05 0.1353707
v 0.1307968 -5.154941E-05 -0.1440892
v -1.043967E-07 -0.02724331 -0.1440891
v 2.083167E-09 -0.03023178 0.1353707
v 0.1355653 -6.782417E-05 0.1353707
v -0.1355652 -6.777947E-05 0.1353707
v 2.083167E-09 -0.03023178 0.1353707
v -1.043967E-07 -0.02724331 -0.1440891
v -0.1307968 -5.150471E-05 -0.1440891
v 0.1355653 -6.782417E-05 0.1353707
v 1.226999E-08 0.02803009 0.1353707
v -9.4652E-08 0.02848976 -0.1440891
v 0.1307968 -5.154941E-05 -0.1440892

vn 0.1997515 0.9637498 0.1768777
vn 0.1997515 0.9637498 0.1768777
vn 0.1997515 0.9637498 0.1768777
vn 0.2119704 0.9714016 -0.1069937
vn 0.2119704 0.9714016 -0.1069937
vn 0.2119704 0.9714016 -0.1069937
vn -0.1997512 0.9637499 0.1768778
vn -0.1997512 0.9637499 0.1768778
vn -0.1997512 0.9637499 0.1768778
vn -0.2025276 -0.9741891 -0.09969046
vn -0.2025276 -0.9741891 -0.09969046
vn -0.2025276 -0.9741891 -0.09969046
vn 0.2134554 -0.9593285 0.1847314
vn 0.2134554 -0.9593285 0.1847314
vn 0.2134554 -0.9593285 0.1847314
vn -0.2134558 -0.9593284 0.1847315
vn -0.2134558 -0.9593284 0.1847315
vn -0.2134558 -0.9593284 0.1847315
vn -0.2119704 0.9714016 -0.1069936
vn -0.2119704 0.9714016 -0.1069936
vn -0.2119704 0.9714016 -0.1069936
vn 0.2025271 -0.9741892 -0.09969057
vn 0.2025271 -0.9741892 -0.09969057
vn 0.2025271 -0.9741892 -0.09969057
vn -0.2079894 0.9781306 -0.0009414589
vn -0.2079894 0.9781306 -0.0009414589
vn -0.2079894 0.9781306 -0.0009414589
vn -0.2079894 0.9781306 -0.0009414589
vn 0.2104996 -0.9775685 -0.007051325
vn 0.2104996 -0.9775685 -0.007051325
vn 0.2104996 -0.9775685 -0.007051325
vn 0.2104996 -0.9775685 -0.007051325
vn -0.2105002 -0.9775684 -0.007051195
vn -0.2105002 -0.9775684 -0.007051195
vn -0.2105002 -0.9775684 -0.007051195
vn -0.2105002 -0.9775684 -0.007051195
vn 0.2079896 0.9781305 -0.0009415856
vn 0.2079896 0.9781305 -0.0009415856
vn 0.2079896 0.9781305 -0.0009415856
vn 0.2079896 0.9781305 -0.0009415856

vt 0.4181137 0.6050009
vt 0.4184533 0.5851055
vt 0.4011118 0.5848947
vt 0.4023316 0.5491695
vt 0.4190632 0.5493687
vt 0.4196342 0.5159144
vt 0.4357919 0.5854865
vt 0.4184533 0.5851055
vt 0.4181137 0.6050009
vt 0.4704719 0.5711681
vt 0.4537434 0.5715467
vt 0.4543143 0.6049938
vt 0.4357919 0.536017
vt 0.4531336 0.5358244
vt 0.4527938 0.5159144
vt 0.4527938 0.5159144
vt 0.4531336 0.5358244
vt 0.4704719 0.535425
vt 0.4196342 0.5159144
vt 0.4190632 0.5493687
vt 0.4357919 0.5497406
vt 0.4543143 0.6049938
vt 0.4537434 0.5715467
vt 0.4370117 0.5717392
vt 0.4357919 0.5497406
vt 0.4190632 0.5493687
vt 0.4184533 0.5851055
vt 0.4357919 0.5854865
vt 0.4370117 0.5717392
vt 0.4537434 0.5715467
vt 0.4531336 0.5358244
vt 0.4357919 0.536017
vt 0.4704719 0.535425
vt 0.4531336 0.5358244
vt 0.4537434 0.5715467
vt 0.4704719 0.5711681
vt 0.4011118 0.5848947
vt 0.4184533 0.5851055
vt 0.4190632 0.5493687
vt 0.4023316 0.5491695

usemtl LOW-POLY-COLORS
usemap LOW-POLY-COLORS
f 2/2/2 1/1/1 3/3/3
f 5/5/5 4/4/4 6/6/6
f 8/8/8 7/7/7 9/9/9
f 11/11/11 10/10/10 12/12/12
f 14/14/14 13/13/13 15/15/15
f 17/17/17 16/16/16 18/18/18
f 20/20/20 19/19/19 21/21/21
f 23/23/23 22/22/22 24/24/24
f 26/26/26 25/25/25 27/27/27
f 27/27/27 25/25/25 28/28/28
f 30/30/30 29/29/29 31/31/31
f 31/31/31 29/29/29 32/32/32
f 34/34/34 33/33/33 35/35/35
f 35/35/35 33/33/33 36/36/36
f 38/38/38 37/37/37 39/39/39
f 39/39/39 37/37/37 40/40/40
