mtllib ./leaf-maple-simple_4.mtl
g leaf-maple-simple
v 7.818213E-09 -0.02517435 0.09716948
v 2.814342E-08 -0.0171571 0.2224937
v -0.1942541 0.02412932 0.1606607
v -5.033272E-08 0.03503497 -0.3576662
v 7.818213E-09 -0.02517435 0.09716948
v -0.1209925 0.008650493 -0.08517324
v -0.01678847 -0.02391985 0.08896232
v 0.01685486 -0.02391985 0.0889623
v -1.745012E-08 -0.01754194 -0.07901309
v 0.03359998 0.005732492 0.3481995
v -0.03353353 0.005732492 0.3481995
v 0.004818897 0.03062738 0.329478
v 0.01685486 -0.02391985 0.0889623
v 0.002076314 -0.009162921 0.08507723
v -1.745012E-08 -0.01754194 -0.07901309
v 0.002076314 -0.009162921 0.08507723
v -0.01678847 -0.02391985 0.08896232
v -1.745012E-08 -0.01754194 -0.07901309
v 7.818213E-09 -0.02517435 0.09716948
v 0.1942541 0.02412925 0.1606606
v 2.814342E-08 -0.0171571 0.2224937
v -5.033272E-08 0.03503497 -0.3576662
v 0.1209925 0.008650448 -0.08517328
v 7.818213E-09 -0.02517435 0.09716948
v 7.818213E-09 -0.02517435 0.09716948
v 2.814342E-08 -0.0171571 0.2224937
v -0.1942541 0.02412932 0.1606607
v -5.033272E-08 0.03503497 -0.3576662
v 7.818213E-09 -0.02517435 0.09716948
v -0.1209925 0.008650493 -0.08517324
v 7.818213E-09 -0.02517435 0.09716948
v 0.1942541 0.02412925 0.1606606
v 2.814342E-08 -0.0171571 0.2224937
v -5.033272E-08 0.03503497 -0.3576662
v 0.1209925 0.008650448 -0.08517328
v 7.818213E-09 -0.02517435 0.09716948
v -0.316893 0.05706742 -0.1056278
v 7.818213E-09 -0.02517435 0.09716948
v -0.1942541 0.02412932 0.1606607
v -0.1209925 0.008650493 -0.08517324
v 0.01685486 -0.02391985 0.0889623
v 0.03359998 0.005732492 0.3481995
v 0.004818897 0.03062738 0.329478
v 0.002076314 -0.009162921 0.08507723
v -0.01678847 -0.02391985 0.08896232
v 0.002076314 -0.009162921 0.08507723
v 0.004818897 0.03062738 0.329478
v -0.03353353 0.005732492 0.3481995
v -0.03353353 0.005732492 0.3481995
v 0.03359998 0.005732492 0.3481995
v 0.01685486 -0.02391985 0.0889623
v -0.01678847 -0.02391985 0.08896232
v 0.316893 0.05706731 -0.1056279
v 0.1942541 0.02412925 0.1606606
v 7.818213E-09 -0.02517435 0.09716948
v 0.1209925 0.008650448 -0.08517328
v -0.316893 0.05706742 -0.1056278
v 7.818213E-09 -0.02517435 0.09716948
v -0.1942541 0.02412932 0.1606607
v -0.1209925 0.008650493 -0.08517324
v 0.316893 0.05706731 -0.1056279
v 0.1942541 0.02412925 0.1606606
v 7.818213E-09 -0.02517435 0.09716948
v 0.1209925 0.008650448 -0.08517328

vn 0.2263915 0.9720494 -0.06218406
vn 0.2263915 0.9720494 -0.06218406
vn 0.2263915 0.9720494 -0.06218406
vn 0.07912195 0.9882438 0.1308198
vn 0.07912195 0.9882438 0.1308198
vn 0.07912195 0.9882438 0.1308198
vn -3.293613E-07 -0.9992799 -0.03794197
vn -3.293613E-07 -0.9992799 -0.03794197
vn -3.293613E-07 -0.9992799 -0.03794197
vn 0 0.6010337 0.7992237
vn 0 0.6010337 0.7992237
vn 0 0.6010337 0.7992237
vn 0.7117525 0.7010001 -0.04480172
vn 0.7117525 0.7010001 -0.04480172
vn 0.7117525 0.7010001 -0.04480172
vn -0.6199167 0.7840071 -0.03218995
vn -0.6199167 0.7840071 -0.03218995
vn -0.6199167 0.7840071 -0.03218995
vn -0.2263911 0.9720495 -0.06218401
vn -0.2263911 0.9720495 -0.06218401
vn -0.2263911 0.9720495 -0.06218401
vn -0.07912156 0.9882439 0.1308198
vn -0.07912156 0.9882439 0.1308198
vn -0.07912156 0.9882439 0.1308198
vn 0.2263915 0.9720494 -0.06218406
vn 0.2263915 0.9720494 -0.06218406
vn 0.2263915 0.9720494 -0.06218406
vn 0.07912195 0.9882438 0.1308198
vn 0.07912195 0.9882438 0.1308198
vn 0.07912195 0.9882438 0.1308198
vn -0.2263911 0.9720495 -0.06218401
vn -0.2263911 0.9720495 -0.06218401
vn -0.2263911 0.9720495 -0.06218401
vn -0.07912156 0.9882439 0.1308198
vn -0.07912156 0.9882439 0.1308198
vn -0.07912156 0.9882439 0.1308198
vn 0.2477641 0.9688035 0.005726954
vn 0.2477641 0.9688035 0.005726954
vn 0.2477641 0.9688035 0.005726954
vn 0.2376622 0.9710886 0.02243885
vn 0.7023538 0.7009748 -0.1238287
vn 0.7023538 0.7009748 -0.1238287
vn 0.7023538 0.7009748 -0.1238287
vn 0.7023538 0.7009748 -0.1238287
vn -0.5981627 0.7914459 -0.1257567
vn -0.5981627 0.7914459 -0.1257567
vn -0.5981627 0.7914459 -0.1257567
vn -0.5981627 0.7914459 -0.1257567
vn 0 -0.9935217 0.113642
vn 0 -0.9935217 0.113642
vn 0 -0.9935217 0.113642
vn 0 -0.9935217 0.113642
vn -0.2477637 0.9688036 0.005727076
vn -0.2477637 0.9688036 0.005727076
vn -0.2477637 0.9688036 0.005727076
vn -0.237662 0.9710887 0.02243891
vn 0.2477641 0.9688035 0.005726954
vn 0.2477641 0.9688035 0.005726954
vn 0.2477641 0.9688035 0.005726954
vn 0.2376622 0.9710886 0.02243885
vn -0.2477637 0.9688036 0.005727076
vn -0.2477637 0.9688036 0.005727076
vn -0.2477637 0.9688036 0.005727076
vn -0.237662 0.9710887 0.02243891

vt 0.4233918 0.5609889
vt 0.4199165 0.5637771
vt 0.4260067 0.5678936
vt 0.4362002 0.5510508
vt 0.4233918 0.5609889
vt 0.4312115 0.560388
vt 0.3993033 0.5738578
vt 0.4005004 0.5738578
vt 0.3999007 0.5678936
vt 0.4010963 0.5830835
vt 0.403477 0.5830835
vt 0.4021896 0.582406
vt 0.4015929 0.5738732
vt 0.4021603 0.5737282
vt 0.402203 0.5678936
vt 0.4021603 0.5737282
vt 0.4027859 0.5738732
vt 0.402203 0.5678936
vt 0.4233918 0.5609889
vt 0.4174538 0.5570928
vt 0.4199165 0.5637771
vt 0.4362002 0.5510508
vt 0.4258843 0.5536607
vt 0.4233918 0.5609889
vt 0.4046454 0.5609889
vt 0.4011701 0.5637771
vt 0.4072602 0.5678936
vt 0.4174538 0.5510508
vt 0.4046454 0.5609889
vt 0.4124651 0.560388
vt 0.4046454 0.5609889
vt 0.3987074 0.5570928
vt 0.4011701 0.5637771
vt 0.4174538 0.5510508
vt 0.4071379 0.5536607
vt 0.4046454 0.5609889
vt 0.4362002 0.5654799
vt 0.4233918 0.5609889
vt 0.4260067 0.5678936
vt 0.4312115 0.560388
vt 0.4015929 0.5738732
vt 0.4010963 0.5830835
vt 0.4021896 0.582406
vt 0.4021603 0.5737282
vt 0.4027859 0.5738732
vt 0.4021603 0.5737282
vt 0.4021896 0.582406
vt 0.403477 0.5830835
vt 0.3987074 0.5831159
vt 0.4010963 0.5831159
vt 0.4005004 0.5738578
vt 0.3993033 0.5738578
vt 0.4222478 0.5478603
vt 0.4174538 0.5570928
vt 0.4233918 0.5609889
vt 0.4258843 0.5536607
vt 0.4174538 0.5654799
vt 0.4046454 0.5609889
vt 0.4072602 0.5678936
vt 0.4124651 0.560388
vt 0.4035014 0.5478603
vt 0.3987074 0.5570928
vt 0.4046454 0.5609889
vt 0.4071379 0.5536607

usemtl LOW-POLY-COLORS
usemap LOW-POLY-COLORS
f 2/2/2 1/1/1 3/3/3
f 5/5/5 4/4/4 6/6/6
f 8/8/8 7/7/7 9/9/9
f 11/11/11 10/10/10 12/12/12
f 14/14/14 13/13/13 15/15/15
f 17/17/17 16/16/16 18/18/18
f 20/20/20 19/19/19 21/21/21
f 23/23/23 22/22/22 24/24/24
f 26/26/26 25/25/25 27/27/27
f 29/29/29 28/28/28 30/30/30
f 32/32/32 31/31/31 33/33/33
f 35/35/35 34/34/34 36/36/36
f 38/38/38 37/37/37 39/39/39
f 38/38/38 40/40/40 37/37/37
f 42/42/42 41/41/41 43/43/43
f 43/43/43 41/41/41 44/44/44
f 46/46/46 45/45/45 47/47/47
f 47/47/47 45/45/45 48/48/48
f 50/50/50 49/49/49 51/51/51
f 51/51/51 49/49/49 52/52/52
f 54/54/54 53/53/53 55/55/55
f 53/53/53 56/56/56 55/55/55
f 58/58/58 57/57/57 59/59/59
f 58/58/58 60/60/60 57/57/57
f 62/62/62 61/61/61 63/63/63
f 61/61/61 64/64/64 63/63/63
