mtllib ./leaf-linded_3.mtl
g leaf-linded
v -0.1258627 -0.005569629 -0.1798133
v -0.0108702 -0.02579739 -0.1799016
v -9.688777E-08 0.01644681 -0.3740248
v 0.01087011 -0.02579739 -0.1799016
v -0.0108702 -0.02579739 -0.1799016
v -9.688777E-08 0.01644681 -0.3740248
v 0.1258626 -0.005569674 -0.1798133
v -9.688777E-08 0.01644681 -0.3740248
v 0.01087011 -0.02579739 -0.1799016
v 0.01087011 -0.02579739 -0.1799016
v -9.688777E-08 0.01644681 -0.3740248
v -5.217154E-08 -0.03952125 -0.1825634
v 0.02479121 -0.02721881 0.3145574
v 5.955929E-08 -0.04058297 0.3057432
v -0.02479107 -0.02721881 0.3145574
v -5.217154E-08 -0.03952125 -0.1825634
v -9.688777E-08 0.01644681 -0.3740248
v -0.0108702 -0.02579739 -0.1799016
v -0.1258627 -0.005569629 -0.1798133
v -9.688777E-08 0.01644681 -0.3740248
v -0.0108702 -0.02579739 -0.1799016
v 0.1258626 -0.005569674 -0.1798133
v 0.01087011 -0.02579739 -0.1799016
v -9.688777E-08 0.01644681 -0.3740248
v -5.217154E-08 -0.03952125 -0.1825634
v -6.741567E-09 -0.04902675 0.01212313
v 0.01401057 -0.03459893 0.009858674
v 0.01087011 -0.02579739 -0.1799016
v -0.1150354 2.756479E-08 0.1192607
v -0.01479602 2.165327E-08 0.1544702
v -0.01401057 -0.03459892 0.009858681
v -0.1690047 -0.002624966 0.00484488
v 0.0147961 2.165327E-08 0.1544702
v -0.01479602 2.165327E-08 0.1544702
v -0.01401057 -0.03459892 0.009858681
v 0.01401057 -0.03459893 0.009858674
v -0.1690047 -0.002624966 0.00484488
v -0.01401057 -0.03459892 0.009858681
v -0.0108702 -0.02579739 -0.1799016
v -0.1258627 -0.005569629 -0.1798133
v 0.01401057 -0.03459893 0.009858674
v -0.01401057 -0.03459892 0.009858681
v -0.0108702 -0.02579739 -0.1799016
v 0.01087011 -0.02579739 -0.1799016
v 0.1150355 -9.688113E-09 0.1192606
v 0.1690047 -0.002625025 0.0048448
v 0.01401057 -0.03459893 0.009858674
v 0.0147961 2.165327E-08 0.1544702
v -6.741567E-09 -0.04902675 0.01212313
v -5.217154E-08 -0.03952125 -0.1825634
v -0.0108702 -0.02579739 -0.1799016
v -0.01401057 -0.03459892 0.009858681
v -0.02479107 -0.02721881 0.3145574
v 5.955929E-08 -0.04058297 0.3057432
v 3.424347E-08 -0.01443412 0.1571481
v -0.01479602 2.165327E-08 0.1544702
v 0.0147961 2.165327E-08 0.1544702
v 0.01401057 -0.03459893 0.009858674
v -6.741567E-09 -0.04902675 0.01212313
v 3.424347E-08 -0.01443412 0.1571481
v 0.0147961 2.165327E-08 0.1544702
v 3.424347E-08 -0.01443412 0.1571481
v 5.955929E-08 -0.04058297 0.3057432
v 0.02479121 -0.02721881 0.3145574
v 0.1690047 -0.002625025 0.0048448
v 0.01401057 -0.03459893 0.009858674
v 0.01087011 -0.02579739 -0.1799016
v 0.1258626 -0.005569674 -0.1798133
v 3.424347E-08 -0.01443412 0.1571481
v -6.741567E-09 -0.04902675 0.01212313
v -0.01401057 -0.03459892 0.009858681
v -0.01479602 2.165327E-08 0.1544702
v -0.1150354 2.756479E-08 0.1192607
v -0.1690047 -0.002624966 0.00484488
v -0.01401057 -0.03459892 0.009858681
v -0.01479602 2.165327E-08 0.1544702
v -0.01401057 -0.03459892 0.009858681
v -0.1690047 -0.002624966 0.00484488
v -0.1258627 -0.005569629 -0.1798133
v -0.0108702 -0.02579739 -0.1799016
v 0.1150355 -9.688113E-09 0.1192606
v 0.0147961 2.165327E-08 0.1544702
v 0.01401057 -0.03459893 0.009858674
v 0.1690047 -0.002625025 0.0048448
v -0.01479602 2.165327E-08 0.1544702
v 0.0147961 2.165327E-08 0.1544702
v 0.02479121 -0.02721881 0.3145574
v -0.02479107 -0.02721881 0.3145574
v 0.01401057 -0.03459893 0.009858674
v 0.1690047 -0.002625025 0.0048448
v 0.1258626 -0.005569674 -0.1798133
v 0.01087011 -0.02579739 -0.1799016

vn -0.1692177 -0.961028 -0.21861
vn -0.1692177 -0.961028 -0.21861
vn -0.1692177 -0.961028 -0.21861
vn 0 0.9771309 0.2126388
vn 0 0.9771309 0.2126388
vn 0 0.9771309 0.2126388
vn 0.1692173 -0.9610282 -0.2186101
vn 0.1692173 -0.9610282 -0.2186101
vn 0.1692173 -0.9610282 -0.2186101
vn 0.7881448 -0.5907663 -0.1726932
vn 0.7881448 -0.5907663 -0.1726932
vn 0.7881448 -0.5907663 -0.1726932
vn 5.133161E-07 -0.5505752 0.8347856
vn 5.133161E-07 -0.5505752 0.8347856
vn 5.133161E-07 -0.5505752 0.8347856
vn -0.7881452 -0.5907659 -0.1726927
vn -0.7881452 -0.5907659 -0.1726927
vn -0.7881452 -0.5907659 -0.1726927
vn 0.1692177 0.961028 0.21861
vn 0.1692177 0.961028 0.21861
vn 0.1692177 0.961028 0.21861
vn -0.1692173 0.9610282 0.2186101
vn -0.1692173 0.9610282 0.2186101
vn -0.1692173 0.9610282 0.2186101
vn 0.7490292 -0.6614681 -0.03761731
vn 0.7490292 -0.6614681 -0.03761731
vn 0.7490292 -0.6614681 -0.03761731
vn 0.7490292 -0.6614681 -0.03761731
vn -0.1488978 -0.9740345 0.1705471
vn -0.1488978 -0.9740345 0.1705471
vn -0.1488978 -0.9740345 0.1705471
vn -0.1488978 -0.9740345 0.1705471
vn 1.087145E-07 0.9725516 -0.2326872
vn 1.087145E-07 0.9725516 -0.2326872
vn 1.087145E-07 0.9725516 -0.2326872
vn 1.087145E-07 0.9725516 -0.2326872
vn -0.1890103 -0.9812117 -0.03871251
vn -0.1890103 -0.9812117 -0.03871251
vn -0.1890103 -0.9812117 -0.03871251
vn -0.1890103 -0.9812117 -0.03871251
vn 0 0.998926 0.04633256
vn 0 0.998926 0.04633256
vn 0 0.998926 0.04633256
vn 0 0.998926 0.04633256
vn 0.1488975 -0.9740345 0.170547
vn 0.1488975 -0.9740345 0.170547
vn 0.1488975 -0.9740345 0.170547
vn 0.1488975 -0.9740345 0.170547
vn -0.7490298 -0.6614677 -0.03761693
vn -0.7490298 -0.6614677 -0.03761693
vn -0.7490298 -0.6614677 -0.03761693
vn -0.7490298 -0.6614677 -0.03761693
vn -0.5837258 -0.796698 -0.1566409
vn -0.5837258 -0.796698 -0.1566409
vn -0.5837258 -0.796698 -0.1566409
vn -0.5837258 -0.796698 -0.1566409
vn 0.7121907 -0.6832078 0.1612806
vn 0.7121907 -0.6832078 0.1612806
vn 0.7121907 -0.6832078 0.1612806
vn 0.7121907 -0.6832078 0.1612806
vn 0.5837255 -0.7966983 -0.1566411
vn 0.5837255 -0.7966983 -0.1566411
vn 0.5837255 -0.7966983 -0.1566411
vn 0.5837255 -0.7966983 -0.1566411
vn -0.18901 0.9812118 0.03871261
vn -0.18901 0.9812118 0.03871261
vn -0.18901 0.9812118 0.03871261
vn -0.18901 0.9812118 0.03871261
vn -0.712191 -0.6832075 0.1612809
vn -0.712191 -0.6832075 0.1612809
vn -0.712191 -0.6832075 0.1612809
vn -0.712191 -0.6832075 0.1612809
vn 0.1488978 0.9740345 -0.1705471
vn 0.1488978 0.9740345 -0.1705471
vn 0.1488978 0.9740345 -0.1705471
vn 0.1488978 0.9740345 -0.1705471
vn 0.1890103 0.9812117 0.0387125
vn 0.1890103 0.9812117 0.0387125
vn 0.1890103 0.9812117 0.0387125
vn 0.1890103 0.9812117 0.0387125
vn -0.1488975 0.9740345 -0.170547
vn -0.1488975 0.9740345 -0.170547
vn -0.1488975 0.9740345 -0.170547
vn -0.1488975 0.9740345 -0.170547
vn 0 0.9858518 0.1676195
vn 0 0.9858518 0.1676195
vn 0 0.9858518 0.1676195
vn 0 0.9858518 0.1676195
vn 0.18901 -0.9812118 -0.03871261
vn 0.18901 -0.9812118 -0.03871261
vn 0.18901 -0.9812118 -0.03871261
vn 0.18901 -0.9812118 -0.03871261

vt 0.3100278 0.4341795
vt 0.3068482 0.4326853
vt 0.3039098 0.4380535
vt 0.3239104 0.4243111
vt 0.3245876 0.4243111
vt 0.324249 0.418219
vt 0.3029316 0.4309152
vt 0.3039098 0.4380535
vt 0.3062354 0.4324034
vt 0.3062354 0.4324034
vt 0.3039098 0.4380535
vt 0.3065504 0.4326161
vt 0.3122152 0.418219
vt 0.3128423 0.4187865
vt 0.3136129 0.418862
vt 0.3065504 0.4326161
vt 0.3039098 0.4380535
vt 0.3068482 0.4326853
vt 0.3197275 0.4285171
vt 0.3234767 0.4346956
vt 0.3233087 0.4285964
vt 0.3147956 0.4243975
vt 0.3183768 0.4243182
vt 0.3185449 0.418219
vt 0.3065504 0.4326161
vt 0.3090873 0.4270998
vt 0.3086181 0.4269862
vt 0.3062354 0.4324034
vt 0.3135568 0.4255705
vt 0.3111845 0.4232735
vt 0.3094081 0.4273495
vt 0.3136129 0.4295101
vt 0.3237881 0.4346892
vt 0.3247099 0.4346892
vt 0.3246854 0.4302282
vt 0.3238125 0.4302282
vt 0.3136129 0.4295101
vt 0.3094081 0.4273495
vt 0.3068482 0.4326853
vt 0.3100278 0.4341795
vt 0.3238125 0.4302282
vt 0.3246854 0.4302282
vt 0.3245876 0.4243111
vt 0.3239104 0.4243111
vt 0.307071 0.422587
vt 0.3040844 0.4251268
vt 0.3086181 0.4269862
vt 0.3103503 0.4228897
vt 0.3090873 0.4270998
vt 0.3065504 0.4326161
vt 0.3068482 0.4326853
vt 0.3094081 0.4273495
vt 0.3136129 0.418862
vt 0.3128423 0.4187865
vt 0.310847 0.4230019
vt 0.3111845 0.4232735
vt 0.3103503 0.4228897
vt 0.3086181 0.4269862
vt 0.3090873 0.4270998
vt 0.310847 0.4230019
vt 0.3103503 0.4228897
vt 0.310847 0.4230019
vt 0.3128423 0.4187865
vt 0.3122152 0.418219
vt 0.3136129 0.4301773
vt 0.3184445 0.4302357
vt 0.3183768 0.4243182
vt 0.3147956 0.4243975
vt 0.310847 0.4230019
vt 0.3090873 0.4270998
vt 0.3094081 0.4273495
vt 0.3111845 0.4232735
vt 0.3203248 0.4192272
vt 0.3185449 0.4227372
vt 0.3233764 0.4226788
vt 0.3234767 0.418219
vt 0.3233764 0.4226788
vt 0.3185449 0.4227372
vt 0.3197275 0.4285171
vt 0.3233087 0.4285964
vt 0.315393 0.4336873
vt 0.3185449 0.4346956
vt 0.3184445 0.4302357
vt 0.3136129 0.4301773
vt 0.3247099 0.4346892
vt 0.3237881 0.4346892
vt 0.3234767 0.4397042
vt 0.3250212 0.4397042
vt 0.3086181 0.4269862
vt 0.3040844 0.4251268
vt 0.3029316 0.4309152
vt 0.3062354 0.4324034

usemtl LOW-POLY-COLORS
usemap LOW-POLY-COLORS
f 2/2/2 1/1/1 3/3/3
f 5/5/5 4/4/4 6/6/6
f 8/8/8 7/7/7 9/9/9
f 11/11/11 10/10/10 12/12/12
f 14/14/14 13/13/13 15/15/15
f 17/17/17 16/16/16 18/18/18
f 20/20/20 19/19/19 21/21/21
f 23/23/23 22/22/22 24/24/24
f 26/26/26 25/25/25 27/27/27
f 27/27/27 25/25/25 28/28/28
f 30/30/30 29/29/29 31/31/31
f 31/31/31 29/29/29 32/32/32
f 34/34/34 33/33/33 35/35/35
f 35/35/35 33/33/33 36/36/36
f 38/38/38 37/37/37 39/39/39
f 39/39/39 37/37/37 40/40/40
f 42/42/42 41/41/41 43/43/43
f 43/43/43 41/41/41 44/44/44
f 46/46/46 45/45/45 47/47/47
f 47/47/47 45/45/45 48/48/48
f 50/50/50 49/49/49 51/51/51
f 51/51/51 49/49/49 52/52/52
f 54/54/54 53/53/53 55/55/55
f 55/55/55 53/53/53 56/56/56
f 58/58/58 57/57/57 59/59/59
f 59/59/59 57/57/57 60/60/60
f 62/62/62 61/61/61 63/63/63
f 63/63/63 61/61/61 64/64/64
f 66/66/66 65/65/65 67/67/67
f 67/67/67 65/65/65 68/68/68
f 70/70/70 69/69/69 71/71/71
f 71/71/71 69/69/69 72/72/72
f 74/74/74 73/73/73 75/75/75
f 75/75/75 73/73/73 76/76/76
f 78/78/78 77/77/77 79/79/79
f 79/79/79 77/77/77 80/80/80
f 82/82/82 81/81/81 83/83/83
f 83/83/83 81/81/81 84/84/84
f 86/86/86 85/85/85 87/87/87
f 87/87/87 85/85/85 88/88/88
f 90/90/90 89/89/89 91/91/91
f 91/91/91 89/89/89 92/92/92
