mtllib ./dynamite_4.mtl
g dynamite
v -0.03607218 0.4919829 0.0003566972
v -0.04603519 0.4852206 0.0003569156
v -0.03893155 0.486772 -0.005746551
v -0.03892788 0.486765 0.005749805
v -0.04603519 0.4852206 0.0003569156
v -0.03607218 0.4919829 0.0003566972
v 0.03950809 0 -0.02281
v 0.03950809 0 0.02281
v 0.03950809 0.35 0.02281
v 0.03950809 0.35 -0.02281
v 3.988228E-09 0 0.04562001
v -0.03950808 0 0.02281001
v -0.03950808 0.35 0.02281001
v 3.988228E-09 0.35 0.04562001
v -0.03950809 0 -0.02281
v 0 0 -0.04562001
v 0 0.35 -0.04562001
v -0.03950809 0.35 -0.02281
v 0 0 -0.04562001
v 0.03950809 0 -0.02281
v 0.03950809 0.35 -0.02281
v 0 0.35 -0.04562001
v 0.03950809 0 0.02281
v 3.988228E-09 0 0.04562001
v 3.988228E-09 0.35 0.04562001
v 0.03950809 0.35 0.02281
v -0.03950808 0 0.02281001
v -0.03950809 0 -0.02281
v -0.03950809 0.35 -0.02281
v -0.03950808 0.35 0.02281001
v -0.03950809 0.35 -0.02281
v 3.988228E-09 0.35 0.04562001
v -0.03950808 0.35 0.02281001
v 0.03950809 0.35 0.02281
v 0 0.35 -0.04562001
v 0.03950809 0.35 -0.02281
v -0.006467889 0.4302874 0.005792682
v -0.03892788 0.486765 0.005749805
v -0.03607218 0.4919829 0.0003566972
v -0.0007857796 0.4308865 4.431645E-06
v -0.0122795 0.4295894 5.159334E-06
v -0.04603519 0.4852206 0.0003569156
v -0.03892788 0.486765 0.005749805
v -0.006467889 0.4302874 0.005792682
v -0.006466042 0.4302903 -0.005792299
v -0.03893155 0.486772 -0.005746551
v -0.04603519 0.4852206 0.0003569156
v -0.0122795 0.4295894 5.159334E-06
v -0.0122795 0.4295894 5.159334E-06
v -0.006467889 0.4302874 0.005792682
v 2.432235E-05 0.3500019 0.005796783
v -0.005795023 0.3499458 -3.447705E-11
v -0.006467889 0.4302874 0.005792682
v -0.0007857796 0.4308865 4.431645E-06
v 0.005795035 0.3500541 -7.418813E-11
v 2.432235E-05 0.3500019 0.005796783
v -0.006466042 0.4302903 -0.005792299
v -0.0122795 0.4295894 5.159334E-06
v -0.005795023 0.3499458 -3.447705E-11
v 2.43224E-05 0.3500019 -0.005796783
v -0.0007857796 0.4308865 4.431645E-06
v -0.03607218 0.4919829 0.0003566972
v -0.03893155 0.486772 -0.005746551
v -0.006466042 0.4302903 -0.005792299
v -0.006466042 0.4302903 -0.005792299
v 2.43224E-05 0.3500019 -0.005796783
v 0.005795035 0.3500541 -7.418813E-11
v -0.0007857796 0.4308865 4.431645E-06
v -0.03950808 0 0.02281001
v 3.988228E-09 0 0.04562001
v 0.03950809 0 0.02281
v -0.03950809 0 -0.02281
v 0.03950809 0 -0.02281
v 0 0 -0.04562001

vn -0.5134162 0.7564073 -0.40528
vn -0.5134162 0.7564073 -0.40528
vn -0.5134162 0.7564073 -0.40528
vn -0.5016704 0.7391165 0.4494814
vn -0.5016704 0.7391165 0.4494814
vn -0.5016704 0.7391165 0.4494814
vn 1 0 0
vn 1 0 0
vn 1 0 0
vn 1 0 0
vn -0.5 0 0.8660254
vn -0.5 0 0.8660254
vn -0.5 0 0.8660254
vn -0.5 0 0.8660254
vn -0.5000001 0 -0.8660253
vn -0.5000001 0 -0.8660253
vn -0.5000001 0 -0.8660253
vn -0.5000001 0 -0.8660253
vn 0.5000001 0 -0.8660253
vn 0.5000001 0 -0.8660253
vn 0.5000001 0 -0.8660253
vn 0.5000001 0 -0.8660253
vn 0.5000001 0 0.8660253
vn 0.5000001 0 0.8660253
vn 0.5000001 0 0.8660253
vn 0.5000001 0 0.8660253
vn -1 0 0
vn -1 0 0
vn -1 0 0
vn -1 0 0
vn -3.444828E-07 1 0
vn -3.444828E-07 1 0
vn -3.444828E-07 1 0
vn -3.444828E-07 1 0
vn 6.889656E-07 1 0
vn 6.889656E-07 1 0
vn 0.6380419 0.3658578 0.6775327
vn 0.6380419 0.3658578 0.6775327
vn 0.6380419 0.3658578 0.6775327
vn 0.6380419 0.3658578 0.6775327
vn -0.5795007 -0.3443103 0.7386672
vn -0.5795007 -0.3443103 0.7386672
vn -0.5795007 -0.3443103 0.7386672
vn -0.5795007 -0.3443103 0.7386672
vn -0.6002787 -0.3520174 -0.7181569
vn -0.6002787 -0.3520174 -0.7181569
vn -0.6002787 -0.3520174 -0.7181569
vn -0.6002787 -0.3520174 -0.7181569
vn -0.7026782 -0.0570202 0.7092193
vn -0.7026782 -0.0570202 0.7092193
vn -0.7026782 -0.0570202 0.7092193
vn -0.7026782 -0.0570202 0.7092193
vn 0.7083601 0.05747455 0.7035074
vn 0.7083601 0.05747455 0.7035074
vn 0.7083601 0.05747455 0.7035074
vn 0.7083601 0.05747455 0.7035074
vn -0.7029223 -0.05698339 -0.7089803
vn -0.7029223 -0.05698339 -0.7089803
vn -0.7029223 -0.05698339 -0.7089803
vn -0.7029223 -0.05698339 -0.7089803
vn 0.6541544 0.3791582 -0.6544624
vn 0.6541544 0.3791582 -0.6544624
vn 0.6541544 0.3791582 -0.6544624
vn 0.6541544 0.3791582 -0.6544624
vn 0.7086782 0.05753149 -0.7031823
vn 0.7086782 0.05753149 -0.7031823
vn 0.7086782 0.05753149 -0.7031823
vn 0.7086782 0.05753149 -0.7031823
vn 0 -1 0
vn 0 -1 0
vn 0 -1 0
vn 0 -1 0
vn 0 -1 0
vn 0 -1 0

vt 0.09361997 0.6759246
vt 0.09285498 0.6758552
vt 0.09264509 0.684639
vt 0.09319691 0.6757325
vt 0.09285498 0.6758552
vt 0.09361997 0.6759246
vt 0.179405 0.5423682
vt 0.1736092 0.5423682
vt 0.1736092 0.5868344
vt 0.179405 0.5868344
vt 0.1678133 0.5423682
vt 0.1620174 0.5423682
vt 0.1620174 0.5868344
vt 0.1678133 0.5868344
vt 0.1562216 0.5423682
vt 0.1504257 0.5423682
vt 0.1504257 0.5868344
vt 0.1562216 0.5868344
vt 0.1852009 0.5423682
vt 0.179405 0.5423682
vt 0.179405 0.5868344
vt 0.1852009 0.5868344
vt 0.1736092 0.5423682
vt 0.1678133 0.5423682
vt 0.1678133 0.5868344
vt 0.1736092 0.5868344
vt 0.1620174 0.5423682
vt 0.1562216 0.5423682
vt 0.1562216 0.5868344
vt 0.1620174 0.5868344
vt 0.1953814 0.5627955
vt 0.1853427 0.5627955
vt 0.1903621 0.5656934
vt 0.1853427 0.5569996
vt 0.1953814 0.5569996
vt 0.1903621 0.5541017
vt 0.09323052 0.670677
vt 0.09319691 0.6757325
vt 0.09361997 0.6759246
vt 0.09411518 0.6705685
vt 0.09235311 0.670844
vt 0.09285498 0.6758552
vt 0.09319691 0.6757325
vt 0.09323052 0.670677
vt 0.09121776 0.6707583
vt 0.09264509 0.684639
vt 0.09285498 0.6758552
vt 0.09235311 0.670844
vt 0.09235311 0.670844
vt 0.09323052 0.670677
vt 0.09315221 0.6600091
vt 0.09218521 0.6600603
vt 0.09323052 0.670677
vt 0.09411518 0.6705685
vt 0.09421167 0.6599602
vt 0.09315221 0.6600091
vt 0.09121776 0.6707583
vt 0.09235311 0.670844
vt 0.09218521 0.6600603
vt 0.09121776 0.6600047
vt 0.09411518 0.6705685
vt 0.09361997 0.6759246
vt 0.09264509 0.684639
vt 0.09499118 0.6707562
vt 0.09499118 0.6707562
vt 0.09526852 0.6600434
vt 0.09421167 0.6599602
vt 0.09411518 0.6705685
vt 0.1853427 0.5452661
vt 0.1853427 0.5510619
vt 0.1903621 0.5539599
vt 0.1903621 0.5423682
vt 0.1953814 0.5510619
vt 0.1953814 0.5452661

usemtl LOW-POLY-COLORS
usemap LOW-POLY-COLORS
f 2/2/2 1/1/1 3/3/3
f 5/5/5 4/4/4 6/6/6
f 8/8/8 7/7/7 9/9/9
f 9/9/9 7/7/7 10/10/10
f 12/12/12 11/11/11 13/13/13
f 13/13/13 11/11/11 14/14/14
f 16/16/16 15/15/15 17/17/17
f 17/17/17 15/15/15 18/18/18
f 20/20/20 19/19/19 21/21/21
f 21/21/21 19/19/19 22/22/22
f 24/24/24 23/23/23 25/25/25
f 25/25/25 23/23/23 26/26/26
f 28/28/28 27/27/27 29/29/29
f 29/29/29 27/27/27 30/30/30
f 32/32/32 31/31/31 33/33/33
f 34/34/34 31/31/31 32/32/32
f 34/34/34 35/35/35 31/31/31
f 36/36/36 35/35/35 34/34/34
f 38/38/38 37/37/37 39/39/39
f 39/39/39 37/37/37 40/40/40
f 42/42/42 41/41/41 43/43/43
f 43/43/43 41/41/41 44/44/44
f 46/46/46 45/45/45 47/47/47
f 47/47/47 45/45/45 48/48/48
f 50/50/50 49/49/49 51/51/51
f 51/51/51 49/49/49 52/52/52
f 54/54/54 53/53/53 55/55/55
f 55/55/55 53/53/53 56/56/56
f 58/58/58 57/57/57 59/59/59
f 59/59/59 57/57/57 60/60/60
f 62/62/62 61/61/61 63/63/63
f 63/63/63 61/61/61 64/64/64
f 66/66/66 65/65/65 67/67/67
f 67/67/67 65/65/65 68/68/68
f 70/70/70 69/69/69 71/71/71
f 71/71/71 69/69/69 72/72/72
f 71/71/71 72/72/72 73/73/73
f 73/73/73 72/72/72 74/74/74
