mtllib ./pistol-bullet_9.mtl
g pistol-bullet
v -0.009134585 0.03987069 3.992854E-10
v -0.006459127 0.03987069 -0.006459127
v -0.004609647 0.0479367 -0.004609647
v -0.006519025 0.0479367 2.849557E-10
v 0.006459128 0.03987069 -0.006459126
v 0.009134585 0.03987069 -1.089288E-10
v 0.006519025 0.0479367 -7.77386E-11
v 0.004609648 0.0479367 -0.004609647
v 0.006459128 0.03987069 0.006459126
v 7.985708E-10 0.03987069 0.009134585
v 5.699113E-10 0.0479367 0.006519025
v 0.004609648 0.0479367 0.004609646
v -0.006459127 0.03987069 0.006459127
v -0.009134585 0.03987069 3.992854E-10
v -0.006519025 0.0479367 2.849557E-10
v -0.004609647 0.0479367 0.004609647
v -0.006459127 0.03987069 -0.006459127
v 0 0.03987069 -0.009134585
v 0 0.0479367 -0.006519025
v -0.004609647 0.0479367 -0.004609647
v 0 0.03987069 -0.009134585
v 0.006459128 0.03987069 -0.006459126
v 0.004609648 0.0479367 -0.004609647
v 0 0.0479367 -0.006519025
v 0.009134585 0.03987069 -1.089288E-10
v 0.006459128 0.03987069 0.006459126
v 0.004609648 0.0479367 0.004609646
v 0.006519025 0.0479367 -7.77386E-11
v 7.985708E-10 0.03987069 0.009134585
v -0.006459127 0.03987069 0.006459127
v -0.004609647 0.0479367 0.004609647
v 5.699113E-10 0.0479367 0.006519025
v 8.050123E-10 0 0.009208267
v -0.006511228 0 0.006511228
v -0.006459127 0.03987069 0.006459127
v 7.985708E-10 0.03987069 0.009134585
v 0.009208267 0 -1.098075E-10
v 0.006511229 0 0.006511227
v 0.006459128 0.03987069 0.006459126
v 0.009134585 0.03987069 -1.089288E-10
v 0 0 -0.009208267
v 0.006511229 0 -0.006511228
v 0.006459128 0.03987069 -0.006459126
v 0 0.03987069 -0.009134585
v -0.006511228 0 -0.006511228
v 0 0 -0.009208267
v 0 0.03987069 -0.009134585
v -0.006459127 0.03987069 -0.006459127
v -0.006511228 0 0.006511228
v -0.009208267 0 4.025061E-10
v -0.009134585 0.03987069 3.992854E-10
v -0.006459127 0.03987069 0.006459127
v 0.006511229 0 0.006511227
v 8.050123E-10 0 0.009208267
v 7.985708E-10 0.03987069 0.009134585
v 0.006459128 0.03987069 0.006459126
v 0.006511229 0 -0.006511228
v 0.009208267 0 -1.098075E-10
v 0.009134585 0.03987069 -1.089288E-10
v 0.006459128 0.03987069 -0.006459126
v -0.009208267 0 4.025061E-10
v -0.006511228 0 -0.006511228
v -0.006459127 0.03987069 -0.006459127
v -0.009134585 0.03987069 3.992854E-10
v 3.073508E-10 0.05 0
v 0.006519025 0.0479367 -7.77386E-11
v 0.004609648 0.0479367 0.004609646
v 5.699113E-10 0.0479367 0.006519025
v -0.006519025 0.0479367 2.849557E-10
v 3.073508E-10 0.05 0
v 5.699113E-10 0.0479367 0.006519025
v -0.004609647 0.0479367 0.004609647
v 0 0.0479367 -0.006519025
v 0.004609648 0.0479367 -0.004609647
v 0.006519025 0.0479367 -7.77386E-11
v 3.073508E-10 0.05 0
v -0.004609647 0.0479367 -0.004609647
v 0 0.0479367 -0.006519025
v 3.073508E-10 0.05 0
v -0.006519025 0.0479367 2.849557E-10
v 0 0 0
v 0 0 -0.009208267
v -0.006511228 0 -0.006511228
v -0.009208267 0 4.025061E-10
v 0.006511229 0 -0.006511228
v -0.006511228 0 0.006511228
v 0.009208267 0 -1.098075E-10
v 8.050123E-10 0 0.009208267
v 0.006511229 0 0.006511227

vn -0.8850171 0.2869836 -0.3665859
vn -0.8850171 0.2869836 -0.3665859
vn -0.8850171 0.2869836 -0.3665859
vn -0.8850171 0.2869836 -0.3665859
vn 0.885017 0.2869837 -0.3665859
vn 0.885017 0.2869837 -0.3665859
vn 0.885017 0.2869837 -0.3665859
vn 0.885017 0.2869837 -0.3665859
vn 0.3665861 0.2869836 0.885017
vn 0.3665861 0.2869836 0.885017
vn 0.3665861 0.2869836 0.885017
vn 0.3665861 0.2869836 0.885017
vn -0.885017 0.2869837 0.366586
vn -0.885017 0.2869837 0.366586
vn -0.885017 0.2869837 0.366586
vn -0.885017 0.2869837 0.366586
vn -0.366586 0.2869837 -0.885017
vn -0.366586 0.2869837 -0.885017
vn -0.366586 0.2869837 -0.885017
vn -0.366586 0.2869837 -0.885017
vn 0.3665859 0.2869836 -0.885017
vn 0.3665859 0.2869836 -0.885017
vn 0.3665859 0.2869836 -0.885017
vn 0.3665859 0.2869836 -0.885017
vn 0.885017 0.2869836 0.3665859
vn 0.885017 0.2869836 0.3665859
vn 0.885017 0.2869836 0.3665859
vn 0.885017 0.2869836 0.3665859
vn -0.3665858 0.2869837 0.885017
vn -0.3665858 0.2869837 0.885017
vn -0.3665858 0.2869837 0.885017
vn -0.3665858 0.2869837 0.885017
vn -0.3826828 0.001707352 0.9238782
vn -0.3826828 0.001707352 0.9238782
vn -0.3826828 0.001707352 0.9238782
vn -0.3826828 0.001707352 0.9238782
vn 0.9238782 0.001707342 0.3826829
vn 0.9238782 0.001707342 0.3826829
vn 0.9238782 0.001707342 0.3826829
vn 0.9238782 0.001707342 0.3826829
vn 0.3826829 0.001707339 -0.9238782
vn 0.3826829 0.001707339 -0.9238782
vn 0.3826829 0.001707339 -0.9238782
vn 0.3826829 0.001707339 -0.9238782
vn -0.3826828 0.001707351 -0.9238782
vn -0.3826828 0.001707351 -0.9238782
vn -0.3826828 0.001707351 -0.9238782
vn -0.3826828 0.001707351 -0.9238782
vn -0.9238782 0.001707344 0.3826829
vn -0.9238782 0.001707344 0.3826829
vn -0.9238782 0.001707344 0.3826829
vn -0.9238782 0.001707344 0.3826829
vn 0.382683 0.001707338 0.9238781
vn 0.382683 0.001707338 0.9238781
vn 0.382683 0.001707338 0.9238781
vn 0.382683 0.001707338 0.9238781
vn 0.9238782 0.001707344 -0.3826829
vn 0.9238782 0.001707344 -0.3826829
vn 0.9238782 0.001707344 -0.3826829
vn 0.9238782 0.001707344 -0.3826829
vn -0.9238782 0.001707343 -0.3826828
vn -0.9238782 0.001707343 -0.3826828
vn -0.9238782 0.001707343 -0.3826828
vn -0.9238782 0.001707343 -0.3826828
vn 0.2133695 0.953387 0.2133699
vn 0.2133695 0.953387 0.2133699
vn 0.2133695 0.953387 0.2133699
vn 0.2133695 0.953387 0.2133699
vn -0.21337 0.9533869 0.2133699
vn -0.21337 0.9533869 0.2133699
vn -0.21337 0.9533869 0.2133699
vn -0.21337 0.9533869 0.2133699
vn 0.21337 0.9533869 -0.2133699
vn 0.21337 0.9533869 -0.2133699
vn 0.21337 0.9533869 -0.2133699
vn 0.21337 0.9533869 -0.2133699
vn -0.2133691 0.9533871 -0.21337
vn -0.2133691 0.9533871 -0.21337
vn -0.2133691 0.9533871 -0.21337
vn -0.2133691 0.9533871 -0.21337
vn 0 -1 0
vn 0 -1 0
vn 0 -1 0
vn 0 -1 0
vn 0 -1 0
vn 0 -1 0
vn 0 -1 0
vn 0 -1 0
vn 0 -1 0

vt 0.07784179 0.7837722
vt 0.0930517 0.7989821
vt 0.07609519 0.807033
vt 0.07154456 0.8014551
vt 0.07784179 0.8357021
vt 0.05633166 0.8357021
vt 0.0626289 0.8180192
vt 0.06979087 0.8187456
vt 0.04112172 0.8204922
vt 0.04112172 0.7989821
vt 0.05880466 0.8052793
vt 0.05807826 0.8124413
vt 0.05633166 0.7837722
vt 0.07784179 0.7837722
vt 0.07154456 0.8014551
vt 0.06438258 0.8007286
vt 0.0930517 0.7989821
vt 0.09305173 0.8204922
vt 0.07536879 0.814195
vt 0.07609519 0.807033
vt 0.09305173 0.8204922
vt 0.07784179 0.8357021
vt 0.06979087 0.8187456
vt 0.07536879 0.814195
vt 0.05633166 0.8357021
vt 0.04112172 0.8204922
vt 0.05807826 0.8124413
vt 0.0626289 0.8180192
vt 0.04112172 0.7989821
vt 0.05633166 0.7837722
vt 0.06438258 0.8007286
vt 0.05880466 0.8052793
vt 0.5483403 0.8410485
vt 0.5483403 0.8341997
vt 0.5897602 0.8339929
vt 0.5897601 0.8412553
vt 0.5473144 0.7999748
vt 0.5469043 0.7931384
vt 0.5882374 0.7904512
vt 0.5886723 0.7977005
vt 0.5479299 0.8136583
vt 0.5476564 0.806815
vt 0.5890349 0.8049539
vt 0.589325 0.8122106
vt 0.5481351 0.820504
vt 0.5479299 0.8136583
vt 0.589325 0.8122106
vt 0.5895426 0.8194697
vt 0.5483403 0.8341997
vt 0.5482718 0.8273513
vt 0.5896876 0.8267307
vt 0.5897602 0.8339929
vt 0.5469043 0.7931384
vt 0.5464258 0.7863064
vt 0.5877301 0.7832065
vt 0.5882374 0.7904512
vt 0.5476564 0.806815
vt 0.5473144 0.7999748
vt 0.5886723 0.7977005
vt 0.5890349 0.8049539
vt 0.5482718 0.8273513
vt 0.5481351 0.820504
vt 0.5895426 0.8194697
vt 0.5896876 0.8267307
vt 0.06708673 0.8097371
vt 0.0626289 0.8180192
vt 0.05807826 0.8124413
vt 0.05880466 0.8052793
vt 0.07154456 0.8014551
vt 0.06708673 0.8097371
vt 0.05880466 0.8052793
vt 0.06438258 0.8007286
vt 0.07536879 0.814195
vt 0.06979087 0.8187456
vt 0.0626289 0.8180192
vt 0.06708673 0.8097371
vt 0.07609519 0.807033
vt 0.07536879 0.814195
vt 0.06708673 0.8097371
vt 0.07154456 0.8014551
vt 0.5384181 0.7902999
vt 0.5304103 0.7942935
vt 0.5299319 0.7874615
vt 0.5344245 0.7822922
vt 0.5355796 0.7987861
vt 0.5412565 0.7818137
vt 0.5424116 0.7983077
vt 0.5464258 0.7863064
vt 0.5469043 0.7931384

usemtl LOW-POLY-COLORS
usemap LOW-POLY-COLORS
f 2/2/2 1/1/1 3/3/3
f 3/3/3 1/1/1 4/4/4
f 6/6/6 5/5/5 7/7/7
f 7/7/7 5/5/5 8/8/8
f 10/10/10 9/9/9 11/11/11
f 11/11/11 9/9/9 12/12/12
f 14/14/14 13/13/13 15/15/15
f 15/15/15 13/13/13 16/16/16
f 18/18/18 17/17/17 19/19/19
f 19/19/19 17/17/17 20/20/20
f 22/22/22 21/21/21 23/23/23
f 23/23/23 21/21/21 24/24/24
f 26/26/26 25/25/25 27/27/27
f 27/27/27 25/25/25 28/28/28
f 30/30/30 29/29/29 31/31/31
f 31/31/31 29/29/29 32/32/32
f 34/34/34 33/33/33 35/35/35
f 35/35/35 33/33/33 36/36/36
f 38/38/38 37/37/37 39/39/39
f 39/39/39 37/37/37 40/40/40
f 42/42/42 41/41/41 43/43/43
f 43/43/43 41/41/41 44/44/44
f 46/46/46 45/45/45 47/47/47
f 47/47/47 45/45/45 48/48/48
f 50/50/50 49/49/49 51/51/51
f 51/51/51 49/49/49 52/52/52
f 54/54/54 53/53/53 55/55/55
f 55/55/55 53/53/53 56/56/56
f 58/58/58 57/57/57 59/59/59
f 59/59/59 57/57/57 60/60/60
f 62/62/62 61/61/61 63/63/63
f 63/63/63 61/61/61 64/64/64
f 66/66/66 65/65/65 67/67/67
f 67/67/67 65/65/65 68/68/68
f 70/70/70 69/69/69 71/71/71
f 71/71/71 69/69/69 72/72/72
f 74/74/74 73/73/73 75/75/75
f 75/75/75 73/73/73 76/76/76
f 78/78/78 77/77/77 79/79/79
f 79/79/79 77/77/77 80/80/80
f 82/82/82 81/81/81 83/83/83
f 83/83/83 81/81/81 84/84/84
f 85/85/85 81/81/81 82/82/82
f 84/84/84 81/81/81 86/86/86
f 87/87/87 81/81/81 85/85/85
f 86/86/86 81/81/81 88/88/88
f 89/89/89 81/81/81 87/87/87
f 88/88/88 81/81/81 89/89/89
