mtllib ./stick-grenade_10.mtl
g stick-grenade
v 0.03331664 -0.01923538 -0.2354496
v -2.416588E-08 -0.03847076 -0.2354496
v -9.409698E-09 -0.04092344 -0.151192
v 0.03544073 -0.02046173 -0.151192
v -0.03331669 -0.01923539 -0.2354496
v -0.03331669 0.01923537 -0.2354496
v -0.03544077 0.02046172 -0.151192
v -0.03544077 -0.02046173 -0.151192
v 0.03331664 0.01923537 -0.2354496
v 0.03331664 -0.01923538 -0.2354496
v 0.03544073 -0.02046173 -0.151192
v 0.03544073 0.02046172 -0.151192
v -2.416588E-08 -0.03847076 -0.2354496
v -0.03331669 -0.01923539 -0.2354496
v -0.03544077 -0.02046173 -0.151192
v -9.409698E-09 -0.04092344 -0.151192
v -0.03331669 0.01923537 -0.2354496
v -2.75888E-08 0.03847075 -0.2354496
v -1.34946E-08 0.04092345 -0.151192
v -0.03544077 0.02046172 -0.151192
v -2.75888E-08 0.03847075 -0.2354496
v 0.03331664 0.01923537 -0.2354496
v 0.03544073 0.02046172 -0.151192
v -1.34946E-08 0.04092345 -0.151192
v 0.03544073 0.02046172 -0.151192
v 0.03544073 -0.02046173 -0.151192
v 0.01951132 -0.01126487 -0.1511109
v 0.01951132 0.01126487 -0.1511109
v -9.409698E-09 -0.04092344 -0.151192
v -0.03544077 -0.02046173 -0.151192
v -0.01951135 -0.01126488 -0.1511109
v -1.138773E-08 -0.02252975 -0.1511109
v 0.03544073 -0.02046173 -0.151192
v -9.409698E-09 -0.04092344 -0.151192
v 0.01951132 -0.01126487 -0.1511109
v -0.03544077 0.02046172 -0.151192
v -1.34946E-08 0.04092345 -0.151192
v -1.335735E-08 0.02252974 -0.1511109
v -0.01951135 0.01126487 -0.1511109
v -1.34946E-08 0.04092345 -0.151192
v 0.03544073 0.02046172 -0.151192
v 0.01951132 0.01126487 -0.1511109
v -1.335735E-08 0.02252974 -0.1511109
v -0.03544077 -0.02046173 -0.151192
v -0.03544077 0.02046172 -0.151192
v -0.01951135 0.01126487 -0.1511109
v -0.01951135 -0.01126488 -0.1511109
v -1.335735E-08 0.02252974 -0.1511109
v 0.01951132 0.01126487 -0.1511109
v 0.01928126 0.01113204 -0.1217427
v -8.222452E-09 0.02226408 -0.1217427
v 0.01951132 -0.01126487 -0.1511109
v -1.138773E-08 -0.02252975 -0.1511109
v -6.276065E-09 -0.02226408 -0.1217427
v 0.01928126 -0.01113204 -0.1217427
v -0.01951135 -0.01126488 -0.1511109
v -0.01951135 0.01126487 -0.1511109
v -0.01928128 0.01113204 -0.1217427
v -0.01928128 -0.01113205 -0.1217427
v 0.01951132 0.01126487 -0.1511109
v 0.01951132 -0.01126487 -0.1511109
v 0.01928126 -0.01113204 -0.1217427
v 0.01928126 0.01113204 -0.1217427
v -1.138773E-08 -0.02252975 -0.1511109
v -0.01951135 -0.01126488 -0.1511109
v -0.01928128 -0.01113205 -0.1217427
v -6.276065E-09 -0.02226408 -0.1217427
v -0.01951135 0.01126487 -0.1511109
v -1.335735E-08 0.02252974 -0.1511109
v -8.222452E-09 0.02226408 -0.1217427
v -0.01928128 0.01113204 -0.1217427
v 0.01928126 0.01113204 -0.1217427
v 0.01928126 -0.01113204 -0.1217427
v 0.01427573 -0.008242091 -0.01466961
v 0.01427573 0.008242087 -0.0146696
v -6.276065E-09 -0.02226408 -0.1217427
v -0.01928128 -0.01113205 -0.1217427
v -0.01427571 -0.008242094 -0.0146696
v 1.19399E-08 -0.01648418 -0.0146696
v -0.01928128 0.01113204 -0.1217427
v -8.222452E-09 0.02226408 -0.1217427
v 1.04988E-08 0.01648418 -0.0146696
v -0.01427571 0.008242087 -0.0146696
v -8.222452E-09 0.02226408 -0.1217427
v 0.01928126 0.01113204 -0.1217427
v 0.01427573 0.008242087 -0.0146696
v 1.04988E-08 0.01648418 -0.0146696
v 0.01928126 -0.01113204 -0.1217427
v -6.276065E-09 -0.02226408 -0.1217427
v 1.19399E-08 -0.01648418 -0.0146696
v 0.01427573 -0.008242091 -0.01466961
v -0.01928128 -0.01113205 -0.1217427
v -0.01928128 0.01113204 -0.1217427
v -0.01427571 0.008242087 -0.0146696
v -0.01427571 -0.008242094 -0.0146696
v 1.04988E-08 0.01648418 -0.0146696
v 0.01427573 0.008242087 -0.0146696
v 0.01919491 0.01108216 0.1031592
v 3.110066E-08 0.02216432 0.1031592
v 0.01427573 -0.008242091 -0.01466961
v 1.19399E-08 -0.01648418 -0.0146696
v 3.303833E-08 -0.02216434 0.1031592
v 0.01919491 -0.01108217 0.1031592
v -0.01427571 -0.008242094 -0.0146696
v -0.01427571 0.008242087 -0.0146696
v -0.01919485 0.01108216 0.1031592
v -0.01919485 -0.01108217 0.1031592
v 0.01427573 0.008242087 -0.0146696
v 0.01427573 -0.008242091 -0.01466961
v 0.01919491 -0.01108217 0.1031592
v 0.01919491 0.01108216 0.1031592
v 1.19399E-08 -0.01648418 -0.0146696
v -0.01427571 -0.008242094 -0.0146696
v -0.01919485 -0.01108217 0.1031592
v 3.303833E-08 -0.02216434 0.1031592
v -0.01427571 0.008242087 -0.0146696
v 1.04988E-08 0.01648418 -0.0146696
v 3.110066E-08 0.02216432 0.1031592
v -0.01919485 0.01108216 0.1031592
v 0.01919491 0.01108216 0.1031592
v 0.01919491 -0.01108217 0.1031592
v 0.01626204 -0.009388871 0.1258154
v 0.01626204 0.009388867 0.1258154
v 3.303833E-08 -0.02216434 0.1031592
v -0.01919485 -0.01108217 0.1031592
v -0.01626197 -0.009388874 0.1258154
v 3.659139E-08 -0.01877774 0.1258154
v -0.01919485 0.01108216 0.1031592
v 3.110066E-08 0.02216432 0.1031592
v 3.494979E-08 0.01877774 0.1258154
v -0.01626197 0.009388867 0.1258154
v 3.110066E-08 0.02216432 0.1031592
v 0.01919491 0.01108216 0.1031592
v 0.01626204 0.009388867 0.1258154
v 3.494979E-08 0.01877774 0.1258154
v 0.01919491 -0.01108217 0.1031592
v 3.303833E-08 -0.02216434 0.1031592
v 3.659139E-08 -0.01877774 0.1258154
v 0.01626204 -0.009388871 0.1258154
v -0.01919485 -0.01108217 0.1031592
v -0.01919485 0.01108216 0.1031592
v -0.01626197 0.009388867 0.1258154
v -0.01626197 -0.009388874 0.1258154
v 3.494979E-08 0.01877774 0.1258154
v 0.01626204 0.009388867 0.1258154
v 0.01626204 -0.009388871 0.1258154
v 3.659139E-08 -0.01877774 0.1258154
v -0.01626197 -0.009388874 0.1258154
v -0.01626197 0.009388867 0.1258154
v -2.416588E-08 -0.03847076 -0.2354496
v 0.03331664 -0.01923538 -0.2354496
v 0.03331664 0.01923537 -0.2354496
v -2.75888E-08 0.03847075 -0.2354496
v -0.03331669 -0.01923539 -0.2354496
v -0.03331669 0.01923537 -0.2354496

vn 0.4998412 -0.8657504 -0.02520148
vn 0.4998412 -0.8657504 -0.02520148
vn 0.4998412 -0.8657504 -0.02520148
vn 0.4998412 -0.8657504 -0.02520148
vn -0.9996824 0 -0.02520132
vn -0.9996824 0 -0.02520132
vn -0.9996824 0 -0.02520132
vn -0.9996824 0 -0.02520132
vn 0.9996824 0 -0.02520148
vn 0.9996824 0 -0.02520148
vn 0.9996824 0 -0.02520148
vn 0.9996824 0 -0.02520148
vn -0.4998407 -0.8657506 -0.02520136
vn -0.4998407 -0.8657506 -0.02520136
vn -0.4998407 -0.8657506 -0.02520136
vn -0.4998407 -0.8657506 -0.02520136
vn -0.499841 0.8657504 -0.02520142
vn -0.499841 0.8657504 -0.02520142
vn -0.499841 0.8657504 -0.02520142
vn -0.499841 0.8657504 -0.02520142
vn 0.4998413 0.8657503 -0.02520154
vn 0.4998413 0.8657503 -0.02520154
vn 0.4998413 0.8657503 -0.02520154
vn 0.4998413 0.8657503 -0.02520154
vn 0.005091588 0 0.9999871
vn 0.005091588 0 0.9999871
vn 0.005091588 0 0.9999871
vn 0.005091588 0 0.9999871
vn -0.002545791 -0.004408367 0.9999871
vn -0.002545791 -0.004408367 0.9999871
vn -0.002545791 -0.004408367 0.9999871
vn -0.002545791 -0.004408367 0.9999871
vn 0.002545793 -0.004409421 0.9999871
vn 0.002545793 -0.004409421 0.9999871
vn 0.002545793 -0.004409421 0.9999871
vn -0.002545792 0.004408868 0.9999871
vn -0.002545792 0.004408868 0.9999871
vn -0.002545792 0.004408868 0.9999871
vn -0.002545792 0.004408868 0.9999871
vn 0.002545793 0.00440929 0.9999871
vn 0.002545793 0.00440929 0.9999871
vn 0.002545793 0.00440929 0.9999871
vn 0.002545793 0.00440929 0.9999871
vn -0.005091584 0 0.9999871
vn -0.005091584 0 0.9999871
vn -0.005091584 0 0.9999871
vn -0.005091584 0 0.9999871
vn 0.4999845 0.865999 0.007833573
vn 0.4999845 0.865999 0.007833573
vn 0.4999845 0.865999 0.007833573
vn 0.4999845 0.865999 0.007833573
vn 0.4999845 -0.865999 0.007833613
vn 0.4999845 -0.865999 0.007833613
vn 0.4999845 -0.865999 0.007833613
vn 0.4999845 -0.865999 0.007833613
vn -0.9999694 0 0.007833808
vn -0.9999694 0 0.007833808
vn -0.9999694 0 0.007833808
vn -0.9999694 0 0.007833808
vn 0.9999694 0 0.007833638
vn 0.9999694 0 0.007833638
vn 0.9999694 0 0.007833638
vn 0.9999694 0 0.007833638
vn -0.4999844 -0.865999 0.007833768
vn -0.4999844 -0.865999 0.007833768
vn -0.4999844 -0.865999 0.007833768
vn -0.4999844 -0.865999 0.007833768
vn -0.4999845 0.865999 0.007833738
vn -0.4999845 0.865999 0.007833738
vn -0.4999845 0.865999 0.007833738
vn -0.4999845 0.865999 0.007833738
vn 0.9989091 0 0.04669766
vn 0.9989091 0 0.04669766
vn 0.9989091 0 0.04669766
vn 0.9989091 0 0.04669766
vn -0.4994541 -0.8650809 0.04669797
vn -0.4994541 -0.8650809 0.04669797
vn -0.4994541 -0.8650809 0.04669797
vn -0.4994541 -0.8650809 0.04669797
vn -0.4994544 0.8650807 0.04669794
vn -0.4994544 0.8650807 0.04669794
vn -0.4994544 0.8650807 0.04669794
vn -0.4994544 0.8650807 0.04669794
vn 0.4994545 0.8650806 0.04669776
vn 0.4994545 0.8650806 0.04669776
vn 0.4994545 0.8650806 0.04669776
vn 0.4994545 0.8650806 0.04669776
vn 0.4994544 -0.8650807 0.04669779
vn 0.4994544 -0.8650807 0.04669779
vn 0.4994544 -0.8650807 0.04669779
vn 0.4994544 -0.8650807 0.04669779
vn -0.9989091 0 0.04669803
vn -0.9989091 0 0.04669803
vn -0.9989091 0 0.04669803
vn -0.9989091 0 0.04669803
vn 0.4995647 0.8652719 -0.04171206
vn 0.4995647 0.8652719 -0.04171206
vn 0.4995647 0.8652719 -0.04171206
vn 0.4995647 0.8652719 -0.04171206
vn 0.4995648 -0.8652717 -0.04171208
vn 0.4995648 -0.8652717 -0.04171208
vn 0.4995648 -0.8652717 -0.04171208
vn 0.4995648 -0.8652717 -0.04171208
vn -0.9991297 0 -0.04171183
vn -0.9991297 0 -0.04171183
vn -0.9991297 0 -0.04171183
vn -0.9991297 0 -0.04171183
vn 0.9991297 0 -0.04171215
vn 0.9991297 0 -0.04171215
vn 0.9991297 0 -0.04171215
vn 0.9991297 0 -0.04171215
vn -0.4995646 -0.8652719 -0.04171192
vn -0.4995646 -0.8652719 -0.04171192
vn -0.4995646 -0.8652719 -0.04171192
vn -0.4995646 -0.8652719 -0.04171192
vn -0.4995646 0.8652719 -0.04171189
vn -0.4995646 0.8652719 -0.04171189
vn -0.4995646 0.8652719 -0.04171189
vn -0.4995646 0.8652719 -0.04171189
vn 0.9917251 0 0.12838
vn 0.9917251 0 0.12838
vn 0.9917251 0 0.12838
vn 0.9917251 0 0.12838
vn -0.4958622 -0.8588592 0.1283805
vn -0.4958622 -0.8588592 0.1283805
vn -0.4958622 -0.8588592 0.1283805
vn -0.4958622 -0.8588592 0.1283805
vn -0.4958623 0.8588592 0.1283803
vn -0.4958623 0.8588592 0.1283803
vn -0.4958623 0.8588592 0.1283803
vn -0.4958623 0.8588592 0.1283803
vn 0.4958625 0.8588591 0.1283801
vn 0.4958625 0.8588591 0.1283801
vn 0.4958625 0.8588591 0.1283801
vn 0.4958625 0.8588591 0.1283801
vn 0.4958625 -0.8588591 0.1283803
vn 0.4958625 -0.8588591 0.1283803
vn 0.4958625 -0.8588591 0.1283803
vn 0.4958625 -0.8588591 0.1283803
vn -0.991725 0 0.1283806
vn -0.991725 0 0.1283806
vn -0.991725 0 0.1283806
vn -0.991725 0 0.1283806
vn 0 0 1
vn 0 0 1
vn 0 0 1
vn 0 0 1
vn 0 0 1
vn 0 0 1
vn 0 0 -1
vn 0 0 -1
vn 0 0 -1
vn 0 0 -1
vn 0 0 -1
vn 0 0 -1

vt 0.1472742 0.4396367
vt 0.1460463 0.4436184
vt 0.1538983 0.4460224
vt 0.1563583 0.4422884
vt 0.1450557 0.4480378
vt 0.1447646 0.4525484
vt 0.1528484 0.4526979
vt 0.1530146 0.4494254
vt 0.1463953 0.4614017
vt 0.1481835 0.4656187
vt 0.1566708 0.4615705
vt 0.1544399 0.4588226
vt 0.1460463 0.4436184
vt 0.1450557 0.4480378
vt 0.1530146 0.4494254
vt 0.1538983 0.4460224
vt 0.1447646 0.4525484
vt 0.1452239 0.4570399
vt 0.1533044 0.4558676
vt 0.1528484 0.4526979
vt 0.1452239 0.4570399
vt 0.1463953 0.4614017
vt 0.1544399 0.4588226
vt 0.1533044 0.4558676
vt 0.1544399 0.4588226
vt 0.1566708 0.4615705
vt 0.1571671 0.4601846
vt 0.1555973 0.4580367
vt 0.1538983 0.4460224
vt 0.1530146 0.4494254
vt 0.1546961 0.4495316
vt 0.1556273 0.4466674
vt 0.1563583 0.4422884
vt 0.1538983 0.4460224
vt 0.1573477 0.4443204
vt 0.1528484 0.4526979
vt 0.1533044 0.4558676
vt 0.1547632 0.4553355
vt 0.1544447 0.4524623
vt 0.1533044 0.4558676
vt 0.1544399 0.4588226
vt 0.1555973 0.4580367
vt 0.1547632 0.4553355
vt 0.1530146 0.4494254
vt 0.1528484 0.4526979
vt 0.1544447 0.4524623
vt 0.1546961 0.4495316
vt 0.1547632 0.4553355
vt 0.1555973 0.4580367
vt 0.1588072 0.4565488
vt 0.1581209 0.4545121
vt 0.1573477 0.4443204
vt 0.1556273 0.4466674
vt 0.1588656 0.4479149
vt 0.1599505 0.4458693
vt 0.1546961 0.4495316
vt 0.1544447 0.4524623
vt 0.1578993 0.4523474
vt 0.1581521 0.4501193
vt 0.1555973 0.4580367
vt 0.1571671 0.4601846
vt 0.1599505 0.458664
vt 0.1588072 0.4565488
vt 0.1556273 0.4466674
vt 0.1546961 0.4495316
vt 0.1581521 0.4501193
vt 0.1588656 0.4479149
vt 0.1544447 0.4524623
vt 0.1547632 0.4553355
vt 0.1581209 0.4545121
vt 0.1578993 0.4523474
vt 0.3394638 0.8398439
vt 0.3442696 0.8393055
vt 0.3410986 0.8158367
vt 0.337365 0.8158536
vt 0.3200946 0.8399613
vt 0.3249562 0.8402385
vt 0.3258767 0.8158183
vt 0.3220709 0.8157906
vt 0.3298063 0.8403049
vt 0.3346425 0.8401733
vt 0.3335595 0.8158525
vt 0.3297182 0.8158398
vt 0.3346425 0.8401733
vt 0.3394638 0.8398439
vt 0.337365 0.8158536
vt 0.3335595 0.8158525
vt 0.3151637 0.8394352
vt 0.3200946 0.8399613
vt 0.3220709 0.8157906
vt 0.3183373 0.8157638
vt 0.3249562 0.8402385
vt 0.3298063 0.8403049
vt 0.3297182 0.8158398
vt 0.3258767 0.8158183
vt 0.3335595 0.8158525
vt 0.337365 0.8158536
vt 0.3393406 0.7892253
vt 0.3344873 0.7889718
vt 0.3183373 0.8157638
vt 0.3220709 0.8157906
vt 0.3199903 0.7893221
vt 0.3151828 0.7898076
vt 0.3258767 0.8158183
vt 0.3297182 0.8158398
vt 0.3296432 0.7889085
vt 0.3248106 0.7890254
vt 0.337365 0.8158536
vt 0.3410986 0.8158367
vt 0.344264 0.7897016
vt 0.3393406 0.7892253
vt 0.3220709 0.8157906
vt 0.3258767 0.8158183
vt 0.3248106 0.7890254
vt 0.3199903 0.7893221
vt 0.3297182 0.8158398
vt 0.3335595 0.8158525
vt 0.3344873 0.7889718
vt 0.3296432 0.7889085
vt 0.1649989 0.4649055
vt 0.1610326 0.4649345
vt 0.1618787 0.4687368
vt 0.163919 0.4677229
vt 0.1622872 0.4726939
vt 0.1652705 0.473
vt 0.1646281 0.4707047
vt 0.163298 0.4705374
vt 0.1676805 0.4708051
vt 0.1676805 0.467402
vt 0.165158 0.4684595
vt 0.1653458 0.4697112
vt 0.1676805 0.467402
vt 0.1649989 0.4649055
vt 0.163919 0.4677229
vt 0.165158 0.4684595
vt 0.1599608 0.4710056
vt 0.1622872 0.4726939
vt 0.163298 0.4705374
vt 0.1618787 0.4687368
vt 0.1652705 0.473
vt 0.1676805 0.4708051
vt 0.1653458 0.4697112
vt 0.1646281 0.4707047
vt 0.165158 0.4684595
vt 0.163919 0.4677229
vt 0.1618787 0.4687368
vt 0.163298 0.4705374
vt 0.1646281 0.4707047
vt 0.1653458 0.4697112
vt 0.1454256 0.4692759
vt 0.1481835 0.4656187
vt 0.1463953 0.4614017
vt 0.1418491 0.4608417
vt 0.1408794 0.4687161
vt 0.1390911 0.464499

usemtl LOW-POLY-COLORS
usemap LOW-POLY-COLORS
f 2/2/2 1/1/1 3/3/3
f 3/3/3 1/1/1 4/4/4
f 6/6/6 5/5/5 7/7/7
f 7/7/7 5/5/5 8/8/8
f 10/10/10 9/9/9 11/11/11
f 11/11/11 9/9/9 12/12/12
f 14/14/14 13/13/13 15/15/15
f 15/15/15 13/13/13 16/16/16
f 18/18/18 17/17/17 19/19/19
f 19/19/19 17/17/17 20/20/20
f 22/22/22 21/21/21 23/23/23
f 23/23/23 21/21/21 24/24/24
f 26/26/26 25/25/25 27/27/27
f 27/27/27 25/25/25 28/28/28
f 30/30/30 29/29/29 31/31/31
f 31/31/31 29/29/29 32/32/32
f 34/34/34 33/33/33 32/32/32
f 32/32/32 33/33/33 35/35/35
f 37/37/37 36/36/36 38/38/38
f 38/38/38 36/36/36 39/39/39
f 41/41/41 40/40/40 42/42/42
f 42/42/42 40/40/40 43/43/43
f 45/45/45 44/44/44 46/46/46
f 46/46/46 44/44/44 47/47/47
f 49/49/49 48/48/48 50/50/50
f 50/50/50 48/48/48 51/51/51
f 53/53/53 52/52/52 54/54/54
f 54/54/54 52/52/52 55/55/55
f 57/57/57 56/56/56 58/58/58
f 58/58/58 56/56/56 59/59/59
f 61/61/61 60/60/60 62/62/62
f 62/62/62 60/60/60 63/63/63
f 65/65/65 64/64/64 66/66/66
f 66/66/66 64/64/64 67/67/67
f 69/69/69 68/68/68 70/70/70
f 70/70/70 68/68/68 71/71/71
f 73/73/73 72/72/72 74/74/74
f 74/74/74 72/72/72 75/75/75
f 77/77/77 76/76/76 78/78/78
f 78/78/78 76/76/76 79/79/79
f 81/81/81 80/80/80 82/82/82
f 82/82/82 80/80/80 83/83/83
f 85/85/85 84/84/84 86/86/86
f 86/86/86 84/84/84 87/87/87
f 89/89/89 88/88/88 90/90/90
f 90/90/90 88/88/88 91/91/91
f 93/93/93 92/92/92 94/94/94
f 94/94/94 92/92/92 95/95/95
f 97/97/97 96/96/96 98/98/98
f 98/98/98 96/96/96 99/99/99
f 101/101/101 100/100/100 102/102/102
f 102/102/102 100/100/100 103/103/103
f 105/105/105 104/104/104 106/106/106
f 106/106/106 104/104/104 107/107/107
f 109/109/109 108/108/108 110/110/110
f 110/110/110 108/108/108 111/111/111
f 113/113/113 112/112/112 114/114/114
f 114/114/114 112/112/112 115/115/115
f 117/117/117 116/116/116 118/118/118
f 118/118/118 116/116/116 119/119/119
f 121/121/121 120/120/120 122/122/122
f 122/122/122 120/120/120 123/123/123
f 125/125/125 124/124/124 126/126/126
f 126/126/126 124/124/124 127/127/127
f 129/129/129 128/128/128 130/130/130
f 130/130/130 128/128/128 131/131/131
f 133/133/133 132/132/132 134/134/134
f 134/134/134 132/132/132 135/135/135
f 137/137/137 136/136/136 138/138/138
f 138/138/138 136/136/136 139/139/139
f 141/141/141 140/140/140 142/142/142
f 142/142/142 140/140/140 143/143/143
f 145/145/145 144/144/144 146/146/146
f 147/147/147 146/146/146 144/144/144
f 148/148/148 147/147/147 144/144/144
f 149/149/149 148/148/148 144/144/144
f 151/151/151 150/150/150 152/152/152
f 153/153/153 152/152/152 150/150/150
f 154/154/154 153/153/153 150/150/150
f 155/155/155 153/153/153 154/154/154
