mtllib ./tellermine42_11.mtl
g tellermine42
v -0.07975172 0.0857187 0.08698441
v -0.0797517 0.08571871 -0.005104918
v 2.13887E-09 0.08990666 0.04093976
v 0.07975174 0.08571874 -0.005104922
v 0.07975172 0.08571873 0.08698444
v 2.13887E-09 0.08990666 0.04093976
v -0.0797517 0.08571871 -0.005104918
v 2.755614E-09 0.08571871 -0.05114958
v 2.13887E-09 0.08990666 0.04093976
v 0.07975172 0.08571873 0.08698444
v -5.295094E-09 0.08571871 0.1330291
v 2.13887E-09 0.08990666 0.04093976
v 2.755614E-09 0.08571871 -0.05114958
v 0.07975174 0.08571874 -0.005104922
v 2.13887E-09 0.08990666 0.04093976
v -5.295094E-09 0.08571871 0.1330291
v -0.07975172 0.0857187 0.08698441
v 2.13887E-09 0.08990666 0.04093976
v 1.178561E-08 0.09856242 0.04093975
v 0.0228403 0.1030746 0.05412661
v 6.563511E-09 0.1030746 0.06731346
v 1.178561E-08 0.09856242 0.04093975
v 0.0228403 0.1030746 0.02775291
v 0.0228403 0.1030746 0.05412661
v 1.178561E-08 0.09856242 0.04093975
v 8.869171E-09 0.1030746 0.01456606
v 0.0228403 0.1030746 0.02775291
v 1.178561E-08 0.09856242 0.04093975
v -0.02284027 0.1030746 0.02775291
v 8.869171E-09 0.1030746 0.01456606
v 1.178561E-08 0.09856242 0.04093975
v -0.02284028 0.1030746 0.05412659
v -0.02284027 0.1030746 0.02775291
v 1.178561E-08 0.09856242 0.04093975
v 6.563511E-09 0.1030746 0.06731346
v -0.02284028 0.1030746 0.05412659
v 6.563511E-09 0.1030746 0.06731346
v 1.112711E-08 0.08216829 0.06226385
v -0.0184672 0.08216828 0.0516018
v -0.02284028 0.1030746 0.05412659
v -0.02284027 0.1030746 0.02775291
v -0.0184672 0.08216828 0.0302777
v 1.299133E-08 0.08216828 0.01961566
v 8.869171E-09 0.1030746 0.01456606
v 0.0228403 0.1030746 0.02775291
v 0.01846723 0.08216829 0.0302777
v 0.01846723 0.08216829 0.05160181
v 0.0228403 0.1030746 0.05412661
v -0.02284028 0.1030746 0.05412659
v -0.0184672 0.08216828 0.0516018
v -0.0184672 0.08216828 0.0302777
v -0.02284027 0.1030746 0.02775291
v 8.869171E-09 0.1030746 0.01456606
v 1.299133E-08 0.08216828 0.01961566
v 0.01846723 0.08216829 0.0302777
v 0.0228403 0.1030746 0.02775291
v 0.0228403 0.1030746 0.05412661
v 0.01846723 0.08216829 0.05160181
v 1.112711E-08 0.08216829 0.06226385
v 6.563511E-09 0.1030746 0.06731346
v 0.1608935 0.0494303 0.1338317
v -1.332734E-08 0.04943027 0.2267236
v -3.097685E-09 0.06579986 0.1354297
v 0.08183073 0.06579987 0.08818475
v -1.332734E-08 0.04943027 0.2267236
v 0.1608935 0.0494303 0.1338317
v 0.1668358 -1.733605E-05 0.1372625
v -5.976329E-09 -1.735516E-05 0.2335851
v 0.1608936 0.04943031 -0.05195218
v 2.914393E-09 0.04943029 -0.1448441
v 1.086526E-08 -1.735322E-05 -0.1517056
v 0.1668358 -1.733135E-05 -0.05538294
v -0.1608935 0.04943025 0.1338317
v -1.332734E-08 0.04943027 0.2267236
v -5.976329E-09 -1.735516E-05 0.2335851
v -0.1668358 -1.73882E-05 0.1372624
v -0.1608935 0.04943025 -0.05195217
v -0.1608935 0.04943025 0.1338317
v -0.1668358 -1.73882E-05 0.1372624
v -0.1668358 -1.739096E-05 -0.05538292
v 0.1608935 0.0494303 0.1338317
v 0.1608936 0.04943031 -0.05195218
v 0.1668358 -1.733135E-05 -0.05538294
v 0.1668358 -1.733605E-05 0.1372625
v 2.914393E-09 0.04943029 -0.1448441
v -0.1608935 0.04943025 -0.05195217
v -0.1668358 -1.739096E-05 -0.05538292
v 1.086526E-08 -1.735322E-05 -0.1517056
v 0.08183073 0.06579987 0.08818475
v -3.097685E-09 0.06579986 0.1354297
v -5.295094E-09 0.08571871 0.1330291
v 0.07975172 0.08571873 0.08698444
v 2.914393E-09 0.04943029 -0.1448441
v 0.1608936 0.04943031 -0.05195218
v 0.08183075 0.06579988 -0.006305246
v 5.162891E-09 0.06579985 -0.05355022
v -1.332734E-08 0.04943027 0.2267236
v -0.1608935 0.04943025 0.1338317
v -0.08183073 0.06579984 0.08818473
v -3.097685E-09 0.06579986 0.1354297
v -0.1608935 0.04943025 0.1338317
v -0.1608935 0.04943025 -0.05195217
v -0.08183072 0.06579985 -0.006305239
v -0.08183073 0.06579984 0.08818473
v 0.1608936 0.04943031 -0.05195218
v 0.1608935 0.0494303 0.1338317
v 0.08183073 0.06579987 0.08818475
v 0.08183075 0.06579988 -0.006305246
v -0.1608935 0.04943025 -0.05195217
v 2.914393E-09 0.04943029 -0.1448441
v 5.162891E-09 0.06579985 -0.05355022
v -0.08183072 0.06579985 -0.006305239
v 5.162891E-09 0.06579985 -0.05355022
v 0.08183075 0.06579988 -0.006305246
v 0.07975174 0.08571874 -0.005104922
v 2.755614E-09 0.08571871 -0.05114958
v -3.097685E-09 0.06579986 0.1354297
v -0.08183073 0.06579984 0.08818473
v -0.07975172 0.0857187 0.08698441
v -5.295094E-09 0.08571871 0.1330291
v -0.08183073 0.06579984 0.08818473
v -0.08183072 0.06579985 -0.006305239
v -0.0797517 0.08571871 -0.005104918
v -0.07975172 0.0857187 0.08698441
v 0.08183075 0.06579988 -0.006305246
v 0.08183073 0.06579987 0.08818475
v 0.07975172 0.08571873 0.08698444
v 0.07975174 0.08571874 -0.005104922
v -0.08183072 0.06579985 -0.006305239
v 5.162891E-09 0.06579985 -0.05355022
v 2.755614E-09 0.08571871 -0.05114958
v -0.0797517 0.08571871 -0.005104918
v 0.1668358 -1.733605E-05 0.1372625
v 1.414903E-08 -0.005496116 0.04093975
v -5.976329E-09 -1.735516E-05 0.2335851
v -0.1668358 -1.73882E-05 0.1372624
v 0.1668358 -1.733135E-05 -0.05538294
v 1.414903E-08 -0.005496116 0.04093975
v 1.086526E-08 -1.735322E-05 -0.1517056
v 1.414903E-08 -0.005496116 0.04093975
v -0.1668358 -1.739096E-05 -0.05538292

vn -0.05244007 0.9986241 1.543361E-07
vn -0.05244007 0.9986241 1.543361E-07
vn -0.05244007 0.9986241 1.543361E-07
vn 0.05243991 0.9986241 0
vn 0.05243991 0.9986241 0
vn 0.05243991 0.9986241 0
vn -0.02621998 0.9986241 -0.04541446
vn -0.02621998 0.9986241 -0.04541446
vn -0.02621998 0.9986241 -0.04541446
vn 0.02621998 0.9986241 0.04541446
vn 0.02621998 0.9986241 0.04541446
vn 0.02621998 0.9986241 0.04541446
vn 0.02621983 0.9986241 -0.04541445
vn 0.02621983 0.9986241 -0.04541445
vn 0.02621983 0.9986241 -0.04541445
vn -0.02622022 0.9986241 0.04541446
vn -0.02622022 0.9986241 0.04541446
vn -0.02622022 0.9986241 0.04541446
vn -0.09690399 0.9810394 -0.1678431
vn -0.09690399 0.9810394 -0.1678431
vn -0.09690399 0.9810394 -0.1678431
vn -0.1938088 0.9810393 -3.409954E-07
vn -0.1938088 0.9810393 -3.409954E-07
vn -0.1938088 0.9810393 -3.409954E-07
vn -0.09690402 0.9810394 0.167843
vn -0.09690402 0.9810394 0.167843
vn -0.09690402 0.9810394 0.167843
vn 0.09690407 0.9810394 0.1678429
vn 0.09690407 0.9810394 0.1678429
vn 0.09690407 0.9810394 0.1678429
vn 0.1938082 0.9810394 -2.461982E-07
vn 0.1938082 0.9810394 -2.461982E-07
vn 0.1938082 0.9810394 -2.461982E-07
vn 0.09690434 0.9810394 -0.167843
vn 0.09690434 0.9810394 -0.167843
vn 0.09690434 0.9810394 -0.167843
vn -0.489408 -0.2047439 0.847679
vn -0.489408 -0.2047439 0.847679
vn -0.489408 -0.2047439 0.847679
vn -0.489408 -0.2047439 0.847679
vn -0.4894079 -0.2047435 -0.8476792
vn -0.4894079 -0.2047435 -0.8476792
vn -0.4894079 -0.2047435 -0.8476792
vn -0.4894079 -0.2047435 -0.8476792
vn 0.9788157 -0.2047434 2.856769E-07
vn 0.9788157 -0.2047434 2.856769E-07
vn 0.9788157 -0.2047434 2.856769E-07
vn 0.9788157 -0.2047434 2.856769E-07
vn -0.9788157 -0.2047435 -1.142708E-07
vn -0.9788157 -0.2047435 -1.142708E-07
vn -0.9788157 -0.2047435 -1.142708E-07
vn -0.9788157 -0.2047435 -1.142708E-07
vn 0.4894076 -0.2047433 -0.8476794
vn 0.4894076 -0.2047433 -0.8476794
vn 0.4894076 -0.2047433 -0.8476794
vn 0.4894076 -0.2047433 -0.8476794
vn 0.4894076 -0.2047433 0.8476794
vn 0.4894076 -0.2047433 0.8476794
vn 0.4894076 -0.2047433 0.8476794
vn 0.4894076 -0.2047433 0.8476794
vn 0.1013724 0.9792315 0.1755827
vn 0.1013724 0.9792315 0.1755827
vn 0.1013724 0.9792315 0.1755827
vn 0.1013724 0.9792315 0.1755827
vn 0.4964282 0.1193144 0.8598391
vn 0.4964282 0.1193144 0.8598391
vn 0.4964282 0.1193144 0.8598391
vn 0.4964282 0.1193144 0.8598391
vn 0.4964281 0.1193138 -0.8598391
vn 0.4964281 0.1193138 -0.8598391
vn 0.4964281 0.1193138 -0.8598391
vn 0.4964281 0.1193138 -0.8598391
vn -0.4964283 0.1193143 0.859839
vn -0.4964283 0.1193143 0.859839
vn -0.4964283 0.1193143 0.859839
vn -0.4964283 0.1193143 0.859839
vn -0.9928566 0.1193139 -1.976589E-07
vn -0.9928566 0.1193139 -1.976589E-07
vn -0.9928566 0.1193139 -1.976589E-07
vn -0.9928566 0.1193139 -1.976589E-07
vn 0.9928566 0.119314 2.964884E-07
vn 0.9928566 0.119314 2.964884E-07
vn 0.9928566 0.119314 2.964884E-07
vn 0.9928566 0.119314 2.964884E-07
vn -0.4964283 0.1193138 -0.859839
vn -0.4964283 0.1193138 -0.859839
vn -0.4964283 0.1193138 -0.859839
vn -0.4964283 0.1193138 -0.859839
vn 0.4972983 0.10381 0.8613465
vn 0.4972983 0.10381 0.8613465
vn 0.4972983 0.10381 0.8613465
vn 0.4972983 0.10381 0.8613465
vn 0.1013723 0.9792316 -0.1755825
vn 0.1013723 0.9792316 -0.1755825
vn 0.1013723 0.9792316 -0.1755825
vn 0.1013723 0.9792316 -0.1755825
vn -0.1013728 0.9792315 0.1755826
vn -0.1013728 0.9792315 0.1755826
vn -0.1013728 0.9792315 0.1755826
vn -0.1013728 0.9792315 0.1755826
vn -0.2027454 0.9792315 0
vn -0.2027454 0.9792315 0
vn -0.2027454 0.9792315 0
vn -0.2027454 0.9792315 0
vn 0.2027452 0.9792316 1.028894E-07
vn 0.2027452 0.9792316 1.028894E-07
vn 0.2027452 0.9792316 1.028894E-07
vn 0.2027452 0.9792316 1.028894E-07
vn -0.1013727 0.9792316 -0.1755825
vn -0.1013727 0.9792316 -0.1755825
vn -0.1013727 0.9792316 -0.1755825
vn -0.1013727 0.9792316 -0.1755825
vn 0.4972982 0.1038105 -0.8613465
vn 0.4972982 0.1038105 -0.8613465
vn 0.4972982 0.1038105 -0.8613465
vn 0.4972982 0.1038105 -0.8613465
vn -0.4972986 0.1038111 0.8613462
vn -0.4972986 0.1038111 0.8613462
vn -0.4972986 0.1038111 0.8613462
vn -0.4972986 0.1038111 0.8613462
vn -0.9945971 0.1038104 -1.869306E-07
vn -0.9945971 0.1038104 -1.869306E-07
vn -0.9945971 0.1038104 -1.869306E-07
vn -0.9945971 0.1038104 -1.869306E-07
vn 0.9945971 0.1038104 3.115511E-07
vn 0.9945971 0.1038104 3.115511E-07
vn 0.9945971 0.1038104 3.115511E-07
vn 0.9945971 0.1038104 3.115511E-07
vn -0.4972985 0.1038105 -0.8613463
vn -0.4972985 0.1038105 -0.8613463
vn -0.4972985 0.1038105 -0.8613463
vn -0.4972985 0.1038105 -0.8613463
vn 0.01641089 -0.9994612 0.0284243
vn 0.01641089 -0.9994612 0.0284243
vn 0.01641089 -0.9994612 0.0284243
vn -0.01641058 -0.9994612 0.02842429
vn 0.01641091 -0.9994612 -0.02842431
vn 0.01641091 -0.9994612 -0.02842431
vn 0.01641091 -0.9994612 -0.02842431
vn -0.03282135 -0.9994612 0
vn -0.03282135 -0.9994612 0

vt 0.1844129 0.4160744
vt 0.1893326 0.4067284
vt 0.1787789 0.4071408
vt 0.1731448 0.3982072
vt 0.1682251 0.4075533
vt 0.1787789 0.4071408
vt 0.1893326 0.4067284
vt 0.1836985 0.3977948
vt 0.1787789 0.4071408
vt 0.1682251 0.4075533
vt 0.1738592 0.4164869
vt 0.1787789 0.4071408
vt 0.1836985 0.3977948
vt 0.1731448 0.3982072
vt 0.1787789 0.4071408
vt 0.1738592 0.4164869
vt 0.1844129 0.4160744
vt 0.1787789 0.4071408
vt 0.2197172 0.383439
vt 0.2186835 0.384875
vt 0.2204439 0.3850523
vt 0.2197172 0.383439
vt 0.2179568 0.3832619
vt 0.2186835 0.384875
vt 0.2197172 0.383439
vt 0.2189905 0.3818259
vt 0.2179568 0.3832619
vt 0.2197172 0.383439
vt 0.2207509 0.3820031
vt 0.2189905 0.3818259
vt 0.2197172 0.383439
vt 0.2214776 0.3836163
vt 0.2207509 0.3820031
vt 0.2197172 0.383439
vt 0.2204439 0.3850523
vt 0.2214776 0.3836163
vt 0.2204439 0.3850523
vt 0.2231046 0.3893061
vt 0.2264919 0.383439
vt 0.2214776 0.3836163
vt 0.2207509 0.3820031
vt 0.2231046 0.3775719
vt 0.2163299 0.3775719
vt 0.2189905 0.3818259
vt 0.2179568 0.3832619
vt 0.2129425 0.383439
vt 0.2163299 0.3893061
vt 0.2186835 0.384875
vt 0.2214776 0.3836163
vt 0.2264919 0.383439
vt 0.2231046 0.3775719
vt 0.2207509 0.3820031
vt 0.2189905 0.3818259
vt 0.2163299 0.3775719
vt 0.2129425 0.383439
vt 0.2179568 0.3832619
vt 0.2186835 0.384875
vt 0.2163299 0.3893061
vt 0.2231046 0.3893061
vt 0.2204439 0.3850523
vt 0.1540164 0.4077271
vt 0.1669053 0.4288788
vt 0.1727758 0.4182603
vt 0.1661476 0.4075018
vt 0.1669053 0.4288788
vt 0.1540164 0.4077271
vt 0.1446357 0.4071408
vt 0.1617073 0.4367096
vt 0.1658899 0.385989
vt 0.1906524 0.3854027
vt 0.1958504 0.3775719
vt 0.1617073 0.3775719
vt 0.1916678 0.4282926
vt 0.1669053 0.4288788
vt 0.1617073 0.4367096
vt 0.1958504 0.4367096
vt 0.2035414 0.4065545
vt 0.1916678 0.4282926
vt 0.1958504 0.4367096
vt 0.212922 0.4071408
vt 0.1540164 0.4077271
vt 0.1658899 0.385989
vt 0.1617073 0.3775719
vt 0.1446357 0.4071408
vt 0.1906524 0.3854027
vt 0.2035414 0.4065545
vt 0.212922 0.4071408
vt 0.1958504 0.3775719
vt 0.1661476 0.4075018
vt 0.1727758 0.4182603
vt 0.1738592 0.4164869
vt 0.1682251 0.4075533
vt 0.1906524 0.3854027
vt 0.1658899 0.385989
vt 0.1721506 0.3963822
vt 0.1847819 0.3960213
vt 0.1669053 0.4288788
vt 0.1916678 0.4282926
vt 0.1854071 0.4178994
vt 0.1727758 0.4182603
vt 0.1916678 0.4282926
vt 0.2035414 0.4065545
vt 0.1914102 0.4067798
vt 0.1854071 0.4178994
vt 0.1658899 0.385989
vt 0.1540164 0.4077271
vt 0.1661476 0.4075018
vt 0.1721506 0.3963822
vt 0.2035414 0.4065545
vt 0.1906524 0.3854027
vt 0.1847819 0.3960213
vt 0.1914102 0.4067798
vt 0.1847819 0.3960213
vt 0.1721506 0.3963822
vt 0.1731448 0.3982072
vt 0.1836985 0.3977948
vt 0.1727758 0.4182603
vt 0.1854071 0.4178994
vt 0.1844129 0.4160744
vt 0.1738592 0.4164869
vt 0.1854071 0.4178994
vt 0.1914102 0.4067798
vt 0.1893326 0.4067284
vt 0.1844129 0.4160744
vt 0.1721506 0.3963822
vt 0.1661476 0.4075018
vt 0.1682251 0.4075533
vt 0.1731448 0.3982072
vt 0.1914102 0.4067798
vt 0.1847819 0.3960213
vt 0.1836985 0.3977948
vt 0.1893326 0.4067284
vt 0.1446357 0.4662785
vt 0.1787789 0.4662785
vt 0.1617073 0.4367096
vt 0.1958504 0.4367096
vt 0.1617073 0.4958473
vt 0.1787789 0.4662785
vt 0.1958504 0.4958473
vt 0.1787789 0.4662785
vt 0.212922 0.4662785

usemtl LOW-POLY-COLORS
usemap LOW-POLY-COLORS
f 2/2/2 1/1/1 3/3/3
f 5/5/5 4/4/4 6/6/6
f 8/8/8 7/7/7 9/9/9
f 11/11/11 10/10/10 12/12/12
f 14/14/14 13/13/13 15/15/15
f 17/17/17 16/16/16 18/18/18
f 20/20/20 19/19/19 21/21/21
f 23/23/23 22/22/22 24/24/24
f 26/26/26 25/25/25 27/27/27
f 29/29/29 28/28/28 30/30/30
f 32/32/32 31/31/31 33/33/33
f 35/35/35 34/34/34 36/36/36
f 38/38/38 37/37/37 39/39/39
f 39/39/39 37/37/37 40/40/40
f 42/42/42 41/41/41 43/43/43
f 43/43/43 41/41/41 44/44/44
f 46/46/46 45/45/45 47/47/47
f 47/47/47 45/45/45 48/48/48
f 50/50/50 49/49/49 51/51/51
f 51/51/51 49/49/49 52/52/52
f 54/54/54 53/53/53 55/55/55
f 55/55/55 53/53/53 56/56/56
f 58/58/58 57/57/57 59/59/59
f 59/59/59 57/57/57 60/60/60
f 62/62/62 61/61/61 63/63/63
f 63/63/63 61/61/61 64/64/64
f 66/66/66 65/65/65 67/67/67
f 67/67/67 65/65/65 68/68/68
f 70/70/70 69/69/69 71/71/71
f 71/71/71 69/69/69 72/72/72
f 74/74/74 73/73/73 75/75/75
f 75/75/75 73/73/73 76/76/76
f 78/78/78 77/77/77 79/79/79
f 79/79/79 77/77/77 80/80/80
f 82/82/82 81/81/81 83/83/83
f 83/83/83 81/81/81 84/84/84
f 86/86/86 85/85/85 87/87/87
f 87/87/87 85/85/85 88/88/88
f 90/90/90 89/89/89 91/91/91
f 91/91/91 89/89/89 92/92/92
f 94/94/94 93/93/93 95/95/95
f 95/95/95 93/93/93 96/96/96
f 98/98/98 97/97/97 99/99/99
f 99/99/99 97/97/97 100/100/100
f 102/102/102 101/101/101 103/103/103
f 103/103/103 101/101/101 104/104/104
f 106/106/106 105/105/105 107/107/107
f 107/107/107 105/105/105 108/108/108
f 110/110/110 109/109/109 111/111/111
f 111/111/111 109/109/109 112/112/112
f 114/114/114 113/113/113 115/115/115
f 115/115/115 113/113/113 116/116/116
f 118/118/118 117/117/117 119/119/119
f 119/119/119 117/117/117 120/120/120
f 122/122/122 121/121/121 123/123/123
f 123/123/123 121/121/121 124/124/124
f 126/126/126 125/125/125 127/127/127
f 127/127/127 125/125/125 128/128/128
f 130/130/130 129/129/129 131/131/131
f 131/131/131 129/129/129 132/132/132
f 134/134/134 133/133/133 135/135/135
f 134/134/134 135/135/135 136/136/136
f 138/138/138 137/137/137 133/133/133
f 138/138/138 139/139/139 137/137/137
f 140/140/140 136/136/136 141/141/141
f 140/140/140 141/141/141 139/139/139
