mtllib ./SM_Bld_DeckSteps_01_30.mtl
g SM_Bld_DeckSteps_01
v 0.8551598 0.4014883 -0.0610199
v 0.4267883 0.4059834 -0.07561874
v 0.01821899 0.3794274 -0.1929436
v 0.8551598 0.4014883 -0.0610199
v 0.8623199 0.3114638 -0.0610199
v -0.007686615 0.2943373 -0.04787064
v -0.007686615 0.2943373 -0.04787064
v 0.4267883 0.4059834 -0.07561874
v 0.8551598 0.4014883 -0.0610199
v 0.01821899 0.3794274 -0.1929436
v -0.3132477 0.3833318 -0.02839279
v -0.9515457 0.3949857 0.01182556
v -0.9515457 0.3949857 -0.5231514
v 0.07408905 0.3710918 -0.4611206
v 0.01821899 0.3794274 -0.1929436
v 0.8696671 0.3864207 -0.4380684
v 0.8551598 0.4014883 -0.0610199
v 0.01821899 0.3794274 -0.1929436
v -0.0113678 0.3406072 -0.04787064
v -0.3132477 0.3833318 -0.02839279
v 0.4267883 0.4059834 -0.07561874
v -0.0113678 0.3406072 -0.04787064
v 0.01821899 0.3794274 -0.1929436
v -0.8539085 0.5020399 0.5231495
v -0.8270569 0.5020399 0.3483582
v -0.8270569 0.4650197 0.1514053
v -0.8771057 0.5020399 0.1661987
v -0.8270569 0.4650197 0.1514053
v -0.8270569 0.5020399 0.3483582
v -0.8270569 0.5020399 0.018013
v -0.8270569 0.4650197 0.1514053
v -0.8771057 0.5020399 0.1661987
v 0.8810425 0 0.4704704
v 0.8810425 0.443377 0.4704704
v 1.014477 0.443377 0.459343
v 1.014477 0 0.459343
v 0.8094482 0.5020399 0.1861343
v 0.8270607 0.5020399 -0.4911499
v 1.064888 0.5020399 -0.4911537
v 1.047279 0.5020399 0.1861305
v 0.8564262 0.5020399 0.4938011
v 1.035522 0.5020399 0.4788666
v 0.8573837 0 -0.4911537
v 1.016956 0 0.164856
v 1.034569 0 -0.4911499
v 0.8397675 0 0.1648598
v 1.014477 0 0.459343
v 0.8810425 0 0.4704704
v 1.016956 0.443377 0.1648598
v 1.034569 0.443377 -0.4911499
v 1.034569 0 -0.4911499
v 1.016956 0 0.164856
v 1.014477 0 0.459343
v 1.014477 0.443377 0.459343
v 0.8573837 0 -0.4911537
v 0.8573837 0.443377 -0.4911537
v 0.8397675 0.443377 0.1648636
v 0.8397675 0 0.1648598
v 1.047279 0.443377 0.1861305
v 1.064888 0.443377 -0.4911537
v 1.034569 0.443377 -0.4911499
v 1.016956 0.443377 0.1648598
v 1.014477 0.443377 0.459343
v 1.035522 0.443377 0.4788666
v 0.8810425 0.443377 0.4704704
v 0.8564262 0.443377 0.4938011
v 0.8094482 0.443377 0.1861343
v 0.8397675 0.443377 0.1648636
v 0.8573837 0.443377 -0.4911537
v 0.8270607 0.443377 -0.4911499
v 0.8564262 0.443377 0.4938011
v 0.8564262 0.5020399 0.4938011
v 1.035522 0.5020399 0.4788666
v 1.035522 0.443377 0.4788666
v 1.047279 0.5020399 0.1861305
v 1.064888 0.5020399 -0.4911537
v 1.064888 0.443377 -0.4911537
v 1.047279 0.443377 0.1861305
v 1.035522 0.443377 0.4788666
v 1.035522 0.5020399 0.4788666
v 0.8270607 0.443377 -0.4911499
v 0.8270607 0.5020399 -0.4911499
v 0.8094482 0.5020399 0.1861343
v 0.8094482 0.443377 0.1861343
v -1.015305 0 0.4572449
v -1.015305 0.443377 0.4572449
v -0.8827133 0.443377 0.4953384
v -0.8827133 0 0.4953384
v -1.064884 0.5020399 -0.4911499
v -0.8270569 0.5020399 -0.4911518
v -0.8270569 0.5020399 0.018013
v -1.064888 0.5020399 0.1514091
v -0.8771057 0.5020399 0.1661987
v -1.031876 0.5020399 0.4720154
v -0.8270569 0.5020399 0.3483582
v -0.8539085 0.5020399 0.5231495
v -1.034565 0 -0.4911518
v -0.8573761 0 0.1327019
v -0.8573799 0 -0.4911499
v -1.034565 0 0.1327057
v -0.8827133 0 0.4953384
v -1.015305 0 0.4572449
v -0.8573761 0.443377 0.1327019
v -0.8573799 0.443377 -0.4911499
v -0.8573799 0 -0.4911499
v -0.8573761 0 0.1327019
v -1.034565 0 -0.4911518
v -1.034565 0.443377 -0.4911518
v -1.034565 0.443377 0.1327057
v -1.034565 0 0.1327057
v -0.8270569 0.443377 0.1514053
v -0.8270569 0.443377 -0.4911518
v -0.8573799 0.443377 -0.4911499
v -0.8573761 0.443377 0.1327019
v -0.8827133 0.443377 0.4953384
v -0.8539085 0.443377 0.5231495
v -1.015305 0.443377 0.4572449
v -1.031876 0.443377 0.4720154
v -1.064888 0.443377 0.1514091
v -1.034565 0.443377 0.1327057
v -1.034565 0.443377 -0.4911518
v -1.064884 0.443377 -0.4911499
v -1.031876 0.443377 0.4720154
v -1.031876 0.5020399 0.4720154
v -0.8539085 0.5020399 0.5231495
v -0.8539085 0.443377 0.5231495
v -0.8270569 0.5020399 -0.4911518
v -0.8270569 0.443377 -0.4911518
v -0.8270569 0.443377 0.1514053
v -0.8270569 0.4650197 0.1514053
v -0.8270569 0.5020399 0.018013
v -1.064884 0.443377 -0.4911499
v -1.064884 0.5020399 -0.4911499
v -1.064888 0.5020399 0.1514091
v -1.064888 0.443377 0.1514091
v -0.9731178 0.236414 0.3627129
v -0.9799805 0.2435889 -0.03074646
v 0.9113388 0.2058601 -0.04207611
v 0.8758278 0.1968803 0.3708115
v -0.9690247 0.1462021 0.3619175
v -0.9731178 0.236414 0.3627129
v 0.8758278 0.1968803 0.3708115
v 0.879921 0.106668 0.3700161
v -0.9758911 0.1533766 -0.03154182
v -0.9690247 0.1462021 0.3619175
v 0.879921 0.106668 0.3700161
v 0.915432 0.1156483 -0.04287148
v -0.9799805 0.2435889 -0.03074646
v -0.9758911 0.1533766 -0.03154182
v 0.915432 0.1156483 -0.04287148
v 0.9113388 0.2058601 -0.04207611
v -0.007686615 0.2943373 -0.04787064
v -0.0113678 0.3406072 -0.04787064
v 0.4267883 0.4059834 -0.07561874
v -0.9443893 0.3049612 0.01182556
v -0.3132477 0.3833318 -0.02839279
v -0.9515457 0.3949857 0.01182556
v -0.007686615 0.2943373 -0.04787064
v 0.8623199 0.3114638 -0.0610199
v 0.8699722 0.2289004 -0.4380684
v 0.07515717 0.2634492 -0.4611206
v -0.9459724 0.3530693 -0.5231514
v -0.9443893 0.3049612 0.01182556
v -0.007686615 0.2943373 -0.04787064
v 0.07515717 0.2634492 -0.4611206
v 0.8397675 0.443377 0.1648636
v 0.8810425 0.443377 0.4704704
v 0.8810425 0 0.4704704
v 0.8397675 0 0.1648598
v 0.8094482 0.5020399 0.1861343
v 0.8564262 0.5020399 0.4938011
v 0.8564262 0.443377 0.4938011
v 0.8094482 0.443377 0.1861343
v -1.034565 0.443377 0.1327057
v -1.015305 0.443377 0.4572449
v -1.015305 0 0.4572449
v -1.034565 0 0.1327057
v -1.064888 0.5020399 0.1514091
v -1.031876 0.5020399 0.4720154
v -1.031876 0.443377 0.4720154
v -1.064888 0.443377 0.1514091
v -0.8270569 0.4650197 0.1514053
v -0.8270569 0.443377 0.1514053
v -0.8539085 0.443377 0.5231495
v -0.8539085 0.5020399 0.5231495
v -0.8827133 0 0.4953384
v -0.8827133 0.443377 0.4953384
v -0.8573761 0.443377 0.1327019
v -0.8573761 0 0.1327019

vn 0.01979349 0.9580891 -0.2857859
vn 0.01979349 0.9580891 -0.2857859
vn 0.01979349 0.9580891 -0.2857859
vn 0.01508863 0.001199774 0.9998854
vn 0.01508863 0.001199774 0.9998854
vn 0.01508863 0.001199774 0.9998854
vn -0.02838168 0.3437343 0.938638
vn -0.02838168 0.3437343 0.938638
vn -0.02838168 0.3437343 0.938638
vn 0.01919355 0.9997041 0.01494388
vn 0.01919355 0.9997041 0.01494388
vn 0.01746812 0.9998364 -0.004687204
vn 0.02329009 0.9997287 0
vn -0.004166022 0.9994814 -0.03193458
vn -0.009417409 0.9993481 -0.03485354
vn -0.0190803 0.9991041 -0.03777334
vn -0.01991808 0.9989734 -0.0406871
vn 0.1523098 0.9465448 0.2843494
vn 0.1523098 0.9465448 0.2843494
vn 0.1523098 0.9465448 0.2843494
vn -0.1291915 0.9641801 0.2316598
vn -0.1291915 0.9641801 0.2316598
vn -0.1291915 0.9641801 0.2316598
vn 0.7689007 -0.6283642 0.1181111
vn 0.7689007 -0.6283642 0.1181111
vn 0.7689007 -0.6283642 0.1181111
vn 0.5579619 0.8155839 -0.153302
vn 0.5579619 0.8155839 -0.153302
vn 0.5579619 0.8155839 -0.153302
vn 0.6207619 0.7554454 0.2096586
vn 0.6207619 0.7554454 0.2096586
vn 0.6207619 0.7554454 0.2096586
vn 0.08310554 0 0.9965407
vn 0.08310554 0 0.9965407
vn 0.08310554 0 0.9965407
vn 0.08310554 0 0.9965407
vn 0 1 0
vn 0 1 0
vn 0 1 0
vn 0 1 0
vn 0 1 0
vn 0 1 0
vn 0 -1 0
vn 0 -1 0
vn 0 -1 0
vn 0 -1 0
vn 0 -1 0
vn 0 -1 0
vn 0.9998446 0 0.01763061
vn 0.9996399 0 0.02683682
vn 0.9996399 0 0.02683682
vn 0.9998446 0 0.01763061
vn 0.9999646 0 0.008422902
vn 0.9999646 0 0.008422902
vn -0.9996397 0 -0.02684237
vn -0.9996397 0 -0.02684237
vn -0.9996397 0 -0.02684237
vn -0.9996397 0 -0.02684237
vn 0 -1 0
vn 0 -1 0
vn 0 -1 0
vn 0 -1 0
vn 0 -1 0
vn 0 -1 0
vn 0 -1 0
vn 0 -1 0
vn 0 -1 0
vn 0 -1 0
vn 0 -1 0
vn 0 -1 0
vn 0.08310083 0 0.9965412
vn 0.08310083 0 0.9965412
vn 0.08310083 0 0.9965412
vn 0.08310083 0 0.9965412
vn 0.9994534 0 0.03306076
vn 0.9996622 0 0.02599011
vn 0.9996622 0 0.02599011
vn 0.9994534 0 0.03306076
vn 0.9991944 0 0.04012976
vn 0.9991944 0 0.04012976
vn -0.9996619 0 -0.02599856
vn -0.9996619 0 -0.02599856
vn -0.9996619 0 -0.02599856
vn -0.9996619 0 -0.02599856
vn -0.2761341 0 0.9611191
vn -0.2761341 0 0.9611191
vn -0.2761341 0 0.9611191
vn -0.2761341 0 0.9611191
vn 0 1 0
vn 0 1 0
vn 0 1 0
vn 0 1 0
vn 0 1 0
vn 0 1 0
vn 0 1 0
vn 0 1 0
vn 0 -1 0
vn 0 -1 0
vn 0 -1 0
vn 0 -1 0
vn 0 -1 0
vn 0 -1 0
vn 1 0 0
vn 1 0 0
vn 1 0 0
vn 1 0 0
vn -1 0 0
vn -1 0 0
vn -1 0 0
vn -1 0 0
vn 0 -1 0
vn 0 -1 0
vn 0 -1 0
vn 0 -1 0
vn 0 -1 0
vn 0 -1 0
vn 0 -1 0
vn 0 -1 0
vn 0 -1 0
vn 0 -1 0
vn 0 -1 0
vn 0 -1 0
vn -0.2761506 0 0.9611143
vn -0.2761506 0 0.9611143
vn -0.2761506 0 0.9611143
vn -0.2761506 0 0.9611143
vn 1 0 0
vn 1 0 0
vn 1 0 0
vn 1 0 0
vn 1 0 0
vn -1 0 0
vn -1 0 0
vn -1 0 0
vn -1 0 0
vn 0.02066601 0.9995709 0.02075989
vn 0.02066601 0.9995709 0.02075989
vn 0.02066601 0.9995709 0.02075989
vn 0.02066601 0.9995709 0.02075989
vn -0.004572838 -0.009023571 0.9999489
vn -0.004572838 -0.009023571 0.9999489
vn -0.004572838 -0.009023571 0.9999489
vn -0.004572838 -0.009023571 0.9999489
vn -0.02066603 -0.9995709 -0.0207599
vn -0.02066603 -0.9995709 -0.0207599
vn -0.02066603 -0.9995709 -0.0207599
vn -0.02066603 -0.9995709 -0.0207599
vn -0.005819416 0.008552188 -0.9999465
vn -0.005819416 0.008552188 -0.9999465
vn -0.005819416 0.008552188 -0.9999465
vn -0.005819416 0.008552188 -0.9999465
vn 0.06306057 0.005014401 0.9979971
vn 0.06336246 0.002342558 0.9979879
vn 0.06246358 0.00496693 0.9980349
vn 0.06353258 0.002356041 0.997977
vn 0.06346992 0.001003109 0.9979832
vn 0.06297393 0.00500738 0.9980026
vn -0.01119731 -0.98997 0.1408332
vn -0.01119731 -0.98997 0.1408332
vn -0.01119731 -0.98997 0.1408332
vn -0.01119731 -0.98997 0.1408332
vn -0.05109503 -0.9984401 -0.02251052
vn -0.05109503 -0.9984401 -0.02251052
vn -0.05109503 -0.9984401 -0.02251052
vn -0.05109503 -0.9984401 -0.02251052
vn -0.9910021 0 0.1338461
vn -0.9910021 0 0.1338461
vn -0.9910021 0 0.1338461
vn -0.9910021 0 0.1338461
vn -0.9885417 0 0.1509477
vn -0.9885417 0 0.1509477
vn -0.9885417 0 0.1509477
vn -0.9885417 0 0.1509477
vn -0.9982432 0 0.05924831
vn -0.9982432 0 0.05924831
vn -0.9982432 0 0.05924831
vn -0.9982432 0 0.05924831
vn -0.9947405 0 0.1024271
vn -0.9947405 0 0.1024271
vn -0.9947405 0 0.1024271
vn -0.9947405 0 0.1024271
vn 0.9974018 0 0.07203875
vn 0.9974018 0 0.07203875
vn 0.9974018 0 0.07203875
vn 0.9974018 0 0.07203875
vn 0.997568 0 0.06969953
vn 0.997568 0 0.06969953
vn 0.997568 0 0.06969953
vn 0.997568 0 0.06969953

vt 0.9136508 0.5370136
vt 0.9136508 0.5370136
vt 0.9136508 0.5370136
vt 0.9136508 0.5370136
vt 0.9136508 0.5370136
vt 0.9136508 0.5370136
vt 0.9136508 0.5370136
vt 0.9136508 0.5370136
vt 0.9136508 0.5370136
vt 0.9136508 0.5370136
vt 0.9136508 0.5370136
vt 0.9136508 0.5370136
vt 0.9136508 0.5370136
vt 0.9136508 0.5370136
vt 0.9136508 0.5370136
vt 0.9136508 0.5370136
vt 0.9136508 0.5370136
vt 0.9136508 0.5370136
vt 0.9136508 0.5370136
vt 0.9136508 0.5370136
vt 0.9136508 0.5370136
vt 0.9136508 0.5370136
vt 0.9136508 0.5370136
vt 0.9136508 0.5370136
vt 0.9136508 0.5370136
vt 0.9136508 0.5370136
vt 0.9136508 0.5370136
vt 0.9136508 0.5370136
vt 0.9136508 0.5370136
vt 0.9136508 0.5370136
vt 0.9136508 0.5370136
vt 0.9136508 0.5370136
vt 0.9253604 0.5370136
vt 0.9253604 0.5370136
vt 0.9253604 0.5370136
vt 0.9253604 0.5370136
vt 0.9136508 0.5370136
vt 0.9136508 0.5370136
vt 0.9136508 0.5370136
vt 0.9136508 0.5370136
vt 0.9136508 0.5370136
vt 0.9136508 0.5370136
vt 0.9136508 0.5370136
vt 0.9136508 0.5370136
vt 0.9136508 0.5370136
vt 0.9136508 0.5370136
vt 0.9136508 0.5370136
vt 0.9136508 0.5370136
vt 0.9253604 0.5370136
vt 0.9253604 0.5370136
vt 0.9253604 0.5370136
vt 0.9253604 0.5370136
vt 0.9253604 0.5370136
vt 0.9253604 0.5370136
vt 0.9253604 0.5370136
vt 0.9253604 0.5370136
vt 0.9253604 0.5370136
vt 0.9253604 0.5370136
vt 0.9136508 0.5370136
vt 0.9136508 0.5370136
vt 0.9136508 0.5370136
vt 0.9136508 0.5370136
vt 0.9136508 0.5370136
vt 0.9136508 0.5370136
vt 0.9136508 0.5370136
vt 0.9136508 0.5370136
vt 0.9136508 0.5370136
vt 0.9136508 0.5370136
vt 0.9136508 0.5370136
vt 0.9136508 0.5370136
vt 0.9136508 0.5370136
vt 0.9136508 0.5370136
vt 0.9136508 0.5370136
vt 0.9136508 0.5370136
vt 0.9136508 0.5370136
vt 0.9136508 0.5370136
vt 0.9136508 0.5370136
vt 0.9136508 0.5370136
vt 0.9136508 0.5370136
vt 0.9136508 0.5370136
vt 0.9136508 0.5370136
vt 0.9136508 0.5370136
vt 0.9136508 0.5370136
vt 0.9136508 0.5370136
vt 0.9253604 0.5370136
vt 0.9253604 0.5370136
vt 0.9253604 0.5370136
vt 0.9253604 0.5370136
vt 0.9136508 0.5370136
vt 0.9136508 0.5370136
vt 0.9136508 0.5370136
vt 0.9136508 0.5370136
vt 0.9136508 0.5370136
vt 0.9136508 0.5370136
vt 0.9136508 0.5370136
vt 0.9136508 0.5370136
vt 0.9136508 0.5370136
vt 0.9136508 0.5370136
vt 0.9136508 0.5370136
vt 0.9136508 0.5370136
vt 0.9136508 0.5370136
vt 0.9136508 0.5370136
vt 0.9253604 0.5370136
vt 0.9253604 0.5370136
vt 0.9253604 0.5370136
vt 0.9253604 0.5370136
vt 0.9253604 0.5370136
vt 0.9253604 0.5370136
vt 0.9253604 0.5370136
vt 0.9253604 0.5370136
vt 0.9136508 0.5370136
vt 0.9136508 0.5370136
vt 0.9136508 0.5370136
vt 0.9136508 0.5370136
vt 0.9136508 0.5370136
vt 0.9136508 0.5370136
vt 0.9136508 0.5370136
vt 0.9136508 0.5370136
vt 0.9136508 0.5370136
vt 0.9136508 0.5370136
vt 0.9136508 0.5370136
vt 0.9136508 0.5370136
vt 0.9136508 0.5370136
vt 0.9136508 0.5370136
vt 0.9136508 0.5370136
vt 0.9136508 0.5370136
vt 0.9136508 0.5370136
vt 0.9136508 0.5370136
vt 0.9136508 0.5370136
vt 0.9136508 0.5370136
vt 0.9136508 0.5370136
vt 0.9136508 0.5370136
vt 0.9136508 0.5370136
vt 0.9136508 0.5370136
vt 0.9136508 0.5370136
vt 0.9136508 0.5370136
vt 0.9136508 0.5370136
vt 0.9136508 0.5370136
vt 0.9136508 0.5370136
vt 0.9136508 0.5370136
vt 0.9136508 0.5370136
vt 0.9136508 0.5370136
vt 0.9136508 0.5370136
vt 0.9136508 0.5370136
vt 0.9136508 0.5370136
vt 0.9136508 0.5370136
vt 0.9136508 0.5370136
vt 0.9136508 0.5370136
vt 0.9136508 0.5370136
vt 0.9136508 0.5370136
vt 0.9136508 0.5370136
vt 0.9136508 0.5370136
vt 0.9136508 0.5370136
vt 0.9136508 0.5370136
vt 0.9136508 0.5370136
vt 0.9136508 0.5370136
vt 0.9136508 0.5370136
vt 0.9136508 0.5370136
vt 0.9136508 0.5370136
vt 0.9136508 0.5370136
vt 0.9136508 0.5370136
vt 0.9136508 0.5370136
vt 0.9136508 0.5370136
vt 0.9136508 0.5370136
vt 0.9136508 0.5370136
vt 0.9253604 0.5370136
vt 0.9253604 0.5370136
vt 0.9253604 0.5370136
vt 0.9253604 0.5370136
vt 0.9136508 0.5370136
vt 0.9136508 0.5370136
vt 0.9136508 0.5370136
vt 0.9136508 0.5370136
vt 0.9253604 0.5370136
vt 0.9253604 0.5370136
vt 0.9253604 0.5370136
vt 0.9253604 0.5370136
vt 0.9136508 0.5370136
vt 0.9136508 0.5370136
vt 0.9136508 0.5370136
vt 0.9136508 0.5370136
vt 0.9136508 0.5370136
vt 0.9136508 0.5370136
vt 0.9136508 0.5370136
vt 0.9136508 0.5370136
vt 0.9253604 0.5370136
vt 0.9253604 0.5370136
vt 0.9253604 0.5370136
vt 0.9253604 0.5370136

usemtl PolygonWestern_Material_01_A
usemap PolygonWestern_Material_01_A
f 2/2/2 1/1/1 3/3/3
f 5/5/5 4/4/4 6/6/6
f 8/8/8 7/7/7 9/9/9
f 11/11/11 10/10/10 12/12/12
f 13/13/13 12/12/12 14/14/14
f 15/15/15 14/14/14 12/12/12
f 14/14/14 15/15/15 16/16/16
f 17/17/17 16/16/16 15/15/15
f 19/19/19 18/18/18 20/20/20
f 22/22/22 21/21/21 23/23/23
f 25/25/25 24/24/24 26/26/26
f 28/28/28 27/27/27 29/29/29
f 31/31/31 30/30/30 32/32/32
f 34/34/34 33/33/33 35/35/35
f 35/35/35 33/33/33 36/36/36
f 38/38/38 37/37/37 39/39/39
f 39/39/39 37/37/37 40/40/40
f 37/37/37 41/41/41 40/40/40
f 40/40/40 41/41/41 42/42/42
f 44/44/44 43/43/43 45/45/45
f 46/46/46 43/43/43 44/44/44
f 47/47/47 46/46/46 44/44/44
f 48/48/48 46/46/46 47/47/47
f 50/50/50 49/49/49 51/51/51
f 51/51/51 49/49/49 52/52/52
f 49/49/49 53/53/53 52/52/52
f 54/54/54 53/53/53 49/49/49
f 56/56/56 55/55/55 57/57/57
f 57/57/57 55/55/55 58/58/58
f 60/60/60 59/59/59 61/61/61
f 61/61/61 59/59/59 62/62/62
f 59/59/59 63/63/63 62/62/62
f 64/64/64 63/63/63 59/59/59
f 64/64/64 65/65/65 63/63/63
f 66/66/66 65/65/65 64/64/64
f 66/66/66 67/67/67 65/65/65
f 65/65/65 67/67/67 68/68/68
f 67/67/67 69/69/69 68/68/68
f 70/70/70 69/69/69 67/67/67
f 72/72/72 71/71/71 73/73/73
f 73/73/73 71/71/71 74/74/74
f 76/76/76 75/75/75 77/77/77
f 77/77/77 75/75/75 78/78/78
f 75/75/75 79/79/79 78/78/78
f 80/80/80 79/79/79 75/75/75
f 82/82/82 81/81/81 83/83/83
f 83/83/83 81/81/81 84/84/84
f 86/86/86 85/85/85 87/87/87
f 87/87/87 85/85/85 88/88/88
f 90/90/90 89/89/89 91/91/91
f 92/92/92 91/91/91 89/89/89
f 93/93/93 91/91/91 92/92/92
f 92/92/92 94/94/94 93/93/93
f 95/95/95 93/93/93 94/94/94
f 96/96/96 95/95/95 94/94/94
f 98/98/98 97/97/97 99/99/99
f 100/100/100 97/97/97 98/98/98
f 101/101/101 100/100/100 98/98/98
f 102/102/102 100/100/100 101/101/101
f 104/104/104 103/103/103 105/105/105
f 105/105/105 103/103/103 106/106/106
f 108/108/108 107/107/107 109/109/109
f 109/109/109 107/107/107 110/110/110
f 112/112/112 111/111/111 113/113/113
f 113/113/113 111/111/111 114/114/114
f 111/111/111 115/115/115 114/114/114
f 116/116/116 115/115/115 111/111/111
f 116/116/116 117/117/117 115/115/115
f 118/118/118 117/117/117 116/116/116
f 118/118/118 119/119/119 117/117/117
f 117/117/117 119/119/119 120/120/120
f 119/119/119 121/121/121 120/120/120
f 122/122/122 121/121/121 119/119/119
f 124/124/124 123/123/123 125/125/125
f 125/125/125 123/123/123 126/126/126
f 128/128/128 127/127/127 129/129/129
f 130/130/130 129/129/129 127/127/127
f 131/131/131 130/130/130 127/127/127
f 133/133/133 132/132/132 134/134/134
f 134/134/134 132/132/132 135/135/135
f 137/137/137 136/136/136 138/138/138
f 138/138/138 136/136/136 139/139/139
f 141/141/141 140/140/140 142/142/142
f 142/142/142 140/140/140 143/143/143
f 145/145/145 144/144/144 146/146/146
f 146/146/146 144/144/144 147/147/147
f 149/149/149 148/148/148 150/150/150
f 150/150/150 148/148/148 151/151/151
f 153/153/153 152/152/152 154/154/154
f 152/152/152 153/153/153 155/155/155
f 156/156/156 155/155/155 153/153/153
f 157/157/157 155/155/155 156/156/156
f 159/159/159 158/158/158 160/160/160
f 160/160/160 158/158/158 161/161/161
f 163/163/163 162/162/162 164/164/164
f 164/164/164 162/162/162 165/165/165
f 167/167/167 166/166/166 168/168/168
f 168/168/168 166/166/166 169/169/169
f 171/171/171 170/170/170 172/172/172
f 172/172/172 170/170/170 173/173/173
f 175/175/175 174/174/174 176/176/176
f 176/176/176 174/174/174 177/177/177
f 179/179/179 178/178/178 180/180/180
f 180/180/180 178/178/178 181/181/181
f 183/183/183 182/182/182 184/184/184
f 185/185/185 184/184/184 182/182/182
f 187/187/187 186/186/186 188/188/188
f 188/188/188 186/186/186 189/189/189
