mtllib ./SM_Bld_Sign_11_53.mtl
g SM_Bld_Sign_11
v -0.08084869 0.1654854 -0.6472397
v -0.08084869 0.1654854 0.0180378
v -0.08084869 0.1654854 0.6472397
v -0.08084869 0.1654854 -0.6472397
v -0.08084869 0.17033 -0.07277107
v -0.08084869 0.1654854 0.0180378
v -0.08084869 -0.1654854 -0.6472397
v -0.08084869 0.1654854 0.6472397
v -0.08084869 -0.1654854 0.3696098
v -0.08084869 -0.1654854 0.510643
v -0.08084869 -0.1654854 0.6472397
v -0.08084869 -0.1766701 0.4302216
v -0.03055191 -0.1654854 0.6472397
v -0.03055191 0.1654854 0.6472397
v -0.03055191 0.1654854 -0.6472397
v -0.03055191 -0.1654854 -0.6472397
v -0.08084869 0.202137 0.6838913
v -0.08084869 0.202137 -0.6838913
v -0.03055191 0.202137 -0.6838913
v -0.03055191 0.202137 0.6838913
v -0.03055191 -0.202137 0.6838913
v -0.03055191 -0.202137 -0.6838913
v -0.08084869 -0.202137 -0.6838913
v -0.08084869 -0.202137 0.6838913
v -0.03055191 0.202137 -0.6838913
v -0.08084869 0.202137 -0.6838913
v -0.08084869 -0.202137 -0.6838913
v -0.03055191 -0.202137 -0.6838913
v -0.03055191 0.202137 0.6838913
v -0.03055191 -0.202137 0.6838913
v -0.08084869 -0.202137 0.6838913
v -0.08084869 0.202137 0.6838913
v -0.08084869 -0.1766701 0.4302216
v -0.08084869 -0.1654854 0.510643
v -0.08084869 -0.1654854 0.6472397
v -0.08084869 -0.202137 0.6838913
v -0.08084869 0.1654854 0.6472397
v -0.08084869 0.202137 0.6838913
v -0.08084869 0.1654854 0.0180378
v -0.08084869 0.17033 -0.07277107
v -0.08084869 0.202137 -0.6838913
v -0.08084869 0.1654854 -0.6472397
v -0.08084869 -0.1654854 -0.6472397
v -0.08084869 -0.202137 -0.6838913
v -0.08084869 -0.1654854 0.3696098
v -0.03055191 0.1654854 0.6472397
v -0.03055191 0.202137 0.6838913
v -0.03055191 0.202137 -0.6838913
v -0.03055191 0.1654854 -0.6472397
v -0.03055191 -0.1654854 0.6472397
v -0.03055191 -0.202137 -0.6838913
v -0.03055191 -0.202137 0.6838913
v -0.03055191 -0.1654854 -0.6472397

vn 0 1 0
vn 0 1 0
vn 0 1 0
vn -1 0 0
vn -1 0 0
vn -1 0 0
vn -1 0 0
vn -1 0 0
vn -1 0 0
vn -1 0 0
vn -1 0 0
vn -1 0 0
vn 1 0 0
vn 1 0 0
vn 1 0 0
vn 1 0 0
vn 0 1 0
vn 0 1 0
vn 0 1 0
vn 0 1 0
vn 0 -1 0
vn 0 -1 0
vn 0 -1 0
vn 0 -1 0
vn 0 0 -1
vn 0 0 -1
vn 0 0 -1
vn 0 0 -1
vn 0 0 1
vn 0 0 1
vn 0 0 1
vn 0 0 1
vn -1 0 0
vn -1 0 0
vn -1 0 0
vn -1 0 0
vn -1 0 0
vn -1 0 0
vn -1 0 0
vn -1 0 0
vn -1 0 0
vn -1 0 0
vn -1 0 0
vn -1 0 0
vn -1 0 0
vn 1 0 0
vn 1 0 0
vn 1 0 0
vn 1 0 0
vn 1 0 0
vn 1 0 0
vn 1 0 0
vn 1 0 0

vt 0.2064611 0.9947739
vt 0.3475585 0.994774
vt 0.4810045 0.9947739
vt 0.2064611 0.9947739
vt 0.328299 0.9958015
vt 0.3475585 0.994774
vt 0.2064611 0.9245788
vt 0.4810045 0.9947739
vt 0.422123 0.9245788
vt 0.4520347 0.9245788
vt 0.4810045 0.9245788
vt 0.4349781 0.9222065
vt 0.009140164 0.9930284
vt 0.009140164 0.9924815
vt 0.00913768 0.9921272
vt 0.00913768 0.9926481
vt 0.2871229 0.9348946
vt 0.28316 0.9348089
vt 0.2831228 0.9348261
vt 0.2870858 0.9349117
vt 0.2870858 0.933506
vt 0.2831228 0.9334202
vt 0.28316 0.9334031
vt 0.2871229 0.9334888
vt 0.2831228 0.9348261
vt 0.28316 0.9348089
vt 0.28316 0.9334031
vt 0.2831228 0.9334202
vt 0.2870858 0.9349117
vt 0.2870858 0.933506
vt 0.2871229 0.9334888
vt 0.2871229 0.9348946
vt 0.2863787 0.9335612
vt 0.286606 0.933605
vt 0.2869977 0.9336135
vt 0.2871229 0.9334888
vt 0.2869977 0.9347644
vt 0.2871229 0.9348946
vt 0.2851932 0.9347255
vt 0.2849318 0.9347366
vt 0.28316 0.9348089
vt 0.2832852 0.9346842
vt 0.2832852 0.9335333
vt 0.28316 0.9334031
vt 0.2862015 0.9335963
vt 0.2869606 0.9347816
vt 0.2870858 0.9349117
vt 0.2831228 0.9348261
vt 0.2832481 0.9347013
vt 0.2869606 0.9336307
vt 0.2831228 0.9334202
vt 0.2870858 0.933506
vt 0.2832481 0.9335504

usemtl POLYGONWestern_Signs_01
usemap POLYGONWestern_Signs_01
f 2/2/2 1/1/1 3/3/3
f 5/5/5 4/4/4 6/6/6
f 4/4/4 7/7/7 8/8/8
f 7/7/7 9/9/9 8/8/8
f 9/9/9 10/10/10 8/8/8
f 11/11/11 8/8/8 10/10/10
f 10/10/10 9/9/9 12/12/12
f 14/14/14 13/13/13 15/15/15
f 15/15/15 13/13/13 16/16/16
f 18/18/18 17/17/17 19/19/19
f 19/19/19 17/17/17 20/20/20
f 22/22/22 21/21/21 23/23/23
f 23/23/23 21/21/21 24/24/24
f 26/26/26 25/25/25 27/27/27
f 27/27/27 25/25/25 28/28/28
f 30/30/30 29/29/29 31/31/31
f 31/31/31 29/29/29 32/32/32
f 34/34/34 33/33/33 35/35/35
f 35/35/35 33/33/33 36/36/36
f 36/36/36 37/37/37 35/35/35
f 38/38/38 37/37/37 36/36/36
f 37/37/37 38/38/38 39/39/39
f 40/40/40 39/39/39 38/38/38
f 38/38/38 41/41/41 40/40/40
f 42/42/42 40/40/40 41/41/41
f 41/41/41 43/43/43 42/42/42
f 44/44/44 36/36/36 33/33/33
f 44/44/44 43/43/43 41/41/41
f 44/44/44 33/33/33 43/43/43
f 45/45/45 43/43/43 33/33/33
f 47/47/47 46/46/46 48/48/48
f 48/48/48 46/46/46 49/49/49
f 47/47/47 50/50/50 46/46/46
f 48/48/48 49/49/49 51/51/51
f 52/52/52 50/50/50 47/47/47
f 51/51/51 49/49/49 53/53/53
f 52/52/52 53/53/53 50/50/50
f 51/51/51 53/53/53 52/52/52
