mtllib ./SM_Bld_Sign_01_75.mtl
g SM_Bld_Sign_01
v -0.1228638 0.2110767 -1.618835
v -0.12286 0.1671677 -1.64624
v -0.07833862 0.2053032 -1.64624
v 0.01110077 -0.6984177 1.64624
v 0.01110077 0.2053032 1.64624
v 0.01109314 0.2053032 -1.64624
v -0.1228561 0.5679855 0.7428207
v -0.1228561 0.6154633 0.7097931
v -0.08550644 0.5916634 0.7666779
v -0.1228561 0.5679855 0.7428207
v -0.08550644 0.5916634 0.7666779
v -0.1228561 0.4834442 0.9889069
v -0.0823288 -0.7305145 -0.41436
v -0.1228561 -0.6789856 -0.4171257
v -0.12286 -0.7305145 -0.2882175
v -0.12286 -0.7305145 -0.6334152
v -0.1228561 -0.6789856 -0.4171257
v -0.0823288 -0.7305145 -0.41436
v -0.12286 -0.6951523 1.64624
v -0.12286 0.2053032 1.64624
v 0.01110077 0.2053032 1.64624
v 0.01110077 -0.6984177 1.64624
v -0.12286 -0.7305145 -0.2882175
v -0.1224976 -0.7305145 1.616745
v 0.01146317 -0.7305145 1.616745
v -0.0823288 -0.7305145 -0.41436
v 0.01109314 -0.7305145 -1.64624
v -0.12286 -0.7305145 -0.6334152
v -0.12286 -0.7305145 -1.64624
v -0.12286 0.7091141 0.3618507
v -0.12286 0.7305222 0
v 0.01110077 0.7305222 0
v 0.01109314 0.7091141 0.3618507
v -0.1228638 0.7091141 -0.3618469
v -0.12286 0.6154633 -0.7097931
v 0.01109314 0.6154633 -0.7097931
v 0.01108932 0.7091141 -0.3618469
v -0.08550644 0.5916634 0.7666779
v -0.1228561 0.6154633 0.7097931
v 0.01109314 0.6154633 0.7097855
v 0.01109695 0.4834442 0.9888992
v -0.1228561 0.4834442 0.9889069
v 0.01109314 0.3444061 1.197327
v 0.01108932 0.2524052 1.422577
v -0.12286 0.2524052 1.422592
v -0.12286 0.3444061 1.197334
v -0.12286 0.6154633 -0.7097931
v -0.1228561 0.4834442 -0.9888992
v 0.01109695 0.4834442 -0.9889069
v 0.01109314 0.6154633 -0.7097931
v -0.12286 0.7305222 0
v -0.1228638 0.7091141 -0.3618469
v 0.01108932 0.7091141 -0.3618469
v 0.01110077 0.7305222 0
v -0.1228561 0.6154633 0.7097931
v -0.12286 0.7091141 0.3618507
v 0.01109314 0.7091141 0.3618507
v 0.01109314 0.6154633 0.7097855
v -0.1228561 0.4834442 -0.9888992
v -0.1228638 0.3444061 -1.197334
v 0.01109314 0.3444061 -1.197334
v 0.01109695 0.4834442 -0.9889069
v -0.12286 0.3444061 1.197334
v -0.1228561 0.4834442 0.9889069
v 0.01109695 0.4834442 0.9888992
v 0.01109314 0.3444061 1.197327
v -0.1228638 0.3444061 -1.197334
v -0.1228638 0.2524052 -1.422577
v 0.01108932 0.2524052 -1.422577
v 0.01109314 0.3444061 -1.197334
v 0.01109314 0.2053032 -1.64624
v 0.01109314 -0.7305145 -1.64624
v 0.01146317 -0.7305145 1.616745
v 0.01110077 -0.6984177 1.64624
v 0.01110077 0.2053032 1.64624
v 0.01108932 0.2524052 -1.422577
v 0.01109314 0.2053032 -1.64624
v 0.01108932 0.2524052 1.422577
v 0.01109314 0.3444061 -1.197334
v 0.01109314 0.3444061 1.197327
v 0.01109695 0.4834442 -0.9889069
v 0.01109695 0.4834442 0.9888992
v 0.01109314 0.6154633 -0.7097931
v 0.01109314 0.6154633 0.7097855
v 0.01108932 0.7091141 -0.3618469
v 0.01109314 0.7091141 0.3618507
v 0.01110077 0.7305222 0
v 0.01110077 0.2053032 1.64624
v -0.12286 0.2053032 1.64624
v -0.12286 0.2524052 1.422592
v 0.01108932 0.2524052 1.422577
v -0.1224976 -0.7305145 1.616745
v -0.12286 -0.6951523 1.64624
v 0.01110077 -0.6984177 1.64624
v 0.01146317 -0.7305145 1.616745
v -0.12286 0.2524052 1.422592
v -0.12286 0.2053032 1.64624
v -0.12286 -0.6951523 1.64624
v -0.1224976 -0.7305145 1.616745
v -0.12286 0.3444061 1.197334
v -0.1228561 0.4834442 0.9889069
v -0.1228561 0.5679855 0.7428207
v -0.1228561 0.6154633 0.7097931
v -0.12286 0.7091141 0.3618507
v -0.12286 0.7305222 0
v -0.12286 -0.7305145 -0.2882175
v -0.1228561 -0.6789856 -0.4171257
v -0.12286 -0.7305145 -0.6334152
v -0.12286 -0.7305145 -1.64624
v -0.1228638 0.7091141 -0.3618469
v -0.12286 0.6154633 -0.7097931
v -0.1228561 0.4834442 -0.9888992
v -0.1228638 0.3444061 -1.197334
v -0.1228638 0.2524052 -1.422577
v -0.1228638 0.2110767 -1.618835
v -0.12286 0.1671677 -1.64624
v -0.12286 0.1671677 -1.64624
v -0.12286 -0.7305145 -1.64624
v -0.07833862 0.2053032 -1.64624
v 0.01109314 0.2053032 -1.64624
v 0.01109314 -0.7305145 -1.64624
v -0.1228638 0.2524052 -1.422577
v 0.01109314 0.2053032 -1.64624
v 0.01108932 0.2524052 -1.422577
v -0.07833862 0.2053032 -1.64624
v -0.1228638 0.2110767 -1.618835

vn -0.4130082 0.4821923 -0.7726026
vn -0.4130082 0.4821923 -0.7726026
vn -0.4130082 0.4821923 -0.7726026
vn 0.9999892 0.004495349 0.001232219
vn 1 0.0001164593 0
vn 0.9999973 0.002278118 0.0005875877
vn -0.6632853 0.4273627 0.6143401
vn -0.6632853 0.4273627 0.6143401
vn -0.6632853 0.4273627 0.6143401
vn -0.6280237 0.7359745 0.2528394
vn -0.6280237 0.7359745 0.2528394
vn -0.6280237 0.7359745 0.2528394
vn -0.7560959 -0.6077054 -0.2429259
vn -0.7560959 -0.6077054 -0.2429259
vn -0.7560959 -0.6077054 -0.2429259
vn -0.7815157 -0.6068991 0.1445914
vn -0.7815157 -0.6068991 0.1445914
vn -0.7815157 -0.6068991 0.1445914
vn 0 0 1
vn 0 0 1
vn 0 0 1
vn 0 0 1
vn 0 -1 0
vn 0 -1 0
vn 0 -1 0
vn 0 -1 0
vn 0 -1 0
vn 0 -1 0
vn 0 -1 0
vn 0 0.9982545 0.05905947
vn 0 0.9982545 0.05905947
vn 0 0.9982545 0.05905947
vn 0 0.9982545 0.05905947
vn 0 0.9656345 -0.2599036
vn 0 0.9656345 -0.2599036
vn 0 0.9656345 -0.2599036
vn 0 0.9656345 -0.2599036
vn 0.009716117 0.9087523 0.4172229
vn 2.198294E-05 0.9225174 0.3859556
vn 0.01456125 0.9133905 0.4068239
vn 0.01455918 0.9014391 0.432661
vn 2.493595E-05 0.8990619 0.4378215
vn 3.230294E-05 0.9257606 0.3781103
vn 3.230294E-05 0.9257606 0.3781103
vn 3.230294E-05 0.9257606 0.3781103
vn 3.230294E-05 0.9257606 0.3781103
vn -1.217472E-05 0.903977 -0.4275812
vn -1.217472E-05 0.903977 -0.4275812
vn -1.217472E-05 0.903977 -0.4275812
vn -1.217472E-05 0.903977 -0.4275812
vn 0 0.9982544 -0.05906009
vn 0 0.9982544 -0.05906009
vn 0 0.9982544 -0.05906009
vn 0 0.9982544 -0.05906009
vn 0 0.9656332 0.2599089
vn 0 0.9656332 0.2599089
vn 0 0.9656332 0.2599089
vn 0 0.9656332 0.2599089
vn -1.577594E-05 0.8318956 -0.5549321
vn -1.577594E-05 0.8318956 -0.5549321
vn -1.577594E-05 0.8318956 -0.5549321
vn -1.577594E-05 0.8318956 -0.5549321
vn 3.159766E-05 0.8318909 0.5549391
vn 3.159766E-05 0.8318909 0.5549391
vn 3.159766E-05 0.8318909 0.5549391
vn 3.159766E-05 0.8318909 0.5549391
vn 0 0.9257538 -0.3781267
vn 0 0.9257538 -0.3781267
vn 0 0.9257538 -0.3781267
vn 0 0.9257538 -0.3781267
vn 0.9999973 0.002278118 0.0005875877
vn 1 0 -0.0001124145
vn 0.9999893 0.00449535 0.001176844
vn 0.9999892 0.004495349 0.001232219
vn 1 0.0001164593 0
vn 1 0.0001065595 0
vn 0.9999973 0.002278118 0.0005875877
vn 1 4.60622E-05 0
vn 1 -4.211133E-05 0
vn 1 -3.878481E-05 0
vn 1 -5.04128E-06 0
vn 1 2.11178E-05 0
vn 1 3.235844E-05 0
vn 1 1.626895E-05 0
vn 1 -0.0001135855 0
vn 1 -0.0001773793 0
vn 1 -0.0003480267 0
vn 1.173669E-05 0.9785351 0.2060799
vn 1.173669E-05 0.9785351 0.2060799
vn 1.173669E-05 0.9785351 0.2060799
vn 1.173669E-05 0.9785351 0.2060799
vn -0.008023253 -0.658303 0.7527102
vn -0.008023253 -0.658303 0.7527102
vn -0.008023253 -0.658303 0.7527102
vn -0.008023253 -0.658303 0.7527102
vn -0.9999944 -0.0008847671 -0.003238153
vn -1 0 0
vn -0.999988 -0.001127154 -0.004775553
vn -0.9999988 -0.000589806 -0.001444947
vn -0.9999999 -0.0004308991 -0.0002425777
vn -0.9999999 -0.0004105043 -0.0002225951
vn -1 -0.000355993 -0.0001257926
vn -1 -0.0003527828 -0.0001281834
vn -1 -0.0003080521 -7.188112E-05
vn -1 -5.171586E-05 3.024816E-05
vn -1 -1.793954E-05 9.093937E-05
vn -1 0 0
vn -1 0 0
vn -1 -1.838185E-06 -1.703503E-06
vn -1 0 0
vn -1 6.48813E-06 -9.325544E-06
vn -1 0 9.03642E-06
vn -1 -8.920969E-06 1.711268E-05
vn -1 0 0
vn -1 0 -1.97371E-05
vn -1 0 -3.479956E-05
vn 0 0 -1
vn 0 0 -1
vn 0 0 -1
vn 0 0 -1
vn 0 0 -1
vn 2.85783E-05 0.9785378 -0.2060677
vn 0 0.9785366 -0.2060732
vn 0 0.9785366 -0.2060732
vn 2.85783E-05 0.9785378 -0.2060677
vn 5.715659E-05 0.9785389 -0.2060623

vt 0.9918128 0.9922887
vt 0.9921987 0.9929911
vt 0.9924936 0.9922104
vt 0.9928634 0.9932351
vt 0.9929516 0.9929372
vt 0.9925248 0.9925588
vt 0.9925921 0.9925643
vt 0.9926523 0.992452
vt 0.9925021 0.9925032
vt 0.9925921 0.9925643
vt 0.9925021 0.9925032
vt 0.9921438 0.9928333
vt 0.992345 0.9927863
vt 0.9923422 0.9925929
vt 0.991962 0.9927267
vt 0.9929802 0.9926622
vt 0.9923422 0.9925929
vt 0.992345 0.9927863
vt 0.992879 0.9928421
vt 0.992879 0.9930303
vt 0.992855 0.9929326
vt 0.9928318 0.9928381
vt 0.9929332 0.9929609
vt 0.9929336 0.9925628
vt 0.9929813 0.9925632
vt 0.9929411 0.9930298
vt 0.9929813 0.9932446
vt 0.9929332 0.993033
vt 0.9929332 0.9932446
vt 0.9930362 0.9928266
vt 0.9930362 0.9929022
vt 0.9929881 0.9929022
vt 0.9929881 0.9928266
vt 0.9930362 0.9929779
vt 0.9930362 0.9930505
vt 0.9929881 0.9930505
vt 0.9929881 0.9929779
vt 0.99304 0.9927417
vt 0.9930362 0.9927539
vt 0.9929881 0.9927539
vt 0.9930066 0.9926947
vt 0.9930546 0.9926947
vt 0.9930218 0.9926482
vt 0.9927129 0.9930441
vt 0.9930548 0.9926285
vt 0.9930698 0.9926482
vt 0.9930362 0.9930505
vt 0.9930362 0.9931089
vt 0.9929881 0.9931089
vt 0.9929881 0.9930505
vt 0.9930362 0.9929022
vt 0.9930362 0.9929779
vt 0.9929881 0.9929779
vt 0.9929881 0.9929022
vt 0.9930362 0.9927539
vt 0.9930362 0.9928266
vt 0.9929881 0.9928266
vt 0.9929881 0.9927539
vt 0.9930362 0.9931089
vt 0.9930362 0.9931511
vt 0.9929881 0.9931511
vt 0.9929881 0.9931089
vt 0.9930698 0.9926482
vt 0.9930546 0.9926947
vt 0.9930066 0.9926947
vt 0.9930218 0.9926482
vt 0.9930362 0.9931511
vt 0.9930362 0.9932073
vt 0.9929881 0.9932073
vt 0.9929881 0.9931511
vt 0.9925248 0.9925588
vt 0.9928603 0.9925576
vt 0.9929531 0.9931713
vt 0.9928634 0.9932351
vt 0.9929516 0.9929372
vt 0.992508 0.9926054
vt 0.9925248 0.9925588
vt 0.9927129 0.9930441
vt 0.9924749 0.9926524
vt 0.9924742 0.9931511
vt 0.992425 0.9926959
vt 0.9924244 0.9931077
vt 0.9923776 0.992754
vt 0.9923772 0.9930496
vt 0.9923438 0.9928265
vt 0.9923437 0.9929772
vt 0.9923361 0.9929019
vt 0.9929516 0.9929372
vt 0.9930431 0.9926288
vt 0.9930548 0.9926285
vt 0.9927129 0.9930441
vt 0.9928786 0.9928358
vt 0.992879 0.9928421
vt 0.9928318 0.9928381
vt 0.9928312 0.992834
vt 0.9619651 0.892875
vt 0.9954326 0.8858271
vt 0.9954327 0.7510911
vt 0.9910193 0.7458006
vt 0.9282614 0.9066411
vt 0.897074 0.9274454
vt 0.8602523 0.9400953
vt 0.8553097 0.9471993
vt 0.8032475 0.9612127
vt 0.7491032 0.9644153
vt 0.7059776 0.7457994
vt 0.6866894 0.7535113
vt 0.6543254 0.7457994
vt 0.5027741 0.7457994
vt 0.694959 0.9612127
vt 0.6428968 0.9471992
vt 0.6011326 0.9274453
vt 0.5699452 0.906641
vt 0.5362415 0.892875
vt 0.5068761 0.8866909
vt 0.5027587 0.8802917
vt 0.9928886 0.9930546
vt 0.9928886 0.9928667
vt 0.9929045 0.9930623
vt 0.9929366 0.9930623
vt 0.9929366 0.9928667
vt 0.9930362 0.9932073
vt 0.9929881 0.9932427
vt 0.9929881 0.9932073
vt 0.9930202 0.9932427
vt 0.9930362 0.9932383

usemtl POLYGONWestern_Signs_01
usemap POLYGONWestern_Signs_01
f 2/2/2 1/1/1 3/3/3
f 5/5/5 4/4/4 6/6/6
f 8/8/8 7/7/7 9/9/9
f 11/11/11 10/10/10 12/12/12
f 14/14/14 13/13/13 15/15/15
f 17/17/17 16/16/16 18/18/18
f 20/20/20 19/19/19 21/21/21
f 21/21/21 19/19/19 22/22/22
f 24/24/24 23/23/23 25/25/25
f 23/23/23 26/26/26 25/25/25
f 26/26/26 27/27/27 25/25/25
f 28/28/28 27/27/27 26/26/26
f 29/29/29 27/27/27 28/28/28
f 31/31/31 30/30/30 32/32/32
f 32/32/32 30/30/30 33/33/33
f 35/35/35 34/34/34 36/36/36
f 36/36/36 34/34/34 37/37/37
f 39/39/39 38/38/38 40/40/40
f 40/40/40 38/38/38 41/41/41
f 38/38/38 42/42/42 41/41/41
f 44/44/44 43/43/43 45/45/45
f 45/45/45 43/43/43 46/46/46
f 48/48/48 47/47/47 49/49/49
f 49/49/49 47/47/47 50/50/50
f 52/52/52 51/51/51 53/53/53
f 53/53/53 51/51/51 54/54/54
f 56/56/56 55/55/55 57/57/57
f 57/57/57 55/55/55 58/58/58
f 60/60/60 59/59/59 61/61/61
f 61/61/61 59/59/59 62/62/62
f 64/64/64 63/63/63 65/65/65
f 65/65/65 63/63/63 66/66/66
f 68/68/68 67/67/67 69/69/69
f 69/69/69 67/67/67 70/70/70
f 72/72/72 71/71/71 73/73/73
f 74/74/74 73/73/73 71/71/71
f 76/76/76 75/75/75 77/77/77
f 78/78/78 75/75/75 76/76/76
f 79/79/79 78/78/78 76/76/76
f 80/80/80 78/78/78 79/79/79
f 81/81/81 80/80/80 79/79/79
f 82/82/82 80/80/80 81/81/81
f 83/83/83 82/82/82 81/81/81
f 84/84/84 82/82/82 83/83/83
f 85/85/85 84/84/84 83/83/83
f 86/86/86 84/84/84 85/85/85
f 87/87/87 86/86/86 85/85/85
f 89/89/89 88/88/88 90/90/90
f 90/90/90 88/88/88 91/91/91
f 93/93/93 92/92/92 94/94/94
f 94/94/94 92/92/92 95/95/95
f 97/97/97 96/96/96 98/98/98
f 96/96/96 99/99/99 98/98/98
f 100/100/100 99/99/99 96/96/96
f 101/101/101 99/99/99 100/100/100
f 102/102/102 99/99/99 101/101/101
f 103/103/103 99/99/99 102/102/102
f 104/104/104 99/99/99 103/103/103
f 105/105/105 99/99/99 104/104/104
f 106/106/106 99/99/99 105/105/105
f 107/107/107 106/106/106 105/105/105
f 108/108/108 107/107/107 105/105/105
f 109/109/109 108/108/108 105/105/105
f 110/110/110 109/109/109 105/105/105
f 111/111/111 109/109/109 110/110/110
f 112/112/112 109/109/109 111/111/111
f 113/113/113 109/109/109 112/112/112
f 114/114/114 109/109/109 113/113/113
f 115/115/115 109/109/109 114/114/114
f 116/116/116 109/109/109 115/115/115
f 118/118/118 117/117/117 119/119/119
f 120/120/120 118/118/118 119/119/119
f 121/121/121 118/118/118 120/120/120
f 123/123/123 122/122/122 124/124/124
f 125/125/125 122/122/122 123/123/123
f 126/126/126 122/122/122 125/125/125
