mtllib ./SM_Bld_Sign_09_24.mtl
g SM_Bld_Sign_09
v -0.03055263 0.1654854 -0.8778458
v -0.03055263 -0.1654854 -0.8778458
v -0.03055263 -0.162096 0.5167694
v -0.03055263 0.1654854 0.8778458
v -0.03055263 -0.1654854 0.8778458
v -0.08084869 0.1654854 0.8778458
v -0.08084869 -0.1654854 0.8778458
v -0.08084869 -0.1620941 0.5264015
v -0.08084869 0.1654854 -0.8778458
v -0.08084869 -0.1654854 -0.8778458
v -0.08084869 0.1705952 -0.525219
v -0.08084869 0.2021351 0.9144974
v -0.08084869 0.2021351 -0.9144974
v -0.03055263 0.2021351 -0.9144974
v -0.03055263 0.2021351 0.9144974
v -0.03055263 -0.202137 0.9144974
v -0.03055263 -0.202137 -0.9144974
v -0.08084869 -0.202137 -0.9144974
v -0.08084869 -0.202137 0.9144974
v -0.03055263 0.2021351 -0.9144974
v -0.08084869 0.2021351 -0.9144974
v -0.08084869 -0.202137 -0.9144974
v -0.03055263 -0.202137 -0.9144974
v -0.03055263 0.2021351 0.9144974
v -0.03055263 -0.202137 0.9144974
v -0.08084869 -0.202137 0.9144974
v -0.08084869 0.2021351 0.9144974
v -0.08084869 -0.1654854 -0.8778458
v -0.08084869 -0.1620941 0.5264015
v -0.08084869 -0.1654854 0.8778458
v -0.08084869 -0.202137 -0.9144974
v -0.08084869 -0.202137 0.9144974
v -0.08084869 0.1654854 0.8778458
v -0.08084869 0.2021351 0.9144974
v -0.08084869 0.1705952 -0.525219
v -0.08084869 0.2021351 -0.9144974
v -0.08084869 0.1654854 -0.8778458
v -0.03055263 -0.1654854 0.8778458
v -0.03055263 -0.162096 0.5167694
v -0.03055263 -0.1654854 -0.8778458
v -0.03055263 -0.202137 0.9144974
v -0.03055263 -0.202137 -0.9144974
v -0.03055263 0.2021351 0.9144974
v -0.03055263 0.1654854 -0.8778458
v -0.03055263 0.1654854 0.8778458
v -0.03055263 0.2021351 -0.9144974

vn 1 0 0
vn 1 0 0
vn 1 0 0
vn 1 0 0
vn 1 0 0
vn -1 0 0
vn -1 0 0
vn -1 0 0
vn -1 0 0
vn -1 0 0
vn -1 0 0
vn 0 1 0
vn 0 1 0
vn 0 1 0
vn 0 1 0
vn 0 -1 0
vn 0 -1 0
vn 0 -1 0
vn 0 -1 0
vn 0 0 -1
vn 0 0 -1
vn 0 0 -1
vn 0 0 -1
vn 0 0 1
vn 0 0 1
vn 0 0 1
vn 0 0 1
vn -1 0 0
vn -1 0 0
vn -1 0 0
vn -1 0 0
vn -1 0 0
vn -1 0 0
vn -1 0 0
vn -1 0 0
vn -1 0 0
vn -1 0 0
vn 1 0 0
vn 1 0 0
vn 1 0 0
vn 1 0 0
vn 1 0 0
vn 1 0 0
vn 1 0 0
vn 1 0 0
vn 1 0 0

vt 0.009137633 0.9921724
vt 0.009137633 0.9925892
vt 0.00914031 0.9930428
vt 0.009141003 0.9925665
vt 0.009141003 0.9931914
vt 0.3805586 0.916602
vt 0.3805586 0.8464069
vt 0.3060209 0.847126
vt 0.008196021 0.916602
vt 0.008196021 0.8464069
vt 0.08298452 0.917686
vt 0.1122293 0.8891957
vt 0.1117641 0.88911
vt 0.1117598 0.8891272
vt 0.1122249 0.8892128
vt 0.1122249 0.8878071
vt 0.1117598 0.8877214
vt 0.1117641 0.8877042
vt 0.1122293 0.8877899
vt 0.1117598 0.8891272
vt 0.1117641 0.88911
vt 0.1117641 0.8877042
vt 0.1117598 0.8877214
vt 0.1122249 0.8892128
vt 0.1122249 0.8878071
vt 0.1122293 0.8877899
vt 0.1122293 0.8891957
vt 0.1117788 0.8878344
vt 0.1121284 0.8879105
vt 0.1122146 0.8879146
vt 0.1117641 0.8877042
vt 0.1122293 0.8877899
vt 0.1122146 0.8890656
vt 0.1122293 0.8891957
vt 0.1118652 0.889019
vt 0.1117641 0.88911
vt 0.1117788 0.8889853
vt 0.1122102 0.8879318
vt 0.1121216 0.8879273
vt 0.1117745 0.8878515
vt 0.1122249 0.8878071
vt 0.1117598 0.8877214
vt 0.1122249 0.8892128
vt 0.1117745 0.8890024
vt 0.1122102 0.8890827
vt 0.1117598 0.8891272

usemtl POLYGONWestern_Signs_01
usemap POLYGONWestern_Signs_01
f 2/2/2 1/1/1 3/3/3
f 1/1/1 4/4/4 3/3/3
f 5/5/5 3/3/3 4/4/4
f 7/7/7 6/6/6 8/8/8
f 6/6/6 9/9/9 8/8/8
f 10/10/10 8/8/8 9/9/9
f 11/11/11 9/9/9 6/6/6
f 13/13/13 12/12/12 14/14/14
f 14/14/14 12/12/12 15/15/15
f 17/17/17 16/16/16 18/18/18
f 18/18/18 16/16/16 19/19/19
f 21/21/21 20/20/20 22/22/22
f 22/22/22 20/20/20 23/23/23
f 25/25/25 24/24/24 26/26/26
f 26/26/26 24/24/24 27/27/27
f 29/29/29 28/28/28 30/30/30
f 28/28/28 31/31/31 30/30/30
f 32/32/32 30/30/30 31/31/31
f 32/32/32 33/33/33 30/30/30
f 34/34/34 33/33/33 32/32/32
f 33/33/33 34/34/34 35/35/35
f 31/31/31 28/28/28 36/36/36
f 34/34/34 36/36/36 35/35/35
f 36/36/36 28/28/28 37/37/37
f 37/37/37 35/35/35 36/36/36
f 39/39/39 38/38/38 40/40/40
f 38/38/38 41/41/41 40/40/40
f 42/42/42 40/40/40 41/41/41
f 41/41/41 38/38/38 43/43/43
f 42/42/42 44/44/44 40/40/40
f 43/43/43 38/38/38 45/45/45
f 46/46/46 44/44/44 42/42/42
f 43/43/43 45/45/45 46/46/46
f 46/46/46 45/45/45 44/44/44
