mtllib ./SM_Bld_FencePost_01_73.mtl
g SM_Bld_FencePost_01
v -0.02945232 1.224686 0.04509926
v -0.03510547 1.218361 -0.05500412
v 0.04737711 1.211395 0.05500507
v 0.06716633 1.182335 0.07332516
v 0.09326839 1.189575 -0.06851101
v 0.06185293 0.8978958 -0.06423426
v 0.06716633 1.182335 0.07332516
v 0.04737711 1.211395 0.05500507
v 0.09326839 1.189575 -0.06851101
v 0.04737711 1.211395 0.05500507
v 0.07348585 1.218643 -0.05019093
v 0.09326839 1.189575 -0.06851101
v -0.03510547 1.218361 -0.05500412
v 0.07348585 1.218643 -0.05019093
v 0.04737711 1.211395 0.05500507
v -0.08047915 0.006652951 0.04988861
v -0.06448364 0.381424 0.04527283
v 0.03282213 0 0.04988861
v 0.0452075 0.3749809 0.04527283
v 0.06185293 0.8978958 0.05260992
v -0.05093908 0.9045181 0.05260992
v 0.06716633 1.182335 0.07332516
v -0.04924774 1.197945 0.06341934
v -0.06448364 0.381424 -0.05627584
v -0.08047915 0.006652951 -0.05498075
v 0.03282213 0 -0.05498075
v 0.0452075 0.3749809 -0.05627584
v 0.06185293 0.8978958 -0.06423426
v -0.05093908 0.9045181 -0.06423426
v -0.05489445 1.191628 -0.07332516
v 0.09326839 1.189575 -0.06851101
v -0.08047915 0.006652951 -0.05498075
v -0.08047915 0.006652951 0.04988861
v 0.03282213 0 -0.05498075
v 0.03282213 0 0.04988861
v 0.03282213 0 -0.05498075
v 0.03282213 0 0.04988861
v 0.0452075 0.3749809 -0.05627584
v 0.0452075 0.3749809 0.04527283
v 0.06185293 0.8978958 0.05260992
v 0.06185293 0.8978958 -0.06423426
v 0.06716633 1.182335 0.07332516
v -0.08047915 0.006652951 -0.05498075
v -0.06448364 0.381424 -0.05627584
v -0.08047915 0.006652951 0.04988861
v -0.06448364 0.381424 0.04527283
v -0.05093908 0.9045181 0.05260992
v -0.05093908 0.9045181 -0.06423426
v -0.05489445 1.191628 -0.07332516
v -0.04924774 1.197945 0.06341934
v 0.06716633 1.182335 0.07332516
v -0.04924774 1.197945 0.06341934
v 0.04737711 1.211395 0.05500507
v -0.02945232 1.224686 0.04509926
v -0.05489445 1.191628 -0.07332516
v 0.09326839 1.189575 -0.06851101
v -0.03510547 1.218361 -0.05500412
v 0.07348585 1.218643 -0.05019093
v -0.05489445 1.191628 -0.07332516
v -0.03510547 1.218361 -0.05500412
v -0.04924774 1.197945 0.06341934
v -0.02945232 1.224686 0.04509926

vn 0.17903 0.9811979 -0.07210477
vn 0.17903 0.9811979 -0.07210477
vn 0.17903 0.9811979 -0.07210477
vn 0.9791862 -0.1028986 0.1749467
vn 0.9791862 -0.1028986 0.1749467
vn 0.9791862 -0.1028986 0.1749467
vn 0.7604545 0.6262227 0.1719129
vn 0.7604545 0.6262227 0.1719129
vn 0.7604545 0.6262227 0.1719129
vn 0.8663587 0.4351943 0.2450073
vn 0.8663587 0.4351943 0.2450073
vn 0.8663587 0.4351943 0.2450073
vn -0.005579124 0.9977133 0.067357
vn -0.005579124 0.9977133 0.067357
vn -0.005579124 0.9977133 0.067357
vn 0.0007213384 0.01228456 0.9999243
vn -5.04599E-05 -0.0008595917 0.9999996
vn 0.0007214553 0.01228459 0.9999243
vn -5.048846E-05 -0.0008595558 0.9999996
vn -0.001968986 -0.03353399 0.9994356
vn -0.03157688 -0.0409499 0.9986621
vn -0.04695095 -0.05441179 0.9974141
vn -0.08954091 -0.03615033 0.9953269
vn -0.000547224 -0.009318284 -0.9999565
vn -0.000202406 -0.003447023 -0.999994
vn -0.0002024389 -0.003447032 -0.999994
vn -0.000547335 -0.009318265 -0.9999565
vn 0.007144775 -0.02004614 -0.9997736
vn -0.001375756 -0.02343204 -0.9997244
vn 0.01518226 -0.02490213 -0.9995746
vn 0.03221903 -0.01812266 -0.9993165
vn -0.05861816 -0.9982805 0
vn -0.05861816 -0.9982805 0
vn -0.05861816 -0.9982805 0
vn -0.05861816 -0.9982805 0
vn 0.999455 -0.03301133 0
vn 0.999455 -0.03301133 0
vn 0.9994746 -0.03241362 0
vn 0.9994746 -0.03241362 0
vn 0.9996235 -0.02743679 0
vn 0.9996812 -0.02524699 0
vn 0.9998257 -0.01867701 0
vn -0.9990904 0.04264191 0
vn -0.9994128 0.03426441 0
vn -0.9990904 0.04264191 0
vn -0.9994128 0.0342644 0
vn -0.9998915 0.01056319 0.01026866
vn -0.9999816 0.006055831 0
vn -0.9997777 -0.004765544 0.0205364
vn -0.9991475 0.004246508 0.04106246
vn -0.0005215147 0.5330346 0.8460933
vn -0.004060071 0.551141 0.8344023
vn -0.004060071 0.551141 0.8344023
vn -0.007596691 0.5689844 0.8223132
vn 0.03475128 0.5473372 -0.8361904
vn 0.03515203 0.5486978 -0.8352814
vn 0.03515203 0.5486978 -0.8352814
vn 0.03555267 0.5500569 -0.8343701
vn -0.8056688 0.5923368 0.005905178
vn -0.8034753 0.5953007 0.006678109
vn -0.8034753 0.5953007 0.006678109
vn -0.8012703 0.5982561 0.007450944

vt 0.2202792 0.3295161
vt 0.2202792 0.3295161
vt 0.2202792 0.3295161
vt 0.2211899 0.302123
vt 0.2211899 0.302123
vt 0.2211899 0.302123
vt 0.2202792 0.3295161
vt 0.2202792 0.3295161
vt 0.2202792 0.3295161
vt 0.2202792 0.3295161
vt 0.2202792 0.3295161
vt 0.2202792 0.3295161
vt 0.2202792 0.3295161
vt 0.2202792 0.3295161
vt 0.2202792 0.3295161
vt 0.2211899 0.302123
vt 0.2211899 0.302123
vt 0.2211899 0.302123
vt 0.2211899 0.302123
vt 0.2211899 0.302123
vt 0.2211899 0.302123
vt 0.2211899 0.302123
vt 0.2211899 0.302123
vt 0.2211899 0.302123
vt 0.2211899 0.302123
vt 0.2211899 0.302123
vt 0.2211899 0.302123
vt 0.2211899 0.302123
vt 0.2211899 0.302123
vt 0.2211899 0.302123
vt 0.2211899 0.302123
vt 0.2211899 0.302123
vt 0.2211899 0.302123
vt 0.2211899 0.302123
vt 0.2211899 0.302123
vt 0.2211899 0.302123
vt 0.2211899 0.302123
vt 0.2211899 0.302123
vt 0.2211899 0.302123
vt 0.2211899 0.302123
vt 0.2211899 0.302123
vt 0.2211899 0.302123
vt 0.2211899 0.302123
vt 0.2211899 0.302123
vt 0.2211899 0.302123
vt 0.2211899 0.302123
vt 0.2211899 0.302123
vt 0.2211899 0.302123
vt 0.2211899 0.302123
vt 0.2211899 0.302123
vt 0.2202792 0.3295161
vt 0.2202792 0.3295161
vt 0.2202792 0.3295161
vt 0.2202792 0.3295161
vt 0.2202792 0.3295161
vt 0.2202792 0.3295161
vt 0.2202792 0.3295161
vt 0.2202792 0.3295161
vt 0.2202792 0.3295161
vt 0.2202792 0.3295161
vt 0.2202792 0.3295161
vt 0.2202792 0.3295161

usemtl PolygonWestern_Material_01_A
usemap PolygonWestern_Material_01_A
f 2/2/2 1/1/1 3/3/3
f 5/5/5 4/4/4 6/6/6
f 8/8/8 7/7/7 9/9/9
f 11/11/11 10/10/10 12/12/12
f 14/14/14 13/13/13 15/15/15
f 17/17/17 16/16/16 18/18/18
f 19/19/19 17/17/17 18/18/18
f 17/17/17 19/19/19 20/20/20
f 21/21/21 17/17/17 20/20/20
f 21/21/21 20/20/20 22/22/22
f 23/23/23 21/21/21 22/22/22
f 25/25/25 24/24/24 26/26/26
f 24/24/24 27/27/27 26/26/26
f 27/27/27 24/24/24 28/28/28
f 24/24/24 29/29/29 28/28/28
f 29/29/29 30/30/30 28/28/28
f 30/30/30 31/31/31 28/28/28
f 33/33/33 32/32/32 34/34/34
f 35/35/35 33/33/33 34/34/34
f 37/37/37 36/36/36 38/38/38
f 39/39/39 37/37/37 38/38/38
f 40/40/40 39/39/39 38/38/38
f 41/41/41 40/40/40 38/38/38
f 42/42/42 40/40/40 41/41/41
f 44/44/44 43/43/43 45/45/45
f 46/46/46 44/44/44 45/45/45
f 44/44/44 46/46/46 47/47/47
f 48/48/48 44/44/44 47/47/47
f 49/49/49 48/48/48 47/47/47
f 50/50/50 49/49/49 47/47/47
f 52/52/52 51/51/51 53/53/53
f 54/54/54 52/52/52 53/53/53
f 56/56/56 55/55/55 57/57/57
f 58/58/58 56/56/56 57/57/57
f 60/60/60 59/59/59 61/61/61
f 62/62/62 60/60/60 61/61/61
