mtllib ./SM_Bld_Sign_13_42.mtl
g SM_Bld_Sign_13
v 0 0.5325317 1.172981
v 0 0.5325317 -0.2555008
v 0 0.5325317 -1.172424
v -0.06996155 0.5325317 -0.2514439
v -0.1114006 0.4986382 -0.2915249
v -0.1114006 0.5325317 -0.3804932
v -0.06996155 0.5325317 -0.2514439
v -0.1114006 0.5325317 -0.09959793
v -0.1114006 0.4986382 -0.2915249
v -0.1114006 0.0126338 1.255379
v -0.05365372 -0.1077852 1.255379
v -0.1114006 -0.09737587 1.231239
v -0.05365372 -0.1077852 1.255379
v -0.1114006 -0.2896461 1.255379
v -0.1114006 -0.09737587 1.231239
v -0.07787323 -0.4852676 0.5159721
v -0.1114006 -0.5325317 0.2873173
v -0.1114006 -0.4493408 0.5120125
v -0.1114006 -0.5325317 0.853302
v -0.07787323 -0.4852676 0.5159721
v -0.1114006 -0.4493408 0.5120125
v -0.1114006 0.0126338 1.255379
v -0.1114006 0.4536095 1.255379
v 0 0.4536095 1.255379
v -0.05365372 -0.1077852 1.255379
v 0 -0.4832726 1.255379
v -0.1114006 -0.2896461 1.255379
v -0.1114006 -0.4832726 1.255379
v -0.1114006 0.5325317 -1.172424
v -0.1114006 0.4840813 -1.255379
v 0 0.4840813 -1.255379
v 0 0.5325317 -1.172424
v -0.1114006 0.4840813 -1.255379
v 0 -0.02383041 -1.236725
v 0 0.4840813 -1.255379
v -0.1114006 -0.00154829 -1.236725
v 0 -0.4832726 -1.255379
v -0.1114006 -0.4832726 -1.255379
v -0.1114006 -0.5325317 1.172981
v -0.1114006 -0.4832726 1.255379
v 0 -0.4832726 1.255379
v 0 -0.5325317 1.172981
v 0 -0.4832726 -1.255379
v 0 -0.5325317 -1.172424
v 0 -0.5325317 0.2674541
v 0 -0.4933777 0.5046616
v 0 -0.4832726 1.255379
v 0 -0.02383041 -1.236725
v 0 -0.5325317 1.172981
v 0 -0.5325317 0.7761993
v 0 0.4536095 1.255379
v 0 0.4840813 -1.255379
v 0 0.4897614 1.235886
v 0 0.5325317 -1.172424
v 0 0.5325317 1.172981
v 0 0.5325317 -1.172424
v -0.1114006 0.5325317 -0.3804932
v -0.1114006 0.5325317 -1.172424
v -0.06996155 0.5325317 -0.2514439
v 0 0.5325317 -0.2555008
v 0 0.5325317 1.172981
v -0.1114006 0.5325317 -0.09959793
v -0.1114006 0.5325317 1.172981
v -0.1114006 0.489502 1.236778
v -0.1114006 0.5325317 1.172981
v 0 0.5325317 1.172981
v 0 0.4897614 1.235886
v -0.1114006 -0.4832726 -1.255379
v -0.1114006 -0.5325317 -1.172424
v 0 -0.5325317 -1.172424
v 0 -0.4832726 -1.255379
v 0 -0.5325317 0.2674541
v 0 -0.5325317 -1.172424
v -0.1114006 -0.5325317 -1.172424
v -0.1114006 -0.5325317 0.2873173
v -0.1114006 0.4986382 -0.2915249
v -0.1114006 0.5325317 -0.09959793
v -0.1114006 0.5325317 1.172981
v -0.1114006 0.489502 1.236778
v -0.1114006 0.4536095 1.255379
v -0.1114006 0.0126338 1.255379
v -0.1114006 -0.09737587 1.231239
v -0.1114006 -0.2896461 1.255379
v -0.1114006 -0.4832726 1.255379
v -0.1114006 -0.5325317 1.172981
v -0.1114006 -0.4493408 0.5120125
v -0.1114006 -0.5325317 0.853302
v -0.1114006 -0.5325317 0.2873173
v -0.1114006 -0.5325317 -1.172424
v -0.1114006 -0.4832726 -1.255379
v -0.1114006 0.4840813 -1.255379
v -0.1114006 -0.00154829 -1.236725
v -0.1114006 0.5325317 -0.3804932
v -0.1114006 0.5325317 -1.172424
v -0.1114006 0.4536095 1.255379
v -0.1114006 0.489502 1.236778
v 0 0.4897614 1.235886
v 0 0.4536095 1.255379
v 0 -0.4933777 0.5046616
v 0 -0.5325317 0.2674541
v -0.1114006 -0.5325317 0.2873173
v -0.07787323 -0.4852676 0.5159721
v 0 -0.5325317 0.7761993
v 0 -0.4933777 0.5046616
v -0.07787323 -0.4852676 0.5159721
v -0.1114006 -0.5325317 0.853302
v 0 -0.5325317 1.172981
v 0 -0.5325317 0.7761993
v -0.1114006 -0.5325317 0.853302
v -0.1114006 -0.5325317 1.172981

vn 0 1 0
vn 0 1 0
vn 0 1 0
vn -0.7425643 0.6258942 0.2384423
vn -0.7425643 0.6258942 0.2384423
vn -0.7425643 0.6258942 0.2384423
vn -0.5374081 0.8304719 -0.146659
vn -0.5374081 0.8304719 -0.146659
vn -0.5374081 0.8304719 -0.146659
vn -0.4080328 -0.195677 0.891751
vn -0.4080328 -0.195677 0.891751
vn -0.4080328 -0.195677 0.891751
vn -0.365203 0.115967 0.9236766
vn -0.365203 0.115967 0.9236766
vn -0.365203 0.115967 0.9236766
vn -0.722787 -0.6480786 0.2399439
vn -0.722787 -0.6480786 0.2399439
vn -0.722787 -0.6480786 0.2399439
vn -0.7116934 -0.6825067 -0.1663642
vn -0.7116934 -0.6825067 -0.1663642
vn -0.7116934 -0.6825067 -0.1663642
vn 0 0 1
vn 0 0 1
vn 0 0 1
vn 0 0 1
vn 0 0 1
vn 0 0 1
vn 0 0 1
vn 0 0.8635051 -0.5043401
vn 0 0.8635051 -0.5043401
vn 0 0.8635051 -0.5043401
vn 0 0.8635051 -0.5043401
vn -0.003752647 -0.03752355 -0.9992887
vn 0.0001043331 0.001043249 -0.9999995
vn -0.003752647 -0.03752355 -0.9992887
vn 0.0001043331 0.001043249 -0.9999995
vn 0.003961157 0.03960849 -0.9992074
vn 0.003961157 0.03960849 -0.9992074
vn 0 -0.8583157 0.5131218
vn 0 -0.8583157 0.5131218
vn 0 -0.8583157 0.5131218
vn 0 -0.8583157 0.5131218
vn 1 0 0
vn 1 0 0
vn 1 0 0
vn 1 0 0
vn 1 0 0
vn 1 0 0
vn 1 0 0
vn 1 0 0
vn 1 0 0
vn 1 0 0
vn 1 0 0
vn 1 0 0
vn 1 0 0
vn 0 1 0
vn 0 1 0
vn 0 1 0
vn 0 1 0
vn 0 1 0
vn 0 1 0
vn 0 1 0
vn 0 1 0
vn 0.001282441 0.8280084 0.5607144
vn 0.001282441 0.8280084 0.5607144
vn 0.001282441 0.8280084 0.5607144
vn 0.001282441 0.8280084 0.5607144
vn 0 -0.8598319 -0.5105771
vn 0 -0.8598319 -0.5105771
vn 0 -0.8598319 -0.5105771
vn 0 -0.8598319 -0.5105771
vn 0 -1 0
vn 0 -1 0
vn 0 -1 0
vn 0 -1 0
vn -1 0 0
vn -1 0 0
vn -1 0 0
vn -1 0 0
vn -1 0 0
vn -1 0 0
vn -1 0 0
vn -1 0 0
vn -1 0 0
vn -1 0 0
vn -1 0 0
vn -1 0 0
vn -1 0 0
vn -1 0 0
vn -1 0 0
vn -1 0 0
vn -1 0 0
vn -1 0 0
vn -1 0 0
vn 0.002997556 0.4674296 0.8840252
vn 0.002997556 0.4674296 0.8840252
vn 0.002997556 0.4674296 0.8840252
vn 0.002997556 0.4674296 0.8840252
vn -0.01194513 -0.9830016 0.183208
vn -0.01194513 -0.9830016 0.183208
vn -0.01194513 -0.9830016 0.183208
vn -0.01194513 -0.9830016 0.183208
vn -0.1101452 -0.9831913 -0.1456121
vn -0.1101452 -0.9831913 -0.1456121
vn -0.1101452 -0.9831913 -0.1456121
vn -0.1101452 -0.9831913 -0.1456121
vn 0 -1 0
vn 0 -1 0
vn 0 -1 0
vn 0 -1 0

vt 0.02784463 0.391515
vt 0.02784463 0.3843023
vt 0.02784463 0.3796725
vt 0.9912392 0.9920201
vt 0.9910566 0.9916277
vt 0.9904498 0.9917449
vt 0.9912392 0.9920201
vt 0.9923657 0.9920444
vt 0.9910566 0.9916277
vt 0.99202 0.99353
vt 0.9925647 0.9930229
vt 0.991722 0.9930832
vt 0.9925647 0.9930229
vt 0.99202 0.9923266
vt 0.991722 0.9930832
vt 0.9932247 0.9941171
vt 0.9928852 0.9938782
vt 0.9932133 0.9950585
vt 0.9937117 0.9951721
vt 0.9932247 0.9941171
vt 0.9932133 0.9950585
vt 0.02300193 0.3862998
vt 0.02300193 0.3885264
vt 0.02356449 0.3885264
vt 0.02329355 0.3856918
vt 0.0235645 0.3837958
vt 0.02300193 0.3847735
vt 0.02300193 0.3837958
vt 0.02116248 0.3916307
vt 0.02116247 0.3920109
vt 0.02172497 0.3920109
vt 0.02172498 0.3916307
vt 0.02289019 0.3893223
vt 0.02232768 0.3867578
vt 0.02232768 0.3893223
vt 0.02289018 0.3868702
vt 0.02232768 0.3844379
vt 0.02289018 0.3844379
vt 0.02236713 0.3797558
vt 0.02236713 0.3793333
vt 0.02180462 0.3793333
vt 0.02180462 0.3797558
vt 0.02271564 0.3792537
vt 0.02246693 0.3796725
vt 0.02246693 0.3869428
vt 0.02266464 0.3881405
vt 0.02271564 0.3919311
vt 0.02503545 0.3793478
vt 0.02246693 0.391515
vt 0.02246693 0.3895116
vt 0.02744613 0.3919311
vt 0.02759999 0.3792536
vt 0.02762868 0.3918326
vt 0.02784463 0.3796725
vt 0.02784463 0.391515
vt 0.02172498 0.3916307
vt 0.02116248 0.387632
vt 0.02116248 0.3916307
vt 0.02137171 0.3869804
vt 0.02172498 0.3870009
vt 0.02172498 0.3797881
vt 0.02116248 0.3862137
vt 0.02116248 0.3797881
vt 0.02116261 0.3795094
vt 0.02116248 0.3797881
vt 0.02172498 0.3797881
vt 0.02172512 0.3795139
vt 0.02236713 0.391991
vt 0.02236713 0.3915984
vt 0.02180462 0.3915984
vt 0.02180462 0.391991
vt 0.02180462 0.3843281
vt 0.02180462 0.3915984
vt 0.02236713 0.3915984
vt 0.02236713 0.3842278
vt 0.1991763 0.4882912
vt 0.2331975 0.4942992
vt 0.4587764 0.4942992
vt 0.4700853 0.4866718
vt 0.4733828 0.4803092
vt 0.4733828 0.4021413
vt 0.4691036 0.3826408
vt 0.4733828 0.3485588
vt 0.4733828 0.314236
vt 0.4587765 0.3055044
vt 0.3416123 0.3202512
vt 0.4021104 0.3055044
vt 0.3017827 0.3055044
vt 0.04302669 0.3055044
vt 0.02832228 0.3142361
vt 0.02832225 0.4857107
vt 0.03162904 0.3996274
vt 0.183406 0.4942992
vt 0.04302666 0.4942992
vt 0.02116285 0.3794355
vt 0.02116261 0.3795094
vt 0.02172512 0.3795139
vt 0.02172535 0.3794359
vt 0.9932214 0.9924873
vt 0.9928755 0.9916317
vt 0.9928852 0.9938782
vt 0.9932247 0.9941171
vt 0.9936165 0.9927878
vt 0.9932214 0.9924873
vt 0.9932247 0.9941171
vt 0.9937117 0.9951721
vt 0.02180462 0.3797558
vt 0.02180462 0.3817592
vt 0.02236713 0.3813699
vt 0.02236713 0.3797558

usemtl POLYGONWestern_Signs_01
usemap POLYGONWestern_Signs_01
f 2/2/2 1/1/1 3/3/3
f 5/5/5 4/4/4 6/6/6
f 8/8/8 7/7/7 9/9/9
f 11/11/11 10/10/10 12/12/12
f 14/14/14 13/13/13 15/15/15
f 17/17/17 16/16/16 18/18/18
f 20/20/20 19/19/19 21/21/21
f 23/23/23 22/22/22 24/24/24
f 22/22/22 25/25/25 24/24/24
f 24/24/24 25/25/25 26/26/26
f 25/25/25 27/27/27 26/26/26
f 27/27/27 28/28/28 26/26/26
f 30/30/30 29/29/29 31/31/31
f 31/31/31 29/29/29 32/32/32
f 34/34/34 33/33/33 35/35/35
f 36/36/36 33/33/33 34/34/34
f 37/37/37 36/36/36 34/34/34
f 38/38/38 36/36/36 37/37/37
f 40/40/40 39/39/39 41/41/41
f 41/41/41 39/39/39 42/42/42
f 44/44/44 43/43/43 45/45/45
f 46/46/46 45/45/45 43/43/43
f 43/43/43 47/47/47 46/46/46
f 48/48/48 47/47/47 43/43/43
f 47/47/47 49/49/49 46/46/46
f 50/50/50 46/46/46 49/49/49
f 51/51/51 47/47/47 48/48/48
f 52/52/52 51/51/51 48/48/48
f 53/53/53 51/51/51 52/52/52
f 54/54/54 53/53/53 52/52/52
f 55/55/55 53/53/53 54/54/54
f 57/57/57 56/56/56 58/58/58
f 59/59/59 56/56/56 57/57/57
f 60/60/60 56/56/56 59/59/59
f 61/61/61 60/60/60 59/59/59
f 62/62/62 61/61/61 59/59/59
f 63/63/63 61/61/61 62/62/62
f 65/65/65 64/64/64 66/66/66
f 66/66/66 64/64/64 67/67/67
f 69/69/69 68/68/68 70/70/70
f 70/70/70 68/68/68 71/71/71
f 73/73/73 72/72/72 74/74/74
f 74/74/74 72/72/72 75/75/75
f 77/77/77 76/76/76 78/78/78
f 78/78/78 76/76/76 79/79/79
f 79/79/79 76/76/76 80/80/80
f 80/80/80 76/76/76 81/81/81
f 81/81/81 76/76/76 82/82/82
f 82/82/82 76/76/76 83/83/83
f 83/83/83 76/76/76 84/84/84
f 76/76/76 85/85/85 84/84/84
f 86/86/86 85/85/85 76/76/76
f 87/87/87 85/85/85 86/86/86
f 76/76/76 88/88/88 86/86/86
f 89/89/89 88/88/88 76/76/76
f 90/90/90 89/89/89 76/76/76
f 91/91/91 90/90/90 76/76/76
f 92/92/92 90/90/90 91/91/91
f 93/93/93 91/91/91 76/76/76
f 94/94/94 91/91/91 93/93/93
f 96/96/96 95/95/95 97/97/97
f 97/97/97 95/95/95 98/98/98
f 100/100/100 99/99/99 101/101/101
f 101/101/101 99/99/99 102/102/102
f 104/104/104 103/103/103 105/105/105
f 105/105/105 103/103/103 106/106/106
f 108/108/108 107/107/107 109/109/109
f 109/109/109 107/107/107 110/110/110
