mtllib ./SM_Bld_Sign_19_48.mtl
g SM_Bld_Sign_19
v -0.07461834 -0.257906 -0.5050125
v -0.07461834 -0.2381668 -0.3837738
v -0.02602386 -0.2587318 -0.380188
v -0.07461834 -0.2381668 -0.3837738
v -0.07461834 -0.2592564 -0.2585793
v -0.02602386 -0.2587318 -0.380188
v -0.0310545 0.2687931 -1.294716
v -0.07461834 0.2486973 -1.298561
v -0.07461834 0.2688694 -1.359779
v -0.07461834 0.2687569 -1.262817
v -0.07461834 0.2486973 -1.298561
v -0.0310545 0.2687931 -1.294716
v 0.07461834 -0.2303753 1.603676
v -0.07461834 -0.2303753 1.603676
v -0.07461834 0.2034492 1.603676
v 0.07461834 0.2034492 1.603676
v -0.07461834 0.2690983 -1.555473
v -0.07461834 0.2528496 -1.601631
v 0.07461834 0.2528496 -1.601631
v 0.07461834 0.2690983 -1.555473
v -0.07461834 -0.216053 -1.603676
v 0.07461834 -0.216053 -1.603676
v 0.07461834 0.2528496 -1.601631
v -0.07461834 0.2528496 -1.601631
v -0.07461834 -0.2690983 1.535881
v -0.07461834 -0.2303753 1.603676
v 0.07461834 -0.2303753 1.603676
v 0.07461834 -0.2690983 1.535881
v 0.07461834 -0.2595005 -0.2344589
v 0.07461834 -0.2690983 1.535881
v 0.07461834 -0.2303753 1.603676
v 0.07461834 -0.2587318 -0.376255
v 0.07461834 -0.2581158 -0.4897728
v 0.07461834 -0.2524834 -1.528847
v 0.07461834 -0.216053 -1.603676
v 0.07461834 0.2034492 1.603676
v 0.07461834 0.2528496 -1.601631
v 0.07461834 0.2654934 1.535881
v 0.07461834 0.2687817 -1.285385
v 0.07461834 0.2690983 -1.555473
v 0.07461834 0.2690983 -1.555473
v -0.07461834 0.2688694 -1.359779
v -0.07461834 0.2690983 -1.555473
v -0.0310545 0.2687931 -1.294716
v 0.07461834 0.2687817 -1.285385
v -0.07461834 0.2687569 -1.262817
v 0.07461834 0.2654934 1.535881
v -0.07461834 0.2676811 -0.3410606
v -0.07461834 0.2654934 1.535881
v 0.07461834 0.2034492 1.603676
v -0.07461834 0.2034492 1.603676
v -0.07461834 0.2654934 1.535881
v 0.07461834 0.2654934 1.535881
v 0.07461834 -0.216053 -1.603676
v -0.07461834 -0.216053 -1.603676
v -0.07461834 -0.2522907 -1.528847
v 0.07461834 -0.2524834 -1.528847
v -0.07461834 0.2690983 -1.555473
v -0.07461834 -0.216053 -1.603676
v -0.07461834 0.2528496 -1.601631
v -0.07461834 -0.2522907 -1.528847
v -0.07461834 0.2486973 -1.298561
v -0.07461834 0.2688694 -1.359779
v -0.07461834 0.2676811 -0.3410606
v -0.07461834 0.2687569 -1.262817
v -0.07461834 -0.257906 -0.5050125
v -0.07461834 -0.2381668 -0.3837738
v -0.07461834 -0.2592564 -0.2585793
v -0.07461834 -0.2690983 1.535881
v -0.07461834 0.2654934 1.535881
v -0.07461834 -0.2303753 1.603676
v -0.07461834 0.2034492 1.603676
v -0.07461834 -0.2592564 -0.2585793
v -0.07461834 -0.2690983 1.535881
v 0.07461834 -0.2690983 1.535881
v 0.07461834 -0.2595005 -0.2344589
v 0.07461834 -0.2587318 -0.376255
v -0.02602386 -0.2587318 -0.380188
v 0.07461834 -0.2581158 -0.4897728
v -0.07461834 -0.257906 -0.5050125
v -0.07461834 -0.2522907 -1.528847
v 0.07461834 -0.2524834 -1.528847

vn -0.3946826 -0.9068764 0.1476506
vn -0.3946826 -0.9068764 0.1476506
vn -0.3946826 -0.9068764 0.1476506
vn -0.3754299 -0.9139737 -0.1539628
vn -0.3754299 -0.9139737 -0.1539628
vn -0.3754299 -0.9139737 -0.1539628
vn -0.422201 0.8609657 0.2836981
vn -0.422201 0.8609657 0.2836981
vn -0.422201 0.8609657 0.2836981
vn -0.3379517 0.8207484 -0.4606089
vn -0.3379517 0.8207484 -0.4606089
vn -0.3379517 0.8207484 -0.4606089
vn 0 0 1
vn 0 0 1
vn 0 0 1
vn 0 0 1
vn 0 0.9432613 -0.3320513
vn 0 0.9432613 -0.3320513
vn 0 0.9432613 -0.3320513
vn 0 0.9432613 -0.3320513
vn 0 0.004360518 -0.9999905
vn 0 0.004360518 -0.9999905
vn 0 0.004360518 -0.9999905
vn 0 0.004360518 -0.9999905
vn 0 -0.8683363 0.4959758
vn 0 -0.8683363 0.4959758
vn 0 -0.8683363 0.4959758
vn 0 -0.8683363 0.4959758
vn 1 0 0
vn 1 0 0
vn 1 0 0
vn 1 0 0
vn 1 0 0
vn 1 0 0
vn 1 0 0
vn 1 0 0
vn 1 0 0
vn 1 0 0
vn 1 0 0
vn 1 0 0
vn 0 0.9999994 0.001170725
vn 0 0.9999994 0.001170725
vn 0 0.9999994 0.00116959
vn 6.909534E-06 0.9999994 0.001168606
vn 6.909534E-06 0.9999994 0.001168606
vn 0 0.9999994 0.001165711
vn 0 0.9999994 0.001165711
vn 0 0.9999994 0.001166068
vn 0 0.9999994 0.001166068
vn 0 0.7377018 0.6751267
vn 0 0.7377018 0.6751267
vn 0 0.7377018 0.6751267
vn 0 0.7377018 0.6751267
vn -0.0005805972 -0.8995625 -0.4367918
vn -0.0005805972 -0.8995625 -0.4367918
vn -0.0005805972 -0.8995625 -0.4367918
vn -0.0005805972 -0.8995625 -0.4367918
vn -1 0 0
vn -1 0 0
vn -1 0 0
vn -1 0 0
vn -1 0 0
vn -1 0 0
vn -1 0 0
vn -1 0 0
vn -1 0 0
vn -1 0 0
vn -1 0 0
vn -1 0 0
vn -1 0 0
vn -1 0 0
vn -1 0 0
vn -0.0003972425 -0.9999863 -0.005219774
vn -0.0003772716 -0.9999851 -0.005453155
vn -0.0003772716 -0.9999851 -0.005453155
vn -0.0003972425 -0.9999863 -0.005219774
vn -0.0003993075 -0.999985 -0.005479231
vn -0.0003993075 -0.999985 -0.005479231
vn -0.0007256797 -0.9999834 -0.005712151
vn -0.0007256797 -0.9999834 -0.005712151
vn -0.001069958 -0.9999846 -0.005452236
vn -0.001069958 -0.9999846 -0.005452236

vt 0.9915404 0.9913554
vt 0.9915404 0.9913545
vt 0.9915401 0.9913546
vt 0.9915404 0.9913545
vt 0.9915404 0.9913536
vt 0.9915401 0.9913546
vt 0.9915389 0.9913614
vt 0.9914951 0.9913261
vt 0.9915386 0.9913614
vt 0.9915386 0.9913607
vt 0.9914951 0.9913261
vt 0.9915389 0.9913614
vt 0.9915419 0.991351
vt 0.9915411 0.991351
vt 0.9915411 0.9913547
vt 0.9915419 0.9913547
vt 0.9915387 0.9913628
vt 0.9915387 0.991366
vt 0.9915394 0.9913667
vt 0.9915394 0.9913645
vt 0.9915418 0.9913493
vt 0.9915411 0.9913493
vt 0.9915425 0.9913538
vt 0.9915432 0.9913538
vt 0.9915407 0.9913404
vt 0.9915403 0.9913346
vt 0.9915395 0.9913346
vt 0.9915396 0.9913405
vt 0.9915419 0.9913507
vt 0.9915417 0.9913648
vt 0.991542 0.9913654
vt 0.9915419 0.9913495
vt 0.9915419 0.9913486
vt 0.9915419 0.9913402
vt 0.9915422 0.9913396
vt 0.9915457 0.9913654
vt 0.9915462 0.9913396
vt 0.9915462 0.9913648
vt 0.9915463 0.9913422
vt 0.9915463 0.99134
vt 0.9915394 0.9913645
vt 0.9915386 0.9913614
vt 0.9915387 0.9913628
vt 0.9915389 0.9913614
vt 0.9915394 0.9913624
vt 0.9915386 0.9913607
vt 0.9915395 0.9913398
vt 0.9915388 0.9913538
vt 0.9915387 0.9913399
vt 0.9915395 0.9913393
vt 0.9915388 0.9913393
vt 0.9915387 0.9913399
vt 0.9915395 0.9913398
vt 0.9915348 0.9913654
vt 0.9915356 0.9913654
vt 0.9915404 0.991363
vt 0.9915396 0.991363
vt 0.5089064 0.5164316
vt 0.5024002 0.4531068
vt 0.5023639 0.5132002
vt 0.5138359 0.4428195
vt 0.5487191 0.5128807
vt 0.5392026 0.5163844
vt 0.6969141 0.5161384
vt 0.5542127 0.5163609
vt 0.6720697 0.4429501
vt 0.690788 0.4464191
vt 0.7101561 0.4429816
vt 0.9874902 0.4432105
vt 0.9874905 0.5156853
vt 0.9978741 0.4508398
vt 0.9978743 0.5025475
vt 0.9915404 0.9913536
vt 0.9915407 0.9913404
vt 0.9915396 0.9913405
vt 0.9915396 0.9913536
vt 0.9915396 0.9913546
vt 0.9915401 0.9913546
vt 0.9915396 0.9913554
vt 0.9915404 0.9913554
vt 0.9915404 0.991363
vt 0.9915396 0.991363

usemtl POLYGONWestern_Signs_01
usemap POLYGONWestern_Signs_01
f 2/2/2 1/1/1 3/3/3
f 5/5/5 4/4/4 6/6/6
f 8/8/8 7/7/7 9/9/9
f 11/11/11 10/10/10 12/12/12
f 14/14/14 13/13/13 15/15/15
f 15/15/15 13/13/13 16/16/16
f 18/18/18 17/17/17 19/19/19
f 19/19/19 17/17/17 20/20/20
f 22/22/22 21/21/21 23/23/23
f 23/23/23 21/21/21 24/24/24
f 26/26/26 25/25/25 27/27/27
f 27/27/27 25/25/25 28/28/28
f 30/30/30 29/29/29 31/31/31
f 32/32/32 31/31/31 29/29/29
f 33/33/33 31/31/31 32/32/32
f 34/34/34 31/31/31 33/33/33
f 35/35/35 31/31/31 34/34/34
f 36/36/36 31/31/31 35/35/35
f 37/37/37 36/36/36 35/35/35
f 38/38/38 36/36/36 37/37/37
f 39/39/39 38/38/38 37/37/37
f 40/40/40 39/39/39 37/37/37
f 42/42/42 41/41/41 43/43/43
f 44/44/44 41/41/41 42/42/42
f 45/45/45 41/41/41 44/44/44
f 46/46/46 45/45/45 44/44/44
f 47/47/47 45/45/45 46/46/46
f 48/48/48 47/47/47 46/46/46
f 49/49/49 47/47/47 48/48/48
f 51/51/51 50/50/50 52/52/52
f 52/52/52 50/50/50 53/53/53
f 55/55/55 54/54/54 56/56/56
f 56/56/56 54/54/54 57/57/57
f 59/59/59 58/58/58 60/60/60
f 61/61/61 58/58/58 59/59/59
f 61/61/61 62/62/62 58/58/58
f 63/63/63 58/58/58 62/62/62
f 62/62/62 61/61/61 64/64/64
f 65/65/65 62/62/62 64/64/64
f 66/66/66 64/64/64 61/61/61
f 67/67/67 64/64/64 66/66/66
f 68/68/68 64/64/64 67/67/67
f 69/69/69 64/64/64 68/68/68
f 70/70/70 64/64/64 69/69/69
f 71/71/71 70/70/70 69/69/69
f 72/72/72 70/70/70 71/71/71
f 74/74/74 73/73/73 75/75/75
f 75/75/75 73/73/73 76/76/76
f 76/76/76 73/73/73 77/77/77
f 77/77/77 73/73/73 78/78/78
f 78/78/78 79/79/79 77/77/77
f 80/80/80 79/79/79 78/78/78
f 80/80/80 81/81/81 79/79/79
f 79/79/79 81/81/81 82/82/82
