mtllib ./SM_Bld_Sign_17_73.mtl
g SM_Bld_Sign_17
v 0.01891708 -0.3925781 1.603668
v -0.1303177 -0.3925781 1.603668
v -0.1303177 0.3466949 1.603668
v 0.01891708 0.3466949 1.603668
v -0.1303177 0.4585648 -1.555466
v -0.1303177 0.4308777 -1.601624
v 0.01891708 0.4308777 -1.601624
v 0.01891708 0.4585648 -1.555466
v -0.1303177 -0.3681755 -1.603668
v 0.01891708 -0.3681755 -1.603668
v 0.01891708 0.4308777 -1.601624
v -0.1303177 0.4308777 -1.601624
v -0.1303177 -0.4585648 1.535873
v -0.1303177 -0.3925781 1.603668
v 0.01891708 -0.3925781 1.603668
v 0.01891708 -0.4585648 1.535873
v 0.01891708 -0.4302521 -1.528839
v 0.01891708 -0.4585648 1.535873
v 0.01891708 -0.3925781 1.603668
v 0.01891708 -0.3681755 -1.603668
v 0.01891708 0.3466949 1.603668
v 0.01891708 0.4308777 -1.601624
v 0.01891708 0.4524231 1.535873
v 0.01891708 0.4585648 -1.555466
v 0.01891708 0.4585648 -1.555466
v 0.01891708 0.4524231 1.535873
v -0.1303177 0.4524231 1.535873
v -0.1303177 0.4585648 -1.555466
v 0.01891708 0.3466949 1.603668
v -0.1303177 0.3466949 1.603668
v -0.1303177 0.4524231 1.535873
v 0.01891708 0.4524231 1.535873
v 0.01891708 -0.3681755 -1.603668
v -0.1303177 -0.3681755 -1.603668
v -0.1303177 -0.429924 -1.528839
v 0.01891708 -0.4302521 -1.528839
v -0.1303177 0.4585648 -1.555466
v -0.1303177 -0.3681755 -1.603668
v -0.1303177 0.4308777 -1.601624
v -0.1303177 -0.429924 -1.528839
v -0.1303177 -0.4585648 1.535873
v -0.1303177 0.4524231 1.535873
v -0.1303177 -0.3925781 1.603668
v -0.1303177 0.3466949 1.603668
v -0.1303177 -0.429924 -1.528839
v -0.1303177 -0.4585648 1.535873
v 0.01891708 -0.4585648 1.535873
v 0.01891708 -0.4302521 -1.528839

vn 0 0 1
vn 0 0 1
vn 0 0 1
vn 0 0 1
vn 0 0.8575554 -0.5143915
vn 0 0.8575554 -0.5143915
vn 0 0.8575554 -0.5143915
vn 0 0.8575554 -0.5143915
vn 0 0.002558867 -0.9999968
vn 0 0.002558867 -0.9999968
vn 0 0.002558867 -0.9999968
vn 0 0.002558867 -0.9999968
vn 0 -0.7165985 0.6974859
vn 0 -0.7165985 0.6974859
vn 0 -0.7165985 0.6974859
vn 0 -0.7165985 0.6974859
vn 1 0 0
vn 1 0 0
vn 1 0 0
vn 1 0 0
vn 1 0 0
vn 1 0 0
vn 1 0 0
vn 1 0 0
vn 0 0.9999981 0.001986728
vn 0 0.9999981 0.001986728
vn 0 0.9999981 0.001986728
vn 0 0.9999981 0.001986728
vn 0 0.539781 0.8418055
vn 0 0.539781 0.8418055
vn 0 0.539781 0.8418055
vn 0 0.539781 0.8418055
vn -0.0008468564 -0.7704699 -0.6374758
vn -0.0008468564 -0.7704699 -0.6374758
vn -0.0008468564 -0.7704699 -0.6374758
vn -0.0008468564 -0.7704699 -0.6374758
vn -1 0 0
vn -1 0 0
vn -1 0 0
vn -1 0 0
vn -1 0 0
vn -1 0 0
vn -1 0 0
vn -1 0 0
vn -0.0010991 -0.9999563 -0.009291399
vn -0.0010991 -0.9999563 -0.009291399
vn -0.0010991 -0.9999563 -0.009291399
vn -0.0010991 -0.9999563 -0.009291399

vt 0.9915419 0.991351
vt 0.9915411 0.991351
vt 0.9915411 0.9913547
vt 0.9915419 0.9913547
vt 0.9915387 0.9913628
vt 0.9915387 0.991366
vt 0.9915394 0.9913667
vt 0.9915394 0.9913645
vt 0.9915418 0.9913493
vt 0.9915411 0.9913493
vt 0.9915425 0.9913538
vt 0.9915432 0.9913538
vt 0.9915407 0.9913404
vt 0.9915403 0.9913346
vt 0.9915395 0.9913346
vt 0.9915396 0.9913405
vt 0.9915419 0.9913402
vt 0.9915417 0.9913648
vt 0.991542 0.9913654
vt 0.9915422 0.9913396
vt 0.9915457 0.9913654
vt 0.9915462 0.9913396
vt 0.9915462 0.9913648
vt 0.9915463 0.99134
vt 0.9915394 0.9913645
vt 0.9915395 0.9913398
vt 0.9915387 0.9913399
vt 0.9915387 0.9913628
vt 0.9915395 0.9913393
vt 0.9915388 0.9913393
vt 0.9915387 0.9913399
vt 0.9915395 0.9913398
vt 0.9915348 0.9913654
vt 0.9915356 0.9913654
vt 0.9915404 0.991363
vt 0.9915396 0.991363
vt 0.5112206 0.1507166
vt 0.5047144 0.01473544
vt 0.5046781 0.1474852
vt 0.5161502 0.004448141
vt 0.9858117 0.001418155
vt 0.9858119 0.1499703
vt 0.9961956 0.009047356
vt 0.9961957 0.1368325
vt 0.9915404 0.991363
vt 0.9915407 0.9913404
vt 0.9915396 0.9913405
vt 0.9915396 0.991363

usemtl POLYGONWestern_Signs_01
usemap POLYGONWestern_Signs_01
f 2/2/2 1/1/1 3/3/3
f 3/3/3 1/1/1 4/4/4
f 6/6/6 5/5/5 7/7/7
f 7/7/7 5/5/5 8/8/8
f 10/10/10 9/9/9 11/11/11
f 11/11/11 9/9/9 12/12/12
f 14/14/14 13/13/13 15/15/15
f 15/15/15 13/13/13 16/16/16
f 18/18/18 17/17/17 19/19/19
f 20/20/20 19/19/19 17/17/17
f 21/21/21 19/19/19 20/20/20
f 22/22/22 21/21/21 20/20/20
f 23/23/23 21/21/21 22/22/22
f 24/24/24 23/23/23 22/22/22
f 26/26/26 25/25/25 27/27/27
f 27/27/27 25/25/25 28/28/28
f 30/30/30 29/29/29 31/31/31
f 31/31/31 29/29/29 32/32/32
f 34/34/34 33/33/33 35/35/35
f 35/35/35 33/33/33 36/36/36
f 38/38/38 37/37/37 39/39/39
f 40/40/40 37/37/37 38/38/38
f 41/41/41 37/37/37 40/40/40
f 42/42/42 37/37/37 41/41/41
f 43/43/43 42/42/42 41/41/41
f 44/44/44 42/42/42 43/43/43
f 46/46/46 45/45/45 47/47/47
f 47/47/47 45/45/45 48/48/48
