mtllib ./SM_Bld_Single_Deck_04_3.mtl
g SM_Bld_Single_Deck_04
v -2.571842 -0.04897115 -0.05600214
v -2.571842 -0.04897115 1.869428
v -2.571842 -0.1722004 1.869428
v -2.571842 -0.1722004 -0.05600214
v -1.554482 -0.0119306 -0.05600405
v -1.176876 -0.01193034 -0.05600405
v -1.176884 -0.0119306 1.869428
v -1.554485 -0.0119306 1.869428
v -1.554485 -0.0119306 1.967466
v -1.176884 -0.0119306 1.967466
v -1.176884 -0.1722001 1.967466
v -1.554485 -0.1722004 1.967466
v -1.554485 -0.04897115 1.967466
v -1.176884 -0.04897115 1.967466
v -1.176884 -0.0119306 1.967466
v -1.554485 -0.0119306 1.967466
v -2.485142 -0.1722004 1.782731
v -2.485142 -0.5666065 1.782731
v -2.398441 -0.5666065 -0.05600214
v -2.398441 -0.1722004 -0.05600214
v -2.571842 -0.1722004 1.869428
v -2.398441 -0.1722004 -0.05600214
v -2.571842 -0.1722004 -0.05600214
v -2.485142 -0.1722004 1.782731
v -1.472828 -0.1722004 1.770582
v -1.554485 -0.1722004 1.869428
v -1.097157 -0.1722004 1.765945
v -1.176884 -0.1722004 1.869428
v 0.734684 -0.1722001 1.743331
v 0.6643486 -0.1722004 1.869428
v 1.087288 -0.1722001 1.738979
v 1.018764 -0.1722004 1.86943
v 1.444843 -0.1722004 1.734563
v 1.378155 -0.1722001 1.869428
v 1.818134 -0.1722001 1.729955
v 1.753361 -0.1722004 1.869428
v 2.571659 -0.1722004 1.869428
v 2.484776 -0.1722004 1.782731
v 2.398075 -0.1722004 -0.05600214
v 2.571476 -0.1722004 -0.05600214
v -2.571842 -0.04897115 1.869428
v -2.571842 -0.04897115 -0.05600214
v -1.554482 -0.04897115 -0.05600405
v -1.554485 -0.04897115 1.869428
v -1.554485 -0.1722004 1.869428
v -2.571842 -0.1722004 1.869428
v -2.571842 -0.04897115 1.869428
v -1.554485 -0.04897115 1.869428
v -1.472828 -0.5666065 1.770582
v -2.485142 -0.5666065 1.782731
v -2.485142 -0.1722004 1.782731
v -1.472828 -0.1722004 1.770582
v -1.097157 -0.5666065 1.765945
v -1.097157 -0.1722004 1.765945
v 0.734684 -0.5666061 1.743331
v 0.734684 -0.1722001 1.743331
v 1.087288 -0.5666065 1.738979
v 1.087288 -0.1722001 1.738979
v 1.444843 -0.5666061 1.734563
v 1.444843 -0.1722004 1.734563
v 1.818134 -0.5666065 1.729955
v 1.818134 -0.1722001 1.729955
v 2.484776 -0.1722004 1.782731
v 2.484776 -0.5666065 1.782731
v 1.018764 -0.1722004 1.967468
v 0.6643486 -0.1722004 1.967466
v 0.6643486 -0.04897115 1.967466
v 1.018764 -0.04897088 1.967468
v 1.018764 -0.0119306 1.967468
v 0.6643486 -0.0119306 1.967466
v 0.6643562 -0.0119306 -0.05600405
v 1.018768 -0.0119306 -0.05600405
v 1.018764 -0.01193034 1.86943
v 0.6643486 -0.0119306 1.869428
v 0.6643486 -0.0119306 1.967466
v 1.018764 -0.0119306 1.967468
v -1.176876 -0.04897115 -0.05600405
v 0.6643562 -0.04897115 -0.05600405
v 0.6643486 -0.04897115 1.869428
v -1.176884 -0.04897115 1.869428
v 0.6643486 -0.1722004 1.869428
v -1.176884 -0.1722004 1.869428
v -1.176884 -0.04897115 1.869428
v 0.6643486 -0.04897115 1.869428
v 1.753361 -0.1722004 1.967466
v 1.378155 -0.1722004 1.967466
v 1.378155 -0.04897088 1.967466
v 1.753361 -0.04897115 1.967466
v 1.753361 -0.0119306 1.967466
v 1.378155 -0.0119306 1.967466
v 1.378162 -0.0119306 -0.05600405
v 1.753368 -0.0119306 -0.05600405
v 1.753361 -0.0119306 1.869428
v 1.378155 -0.01193034 1.869428
v 1.378155 -0.0119306 1.967466
v 1.753361 -0.0119306 1.967466
v 1.018768 -0.04897088 -0.05600405
v 1.378162 -0.04897088 -0.05600405
v 1.378155 -0.04897115 1.869428
v 1.018764 -0.04897115 1.86943
v 1.378155 -0.1722001 1.869428
v 1.018764 -0.1722004 1.86943
v 1.018764 -0.04897115 1.86943
v 1.378155 -0.04897115 1.869428
v 2.571659 -0.1722004 1.869428
v 1.753361 -0.1722004 1.869428
v 1.753361 -0.04897088 1.869428
v 2.571838 -0.04897115 1.869428
v 1.753368 -0.04897115 -0.05600405
v 2.571476 -0.04897115 -0.05600214
v 2.571838 -0.04897115 1.869428
v 1.753361 -0.04897088 1.869428
v -1.176884 -0.1722004 1.869428
v -1.176884 -0.1722001 1.967466
v -1.176884 -0.04897115 1.967466
v -1.176884 -0.04897115 1.869428
v -1.554485 -0.04897115 1.869428
v -1.554485 -0.04897115 1.967466
v -1.554485 -0.1722004 1.967466
v -1.554485 -0.1722004 1.869428
v -1.554485 -0.1722004 1.869428
v -1.554485 -0.1722004 1.967466
v -1.176884 -0.1722001 1.967466
v -1.176884 -0.1722004 1.869428
v 1.018764 -0.1722004 1.86943
v 1.018764 -0.1722004 1.967468
v 1.018764 -0.04897088 1.967468
v 1.018764 -0.04897115 1.86943
v 0.6643486 -0.04897115 1.869428
v 0.6643486 -0.04897115 1.967466
v 0.6643486 -0.1722004 1.967466
v 0.6643486 -0.1722004 1.869428
v 0.6643486 -0.1722004 1.869428
v 0.6643486 -0.1722004 1.967466
v 1.018764 -0.1722004 1.967468
v 1.018764 -0.1722004 1.86943
v 1.753361 -0.1722004 1.869428
v 1.753361 -0.1722004 1.967466
v 1.753361 -0.04897115 1.967466
v 1.753361 -0.04897088 1.869428
v 1.378155 -0.04897115 1.869428
v 1.378155 -0.04897088 1.967466
v 1.378155 -0.1722004 1.967466
v 1.378155 -0.1722001 1.869428
v 1.378155 -0.1722001 1.869428
v 1.378155 -0.1722004 1.967466
v 1.753361 -0.1722004 1.967466
v 1.753361 -0.1722004 1.869428
v -1.554482 -0.04897115 -0.05600405
v -1.554482 -0.0119306 -0.05600405
v -1.554485 -0.0119306 1.869428
v -1.554485 -0.04897115 1.869428
v -1.176884 -0.04897115 1.869428
v -1.176884 -0.0119306 1.869428
v -1.176876 -0.01193034 -0.05600405
v -1.176876 -0.04897115 -0.05600405
v -1.176876 -0.04897115 -0.05600405
v -1.176876 -0.01193034 -0.05600405
v -1.554482 -0.0119306 -0.05600405
v -1.554482 -0.04897115 -0.05600405
v -1.554485 -0.04897115 1.869428
v -1.554485 -0.0119306 1.869428
v -1.554485 -0.0119306 1.967466
v -1.554485 -0.04897115 1.967466
v -1.176884 -0.04897115 1.967466
v -1.176884 -0.0119306 1.967466
v -1.176884 -0.0119306 1.869428
v -1.176884 -0.04897115 1.869428
v 0.6643562 -0.04897115 -0.05600405
v 0.6643562 -0.0119306 -0.05600405
v 0.6643486 -0.0119306 1.869428
v 0.6643486 -0.04897115 1.869428
v 1.018764 -0.04897115 1.86943
v 1.018764 -0.01193034 1.86943
v 1.018768 -0.0119306 -0.05600405
v 1.018768 -0.04897088 -0.05600405
v 1.018768 -0.04897088 -0.05600405
v 1.018768 -0.0119306 -0.05600405
v 0.6643562 -0.0119306 -0.05600405
v 0.6643562 -0.04897115 -0.05600405
v 0.6643486 -0.04897115 1.869428
v 0.6643486 -0.0119306 1.869428
v 0.6643486 -0.0119306 1.967466
v 0.6643486 -0.04897115 1.967466
v 1.018764 -0.04897088 1.967468
v 1.018764 -0.0119306 1.967468
v 1.018764 -0.01193034 1.86943
v 1.018764 -0.04897115 1.86943
v 1.378162 -0.04897088 -0.05600405
v 1.378162 -0.0119306 -0.05600405
v 1.378155 -0.01193034 1.869428
v 1.378155 -0.04897115 1.869428
v 1.753361 -0.04897088 1.869428
v 1.753361 -0.0119306 1.869428
v 1.753368 -0.0119306 -0.05600405
v 1.753368 -0.04897115 -0.05600405
v 1.753368 -0.04897115 -0.05600405
v 1.753368 -0.0119306 -0.05600405
v 1.378162 -0.0119306 -0.05600405
v 1.378162 -0.04897088 -0.05600405
v 1.378155 -0.04897115 1.869428
v 1.378155 -0.01193034 1.869428
v 1.378155 -0.0119306 1.967466
v 1.378155 -0.04897088 1.967466
v 1.753361 -0.04897115 1.967466
v 1.753361 -0.0119306 1.967466
v 1.753361 -0.0119306 1.869428
v 1.753361 -0.04897088 1.869428
v 2.571476 -0.04897115 -0.05600214
v 2.571476 -0.1722004 -0.05600214
v 2.571659 -0.1722004 1.869428
v 2.571838 -0.04897115 1.869428
v 2.484776 -0.1722004 1.782731
v 2.398075 -0.1722004 -0.05600214
v 2.398075 -0.5666065 -0.05600214
v 2.484776 -0.5666065 1.782731

vn -1 0 0
vn -1 0 0
vn -1 0 0
vn -1 0 0
vn 0 1 0
vn 0 1 0
vn 0 1 0
vn 0 1 0
vn 0 1 0
vn 0 1 0
vn 0 0 1
vn 0 0 1
vn 0 0 1
vn 0 0 1
vn 0 0 1
vn 0 0 1
vn -0.9988902 0 -0.04709992
vn -0.9988902 0 -0.04709992
vn -0.9988902 0 -0.04709992
vn -0.9988902 0 -0.04709992
vn 0 -1 0
vn 0 -1 0
vn 0 -1 0
vn 0 -1 0
vn 0 -1 0
vn 0 -1 0
vn 0 -1 0
vn 0 -1 0
vn 0 -1 0
vn 0 -1 0
vn 0 -1 0
vn 0 -1 0
vn 0 -1 0
vn 0 -1 0
vn 0 -1 0
vn 0 -1 0
vn 0 -1 0
vn 0 -1 0
vn 0 -1 0
vn 0 -1 0
vn 0 1 0
vn 0 1 0
vn 0 1 0
vn 0 1 0
vn 0 0 1
vn 0 0 1
vn 0 0 1
vn 0 0 1
vn 0.01217144 0 0.999926
vn 0.012001 0 0.999928
vn 0.012001 0 0.999928
vn 0.01217144 0 0.999926
vn 0.01234282 0 0.9999238
vn 0.01234282 0 0.9999238
vn 0.01234345 0 0.9999238
vn 0.01234345 0 0.9999238
vn 0.01234579 0 0.9999238
vn 0.01234579 0 0.9999238
vn 0.01234609 0 0.9999238
vn 0.01234609 0 0.9999238
vn -0.03332318 0 0.9994447
vn -0.03332318 0 0.9994447
vn -0.07892058 0 0.9968809
vn -0.07892058 0 0.9968809
vn 0 0 1
vn 0 0 1
vn -5.166401E-06 0 1
vn -5.166401E-06 0 1
vn 0 0 1
vn 0 0 1
vn 0 1 0
vn 0 1 0
vn 0 1 0
vn 0 1 0
vn 0 1 0
vn 0 1 0
vn 0 1 0
vn 0 1 0
vn 0 1 0
vn 0 1 0
vn 0 0 1
vn 0 0 1
vn 0 0 1
vn 0 0 1
vn 0 0 1
vn 0 0 1
vn 0 0 1
vn 0 0 1
vn 0 0 1
vn 0 0 1
vn 0 1 0
vn 0 1 0
vn 0 1 0
vn 0 1 0
vn 0 1 0
vn 0 1 0
vn 0 1 0
vn 0 1 0
vn 0 1 0
vn 0 1 0
vn 0 0 1
vn 0 0 1
vn 0 0 1
vn 0 0 1
vn 0 0 1
vn 0 0 1
vn 0 0 1
vn 0 0 1
vn 0 1 0
vn 0 1 0
vn 0 1 0
vn 0 1 0
vn 1 0 0
vn 1 0 0
vn 1 0 0
vn 1 0 0
vn -1 0 0
vn -1 0 0
vn -1 0 0
vn -1 0 0
vn 0 -1 0
vn 0 -1 0
vn 0 -1 0
vn 0 -1 0
vn 1 0 0
vn 1 0 0
vn 1 0 0
vn 1 0 0
vn -1 0 0
vn -1 0 0
vn -1 0 0
vn -1 0 0
vn 0 -1 0
vn 0 -1 0
vn 0 -1 0
vn 0 -1 0
vn 1 0 0
vn 1 0 0
vn 1 0 0
vn 1 0 0
vn -1 0 0
vn -1 0 0
vn -1 0 0
vn -1 0 0
vn 0 -1 0
vn 0 -1 0
vn 0 -1 0
vn 0 -1 0
vn -1 0 0
vn -1 0 0
vn -1 0 0
vn -1 0 0
vn 1 0 0
vn 1 0 0
vn 1 0 0
vn 1 0 0
vn 0 0 -1
vn 0 0 -1
vn 0 0 -1
vn 0 0 -1
vn -1 0 0
vn -1 0 0
vn -1 0 0
vn -1 0 0
vn 1 0 0
vn 1 0 0
vn 1 0 0
vn 1 0 0
vn -1 0 0
vn -1 0 0
vn -1 0 0
vn -1 0 0
vn 1 0 0
vn 1 0 0
vn 1 0 0
vn 1 0 0
vn 0 0 -1
vn 0 0 -1
vn 0 0 -1
vn 0 0 -1
vn -1 0 0
vn -1 0 0
vn -1 0 0
vn -1 0 0
vn 1 0 0
vn 1 0 0
vn 1 0 0
vn 1 0 0
vn -1 0 0
vn -1 0 0
vn -1 0 0
vn -1 0 0
vn 1 0 0
vn 1 0 0
vn 1 0 0
vn 1 0 0
vn 0 0 -1
vn 0 0 -1
vn 0 0 -1
vn 0 0 -1
vn -1 0 0
vn -1 0 0
vn -1 0 0
vn -1 0 0
vn 1 0 0
vn 1 0 0
vn 1 0 0
vn 1 0 0
vn 0.9999998 -0.0007268491 -0.0001416174
vn 0.9999998 -0.0007268491 -0.0001416174
vn 0.9999998 -0.0007268491 -0.0001416174
vn 0.9999998 -0.0007268491 -0.0001416174
vn 0.9988902 0 -0.04709992
vn 0.9988902 0 -0.04709992
vn 0.9988902 0 -0.04709992
vn 0.9988902 0 -0.04709992

vt 0.8654556 0.5095333
vt 0.8654556 0.5095333
vt 0.8654556 0.5095333
vt 0.8654556 0.5095333
vt 0.8346307 0.5735016
vt 0.850077 0.5735016
vt 0.850077 0.505249
vt 0.8346307 0.505249
vt 0.8345252 0.5001264
vt 0.8501017 0.5001263
vt 0.8955956 0.5304132
vt 0.8955956 0.5304132
vt 0.8955956 0.5304132
vt 0.8955956 0.5304132
vt 0.8955956 0.5304132
vt 0.8955956 0.5304132
vt 0.9328156 0.5155579
vt 0.9328156 0.515558
vt 0.9328156 0.515558
vt 0.9328156 0.5155579
vt 0.9328156 0.5155579
vt 0.9328156 0.5155579
vt 0.9328156 0.5155579
vt 0.9328156 0.5155579
vt 0.9328156 0.5155579
vt 0.9328156 0.5155579
vt 0.9328156 0.5155579
vt 0.9328156 0.5155579
vt 0.9328156 0.5155579
vt 0.9328156 0.5155579
vt 0.9328156 0.5155579
vt 0.9328156 0.5155579
vt 0.9328156 0.5155579
vt 0.9328156 0.5155579
vt 0.9328156 0.5155579
vt 0.9328156 0.5155579
vt 0.9328156 0.5155579
vt 0.9328156 0.5155579
vt 0.9328156 0.5155579
vt 0.9328156 0.5155579
vt 0.7941702 0.505249
vt 0.7941702 0.5735016
vt 0.8346307 0.5735016
vt 0.8346307 0.505249
vt 0.8654556 0.5095333
vt 0.8654556 0.5095333
vt 0.8654556 0.5095333
vt 0.8654556 0.5095333
vt 0.9328156 0.515558
vt 0.9328156 0.515558
vt 0.9328156 0.5155579
vt 0.9328156 0.5155579
vt 0.9328156 0.515558
vt 0.9328156 0.5155579
vt 0.9328156 0.515558
vt 0.9328156 0.5155579
vt 0.9328156 0.515558
vt 0.9328156 0.5155579
vt 0.9328156 0.515558
vt 0.9328156 0.5155579
vt 0.9328156 0.515558
vt 0.9328156 0.5155579
vt 0.9328156 0.5155579
vt 0.9328156 0.515558
vt 0.8955956 0.5304132
vt 0.8955956 0.5304132
vt 0.8955956 0.5304132
vt 0.8955956 0.5304132
vt 0.8955956 0.5304132
vt 0.8955956 0.5304132
vt 0.9253952 0.5735016
vt 0.9398928 0.5735016
vt 0.9398928 0.505249
vt 0.9253952 0.505249
vt 0.9253623 0.5001264
vt 0.9398875 0.5001263
vt 0.850077 0.5735016
vt 0.9253952 0.5735016
vt 0.9253952 0.505249
vt 0.850077 0.505249
vt 0.8654556 0.5095333
vt 0.8654556 0.5095333
vt 0.8654556 0.5095333
vt 0.8654556 0.5095333
vt 0.8955956 0.5304132
vt 0.8955956 0.5304132
vt 0.8955956 0.5304132
vt 0.8955956 0.5304132
vt 0.8955956 0.5304132
vt 0.8955956 0.5304132
vt 0.9545943 0.5735016
vt 0.9699426 0.5735016
vt 0.9699426 0.505249
vt 0.9545943 0.505249
vt 0.9545724 0.5001264
vt 0.9699336 0.5001264
vt 0.9398928 0.5735016
vt 0.9545943 0.5735016
vt 0.9545943 0.505249
vt 0.9398928 0.505249
vt 0.8654556 0.5095333
vt 0.8654556 0.5095333
vt 0.8654556 0.5095333
vt 0.8654556 0.5095333
vt 0.8654556 0.5095333
vt 0.8654556 0.5095333
vt 0.8654556 0.5095333
vt 0.8654556 0.5095333
vt 0.9699426 0.5735016
vt 0.9987711 0.5735016
vt 0.9987711 0.505249
vt 0.9699426 0.505249
vt 0.8654556 0.5095333
vt 0.8654556 0.5095333
vt 0.8654556 0.5095333
vt 0.8654556 0.5095333
vt 0.8654556 0.5095333
vt 0.8654556 0.5095333
vt 0.8654556 0.5095333
vt 0.8654556 0.5095333
vt 0.8654556 0.5095333
vt 0.8654556 0.5095333
vt 0.8654556 0.5095333
vt 0.8654556 0.5095333
vt 0.8654556 0.5095333
vt 0.8654556 0.5095333
vt 0.8654556 0.5095333
vt 0.8654556 0.5095333
vt 0.8654556 0.5095333
vt 0.8654556 0.5095333
vt 0.8654556 0.5095333
vt 0.8654556 0.5095333
vt 0.8654556 0.5095333
vt 0.8654556 0.5095333
vt 0.8654556 0.5095333
vt 0.8654556 0.5095333
vt 0.8654556 0.5095333
vt 0.8654556 0.5095333
vt 0.8654556 0.5095333
vt 0.8654556 0.5095333
vt 0.8654556 0.5095333
vt 0.8654556 0.5095333
vt 0.8654556 0.5095333
vt 0.8654556 0.5095333
vt 0.8654556 0.5095333
vt 0.8654556 0.5095333
vt 0.8654556 0.5095333
vt 0.8654556 0.5095333
vt 0.8346307 0.5735016
vt 0.8346307 0.5735016
vt 0.8346307 0.505249
vt 0.8346307 0.505249
vt 0.850077 0.505249
vt 0.850077 0.505249
vt 0.850077 0.5735016
vt 0.850077 0.5735016
vt 0.850077 0.5735016
vt 0.850077 0.5735016
vt 0.8346307 0.5735016
vt 0.8346307 0.5735016
vt 0.9253952 0.5735016
vt 0.9253952 0.5735016
vt 0.9253952 0.505249
vt 0.9253952 0.505249
vt 0.9398928 0.5735016
vt 0.9398928 0.5735016
vt 0.9253952 0.5735016
vt 0.9253952 0.5735016
vt 0.9545943 0.5735016
vt 0.9545943 0.5735016
vt 0.9545943 0.505249
vt 0.9545943 0.505249
vt 0.9699426 0.505249
vt 0.9699426 0.505249
vt 0.9699426 0.5735016
vt 0.9699426 0.5735016
vt 0.9699426 0.5735016
vt 0.9699426 0.5735016
vt 0.9545943 0.5735016
vt 0.9545943 0.5735016
vt 0.9393703 0.505249
vt 0.9393703 0.505249
vt 0.9393703 0.5735016
vt 0.9393703 0.5735016
vt 0.9538913 0.5735016
vt 0.9538913 0.5735016
vt 0.9538913 0.505249
vt 0.9538913 0.505249
vt 0.8338606 0.505249
vt 0.8338606 0.505249
vt 0.8338606 0.5735016
vt 0.8338606 0.5735016
vt 0.8338606 0.5735016
vt 0.8338606 0.5735016
vt 0.8500171 0.5735016
vt 0.8500171 0.5735016
vt 0.8500171 0.5735016
vt 0.8500171 0.5735016
vt 0.8500171 0.505249
vt 0.8500171 0.505249
vt 0.8345252 0.5053195
vt 0.8345252 0.5053195
vt 0.8345252 0.5001264
vt 0.8345252 0.5001264
vt 0.8501017 0.5001263
vt 0.8501017 0.5001263
vt 0.8501017 0.5053194
vt 0.8501017 0.5053194
vt 0.8654556 0.5095333
vt 0.8654556 0.5095333
vt 0.8654556 0.5095333
vt 0.8654556 0.5095333
vt 0.9328156 0.5155579
vt 0.9328156 0.5155579
vt 0.9328156 0.515558
vt 0.9328156 0.515558

usemtl PolygonWestern_Material_01_A
usemap PolygonWestern_Material_01_A
f 2/2/2 1/1/1 3/3/3
f 3/3/3 1/1/1 4/4/4
f 6/6/6 5/5/5 7/7/7
f 7/7/7 5/5/5 8/8/8
f 9/9/9 7/7/7 8/8/8
f 10/10/10 7/7/7 9/9/9
f 12/12/12 11/11/11 13/13/13
f 13/13/13 11/11/11 14/14/14
f 15/15/15 13/13/13 14/14/14
f 16/16/16 13/13/13 15/15/15
f 18/18/18 17/17/17 19/19/19
f 19/19/19 17/17/17 20/20/20
f 22/22/22 21/21/21 23/23/23
f 24/24/24 21/21/21 22/22/22
f 24/24/24 25/25/25 21/21/21
f 21/21/21 25/25/25 26/26/26
f 25/25/25 27/27/27 26/26/26
f 26/26/26 27/27/27 28/28/28
f 27/27/27 29/29/29 28/28/28
f 28/28/28 29/29/29 30/30/30
f 29/29/29 31/31/31 30/30/30
f 30/30/30 31/31/31 32/32/32
f 31/31/31 33/33/33 32/32/32
f 32/32/32 33/33/33 34/34/34
f 33/33/33 35/35/35 34/34/34
f 34/34/34 35/35/35 36/36/36
f 35/35/35 37/37/37 36/36/36
f 38/38/38 37/37/37 35/35/35
f 39/39/39 37/37/37 38/38/38
f 40/40/40 37/37/37 39/39/39
f 42/42/42 41/41/41 43/43/43
f 43/43/43 41/41/41 44/44/44
f 46/46/46 45/45/45 47/47/47
f 47/47/47 45/45/45 48/48/48
f 50/50/50 49/49/49 51/51/51
f 51/51/51 49/49/49 52/52/52
f 49/49/49 53/53/53 52/52/52
f 52/52/52 53/53/53 54/54/54
f 53/53/53 55/55/55 54/54/54
f 54/54/54 55/55/55 56/56/56
f 55/55/55 57/57/57 56/56/56
f 56/56/56 57/57/57 58/58/58
f 57/57/57 59/59/59 58/58/58
f 58/58/58 59/59/59 60/60/60
f 59/59/59 61/61/61 60/60/60
f 60/60/60 61/61/61 62/62/62
f 61/61/61 63/63/63 62/62/62
f 64/64/64 63/63/63 61/61/61
f 66/66/66 65/65/65 67/67/67
f 67/67/67 65/65/65 68/68/68
f 69/69/69 67/67/67 68/68/68
f 70/70/70 67/67/67 69/69/69
f 72/72/72 71/71/71 73/73/73
f 73/73/73 71/71/71 74/74/74
f 75/75/75 73/73/73 74/74/74
f 76/76/76 73/73/73 75/75/75
f 78/78/78 77/77/77 79/79/79
f 79/79/79 77/77/77 80/80/80
f 82/82/82 81/81/81 83/83/83
f 83/83/83 81/81/81 84/84/84
f 86/86/86 85/85/85 87/87/87
f 87/87/87 85/85/85 88/88/88
f 89/89/89 87/87/87 88/88/88
f 90/90/90 87/87/87 89/89/89
f 92/92/92 91/91/91 93/93/93
f 93/93/93 91/91/91 94/94/94
f 95/95/95 93/93/93 94/94/94
f 96/96/96 93/93/93 95/95/95
f 98/98/98 97/97/97 99/99/99
f 99/99/99 97/97/97 100/100/100
f 102/102/102 101/101/101 103/103/103
f 103/103/103 101/101/101 104/104/104
f 106/106/106 105/105/105 107/107/107
f 107/107/107 105/105/105 108/108/108
f 110/110/110 109/109/109 111/111/111
f 111/111/111 109/109/109 112/112/112
f 114/114/114 113/113/113 115/115/115
f 115/115/115 113/113/113 116/116/116
f 118/118/118 117/117/117 119/119/119
f 119/119/119 117/117/117 120/120/120
f 122/122/122 121/121/121 123/123/123
f 123/123/123 121/121/121 124/124/124
f 126/126/126 125/125/125 127/127/127
f 127/127/127 125/125/125 128/128/128
f 130/130/130 129/129/129 131/131/131
f 131/131/131 129/129/129 132/132/132
f 134/134/134 133/133/133 135/135/135
f 135/135/135 133/133/133 136/136/136
f 138/138/138 137/137/137 139/139/139
f 139/139/139 137/137/137 140/140/140
f 142/142/142 141/141/141 143/143/143
f 143/143/143 141/141/141 144/144/144
f 146/146/146 145/145/145 147/147/147
f 147/147/147 145/145/145 148/148/148
f 150/150/150 149/149/149 151/151/151
f 151/151/151 149/149/149 152/152/152
f 154/154/154 153/153/153 155/155/155
f 155/155/155 153/153/153 156/156/156
f 158/158/158 157/157/157 159/159/159
f 159/159/159 157/157/157 160/160/160
f 162/162/162 161/161/161 163/163/163
f 163/163/163 161/161/161 164/164/164
f 166/166/166 165/165/165 167/167/167
f 167/167/167 165/165/165 168/168/168
f 170/170/170 169/169/169 171/171/171
f 171/171/171 169/169/169 172/172/172
f 174/174/174 173/173/173 175/175/175
f 175/175/175 173/173/173 176/176/176
f 178/178/178 177/177/177 179/179/179
f 179/179/179 177/177/177 180/180/180
f 182/182/182 181/181/181 183/183/183
f 183/183/183 181/181/181 184/184/184
f 186/186/186 185/185/185 187/187/187
f 187/187/187 185/185/185 188/188/188
f 190/190/190 189/189/189 191/191/191
f 191/191/191 189/189/189 192/192/192
f 194/194/194 193/193/193 195/195/195
f 195/195/195 193/193/193 196/196/196
f 198/198/198 197/197/197 199/199/199
f 199/199/199 197/197/197 200/200/200
f 202/202/202 201/201/201 203/203/203
f 203/203/203 201/201/201 204/204/204
f 206/206/206 205/205/205 207/207/207
f 207/207/207 205/205/205 208/208/208
f 210/210/210 209/209/209 211/211/211
f 211/211/211 209/209/209 212/212/212
f 214/214/214 213/213/213 215/215/215
f 215/215/215 213/213/213 216/216/216
