mtllib ./SM_Bld_Sign_08_6.mtl
g SM_Bld_Sign_08
v -0.03055191 -0.1654854 0.538372
v -0.03055191 0.1654854 0.538372
v -0.03055191 0.1654854 -0.538372
v -0.03055191 -0.1654854 -0.538372
v -0.08084869 -0.1654854 0.538372
v -0.08084869 -0.1654854 -0.538372
v -0.08084869 0.1654854 -0.538372
v -0.08084869 0.1654854 0.538372
v -0.08084869 0.202137 0.5750237
v -0.08084869 0.202137 -0.5750237
v -0.03055191 0.202137 -0.5750237
v -0.03055191 0.202137 0.5750237
v -0.03055191 -0.2021351 0.5750237
v -0.03055191 -0.2021351 -0.5750237
v -0.08084869 -0.2021351 -0.5750237
v -0.08084869 -0.2021351 0.5750237
v -0.03055191 0.202137 -0.5750237
v -0.08084869 0.202137 -0.5750237
v -0.08084869 -0.2021351 -0.5750237
v -0.03055191 -0.2021351 -0.5750237
v -0.03055191 0.202137 0.5750237
v -0.03055191 -0.2021351 0.5750237
v -0.08084869 -0.2021351 0.5750237
v -0.08084869 0.202137 0.5750237
v -0.03055191 0.1654854 0.538372
v -0.03055191 0.202137 0.5750237
v -0.03055191 0.202137 -0.5750237
v -0.03055191 0.1654854 -0.538372
v -0.03055191 -0.1654854 0.538372
v -0.03055191 -0.2021351 -0.5750237
v -0.03055191 -0.2021351 0.5750237
v -0.03055191 -0.1654854 -0.538372
v -0.08084869 0.1654854 -0.538372
v -0.08084869 0.202137 -0.5750237
v -0.08084869 0.202137 0.5750237
v -0.08084869 0.1654854 0.538372
v -0.08084869 -0.1654854 -0.538372
v -0.08084869 -0.2021351 0.5750237
v -0.08084869 -0.2021351 -0.5750237
v -0.08084869 -0.1654854 0.538372

vn 1 0 0
vn 1 0 0
vn 1 0 0
vn 1 0 0
vn -1 0 0
vn -1 0 0
vn -1 0 0
vn -1 0 0
vn 0 1 0
vn 0 1 0
vn 0 1 0
vn 0 1 0
vn 0 -1 0
vn 0 -1 0
vn 0 -1 0
vn 0 -1 0
vn 0 0 -1
vn 0 0 -1
vn 0 0 -1
vn 0 0 -1
vn 0 0 1
vn 0 0 1
vn 0 0 1
vn 0 0 1
vn 1 0 0
vn 1 0 0
vn 1 0 0
vn 1 0 0
vn 1 0 0
vn 1 0 0
vn 1 0 0
vn 1 0 0
vn -1 0 0
vn -1 0 0
vn -1 0 0
vn -1 0 0
vn -1 0 0
vn -1 0 0
vn -1 0 0
vn -1 0 0

vt 0.0091397 0.9931028
vt 0.0091397 0.9922698
vt 0.009137633 0.9921724
vt 0.009137633 0.9925892
vt 0.2385045 0.7670521
vt 0.01013827 0.7670521
vt 0.01013827 0.8372471
vt 0.2385045 0.8372471
vt 0.1057846 0.8018991
vt 0.1053194 0.8018135
vt 0.1053151 0.8018306
vt 0.1057802 0.8019163
vt 0.1057802 0.8005105
vt 0.1053151 0.8004248
vt 0.1053194 0.8004076
vt 0.1057846 0.8004934
vt 0.1053151 0.8018306
vt 0.1053194 0.8018135
vt 0.1053194 0.8004076
vt 0.1053151 0.8004248
vt 0.1057802 0.8019163
vt 0.1057802 0.8005105
vt 0.1057846 0.8004934
vt 0.1057846 0.8018991
vt 0.1057655 0.8017862
vt 0.1057802 0.8019163
vt 0.1053151 0.8018306
vt 0.1053298 0.8017059
vt 0.1057655 0.8006353
vt 0.1053151 0.8004248
vt 0.1057802 0.8005105
vt 0.1053298 0.800555
vt 0.1053341 0.8016887
vt 0.1053194 0.8018135
vt 0.1057846 0.8018991
vt 0.1057699 0.801769
vt 0.1053341 0.8005378
vt 0.1057846 0.8004934
vt 0.1053194 0.8004076
vt 0.1057699 0.8006181

usemtl POLYGONWestern_Signs_01
usemap POLYGONWestern_Signs_01
f 2/2/2 1/1/1 3/3/3
f 3/3/3 1/1/1 4/4/4
f 6/6/6 5/5/5 7/7/7
f 7/7/7 5/5/5 8/8/8
f 10/10/10 9/9/9 11/11/11
f 11/11/11 9/9/9 12/12/12
f 14/14/14 13/13/13 15/15/15
f 15/15/15 13/13/13 16/16/16
f 18/18/18 17/17/17 19/19/19
f 19/19/19 17/17/17 20/20/20
f 22/22/22 21/21/21 23/23/23
f 23/23/23 21/21/21 24/24/24
f 26/26/26 25/25/25 27/27/27
f 27/27/27 25/25/25 28/28/28
f 26/26/26 29/29/29 25/25/25
f 27/27/27 28/28/28 30/30/30
f 31/31/31 29/29/29 26/26/26
f 30/30/30 28/28/28 32/32/32
f 31/31/31 32/32/32 29/29/29
f 30/30/30 32/32/32 31/31/31
f 34/34/34 33/33/33 35/35/35
f 35/35/35 33/33/33 36/36/36
f 34/34/34 37/37/37 33/33/33
f 35/35/35 36/36/36 38/38/38
f 39/39/39 37/37/37 34/34/34
f 38/38/38 36/36/36 40/40/40
f 37/37/37 39/39/39 40/40/40
f 40/40/40 39/39/39 38/38/38
