mtllib ./SM_Bld_Sign_10_25.mtl
g SM_Bld_Sign_10
v -0.03055263 -0.1654854 0.3999863
v -0.03055263 0.1654854 0.3999863
v -0.03055263 0.1654854 -0.3999863
v -0.03055263 -0.1654854 -0.3999863
v -0.08084869 -0.1319494 0.4033585
v -0.08084869 -0.1654854 0.3999863
v -0.08084869 -0.1654854 -0.3999863
v -0.08084869 0.04605055 -0.4050484
v -0.08084869 0.1654854 0.3999863
v -0.08084869 0.1654854 -0.3999863
v -0.08084869 0.202137 0.4366379
v -0.08084869 0.202137 -0.4366379
v -0.03055263 0.202137 -0.4366379
v -0.03055263 0.202137 0.4366379
v -0.03055263 -0.202137 0.4366379
v -0.03055263 -0.202137 -0.4366379
v -0.08084869 -0.202137 -0.4366379
v -0.08084869 -0.202137 0.4366379
v -0.03055263 0.202137 -0.4366379
v -0.08084869 0.202137 -0.4366379
v -0.08084869 -0.202137 -0.4366379
v -0.03055263 -0.202137 -0.4366379
v -0.03055263 0.202137 0.4366379
v -0.03055263 -0.202137 0.4366379
v -0.08084869 -0.202137 0.4366379
v -0.08084869 0.202137 0.4366379
v -0.08084869 0.1654854 -0.3999863
v -0.08084869 0.202137 0.4366379
v -0.08084869 0.1654854 0.3999863
v -0.08084869 -0.1319494 0.4033585
v -0.08084869 -0.202137 0.4366379
v -0.08084869 -0.1654854 0.3999863
v -0.08084869 -0.202137 -0.4366379
v -0.08084869 -0.1654854 -0.3999863
v -0.08084869 0.202137 -0.4366379
v -0.08084869 0.04605055 -0.4050484
v -0.03055263 0.1654854 0.3999863
v -0.03055263 0.202137 0.4366379
v -0.03055263 0.202137 -0.4366379
v -0.03055263 0.1654854 -0.3999863
v -0.03055263 -0.1654854 0.3999863
v -0.03055263 -0.202137 -0.4366379
v -0.03055263 -0.202137 0.4366379
v -0.03055263 -0.1654854 -0.3999863

vn 1 0 0
vn 1 0 0
vn 1 0 0
vn 1 0 0
vn -1 0 0
vn -1 0 0
vn -1 0 0
vn -1 0 0
vn -1 0 0
vn -1 0 0
vn 0 1 0
vn 0 1 0
vn 0 1 0
vn 0 1 0
vn 0 -1 0
vn 0 -1 0
vn 0 -1 0
vn 0 -1 0
vn 0 0 -1
vn 0 0 -1
vn 0 0 -1
vn 0 0 -1
vn 0 0 1
vn 0 0 1
vn 0 0 1
vn 0 0 1
vn -1 0 0
vn -1 0 0
vn -1 0 0
vn -1 0 0
vn -1 0 0
vn -1 0 0
vn -1 0 0
vn -1 0 0
vn -1 0 0
vn -1 0 0
vn 1 0 0
vn 1 0 0
vn 1 0 0
vn 1 0 0
vn 1 0 0
vn 1 0 0
vn 1 0 0
vn 1 0 0

vt 0.009139215 0.9929011
vt 0.009139215 0.9923282
vt 0.00913768 0.9921272
vt 0.00913768 0.9926481
vt 0.1836921 0.9316913
vt 0.1829771 0.9245788
vt 0.01331143 0.9245788
vt 0.01223773 0.969443
vt 0.1829771 0.9947739
vt 0.01331143 0.9947739
vt 0.02757683 0.9457334
vt 0.02361393 0.9456477
vt 0.02357676 0.9456649
vt 0.0275397 0.9457505
vt 0.0275397 0.9443448
vt 0.02357676 0.944259
vt 0.02361393 0.9442419
vt 0.02757683 0.9443276
vt 0.02357676 0.9456649
vt 0.02361393 0.9456477
vt 0.02361393 0.9442419
vt 0.02357676 0.944259
vt 0.0275397 0.9457505
vt 0.0275397 0.9443448
vt 0.02757683 0.9443276
vt 0.02757683 0.9457334
vt 0.02373913 0.945523
vt 0.02757683 0.9457334
vt 0.02745163 0.9456033
vt 0.02746315 0.9445692
vt 0.02757683 0.9443276
vt 0.02745163 0.9444523
vt 0.02361393 0.9442419
vt 0.02373913 0.9443721
vt 0.02361393 0.9456477
vt 0.02372183 0.9451073
vt 0.0274145 0.9456204
vt 0.0275397 0.9457505
vt 0.02357676 0.9456649
vt 0.02370196 0.9455401
vt 0.0274145 0.9444695
vt 0.02357676 0.944259
vt 0.0275397 0.9443448
vt 0.02370196 0.9443892

usemtl POLYGONWestern_Signs_01
usemap POLYGONWestern_Signs_01
f 2/2/2 1/1/1 3/3/3
f 3/3/3 1/1/1 4/4/4
f 6/6/6 5/5/5 7/7/7
f 8/8/8 7/7/7 5/5/5
f 9/9/9 8/8/8 5/5/5
f 10/10/10 8/8/8 9/9/9
f 12/12/12 11/11/11 13/13/13
f 13/13/13 11/11/11 14/14/14
f 16/16/16 15/15/15 17/17/17
f 17/17/17 15/15/15 18/18/18
f 20/20/20 19/19/19 21/21/21
f 21/21/21 19/19/19 22/22/22
f 24/24/24 23/23/23 25/25/25
f 25/25/25 23/23/23 26/26/26
f 28/28/28 27/27/27 29/29/29
f 29/29/29 30/30/30 28/28/28
f 28/28/28 30/30/30 31/31/31
f 32/32/32 31/31/31 30/30/30
f 32/32/32 33/33/33 31/31/31
f 34/34/34 33/33/33 32/32/32
f 35/35/35 27/27/27 28/28/28
f 33/33/33 34/34/34 35/35/35
f 27/27/27 35/35/35 36/36/36
f 36/36/36 35/35/35 34/34/34
f 38/38/38 37/37/37 39/39/39
f 39/39/39 37/37/37 40/40/40
f 38/38/38 41/41/41 37/37/37
f 39/39/39 40/40/40 42/42/42
f 43/43/43 41/41/41 38/38/38
f 42/42/42 40/40/40 44/44/44
f 43/43/43 44/44/44 41/41/41
f 42/42/42 44/44/44 43/43/43
